<?xml version="1.0" encoding="utf-8" standalone="no"?>
<!DOCTYPE svg PUBLIC "-//W3C//DTD SVG 1.1//EN"
  "http://www.w3.org/Graphics/SVG/1.1/DTD/svg11.dtd">
<!-- Created with matplotlib (https://matplotlib.org/) -->
<svg height="279.71625pt" version="1.1" viewBox="0 0 384.192187 279.71625" width="384.192187pt" xmlns="http://www.w3.org/2000/svg" xmlns:xlink="http://www.w3.org/1999/xlink">
 <defs>
  <style type="text/css">
*{stroke-linecap:butt;stroke-linejoin:round;}
  </style>
 </defs>
 <g id="figure_1">
  <g id="patch_1">
   <path d="M 0 279.71625 
L 384.192187 279.71625 
L 384.192187 0 
L 0 0 
z
" style="fill:none;"/>
  </g>
  <g id="axes_1">
   <g id="patch_2">
    <path d="M 34.240625 242.16 
L 369.040625 242.16 
L 369.040625 24.72 
L 34.240625 24.72 
z
" style="fill:#ffffff;"/>
   </g>
   <g id="PolyCollection_1">
    <defs>
     <path d="M 34.240625 -73.79625 
L 34.240625 -73.79625 
L 34.911567 -72.238611 
L 35.582509 -71.715945 
L 36.253451 -71.29917 
L 36.924393 -70.857488 
L 37.595334 -70.577416 
L 38.266276 -70.235565 
L 38.937218 -69.963694 
L 39.60816 -69.692239 
L 40.279102 -69.496395 
L 40.950044 -69.347744 
L 41.620986 -69.256839 
L 42.291928 -69.044615 
L 42.962869 -68.826345 
L 43.633811 -68.610452 
L 44.304753 -68.532503 
L 44.975695 -68.338637 
L 45.646637 -68.307178 
L 46.317579 -68.147482 
L 46.988521 -68.010684 
L 47.659463 -67.971923 
L 48.330405 -67.85139 
L 49.001346 -67.775499 
L 49.672288 -67.716124 
L 50.34323 -67.572727 
L 51.014172 -67.524204 
L 51.685114 -67.400149 
L 52.356056 -67.311256 
L 53.026998 -67.233842 
L 53.69794 -67.130036 
L 54.368882 -66.956395 
L 55.039823 -66.780588 
L 55.710765 -66.750708 
L 56.381707 -66.669992 
L 57.052649 -66.508946 
L 57.723591 -66.482177 
L 58.394533 -66.37686 
L 59.065475 -66.352075 
L 59.736417 -66.320496 
L 60.407358 -66.258521 
L 61.0783 -66.207023 
L 61.749242 -66.101551 
L 62.420184 -65.954299 
L 63.091126 -65.836329 
L 63.762068 -65.752959 
L 64.43301 -65.701874 
L 65.103952 -65.671012 
L 65.774894 -65.567941 
L 66.445835 -65.463128 
L 67.116777 -65.352008 
L 67.787719 -65.232044 
L 68.458661 -65.209566 
L 69.129603 -65.114801 
L 69.800545 -65.101232 
L 70.471487 -65.037955 
L 71.142429 -64.847467 
L 71.81337 -64.774853 
L 72.484312 -64.764402 
L 73.155254 -64.815986 
L 73.826196 -64.743329 
L 74.497138 -64.796408 
L 75.16808 -64.720576 
L 75.839022 -64.646638 
L 76.509964 -64.508877 
L 77.180906 -64.495604 
L 77.851847 -64.278536 
L 78.522789 -64.202331 
L 79.193731 -64.224292 
L 79.864673 -64.227887 
L 80.535615 -64.36981 
L 81.206557 -64.294296 
L 81.877499 -64.185049 
L 82.548441 -64.118132 
L 83.219383 -63.986976 
L 83.890324 -63.879538 
L 84.561266 -63.869439 
L 85.232208 -63.802441 
L 85.90315 -63.849632 
L 86.574092 -63.768315 
L 87.245034 -63.756357 
L 87.915976 -63.899554 
L 88.586918 -63.800312 
L 89.257859 -63.787639 
L 89.928801 -63.700612 
L 90.599743 -63.716318 
L 91.270685 -63.750334 
L 91.941627 -63.606689 
L 92.612569 -63.621529 
L 93.283511 -63.641987 
L 93.954453 -63.595252 
L 94.625395 -63.57348 
L 95.296336 -63.627822 
L 95.967278 -63.701196 
L 96.63822 -63.622367 
L 97.309162 -63.583334 
L 97.980104 -63.576009 
L 98.651046 -63.550914 
L 99.321988 -63.633746 
L 99.99293 -63.624267 
L 100.663871 -63.52279 
L 101.334813 -63.415025 
L 102.005755 -63.515801 
L 102.676697 -63.552053 
L 103.347639 -63.596927 
L 104.018581 -63.598705 
L 104.689523 -63.590766 
L 105.360465 -63.584285 
L 106.031407 -63.583792 
L 106.702348 -63.517428 
L 107.37329 -63.454067 
L 108.044232 -63.466445 
L 108.715174 -63.40087 
L 109.386116 -63.325343 
L 110.057058 -63.251035 
L 110.728 -63.404891 
L 111.398942 -63.454328 
L 112.069884 -63.503709 
L 112.740825 -63.398415 
L 113.411767 -63.309776 
L 114.082709 -63.256161 
L 114.753651 -63.214637 
L 115.424593 -63.289165 
L 116.095535 -63.163545 
L 116.766477 -63.131434 
L 117.437419 -63.05467 
L 118.10836 -62.995418 
L 118.779302 -62.852562 
L 119.450244 -62.779707 
L 120.121186 -62.785963 
L 120.792128 -62.559353 
L 121.46307 -62.475662 
L 122.134012 -62.38004 
L 122.804954 -62.208468 
L 123.475896 -62.158537 
L 124.146837 -62.201793 
L 124.817779 -62.19678 
L 125.488721 -62.06944 
L 126.159663 -62.036234 
L 126.830605 -62.002604 
L 127.501547 -61.972046 
L 128.172489 -61.951055 
L 128.843431 -61.91968 
L 129.514372 -61.897853 
L 130.185314 -62.086905 
L 130.856256 -62.138691 
L 131.527198 -62.081178 
L 132.19814 -61.926666 
L 132.869082 -61.921438 
L 133.540024 -61.957456 
L 134.210966 -61.966073 
L 134.881908 -61.973106 
L 135.552849 -61.816386 
L 136.223791 -61.904454 
L 136.894733 -61.936932 
L 137.565675 -61.911949 
L 138.236617 -61.94839 
L 138.907559 -62.112429 
L 139.578501 -62.149011 
L 140.249443 -62.140472 
L 140.920385 -61.946351 
L 141.591326 -61.953944 
L 142.262268 -61.836074 
L 142.93321 -61.816642 
L 143.604152 -61.590958 
L 144.275094 -61.610998 
L 144.946036 -61.477003 
L 145.616978 -61.493999 
L 146.28792 -61.262695 
L 146.958861 -61.152566 
L 147.629803 -61.231265 
L 148.300745 -61.112727 
L 148.971687 -61.070803 
L 149.642629 -61.017785 
L 150.313571 -60.947997 
L 150.984513 -60.93227 
L 151.655455 -60.875395 
L 152.326397 -60.721102 
L 152.997338 -60.639234 
L 153.66828 -60.495616 
L 154.339222 -60.28951 
L 155.010164 -60.224476 
L 155.681106 -60.183136 
L 156.352048 -60.072386 
L 157.02299 -60.1711 
L 157.693932 -60.268937 
L 158.364873 -60.279504 
L 159.035815 -60.347871 
L 159.706757 -60.38736 
L 160.377699 -60.221519 
L 161.048641 -60.192593 
L 161.719583 -60.175644 
L 162.390525 -60.128743 
L 163.061467 -60.120111 
L 163.732409 -60.12589 
L 164.40335 -60.108113 
L 165.074292 -60.175416 
L 165.745234 -60.216552 
L 166.416176 -60.182236 
L 167.087118 -60.065189 
L 167.75806 -60.096813 
L 168.429002 -60.000467 
L 169.099944 -59.920472 
L 169.770886 -60.023391 
L 170.441827 -59.919448 
L 171.112769 -59.789155 
L 171.783711 -59.647768 
L 172.454653 -59.614747 
L 173.125595 -59.435343 
L 173.796537 -59.385332 
L 174.467479 -59.28076 
L 175.138421 -59.278186 
L 175.809362 -59.370449 
L 176.480304 -59.235885 
L 177.151246 -59.264151 
L 177.822188 -59.026193 
L 178.49313 -59.110289 
L 179.164072 -59.190659 
L 179.835014 -59.110179 
L 180.505956 -58.992691 
L 181.176898 -58.909869 
L 181.847839 -58.722025 
L 182.518781 -58.774413 
L 183.189723 -58.756238 
L 183.860665 -58.677237 
L 184.531607 -58.459685 
L 185.202549 -58.475139 
L 185.873491 -58.3943 
L 186.544433 -58.472165 
L 187.215374 -58.398259 
L 187.886316 -58.40701 
L 188.557258 -58.544661 
L 189.2282 -58.507855 
L 189.899142 -58.479332 
L 190.570084 -58.544073 
L 191.241026 -58.509326 
L 191.911968 -58.537858 
L 192.58291 -58.583102 
L 193.253851 -58.577567 
L 193.924793 -58.529877 
L 194.595735 -58.273115 
L 195.266677 -58.257491 
L 195.937619 -58.064475 
L 196.608561 -58.207645 
L 197.279503 -58.17485 
L 197.950445 -58.104934 
L 198.621387 -57.901549 
L 199.292328 -57.918839 
L 199.96327 -57.773884 
L 200.634212 -57.575034 
L 201.305154 -57.593789 
L 201.976096 -57.507732 
L 202.647038 -57.586709 
L 203.31798 -57.642089 
L 203.988922 -57.498167 
L 204.659863 -57.422893 
L 205.330805 -57.419475 
L 206.001747 -57.253928 
L 206.672689 -57.057983 
L 207.343631 -57.098232 
L 208.014573 -57.058624 
L 208.685515 -56.983417 
L 209.356457 -56.934614 
L 210.027399 -56.852089 
L 210.69834 -56.804876 
L 211.369282 -56.652776 
L 212.040224 -56.513233 
L 212.711166 -56.723992 
L 213.382108 -56.539281 
L 214.05305 -56.411389 
L 214.723992 -56.289228 
L 215.394934 -56.323152 
L 216.065876 -56.040968 
L 216.736817 -55.907626 
L 217.407759 -55.879808 
L 218.078701 -55.792713 
L 218.749643 -55.766409 
L 219.420585 -55.829139 
L 220.091527 -55.856223 
L 220.762469 -55.780555 
L 221.433411 -55.838104 
L 222.104352 -56.01775 
L 222.775294 -56.082004 
L 223.446236 -55.975354 
L 224.117178 -55.942326 
L 224.78812 -55.985338 
L 225.459062 -55.849427 
L 226.130004 -55.848053 
L 226.800946 -55.822662 
L 227.471888 -55.423634 
L 228.142829 -55.238154 
L 228.813771 -55.208312 
L 229.484713 -55.170834 
L 230.155655 -55.151509 
L 230.826597 -54.963249 
L 231.497539 -54.704355 
L 232.168481 -54.683562 
L 232.839423 -54.64932 
L 233.510364 -54.719032 
L 234.181306 -54.937176 
L 234.852248 -54.716168 
L 235.52319 -54.627706 
L 236.194132 -54.657732 
L 236.865074 -54.791773 
L 237.536016 -54.63923 
L 238.206958 -54.587373 
L 238.8779 -54.553785 
L 239.548841 -54.6113 
L 240.219783 -54.244637 
L 240.890725 -54.140558 
L 241.561667 -54.118083 
L 242.232609 -54.06727 
L 242.903551 -54.105518 
L 243.574493 -53.940051 
L 244.245435 -53.729707 
L 244.916377 -53.576504 
L 245.587318 -53.241977 
L 246.25826 -53.471934 
L 246.929202 -53.390675 
L 247.600144 -53.213991 
L 248.271086 -52.753714 
L 248.942028 -52.429664 
L 249.61297 -52.356832 
L 250.283912 -52.027568 
L 250.954853 -51.867342 
L 251.625795 -51.76175 
L 252.296737 -51.5515 
L 252.967679 -51.534958 
L 253.638621 -51.553488 
L 254.309563 -51.905736 
L 254.980505 -51.565299 
L 255.651447 -51.342034 
L 256.322389 -51.617896 
L 256.99333 -51.244408 
L 257.664272 -51.08061 
L 258.335214 -51.035556 
L 259.006156 -51.180029 
L 259.677098 -50.981763 
L 260.34804 -51.109317 
L 261.018982 -51.112018 
L 261.689924 -51.384796 
L 262.360865 -51.260254 
L 263.031807 -51.34631 
L 263.702749 -51.460059 
L 264.373691 -51.476638 
L 265.044633 -51.298545 
L 265.715575 -51.378631 
L 266.386517 -51.351319 
L 267.057459 -51.433699 
L 267.728401 -51.022684 
L 268.399342 -51.252972 
L 269.070284 -51.321692 
L 269.741226 -51.095359 
L 270.412168 -50.930706 
L 271.08311 -50.665505 
L 271.754052 -50.576094 
L 272.424994 -50.64282 
L 273.095936 -50.736069 
L 273.766878 -50.732737 
L 274.437819 -50.9223 
L 275.108761 -51.093356 
L 275.779703 -50.799772 
L 276.450645 -50.897025 
L 277.121587 -50.535812 
L 277.792529 -50.496378 
L 278.463471 -50.552568 
L 279.134413 -50.357203 
L 279.805354 -50.25616 
L 280.476296 -50.381376 
L 281.147238 -50.208169 
L 281.81818 -50.052571 
L 282.489122 -50.182628 
L 283.160064 -50.119195 
L 283.831006 -49.737757 
L 284.501948 -49.382017 
L 285.17289 -49.420343 
L 285.843831 -49.554609 
L 286.514773 -49.389627 
L 287.185715 -49.260871 
L 287.856657 -49.112854 
L 288.527599 -49.042925 
L 289.198541 -49.049212 
L 289.869483 -48.956262 
L 290.540425 -48.852479 
L 291.211366 -48.8098 
L 291.882308 -48.754042 
L 292.55325 -48.6827 
L 293.224192 -48.584415 
L 293.895134 -48.418602 
L 294.566076 -48.422478 
L 295.237018 -47.90424 
L 295.90796 -47.484449 
L 296.578902 -47.112192 
L 297.249843 -47.066373 
L 297.920785 -47.112178 
L 298.591727 -47.179051 
L 299.262669 -46.74991 
L 299.933611 -46.853459 
L 300.604553 -46.843706 
L 301.275495 -46.384525 
L 301.946437 -46.680291 
L 302.617379 -46.819325 
L 303.28832 -46.414651 
L 303.959262 -46.254575 
L 304.630204 -46.060554 
L 305.301146 -46.072487 
L 305.972088 -46.279013 
L 306.64303 -46.165392 
L 307.313972 -45.794081 
L 307.984914 -45.613579 
L 308.655855 -45.390514 
L 309.326797 -45.299497 
L 309.997739 -45.717643 
L 310.668681 -45.652942 
L 311.339623 -45.733299 
L 312.010565 -45.453209 
L 312.681507 -45.463456 
L 313.352449 -45.946963 
L 314.023391 -45.812345 
L 314.694332 -45.891671 
L 315.365274 -45.528627 
L 316.036216 -45.100452 
L 316.707158 -45.04349 
L 317.3781 -44.969649 
L 318.049042 -44.928778 
L 318.719984 -44.742879 
L 319.390926 -44.308847 
L 320.061867 -43.995109 
L 320.732809 -43.670301 
L 321.403751 -43.722707 
L 322.074693 -43.49289 
L 322.745635 -43.636394 
L 323.416577 -43.597038 
L 324.087519 -43.328111 
L 324.758461 -43.284832 
L 325.429403 -43.153231 
L 326.100344 -43.049138 
L 326.771286 -42.64665 
L 327.442228 -42.415437 
L 328.11317 -42.378231 
L 328.784112 -42.182106 
L 329.455054 -41.877084 
L 330.125996 -41.909694 
L 330.796938 -41.876234 
L 331.46788 -42.087323 
L 332.138821 -41.800118 
L 332.809763 -41.508166 
L 333.480705 -41.420278 
L 334.151647 -41.462628 
L 334.822589 -41.664429 
L 335.493531 -41.627761 
L 336.164473 -41.722472 
L 336.835415 -41.392163 
L 337.506356 -41.033735 
L 338.177298 -40.835388 
L 338.84824 -40.57671 
L 339.519182 -40.487412 
L 340.190124 -40.217952 
L 340.861066 -40.340433 
L 341.532008 -39.983307 
L 342.20295 -40.197395 
L 342.873892 -40.246222 
L 343.544833 -40.356695 
L 344.215775 -40.539363 
L 344.886717 -40.626145 
L 345.557659 -40.083205 
L 346.228601 -40.082291 
L 346.899543 -40.110953 
L 347.570485 -40.537946 
L 348.241427 -40.593652 
L 348.912368 -40.662901 
L 349.58331 -40.154241 
L 350.254252 -40.379375 
L 350.925194 -40.445515 
L 351.596136 -40.435751 
L 352.267078 -40.680003 
L 352.93802 -40.657805 
L 353.608962 -40.26096 
L 354.279904 -40.177842 
L 354.950845 -40.220273 
L 355.621787 -40.386051 
L 356.292729 -40.242244 
L 356.963671 -40.660537 
L 357.634613 -40.27747 
L 358.305555 -40.317412 
L 358.976497 -40.488597 
L 359.647439 -40.38911 
L 360.318381 -40.283341 
L 360.989322 -39.947861 
L 361.660264 -40.112197 
L 362.331206 -39.409811 
L 363.002148 -39.267888 
L 363.67309 -38.888813 
L 364.344032 -39.114197 
L 365.014974 -39.051691 
L 365.685916 -39.24882 
L 366.356857 -39.113787 
L 367.027799 -38.858692 
L 367.698741 -38.92286 
L 368.369683 -38.901809 
L 369.040625 -38.595095 
L 369.040625 -264.106169 
L 369.040625 -264.106169 
L 368.369683 -263.115631 
L 367.698741 -262.777602 
L 367.027799 -261.905547 
L 366.356857 -261.15257 
L 365.685916 -260.658888 
L 365.014974 -260.37405 
L 364.344032 -259.75074 
L 363.67309 -259.520281 
L 363.002148 -258.563544 
L 362.331206 -257.888349 
L 361.660264 -256.681354 
L 360.989322 -256.524393 
L 360.318381 -255.801029 
L 359.647439 -255.185778 
L 358.976497 -254.535363 
L 358.305555 -254.175173 
L 357.634613 -253.46446 
L 356.963671 -252.632016 
L 356.292729 -252.559483 
L 355.621787 -252.077627 
L 354.950845 -252.106286 
L 354.279904 -251.735407 
L 353.608962 -251.129245 
L 352.93802 -250.261066 
L 352.267078 -250.026873 
L 351.596136 -249.96683 
L 350.925194 -249.449669 
L 350.254252 -249.185749 
L 349.58331 -249.126903 
L 348.912368 -248.041298 
L 348.241427 -247.624424 
L 347.570485 -246.980935 
L 346.899543 -246.954414 
L 346.228601 -246.518829 
L 345.557659 -246.08766 
L 344.886717 -245.145856 
L 344.215775 -244.600512 
L 343.544833 -244.40981 
L 342.873892 -244.135072 
L 342.20295 -244.086728 
L 341.532008 -243.734538 
L 340.861066 -242.602047 
L 340.190124 -242.390564 
L 339.519182 -241.707866 
L 338.84824 -241.270133 
L 338.177298 -240.4475 
L 337.506356 -239.833248 
L 336.835415 -238.755964 
L 336.164473 -237.718318 
L 335.493531 -237.453484 
L 334.822589 -237.131975 
L 334.151647 -236.998315 
L 333.480705 -236.448516 
L 332.809763 -235.595237 
L 332.138821 -234.811291 
L 331.46788 -233.989445 
L 330.796938 -233.636217 
L 330.125996 -233.007132 
L 329.455054 -232.371893 
L 328.784112 -231.593904 
L 328.11317 -231.163253 
L 327.442228 -230.412867 
L 326.771286 -229.658692 
L 326.100344 -228.464319 
L 325.429403 -227.959322 
L 324.758461 -227.65738 
L 324.087519 -227.189463 
L 323.416577 -226.468747 
L 322.745635 -225.798356 
L 322.074693 -225.807542 
L 321.403751 -225.288645 
L 320.732809 -224.763996 
L 320.061867 -223.940314 
L 319.390926 -223.344953 
L 318.719984 -222.520455 
L 318.049042 -221.964228 
L 317.3781 -221.302029 
L 316.707158 -220.856162 
L 316.036216 -220.388034 
L 315.365274 -219.600058 
L 314.694332 -218.61776 
L 314.023391 -218.219456 
L 313.352449 -217.446735 
L 312.681507 -217.587228 
L 312.010565 -217.410822 
L 311.339623 -216.83796 
L 310.668681 -216.32433 
L 309.997739 -215.695394 
L 309.326797 -215.763854 
L 308.655855 -215.175686 
L 307.984914 -214.643541 
L 307.313972 -213.970512 
L 306.64303 -212.977529 
L 305.972088 -212.369818 
L 305.301146 -212.113781 
L 304.630204 -211.894696 
L 303.959262 -211.114221 
L 303.28832 -210.386405 
L 302.617379 -209.407936 
L 301.946437 -209.062345 
L 301.275495 -209.229448 
L 300.604553 -208.167223 
L 299.933611 -207.682085 
L 299.262669 -207.301622 
L 298.591727 -206.379604 
L 297.920785 -206.24261 
L 297.249843 -205.994086 
L 296.578902 -205.643846 
L 295.90796 -204.838933 
L 295.237018 -204.147164 
L 294.566076 -203.132383 
L 293.895134 -202.697316 
L 293.224192 -201.970724 
L 292.55325 -201.550024 
L 291.882308 -201.312213 
L 291.211366 -200.872388 
L 290.540425 -200.322558 
L 289.869483 -199.428199 
L 289.198541 -199.027258 
L 288.527599 -198.75362 
L 287.856657 -198.170268 
L 287.185715 -197.57609 
L 286.514773 -196.936556 
L 285.843831 -196.248068 
L 285.17289 -195.993199 
L 284.501948 -195.531072 
L 283.831006 -194.542695 
L 283.160064 -193.682658 
L 282.489122 -193.148457 
L 281.81818 -192.750303 
L 281.147238 -192.267971 
L 280.476296 -191.819115 
L 279.805354 -191.598201 
L 279.134413 -191.309794 
L 278.463471 -190.726337 
L 277.792529 -190.358603 
L 277.121587 -189.811594 
L 276.450645 -188.881966 
L 275.779703 -188.616914 
L 275.108761 -187.909352 
L 274.437819 -187.562419 
L 273.766878 -187.274846 
L 273.095936 -186.91414 
L 272.424994 -186.753185 
L 271.754052 -186.424165 
L 271.08311 -185.994733 
L 270.412168 -185.318733 
L 269.741226 -184.768537 
L 269.070284 -184.288684 
L 268.399342 -183.698946 
L 267.728401 -183.385264 
L 267.057459 -182.581177 
L 266.386517 -182.264894 
L 265.715575 -181.941487 
L 265.044633 -181.69506 
L 264.373691 -181.206292 
L 263.702749 -180.789861 
L 263.031807 -180.498479 
L 262.360865 -180.378903 
L 261.689924 -179.886022 
L 261.018982 -179.899726 
L 260.34804 -179.512767 
L 259.677098 -179.291108 
L 259.006156 -178.730737 
L 258.335214 -178.588866 
L 257.664272 -178.118067 
L 256.99333 -177.7972 
L 256.322389 -176.949244 
L 255.651447 -176.983575 
L 254.980505 -176.606412 
L 254.309563 -175.850347 
L 253.638621 -176.031663 
L 252.967679 -175.707423 
L 252.296737 -175.398936 
L 251.625795 -174.724035 
L 250.954853 -174.216093 
L 250.283912 -173.687067 
L 249.61297 -173.183631 
L 248.942028 -172.761756 
L 248.271086 -172.089621 
L 247.600144 -171.239682 
L 246.929202 -170.614279 
L 246.25826 -170.191894 
L 245.587318 -170.249034 
L 244.916377 -169.547132 
L 244.245435 -168.865507 
L 243.574493 -168.229011 
L 242.903551 -167.566411 
L 242.232609 -167.394266 
L 241.561667 -167.06834 
L 240.890725 -166.720188 
L 240.219783 -166.21456 
L 239.548841 -165.465737 
L 238.8779 -165.148305 
L 238.206958 -164.904359 
L 237.536016 -164.58381 
L 236.865074 -164.058234 
L 236.194132 -163.886144 
L 235.52319 -163.525543 
L 234.852248 -163.233644 
L 234.181306 -162.580178 
L 233.510364 -162.488901 
L 232.839423 -162.238651 
L 232.168481 -161.931129 
L 231.497539 -161.748572 
L 230.826597 -161.276752 
L 230.155655 -160.726011 
L 229.484713 -160.287419 
L 228.813771 -159.831478 
L 228.142829 -159.555462 
L 227.471888 -159.135173 
L 226.800946 -158.24695 
L 226.130004 -157.832581 
L 225.459062 -157.529343 
L 224.78812 -157.242701 
L 224.117178 -157.053784 
L 223.446236 -156.759581 
L 222.775294 -156.28697 
L 222.104352 -155.941216 
L 221.433411 -155.815739 
L 220.762469 -155.489397 
L 220.091527 -155.011704 
L 219.420585 -154.678619 
L 218.749643 -154.410448 
L 218.078701 -154.204431 
L 217.407759 -153.907776 
L 216.736817 -153.454843 
L 216.065876 -153.043637 
L 215.394934 -152.456994 
L 214.723992 -152.030895 
L 214.05305 -151.442158 
L 213.382108 -151.136696 
L 212.711166 -150.640665 
L 212.040224 -150.632783 
L 211.369282 -150.098476 
L 210.69834 -149.714619 
L 210.027399 -149.240601 
L 209.356457 -148.905759 
L 208.685515 -148.659749 
L 208.014573 -148.327971 
L 207.343631 -148.149372 
L 206.672689 -147.96875 
L 206.001747 -147.544816 
L 205.330805 -147.017013 
L 204.659863 -146.653786 
L 203.988922 -146.40894 
L 203.31798 -145.925131 
L 202.647038 -145.629091 
L 201.976096 -145.359527 
L 201.305154 -144.789395 
L 200.634212 -144.487091 
L 199.96327 -143.948747 
L 199.292328 -143.558304 
L 198.621387 -143.410424 
L 197.950445 -143.001879 
L 197.279503 -142.772928 
L 196.608561 -142.560774 
L 195.937619 -142.518277 
L 195.266677 -142.056988 
L 194.595735 -141.720781 
L 193.924793 -141.182113 
L 193.253851 -140.874861 
L 192.58291 -140.693827 
L 191.911968 -140.399641 
L 191.241026 -140.179537 
L 190.570084 -139.782596 
L 189.899142 -139.673147 
L 189.2282 -139.434916 
L 188.557258 -139.199512 
L 187.886316 -139.038564 
L 187.215374 -138.839892 
L 186.544433 -138.470744 
L 185.873491 -138.363774 
L 185.202549 -137.95472 
L 184.531607 -137.863463 
L 183.860665 -137.369739 
L 183.189723 -136.98225 
L 182.518781 -136.859942 
L 181.847839 -136.708779 
L 181.176898 -136.180617 
L 180.505956 -135.882812 
L 179.835014 -135.529284 
L 179.164072 -135.126936 
L 178.49313 -134.769409 
L 177.822188 -134.597162 
L 177.151246 -134.035723 
L 176.480304 -133.957055 
L 175.809362 -133.519631 
L 175.138421 -133.321877 
L 174.467479 -133.080116 
L 173.796537 -132.764865 
L 173.125595 -132.374959 
L 172.454653 -131.988428 
L 171.783711 -131.708099 
L 171.112769 -131.258468 
L 170.441827 -130.805733 
L 169.770886 -130.459102 
L 169.099944 -130.352542 
L 168.429002 -130.082794 
L 167.75806 -129.699436 
L 167.087118 -129.547152 
L 166.416176 -129.162775 
L 165.745234 -128.947745 
L 165.074292 -128.881649 
L 164.40335 -128.745198 
L 163.732409 -128.56827 
L 163.061467 -128.3466 
L 162.390525 -128.136844 
L 161.719583 -127.785287 
L 161.048641 -127.612012 
L 160.377699 -127.419766 
L 159.706757 -127.001774 
L 159.035815 -126.8248 
L 158.364873 -126.423057 
L 157.693932 -126.19363 
L 157.02299 -126.047897 
L 156.352048 -125.98879 
L 155.681106 -125.675607 
L 155.010164 -125.382225 
L 154.339222 -125.136119 
L 153.66828 -124.592576 
L 152.997338 -124.216875 
L 152.326397 -123.853399 
L 151.655455 -123.333861 
L 150.984513 -122.911876 
L 150.313571 -122.71928 
L 149.642629 -122.44606 
L 148.971687 -122.209533 
L 148.300745 -121.91907 
L 147.629803 -121.620739 
L 146.958861 -121.553731 
L 146.28792 -121.120144 
L 145.616978 -120.520103 
L 144.946036 -120.380301 
L 144.275094 -119.97284 
L 143.604152 -119.66501 
L 142.93321 -119.244272 
L 142.262268 -118.894699 
L 141.591326 -118.558288 
L 140.920385 -118.419616 
L 140.249443 -117.960843 
L 139.578501 -117.729004 
L 138.907559 -117.545344 
L 138.236617 -117.3891 
L 137.565675 -117.17175 
L 136.894733 -116.87162 
L 136.223791 -116.582479 
L 135.552849 -116.538054 
L 134.881908 -116.004773 
L 134.210966 -115.861044 
L 133.540024 -115.623075 
L 132.869082 -115.366879 
L 132.19814 -114.985226 
L 131.527198 -114.58428 
L 130.856256 -114.398253 
L 130.185314 -114.202777 
L 129.514372 -114.151221 
L 128.843431 -113.766375 
L 128.172489 -113.616074 
L 127.501547 -113.309744 
L 126.830605 -113.030997 
L 126.159663 -112.843587 
L 125.488721 -112.566075 
L 124.817779 -112.156581 
L 124.146837 -111.887847 
L 123.475896 -111.631757 
L 122.804954 -111.325925 
L 122.134012 -110.764463 
L 121.46307 -110.413813 
L 120.792128 -109.979307 
L 120.121186 -109.489248 
L 119.450244 -109.221388 
L 118.779302 -108.889218 
L 118.10836 -108.50791 
L 117.437419 -108.22708 
L 116.766477 -108.022294 
L 116.095535 -107.773659 
L 115.424593 -107.432459 
L 114.753651 -107.328335 
L 114.082709 -107.009908 
L 113.411767 -106.62005 
L 112.740825 -106.371549 
L 112.069884 -106.062771 
L 111.398942 -105.871994 
L 110.728 -105.658561 
L 110.057058 -105.53868 
L 109.386116 -105.354957 
L 108.715174 -105.101724 
L 108.044232 -104.856278 
L 107.37329 -104.580888 
L 106.702348 -104.367421 
L 106.031407 -104.080669 
L 105.360465 -103.921574 
L 104.689523 -103.645438 
L 104.018581 -103.459353 
L 103.347639 -103.163112 
L 102.676697 -102.925411 
L 102.005755 -102.837023 
L 101.334813 -102.653134 
L 100.663871 -102.236356 
L 99.99293 -101.835851 
L 99.321988 -101.618441 
L 98.651046 -101.56167 
L 97.980104 -101.214332 
L 97.309162 -101.020962 
L 96.63822 -100.73079 
L 95.967278 -100.396601 
L 95.296336 -100.304767 
L 94.625395 -100.135543 
L 93.954453 -99.852935 
L 93.283511 -99.572971 
L 92.612569 -99.381485 
L 91.941627 -99.085668 
L 91.270685 -98.641578 
L 90.599743 -98.474733 
L 89.928801 -98.324265 
L 89.257859 -98.079677 
L 88.586918 -97.902222 
L 87.915976 -97.583987 
L 87.245034 -97.459424 
L 86.574092 -97.266876 
L 85.90315 -96.964699 
L 85.232208 -96.827957 
L 84.561266 -96.533428 
L 83.890324 -96.31439 
L 83.219383 -95.990506 
L 82.548441 -95.691947 
L 81.877499 -95.4364 
L 81.206557 -95.1174 
L 80.535615 -94.880346 
L 79.864673 -94.865096 
L 79.193731 -94.664206 
L 78.522789 -94.52065 
L 77.851847 -94.284223 
L 77.180906 -93.845931 
L 76.509964 -93.675477 
L 75.839022 -93.449993 
L 75.16808 -93.24805 
L 74.497138 -93.001752 
L 73.826196 -92.806438 
L 73.155254 -92.613125 
L 72.484312 -92.491822 
L 71.81337 -92.300761 
L 71.142429 -92.013278 
L 70.471487 -91.708659 
L 69.800545 -91.416643 
L 69.129603 -91.157231 
L 68.458661 -90.823499 
L 67.787719 -90.649599 
L 67.116777 -90.391406 
L 66.445835 -90.152773 
L 65.774894 -89.919838 
L 65.103952 -89.670276 
L 64.43301 -89.460261 
L 63.762068 -89.143251 
L 63.091126 -88.818387 
L 62.420184 -88.532329 
L 61.749242 -88.20623 
L 61.0783 -87.901531 
L 60.407358 -87.634141 
L 59.736417 -87.359347 
L 59.065475 -87.134526 
L 58.394533 -86.976999 
L 57.723591 -86.721686 
L 57.052649 -86.564829 
L 56.381707 -86.252868 
L 55.710765 -86.030042 
L 55.039823 -85.779855 
L 54.368882 -85.448112 
L 53.69794 -85.152482 
L 53.026998 -84.912476 
L 52.356056 -84.690376 
L 51.685114 -84.431369 
L 51.014172 -84.14397 
L 50.34323 -83.950326 
L 49.672288 -83.656738 
L 49.001346 -83.445672 
L 48.330405 -83.162874 
L 47.659463 -82.818853 
L 46.988521 -82.528202 
L 46.317579 -82.27887 
L 45.646637 -82.004846 
L 44.975695 -81.658812 
L 44.304753 -81.27865 
L 43.633811 -80.961277 
L 42.962869 -80.543148 
L 42.291928 -80.211565 
L 41.620986 -79.925424 
L 40.950044 -79.584327 
L 40.279102 -79.314713 
L 39.60816 -79.041469 
L 38.937218 -78.653561 
L 38.266276 -78.189626 
L 37.595334 -77.711341 
L 36.924393 -77.221401 
L 36.253451 -76.644371 
L 35.582509 -76.149867 
L 34.911567 -75.443505 
L 34.240625 -73.79625 
z
" id="m40b5389601" style="stroke:#808080;stroke-opacity:0.3;"/>
    </defs>
    <g clip-path="url(#pe0b58f4860)">
     <use style="fill:#808080;fill-opacity:0.3;stroke:#808080;stroke-opacity:0.3;" x="0" xlink:href="#m40b5389601" y="279.71625"/>
    </g>
   </g>
   <g id="matplotlib.axis_1">
    <g id="xtick_1">
     <g id="line2d_1">
      <defs>
       <path d="M 0 0 
L 0 3.5 
" id="m72f2f7761f" style="stroke:#000000;stroke-width:0.8;"/>
      </defs>
      <g>
       <use style="stroke:#000000;stroke-width:0.8;" x="34.240625" xlink:href="#m72f2f7761f" y="242.16"/>
      </g>
     </g>
     <g id="text_1">
      <!-- 0.0 -->
      <defs>
       <path d="M 31.78125 66.40625 
Q 24.171875 66.40625 20.328125 58.90625 
Q 16.5 51.421875 16.5 36.375 
Q 16.5 21.390625 20.328125 13.890625 
Q 24.171875 6.390625 31.78125 6.390625 
Q 39.453125 6.390625 43.28125 13.890625 
Q 47.125 21.390625 47.125 36.375 
Q 47.125 51.421875 43.28125 58.90625 
Q 39.453125 66.40625 31.78125 66.40625 
z
M 31.78125 74.21875 
Q 44.046875 74.21875 50.515625 64.515625 
Q 56.984375 54.828125 56.984375 36.375 
Q 56.984375 17.96875 50.515625 8.265625 
Q 44.046875 -1.421875 31.78125 -1.421875 
Q 19.53125 -1.421875 13.0625 8.265625 
Q 6.59375 17.96875 6.59375 36.375 
Q 6.59375 54.828125 13.0625 64.515625 
Q 19.53125 74.21875 31.78125 74.21875 
z
" id="DejaVuSans-48"/>
       <path d="M 10.6875 12.40625 
L 21 12.40625 
L 21 0 
L 10.6875 0 
z
" id="DejaVuSans-46"/>
      </defs>
      <g transform="translate(26.289062 256.758437)scale(0.1 -0.1)">
       <use xlink:href="#DejaVuSans-48"/>
       <use x="63.623047" xlink:href="#DejaVuSans-46"/>
       <use x="95.410156" xlink:href="#DejaVuSans-48"/>
      </g>
     </g>
    </g>
    <g id="xtick_2">
     <g id="line2d_2">
      <g>
       <use style="stroke:#000000;stroke-width:0.8;" x="101.200625" xlink:href="#m72f2f7761f" y="242.16"/>
      </g>
     </g>
     <g id="text_2">
      <!-- 0.2 -->
      <defs>
       <path d="M 19.1875 8.296875 
L 53.609375 8.296875 
L 53.609375 0 
L 7.328125 0 
L 7.328125 8.296875 
Q 12.9375 14.109375 22.625 23.890625 
Q 32.328125 33.6875 34.8125 36.53125 
Q 39.546875 41.84375 41.421875 45.53125 
Q 43.3125 49.21875 43.3125 52.78125 
Q 43.3125 58.59375 39.234375 62.25 
Q 35.15625 65.921875 28.609375 65.921875 
Q 23.96875 65.921875 18.8125 64.3125 
Q 13.671875 62.703125 7.8125 59.421875 
L 7.8125 69.390625 
Q 13.765625 71.78125 18.9375 73 
Q 24.125 74.21875 28.421875 74.21875 
Q 39.75 74.21875 46.484375 68.546875 
Q 53.21875 62.890625 53.21875 53.421875 
Q 53.21875 48.921875 51.53125 44.890625 
Q 49.859375 40.875 45.40625 35.40625 
Q 44.1875 33.984375 37.640625 27.21875 
Q 31.109375 20.453125 19.1875 8.296875 
z
" id="DejaVuSans-50"/>
      </defs>
      <g transform="translate(93.249063 256.758437)scale(0.1 -0.1)">
       <use xlink:href="#DejaVuSans-48"/>
       <use x="63.623047" xlink:href="#DejaVuSans-46"/>
       <use x="95.410156" xlink:href="#DejaVuSans-50"/>
      </g>
     </g>
    </g>
    <g id="xtick_3">
     <g id="line2d_3">
      <g>
       <use style="stroke:#000000;stroke-width:0.8;" x="168.160625" xlink:href="#m72f2f7761f" y="242.16"/>
      </g>
     </g>
     <g id="text_3">
      <!-- 0.4 -->
      <defs>
       <path d="M 37.796875 64.3125 
L 12.890625 25.390625 
L 37.796875 25.390625 
z
M 35.203125 72.90625 
L 47.609375 72.90625 
L 47.609375 25.390625 
L 58.015625 25.390625 
L 58.015625 17.1875 
L 47.609375 17.1875 
L 47.609375 0 
L 37.796875 0 
L 37.796875 17.1875 
L 4.890625 17.1875 
L 4.890625 26.703125 
z
" id="DejaVuSans-52"/>
      </defs>
      <g transform="translate(160.209063 256.758437)scale(0.1 -0.1)">
       <use xlink:href="#DejaVuSans-48"/>
       <use x="63.623047" xlink:href="#DejaVuSans-46"/>
       <use x="95.410156" xlink:href="#DejaVuSans-52"/>
      </g>
     </g>
    </g>
    <g id="xtick_4">
     <g id="line2d_4">
      <g>
       <use style="stroke:#000000;stroke-width:0.8;" x="235.120625" xlink:href="#m72f2f7761f" y="242.16"/>
      </g>
     </g>
     <g id="text_4">
      <!-- 0.6 -->
      <defs>
       <path d="M 33.015625 40.375 
Q 26.375 40.375 22.484375 35.828125 
Q 18.609375 31.296875 18.609375 23.390625 
Q 18.609375 15.53125 22.484375 10.953125 
Q 26.375 6.390625 33.015625 6.390625 
Q 39.65625 6.390625 43.53125 10.953125 
Q 47.40625 15.53125 47.40625 23.390625 
Q 47.40625 31.296875 43.53125 35.828125 
Q 39.65625 40.375 33.015625 40.375 
z
M 52.59375 71.296875 
L 52.59375 62.3125 
Q 48.875 64.0625 45.09375 64.984375 
Q 41.3125 65.921875 37.59375 65.921875 
Q 27.828125 65.921875 22.671875 59.328125 
Q 17.53125 52.734375 16.796875 39.40625 
Q 19.671875 43.65625 24.015625 45.921875 
Q 28.375 48.1875 33.59375 48.1875 
Q 44.578125 48.1875 50.953125 41.515625 
Q 57.328125 34.859375 57.328125 23.390625 
Q 57.328125 12.15625 50.6875 5.359375 
Q 44.046875 -1.421875 33.015625 -1.421875 
Q 20.359375 -1.421875 13.671875 8.265625 
Q 6.984375 17.96875 6.984375 36.375 
Q 6.984375 53.65625 15.1875 63.9375 
Q 23.390625 74.21875 37.203125 74.21875 
Q 40.921875 74.21875 44.703125 73.484375 
Q 48.484375 72.75 52.59375 71.296875 
z
" id="DejaVuSans-54"/>
      </defs>
      <g transform="translate(227.169063 256.758437)scale(0.1 -0.1)">
       <use xlink:href="#DejaVuSans-48"/>
       <use x="63.623047" xlink:href="#DejaVuSans-46"/>
       <use x="95.410156" xlink:href="#DejaVuSans-54"/>
      </g>
     </g>
    </g>
    <g id="xtick_5">
     <g id="line2d_5">
      <g>
       <use style="stroke:#000000;stroke-width:0.8;" x="302.080625" xlink:href="#m72f2f7761f" y="242.16"/>
      </g>
     </g>
     <g id="text_5">
      <!-- 0.8 -->
      <defs>
       <path d="M 31.78125 34.625 
Q 24.75 34.625 20.71875 30.859375 
Q 16.703125 27.09375 16.703125 20.515625 
Q 16.703125 13.921875 20.71875 10.15625 
Q 24.75 6.390625 31.78125 6.390625 
Q 38.8125 6.390625 42.859375 10.171875 
Q 46.921875 13.96875 46.921875 20.515625 
Q 46.921875 27.09375 42.890625 30.859375 
Q 38.875 34.625 31.78125 34.625 
z
M 21.921875 38.8125 
Q 15.578125 40.375 12.03125 44.71875 
Q 8.5 49.078125 8.5 55.328125 
Q 8.5 64.0625 14.71875 69.140625 
Q 20.953125 74.21875 31.78125 74.21875 
Q 42.671875 74.21875 48.875 69.140625 
Q 55.078125 64.0625 55.078125 55.328125 
Q 55.078125 49.078125 51.53125 44.71875 
Q 48 40.375 41.703125 38.8125 
Q 48.828125 37.15625 52.796875 32.3125 
Q 56.78125 27.484375 56.78125 20.515625 
Q 56.78125 9.90625 50.3125 4.234375 
Q 43.84375 -1.421875 31.78125 -1.421875 
Q 19.734375 -1.421875 13.25 4.234375 
Q 6.78125 9.90625 6.78125 20.515625 
Q 6.78125 27.484375 10.78125 32.3125 
Q 14.796875 37.15625 21.921875 38.8125 
z
M 18.3125 54.390625 
Q 18.3125 48.734375 21.84375 45.5625 
Q 25.390625 42.390625 31.78125 42.390625 
Q 38.140625 42.390625 41.71875 45.5625 
Q 45.3125 48.734375 45.3125 54.390625 
Q 45.3125 60.0625 41.71875 63.234375 
Q 38.140625 66.40625 31.78125 66.40625 
Q 25.390625 66.40625 21.84375 63.234375 
Q 18.3125 60.0625 18.3125 54.390625 
z
" id="DejaVuSans-56"/>
      </defs>
      <g transform="translate(294.129063 256.758437)scale(0.1 -0.1)">
       <use xlink:href="#DejaVuSans-48"/>
       <use x="63.623047" xlink:href="#DejaVuSans-46"/>
       <use x="95.410156" xlink:href="#DejaVuSans-56"/>
      </g>
     </g>
    </g>
    <g id="xtick_6">
     <g id="line2d_6">
      <g>
       <use style="stroke:#000000;stroke-width:0.8;" x="369.040625" xlink:href="#m72f2f7761f" y="242.16"/>
      </g>
     </g>
     <g id="text_6">
      <!-- 1.0 -->
      <defs>
       <path d="M 12.40625 8.296875 
L 28.515625 8.296875 
L 28.515625 63.921875 
L 10.984375 60.40625 
L 10.984375 69.390625 
L 28.421875 72.90625 
L 38.28125 72.90625 
L 38.28125 8.296875 
L 54.390625 8.296875 
L 54.390625 0 
L 12.40625 0 
z
" id="DejaVuSans-49"/>
      </defs>
      <g transform="translate(361.089063 256.758437)scale(0.1 -0.1)">
       <use xlink:href="#DejaVuSans-49"/>
       <use x="63.623047" xlink:href="#DejaVuSans-46"/>
       <use x="95.410156" xlink:href="#DejaVuSans-48"/>
      </g>
     </g>
    </g>
    <g id="text_7">
     <!-- Time (t) -->
     <defs>
      <path d="M -0.296875 72.90625 
L 61.375 72.90625 
L 61.375 64.59375 
L 35.5 64.59375 
L 35.5 0 
L 25.59375 0 
L 25.59375 64.59375 
L -0.296875 64.59375 
z
" id="DejaVuSans-84"/>
      <path d="M 9.421875 54.6875 
L 18.40625 54.6875 
L 18.40625 0 
L 9.421875 0 
z
M 9.421875 75.984375 
L 18.40625 75.984375 
L 18.40625 64.59375 
L 9.421875 64.59375 
z
" id="DejaVuSans-105"/>
      <path d="M 52 44.1875 
Q 55.375 50.25 60.0625 53.125 
Q 64.75 56 71.09375 56 
Q 79.640625 56 84.28125 50.015625 
Q 88.921875 44.046875 88.921875 33.015625 
L 88.921875 0 
L 79.890625 0 
L 79.890625 32.71875 
Q 79.890625 40.578125 77.09375 44.375 
Q 74.3125 48.1875 68.609375 48.1875 
Q 61.625 48.1875 57.5625 43.546875 
Q 53.515625 38.921875 53.515625 30.90625 
L 53.515625 0 
L 44.484375 0 
L 44.484375 32.71875 
Q 44.484375 40.625 41.703125 44.40625 
Q 38.921875 48.1875 33.109375 48.1875 
Q 26.21875 48.1875 22.15625 43.53125 
Q 18.109375 38.875 18.109375 30.90625 
L 18.109375 0 
L 9.078125 0 
L 9.078125 54.6875 
L 18.109375 54.6875 
L 18.109375 46.1875 
Q 21.1875 51.21875 25.484375 53.609375 
Q 29.78125 56 35.6875 56 
Q 41.65625 56 45.828125 52.96875 
Q 50 49.953125 52 44.1875 
z
" id="DejaVuSans-109"/>
      <path d="M 56.203125 29.59375 
L 56.203125 25.203125 
L 14.890625 25.203125 
Q 15.484375 15.921875 20.484375 11.0625 
Q 25.484375 6.203125 34.421875 6.203125 
Q 39.59375 6.203125 44.453125 7.46875 
Q 49.3125 8.734375 54.109375 11.28125 
L 54.109375 2.78125 
Q 49.265625 0.734375 44.1875 -0.34375 
Q 39.109375 -1.421875 33.890625 -1.421875 
Q 20.796875 -1.421875 13.15625 6.1875 
Q 5.515625 13.8125 5.515625 26.8125 
Q 5.515625 40.234375 12.765625 48.109375 
Q 20.015625 56 32.328125 56 
Q 43.359375 56 49.78125 48.890625 
Q 56.203125 41.796875 56.203125 29.59375 
z
M 47.21875 32.234375 
Q 47.125 39.59375 43.09375 43.984375 
Q 39.0625 48.390625 32.421875 48.390625 
Q 24.90625 48.390625 20.390625 44.140625 
Q 15.875 39.890625 15.1875 32.171875 
z
" id="DejaVuSans-101"/>
      <path id="DejaVuSans-32"/>
      <path d="M 31 75.875 
Q 24.46875 64.65625 21.28125 53.65625 
Q 18.109375 42.671875 18.109375 31.390625 
Q 18.109375 20.125 21.3125 9.0625 
Q 24.515625 -2 31 -13.1875 
L 23.1875 -13.1875 
Q 15.875 -1.703125 12.234375 9.375 
Q 8.59375 20.453125 8.59375 31.390625 
Q 8.59375 42.28125 12.203125 53.3125 
Q 15.828125 64.359375 23.1875 75.875 
z
" id="DejaVuSans-40"/>
      <path d="M 18.3125 70.21875 
L 18.3125 54.6875 
L 36.8125 54.6875 
L 36.8125 47.703125 
L 18.3125 47.703125 
L 18.3125 18.015625 
Q 18.3125 11.328125 20.140625 9.421875 
Q 21.96875 7.515625 27.59375 7.515625 
L 36.8125 7.515625 
L 36.8125 0 
L 27.59375 0 
Q 17.1875 0 13.234375 3.875 
Q 9.28125 7.765625 9.28125 18.015625 
L 9.28125 47.703125 
L 2.6875 47.703125 
L 2.6875 54.6875 
L 9.28125 54.6875 
L 9.28125 70.21875 
z
" id="DejaVuSans-116"/>
      <path d="M 8.015625 75.875 
L 15.828125 75.875 
Q 23.140625 64.359375 26.78125 53.3125 
Q 30.421875 42.28125 30.421875 31.390625 
Q 30.421875 20.453125 26.78125 9.375 
Q 23.140625 -1.703125 15.828125 -13.1875 
L 8.015625 -13.1875 
Q 14.5 -2 17.703125 9.0625 
Q 20.90625 20.125 20.90625 31.390625 
Q 20.90625 42.671875 17.703125 53.65625 
Q 14.5 64.65625 8.015625 75.875 
z
" id="DejaVuSans-41"/>
     </defs>
     <g transform="translate(181.95625 270.436562)scale(0.1 -0.1)">
      <use xlink:href="#DejaVuSans-84"/>
      <use x="57.958984" xlink:href="#DejaVuSans-105"/>
      <use x="85.742188" xlink:href="#DejaVuSans-109"/>
      <use x="183.154297" xlink:href="#DejaVuSans-101"/>
      <use x="244.677734" xlink:href="#DejaVuSans-32"/>
      <use x="276.464844" xlink:href="#DejaVuSans-40"/>
      <use x="315.478516" xlink:href="#DejaVuSans-116"/>
      <use x="354.6875" xlink:href="#DejaVuSans-41"/>
     </g>
    </g>
   </g>
   <g id="matplotlib.axis_2">
    <g id="ytick_1">
     <g id="line2d_7">
      <defs>
       <path d="M 0 0 
L -3.5 0 
" id="mae47677375" style="stroke:#000000;stroke-width:0.8;"/>
      </defs>
      <g>
       <use style="stroke:#000000;stroke-width:0.8;" x="34.240625" xlink:href="#mae47677375" y="242.16"/>
      </g>
     </g>
     <g id="text_8">
      <!-- 0 -->
      <g transform="translate(20.878125 245.959219)scale(0.1 -0.1)">
       <use xlink:href="#DejaVuSans-48"/>
      </g>
     </g>
    </g>
    <g id="ytick_2">
     <g id="line2d_8">
      <g>
       <use style="stroke:#000000;stroke-width:0.8;" x="34.240625" xlink:href="#mae47677375" y="169.68"/>
      </g>
     </g>
     <g id="text_9">
      <!-- 2 -->
      <g transform="translate(20.878125 173.479219)scale(0.1 -0.1)">
       <use xlink:href="#DejaVuSans-50"/>
      </g>
     </g>
    </g>
    <g id="ytick_3">
     <g id="line2d_9">
      <g>
       <use style="stroke:#000000;stroke-width:0.8;" x="34.240625" xlink:href="#mae47677375" y="97.2"/>
      </g>
     </g>
     <g id="text_10">
      <!-- 4 -->
      <g transform="translate(20.878125 100.999219)scale(0.1 -0.1)">
       <use xlink:href="#DejaVuSans-52"/>
      </g>
     </g>
    </g>
    <g id="ytick_4">
     <g id="line2d_10">
      <g>
       <use style="stroke:#000000;stroke-width:0.8;" x="34.240625" xlink:href="#mae47677375" y="24.72"/>
      </g>
     </g>
     <g id="text_11">
      <!-- 6 -->
      <g transform="translate(20.878125 28.519219)scale(0.1 -0.1)">
       <use xlink:href="#DejaVuSans-54"/>
      </g>
     </g>
    </g>
    <g id="text_12">
     <!-- Value (x) -->
     <defs>
      <path d="M 28.609375 0 
L 0.78125 72.90625 
L 11.078125 72.90625 
L 34.1875 11.53125 
L 57.328125 72.90625 
L 67.578125 72.90625 
L 39.796875 0 
z
" id="DejaVuSans-86"/>
      <path d="M 34.28125 27.484375 
Q 23.390625 27.484375 19.1875 25 
Q 14.984375 22.515625 14.984375 16.5 
Q 14.984375 11.71875 18.140625 8.90625 
Q 21.296875 6.109375 26.703125 6.109375 
Q 34.1875 6.109375 38.703125 11.40625 
Q 43.21875 16.703125 43.21875 25.484375 
L 43.21875 27.484375 
z
M 52.203125 31.203125 
L 52.203125 0 
L 43.21875 0 
L 43.21875 8.296875 
Q 40.140625 3.328125 35.546875 0.953125 
Q 30.953125 -1.421875 24.3125 -1.421875 
Q 15.921875 -1.421875 10.953125 3.296875 
Q 6 8.015625 6 15.921875 
Q 6 25.140625 12.171875 29.828125 
Q 18.359375 34.515625 30.609375 34.515625 
L 43.21875 34.515625 
L 43.21875 35.40625 
Q 43.21875 41.609375 39.140625 45 
Q 35.0625 48.390625 27.6875 48.390625 
Q 23 48.390625 18.546875 47.265625 
Q 14.109375 46.140625 10.015625 43.890625 
L 10.015625 52.203125 
Q 14.9375 54.109375 19.578125 55.046875 
Q 24.21875 56 28.609375 56 
Q 40.484375 56 46.34375 49.84375 
Q 52.203125 43.703125 52.203125 31.203125 
z
" id="DejaVuSans-97"/>
      <path d="M 9.421875 75.984375 
L 18.40625 75.984375 
L 18.40625 0 
L 9.421875 0 
z
" id="DejaVuSans-108"/>
      <path d="M 8.5 21.578125 
L 8.5 54.6875 
L 17.484375 54.6875 
L 17.484375 21.921875 
Q 17.484375 14.15625 20.5 10.265625 
Q 23.53125 6.390625 29.59375 6.390625 
Q 36.859375 6.390625 41.078125 11.03125 
Q 45.3125 15.671875 45.3125 23.6875 
L 45.3125 54.6875 
L 54.296875 54.6875 
L 54.296875 0 
L 45.3125 0 
L 45.3125 8.40625 
Q 42.046875 3.421875 37.71875 1 
Q 33.40625 -1.421875 27.6875 -1.421875 
Q 18.265625 -1.421875 13.375 4.4375 
Q 8.5 10.296875 8.5 21.578125 
z
M 31.109375 56 
z
" id="DejaVuSans-117"/>
      <path d="M 54.890625 54.6875 
L 35.109375 28.078125 
L 55.90625 0 
L 45.3125 0 
L 29.390625 21.484375 
L 13.484375 0 
L 2.875 0 
L 24.125 28.609375 
L 4.6875 54.6875 
L 15.28125 54.6875 
L 29.78125 35.203125 
L 44.28125 54.6875 
z
" id="DejaVuSans-120"/>
     </defs>
     <g transform="translate(14.798437 155.62125)rotate(-90)scale(0.1 -0.1)">
      <use xlink:href="#DejaVuSans-86"/>
      <use x="60.658203" xlink:href="#DejaVuSans-97"/>
      <use x="121.9375" xlink:href="#DejaVuSans-108"/>
      <use x="149.720703" xlink:href="#DejaVuSans-117"/>
      <use x="213.099609" xlink:href="#DejaVuSans-101"/>
      <use x="274.623047" xlink:href="#DejaVuSans-32"/>
      <use x="306.410156" xlink:href="#DejaVuSans-40"/>
      <use x="345.423828" xlink:href="#DejaVuSans-120"/>
      <use x="404.603516" xlink:href="#DejaVuSans-41"/>
     </g>
    </g>
   </g>
   <g id="line2d_11">
    <path clip-path="url(#pe0b58f4860)" d="M 34.240625 205.92 
L 34.911567 204.386307 
L 35.582509 203.837062 
L 36.253451 205.054119 
L 36.924393 203.631195 
L 37.595334 203.020779 
L 38.266276 202.669714 
L 38.937218 200.741352 
L 39.60816 201.133336 
L 40.279102 200.123483 
L 40.950044 198.683109 
L 41.620986 198.792336 
L 42.291928 198.634784 
L 42.962869 197.61559 
L 44.304753 198.773029 
L 44.975695 196.21736 
L 45.646637 198.101803 
L 46.317579 198.627691 
L 46.988521 198.534498 
L 47.659463 197.117985 
L 48.330405 196.693318 
L 49.001346 197.595231 
L 49.672288 198.290035 
L 50.34323 198.050622 
L 51.014172 198.295836 
L 52.356056 197.417832 
L 53.026998 196.570901 
L 53.69794 197.437399 
L 54.368882 196.296712 
L 55.039823 195.821647 
L 55.710765 196.620349 
L 56.381707 196.098423 
L 57.052649 197.399971 
L 57.723591 198.377866 
L 58.394533 197.90853 
L 59.065475 198.206834 
L 59.736417 199.378064 
L 60.407358 199.583085 
L 61.0783 200.221747 
L 61.749242 201.921114 
L 62.420184 203.03294 
L 63.091126 203.857606 
L 64.43301 206.089161 
L 65.103952 205.55997 
L 65.774894 205.56179 
L 66.445835 204.612497 
L 67.116777 205.105562 
L 67.787719 206.202995 
L 68.458661 206.07762 
L 69.129603 205.818183 
L 69.800545 204.775553 
L 70.471487 204.233877 
L 71.142429 204.335749 
L 71.81337 204.556063 
L 72.484312 204.208537 
L 73.155254 203.362303 
L 73.826196 203.545722 
L 74.497138 201.980057 
L 75.16808 202.858025 
L 75.839022 201.436688 
L 76.509964 201.237808 
L 77.180906 200.740725 
L 77.851847 202.00115 
L 78.522789 202.569608 
L 79.193731 202.809675 
L 79.864673 202.519277 
L 80.535615 202.886306 
L 81.206557 203.527087 
L 81.877499 205.027783 
L 82.548441 205.467601 
L 83.219383 205.258251 
L 83.890324 204.257869 
L 84.561266 205.571177 
L 85.232208 204.906295 
L 85.90315 205.487238 
L 86.574092 204.347508 
L 89.257859 202.457521 
L 89.928801 202.698499 
L 90.599743 201.866557 
L 91.270685 201.690159 
L 91.941627 201.103165 
L 92.612569 201.242932 
L 93.283511 203.640238 
L 93.954453 203.849201 
L 94.625395 202.788832 
L 95.296336 202.605161 
L 95.967278 202.780944 
L 96.63822 202.510576 
L 97.309162 203.174153 
L 97.980104 204.120918 
L 98.651046 205.849732 
L 99.321988 204.431817 
L 99.99293 204.347278 
L 100.663871 202.474949 
L 101.334813 202.456015 
L 102.005755 202.80443 
L 102.676697 201.777604 
L 103.347639 200.225121 
L 104.018581 200.078538 
L 104.689523 200.189973 
L 105.360465 200.431725 
L 106.031407 198.289647 
L 106.702348 198.0236 
L 108.044232 199.659528 
L 109.386116 197.651864 
L 110.057058 198.655419 
L 110.728 198.859518 
L 111.398942 198.020803 
L 112.069884 197.411522 
L 112.740825 197.618547 
L 113.411767 197.945605 
L 114.082709 197.070362 
L 114.753651 197.015799 
L 115.424593 195.00781 
L 116.766477 195.767838 
L 117.437419 195.481399 
L 118.779302 197.474402 
L 119.450244 196.736453 
L 120.121186 196.914917 
L 120.792128 196.19016 
L 121.46307 195.887793 
L 122.134012 196.97734 
L 122.804954 196.431524 
L 123.475896 197.485111 
L 124.146837 197.849929 
L 124.817779 196.135743 
L 125.488721 196.864815 
L 126.159663 197.215949 
L 126.830605 197.060298 
L 127.501547 196.205301 
L 128.172489 195.928021 
L 128.843431 195.39663 
L 129.514372 196.210859 
L 130.185314 195.579772 
L 130.856256 194.598942 
L 131.527198 195.806217 
L 132.19814 196.513722 
L 132.869082 196.537929 
L 133.540024 197.251677 
L 134.210966 197.344734 
L 134.881908 195.930523 
L 135.552849 195.241114 
L 136.223791 196.795902 
L 136.894733 195.772202 
L 137.565675 195.547819 
L 138.236617 193.210148 
L 138.907559 193.137018 
L 139.578501 193.536335 
L 140.249443 194.526063 
L 140.920385 196.537629 
L 141.591326 196.577031 
L 142.262268 197.681572 
L 142.93321 195.409958 
L 143.604152 197.216793 
L 144.275094 196.990376 
L 144.946036 196.61396 
L 145.616978 196.969777 
L 146.28792 198.192112 
L 146.958861 198.678501 
L 147.629803 198.15032 
L 148.300745 199.790064 
L 148.971687 199.117285 
L 149.642629 199.096842 
L 150.313571 197.516612 
L 150.984513 198.115586 
L 151.655455 199.729527 
L 152.326397 200.932074 
L 152.997338 201.12353 
L 153.66828 199.797053 
L 154.339222 200.185065 
L 155.681106 198.97499 
L 156.352048 198.098115 
L 157.02299 199.27185 
L 157.693932 198.348946 
L 158.364873 196.80236 
L 159.035815 197.817168 
L 159.706757 197.99385 
L 160.377699 196.6994 
L 161.048641 196.325826 
L 161.719583 196.559401 
L 162.390525 196.516438 
L 163.061467 195.427499 
L 163.732409 194.755331 
L 165.074292 196.66789 
L 165.745234 196.722658 
L 166.416176 197.250118 
L 167.087118 197.105683 
L 167.75806 195.425471 
L 168.429002 195.746173 
L 169.099944 195.611961 
L 169.770886 194.96315 
L 170.441827 194.747531 
L 171.112769 196.446863 
L 171.783711 195.862897 
L 172.454653 194.204639 
L 173.125595 194.400944 
L 173.796537 196.539069 
L 174.467479 196.207131 
L 175.138421 196.163088 
L 176.480304 197.187366 
L 177.151246 199.059568 
L 177.822188 199.181255 
L 178.49313 199.57579 
L 179.164072 201.158762 
L 179.835014 202.060857 
L 180.505956 201.61738 
L 181.176898 201.484948 
L 181.847839 201.107464 
L 182.518781 199.778365 
L 183.860665 195.303309 
L 185.202549 195.503393 
L 185.873491 194.785912 
L 186.544433 192.436995 
L 187.215374 192.495248 
L 187.886316 192.388927 
L 188.557258 190.124895 
L 189.2282 189.472891 
L 189.899142 192.099599 
L 190.570084 192.738229 
L 191.241026 192.364457 
L 191.911968 193.112146 
L 192.58291 194.407255 
L 193.253851 191.418912 
L 193.924793 191.548478 
L 194.595735 194.075544 
L 195.266677 193.902231 
L 195.937619 193.026625 
L 196.608561 192.741706 
L 197.279503 192.639442 
L 197.950445 194.763294 
L 198.621387 194.417488 
L 199.292328 195.93196 
L 199.96327 195.936597 
L 200.634212 196.286745 
L 201.305154 196.49757 
L 202.647038 198.614955 
L 203.988922 199.625464 
L 204.659863 200.832735 
L 205.330805 202.345137 
L 206.001747 203.141243 
L 206.672689 203.222472 
L 207.343631 203.948275 
L 208.685515 206.133089 
L 210.027399 203.64316 
L 210.69834 203.723883 
L 211.369282 203.294915 
L 212.040224 203.344103 
L 212.711166 203.201334 
L 213.382108 202.836968 
L 214.05305 204.485679 
L 214.723992 205.197556 
L 215.394934 205.353052 
L 216.065876 205.692419 
L 216.736817 205.162154 
L 217.407759 205.815994 
L 218.078701 206.068207 
L 218.749643 207.380142 
L 219.420585 207.622506 
L 220.091527 207.338468 
L 220.762469 208.566571 
L 222.104352 209.572777 
L 222.775294 209.189559 
L 223.446236 210.062841 
L 224.117178 211.513957 
L 224.78812 210.997484 
L 225.459062 211.509639 
L 226.130004 211.442778 
L 226.800946 210.668533 
L 227.471888 210.235396 
L 228.142829 210.552759 
L 228.813771 210.275831 
L 229.484713 209.746807 
L 230.155655 209.613226 
L 230.826597 208.844021 
L 231.497539 208.742197 
L 232.168481 209.333342 
L 233.510364 209.391051 
L 234.181306 209.266857 
L 234.852248 210.182249 
L 235.52319 209.500622 
L 236.865074 207.139842 
L 237.536016 207.716116 
L 238.206958 207.038738 
L 238.8779 207.409784 
L 239.548841 208.198355 
L 240.219783 208.551795 
L 240.890725 207.676863 
L 241.561667 208.144168 
L 242.232609 207.503927 
L 242.903551 208.633432 
L 243.574493 209.282936 
L 245.587318 208.348302 
L 246.929202 207.63993 
L 248.271086 206.949762 
L 248.942028 206.199146 
L 249.61297 207.071853 
L 250.283912 206.613429 
L 250.954853 206.52952 
L 251.625795 206.762004 
L 252.296737 206.523387 
L 253.638621 206.187182 
L 254.309563 206.800588 
L 254.980505 206.554542 
L 255.651447 206.691144 
L 256.322389 207.4101 
L 256.99333 206.064177 
L 257.664272 205.580203 
L 258.335214 205.616241 
L 259.006156 205.125817 
L 259.677098 203.722875 
L 260.34804 204.320999 
L 261.018982 204.769725 
L 261.689924 204.345281 
L 262.360865 204.219474 
L 263.031807 204.51214 
L 263.702749 204.270636 
L 264.373691 203.304892 
L 265.044633 203.11853 
L 267.057459 204.022994 
L 267.728401 203.830313 
L 268.399342 202.4163 
L 269.070284 202.013231 
L 269.741226 202.899301 
L 270.412168 204.411656 
L 271.08311 203.061787 
L 271.754052 203.359494 
L 272.424994 203.993844 
L 273.095936 203.892215 
L 273.766878 202.923081 
L 274.437819 202.39871 
L 275.108761 202.522598 
L 275.779703 202.503383 
L 276.450645 204.308967 
L 277.121587 204.380065 
L 278.463471 206.8415 
L 279.134413 206.336015 
L 279.805354 206.133616 
L 280.476296 206.374634 
L 281.147238 206.412737 
L 281.81818 207.338369 
L 282.489122 207.566977 
L 283.160064 207.461735 
L 283.831006 205.803766 
L 284.501948 204.908809 
L 285.17289 205.800672 
L 285.843831 206.196919 
L 286.514773 205.332533 
L 287.185715 206.987175 
L 287.856657 208.053411 
L 288.527599 207.981686 
L 289.198541 208.05851 
L 289.869483 208.312028 
L 290.540425 209.941277 
L 291.211366 209.908784 
L 291.882308 208.225739 
L 292.55325 208.789355 
L 293.224192 208.574929 
L 293.895134 207.924026 
L 294.566076 208.42822 
L 295.237018 208.02012 
L 296.578902 206.455346 
L 297.249843 206.51536 
L 297.920785 206.929908 
L 298.591727 206.760529 
L 299.262669 207.273683 
L 299.933611 206.907851 
L 300.604553 207.032492 
L 301.275495 205.880829 
L 301.946437 204.416458 
L 302.617379 204.758463 
L 303.28832 205.55451 
L 303.959262 205.122438 
L 304.630204 204.937304 
L 305.301146 203.190764 
L 305.972088 202.816644 
L 306.64303 203.605419 
L 307.984914 204.144834 
L 308.655855 205.411683 
L 309.997739 203.83832 
L 311.339623 205.556776 
L 312.010565 205.300157 
L 312.681507 206.819691 
L 314.023391 207.120247 
L 314.694332 206.190011 
L 315.365274 207.173026 
L 316.036216 207.953057 
L 317.3781 206.130891 
L 318.049042 206.088043 
L 318.719984 207.285872 
L 320.061867 205.833126 
L 320.732809 205.52904 
L 322.074693 206.418693 
L 322.745635 206.88325 
L 323.416577 208.279214 
L 324.758461 206.595271 
L 326.100344 207.760438 
L 326.771286 208.465723 
L 327.442228 208.612837 
L 328.11317 207.723027 
L 328.784112 207.377034 
L 329.455054 208.119289 
L 330.125996 208.419757 
L 330.796938 207.583915 
L 331.46788 208.101937 
L 332.138821 208.342064 
L 334.151647 206.464226 
L 334.822589 206.792794 
L 335.493531 206.836611 
L 336.164473 207.640726 
L 336.835415 207.428759 
L 337.506356 207.436418 
L 338.177298 207.621849 
L 338.84824 207.607218 
L 340.190124 206.97386 
L 340.861066 206.803373 
L 341.532008 205.878564 
L 342.20295 205.273335 
L 342.873892 205.512594 
L 343.544833 204.758067 
L 344.215775 204.513535 
L 344.886717 204.661111 
L 345.557659 205.256931 
L 346.228601 205.585303 
L 346.899543 206.123703 
L 347.570485 205.680666 
L 348.241427 204.806577 
L 348.912368 205.295236 
L 349.58331 205.414898 
L 350.254252 206.206938 
L 350.925194 205.550996 
L 351.596136 205.629769 
L 352.93802 204.080801 
L 353.608962 204.286302 
L 354.279904 204.790399 
L 354.950845 204.486652 
L 355.621787 203.313714 
L 356.292729 203.536503 
L 356.963671 201.832252 
L 357.634613 201.8697 
L 358.305555 200.721335 
L 358.976497 196.923459 
L 359.647439 196.146496 
L 360.318381 196.169235 
L 360.989322 194.634613 
L 361.660264 194.471764 
L 362.331206 196.476297 
L 363.002148 195.096056 
L 364.344032 193.415328 
L 365.014974 192.978634 
L 365.685916 192.691358 
L 366.356857 191.97416 
L 367.027799 191.438645 
L 368.369683 192.708622 
L 369.040625 192.907021 
L 369.040625 192.907021 
" style="fill:none;stroke:#ff0000;stroke-linecap:square;stroke-width:1.5;"/>
   </g>
   <g id="line2d_12">
    <path clip-path="url(#pe0b58f4860)" d="M 34.240625 205.92 
L 34.911567 205.520926 
L 35.582509 204.70742 
L 36.253451 206.041731 
L 36.924393 205.5061 
L 37.595334 203.886788 
L 38.937218 205.130739 
L 40.950044 203.961295 
L 41.620986 204.591196 
L 42.291928 204.576867 
L 42.962869 204.143654 
L 43.633811 205.226565 
L 44.304753 205.402297 
L 44.975695 204.841921 
L 45.646637 205.457958 
L 46.317579 207.203928 
L 46.988521 206.539238 
L 47.659463 207.415003 
L 48.330405 207.345677 
L 49.001346 208.556586 
L 49.672288 209.198047 
L 50.34323 210.624695 
L 51.014172 209.427735 
L 51.685114 209.254275 
L 52.356056 208.893436 
L 53.026998 208.850404 
L 53.69794 208.918779 
L 54.368882 210.580325 
L 55.039823 210.300587 
L 57.052649 206.391821 
L 57.723591 206.784931 
L 58.394533 205.593095 
L 59.065475 205.207125 
L 59.736417 205.251563 
L 60.407358 205.637655 
L 61.0783 204.694104 
L 61.749242 203.993572 
L 62.420184 205.642461 
L 63.091126 205.101842 
L 63.762068 205.250025 
L 65.103952 207.39118 
L 65.774894 207.861624 
L 66.445835 207.716507 
L 67.116777 209.931206 
L 67.787719 211.038324 
L 68.458661 209.767681 
L 69.129603 209.129915 
L 69.800545 208.674593 
L 70.471487 208.674926 
L 71.142429 207.826895 
L 72.484312 206.600431 
L 73.155254 206.647847 
L 73.826196 207.721956 
L 74.497138 207.768764 
L 75.16808 208.342732 
L 75.839022 207.673987 
L 77.180906 206.985054 
L 77.851847 206.26171 
L 78.522789 206.487006 
L 79.864673 208.750214 
L 80.535615 208.792516 
L 81.206557 209.516533 
L 81.877499 208.195836 
L 83.219383 210.877246 
L 83.890324 210.167561 
L 85.232208 209.944079 
L 85.90315 210.420064 
L 86.574092 210.108434 
L 87.245034 210.607514 
L 87.915976 209.625775 
L 88.586918 208.905211 
L 89.257859 209.486944 
L 89.928801 209.203684 
L 90.599743 208.545699 
L 91.270685 208.888932 
L 92.612569 208.884896 
L 93.283511 208.954184 
L 93.954453 209.283133 
L 94.625395 210.005844 
L 95.296336 208.650887 
L 95.967278 209.099018 
L 96.63822 210.026191 
L 97.309162 208.083526 
L 97.980104 208.238145 
L 98.651046 207.0585 
L 99.321988 208.460215 
L 99.99293 208.423995 
L 100.663871 208.627198 
L 101.334813 209.237161 
L 102.005755 208.207162 
L 102.676697 207.406353 
L 104.689523 206.639987 
L 105.360465 205.329778 
L 106.031407 204.680562 
L 106.702348 205.134515 
L 107.37329 204.349348 
L 108.044232 205.010567 
L 108.715174 206.148969 
L 109.386116 205.956466 
L 110.057058 205.939736 
L 110.728 203.983454 
L 111.398942 203.210492 
L 112.069884 203.761752 
L 112.740825 203.795275 
L 113.411767 203.086842 
L 114.082709 203.170098 
L 114.753651 202.618847 
L 115.424593 203.850631 
L 116.095535 202.560695 
L 117.437419 202.988124 
L 118.10836 203.900914 
L 118.779302 202.014018 
L 120.121186 203.405979 
L 120.792128 201.64956 
L 121.46307 201.365369 
L 122.134012 201.400128 
L 122.804954 200.947386 
L 123.475896 202.240738 
L 124.146837 201.883498 
L 124.817779 201.810251 
L 125.488721 203.351027 
L 126.159663 203.83566 
L 126.830605 205.036045 
L 128.172489 202.808906 
L 128.843431 203.180956 
L 129.514372 202.704496 
L 130.185314 202.548775 
L 131.527198 202.736468 
L 132.19814 203.127442 
L 132.869082 203.273402 
L 133.540024 205.122357 
L 134.210966 206.625765 
L 134.881908 206.570605 
L 135.552849 207.532797 
L 136.223791 207.539179 
L 136.894733 206.789505 
L 137.565675 206.761429 
L 138.236617 206.90429 
L 138.907559 207.311033 
L 139.578501 207.353241 
L 140.249443 205.567907 
L 140.920385 205.139857 
L 141.591326 205.618894 
L 142.262268 205.153434 
L 142.93321 203.506648 
L 143.604152 202.596712 
L 144.275094 203.579043 
L 144.946036 204.058462 
L 145.616978 203.810558 
L 146.28792 203.277204 
L 146.958861 204.259927 
L 147.629803 203.463229 
L 148.300745 202.303026 
L 148.971687 201.633102 
L 149.642629 202.059861 
L 150.313571 201.800986 
L 151.655455 202.464418 
L 152.326397 201.861473 
L 152.997338 201.937415 
L 153.66828 201.411781 
L 155.010164 201.515294 
L 155.681106 201.777763 
L 156.352048 201.311807 
L 157.02299 200.694505 
L 157.693932 202.417591 
L 159.035815 204.089729 
L 159.706757 203.745731 
L 160.377699 202.469175 
L 161.048641 202.342754 
L 161.719583 202.530992 
L 162.390525 202.400512 
L 163.061467 203.674642 
L 163.732409 204.185928 
L 164.40335 203.930839 
L 165.074292 203.23151 
L 165.745234 202.764553 
L 166.416176 201.768119 
L 167.087118 202.548819 
L 167.75806 203.148619 
L 168.429002 203.955313 
L 169.099944 203.587925 
L 169.770886 203.746989 
L 170.441827 204.57382 
L 171.112769 204.305624 
L 171.783711 203.05329 
L 172.454653 203.606538 
L 173.125595 204.692543 
L 173.796537 204.985863 
L 174.467479 205.552782 
L 175.138421 204.502723 
L 175.809362 204.786218 
L 177.151246 207.125379 
L 177.822188 206.232816 
L 178.49313 206.328292 
L 179.835014 205.599523 
L 180.505956 204.55236 
L 181.176898 206.352888 
L 181.847839 206.953549 
L 182.518781 206.691574 
L 183.189723 206.578731 
L 183.860665 206.24822 
L 184.531607 205.724907 
L 185.202549 204.84518 
L 185.873491 204.625914 
L 186.544433 203.357313 
L 187.215374 203.426148 
L 187.886316 202.082973 
L 188.557258 199.443271 
L 189.2282 198.587894 
L 189.899142 199.842329 
L 190.570084 198.917011 
L 191.241026 198.373297 
L 191.911968 198.058216 
L 192.58291 197.201333 
L 193.253851 197.877031 
L 193.924793 197.382486 
L 194.595735 196.150082 
L 195.266677 195.324027 
L 196.608561 197.326734 
L 197.279503 197.206294 
L 197.950445 196.588599 
L 199.292328 197.6578 
L 199.96327 195.233232 
L 200.634212 195.96404 
L 201.305154 194.956094 
L 202.647038 195.816618 
L 203.988922 196.231782 
L 204.659863 195.861117 
L 205.330805 196.005152 
L 206.001747 194.518644 
L 206.672689 195.497253 
L 208.014573 195.818314 
L 208.685515 195.690696 
L 209.356457 195.032852 
L 210.027399 193.396102 
L 210.69834 193.943897 
L 211.369282 193.23785 
L 212.040224 193.797928 
L 212.711166 194.071182 
L 213.382108 192.958493 
L 214.05305 192.694347 
L 214.723992 192.235676 
L 215.394934 192.438708 
L 216.065876 192.394454 
L 216.736817 192.724576 
L 217.407759 190.866448 
L 218.078701 193.967944 
L 218.749643 193.977312 
L 219.420585 192.469584 
L 220.091527 193.540045 
L 220.762469 193.182407 
L 221.433411 194.765487 
L 222.104352 195.533239 
L 222.775294 193.531239 
L 223.446236 194.706393 
L 224.78812 195.296012 
L 225.459062 196.954737 
L 226.130004 196.245125 
L 226.800946 196.386035 
L 227.471888 197.246863 
L 228.142829 197.238477 
L 228.813771 198.239327 
L 229.484713 199.769172 
L 230.155655 198.590101 
L 230.826597 198.885421 
L 231.497539 200.625094 
L 232.168481 200.82358 
L 232.839423 199.632406 
L 233.510364 200.561905 
L 234.181306 201.135784 
L 234.852248 204.435914 
L 235.52319 203.187297 
L 236.194132 204.053418 
L 236.865074 203.098079 
L 237.536016 203.714986 
L 238.8779 204.590915 
L 239.548841 205.873852 
L 240.890725 207.49218 
L 241.561667 207.03319 
L 242.232609 206.882101 
L 242.903551 207.107466 
L 243.574493 207.638803 
L 244.916377 207.143205 
L 246.25826 207.743853 
L 246.929202 208.504124 
L 247.600144 208.215596 
L 248.271086 208.864685 
L 248.942028 208.53972 
L 249.61297 207.37666 
L 250.283912 207.44196 
L 250.954853 208.541995 
L 252.296737 208.044674 
L 252.967679 205.848143 
L 253.638621 206.747661 
L 254.309563 206.458511 
L 254.980505 207.338465 
L 255.651447 207.254042 
L 256.322389 206.558615 
L 256.99333 206.739901 
L 257.664272 205.982165 
L 258.335214 206.533924 
L 259.006156 206.047221 
L 259.677098 205.841375 
L 260.34804 205.04081 
L 261.018982 204.476667 
L 261.689924 204.733027 
L 263.031807 203.145863 
L 263.702749 204.015329 
L 264.373691 202.716913 
L 265.044633 202.686976 
L 265.715575 202.399472 
L 266.386517 202.506183 
L 267.057459 203.32268 
L 267.728401 203.906432 
L 268.399342 204.037027 
L 269.741226 202.147234 
L 270.412168 202.356886 
L 271.08311 202.410997 
L 271.754052 203.561083 
L 272.424994 202.606118 
L 273.095936 202.039621 
L 273.766878 202.266802 
L 274.437819 200.68867 
L 275.108761 201.645589 
L 275.779703 200.582057 
L 277.121587 195.63279 
L 278.463471 193.776192 
L 279.134413 194.501639 
L 279.805354 194.701224 
L 280.476296 196.847957 
L 281.147238 196.557069 
L 281.81818 196.607266 
L 282.489122 195.971131 
L 283.160064 195.574531 
L 284.501948 196.559597 
L 285.17289 194.222786 
L 285.843831 193.421586 
L 286.514773 193.303804 
L 287.185715 194.503041 
L 288.527599 194.96703 
L 289.198541 195.243216 
L 289.869483 192.992446 
L 290.540425 191.48056 
L 291.211366 193.022868 
L 291.882308 193.33511 
L 292.55325 192.563481 
L 293.224192 192.698792 
L 293.895134 192.538642 
L 294.566076 194.216286 
L 295.237018 192.070297 
L 295.90796 191.520331 
L 296.578902 189.663056 
L 297.249843 190.114815 
L 297.920785 190.364656 
L 298.591727 190.756966 
L 299.262669 191.660897 
L 299.933611 189.523577 
L 300.604553 189.82162 
L 301.275495 190.568771 
L 301.946437 190.007578 
L 302.617379 188.182459 
L 303.28832 187.90483 
L 303.959262 186.09719 
L 304.630204 185.776023 
L 305.301146 186.564556 
L 305.972088 186.773449 
L 306.64303 186.815395 
L 307.984914 187.278505 
L 308.655855 188.875604 
L 309.997739 187.344308 
L 310.668681 187.478774 
L 311.339623 185.757812 
L 312.010565 183.626679 
L 312.681507 185.254052 
L 313.352449 185.781321 
L 314.023391 184.319441 
L 314.694332 181.421914 
L 315.365274 181.892631 
L 316.036216 181.327804 
L 316.707158 180.442464 
L 317.3781 180.336835 
L 318.049042 180.077881 
L 318.719984 181.704179 
L 319.390926 181.55066 
L 320.061867 180.52779 
L 320.732809 180.188888 
L 321.403751 180.280066 
L 322.074693 180.651204 
L 322.745635 181.276682 
L 323.416577 179.087931 
L 324.087519 178.333101 
L 324.758461 175.934346 
L 325.429403 174.417434 
L 326.100344 173.757797 
L 326.771286 174.140944 
L 327.442228 172.727231 
L 328.784112 175.72443 
L 329.455054 175.388334 
L 330.125996 174.060108 
L 331.46788 173.757963 
L 332.138821 173.120627 
L 332.809763 172.900723 
L 333.480705 172.366806 
L 334.151647 172.173562 
L 334.822589 170.35026 
L 335.493531 171.205053 
L 336.164473 170.47224 
L 336.835415 171.189289 
L 337.506356 168.122646 
L 338.177298 169.381411 
L 338.84824 168.16046 
L 339.519182 168.39952 
L 340.190124 167.775766 
L 340.861066 168.411169 
L 341.532008 170.011497 
L 342.20295 172.269479 
L 342.873892 169.408611 
L 343.544833 170.39989 
L 344.886717 173.631179 
L 345.557659 172.595091 
L 346.899543 174.918816 
L 348.241427 171.977308 
L 348.912368 173.565053 
L 349.58331 173.71913 
L 350.254252 170.246195 
L 350.925194 171.401059 
L 351.596136 170.543885 
L 352.267078 168.855707 
L 352.93802 165.246117 
L 353.608962 164.958897 
L 354.279904 166.580285 
L 354.950845 166.369122 
L 355.621787 163.86467 
L 356.292729 164.274071 
L 356.963671 165.266924 
L 357.634613 164.881035 
L 358.305555 162.809516 
L 358.976497 163.100246 
L 359.647439 158.368562 
L 360.989322 154.136689 
L 361.660264 153.608082 
L 362.331206 153.515584 
L 363.002148 155.935513 
L 363.67309 156.676832 
L 364.344032 155.063163 
L 365.014974 156.417585 
L 365.685916 154.525535 
L 366.356857 153.635438 
L 367.027799 153.648372 
L 367.698741 155.042574 
L 368.369683 155.618527 
L 369.040625 154.202162 
L 369.040625 154.202162 
" style="fill:none;stroke:#008000;stroke-linecap:square;stroke-width:1.5;"/>
   </g>
   <g id="line2d_13">
    <path clip-path="url(#pe0b58f4860)" d="M 34.240625 205.92 
L 34.911567 205.04383 
L 35.582509 205.318921 
L 36.253451 205.206916 
L 36.924393 205.227456 
L 37.595334 204.928361 
L 38.266276 206.113984 
L 38.937218 205.948945 
L 39.60816 207.501079 
L 40.279102 206.70571 
L 40.950044 206.69568 
L 41.620986 205.219977 
L 42.291928 204.638656 
L 42.962869 205.538886 
L 44.304753 203.000016 
L 44.975695 203.268553 
L 45.646637 201.413828 
L 46.988521 200.743334 
L 47.659463 201.670261 
L 48.330405 200.840018 
L 49.001346 199.649723 
L 49.672288 199.382763 
L 50.34323 200.968957 
L 51.014172 201.532197 
L 51.685114 200.891475 
L 52.356056 200.763462 
L 53.026998 202.946005 
L 53.69794 204.691084 
L 54.368882 204.943683 
L 55.039823 204.446283 
L 55.710765 203.27575 
L 56.381707 204.234617 
L 57.052649 204.348412 
L 58.394533 205.56787 
L 59.065475 205.671832 
L 59.736417 205.051146 
L 60.407358 204.741413 
L 61.0783 203.989236 
L 61.749242 202.701086 
L 62.420184 203.177619 
L 63.091126 201.6383 
L 63.762068 201.339969 
L 64.43301 201.615464 
L 65.103952 201.493275 
L 65.774894 201.676107 
L 66.445835 201.230176 
L 67.787719 201.592732 
L 68.458661 202.956785 
L 69.129603 202.034128 
L 69.800545 199.956203 
L 70.471487 202.295626 
L 71.142429 201.456916 
L 71.81337 201.672782 
L 72.484312 202.409584 
L 73.155254 202.446245 
L 73.826196 201.964387 
L 75.16808 202.271096 
L 75.839022 200.866287 
L 76.509964 200.45577 
L 77.180906 200.734557 
L 77.851847 201.704664 
L 78.522789 201.176353 
L 79.193731 201.26801 
L 79.864673 199.79136 
L 80.535615 199.634897 
L 81.206557 198.712689 
L 81.877499 199.361148 
L 82.548441 197.204144 
L 83.219383 197.150483 
L 83.890324 195.162698 
L 84.561266 195.553544 
L 85.232208 196.757385 
L 85.90315 194.799824 
L 87.245034 195.740512 
L 87.915976 196.434382 
L 88.586918 196.736798 
L 89.257859 198.13969 
L 89.928801 200.161495 
L 90.599743 200.142018 
L 91.270685 200.787238 
L 91.941627 200.549924 
L 92.612569 201.266256 
L 93.283511 202.374827 
L 93.954453 202.323246 
L 94.625395 203.678155 
L 95.296336 203.677546 
L 96.63822 205.221399 
L 97.309162 205.48861 
L 97.980104 203.842992 
L 98.651046 205.03277 
L 99.321988 205.840568 
L 99.99293 205.389723 
L 100.663871 204.122901 
L 101.334813 203.886424 
L 102.005755 203.920861 
L 102.676697 203.304635 
L 103.347639 203.841605 
L 104.018581 203.791148 
L 104.689523 202.47419 
L 105.360465 203.131831 
L 106.031407 202.625758 
L 107.37329 200.792102 
L 108.044232 202.30518 
L 108.715174 203.068455 
L 109.386116 204.00972 
L 110.057058 204.001403 
L 110.728 202.948957 
L 111.398942 202.217048 
L 112.069884 201.067503 
L 112.740825 201.365136 
L 113.411767 201.251311 
L 114.082709 198.43772 
L 114.753651 198.547157 
L 115.424593 197.55633 
L 116.095535 197.397672 
L 116.766477 196.647307 
L 117.437419 194.068752 
L 118.10836 193.339241 
L 118.779302 192.076752 
L 119.450244 191.374966 
L 120.121186 190.438475 
L 120.792128 189.737254 
L 121.46307 191.452682 
L 122.134012 189.33967 
L 122.804954 189.57525 
L 123.475896 189.043915 
L 124.146837 185.827175 
L 124.817779 186.325059 
L 126.159663 188.535689 
L 126.830605 189.147654 
L 127.501547 189.288055 
L 128.172489 190.430374 
L 128.843431 190.602079 
L 129.514372 191.041568 
L 130.185314 191.825819 
L 130.856256 193.586777 
L 131.527198 193.89067 
L 132.19814 193.419132 
L 132.869082 190.476618 
L 133.540024 189.943272 
L 134.210966 189.824356 
L 134.881908 189.204769 
L 135.552849 189.099004 
L 136.223791 189.880919 
L 136.894733 189.213019 
L 137.565675 186.855153 
L 138.236617 185.932339 
L 138.907559 183.11004 
L 140.249443 185.912826 
L 140.920385 183.243361 
L 141.591326 184.142046 
L 142.262268 182.45213 
L 142.93321 180.265297 
L 143.604152 181.071126 
L 144.275094 180.795085 
L 144.946036 181.91357 
L 145.616978 182.449897 
L 146.28792 184.49196 
L 146.958861 185.230661 
L 147.629803 184.712715 
L 148.300745 187.532045 
L 148.971687 188.717955 
L 149.642629 189.259086 
L 150.313571 189.381535 
L 150.984513 188.692477 
L 151.655455 187.667979 
L 152.326397 186.986022 
L 152.997338 187.135506 
L 154.339222 190.751965 
L 155.010164 189.989035 
L 155.681106 189.596194 
L 156.352048 190.780141 
L 157.693932 191.007232 
L 159.035815 186.692839 
L 159.706757 185.450834 
L 160.377699 186.309058 
L 161.048641 186.958313 
L 161.719583 187.310948 
L 162.390525 189.458296 
L 163.061467 190.463902 
L 163.732409 191.727845 
L 164.40335 190.509457 
L 165.745234 191.17929 
L 166.416176 192.58406 
L 167.75806 194.641778 
L 168.429002 193.429237 
L 169.099944 194.242407 
L 169.770886 192.395058 
L 170.441827 192.329174 
L 171.112769 192.51874 
L 171.783711 191.666518 
L 172.454653 192.451441 
L 173.125595 192.871872 
L 173.796537 193.042941 
L 174.467479 192.514065 
L 175.138421 194.514373 
L 175.809362 194.853048 
L 176.480304 195.515008 
L 177.151246 193.691314 
L 177.822188 192.643159 
L 178.49313 193.917819 
L 179.164072 193.537854 
L 179.835014 194.54729 
L 180.505956 194.115162 
L 181.176898 192.657933 
L 181.847839 190.295784 
L 182.518781 190.175323 
L 183.189723 188.660926 
L 183.860665 188.575937 
L 184.531607 187.948586 
L 185.202549 189.327826 
L 185.873491 186.764224 
L 186.544433 187.536033 
L 187.215374 187.446014 
L 187.886316 185.723949 
L 188.557258 185.022736 
L 189.2282 183.241305 
L 189.899142 185.028458 
L 190.570084 186.4948 
L 191.241026 186.64177 
L 191.911968 187.316708 
L 192.58291 187.387869 
L 193.253851 186.32123 
L 193.924793 186.54542 
L 194.595735 186.435454 
L 195.266677 184.152233 
L 195.937619 184.677893 
L 196.608561 184.426165 
L 197.279503 183.158372 
L 197.950445 183.370902 
L 199.292328 180.19668 
L 199.96327 181.578133 
L 200.634212 181.510202 
L 201.305154 180.423294 
L 201.976096 180.126148 
L 202.647038 181.312906 
L 203.31798 179.653387 
L 203.988922 178.375449 
L 204.659863 177.973827 
L 205.330805 179.067028 
L 206.672689 177.490439 
L 207.343631 176.003367 
L 208.014573 176.573974 
L 208.685515 175.492206 
L 209.356457 177.647427 
L 210.027399 177.323048 
L 210.69834 176.137697 
L 211.369282 177.227178 
L 212.040224 179.094918 
L 212.711166 178.0618 
L 213.382108 178.386142 
L 214.05305 178.415872 
L 214.723992 179.67987 
L 215.394934 177.76701 
L 216.065876 176.63548 
L 216.736817 174.441032 
L 217.407759 173.442428 
L 218.078701 172.963043 
L 218.749643 171.228981 
L 219.420585 171.731531 
L 220.091527 174.439359 
L 220.762469 172.143072 
L 221.433411 173.764989 
L 222.104352 170.542873 
L 222.775294 168.311679 
L 223.446236 164.37286 
L 224.117178 166.037098 
L 224.78812 164.194993 
L 226.130004 168.672751 
L 226.800946 166.658001 
L 227.471888 164.198962 
L 228.142829 165.581357 
L 228.813771 169.112547 
L 229.484713 169.516263 
L 230.155655 171.221738 
L 230.826597 170.580605 
L 231.497539 170.139741 
L 232.168481 172.139889 
L 232.839423 171.33112 
L 233.510364 170.291153 
L 234.181306 167.959365 
L 234.852248 164.931586 
L 235.52319 163.85532 
L 236.194132 161.459123 
L 236.865074 157.624036 
L 237.536016 158.134577 
L 238.206958 158.22081 
L 238.8779 159.980365 
L 239.548841 158.086308 
L 240.219783 159.92455 
L 240.890725 159.883196 
L 241.561667 160.074559 
L 242.232609 159.343107 
L 242.903551 160.973749 
L 243.574493 158.011303 
L 244.245435 157.263698 
L 244.916377 155.546126 
L 245.587318 155.910318 
L 246.25826 156.890391 
L 246.929202 155.16304 
L 248.271086 152.718471 
L 248.942028 153.589268 
L 249.61297 154.173908 
L 250.283912 156.489405 
L 250.954853 156.709772 
L 251.625795 156.544102 
L 252.296737 155.364951 
L 252.967679 155.741486 
L 253.638621 154.530373 
L 254.980505 148.153312 
L 255.651447 149.51806 
L 256.322389 147.289011 
L 256.99333 145.906436 
L 257.664272 146.898695 
L 258.335214 145.427972 
L 259.006156 145.825119 
L 259.677098 143.064739 
L 260.34804 141.703017 
L 261.018982 139.24443 
L 261.689924 137.814234 
L 262.360865 137.987694 
L 263.031807 135.655303 
L 263.702749 137.959813 
L 264.373691 137.10731 
L 265.715575 145.397202 
L 266.386517 144.324454 
L 267.057459 145.069508 
L 267.728401 145.066176 
L 268.399342 142.229818 
L 269.070284 141.765094 
L 269.741226 134.663959 
L 270.412168 135.526801 
L 271.08311 131.482622 
L 271.754052 135.037903 
L 272.424994 134.932244 
L 273.095936 131.252237 
L 273.766878 132.265159 
L 275.108761 127.920709 
L 276.450645 131.690992 
L 277.121587 128.127929 
L 277.792529 128.212148 
L 279.805354 122.136867 
L 280.476296 122.794534 
L 281.147238 122.201289 
L 281.81818 123.239874 
L 282.489122 123.850584 
L 283.160064 125.79692 
L 283.831006 126.748691 
L 284.501948 121.029631 
L 285.843831 125.900919 
L 286.514773 130.256497 
L 287.185715 131.079168 
L 287.856657 132.402485 
L 288.527599 132.342717 
L 289.198541 135.312545 
L 290.540425 132.260774 
L 291.211366 135.190547 
L 291.882308 135.379549 
L 292.55325 133.142532 
L 293.224192 132.380646 
L 293.895134 135.820689 
L 294.566076 134.000345 
L 295.237018 134.426409 
L 295.90796 136.330022 
L 296.578902 139.105016 
L 297.249843 138.432828 
L 297.920785 138.292375 
L 298.591727 135.823215 
L 299.262669 132.908107 
L 299.933611 129.45512 
L 300.604553 131.137254 
L 301.275495 132.253992 
L 301.946437 136.383062 
L 302.617379 134.828666 
L 303.28832 137.22339 
L 304.630204 139.510016 
L 305.301146 135.091401 
L 305.972088 136.219382 
L 306.64303 138.077814 
L 307.313972 137.81016 
L 307.984914 137.368402 
L 308.655855 141.107489 
L 309.326797 137.125327 
L 309.997739 136.097913 
L 310.668681 136.430106 
L 311.339623 137.259318 
L 312.010565 133.085354 
L 312.681507 132.384963 
L 313.352449 126.095641 
L 314.023391 126.181019 
L 314.694332 124.457103 
L 315.365274 121.348049 
L 316.036216 122.150966 
L 316.707158 120.599438 
L 317.3781 115.145227 
L 318.049042 112.065573 
L 318.719984 108.194473 
L 319.390926 107.934131 
L 320.061867 102.07809 
L 320.732809 102.498091 
L 321.403751 101.632797 
L 322.074693 100.30404 
L 322.745635 99.473401 
L 323.416577 98.86822 
L 324.087519 94.482642 
L 324.758461 97.938048 
L 325.429403 100.516814 
L 326.100344 100.41434 
L 326.771286 93.94264 
L 327.442228 96.105137 
L 328.11317 94.545002 
L 328.784112 89.454094 
L 329.455054 90.977395 
L 330.125996 95.096418 
L 330.796938 93.967572 
L 331.46788 100.24526 
L 332.138821 101.584151 
L 332.809763 100.003604 
L 333.480705 99.086061 
L 334.151647 105.408887 
L 334.822589 103.477808 
L 335.493531 100.115527 
L 336.164473 99.132436 
L 336.835415 98.748882 
L 337.506356 97.693229 
L 338.177298 95.972745 
L 338.84824 95.553569 
L 339.519182 93.989186 
L 340.190124 94.088255 
L 340.861066 90.019463 
L 342.20295 93.691222 
L 343.544833 92.133679 
L 344.215775 94.811799 
L 344.886717 94.892911 
L 345.557659 95.725429 
L 346.228601 98.39577 
L 346.899543 100.320429 
L 347.570485 101.703223 
L 348.241427 97.144566 
L 348.912368 99.211077 
L 349.58331 99.242653 
L 350.925194 97.839166 
L 351.596136 105.142558 
L 352.267078 104.443984 
L 352.93802 102.48807 
L 353.608962 96.615689 
L 354.279904 96.019266 
L 354.950845 98.019023 
L 355.621787 99.280411 
L 356.292729 95.365198 
L 356.963671 92.394782 
L 357.634613 97.082333 
L 358.305555 106.722584 
L 358.976497 111.113969 
L 359.647439 110.996031 
L 360.318381 112.100623 
L 360.989322 110.465827 
L 361.660264 113.717534 
L 363.002148 105.032299 
L 363.67309 103.19351 
L 364.344032 106.014545 
L 365.014974 104.885469 
L 365.685916 108.107121 
L 366.356857 106.255481 
L 367.027799 109.122273 
L 367.698741 105.74864 
L 368.369683 100.18369 
L 369.040625 99.455079 
L 369.040625 99.455079 
" style="fill:none;stroke:#0000ff;stroke-linecap:square;stroke-width:1.5;"/>
   </g>
   <g id="line2d_14">
    <path clip-path="url(#pe0b58f4860)" d="M 34.240625 205.92 
L 36.924393 205.676805 
L 39.60816 205.349396 
L 42.291928 205.08816 
L 44.304753 204.810673 
L 54.368882 203.513997 
L 63.091126 202.388892 
L 65.774894 201.972361 
L 69.129603 201.580234 
L 71.81337 201.178443 
L 91.941627 198.370072 
L 94.625395 197.861739 
L 120.792128 193.44692 
L 124.146837 192.67143 
L 128.172489 191.932685 
L 128.843431 191.873223 
L 130.185314 191.571409 
L 146.28792 188.524831 
L 147.629803 188.290248 
L 150.984513 187.794177 
L 153.66828 187.172154 
L 155.010164 186.912899 
L 163.732409 185.36917 
L 167.75806 184.818125 
L 172.454653 183.914662 
L 175.138421 183.416219 
L 182.518781 181.899073 
L 183.860665 181.692762 
L 187.215374 181.097174 
L 191.241026 180.371818 
L 201.976096 178.28262 
L 206.001747 177.316878 
L 211.369282 176.340624 
L 212.711166 176.033922 
L 216.736817 175.035016 
L 218.078701 174.717678 
L 219.420585 174.462371 
L 224.78812 173.10223 
L 226.130004 172.875933 
L 230.826597 171.596249 
L 234.181306 170.957573 
L 235.52319 170.639626 
L 238.206958 169.970384 
L 239.548841 169.677731 
L 242.232609 168.985482 
L 242.903551 168.880286 
L 245.587318 167.970744 
L 246.929202 167.713773 
L 248.942028 167.12054 
L 254.980505 165.630394 
L 256.322389 165.43268 
L 256.99333 165.195446 
L 257.664272 165.116912 
L 259.677098 164.579815 
L 268.399342 162.240291 
L 269.070284 161.911062 
L 270.412168 161.59153 
L 272.424994 161.018247 
L 273.766878 160.712459 
L 279.134413 158.882752 
L 280.476296 158.616005 
L 281.81818 158.314813 
L 287.185715 156.29777 
L 289.198541 155.678015 
L 289.869483 155.524019 
L 290.540425 155.128731 
L 291.882308 154.683122 
L 293.224192 154.438681 
L 295.237018 153.690548 
L 298.591727 152.936923 
L 301.275495 151.909263 
L 301.946437 151.844932 
L 303.959262 151.031852 
L 304.630204 150.738625 
L 305.301146 150.623116 
L 312.681507 148.190908 
L 313.352449 148.019401 
L 315.365274 147.151907 
L 317.3781 146.580411 
L 318.049042 146.269747 
L 320.732809 145.499102 
L 321.403751 145.210574 
L 323.416577 144.683357 
L 324.758461 144.245144 
L 325.429403 144.159973 
L 326.100344 143.959521 
L 326.771286 143.563579 
L 332.809763 141.164549 
L 334.151647 140.485779 
L 336.164473 139.995855 
L 337.506356 139.282759 
L 340.861066 138.24501 
L 342.20295 137.574189 
L 342.873892 137.525603 
L 344.215775 137.146312 
L 345.557659 136.630817 
L 347.570485 135.956809 
L 348.912368 135.364151 
L 349.58331 135.075678 
L 350.925194 134.768658 
L 352.267078 134.362812 
L 352.93802 134.256815 
L 354.950845 133.55297 
L 356.292729 133.315387 
L 358.305555 132.469958 
L 360.989322 131.480123 
L 362.331206 131.06717 
L 366.356857 129.583072 
L 367.027799 129.33413 
L 367.698741 128.866019 
L 368.369683 128.70753 
L 369.040625 128.365618 
L 369.040625 128.365618 
" style="fill:none;stroke:#000000;stroke-linecap:square;stroke-width:1.5;"/>
   </g>
   <g id="patch_3">
    <path d="M 34.240625 242.16 
L 34.240625 24.72 
" style="fill:none;stroke:#000000;stroke-linecap:square;stroke-linejoin:miter;stroke-width:0.8;"/>
   </g>
   <g id="patch_4">
    <path d="M 369.040625 242.16 
L 369.040625 24.72 
" style="fill:none;stroke:#000000;stroke-linecap:square;stroke-linejoin:miter;stroke-width:0.8;"/>
   </g>
   <g id="patch_5">
    <path d="M 34.240625 242.16 
L 369.040625 242.16 
" style="fill:none;stroke:#000000;stroke-linecap:square;stroke-linejoin:miter;stroke-width:0.8;"/>
   </g>
   <g id="patch_6">
    <path d="M 34.240625 24.72 
L 369.040625 24.72 
" style="fill:none;stroke:#000000;stroke-linecap:square;stroke-linejoin:miter;stroke-width:0.8;"/>
   </g>
   <g id="text_13">
    <!-- Samples from $\exp\left(t + \frac{1}{2} W_t\right)$ -->
    <defs>
     <path d="M 53.515625 70.515625 
L 53.515625 60.890625 
Q 47.90625 63.578125 42.921875 64.890625 
Q 37.9375 66.21875 33.296875 66.21875 
Q 25.25 66.21875 20.875 63.09375 
Q 16.5 59.96875 16.5 54.203125 
Q 16.5 49.359375 19.40625 46.890625 
Q 22.3125 44.4375 30.421875 42.921875 
L 36.375 41.703125 
Q 47.40625 39.59375 52.65625 34.296875 
Q 57.90625 29 57.90625 20.125 
Q 57.90625 9.515625 50.796875 4.046875 
Q 43.703125 -1.421875 29.984375 -1.421875 
Q 24.8125 -1.421875 18.96875 -0.25 
Q 13.140625 0.921875 6.890625 3.21875 
L 6.890625 13.375 
Q 12.890625 10.015625 18.65625 8.296875 
Q 24.421875 6.59375 29.984375 6.59375 
Q 38.421875 6.59375 43.015625 9.90625 
Q 47.609375 13.234375 47.609375 19.390625 
Q 47.609375 24.75 44.3125 27.78125 
Q 41.015625 30.8125 33.5 32.328125 
L 27.484375 33.5 
Q 16.453125 35.6875 11.515625 40.375 
Q 6.59375 45.0625 6.59375 53.421875 
Q 6.59375 63.09375 13.40625 68.65625 
Q 20.21875 74.21875 32.171875 74.21875 
Q 37.3125 74.21875 42.625 73.28125 
Q 47.953125 72.359375 53.515625 70.515625 
z
" id="DejaVuSans-83"/>
     <path d="M 18.109375 8.203125 
L 18.109375 -20.796875 
L 9.078125 -20.796875 
L 9.078125 54.6875 
L 18.109375 54.6875 
L 18.109375 46.390625 
Q 20.953125 51.265625 25.265625 53.625 
Q 29.59375 56 35.59375 56 
Q 45.5625 56 51.78125 48.09375 
Q 58.015625 40.1875 58.015625 27.296875 
Q 58.015625 14.40625 51.78125 6.484375 
Q 45.5625 -1.421875 35.59375 -1.421875 
Q 29.59375 -1.421875 25.265625 0.953125 
Q 20.953125 3.328125 18.109375 8.203125 
z
M 48.6875 27.296875 
Q 48.6875 37.203125 44.609375 42.84375 
Q 40.53125 48.484375 33.40625 48.484375 
Q 26.265625 48.484375 22.1875 42.84375 
Q 18.109375 37.203125 18.109375 27.296875 
Q 18.109375 17.390625 22.1875 11.75 
Q 26.265625 6.109375 33.40625 6.109375 
Q 40.53125 6.109375 44.609375 11.75 
Q 48.6875 17.390625 48.6875 27.296875 
z
" id="DejaVuSans-112"/>
     <path d="M 44.28125 53.078125 
L 44.28125 44.578125 
Q 40.484375 46.53125 36.375 47.5 
Q 32.28125 48.484375 27.875 48.484375 
Q 21.1875 48.484375 17.84375 46.4375 
Q 14.5 44.390625 14.5 40.28125 
Q 14.5 37.15625 16.890625 35.375 
Q 19.28125 33.59375 26.515625 31.984375 
L 29.59375 31.296875 
Q 39.15625 29.25 43.1875 25.515625 
Q 47.21875 21.78125 47.21875 15.09375 
Q 47.21875 7.46875 41.1875 3.015625 
Q 35.15625 -1.421875 24.609375 -1.421875 
Q 20.21875 -1.421875 15.453125 -0.5625 
Q 10.6875 0.296875 5.421875 2 
L 5.421875 11.28125 
Q 10.40625 8.6875 15.234375 7.390625 
Q 20.0625 6.109375 24.8125 6.109375 
Q 31.15625 6.109375 34.5625 8.28125 
Q 37.984375 10.453125 37.984375 14.40625 
Q 37.984375 18.0625 35.515625 20.015625 
Q 33.0625 21.96875 24.703125 23.78125 
L 21.578125 24.515625 
Q 13.234375 26.265625 9.515625 29.90625 
Q 5.8125 33.546875 5.8125 39.890625 
Q 5.8125 47.609375 11.28125 51.796875 
Q 16.75 56 26.8125 56 
Q 31.78125 56 36.171875 55.265625 
Q 40.578125 54.546875 44.28125 53.078125 
z
" id="DejaVuSans-115"/>
     <path d="M 37.109375 75.984375 
L 37.109375 68.5 
L 28.515625 68.5 
Q 23.6875 68.5 21.796875 66.546875 
Q 19.921875 64.59375 19.921875 59.515625 
L 19.921875 54.6875 
L 34.71875 54.6875 
L 34.71875 47.703125 
L 19.921875 47.703125 
L 19.921875 0 
L 10.890625 0 
L 10.890625 47.703125 
L 2.296875 47.703125 
L 2.296875 54.6875 
L 10.890625 54.6875 
L 10.890625 58.5 
Q 10.890625 67.625 15.140625 71.796875 
Q 19.390625 75.984375 28.609375 75.984375 
z
" id="DejaVuSans-102"/>
     <path d="M 41.109375 46.296875 
Q 39.59375 47.171875 37.8125 47.578125 
Q 36.03125 48 33.890625 48 
Q 26.265625 48 22.1875 43.046875 
Q 18.109375 38.09375 18.109375 28.8125 
L 18.109375 0 
L 9.078125 0 
L 9.078125 54.6875 
L 18.109375 54.6875 
L 18.109375 46.1875 
Q 20.953125 51.171875 25.484375 53.578125 
Q 30.03125 56 36.53125 56 
Q 37.453125 56 38.578125 55.875 
Q 39.703125 55.765625 41.0625 55.515625 
z
" id="DejaVuSans-114"/>
     <path d="M 30.609375 48.390625 
Q 23.390625 48.390625 19.1875 42.75 
Q 14.984375 37.109375 14.984375 27.296875 
Q 14.984375 17.484375 19.15625 11.84375 
Q 23.34375 6.203125 30.609375 6.203125 
Q 37.796875 6.203125 41.984375 11.859375 
Q 46.1875 17.53125 46.1875 27.296875 
Q 46.1875 37.015625 41.984375 42.703125 
Q 37.796875 48.390625 30.609375 48.390625 
z
M 30.609375 56 
Q 42.328125 56 49.015625 48.375 
Q 55.71875 40.765625 55.71875 27.296875 
Q 55.71875 13.875 49.015625 6.21875 
Q 42.328125 -1.421875 30.609375 -1.421875 
Q 18.84375 -1.421875 12.171875 6.21875 
Q 5.515625 13.875 5.515625 27.296875 
Q 5.515625 40.765625 12.171875 48.375 
Q 18.84375 56 30.609375 56 
z
" id="DejaVuSans-111"/>
     <path d="M 50.296875 -24.296875 
L 50.296875 -27.90625 
Q 33.5 -12.09375 23.703125 11.40625 
Q 13.90625 34.90625 13.90625 64.296875 
Q 13.90625 93.796875 23.953125 118.640625 
Q 34 143.5 50.296875 156.59375 
L 50.296875 153.296875 
Q 38.90625 141.59375 31.15625 118.84375 
Q 23.40625 96.09375 23.40625 64.296875 
Q 23.40625 8.796875 50.296875 -24.296875 
z
" id="STIXSizeTwoSym-Regular-40"/>
     <path d="M 42.28125 54.6875 
L 40.921875 47.703125 
L 23 47.703125 
L 17.1875 18.015625 
Q 16.890625 16.359375 16.75 15.234375 
Q 16.609375 14.109375 16.609375 13.484375 
Q 16.609375 10.359375 18.484375 8.9375 
Q 20.359375 7.515625 24.515625 7.515625 
L 33.59375 7.515625 
L 32.078125 0 
L 23.484375 0 
Q 15.484375 0 11.546875 3.125 
Q 7.625 6.25 7.625 12.59375 
Q 7.625 13.71875 7.765625 15.0625 
Q 7.90625 16.40625 8.203125 18.015625 
L 14.015625 47.703125 
L 6.390625 47.703125 
L 7.8125 54.6875 
L 15.28125 54.6875 
L 18.3125 70.21875 
L 27.296875 70.21875 
L 24.3125 54.6875 
z
" id="DejaVuSans-Oblique-116"/>
     <path d="M 46 62.703125 
L 46 35.5 
L 73.1875 35.5 
L 73.1875 27.203125 
L 46 27.203125 
L 46 0 
L 37.796875 0 
L 37.796875 27.203125 
L 10.59375 27.203125 
L 10.59375 35.5 
L 37.796875 35.5 
L 37.796875 62.703125 
z
" id="DejaVuSans-43"/>
     <path d="M 9.625 72.90625 
L 19.1875 72.90625 
L 22.703125 10.890625 
L 50.203125 72.90625 
L 61.1875 72.90625 
L 64.796875 10.890625 
L 92 72.90625 
L 102 72.90625 
L 69.578125 0 
L 57.171875 0 
L 53.8125 60.796875 
L 26.515625 0 
L 14.109375 0 
z
" id="DejaVuSans-Oblique-87"/>
     <path d="M 11.40625 153 
L 11.40625 156.59375 
Q 28.203125 140.796875 38 117.296875 
Q 47.796875 93.796875 47.796875 64.296875 
Q 47.796875 34.90625 37.75 10.046875 
Q 27.703125 -14.796875 11.40625 -27.90625 
L 11.40625 -24.59375 
Q 22.796875 -12.90625 30.546875 9.890625 
Q 38.296875 32.703125 38.296875 64.296875 
Q 38.296875 119.90625 11.40625 153 
z
" id="STIXSizeTwoSym-Regular-41"/>
    </defs>
    <g transform="translate(120.940625 18.72)scale(0.12 -0.12)">
     <use transform="translate(0 0.734375)" xlink:href="#DejaVuSans-83"/>
     <use transform="translate(63.476562 0.734375)" xlink:href="#DejaVuSans-97"/>
     <use transform="translate(124.755859 0.734375)" xlink:href="#DejaVuSans-109"/>
     <use transform="translate(222.167969 0.734375)" xlink:href="#DejaVuSans-112"/>
     <use transform="translate(285.644531 0.734375)" xlink:href="#DejaVuSans-108"/>
     <use transform="translate(313.427734 0.734375)" xlink:href="#DejaVuSans-101"/>
     <use transform="translate(374.951172 0.734375)" xlink:href="#DejaVuSans-115"/>
     <use transform="translate(427.050781 0.734375)" xlink:href="#DejaVuSans-32"/>
     <use transform="translate(458.837891 0.734375)" xlink:href="#DejaVuSans-102"/>
     <use transform="translate(494.042969 0.734375)" xlink:href="#DejaVuSans-114"/>
     <use transform="translate(535.15625 0.734375)" xlink:href="#DejaVuSans-111"/>
     <use transform="translate(596.337891 0.734375)" xlink:href="#DejaVuSans-109"/>
     <use transform="translate(693.75 0.734375)" xlink:href="#DejaVuSans-32"/>
     <use transform="translate(725.537109 0.734375)" xlink:href="#DejaVuSans-101"/>
     <use transform="translate(787.060547 0.734375)" xlink:href="#DejaVuSans-120"/>
     <use transform="translate(846.240234 0.734375)" xlink:href="#DejaVuSans-112"/>
     <use transform="translate(909.716797 -18.3125)scale(0.727575)" xlink:href="#STIXSizeTwoSym-Regular-40"/>
     <use transform="translate(952.566544 0.734375)" xlink:href="#DejaVuSans-Oblique-116"/>
     <use transform="translate(1011.25795 0.734375)" xlink:href="#DejaVuSans-43"/>
     <use transform="translate(1114.529434 44.53125)scale(0.7)" xlink:href="#DejaVuSans-49"/>
     <use transform="translate(1114.529434 -38.671875)scale(0.7)" xlink:href="#DejaVuSans-50"/>
     <use transform="translate(1171.565567 0.734375)" xlink:href="#DejaVuSans-Oblique-87"/>
     <use transform="translate(1270.44252 -15.671875)scale(0.7)" xlink:href="#DejaVuSans-Oblique-116"/>
     <use transform="translate(1300.623184 -18.3125)scale(0.727575)" xlink:href="#STIXSizeTwoSym-Regular-41"/>
     <path d="M 1114.529434 19.53125 
L 1114.529434 25.78125 
L 1159.065567 25.78125 
L 1159.065567 19.53125 
L 1114.529434 19.53125 
z
"/>
    </g>
   </g>
   <g id="legend_1">
    <g id="patch_7">
     <path d="M 41.240625 106.110625 
L 120.278125 106.110625 
Q 122.278125 106.110625 122.278125 104.110625 
L 122.278125 31.72 
Q 122.278125 29.72 120.278125 29.72 
L 41.240625 29.72 
Q 39.240625 29.72 39.240625 31.72 
L 39.240625 104.110625 
Q 39.240625 106.110625 41.240625 106.110625 
z
" style="fill:#ffffff;opacity:0.8;stroke:#cccccc;stroke-linejoin:miter;"/>
    </g>
    <g id="line2d_15">
     <path d="M 43.240625 37.818437 
L 63.240625 37.818437 
" style="fill:none;stroke:#ff0000;stroke-linecap:square;stroke-width:1.5;"/>
    </g>
    <g id="line2d_16"/>
    <g id="text_14">
     <!-- Sample 1 -->
     <g transform="translate(71.240625 41.318437)scale(0.1 -0.1)">
      <use xlink:href="#DejaVuSans-83"/>
      <use x="63.476562" xlink:href="#DejaVuSans-97"/>
      <use x="124.755859" xlink:href="#DejaVuSans-109"/>
      <use x="222.167969" xlink:href="#DejaVuSans-112"/>
      <use x="285.644531" xlink:href="#DejaVuSans-108"/>
      <use x="313.427734" xlink:href="#DejaVuSans-101"/>
      <use x="374.951172" xlink:href="#DejaVuSans-32"/>
      <use x="406.738281" xlink:href="#DejaVuSans-49"/>
     </g>
    </g>
    <g id="line2d_17">
     <path d="M 43.240625 52.496562 
L 63.240625 52.496562 
" style="fill:none;stroke:#008000;stroke-linecap:square;stroke-width:1.5;"/>
    </g>
    <g id="line2d_18"/>
    <g id="text_15">
     <!-- Sample 2 -->
     <g transform="translate(71.240625 55.996562)scale(0.1 -0.1)">
      <use xlink:href="#DejaVuSans-83"/>
      <use x="63.476562" xlink:href="#DejaVuSans-97"/>
      <use x="124.755859" xlink:href="#DejaVuSans-109"/>
      <use x="222.167969" xlink:href="#DejaVuSans-112"/>
      <use x="285.644531" xlink:href="#DejaVuSans-108"/>
      <use x="313.427734" xlink:href="#DejaVuSans-101"/>
      <use x="374.951172" xlink:href="#DejaVuSans-32"/>
      <use x="406.738281" xlink:href="#DejaVuSans-50"/>
     </g>
    </g>
    <g id="line2d_19">
     <path d="M 43.240625 67.174687 
L 63.240625 67.174687 
" style="fill:none;stroke:#0000ff;stroke-linecap:square;stroke-width:1.5;"/>
    </g>
    <g id="line2d_20"/>
    <g id="text_16">
     <!-- Sample 3 -->
     <defs>
      <path d="M 40.578125 39.3125 
Q 47.65625 37.796875 51.625 33 
Q 55.609375 28.21875 55.609375 21.1875 
Q 55.609375 10.40625 48.1875 4.484375 
Q 40.765625 -1.421875 27.09375 -1.421875 
Q 22.515625 -1.421875 17.65625 -0.515625 
Q 12.796875 0.390625 7.625 2.203125 
L 7.625 11.71875 
Q 11.71875 9.328125 16.59375 8.109375 
Q 21.484375 6.890625 26.8125 6.890625 
Q 36.078125 6.890625 40.9375 10.546875 
Q 45.796875 14.203125 45.796875 21.1875 
Q 45.796875 27.640625 41.28125 31.265625 
Q 36.765625 34.90625 28.71875 34.90625 
L 20.21875 34.90625 
L 20.21875 43.015625 
L 29.109375 43.015625 
Q 36.375 43.015625 40.234375 45.921875 
Q 44.09375 48.828125 44.09375 54.296875 
Q 44.09375 59.90625 40.109375 62.90625 
Q 36.140625 65.921875 28.71875 65.921875 
Q 24.65625 65.921875 20.015625 65.03125 
Q 15.375 64.15625 9.8125 62.3125 
L 9.8125 71.09375 
Q 15.4375 72.65625 20.34375 73.4375 
Q 25.25 74.21875 29.59375 74.21875 
Q 40.828125 74.21875 47.359375 69.109375 
Q 53.90625 64.015625 53.90625 55.328125 
Q 53.90625 49.265625 50.4375 45.09375 
Q 46.96875 40.921875 40.578125 39.3125 
z
" id="DejaVuSans-51"/>
     </defs>
     <g transform="translate(71.240625 70.674687)scale(0.1 -0.1)">
      <use xlink:href="#DejaVuSans-83"/>
      <use x="63.476562" xlink:href="#DejaVuSans-97"/>
      <use x="124.755859" xlink:href="#DejaVuSans-109"/>
      <use x="222.167969" xlink:href="#DejaVuSans-112"/>
      <use x="285.644531" xlink:href="#DejaVuSans-108"/>
      <use x="313.427734" xlink:href="#DejaVuSans-101"/>
      <use x="374.951172" xlink:href="#DejaVuSans-32"/>
      <use x="406.738281" xlink:href="#DejaVuSans-51"/>
     </g>
    </g>
    <g id="line2d_21">
     <path d="M 43.240625 81.852812 
L 63.240625 81.852812 
" style="fill:none;stroke:#000000;stroke-linecap:square;stroke-width:1.5;"/>
    </g>
    <g id="line2d_22"/>
    <g id="text_17">
     <!-- Mean -->
     <defs>
      <path d="M 9.8125 72.90625 
L 24.515625 72.90625 
L 43.109375 23.296875 
L 61.8125 72.90625 
L 76.515625 72.90625 
L 76.515625 0 
L 66.890625 0 
L 66.890625 64.015625 
L 48.09375 14.015625 
L 38.1875 14.015625 
L 19.390625 64.015625 
L 19.390625 0 
L 9.8125 0 
z
" id="DejaVuSans-77"/>
      <path d="M 54.890625 33.015625 
L 54.890625 0 
L 45.90625 0 
L 45.90625 32.71875 
Q 45.90625 40.484375 42.875 44.328125 
Q 39.84375 48.1875 33.796875 48.1875 
Q 26.515625 48.1875 22.3125 43.546875 
Q 18.109375 38.921875 18.109375 30.90625 
L 18.109375 0 
L 9.078125 0 
L 9.078125 54.6875 
L 18.109375 54.6875 
L 18.109375 46.1875 
Q 21.34375 51.125 25.703125 53.5625 
Q 30.078125 56 35.796875 56 
Q 45.21875 56 50.046875 50.171875 
Q 54.890625 44.34375 54.890625 33.015625 
z
" id="DejaVuSans-110"/>
     </defs>
     <g transform="translate(71.240625 85.352812)scale(0.1 -0.1)">
      <use xlink:href="#DejaVuSans-77"/>
      <use x="86.279297" xlink:href="#DejaVuSans-101"/>
      <use x="147.802734" xlink:href="#DejaVuSans-97"/>
      <use x="209.082031" xlink:href="#DejaVuSans-110"/>
     </g>
    </g>
    <g id="patch_8">
     <path d="M 43.240625 100.030937 
L 63.240625 100.030937 
L 63.240625 93.030937 
L 43.240625 93.030937 
z
" style="fill:#808080;opacity:0.3;stroke:#808080;stroke-linejoin:miter;"/>
    </g>
    <g id="text_18">
     <!-- Std. dev. -->
     <defs>
      <path d="M 45.40625 46.390625 
L 45.40625 75.984375 
L 54.390625 75.984375 
L 54.390625 0 
L 45.40625 0 
L 45.40625 8.203125 
Q 42.578125 3.328125 38.25 0.953125 
Q 33.9375 -1.421875 27.875 -1.421875 
Q 17.96875 -1.421875 11.734375 6.484375 
Q 5.515625 14.40625 5.515625 27.296875 
Q 5.515625 40.1875 11.734375 48.09375 
Q 17.96875 56 27.875 56 
Q 33.9375 56 38.25 53.625 
Q 42.578125 51.265625 45.40625 46.390625 
z
M 14.796875 27.296875 
Q 14.796875 17.390625 18.875 11.75 
Q 22.953125 6.109375 30.078125 6.109375 
Q 37.203125 6.109375 41.296875 11.75 
Q 45.40625 17.390625 45.40625 27.296875 
Q 45.40625 37.203125 41.296875 42.84375 
Q 37.203125 48.484375 30.078125 48.484375 
Q 22.953125 48.484375 18.875 42.84375 
Q 14.796875 37.203125 14.796875 27.296875 
z
" id="DejaVuSans-100"/>
      <path d="M 2.984375 54.6875 
L 12.5 54.6875 
L 29.59375 8.796875 
L 46.6875 54.6875 
L 56.203125 54.6875 
L 35.6875 0 
L 23.484375 0 
z
" id="DejaVuSans-118"/>
     </defs>
     <g transform="translate(71.240625 100.030937)scale(0.1 -0.1)">
      <use xlink:href="#DejaVuSans-83"/>
      <use x="63.476562" xlink:href="#DejaVuSans-116"/>
      <use x="102.685547" xlink:href="#DejaVuSans-100"/>
      <use x="166.162109" xlink:href="#DejaVuSans-46"/>
      <use x="197.949219" xlink:href="#DejaVuSans-32"/>
      <use x="229.736328" xlink:href="#DejaVuSans-100"/>
      <use x="293.212891" xlink:href="#DejaVuSans-101"/>
      <use x="354.736328" xlink:href="#DejaVuSans-118"/>
      <use x="406.166016" xlink:href="#DejaVuSans-46"/>
     </g>
    </g>
   </g>
  </g>
 </g>
 <defs>
  <clipPath id="pe0b58f4860">
   <rect height="217.44" width="334.8" x="34.240625" y="24.72"/>
  </clipPath>
 </defs>
</svg>
