<?xml version="1.0" encoding="utf-8" standalone="no"?>
<!DOCTYPE svg PUBLIC "-//W3C//DTD SVG 1.1//EN"
  "http://www.w3.org/Graphics/SVG/1.1/DTD/svg11.dtd">
<!-- Created with matplotlib (https://matplotlib.org/) -->
<svg height="272.066562pt" version="1.1" viewBox="0 0 376.839062 272.066562" width="376.839062pt" xmlns="http://www.w3.org/2000/svg" xmlns:xlink="http://www.w3.org/1999/xlink">
 <defs>
  <style type="text/css">
*{stroke-linecap:butt;stroke-linejoin:round;}
  </style>
 </defs>
 <g id="figure_1">
  <g id="patch_1">
   <path d="M 0 272.066562 
L 376.839062 272.066562 
L 376.839062 0 
L 0 0 
z
" style="fill:none;"/>
  </g>
  <g id="axes_1">
   <g id="patch_2">
    <path d="M 34.839063 244.317187 
L 369.639063 244.317187 
L 369.639063 26.877187 
L 34.839063 26.877187 
z
" style="fill:#ffffff;"/>
   </g>
   <g id="PolyCollection_1">
    <defs>
     <path d="M 34.839063 -190.153739 
L 34.839063 -147.8209 
L 38.220884 -147.797917 
L 41.602696 -147.762335 
L 44.984517 -147.708859 
L 48.366339 -147.631004 
L 51.748151 -147.52153 
L 55.129972 -147.373454 
L 58.511794 -147.181916 
L 61.893605 -146.947034 
L 65.275427 -146.677764 
L 68.657239 -146.396418 
L 72.03906 -146.143022 
L 75.420882 -145.978327 
L 78.802703 -145.983983 
L 82.184515 -146.258523 
L 85.566337 -146.908407 
L 88.948148 -148.03423 
L 92.32997 -149.713493 
L 95.711792 -151.982334 
L 99.093613 -154.819586 
L 102.475425 -158.136619 
L 105.857246 -161.775675 
L 109.239058 -165.516821 
L 112.62088 -169.09024 
L 116.002701 -172.196019 
L 119.384513 -174.611729 
L 122.766335 -176.435741 
L 126.148156 -177.944038 
L 129.529968 -179.278371 
L 132.911789 -180.497116 
L 136.293611 -181.690718 
L 139.675423 -183.015137 
L 143.057244 -184.639334 
L 146.439066 -186.662384 
L 149.820877 -189.064034 
L 153.202699 -191.704866 
L 156.584521 -194.350605 
L 159.966332 -196.687504 
L 163.348154 -198.333521 
L 166.729976 -198.876382 
L 170.111787 -197.952301 
L 173.493609 -195.34717 
L 176.87543 -191.06799 
L 180.257242 -185.34321 
L 183.639064 -178.57394 
L 187.020885 -171.277233 
L 190.402697 -164.041018 
L 193.784518 -157.491223 
L 197.16634 -152.238628 
L 200.548152 -148.779221 
L 203.929963 -147.391848 
L 207.311785 -148.088302 
L 210.693607 -150.630668 
L 214.075428 -154.60162 
L 217.45725 -159.484201 
L 220.839071 -164.713401 
L 224.220873 -169.716025 
L 227.602695 -173.969372 
L 230.984516 -177.078047 
L 234.366338 -178.83975 
L 237.748159 -179.256403 
L 241.129981 -178.484219 
L 244.511783 -176.764215 
L 247.893604 -174.371535 
L 251.275426 -171.595015 
L 254.657248 -168.724951 
L 258.039069 -166.014492 
L 261.420871 -163.625468 
L 264.802692 -161.604162 
L 268.184514 -159.915109 
L 271.566336 -158.519742 
L 274.948157 -157.425545 
L 278.329979 -156.643121 
L 281.711781 -156.063986 
L 285.093602 -155.34037 
L 288.475424 -154.162613 
L 291.857245 -152.611919 
L 295.239067 -150.900686 
L 298.620889 -149.211157 
L 302.00269 -147.687423 
L 305.384512 -146.433779 
L 308.766333 -145.510527 
L 312.148155 -144.933583 
L 315.529977 -144.679866 
L 318.911798 -144.697346 
L 322.2936 -144.917456 
L 325.675422 -145.26742 
L 329.057243 -145.68042 
L 332.439065 -146.102403 
L 335.820886 -146.495163 
L 339.202708 -146.836154 
L 342.58451 -147.116035 
L 345.966331 -147.335106 
L 349.348153 -147.499617 
L 352.729974 -147.618677 
L 356.111796 -147.702002 
L 359.493618 -147.758544 
L 362.875419 -147.795821 
L 366.257241 -147.819735 
L 369.639063 -147.834681 
L 369.639063 -190.167604 
L 369.639063 -190.167604 
L 366.257241 -190.152532 
L 362.875419 -190.12828 
L 359.493618 -190.090136 
L 356.111796 -190.031474 
L 352.729974 -189.943204 
L 349.348153 -189.813154 
L 345.966331 -189.62538 
L 342.58451 -189.359438 
L 339.202708 -188.989718 
L 335.820886 -188.484994 
L 332.439065 -187.808582 
L 329.057243 -186.919558 
L 325.675422 -185.775587 
L 322.2936 -184.337771 
L 318.911798 -182.577471 
L 315.529977 -180.484412 
L 312.148155 -178.074923 
L 308.766333 -175.398379 
L 305.384512 -172.540218 
L 302.00269 -169.620181 
L 298.620889 -166.78559 
L 295.239067 -164.201163 
L 291.857245 -162.040187 
L 288.475424 -160.485212 
L 285.093602 -159.729983 
L 281.711781 -159.833993 
L 278.329979 -160.480987 
L 274.948157 -161.346867 
L 271.566336 -162.383245 
L 268.184514 -163.689765 
L 264.802692 -165.36854 
L 261.420871 -167.443857 
L 258.039069 -169.86607 
L 254.657248 -172.547163 
L 251.275426 -175.364873 
L 247.893604 -178.133797 
L 244.511783 -180.578503 
L 241.129981 -182.355732 
L 237.748159 -183.130785 
L 234.366338 -182.660582 
L 230.984516 -180.844222 
L 227.602695 -177.732909 
L 224.220873 -173.520694 
L 220.839071 -168.546178 
L 217.45725 -163.295278 
L 214.075428 -158.368387 
L 210.693607 -154.39597 
L 207.311785 -151.923321 
L 203.929963 -151.317783 
L 200.548152 -152.736968 
L 197.16634 -156.137725 
L 193.784518 -161.292313 
L 190.402697 -167.79834 
L 187.020885 -175.089437 
L 183.639064 -182.485669 
L 180.257242 -189.305124 
L 176.87543 -194.987057 
L 173.493609 -199.170789 
L 170.111787 -201.712827 
L 166.729976 -202.652658 
L 163.348154 -202.167932 
L 159.966332 -200.551161 
L 156.584521 -198.184813 
L 153.202699 -195.485264 
L 149.820877 -192.821085 
L 146.439066 -190.438438 
L 143.057244 -188.436561 
L 139.675423 -186.800423 
L 136.293611 -185.450117 
L 132.911789 -184.267407 
L 129.529968 -183.097639 
L 126.148156 -181.773161 
L 122.766335 -180.200291 
L 119.384513 -178.498691 
L 116.002701 -177.046188 
L 112.62088 -176.136772 
L 109.239058 -175.793011 
L 105.857246 -175.961516 
L 102.475425 -176.579067 
L 99.093613 -177.564133 
L 95.711792 -178.816712 
L 92.32997 -180.228092 
L 88.948148 -181.693583 
L 85.566337 -183.123532 
L 82.184515 -184.450295 
L 78.802703 -185.630475 
L 75.420882 -186.643194 
L 72.03906 -187.485652 
L 68.657239 -188.167683 
L 65.275427 -188.706541 
L 61.893605 -189.122763 
L 58.511794 -189.437315 
L 55.129972 -189.669903 
L 51.748151 -189.838091 
L 48.366339 -189.956941 
L 44.984517 -190.038957 
L 41.602696 -190.094192 
L 38.220884 -190.130483 
L 34.839063 -190.153739 
z
" id="m5de62f214d" style="stroke:#808080;stroke-opacity:0.3;"/>
    </defs>
    <g clip-path="url(#pc79cca05ed)">
     <use style="fill:#808080;fill-opacity:0.3;stroke:#808080;stroke-opacity:0.3;" x="0" xlink:href="#m5de62f214d" y="272.066562"/>
    </g>
   </g>
   <g id="PathCollection_1">
    <defs>
     <path d="M -3 3 
L 3 -3 
M -3 -3 
L 3 3 
" id="m4409b756dc" style="stroke:#ff0000;stroke-width:1.5;"/>
    </defs>
    <g clip-path="url(#pc79cca05ed)">
     <use style="fill:#ff0000;stroke:#ff0000;stroke-width:1.5;" x="210.410443" xlink:href="#m4409b756dc" y="120.575003"/>
     <use style="fill:#ff0000;stroke:#ff0000;stroke-width:1.5;" x="238.261762" xlink:href="#m4409b756dc" y="93.045864"/>
     <use style="fill:#ff0000;stroke:#ff0000;stroke-width:1.5;" x="219.441652" xlink:href="#m4409b756dc" y="110.788482"/>
     <use style="fill:#ff0000;stroke:#ff0000;stroke-width:1.5;" x="209.752507" xlink:href="#m4409b756dc" y="124.548321"/>
     <use style="fill:#ff0000;stroke:#ff0000;stroke-width:1.5;" x="189.458876" xlink:href="#m4409b756dc" y="106.698146"/>
     <use style="fill:#ff0000;stroke:#ff0000;stroke-width:1.5;" x="226.661737" xlink:href="#m4409b756dc" y="96.44112"/>
     <use style="fill:#ff0000;stroke:#ff0000;stroke-width:1.5;" x="191.791162" xlink:href="#m4409b756dc" y="107.92266"/>
     <use style="fill:#ff0000;stroke:#ff0000;stroke-width:1.5;" x="267.821863" xlink:href="#m4409b756dc" y="110.166426"/>
     <use style="fill:#ff0000;stroke:#ff0000;stroke-width:1.5;" x="279.856209" xlink:href="#m4409b756dc" y="116.44154"/>
     <use style="fill:#ff0000;stroke:#ff0000;stroke-width:1.5;" x="182.727173" xlink:href="#m4409b756dc" y="91.566194"/>
     <use style="fill:#ff0000;stroke:#ff0000;stroke-width:1.5;" x="251.073834" xlink:href="#m4409b756dc" y="100.605199"/>
     <use style="fill:#ff0000;stroke:#ff0000;stroke-width:1.5;" x="207.076072" xlink:href="#m4409b756dc" y="121.281274"/>
     <use style="fill:#ff0000;stroke:#ff0000;stroke-width:1.5;" x="213.629722" xlink:href="#m4409b756dc" y="117.445691"/>
     <use style="fill:#ff0000;stroke:#ff0000;stroke-width:1.5;" x="273.48394" xlink:href="#m4409b756dc" y="111.071564"/>
     <use style="fill:#ff0000;stroke:#ff0000;stroke-width:1.5;" x="130.430499" xlink:href="#m4409b756dc" y="90.56545"/>
     <use style="fill:#ff0000;stroke:#ff0000;stroke-width:1.5;" x="133.124507" xlink:href="#m4409b756dc" y="87.53365"/>
     <use style="fill:#ff0000;stroke:#ff0000;stroke-width:1.5;" x="121.923622" xlink:href="#m4409b756dc" y="94.972452"/>
     <use style="fill:#ff0000;stroke:#ff0000;stroke-width:1.5;" x="257.919625" xlink:href="#m4409b756dc" y="100.551921"/>
     <use style="fill:#ff0000;stroke:#ff0000;stroke-width:1.5;" x="248.802503" xlink:href="#m4409b756dc" y="96.950016"/>
     <use style="fill:#ff0000;stroke:#ff0000;stroke-width:1.5;" x="264.179096" xlink:href="#m4409b756dc" y="105.703067"/>
     <use style="fill:#ff0000;stroke:#ff0000;stroke-width:1.5;" x="282.359773" xlink:href="#m4409b756dc" y="111.586793"/>
     <use style="fill:#ff0000;stroke:#ff0000;stroke-width:1.5;" x="252.318206" xlink:href="#m4409b756dc" y="101.986431"/>
     <use style="fill:#ff0000;stroke:#ff0000;stroke-width:1.5;" x="195.790708" xlink:href="#m4409b756dc" y="118.655467"/>
     <use style="fill:#ff0000;stroke:#ff0000;stroke-width:1.5;" x="249.199647" xlink:href="#m4409b756dc" y="95.91955"/>
     <use style="fill:#ff0000;stroke:#ff0000;stroke-width:1.5;" x="138.338201" xlink:href="#m4409b756dc" y="89.029078"/>
     <use style="fill:#ff0000;stroke:#ff0000;stroke-width:1.5;" x="225.661841" xlink:href="#m4409b756dc" y="95.683657"/>
     <use style="fill:#ff0000;stroke:#ff0000;stroke-width:1.5;" x="142.536403" xlink:href="#m4409b756dc" y="88.502404"/>
     <use style="fill:#ff0000;stroke:#ff0000;stroke-width:1.5;" x="276.676639" xlink:href="#m4409b756dc" y="114.348785"/>
     <use style="fill:#ff0000;stroke:#ff0000;stroke-width:1.5;" x="205.896472" xlink:href="#m4409b756dc" y="120.206281"/>
     <use style="fill:#ff0000;stroke:#ff0000;stroke-width:1.5;" x="187.953471" xlink:href="#m4409b756dc" y="99.235095"/>
     <use style="fill:#ff0000;stroke:#ff0000;stroke-width:1.5;" x="162.825672" xlink:href="#m4409b756dc" y="70.634964"/>
     <use style="fill:#ff0000;stroke:#ff0000;stroke-width:1.5;" x="248.145782" xlink:href="#m4409b756dc" y="94.92198"/>
     <use style="fill:#ff0000;stroke:#ff0000;stroke-width:1.5;" x="194.898628" xlink:href="#m4409b756dc" y="116.790585"/>
     <use style="fill:#ff0000;stroke:#ff0000;stroke-width:1.5;" x="213.694906" xlink:href="#m4409b756dc" y="112.936547"/>
     <use style="fill:#ff0000;stroke:#ff0000;stroke-width:1.5;" x="121.684475" xlink:href="#m4409b756dc" y="94.946783"/>
     <use style="fill:#ff0000;stroke:#ff0000;stroke-width:1.5;" x="221.931245" xlink:href="#m4409b756dc" y="101.968697"/>
     <use style="fill:#ff0000;stroke:#ff0000;stroke-width:1.5;" x="221.003886" xlink:href="#m4409b756dc" y="102.800326"/>
     <use style="fill:#ff0000;stroke:#ff0000;stroke-width:1.5;" x="221.813814" xlink:href="#m4409b756dc" y="103.438445"/>
     <use style="fill:#ff0000;stroke:#ff0000;stroke-width:1.5;" x="276.522491" xlink:href="#m4409b756dc" y="111.924928"/>
     <use style="fill:#ff0000;stroke:#ff0000;stroke-width:1.5;" x="232.675781" xlink:href="#m4409b756dc" y="90.284342"/>
     <use style="fill:#ff0000;stroke:#ff0000;stroke-width:1.5;" x="178.720685" xlink:href="#m4409b756dc" y="81.424416"/>
     <use style="fill:#ff0000;stroke:#ff0000;stroke-width:1.5;" x="191.698212" xlink:href="#m4409b756dc" y="111.899423"/>
     <use style="fill:#ff0000;stroke:#ff0000;stroke-width:1.5;" x="235.322525" xlink:href="#m4409b756dc" y="90.505861"/>
     <use style="fill:#ff0000;stroke:#ff0000;stroke-width:1.5;" x="128.620806" xlink:href="#m4409b756dc" y="88.415749"/>
     <use style="fill:#ff0000;stroke:#ff0000;stroke-width:1.5;" x="230.155811" xlink:href="#m4409b756dc" y="94.445584"/>
     <use style="fill:#ff0000;stroke:#ff0000;stroke-width:1.5;" x="230.803842" xlink:href="#m4409b756dc" y="93.139095"/>
     <use style="fill:#ff0000;stroke:#ff0000;stroke-width:1.5;" x="153.757103" xlink:href="#m4409b756dc" y="80.239123"/>
     <use style="fill:#ff0000;stroke:#ff0000;stroke-width:1.5;" x="140.121325" xlink:href="#m4409b756dc" y="84.179785"/>
     <use style="fill:#ff0000;stroke:#ff0000;stroke-width:1.5;" x="171.341768" xlink:href="#m4409b756dc" y="70.816421"/>
     <use style="fill:#ff0000;stroke:#ff0000;stroke-width:1.5;" x="179.424246" xlink:href="#m4409b756dc" y="81.98936"/>
     <use style="fill:#ff0000;stroke:#ff0000;stroke-width:1.5;" x="213.990002" xlink:href="#m4409b756dc" y="116.833528"/>
     <use style="fill:#ff0000;stroke:#ff0000;stroke-width:1.5;" x="191.960956" xlink:href="#m4409b756dc" y="109.568405"/>
     <use style="fill:#ff0000;stroke:#ff0000;stroke-width:1.5;" x="283.992843" xlink:href="#m4409b756dc" y="115.493657"/>
     <use style="fill:#ff0000;stroke:#ff0000;stroke-width:1.5;" x="135.621364" xlink:href="#m4409b756dc" y="88.025814"/>
     <use style="fill:#ff0000;stroke:#ff0000;stroke-width:1.5;" x="153.505031" xlink:href="#m4409b756dc" y="80.820155"/>
     <use style="fill:#ff0000;stroke:#ff0000;stroke-width:1.5;" x="145.542276" xlink:href="#m4409b756dc" y="84.107835"/>
     <use style="fill:#ff0000;stroke:#ff0000;stroke-width:1.5;" x="227.869396" xlink:href="#m4409b756dc" y="94.210725"/>
     <use style="fill:#ff0000;stroke:#ff0000;stroke-width:1.5;" x="160.940077" xlink:href="#m4409b756dc" y="73.559858"/>
     <use style="fill:#ff0000;stroke:#ff0000;stroke-width:1.5;" x="196.599486" xlink:href="#m4409b756dc" y="117.749483"/>
     <use style="fill:#ff0000;stroke:#ff0000;stroke-width:1.5;" x="159.455907" xlink:href="#m4409b756dc" y="76.624703"/>
     <use style="fill:#ff0000;stroke:#ff0000;stroke-width:1.5;" x="145.150571" xlink:href="#m4409b756dc" y="88.44597"/>
     <use style="fill:#ff0000;stroke:#ff0000;stroke-width:1.5;" x="137.015861" xlink:href="#m4409b756dc" y="87.029546"/>
     <use style="fill:#ff0000;stroke:#ff0000;stroke-width:1.5;" x="228.408636" xlink:href="#m4409b756dc" y="94.360115"/>
     <use style="fill:#ff0000;stroke:#ff0000;stroke-width:1.5;" x="141.670889" xlink:href="#m4409b756dc" y="85.761712"/>
     <use style="fill:#ff0000;stroke:#ff0000;stroke-width:1.5;" x="151.44695" xlink:href="#m4409b756dc" y="77.35208"/>
     <use style="fill:#ff0000;stroke:#ff0000;stroke-width:1.5;" x="180.263656" xlink:href="#m4409b756dc" y="82.474859"/>
     <use style="fill:#ff0000;stroke:#ff0000;stroke-width:1.5;" x="255.973329" xlink:href="#m4409b756dc" y="103.636743"/>
     <use style="fill:#ff0000;stroke:#ff0000;stroke-width:1.5;" x="134.793816" xlink:href="#m4409b756dc" y="85.957994"/>
     <use style="fill:#ff0000;stroke:#ff0000;stroke-width:1.5;" x="258.81104" xlink:href="#m4409b756dc" y="106.589121"/>
     <use style="fill:#ff0000;stroke:#ff0000;stroke-width:1.5;" x="134.625936" xlink:href="#m4409b756dc" y="88.774853"/>
     <use style="fill:#ff0000;stroke:#ff0000;stroke-width:1.5;" x="281.998377" xlink:href="#m4409b756dc" y="114.464381"/>
     <use style="fill:#ff0000;stroke:#ff0000;stroke-width:1.5;" x="196.991274" xlink:href="#m4409b756dc" y="115.63223"/>
     <use style="fill:#ff0000;stroke:#ff0000;stroke-width:1.5;" x="282.048869" xlink:href="#m4409b756dc" y="115.854343"/>
     <use style="fill:#ff0000;stroke:#ff0000;stroke-width:1.5;" x="219.790203" xlink:href="#m4409b756dc" y="107.997412"/>
     <use style="fill:#ff0000;stroke:#ff0000;stroke-width:1.5;" x="242.291786" xlink:href="#m4409b756dc" y="92.774454"/>
     <use style="fill:#ff0000;stroke:#ff0000;stroke-width:1.5;" x="125.099099" xlink:href="#m4409b756dc" y="93.357397"/>
     <use style="fill:#ff0000;stroke:#ff0000;stroke-width:1.5;" x="165.880948" xlink:href="#m4409b756dc" y="68.56765"/>
     <use style="fill:#ff0000;stroke:#ff0000;stroke-width:1.5;" x="138.659967" xlink:href="#m4409b756dc" y="89.233902"/>
     <use style="fill:#ff0000;stroke:#ff0000;stroke-width:1.5;" x="168.112932" xlink:href="#m4409b756dc" y="72.52741"/>
     <use style="fill:#ff0000;stroke:#ff0000;stroke-width:1.5;" x="138.414083" xlink:href="#m4409b756dc" y="88.228422"/>
     <use style="fill:#ff0000;stroke:#ff0000;stroke-width:1.5;" x="171.769447" xlink:href="#m4409b756dc" y="73.162803"/>
     <use style="fill:#ff0000;stroke:#ff0000;stroke-width:1.5;" x="187.886688" xlink:href="#m4409b756dc" y="97.443126"/>
     <use style="fill:#ff0000;stroke:#ff0000;stroke-width:1.5;" x="129.277353" xlink:href="#m4409b756dc" y="88.186219"/>
     <use style="fill:#ff0000;stroke:#ff0000;stroke-width:1.5;" x="234.458895" xlink:href="#m4409b756dc" y="90.849771"/>
     <use style="fill:#ff0000;stroke:#ff0000;stroke-width:1.5;" x="213.388146" xlink:href="#m4409b756dc" y="118.891624"/>
     <use style="fill:#ff0000;stroke:#ff0000;stroke-width:1.5;" x="162.965263" xlink:href="#m4409b756dc" y="70.372755"/>
     <use style="fill:#ff0000;stroke:#ff0000;stroke-width:1.5;" x="206.130787" xlink:href="#m4409b756dc" y="125.202036"/>
     <use style="fill:#ff0000;stroke:#ff0000;stroke-width:1.5;" x="134.264704" xlink:href="#m4409b756dc" y="91.17123"/>
     <use style="fill:#ff0000;stroke:#ff0000;stroke-width:1.5;" x="214.952506" xlink:href="#m4409b756dc" y="112.388447"/>
     <use style="fill:#ff0000;stroke:#ff0000;stroke-width:1.5;" x="274.103246" xlink:href="#m4409b756dc" y="111.479968"/>
     <use style="fill:#ff0000;stroke:#ff0000;stroke-width:1.5;" x="171.867505" xlink:href="#m4409b756dc" y="70.451455"/>
     <use style="fill:#ff0000;stroke:#ff0000;stroke-width:1.5;" x="230.26356" xlink:href="#m4409b756dc" y="92.37978"/>
     <use style="fill:#ff0000;stroke:#ff0000;stroke-width:1.5;" x="140.602025" xlink:href="#m4409b756dc" y="85.466809"/>
     <use style="fill:#ff0000;stroke:#ff0000;stroke-width:1.5;" x="238.452236" xlink:href="#m4409b756dc" y="92.300554"/>
     <use style="fill:#ff0000;stroke:#ff0000;stroke-width:1.5;" x="166.985642" xlink:href="#m4409b756dc" y="72.416939"/>
     <use style="fill:#ff0000;stroke:#ff0000;stroke-width:1.5;" x="149.205296" xlink:href="#m4409b756dc" y="81.571425"/>
     <use style="fill:#ff0000;stroke:#ff0000;stroke-width:1.5;" x="216.721328" xlink:href="#m4409b756dc" y="113.131292"/>
     <use style="fill:#ff0000;stroke:#ff0000;stroke-width:1.5;" x="121.905066" xlink:href="#m4409b756dc" y="95.86378"/>
     <use style="fill:#ff0000;stroke:#ff0000;stroke-width:1.5;" x="257.303623" xlink:href="#m4409b756dc" y="104.296503"/>
     <use style="fill:#ff0000;stroke:#ff0000;stroke-width:1.5;" x="119.325085" xlink:href="#m4409b756dc" y="96.961865"/>
    </g>
   </g>
   <g id="PathCollection_2">
    <defs>
     <path d="M -3 0 
L 3 0 
M 0 3 
L 0 -3 
" id="me968a07c2e" style="stroke:#0000ff;stroke-width:1.5;"/>
    </defs>
    <g clip-path="url(#pc79cca05ed)">
     <use style="fill:#0000ff;stroke:#0000ff;stroke-width:1.5;" x="121.766916" xlink:href="#me968a07c2e" y="189.957187"/>
     <use style="fill:#0000ff;stroke:#0000ff;stroke-width:1.5;" x="266.232265" xlink:href="#me968a07c2e" y="189.957187"/>
     <use style="fill:#0000ff;stroke:#0000ff;stroke-width:1.5;" x="150.083469" xlink:href="#me968a07c2e" y="189.957187"/>
     <use style="fill:#0000ff;stroke:#0000ff;stroke-width:1.5;" x="212.145099" xlink:href="#me968a07c2e" y="189.957187"/>
     <use style="fill:#0000ff;stroke:#0000ff;stroke-width:1.5;" x="135.120169" xlink:href="#me968a07c2e" y="189.957187"/>
     <use style="fill:#0000ff;stroke:#0000ff;stroke-width:1.5;" x="249.154748" xlink:href="#me968a07c2e" y="189.957187"/>
     <use style="fill:#0000ff;stroke:#0000ff;stroke-width:1.5;" x="281.041784" xlink:href="#me968a07c2e" y="189.957187"/>
     <use style="fill:#0000ff;stroke:#0000ff;stroke-width:1.5;" x="190.606566" xlink:href="#me968a07c2e" y="189.957187"/>
     <use style="fill:#0000ff;stroke:#0000ff;stroke-width:1.5;" x="229.231209" xlink:href="#me968a07c2e" y="189.957187"/>
     <use style="fill:#0000ff;stroke:#0000ff;stroke-width:1.5;" x="169.224573" xlink:href="#me968a07c2e" y="189.957187"/>
    </g>
   </g>
   <g id="PathCollection_3">
    <defs>
     <path d="M -3 0 
L 3 0 
M 0 3 
L 0 -3 
" id="m7d89f2d662" style="stroke:#008000;stroke-width:1.5;"/>
    </defs>
    <g clip-path="url(#pc79cca05ed)">
     <use style="fill:#008000;stroke:#008000;stroke-width:1.5;" x="125.449789" xlink:href="#m7d89f2d662" y="199.017187"/>
     <use style="fill:#008000;stroke:#008000;stroke-width:1.5;" x="156.266054" xlink:href="#m7d89f2d662" y="199.017187"/>
     <use style="fill:#008000;stroke:#008000;stroke-width:1.5;" x="144.945332" xlink:href="#m7d89f2d662" y="199.017187"/>
     <use style="fill:#008000;stroke:#008000;stroke-width:1.5;" x="136.724817" xlink:href="#m7d89f2d662" y="199.017187"/>
     <use style="fill:#008000;stroke:#008000;stroke-width:1.5;" x="130.75671" xlink:href="#m7d89f2d662" y="199.017187"/>
     <use style="fill:#008000;stroke:#008000;stroke-width:1.5;" x="145.427774" xlink:href="#m7d89f2d662" y="199.017187"/>
     <use style="fill:#008000;stroke:#008000;stroke-width:1.5;" x="159.375685" xlink:href="#m7d89f2d662" y="199.017187"/>
     <use style="fill:#008000;stroke:#008000;stroke-width:1.5;" x="136.747976" xlink:href="#m7d89f2d662" y="199.017187"/>
     <use style="fill:#008000;stroke:#008000;stroke-width:1.5;" x="146.164327" xlink:href="#m7d89f2d662" y="199.017187"/>
     <use style="fill:#008000;stroke:#008000;stroke-width:1.5;" x="143.853953" xlink:href="#m7d89f2d662" y="199.017187"/>
    </g>
   </g>
   <g id="matplotlib.axis_1">
    <g id="xtick_1">
     <g id="line2d_1">
      <defs>
       <path d="M 0 0 
L 0 3.5 
" id="m39c4603861" style="stroke:#000000;stroke-width:0.8;"/>
      </defs>
      <g>
       <use style="stroke:#000000;stroke-width:0.8;" x="76.689063" xlink:href="#m39c4603861" y="244.317187"/>
      </g>
     </g>
     <g id="text_1">
      <!-- −6 -->
      <defs>
       <path d="M 10.59375 35.5 
L 73.1875 35.5 
L 73.1875 27.203125 
L 10.59375 27.203125 
z
" id="DejaVuSans-8722"/>
       <path d="M 33.015625 40.375 
Q 26.375 40.375 22.484375 35.828125 
Q 18.609375 31.296875 18.609375 23.390625 
Q 18.609375 15.53125 22.484375 10.953125 
Q 26.375 6.390625 33.015625 6.390625 
Q 39.65625 6.390625 43.53125 10.953125 
Q 47.40625 15.53125 47.40625 23.390625 
Q 47.40625 31.296875 43.53125 35.828125 
Q 39.65625 40.375 33.015625 40.375 
z
M 52.59375 71.296875 
L 52.59375 62.3125 
Q 48.875 64.0625 45.09375 64.984375 
Q 41.3125 65.921875 37.59375 65.921875 
Q 27.828125 65.921875 22.671875 59.328125 
Q 17.53125 52.734375 16.796875 39.40625 
Q 19.671875 43.65625 24.015625 45.921875 
Q 28.375 48.1875 33.59375 48.1875 
Q 44.578125 48.1875 50.953125 41.515625 
Q 57.328125 34.859375 57.328125 23.390625 
Q 57.328125 12.15625 50.6875 5.359375 
Q 44.046875 -1.421875 33.015625 -1.421875 
Q 20.359375 -1.421875 13.671875 8.265625 
Q 6.984375 17.96875 6.984375 36.375 
Q 6.984375 53.65625 15.1875 63.9375 
Q 23.390625 74.21875 37.203125 74.21875 
Q 40.921875 74.21875 44.703125 73.484375 
Q 48.484375 72.75 52.59375 71.296875 
z
" id="DejaVuSans-54"/>
      </defs>
      <g transform="translate(66.369531 261.955)scale(0.14 -0.14)">
       <use xlink:href="#DejaVuSans-8722"/>
       <use x="83.789062" xlink:href="#DejaVuSans-54"/>
      </g>
     </g>
    </g>
    <g id="xtick_2">
     <g id="line2d_2">
      <g>
       <use style="stroke:#000000;stroke-width:0.8;" x="160.389063" xlink:href="#m39c4603861" y="244.317187"/>
      </g>
     </g>
     <g id="text_2">
      <!-- −2 -->
      <defs>
       <path d="M 19.1875 8.296875 
L 53.609375 8.296875 
L 53.609375 0 
L 7.328125 0 
L 7.328125 8.296875 
Q 12.9375 14.109375 22.625 23.890625 
Q 32.328125 33.6875 34.8125 36.53125 
Q 39.546875 41.84375 41.421875 45.53125 
Q 43.3125 49.21875 43.3125 52.78125 
Q 43.3125 58.59375 39.234375 62.25 
Q 35.15625 65.921875 28.609375 65.921875 
Q 23.96875 65.921875 18.8125 64.3125 
Q 13.671875 62.703125 7.8125 59.421875 
L 7.8125 69.390625 
Q 13.765625 71.78125 18.9375 73 
Q 24.125 74.21875 28.421875 74.21875 
Q 39.75 74.21875 46.484375 68.546875 
Q 53.21875 62.890625 53.21875 53.421875 
Q 53.21875 48.921875 51.53125 44.890625 
Q 49.859375 40.875 45.40625 35.40625 
Q 44.1875 33.984375 37.640625 27.21875 
Q 31.109375 20.453125 19.1875 8.296875 
z
" id="DejaVuSans-50"/>
      </defs>
      <g transform="translate(150.069531 261.955)scale(0.14 -0.14)">
       <use xlink:href="#DejaVuSans-8722"/>
       <use x="83.789062" xlink:href="#DejaVuSans-50"/>
      </g>
     </g>
    </g>
    <g id="xtick_3">
     <g id="line2d_3">
      <g>
       <use style="stroke:#000000;stroke-width:0.8;" x="244.089063" xlink:href="#m39c4603861" y="244.317187"/>
      </g>
     </g>
     <g id="text_3">
      <!-- 2 -->
      <g transform="translate(239.635312 261.955)scale(0.14 -0.14)">
       <use xlink:href="#DejaVuSans-50"/>
      </g>
     </g>
    </g>
    <g id="xtick_4">
     <g id="line2d_4">
      <g>
       <use style="stroke:#000000;stroke-width:0.8;" x="327.789062" xlink:href="#m39c4603861" y="244.317187"/>
      </g>
     </g>
     <g id="text_4">
      <!-- 6 -->
      <g transform="translate(323.335312 261.955)scale(0.14 -0.14)">
       <use xlink:href="#DejaVuSans-54"/>
      </g>
     </g>
    </g>
   </g>
   <g id="matplotlib.axis_2">
    <g id="ytick_1">
     <g id="line2d_5">
      <defs>
       <path d="M 0 0 
L -3.5 0 
" id="m6ffa944d51" style="stroke:#000000;stroke-width:0.8;"/>
      </defs>
      <g>
       <use style="stroke:#000000;stroke-width:0.8;" x="34.839063" xlink:href="#m6ffa944d51" y="208.077187"/>
      </g>
     </g>
     <g id="text_5">
      <!-- −6 -->
      <g transform="translate(7.2 213.396094)scale(0.14 -0.14)">
       <use xlink:href="#DejaVuSans-8722"/>
       <use x="83.789062" xlink:href="#DejaVuSans-54"/>
      </g>
     </g>
    </g>
    <g id="ytick_2">
     <g id="line2d_6">
      <g>
       <use style="stroke:#000000;stroke-width:0.8;" x="34.839063" xlink:href="#m6ffa944d51" y="153.717187"/>
      </g>
     </g>
     <g id="text_6">
      <!-- −3 -->
      <defs>
       <path d="M 40.578125 39.3125 
Q 47.65625 37.796875 51.625 33 
Q 55.609375 28.21875 55.609375 21.1875 
Q 55.609375 10.40625 48.1875 4.484375 
Q 40.765625 -1.421875 27.09375 -1.421875 
Q 22.515625 -1.421875 17.65625 -0.515625 
Q 12.796875 0.390625 7.625 2.203125 
L 7.625 11.71875 
Q 11.71875 9.328125 16.59375 8.109375 
Q 21.484375 6.890625 26.8125 6.890625 
Q 36.078125 6.890625 40.9375 10.546875 
Q 45.796875 14.203125 45.796875 21.1875 
Q 45.796875 27.640625 41.28125 31.265625 
Q 36.765625 34.90625 28.71875 34.90625 
L 20.21875 34.90625 
L 20.21875 43.015625 
L 29.109375 43.015625 
Q 36.375 43.015625 40.234375 45.921875 
Q 44.09375 48.828125 44.09375 54.296875 
Q 44.09375 59.90625 40.109375 62.90625 
Q 36.140625 65.921875 28.71875 65.921875 
Q 24.65625 65.921875 20.015625 65.03125 
Q 15.375 64.15625 9.8125 62.3125 
L 9.8125 71.09375 
Q 15.4375 72.65625 20.34375 73.4375 
Q 25.25 74.21875 29.59375 74.21875 
Q 40.828125 74.21875 47.359375 69.109375 
Q 53.90625 64.015625 53.90625 55.328125 
Q 53.90625 49.265625 50.4375 45.09375 
Q 46.96875 40.921875 40.578125 39.3125 
z
" id="DejaVuSans-51"/>
      </defs>
      <g transform="translate(7.2 159.036094)scale(0.14 -0.14)">
       <use xlink:href="#DejaVuSans-8722"/>
       <use x="83.789062" xlink:href="#DejaVuSans-51"/>
      </g>
     </g>
    </g>
    <g id="ytick_3">
     <g id="line2d_7">
      <g>
       <use style="stroke:#000000;stroke-width:0.8;" x="34.839063" xlink:href="#m6ffa944d51" y="99.357187"/>
      </g>
     </g>
     <g id="text_7">
      <!-- 0 -->
      <defs>
       <path d="M 31.78125 66.40625 
Q 24.171875 66.40625 20.328125 58.90625 
Q 16.5 51.421875 16.5 36.375 
Q 16.5 21.390625 20.328125 13.890625 
Q 24.171875 6.390625 31.78125 6.390625 
Q 39.453125 6.390625 43.28125 13.890625 
Q 47.125 21.390625 47.125 36.375 
Q 47.125 51.421875 43.28125 58.90625 
Q 39.453125 66.40625 31.78125 66.40625 
z
M 31.78125 74.21875 
Q 44.046875 74.21875 50.515625 64.515625 
Q 56.984375 54.828125 56.984375 36.375 
Q 56.984375 17.96875 50.515625 8.265625 
Q 44.046875 -1.421875 31.78125 -1.421875 
Q 19.53125 -1.421875 13.0625 8.265625 
Q 6.59375 17.96875 6.59375 36.375 
Q 6.59375 54.828125 13.0625 64.515625 
Q 19.53125 74.21875 31.78125 74.21875 
z
" id="DejaVuSans-48"/>
      </defs>
      <g transform="translate(18.931563 104.676094)scale(0.14 -0.14)">
       <use xlink:href="#DejaVuSans-48"/>
      </g>
     </g>
    </g>
    <g id="ytick_4">
     <g id="line2d_8">
      <g>
       <use style="stroke:#000000;stroke-width:0.8;" x="34.839063" xlink:href="#m6ffa944d51" y="44.997187"/>
      </g>
     </g>
     <g id="text_8">
      <!-- 3 -->
      <g transform="translate(18.931563 50.316094)scale(0.14 -0.14)">
       <use xlink:href="#DejaVuSans-51"/>
      </g>
     </g>
    </g>
   </g>
   <g id="line2d_9">
    <path clip-path="url(#pc79cca05ed)" d="M 34.839063 103.079243 
L 38.220884 103.102363 
L 41.602696 103.138299 
L 44.984517 103.192655 
L 48.366339 103.27259 
L 51.748151 103.386752 
L 55.129972 103.544884 
L 58.511794 103.756947 
L 61.893605 104.031664 
L 65.275427 104.37441 
L 68.657239 104.784512 
L 72.03906 105.252226 
L 75.420882 105.755802 
L 78.802703 106.259334 
L 82.184515 106.712153 
L 85.566337 107.050593 
L 88.948148 107.202656 
L 92.32997 107.09577 
L 95.711792 106.66704 
L 99.093613 105.874703 
L 102.475425 104.70872 
L 105.857246 103.197967 
L 109.239058 101.411646 
L 112.62088 99.453056 
L 116.002701 97.445459 
L 119.384513 95.511353 
L 122.766335 93.748547 
L 126.148156 92.207963 
L 129.529968 90.878557 
L 132.911789 89.684301 
L 136.293611 88.496145 
L 139.675423 87.158782 
L 143.057244 85.528615 
L 146.439066 83.516151 
L 149.820877 81.124003 
L 153.202699 78.471498 
L 156.584521 75.798854 
L 159.966332 73.44723 
L 163.348154 71.815836 
L 166.729976 71.302042 
L 170.111787 72.233998 
L 173.493609 74.807583 
L 176.87543 79.039039 
L 180.257242 84.742395 
L 183.639064 91.536758 
L 187.020885 98.883228 
L 190.402697 106.146883 
L 193.784518 112.674795 
L 197.16634 117.878386 
L 200.548152 121.308468 
L 203.929963 122.711747 
L 207.311785 122.060751 
L 210.693607 119.553244 
L 214.075428 115.581559 
L 217.45725 110.676823 
L 220.839071 105.436773 
L 224.220873 100.448203 
L 227.602695 96.215422 
L 230.984516 93.105428 
L 234.366338 91.316396 
L 237.748159 90.872969 
L 241.129981 91.646587 
L 244.511783 93.395203 
L 247.893604 95.813897 
L 251.275426 98.586619 
L 254.657248 101.430506 
L 258.039069 104.126282 
L 261.420871 106.5319 
L 264.802692 108.580211 
L 268.184514 110.264126 
L 271.566336 111.615069 
L 274.948157 112.680357 
L 278.329979 113.504508 
L 281.711781 114.117573 
L 285.093602 114.531386 
L 288.475424 114.74265 
L 291.857245 114.740509 
L 295.239067 114.515638 
L 298.620889 114.068189 
L 302.00269 113.41276 
L 305.384512 112.579564 
L 308.766333 111.61211 
L 312.148155 110.56231 
L 315.529977 109.484424 
L 318.911798 108.429154 
L 322.2936 107.438949 
L 325.675422 106.545059 
L 329.057243 105.766573 
L 332.439065 105.11107 
L 335.820886 104.576484 
L 339.202708 104.153626 
L 342.58451 103.828826 
L 345.966331 103.58632 
L 349.348153 103.410177 
L 352.729974 103.285622 
L 356.111796 103.199825 
L 359.493618 103.142222 
L 362.875419 103.104512 
L 366.257241 103.080429 
L 369.639063 103.06542 
" style="fill:none;stroke:#000000;stroke-linecap:square;stroke-width:1.5;"/>
   </g>
   <g id="patch_3">
    <path d="M 34.839063 244.317187 
L 34.839063 26.877187 
" style="fill:none;stroke:#000000;stroke-linecap:square;stroke-linejoin:miter;stroke-width:0.8;"/>
   </g>
   <g id="patch_4">
    <path d="M 369.639063 244.317187 
L 369.639063 26.877187 
" style="fill:none;stroke:#000000;stroke-linecap:square;stroke-linejoin:miter;stroke-width:0.8;"/>
   </g>
   <g id="patch_5">
    <path d="M 34.839063 244.317187 
L 369.639063 244.317187 
" style="fill:none;stroke:#000000;stroke-linecap:square;stroke-linejoin:miter;stroke-width:0.8;"/>
   </g>
   <g id="patch_6">
    <path d="M 34.839063 26.877187 
L 369.639063 26.877187 
" style="fill:none;stroke:#000000;stroke-linecap:square;stroke-linejoin:miter;stroke-width:0.8;"/>
   </g>
   <g id="text_9">
    <!-- VFE after 1000 optimisation steps -->
    <defs>
     <path d="M 28.609375 0 
L 0.78125 72.90625 
L 11.078125 72.90625 
L 34.1875 11.53125 
L 57.328125 72.90625 
L 67.578125 72.90625 
L 39.796875 0 
z
" id="DejaVuSans-86"/>
     <path d="M 9.8125 72.90625 
L 51.703125 72.90625 
L 51.703125 64.59375 
L 19.671875 64.59375 
L 19.671875 43.109375 
L 48.578125 43.109375 
L 48.578125 34.8125 
L 19.671875 34.8125 
L 19.671875 0 
L 9.8125 0 
z
" id="DejaVuSans-70"/>
     <path d="M 9.8125 72.90625 
L 55.90625 72.90625 
L 55.90625 64.59375 
L 19.671875 64.59375 
L 19.671875 43.015625 
L 54.390625 43.015625 
L 54.390625 34.71875 
L 19.671875 34.71875 
L 19.671875 8.296875 
L 56.78125 8.296875 
L 56.78125 0 
L 9.8125 0 
z
" id="DejaVuSans-69"/>
     <path id="DejaVuSans-32"/>
     <path d="M 34.28125 27.484375 
Q 23.390625 27.484375 19.1875 25 
Q 14.984375 22.515625 14.984375 16.5 
Q 14.984375 11.71875 18.140625 8.90625 
Q 21.296875 6.109375 26.703125 6.109375 
Q 34.1875 6.109375 38.703125 11.40625 
Q 43.21875 16.703125 43.21875 25.484375 
L 43.21875 27.484375 
z
M 52.203125 31.203125 
L 52.203125 0 
L 43.21875 0 
L 43.21875 8.296875 
Q 40.140625 3.328125 35.546875 0.953125 
Q 30.953125 -1.421875 24.3125 -1.421875 
Q 15.921875 -1.421875 10.953125 3.296875 
Q 6 8.015625 6 15.921875 
Q 6 25.140625 12.171875 29.828125 
Q 18.359375 34.515625 30.609375 34.515625 
L 43.21875 34.515625 
L 43.21875 35.40625 
Q 43.21875 41.609375 39.140625 45 
Q 35.0625 48.390625 27.6875 48.390625 
Q 23 48.390625 18.546875 47.265625 
Q 14.109375 46.140625 10.015625 43.890625 
L 10.015625 52.203125 
Q 14.9375 54.109375 19.578125 55.046875 
Q 24.21875 56 28.609375 56 
Q 40.484375 56 46.34375 49.84375 
Q 52.203125 43.703125 52.203125 31.203125 
z
" id="DejaVuSans-97"/>
     <path d="M 37.109375 75.984375 
L 37.109375 68.5 
L 28.515625 68.5 
Q 23.6875 68.5 21.796875 66.546875 
Q 19.921875 64.59375 19.921875 59.515625 
L 19.921875 54.6875 
L 34.71875 54.6875 
L 34.71875 47.703125 
L 19.921875 47.703125 
L 19.921875 0 
L 10.890625 0 
L 10.890625 47.703125 
L 2.296875 47.703125 
L 2.296875 54.6875 
L 10.890625 54.6875 
L 10.890625 58.5 
Q 10.890625 67.625 15.140625 71.796875 
Q 19.390625 75.984375 28.609375 75.984375 
z
" id="DejaVuSans-102"/>
     <path d="M 18.3125 70.21875 
L 18.3125 54.6875 
L 36.8125 54.6875 
L 36.8125 47.703125 
L 18.3125 47.703125 
L 18.3125 18.015625 
Q 18.3125 11.328125 20.140625 9.421875 
Q 21.96875 7.515625 27.59375 7.515625 
L 36.8125 7.515625 
L 36.8125 0 
L 27.59375 0 
Q 17.1875 0 13.234375 3.875 
Q 9.28125 7.765625 9.28125 18.015625 
L 9.28125 47.703125 
L 2.6875 47.703125 
L 2.6875 54.6875 
L 9.28125 54.6875 
L 9.28125 70.21875 
z
" id="DejaVuSans-116"/>
     <path d="M 56.203125 29.59375 
L 56.203125 25.203125 
L 14.890625 25.203125 
Q 15.484375 15.921875 20.484375 11.0625 
Q 25.484375 6.203125 34.421875 6.203125 
Q 39.59375 6.203125 44.453125 7.46875 
Q 49.3125 8.734375 54.109375 11.28125 
L 54.109375 2.78125 
Q 49.265625 0.734375 44.1875 -0.34375 
Q 39.109375 -1.421875 33.890625 -1.421875 
Q 20.796875 -1.421875 13.15625 6.1875 
Q 5.515625 13.8125 5.515625 26.8125 
Q 5.515625 40.234375 12.765625 48.109375 
Q 20.015625 56 32.328125 56 
Q 43.359375 56 49.78125 48.890625 
Q 56.203125 41.796875 56.203125 29.59375 
z
M 47.21875 32.234375 
Q 47.125 39.59375 43.09375 43.984375 
Q 39.0625 48.390625 32.421875 48.390625 
Q 24.90625 48.390625 20.390625 44.140625 
Q 15.875 39.890625 15.1875 32.171875 
z
" id="DejaVuSans-101"/>
     <path d="M 41.109375 46.296875 
Q 39.59375 47.171875 37.8125 47.578125 
Q 36.03125 48 33.890625 48 
Q 26.265625 48 22.1875 43.046875 
Q 18.109375 38.09375 18.109375 28.8125 
L 18.109375 0 
L 9.078125 0 
L 9.078125 54.6875 
L 18.109375 54.6875 
L 18.109375 46.1875 
Q 20.953125 51.171875 25.484375 53.578125 
Q 30.03125 56 36.53125 56 
Q 37.453125 56 38.578125 55.875 
Q 39.703125 55.765625 41.0625 55.515625 
z
" id="DejaVuSans-114"/>
     <path d="M 12.40625 8.296875 
L 28.515625 8.296875 
L 28.515625 63.921875 
L 10.984375 60.40625 
L 10.984375 69.390625 
L 28.421875 72.90625 
L 38.28125 72.90625 
L 38.28125 8.296875 
L 54.390625 8.296875 
L 54.390625 0 
L 12.40625 0 
z
" id="DejaVuSans-49"/>
     <path d="M 30.609375 48.390625 
Q 23.390625 48.390625 19.1875 42.75 
Q 14.984375 37.109375 14.984375 27.296875 
Q 14.984375 17.484375 19.15625 11.84375 
Q 23.34375 6.203125 30.609375 6.203125 
Q 37.796875 6.203125 41.984375 11.859375 
Q 46.1875 17.53125 46.1875 27.296875 
Q 46.1875 37.015625 41.984375 42.703125 
Q 37.796875 48.390625 30.609375 48.390625 
z
M 30.609375 56 
Q 42.328125 56 49.015625 48.375 
Q 55.71875 40.765625 55.71875 27.296875 
Q 55.71875 13.875 49.015625 6.21875 
Q 42.328125 -1.421875 30.609375 -1.421875 
Q 18.84375 -1.421875 12.171875 6.21875 
Q 5.515625 13.875 5.515625 27.296875 
Q 5.515625 40.765625 12.171875 48.375 
Q 18.84375 56 30.609375 56 
z
" id="DejaVuSans-111"/>
     <path d="M 18.109375 8.203125 
L 18.109375 -20.796875 
L 9.078125 -20.796875 
L 9.078125 54.6875 
L 18.109375 54.6875 
L 18.109375 46.390625 
Q 20.953125 51.265625 25.265625 53.625 
Q 29.59375 56 35.59375 56 
Q 45.5625 56 51.78125 48.09375 
Q 58.015625 40.1875 58.015625 27.296875 
Q 58.015625 14.40625 51.78125 6.484375 
Q 45.5625 -1.421875 35.59375 -1.421875 
Q 29.59375 -1.421875 25.265625 0.953125 
Q 20.953125 3.328125 18.109375 8.203125 
z
M 48.6875 27.296875 
Q 48.6875 37.203125 44.609375 42.84375 
Q 40.53125 48.484375 33.40625 48.484375 
Q 26.265625 48.484375 22.1875 42.84375 
Q 18.109375 37.203125 18.109375 27.296875 
Q 18.109375 17.390625 22.1875 11.75 
Q 26.265625 6.109375 33.40625 6.109375 
Q 40.53125 6.109375 44.609375 11.75 
Q 48.6875 17.390625 48.6875 27.296875 
z
" id="DejaVuSans-112"/>
     <path d="M 9.421875 54.6875 
L 18.40625 54.6875 
L 18.40625 0 
L 9.421875 0 
z
M 9.421875 75.984375 
L 18.40625 75.984375 
L 18.40625 64.59375 
L 9.421875 64.59375 
z
" id="DejaVuSans-105"/>
     <path d="M 52 44.1875 
Q 55.375 50.25 60.0625 53.125 
Q 64.75 56 71.09375 56 
Q 79.640625 56 84.28125 50.015625 
Q 88.921875 44.046875 88.921875 33.015625 
L 88.921875 0 
L 79.890625 0 
L 79.890625 32.71875 
Q 79.890625 40.578125 77.09375 44.375 
Q 74.3125 48.1875 68.609375 48.1875 
Q 61.625 48.1875 57.5625 43.546875 
Q 53.515625 38.921875 53.515625 30.90625 
L 53.515625 0 
L 44.484375 0 
L 44.484375 32.71875 
Q 44.484375 40.625 41.703125 44.40625 
Q 38.921875 48.1875 33.109375 48.1875 
Q 26.21875 48.1875 22.15625 43.53125 
Q 18.109375 38.875 18.109375 30.90625 
L 18.109375 0 
L 9.078125 0 
L 9.078125 54.6875 
L 18.109375 54.6875 
L 18.109375 46.1875 
Q 21.1875 51.21875 25.484375 53.609375 
Q 29.78125 56 35.6875 56 
Q 41.65625 56 45.828125 52.96875 
Q 50 49.953125 52 44.1875 
z
" id="DejaVuSans-109"/>
     <path d="M 44.28125 53.078125 
L 44.28125 44.578125 
Q 40.484375 46.53125 36.375 47.5 
Q 32.28125 48.484375 27.875 48.484375 
Q 21.1875 48.484375 17.84375 46.4375 
Q 14.5 44.390625 14.5 40.28125 
Q 14.5 37.15625 16.890625 35.375 
Q 19.28125 33.59375 26.515625 31.984375 
L 29.59375 31.296875 
Q 39.15625 29.25 43.1875 25.515625 
Q 47.21875 21.78125 47.21875 15.09375 
Q 47.21875 7.46875 41.1875 3.015625 
Q 35.15625 -1.421875 24.609375 -1.421875 
Q 20.21875 -1.421875 15.453125 -0.5625 
Q 10.6875 0.296875 5.421875 2 
L 5.421875 11.28125 
Q 10.40625 8.6875 15.234375 7.390625 
Q 20.0625 6.109375 24.8125 6.109375 
Q 31.15625 6.109375 34.5625 8.28125 
Q 37.984375 10.453125 37.984375 14.40625 
Q 37.984375 18.0625 35.515625 20.015625 
Q 33.0625 21.96875 24.703125 23.78125 
L 21.578125 24.515625 
Q 13.234375 26.265625 9.515625 29.90625 
Q 5.8125 33.546875 5.8125 39.890625 
Q 5.8125 47.609375 11.28125 51.796875 
Q 16.75 56 26.8125 56 
Q 31.78125 56 36.171875 55.265625 
Q 40.578125 54.546875 44.28125 53.078125 
z
" id="DejaVuSans-115"/>
     <path d="M 54.890625 33.015625 
L 54.890625 0 
L 45.90625 0 
L 45.90625 32.71875 
Q 45.90625 40.484375 42.875 44.328125 
Q 39.84375 48.1875 33.796875 48.1875 
Q 26.515625 48.1875 22.3125 43.546875 
Q 18.109375 38.921875 18.109375 30.90625 
L 18.109375 0 
L 9.078125 0 
L 9.078125 54.6875 
L 18.109375 54.6875 
L 18.109375 46.1875 
Q 21.34375 51.125 25.703125 53.5625 
Q 30.078125 56 35.796875 56 
Q 45.21875 56 50.046875 50.171875 
Q 54.890625 44.34375 54.890625 33.015625 
z
" id="DejaVuSans-110"/>
    </defs>
    <g transform="translate(49.465469 20.877187)scale(0.18 -0.18)">
     <use xlink:href="#DejaVuSans-86"/>
     <use x="68.408203" xlink:href="#DejaVuSans-70"/>
     <use x="125.927734" xlink:href="#DejaVuSans-69"/>
     <use x="189.111328" xlink:href="#DejaVuSans-32"/>
     <use x="220.898438" xlink:href="#DejaVuSans-97"/>
     <use x="282.177734" xlink:href="#DejaVuSans-102"/>
     <use x="315.632812" xlink:href="#DejaVuSans-116"/>
     <use x="354.841797" xlink:href="#DejaVuSans-101"/>
     <use x="416.365234" xlink:href="#DejaVuSans-114"/>
     <use x="457.478516" xlink:href="#DejaVuSans-32"/>
     <use x="489.265625" xlink:href="#DejaVuSans-49"/>
     <use x="552.888672" xlink:href="#DejaVuSans-48"/>
     <use x="616.511719" xlink:href="#DejaVuSans-48"/>
     <use x="680.134766" xlink:href="#DejaVuSans-48"/>
     <use x="743.757812" xlink:href="#DejaVuSans-32"/>
     <use x="775.544922" xlink:href="#DejaVuSans-111"/>
     <use x="836.726562" xlink:href="#DejaVuSans-112"/>
     <use x="900.203125" xlink:href="#DejaVuSans-116"/>
     <use x="939.412109" xlink:href="#DejaVuSans-105"/>
     <use x="967.195312" xlink:href="#DejaVuSans-109"/>
     <use x="1064.607422" xlink:href="#DejaVuSans-105"/>
     <use x="1092.390625" xlink:href="#DejaVuSans-115"/>
     <use x="1144.490234" xlink:href="#DejaVuSans-97"/>
     <use x="1205.769531" xlink:href="#DejaVuSans-116"/>
     <use x="1244.978516" xlink:href="#DejaVuSans-105"/>
     <use x="1272.761719" xlink:href="#DejaVuSans-111"/>
     <use x="1333.943359" xlink:href="#DejaVuSans-110"/>
     <use x="1397.322266" xlink:href="#DejaVuSans-32"/>
     <use x="1429.109375" xlink:href="#DejaVuSans-115"/>
     <use x="1481.208984" xlink:href="#DejaVuSans-116"/>
     <use x="1520.417969" xlink:href="#DejaVuSans-101"/>
     <use x="1581.941406" xlink:href="#DejaVuSans-112"/>
     <use x="1645.417969" xlink:href="#DejaVuSans-115"/>
    </g>
   </g>
   <g id="legend_1">
    <g id="patch_7">
     <path d="M 280.639063 239.317187 
L 362.639063 239.317187 
Q 364.639063 239.317187 364.639063 237.317187 
L 364.639063 176.560937 
Q 364.639063 174.560937 362.639063 174.560937 
L 280.639063 174.560937 
Q 278.639063 174.560937 278.639063 176.560937 
L 278.639063 237.317187 
Q 278.639063 239.317187 280.639063 239.317187 
z
" style="fill:#ffffff;opacity:0.8;stroke:#cccccc;stroke-linejoin:miter;"/>
    </g>
    <g id="line2d_10">
     <path d="M 282.639063 184.160937 
L 302.639063 184.160937 
" style="fill:none;stroke:#000000;stroke-linecap:square;stroke-width:1.5;"/>
    </g>
    <g id="line2d_11"/>
    <g id="text_10">
     <!-- $y^*$ mean -->
     <defs>
      <path d="M 24.8125 -5.078125 
Q 18.5625 -15.578125 14.625 -18.1875 
Q 10.6875 -20.796875 4.59375 -20.796875 
L -2.484375 -20.796875 
L -0.984375 -13.28125 
L 4.203125 -13.28125 
Q 7.953125 -13.28125 10.59375 -11.234375 
Q 13.234375 -9.1875 16.5 -3.21875 
L 19.28125 2 
L 7.171875 54.6875 
L 16.703125 54.6875 
L 25.78125 12.796875 
L 50.875 54.6875 
L 60.296875 54.6875 
z
" id="DejaVuSans-Oblique-121"/>
      <path d="M 47.015625 60.890625 
L 29.5 51.421875 
L 47.015625 41.890625 
L 44.1875 37.109375 
L 27.78125 47.015625 
L 27.78125 28.609375 
L 22.21875 28.609375 
L 22.21875 47.015625 
L 5.8125 37.109375 
L 2.984375 41.890625 
L 20.515625 51.421875 
L 2.984375 60.890625 
L 5.8125 65.71875 
L 22.21875 55.8125 
L 22.21875 74.21875 
L 27.78125 74.21875 
L 27.78125 55.8125 
L 44.1875 65.71875 
z
" id="DejaVuSans-42"/>
     </defs>
     <g transform="translate(310.639063 187.660937)scale(0.1 -0.1)">
      <use transform="translate(0 0.765625)" xlink:href="#DejaVuSans-Oblique-121"/>
      <use transform="translate(77.283529 39.046875)scale(0.7)" xlink:href="#DejaVuSans-42"/>
      <use transform="translate(128.655599 0.765625)" xlink:href="#DejaVuSans-32"/>
      <use transform="translate(160.442708 0.765625)" xlink:href="#DejaVuSans-109"/>
      <use transform="translate(257.854818 0.765625)" xlink:href="#DejaVuSans-101"/>
      <use transform="translate(319.378255 0.765625)" xlink:href="#DejaVuSans-97"/>
      <use transform="translate(380.657552 0.765625)" xlink:href="#DejaVuSans-110"/>
     </g>
    </g>
    <g id="patch_8">
     <path d="M 282.639063 203.860937 
L 302.639063 203.860937 
L 302.639063 196.860937 
L 282.639063 196.860937 
z
" style="fill:#808080;opacity:0.3;stroke:#808080;stroke-linejoin:miter;"/>
    </g>
    <g id="text_11">
     <!-- $y^*$ stddev -->
     <defs>
      <path d="M 45.40625 46.390625 
L 45.40625 75.984375 
L 54.390625 75.984375 
L 54.390625 0 
L 45.40625 0 
L 45.40625 8.203125 
Q 42.578125 3.328125 38.25 0.953125 
Q 33.9375 -1.421875 27.875 -1.421875 
Q 17.96875 -1.421875 11.734375 6.484375 
Q 5.515625 14.40625 5.515625 27.296875 
Q 5.515625 40.1875 11.734375 48.09375 
Q 17.96875 56 27.875 56 
Q 33.9375 56 38.25 53.625 
Q 42.578125 51.265625 45.40625 46.390625 
z
M 14.796875 27.296875 
Q 14.796875 17.390625 18.875 11.75 
Q 22.953125 6.109375 30.078125 6.109375 
Q 37.203125 6.109375 41.296875 11.75 
Q 45.40625 17.390625 45.40625 27.296875 
Q 45.40625 37.203125 41.296875 42.84375 
Q 37.203125 48.484375 30.078125 48.484375 
Q 22.953125 48.484375 18.875 42.84375 
Q 14.796875 37.203125 14.796875 27.296875 
z
" id="DejaVuSans-100"/>
      <path d="M 2.984375 54.6875 
L 12.5 54.6875 
L 29.59375 8.796875 
L 46.6875 54.6875 
L 56.203125 54.6875 
L 35.6875 0 
L 23.484375 0 
z
" id="DejaVuSans-118"/>
     </defs>
     <g transform="translate(310.639063 203.860937)scale(0.1 -0.1)">
      <use transform="translate(0 0.765625)" xlink:href="#DejaVuSans-Oblique-121"/>
      <use transform="translate(77.283529 39.046875)scale(0.7)" xlink:href="#DejaVuSans-42"/>
      <use transform="translate(128.655599 0.765625)" xlink:href="#DejaVuSans-32"/>
      <use transform="translate(160.442708 0.765625)" xlink:href="#DejaVuSans-115"/>
      <use transform="translate(212.542318 0.765625)" xlink:href="#DejaVuSans-116"/>
      <use transform="translate(251.751302 0.765625)" xlink:href="#DejaVuSans-100"/>
      <use transform="translate(315.227865 0.765625)" xlink:href="#DejaVuSans-100"/>
      <use transform="translate(378.704427 0.765625)" xlink:href="#DejaVuSans-101"/>
      <use transform="translate(440.227865 0.765625)" xlink:href="#DejaVuSans-118"/>
     </g>
    </g>
    <g id="PathCollection_4">
     <g>
      <use style="fill:#0000ff;stroke:#0000ff;stroke-width:1.5;" x="292.639063" xlink:href="#me968a07c2e" y="215.934375"/>
     </g>
    </g>
    <g id="text_12">
     <!-- Current $\bar{\mathbf{X}}$ -->
     <defs>
      <path d="M 64.40625 67.28125 
L 64.40625 56.890625 
Q 59.421875 61.53125 53.78125 63.8125 
Q 48.140625 66.109375 41.796875 66.109375 
Q 29.296875 66.109375 22.65625 58.46875 
Q 16.015625 50.828125 16.015625 36.375 
Q 16.015625 21.96875 22.65625 14.328125 
Q 29.296875 6.6875 41.796875 6.6875 
Q 48.140625 6.6875 53.78125 8.984375 
Q 59.421875 11.28125 64.40625 15.921875 
L 64.40625 5.609375 
Q 59.234375 2.09375 53.4375 0.328125 
Q 47.65625 -1.421875 41.21875 -1.421875 
Q 24.65625 -1.421875 15.125 8.703125 
Q 5.609375 18.84375 5.609375 36.375 
Q 5.609375 53.953125 15.125 64.078125 
Q 24.65625 74.21875 41.21875 74.21875 
Q 47.75 74.21875 53.53125 72.484375 
Q 59.328125 70.75 64.40625 67.28125 
z
" id="DejaVuSans-67"/>
      <path d="M 8.5 21.578125 
L 8.5 54.6875 
L 17.484375 54.6875 
L 17.484375 21.921875 
Q 17.484375 14.15625 20.5 10.265625 
Q 23.53125 6.390625 29.59375 6.390625 
Q 36.859375 6.390625 41.078125 11.03125 
Q 45.3125 15.671875 45.3125 23.6875 
L 45.3125 54.6875 
L 54.296875 54.6875 
L 54.296875 0 
L 45.3125 0 
L 45.3125 8.40625 
Q 42.046875 3.421875 37.71875 1 
Q 33.40625 -1.421875 27.6875 -1.421875 
Q 18.265625 -1.421875 13.375 4.4375 
Q 8.5 10.296875 8.5 21.578125 
z
M 31.109375 56 
z
" id="DejaVuSans-117"/>
      <path d="M -39.34375 74.515625 
L -10.15625 74.515625 
L -10.15625 67.28125 
L -39.34375 67.28125 
z
" id="DejaVuSans-772"/>
      <path d="M 49.8125 37.203125 
L 75.09375 0 
L 55.515625 0 
L 38.484375 24.90625 
L 21.578125 0 
L 1.90625 0 
L 27.203125 37.203125 
L 2.875 72.90625 
L 22.515625 72.90625 
L 38.484375 49.421875 
L 54.390625 72.90625 
L 74.125 72.90625 
z
" id="DejaVuSans-Bold-88"/>
     </defs>
     <g transform="translate(310.639063 218.559375)scale(0.1 -0.1)">
      <use transform="translate(0 0.359375)" xlink:href="#DejaVuSans-67"/>
      <use transform="translate(69.824219 0.359375)" xlink:href="#DejaVuSans-117"/>
      <use transform="translate(133.203125 0.359375)" xlink:href="#DejaVuSans-114"/>
      <use transform="translate(174.316406 0.359375)" xlink:href="#DejaVuSans-114"/>
      <use transform="translate(215.429688 0.359375)" xlink:href="#DejaVuSans-101"/>
      <use transform="translate(276.953125 0.359375)" xlink:href="#DejaVuSans-110"/>
      <use transform="translate(340.332031 0.359375)" xlink:href="#DejaVuSans-116"/>
      <use transform="translate(379.541016 0.359375)" xlink:href="#DejaVuSans-32"/>
      <use transform="translate(483.946777 18.484375)" xlink:href="#DejaVuSans-772"/>
      <use transform="translate(411.328125 0.359375)" xlink:href="#DejaVuSans-Bold-88"/>
     </g>
    </g>
    <g id="PathCollection_5">
     <g>
      <use style="fill:#008000;stroke:#008000;stroke-width:1.5;" x="292.639063" xlink:href="#m7d89f2d662" y="230.6125"/>
     </g>
    </g>
    <g id="text_13">
     <!-- Init. $\bar{\mathbf{X}}$ -->
     <defs>
      <path d="M 9.8125 72.90625 
L 19.671875 72.90625 
L 19.671875 0 
L 9.8125 0 
z
" id="DejaVuSans-73"/>
      <path d="M 10.6875 12.40625 
L 21 12.40625 
L 21 0 
L 10.6875 0 
z
" id="DejaVuSans-46"/>
     </defs>
     <g transform="translate(310.639063 233.2375)scale(0.1 -0.1)">
      <use transform="translate(0 0.359375)" xlink:href="#DejaVuSans-73"/>
      <use transform="translate(29.492188 0.359375)" xlink:href="#DejaVuSans-110"/>
      <use transform="translate(92.871094 0.359375)" xlink:href="#DejaVuSans-105"/>
      <use transform="translate(120.654297 0.359375)" xlink:href="#DejaVuSans-116"/>
      <use transform="translate(159.863281 0.359375)" xlink:href="#DejaVuSans-46"/>
      <use transform="translate(191.650391 0.359375)" xlink:href="#DejaVuSans-32"/>
      <use transform="translate(296.056152 18.484375)" xlink:href="#DejaVuSans-772"/>
      <use transform="translate(223.4375 0.359375)" xlink:href="#DejaVuSans-Bold-88"/>
     </g>
    </g>
   </g>
  </g>
 </g>
 <defs>
  <clipPath id="pc79cca05ed">
   <rect height="217.44" width="334.8" x="34.839063" y="26.877187"/>
  </clipPath>
 </defs>
</svg>
