<?xml version="1.0" encoding="utf-8" standalone="no"?>
<!DOCTYPE svg PUBLIC "-//W3C//DTD SVG 1.1//EN"
  "http://www.w3.org/Graphics/SVG/1.1/DTD/svg11.dtd">
<!-- Created with matplotlib (https://matplotlib.org/) -->
<svg height="275.105938pt" version="1.1" viewBox="0 0 381.292812 275.105938" width="381.292812pt" xmlns="http://www.w3.org/2000/svg" xmlns:xlink="http://www.w3.org/1999/xlink">
 <defs>
  <style type="text/css">
*{stroke-linecap:butt;stroke-linejoin:round;}
  </style>
 </defs>
 <g id="figure_1">
  <g id="patch_1">
   <path d="M 0 275.105938 
L 381.292812 275.105938 
L 381.292812 0 
L 0 0 
z
" style="fill:none;"/>
  </g>
  <g id="axes_1">
   <g id="patch_2">
    <path d="M 34.839063 247.356563 
L 369.639063 247.356563 
L 369.639063 29.916563 
L 34.839063 29.916563 
z
" style="fill:#ffffff;"/>
   </g>
   <g id="PolyCollection_1">
    <defs>
     <path d="M 34.839063 -142.285312 
L 34.839063 -135.633687 
L 38.220881 -138.144386 
L 41.602699 -140.397548 
L 44.984517 -142.40106 
L 48.366335 -144.165898 
L 51.748153 -145.701366 
L 55.129972 -147.017042 
L 58.51179 -148.127026 
L 61.893608 -149.053589 
L 65.275426 -149.829169 
L 68.657244 -150.496533 
L 72.039062 -151.107216 
L 75.420881 -151.718504 
L 78.802699 -152.389392 
L 82.184517 -153.176055 
L 85.566335 -154.127374 
L 88.948153 -155.280933 
L 92.329972 -156.659788 
L 95.71179 -158.270124 
L 99.093608 -160.099883 
L 102.475426 -162.11836 
L 105.857244 -164.276775 
L 109.239063 -166.50977 
L 112.620881 -168.737808 
L 116.002699 -170.870363 
L 119.384517 -172.809799 
L 122.766335 -174.455732 
L 126.148153 -175.709689 
L 129.529972 -176.479788 
L 132.91179 -176.685199 
L 136.293608 -176.260134 
L 139.675426 -175.15715 
L 143.057244 -173.349622 
L 146.439063 -170.833272 
L 149.820881 -167.626736 
L 153.202699 -163.771202 
L 156.584517 -159.329179 
L 159.966335 -154.382531 
L 163.348153 -149.029889 
L 166.729972 -143.383622 
L 170.11179 -137.56648 
L 173.493608 -131.708073 
L 176.875426 -125.941246 
L 180.257244 -120.398415 
L 183.639063 -115.207879 
L 187.020881 -110.4901 
L 190.402699 -106.354016 
L 193.784517 -102.893485 
L 197.166335 -100.184038 
L 200.548153 -98.280126 
L 203.929972 -97.213056 
L 207.31179 -96.98977 
L 210.693608 -97.592554 
L 214.075426 -98.979709 
L 217.457244 -101.087166 
L 220.839063 -103.830928 
L 224.220881 -107.110198 
L 227.602699 -110.811017 
L 230.984517 -114.810217 
L 234.366335 -118.979574 
L 237.748153 -123.190036 
L 241.129972 -127.315969 
L 244.51179 -131.239304 
L 247.893608 -134.853492 
L 251.275426 -138.067074 
L 254.657244 -140.80671 
L 258.039063 -143.019463 
L 261.420881 -144.674142 
L 264.802699 -145.761583 
L 268.184517 -146.293779 
L 271.566335 -146.301887 
L 274.948153 -145.833242 
L 278.329972 -144.947632 
L 281.71179 -143.713108 
L 285.093608 -142.201694 
L 288.475426 -140.485278 
L 291.857244 -138.632003 
L 295.239063 -136.703352 
L 298.620881 -134.752093 
L 302.002699 -132.821113 
L 305.384517 -130.943078 
L 308.766335 -129.140773 
L 312.148153 -127.427914 
L 315.529972 -125.810267 
L 318.91179 -124.286983 
L 322.293608 -122.85212 
L 325.675426 -121.496352 
L 329.057244 -120.208864 
L 332.439063 -118.979339 
L 335.820881 -117.799886 
L 339.202699 -116.666648 
L 342.584517 -115.580757 
L 345.966335 -114.54827 
L 349.348153 -113.578742 
L 352.729972 -112.68224 
L 356.11179 -111.86483 
L 359.493608 -111.123314 
L 362.875426 -110.441565 
L 366.257244 -109.792809 
L 369.639063 -109.150374 
L 369.639063 -116.19514 
L 369.639063 -116.19514 
L 366.257244 -116.141374 
L 362.875426 -116.403461 
L 359.493608 -116.922337 
L 356.11179 -117.634249 
L 352.729972 -118.484163 
L 349.348153 -119.430844 
L 345.966335 -120.445969 
L 342.584517 -121.511355 
L 339.202699 -122.616452 
L 335.820881 -123.756666 
L 332.439063 -124.932395 
L 329.057244 -126.148467 
L 325.675426 -127.413597 
L 322.293608 -128.73954 
L 318.91179 -130.139723 
L 315.529972 -131.627305 
L 312.148153 -133.212746 
L 308.766335 -134.901143 
L 305.384517 -136.689651 
L 302.002699 -138.565351 
L 298.620881 -140.503866 
L 295.239063 -142.468918 
L 291.857244 -144.412861 
L 288.475426 -146.27812 
L 285.093608 -147.999382 
L 281.71179 -149.506388 
L 278.329972 -150.72716 
L 274.948153 -151.591475 
L 271.566335 -152.034462 
L 268.184517 -152.000117 
L 264.802699 -151.444631 
L 261.420881 -150.339351 
L 258.039063 -148.673301 
L 254.657244 -146.455096 
L 251.275426 -143.714167 
L 247.893608 -140.501119 
L 244.51179 -136.887149 
L 241.129972 -132.962434 
L 237.748153 -128.833503 
L 234.366335 -124.619688 
L 230.984517 -120.448808 
L 227.602699 -116.452343 
L 224.220881 -112.760387 
L 220.839063 -109.496707 
L 217.457244 -106.774209 
L 214.075426 -104.691048 
L 210.693608 -103.327525 
L 207.31179 -102.743791 
L 203.929972 -102.978326 
L 200.548153 -104.047107 
L 197.166335 -105.943376 
L 193.784517 -108.637951 
L 190.402699 -112.080023 
L 187.020881 -116.198438 
L 183.639063 -120.903475 
L 180.257244 -126.089182 
L 176.875426 -131.636283 
L 173.493608 -137.415675 
L 170.11179 -143.292431 
L 166.729972 -149.130141 
L 163.348153 -154.795405 
L 159.966335 -160.162226 
L 156.584517 -165.116121 
L 153.202699 -169.557762 
L 149.820881 -173.406012 
L 146.439063 -176.600258 
L 143.057244 -179.101959 
L 139.675426 -180.89535 
L 136.293608 -181.987293 
L 132.91179 -182.406269 
L 129.529972 -182.200576 
L 126.148153 -181.435779 
L 122.766335 -180.191533 
L 119.384517 -178.557868 
L 116.002699 -176.631101 
L 112.620881 -174.509501 
L 109.239063 -172.288919 
L 105.857244 -170.058572 
L 102.475426 -167.897202 
L 99.093608 -165.869838 
L 95.71179 -164.025355 
L 92.329972 -162.39499 
L 88.948153 -160.991905 
L 85.566335 -159.811791 
L 82.184517 -158.83441 
L 78.802699 -158.025886 
L 75.420881 -157.341509 
L 72.039062 -156.728798 
L 68.657244 -156.130691 
L 65.275426 -155.488802 
L 61.893608 -154.746846 
L 58.51179 -153.854333 
L 55.129972 -152.770598 
L 51.748153 -151.469153 
L 48.366335 -149.942278 
L 44.984517 -148.205584 
L 41.602699 -146.301521 
L 38.220881 -144.299056 
L 34.839063 -142.285312 
z
" id="m24ab75670a" style="stroke:#808080;stroke-opacity:0.2;"/>
    </defs>
    <g clip-path="url(#p31c00982f2)">
     <use style="fill:#808080;fill-opacity:0.2;stroke:#808080;stroke-opacity:0.2;" x="0" xlink:href="#m24ab75670a" y="275.105938"/>
    </g>
   </g>
   <g id="matplotlib.axis_1">
    <g id="xtick_1">
     <g id="line2d_1">
      <defs>
       <path d="M 0 0 
L 0 3.5 
" id="m9e0f8bd0cf" style="stroke:#000000;stroke-width:0.8;"/>
      </defs>
      <g>
       <use style="stroke:#000000;stroke-width:0.8;" x="34.839063" xlink:href="#m9e0f8bd0cf" y="247.356563"/>
      </g>
     </g>
     <g id="text_1">
      <!-- −4 -->
      <defs>
       <path d="M 10.59375 35.5 
L 73.1875 35.5 
L 73.1875 27.203125 
L 10.59375 27.203125 
z
" id="DejaVuSans-8722"/>
       <path d="M 37.796875 64.3125 
L 12.890625 25.390625 
L 37.796875 25.390625 
z
M 35.203125 72.90625 
L 47.609375 72.90625 
L 47.609375 25.390625 
L 58.015625 25.390625 
L 58.015625 17.1875 
L 47.609375 17.1875 
L 47.609375 0 
L 37.796875 0 
L 37.796875 17.1875 
L 4.890625 17.1875 
L 4.890625 26.703125 
z
" id="DejaVuSans-52"/>
      </defs>
      <g transform="translate(24.519531 264.994375)scale(0.14 -0.14)">
       <use xlink:href="#DejaVuSans-8722"/>
       <use x="83.789062" xlink:href="#DejaVuSans-52"/>
      </g>
     </g>
    </g>
    <g id="xtick_2">
     <g id="line2d_2">
      <g>
       <use style="stroke:#000000;stroke-width:0.8;" x="118.539063" xlink:href="#m9e0f8bd0cf" y="247.356563"/>
      </g>
     </g>
     <g id="text_2">
      <!-- −2 -->
      <defs>
       <path d="M 19.1875 8.296875 
L 53.609375 8.296875 
L 53.609375 0 
L 7.328125 0 
L 7.328125 8.296875 
Q 12.9375 14.109375 22.625 23.890625 
Q 32.328125 33.6875 34.8125 36.53125 
Q 39.546875 41.84375 41.421875 45.53125 
Q 43.3125 49.21875 43.3125 52.78125 
Q 43.3125 58.59375 39.234375 62.25 
Q 35.15625 65.921875 28.609375 65.921875 
Q 23.96875 65.921875 18.8125 64.3125 
Q 13.671875 62.703125 7.8125 59.421875 
L 7.8125 69.390625 
Q 13.765625 71.78125 18.9375 73 
Q 24.125 74.21875 28.421875 74.21875 
Q 39.75 74.21875 46.484375 68.546875 
Q 53.21875 62.890625 53.21875 53.421875 
Q 53.21875 48.921875 51.53125 44.890625 
Q 49.859375 40.875 45.40625 35.40625 
Q 44.1875 33.984375 37.640625 27.21875 
Q 31.109375 20.453125 19.1875 8.296875 
z
" id="DejaVuSans-50"/>
      </defs>
      <g transform="translate(108.219531 264.994375)scale(0.14 -0.14)">
       <use xlink:href="#DejaVuSans-8722"/>
       <use x="83.789062" xlink:href="#DejaVuSans-50"/>
      </g>
     </g>
    </g>
    <g id="xtick_3">
     <g id="line2d_3">
      <g>
       <use style="stroke:#000000;stroke-width:0.8;" x="202.239063" xlink:href="#m9e0f8bd0cf" y="247.356563"/>
      </g>
     </g>
     <g id="text_3">
      <!-- 0 -->
      <defs>
       <path d="M 31.78125 66.40625 
Q 24.171875 66.40625 20.328125 58.90625 
Q 16.5 51.421875 16.5 36.375 
Q 16.5 21.390625 20.328125 13.890625 
Q 24.171875 6.390625 31.78125 6.390625 
Q 39.453125 6.390625 43.28125 13.890625 
Q 47.125 21.390625 47.125 36.375 
Q 47.125 51.421875 43.28125 58.90625 
Q 39.453125 66.40625 31.78125 66.40625 
z
M 31.78125 74.21875 
Q 44.046875 74.21875 50.515625 64.515625 
Q 56.984375 54.828125 56.984375 36.375 
Q 56.984375 17.96875 50.515625 8.265625 
Q 44.046875 -1.421875 31.78125 -1.421875 
Q 19.53125 -1.421875 13.0625 8.265625 
Q 6.59375 17.96875 6.59375 36.375 
Q 6.59375 54.828125 13.0625 64.515625 
Q 19.53125 74.21875 31.78125 74.21875 
z
" id="DejaVuSans-48"/>
      </defs>
      <g transform="translate(197.785313 264.994375)scale(0.14 -0.14)">
       <use xlink:href="#DejaVuSans-48"/>
      </g>
     </g>
    </g>
    <g id="xtick_4">
     <g id="line2d_4">
      <g>
       <use style="stroke:#000000;stroke-width:0.8;" x="285.939063" xlink:href="#m9e0f8bd0cf" y="247.356563"/>
      </g>
     </g>
     <g id="text_4">
      <!-- 2 -->
      <g transform="translate(281.485313 264.994375)scale(0.14 -0.14)">
       <use xlink:href="#DejaVuSans-50"/>
      </g>
     </g>
    </g>
    <g id="xtick_5">
     <g id="line2d_5">
      <g>
       <use style="stroke:#000000;stroke-width:0.8;" x="369.639063" xlink:href="#m9e0f8bd0cf" y="247.356563"/>
      </g>
     </g>
     <g id="text_5">
      <!-- 4 -->
      <g transform="translate(365.185313 264.994375)scale(0.14 -0.14)">
       <use xlink:href="#DejaVuSans-52"/>
      </g>
     </g>
    </g>
   </g>
   <g id="matplotlib.axis_2">
    <g id="ytick_1">
     <g id="line2d_6">
      <defs>
       <path d="M 0 0 
L -3.5 0 
" id="m59527ebdb8" style="stroke:#000000;stroke-width:0.8;"/>
      </defs>
      <g>
       <use style="stroke:#000000;stroke-width:0.8;" x="34.839063" xlink:href="#m59527ebdb8" y="247.356563"/>
      </g>
     </g>
     <g id="text_6">
      <!-- −4 -->
      <g transform="translate(7.2 252.675469)scale(0.14 -0.14)">
       <use xlink:href="#DejaVuSans-8722"/>
       <use x="83.789062" xlink:href="#DejaVuSans-52"/>
      </g>
     </g>
    </g>
    <g id="ytick_2">
     <g id="line2d_7">
      <g>
       <use style="stroke:#000000;stroke-width:0.8;" x="34.839063" xlink:href="#m59527ebdb8" y="192.996563"/>
      </g>
     </g>
     <g id="text_7">
      <!-- −2 -->
      <g transform="translate(7.2 198.315469)scale(0.14 -0.14)">
       <use xlink:href="#DejaVuSans-8722"/>
       <use x="83.789062" xlink:href="#DejaVuSans-50"/>
      </g>
     </g>
    </g>
    <g id="ytick_3">
     <g id="line2d_8">
      <g>
       <use style="stroke:#000000;stroke-width:0.8;" x="34.839063" xlink:href="#m59527ebdb8" y="138.636563"/>
      </g>
     </g>
     <g id="text_8">
      <!-- 0 -->
      <g transform="translate(18.931563 143.955469)scale(0.14 -0.14)">
       <use xlink:href="#DejaVuSans-48"/>
      </g>
     </g>
    </g>
    <g id="ytick_4">
     <g id="line2d_9">
      <g>
       <use style="stroke:#000000;stroke-width:0.8;" x="34.839063" xlink:href="#m59527ebdb8" y="84.276563"/>
      </g>
     </g>
     <g id="text_9">
      <!-- 2 -->
      <g transform="translate(18.931563 89.595469)scale(0.14 -0.14)">
       <use xlink:href="#DejaVuSans-50"/>
      </g>
     </g>
    </g>
    <g id="ytick_5">
     <g id="line2d_10">
      <g>
       <use style="stroke:#000000;stroke-width:0.8;" x="34.839063" xlink:href="#m59527ebdb8" y="29.916563"/>
      </g>
     </g>
     <g id="text_10">
      <!-- 4 -->
      <g transform="translate(18.931563 35.235469)scale(0.14 -0.14)">
       <use xlink:href="#DejaVuSans-52"/>
      </g>
     </g>
    </g>
   </g>
   <g id="line2d_11">
    <path clip-path="url(#p31c00982f2)" d="M 34.839063 136.146438 
L 38.220881 133.884217 
L 41.602699 131.756403 
L 44.984517 129.802616 
L 48.366335 128.05185 
L 51.748153 126.520678 
L 55.129972 125.212118 
L 58.51179 124.115258 
L 61.893608 123.20572 
L 65.275426 122.446952 
L 68.657244 121.792325 
L 72.039062 121.187931 
L 75.420881 120.575931 
L 78.802699 119.898298 
L 82.184517 119.100705 
L 85.566335 118.136355 
L 88.948153 116.969518 
L 92.329972 115.578548 
L 95.71179 113.958198 
L 99.093608 112.121077 
L 102.475426 110.098156 
L 105.857244 107.938264 
L 109.239063 105.706593 
L 112.620881 103.482283 
L 116.002699 101.355205 
L 119.384517 99.422104 
L 122.766335 97.782305 
L 126.148153 96.533203 
L 129.529972 95.765755 
L 132.91179 95.560203 
L 136.293608 95.982224 
L 139.675426 97.079687 
L 143.057244 98.880147 
L 146.439063 101.389173 
L 149.820881 104.589563 
L 153.202699 108.441455 
L 156.584517 112.883287 
L 159.966335 117.833559 
L 163.348153 123.193291 
L 166.729972 128.849056 
L 170.11179 134.676482 
L 173.493608 140.544063 
L 176.875426 146.317173 
L 180.257244 151.862139 
L 183.639063 157.05026 
L 187.020881 161.761668 
L 190.402699 165.888918 
L 193.784517 169.34022 
L 197.166335 172.042231 
L 200.548153 173.942321 
L 203.929972 175.010246 
L 207.31179 175.239157 
L 210.693608 174.645898 
L 214.075426 173.270559 
L 217.457244 171.17525 
L 220.839063 168.44212 
L 224.220881 165.170645 
L 227.602699 161.474258 
L 230.984517 157.476425 
L 234.366335 153.306307 
L 237.748153 149.094168 
L 241.129972 144.966736 
L 244.51179 141.042711 
L 247.893608 137.428632 
L 251.275426 134.215317 
L 254.657244 131.475034 
L 258.039063 129.259556 
L 261.420881 127.599191 
L 264.802699 126.502831 
L 268.184517 125.958989 
L 271.566335 125.937763 
L 274.948153 126.393579 
L 278.329972 127.268542 
L 281.71179 128.496189 
L 285.093608 130.0054 
L 288.475426 131.724238 
L 291.857244 133.583505 
L 295.239063 135.519803 
L 298.620881 137.477958 
L 302.002699 139.412706 
L 305.384517 141.289573 
L 308.766335 143.084979 
L 312.148153 144.785607 
L 315.529972 146.387151 
L 318.91179 147.892584 
L 322.293608 149.310108 
L 325.675426 150.650963 
L 329.057244 151.927272 
L 332.439063 153.150071 
L 335.820881 154.327662 
L 339.202699 155.464388 
L 342.584517 156.559881 
L 345.966335 157.608818 
L 349.348153 158.601145 
L 352.729972 159.522736 
L 356.11179 160.356398 
L 359.493608 161.083112 
L 362.875426 161.683425 
L 366.257244 162.138846 
L 369.639063 162.43318 
" style="fill:none;stroke:#000000;stroke-linecap:square;stroke-width:1.5;"/>
   </g>
   <g id="patch_3">
    <path d="M 34.839063 247.356563 
L 34.839063 29.916563 
" style="fill:none;stroke:#000000;stroke-linecap:square;stroke-linejoin:miter;stroke-width:0.8;"/>
   </g>
   <g id="patch_4">
    <path d="M 369.639063 247.356563 
L 369.639063 29.916563 
" style="fill:none;stroke:#000000;stroke-linecap:square;stroke-linejoin:miter;stroke-width:0.8;"/>
   </g>
   <g id="patch_5">
    <path d="M 34.839063 247.356563 
L 369.639063 247.356563 
" style="fill:none;stroke:#000000;stroke-linecap:square;stroke-linejoin:miter;stroke-width:0.8;"/>
   </g>
   <g id="patch_6">
    <path d="M 34.839063 29.916563 
L 369.639063 29.916563 
" style="fill:none;stroke:#000000;stroke-linecap:square;stroke-linejoin:miter;stroke-width:0.8;"/>
   </g>
   <g id="PathCollection_1">
    <defs>
     <path d="M -3 3 
L 3 -3 
M -3 -3 
L 3 3 
" id="m2a70028fc7" style="stroke:#ff0000;stroke-width:1.5;"/>
    </defs>
    <g clip-path="url(#p31c00982f2)">
     <use style="fill:#ff0000;stroke:#ff0000;stroke-width:1.5;" x="218.581824" xlink:href="#m2a70028fc7" y="170.463285"/>
     <use style="fill:#ff0000;stroke:#ff0000;stroke-width:1.5;" x="274.284462" xlink:href="#m2a70028fc7" y="129.169578"/>
     <use style="fill:#ff0000;stroke:#ff0000;stroke-width:1.5;" x="236.644241" xlink:href="#m2a70028fc7" y="155.783505"/>
     <use style="fill:#ff0000;stroke:#ff0000;stroke-width:1.5;" x="217.265952" xlink:href="#m2a70028fc7" y="176.423262"/>
     <use style="fill:#ff0000;stroke:#ff0000;stroke-width:1.5;" x="176.678689" xlink:href="#m2a70028fc7" y="149.648"/>
     <use style="fill:#ff0000;stroke:#ff0000;stroke-width:1.5;" x="251.084412" xlink:href="#m2a70028fc7" y="134.262461"/>
     <use style="fill:#ff0000;stroke:#ff0000;stroke-width:1.5;" x="181.343261" xlink:href="#m2a70028fc7" y="151.484771"/>
     <use style="fill:#ff0000;stroke:#ff0000;stroke-width:1.5;" x="333.404663" xlink:href="#m2a70028fc7" y="154.85042"/>
     <use style="fill:#ff0000;stroke:#ff0000;stroke-width:1.5;" x="357.473355" xlink:href="#m2a70028fc7" y="164.263091"/>
     <use style="fill:#ff0000;stroke:#ff0000;stroke-width:1.5;" x="163.215283" xlink:href="#m2a70028fc7" y="126.950073"/>
     <use style="fill:#ff0000;stroke:#ff0000;stroke-width:1.5;" x="299.908605" xlink:href="#m2a70028fc7" y="140.508579"/>
     <use style="fill:#ff0000;stroke:#ff0000;stroke-width:1.5;" x="211.913082" xlink:href="#m2a70028fc7" y="171.522692"/>
     <use style="fill:#ff0000;stroke:#ff0000;stroke-width:1.5;" x="225.020382" xlink:href="#m2a70028fc7" y="165.769317"/>
     <use style="fill:#ff0000;stroke:#ff0000;stroke-width:1.5;" x="344.728817" xlink:href="#m2a70028fc7" y="156.208128"/>
     <use style="fill:#ff0000;stroke:#ff0000;stroke-width:1.5;" x="58.621935" xlink:href="#m2a70028fc7" y="125.448956"/>
     <use style="fill:#ff0000;stroke:#ff0000;stroke-width:1.5;" x="64.009952" xlink:href="#m2a70028fc7" y="120.901256"/>
     <use style="fill:#ff0000;stroke:#ff0000;stroke-width:1.5;" x="41.608182" xlink:href="#m2a70028fc7" y="132.059459"/>
     <use style="fill:#ff0000;stroke:#ff0000;stroke-width:1.5;" x="313.600187" xlink:href="#m2a70028fc7" y="140.428663"/>
     <use style="fill:#ff0000;stroke:#ff0000;stroke-width:1.5;" x="295.365943" xlink:href="#m2a70028fc7" y="135.025805"/>
     <use style="fill:#ff0000;stroke:#ff0000;stroke-width:1.5;" x="326.11913" xlink:href="#m2a70028fc7" y="148.155382"/>
     <use style="fill:#ff0000;stroke:#ff0000;stroke-width:1.5;" x="362.480483" xlink:href="#m2a70028fc7" y="156.980971"/>
     <use style="fill:#ff0000;stroke:#ff0000;stroke-width:1.5;" x="302.39735" xlink:href="#m2a70028fc7" y="142.580427"/>
     <use style="fill:#ff0000;stroke:#ff0000;stroke-width:1.5;" x="189.342353" xlink:href="#m2a70028fc7" y="167.583982"/>
     <use style="fill:#ff0000;stroke:#ff0000;stroke-width:1.5;" x="296.160231" xlink:href="#m2a70028fc7" y="133.480106"/>
     <use style="fill:#ff0000;stroke:#ff0000;stroke-width:1.5;" x="74.43734" xlink:href="#m2a70028fc7" y="123.144398"/>
     <use style="fill:#ff0000;stroke:#ff0000;stroke-width:1.5;" x="249.08462" xlink:href="#m2a70028fc7" y="133.126267"/>
     <use style="fill:#ff0000;stroke:#ff0000;stroke-width:1.5;" x="82.833743" xlink:href="#m2a70028fc7" y="122.354387"/>
     <use style="fill:#ff0000;stroke:#ff0000;stroke-width:1.5;" x="351.114216" xlink:href="#m2a70028fc7" y="161.123959"/>
     <use style="fill:#ff0000;stroke:#ff0000;stroke-width:1.5;" x="209.553881" xlink:href="#m2a70028fc7" y="169.910203"/>
     <use style="fill:#ff0000;stroke:#ff0000;stroke-width:1.5;" x="173.66788" xlink:href="#m2a70028fc7" y="138.453424"/>
     <use style="fill:#ff0000;stroke:#ff0000;stroke-width:1.5;" x="123.412281" xlink:href="#m2a70028fc7" y="95.553227"/>
     <use style="fill:#ff0000;stroke:#ff0000;stroke-width:1.5;" x="294.052502" xlink:href="#m2a70028fc7" y="131.983752"/>
     <use style="fill:#ff0000;stroke:#ff0000;stroke-width:1.5;" x="187.558194" xlink:href="#m2a70028fc7" y="164.786659"/>
     <use style="fill:#ff0000;stroke:#ff0000;stroke-width:1.5;" x="225.150749" xlink:href="#m2a70028fc7" y="159.005602"/>
     <use style="fill:#ff0000;stroke:#ff0000;stroke-width:1.5;" x="41.129888" xlink:href="#m2a70028fc7" y="132.020956"/>
     <use style="fill:#ff0000;stroke:#ff0000;stroke-width:1.5;" x="241.623427" xlink:href="#m2a70028fc7" y="142.553827"/>
     <use style="fill:#ff0000;stroke:#ff0000;stroke-width:1.5;" x="239.76871" xlink:href="#m2a70028fc7" y="143.801271"/>
     <use style="fill:#ff0000;stroke:#ff0000;stroke-width:1.5;" x="241.388565" xlink:href="#m2a70028fc7" y="144.758448"/>
     <use style="fill:#ff0000;stroke:#ff0000;stroke-width:1.5;" x="350.805919" xlink:href="#m2a70028fc7" y="157.488174"/>
     <use style="fill:#ff0000;stroke:#ff0000;stroke-width:1.5;" x="263.112499" xlink:href="#m2a70028fc7" y="125.027295"/>
     <use style="fill:#ff0000;stroke:#ff0000;stroke-width:1.5;" x="155.202308" xlink:href="#m2a70028fc7" y="111.737405"/>
     <use style="fill:#ff0000;stroke:#ff0000;stroke-width:1.5;" x="181.157361" xlink:href="#m2a70028fc7" y="157.449915"/>
     <use style="fill:#ff0000;stroke:#ff0000;stroke-width:1.5;" x="268.405987" xlink:href="#m2a70028fc7" y="125.359573"/>
     <use style="fill:#ff0000;stroke:#ff0000;stroke-width:1.5;" x="55.00255" xlink:href="#m2a70028fc7" y="122.224405"/>
     <use style="fill:#ff0000;stroke:#ff0000;stroke-width:1.5;" x="258.072559" xlink:href="#m2a70028fc7" y="131.269158"/>
     <use style="fill:#ff0000;stroke:#ff0000;stroke-width:1.5;" x="259.368621" xlink:href="#m2a70028fc7" y="129.309423"/>
     <use style="fill:#ff0000;stroke:#ff0000;stroke-width:1.5;" x="105.275144" xlink:href="#m2a70028fc7" y="109.959465"/>
     <use style="fill:#ff0000;stroke:#ff0000;stroke-width:1.5;" x="78.003587" xlink:href="#m2a70028fc7" y="115.870459"/>
     <use style="fill:#ff0000;stroke:#ff0000;stroke-width:1.5;" x="140.444474" xlink:href="#m2a70028fc7" y="95.825412"/>
     <use style="fill:#ff0000;stroke:#ff0000;stroke-width:1.5;" x="156.609429" xlink:href="#m2a70028fc7" y="112.584821"/>
     <use style="fill:#ff0000;stroke:#ff0000;stroke-width:1.5;" x="225.740941" xlink:href="#m2a70028fc7" y="164.851074"/>
     <use style="fill:#ff0000;stroke:#ff0000;stroke-width:1.5;" x="181.682849" xlink:href="#m2a70028fc7" y="153.953388"/>
     <use style="fill:#ff0000;stroke:#ff0000;stroke-width:1.5;" x="365.746623" xlink:href="#m2a70028fc7" y="162.841267"/>
     <use style="fill:#ff0000;stroke:#ff0000;stroke-width:1.5;" x="69.003665" xlink:href="#m2a70028fc7" y="121.639502"/>
     <use style="fill:#ff0000;stroke:#ff0000;stroke-width:1.5;" x="104.771" xlink:href="#m2a70028fc7" y="110.831014"/>
     <use style="fill:#ff0000;stroke:#ff0000;stroke-width:1.5;" x="88.845489" xlink:href="#m2a70028fc7" y="115.762534"/>
     <use style="fill:#ff0000;stroke:#ff0000;stroke-width:1.5;" x="253.49973" xlink:href="#m2a70028fc7" y="130.916869"/>
     <use style="fill:#ff0000;stroke:#ff0000;stroke-width:1.5;" x="119.641091" xlink:href="#m2a70028fc7" y="99.940568"/>
     <use style="fill:#ff0000;stroke:#ff0000;stroke-width:1.5;" x="190.959909" xlink:href="#m2a70028fc7" y="166.225005"/>
     <use style="fill:#ff0000;stroke:#ff0000;stroke-width:1.5;" x="116.672751" xlink:href="#m2a70028fc7" y="104.537836"/>
     <use style="fill:#ff0000;stroke:#ff0000;stroke-width:1.5;" x="88.062079" xlink:href="#m2a70028fc7" y="122.269736"/>
     <use style="fill:#ff0000;stroke:#ff0000;stroke-width:1.5;" x="71.79266" xlink:href="#m2a70028fc7" y="120.1451"/>
     <use style="fill:#ff0000;stroke:#ff0000;stroke-width:1.5;" x="254.578209" xlink:href="#m2a70028fc7" y="131.140954"/>
     <use style="fill:#ff0000;stroke:#ff0000;stroke-width:1.5;" x="81.102715" xlink:href="#m2a70028fc7" y="118.24335"/>
     <use style="fill:#ff0000;stroke:#ff0000;stroke-width:1.5;" x="100.654837" xlink:href="#m2a70028fc7" y="105.628902"/>
     <use style="fill:#ff0000;stroke:#ff0000;stroke-width:1.5;" x="158.28825" xlink:href="#m2a70028fc7" y="113.31307"/>
     <use style="fill:#ff0000;stroke:#ff0000;stroke-width:1.5;" x="309.707596" xlink:href="#m2a70028fc7" y="145.055896"/>
     <use style="fill:#ff0000;stroke:#ff0000;stroke-width:1.5;" x="67.34857" xlink:href="#m2a70028fc7" y="118.537772"/>
     <use style="fill:#ff0000;stroke:#ff0000;stroke-width:1.5;" x="315.383018" xlink:href="#m2a70028fc7" y="149.484463"/>
     <use style="fill:#ff0000;stroke:#ff0000;stroke-width:1.5;" x="67.012809" xlink:href="#m2a70028fc7" y="122.76306"/>
     <use style="fill:#ff0000;stroke:#ff0000;stroke-width:1.5;" x="361.757691" xlink:href="#m2a70028fc7" y="161.297353"/>
     <use style="fill:#ff0000;stroke:#ff0000;stroke-width:1.5;" x="191.743485" xlink:href="#m2a70028fc7" y="163.049126"/>
     <use style="fill:#ff0000;stroke:#ff0000;stroke-width:1.5;" x="361.858675" xlink:href="#m2a70028fc7" y="163.382295"/>
     <use style="fill:#ff0000;stroke:#ff0000;stroke-width:1.5;" x="237.341343" xlink:href="#m2a70028fc7" y="151.5969"/>
     <use style="fill:#ff0000;stroke:#ff0000;stroke-width:1.5;" x="282.344509" xlink:href="#m2a70028fc7" y="128.762462"/>
     <use style="fill:#ff0000;stroke:#ff0000;stroke-width:1.5;" x="47.959135" xlink:href="#m2a70028fc7" y="129.636877"/>
     <use style="fill:#ff0000;stroke:#ff0000;stroke-width:1.5;" x="129.522834" xlink:href="#m2a70028fc7" y="92.452256"/>
     <use style="fill:#ff0000;stroke:#ff0000;stroke-width:1.5;" x="75.080871" xlink:href="#m2a70028fc7" y="123.451635"/>
     <use style="fill:#ff0000;stroke:#ff0000;stroke-width:1.5;" x="133.986801" xlink:href="#m2a70028fc7" y="98.391896"/>
     <use style="fill:#ff0000;stroke:#ff0000;stroke-width:1.5;" x="74.589103" xlink:href="#m2a70028fc7" y="121.943415"/>
     <use style="fill:#ff0000;stroke:#ff0000;stroke-width:1.5;" x="141.299831" xlink:href="#m2a70028fc7" y="99.344986"/>
     <use style="fill:#ff0000;stroke:#ff0000;stroke-width:1.5;" x="173.534313" xlink:href="#m2a70028fc7" y="135.76547"/>
     <use style="fill:#ff0000;stroke:#ff0000;stroke-width:1.5;" x="56.315644" xlink:href="#m2a70028fc7" y="121.88011"/>
     <use style="fill:#ff0000;stroke:#ff0000;stroke-width:1.5;" x="266.678728" xlink:href="#m2a70028fc7" y="125.875438"/>
     <use style="fill:#ff0000;stroke:#ff0000;stroke-width:1.5;" x="224.537229" xlink:href="#m2a70028fc7" y="167.938218"/>
     <use style="fill:#ff0000;stroke:#ff0000;stroke-width:1.5;" x="123.691464" xlink:href="#m2a70028fc7" y="95.159913"/>
     <use style="fill:#ff0000;stroke:#ff0000;stroke-width:1.5;" x="210.022511" xlink:href="#m2a70028fc7" y="177.403835"/>
     <use style="fill:#ff0000;stroke:#ff0000;stroke-width:1.5;" x="66.290346" xlink:href="#m2a70028fc7" y="126.357626"/>
     <use style="fill:#ff0000;stroke:#ff0000;stroke-width:1.5;" x="227.665949" xlink:href="#m2a70028fc7" y="158.183452"/>
     <use style="fill:#ff0000;stroke:#ff0000;stroke-width:1.5;" x="345.967429" xlink:href="#m2a70028fc7" y="156.820733"/>
     <use style="fill:#ff0000;stroke:#ff0000;stroke-width:1.5;" x="141.495948" xlink:href="#m2a70028fc7" y="95.277964"/>
     <use style="fill:#ff0000;stroke:#ff0000;stroke-width:1.5;" x="258.288058" xlink:href="#m2a70028fc7" y="128.170451"/>
     <use style="fill:#ff0000;stroke:#ff0000;stroke-width:1.5;" x="78.964987" xlink:href="#m2a70028fc7" y="117.800995"/>
     <use style="fill:#ff0000;stroke:#ff0000;stroke-width:1.5;" x="274.66541" xlink:href="#m2a70028fc7" y="128.051613"/>
     <use style="fill:#ff0000;stroke:#ff0000;stroke-width:1.5;" x="131.732222" xlink:href="#m2a70028fc7" y="98.226189"/>
     <use style="fill:#ff0000;stroke:#ff0000;stroke-width:1.5;" x="96.17153" xlink:href="#m2a70028fc7" y="111.957918"/>
     <use style="fill:#ff0000;stroke:#ff0000;stroke-width:1.5;" x="231.203593" xlink:href="#m2a70028fc7" y="159.29772"/>
     <use style="fill:#ff0000;stroke:#ff0000;stroke-width:1.5;" x="41.571069" xlink:href="#m2a70028fc7" y="133.396452"/>
     <use style="fill:#ff0000;stroke:#ff0000;stroke-width:1.5;" x="312.368184" xlink:href="#m2a70028fc7" y="146.045536"/>
     <use style="fill:#ff0000;stroke:#ff0000;stroke-width:1.5;" x="36.411108" xlink:href="#m2a70028fc7" y="135.043578"/>
    </g>
   </g>
   <g id="text_11">
    <!-- Data sampled from GP -->
    <defs>
     <path d="M 19.671875 64.796875 
L 19.671875 8.109375 
L 31.59375 8.109375 
Q 46.6875 8.109375 53.6875 14.9375 
Q 60.6875 21.78125 60.6875 36.53125 
Q 60.6875 51.171875 53.6875 57.984375 
Q 46.6875 64.796875 31.59375 64.796875 
z
M 9.8125 72.90625 
L 30.078125 72.90625 
Q 51.265625 72.90625 61.171875 64.09375 
Q 71.09375 55.28125 71.09375 36.53125 
Q 71.09375 17.671875 61.125 8.828125 
Q 51.171875 0 30.078125 0 
L 9.8125 0 
z
" id="DejaVuSans-68"/>
     <path d="M 34.28125 27.484375 
Q 23.390625 27.484375 19.1875 25 
Q 14.984375 22.515625 14.984375 16.5 
Q 14.984375 11.71875 18.140625 8.90625 
Q 21.296875 6.109375 26.703125 6.109375 
Q 34.1875 6.109375 38.703125 11.40625 
Q 43.21875 16.703125 43.21875 25.484375 
L 43.21875 27.484375 
z
M 52.203125 31.203125 
L 52.203125 0 
L 43.21875 0 
L 43.21875 8.296875 
Q 40.140625 3.328125 35.546875 0.953125 
Q 30.953125 -1.421875 24.3125 -1.421875 
Q 15.921875 -1.421875 10.953125 3.296875 
Q 6 8.015625 6 15.921875 
Q 6 25.140625 12.171875 29.828125 
Q 18.359375 34.515625 30.609375 34.515625 
L 43.21875 34.515625 
L 43.21875 35.40625 
Q 43.21875 41.609375 39.140625 45 
Q 35.0625 48.390625 27.6875 48.390625 
Q 23 48.390625 18.546875 47.265625 
Q 14.109375 46.140625 10.015625 43.890625 
L 10.015625 52.203125 
Q 14.9375 54.109375 19.578125 55.046875 
Q 24.21875 56 28.609375 56 
Q 40.484375 56 46.34375 49.84375 
Q 52.203125 43.703125 52.203125 31.203125 
z
" id="DejaVuSans-97"/>
     <path d="M 18.3125 70.21875 
L 18.3125 54.6875 
L 36.8125 54.6875 
L 36.8125 47.703125 
L 18.3125 47.703125 
L 18.3125 18.015625 
Q 18.3125 11.328125 20.140625 9.421875 
Q 21.96875 7.515625 27.59375 7.515625 
L 36.8125 7.515625 
L 36.8125 0 
L 27.59375 0 
Q 17.1875 0 13.234375 3.875 
Q 9.28125 7.765625 9.28125 18.015625 
L 9.28125 47.703125 
L 2.6875 47.703125 
L 2.6875 54.6875 
L 9.28125 54.6875 
L 9.28125 70.21875 
z
" id="DejaVuSans-116"/>
     <path id="DejaVuSans-32"/>
     <path d="M 44.28125 53.078125 
L 44.28125 44.578125 
Q 40.484375 46.53125 36.375 47.5 
Q 32.28125 48.484375 27.875 48.484375 
Q 21.1875 48.484375 17.84375 46.4375 
Q 14.5 44.390625 14.5 40.28125 
Q 14.5 37.15625 16.890625 35.375 
Q 19.28125 33.59375 26.515625 31.984375 
L 29.59375 31.296875 
Q 39.15625 29.25 43.1875 25.515625 
Q 47.21875 21.78125 47.21875 15.09375 
Q 47.21875 7.46875 41.1875 3.015625 
Q 35.15625 -1.421875 24.609375 -1.421875 
Q 20.21875 -1.421875 15.453125 -0.5625 
Q 10.6875 0.296875 5.421875 2 
L 5.421875 11.28125 
Q 10.40625 8.6875 15.234375 7.390625 
Q 20.0625 6.109375 24.8125 6.109375 
Q 31.15625 6.109375 34.5625 8.28125 
Q 37.984375 10.453125 37.984375 14.40625 
Q 37.984375 18.0625 35.515625 20.015625 
Q 33.0625 21.96875 24.703125 23.78125 
L 21.578125 24.515625 
Q 13.234375 26.265625 9.515625 29.90625 
Q 5.8125 33.546875 5.8125 39.890625 
Q 5.8125 47.609375 11.28125 51.796875 
Q 16.75 56 26.8125 56 
Q 31.78125 56 36.171875 55.265625 
Q 40.578125 54.546875 44.28125 53.078125 
z
" id="DejaVuSans-115"/>
     <path d="M 52 44.1875 
Q 55.375 50.25 60.0625 53.125 
Q 64.75 56 71.09375 56 
Q 79.640625 56 84.28125 50.015625 
Q 88.921875 44.046875 88.921875 33.015625 
L 88.921875 0 
L 79.890625 0 
L 79.890625 32.71875 
Q 79.890625 40.578125 77.09375 44.375 
Q 74.3125 48.1875 68.609375 48.1875 
Q 61.625 48.1875 57.5625 43.546875 
Q 53.515625 38.921875 53.515625 30.90625 
L 53.515625 0 
L 44.484375 0 
L 44.484375 32.71875 
Q 44.484375 40.625 41.703125 44.40625 
Q 38.921875 48.1875 33.109375 48.1875 
Q 26.21875 48.1875 22.15625 43.53125 
Q 18.109375 38.875 18.109375 30.90625 
L 18.109375 0 
L 9.078125 0 
L 9.078125 54.6875 
L 18.109375 54.6875 
L 18.109375 46.1875 
Q 21.1875 51.21875 25.484375 53.609375 
Q 29.78125 56 35.6875 56 
Q 41.65625 56 45.828125 52.96875 
Q 50 49.953125 52 44.1875 
z
" id="DejaVuSans-109"/>
     <path d="M 18.109375 8.203125 
L 18.109375 -20.796875 
L 9.078125 -20.796875 
L 9.078125 54.6875 
L 18.109375 54.6875 
L 18.109375 46.390625 
Q 20.953125 51.265625 25.265625 53.625 
Q 29.59375 56 35.59375 56 
Q 45.5625 56 51.78125 48.09375 
Q 58.015625 40.1875 58.015625 27.296875 
Q 58.015625 14.40625 51.78125 6.484375 
Q 45.5625 -1.421875 35.59375 -1.421875 
Q 29.59375 -1.421875 25.265625 0.953125 
Q 20.953125 3.328125 18.109375 8.203125 
z
M 48.6875 27.296875 
Q 48.6875 37.203125 44.609375 42.84375 
Q 40.53125 48.484375 33.40625 48.484375 
Q 26.265625 48.484375 22.1875 42.84375 
Q 18.109375 37.203125 18.109375 27.296875 
Q 18.109375 17.390625 22.1875 11.75 
Q 26.265625 6.109375 33.40625 6.109375 
Q 40.53125 6.109375 44.609375 11.75 
Q 48.6875 17.390625 48.6875 27.296875 
z
" id="DejaVuSans-112"/>
     <path d="M 9.421875 75.984375 
L 18.40625 75.984375 
L 18.40625 0 
L 9.421875 0 
z
" id="DejaVuSans-108"/>
     <path d="M 56.203125 29.59375 
L 56.203125 25.203125 
L 14.890625 25.203125 
Q 15.484375 15.921875 20.484375 11.0625 
Q 25.484375 6.203125 34.421875 6.203125 
Q 39.59375 6.203125 44.453125 7.46875 
Q 49.3125 8.734375 54.109375 11.28125 
L 54.109375 2.78125 
Q 49.265625 0.734375 44.1875 -0.34375 
Q 39.109375 -1.421875 33.890625 -1.421875 
Q 20.796875 -1.421875 13.15625 6.1875 
Q 5.515625 13.8125 5.515625 26.8125 
Q 5.515625 40.234375 12.765625 48.109375 
Q 20.015625 56 32.328125 56 
Q 43.359375 56 49.78125 48.890625 
Q 56.203125 41.796875 56.203125 29.59375 
z
M 47.21875 32.234375 
Q 47.125 39.59375 43.09375 43.984375 
Q 39.0625 48.390625 32.421875 48.390625 
Q 24.90625 48.390625 20.390625 44.140625 
Q 15.875 39.890625 15.1875 32.171875 
z
" id="DejaVuSans-101"/>
     <path d="M 45.40625 46.390625 
L 45.40625 75.984375 
L 54.390625 75.984375 
L 54.390625 0 
L 45.40625 0 
L 45.40625 8.203125 
Q 42.578125 3.328125 38.25 0.953125 
Q 33.9375 -1.421875 27.875 -1.421875 
Q 17.96875 -1.421875 11.734375 6.484375 
Q 5.515625 14.40625 5.515625 27.296875 
Q 5.515625 40.1875 11.734375 48.09375 
Q 17.96875 56 27.875 56 
Q 33.9375 56 38.25 53.625 
Q 42.578125 51.265625 45.40625 46.390625 
z
M 14.796875 27.296875 
Q 14.796875 17.390625 18.875 11.75 
Q 22.953125 6.109375 30.078125 6.109375 
Q 37.203125 6.109375 41.296875 11.75 
Q 45.40625 17.390625 45.40625 27.296875 
Q 45.40625 37.203125 41.296875 42.84375 
Q 37.203125 48.484375 30.078125 48.484375 
Q 22.953125 48.484375 18.875 42.84375 
Q 14.796875 37.203125 14.796875 27.296875 
z
" id="DejaVuSans-100"/>
     <path d="M 37.109375 75.984375 
L 37.109375 68.5 
L 28.515625 68.5 
Q 23.6875 68.5 21.796875 66.546875 
Q 19.921875 64.59375 19.921875 59.515625 
L 19.921875 54.6875 
L 34.71875 54.6875 
L 34.71875 47.703125 
L 19.921875 47.703125 
L 19.921875 0 
L 10.890625 0 
L 10.890625 47.703125 
L 2.296875 47.703125 
L 2.296875 54.6875 
L 10.890625 54.6875 
L 10.890625 58.5 
Q 10.890625 67.625 15.140625 71.796875 
Q 19.390625 75.984375 28.609375 75.984375 
z
" id="DejaVuSans-102"/>
     <path d="M 41.109375 46.296875 
Q 39.59375 47.171875 37.8125 47.578125 
Q 36.03125 48 33.890625 48 
Q 26.265625 48 22.1875 43.046875 
Q 18.109375 38.09375 18.109375 28.8125 
L 18.109375 0 
L 9.078125 0 
L 9.078125 54.6875 
L 18.109375 54.6875 
L 18.109375 46.1875 
Q 20.953125 51.171875 25.484375 53.578125 
Q 30.03125 56 36.53125 56 
Q 37.453125 56 38.578125 55.875 
Q 39.703125 55.765625 41.0625 55.515625 
z
" id="DejaVuSans-114"/>
     <path d="M 30.609375 48.390625 
Q 23.390625 48.390625 19.1875 42.75 
Q 14.984375 37.109375 14.984375 27.296875 
Q 14.984375 17.484375 19.15625 11.84375 
Q 23.34375 6.203125 30.609375 6.203125 
Q 37.796875 6.203125 41.984375 11.859375 
Q 46.1875 17.53125 46.1875 27.296875 
Q 46.1875 37.015625 41.984375 42.703125 
Q 37.796875 48.390625 30.609375 48.390625 
z
M 30.609375 56 
Q 42.328125 56 49.015625 48.375 
Q 55.71875 40.765625 55.71875 27.296875 
Q 55.71875 13.875 49.015625 6.21875 
Q 42.328125 -1.421875 30.609375 -1.421875 
Q 18.84375 -1.421875 12.171875 6.21875 
Q 5.515625 13.875 5.515625 27.296875 
Q 5.515625 40.765625 12.171875 48.375 
Q 18.84375 56 30.609375 56 
z
" id="DejaVuSans-111"/>
     <path d="M 59.515625 10.40625 
L 59.515625 29.984375 
L 43.40625 29.984375 
L 43.40625 38.09375 
L 69.28125 38.09375 
L 69.28125 6.78125 
Q 63.578125 2.734375 56.6875 0.65625 
Q 49.8125 -1.421875 42 -1.421875 
Q 24.90625 -1.421875 15.25 8.5625 
Q 5.609375 18.5625 5.609375 36.375 
Q 5.609375 54.25 15.25 64.234375 
Q 24.90625 74.21875 42 74.21875 
Q 49.125 74.21875 55.546875 72.453125 
Q 61.96875 70.703125 67.390625 67.28125 
L 67.390625 56.78125 
Q 61.921875 61.421875 55.765625 63.765625 
Q 49.609375 66.109375 42.828125 66.109375 
Q 29.4375 66.109375 22.71875 58.640625 
Q 16.015625 51.171875 16.015625 36.375 
Q 16.015625 21.625 22.71875 14.15625 
Q 29.4375 6.6875 42.828125 6.6875 
Q 48.046875 6.6875 52.140625 7.59375 
Q 56.25 8.5 59.515625 10.40625 
z
" id="DejaVuSans-71"/>
     <path d="M 19.671875 64.796875 
L 19.671875 37.40625 
L 32.078125 37.40625 
Q 38.96875 37.40625 42.71875 40.96875 
Q 46.484375 44.53125 46.484375 51.125 
Q 46.484375 57.671875 42.71875 61.234375 
Q 38.96875 64.796875 32.078125 64.796875 
z
M 9.8125 72.90625 
L 32.078125 72.90625 
Q 44.34375 72.90625 50.609375 67.359375 
Q 56.890625 61.8125 56.890625 51.125 
Q 56.890625 40.328125 50.609375 34.8125 
Q 44.34375 29.296875 32.078125 29.296875 
L 19.671875 29.296875 
L 19.671875 0 
L 9.8125 0 
z
" id="DejaVuSans-80"/>
    </defs>
    <g transform="translate(77.762031 23.916563)scale(0.22 -0.22)">
     <use xlink:href="#DejaVuSans-68"/>
     <use x="77.001953" xlink:href="#DejaVuSans-97"/>
     <use x="138.28125" xlink:href="#DejaVuSans-116"/>
     <use x="177.490234" xlink:href="#DejaVuSans-97"/>
     <use x="238.769531" xlink:href="#DejaVuSans-32"/>
     <use x="270.556641" xlink:href="#DejaVuSans-115"/>
     <use x="322.65625" xlink:href="#DejaVuSans-97"/>
     <use x="383.935547" xlink:href="#DejaVuSans-109"/>
     <use x="481.347656" xlink:href="#DejaVuSans-112"/>
     <use x="544.824219" xlink:href="#DejaVuSans-108"/>
     <use x="572.607422" xlink:href="#DejaVuSans-101"/>
     <use x="634.130859" xlink:href="#DejaVuSans-100"/>
     <use x="697.607422" xlink:href="#DejaVuSans-32"/>
     <use x="729.394531" xlink:href="#DejaVuSans-102"/>
     <use x="764.599609" xlink:href="#DejaVuSans-114"/>
     <use x="803.462891" xlink:href="#DejaVuSans-111"/>
     <use x="864.644531" xlink:href="#DejaVuSans-109"/>
     <use x="962.056641" xlink:href="#DejaVuSans-32"/>
     <use x="993.84375" xlink:href="#DejaVuSans-71"/>
     <use x="1071.333984" xlink:href="#DejaVuSans-80"/>
    </g>
   </g>
   <g id="legend_1">
    <g id="patch_7">
     <path d="M 188.409063 240.356563 
L 359.839063 240.356563 
Q 362.639063 240.356563 362.639063 237.556563 
L 362.639063 177.14 
Q 362.639063 174.34 359.839063 174.34 
L 188.409063 174.34 
Q 185.609062 174.34 185.609062 177.14 
L 185.609062 237.556563 
Q 185.609062 240.356563 188.409063 240.356563 
z
" style="fill:#ffffff;opacity:0.8;stroke:#cccccc;stroke-linejoin:miter;"/>
    </g>
    <g id="line2d_12">
     <path d="M 191.209062 185.677813 
L 219.209062 185.677813 
" style="fill:none;stroke:#000000;stroke-linecap:square;stroke-width:1.5;"/>
    </g>
    <g id="line2d_13"/>
    <g id="text_12">
     <!-- Pred. post. mean -->
     <defs>
      <path d="M 10.6875 12.40625 
L 21 12.40625 
L 21 0 
L 10.6875 0 
z
" id="DejaVuSans-46"/>
      <path d="M 54.890625 33.015625 
L 54.890625 0 
L 45.90625 0 
L 45.90625 32.71875 
Q 45.90625 40.484375 42.875 44.328125 
Q 39.84375 48.1875 33.796875 48.1875 
Q 26.515625 48.1875 22.3125 43.546875 
Q 18.109375 38.921875 18.109375 30.90625 
L 18.109375 0 
L 9.078125 0 
L 9.078125 54.6875 
L 18.109375 54.6875 
L 18.109375 46.1875 
Q 21.34375 51.125 25.703125 53.5625 
Q 30.078125 56 35.796875 56 
Q 45.21875 56 50.046875 50.171875 
Q 54.890625 44.34375 54.890625 33.015625 
z
" id="DejaVuSans-110"/>
     </defs>
     <g transform="translate(230.409063 190.577813)scale(0.14 -0.14)">
      <use xlink:href="#DejaVuSans-80"/>
      <use x="58.552734" xlink:href="#DejaVuSans-114"/>
      <use x="97.416016" xlink:href="#DejaVuSans-101"/>
      <use x="158.939453" xlink:href="#DejaVuSans-100"/>
      <use x="222.416016" xlink:href="#DejaVuSans-46"/>
      <use x="254.203125" xlink:href="#DejaVuSans-32"/>
      <use x="285.990234" xlink:href="#DejaVuSans-112"/>
      <use x="349.466797" xlink:href="#DejaVuSans-111"/>
      <use x="410.648438" xlink:href="#DejaVuSans-115"/>
      <use x="462.748047" xlink:href="#DejaVuSans-116"/>
      <use x="501.957031" xlink:href="#DejaVuSans-46"/>
      <use x="533.744141" xlink:href="#DejaVuSans-32"/>
      <use x="565.53125" xlink:href="#DejaVuSans-109"/>
      <use x="662.943359" xlink:href="#DejaVuSans-101"/>
      <use x="724.466797" xlink:href="#DejaVuSans-97"/>
      <use x="785.746094" xlink:href="#DejaVuSans-110"/>
     </g>
    </g>
    <g id="patch_8">
     <path d="M 191.209062 211.127188 
L 219.209062 211.127188 
L 219.209062 201.327188 
L 191.209062 201.327188 
z
" style="fill:#808080;opacity:0.2;stroke:#808080;stroke-linejoin:miter;"/>
    </g>
    <g id="text_13">
     <!-- Pred. post. stddev -->
     <defs>
      <path d="M 2.984375 54.6875 
L 12.5 54.6875 
L 29.59375 8.796875 
L 46.6875 54.6875 
L 56.203125 54.6875 
L 35.6875 0 
L 23.484375 0 
z
" id="DejaVuSans-118"/>
     </defs>
     <g transform="translate(230.409063 211.127188)scale(0.14 -0.14)">
      <use xlink:href="#DejaVuSans-80"/>
      <use x="58.552734" xlink:href="#DejaVuSans-114"/>
      <use x="97.416016" xlink:href="#DejaVuSans-101"/>
      <use x="158.939453" xlink:href="#DejaVuSans-100"/>
      <use x="222.416016" xlink:href="#DejaVuSans-46"/>
      <use x="254.203125" xlink:href="#DejaVuSans-32"/>
      <use x="285.990234" xlink:href="#DejaVuSans-112"/>
      <use x="349.466797" xlink:href="#DejaVuSans-111"/>
      <use x="410.648438" xlink:href="#DejaVuSans-115"/>
      <use x="462.748047" xlink:href="#DejaVuSans-116"/>
      <use x="501.957031" xlink:href="#DejaVuSans-46"/>
      <use x="533.744141" xlink:href="#DejaVuSans-32"/>
      <use x="565.53125" xlink:href="#DejaVuSans-115"/>
      <use x="617.630859" xlink:href="#DejaVuSans-116"/>
      <use x="656.839844" xlink:href="#DejaVuSans-100"/>
      <use x="720.316406" xlink:href="#DejaVuSans-100"/>
      <use x="783.792969" xlink:href="#DejaVuSans-101"/>
      <use x="845.316406" xlink:href="#DejaVuSans-118"/>
     </g>
    </g>
    <g id="PathCollection_2">
     <g>
      <use style="fill:#ff0000;stroke:#ff0000;stroke-width:1.5;" x="205.209062" xlink:href="#m2a70028fc7" y="228.001563"/>
     </g>
    </g>
    <g id="text_14">
     <!-- $\mathbf{y}$ -->
     <defs>
      <path d="M 1.21875 54.6875 
L 18.703125 54.6875 
L 33.40625 17.578125 
L 45.90625 54.6875 
L 63.375 54.6875 
L 40.375 -5.171875 
Q 36.921875 -14.3125 32.296875 -17.9375 
Q 27.6875 -21.578125 20.125 -21.578125 
L 10.015625 -21.578125 
L 10.015625 -10.109375 
L 15.484375 -10.109375 
Q 19.921875 -10.109375 21.9375 -8.6875 
Q 23.96875 -7.28125 25.09375 -3.609375 
L 25.59375 -2.09375 
z
" id="DejaVuSans-Bold-121"/>
     </defs>
     <g transform="translate(230.409063 231.676563)scale(0.14 -0.14)">
      <use transform="translate(0 0.3125)" xlink:href="#DejaVuSans-Bold-121"/>
     </g>
    </g>
   </g>
  </g>
 </g>
 <defs>
  <clipPath id="p31c00982f2">
   <rect height="217.44" width="334.8" x="34.839063" y="29.916563"/>
  </clipPath>
 </defs>
</svg>
