<?xml version="1.0" encoding="UTF-8" standalone="no"?>
<!DOCTYPE svg PUBLIC "-//W3C//DTD SVG 1.1//EN" "http://www.w3.org/Graphics/SVG/1.1/DTD/svg11.dtd">
<svg xmlns="http://www.w3.org/2000/svg" xmlns:xlink="http://www.w3.org/1999/xlink" version="1.1" width="309.748pt" height="170.876pt" viewBox="0 0 309.748 170.876">
<g enable-background="new">
<path transform="matrix(1,0,0,-1,-2.436,85.438)" stroke-width=".79701" stroke-linecap="butt" stroke-miterlimit="10" stroke-linejoin="miter" fill="none" stroke="#000000" d="M 2.83484 65.23363 C 2.83484 65.23363 5.0896 48.77776 5.9556 44.2058 C 6.8216 39.63383 8.21037 35.09846 9.07637 32.28203 C 9.94235 29.46559 11.33112 25.96501 12.19711 23.90678 C 13.06311 21.84857 14.45189 19.07323 15.31789 17.4477 C 16.18388 15.82216 17.57266 13.53525 18.43866 12.19107 C 19.30466 10.8469 20.6934 8.90616 21.5594 7.75972 C 22.4254 6.61328 23.81418 4.92818 24.68018 3.92828 C 25.54617 2.9284 26.93494 1.44002 27.80093 .5532 C 28.66693 -.33359 30.05571 -1.66643 30.92169 -2.46329 C 31.78769 -3.26015 33.17645 -4.4668 34.04245 -5.19 C 34.90845 -5.91322 36.29723 -7.01387 37.16322 -7.67581 C 38.02922 -8.33774 39.41798 -9.35051 40.28397 -9.9609 C 41.14996 -10.57129 42.53874 -11.50851 43.40474 -12.07515 C 44.27074 -12.64178 45.6595 -13.51645 46.5255 -14.04494 C 47.3915 -14.57341 48.78027 -15.38933 49.64627 -15.88408 C 50.51225 -16.37883 51.90102 -17.14584 52.76701 -17.61076 C 53.63301 -18.0757 55.02179 -18.79488 55.88779 -19.23495 C 56.75378 -19.67502 58.14256 -20.36519 59.00856 -20.78258 C 59.87456 -21.19995 61.2633 -21.84784 62.1293 -22.24326 C 62.9953 -22.63867 64.38408 -23.2561 65.25008 -23.63257 C 66.11607 -24.00902 67.50484 -24.59726 68.37083 -24.95656 C 69.23683 -25.31586 70.6256 -25.87856 71.4916 -26.22217 C 72.35759 -26.5658 73.74635 -27.1041 74.61235 -27.43327 C 75.47835 -27.76244 76.86713 -28.27885 77.73312 -28.59464 C 78.59912 -28.91043 79.98788 -29.40558 80.85387 -29.70929 C 81.71986 -30.01302 83.10864 -30.49121 83.97464 -30.7837 C 84.84064 -31.07622 86.2294 -31.5356 87.0954 -31.81747 C 87.9614 -32.09935 89.35017 -32.54318 90.21616 -32.81535 C 91.08215 -33.08751 92.47093 -33.51595 93.33693 -33.77905 C 94.20293 -34.04214 95.59169 -34.45728 96.45769 -34.7116 C 97.32368 -34.96593 98.71246 -35.36584 99.57846 -35.61214 C 100.44444 -35.85841 101.8332 -36.24765 102.6992 -36.48672 C 103.5652 -36.72581 104.95398 -37.10353 105.81998 -37.33537 C 106.68597 -37.5672 108.07474 -37.93216 108.94073 -38.15762 C 109.80673 -38.38309 111.1955 -38.74065 112.0615 -38.96042 C 112.92749 -39.18018 114.31625 -39.52806 115.18225 -39.74158 C 116.04825 -39.95511 117.43703 -40.29187 118.30302 -40.49939 C 119.16902 -40.70691 120.55777 -41.03513 121.42377 -41.23729 C 122.28976 -41.43945 123.67854 -41.75946 124.54454 -41.9566 C 125.41054 -42.15375 126.79932 -42.46577 127.66531 -42.65817 C 128.53131 -42.85057 129.92008 -43.15561 130.78606 -43.34332 C 131.65206 -43.53104 133.04084 -43.8279 133.90683 -44.01117 C 134.77283 -44.19444 136.16159 -44.48505 137.02759 -44.66429 C 137.89359 -44.84354 139.28237 -45.12798 140.14836 -45.30315 C 141.01435 -45.47832 142.4031 -45.7556 143.2691 -45.92686 C 144.1351 -46.09814 145.52388 -46.37 146.38988 -46.53761 C 147.25588 -46.70523 148.64464 -46.97069 149.51064 -47.13495 C 150.37662 -47.2992 151.7654 -47.5605 152.6314 -47.72147 C 153.49739 -47.88243 154.88616 -48.1375 155.75215 -48.29501 C 156.61815 -48.45255 158.00693 -48.70255 158.87293 -48.85689 C 159.73892 -49.01123 161.12769 -49.25603 161.99369 -49.4075 C 162.85968 -49.55898 164.24845 -49.79977 165.11444 -49.9486 C 165.98044 -50.09743 167.36922 -50.3343 168.23522 -50.4802 C 169.10121 -50.6261 170.48996 -50.85686 171.35596 -51.0001 C 172.22196 -51.14336 173.61074 -51.37189 174.47673 -51.51266 C 175.34273 -51.65346 176.73149 -51.87663 177.59749 -52.01483 C 178.46349 -52.15305 179.85227 -52.37318 180.71825 -52.50879 C 181.58425 -52.64441 182.973 -52.85892 183.839 -52.99237 C 184.705 -53.12582 186.09378 -53.33904 186.95978 -53.47076 C 187.82578 -53.6025 189.21454 -53.81259 190.08054 -53.9418 C 190.94652 -54.071 192.3353 -54.27498 193.2013 -54.40202 C 194.06729 -54.52907 195.45607 -54.7326 196.32207 -54.85748 C 197.18807 -54.98238 198.57683 -55.17934 199.44283 -55.30212 C 200.3088 -55.42491 201.69759 -55.62154 202.56359 -55.74246 C 203.42958 -55.86337 204.81835 -56.05426 205.68434 -56.17369 C 206.55034 -56.29312 207.93912 -56.4856 208.80512 -56.60321 C 209.67111 -56.72083 211.05986 -56.90596 211.92586 -57.02147 C 212.79186 -57.137 214.18064 -57.32152 215.04663 -57.43584 C 215.91263 -57.55016 217.30139 -57.73293 218.16739 -57.84544 C 219.03339 -57.95798 220.42217 -58.13588 221.28815 -58.24684 C 222.15415 -58.3578 223.54291 -58.53534 224.4089 -58.64522 C 225.2749 -58.7551 226.66368 -58.93057 227.52968 -59.03882 C 228.39568 -59.14708 229.78446 -59.31906 230.65044 -59.4255 C 231.51644 -59.53197 232.9052 -59.70125 233.7712 -59.80614 C 234.63719 -59.91104 236.02597 -60.07802 236.89197 -60.18158 C 237.75797 -60.28516 239.14673 -60.4504 240.01273 -60.5527 C 240.87871 -60.65501 242.26749 -60.81801 243.13349 -60.91907 C 243.99948 -61.02011 245.38825 -61.18147 246.25424 -61.2811 C 247.12024 -61.38072 248.50902 -61.53873 249.37502 -61.63708 C 250.24102 -61.73544 251.62976 -61.89275 252.49576 -61.99002 C 253.36176 -62.08731 254.75054 -62.24203 255.61653 -62.33823 C 256.48255 -62.43443 257.87129 -62.58852 258.7373 -62.6834 C 259.6033 -62.77826 260.99205 -62.92853 261.85807 -63.02208 C 262.72404 -63.11563 264.11283 -63.265 264.97883 -63.35771 C 265.84483 -63.45044 267.23359 -63.59863 268.09959 -63.69034 C 268.96559 -63.78204 270.35435 -63.92809 271.22035 -64.01865 C 272.08634 -64.10919 273.4751 -64.25368 274.3411 -64.34303 C 275.2071 -64.43239 276.59587 -64.57428 277.46189 -64.66269 C 278.32789 -64.75108 279.71665 -64.89262 280.5826 -64.98016 C 281.4486 -65.06772 282.8374 -65.20721 283.70338 -65.29375 C 284.56938 -65.38028 285.95817 -65.51831 286.82414 -65.60388 C 287.69017 -65.68945 289.07893 -65.82594 289.94493 -65.91055 C 290.8109 -65.99516 292.19966 -66.12997 293.06568 -66.21376 C 293.93168 -66.29753 295.32044 -66.43146 296.18644 -66.51437 C 297.05244 -66.5973 298.44123 -66.72957 299.3072 -66.81154 C 300.1732 -66.8935 301.56196 -67.02414 302.42796 -67.10522 C 303.29396 -67.1863 304.6827 -67.3156 305.5487 -67.39589 C 306.41474 -67.4762 307.80348 -67.60439 308.6695 -67.68396 C 309.5355 -67.76352 311.79026 -67.96944 311.79026 -67.96944 "/>
<path transform="matrix(1,0,0,-1,-2.436,85.438)" stroke-width=".79701" stroke-linecap="butt" stroke-dasharray="2.98883,2.98883" stroke-miterlimit="10" stroke-linejoin="miter" fill="none" stroke="#000000" d="M 85.04042 -85.04042 L 85.04042 85.04042 "/>
<path transform="matrix(1,0,0,-1,-2.436,85.438)" stroke-width=".79701" stroke-linecap="butt" stroke-dasharray="2.98883,2.98883" stroke-miterlimit="10" stroke-linejoin="miter" fill="none" stroke="#000000" d="M 255.12128 -85.04042 L 255.12128 85.04042 "/>
<path transform="matrix(1,0,0,-1,-2.436,85.438)" stroke-width=".79701" stroke-linecap="butt" stroke-dasharray="2.98883,2.98883" stroke-miterlimit="10" stroke-linejoin="miter" fill="none" stroke="#000000" d="M 226.77448 -85.04042 L 226.77448 85.04042 "/>
<path transform="matrix(1,0,0,-1,-2.436,85.438)" d="M 87.8585 -14.17339 C 87.8585 -12.61699 86.59682 -11.3553 85.04042 -11.3553 C 83.48402 -11.3553 82.22234 -12.61699 82.22234 -14.17339 C 82.22234 -15.72978 83.48402 -16.99147 85.04042 -16.99147 C 86.59682 -16.99147 87.8585 -15.72978 87.8585 -14.17339 Z M 85.04042 -14.17339 "/>
<path transform="matrix(1,0,0,-1,-2.436,85.438)" stroke-width=".3985" stroke-linecap="butt" stroke-miterlimit="10" stroke-linejoin="miter" fill="none" stroke="#000000" d="M 87.8585 -14.17339 C 87.8585 -12.61699 86.59682 -11.3553 85.04042 -11.3553 C 83.48402 -11.3553 82.22234 -12.61699 82.22234 -14.17339 C 82.22234 -15.72978 83.48402 -16.99147 85.04042 -16.99147 C 86.59682 -16.99147 87.8585 -15.72978 87.8585 -14.17339 Z M 85.04042 -14.17339 "/>
<text xml:space="preserve" transform="matrix(1 0 -0 1 -.0000038146974 170.876)" font-size="10.9091" font-family="CMR10"><tspan y="-77.806" x="44.407">(</tspan></text>
<text xml:space="preserve" transform="matrix(1 0 -0 1 -.0000038146974 170.876)" font-size="10.9091" font-family="CMMI10" font-style="italic"><tspan y="-77.806" x="48.65">x</tspan></text>
<text xml:space="preserve" transform="matrix(1 0 -0 1 -.0000038146974 170.876)" font-size="7.9701" font-family="CMR8"><tspan y="-76.17" x="54.884004">1</tspan></text>
<text xml:space="preserve" transform="matrix(1 0 -0 1 -.0000038146974 170.876)" font-size="10.9091" font-family="CMMI10" font-style="italic"><tspan y="-77.806" x="59.617006 64.47156">,y</tspan></text>
<text xml:space="preserve" transform="matrix(1 0 -0 1 -.0000038146974 170.876)" font-size="7.9701" font-family="CMR8"><tspan y="-76.17" x="69.814">1</tspan></text>
<text xml:space="preserve" transform="matrix(1 0 -0 1 -.0000038146974 170.876)" font-size="10.9091" font-family="CMR10"><tspan y="-77.806" x="74.546009">)</tspan></text>
<path transform="matrix(1,0,0,-1,-2.436,85.438)" d="M 257.93937 28.3468 C 257.93937 29.9032 256.67768 31.16489 255.12128 31.16489 C 253.56488 31.16489 252.30319 29.9032 252.30319 28.3468 C 252.30319 26.7904 253.56488 25.52872 255.12128 25.52872 C 256.67768 25.52872 257.93937 26.7904 257.93937 28.3468 Z M 255.12128 28.3468 "/>
<path transform="matrix(1,0,0,-1,-2.436,85.438)" stroke-width=".3985" stroke-linecap="butt" stroke-miterlimit="10" stroke-linejoin="miter" fill="none" stroke="#000000" d="M 257.93937 28.3468 C 257.93937 29.9032 256.67768 31.16489 255.12128 31.16489 C 253.56488 31.16489 252.30319 29.9032 252.30319 28.3468 C 252.30319 26.7904 253.56488 25.52872 255.12128 25.52872 C 256.67768 25.52872 257.93937 26.7904 257.93937 28.3468 Z M 255.12128 28.3468 "/>
<text xml:space="preserve" transform="matrix(1 0 -0 1 0 170.876)" font-size="10.9091" font-family="CMR10"><tspan y="-120.326" x="256.496">(</tspan></text>
<text xml:space="preserve" transform="matrix(1 0 -0 1 0 170.876)" font-size="10.9091" font-family="CMMI10" font-style="italic"><tspan y="-120.326" x="260.739">x</tspan></text>
<text xml:space="preserve" transform="matrix(1 0 -0 1 0 170.876)" font-size="7.9701" font-family="CMR8"><tspan y="-118.689998" x="266.974">2</tspan></text>
<text xml:space="preserve" transform="matrix(1 0 -0 1 0 170.876)" font-size="10.9091" font-family="CMMI10" font-style="italic"><tspan y="-120.326" x="271.706 276.56053">,y</tspan></text>
<text xml:space="preserve" transform="matrix(1 0 -0 1 0 170.876)" font-size="7.9701" font-family="CMR8"><tspan y="-118.689998" x="281.90299">2</tspan></text>
<text xml:space="preserve" transform="matrix(1 0 -0 1 0 170.876)" font-size="10.9091" font-family="CMR10"><tspan y="-120.326" x="286.63499">)</tspan></text>
<path transform="matrix(1,0,0,-1,-2.436,85.438)" d="M 229.59256 42.5202 C 229.59256 44.0766 228.33087 45.33829 226.77448 45.33829 C 225.21808 45.33829 223.95639 44.0766 223.95639 42.5202 C 223.95639 40.9638 225.21808 39.70212 226.77448 39.70212 C 228.33087 39.70212 229.59256 40.9638 229.59256 42.5202 Z M 226.77448 42.5202 "/>
<path transform="matrix(1,0,0,-1,-2.436,85.438)" stroke-width=".3985" stroke-linecap="butt" stroke-miterlimit="10" stroke-linejoin="miter" fill="none" stroke="#000000" d="M 229.59256 42.5202 C 229.59256 44.0766 228.33087 45.33829 226.77448 45.33829 C 225.21808 45.33829 223.95639 44.0766 223.95639 42.5202 C 223.95639 40.9638 225.21808 39.70212 226.77448 39.70212 C 228.33087 39.70212 229.59256 40.9638 229.59256 42.5202 Z M 226.77448 42.5202 "/>
<text xml:space="preserve" transform="matrix(1 0 -0 1 .0000076293949 170.87599)" font-size="10.9091" font-family="CMR10"><tspan y="-134.499" x="123.326">(</tspan></text>
<text xml:space="preserve" transform="matrix(1 0 -0 1 .0000076293949 170.87599)" font-size="10.9091" font-family="CMMI10" font-style="italic"><tspan y="-134.499" x="127.569 132.99082">&#x03b8;x</tspan></text>
<text xml:space="preserve" transform="matrix(1 0 -0 1 .0000076293949 170.87599)" font-size="7.9701" font-family="CMR8"><tspan y="-132.86299" x="139.228">1</tspan></text>
<text xml:space="preserve" transform="matrix(1 0 -0 1 .0000076293949 170.87599)" font-size="10.9091" font-family="CMR10"><tspan y="-134.499" x="146.384 157.29309 161.53673">+(1</tspan></text>
<text xml:space="preserve" transform="matrix(1 0 -0 1 .0000076293949 170.87599)" font-size="10.9091" font-family="CMSY10" font-style="italic"><tspan y="-134.499" x="169.41501">&#x2212;</tspan></text>
<text xml:space="preserve" transform="matrix(1 0 -0 1 .0000076293949 170.87599)" font-size="10.9091" font-family="CMMI10" font-style="italic"><tspan y="-134.499" x="180.324">&#x03b8;</tspan></text>
<text xml:space="preserve" transform="matrix(1 0 -0 1 .0000076293949 170.87599)" font-size="10.9091" font-family="CMR10"><tspan y="-134.499" x="185.748">)</tspan></text>
<text xml:space="preserve" transform="matrix(1 0 -0 1 .0000076293949 170.87599)" font-size="10.9091" font-family="CMMI10" font-style="italic"><tspan y="-134.499" x="189.99">x</tspan></text>
<text xml:space="preserve" transform="matrix(1 0 -0 1 .0000076293949 170.87599)" font-size="7.9701" font-family="CMR8"><tspan y="-132.86299" x="196.225">2</tspan></text>
<text xml:space="preserve" transform="matrix(1 0 -0 1 .0000076293949 170.87599)" font-size="10.9091" font-family="CMMI10" font-style="italic"><tspan y="-134.499" x="200.95801 205.81256">,y</tspan></text>
<text xml:space="preserve" transform="matrix(1 0 -0 1 .0000076293949 170.87599)" font-size="7.9701" font-family="CMSY8" font-style="italic"><tspan y="-138.458" x="211.546">&#x2217;</tspan></text>
<text xml:space="preserve" transform="matrix(1 0 -0 1 .0000076293949 170.87599)" font-size="10.9091" font-family="CMR10"><tspan y="-134.499" x="216.278">)</tspan></text>
<path transform="matrix(1,0,0,-1,-2.436,85.438)" d="M 229.59256 21.2601 C 229.59256 22.81648 228.33087 24.07817 226.77448 24.07817 C 225.21808 24.07817 223.95639 22.81648 223.95639 21.2601 C 223.95639 19.7037 225.21808 18.44202 226.77448 18.44202 C 228.33087 18.44202 229.59256 19.7037 229.59256 21.2601 Z M 226.77448 21.2601 "/>
<path transform="matrix(1,0,0,-1,-2.436,85.438)" stroke-width=".3985" stroke-linecap="butt" stroke-miterlimit="10" stroke-linejoin="miter" fill="none" stroke="#000000" d="M 229.59256 21.2601 C 229.59256 22.81648 228.33087 24.07817 226.77448 24.07817 C 225.21808 24.07817 223.95639 22.81648 223.95639 21.2601 C 223.95639 19.7037 225.21808 18.44202 226.77448 18.44202 C 228.33087 18.44202 229.59256 19.7037 229.59256 21.2601 Z M 226.77448 21.2601 "/>
<path transform="matrix(1,0,0,-1,-2.436,85.438)" stroke-width=".79701" stroke-linecap="butt" stroke-miterlimit="10" stroke-linejoin="miter" fill="none" stroke="#000000" d="M 87.96765 -13.44167 L 252.19405 27.61508 "/>
</g>
</svg>
