<?xml version="1.0" encoding="utf-8" standalone="no"?>
<!DOCTYPE svg PUBLIC "-//W3C//DTD SVG 1.1//EN"
  "http://www.w3.org/Graphics/SVG/1.1/DTD/svg11.dtd">
<svg xmlns:xlink="http://www.w3.org/1999/xlink" width="708.819504pt" height="278.793pt" viewBox="0 0 708.819504 278.793" xmlns="http://www.w3.org/2000/svg" version="1.1">
 <metadata>
  <rdf:RDF xmlns:dc="http://purl.org/dc/elements/1.1/" xmlns:cc="http://creativecommons.org/ns#" xmlns:rdf="http://www.w3.org/1999/02/22-rdf-syntax-ns#">
   <cc:Work>
    <dc:type rdf:resource="http://purl.org/dc/dcmitype/StillImage"/>
    <dc:date>2024-05-09T13:02:40.482010</dc:date>
    <dc:format>image/svg+xml</dc:format>
    <dc:creator>
     <cc:Agent>
      <dc:title>Matplotlib v3.8.4, https://matplotlib.org/</dc:title>
     </cc:Agent>
    </dc:creator>
   </cc:Work>
  </rdf:RDF>
 </metadata>
 <defs>
  <style type="text/css">*{stroke-linejoin: round; stroke-linecap: butt}</style>
 </defs>
 <g id="figure_1">
  <g id="patch_1">
   <path d="M 0 278.793 
L 708.819504 278.793 
L 708.819504 0 
L 0 0 
z
" style="fill: #ffffff"/>
  </g>
  <g id="axes_1">
   <g id="patch_2">
    <path d="M 70.4 226.393 
L 342.277576 226.393 
L 342.277576 54.492 
L 70.4 54.492 
z
" style="fill: #ffffff"/>
   </g>
   <g id="matplotlib.axis_1">
    <g id="xtick_1">
     <g id="line2d_1">
      <defs>
       <path id="m1b33e15fbe" d="M 0 0 
L 0 3.5 
" style="stroke: #000000; stroke-width: 0.8"/>
      </defs>
      <g>
       <use xlink:href="#m1b33e15fbe" x="82.758072" y="226.393" style="stroke: #000000; stroke-width: 0.8"/>
      </g>
     </g>
     <g id="text_1">
      <!-- $\mathdefault{10^{-4}}$ -->
      <g transform="translate(65.658072 245.686438) scale(0.18 -0.18)">
       <defs>
        <path id="STIXGeneral-Regular-31" d="M 2522 0 
L 755 0 
L 755 96 
Q 1107 115 1235 227 
Q 1363 339 1363 608 
L 1363 3482 
Q 1363 3795 1171 3795 
Q 1082 3795 883 3718 
L 710 3654 
L 710 3744 
L 1856 4326 
L 1914 4307 
L 1914 486 
Q 1914 275 2042 185 
Q 2170 96 2522 96 
L 2522 0 
z
" transform="scale(0.015625)"/>
        <path id="STIXGeneral-Regular-30" d="M 3046 2112 
Q 3046 1683 2963 1302 
Q 2880 922 2717 602 
Q 2554 282 2266 96 
Q 1978 -90 1600 -90 
Q 1210 -90 915 108 
Q 621 307 461 640 
Q 301 973 227 1350 
Q 154 1728 154 2150 
Q 154 2746 301 3222 
Q 448 3699 790 4012 
Q 1133 4326 1626 4326 
Q 2253 4326 2649 3712 
Q 3046 3098 3046 2112 
z
M 2432 2080 
Q 2432 3091 2217 3625 
Q 2003 4160 1587 4160 
Q 1190 4160 979 3622 
Q 768 3085 768 2106 
Q 768 1120 979 598 
Q 1190 77 1600 77 
Q 2003 77 2217 598 
Q 2432 1120 2432 2080 
z
" transform="scale(0.015625)"/>
        <path id="STIXGeneral-Regular-2212" d="M 3974 1408 
L 410 1408 
L 410 1830 
L 3974 1830 
L 3974 1408 
z
" transform="scale(0.015625)"/>
        <path id="STIXGeneral-Regular-34" d="M 3027 1069 
L 2368 1069 
L 2368 0 
L 1869 0 
L 1869 1069 
L 77 1069 
L 77 1478 
L 2086 4326 
L 2368 4326 
L 2368 1478 
L 3027 1478 
L 3027 1069 
z
M 1869 1478 
L 1869 3674 
L 333 1478 
L 1869 1478 
z
" transform="scale(0.015625)"/>
       </defs>
       <use xlink:href="#STIXGeneral-Regular-31" transform="translate(0 0.684375)"/>
       <use xlink:href="#STIXGeneral-Regular-30" transform="translate(49.999985 0.684375)"/>
       <use xlink:href="#STIXGeneral-Regular-2212" transform="translate(101.574969 36.684375) scale(0.7)"/>
       <use xlink:href="#STIXGeneral-Regular-34" transform="translate(149.524959 36.684375) scale(0.7)"/>
      </g>
     </g>
    </g>
    <g id="xtick_2">
     <g id="line2d_2">
      <g>
       <use xlink:href="#m1b33e15fbe" x="206.338788" y="226.393" style="stroke: #000000; stroke-width: 0.8"/>
      </g>
     </g>
     <g id="text_2">
      <!-- $\mathdefault{10^{-3}}$ -->
      <g transform="translate(189.238788 245.686438) scale(0.18 -0.18)">
       <defs>
        <path id="STIXGeneral-Regular-33" d="M 390 3264 
L 288 3290 
Q 435 3770 748 4048 
Q 1062 4326 1542 4326 
Q 1990 4326 2265 4083 
Q 2541 3840 2541 3450 
Q 2541 2925 1946 2566 
Q 2298 2413 2477 2227 
Q 2758 1914 2758 1402 
Q 2758 890 2464 506 
Q 2246 211 1840 60 
Q 1434 -90 979 -90 
Q 262 -90 262 275 
Q 262 378 339 442 
Q 416 506 525 506 
Q 685 506 915 339 
Q 1197 141 1466 141 
Q 1818 141 2058 425 
Q 2298 710 2298 1120 
Q 2298 1856 1632 2048 
Q 1434 2112 979 2112 
L 979 2202 
Q 1338 2323 1517 2432 
Q 2035 2726 2035 3290 
Q 2035 3610 1852 3776 
Q 1670 3942 1344 3942 
Q 768 3942 390 3264 
z
" transform="scale(0.015625)"/>
       </defs>
       <use xlink:href="#STIXGeneral-Regular-31" transform="translate(0 0.684375)"/>
       <use xlink:href="#STIXGeneral-Regular-30" transform="translate(49.999985 0.684375)"/>
       <use xlink:href="#STIXGeneral-Regular-2212" transform="translate(101.574969 36.684375) scale(0.7)"/>
       <use xlink:href="#STIXGeneral-Regular-33" transform="translate(149.524959 36.684375) scale(0.7)"/>
      </g>
     </g>
    </g>
    <g id="xtick_3">
     <g id="line2d_3">
      <g>
       <use xlink:href="#m1b33e15fbe" x="329.919504" y="226.393" style="stroke: #000000; stroke-width: 0.8"/>
      </g>
     </g>
     <g id="text_3">
      <!-- $\mathdefault{10^{-2}}$ -->
      <g transform="translate(312.819504 245.686438) scale(0.18 -0.18)">
       <defs>
        <path id="STIXGeneral-Regular-32" d="M 3034 877 
L 2688 0 
L 186 0 
L 186 77 
L 1325 1286 
Q 1773 1754 1965 2144 
Q 2157 2534 2157 2950 
Q 2157 3379 1920 3616 
Q 1683 3853 1267 3853 
Q 922 3853 720 3673 
Q 518 3494 326 3021 
L 192 3053 
Q 301 3648 630 3987 
Q 960 4326 1523 4326 
Q 2054 4326 2380 4006 
Q 2707 3686 2707 3200 
Q 2707 2477 1888 1613 
L 832 486 
L 2330 486 
Q 2541 486 2665 569 
Q 2790 653 2944 915 
L 3034 877 
z
" transform="scale(0.015625)"/>
       </defs>
       <use xlink:href="#STIXGeneral-Regular-31" transform="translate(0 0.684375)"/>
       <use xlink:href="#STIXGeneral-Regular-30" transform="translate(49.999985 0.684375)"/>
       <use xlink:href="#STIXGeneral-Regular-2212" transform="translate(101.574969 36.684375) scale(0.7)"/>
       <use xlink:href="#STIXGeneral-Regular-32" transform="translate(149.524959 36.684375) scale(0.7)"/>
      </g>
     </g>
    </g>
    <g id="xtick_4">
     <g id="line2d_4">
      <defs>
       <path id="m1bdf8259cf" d="M 0 0 
L 0 2 
" style="stroke: #000000; stroke-width: 0.6"/>
      </defs>
      <g>
       <use xlink:href="#m1bdf8259cf" x="70.781863" y="226.393" style="stroke: #000000; stroke-width: 0.6"/>
      </g>
     </g>
    </g>
    <g id="xtick_5">
     <g id="line2d_5">
      <g>
       <use xlink:href="#m1bdf8259cf" x="77.103328" y="226.393" style="stroke: #000000; stroke-width: 0.6"/>
      </g>
     </g>
    </g>
    <g id="xtick_6">
     <g id="line2d_6">
      <g>
       <use xlink:href="#m1bdf8259cf" x="119.959574" y="226.393" style="stroke: #000000; stroke-width: 0.6"/>
      </g>
     </g>
    </g>
    <g id="xtick_7">
     <g id="line2d_7">
      <g>
       <use xlink:href="#m1bdf8259cf" x="141.721058" y="226.393" style="stroke: #000000; stroke-width: 0.6"/>
      </g>
     </g>
    </g>
    <g id="xtick_8">
     <g id="line2d_8">
      <g>
       <use xlink:href="#m1bdf8259cf" x="157.161077" y="226.393" style="stroke: #000000; stroke-width: 0.6"/>
      </g>
     </g>
    </g>
    <g id="xtick_9">
     <g id="line2d_9">
      <g>
       <use xlink:href="#m1bdf8259cf" x="169.137285" y="226.393" style="stroke: #000000; stroke-width: 0.6"/>
      </g>
     </g>
    </g>
    <g id="xtick_10">
     <g id="line2d_10">
      <g>
       <use xlink:href="#m1bdf8259cf" x="178.92256" y="226.393" style="stroke: #000000; stroke-width: 0.6"/>
      </g>
     </g>
    </g>
    <g id="xtick_11">
     <g id="line2d_11">
      <g>
       <use xlink:href="#m1bdf8259cf" x="187.195893" y="226.393" style="stroke: #000000; stroke-width: 0.6"/>
      </g>
     </g>
    </g>
    <g id="xtick_12">
     <g id="line2d_12">
      <g>
       <use xlink:href="#m1bdf8259cf" x="194.362579" y="226.393" style="stroke: #000000; stroke-width: 0.6"/>
      </g>
     </g>
    </g>
    <g id="xtick_13">
     <g id="line2d_13">
      <g>
       <use xlink:href="#m1bdf8259cf" x="200.684044" y="226.393" style="stroke: #000000; stroke-width: 0.6"/>
      </g>
     </g>
    </g>
    <g id="xtick_14">
     <g id="line2d_14">
      <g>
       <use xlink:href="#m1bdf8259cf" x="243.54029" y="226.393" style="stroke: #000000; stroke-width: 0.6"/>
      </g>
     </g>
    </g>
    <g id="xtick_15">
     <g id="line2d_15">
      <g>
       <use xlink:href="#m1bdf8259cf" x="265.301774" y="226.393" style="stroke: #000000; stroke-width: 0.6"/>
      </g>
     </g>
    </g>
    <g id="xtick_16">
     <g id="line2d_16">
      <g>
       <use xlink:href="#m1bdf8259cf" x="280.741793" y="226.393" style="stroke: #000000; stroke-width: 0.6"/>
      </g>
     </g>
    </g>
    <g id="xtick_17">
     <g id="line2d_17">
      <g>
       <use xlink:href="#m1bdf8259cf" x="292.718002" y="226.393" style="stroke: #000000; stroke-width: 0.6"/>
      </g>
     </g>
    </g>
    <g id="xtick_18">
     <g id="line2d_18">
      <g>
       <use xlink:href="#m1bdf8259cf" x="302.503277" y="226.393" style="stroke: #000000; stroke-width: 0.6"/>
      </g>
     </g>
    </g>
    <g id="xtick_19">
     <g id="line2d_19">
      <g>
       <use xlink:href="#m1bdf8259cf" x="310.776609" y="226.393" style="stroke: #000000; stroke-width: 0.6"/>
      </g>
     </g>
    </g>
    <g id="xtick_20">
     <g id="line2d_20">
      <g>
       <use xlink:href="#m1bdf8259cf" x="317.943295" y="226.393" style="stroke: #000000; stroke-width: 0.6"/>
      </g>
     </g>
    </g>
    <g id="xtick_21">
     <g id="line2d_21">
      <g>
       <use xlink:href="#m1bdf8259cf" x="324.264761" y="226.393" style="stroke: #000000; stroke-width: 0.6"/>
      </g>
     </g>
    </g>
    <g id="text_4">
     <!-- $\delta t$ -->
     <g transform="translate(198.938788 267.252375) scale(0.2 -0.2)">
      <defs>
       <path id="STIXGeneral-Italic-3b4" d="M 2944 3866 
Q 2944 3744 2883 3651 
Q 2822 3558 2694 3558 
Q 2579 3558 2508 3606 
Q 2438 3654 2403 3721 
Q 2368 3789 2323 3856 
Q 2278 3923 2179 3971 
Q 2080 4019 1920 4019 
Q 1715 4019 1516 3916 
Q 1318 3814 1318 3648 
Q 1318 3482 1484 3328 
Q 1651 3174 1942 2985 
Q 2234 2797 2381 2656 
Q 2605 2445 2701 2249 
Q 2797 2054 2797 1709 
Q 2797 1037 2313 483 
Q 1830 -70 1101 -70 
Q 646 -70 400 166 
Q 154 403 154 838 
Q 154 1453 640 1981 
Q 1126 2509 1741 2566 
Q 1690 2618 1526 2771 
Q 1363 2925 1299 2998 
Q 1235 3072 1164 3203 
Q 1094 3334 1094 3456 
Q 1094 3744 1286 3939 
Q 1478 4134 1712 4204 
Q 1946 4275 2176 4275 
Q 2458 4275 2701 4169 
Q 2944 4064 2944 3866 
z
M 2278 1702 
Q 2278 2086 2156 2259 
Q 2035 2432 1850 2432 
Q 1427 2432 1059 1869 
Q 691 1306 691 646 
Q 691 384 828 224 
Q 966 64 1190 64 
Q 1466 64 1728 371 
Q 1990 678 2134 1056 
Q 2278 1434 2278 1702 
z
" transform="scale(0.015625)"/>
       <path id="STIXGeneral-Italic-74" d="M 1894 2739 
L 1862 2534 
L 1325 2534 
L 768 435 
Q 755 384 755 346 
Q 755 243 851 243 
Q 928 243 1030 342 
Q 1133 442 1370 749 
L 1453 704 
Q 1158 256 969 93 
Q 781 -70 538 -70 
Q 243 -70 243 166 
Q 243 230 346 640 
L 845 2534 
L 365 2534 
L 358 2573 
Q 358 2688 570 2733 
Q 730 2771 992 2979 
Q 1254 3187 1421 3437 
Q 1459 3494 1510 3494 
Q 1568 3494 1568 3443 
Q 1568 3411 1562 3398 
L 1382 2739 
L 1894 2739 
z
" transform="scale(0.015625)"/>
      </defs>
      <use xlink:href="#STIXGeneral-Italic-3b4" transform="translate(0 0.203125)"/>
      <use xlink:href="#STIXGeneral-Italic-74" transform="translate(45.999985 0.203125)"/>
     </g>
    </g>
   </g>
   <g id="matplotlib.axis_2">
    <g id="ytick_1">
     <g id="line2d_22">
      <defs>
       <path id="ma118c891ea" d="M 0 0 
L -3.5 0 
" style="stroke: #000000; stroke-width: 0.8"/>
      </defs>
      <g>
       <use xlink:href="#ma118c891ea" x="70.4" y="226.393" style="stroke: #000000; stroke-width: 0.8"/>
      </g>
     </g>
     <g id="text_5">
      <!-- $\mathdefault{10^{-2}}$ -->
      <g transform="translate(29.2 232.539719) scale(0.18 -0.18)">
       <use xlink:href="#STIXGeneral-Regular-31" transform="translate(0 0.684375)"/>
       <use xlink:href="#STIXGeneral-Regular-30" transform="translate(49.999985 0.684375)"/>
       <use xlink:href="#STIXGeneral-Regular-2212" transform="translate(101.574969 36.684375) scale(0.7)"/>
       <use xlink:href="#STIXGeneral-Regular-32" transform="translate(149.524959 36.684375) scale(0.7)"/>
      </g>
     </g>
    </g>
    <g id="ytick_2">
     <g id="line2d_23">
      <g>
       <use xlink:href="#ma118c891ea" x="70.4" y="140.4425" style="stroke: #000000; stroke-width: 0.8"/>
      </g>
     </g>
     <g id="text_6">
      <!-- $\mathdefault{10^{-1}}$ -->
      <g transform="translate(29.2 146.589219) scale(0.18 -0.18)">
       <use xlink:href="#STIXGeneral-Regular-31" transform="translate(0 0.684375)"/>
       <use xlink:href="#STIXGeneral-Regular-30" transform="translate(49.999985 0.684375)"/>
       <use xlink:href="#STIXGeneral-Regular-2212" transform="translate(101.574969 36.684375) scale(0.7)"/>
       <use xlink:href="#STIXGeneral-Regular-31" transform="translate(149.524959 36.684375) scale(0.7)"/>
      </g>
     </g>
    </g>
    <g id="ytick_3">
     <g id="line2d_24">
      <g>
       <use xlink:href="#ma118c891ea" x="70.4" y="54.492" style="stroke: #000000; stroke-width: 0.8"/>
      </g>
     </g>
     <g id="text_7">
      <!-- $\mathdefault{10^{0}}$ -->
      <g transform="translate(37.84 60.638719) scale(0.18 -0.18)">
       <use xlink:href="#STIXGeneral-Regular-31" transform="translate(0 0.684375)"/>
       <use xlink:href="#STIXGeneral-Regular-30" transform="translate(49.999985 0.684375)"/>
       <use xlink:href="#STIXGeneral-Regular-30" transform="translate(101.574969 36.684375) scale(0.7)"/>
      </g>
     </g>
    </g>
    <g id="ytick_4">
     <g id="line2d_25">
      <defs>
       <path id="mf85d4b63c9" d="M 0 0 
L -2 0 
" style="stroke: #000000; stroke-width: 0.6"/>
      </defs>
      <g>
       <use xlink:href="#mf85d4b63c9" x="70.4" y="200.519321" style="stroke: #000000; stroke-width: 0.6"/>
      </g>
     </g>
    </g>
    <g id="ytick_5">
     <g id="line2d_26">
      <g>
       <use xlink:href="#mf85d4b63c9" x="70.4" y="185.38419" style="stroke: #000000; stroke-width: 0.6"/>
      </g>
     </g>
    </g>
    <g id="ytick_6">
     <g id="line2d_27">
      <g>
       <use xlink:href="#mf85d4b63c9" x="70.4" y="174.645643" style="stroke: #000000; stroke-width: 0.6"/>
      </g>
     </g>
    </g>
    <g id="ytick_7">
     <g id="line2d_28">
      <g>
       <use xlink:href="#mf85d4b63c9" x="70.4" y="166.316179" style="stroke: #000000; stroke-width: 0.6"/>
      </g>
     </g>
    </g>
    <g id="ytick_8">
     <g id="line2d_29">
      <g>
       <use xlink:href="#mf85d4b63c9" x="70.4" y="159.510511" style="stroke: #000000; stroke-width: 0.6"/>
      </g>
     </g>
    </g>
    <g id="ytick_9">
     <g id="line2d_30">
      <g>
       <use xlink:href="#mf85d4b63c9" x="70.4" y="153.756401" style="stroke: #000000; stroke-width: 0.6"/>
      </g>
     </g>
    </g>
    <g id="ytick_10">
     <g id="line2d_31">
      <g>
       <use xlink:href="#mf85d4b63c9" x="70.4" y="148.771964" style="stroke: #000000; stroke-width: 0.6"/>
      </g>
     </g>
    </g>
    <g id="ytick_11">
     <g id="line2d_32">
      <g>
       <use xlink:href="#mf85d4b63c9" x="70.4" y="144.375379" style="stroke: #000000; stroke-width: 0.6"/>
      </g>
     </g>
    </g>
    <g id="ytick_12">
     <g id="line2d_33">
      <g>
       <use xlink:href="#mf85d4b63c9" x="70.4" y="114.568821" style="stroke: #000000; stroke-width: 0.6"/>
      </g>
     </g>
    </g>
    <g id="ytick_13">
     <g id="line2d_34">
      <g>
       <use xlink:href="#mf85d4b63c9" x="70.4" y="99.43369" style="stroke: #000000; stroke-width: 0.6"/>
      </g>
     </g>
    </g>
    <g id="ytick_14">
     <g id="line2d_35">
      <g>
       <use xlink:href="#mf85d4b63c9" x="70.4" y="88.695143" style="stroke: #000000; stroke-width: 0.6"/>
      </g>
     </g>
    </g>
    <g id="ytick_15">
     <g id="line2d_36">
      <g>
       <use xlink:href="#mf85d4b63c9" x="70.4" y="80.365679" style="stroke: #000000; stroke-width: 0.6"/>
      </g>
     </g>
    </g>
    <g id="ytick_16">
     <g id="line2d_37">
      <g>
       <use xlink:href="#mf85d4b63c9" x="70.4" y="73.560011" style="stroke: #000000; stroke-width: 0.6"/>
      </g>
     </g>
    </g>
    <g id="ytick_17">
     <g id="line2d_38">
      <g>
       <use xlink:href="#mf85d4b63c9" x="70.4" y="67.805901" style="stroke: #000000; stroke-width: 0.6"/>
      </g>
     </g>
    </g>
    <g id="ytick_18">
     <g id="line2d_39">
      <g>
       <use xlink:href="#mf85d4b63c9" x="70.4" y="62.821464" style="stroke: #000000; stroke-width: 0.6"/>
      </g>
     </g>
    </g>
    <g id="ytick_19">
     <g id="line2d_40">
      <g>
       <use xlink:href="#mf85d4b63c9" x="70.4" y="58.424879" style="stroke: #000000; stroke-width: 0.6"/>
      </g>
     </g>
    </g>
    <g id="text_8">
     <!-- $\mathbb{E}|X_n - X(t_n)|$ -->
     <g transform="translate(20.859375 190.1425) rotate(-90) scale(0.2 -0.2)">
      <defs>
       <path id="STIXNonUnicode-Italic-e156" d="M 4250 4179 
L 4192 3942 
L 2150 3942 
L 1709 2266 
L 3514 2266 
L 3443 2029 
L 1645 2029 
L 1165 237 
L 3443 237 
L 3392 0 
L 109 0 
L 1229 4179 
L 4250 4179 
z
M 1914 3942 
L 1414 3942 
L 416 237 
L 928 237 
L 1914 3942 
z
" transform="scale(0.015625)"/>
       <path id="STIXGeneral-Regular-7c" d="M 851 -90 
L 429 -90 
L 429 4326 
L 851 4326 
L 851 -90 
z
" transform="scale(0.015625)"/>
       <path id="STIXGeneral-Italic-58" d="M 4192 4179 
L 4192 4077 
Q 3981 4006 3805 3875 
Q 3629 3744 3392 3469 
L 2310 2227 
L 2957 595 
Q 3072 307 3187 224 
Q 3302 141 3629 102 
L 3629 0 
L 1894 0 
L 1894 102 
Q 2170 109 2278 163 
Q 2387 218 2387 339 
Q 2387 442 2298 666 
L 1869 1722 
L 902 621 
Q 755 454 755 314 
Q 755 102 1178 102 
L 1178 0 
L -186 0 
L -186 102 
Q 70 147 300 361 
Q 531 576 1222 1382 
L 1754 2003 
L 1094 3635 
Q 998 3872 880 3961 
Q 762 4051 486 4077 
L 486 4179 
L 2170 4179 
L 2170 4077 
Q 1907 4045 1811 3990 
Q 1715 3936 1715 3814 
Q 1715 3706 1818 3456 
L 2195 2515 
L 3123 3584 
Q 3258 3738 3258 3859 
Q 3258 4058 2867 4077 
L 2867 4179 
L 4192 4179 
z
" transform="scale(0.015625)"/>
       <path id="STIXGeneral-Italic-6e" d="M 2944 749 
L 3034 666 
Q 2707 218 2534 80 
Q 2362 -58 2138 -58 
Q 2010 -58 1923 28 
Q 1837 115 1837 288 
Q 1837 390 1939 768 
L 2221 1805 
Q 2310 2150 2310 2310 
Q 2310 2496 2157 2496 
Q 1971 2496 1750 2275 
Q 1530 2054 1210 1587 
Q 998 1274 899 1024 
Q 800 774 570 0 
L 90 0 
L 704 2240 
Q 717 2304 717 2349 
Q 717 2445 630 2480 
Q 544 2515 301 2522 
L 301 2624 
Q 550 2675 857 2729 
Q 1165 2784 1338 2822 
L 1363 2810 
L 934 1414 
Q 1408 2170 1753 2496 
Q 2099 2822 2413 2822 
Q 2611 2822 2720 2716 
Q 2829 2611 2829 2432 
Q 2829 2272 2765 2048 
L 2406 749 
Q 2317 429 2317 358 
Q 2317 243 2419 243 
Q 2541 243 2810 582 
Q 2854 634 2944 749 
z
" transform="scale(0.015625)"/>
       <path id="STIXGeneral-Regular-28" d="M 1946 -1030 
L 1869 -1133 
Q 1126 -710 716 32 
Q 307 774 307 1613 
Q 307 3386 1888 4326 
L 1946 4224 
Q 1293 3667 1075 3126 
Q 858 2586 858 1632 
Q 858 685 1082 96 
Q 1306 -493 1946 -1030 
z
" transform="scale(0.015625)"/>
       <path id="STIXGeneral-Regular-29" d="M 186 4224 
L 262 4326 
Q 992 3891 1408 3148 
Q 1824 2406 1824 1581 
Q 1824 -166 243 -1133 
L 186 -1030 
Q 845 -486 1059 54 
Q 1274 595 1274 1562 
Q 1274 2534 1059 3120 
Q 845 3706 186 4224 
z
" transform="scale(0.015625)"/>
      </defs>
      <use xlink:href="#STIXNonUnicode-Italic-e156" transform="translate(0 0.40625)"/>
      <use xlink:href="#STIXGeneral-Regular-7c" transform="translate(63.899994 0.40625)"/>
      <use xlink:href="#STIXGeneral-Italic-58" transform="translate(83.899979 0.40625)"/>
      <use xlink:href="#STIXGeneral-Italic-6e" transform="translate(144.999969 -12.821875) scale(0.7)"/>
      <use xlink:href="#STIXGeneral-Regular-2212" transform="translate(198.84933 0.40625)"/>
      <use xlink:href="#STIXGeneral-Italic-58" transform="translate(281.789311 0.40625)"/>
      <use xlink:href="#STIXGeneral-Regular-28" transform="translate(342.889302 0.40625)"/>
      <use xlink:href="#STIXGeneral-Italic-74" transform="translate(376.18929 0.40625)"/>
      <use xlink:href="#STIXGeneral-Italic-6e" transform="translate(403.989278 -12.821875) scale(0.7)"/>
      <use xlink:href="#STIXGeneral-Regular-29" transform="translate(443.398642 0.40625)"/>
      <use xlink:href="#STIXGeneral-Regular-7c" transform="translate(476.69863 0.40625)"/>
     </g>
    </g>
   </g>
   <g id="line2d_41">
    <path d="M 329.919504 86.939564 
L 247.550735 116.032449 
L 165.156046 145.361305 
L 82.758072 172.906383 
" clip-path="url(#p0be110e571)" style="fill: none; stroke: #000000; stroke-width: 1.5; stroke-linecap: square"/>
   </g>
   <g id="patch_3">
    <path d="M 70.4 226.393 
L 70.4 54.492 
" style="fill: none; stroke: #000000; stroke-width: 0.8; stroke-linejoin: miter; stroke-linecap: square"/>
   </g>
   <g id="patch_4">
    <path d="M 342.277576 226.393 
L 342.277576 54.492 
" style="fill: none; stroke: #000000; stroke-width: 0.8; stroke-linejoin: miter; stroke-linecap: square"/>
   </g>
   <g id="patch_5">
    <path d="M 70.4 226.393 
L 342.277576 226.393 
" style="fill: none; stroke: #000000; stroke-width: 0.8; stroke-linejoin: miter; stroke-linecap: square"/>
   </g>
   <g id="patch_6">
    <path d="M 70.4 54.492 
L 342.277576 54.492 
" style="fill: none; stroke: #000000; stroke-width: 0.8; stroke-linejoin: miter; stroke-linecap: square"/>
   </g>
   <g id="text_9">
    <!-- Euler-Maruyama -->
    <g transform="translate(124.365663 23.59125) scale(0.24 -0.24)">
     <defs>
      <path id="STIXGeneral-Regular-45" d="M 3821 1082 
L 3526 0 
L 77 0 
L 77 122 
Q 442 147 538 252 
Q 634 358 634 730 
L 634 3520 
Q 634 3878 534 3987 
Q 435 4096 77 4115 
L 77 4237 
L 3469 4237 
L 3494 3322 
L 3334 3322 
Q 3264 3750 3085 3872 
Q 2906 3994 2349 3994 
L 1510 3994 
Q 1370 3994 1328 3952 
Q 1286 3910 1286 3763 
L 1286 2355 
L 2253 2355 
Q 2656 2355 2787 2470 
Q 2918 2586 2976 2970 
L 3123 2970 
L 3123 1472 
L 2976 1472 
Q 2918 1875 2790 1984 
Q 2662 2093 2253 2093 
L 1286 2093 
L 1286 538 
Q 1286 346 1420 291 
Q 1555 237 1933 237 
L 2163 237 
Q 2848 237 3136 403 
Q 3424 570 3642 1082 
L 3821 1082 
z
" transform="scale(0.015625)"/>
      <path id="STIXGeneral-Regular-75" d="M 3072 320 
L 3072 230 
Q 2573 96 2195 -58 
L 2163 -38 
L 2163 486 
L 2150 486 
Q 1747 -64 1235 -64 
Q 870 -64 662 160 
Q 454 384 454 755 
L 454 2362 
Q 454 2598 371 2688 
Q 288 2778 58 2790 
L 58 2880 
L 992 2880 
L 992 813 
Q 992 595 1123 451 
Q 1254 307 1446 307 
Q 1760 307 1984 506 
Q 2067 582 2099 649 
Q 2131 717 2131 877 
L 2131 2355 
Q 2131 2605 2041 2678 
Q 1952 2752 1658 2771 
L 1658 2880 
L 2669 2880 
L 2669 685 
Q 2669 461 2742 390 
Q 2816 320 3034 320 
L 3072 320 
z
" transform="scale(0.015625)"/>
      <path id="STIXGeneral-Regular-6c" d="M 1645 0 
L 134 0 
L 134 96 
Q 435 122 531 221 
Q 627 320 627 589 
L 627 3590 
Q 627 3821 569 3910 
Q 512 4000 358 4000 
Q 224 4000 122 3987 
L 122 4090 
Q 730 4237 1133 4371 
L 1165 4346 
L 1165 557 
Q 1165 288 1254 201 
Q 1344 115 1645 96 
L 1645 0 
z
" transform="scale(0.015625)"/>
      <path id="STIXGeneral-Regular-65" d="M 2611 1050 
L 2714 1005 
Q 2330 -64 1376 -64 
Q 813 -64 486 329 
Q 160 723 160 1389 
Q 160 2074 525 2509 
Q 890 2944 1485 2944 
Q 2061 2944 2374 2502 
Q 2560 2246 2592 1773 
L 621 1773 
Q 646 1370 700 1158 
Q 755 947 915 730 
Q 1184 378 1626 378 
Q 1939 378 2153 531 
Q 2368 685 2611 1050 
z
M 634 1978 
L 1939 1978 
Q 1882 2381 1750 2547 
Q 1619 2714 1312 2714 
Q 1043 2714 864 2525 
Q 685 2336 634 1978 
z
" transform="scale(0.015625)"/>
      <path id="STIXGeneral-Regular-72" d="M 1024 2931 
L 1024 2342 
Q 1267 2688 1430 2816 
Q 1594 2944 1792 2944 
Q 1958 2944 2051 2854 
Q 2144 2765 2144 2605 
Q 2144 2470 2077 2393 
Q 2010 2317 1894 2317 
Q 1773 2317 1638 2445 
Q 1536 2541 1472 2541 
Q 1338 2541 1181 2355 
Q 1024 2170 1024 2016 
L 1024 576 
Q 1024 301 1133 205 
Q 1242 109 1568 96 
L 1568 0 
L 32 0 
L 32 96 
Q 339 154 412 224 
Q 486 294 486 538 
L 486 2138 
Q 486 2349 438 2435 
Q 390 2522 269 2522 
Q 166 2522 45 2496 
L 45 2598 
Q 448 2726 992 2944 
L 1024 2931 
z
" transform="scale(0.015625)"/>
      <path id="STIXGeneral-Regular-2d" d="M 1824 1242 
L 250 1242 
L 250 1645 
L 1824 1645 
L 1824 1242 
z
" transform="scale(0.015625)"/>
      <path id="STIXGeneral-Regular-4d" d="M 5530 0 
L 3738 0 
L 3738 122 
Q 4115 147 4214 265 
Q 4314 384 4314 787 
L 4314 3661 
L 2682 0 
L 2592 0 
L 979 3514 
L 979 966 
Q 979 448 1088 294 
Q 1197 141 1574 122 
L 1574 0 
L 77 0 
L 77 122 
Q 358 141 480 205 
Q 602 269 650 432 
Q 698 595 698 966 
L 698 3514 
Q 698 3878 589 3984 
Q 480 4090 90 4115 
L 90 4237 
L 1357 4237 
L 2835 1024 
L 4250 4237 
L 5523 4237 
L 5523 4115 
Q 5178 4109 5072 3993 
Q 4966 3878 4966 3520 
L 4966 717 
Q 4966 378 5072 262 
Q 5178 147 5530 122 
L 5530 0 
z
" transform="scale(0.015625)"/>
      <path id="STIXGeneral-Regular-61" d="M 2829 422 
L 2829 243 
Q 2586 -64 2253 -64 
Q 1888 -64 1843 403 
L 1837 403 
Q 1427 -64 909 -64 
Q 608 -64 422 112 
Q 237 288 237 602 
Q 237 1050 685 1350 
Q 992 1555 1837 1869 
L 1837 2214 
Q 1837 2502 1699 2646 
Q 1562 2790 1338 2790 
Q 1146 2790 1018 2697 
Q 890 2605 890 2477 
Q 890 2419 909 2348 
Q 928 2278 928 2208 
Q 928 2112 841 2029 
Q 755 1946 634 1946 
Q 525 1946 441 2029 
Q 358 2112 358 2240 
Q 358 2547 685 2752 
Q 986 2944 1421 2944 
Q 1939 2944 2176 2656 
Q 2291 2522 2323 2384 
Q 2355 2246 2355 1946 
L 2355 723 
Q 2355 301 2554 301 
Q 2682 301 2829 422 
z
M 1837 813 
L 1837 1715 
Q 1248 1510 1018 1293 
Q 800 1094 800 800 
Q 800 557 921 432 
Q 1043 307 1242 307 
Q 1453 307 1613 410 
Q 1747 506 1792 589 
Q 1837 672 1837 813 
z
" transform="scale(0.015625)"/>
      <path id="STIXGeneral-Regular-79" d="M 3040 2880 
L 3040 2784 
Q 2925 2771 2854 2700 
Q 2784 2630 2720 2458 
L 1760 -160 
Q 1510 -838 1257 -1116 
Q 1005 -1395 640 -1395 
Q 435 -1395 313 -1289 
Q 192 -1184 192 -1024 
Q 192 -902 272 -816 
Q 352 -730 467 -730 
Q 653 -730 800 -813 
Q 883 -858 966 -858 
Q 1101 -858 1286 -576 
Q 1376 -448 1459 -211 
Q 1542 26 1542 115 
Q 1542 198 1274 762 
L 429 2566 
Q 346 2752 90 2790 
L 90 2880 
L 1402 2880 
L 1402 2784 
Q 1197 2778 1117 2739 
Q 1037 2701 1037 2611 
Q 1037 2541 1120 2349 
L 1837 749 
L 2458 2515 
Q 2483 2573 2483 2630 
Q 2483 2784 2189 2784 
L 2189 2880 
L 3040 2880 
z
" transform="scale(0.015625)"/>
      <path id="STIXGeneral-Regular-6d" d="M 4960 0 
L 3565 0 
L 3565 96 
Q 3834 122 3907 208 
Q 3981 294 3981 576 
L 3981 1894 
Q 3981 2278 3869 2444 
Q 3757 2611 3488 2611 
Q 3264 2611 3107 2521 
Q 2950 2432 2803 2221 
L 2803 608 
Q 2803 301 2896 201 
Q 2989 102 3264 96 
L 3264 0 
L 1830 0 
L 1830 96 
Q 2112 115 2189 188 
Q 2266 262 2266 550 
L 2266 1901 
Q 2266 2611 1850 2611 
Q 1670 2611 1468 2531 
Q 1267 2451 1171 2336 
Q 1088 2240 1088 2227 
L 1088 448 
Q 1088 243 1177 176 
Q 1267 109 1523 96 
L 1523 0 
L 102 0 
L 102 96 
Q 371 102 460 195 
Q 550 288 550 563 
L 550 2150 
Q 550 2387 499 2480 
Q 448 2573 326 2573 
Q 230 2573 122 2547 
L 122 2656 
Q 557 2778 1011 2944 
L 1062 2925 
L 1062 2451 
L 1075 2451 
Q 1363 2752 1584 2848 
Q 1805 2944 2054 2944 
Q 2560 2944 2733 2406 
Q 3232 2944 3776 2944 
Q 4518 2944 4518 1792 
L 4518 493 
Q 4518 282 4582 202 
Q 4646 122 4794 109 
L 4960 96 
L 4960 0 
z
" transform="scale(0.015625)"/>
     </defs>
     <use xlink:href="#STIXGeneral-Regular-45"/>
     <use xlink:href="#STIXGeneral-Regular-75" x="61.099991"/>
     <use xlink:href="#STIXGeneral-Regular-6c" x="111.099976"/>
     <use xlink:href="#STIXGeneral-Regular-65" x="138.899963"/>
     <use xlink:href="#STIXGeneral-Regular-72" x="183.299957"/>
     <use xlink:href="#STIXGeneral-Regular-2d" x="216.599945"/>
     <use xlink:href="#STIXGeneral-Regular-4d" x="249.899933"/>
     <use xlink:href="#STIXGeneral-Regular-61" x="338.799927"/>
     <use xlink:href="#STIXGeneral-Regular-72" x="383.199921"/>
     <use xlink:href="#STIXGeneral-Regular-75" x="416.499908"/>
     <use xlink:href="#STIXGeneral-Regular-79" x="466.499893"/>
     <use xlink:href="#STIXGeneral-Regular-61" x="516.499878"/>
     <use xlink:href="#STIXGeneral-Regular-6d" x="560.899872"/>
     <use xlink:href="#STIXGeneral-Regular-61" x="638.69986"/>
    </g>
    <!-- strong convergence -->
    <g transform="translate(112.699413 48.492) scale(0.24 -0.24)">
     <defs>
      <path id="STIXGeneral-Regular-73" d="M 998 1926 
L 1664 1523 
Q 1984 1331 2105 1164 
Q 2227 998 2227 736 
Q 2227 416 1961 176 
Q 1696 -64 1331 -64 
Q 1030 -64 864 -6 
Q 691 51 570 51 
Q 461 51 416 -26 
L 333 -26 
L 333 979 
L 435 979 
Q 538 512 730 294 
Q 922 77 1248 77 
Q 1485 77 1632 211 
Q 1779 346 1779 550 
Q 1779 845 1440 1030 
L 1094 1222 
Q 326 1651 326 2150 
Q 326 2522 566 2730 
Q 806 2938 1210 2938 
Q 1491 2938 1638 2867 
Q 1754 2816 1818 2816 
Q 1862 2816 1920 2880 
L 1990 2880 
L 2022 2010 
L 1926 2010 
Q 1818 2445 1654 2621 
Q 1491 2797 1203 2797 
Q 986 2797 854 2688 
Q 723 2579 723 2362 
Q 723 2253 796 2128 
Q 870 2003 998 1926 
z
" transform="scale(0.015625)"/>
      <path id="STIXGeneral-Regular-74" d="M 1702 493 
L 1786 422 
Q 1478 -64 1011 -64 
Q 448 -64 448 749 
L 448 2675 
L 109 2675 
Q 83 2694 83 2720 
Q 83 2771 192 2842 
Q 435 2982 813 3526 
Q 826 3546 874 3606 
Q 922 3667 941 3706 
Q 986 3706 986 3622 
L 986 2880 
L 1632 2880 
L 1632 2675 
L 986 2675 
L 986 845 
Q 986 538 1062 403 
Q 1139 269 1318 269 
Q 1510 269 1702 493 
z
" transform="scale(0.015625)"/>
      <path id="STIXGeneral-Regular-6f" d="M 3008 1478 
Q 3008 806 2608 371 
Q 2208 -64 1568 -64 
Q 979 -64 582 368 
Q 186 800 186 1459 
Q 186 2125 582 2534 
Q 979 2944 1626 2944 
Q 2221 2944 2614 2537 
Q 3008 2131 3008 1478 
z
M 2432 1306 
Q 2432 2035 2112 2445 
Q 1856 2765 1504 2765 
Q 1171 2765 966 2493 
Q 762 2221 762 1747 
Q 762 928 1101 435 
Q 1318 115 1677 115 
Q 2029 115 2230 432 
Q 2432 749 2432 1306 
z
" transform="scale(0.015625)"/>
      <path id="STIXGeneral-Regular-6e" d="M 3104 0 
L 1773 0 
L 1779 96 
Q 2016 115 2096 233 
Q 2176 352 2176 672 
L 2176 1946 
Q 2176 2592 1709 2592 
Q 1549 2592 1408 2515 
Q 1267 2438 1050 2227 
L 1050 461 
Q 1050 269 1136 192 
Q 1222 115 1466 96 
L 1466 0 
L 115 0 
L 115 96 
Q 358 115 435 214 
Q 512 314 512 602 
L 512 2157 
Q 512 2394 467 2483 
Q 422 2573 288 2573 
Q 160 2573 102 2547 
L 102 2656 
Q 550 2784 979 2944 
L 1030 2925 
L 1030 2426 
L 1037 2426 
Q 1491 2944 1958 2944 
Q 2323 2944 2518 2688 
Q 2714 2432 2714 1958 
L 2714 544 
Q 2714 288 2790 205 
Q 2867 122 3104 96 
L 3104 0 
z
" transform="scale(0.015625)"/>
      <path id="STIXGeneral-Regular-67" d="M 3008 2483 
L 2477 2483 
Q 2598 2208 2598 1946 
Q 2598 1453 2265 1203 
Q 1933 954 1600 954 
Q 1530 954 1357 973 
L 1235 986 
Q 1107 947 979 812 
Q 851 678 851 582 
Q 851 435 1350 410 
L 2176 371 
Q 2528 358 2739 172 
Q 2950 -13 2950 -314 
Q 2950 -685 2566 -986 
Q 2035 -1395 1286 -1395 
Q 826 -1395 502 -1212 
Q 179 -1030 179 -774 
Q 179 -595 320 -419 
Q 461 -243 806 6 
Q 602 102 534 172 
Q 467 243 467 346 
Q 467 531 762 787 
Q 909 915 1037 1043 
Q 717 1203 579 1401 
Q 442 1600 442 1901 
Q 442 2336 752 2640 
Q 1062 2944 1510 2944 
Q 1766 2944 2022 2848 
L 2163 2797 
Q 2349 2733 2515 2733 
L 3008 2733 
L 3008 2483 
z
M 973 2163 
L 973 2144 
Q 973 1683 1155 1398 
Q 1338 1114 1632 1114 
Q 1850 1114 1978 1270 
Q 2106 1427 2106 1690 
Q 2106 2112 1914 2464 
Q 1754 2765 1446 2765 
Q 1222 2765 1097 2605 
Q 973 2445 973 2163 
z
M 2771 -410 
Q 2771 -230 2595 -163 
Q 2419 -96 1978 -96 
Q 1344 -96 941 -13 
Q 749 -243 688 -348 
Q 627 -454 627 -563 
Q 627 -774 880 -902 
Q 1133 -1030 1555 -1030 
Q 2099 -1030 2435 -860 
Q 2771 -691 2771 -410 
z
" transform="scale(0.015625)"/>
      <path id="STIXGeneral-Regular-20" transform="scale(0.015625)"/>
      <path id="STIXGeneral-Regular-63" d="M 2547 998 
L 2637 941 
Q 2362 403 2112 205 
Q 1786 -64 1376 -64 
Q 845 -64 502 336 
Q 160 736 160 1357 
Q 160 2170 698 2618 
Q 1094 2944 1562 2944 
Q 1965 2944 2256 2749 
Q 2547 2554 2547 2285 
Q 2547 2176 2457 2096 
Q 2368 2016 2246 2016 
Q 2022 2016 1939 2310 
L 1901 2451 
Q 1850 2630 1773 2694 
Q 1696 2758 1523 2758 
Q 1133 2758 893 2451 
Q 653 2144 653 1645 
Q 653 1094 928 745 
Q 1203 397 1645 397 
Q 1920 397 2118 528 
Q 2317 659 2547 998 
z
" transform="scale(0.015625)"/>
      <path id="STIXGeneral-Regular-76" d="M 3053 2880 
L 3053 2784 
Q 2906 2771 2835 2688 
Q 2765 2605 2637 2285 
L 1818 230 
Q 1690 -90 1638 -90 
Q 1587 -90 1523 77 
Q 1510 96 1497 141 
Q 1485 186 1472 211 
L 704 2048 
Q 499 2534 403 2652 
Q 307 2771 122 2784 
L 122 2880 
L 1376 2880 
L 1376 2784 
Q 1210 2771 1146 2732 
Q 1082 2694 1082 2611 
Q 1082 2509 1139 2368 
L 1792 730 
L 2426 2387 
Q 2464 2483 2464 2579 
Q 2464 2758 2163 2784 
L 2163 2880 
L 3053 2880 
z
" transform="scale(0.015625)"/>
     </defs>
     <use xlink:href="#STIXGeneral-Regular-73"/>
     <use xlink:href="#STIXGeneral-Regular-74" x="38.899994"/>
     <use xlink:href="#STIXGeneral-Regular-72" x="66.699982"/>
     <use xlink:href="#STIXGeneral-Regular-6f" x="99.999969"/>
     <use xlink:href="#STIXGeneral-Regular-6e" x="149.999954"/>
     <use xlink:href="#STIXGeneral-Regular-67" x="199.999939"/>
     <use xlink:href="#STIXGeneral-Regular-20" x="249.999924"/>
     <use xlink:href="#STIXGeneral-Regular-63" x="274.999908"/>
     <use xlink:href="#STIXGeneral-Regular-6f" x="319.399902"/>
     <use xlink:href="#STIXGeneral-Regular-6e" x="369.399887"/>
     <use xlink:href="#STIXGeneral-Regular-76" x="419.399872"/>
     <use xlink:href="#STIXGeneral-Regular-65" x="469.399857"/>
     <use xlink:href="#STIXGeneral-Regular-72" x="513.79985"/>
     <use xlink:href="#STIXGeneral-Regular-67" x="547.099838"/>
     <use xlink:href="#STIXGeneral-Regular-65" x="597.099823"/>
     <use xlink:href="#STIXGeneral-Regular-6e" x="641.499817"/>
     <use xlink:href="#STIXGeneral-Regular-63" x="691.499802"/>
     <use xlink:href="#STIXGeneral-Regular-65" x="735.899796"/>
    </g>
   </g>
  </g>
  <g id="axes_2">
   <g id="patch_7">
    <path d="M 425 226.393 
L 696.877576 226.393 
L 696.877576 54.492 
L 425 54.492 
z
" style="fill: #ffffff"/>
   </g>
   <g id="matplotlib.axis_3">
    <g id="xtick_22">
     <g id="line2d_42">
      <g>
       <use xlink:href="#m1b33e15fbe" x="437.358072" y="226.393" style="stroke: #000000; stroke-width: 0.8"/>
      </g>
     </g>
     <g id="text_10">
      <!-- $\mathdefault{10^{-4}}$ -->
      <g transform="translate(420.258072 245.686438) scale(0.18 -0.18)">
       <use xlink:href="#STIXGeneral-Regular-31" transform="translate(0 0.684375)"/>
       <use xlink:href="#STIXGeneral-Regular-30" transform="translate(49.999985 0.684375)"/>
       <use xlink:href="#STIXGeneral-Regular-2212" transform="translate(101.574969 36.684375) scale(0.7)"/>
       <use xlink:href="#STIXGeneral-Regular-34" transform="translate(149.524959 36.684375) scale(0.7)"/>
      </g>
     </g>
    </g>
    <g id="xtick_23">
     <g id="line2d_43">
      <g>
       <use xlink:href="#m1b33e15fbe" x="560.938788" y="226.393" style="stroke: #000000; stroke-width: 0.8"/>
      </g>
     </g>
     <g id="text_11">
      <!-- $\mathdefault{10^{-3}}$ -->
      <g transform="translate(543.838788 245.686438) scale(0.18 -0.18)">
       <use xlink:href="#STIXGeneral-Regular-31" transform="translate(0 0.684375)"/>
       <use xlink:href="#STIXGeneral-Regular-30" transform="translate(49.999985 0.684375)"/>
       <use xlink:href="#STIXGeneral-Regular-2212" transform="translate(101.574969 36.684375) scale(0.7)"/>
       <use xlink:href="#STIXGeneral-Regular-33" transform="translate(149.524959 36.684375) scale(0.7)"/>
      </g>
     </g>
    </g>
    <g id="xtick_24">
     <g id="line2d_44">
      <g>
       <use xlink:href="#m1b33e15fbe" x="684.519504" y="226.393" style="stroke: #000000; stroke-width: 0.8"/>
      </g>
     </g>
     <g id="text_12">
      <!-- $\mathdefault{10^{-2}}$ -->
      <g transform="translate(667.419504 245.686438) scale(0.18 -0.18)">
       <use xlink:href="#STIXGeneral-Regular-31" transform="translate(0 0.684375)"/>
       <use xlink:href="#STIXGeneral-Regular-30" transform="translate(49.999985 0.684375)"/>
       <use xlink:href="#STIXGeneral-Regular-2212" transform="translate(101.574969 36.684375) scale(0.7)"/>
       <use xlink:href="#STIXGeneral-Regular-32" transform="translate(149.524959 36.684375) scale(0.7)"/>
      </g>
     </g>
    </g>
    <g id="xtick_25">
     <g id="line2d_45">
      <g>
       <use xlink:href="#m1bdf8259cf" x="425.381863" y="226.393" style="stroke: #000000; stroke-width: 0.6"/>
      </g>
     </g>
    </g>
    <g id="xtick_26">
     <g id="line2d_46">
      <g>
       <use xlink:href="#m1bdf8259cf" x="431.703328" y="226.393" style="stroke: #000000; stroke-width: 0.6"/>
      </g>
     </g>
    </g>
    <g id="xtick_27">
     <g id="line2d_47">
      <g>
       <use xlink:href="#m1bdf8259cf" x="474.559574" y="226.393" style="stroke: #000000; stroke-width: 0.6"/>
      </g>
     </g>
    </g>
    <g id="xtick_28">
     <g id="line2d_48">
      <g>
       <use xlink:href="#m1bdf8259cf" x="496.321058" y="226.393" style="stroke: #000000; stroke-width: 0.6"/>
      </g>
     </g>
    </g>
    <g id="xtick_29">
     <g id="line2d_49">
      <g>
       <use xlink:href="#m1bdf8259cf" x="511.761077" y="226.393" style="stroke: #000000; stroke-width: 0.6"/>
      </g>
     </g>
    </g>
    <g id="xtick_30">
     <g id="line2d_50">
      <g>
       <use xlink:href="#m1bdf8259cf" x="523.737285" y="226.393" style="stroke: #000000; stroke-width: 0.6"/>
      </g>
     </g>
    </g>
    <g id="xtick_31">
     <g id="line2d_51">
      <g>
       <use xlink:href="#m1bdf8259cf" x="533.52256" y="226.393" style="stroke: #000000; stroke-width: 0.6"/>
      </g>
     </g>
    </g>
    <g id="xtick_32">
     <g id="line2d_52">
      <g>
       <use xlink:href="#m1bdf8259cf" x="541.795893" y="226.393" style="stroke: #000000; stroke-width: 0.6"/>
      </g>
     </g>
    </g>
    <g id="xtick_33">
     <g id="line2d_53">
      <g>
       <use xlink:href="#m1bdf8259cf" x="548.962579" y="226.393" style="stroke: #000000; stroke-width: 0.6"/>
      </g>
     </g>
    </g>
    <g id="xtick_34">
     <g id="line2d_54">
      <g>
       <use xlink:href="#m1bdf8259cf" x="555.284044" y="226.393" style="stroke: #000000; stroke-width: 0.6"/>
      </g>
     </g>
    </g>
    <g id="xtick_35">
     <g id="line2d_55">
      <g>
       <use xlink:href="#m1bdf8259cf" x="598.14029" y="226.393" style="stroke: #000000; stroke-width: 0.6"/>
      </g>
     </g>
    </g>
    <g id="xtick_36">
     <g id="line2d_56">
      <g>
       <use xlink:href="#m1bdf8259cf" x="619.901774" y="226.393" style="stroke: #000000; stroke-width: 0.6"/>
      </g>
     </g>
    </g>
    <g id="xtick_37">
     <g id="line2d_57">
      <g>
       <use xlink:href="#m1bdf8259cf" x="635.341793" y="226.393" style="stroke: #000000; stroke-width: 0.6"/>
      </g>
     </g>
    </g>
    <g id="xtick_38">
     <g id="line2d_58">
      <g>
       <use xlink:href="#m1bdf8259cf" x="647.318002" y="226.393" style="stroke: #000000; stroke-width: 0.6"/>
      </g>
     </g>
    </g>
    <g id="xtick_39">
     <g id="line2d_59">
      <g>
       <use xlink:href="#m1bdf8259cf" x="657.103277" y="226.393" style="stroke: #000000; stroke-width: 0.6"/>
      </g>
     </g>
    </g>
    <g id="xtick_40">
     <g id="line2d_60">
      <g>
       <use xlink:href="#m1bdf8259cf" x="665.376609" y="226.393" style="stroke: #000000; stroke-width: 0.6"/>
      </g>
     </g>
    </g>
    <g id="xtick_41">
     <g id="line2d_61">
      <g>
       <use xlink:href="#m1bdf8259cf" x="672.543295" y="226.393" style="stroke: #000000; stroke-width: 0.6"/>
      </g>
     </g>
    </g>
    <g id="xtick_42">
     <g id="line2d_62">
      <g>
       <use xlink:href="#m1bdf8259cf" x="678.864761" y="226.393" style="stroke: #000000; stroke-width: 0.6"/>
      </g>
     </g>
    </g>
    <g id="text_13">
     <!-- $\delta t$ -->
     <g transform="translate(553.538788 267.252375) scale(0.2 -0.2)">
      <use xlink:href="#STIXGeneral-Italic-3b4" transform="translate(0 0.203125)"/>
      <use xlink:href="#STIXGeneral-Italic-74" transform="translate(45.999985 0.203125)"/>
     </g>
    </g>
   </g>
   <g id="matplotlib.axis_4">
    <g id="ytick_20">
     <g id="line2d_63">
      <g>
       <use xlink:href="#ma118c891ea" x="425" y="209.345112" style="stroke: #000000; stroke-width: 0.8"/>
      </g>
     </g>
     <g id="text_14">
      <!-- $\mathdefault{10^{-3}}$ -->
      <g transform="translate(383.8 215.491831) scale(0.18 -0.18)">
       <use xlink:href="#STIXGeneral-Regular-31" transform="translate(0 0.684375)"/>
       <use xlink:href="#STIXGeneral-Regular-30" transform="translate(49.999985 0.684375)"/>
       <use xlink:href="#STIXGeneral-Regular-2212" transform="translate(101.574969 36.684375) scale(0.7)"/>
       <use xlink:href="#STIXGeneral-Regular-33" transform="translate(149.524959 36.684375) scale(0.7)"/>
      </g>
     </g>
    </g>
    <g id="ytick_21">
     <g id="line2d_64">
      <g>
       <use xlink:href="#ma118c891ea" x="425" y="157.727408" style="stroke: #000000; stroke-width: 0.8"/>
      </g>
     </g>
     <g id="text_15">
      <!-- $\mathdefault{10^{-2}}$ -->
      <g transform="translate(383.8 163.874127) scale(0.18 -0.18)">
       <use xlink:href="#STIXGeneral-Regular-31" transform="translate(0 0.684375)"/>
       <use xlink:href="#STIXGeneral-Regular-30" transform="translate(49.999985 0.684375)"/>
       <use xlink:href="#STIXGeneral-Regular-2212" transform="translate(101.574969 36.684375) scale(0.7)"/>
       <use xlink:href="#STIXGeneral-Regular-32" transform="translate(149.524959 36.684375) scale(0.7)"/>
      </g>
     </g>
    </g>
    <g id="ytick_22">
     <g id="line2d_65">
      <g>
       <use xlink:href="#ma118c891ea" x="425" y="106.109704" style="stroke: #000000; stroke-width: 0.8"/>
      </g>
     </g>
     <g id="text_16">
      <!-- $\mathdefault{10^{-1}}$ -->
      <g transform="translate(383.8 112.256423) scale(0.18 -0.18)">
       <use xlink:href="#STIXGeneral-Regular-31" transform="translate(0 0.684375)"/>
       <use xlink:href="#STIXGeneral-Regular-30" transform="translate(49.999985 0.684375)"/>
       <use xlink:href="#STIXGeneral-Regular-2212" transform="translate(101.574969 36.684375) scale(0.7)"/>
       <use xlink:href="#STIXGeneral-Regular-31" transform="translate(149.524959 36.684375) scale(0.7)"/>
      </g>
     </g>
    </g>
    <g id="ytick_23">
     <g id="line2d_66">
      <g>
       <use xlink:href="#ma118c891ea" x="425" y="54.492" style="stroke: #000000; stroke-width: 0.8"/>
      </g>
     </g>
     <g id="text_17">
      <!-- $\mathdefault{10^{0}}$ -->
      <g transform="translate(392.44 60.638719) scale(0.18 -0.18)">
       <use xlink:href="#STIXGeneral-Regular-31" transform="translate(0 0.684375)"/>
       <use xlink:href="#STIXGeneral-Regular-30" transform="translate(49.999985 0.684375)"/>
       <use xlink:href="#STIXGeneral-Regular-30" transform="translate(101.574969 36.684375) scale(0.7)"/>
      </g>
     </g>
    </g>
    <g id="ytick_24">
     <g id="line2d_67">
      <g>
       <use xlink:href="#mf85d4b63c9" x="425" y="224.883589" style="stroke: #000000; stroke-width: 0.6"/>
      </g>
     </g>
    </g>
    <g id="ytick_25">
     <g id="line2d_68">
      <g>
       <use xlink:href="#mf85d4b63c9" x="425" y="220.796435" style="stroke: #000000; stroke-width: 0.6"/>
      </g>
     </g>
    </g>
    <g id="ytick_26">
     <g id="line2d_69">
      <g>
       <use xlink:href="#mf85d4b63c9" x="425" y="217.340795" style="stroke: #000000; stroke-width: 0.6"/>
      </g>
     </g>
    </g>
    <g id="ytick_27">
     <g id="line2d_70">
      <g>
       <use xlink:href="#mf85d4b63c9" x="425" y="214.347384" style="stroke: #000000; stroke-width: 0.6"/>
      </g>
     </g>
    </g>
    <g id="ytick_28">
     <g id="line2d_71">
      <g>
       <use xlink:href="#mf85d4b63c9" x="425" y="211.707008" style="stroke: #000000; stroke-width: 0.6"/>
      </g>
     </g>
    </g>
    <g id="ytick_29">
     <g id="line2d_72">
      <g>
       <use xlink:href="#mf85d4b63c9" x="425" y="193.806635" style="stroke: #000000; stroke-width: 0.6"/>
      </g>
     </g>
    </g>
    <g id="ytick_30">
     <g id="line2d_73">
      <g>
       <use xlink:href="#mf85d4b63c9" x="425" y="184.717208" style="stroke: #000000; stroke-width: 0.6"/>
      </g>
     </g>
    </g>
    <g id="ytick_31">
     <g id="line2d_74">
      <g>
       <use xlink:href="#mf85d4b63c9" x="425" y="178.268157" style="stroke: #000000; stroke-width: 0.6"/>
      </g>
     </g>
    </g>
    <g id="ytick_32">
     <g id="line2d_75">
      <g>
       <use xlink:href="#mf85d4b63c9" x="425" y="173.265885" style="stroke: #000000; stroke-width: 0.6"/>
      </g>
     </g>
    </g>
    <g id="ytick_33">
     <g id="line2d_76">
      <g>
       <use xlink:href="#mf85d4b63c9" x="425" y="169.178731" style="stroke: #000000; stroke-width: 0.6"/>
      </g>
     </g>
    </g>
    <g id="ytick_34">
     <g id="line2d_77">
      <g>
       <use xlink:href="#mf85d4b63c9" x="425" y="165.723091" style="stroke: #000000; stroke-width: 0.6"/>
      </g>
     </g>
    </g>
    <g id="ytick_35">
     <g id="line2d_78">
      <g>
       <use xlink:href="#mf85d4b63c9" x="425" y="162.72968" style="stroke: #000000; stroke-width: 0.6"/>
      </g>
     </g>
    </g>
    <g id="ytick_36">
     <g id="line2d_79">
      <g>
       <use xlink:href="#mf85d4b63c9" x="425" y="160.089304" style="stroke: #000000; stroke-width: 0.6"/>
      </g>
     </g>
    </g>
    <g id="ytick_37">
     <g id="line2d_80">
      <g>
       <use xlink:href="#mf85d4b63c9" x="425" y="142.188931" style="stroke: #000000; stroke-width: 0.6"/>
      </g>
     </g>
    </g>
    <g id="ytick_38">
     <g id="line2d_81">
      <g>
       <use xlink:href="#mf85d4b63c9" x="425" y="133.099504" style="stroke: #000000; stroke-width: 0.6"/>
      </g>
     </g>
    </g>
    <g id="ytick_39">
     <g id="line2d_82">
      <g>
       <use xlink:href="#mf85d4b63c9" x="425" y="126.650453" style="stroke: #000000; stroke-width: 0.6"/>
      </g>
     </g>
    </g>
    <g id="ytick_40">
     <g id="line2d_83">
      <g>
       <use xlink:href="#mf85d4b63c9" x="425" y="121.648181" style="stroke: #000000; stroke-width: 0.6"/>
      </g>
     </g>
    </g>
    <g id="ytick_41">
     <g id="line2d_84">
      <g>
       <use xlink:href="#mf85d4b63c9" x="425" y="117.561027" style="stroke: #000000; stroke-width: 0.6"/>
      </g>
     </g>
    </g>
    <g id="ytick_42">
     <g id="line2d_85">
      <g>
       <use xlink:href="#mf85d4b63c9" x="425" y="114.105387" style="stroke: #000000; stroke-width: 0.6"/>
      </g>
     </g>
    </g>
    <g id="ytick_43">
     <g id="line2d_86">
      <g>
       <use xlink:href="#mf85d4b63c9" x="425" y="111.111976" style="stroke: #000000; stroke-width: 0.6"/>
      </g>
     </g>
    </g>
    <g id="ytick_44">
     <g id="line2d_87">
      <g>
       <use xlink:href="#mf85d4b63c9" x="425" y="108.471601" style="stroke: #000000; stroke-width: 0.6"/>
      </g>
     </g>
    </g>
    <g id="ytick_45">
     <g id="line2d_88">
      <g>
       <use xlink:href="#mf85d4b63c9" x="425" y="90.571227" style="stroke: #000000; stroke-width: 0.6"/>
      </g>
     </g>
    </g>
    <g id="ytick_46">
     <g id="line2d_89">
      <g>
       <use xlink:href="#mf85d4b63c9" x="425" y="81.4818" style="stroke: #000000; stroke-width: 0.6"/>
      </g>
     </g>
    </g>
    <g id="ytick_47">
     <g id="line2d_90">
      <g>
       <use xlink:href="#mf85d4b63c9" x="425" y="75.03275" style="stroke: #000000; stroke-width: 0.6"/>
      </g>
     </g>
    </g>
    <g id="ytick_48">
     <g id="line2d_91">
      <g>
       <use xlink:href="#mf85d4b63c9" x="425" y="70.030477" style="stroke: #000000; stroke-width: 0.6"/>
      </g>
     </g>
    </g>
    <g id="ytick_49">
     <g id="line2d_92">
      <g>
       <use xlink:href="#mf85d4b63c9" x="425" y="65.943323" style="stroke: #000000; stroke-width: 0.6"/>
      </g>
     </g>
    </g>
    <g id="ytick_50">
     <g id="line2d_93">
      <g>
       <use xlink:href="#mf85d4b63c9" x="425" y="62.487684" style="stroke: #000000; stroke-width: 0.6"/>
      </g>
     </g>
    </g>
    <g id="ytick_51">
     <g id="line2d_94">
      <g>
       <use xlink:href="#mf85d4b63c9" x="425" y="59.494272" style="stroke: #000000; stroke-width: 0.6"/>
      </g>
     </g>
    </g>
    <g id="ytick_52">
     <g id="line2d_95">
      <g>
       <use xlink:href="#mf85d4b63c9" x="425" y="56.853897" style="stroke: #000000; stroke-width: 0.6"/>
      </g>
     </g>
    </g>
    <g id="text_18">
     <!-- $|\mathbb{E}X_n - \mathbb{E}X(t_n)|$ -->
     <g transform="translate(375.459375 196.5425) rotate(-90) scale(0.2 -0.2)">
      <use xlink:href="#STIXGeneral-Regular-7c" transform="translate(0 0.40625)"/>
      <use xlink:href="#STIXNonUnicode-Italic-e156" transform="translate(19.999985 0.40625)"/>
      <use xlink:href="#STIXGeneral-Italic-58" transform="translate(83.899979 0.40625)"/>
      <use xlink:href="#STIXGeneral-Italic-6e" transform="translate(144.999969 -12.821875) scale(0.7)"/>
      <use xlink:href="#STIXGeneral-Regular-2212" transform="translate(198.84933 0.40625)"/>
      <use xlink:href="#STIXNonUnicode-Italic-e156" transform="translate(281.789311 0.40625)"/>
      <use xlink:href="#STIXGeneral-Italic-58" transform="translate(345.689305 0.40625)"/>
      <use xlink:href="#STIXGeneral-Regular-28" transform="translate(406.789296 0.40625)"/>
      <use xlink:href="#STIXGeneral-Italic-74" transform="translate(440.089284 0.40625)"/>
      <use xlink:href="#STIXGeneral-Italic-6e" transform="translate(467.889272 -12.821875) scale(0.7)"/>
      <use xlink:href="#STIXGeneral-Regular-29" transform="translate(507.298636 0.40625)"/>
      <use xlink:href="#STIXGeneral-Regular-7c" transform="translate(540.598624 0.40625)"/>
     </g>
    </g>
   </g>
   <g id="line2d_96">
    <path d="M 684.519504 99.042027 
L 602.150735 138.886099 
L 519.756046 201.371069 
L 437.358072 220.328668 
" clip-path="url(#pe099dde999)" style="fill: none; stroke: #000000; stroke-width: 1.5; stroke-linecap: square"/>
   </g>
   <g id="patch_8">
    <path d="M 425 226.393 
L 425 54.492 
" style="fill: none; stroke: #000000; stroke-width: 0.8; stroke-linejoin: miter; stroke-linecap: square"/>
   </g>
   <g id="patch_9">
    <path d="M 696.877576 226.393 
L 696.877576 54.492 
" style="fill: none; stroke: #000000; stroke-width: 0.8; stroke-linejoin: miter; stroke-linecap: square"/>
   </g>
   <g id="patch_10">
    <path d="M 425 226.393 
L 696.877576 226.393 
" style="fill: none; stroke: #000000; stroke-width: 0.8; stroke-linejoin: miter; stroke-linecap: square"/>
   </g>
   <g id="patch_11">
    <path d="M 425 54.492 
L 696.877576 54.492 
" style="fill: none; stroke: #000000; stroke-width: 0.8; stroke-linejoin: miter; stroke-linecap: square"/>
   </g>
   <g id="text_19">
    <!-- Euler-Maruyama -->
    <g transform="translate(478.965663 23.59125) scale(0.24 -0.24)">
     <use xlink:href="#STIXGeneral-Regular-45"/>
     <use xlink:href="#STIXGeneral-Regular-75" x="61.099991"/>
     <use xlink:href="#STIXGeneral-Regular-6c" x="111.099976"/>
     <use xlink:href="#STIXGeneral-Regular-65" x="138.899963"/>
     <use xlink:href="#STIXGeneral-Regular-72" x="183.299957"/>
     <use xlink:href="#STIXGeneral-Regular-2d" x="216.599945"/>
     <use xlink:href="#STIXGeneral-Regular-4d" x="249.899933"/>
     <use xlink:href="#STIXGeneral-Regular-61" x="338.799927"/>
     <use xlink:href="#STIXGeneral-Regular-72" x="383.199921"/>
     <use xlink:href="#STIXGeneral-Regular-75" x="416.499908"/>
     <use xlink:href="#STIXGeneral-Regular-79" x="466.499893"/>
     <use xlink:href="#STIXGeneral-Regular-61" x="516.499878"/>
     <use xlink:href="#STIXGeneral-Regular-6d" x="560.899872"/>
     <use xlink:href="#STIXGeneral-Regular-61" x="638.69986"/>
    </g>
    <!-- weak convergence -->
    <g transform="translate(471.977538 48.492) scale(0.24 -0.24)">
     <defs>
      <path id="STIXGeneral-Regular-77" d="M 4442 2880 
L 4442 2784 
Q 4346 2752 4301 2691 
Q 4256 2630 4179 2438 
L 3296 224 
Q 3168 -90 3117 -90 
Q 3085 -90 3062 -48 
Q 3040 -6 2963 186 
L 2381 1696 
L 1664 160 
Q 1549 -90 1504 -90 
Q 1446 -90 1338 192 
L 474 2381 
Q 378 2630 314 2700 
Q 250 2771 134 2784 
L 134 2880 
L 1286 2880 
L 1286 2784 
Q 1120 2765 1056 2720 
Q 992 2675 992 2573 
Q 992 2477 1030 2381 
L 1664 710 
L 2246 1984 
L 2118 2342 
Q 2029 2598 1942 2681 
Q 1856 2765 1677 2784 
L 1677 2880 
L 2976 2880 
L 2976 2784 
Q 2752 2752 2678 2707 
Q 2605 2662 2605 2560 
Q 2605 2458 2714 2176 
L 3251 742 
L 3827 2163 
Q 3936 2432 3936 2592 
Q 3936 2669 3875 2710 
Q 3814 2752 3654 2784 
L 3654 2880 
L 4442 2880 
z
" transform="scale(0.015625)"/>
      <path id="STIXGeneral-Regular-6b" d="M 3232 0 
L 1837 0 
L 1837 96 
L 1958 96 
Q 2093 96 2093 192 
Q 2093 250 2022 339 
L 1062 1606 
L 1062 429 
Q 1062 262 1142 185 
Q 1222 109 1414 102 
L 1542 96 
L 1542 0 
L 45 0 
L 45 96 
Q 390 154 457 214 
Q 525 275 525 525 
L 525 3610 
Q 525 3840 467 3920 
Q 410 4000 250 4000 
Q 211 4000 45 3987 
L 45 4090 
L 237 4141 
Q 621 4243 1037 4371 
L 1062 4358 
L 1062 1670 
L 1939 2451 
Q 2086 2586 2086 2675 
Q 2086 2739 2019 2761 
Q 1952 2784 1766 2790 
L 1766 2880 
L 3072 2880 
L 3072 2784 
Q 2752 2784 2505 2646 
Q 2259 2509 1690 1978 
L 1504 1805 
L 2483 563 
Q 2829 122 3232 96 
L 3232 0 
z
" transform="scale(0.015625)"/>
     </defs>
     <use xlink:href="#STIXGeneral-Regular-77"/>
     <use xlink:href="#STIXGeneral-Regular-65" x="72.199982"/>
     <use xlink:href="#STIXGeneral-Regular-61" x="116.599976"/>
     <use xlink:href="#STIXGeneral-Regular-6b" x="160.999969"/>
     <use xlink:href="#STIXGeneral-Regular-20" x="210.999954"/>
     <use xlink:href="#STIXGeneral-Regular-63" x="235.999939"/>
     <use xlink:href="#STIXGeneral-Regular-6f" x="280.399933"/>
     <use xlink:href="#STIXGeneral-Regular-6e" x="330.399918"/>
     <use xlink:href="#STIXGeneral-Regular-76" x="380.399902"/>
     <use xlink:href="#STIXGeneral-Regular-65" x="430.399887"/>
     <use xlink:href="#STIXGeneral-Regular-72" x="474.799881"/>
     <use xlink:href="#STIXGeneral-Regular-67" x="508.099869"/>
     <use xlink:href="#STIXGeneral-Regular-65" x="558.099854"/>
     <use xlink:href="#STIXGeneral-Regular-6e" x="602.499847"/>
     <use xlink:href="#STIXGeneral-Regular-63" x="652.499832"/>
     <use xlink:href="#STIXGeneral-Regular-65" x="696.899826"/>
    </g>
   </g>
  </g>
 </g>
 <defs>
  <clipPath id="p0be110e571">
   <rect x="70.4" y="54.492" width="271.877576" height="171.901"/>
  </clipPath>
  <clipPath id="pe099dde999">
   <rect x="425" y="54.492" width="271.877576" height="171.901"/>
  </clipPath>
 </defs>
</svg>