<?xml version="1.0" encoding="utf-8" standalone="no"?>
<!DOCTYPE svg PUBLIC "-//W3C//DTD SVG 1.1//EN"
  "http://www.w3.org/Graphics/SVG/1.1/DTD/svg11.dtd">
<svg xmlns:xlink="http://www.w3.org/1999/xlink" width="632.16pt" height="303.75125pt" viewBox="0 0 632.16 303.75125" xmlns="http://www.w3.org/2000/svg" version="1.1">
 <metadata>
  <rdf:RDF xmlns:dc="http://purl.org/dc/elements/1.1/" xmlns:cc="http://creativecommons.org/ns#" xmlns:rdf="http://www.w3.org/1999/02/22-rdf-syntax-ns#">
   <cc:Work>
    <dc:type rdf:resource="http://purl.org/dc/dcmitype/StillImage"/>
    <dc:date>2024-03-03T15:13:36.306009</dc:date>
    <dc:format>image/svg+xml</dc:format>
    <dc:creator>
     <cc:Agent>
      <dc:title>Matplotlib v3.8.0, https://matplotlib.org/</dc:title>
     </cc:Agent>
    </dc:creator>
   </cc:Work>
  </rdf:RDF>
 </metadata>
 <defs>
  <style type="text/css">*{stroke-linejoin: round; stroke-linecap: butt}</style>
 </defs>
 <g id="figure_1">
  <g id="patch_1">
   <path d="M 0 303.75125 
L 632.16 303.75125 
L 632.16 0 
L 0 0 
z
" style="fill: #ffffff"/>
  </g>
  <g id="axes_1">
   <g id="patch_2">
    <path d="M 56.96 251.35125 
L 614.96 251.35125 
L 614.96 29.59125 
L 56.96 29.59125 
z
" style="fill: #ffffff"/>
   </g>
   <g id="matplotlib.axis_1">
    <g id="xtick_1">
     <g id="line2d_1">
      <defs>
       <path id="mf622c2aea7" d="M 0 0 
L 0 3.5 
" style="stroke: #000000; stroke-width: 0.8"/>
      </defs>
      <g>
       <use xlink:href="#mf622c2aea7" x="56.96" y="251.35125" style="stroke: #000000; stroke-width: 0.8"/>
      </g>
     </g>
     <g id="text_1">
      <!-- 0.0 -->
      <g transform="translate(46.96 269.27875) scale(0.16 -0.16)">
       <defs>
        <path id="STIXGeneral-Regular-30" d="M 3046 2112 
Q 3046 1683 2963 1302 
Q 2880 922 2717 602 
Q 2554 282 2266 96 
Q 1978 -90 1600 -90 
Q 1210 -90 915 108 
Q 621 307 461 640 
Q 301 973 227 1350 
Q 154 1728 154 2150 
Q 154 2746 301 3222 
Q 448 3699 790 4012 
Q 1133 4326 1626 4326 
Q 2253 4326 2649 3712 
Q 3046 3098 3046 2112 
z
M 2432 2080 
Q 2432 3091 2217 3625 
Q 2003 4160 1587 4160 
Q 1190 4160 979 3622 
Q 768 3085 768 2106 
Q 768 1120 979 598 
Q 1190 77 1600 77 
Q 2003 77 2217 598 
Q 2432 1120 2432 2080 
z
" transform="scale(0.015625)"/>
        <path id="STIXGeneral-Regular-2e" d="M 1158 275 
Q 1158 134 1052 32 
Q 947 -70 800 -70 
Q 653 -70 550 32 
Q 448 134 448 281 
Q 448 429 553 534 
Q 659 640 806 640 
Q 947 640 1052 531 
Q 1158 422 1158 275 
z
" transform="scale(0.015625)"/>
       </defs>
       <use xlink:href="#STIXGeneral-Regular-30"/>
       <use xlink:href="#STIXGeneral-Regular-2e" x="49.999985"/>
       <use xlink:href="#STIXGeneral-Regular-30" x="74.999969"/>
      </g>
     </g>
    </g>
    <g id="xtick_2">
     <g id="line2d_2">
      <g>
       <use xlink:href="#mf622c2aea7" x="168.56" y="251.35125" style="stroke: #000000; stroke-width: 0.8"/>
      </g>
     </g>
     <g id="text_2">
      <!-- 0.2 -->
      <g transform="translate(158.56 269.27875) scale(0.16 -0.16)">
       <defs>
        <path id="STIXGeneral-Regular-32" d="M 3034 877 
L 2688 0 
L 186 0 
L 186 77 
L 1325 1286 
Q 1773 1754 1965 2144 
Q 2157 2534 2157 2950 
Q 2157 3379 1920 3616 
Q 1683 3853 1267 3853 
Q 922 3853 720 3673 
Q 518 3494 326 3021 
L 192 3053 
Q 301 3648 630 3987 
Q 960 4326 1523 4326 
Q 2054 4326 2380 4006 
Q 2707 3686 2707 3200 
Q 2707 2477 1888 1613 
L 832 486 
L 2330 486 
Q 2541 486 2665 569 
Q 2790 653 2944 915 
L 3034 877 
z
" transform="scale(0.015625)"/>
       </defs>
       <use xlink:href="#STIXGeneral-Regular-30"/>
       <use xlink:href="#STIXGeneral-Regular-2e" x="49.999985"/>
       <use xlink:href="#STIXGeneral-Regular-32" x="74.999969"/>
      </g>
     </g>
    </g>
    <g id="xtick_3">
     <g id="line2d_3">
      <g>
       <use xlink:href="#mf622c2aea7" x="280.16" y="251.35125" style="stroke: #000000; stroke-width: 0.8"/>
      </g>
     </g>
     <g id="text_3">
      <!-- 0.4 -->
      <g transform="translate(270.16 269.27875) scale(0.16 -0.16)">
       <defs>
        <path id="STIXGeneral-Regular-34" d="M 3027 1069 
L 2368 1069 
L 2368 0 
L 1869 0 
L 1869 1069 
L 77 1069 
L 77 1478 
L 2086 4326 
L 2368 4326 
L 2368 1478 
L 3027 1478 
L 3027 1069 
z
M 1869 1478 
L 1869 3674 
L 333 1478 
L 1869 1478 
z
" transform="scale(0.015625)"/>
       </defs>
       <use xlink:href="#STIXGeneral-Regular-30"/>
       <use xlink:href="#STIXGeneral-Regular-2e" x="49.999985"/>
       <use xlink:href="#STIXGeneral-Regular-34" x="74.999969"/>
      </g>
     </g>
    </g>
    <g id="xtick_4">
     <g id="line2d_4">
      <g>
       <use xlink:href="#mf622c2aea7" x="391.76" y="251.35125" style="stroke: #000000; stroke-width: 0.8"/>
      </g>
     </g>
     <g id="text_4">
      <!-- 0.6 -->
      <g transform="translate(381.76 269.27875) scale(0.16 -0.16)">
       <defs>
        <path id="STIXGeneral-Regular-36" d="M 2854 4378 
L 2867 4275 
Q 2112 4154 1606 3664 
Q 1101 3174 973 2451 
Q 1344 2739 1786 2739 
Q 2349 2739 2672 2380 
Q 2995 2022 2995 1402 
Q 2995 774 2669 378 
Q 2291 -90 1651 -90 
Q 870 -90 518 557 
Q 218 1107 218 1786 
Q 218 2835 915 3552 
Q 1312 3962 1731 4131 
Q 2150 4301 2854 4378 
z
M 2419 1203 
Q 2419 2445 1555 2445 
Q 1235 2445 1024 2275 
Q 813 2106 813 1702 
Q 813 954 1046 522 
Q 1280 90 1722 90 
Q 2061 90 2240 394 
Q 2419 698 2419 1203 
z
" transform="scale(0.015625)"/>
       </defs>
       <use xlink:href="#STIXGeneral-Regular-30"/>
       <use xlink:href="#STIXGeneral-Regular-2e" x="49.999985"/>
       <use xlink:href="#STIXGeneral-Regular-36" x="74.999969"/>
      </g>
     </g>
    </g>
    <g id="xtick_5">
     <g id="line2d_5">
      <g>
       <use xlink:href="#mf622c2aea7" x="503.36" y="251.35125" style="stroke: #000000; stroke-width: 0.8"/>
      </g>
     </g>
     <g id="text_5">
      <!-- 0.8 -->
      <g transform="translate(493.36 269.27875) scale(0.16 -0.16)">
       <defs>
        <path id="STIXGeneral-Regular-38" d="M 2848 992 
Q 2848 499 2505 204 
Q 2163 -90 1587 -90 
Q 1050 -90 704 204 
Q 358 499 358 954 
Q 358 1293 524 1533 
Q 691 1773 1190 2125 
Q 710 2522 553 2765 
Q 397 3008 397 3328 
Q 397 3782 745 4054 
Q 1094 4326 1638 4326 
Q 2106 4326 2410 4060 
Q 2714 3795 2714 3411 
Q 2714 3059 2531 2848 
Q 2349 2637 1856 2374 
Q 2432 1990 2640 1689 
Q 2848 1389 2848 992 
z
M 2272 3411 
Q 2272 3744 2086 3945 
Q 1901 4147 1574 4147 
Q 1248 4147 1059 3977 
Q 870 3808 870 3513 
Q 870 3219 1059 2979 
Q 1248 2739 1670 2490 
Q 1997 2682 2134 2896 
Q 2272 3110 2272 3411 
z
M 1734 1741 
L 1357 1997 
Q 1075 1766 960 1545 
Q 845 1325 845 1011 
Q 845 576 1065 333 
Q 1286 90 1658 90 
Q 1971 90 2166 285 
Q 2362 480 2362 794 
Q 2362 1082 2214 1299 
Q 2067 1517 1734 1741 
z
" transform="scale(0.015625)"/>
       </defs>
       <use xlink:href="#STIXGeneral-Regular-30"/>
       <use xlink:href="#STIXGeneral-Regular-2e" x="49.999985"/>
       <use xlink:href="#STIXGeneral-Regular-38" x="74.999969"/>
      </g>
     </g>
    </g>
    <g id="xtick_6">
     <g id="line2d_6">
      <g>
       <use xlink:href="#mf622c2aea7" x="614.96" y="251.35125" style="stroke: #000000; stroke-width: 0.8"/>
      </g>
     </g>
     <g id="text_6">
      <!-- 1.0 -->
      <g transform="translate(604.96 269.27875) scale(0.16 -0.16)">
       <defs>
        <path id="STIXGeneral-Regular-31" d="M 2522 0 
L 755 0 
L 755 96 
Q 1107 115 1235 227 
Q 1363 339 1363 608 
L 1363 3482 
Q 1363 3795 1171 3795 
Q 1082 3795 883 3718 
L 710 3654 
L 710 3744 
L 1856 4326 
L 1914 4307 
L 1914 486 
Q 1914 275 2042 185 
Q 2170 96 2522 96 
L 2522 0 
z
" transform="scale(0.015625)"/>
       </defs>
       <use xlink:href="#STIXGeneral-Regular-31"/>
       <use xlink:href="#STIXGeneral-Regular-2e" x="49.999985"/>
       <use xlink:href="#STIXGeneral-Regular-30" x="74.999969"/>
      </g>
     </g>
    </g>
    <g id="text_7">
     <!-- $t$ -->
     <g transform="translate(332.88 291.776563) scale(0.22 -0.22)">
      <defs>
       <path id="STIXGeneral-Italic-74" d="M 1894 2739 
L 1862 2534 
L 1325 2534 
L 768 435 
Q 755 384 755 346 
Q 755 243 851 243 
Q 928 243 1030 342 
Q 1133 442 1370 749 
L 1453 704 
Q 1158 256 969 93 
Q 781 -70 538 -70 
Q 243 -70 243 166 
Q 243 230 346 640 
L 845 2534 
L 365 2534 
L 358 2573 
Q 358 2688 570 2733 
Q 730 2771 992 2979 
Q 1254 3187 1421 3437 
Q 1459 3494 1510 3494 
Q 1568 3494 1568 3443 
Q 1568 3411 1562 3398 
L 1382 2739 
L 1894 2739 
z
" transform="scale(0.015625)"/>
      </defs>
      <use xlink:href="#STIXGeneral-Italic-74" transform="translate(0 0.40625)"/>
     </g>
    </g>
   </g>
   <g id="matplotlib.axis_2">
    <g id="ytick_1">
     <g id="line2d_7">
      <defs>
       <path id="m23e648d44b" d="M 0 0 
L -3.5 0 
" style="stroke: #000000; stroke-width: 0.8"/>
      </defs>
      <g>
       <use xlink:href="#m23e648d44b" x="56.96" y="251.35125" style="stroke: #000000; stroke-width: 0.8"/>
      </g>
     </g>
     <g id="text_8">
      <!-- −2 -->
      <g transform="translate(31 256.815) scale(0.16 -0.16)">
       <defs>
        <path id="STIXGeneral-Regular-2212" d="M 3974 1408 
L 410 1408 
L 410 1830 
L 3974 1830 
L 3974 1408 
z
" transform="scale(0.015625)"/>
       </defs>
       <use xlink:href="#STIXGeneral-Regular-2212"/>
       <use xlink:href="#STIXGeneral-Regular-32" x="68.499985"/>
      </g>
     </g>
    </g>
    <g id="ytick_2">
     <g id="line2d_8">
      <g>
       <use xlink:href="#m23e648d44b" x="56.96" y="195.91125" style="stroke: #000000; stroke-width: 0.8"/>
      </g>
     </g>
     <g id="text_9">
      <!-- −1 -->
      <g transform="translate(31 201.375) scale(0.16 -0.16)">
       <use xlink:href="#STIXGeneral-Regular-2212"/>
       <use xlink:href="#STIXGeneral-Regular-31" x="68.499985"/>
      </g>
     </g>
    </g>
    <g id="ytick_3">
     <g id="line2d_9">
      <g>
       <use xlink:href="#m23e648d44b" x="56.96" y="140.47125" style="stroke: #000000; stroke-width: 0.8"/>
      </g>
     </g>
     <g id="text_10">
      <!-- 0 -->
      <g transform="translate(41.96 145.935) scale(0.16 -0.16)">
       <use xlink:href="#STIXGeneral-Regular-30"/>
      </g>
     </g>
    </g>
    <g id="ytick_4">
     <g id="line2d_10">
      <g>
       <use xlink:href="#m23e648d44b" x="56.96" y="85.03125" style="stroke: #000000; stroke-width: 0.8"/>
      </g>
     </g>
     <g id="text_11">
      <!-- 1 -->
      <g transform="translate(41.96 90.495) scale(0.16 -0.16)">
       <use xlink:href="#STIXGeneral-Regular-31"/>
      </g>
     </g>
    </g>
    <g id="ytick_5">
     <g id="line2d_11">
      <g>
       <use xlink:href="#m23e648d44b" x="56.96" y="29.59125" style="stroke: #000000; stroke-width: 0.8"/>
      </g>
     </g>
     <g id="text_12">
      <!-- 2 -->
      <g transform="translate(41.96 35.055) scale(0.16 -0.16)">
       <use xlink:href="#STIXGeneral-Regular-32"/>
      </g>
     </g>
    </g>
    <g id="text_13">
     <!-- $W(t)$ -->
     <g transform="translate(22.225313 160.05125) rotate(-90) scale(0.22 -0.22)">
      <defs>
       <path id="STIXGeneral-Italic-57" d="M 5798 4179 
L 5798 4077 
Q 5613 4019 5526 3936 
Q 5440 3853 5306 3597 
L 3379 -115 
L 3251 -115 
L 2931 2784 
L 2899 2784 
L 1478 -115 
L 1357 -115 
L 966 3174 
Q 915 3622 883 3766 
Q 851 3910 781 3981 
Q 717 4045 454 4077 
L 454 4179 
L 1958 4179 
L 1958 4077 
Q 1696 4051 1597 3987 
Q 1498 3923 1498 3750 
Q 1498 3667 1504 3622 
L 1786 1037 
L 2886 3264 
L 2835 3680 
Q 2810 3923 2723 3993 
Q 2637 4064 2355 4077 
L 2355 4179 
L 3866 4179 
L 3866 4077 
Q 3616 4051 3523 3987 
Q 3430 3923 3430 3770 
Q 3430 3750 3436 3715 
Q 3443 3680 3443 3674 
L 3699 1037 
L 4902 3373 
Q 5050 3654 5050 3808 
Q 5050 4070 4621 4077 
L 4621 4179 
L 5798 4179 
z
" transform="scale(0.015625)"/>
       <path id="STIXGeneral-Regular-28" d="M 1946 -1030 
L 1869 -1133 
Q 1126 -710 716 32 
Q 307 774 307 1613 
Q 307 3386 1888 4326 
L 1946 4224 
Q 1293 3667 1075 3126 
Q 858 2586 858 1632 
Q 858 685 1082 96 
Q 1306 -493 1946 -1030 
z
" transform="scale(0.015625)"/>
       <path id="STIXGeneral-Regular-29" d="M 186 4224 
L 262 4326 
Q 992 3891 1408 3148 
Q 1824 2406 1824 1581 
Q 1824 -166 243 -1133 
L 186 -1030 
Q 845 -486 1059 54 
Q 1274 595 1274 1562 
Q 1274 2534 1059 3120 
Q 845 3706 186 4224 
z
" transform="scale(0.015625)"/>
      </defs>
      <use xlink:href="#STIXGeneral-Italic-57" transform="translate(0 0.40625)"/>
      <use xlink:href="#STIXGeneral-Regular-28" transform="translate(83.299988 0.40625)"/>
      <use xlink:href="#STIXGeneral-Italic-74" transform="translate(116.599976 0.40625)"/>
      <use xlink:href="#STIXGeneral-Regular-29" transform="translate(144.399963 0.40625)"/>
     </g>
    </g>
   </g>
   <g id="line2d_12">
    <path d="M 56.96 140.47125 
L 58.078236 136.097543 
L 59.196473 135.105412 
L 60.314709 132.678776 
L 61.432946 127.122813 
L 62.551182 122.492479 
L 63.669419 124.915495 
L 64.787655 122.559891 
L 65.905892 122.935159 
L 67.024128 123.191075 
L 68.142365 122.173056 
L 69.260601 121.815922 
L 70.378838 118.210266 
L 71.497074 116.323385 
L 72.615311 116.02171 
L 73.733547 114.921217 
L 74.851784 114.09392 
L 75.97002 110.389572 
L 77.088257 110.898232 
L 78.206493 110.122027 
L 79.324729 112.239631 
L 80.442966 118.569392 
L 81.561202 116.948841 
L 82.679439 114.805599 
L 83.797675 116.645688 
L 84.915912 111.018167 
L 86.034148 114.624051 
L 87.152385 114.5106 
L 88.270621 114.974694 
L 90.507094 107.531337 
L 91.625331 107.147168 
L 92.743567 106.20957 
L 93.861804 108.410703 
L 94.98004 113.321795 
L 96.098277 114.184392 
L 97.216513 113.796748 
L 99.452986 107.765301 
L 100.571222 108.725621 
L 101.689459 109.475136 
L 102.807695 112.074868 
L 103.925932 115.595592 
L 105.044168 119.826037 
L 106.162405 114.989378 
L 107.280641 116.252985 
L 108.398878 117.339125 
L 109.517114 120.445246 
L 110.635351 118.517574 
L 111.753587 122.518995 
L 112.871824 123.046453 
L 113.99006 125.26663 
L 115.108297 124.307363 
L 116.226533 125.573828 
L 117.34477 128.501031 
L 118.463006 128.570905 
L 119.581242 127.508919 
L 120.699479 127.344 
L 121.817715 126.594065 
L 122.935952 128.166773 
L 124.054188 129.066136 
L 125.172425 130.733403 
L 126.290661 131.624862 
L 127.408898 133.640938 
L 128.527134 137.921 
L 129.645371 137.481098 
L 130.763607 138.477255 
L 131.881844 142.519091 
L 133.00008 141.37169 
L 134.118317 143.621202 
L 135.236553 143.492412 
L 136.35479 141.684739 
L 137.473026 141.364945 
L 138.591263 138.53997 
L 139.709499 141.601538 
L 140.827735 140.603991 
L 141.945972 142.301877 
L 143.064208 144.460889 
L 144.182445 145.896062 
L 145.300681 146.66851 
L 146.418918 146.529256 
L 147.537154 149.418073 
L 148.655391 147.184607 
L 149.773627 146.030066 
L 150.891864 149.838955 
L 152.0101 146.149054 
L 153.128337 141.448477 
L 154.246573 138.525867 
L 155.36481 138.971964 
L 156.483046 141.626737 
L 157.601283 139.01238 
L 158.719519 140.011997 
L 159.837756 136.981125 
L 160.955992 136.464738 
L 162.074228 134.043306 
L 163.192465 133.159749 
L 164.310701 131.407905 
L 165.428938 131.381872 
L 166.547174 126.95407 
L 167.665411 126.63941 
L 168.783647 125.642737 
L 169.901884 120.973743 
L 172.138357 127.465292 
L 173.256593 125.061816 
L 174.37483 127.970402 
L 175.493066 123.151481 
L 176.611303 124.176988 
L 177.729539 126.030192 
L 178.847776 121.262541 
L 179.966012 117.591824 
L 181.084248 112.961487 
L 182.202485 110.715083 
L 183.320721 112.850365 
L 184.438958 108.114642 
L 185.557194 108.779116 
L 186.675431 106.789544 
L 187.793667 104.440973 
L 188.911904 104.825298 
L 190.03014 103.302779 
L 191.148377 101.016303 
L 192.266613 100.083012 
L 193.38485 102.808814 
L 194.503086 102.069376 
L 195.621323 98.780799 
L 196.739559 100.502877 
L 197.857796 100.873874 
L 198.976032 101.952773 
L 200.094269 97.367796 
L 201.212505 95.700941 
L 202.330741 94.6907 
L 203.448978 96.599593 
L 204.567214 95.262604 
L 205.685451 96.934512 
L 206.803687 96.855593 
L 207.921924 98.432079 
L 209.04016 96.754963 
L 210.158397 95.325391 
L 211.276633 95.841837 
L 212.39487 94.859997 
L 213.513106 97.570082 
L 214.631343 101.267434 
L 215.749579 100.178028 
L 216.867816 99.764785 
L 217.986052 98.190319 
L 219.104289 92.281664 
L 220.222525 89.939966 
L 221.340762 92.203174 
L 222.458998 89.433697 
L 223.577234 92.696295 
L 224.695471 93.840726 
L 225.813707 94.009921 
L 226.931944 89.761941 
L 229.168417 93.657483 
L 230.286653 93.901581 
L 231.40489 95.546577 
L 232.523126 92.75325 
L 234.759599 98.27576 
L 236.996072 100.596068 
L 238.114309 95.812078 
L 239.232545 93.45813 
L 240.350782 93.241059 
L 241.469018 96.279345 
L 242.587255 94.185872 
L 243.705491 96.665758 
L 244.823727 100.49579 
L 245.941964 97.550246 
L 247.0602 96.764433 
L 248.178437 94.4813 
L 249.296673 93.691062 
L 250.41491 91.566677 
L 251.533146 93.180799 
L 252.651383 95.745051 
L 253.769619 94.055138 
L 254.887856 96.047074 
L 256.006092 97.75671 
L 257.124329 98.886136 
L 258.242565 98.842799 
L 259.360802 99.720474 
L 260.479038 103.129463 
L 261.597275 104.72522 
L 262.715511 110.237819 
L 263.833747 108.68765 
L 264.951984 112.659715 
L 266.07022 115.39787 
L 267.188457 115.268535 
L 268.306693 117.102172 
L 269.42493 113.276495 
L 270.543166 116.481943 
L 271.661403 115.81983 
L 272.779639 115.917226 
L 273.897876 118.813341 
L 275.016112 117.515954 
L 276.134349 117.941278 
L 278.370822 113.98598 
L 279.489058 108.622556 
L 280.607295 105.308833 
L 281.725531 106.224165 
L 282.843768 106.81767 
L 283.962004 104.091227 
L 286.198477 100.879486 
L 287.316713 104.888489 
L 288.43495 104.948802 
L 289.553186 106.778641 
L 290.671423 106.084609 
L 291.789659 106.327958 
L 292.907896 104.071304 
L 294.026132 103.284809 
L 295.144369 101.335225 
L 296.262605 102.491642 
L 297.380842 104.833257 
L 298.499078 105.849914 
L 299.617315 105.892114 
L 300.735551 104.952063 
L 301.853788 99.350441 
L 302.972024 99.455211 
L 304.090261 101.825335 
L 305.208497 102.683146 
L 306.326733 103.832564 
L 307.44497 102.638802 
L 308.563206 106.45898 
L 309.681443 106.302131 
L 310.799679 105.914096 
L 311.917916 105.338438 
L 313.036152 106.819395 
L 314.154389 107.409287 
L 315.272625 110.940035 
L 317.509098 113.509094 
L 318.627335 112.477559 
L 319.745571 115.344142 
L 320.863808 113.407277 
L 321.982044 109.701924 
L 323.100281 114.834146 
L 324.218517 113.7773 
L 325.336754 112.099007 
L 326.45499 113.679437 
L 327.573226 114.664414 
L 328.691463 114.993872 
L 330.927936 116.498352 
L 332.046172 120.653756 
L 334.282645 115.119966 
L 335.400882 117.136582 
L 336.519118 120.772364 
L 337.637355 119.480461 
L 338.755591 120.908042 
L 339.873828 120.55609 
L 340.992064 121.347818 
L 343.228537 117.910722 
L 344.346774 119.709733 
L 345.46501 123.13958 
L 346.583246 127.064242 
L 347.701483 125.550896 
L 348.819719 128.498497 
L 349.937956 129.755073 
L 351.056192 131.233546 
L 352.174429 131.363879 
L 353.292665 136.164598 
L 354.410902 135.69655 
L 355.529138 134.397639 
L 356.647375 134.17841 
L 357.765611 134.949206 
L 358.883848 134.707717 
L 360.002084 133.71834 
L 361.120321 140.592574 
L 362.238557 135.743179 
L 363.356794 134.776 
L 364.47503 136.393551 
L 365.593267 137.362862 
L 366.711503 136.138702 
L 367.829739 136.426565 
L 368.947976 141.461346 
L 370.066212 136.342742 
L 371.184449 136.616811 
L 372.302685 134.087443 
L 373.420922 135.803279 
L 374.539158 131.994059 
L 375.657395 131.284112 
L 376.775631 129.774574 
L 377.893868 132.366125 
L 379.012104 129.363269 
L 380.130341 127.652967 
L 381.248577 124.425232 
L 382.366814 125.982482 
L 383.48505 127.175118 
L 384.603287 121.462897 
L 385.721523 124.091049 
L 386.83976 124.428117 
L 387.957996 121.609362 
L 389.076232 121.367068 
L 390.194469 119.92172 
L 391.312705 120.912095 
L 392.430942 119.994596 
L 393.549178 123.233937 
L 394.667415 119.122847 
L 395.785651 119.415817 
L 396.903888 121.102218 
L 398.022124 119.45002 
L 399.140361 120.592306 
L 401.376834 127.23939 
L 402.49507 125.519282 
L 404.731543 126.246414 
L 405.84978 123.574308 
L 406.968016 126.368106 
L 408.086253 128.179713 
L 409.204489 129.133966 
L 410.322725 128.900035 
L 411.440962 129.004593 
L 412.559198 129.715887 
L 413.677435 129.868681 
L 414.795671 130.134728 
L 415.913908 131.918881 
L 417.032144 133.934577 
L 418.150381 133.253954 
L 419.268617 135.462846 
L 420.386854 138.332338 
L 421.50509 139.10662 
L 422.623327 139.497532 
L 423.741563 133.90232 
L 424.8598 135.64952 
L 425.978036 133.310845 
L 427.096273 131.458302 
L 428.214509 134.406115 
L 429.332745 132.488948 
L 430.450982 135.424205 
L 431.569218 142.01723 
L 432.687455 140.51395 
L 433.805691 144.867421 
L 434.923928 143.749396 
L 436.042164 145.4453 
L 437.160401 141.330689 
L 438.278637 138.681478 
L 439.396874 139.805581 
L 440.51511 141.510973 
L 441.633347 144.521098 
L 442.751583 145.614301 
L 443.86982 146.309401 
L 444.988056 147.213604 
L 446.106293 146.82508 
L 447.224529 145.390722 
L 448.342766 144.523805 
L 449.461002 146.418387 
L 450.579238 149.983179 
L 451.697475 146.600024 
L 453.933948 149.926677 
L 455.052184 151.218888 
L 456.170421 155.788507 
L 458.406894 158.162808 
L 459.52513 156.624722 
L 460.643367 154.893 
L 461.761603 154.883651 
L 462.87984 152.573271 
L 463.998076 151.730378 
L 465.116313 151.769259 
L 466.234549 151.370262 
L 467.352786 151.842959 
L 468.471022 152.82193 
L 469.589259 153.485736 
L 470.707495 156.282473 
L 471.825731 155.587159 
L 472.943968 158.049462 
L 474.062204 155.962762 
L 475.180441 156.581258 
L 476.298677 156.458542 
L 477.416914 155.234147 
L 478.53515 153.639144 
L 479.653387 157.533272 
L 480.771623 158.04626 
L 481.88986 155.863986 
L 483.008096 160.074188 
L 484.126333 159.113984 
L 485.244569 164.706322 
L 486.362806 167.241476 
L 487.481042 167.145698 
L 488.599279 171.253278 
L 489.717515 173.696706 
L 490.835752 177.345903 
L 491.953988 173.259596 
L 493.072224 172.852418 
L 494.190461 171.445906 
L 495.308697 171.997996 
L 496.426934 172.874277 
L 497.54517 176.882086 
L 498.663407 177.605654 
L 499.781643 179.493661 
L 500.89988 177.366566 
L 502.018116 174.537372 
L 503.136353 170.901207 
L 504.254589 168.787431 
L 505.372826 170.271704 
L 506.491062 173.038406 
L 507.609299 171.137578 
L 508.727535 170.254203 
L 509.845772 174.639032 
L 510.964008 173.757668 
L 512.082244 171.738186 
L 513.200481 171.592089 
L 514.318717 172.050902 
L 515.436954 174.053347 
L 516.55519 177.639816 
L 517.673427 175.655596 
L 518.791663 176.421999 
L 519.9099 177.000845 
L 521.028136 172.704819 
L 522.146373 171.0077 
L 523.264609 170.088294 
L 524.382846 169.736073 
L 525.501082 165.96747 
L 526.619319 161.704003 
L 527.737555 159.399432 
L 528.855792 157.955893 
L 529.974028 163.149151 
L 531.092265 162.842401 
L 532.210501 163.164982 
L 533.328737 162.932039 
L 534.446974 160.593896 
L 535.56521 167.38652 
L 536.683447 168.798045 
L 537.801683 168.128857 
L 538.91992 169.286332 
L 540.038156 172.799341 
L 541.156393 170.644875 
L 542.274629 169.958412 
L 543.392866 172.366122 
L 544.511102 171.585579 
L 545.629339 169.548579 
L 546.747575 169.535456 
L 547.865812 167.550574 
L 548.984048 167.35654 
L 550.102285 168.336452 
L 551.220521 171.211063 
L 552.338758 171.424116 
L 553.456994 170.942395 
L 554.57523 168.770898 
L 555.693467 169.05629 
L 556.811703 167.922195 
L 557.92994 170.313808 
L 559.048176 172.254221 
L 560.166413 172.527915 
L 561.284649 175.142711 
L 562.402886 173.109027 
L 563.521122 171.960764 
L 564.639359 171.268788 
L 565.757595 170.428525 
L 566.875832 165.417646 
L 567.994068 166.580126 
L 569.112305 172.038274 
L 570.230541 171.544138 
L 571.348778 171.669602 
L 572.467014 172.952714 
L 573.585251 175.379578 
L 574.703487 176.468484 
L 575.821723 176.018882 
L 576.93996 177.265542 
L 578.058196 171.284219 
L 579.176433 173.665648 
L 580.294669 175.632065 
L 581.412906 181.30636 
L 582.531142 180.682842 
L 583.649379 185.682224 
L 584.767615 187.019722 
L 585.885852 187.703206 
L 587.004088 189.462872 
L 588.122325 185.151594 
L 589.240561 182.68614 
L 590.358798 179.415535 
L 591.477034 181.603362 
L 592.595271 178.80518 
L 593.713507 177.575419 
L 594.831743 175.662832 
L 595.94998 173.110491 
L 597.068216 175.363635 
L 598.186453 176.415668 
L 599.304689 174.276989 
L 600.422926 180.861204 
L 601.541162 177.10913 
L 602.659399 175.737721 
L 603.777635 175.851037 
L 604.895872 175.304321 
L 606.014108 177.857893 
L 607.132345 178.725526 
L 608.250581 175.997534 
L 609.368818 172.77928 
L 610.487054 166.094391 
L 611.605291 166.277677 
L 612.723527 167.910461 
L 613.841764 169.185428 
L 614.96 171.709513 
L 614.96 171.709513 
" clip-path="url(#p32854932b4)" style="fill: none; stroke: #000000; stroke-width: 1.5; stroke-linecap: square"/>
   </g>
   <g id="patch_3">
    <path d="M 56.96 251.35125 
L 56.96 29.59125 
" style="fill: none; stroke: #000000; stroke-width: 0.8; stroke-linejoin: miter; stroke-linecap: square"/>
   </g>
   <g id="patch_4">
    <path d="M 614.96 251.35125 
L 614.96 29.59125 
" style="fill: none; stroke: #000000; stroke-width: 0.8; stroke-linejoin: miter; stroke-linecap: square"/>
   </g>
   <g id="patch_5">
    <path d="M 56.96 251.35125 
L 614.96 251.35125 
" style="fill: none; stroke: #000000; stroke-width: 0.8; stroke-linejoin: miter; stroke-linecap: square"/>
   </g>
   <g id="patch_6">
    <path d="M 56.96 29.59125 
L 614.96 29.59125 
" style="fill: none; stroke: #000000; stroke-width: 0.8; stroke-linejoin: miter; stroke-linecap: square"/>
   </g>
   <g id="text_14">
    <!-- Sample from a Wiener process -->
    <g transform="translate(187.99625 23.59125) scale(0.24 -0.24)">
     <defs>
      <path id="STIXGeneral-Regular-53" d="M 3002 2963 
L 2842 2963 
Q 2733 3360 2579 3565 
Q 2189 4064 1651 4064 
Q 1357 4064 1181 3894 
Q 1005 3725 1005 3456 
Q 1005 3328 1069 3206 
Q 1133 3085 1206 2998 
Q 1280 2912 1465 2784 
Q 1651 2656 1766 2589 
Q 1882 2522 2150 2362 
Q 2669 2061 2905 1763 
Q 3142 1466 3142 1107 
Q 3142 576 2771 243 
Q 2400 -90 1837 -90 
Q 1421 -90 1082 58 
Q 915 128 781 128 
Q 704 128 653 70 
Q 602 13 602 -83 
L 461 -83 
L 275 1274 
L 416 1274 
Q 845 141 1734 141 
Q 2074 141 2285 342 
Q 2496 544 2496 858 
Q 2496 1158 2310 1363 
Q 2003 1696 1235 2106 
Q 454 2522 454 3206 
Q 454 3718 768 4022 
Q 1082 4326 1568 4326 
Q 1907 4326 2240 4186 
Q 2413 4109 2522 4109 
Q 2688 4109 2726 4326 
L 2861 4326 
L 3002 2963 
z
" transform="scale(0.015625)"/>
      <path id="STIXGeneral-Regular-61" d="M 2829 422 
L 2829 243 
Q 2586 -64 2253 -64 
Q 1888 -64 1843 403 
L 1837 403 
Q 1427 -64 909 -64 
Q 608 -64 422 112 
Q 237 288 237 602 
Q 237 1050 685 1350 
Q 992 1555 1837 1869 
L 1837 2214 
Q 1837 2502 1699 2646 
Q 1562 2790 1338 2790 
Q 1146 2790 1018 2697 
Q 890 2605 890 2477 
Q 890 2419 909 2348 
Q 928 2278 928 2208 
Q 928 2112 841 2029 
Q 755 1946 634 1946 
Q 525 1946 441 2029 
Q 358 2112 358 2240 
Q 358 2547 685 2752 
Q 986 2944 1421 2944 
Q 1939 2944 2176 2656 
Q 2291 2522 2323 2384 
Q 2355 2246 2355 1946 
L 2355 723 
Q 2355 301 2554 301 
Q 2682 301 2829 422 
z
M 1837 813 
L 1837 1715 
Q 1248 1510 1018 1293 
Q 800 1094 800 800 
Q 800 557 921 432 
Q 1043 307 1242 307 
Q 1453 307 1613 410 
Q 1747 506 1792 589 
Q 1837 672 1837 813 
z
" transform="scale(0.015625)"/>
      <path id="STIXGeneral-Regular-6d" d="M 4960 0 
L 3565 0 
L 3565 96 
Q 3834 122 3907 208 
Q 3981 294 3981 576 
L 3981 1894 
Q 3981 2278 3869 2444 
Q 3757 2611 3488 2611 
Q 3264 2611 3107 2521 
Q 2950 2432 2803 2221 
L 2803 608 
Q 2803 301 2896 201 
Q 2989 102 3264 96 
L 3264 0 
L 1830 0 
L 1830 96 
Q 2112 115 2189 188 
Q 2266 262 2266 550 
L 2266 1901 
Q 2266 2611 1850 2611 
Q 1670 2611 1468 2531 
Q 1267 2451 1171 2336 
Q 1088 2240 1088 2227 
L 1088 448 
Q 1088 243 1177 176 
Q 1267 109 1523 96 
L 1523 0 
L 102 0 
L 102 96 
Q 371 102 460 195 
Q 550 288 550 563 
L 550 2150 
Q 550 2387 499 2480 
Q 448 2573 326 2573 
Q 230 2573 122 2547 
L 122 2656 
Q 557 2778 1011 2944 
L 1062 2925 
L 1062 2451 
L 1075 2451 
Q 1363 2752 1584 2848 
Q 1805 2944 2054 2944 
Q 2560 2944 2733 2406 
Q 3232 2944 3776 2944 
Q 4518 2944 4518 1792 
L 4518 493 
Q 4518 282 4582 202 
Q 4646 122 4794 109 
L 4960 96 
L 4960 0 
z
" transform="scale(0.015625)"/>
      <path id="STIXGeneral-Regular-70" d="M 1018 2931 
L 1018 2438 
Q 1421 2944 1939 2944 
Q 2406 2944 2707 2560 
Q 3008 2176 3008 1581 
Q 3008 883 2621 409 
Q 2234 -64 1664 -64 
Q 1466 -64 1328 -6 
Q 1190 51 1018 211 
L 1018 -794 
Q 1018 -1094 1120 -1180 
Q 1222 -1267 1581 -1274 
L 1581 -1389 
L 32 -1389 
L 32 -1280 
Q 314 -1254 397 -1171 
Q 480 -1088 480 -838 
L 480 2157 
Q 480 2381 429 2451 
Q 378 2522 218 2522 
Q 115 2522 58 2515 
L 58 2618 
Q 506 2752 979 2944 
L 1018 2931 
z
M 1018 2138 
L 1018 563 
Q 1018 422 1238 281 
Q 1459 141 1683 141 
Q 2029 141 2243 467 
Q 2458 794 2458 1325 
Q 2458 1888 2243 2224 
Q 2029 2560 1670 2560 
Q 1446 2560 1232 2419 
Q 1018 2278 1018 2138 
z
" transform="scale(0.015625)"/>
      <path id="STIXGeneral-Regular-6c" d="M 1645 0 
L 134 0 
L 134 96 
Q 435 122 531 221 
Q 627 320 627 589 
L 627 3590 
Q 627 3821 569 3910 
Q 512 4000 358 4000 
Q 224 4000 122 3987 
L 122 4090 
Q 730 4237 1133 4371 
L 1165 4346 
L 1165 557 
Q 1165 288 1254 201 
Q 1344 115 1645 96 
L 1645 0 
z
" transform="scale(0.015625)"/>
      <path id="STIXGeneral-Regular-65" d="M 2611 1050 
L 2714 1005 
Q 2330 -64 1376 -64 
Q 813 -64 486 329 
Q 160 723 160 1389 
Q 160 2074 525 2509 
Q 890 2944 1485 2944 
Q 2061 2944 2374 2502 
Q 2560 2246 2592 1773 
L 621 1773 
Q 646 1370 700 1158 
Q 755 947 915 730 
Q 1184 378 1626 378 
Q 1939 378 2153 531 
Q 2368 685 2611 1050 
z
M 634 1978 
L 1939 1978 
Q 1882 2381 1750 2547 
Q 1619 2714 1312 2714 
Q 1043 2714 864 2525 
Q 685 2336 634 1978 
z
" transform="scale(0.015625)"/>
      <path id="STIXGeneral-Regular-20" transform="scale(0.015625)"/>
      <path id="STIXGeneral-Regular-66" d="M 134 2880 
L 659 2880 
Q 666 3264 710 3478 
Q 755 3693 883 3910 
Q 1152 4371 1786 4371 
Q 2074 4371 2262 4259 
Q 2451 4147 2451 3974 
Q 2451 3866 2374 3789 
Q 2298 3712 2182 3712 
Q 2029 3712 1894 3942 
Q 1741 4192 1555 4192 
Q 1197 4192 1197 3622 
L 1197 2880 
L 1978 2880 
L 1978 2675 
L 1197 2675 
L 1197 666 
Q 1197 307 1299 208 
Q 1402 109 1792 96 
L 1792 0 
L 128 0 
L 128 96 
Q 474 115 566 214 
Q 659 314 659 666 
L 659 2675 
L 134 2675 
L 134 2880 
z
" transform="scale(0.015625)"/>
      <path id="STIXGeneral-Regular-72" d="M 1024 2931 
L 1024 2342 
Q 1267 2688 1430 2816 
Q 1594 2944 1792 2944 
Q 1958 2944 2051 2854 
Q 2144 2765 2144 2605 
Q 2144 2470 2077 2393 
Q 2010 2317 1894 2317 
Q 1773 2317 1638 2445 
Q 1536 2541 1472 2541 
Q 1338 2541 1181 2355 
Q 1024 2170 1024 2016 
L 1024 576 
Q 1024 301 1133 205 
Q 1242 109 1568 96 
L 1568 0 
L 32 0 
L 32 96 
Q 339 154 412 224 
Q 486 294 486 538 
L 486 2138 
Q 486 2349 438 2435 
Q 390 2522 269 2522 
Q 166 2522 45 2496 
L 45 2598 
Q 448 2726 992 2944 
L 1024 2931 
z
" transform="scale(0.015625)"/>
      <path id="STIXGeneral-Regular-6f" d="M 3008 1478 
Q 3008 806 2608 371 
Q 2208 -64 1568 -64 
Q 979 -64 582 368 
Q 186 800 186 1459 
Q 186 2125 582 2534 
Q 979 2944 1626 2944 
Q 2221 2944 2614 2537 
Q 3008 2131 3008 1478 
z
M 2432 1306 
Q 2432 2035 2112 2445 
Q 1856 2765 1504 2765 
Q 1171 2765 966 2493 
Q 762 2221 762 1747 
Q 762 928 1101 435 
Q 1318 115 1677 115 
Q 2029 115 2230 432 
Q 2432 749 2432 1306 
z
" transform="scale(0.015625)"/>
      <path id="STIXGeneral-Regular-57" d="M 5965 4237 
L 5965 4115 
Q 5709 4064 5616 3990 
Q 5523 3917 5434 3667 
Q 4704 1709 4128 -70 
L 4032 -70 
Q 3642 1011 3008 2637 
L 2022 -70 
L 1926 -70 
Q 1709 576 1277 1753 
Q 845 2931 698 3347 
Q 538 3808 406 3958 
Q 275 4109 32 4115 
L 32 4237 
L 1594 4237 
L 1594 4115 
Q 1357 4109 1270 4064 
Q 1184 4019 1184 3917 
Q 1184 3808 1254 3616 
L 2176 1210 
L 2842 3021 
L 2662 3501 
Q 2509 3917 2400 4013 
Q 2291 4109 2010 4115 
L 2010 4237 
L 3706 4237 
L 3706 4115 
Q 3213 4102 3213 3891 
Q 3213 3808 3322 3520 
L 4237 1190 
L 5043 3360 
Q 5152 3667 5152 3853 
Q 5152 4109 4704 4115 
L 4704 4237 
L 5965 4237 
z
" transform="scale(0.015625)"/>
      <path id="STIXGeneral-Regular-69" d="M 1152 4045 
Q 1152 3904 1056 3811 
Q 960 3718 819 3718 
Q 685 3718 592 3811 
Q 499 3904 499 4045 
Q 499 4179 595 4275 
Q 691 4371 826 4371 
Q 966 4371 1059 4275 
Q 1152 4179 1152 4045 
z
M 1619 0 
L 102 0 
L 102 96 
Q 435 115 521 211 
Q 608 307 608 666 
L 608 2118 
Q 608 2342 563 2432 
Q 518 2522 397 2522 
Q 243 2522 128 2490 
L 128 2592 
L 1120 2944 
L 1146 2918 
L 1146 672 
Q 1146 314 1226 218 
Q 1306 122 1619 96 
L 1619 0 
z
" transform="scale(0.015625)"/>
      <path id="STIXGeneral-Regular-6e" d="M 3104 0 
L 1773 0 
L 1779 96 
Q 2016 115 2096 233 
Q 2176 352 2176 672 
L 2176 1946 
Q 2176 2592 1709 2592 
Q 1549 2592 1408 2515 
Q 1267 2438 1050 2227 
L 1050 461 
Q 1050 269 1136 192 
Q 1222 115 1466 96 
L 1466 0 
L 115 0 
L 115 96 
Q 358 115 435 214 
Q 512 314 512 602 
L 512 2157 
Q 512 2394 467 2483 
Q 422 2573 288 2573 
Q 160 2573 102 2547 
L 102 2656 
Q 550 2784 979 2944 
L 1030 2925 
L 1030 2426 
L 1037 2426 
Q 1491 2944 1958 2944 
Q 2323 2944 2518 2688 
Q 2714 2432 2714 1958 
L 2714 544 
Q 2714 288 2790 205 
Q 2867 122 3104 96 
L 3104 0 
z
" transform="scale(0.015625)"/>
      <path id="STIXGeneral-Regular-63" d="M 2547 998 
L 2637 941 
Q 2362 403 2112 205 
Q 1786 -64 1376 -64 
Q 845 -64 502 336 
Q 160 736 160 1357 
Q 160 2170 698 2618 
Q 1094 2944 1562 2944 
Q 1965 2944 2256 2749 
Q 2547 2554 2547 2285 
Q 2547 2176 2457 2096 
Q 2368 2016 2246 2016 
Q 2022 2016 1939 2310 
L 1901 2451 
Q 1850 2630 1773 2694 
Q 1696 2758 1523 2758 
Q 1133 2758 893 2451 
Q 653 2144 653 1645 
Q 653 1094 928 745 
Q 1203 397 1645 397 
Q 1920 397 2118 528 
Q 2317 659 2547 998 
z
" transform="scale(0.015625)"/>
      <path id="STIXGeneral-Regular-73" d="M 998 1926 
L 1664 1523 
Q 1984 1331 2105 1164 
Q 2227 998 2227 736 
Q 2227 416 1961 176 
Q 1696 -64 1331 -64 
Q 1030 -64 864 -6 
Q 691 51 570 51 
Q 461 51 416 -26 
L 333 -26 
L 333 979 
L 435 979 
Q 538 512 730 294 
Q 922 77 1248 77 
Q 1485 77 1632 211 
Q 1779 346 1779 550 
Q 1779 845 1440 1030 
L 1094 1222 
Q 326 1651 326 2150 
Q 326 2522 566 2730 
Q 806 2938 1210 2938 
Q 1491 2938 1638 2867 
Q 1754 2816 1818 2816 
Q 1862 2816 1920 2880 
L 1990 2880 
L 2022 2010 
L 1926 2010 
Q 1818 2445 1654 2621 
Q 1491 2797 1203 2797 
Q 986 2797 854 2688 
Q 723 2579 723 2362 
Q 723 2253 796 2128 
Q 870 2003 998 1926 
z
" transform="scale(0.015625)"/>
     </defs>
     <use xlink:href="#STIXGeneral-Regular-53"/>
     <use xlink:href="#STIXGeneral-Regular-61" x="55.599991"/>
     <use xlink:href="#STIXGeneral-Regular-6d" x="99.999985"/>
     <use xlink:href="#STIXGeneral-Regular-70" x="177.799973"/>
     <use xlink:href="#STIXGeneral-Regular-6c" x="227.799957"/>
     <use xlink:href="#STIXGeneral-Regular-65" x="255.599945"/>
     <use xlink:href="#STIXGeneral-Regular-20" x="299.999939"/>
     <use xlink:href="#STIXGeneral-Regular-66" x="324.999924"/>
     <use xlink:href="#STIXGeneral-Regular-72" x="358.299911"/>
     <use xlink:href="#STIXGeneral-Regular-6f" x="391.599899"/>
     <use xlink:href="#STIXGeneral-Regular-6d" x="441.599884"/>
     <use xlink:href="#STIXGeneral-Regular-20" x="519.399872"/>
     <use xlink:href="#STIXGeneral-Regular-61" x="544.399857"/>
     <use xlink:href="#STIXGeneral-Regular-20" x="588.79985"/>
     <use xlink:href="#STIXGeneral-Regular-57" x="613.799835"/>
     <use xlink:href="#STIXGeneral-Regular-69" x="708.199829"/>
     <use xlink:href="#STIXGeneral-Regular-65" x="735.999817"/>
     <use xlink:href="#STIXGeneral-Regular-6e" x="780.399811"/>
     <use xlink:href="#STIXGeneral-Regular-65" x="830.399796"/>
     <use xlink:href="#STIXGeneral-Regular-72" x="874.799789"/>
     <use xlink:href="#STIXGeneral-Regular-20" x="908.099777"/>
     <use xlink:href="#STIXGeneral-Regular-70" x="933.099762"/>
     <use xlink:href="#STIXGeneral-Regular-72" x="983.099747"/>
     <use xlink:href="#STIXGeneral-Regular-6f" x="1016.399734"/>
     <use xlink:href="#STIXGeneral-Regular-63" x="1066.399719"/>
     <use xlink:href="#STIXGeneral-Regular-65" x="1110.799713"/>
     <use xlink:href="#STIXGeneral-Regular-73" x="1155.199707"/>
     <use xlink:href="#STIXGeneral-Regular-73" x="1194.099701"/>
    </g>
   </g>
  </g>
 </g>
 <defs>
  <clipPath id="p32854932b4">
   <rect x="56.96" y="29.59125" width="558" height="221.76"/>
  </clipPath>
 </defs>
</svg>