<?xml version="1.0" encoding="UTF-8" standalone="no"?>
<!DOCTYPE svg PUBLIC "-//W3C//DTD SVG 1.1//EN"
 "http://www.w3.org/Graphics/SVG/1.1/DTD/svg11.dtd">
<!-- Generated by graphviz version 9.0.0 (20230911.1827)
 -->
<!-- Pages: 1 -->
<svg width="340pt" height="93pt"
 viewBox="0.00 0.00 340.10 93.00" xmlns="http://www.w3.org/2000/svg" xmlns:xlink="http://www.w3.org/1999/xlink">
<g id="graph0" class="graph" transform="scale(1 1) rotate(0) translate(4 89)">
<polygon fill="white" stroke="none" points="-4,4 -4,-89 336.1,-89 336.1,4 -4,4"/>
<!-- 9218ac5c&#45;7c6e&#45;4e0b&#45;9fdc&#45;7b2bb7638995 -->
<g id="node1" class="node">
<title>9218ac5c&#45;7c6e&#45;4e0b&#45;9fdc&#45;7b2bb7638995</title>
<g id="a_node1"><a xlink:title=".">
<ellipse fill="black" stroke="black" cx="1.8" cy="-18" rx="1.8" ry="1.8"/>
</a>
</g>
</g>
<!-- 0 -->
<g id="node2" class="node">
<title>0</title>
<ellipse fill="none" stroke="black" cx="58.6" cy="-18" rx="18" ry="18"/>
<text text-anchor="middle" x="58.6" y="-12.95" font-family="Times,serif" font-size="14.00">0</text>
</g>
<!-- 9218ac5c&#45;7c6e&#45;4e0b&#45;9fdc&#45;7b2bb7638995&#45;&gt;0 -->
<g id="edge1" class="edge">
<title>9218ac5c&#45;7c6e&#45;4e0b&#45;9fdc&#45;7b2bb7638995&#45;&gt;0</title>
<g id="a_edge1"><a xlink:title="&#45;&gt;0">
<path fill="none" stroke="black" d="M3.75,-18C7.09,-18 18.72,-18 30.32,-18"/>
<polygon fill="black" stroke="black" points="30.29,-20.98 38.79,-18 30.29,-15.03 30.29,-20.98"/>
</a>
</g>
</g>
<!-- 3 -->
<g id="node3" class="node">
<title>3</title>
<ellipse fill="none" stroke="black" cx="136.6" cy="-18" rx="18" ry="18"/>
<text text-anchor="middle" x="136.6" y="-12.95" font-family="Times,serif" font-size="14.00">3</text>
</g>
<!-- 0&#45;&gt;3 -->
<g id="edge2" class="edge">
<title>0&#45;&gt;3</title>
<path fill="none" stroke="black" d="M76.85,-18C86.11,-18 97.74,-18 108.21,-18"/>
<polygon fill="black" stroke="black" points="108.15,-20.98 116.65,-18 108.15,-15.03 108.15,-20.98"/>
<text text-anchor="middle" x="97.6" y="-21.2" font-family="Times,serif" font-size="14.00">a</text>
</g>
<!-- 3&#45;&gt;3 -->
<g id="edge3" class="edge">
<title>3&#45;&gt;3</title>
<path fill="none" stroke="black" d="M129.69,-35.04C128.28,-44.86 130.58,-54 136.6,-54 140.46,-54 142.79,-50.25 143.59,-44.97"/>
<polygon fill="black" stroke="black" points="146.57,-45.03 143.52,-36.55 140.62,-45.07 146.57,-45.03"/>
<text text-anchor="middle" x="136.6" y="-57.2" font-family="Times,serif" font-size="14.00">a</text>
</g>
<!-- 2 -->
<g id="node4" class="node">
<title>2</title>
<ellipse fill="none" stroke="black" cx="219.35" cy="-59" rx="22" ry="22"/>
<ellipse fill="none" stroke="black" cx="219.35" cy="-59" rx="26" ry="26"/>
<text text-anchor="middle" x="219.35" y="-53.95" font-family="Times,serif" font-size="14.00">2</text>
</g>
<!-- 3&#45;&gt;2 -->
<g id="edge4" class="edge">
<title>3&#45;&gt;2</title>
<path fill="none" stroke="black" d="M153.17,-25.91C163.72,-31.26 177.95,-38.49 190.43,-44.82"/>
<polygon fill="black" stroke="black" points="188.85,-47.35 197.77,-48.55 191.54,-42.05 188.85,-47.35"/>
<text text-anchor="middle" x="175.98" y="-42.2" font-family="Times,serif" font-size="14.00">b</text>
</g>
<!-- 1 -->
<g id="node5" class="node">
<title>1</title>
<ellipse fill="none" stroke="black" cx="306.1" cy="-35" rx="22" ry="22"/>
<ellipse fill="none" stroke="black" cx="306.1" cy="-35" rx="26" ry="26"/>
<text text-anchor="middle" x="306.1" y="-29.95" font-family="Times,serif" font-size="14.00">1</text>
</g>
<!-- 2&#45;&gt;1 -->
<g id="edge5" class="edge">
<title>2&#45;&gt;1</title>
<path fill="none" stroke="black" d="M241.58,-57.56C249.39,-56.68 258.25,-55.27 266.1,-53 269.78,-51.94 273.56,-50.57 277.24,-49.07"/>
<polygon fill="black" stroke="black" points="278.14,-51.93 284.72,-45.77 275.74,-46.49 278.14,-51.93"/>
<text text-anchor="middle" x="262.73" y="-58.2" font-family="Times,serif" font-size="14.00">a</text>
</g>
<!-- 1&#45;&gt;3 -->
<g id="edge6" class="edge">
<title>1&#45;&gt;3</title>
<path fill="none" stroke="black" d="M285.79,-25.85C273.4,-20.49 256.79,-14.26 241.35,-11.5 215.51,-6.89 185.55,-9.61 164.48,-12.83"/>
<polygon fill="black" stroke="black" points="164.02,-9.89 156.12,-14.22 165,-15.76 164.02,-9.89"/>
<text text-anchor="middle" x="219.35" y="-15.2" font-family="Times,serif" font-size="14.00">a</text>
</g>
<!-- 1&#45;&gt;2 -->
<g id="edge7" class="edge">
<title>1&#45;&gt;2</title>
<path fill="none" stroke="black" d="M283.81,-33.56C275.99,-33.59 267.14,-34.27 259.35,-36.5 255,-37.74 250.63,-39.57 246.47,-41.65"/>
<polygon fill="black" stroke="black" points="245.07,-39.03 239.09,-45.77 247.96,-44.23 245.07,-39.03"/>
<text text-anchor="middle" x="262.73" y="-40.2" font-family="Times,serif" font-size="14.00">b</text>
</g>
</g>
</svg>