<?xml version="1.0" encoding="utf-8" standalone="no"?>
<!DOCTYPE svg PUBLIC "-//W3C//DTD SVG 1.1//EN"
  "http://www.w3.org/Graphics/SVG/1.1/DTD/svg11.dtd">
<svg xmlns:xlink="http://www.w3.org/1999/xlink" width="621.2pt" height="311.84pt" viewBox="0 0 621.2 311.84" xmlns="http://www.w3.org/2000/svg" version="1.1">
 <metadata>
  <rdf:RDF xmlns:dc="http://purl.org/dc/elements/1.1/" xmlns:cc="http://creativecommons.org/ns#" xmlns:rdf="http://www.w3.org/1999/02/22-rdf-syntax-ns#">
   <cc:Work>
    <dc:type rdf:resource="http://purl.org/dc/dcmitype/StillImage"/>
    <dc:date>2024-05-09T10:09:01.399025</dc:date>
    <dc:format>image/svg+xml</dc:format>
    <dc:creator>
     <cc:Agent>
      <dc:title>Matplotlib v3.8.4, https://matplotlib.org/</dc:title>
     </cc:Agent>
    </dc:creator>
   </cc:Work>
  </rdf:RDF>
 </metadata>
 <defs>
  <style type="text/css">*{stroke-linejoin: round; stroke-linecap: butt}</style>
 </defs>
 <g id="figure_1">
  <g id="patch_1">
   <path d="M 0 311.84 
L 621.2 311.84 
L 621.2 0 
L 0 0 
z
" style="fill: #ffffff"/>
  </g>
  <g id="axes_1">
   <g id="patch_2">
    <path d="M 46 259.44 
L 604 259.44 
L 604 37.68 
L 46 37.68 
z
" style="fill: #ffffff"/>
   </g>
   <g id="PolyCollection_1">
    <defs>
     <path id="m3e8ccf48f8" d="M 46 -89.36 
L 46 -89.36 
L 47.118236 -87.771415 
L 48.236473 -87.238365 
L 49.354709 -86.813309 
L 50.472946 -86.362852 
L 51.591182 -86.077216 
L 52.709419 -85.728573 
L 53.827655 -85.451301 
L 54.945892 -85.174453 
L 56.064128 -84.974717 
L 57.182365 -84.823113 
L 58.300601 -84.730402 
L 59.418838 -84.513962 
L 60.537074 -84.291356 
L 61.655311 -84.071173 
L 62.773547 -83.991676 
L 63.891784 -83.793958 
L 65.01002 -83.761874 
L 66.128257 -83.599005 
L 67.246493 -83.459489 
L 68.364729 -83.419958 
L 69.482966 -83.29703 
L 70.601202 -83.219631 
L 71.719439 -83.159077 
L 72.837675 -83.012831 
L 73.955912 -82.963344 
L 75.074148 -82.836824 
L 76.192385 -82.746165 
L 77.310621 -82.667213 
L 78.428858 -82.561345 
L 79.547094 -82.384254 
L 80.665331 -82.204954 
L 81.783567 -82.174481 
L 82.901804 -82.092161 
L 84.02004 -81.927916 
L 85.138277 -81.900614 
L 86.256513 -81.793205 
L 87.374749 -81.767928 
L 88.492986 -81.735722 
L 89.611222 -81.672515 
L 90.729459 -81.619993 
L 91.847695 -81.512426 
L 92.965932 -81.362248 
L 94.084168 -81.241935 
L 95.202405 -81.156908 
L 96.320641 -81.104808 
L 97.438878 -81.073334 
L 98.557114 -80.968214 
L 99.675351 -80.86132 
L 100.793587 -80.747991 
L 101.911824 -80.625644 
L 103.03006 -80.60272 
L 104.148297 -80.506072 
L 105.266533 -80.492233 
L 106.38477 -80.427699 
L 107.503006 -80.233426 
L 108.621242 -80.15937 
L 109.739479 -80.148711 
L 110.857715 -80.201321 
L 111.975952 -80.127219 
L 113.094188 -80.181353 
L 114.212425 -80.104015 
L 115.330661 -80.028608 
L 116.448898 -79.888109 
L 117.567134 -79.874573 
L 118.685371 -79.653192 
L 119.803607 -79.575473 
L 120.921844 -79.597871 
L 122.04008 -79.601537 
L 123.158317 -79.74628 
L 124.276553 -79.669265 
L 125.39479 -79.557848 
L 126.513026 -79.489601 
L 127.631263 -79.35584 
L 128.749499 -79.246267 
L 129.867735 -79.235967 
L 130.985972 -79.167639 
L 132.104208 -79.215767 
L 133.222445 -79.132834 
L 134.340681 -79.120639 
L 135.458918 -79.266681 
L 136.577154 -79.165467 
L 137.695391 -79.152543 
L 138.813627 -79.063786 
L 139.931864 -79.079805 
L 141.0501 -79.114496 
L 142.168337 -78.967997 
L 143.286573 -78.983132 
L 144.40481 -79.003997 
L 145.523046 -78.956333 
L 146.641283 -78.934128 
L 147.759519 -78.98955 
L 148.877756 -79.064382 
L 149.995992 -78.983987 
L 151.114228 -78.944178 
L 152.232465 -78.936708 
L 153.350701 -78.911115 
L 154.468938 -78.995592 
L 155.587174 -78.985925 
L 156.705411 -78.882431 
L 157.823647 -78.772526 
L 158.941884 -78.875304 
L 160.06012 -78.912276 
L 161.178357 -78.958041 
L 162.296593 -78.959855 
L 163.41483 -78.951758 
L 164.533066 -78.945149 
L 165.651303 -78.944645 
L 166.769539 -78.876963 
L 167.887776 -78.812344 
L 169.006012 -78.824967 
L 170.124248 -78.758089 
L 171.242485 -78.681062 
L 172.360721 -78.605277 
L 173.478958 -78.76219 
L 174.597194 -78.812609 
L 175.715431 -78.862972 
L 176.833667 -78.755586 
L 177.951904 -78.665186 
L 179.07014 -78.610505 
L 180.188377 -78.568157 
L 181.306613 -78.644165 
L 182.42485 -78.51605 
L 183.543086 -78.483301 
L 184.661323 -78.405011 
L 185.779559 -78.344582 
L 186.897796 -78.198888 
L 188.016032 -78.124585 
L 189.134269 -78.130966 
L 190.252505 -77.899853 
L 191.370741 -77.814499 
L 192.488978 -77.716978 
L 193.607214 -77.541997 
L 194.725451 -77.491074 
L 195.843687 -77.535189 
L 196.961924 -77.530077 
L 198.08016 -77.400207 
L 199.198397 -77.366341 
L 200.316633 -77.332043 
L 201.43487 -77.300878 
L 202.553106 -77.27947 
L 203.671343 -77.247472 
L 204.789579 -77.225211 
L 205.907816 -77.418019 
L 207.026052 -77.470834 
L 208.144289 -77.412179 
L 209.262525 -77.254597 
L 210.380762 -77.249264 
L 211.498998 -77.285998 
L 212.617234 -77.294786 
L 213.735471 -77.301959 
L 214.853707 -77.142126 
L 215.971944 -77.231943 
L 217.09018 -77.265066 
L 218.208417 -77.239587 
L 219.326653 -77.276752 
L 220.44489 -77.44405 
L 221.563126 -77.481359 
L 222.681363 -77.47265 
L 223.799599 -77.274672 
L 224.917836 -77.282417 
L 226.036072 -77.162205 
L 227.154309 -77.142386 
L 228.272545 -76.912219 
L 229.390782 -76.932657 
L 230.509018 -76.795999 
L 231.627255 -76.813333 
L 232.745491 -76.577434 
L 233.863727 -76.465117 
L 234.981964 -76.54538 
L 236.1002 -76.424487 
L 237.218437 -76.38173 
L 238.336673 -76.327658 
L 239.45491 -76.256484 
L 240.573146 -76.240444 
L 241.691383 -76.182439 
L 242.809619 -76.025081 
L 243.927856 -75.941586 
L 245.046092 -75.795115 
L 246.164329 -75.584914 
L 247.282565 -75.518588 
L 248.400802 -75.476427 
L 249.519038 -75.363477 
L 250.637275 -75.464152 
L 251.755511 -75.563933 
L 252.873747 -75.574709 
L 253.991984 -75.644435 
L 255.11022 -75.684708 
L 256.228457 -75.515573 
L 257.346693 -75.486072 
L 258.46493 -75.468786 
L 259.583166 -75.420954 
L 260.701403 -75.41215 
L 261.819639 -75.418043 
L 262.937876 -75.399913 
L 264.056112 -75.468553 
L 265.174349 -75.510507 
L 266.292585 -75.475509 
L 267.410822 -75.356137 
L 268.529058 -75.388389 
L 269.647295 -75.290128 
L 270.765531 -75.208544 
L 271.883768 -75.313508 
L 273.002004 -75.2075 
L 274.12024 -75.074618 
L 275.238477 -74.930423 
L 276.356713 -74.896745 
L 277.47495 -74.713777 
L 278.593186 -74.662772 
L 279.711423 -74.556123 
L 280.829659 -74.553497 
L 281.947896 -74.647593 
L 283.066132 -74.510356 
L 284.184369 -74.539183 
L 285.302605 -74.296498 
L 286.420842 -74.382265 
L 287.539078 -74.464232 
L 288.657315 -74.382153 
L 289.775551 -74.26233 
L 290.893788 -74.177863 
L 292.012024 -73.986287 
L 293.130261 -74.039716 
L 294.248497 -74.021179 
L 295.366733 -73.940609 
L 296.48497 -73.718735 
L 297.603206 -73.734496 
L 298.721443 -73.652051 
L 299.839679 -73.731463 
L 300.957916 -73.656089 
L 302.076152 -73.665013 
L 303.194389 -73.805399 
L 304.312625 -73.767862 
L 305.430862 -73.738773 
L 306.549098 -73.804799 
L 307.667335 -73.769362 
L 308.785571 -73.798461 
L 309.903808 -73.844604 
L 311.022044 -73.838959 
L 312.140281 -73.790321 
L 313.258517 -73.528458 
L 314.376754 -73.512524 
L 315.49499 -73.315673 
L 316.613226 -73.461688 
L 317.731463 -73.428241 
L 318.849699 -73.356936 
L 319.967936 -73.14951 
L 321.086172 -73.167144 
L 322.204409 -73.019309 
L 323.322645 -72.816508 
L 324.440882 -72.835635 
L 325.559118 -72.747869 
L 326.677355 -72.828415 
L 327.795591 -72.884896 
L 328.913828 -72.738115 
L 330.032064 -72.661344 
L 331.150301 -72.657859 
L 332.268537 -72.489023 
L 333.386774 -72.289185 
L 334.50501 -72.330234 
L 335.623246 -72.289839 
L 336.741483 -72.213137 
L 337.859719 -72.163364 
L 338.977956 -72.079201 
L 340.096192 -72.031049 
L 341.214429 -71.875927 
L 342.332665 -71.733611 
L 343.450902 -71.948558 
L 344.569138 -71.760177 
L 345.687375 -71.629745 
L 346.805611 -71.505156 
L 347.923848 -71.539754 
L 349.042084 -71.251964 
L 350.160321 -71.115973 
L 351.278557 -71.087602 
L 352.396794 -70.998776 
L 353.51503 -70.971951 
L 354.633267 -71.035927 
L 355.751503 -71.063549 
L 356.869739 -70.986377 
L 357.987976 -71.045069 
L 359.106212 -71.228285 
L 360.224449 -71.293815 
L 361.342685 -71.185047 
L 362.460922 -71.151362 
L 363.579158 -71.195229 
L 364.697395 -71.056618 
L 365.815631 -71.055216 
L 366.933868 -71.029321 
L 368.052104 -70.622365 
L 369.170341 -70.4332 
L 370.288577 -70.402765 
L 371.406814 -70.364542 
L 372.52505 -70.344834 
L 373.643287 -70.152834 
L 374.761523 -69.888796 
L 375.87976 -69.86759 
L 376.997996 -69.832668 
L 378.116232 -69.903765 
L 379.234469 -70.126242 
L 380.352705 -69.900844 
L 381.470942 -69.810624 
L 382.589178 -69.841247 
L 383.707415 -69.977951 
L 384.825651 -69.822377 
L 385.943888 -69.769489 
L 387.062124 -69.735234 
L 388.180361 -69.793892 
L 389.298597 -69.419944 
L 390.416834 -69.313798 
L 391.53507 -69.290876 
L 392.653307 -69.239054 
L 393.771543 -69.278061 
L 394.88978 -69.109307 
L 396.008016 -68.894784 
L 397.126253 -68.738538 
L 398.244489 -68.397364 
L 399.362725 -68.63189 
L 400.480962 -68.549017 
L 401.599198 -68.368822 
L 402.717435 -67.8994 
L 403.835671 -67.568912 
L 404.953908 -67.494633 
L 406.072144 -67.158828 
L 407.190381 -66.995418 
L 408.308617 -66.887729 
L 409.426854 -66.673301 
L 410.54509 -66.656431 
L 411.663327 -66.675329 
L 412.781563 -67.034576 
L 413.8998 -66.687375 
L 415.018036 -66.459673 
L 416.136273 -66.741016 
L 417.254509 -66.360108 
L 418.372745 -66.193056 
L 419.490982 -66.147107 
L 420.609218 -66.29445 
L 421.727455 -66.092245 
L 422.845691 -66.222333 
L 423.963928 -66.225088 
L 425.082164 -66.503285 
L 426.200401 -66.376269 
L 427.318637 -66.464035 
L 428.436874 -66.580044 
L 429.55511 -66.596952 
L 430.673347 -66.415321 
L 431.791583 -66.496998 
L 432.90982 -66.469143 
L 434.028056 -66.55316 
L 435.146293 -66.133979 
L 436.264529 -66.368843 
L 437.382766 -66.438928 
L 438.501002 -66.208098 
L 439.619238 -66.040174 
L 440.737475 -65.769703 
L 441.855711 -65.678516 
L 442.973948 -65.746568 
L 444.092184 -65.84167 
L 445.210421 -65.838271 
L 446.328657 -66.0316 
L 447.446894 -66.206055 
L 448.56513 -65.906638 
L 449.683367 -66.005823 
L 450.801603 -65.637434 
L 451.91984 -65.597217 
L 453.038076 -65.654523 
L 454.156313 -65.455277 
L 455.274549 -65.352226 
L 456.392786 -65.47993 
L 457.511022 -65.303282 
L 458.629259 -65.144592 
L 459.747495 -65.277233 
L 460.865731 -65.21254 
L 461.983968 -64.823524 
L 463.102204 -64.460716 
L 464.220441 -64.499804 
L 465.338677 -64.636737 
L 466.456914 -64.468477 
L 467.57515 -64.337163 
L 468.693387 -64.186206 
L 469.811623 -64.114887 
L 470.92986 -64.121299 
L 472.048096 -64.026503 
L 473.166333 -63.920658 
L 474.284569 -63.87713 
L 475.402806 -63.820265 
L 476.521042 -63.747505 
L 477.639279 -63.647267 
L 478.757515 -63.47816 
L 479.875752 -63.482114 
L 480.993988 -62.953579 
L 482.112224 -62.525448 
L 483.230461 -62.145795 
L 484.348697 -62.099066 
L 485.466934 -62.145781 
L 486.58517 -62.213982 
L 487.703407 -61.776316 
L 488.821643 -61.881921 
L 489.93988 -61.871975 
L 491.058116 -61.403672 
L 492.176353 -61.705313 
L 493.294589 -61.84711 
L 494.412826 -61.434396 
L 495.531062 -61.27114 
L 496.649299 -61.073264 
L 497.767535 -61.085434 
L 498.885772 -61.296063 
L 500.004008 -61.180184 
L 501.122244 -60.801497 
L 502.240481 -60.617409 
L 503.358717 -60.389912 
L 504.476954 -60.297086 
L 505.59519 -60.72354 
L 506.713427 -60.657553 
L 507.831663 -60.739506 
L 508.9499 -60.453853 
L 510.068136 -60.464303 
L 511.186373 -60.957416 
L 512.304609 -60.820123 
L 513.422846 -60.901026 
L 514.541082 -60.530769 
L 515.659319 -60.094087 
L 516.777555 -60.035993 
L 517.895792 -59.960685 
L 519.014028 -59.919003 
L 520.132265 -59.72941 
L 521.250501 -59.286755 
L 522.368737 -58.966783 
L 523.486974 -58.635522 
L 524.60521 -58.68897 
L 525.723447 -58.454586 
L 526.841683 -58.600942 
L 527.95992 -58.560804 
L 529.078156 -58.286534 
L 530.196393 -58.242395 
L 531.314629 -58.108179 
L 532.432866 -58.002018 
L 533.551102 -57.591534 
L 534.669339 -57.355727 
L 535.787575 -57.317782 
L 536.905812 -57.11776 
L 538.024048 -56.806678 
L 539.142285 -56.839937 
L 540.260521 -56.805812 
L 541.378758 -57.021094 
L 542.496994 -56.728184 
L 543.61523 -56.430431 
L 544.733467 -56.340796 
L 545.851703 -56.383988 
L 546.96994 -56.589799 
L 548.088176 -56.552401 
L 549.206413 -56.648995 
L 550.324649 -56.312123 
L 551.442886 -55.946574 
L 552.561122 -55.744286 
L 553.679359 -55.480469 
L 554.797595 -55.389397 
L 555.915832 -55.114583 
L 557.034068 -55.239498 
L 558.152305 -54.875277 
L 559.270541 -55.093618 
L 560.388778 -55.143416 
L 561.507014 -55.256083 
L 562.625251 -55.44238 
L 563.743487 -55.530887 
L 564.861723 -54.977159 
L 565.97996 -54.976227 
L 567.098196 -55.005459 
L 568.216433 -55.440935 
L 569.334669 -55.497748 
L 570.452906 -55.568372 
L 571.571142 -55.049606 
L 572.689379 -55.279214 
L 573.807615 -55.346668 
L 574.925852 -55.336709 
L 576.044088 -55.585815 
L 577.162325 -55.563175 
L 578.280561 -55.158446 
L 579.398798 -55.073677 
L 580.517034 -55.116951 
L 581.635271 -55.286023 
L 582.753507 -55.139358 
L 583.871743 -55.565961 
L 584.98998 -55.175284 
L 586.108216 -55.216019 
L 587.226453 -55.390605 
L 588.344689 -55.289142 
L 589.462926 -55.181272 
L 590.581162 -54.839126 
L 591.699399 -55.006728 
L 592.817635 -54.290387 
L 593.935872 -54.145644 
L 595.054108 -53.759038 
L 596.172345 -53.988899 
L 597.290581 -53.925152 
L 598.408818 -54.126197 
L 599.527054 -53.988481 
L 600.645291 -53.728319 
L 601.763527 -53.793761 
L 602.881764 -53.772292 
L 604 -53.459484 
L 604 -283.450911 
L 604 -283.450911 
L 602.881764 -282.440693 
L 601.763527 -282.095948 
L 600.645291 -281.206568 
L 599.527054 -280.438631 
L 598.408818 -279.935141 
L 597.290581 -279.644644 
L 596.172345 -279.00895 
L 595.054108 -278.773912 
L 593.935872 -277.798167 
L 592.817635 -277.109557 
L 591.699399 -275.878583 
L 590.581162 -275.718504 
L 589.462926 -274.980768 
L 588.344689 -274.353293 
L 587.226453 -273.689956 
L 586.108216 -273.32261 
L 584.98998 -272.597777 
L 583.871743 -271.748794 
L 582.753507 -271.67482 
L 581.635271 -271.183391 
L 580.517034 -271.212619 
L 579.398798 -270.834372 
L 578.280561 -270.216167 
L 577.162325 -269.330739 
L 576.044088 -269.091893 
L 574.925852 -269.030657 
L 573.807615 -268.503222 
L 572.689379 -268.234058 
L 571.571142 -268.174043 
L 570.452906 -267.06687 
L 569.334669 -266.641714 
L 568.216433 -265.985441 
L 567.098196 -265.958392 
L 565.97996 -265.514153 
L 564.861723 -265.074419 
L 563.743487 -264.113903 
L 562.625251 -263.557724 
L 561.507014 -263.363233 
L 560.388778 -263.083037 
L 559.270541 -263.033732 
L 558.152305 -262.674546 
L 557.034068 -261.519554 
L 555.915832 -261.30387 
L 554.797595 -260.607609 
L 553.679359 -260.161178 
L 552.561122 -259.322202 
L 551.442886 -258.695746 
L 550.324649 -257.59706 
L 549.206413 -256.538798 
L 548.088176 -256.268702 
L 546.96994 -255.940805 
L 545.851703 -255.80449 
L 544.733467 -255.243768 
L 543.61523 -254.373537 
L 542.496994 -253.574015 
L 541.378758 -252.735841 
L 540.260521 -252.375596 
L 539.142285 -251.734012 
L 538.024048 -251.086152 
L 536.905812 -250.292707 
L 535.787575 -249.8535 
L 534.669339 -249.088205 
L 533.551102 -248.319047 
L 532.432866 -247.100944 
L 531.314629 -246.585915 
L 530.196393 -246.277974 
L 529.078156 -245.80076 
L 527.95992 -245.065726 
L 526.841683 -244.382016 
L 525.723447 -244.391384 
L 524.60521 -243.862178 
L 523.486974 -243.327105 
L 522.368737 -242.487059 
L 521.250501 -241.879869 
L 520.132265 -241.03899 
L 519.014028 -240.471713 
L 517.895792 -239.796358 
L 516.777555 -239.341633 
L 515.659319 -238.864203 
L 514.541082 -238.060573 
L 513.422846 -237.058758 
L 512.304609 -236.652541 
L 511.186373 -235.864468 
L 510.068136 -236.007752 
L 508.9499 -235.827841 
L 507.831663 -235.243598 
L 506.713427 -234.719763 
L 505.59519 -234.078333 
L 504.476954 -234.148152 
L 503.358717 -233.548299 
L 502.240481 -233.005581 
L 501.122244 -232.319182 
L 500.004008 -231.30647 
L 498.885772 -230.686685 
L 497.767535 -230.425562 
L 496.649299 -230.202124 
L 495.531062 -229.406143 
L 494.412826 -228.663867 
L 493.294589 -227.665958 
L 492.176353 -227.3135 
L 491.058116 -227.483923 
L 489.93988 -226.400595 
L 488.821643 -225.905819 
L 487.703407 -225.517797 
L 486.58517 -224.57746 
L 485.466934 -224.437744 
L 484.348697 -224.184284 
L 483.230461 -223.827084 
L 482.112224 -223.00618 
L 480.993988 -222.300667 
L 479.875752 -221.265725 
L 478.757515 -220.822014 
L 477.639279 -220.080987 
L 476.521042 -219.651928 
L 475.402806 -219.409393 
L 474.284569 -218.960829 
L 473.166333 -218.400076 
L 472.048096 -217.487948 
L 470.92986 -217.079041 
L 469.811623 -216.799967 
L 468.693387 -216.205025 
L 467.57515 -215.599042 
L 466.456914 -214.946802 
L 465.338677 -214.244635 
L 464.220441 -213.984703 
L 463.102204 -213.513395 
L 461.983968 -212.505381 
L 460.865731 -211.628257 
L 459.747495 -211.083442 
L 458.629259 -210.677378 
L 457.511022 -210.185464 
L 456.392786 -209.72769 
L 455.274549 -209.502387 
L 454.156313 -209.20825 
L 453.038076 -208.613201 
L 451.91984 -208.238161 
L 450.801603 -207.680284 
L 449.683367 -206.732187 
L 448.56513 -206.46187 
L 447.446894 -205.74025 
L 446.328657 -205.386424 
L 445.210421 -205.093138 
L 444.092184 -204.725265 
L 442.973948 -204.561113 
L 441.855711 -204.225556 
L 440.737475 -203.787592 
L 439.619238 -203.098162 
L 438.501002 -202.537035 
L 437.382766 -202.047648 
L 436.264529 -201.446193 
L 435.146293 -201.126279 
L 434.028056 -200.306217 
L 432.90982 -199.98365 
L 431.791583 -199.653818 
L 430.673347 -199.402495 
L 429.55511 -198.904017 
L 428.436874 -198.479312 
L 427.318637 -198.182141 
L 426.200401 -198.060189 
L 425.082164 -197.557516 
L 423.963928 -197.571492 
L 422.845691 -197.176845 
L 421.727455 -196.950783 
L 420.609218 -196.379278 
L 419.490982 -196.234589 
L 418.372745 -195.754436 
L 417.254509 -195.427194 
L 416.136273 -194.562391 
L 415.018036 -194.597404 
L 413.8998 -194.212748 
L 412.781563 -193.441662 
L 411.663327 -193.62658 
L 410.54509 -193.295898 
L 409.426854 -192.981282 
L 408.308617 -192.292973 
L 407.190381 -191.77494 
L 406.072144 -191.235403 
L 404.953908 -190.721964 
L 403.835671 -190.291708 
L 402.717435 -189.60622 
L 401.599198 -188.739394 
L 400.480962 -188.101566 
L 399.362725 -187.670789 
L 398.244489 -187.729065 
L 397.126253 -187.013217 
L 396.008016 -186.31805 
L 394.88978 -185.668909 
L 393.771543 -184.993144 
L 392.653307 -184.817579 
L 391.53507 -184.485178 
L 390.416834 -184.130109 
L 389.298597 -183.614435 
L 388.180361 -182.850735 
L 387.062124 -182.526996 
L 385.943888 -182.278204 
L 384.825651 -181.951286 
L 383.707415 -181.415269 
L 382.589178 -181.23976 
L 381.470942 -180.871994 
L 380.352705 -180.574296 
L 379.234469 -179.907847 
L 378.116232 -179.814757 
L 376.997996 -179.559535 
L 375.87976 -179.245903 
L 374.761523 -179.059719 
L 373.643287 -178.578526 
L 372.52505 -178.016843 
L 371.406814 -177.569537 
L 370.288577 -177.104537 
L 369.170341 -176.823038 
L 368.052104 -176.394399 
L 366.933868 -175.488529 
L 365.815631 -175.065927 
L 364.697395 -174.756664 
L 363.579158 -174.464327 
L 362.460922 -174.271657 
L 361.342685 -173.971609 
L 360.224449 -173.489608 
L 359.106212 -173.136986 
L 357.987976 -173.009015 
L 356.869739 -172.67619 
L 355.751503 -172.189006 
L 354.633267 -171.849304 
L 353.51503 -171.575804 
L 352.396794 -171.365694 
L 351.278557 -171.063146 
L 350.160321 -170.601214 
L 349.042084 -170.181838 
L 347.923848 -169.583541 
L 346.805611 -169.148975 
L 345.687375 -168.548542 
L 344.569138 -168.237011 
L 343.450902 -167.731125 
L 342.332665 -167.723086 
L 341.214429 -167.178164 
L 340.096192 -166.78668 
L 338.977956 -166.303246 
L 337.859719 -165.961751 
L 336.741483 -165.710854 
L 335.623246 -165.372484 
L 334.50501 -165.190336 
L 333.386774 -165.006126 
L 332.268537 -164.573769 
L 331.150301 -164.03548 
L 330.032064 -163.665036 
L 328.913828 -163.415326 
L 327.795591 -162.921906 
L 326.677355 -162.619984 
L 325.559118 -162.345064 
L 324.440882 -161.763604 
L 323.322645 -161.455295 
L 322.204409 -160.906256 
L 321.086172 -160.508055 
L 319.967936 -160.357237 
L 318.849699 -159.940576 
L 317.731463 -159.707076 
L 316.613226 -159.490707 
L 315.49499 -159.447365 
L 314.376754 -158.976911 
L 313.258517 -158.634025 
L 312.140281 -158.084655 
L 311.022044 -157.771298 
L 309.903808 -157.586668 
L 308.785571 -157.286637 
L 307.667335 -157.062161 
L 306.549098 -156.657333 
L 305.430862 -156.545709 
L 304.312625 -156.302745 
L 303.194389 -156.062664 
L 302.076152 -155.898519 
L 300.957916 -155.6959 
L 299.839679 -155.319417 
L 298.721443 -155.210323 
L 297.603206 -154.793141 
L 296.48497 -154.700072 
L 295.366733 -154.196538 
L 294.248497 -153.801351 
L 293.130261 -153.676613 
L 292.012024 -153.522446 
L 290.893788 -152.983791 
L 289.775551 -152.68007 
L 288.657315 -152.319518 
L 287.539078 -151.909177 
L 286.420842 -151.544546 
L 285.302605 -151.368877 
L 284.184369 -150.796283 
L 283.066132 -150.716053 
L 281.947896 -150.269938 
L 280.829659 -150.068255 
L 279.711423 -149.821692 
L 278.593186 -149.500177 
L 277.47495 -149.102524 
L 276.356713 -148.708314 
L 275.238477 -148.422415 
L 274.12024 -147.963852 
L 273.002004 -147.502122 
L 271.883768 -147.148604 
L 270.765531 -147.039927 
L 269.647295 -146.76482 
L 268.529058 -146.373845 
L 267.410822 -146.218536 
L 266.292585 -145.826522 
L 265.174349 -145.60722 
L 264.056112 -145.539811 
L 262.937876 -145.400649 
L 261.819639 -145.220206 
L 260.701403 -144.994132 
L 259.583166 -144.780208 
L 258.46493 -144.421667 
L 257.346693 -144.244949 
L 256.228457 -144.048884 
L 255.11022 -143.622587 
L 253.991984 -143.442097 
L 252.873747 -143.032372 
L 251.755511 -142.798387 
L 250.637275 -142.649759 
L 249.519038 -142.589477 
L 248.400802 -142.270073 
L 247.282565 -141.970862 
L 246.164329 -141.719866 
L 245.046092 -141.165525 
L 243.927856 -140.782359 
L 242.809619 -140.411662 
L 241.691383 -139.881802 
L 240.573146 -139.451433 
L 239.45491 -139.255011 
L 238.336673 -138.976363 
L 237.218437 -138.735137 
L 236.1002 -138.438902 
L 234.981964 -138.134645 
L 233.863727 -138.066305 
L 232.745491 -137.624103 
L 231.627255 -137.012142 
L 230.509018 -136.869562 
L 229.390782 -136.454006 
L 228.272545 -136.140059 
L 227.154309 -135.710963 
L 226.036072 -135.354445 
L 224.917836 -135.01135 
L 223.799599 -134.869923 
L 222.681363 -134.402035 
L 221.563126 -134.16559 
L 220.44489 -133.978282 
L 219.326653 -133.818934 
L 218.208417 -133.597265 
L 217.09018 -133.291172 
L 215.971944 -132.996287 
L 214.853707 -132.950979 
L 213.735471 -132.407103 
L 212.617234 -132.260518 
L 211.498998 -132.017821 
L 210.380762 -131.756535 
L 209.262525 -131.3673 
L 208.144289 -130.958388 
L 207.026052 -130.768665 
L 205.907816 -130.569306 
L 204.789579 -130.516726 
L 203.671343 -130.124233 
L 202.553106 -129.970946 
L 201.43487 -129.65853 
L 200.316633 -129.374246 
L 199.198397 -129.183112 
L 198.08016 -128.900087 
L 196.961924 -128.482456 
L 195.843687 -128.208384 
L 194.725451 -127.947206 
L 193.607214 -127.635298 
L 192.488978 -127.062681 
L 191.370741 -126.705064 
L 190.252505 -126.261925 
L 189.134269 -125.762131 
L 188.016032 -125.488949 
L 186.897796 -125.150179 
L 185.779559 -124.761296 
L 184.661323 -124.474886 
L 183.543086 -124.266031 
L 182.42485 -124.012457 
L 181.306613 -123.664478 
L 180.188377 -123.558286 
L 179.07014 -123.233532 
L 177.951904 -122.835929 
L 176.833667 -122.58249 
L 175.715431 -122.267578 
L 174.597194 -122.07301 
L 173.478958 -121.855337 
L 172.360721 -121.733075 
L 171.242485 -121.545701 
L 170.124248 -121.287437 
L 169.006012 -121.037114 
L 167.887776 -120.756253 
L 166.769539 -120.538545 
L 165.651303 -120.246096 
L 164.533066 -120.08384 
L 163.41483 -119.802218 
L 162.296593 -119.612436 
L 161.178357 -119.310309 
L 160.06012 -119.067886 
L 158.941884 -118.977742 
L 157.823647 -118.7902 
L 156.705411 -118.365141 
L 155.587174 -117.956679 
L 154.468938 -117.734949 
L 153.350701 -117.677051 
L 152.232465 -117.322812 
L 151.114228 -117.1256 
L 149.995992 -116.829663 
L 148.877756 -116.488834 
L 147.759519 -116.395177 
L 146.641283 -116.22259 
L 145.523046 -115.934367 
L 144.40481 -115.648842 
L 143.286573 -115.453551 
L 142.168337 -115.151857 
L 141.0501 -114.698944 
L 139.931864 -114.528784 
L 138.813627 -114.375326 
L 137.695391 -114.125879 
L 136.577154 -113.944898 
L 135.458918 -113.620341 
L 134.340681 -113.493304 
L 133.222445 -113.29693 
L 132.104208 -112.98875 
L 130.985972 -112.84929 
L 129.867735 -112.54891 
L 128.749499 -112.32552 
L 127.631263 -111.995201 
L 126.513026 -111.690711 
L 125.39479 -111.430087 
L 124.276553 -111.104749 
L 123.158317 -110.862985 
L 122.04008 -110.847432 
L 120.921844 -110.642551 
L 119.803607 -110.496143 
L 118.685371 -110.255018 
L 117.567134 -109.808019 
L 116.448898 -109.634178 
L 115.330661 -109.404214 
L 114.212425 -109.198259 
L 113.094188 -108.947068 
L 111.975952 -108.747874 
L 110.857715 -108.550721 
L 109.739479 -108.427007 
L 108.621242 -108.23215 
L 107.503006 -107.938955 
L 106.38477 -107.628284 
L 105.266533 -107.330467 
L 104.148297 -107.065901 
L 103.03006 -106.725539 
L 101.911824 -106.548184 
L 100.793587 -106.284861 
L 99.675351 -106.041487 
L 98.557114 -105.803924 
L 97.438878 -105.549404 
L 96.320641 -105.335217 
L 95.202405 -105.011908 
L 94.084168 -104.680591 
L 92.965932 -104.388849 
L 91.847695 -104.056271 
L 90.729459 -103.745518 
L 89.611222 -103.472816 
L 88.492986 -103.192563 
L 87.374749 -102.963275 
L 86.256513 -102.802618 
L 85.138277 -102.542232 
L 84.02004 -102.382259 
L 82.901804 -102.0641 
L 81.783567 -101.836847 
L 80.665331 -101.58169 
L 79.547094 -101.243356 
L 78.428858 -100.941852 
L 77.310621 -100.697078 
L 76.192385 -100.470566 
L 75.074148 -100.206413 
L 73.955912 -99.913304 
L 72.837675 -99.715812 
L 71.719439 -99.416392 
L 70.601202 -99.201132 
L 69.482966 -98.912716 
L 68.364729 -98.56186 
L 67.246493 -98.265434 
L 66.128257 -98.011149 
L 65.01002 -97.731681 
L 63.891784 -97.378772 
L 62.773547 -96.991057 
L 61.655311 -96.667378 
L 60.537074 -96.240943 
L 59.418838 -95.902772 
L 58.300601 -95.610946 
L 57.182365 -95.263072 
L 56.064128 -94.988101 
L 54.945892 -94.709428 
L 53.827655 -94.313813 
L 52.709419 -93.840662 
L 51.591182 -93.352874 
L 50.472946 -92.853201 
L 49.354709 -92.264707 
L 48.236473 -91.760378 
L 47.118236 -91.039982 
L 46 -89.36 
z
" style="stroke: #808080; stroke-opacity: 0.3"/>
    </defs>
    <g clip-path="url(#p2bb4aa920b)">
     <use xlink:href="#m3e8ccf48f8" x="0" y="311.84" style="fill: #808080; fill-opacity: 0.3; stroke: #808080; stroke-opacity: 0.3"/>
    </g>
   </g>
   <g id="matplotlib.axis_1">
    <g id="xtick_1">
     <g id="line2d_1">
      <defs>
       <path id="m44c28c83a0" d="M 0 0 
L 0 3.5 
" style="stroke: #000000; stroke-width: 0.8"/>
      </defs>
      <g>
       <use xlink:href="#m44c28c83a0" x="46" y="259.44" style="stroke: #000000; stroke-width: 0.8"/>
      </g>
     </g>
     <g id="text_1">
      <!-- 0.0 -->
      <g transform="translate(36 277.3675) scale(0.16 -0.16)">
       <defs>
        <path id="STIXGeneral-Regular-30" d="M 3046 2112 
Q 3046 1683 2963 1302 
Q 2880 922 2717 602 
Q 2554 282 2266 96 
Q 1978 -90 1600 -90 
Q 1210 -90 915 108 
Q 621 307 461 640 
Q 301 973 227 1350 
Q 154 1728 154 2150 
Q 154 2746 301 3222 
Q 448 3699 790 4012 
Q 1133 4326 1626 4326 
Q 2253 4326 2649 3712 
Q 3046 3098 3046 2112 
z
M 2432 2080 
Q 2432 3091 2217 3625 
Q 2003 4160 1587 4160 
Q 1190 4160 979 3622 
Q 768 3085 768 2106 
Q 768 1120 979 598 
Q 1190 77 1600 77 
Q 2003 77 2217 598 
Q 2432 1120 2432 2080 
z
" transform="scale(0.015625)"/>
        <path id="STIXGeneral-Regular-2e" d="M 1158 275 
Q 1158 134 1052 32 
Q 947 -70 800 -70 
Q 653 -70 550 32 
Q 448 134 448 281 
Q 448 429 553 534 
Q 659 640 806 640 
Q 947 640 1052 531 
Q 1158 422 1158 275 
z
" transform="scale(0.015625)"/>
       </defs>
       <use xlink:href="#STIXGeneral-Regular-30"/>
       <use xlink:href="#STIXGeneral-Regular-2e" x="49.999985"/>
       <use xlink:href="#STIXGeneral-Regular-30" x="74.999969"/>
      </g>
     </g>
    </g>
    <g id="xtick_2">
     <g id="line2d_2">
      <g>
       <use xlink:href="#m44c28c83a0" x="157.6" y="259.44" style="stroke: #000000; stroke-width: 0.8"/>
      </g>
     </g>
     <g id="text_2">
      <!-- 0.2 -->
      <g transform="translate(147.6 277.3675) scale(0.16 -0.16)">
       <defs>
        <path id="STIXGeneral-Regular-32" d="M 3034 877 
L 2688 0 
L 186 0 
L 186 77 
L 1325 1286 
Q 1773 1754 1965 2144 
Q 2157 2534 2157 2950 
Q 2157 3379 1920 3616 
Q 1683 3853 1267 3853 
Q 922 3853 720 3673 
Q 518 3494 326 3021 
L 192 3053 
Q 301 3648 630 3987 
Q 960 4326 1523 4326 
Q 2054 4326 2380 4006 
Q 2707 3686 2707 3200 
Q 2707 2477 1888 1613 
L 832 486 
L 2330 486 
Q 2541 486 2665 569 
Q 2790 653 2944 915 
L 3034 877 
z
" transform="scale(0.015625)"/>
       </defs>
       <use xlink:href="#STIXGeneral-Regular-30"/>
       <use xlink:href="#STIXGeneral-Regular-2e" x="49.999985"/>
       <use xlink:href="#STIXGeneral-Regular-32" x="74.999969"/>
      </g>
     </g>
    </g>
    <g id="xtick_3">
     <g id="line2d_3">
      <g>
       <use xlink:href="#m44c28c83a0" x="269.2" y="259.44" style="stroke: #000000; stroke-width: 0.8"/>
      </g>
     </g>
     <g id="text_3">
      <!-- 0.4 -->
      <g transform="translate(259.2 277.3675) scale(0.16 -0.16)">
       <defs>
        <path id="STIXGeneral-Regular-34" d="M 3027 1069 
L 2368 1069 
L 2368 0 
L 1869 0 
L 1869 1069 
L 77 1069 
L 77 1478 
L 2086 4326 
L 2368 4326 
L 2368 1478 
L 3027 1478 
L 3027 1069 
z
M 1869 1478 
L 1869 3674 
L 333 1478 
L 1869 1478 
z
" transform="scale(0.015625)"/>
       </defs>
       <use xlink:href="#STIXGeneral-Regular-30"/>
       <use xlink:href="#STIXGeneral-Regular-2e" x="49.999985"/>
       <use xlink:href="#STIXGeneral-Regular-34" x="74.999969"/>
      </g>
     </g>
    </g>
    <g id="xtick_4">
     <g id="line2d_4">
      <g>
       <use xlink:href="#m44c28c83a0" x="380.8" y="259.44" style="stroke: #000000; stroke-width: 0.8"/>
      </g>
     </g>
     <g id="text_4">
      <!-- 0.6 -->
      <g transform="translate(370.8 277.3675) scale(0.16 -0.16)">
       <defs>
        <path id="STIXGeneral-Regular-36" d="M 2854 4378 
L 2867 4275 
Q 2112 4154 1606 3664 
Q 1101 3174 973 2451 
Q 1344 2739 1786 2739 
Q 2349 2739 2672 2380 
Q 2995 2022 2995 1402 
Q 2995 774 2669 378 
Q 2291 -90 1651 -90 
Q 870 -90 518 557 
Q 218 1107 218 1786 
Q 218 2835 915 3552 
Q 1312 3962 1731 4131 
Q 2150 4301 2854 4378 
z
M 2419 1203 
Q 2419 2445 1555 2445 
Q 1235 2445 1024 2275 
Q 813 2106 813 1702 
Q 813 954 1046 522 
Q 1280 90 1722 90 
Q 2061 90 2240 394 
Q 2419 698 2419 1203 
z
" transform="scale(0.015625)"/>
       </defs>
       <use xlink:href="#STIXGeneral-Regular-30"/>
       <use xlink:href="#STIXGeneral-Regular-2e" x="49.999985"/>
       <use xlink:href="#STIXGeneral-Regular-36" x="74.999969"/>
      </g>
     </g>
    </g>
    <g id="xtick_5">
     <g id="line2d_5">
      <g>
       <use xlink:href="#m44c28c83a0" x="492.4" y="259.44" style="stroke: #000000; stroke-width: 0.8"/>
      </g>
     </g>
     <g id="text_5">
      <!-- 0.8 -->
      <g transform="translate(482.4 277.3675) scale(0.16 -0.16)">
       <defs>
        <path id="STIXGeneral-Regular-38" d="M 2848 992 
Q 2848 499 2505 204 
Q 2163 -90 1587 -90 
Q 1050 -90 704 204 
Q 358 499 358 954 
Q 358 1293 524 1533 
Q 691 1773 1190 2125 
Q 710 2522 553 2765 
Q 397 3008 397 3328 
Q 397 3782 745 4054 
Q 1094 4326 1638 4326 
Q 2106 4326 2410 4060 
Q 2714 3795 2714 3411 
Q 2714 3059 2531 2848 
Q 2349 2637 1856 2374 
Q 2432 1990 2640 1689 
Q 2848 1389 2848 992 
z
M 2272 3411 
Q 2272 3744 2086 3945 
Q 1901 4147 1574 4147 
Q 1248 4147 1059 3977 
Q 870 3808 870 3513 
Q 870 3219 1059 2979 
Q 1248 2739 1670 2490 
Q 1997 2682 2134 2896 
Q 2272 3110 2272 3411 
z
M 1734 1741 
L 1357 1997 
Q 1075 1766 960 1545 
Q 845 1325 845 1011 
Q 845 576 1065 333 
Q 1286 90 1658 90 
Q 1971 90 2166 285 
Q 2362 480 2362 794 
Q 2362 1082 2214 1299 
Q 2067 1517 1734 1741 
z
" transform="scale(0.015625)"/>
       </defs>
       <use xlink:href="#STIXGeneral-Regular-30"/>
       <use xlink:href="#STIXGeneral-Regular-2e" x="49.999985"/>
       <use xlink:href="#STIXGeneral-Regular-38" x="74.999969"/>
      </g>
     </g>
    </g>
    <g id="xtick_6">
     <g id="line2d_6">
      <g>
       <use xlink:href="#m44c28c83a0" x="604" y="259.44" style="stroke: #000000; stroke-width: 0.8"/>
      </g>
     </g>
     <g id="text_6">
      <!-- 1.0 -->
      <g transform="translate(594 277.3675) scale(0.16 -0.16)">
       <defs>
        <path id="STIXGeneral-Regular-31" d="M 2522 0 
L 755 0 
L 755 96 
Q 1107 115 1235 227 
Q 1363 339 1363 608 
L 1363 3482 
Q 1363 3795 1171 3795 
Q 1082 3795 883 3718 
L 710 3654 
L 710 3744 
L 1856 4326 
L 1914 4307 
L 1914 486 
Q 1914 275 2042 185 
Q 2170 96 2522 96 
L 2522 0 
z
" transform="scale(0.015625)"/>
       </defs>
       <use xlink:href="#STIXGeneral-Regular-31"/>
       <use xlink:href="#STIXGeneral-Regular-2e" x="49.999985"/>
       <use xlink:href="#STIXGeneral-Regular-30" x="74.999969"/>
      </g>
     </g>
    </g>
    <g id="text_7">
     <!-- $t$ -->
     <g transform="translate(321.92 299.865312) scale(0.22 -0.22)">
      <defs>
       <path id="STIXGeneral-Italic-74" d="M 1894 2739 
L 1862 2534 
L 1325 2534 
L 768 435 
Q 755 384 755 346 
Q 755 243 851 243 
Q 928 243 1030 342 
Q 1133 442 1370 749 
L 1453 704 
Q 1158 256 969 93 
Q 781 -70 538 -70 
Q 243 -70 243 166 
Q 243 230 346 640 
L 845 2534 
L 365 2534 
L 358 2573 
Q 358 2688 570 2733 
Q 730 2771 992 2979 
Q 1254 3187 1421 3437 
Q 1459 3494 1510 3494 
Q 1568 3494 1568 3443 
Q 1568 3411 1562 3398 
L 1382 2739 
L 1894 2739 
z
" transform="scale(0.015625)"/>
      </defs>
      <use xlink:href="#STIXGeneral-Italic-74" transform="translate(0 0.40625)"/>
     </g>
    </g>
   </g>
   <g id="matplotlib.axis_2">
    <g id="ytick_1">
     <g id="line2d_7">
      <defs>
       <path id="m3bf2bc5047" d="M 0 0 
L -3.5 0 
" style="stroke: #000000; stroke-width: 0.8"/>
      </defs>
      <g>
       <use xlink:href="#m3bf2bc5047" x="46" y="259.44" style="stroke: #000000; stroke-width: 0.8"/>
      </g>
     </g>
     <g id="text_8">
      <!-- 0 -->
      <g transform="translate(31 264.90375) scale(0.16 -0.16)">
       <use xlink:href="#STIXGeneral-Regular-30"/>
      </g>
     </g>
    </g>
    <g id="ytick_2">
     <g id="line2d_8">
      <g>
       <use xlink:href="#m3bf2bc5047" x="46" y="185.52" style="stroke: #000000; stroke-width: 0.8"/>
      </g>
     </g>
     <g id="text_9">
      <!-- 2 -->
      <g transform="translate(31 190.98375) scale(0.16 -0.16)">
       <use xlink:href="#STIXGeneral-Regular-32"/>
      </g>
     </g>
    </g>
    <g id="ytick_3">
     <g id="line2d_9">
      <g>
       <use xlink:href="#m3bf2bc5047" x="46" y="111.6" style="stroke: #000000; stroke-width: 0.8"/>
      </g>
     </g>
     <g id="text_10">
      <!-- 4 -->
      <g transform="translate(31 117.06375) scale(0.16 -0.16)">
       <use xlink:href="#STIXGeneral-Regular-34"/>
      </g>
     </g>
    </g>
    <g id="ytick_4">
     <g id="line2d_10">
      <g>
       <use xlink:href="#m3bf2bc5047" x="46" y="37.68" style="stroke: #000000; stroke-width: 0.8"/>
      </g>
     </g>
     <g id="text_11">
      <!-- 6 -->
      <g transform="translate(31 43.14375) scale(0.16 -0.16)">
       <use xlink:href="#STIXGeneral-Regular-36"/>
      </g>
     </g>
    </g>
    <g id="text_12">
     <!-- $X(t)$ -->
     <g transform="translate(22.225313 165.72) rotate(-90) scale(0.22 -0.22)">
      <defs>
       <path id="STIXGeneral-Italic-58" d="M 4192 4179 
L 4192 4077 
Q 3981 4006 3805 3875 
Q 3629 3744 3392 3469 
L 2310 2227 
L 2957 595 
Q 3072 307 3187 224 
Q 3302 141 3629 102 
L 3629 0 
L 1894 0 
L 1894 102 
Q 2170 109 2278 163 
Q 2387 218 2387 339 
Q 2387 442 2298 666 
L 1869 1722 
L 902 621 
Q 755 454 755 314 
Q 755 102 1178 102 
L 1178 0 
L -186 0 
L -186 102 
Q 70 147 300 361 
Q 531 576 1222 1382 
L 1754 2003 
L 1094 3635 
Q 998 3872 880 3961 
Q 762 4051 486 4077 
L 486 4179 
L 2170 4179 
L 2170 4077 
Q 1907 4045 1811 3990 
Q 1715 3936 1715 3814 
Q 1715 3706 1818 3456 
L 2195 2515 
L 3123 3584 
Q 3258 3738 3258 3859 
Q 3258 4058 2867 4077 
L 2867 4179 
L 4192 4179 
z
" transform="scale(0.015625)"/>
       <path id="STIXGeneral-Regular-28" d="M 1946 -1030 
L 1869 -1133 
Q 1126 -710 716 32 
Q 307 774 307 1613 
Q 307 3386 1888 4326 
L 1946 4224 
Q 1293 3667 1075 3126 
Q 858 2586 858 1632 
Q 858 685 1082 96 
Q 1306 -493 1946 -1030 
z
" transform="scale(0.015625)"/>
       <path id="STIXGeneral-Regular-29" d="M 186 4224 
L 262 4326 
Q 992 3891 1408 3148 
Q 1824 2406 1824 1581 
Q 1824 -166 243 -1133 
L 186 -1030 
Q 845 -486 1059 54 
Q 1274 595 1274 1562 
Q 1274 2534 1059 3120 
Q 845 3706 186 4224 
z
" transform="scale(0.015625)"/>
      </defs>
      <use xlink:href="#STIXGeneral-Italic-58" transform="translate(0 0.40625)"/>
      <use xlink:href="#STIXGeneral-Regular-28" transform="translate(61.099991 0.40625)"/>
      <use xlink:href="#STIXGeneral-Italic-74" transform="translate(94.399979 0.40625)"/>
      <use xlink:href="#STIXGeneral-Regular-29" transform="translate(122.199966 0.40625)"/>
     </g>
    </g>
   </g>
   <g id="line2d_11">
    <path d="M 46 222.48 
L 47.118236 220.915837 
L 48.236473 220.35568 
L 49.354709 221.596917 
L 50.472946 220.145722 
L 51.591182 219.523178 
L 52.709419 219.165139 
L 53.827655 217.198465 
L 54.945892 217.598237 
L 56.064128 216.568321 
L 57.182365 215.09933 
L 58.300601 215.210727 
L 59.418838 215.050045 
L 60.537074 214.010602 
L 62.773547 215.191037 
L 63.891784 212.584592 
L 65.01002 214.506474 
L 66.128257 215.042811 
L 67.246493 214.947766 
L 68.364729 213.50311 
L 69.482966 213.070007 
L 70.601202 213.989839 
L 71.719439 214.698446 
L 72.837675 214.454276 
L 73.955912 214.704362 
L 76.192385 213.808915 
L 77.310621 212.945157 
L 78.428858 213.828871 
L 79.547094 212.665521 
L 80.665331 212.181018 
L 81.783567 212.995588 
L 82.901804 212.463293 
L 84.02004 213.790699 
L 85.138277 214.788022 
L 86.256513 214.309361 
L 87.374749 214.613592 
L 88.492986 215.808091 
L 89.611222 216.017186 
L 90.729459 216.668537 
L 91.847695 218.401666 
L 92.965932 219.535581 
L 94.084168 220.376632 
L 96.320641 222.652521 
L 97.438878 222.112817 
L 98.557114 222.114673 
L 99.675351 221.14652 
L 100.793587 221.649381 
L 101.911824 222.768617 
L 103.03006 222.640752 
L 104.148297 222.37616 
L 105.266533 221.312815 
L 106.38477 220.760378 
L 107.503006 220.864274 
L 108.621242 221.088965 
L 109.739479 220.734534 
L 110.857715 219.871488 
L 111.975952 220.058551 
L 113.094188 218.46178 
L 114.212425 219.357191 
L 115.330661 217.907616 
L 116.448898 217.704784 
L 117.567134 217.197826 
L 118.685371 218.483292 
L 119.803607 219.063043 
L 120.921844 219.30788 
L 122.04008 219.011713 
L 123.158317 219.386034 
L 124.276553 220.039545 
L 125.39479 221.570057 
L 126.513026 222.018612 
L 127.631263 221.805104 
L 128.749499 220.784847 
L 129.867735 222.124247 
L 130.985972 221.446155 
L 132.104208 222.03864 
L 133.222445 220.876267 
L 134.340681 220.401677 
L 135.458918 220.063866 
L 137.695391 218.94873 
L 138.813627 219.194496 
L 139.931864 218.346025 
L 141.0501 218.166122 
L 142.168337 217.567467 
L 143.286573 217.71001 
L 144.40481 220.154945 
L 145.523046 220.368059 
L 146.641283 219.286624 
L 147.759519 219.099303 
L 148.877756 219.278579 
L 149.995992 219.002839 
L 151.114228 219.6796 
L 152.232465 220.645174 
L 153.350701 222.408336 
L 154.468938 220.96225 
L 155.587174 220.876032 
L 156.705411 218.966504 
L 157.823647 218.947194 
L 158.941884 219.302531 
L 160.06012 218.255304 
L 161.178357 216.671978 
L 162.296593 216.522483 
L 163.41483 216.636131 
L 164.533066 216.882686 
L 165.651303 214.69805 
L 166.769539 214.426718 
L 167.887776 215.338156 
L 169.006012 216.095147 
L 171.242485 214.047596 
L 172.360721 215.07109 
L 173.478958 215.279243 
L 174.597194 214.423866 
L 175.715431 213.802479 
L 176.833667 214.013617 
L 177.951904 214.347174 
L 179.07014 213.454541 
L 180.188377 213.398894 
L 181.306613 211.351012 
L 183.543086 212.12614 
L 184.661323 211.834009 
L 186.897796 213.866609 
L 188.016032 213.113998 
L 189.134269 213.296008 
L 190.252505 212.556851 
L 191.370741 212.248478 
L 192.488978 213.359672 
L 193.607214 212.803012 
L 194.725451 213.87753 
L 195.843687 214.249596 
L 196.961924 212.501353 
L 198.08016 213.244911 
L 199.198397 213.603021 
L 200.316633 213.444277 
L 201.43487 212.572293 
L 202.553106 212.289505 
L 203.671343 211.747556 
L 204.789579 212.577962 
L 205.907816 211.934337 
L 207.026052 210.934021 
L 208.144289 212.165281 
L 209.262525 212.886842 
L 210.380762 212.91153 
L 211.498998 213.639459 
L 212.617234 213.734364 
L 213.735471 212.292056 
L 214.853707 211.588951 
L 215.971944 213.174629 
L 217.09018 212.13059 
L 218.208417 211.901749 
L 219.326653 209.517634 
L 220.44489 209.443052 
L 221.563126 209.850302 
L 222.681363 210.859693 
L 223.799599 212.911224 
L 224.917836 212.951409 
L 226.036072 214.077895 
L 227.154309 211.761149 
L 228.272545 213.603881 
L 229.390782 213.372967 
L 230.509018 212.989071 
L 231.627255 213.351958 
L 232.745491 214.598578 
L 233.863727 215.09463 
L 234.981964 214.555955 
L 236.1002 216.228277 
L 237.218437 215.542132 
L 238.336673 215.521282 
L 239.45491 213.909658 
L 240.573146 214.520532 
L 241.691383 216.166538 
L 242.809619 217.392976 
L 243.927856 217.588236 
L 245.046092 216.235405 
L 246.164329 216.631126 
L 247.282565 216.078463 
L 248.400802 215.397009 
L 249.519038 214.502713 
L 250.637275 215.699768 
L 251.755511 214.758528 
L 252.873747 213.181215 
L 253.991984 214.216185 
L 255.11022 214.396376 
L 256.228457 213.07621 
L 257.346693 212.695213 
L 258.46493 212.933428 
L 259.583166 212.889612 
L 260.701403 211.779038 
L 261.819639 211.093516 
L 264.056112 213.044074 
L 265.174349 213.09993 
L 266.292585 213.637869 
L 267.410822 213.490565 
L 268.529058 211.77697 
L 269.647295 212.104044 
L 270.765531 211.967165 
L 271.883768 211.305464 
L 273.002004 211.085561 
L 274.12024 212.818655 
L 275.238477 212.223087 
L 276.356713 210.531884 
L 277.47495 210.732088 
L 278.593186 212.912693 
L 279.711423 212.57416 
L 280.829659 212.529242 
L 283.066132 213.57387 
L 284.184369 215.483268 
L 285.302605 215.607373 
L 286.420842 216.009747 
L 287.539078 217.624168 
L 288.657315 218.544185 
L 289.775551 218.091897 
L 290.893788 217.956834 
L 292.012024 217.571851 
L 293.130261 216.216345 
L 295.366733 211.652381 
L 297.603206 211.856441 
L 298.721443 211.124705 
L 299.839679 208.729121 
L 300.957916 208.788531 
L 302.076152 208.680098 
L 303.194389 206.371085 
L 304.312625 205.706127 
L 305.430862 208.385021 
L 306.549098 209.03634 
L 307.667335 208.655142 
L 308.785571 209.417686 
L 309.903808 210.738525 
L 311.022044 207.690811 
L 312.140281 207.822951 
L 313.258517 210.400224 
L 314.376754 210.223467 
L 315.49499 209.330465 
L 316.613226 209.039886 
L 317.731463 208.93559 
L 318.849699 211.101638 
L 319.967936 210.748961 
L 321.086172 212.293522 
L 322.204409 212.298251 
L 323.322645 212.655356 
L 324.440882 212.870369 
L 325.559118 214.044518 
L 326.677355 215.029822 
L 328.913828 216.060407 
L 330.032064 217.291664 
L 331.150301 218.834113 
L 332.268537 219.646036 
L 333.386774 219.728879 
L 334.50501 220.469101 
L 335.623246 221.697606 
L 336.741483 222.697322 
L 337.859719 221.512102 
L 338.977956 220.157925 
L 340.096192 220.240251 
L 341.214429 219.80276 
L 342.332665 219.852927 
L 343.450902 219.70732 
L 344.569138 219.335716 
L 345.687375 221.017183 
L 346.805611 221.743203 
L 347.923848 221.901788 
L 349.042084 222.247897 
L 350.160321 221.707097 
L 351.278557 222.373928 
L 352.396794 222.631151 
L 353.51503 223.969151 
L 354.633267 224.21633 
L 355.751503 223.926649 
L 356.869739 225.179152 
L 359.106212 226.205349 
L 360.224449 225.814517 
L 361.342685 226.705149 
L 362.460922 228.185095 
L 363.579158 227.658361 
L 364.697395 228.180691 
L 365.815631 228.112502 
L 366.933868 227.322875 
L 368.052104 226.881132 
L 369.170341 227.2048 
L 370.288577 226.92237 
L 371.406814 226.382836 
L 372.52505 226.246601 
L 373.643287 225.462114 
L 374.761523 225.358267 
L 375.87976 225.961157 
L 378.116232 226.020012 
L 379.234469 225.893351 
L 380.352705 226.82693 
L 381.470942 226.131761 
L 383.707415 223.724077 
L 384.825651 224.3118 
L 385.943888 223.620965 
L 387.062124 223.999382 
L 388.180361 224.80362 
L 389.298597 225.164082 
L 390.416834 224.271768 
L 391.53507 224.748356 
L 392.653307 224.095396 
L 393.771543 225.247342 
L 394.88978 225.909749 
L 397.126253 225.286219 
L 400.480962 224.234101 
L 402.717435 223.530221 
L 403.835671 222.764692 
L 404.953908 223.654738 
L 406.072144 223.187205 
L 407.190381 223.10163 
L 408.308617 223.338733 
L 409.426854 223.095375 
L 411.663327 222.75249 
L 412.781563 223.378083 
L 413.8998 223.127148 
L 415.018036 223.266464 
L 416.136273 223.999705 
L 417.254509 222.627042 
L 418.372745 222.133452 
L 419.490982 222.170206 
L 420.609218 221.670039 
L 421.727455 220.239224 
L 422.845691 220.849231 
L 423.963928 221.306871 
L 425.082164 220.873995 
L 426.200401 220.745689 
L 427.318637 221.04417 
L 428.436874 220.797868 
L 429.55511 219.812936 
L 430.673347 219.622872 
L 434.028056 220.545305 
L 435.146293 220.348796 
L 436.264529 218.90669 
L 437.382766 218.495613 
L 438.501002 219.399287 
L 439.619238 220.941688 
L 440.737475 219.565001 
L 441.855711 219.868623 
L 442.973948 220.515576 
L 444.092184 220.411928 
L 445.210421 219.42354 
L 446.328657 218.88875 
L 447.446894 219.0151 
L 448.56513 218.995504 
L 449.683367 220.83696 
L 450.801603 220.90947 
L 453.038076 223.419808 
L 454.156313 222.904281 
L 455.274549 222.69786 
L 456.392786 222.943667 
L 457.511022 222.982527 
L 458.629259 223.926548 
L 459.747495 224.159699 
L 460.865731 224.052365 
L 461.983968 222.361457 
L 463.102204 221.448719 
L 464.220441 222.358301 
L 465.338677 222.762421 
L 466.456914 221.880862 
L 467.57515 223.568377 
L 468.693387 224.655797 
L 469.811623 224.582647 
L 470.92986 224.660997 
L 472.048096 224.919551 
L 473.166333 226.58117 
L 474.284569 226.548031 
L 475.402806 224.831548 
L 476.521042 225.406362 
L 477.639279 225.187676 
L 478.757515 224.523841 
L 479.875752 225.038052 
L 480.993988 224.621844 
L 483.230461 223.025982 
L 484.348697 223.087188 
L 485.466934 223.509972 
L 486.58517 223.337228 
L 487.703407 223.860577 
L 488.821643 223.487477 
L 489.93988 223.614595 
L 491.058116 222.440051 
L 492.176353 220.946587 
L 493.294589 221.295386 
L 494.412826 222.107249 
L 495.531062 221.666593 
L 496.649299 221.47778 
L 497.767535 219.696541 
L 498.885772 219.314988 
L 500.004008 220.119434 
L 502.240481 220.669566 
L 503.358717 221.961584 
L 505.59519 220.356962 
L 507.831663 222.109559 
L 508.9499 221.847842 
L 510.068136 223.397566 
L 512.304609 223.704093 
L 513.422846 222.755376 
L 514.541082 223.757921 
L 515.659319 224.553449 
L 517.895792 222.695081 
L 519.014028 222.651381 
L 520.132265 223.873009 
L 522.368737 222.3914 
L 523.486974 222.081273 
L 524.60521 222.603333 
L 526.841683 223.462387 
L 527.95992 224.886086 
L 530.196393 223.168687 
L 532.432866 224.357003 
L 533.551102 225.0763 
L 534.669339 225.226337 
L 535.787575 224.318849 
L 536.905812 223.965982 
L 538.024048 224.722984 
L 539.142285 225.029422 
L 540.260521 224.176973 
L 541.378758 224.705287 
L 542.496994 224.950185 
L 545.851703 223.035038 
L 546.96994 223.370134 
L 548.088176 223.414821 
L 549.206413 224.234912 
L 550.324649 224.018734 
L 551.442886 224.026545 
L 552.561122 224.215661 
L 553.679359 224.200739 
L 555.915832 223.554798 
L 557.034068 223.380924 
L 558.152305 222.43774 
L 559.270541 221.820488 
L 560.388778 222.0645 
L 561.507014 221.294982 
L 562.625251 221.045592 
L 563.743487 221.1961 
L 564.861723 221.803758 
L 565.97996 222.138654 
L 567.098196 222.68775 
L 568.216433 222.235911 
L 569.334669 221.344456 
L 570.452906 221.842824 
L 571.571142 221.964863 
L 572.689379 222.772639 
L 573.807615 222.103665 
L 574.925852 222.184003 
L 577.162325 220.604261 
L 578.280561 220.813844 
L 579.398798 221.327956 
L 580.517034 221.018175 
L 581.635271 219.821933 
L 582.753507 220.049149 
L 583.871743 218.311039 
L 584.98998 218.34923 
L 586.108216 217.17805 
L 587.226453 213.30472 
L 588.344689 212.512321 
L 589.462926 212.535511 
L 590.581162 210.9704 
L 591.699399 210.804316 
L 592.817635 212.848674 
L 593.935872 211.441011 
L 596.172345 209.726891 
L 597.290581 209.28152 
L 598.408818 208.988537 
L 599.527054 208.25709 
L 600.645291 207.710936 
L 602.881764 209.006144 
L 604 209.208485 
L 604 209.208485 
" clip-path="url(#p2bb4aa920b)" style="fill: none; stroke: #ff0000; stroke-width: 1.5; stroke-linecap: square"/>
   </g>
   <g id="line2d_12">
    <path d="M 46 222.48 
L 47.118236 222.072997 
L 48.236473 221.243329 
L 49.354709 222.60415 
L 50.472946 222.057877 
L 51.591182 220.406393 
L 52.709419 220.967759 
L 53.827655 221.675058 
L 54.945892 221.24408 
L 56.064128 220.944232 
L 57.182365 220.48238 
L 58.300601 221.124796 
L 59.418838 221.110183 
L 60.537074 220.668363 
L 61.655311 221.772788 
L 62.773547 221.952012 
L 63.891784 221.380502 
L 65.01002 222.008779 
L 66.128257 223.789437 
L 67.246493 223.111541 
L 68.364729 224.004705 
L 69.482966 223.934002 
L 70.601202 225.168968 
L 71.719439 225.823173 
L 72.837675 227.278166 
L 73.955912 226.057425 
L 75.074148 225.880519 
L 76.192385 225.512511 
L 77.310621 225.468624 
L 78.428858 225.538358 
L 79.547094 227.232914 
L 80.665331 226.947618 
L 82.901804 224.203339 
L 84.02004 222.961195 
L 85.138277 223.362116 
L 86.256513 222.1466 
L 87.374749 221.752962 
L 88.492986 221.798283 
L 89.611222 222.192046 
L 90.729459 221.229748 
L 91.847695 220.515298 
L 92.965932 222.196947 
L 94.084168 221.645588 
L 95.202405 221.796714 
L 96.320641 222.985038 
L 97.438878 223.980409 
L 98.557114 224.460199 
L 99.675351 224.312199 
L 100.793587 226.570899 
L 101.911824 227.700012 
L 103.03006 226.404125 
L 104.148297 225.753688 
L 105.266533 225.28932 
L 106.38477 225.28966 
L 107.503006 224.42478 
L 109.739479 223.173949 
L 110.857715 223.222308 
L 111.975952 224.317756 
L 113.094188 224.365495 
L 114.212425 224.950866 
L 115.330661 224.268835 
L 117.567134 223.566214 
L 118.685371 222.828499 
L 119.803607 223.058271 
L 120.921844 224.312316 
L 122.04008 225.366444 
L 123.158317 225.409586 
L 124.276553 226.147987 
L 125.39479 224.801052 
L 127.631263 227.535734 
L 128.749499 226.81195 
L 130.985972 226.584028 
L 132.104208 227.069469 
L 133.222445 226.751648 
L 134.340681 227.260644 
L 135.458918 226.259399 
L 136.577154 225.52452 
L 137.695391 226.11781 
L 138.813627 225.828923 
L 139.931864 225.157865 
L 141.0501 225.507918 
L 143.286573 225.503802 
L 144.40481 225.574466 
L 145.523046 225.90995 
L 146.641283 226.647019 
L 147.759519 225.265143 
L 148.877756 225.722177 
L 149.995992 226.667771 
L 151.114228 224.68651 
L 152.232465 224.844201 
L 153.350701 223.641119 
L 154.468938 225.070683 
L 155.587174 225.033743 
L 156.705411 225.240983 
L 157.823647 225.863065 
L 158.941884 224.812602 
L 160.06012 223.995884 
L 163.41483 223.214291 
L 164.533066 221.878052 
L 165.651303 221.215937 
L 166.769539 221.678909 
L 167.887776 220.878143 
L 169.006012 221.552499 
L 170.124248 222.713518 
L 171.242485 222.517191 
L 172.360721 222.500129 
L 173.478958 220.504979 
L 174.597194 219.716661 
L 175.715431 220.278873 
L 176.833667 220.313062 
L 177.951904 219.590554 
L 179.07014 219.675464 
L 180.188377 219.113262 
L 181.306613 220.369518 
L 182.42485 219.053954 
L 184.661323 219.489874 
L 185.779559 220.4208 
L 186.897796 218.496416 
L 189.134269 219.916032 
L 190.252505 218.124717 
L 191.370741 217.83488 
L 192.488978 217.870329 
L 193.607214 217.408592 
L 194.725451 218.72764 
L 195.843687 218.363303 
L 196.961924 218.288601 
L 198.08016 219.859988 
L 199.198397 220.35425 
L 200.316633 221.578483 
L 201.43487 220.537644 
L 202.553106 219.307096 
L 203.671343 219.686538 
L 204.789579 219.200611 
L 205.907816 219.041797 
L 208.144289 219.233219 
L 209.262525 219.631961 
L 210.380762 219.78082 
L 211.498998 221.66651 
L 212.617234 223.199787 
L 213.735471 223.143531 
L 214.853707 224.12484 
L 215.971944 224.131348 
L 217.09018 223.36678 
L 218.208417 223.338146 
L 219.326653 223.483845 
L 220.44489 223.898669 
L 221.563126 223.941716 
L 222.681363 222.120912 
L 223.799599 221.684357 
L 224.917836 222.172912 
L 226.036072 221.698204 
L 227.154309 220.018701 
L 228.272545 219.090686 
L 229.390782 220.092534 
L 230.509018 220.581478 
L 231.627255 220.328649 
L 232.745491 219.784698 
L 233.863727 220.786945 
L 234.981964 219.974419 
L 236.1002 218.791165 
L 237.218437 218.107932 
L 238.336673 218.54317 
L 239.45491 218.279151 
L 241.691383 218.955764 
L 242.809619 218.34084 
L 243.927856 218.418291 
L 245.046092 217.882214 
L 247.282565 217.987784 
L 248.400802 218.255467 
L 249.519038 217.780253 
L 250.637275 217.150687 
L 251.755511 218.908006 
L 253.991984 220.613366 
L 255.11022 220.262533 
L 256.228457 218.960615 
L 257.346693 218.831683 
L 258.46493 219.02366 
L 259.583166 218.890589 
L 260.701403 220.190032 
L 261.819639 220.711477 
L 262.937876 220.451319 
L 264.056112 219.738096 
L 265.174349 219.261862 
L 266.292585 218.245631 
L 267.410822 219.041842 
L 268.529058 219.653559 
L 269.647295 220.476279 
L 270.765531 220.101592 
L 271.883768 220.263817 
L 273.002004 221.107075 
L 274.12024 220.83355 
L 275.238477 219.556335 
L 276.356713 220.120576 
L 277.47495 221.228156 
L 278.593186 221.527304 
L 279.711423 222.105486 
L 280.829659 221.034566 
L 281.947896 221.323692 
L 284.184369 223.709327 
L 285.302605 222.799031 
L 286.420842 222.896403 
L 288.657315 222.153156 
L 289.775551 221.085189 
L 290.893788 222.921488 
L 292.012024 223.534083 
L 293.130261 223.266903 
L 294.248497 223.151818 
L 295.366733 222.814741 
L 296.48497 222.281031 
L 297.603206 221.383826 
L 298.721443 221.160203 
L 299.839679 219.866399 
L 300.957916 219.936601 
L 302.076152 218.566741 
L 303.194389 215.874595 
L 304.312625 215.002223 
L 305.430862 216.281581 
L 306.549098 215.337879 
L 307.667335 214.783363 
L 308.785571 214.462021 
L 309.903808 213.588115 
L 311.022044 214.277237 
L 312.140281 213.772867 
L 313.258517 212.515978 
L 314.376754 211.673511 
L 316.613226 213.716007 
L 317.731463 213.593174 
L 318.849699 212.963207 
L 321.086172 214.05365 
L 322.204409 211.580912 
L 323.322645 212.32624 
L 324.440882 211.298269 
L 326.677355 212.175889 
L 328.913828 212.599301 
L 330.032064 212.221272 
L 331.150301 212.368169 
L 332.268537 210.852127 
L 333.386774 211.850179 
L 335.623246 212.177618 
L 336.741483 212.047464 
L 337.859719 211.376551 
L 338.977956 209.707283 
L 340.096192 210.265961 
L 341.214429 209.545887 
L 342.332665 210.117092 
L 343.450902 210.395775 
L 344.569138 209.26098 
L 345.687375 208.991586 
L 346.805611 208.523802 
L 347.923848 208.730868 
L 349.042084 208.685735 
L 350.160321 209.022415 
L 351.278557 207.127371 
L 352.396794 210.290486 
L 353.51503 210.30004 
L 354.633267 208.762357 
L 355.751503 209.854086 
L 356.869739 209.489343 
L 357.987976 211.103874 
L 359.106212 211.886879 
L 360.224449 209.845105 
L 361.342685 211.043606 
L 363.579158 211.644939 
L 364.697395 213.336619 
L 365.815631 212.612909 
L 366.933868 212.756618 
L 368.052104 213.634549 
L 369.170341 213.625996 
L 370.288577 214.646731 
L 371.406814 216.20697 
L 372.52505 215.004474 
L 373.643287 215.305661 
L 374.761523 217.079897 
L 375.87976 217.282327 
L 376.997996 216.067487 
L 378.116232 217.015453 
L 379.234469 217.600734 
L 380.352705 220.966429 
L 381.470942 219.693005 
L 382.589178 220.576333 
L 383.707415 219.602015 
L 384.825651 220.231178 
L 387.062124 221.124509 
L 388.180361 222.432936 
L 390.416834 224.083416 
L 391.53507 223.615307 
L 392.653307 223.461216 
L 393.771543 223.691058 
L 394.88978 224.232951 
L 397.126253 223.727508 
L 399.362725 224.340089 
L 400.480962 225.115464 
L 401.599198 224.821203 
L 402.717435 225.483189 
L 403.835671 225.151767 
L 404.953908 223.9656 
L 406.072144 224.032197 
L 407.190381 225.154088 
L 409.426854 224.646886 
L 410.54509 222.406715 
L 411.663327 223.324105 
L 412.781563 223.02921 
L 413.8998 223.926647 
L 415.018036 223.840546 
L 416.136273 223.131303 
L 417.254509 223.31619 
L 418.372745 222.5434 
L 419.490982 223.106122 
L 420.609218 222.609749 
L 421.727455 222.399813 
L 422.845691 221.583343 
L 423.963928 221.007992 
L 425.082164 221.269444 
L 427.318637 219.650748 
L 428.436874 220.537488 
L 429.55511 219.213275 
L 430.673347 219.182744 
L 431.791583 218.889528 
L 432.90982 218.998359 
L 434.028056 219.831077 
L 435.146293 220.426427 
L 436.264529 220.559617 
L 438.501002 218.632278 
L 439.619238 218.846096 
L 440.737475 218.901282 
L 441.855711 220.074217 
L 442.973948 219.100279 
L 444.092184 218.522528 
L 445.210421 218.754222 
L 446.328657 217.144736 
L 447.446894 218.120666 
L 448.56513 217.036005 
L 449.683367 214.341027 
L 450.801603 211.988408 
L 453.038076 210.094924 
L 454.156313 210.834784 
L 455.274549 211.038335 
L 456.392786 213.227718 
L 457.511022 212.93105 
L 458.629259 212.982245 
L 459.747495 212.333471 
L 460.865731 211.928992 
L 463.102204 212.933629 
L 464.220441 210.550391 
L 465.338677 209.733273 
L 466.456914 209.613151 
L 467.57515 210.836214 
L 468.693387 211.016214 
L 470.92986 211.591094 
L 472.048096 209.295607 
L 473.166333 207.753684 
L 474.284569 209.326633 
L 475.402806 209.645079 
L 476.521042 208.85812 
L 477.639279 208.996119 
L 478.757515 208.832788 
L 479.875752 210.543762 
L 480.993988 208.355138 
L 482.112224 207.794244 
L 483.230461 205.90007 
L 484.348697 206.360805 
L 485.466934 206.615609 
L 486.58517 207.015714 
L 487.703407 207.937603 
L 488.821643 205.75782 
L 489.93988 206.061785 
L 491.058116 206.82378 
L 492.176353 206.251437 
L 493.294589 204.390058 
L 494.412826 204.106912 
L 495.531062 202.26336 
L 496.649299 201.935812 
L 497.767535 202.74001 
L 498.885772 202.953054 
L 500.004008 202.995834 
L 502.240481 203.468145 
L 503.358717 205.096973 
L 504.476954 204.394975 
L 505.59519 203.535254 
L 506.713427 203.672392 
L 507.831663 201.917238 
L 508.9499 199.743765 
L 510.068136 201.40347 
L 511.186373 201.941215 
L 512.304609 200.45029 
L 513.422846 197.495197 
L 514.541082 197.975266 
L 515.659319 197.399217 
L 516.777555 196.496288 
L 517.895792 196.38856 
L 519.014028 196.124462 
L 520.132265 197.78307 
L 521.250501 197.626501 
L 522.368737 196.583309 
L 523.486974 196.237674 
L 524.60521 196.330663 
L 525.723447 196.709175 
L 526.841683 197.34708 
L 527.95992 195.114844 
L 529.078156 194.345017 
L 530.196393 191.898605 
L 531.314629 190.351555 
L 532.432866 189.678813 
L 533.551102 190.069572 
L 534.669339 188.627772 
L 536.905812 191.684518 
L 538.024048 191.341744 
L 539.142285 189.98713 
L 541.378758 189.678982 
L 542.496994 189.028983 
L 543.61523 188.804711 
L 544.733467 188.260186 
L 545.851703 188.063103 
L 546.96994 186.203576 
L 548.088176 187.075352 
L 549.206413 186.32798 
L 550.324649 187.059275 
L 551.442886 183.931705 
L 552.561122 185.215479 
L 553.679359 183.97027 
L 554.797595 184.21408 
L 555.915832 183.577934 
L 557.034068 184.225961 
L 558.152305 185.858083 
L 559.270541 188.160926 
L 560.388778 185.243219 
L 561.507014 186.254192 
L 562.625251 187.772036 
L 563.743487 189.549679 
L 564.861723 188.493007 
L 565.97996 189.762179 
L 567.098196 190.862899 
L 569.334669 187.86295 
L 570.452906 189.48224 
L 571.571142 189.639377 
L 572.689379 186.097444 
L 573.807615 187.275252 
L 574.925852 186.401048 
L 576.044088 184.67933 
L 577.162325 180.998027 
L 578.280561 180.7051 
L 579.398798 182.358702 
L 580.517034 182.143343 
L 581.635271 179.589133 
L 582.753507 180.006669 
L 583.871743 181.019247 
L 584.98998 180.625691 
L 586.108216 178.513016 
L 587.226453 178.809522 
L 588.344689 173.983831 
L 589.462926 171.657724 
L 590.581162 169.667881 
L 591.699399 169.128773 
L 592.817635 169.034437 
L 593.935872 171.502444 
L 595.054108 172.258491 
L 596.172345 170.612763 
L 597.290581 171.994093 
L 598.408818 170.064453 
L 599.527054 169.156672 
L 600.645291 169.169863 
L 601.763527 170.591764 
L 602.881764 171.17916 
L 604 169.734655 
L 604 169.734655 
" clip-path="url(#p2bb4aa920b)" style="fill: none; stroke: #008000; stroke-width: 1.5; stroke-linecap: square"/>
   </g>
   <g id="line2d_13">
    <path d="M 46 222.48 
L 47.118236 221.586422 
L 48.236473 221.866979 
L 49.354709 221.752748 
L 50.472946 221.773697 
L 51.591182 221.46866 
L 52.709419 222.677838 
L 53.827655 222.509521 
L 54.945892 224.092491 
L 56.064128 223.28132 
L 57.182365 223.271091 
L 58.300601 221.766069 
L 59.418838 221.173198 
L 60.537074 222.091314 
L 62.773547 219.502003 
L 63.891784 219.775876 
L 65.01002 217.884301 
L 67.246493 217.200486 
L 68.364729 218.145829 
L 69.482966 217.299091 
L 70.601202 216.085148 
L 71.719439 215.812884 
L 72.837675 217.430592 
L 73.955912 218.005022 
L 75.074148 217.35157 
L 76.192385 217.221014 
L 77.310621 219.446919 
L 78.428858 221.226669 
L 79.547094 221.484286 
L 80.665331 220.977004 
L 81.783567 219.783215 
L 82.901804 220.761132 
L 84.02004 220.877189 
L 86.256513 222.120875 
L 87.374749 222.226902 
L 88.492986 221.593884 
L 89.611222 221.277997 
L 90.729459 220.510877 
L 91.847695 219.197134 
L 92.965932 219.683135 
L 94.084168 218.113233 
L 95.202405 217.808975 
L 96.320641 218.089943 
L 97.438878 217.965327 
L 98.557114 218.151791 
L 99.675351 217.697 
L 101.911824 218.06676 
L 103.03006 219.457913 
L 104.148297 218.516925 
L 105.266533 216.397717 
L 106.38477 218.783618 
L 107.503006 217.928245 
L 108.621242 218.1484 
L 109.739479 218.899841 
L 110.857715 218.93723 
L 111.975952 218.445799 
L 114.212425 218.758601 
L 115.330661 217.325882 
L 116.448898 216.907209 
L 117.567134 217.191535 
L 118.685371 218.180916 
L 119.803607 217.642108 
L 120.921844 217.735586 
L 122.04008 216.229599 
L 123.158317 216.070027 
L 124.276553 215.129497 
L 125.39479 215.790839 
L 126.513026 213.590981 
L 127.631263 213.536254 
L 128.749499 211.508977 
L 129.867735 211.907588 
L 130.985972 213.135347 
L 132.104208 211.138894 
L 134.340681 212.098271 
L 135.458918 212.805926 
L 136.577154 213.114351 
L 137.695391 214.545115 
L 138.813627 216.607087 
L 139.931864 216.587224 
L 141.0501 217.245263 
L 142.168337 217.003234 
L 143.286573 217.733797 
L 144.40481 218.864393 
L 145.523046 218.811788 
L 146.641283 220.193615 
L 147.759519 220.192994 
L 149.995992 221.76752 
L 151.114228 222.040039 
L 152.232465 220.361726 
L 153.350701 221.575143 
L 154.468938 222.39899 
L 155.587174 221.939188 
L 156.705411 220.647197 
L 157.823647 220.406022 
L 158.941884 220.441143 
L 160.06012 219.812674 
L 161.178357 220.360312 
L 162.296593 220.308853 
L 163.41483 218.96573 
L 164.533066 219.636437 
L 165.651303 219.120309 
L 166.769539 218.090886 
L 167.887776 217.250224 
L 169.006012 218.793362 
L 170.124248 219.571801 
L 171.242485 220.531768 
L 172.360721 220.523285 
L 173.478958 219.44993 
L 174.597194 218.703479 
L 175.715431 217.531096 
L 176.833667 217.834642 
L 177.951904 217.718556 
L 179.07014 214.849065 
L 180.188377 214.960677 
L 181.306613 213.950165 
L 182.42485 213.788354 
L 183.543086 213.023082 
L 184.661323 210.393296 
L 185.779559 209.649292 
L 186.897796 208.36172 
L 188.016032 207.645992 
L 189.134269 206.690895 
L 190.252505 205.975742 
L 191.370741 207.725252 
L 192.488978 205.570259 
L 193.607214 205.81052 
L 194.725451 205.268628 
L 195.843687 201.98798 
L 196.961924 202.495756 
L 198.08016 203.542525 
L 199.198397 204.750305 
L 200.316633 205.374428 
L 201.43487 205.517619 
L 202.553106 206.682633 
L 203.671343 206.857749 
L 204.789579 207.30597 
L 205.907816 208.105802 
L 207.026052 209.901746 
L 208.144289 210.211676 
L 209.262525 209.73077 
L 210.380762 206.729796 
L 211.498998 206.185854 
L 212.617234 206.064575 
L 213.735471 205.432678 
L 214.853707 205.324812 
L 215.971944 206.122262 
L 217.09018 205.441092 
L 218.208417 203.036381 
L 219.326653 202.095233 
L 220.44489 199.216862 
L 222.681363 202.075333 
L 223.799599 199.352832 
L 224.917836 200.269372 
L 226.036072 198.545881 
L 227.154309 196.3156 
L 228.272545 197.13744 
L 229.390782 196.855915 
L 230.509018 197.996621 
L 231.627255 198.543603 
L 232.745491 200.626238 
L 233.863727 201.379614 
L 234.981964 200.851378 
L 236.1002 203.726721 
L 237.218437 204.936192 
L 238.336673 205.488075 
L 239.45491 205.612956 
L 240.573146 204.910208 
L 241.691383 203.865356 
L 242.809619 203.169851 
L 243.927856 203.322304 
L 245.046092 205.024248 
L 246.164329 207.010614 
L 247.282565 206.232526 
L 248.400802 205.83188 
L 249.519038 207.03935 
L 251.755511 207.270952 
L 253.991984 202.870842 
L 255.11022 201.604162 
L 256.228457 202.479437 
L 257.346693 203.141591 
L 258.46493 203.501232 
L 259.583166 205.691242 
L 260.701403 206.716827 
L 261.819639 208.005881 
L 262.937876 206.763287 
L 265.174349 207.446428 
L 266.292585 208.879108 
L 267.410822 209.854277 
L 268.529058 210.977708 
L 269.647295 209.741076 
L 270.765531 210.570402 
L 271.883768 208.686351 
L 273.002004 208.619158 
L 274.12024 208.81249 
L 275.238477 207.943336 
L 276.356713 208.743853 
L 277.47495 209.172638 
L 278.593186 209.347106 
L 279.711423 208.807722 
L 280.829659 210.847771 
L 281.947896 211.193175 
L 283.066132 211.868286 
L 284.184369 210.00836 
L 285.302605 208.939381 
L 286.420842 210.239365 
L 287.539078 209.851851 
L 288.657315 210.881342 
L 289.775551 210.440629 
L 290.893788 208.954448 
L 292.012024 206.545369 
L 293.130261 206.422515 
L 294.248497 204.878031 
L 295.366733 204.791353 
L 296.48497 204.151538 
L 297.603206 205.55818 
L 298.721443 202.943646 
L 299.839679 203.730789 
L 300.957916 203.638982 
L 302.076152 201.882703 
L 303.194389 201.167558 
L 304.312625 199.350734 
L 305.430862 201.173394 
L 306.549098 202.668869 
L 307.667335 202.818759 
L 308.785571 203.507106 
L 309.903808 203.579681 
L 311.022044 202.491851 
L 312.140281 202.720495 
L 313.258517 202.608344 
L 314.376754 200.279761 
L 315.49499 200.815864 
L 316.613226 200.559135 
L 317.731463 199.266154 
L 318.849699 199.482907 
L 319.967936 197.969005 
L 321.086172 196.24562 
L 322.204409 197.65452 
L 323.322645 197.585239 
L 324.440882 196.476737 
L 325.559118 196.173688 
L 326.677355 197.384023 
L 327.795591 195.691534 
L 328.913828 194.388206 
L 330.032064 193.978605 
L 331.150301 195.093525 
L 333.386774 193.485613 
L 334.50501 191.968997 
L 335.623246 192.55094 
L 336.741483 191.44768 
L 337.859719 193.64572 
L 338.977956 193.314896 
L 340.096192 192.105996 
L 341.214429 193.217122 
L 342.332665 195.12197 
L 343.450902 194.068326 
L 344.569138 194.399112 
L 345.687375 194.429432 
L 346.805611 195.718543 
L 347.923848 193.767679 
L 349.042084 192.613669 
L 350.160321 190.375622 
L 351.278557 189.357178 
L 352.396794 188.868269 
L 353.51503 187.099756 
L 354.633267 187.61229 
L 355.751503 190.373916 
L 356.869739 188.032007 
L 357.987976 189.686148 
L 359.106212 186.400016 
L 360.224449 184.124494 
L 361.342685 180.10742 
L 362.460922 181.804722 
L 363.579158 179.92602 
L 364.697395 182.372789 
L 365.815631 184.49274 
L 366.933868 182.437961 
L 368.052104 179.930067 
L 369.170341 181.339927 
L 370.288577 184.941273 
L 371.406814 185.353009 
L 372.52505 187.092369 
L 373.643287 186.438498 
L 374.761523 185.988875 
L 375.87976 188.028761 
L 376.997996 187.203924 
L 378.116232 186.143295 
L 379.234469 183.765181 
L 380.352705 180.677247 
L 381.470942 179.579598 
L 382.589178 177.135794 
L 383.707415 173.224513 
L 384.825651 173.745198 
L 385.943888 173.833144 
L 387.062124 175.627657 
L 388.180361 173.695969 
L 389.298597 175.570733 
L 390.416834 175.528558 
L 391.53507 175.723722 
L 392.653307 174.977738 
L 393.771543 176.640777 
L 394.88978 173.619475 
L 396.008016 172.857017 
L 397.126253 171.105321 
L 398.244489 171.476749 
L 399.362725 172.476293 
L 400.480962 170.714624 
L 402.717435 168.221487 
L 403.835671 169.109585 
L 404.953908 169.70584 
L 406.072144 172.06734 
L 407.190381 172.292085 
L 408.308617 172.123124 
L 409.426854 170.920546 
L 410.54509 171.304562 
L 411.663327 170.069387 
L 413.8998 163.56563 
L 415.018036 164.957492 
L 416.136273 162.684157 
L 417.254509 161.274113 
L 418.372745 162.286086 
L 419.490982 160.786144 
L 420.609218 161.191181 
L 421.727455 158.375959 
L 422.845691 156.987183 
L 423.963928 154.47975 
L 425.082164 153.021139 
L 426.200401 153.198045 
L 427.318637 150.819315 
L 428.436874 153.169611 
L 429.55511 152.30017 
L 431.791583 160.754762 
L 432.90982 159.660701 
L 434.028056 160.420558 
L 435.146293 160.417159 
L 436.264529 157.52445 
L 437.382766 157.050493 
L 438.501002 149.808276 
L 439.619238 150.688261 
L 440.737475 146.563734 
L 441.855711 150.18965 
L 442.973948 150.081891 
L 444.092184 146.328772 
L 445.210421 147.361818 
L 447.446894 142.931055 
L 449.683367 146.776243 
L 450.801603 143.142391 
L 451.91984 143.228284 
L 454.156313 139.134329 
L 455.274549 137.032301 
L 456.392786 137.703034 
L 457.511022 137.098004 
L 458.629259 138.157222 
L 459.747495 138.780065 
L 460.865731 140.765071 
L 461.983968 141.735751 
L 463.102204 135.903067 
L 464.220441 138.591509 
L 465.338677 140.871136 
L 466.456914 145.313248 
L 467.57515 146.152264 
L 468.693387 147.501872 
L 469.811623 147.440917 
L 470.92986 150.469748 
L 472.048096 148.762019 
L 473.166333 147.357345 
L 474.284569 150.345326 
L 475.402806 150.538083 
L 476.521042 148.256622 
L 477.639279 147.4796 
L 478.757515 150.987988 
L 479.875752 149.131478 
L 480.993988 149.566006 
L 482.112224 151.50744 
L 483.230461 154.337566 
L 484.348697 153.652023 
L 485.466934 153.50878 
L 486.58517 150.990564 
L 487.703407 148.017539 
L 488.821643 144.49595 
L 489.93988 146.211504 
L 491.058116 147.350429 
L 492.176353 151.561533 
L 493.294589 149.976255 
L 494.412826 152.418556 
L 495.531062 153.700151 
L 496.649299 154.750613 
L 497.767535 150.24421 
L 498.885772 151.394601 
L 500.004008 153.289956 
L 501.122244 153.016985 
L 502.240481 152.56645 
L 503.358717 156.379823 
L 504.476954 152.318545 
L 505.59519 151.270719 
L 506.713427 151.609512 
L 507.831663 152.455199 
L 508.9499 148.198309 
L 510.068136 147.484002 
L 511.186373 141.069727 
L 512.304609 141.156801 
L 513.422846 139.398635 
L 514.541082 136.227811 
L 515.659319 137.04668 
L 516.777555 135.464328 
L 517.895792 129.901755 
L 519.014028 126.760915 
L 520.132265 122.812906 
L 521.250501 122.547391 
L 522.368737 116.575006 
L 523.486974 117.003351 
L 524.60521 116.120865 
L 525.723447 114.76571 
L 526.841683 113.918568 
L 527.95992 113.301363 
L 529.078156 108.828655 
L 530.196393 112.352711 
L 531.314629 114.982711 
L 532.432866 114.878201 
L 533.551102 108.277924 
L 534.669339 110.483385 
L 535.787575 108.892254 
L 536.905812 103.700202 
L 538.024048 105.253767 
L 539.142285 109.454625 
L 540.260521 108.303352 
L 541.378758 114.705762 
L 542.496994 116.071253 
L 543.61523 114.459305 
L 544.733467 113.523532 
L 545.851703 119.971978 
L 546.96994 118.002532 
L 548.088176 114.573452 
L 549.206413 113.570828 
L 550.324649 113.179654 
L 551.442886 112.103028 
L 552.561122 110.348362 
L 553.679359 109.920858 
L 554.797595 108.325395 
L 555.915832 108.426433 
L 557.034068 104.276803 
L 559.270541 108.021511 
L 561.507014 106.433024 
L 562.625251 109.164352 
L 563.743487 109.247075 
L 564.861723 110.096133 
L 565.97996 112.819527 
L 567.098196 114.782424 
L 568.216433 116.192691 
L 569.334669 111.543465 
L 570.452906 113.651032 
L 571.571142 113.683235 
L 573.807615 112.251865 
L 574.925852 119.700357 
L 576.044088 118.987904 
L 577.162325 116.993131 
L 578.280561 111.00408 
L 579.398798 110.395807 
L 580.517034 112.435295 
L 581.635271 113.721744 
L 582.753507 109.728745 
L 583.871743 106.699314 
L 584.98998 111.479995 
L 586.108216 121.311774 
L 587.226453 125.790406 
L 588.344689 125.670124 
L 589.462926 126.796662 
L 590.581162 125.129387 
L 591.699399 128.445697 
L 593.935872 119.587908 
L 595.054108 117.712587 
L 596.172345 120.589668 
L 597.290581 119.438161 
L 598.408818 122.723819 
L 599.527054 120.835391 
L 600.645291 123.75914 
L 601.763527 120.318481 
L 602.881764 114.642968 
L 604 113.899882 
L 604 113.899882 
" clip-path="url(#p2bb4aa920b)" style="fill: none; stroke: #0000ff; stroke-width: 1.5; stroke-linecap: square"/>
   </g>
   <g id="line2d_14">
    <path d="M 46 222.48 
L 50.472946 222.231974 
L 54.945892 221.89806 
L 59.418838 221.631633 
L 62.773547 221.348634 
L 79.547094 220.026195 
L 92.965932 218.964451 
L 105.266533 217.92865 
L 109.739479 217.552141 
L 134.340681 215.533029 
L 137.695391 215.200789 
L 142.168337 214.780073 
L 145.523046 214.39465 
L 151.114228 213.805111 
L 155.587174 213.368698 
L 162.296593 212.553855 
L 172.360721 211.670824 
L 176.833667 211.170962 
L 179.07014 210.917981 
L 182.42485 210.575747 
L 190.252505 209.759111 
L 195.843687 208.968213 
L 202.553106 208.214792 
L 203.671343 208.154148 
L 205.907816 207.846338 
L 232.745491 204.739231 
L 234.981964 204.499988 
L 240.573146 203.994061 
L 245.046092 203.35968 
L 247.282565 203.095275 
L 261.819639 201.520875 
L 268.529058 200.958883 
L 276.356713 200.03747 
L 280.829659 199.529124 
L 293.130261 197.981836 
L 295.366733 197.771426 
L 300.957916 197.164006 
L 307.667335 196.424238 
L 325.559118 194.293533 
L 332.268537 193.308604 
L 341.214429 192.312954 
L 343.450902 192.000158 
L 350.160321 190.981407 
L 352.396794 190.657765 
L 354.633267 190.397385 
L 363.579158 189.010222 
L 365.815631 188.779429 
L 373.643287 187.47432 
L 379.234469 186.822955 
L 380.352705 186.60243 
L 382.589178 186.299497 
L 393.771543 184.704397 
L 398.244489 183.776786 
L 400.480962 183.514709 
L 403.835671 182.90969 
L 411.663327 181.689046 
L 412.781563 181.601881 
L 413.8998 181.389938 
L 416.136273 181.188296 
L 417.254509 180.946349 
L 418.372745 180.866254 
L 421.727455 180.318486 
L 436.264529 177.932482 
L 437.382766 177.596712 
L 439.619238 177.270832 
L 442.973948 176.68616 
L 445.210421 176.374296 
L 454.156313 174.508237 
L 456.392786 174.23619 
L 458.629259 173.929015 
L 467.57515 171.871898 
L 470.92986 171.23983 
L 472.048096 171.082775 
L 473.166333 170.679633 
L 475.402806 170.225171 
L 477.639279 169.975873 
L 480.993988 169.212877 
L 486.58517 168.444279 
L 491.058116 167.396202 
L 492.176353 167.330593 
L 495.531062 166.501359 
L 496.649299 166.202306 
L 497.767535 166.084502 
L 508.9499 163.699153 
L 511.186373 163.429058 
L 514.541082 162.544329 
L 517.895792 161.961479 
L 519.014028 161.644642 
L 523.486974 160.858686 
L 524.60521 160.564426 
L 527.95992 160.026735 
L 530.196393 159.579816 
L 531.314629 159.492953 
L 532.432866 159.288519 
L 533.551102 158.884709 
L 543.61523 156.438016 
L 545.851703 155.745761 
L 549.206413 155.246104 
L 551.442886 154.51884 
L 557.034068 153.460474 
L 559.270541 152.776325 
L 560.388778 152.726774 
L 562.625251 152.339948 
L 563.743487 152.017605 
L 568.216433 151.126812 
L 570.452906 150.522379 
L 571.571142 150.228175 
L 573.807615 149.915055 
L 576.044088 149.501146 
L 577.162325 149.393043 
L 580.517034 148.675215 
L 582.753507 148.432911 
L 586.108216 147.570685 
L 590.581162 146.561185 
L 592.817635 146.140028 
L 598.408818 144.809331 
L 600.645291 144.372557 
L 601.763527 143.895146 
L 602.881764 143.733507 
L 604 143.384803 
L 604 143.384803 
" clip-path="url(#p2bb4aa920b)" style="fill: none; stroke: #000000; stroke-width: 1.5; stroke-linecap: square"/>
   </g>
   <g id="patch_3">
    <path d="M 46 259.44 
L 46 37.68 
" style="fill: none; stroke: #000000; stroke-width: 0.8; stroke-linejoin: miter; stroke-linecap: square"/>
   </g>
   <g id="patch_4">
    <path d="M 604 259.44 
L 604 37.68 
" style="fill: none; stroke: #000000; stroke-width: 0.8; stroke-linejoin: miter; stroke-linecap: square"/>
   </g>
   <g id="patch_5">
    <path d="M 46 259.44 
L 604 259.44 
" style="fill: none; stroke: #000000; stroke-width: 0.8; stroke-linejoin: miter; stroke-linecap: square"/>
   </g>
   <g id="patch_6">
    <path d="M 46 37.68 
L 604 37.68 
" style="fill: none; stroke: #000000; stroke-width: 0.8; stroke-linejoin: miter; stroke-linecap: square"/>
   </g>
   <g id="text_13">
    <!-- Samples from $\exp\left(t + \frac{1}{2} W(t)\right)$ -->
    <g transform="translate(182.68 27.84) scale(0.24 -0.24)">
     <defs>
      <path id="STIXGeneral-Regular-53" d="M 3002 2963 
L 2842 2963 
Q 2733 3360 2579 3565 
Q 2189 4064 1651 4064 
Q 1357 4064 1181 3894 
Q 1005 3725 1005 3456 
Q 1005 3328 1069 3206 
Q 1133 3085 1206 2998 
Q 1280 2912 1465 2784 
Q 1651 2656 1766 2589 
Q 1882 2522 2150 2362 
Q 2669 2061 2905 1763 
Q 3142 1466 3142 1107 
Q 3142 576 2771 243 
Q 2400 -90 1837 -90 
Q 1421 -90 1082 58 
Q 915 128 781 128 
Q 704 128 653 70 
Q 602 13 602 -83 
L 461 -83 
L 275 1274 
L 416 1274 
Q 845 141 1734 141 
Q 2074 141 2285 342 
Q 2496 544 2496 858 
Q 2496 1158 2310 1363 
Q 2003 1696 1235 2106 
Q 454 2522 454 3206 
Q 454 3718 768 4022 
Q 1082 4326 1568 4326 
Q 1907 4326 2240 4186 
Q 2413 4109 2522 4109 
Q 2688 4109 2726 4326 
L 2861 4326 
L 3002 2963 
z
" transform="scale(0.015625)"/>
      <path id="STIXGeneral-Regular-61" d="M 2829 422 
L 2829 243 
Q 2586 -64 2253 -64 
Q 1888 -64 1843 403 
L 1837 403 
Q 1427 -64 909 -64 
Q 608 -64 422 112 
Q 237 288 237 602 
Q 237 1050 685 1350 
Q 992 1555 1837 1869 
L 1837 2214 
Q 1837 2502 1699 2646 
Q 1562 2790 1338 2790 
Q 1146 2790 1018 2697 
Q 890 2605 890 2477 
Q 890 2419 909 2348 
Q 928 2278 928 2208 
Q 928 2112 841 2029 
Q 755 1946 634 1946 
Q 525 1946 441 2029 
Q 358 2112 358 2240 
Q 358 2547 685 2752 
Q 986 2944 1421 2944 
Q 1939 2944 2176 2656 
Q 2291 2522 2323 2384 
Q 2355 2246 2355 1946 
L 2355 723 
Q 2355 301 2554 301 
Q 2682 301 2829 422 
z
M 1837 813 
L 1837 1715 
Q 1248 1510 1018 1293 
Q 800 1094 800 800 
Q 800 557 921 432 
Q 1043 307 1242 307 
Q 1453 307 1613 410 
Q 1747 506 1792 589 
Q 1837 672 1837 813 
z
" transform="scale(0.015625)"/>
      <path id="STIXGeneral-Regular-6d" d="M 4960 0 
L 3565 0 
L 3565 96 
Q 3834 122 3907 208 
Q 3981 294 3981 576 
L 3981 1894 
Q 3981 2278 3869 2444 
Q 3757 2611 3488 2611 
Q 3264 2611 3107 2521 
Q 2950 2432 2803 2221 
L 2803 608 
Q 2803 301 2896 201 
Q 2989 102 3264 96 
L 3264 0 
L 1830 0 
L 1830 96 
Q 2112 115 2189 188 
Q 2266 262 2266 550 
L 2266 1901 
Q 2266 2611 1850 2611 
Q 1670 2611 1468 2531 
Q 1267 2451 1171 2336 
Q 1088 2240 1088 2227 
L 1088 448 
Q 1088 243 1177 176 
Q 1267 109 1523 96 
L 1523 0 
L 102 0 
L 102 96 
Q 371 102 460 195 
Q 550 288 550 563 
L 550 2150 
Q 550 2387 499 2480 
Q 448 2573 326 2573 
Q 230 2573 122 2547 
L 122 2656 
Q 557 2778 1011 2944 
L 1062 2925 
L 1062 2451 
L 1075 2451 
Q 1363 2752 1584 2848 
Q 1805 2944 2054 2944 
Q 2560 2944 2733 2406 
Q 3232 2944 3776 2944 
Q 4518 2944 4518 1792 
L 4518 493 
Q 4518 282 4582 202 
Q 4646 122 4794 109 
L 4960 96 
L 4960 0 
z
" transform="scale(0.015625)"/>
      <path id="STIXGeneral-Regular-70" d="M 1018 2931 
L 1018 2438 
Q 1421 2944 1939 2944 
Q 2406 2944 2707 2560 
Q 3008 2176 3008 1581 
Q 3008 883 2621 409 
Q 2234 -64 1664 -64 
Q 1466 -64 1328 -6 
Q 1190 51 1018 211 
L 1018 -794 
Q 1018 -1094 1120 -1180 
Q 1222 -1267 1581 -1274 
L 1581 -1389 
L 32 -1389 
L 32 -1280 
Q 314 -1254 397 -1171 
Q 480 -1088 480 -838 
L 480 2157 
Q 480 2381 429 2451 
Q 378 2522 218 2522 
Q 115 2522 58 2515 
L 58 2618 
Q 506 2752 979 2944 
L 1018 2931 
z
M 1018 2138 
L 1018 563 
Q 1018 422 1238 281 
Q 1459 141 1683 141 
Q 2029 141 2243 467 
Q 2458 794 2458 1325 
Q 2458 1888 2243 2224 
Q 2029 2560 1670 2560 
Q 1446 2560 1232 2419 
Q 1018 2278 1018 2138 
z
" transform="scale(0.015625)"/>
      <path id="STIXGeneral-Regular-6c" d="M 1645 0 
L 134 0 
L 134 96 
Q 435 122 531 221 
Q 627 320 627 589 
L 627 3590 
Q 627 3821 569 3910 
Q 512 4000 358 4000 
Q 224 4000 122 3987 
L 122 4090 
Q 730 4237 1133 4371 
L 1165 4346 
L 1165 557 
Q 1165 288 1254 201 
Q 1344 115 1645 96 
L 1645 0 
z
" transform="scale(0.015625)"/>
      <path id="STIXGeneral-Regular-65" d="M 2611 1050 
L 2714 1005 
Q 2330 -64 1376 -64 
Q 813 -64 486 329 
Q 160 723 160 1389 
Q 160 2074 525 2509 
Q 890 2944 1485 2944 
Q 2061 2944 2374 2502 
Q 2560 2246 2592 1773 
L 621 1773 
Q 646 1370 700 1158 
Q 755 947 915 730 
Q 1184 378 1626 378 
Q 1939 378 2153 531 
Q 2368 685 2611 1050 
z
M 634 1978 
L 1939 1978 
Q 1882 2381 1750 2547 
Q 1619 2714 1312 2714 
Q 1043 2714 864 2525 
Q 685 2336 634 1978 
z
" transform="scale(0.015625)"/>
      <path id="STIXGeneral-Regular-73" d="M 998 1926 
L 1664 1523 
Q 1984 1331 2105 1164 
Q 2227 998 2227 736 
Q 2227 416 1961 176 
Q 1696 -64 1331 -64 
Q 1030 -64 864 -6 
Q 691 51 570 51 
Q 461 51 416 -26 
L 333 -26 
L 333 979 
L 435 979 
Q 538 512 730 294 
Q 922 77 1248 77 
Q 1485 77 1632 211 
Q 1779 346 1779 550 
Q 1779 845 1440 1030 
L 1094 1222 
Q 326 1651 326 2150 
Q 326 2522 566 2730 
Q 806 2938 1210 2938 
Q 1491 2938 1638 2867 
Q 1754 2816 1818 2816 
Q 1862 2816 1920 2880 
L 1990 2880 
L 2022 2010 
L 1926 2010 
Q 1818 2445 1654 2621 
Q 1491 2797 1203 2797 
Q 986 2797 854 2688 
Q 723 2579 723 2362 
Q 723 2253 796 2128 
Q 870 2003 998 1926 
z
" transform="scale(0.015625)"/>
      <path id="STIXGeneral-Regular-20" transform="scale(0.015625)"/>
      <path id="STIXGeneral-Regular-66" d="M 134 2880 
L 659 2880 
Q 666 3264 710 3478 
Q 755 3693 883 3910 
Q 1152 4371 1786 4371 
Q 2074 4371 2262 4259 
Q 2451 4147 2451 3974 
Q 2451 3866 2374 3789 
Q 2298 3712 2182 3712 
Q 2029 3712 1894 3942 
Q 1741 4192 1555 4192 
Q 1197 4192 1197 3622 
L 1197 2880 
L 1978 2880 
L 1978 2675 
L 1197 2675 
L 1197 666 
Q 1197 307 1299 208 
Q 1402 109 1792 96 
L 1792 0 
L 128 0 
L 128 96 
Q 474 115 566 214 
Q 659 314 659 666 
L 659 2675 
L 134 2675 
L 134 2880 
z
" transform="scale(0.015625)"/>
      <path id="STIXGeneral-Regular-72" d="M 1024 2931 
L 1024 2342 
Q 1267 2688 1430 2816 
Q 1594 2944 1792 2944 
Q 1958 2944 2051 2854 
Q 2144 2765 2144 2605 
Q 2144 2470 2077 2393 
Q 2010 2317 1894 2317 
Q 1773 2317 1638 2445 
Q 1536 2541 1472 2541 
Q 1338 2541 1181 2355 
Q 1024 2170 1024 2016 
L 1024 576 
Q 1024 301 1133 205 
Q 1242 109 1568 96 
L 1568 0 
L 32 0 
L 32 96 
Q 339 154 412 224 
Q 486 294 486 538 
L 486 2138 
Q 486 2349 438 2435 
Q 390 2522 269 2522 
Q 166 2522 45 2496 
L 45 2598 
Q 448 2726 992 2944 
L 1024 2931 
z
" transform="scale(0.015625)"/>
      <path id="STIXGeneral-Regular-6f" d="M 3008 1478 
Q 3008 806 2608 371 
Q 2208 -64 1568 -64 
Q 979 -64 582 368 
Q 186 800 186 1459 
Q 186 2125 582 2534 
Q 979 2944 1626 2944 
Q 2221 2944 2614 2537 
Q 3008 2131 3008 1478 
z
M 2432 1306 
Q 2432 2035 2112 2445 
Q 1856 2765 1504 2765 
Q 1171 2765 966 2493 
Q 762 2221 762 1747 
Q 762 928 1101 435 
Q 1318 115 1677 115 
Q 2029 115 2230 432 
Q 2432 749 2432 1306 
z
" transform="scale(0.015625)"/>
      <path id="STIXGeneral-Regular-78" d="M 3066 0 
L 1779 0 
L 1779 96 
Q 1939 109 1987 137 
Q 2035 166 2035 250 
Q 2035 307 1997 365 
L 1414 1261 
L 909 474 
Q 781 275 781 211 
Q 781 96 1037 96 
L 1037 0 
L 109 0 
L 109 96 
Q 269 109 355 169 
Q 442 230 576 422 
L 1306 1478 
L 704 2400 
Q 557 2624 454 2704 
Q 352 2784 211 2784 
L 154 2784 
L 154 2880 
L 1478 2880 
L 1478 2784 
Q 1203 2778 1203 2643 
Q 1203 2509 1498 2074 
Q 1581 1958 1587 1946 
Q 1619 1990 1779 2227 
Q 1811 2285 1856 2349 
Q 1901 2413 1923 2451 
Q 1946 2490 1971 2528 
Q 1997 2566 2006 2595 
Q 2016 2624 2016 2643 
Q 2016 2765 1760 2784 
L 1760 2880 
L 2771 2880 
L 2771 2784 
Q 2445 2771 2253 2502 
L 1722 1734 
L 2541 480 
Q 2790 96 3066 96 
L 3066 0 
z
" transform="scale(0.015625)"/>
      <path id="STIXSizeOneSym-Regular-28" d="M 2445 -858 
L 2445 -1050 
Q 1728 -371 1309 630 
Q 890 1632 890 2886 
Q 890 4122 1309 5136 
Q 1728 6150 2445 6822 
L 2445 6630 
Q 1408 5363 1408 2886 
Q 1408 410 2445 -858 
z
" transform="scale(0.015625)"/>
      <path id="STIXGeneral-Regular-2b" d="M 4070 1408 
L 2400 1408 
L 2400 -262 
L 1978 -262 
L 1978 1408 
L 307 1408 
L 307 1830 
L 1978 1830 
L 1978 3501 
L 2400 3501 
L 2400 1830 
L 4070 1830 
L 4070 1408 
z
" transform="scale(0.015625)"/>
      <path id="STIXGeneral-Italic-57" d="M 5798 4179 
L 5798 4077 
Q 5613 4019 5526 3936 
Q 5440 3853 5306 3597 
L 3379 -115 
L 3251 -115 
L 2931 2784 
L 2899 2784 
L 1478 -115 
L 1357 -115 
L 966 3174 
Q 915 3622 883 3766 
Q 851 3910 781 3981 
Q 717 4045 454 4077 
L 454 4179 
L 1958 4179 
L 1958 4077 
Q 1696 4051 1597 3987 
Q 1498 3923 1498 3750 
Q 1498 3667 1504 3622 
L 1786 1037 
L 2886 3264 
L 2835 3680 
Q 2810 3923 2723 3993 
Q 2637 4064 2355 4077 
L 2355 4179 
L 3866 4179 
L 3866 4077 
Q 3616 4051 3523 3987 
Q 3430 3923 3430 3770 
Q 3430 3750 3436 3715 
Q 3443 3680 3443 3674 
L 3699 1037 
L 4902 3373 
Q 5050 3654 5050 3808 
Q 5050 4070 4621 4077 
L 4621 4179 
L 5798 4179 
z
" transform="scale(0.015625)"/>
      <path id="STIXSizeOneSym-Regular-29" d="M 550 6630 
L 550 6822 
Q 1267 6144 1686 5142 
Q 2106 4141 2106 2886 
Q 2106 1651 1686 636 
Q 1267 -378 550 -1050 
L 550 -858 
Q 1587 410 1587 2886 
Q 1587 5363 550 6630 
z
" transform="scale(0.015625)"/>
     </defs>
     <use xlink:href="#STIXGeneral-Regular-53" transform="translate(0 0.8875)"/>
     <use xlink:href="#STIXGeneral-Regular-61" transform="translate(55.599991 0.8875)"/>
     <use xlink:href="#STIXGeneral-Regular-6d" transform="translate(99.999985 0.8875)"/>
     <use xlink:href="#STIXGeneral-Regular-70" transform="translate(177.799973 0.8875)"/>
     <use xlink:href="#STIXGeneral-Regular-6c" transform="translate(227.799957 0.8875)"/>
     <use xlink:href="#STIXGeneral-Regular-65" transform="translate(255.599945 0.8875)"/>
     <use xlink:href="#STIXGeneral-Regular-73" transform="translate(299.999939 0.8875)"/>
     <use xlink:href="#STIXGeneral-Regular-20" transform="translate(338.899933 0.8875)"/>
     <use xlink:href="#STIXGeneral-Regular-66" transform="translate(363.899918 0.8875)"/>
     <use xlink:href="#STIXGeneral-Regular-72" transform="translate(397.199905 0.8875)"/>
     <use xlink:href="#STIXGeneral-Regular-6f" transform="translate(430.499893 0.8875)"/>
     <use xlink:href="#STIXGeneral-Regular-6d" transform="translate(480.499878 0.8875)"/>
     <use xlink:href="#STIXGeneral-Regular-20" transform="translate(558.299866 0.8875)"/>
     <use xlink:href="#STIXGeneral-Regular-65" transform="translate(583.29985 0.8875)"/>
     <use xlink:href="#STIXGeneral-Regular-78" transform="translate(627.699844 0.8875)"/>
     <use xlink:href="#STIXGeneral-Regular-70" transform="translate(677.699829 0.8875)"/>
     <use xlink:href="#STIXSizeOneSym-Regular-28" transform="translate(739.733385 -23.1) scale(1.023425)"/>
     <use xlink:href="#STIXGeneral-Italic-74" transform="translate(787.622942 0.8875)"/>
     <use xlink:href="#STIXGeneral-Regular-2b" transform="translate(829.862926 0.8875)"/>
     <use xlink:href="#STIXGeneral-Regular-31" transform="translate(912.802907 38.684375) scale(0.7)"/>
     <use xlink:href="#STIXGeneral-Regular-32" transform="translate(912.802907 -39.88125) scale(0.7)"/>
     <use xlink:href="#STIXGeneral-Italic-57" transform="translate(960.302896 0.8875)"/>
     <use xlink:href="#STIXGeneral-Regular-28" transform="translate(1043.602884 0.8875)"/>
     <use xlink:href="#STIXGeneral-Italic-74" transform="translate(1076.902872 0.8875)"/>
     <use xlink:href="#STIXGeneral-Regular-29" transform="translate(1104.70286 0.8875)"/>
     <use xlink:href="#STIXSizeOneSym-Regular-29" transform="translate(1138.002847 -23.1) scale(1.023425)"/>
     <path d="M 912.802907 13.684375 
L 912.802907 19.934375 
L 947.802896 19.934375 
L 947.802896 13.684375 
L 912.802907 13.684375 
z
"/>
    </g>
   </g>
   <g id="legend_1">
    <g id="patch_7">
     <path d="M 58.6 179.612812 
L 183.7 179.612812 
Q 187.3 179.612812 187.3 176.012812 
L 187.3 50.28 
Q 187.3 46.68 183.7 46.68 
L 58.6 46.68 
Q 55 46.68 55 50.28 
L 55 176.012812 
Q 55 179.612812 58.6 179.612812 
z
" style="fill: #ffffff; opacity: 0.8; stroke: #cccccc; stroke-linejoin: miter"/>
    </g>
    <g id="line2d_15">
     <path d="M 62.2 60.18 
L 80.2 60.18 
L 98.2 60.18 
" style="fill: none; stroke: #ff0000; stroke-width: 1.5; stroke-linecap: square"/>
    </g>
    <g id="text_14">
     <!-- Sample 1 -->
     <g transform="translate(112.6 66.48) scale(0.18 -0.18)">
      <use xlink:href="#STIXGeneral-Regular-53"/>
      <use xlink:href="#STIXGeneral-Regular-61" x="55.599991"/>
      <use xlink:href="#STIXGeneral-Regular-6d" x="99.999985"/>
      <use xlink:href="#STIXGeneral-Regular-70" x="177.799973"/>
      <use xlink:href="#STIXGeneral-Regular-6c" x="227.799957"/>
      <use xlink:href="#STIXGeneral-Regular-65" x="255.599945"/>
      <use xlink:href="#STIXGeneral-Regular-20" x="299.999939"/>
      <use xlink:href="#STIXGeneral-Regular-31" x="324.999924"/>
     </g>
    </g>
    <g id="line2d_16">
     <path d="M 62.2 85.686562 
L 80.2 85.686562 
L 98.2 85.686562 
" style="fill: none; stroke: #008000; stroke-width: 1.5; stroke-linecap: square"/>
    </g>
    <g id="text_15">
     <!-- Sample 2 -->
     <g transform="translate(112.6 91.986562) scale(0.18 -0.18)">
      <use xlink:href="#STIXGeneral-Regular-53"/>
      <use xlink:href="#STIXGeneral-Regular-61" x="55.599991"/>
      <use xlink:href="#STIXGeneral-Regular-6d" x="99.999985"/>
      <use xlink:href="#STIXGeneral-Regular-70" x="177.799973"/>
      <use xlink:href="#STIXGeneral-Regular-6c" x="227.799957"/>
      <use xlink:href="#STIXGeneral-Regular-65" x="255.599945"/>
      <use xlink:href="#STIXGeneral-Regular-20" x="299.999939"/>
      <use xlink:href="#STIXGeneral-Regular-32" x="324.999924"/>
     </g>
    </g>
    <g id="line2d_17">
     <path d="M 62.2 111.193125 
L 80.2 111.193125 
L 98.2 111.193125 
" style="fill: none; stroke: #0000ff; stroke-width: 1.5; stroke-linecap: square"/>
    </g>
    <g id="text_16">
     <!-- Sample 3 -->
     <g transform="translate(112.6 117.493125) scale(0.18 -0.18)">
      <defs>
       <path id="STIXGeneral-Regular-33" d="M 390 3264 
L 288 3290 
Q 435 3770 748 4048 
Q 1062 4326 1542 4326 
Q 1990 4326 2265 4083 
Q 2541 3840 2541 3450 
Q 2541 2925 1946 2566 
Q 2298 2413 2477 2227 
Q 2758 1914 2758 1402 
Q 2758 890 2464 506 
Q 2246 211 1840 60 
Q 1434 -90 979 -90 
Q 262 -90 262 275 
Q 262 378 339 442 
Q 416 506 525 506 
Q 685 506 915 339 
Q 1197 141 1466 141 
Q 1818 141 2058 425 
Q 2298 710 2298 1120 
Q 2298 1856 1632 2048 
Q 1434 2112 979 2112 
L 979 2202 
Q 1338 2323 1517 2432 
Q 2035 2726 2035 3290 
Q 2035 3610 1852 3776 
Q 1670 3942 1344 3942 
Q 768 3942 390 3264 
z
" transform="scale(0.015625)"/>
      </defs>
      <use xlink:href="#STIXGeneral-Regular-53"/>
      <use xlink:href="#STIXGeneral-Regular-61" x="55.599991"/>
      <use xlink:href="#STIXGeneral-Regular-6d" x="99.999985"/>
      <use xlink:href="#STIXGeneral-Regular-70" x="177.799973"/>
      <use xlink:href="#STIXGeneral-Regular-6c" x="227.799957"/>
      <use xlink:href="#STIXGeneral-Regular-65" x="255.599945"/>
      <use xlink:href="#STIXGeneral-Regular-20" x="299.999939"/>
      <use xlink:href="#STIXGeneral-Regular-33" x="324.999924"/>
     </g>
    </g>
    <g id="line2d_18">
     <path d="M 62.2 136.699687 
L 80.2 136.699687 
L 98.2 136.699687 
" style="fill: none; stroke: #000000; stroke-width: 1.5; stroke-linecap: square"/>
    </g>
    <g id="text_17">
     <!-- Mean -->
     <g transform="translate(112.6 142.999687) scale(0.18 -0.18)">
      <defs>
       <path id="STIXGeneral-Regular-4d" d="M 5530 0 
L 3738 0 
L 3738 122 
Q 4115 147 4214 265 
Q 4314 384 4314 787 
L 4314 3661 
L 2682 0 
L 2592 0 
L 979 3514 
L 979 966 
Q 979 448 1088 294 
Q 1197 141 1574 122 
L 1574 0 
L 77 0 
L 77 122 
Q 358 141 480 205 
Q 602 269 650 432 
Q 698 595 698 966 
L 698 3514 
Q 698 3878 589 3984 
Q 480 4090 90 4115 
L 90 4237 
L 1357 4237 
L 2835 1024 
L 4250 4237 
L 5523 4237 
L 5523 4115 
Q 5178 4109 5072 3993 
Q 4966 3878 4966 3520 
L 4966 717 
Q 4966 378 5072 262 
Q 5178 147 5530 122 
L 5530 0 
z
" transform="scale(0.015625)"/>
       <path id="STIXGeneral-Regular-6e" d="M 3104 0 
L 1773 0 
L 1779 96 
Q 2016 115 2096 233 
Q 2176 352 2176 672 
L 2176 1946 
Q 2176 2592 1709 2592 
Q 1549 2592 1408 2515 
Q 1267 2438 1050 2227 
L 1050 461 
Q 1050 269 1136 192 
Q 1222 115 1466 96 
L 1466 0 
L 115 0 
L 115 96 
Q 358 115 435 214 
Q 512 314 512 602 
L 512 2157 
Q 512 2394 467 2483 
Q 422 2573 288 2573 
Q 160 2573 102 2547 
L 102 2656 
Q 550 2784 979 2944 
L 1030 2925 
L 1030 2426 
L 1037 2426 
Q 1491 2944 1958 2944 
Q 2323 2944 2518 2688 
Q 2714 2432 2714 1958 
L 2714 544 
Q 2714 288 2790 205 
Q 2867 122 3104 96 
L 3104 0 
z
" transform="scale(0.015625)"/>
      </defs>
      <use xlink:href="#STIXGeneral-Regular-4d"/>
      <use xlink:href="#STIXGeneral-Regular-65" x="88.899994"/>
      <use xlink:href="#STIXGeneral-Regular-61" x="133.299988"/>
      <use xlink:href="#STIXGeneral-Regular-6e" x="177.699982"/>
     </g>
    </g>
    <g id="patch_8">
     <path d="M 62.2 168.50625 
L 98.2 168.50625 
L 98.2 155.90625 
L 62.2 155.90625 
z
" style="fill: #808080; fill-opacity: 0.3; stroke: #808080; stroke-opacity: 0.3; stroke-linejoin: miter"/>
    </g>
    <g id="text_18">
     <!-- Std. dev. -->
     <g transform="translate(112.6 168.50625) scale(0.18 -0.18)">
      <defs>
       <path id="STIXGeneral-Regular-74" d="M 1702 493 
L 1786 422 
Q 1478 -64 1011 -64 
Q 448 -64 448 749 
L 448 2675 
L 109 2675 
Q 83 2694 83 2720 
Q 83 2771 192 2842 
Q 435 2982 813 3526 
Q 826 3546 874 3606 
Q 922 3667 941 3706 
Q 986 3706 986 3622 
L 986 2880 
L 1632 2880 
L 1632 2675 
L 986 2675 
L 986 845 
Q 986 538 1062 403 
Q 1139 269 1318 269 
Q 1510 269 1702 493 
z
" transform="scale(0.015625)"/>
       <path id="STIXGeneral-Regular-64" d="M 3142 269 
L 2202 -64 
L 2176 -45 
L 2176 365 
Q 1869 -64 1357 -64 
Q 826 -64 499 317 
Q 173 698 173 1312 
Q 173 1990 563 2467 
Q 954 2944 1504 2944 
Q 1850 2944 2176 2669 
L 2176 3667 
Q 2176 3866 2118 3930 
Q 2061 3994 1882 3994 
Q 1792 3994 1741 3987 
L 1741 4090 
Q 2323 4243 2682 4371 
L 2714 4358 
L 2714 730 
Q 2714 506 2768 435 
Q 2822 365 2995 365 
Q 3034 365 3142 371 
L 3142 269 
z
M 2176 653 
L 2176 2125 
Q 2176 2381 1981 2573 
Q 1786 2765 1523 2765 
Q 1158 2765 940 2438 
Q 723 2112 723 1568 
Q 723 979 963 624 
Q 1203 269 1606 269 
Q 1907 269 2080 474 
Q 2176 582 2176 653 
z
" transform="scale(0.015625)"/>
       <path id="STIXGeneral-Regular-76" d="M 3053 2880 
L 3053 2784 
Q 2906 2771 2835 2688 
Q 2765 2605 2637 2285 
L 1818 230 
Q 1690 -90 1638 -90 
Q 1587 -90 1523 77 
Q 1510 96 1497 141 
Q 1485 186 1472 211 
L 704 2048 
Q 499 2534 403 2652 
Q 307 2771 122 2784 
L 122 2880 
L 1376 2880 
L 1376 2784 
Q 1210 2771 1146 2732 
Q 1082 2694 1082 2611 
Q 1082 2509 1139 2368 
L 1792 730 
L 2426 2387 
Q 2464 2483 2464 2579 
Q 2464 2758 2163 2784 
L 2163 2880 
L 3053 2880 
z
" transform="scale(0.015625)"/>
      </defs>
      <use xlink:href="#STIXGeneral-Regular-53"/>
      <use xlink:href="#STIXGeneral-Regular-74" x="55.599991"/>
      <use xlink:href="#STIXGeneral-Regular-64" x="83.399979"/>
      <use xlink:href="#STIXGeneral-Regular-2e" x="133.399963"/>
      <use xlink:href="#STIXGeneral-Regular-20" x="158.399948"/>
      <use xlink:href="#STIXGeneral-Regular-64" x="183.399933"/>
      <use xlink:href="#STIXGeneral-Regular-65" x="233.399918"/>
      <use xlink:href="#STIXGeneral-Regular-76" x="277.799911"/>
      <use xlink:href="#STIXGeneral-Regular-2e" x="327.799896"/>
     </g>
    </g>
   </g>
  </g>
 </g>
 <defs>
  <clipPath id="p2bb4aa920b">
   <rect x="46" y="37.68" width="558" height="221.76"/>
  </clipPath>
 </defs>
</svg>