<?xml version="1.0" encoding="UTF-8" standalone="no"?>
<!DOCTYPE svg PUBLIC "-//W3C//DTD SVG 1.1//EN"
 "http://www.w3.org/Graphics/SVG/1.1/DTD/svg11.dtd">
<!-- Generated by graphviz version 9.0.0 (20230911.1827)
 -->
<!-- Pages: 1 -->
<svg width="254pt" height="90pt"
 viewBox="0.00 0.00 254.10 90.50" xmlns="http://www.w3.org/2000/svg" xmlns:xlink="http://www.w3.org/1999/xlink">
<g id="graph0" class="graph" transform="scale(1 1) rotate(0) translate(4 86.5)">
<polygon fill="white" stroke="none" points="-4,4 -4,-86.5 250.1,-86.5 250.1,4 -4,4"/>
<!-- 312ff3cd&#45;f9ca&#45;4230&#45;915c&#45;fc8fa72be29b -->
<g id="node1" class="node">
<title>312ff3cd&#45;f9ca&#45;4230&#45;915c&#45;fc8fa72be29b</title>
<g id="a_node1"><a xlink:title=".">
<ellipse fill="black" stroke="black" cx="1.8" cy="-26" rx="1.8" ry="1.8"/>
</a>
</g>
</g>
<!-- A -->
<g id="node2" class="node">
<title>A</title>
<ellipse fill="none" stroke="black" cx="58.6" cy="-26" rx="18" ry="18"/>
<text text-anchor="middle" x="58.6" y="-20.95" font-family="Times,serif" font-size="14.00">A</text>
</g>
<!-- 312ff3cd&#45;f9ca&#45;4230&#45;915c&#45;fc8fa72be29b&#45;&gt;A -->
<g id="edge1" class="edge">
<title>312ff3cd&#45;f9ca&#45;4230&#45;915c&#45;fc8fa72be29b&#45;&gt;A</title>
<g id="a_edge1"><a xlink:title="&#45;&gt;A">
<path fill="none" stroke="black" d="M3.75,-26C7.09,-26 18.72,-26 30.32,-26"/>
<polygon fill="black" stroke="black" points="30.29,-28.98 38.79,-26 30.29,-23.03 30.29,-28.98"/>
</a>
</g>
</g>
<!-- A&#45;&gt;A -->
<g id="edge2" class="edge">
<title>A&#45;&gt;A</title>
<path fill="none" stroke="black" d="M52.13,-43.04C50.81,-52.86 52.97,-62 58.6,-62 62.21,-62 64.39,-58.25 65.14,-52.97"/>
<polygon fill="black" stroke="black" points="68.12,-53.03 65.08,-44.55 62.17,-53.07 68.12,-53.03"/>
<text text-anchor="middle" x="58.6" y="-65.2" font-family="Times,serif" font-size="14.00">0</text>
</g>
<!-- B -->
<g id="node3" class="node">
<title>B</title>
<ellipse fill="none" stroke="black" cx="137.35" cy="-26" rx="18" ry="18"/>
<text text-anchor="middle" x="137.35" y="-20.95" font-family="Times,serif" font-size="14.00">B</text>
</g>
<!-- A&#45;&gt;B -->
<g id="edge3" class="edge">
<title>A&#45;&gt;B</title>
<path fill="none" stroke="black" d="M77.02,-26C86.53,-26 98.53,-26 109.25,-26"/>
<polygon fill="black" stroke="black" points="108.99,-28.98 117.49,-26 108.99,-23.03 108.99,-28.98"/>
<text text-anchor="middle" x="97.97" y="-29.2" font-family="Times,serif" font-size="14.00">1</text>
</g>
<!-- B&#45;&gt;A -->
<g id="edge4" class="edge">
<title>B&#45;&gt;A</title>
<path fill="none" stroke="black" d="M123.33,-13.99C115.34,-8.08 104.73,-2.75 94.6,-5.5 90.28,-6.67 85.94,-8.53 81.87,-10.65"/>
<polygon fill="black" stroke="black" points="80.6,-7.95 74.78,-14.81 83.61,-13.08 80.6,-7.95"/>
<text text-anchor="middle" x="97.97" y="-8.2" font-family="Times,serif" font-size="14.00">0</text>
</g>
<!-- C -->
<g id="node4" class="node">
<title>C</title>
<ellipse fill="none" stroke="black" cx="220.1" cy="-26" rx="22" ry="22"/>
<ellipse fill="none" stroke="black" cx="220.1" cy="-26" rx="26" ry="26"/>
<text text-anchor="middle" x="220.1" y="-20.95" font-family="Times,serif" font-size="14.00">C</text>
</g>
<!-- B&#45;&gt;C -->
<g id="edge5" class="edge">
<title>B&#45;&gt;C</title>
<path fill="none" stroke="black" d="M155.47,-26C164.9,-26 176.9,-26 187.93,-26"/>
<polygon fill="black" stroke="black" points="187.67,-28.98 196.17,-26 187.67,-23.03 187.67,-28.98"/>
<text text-anchor="middle" x="176.73" y="-29.2" font-family="Times,serif" font-size="14.00">1</text>
</g>
<!-- C&#45;&gt;C -->
<g id="edge6" class="edge">
<title>C&#45;&gt;C</title>
<path fill="none" stroke="black" d="M212.17,-46.99C211.19,-57.09 213.83,-66 220.1,-66 224.21,-66 226.77,-62.16 227.76,-56.67"/>
<polygon fill="black" stroke="black" points="230.72,-57.08 227.99,-48.5 224.78,-56.92 230.72,-57.08"/>
<text text-anchor="middle" x="220.1" y="-69.2" font-family="Times,serif" font-size="14.00">0,1</text>
</g>
</g>
</svg>