<?xml version="1.0" encoding="utf-8" standalone="no"?>
<!DOCTYPE svg PUBLIC "-//W3C//DTD SVG 1.1//EN"
  "http://www.w3.org/Graphics/SVG/1.1/DTD/svg11.dtd">
<svg xmlns:xlink="http://www.w3.org/1999/xlink" width="568.03pt" height="245.3pt" viewBox="0 0 568.03 245.3" xmlns="http://www.w3.org/2000/svg" version="1.1">
 <metadata>
  <rdf:RDF xmlns:dc="http://purl.org/dc/elements/1.1/" xmlns:cc="http://creativecommons.org/ns#" xmlns:rdf="http://www.w3.org/1999/02/22-rdf-syntax-ns#">
   <cc:Work>
    <dc:type rdf:resource="http://purl.org/dc/dcmitype/StillImage"/>
    <dc:date>2023-12-25T02:32:43.600016</dc:date>
    <dc:format>image/svg+xml</dc:format>
    <dc:creator>
     <cc:Agent>
      <dc:title>Matplotlib v3.8.0, https://matplotlib.org/</dc:title>
     </cc:Agent>
    </dc:creator>
   </cc:Work>
  </rdf:RDF>
 </metadata>
 <defs>
  <style type="text/css">*{stroke-linejoin: round; stroke-linecap: butt}</style>
 </defs>
 <g id="figure_1">
  <g id="patch_1">
   <path d="M 0 245.3 
L 568.03 245.3 
L 568.03 0 
L 0 0 
z
" style="fill: #ffffff"/>
  </g>
  <g id="axes_1">
   <g id="patch_2">
    <path d="M 56.9 194.7 
L 503.3 194.7 
L 503.3 28.38 
L 56.9 28.38 
z
" style="fill: #ffffff"/>
   </g>
   <g id="patch_3">
    <path d="M 56.9 194.7 
L 68.346153 194.7 
L 68.346153 194.7 
L 56.9 194.7 
z
" clip-path="url(#p1a4c4013a3)" style="fill: #2ca02c; opacity: 0.4"/>
   </g>
   <g id="patch_4">
    <path d="M 68.346153 194.7 
L 79.792306 194.7 
L 79.792306 194.7 
L 68.346153 194.7 
z
" clip-path="url(#p1a4c4013a3)" style="fill: #2ca02c; opacity: 0.4"/>
   </g>
   <g id="patch_5">
    <path d="M 79.792306 194.7 
L 91.238459 194.7 
L 91.238459 194.7 
L 79.792306 194.7 
z
" clip-path="url(#p1a4c4013a3)" style="fill: #2ca02c; opacity: 0.4"/>
   </g>
   <g id="patch_6">
    <path d="M 91.238459 194.7 
L 102.684613 194.7 
L 102.684613 194.7 
L 91.238459 194.7 
z
" clip-path="url(#p1a4c4013a3)" style="fill: #2ca02c; opacity: 0.4"/>
   </g>
   <g id="patch_7">
    <path d="M 102.684613 194.7 
L 114.130766 194.7 
L 114.130766 194.7 
L 102.684613 194.7 
z
" clip-path="url(#p1a4c4013a3)" style="fill: #2ca02c; opacity: 0.4"/>
   </g>
   <g id="patch_8">
    <path d="M 114.130766 194.7 
L 125.576919 194.7 
L 125.576919 194.7 
L 114.130766 194.7 
z
" clip-path="url(#p1a4c4013a3)" style="fill: #2ca02c; opacity: 0.4"/>
   </g>
   <g id="patch_9">
    <path d="M 125.576919 194.7 
L 137.023072 194.7 
L 137.023072 194.7 
L 125.576919 194.7 
z
" clip-path="url(#p1a4c4013a3)" style="fill: #2ca02c; opacity: 0.4"/>
   </g>
   <g id="patch_10">
    <path d="M 137.023072 194.7 
L 148.469225 194.7 
L 148.469225 194.7 
L 137.023072 194.7 
z
" clip-path="url(#p1a4c4013a3)" style="fill: #2ca02c; opacity: 0.4"/>
   </g>
   <g id="patch_11">
    <path d="M 148.469225 194.7 
L 159.915378 194.7 
L 159.915378 187.329 
L 148.469225 187.329 
z
" clip-path="url(#p1a4c4013a3)" style="fill: #2ca02c; opacity: 0.4"/>
   </g>
   <g id="patch_12">
    <path d="M 159.915378 194.7 
L 171.361545 194.7 
L 171.361545 194.7 
L 159.915378 194.7 
z
" clip-path="url(#p1a4c4013a3)" style="fill: #2ca02c; opacity: 0.4"/>
   </g>
   <g id="patch_13">
    <path d="M 171.361545 194.7 
L 182.807698 194.7 
L 182.807698 179.957999 
L 171.361545 179.957999 
z
" clip-path="url(#p1a4c4013a3)" style="fill: #2ca02c; opacity: 0.4"/>
   </g>
   <g id="patch_14">
    <path d="M 182.807698 194.7 
L 194.253851 194.7 
L 194.253851 179.957999 
L 182.807698 179.957999 
z
" clip-path="url(#p1a4c4013a3)" style="fill: #2ca02c; opacity: 0.4"/>
   </g>
   <g id="patch_15">
    <path d="M 194.253851 194.7 
L 205.700004 194.7 
L 205.700004 187.329 
L 194.253851 187.329 
z
" clip-path="url(#p1a4c4013a3)" style="fill: #2ca02c; opacity: 0.4"/>
   </g>
   <g id="patch_16">
    <path d="M 205.700004 194.7 
L 217.146158 194.7 
L 217.146158 172.586999 
L 205.700004 172.586999 
z
" clip-path="url(#p1a4c4013a3)" style="fill: #2ca02c; opacity: 0.4"/>
   </g>
   <g id="patch_17">
    <path d="M 217.146158 194.7 
L 228.592311 194.7 
L 228.592311 172.586999 
L 217.146158 172.586999 
z
" clip-path="url(#p1a4c4013a3)" style="fill: #2ca02c; opacity: 0.4"/>
   </g>
   <g id="patch_18">
    <path d="M 228.592311 194.7 
L 240.038464 194.7 
L 240.038464 113.618995 
L 228.592311 113.618995 
z
" clip-path="url(#p1a4c4013a3)" style="fill: #2ca02c; opacity: 0.4"/>
   </g>
   <g id="patch_19">
    <path d="M 240.038464 194.7 
L 251.484617 194.7 
L 251.484617 135.731996 
L 240.038464 135.731996 
z
" clip-path="url(#p1a4c4013a3)" style="fill: #2ca02c; opacity: 0.4"/>
   </g>
   <g id="patch_20">
    <path d="M 251.484617 194.7 
L 262.93077 194.7 
L 262.93077 120.989996 
L 251.484617 120.989996 
z
" clip-path="url(#p1a4c4013a3)" style="fill: #2ca02c; opacity: 0.4"/>
   </g>
   <g id="patch_21">
    <path d="M 262.93077 194.7 
L 274.376923 194.7 
L 274.376923 106.247995 
L 262.93077 106.247995 
z
" clip-path="url(#p1a4c4013a3)" style="fill: #2ca02c; opacity: 0.4"/>
   </g>
   <g id="patch_22">
    <path d="M 274.376923 194.7 
L 285.82309 194.7 
L 285.82309 128.361073 
L 274.376923 128.361073 
z
" clip-path="url(#p1a4c4013a3)" style="fill: #2ca02c; opacity: 0.4"/>
   </g>
   <g id="patch_23">
    <path d="M 285.82309 194.7 
L 297.269243 194.7 
L 297.269243 128.360996 
L 285.82309 128.360996 
z
" clip-path="url(#p1a4c4013a3)" style="fill: #2ca02c; opacity: 0.4"/>
   </g>
   <g id="patch_24">
    <path d="M 297.269243 194.7 
L 308.715396 194.7 
L 308.715396 128.360996 
L 297.269243 128.360996 
z
" clip-path="url(#p1a4c4013a3)" style="fill: #2ca02c; opacity: 0.4"/>
   </g>
   <g id="patch_25">
    <path d="M 308.715396 194.7 
L 320.161549 194.7 
L 320.161549 150.473997 
L 308.715396 150.473997 
z
" clip-path="url(#p1a4c4013a3)" style="fill: #2ca02c; opacity: 0.4"/>
   </g>
   <g id="patch_26">
    <path d="M 320.161549 194.7 
L 331.607703 194.7 
L 331.607703 165.215998 
L 320.161549 165.215998 
z
" clip-path="url(#p1a4c4013a3)" style="fill: #2ca02c; opacity: 0.4"/>
   </g>
   <g id="patch_27">
    <path d="M 331.607703 194.7 
L 343.053856 194.7 
L 343.053856 165.215998 
L 331.607703 165.215998 
z
" clip-path="url(#p1a4c4013a3)" style="fill: #2ca02c; opacity: 0.4"/>
   </g>
   <g id="patch_28">
    <path d="M 343.053856 194.7 
L 354.500009 194.7 
L 354.500009 179.957999 
L 343.053856 179.957999 
z
" clip-path="url(#p1a4c4013a3)" style="fill: #2ca02c; opacity: 0.4"/>
   </g>
   <g id="patch_29">
    <path d="M 354.500009 194.7 
L 365.946162 194.7 
L 365.946162 165.215998 
L 354.500009 165.215998 
z
" clip-path="url(#p1a4c4013a3)" style="fill: #2ca02c; opacity: 0.4"/>
   </g>
   <g id="patch_30">
    <path d="M 365.946162 194.7 
L 377.392315 194.7 
L 377.392315 194.7 
L 365.946162 194.7 
z
" clip-path="url(#p1a4c4013a3)" style="fill: #2ca02c; opacity: 0.4"/>
   </g>
   <g id="patch_31">
    <path d="M 377.392315 194.7 
L 388.838468 194.7 
L 388.838468 194.7 
L 377.392315 194.7 
z
" clip-path="url(#p1a4c4013a3)" style="fill: #2ca02c; opacity: 0.4"/>
   </g>
   <g id="patch_32">
    <path d="M 388.838468 194.7 
L 400.284622 194.7 
L 400.284622 194.7 
L 388.838468 194.7 
z
" clip-path="url(#p1a4c4013a3)" style="fill: #2ca02c; opacity: 0.4"/>
   </g>
   <g id="patch_33">
    <path d="M 400.284622 194.7 
L 411.730775 194.7 
L 411.730775 194.7 
L 400.284622 194.7 
z
" clip-path="url(#p1a4c4013a3)" style="fill: #2ca02c; opacity: 0.4"/>
   </g>
   <g id="patch_34">
    <path d="M 411.730775 194.7 
L 423.176928 194.7 
L 423.176928 194.7 
L 411.730775 194.7 
z
" clip-path="url(#p1a4c4013a3)" style="fill: #2ca02c; opacity: 0.4"/>
   </g>
   <g id="patch_35">
    <path d="M 423.176928 194.7 
L 434.623081 194.7 
L 434.623081 194.7 
L 423.176928 194.7 
z
" clip-path="url(#p1a4c4013a3)" style="fill: #2ca02c; opacity: 0.4"/>
   </g>
   <g id="patch_36">
    <path d="M 434.623081 194.7 
L 446.069234 194.7 
L 446.069234 194.7 
L 434.623081 194.7 
z
" clip-path="url(#p1a4c4013a3)" style="fill: #2ca02c; opacity: 0.4"/>
   </g>
   <g id="patch_37">
    <path d="M 446.069234 194.7 
L 457.515387 194.7 
L 457.515387 194.7 
L 446.069234 194.7 
z
" clip-path="url(#p1a4c4013a3)" style="fill: #2ca02c; opacity: 0.4"/>
   </g>
   <g id="patch_38">
    <path d="M 457.515387 194.7 
L 468.961541 194.7 
L 468.961541 194.7 
L 457.515387 194.7 
z
" clip-path="url(#p1a4c4013a3)" style="fill: #2ca02c; opacity: 0.4"/>
   </g>
   <g id="patch_39">
    <path d="M 468.961541 194.7 
L 480.407694 194.7 
L 480.407694 194.7 
L 468.961541 194.7 
z
" clip-path="url(#p1a4c4013a3)" style="fill: #2ca02c; opacity: 0.4"/>
   </g>
   <g id="patch_40">
    <path d="M 480.407694 194.7 
L 491.853847 194.7 
L 491.853847 194.7 
L 480.407694 194.7 
z
" clip-path="url(#p1a4c4013a3)" style="fill: #2ca02c; opacity: 0.4"/>
   </g>
   <g id="patch_41">
    <path d="M 491.853847 194.7 
L 503.3 194.7 
L 503.3 194.7 
L 491.853847 194.7 
z
" clip-path="url(#p1a4c4013a3)" style="fill: #2ca02c; opacity: 0.4"/>
   </g>
   <g id="matplotlib.axis_1">
    <g id="xtick_1">
     <g id="line2d_1">
      <defs>
       <path id="mce5d530d58" d="M 0 0 
L 0 3.5 
" style="stroke: #000000; stroke-width: 0.8"/>
      </defs>
      <g>
       <use xlink:href="#mce5d530d58" x="56.9" y="194.7" style="stroke: #000000; stroke-width: 0.8"/>
      </g>
     </g>
     <g id="text_1">
      <!-- −4 -->
      <g transform="translate(46.235 213.993438) scale(0.18 -0.18)">
       <defs>
        <path id="STIXGeneral-Regular-2212" d="M 3974 1408 
L 410 1408 
L 410 1830 
L 3974 1830 
L 3974 1408 
z
" transform="scale(0.015625)"/>
        <path id="STIXGeneral-Regular-34" d="M 3027 1069 
L 2368 1069 
L 2368 0 
L 1869 0 
L 1869 1069 
L 77 1069 
L 77 1478 
L 2086 4326 
L 2368 4326 
L 2368 1478 
L 3027 1478 
L 3027 1069 
z
M 1869 1478 
L 1869 3674 
L 333 1478 
L 1869 1478 
z
" transform="scale(0.015625)"/>
       </defs>
       <use xlink:href="#STIXGeneral-Regular-2212"/>
       <use xlink:href="#STIXGeneral-Regular-34" x="68.499985"/>
      </g>
     </g>
    </g>
    <g id="xtick_2">
     <g id="line2d_2">
      <g>
       <use xlink:href="#mce5d530d58" x="168.5" y="194.7" style="stroke: #000000; stroke-width: 0.8"/>
      </g>
     </g>
     <g id="text_2">
      <!-- −2 -->
      <g transform="translate(157.835 213.993438) scale(0.18 -0.18)">
       <defs>
        <path id="STIXGeneral-Regular-32" d="M 3034 877 
L 2688 0 
L 186 0 
L 186 77 
L 1325 1286 
Q 1773 1754 1965 2144 
Q 2157 2534 2157 2950 
Q 2157 3379 1920 3616 
Q 1683 3853 1267 3853 
Q 922 3853 720 3673 
Q 518 3494 326 3021 
L 192 3053 
Q 301 3648 630 3987 
Q 960 4326 1523 4326 
Q 2054 4326 2380 4006 
Q 2707 3686 2707 3200 
Q 2707 2477 1888 1613 
L 832 486 
L 2330 486 
Q 2541 486 2665 569 
Q 2790 653 2944 915 
L 3034 877 
z
" transform="scale(0.015625)"/>
       </defs>
       <use xlink:href="#STIXGeneral-Regular-2212"/>
       <use xlink:href="#STIXGeneral-Regular-32" x="68.499985"/>
      </g>
     </g>
    </g>
    <g id="xtick_3">
     <g id="line2d_3">
      <g>
       <use xlink:href="#mce5d530d58" x="280.1" y="194.7" style="stroke: #000000; stroke-width: 0.8"/>
      </g>
     </g>
     <g id="text_3">
      <!-- 0 -->
      <g transform="translate(275.6 213.993438) scale(0.18 -0.18)">
       <defs>
        <path id="STIXGeneral-Regular-30" d="M 3046 2112 
Q 3046 1683 2963 1302 
Q 2880 922 2717 602 
Q 2554 282 2266 96 
Q 1978 -90 1600 -90 
Q 1210 -90 915 108 
Q 621 307 461 640 
Q 301 973 227 1350 
Q 154 1728 154 2150 
Q 154 2746 301 3222 
Q 448 3699 790 4012 
Q 1133 4326 1626 4326 
Q 2253 4326 2649 3712 
Q 3046 3098 3046 2112 
z
M 2432 2080 
Q 2432 3091 2217 3625 
Q 2003 4160 1587 4160 
Q 1190 4160 979 3622 
Q 768 3085 768 2106 
Q 768 1120 979 598 
Q 1190 77 1600 77 
Q 2003 77 2217 598 
Q 2432 1120 2432 2080 
z
" transform="scale(0.015625)"/>
       </defs>
       <use xlink:href="#STIXGeneral-Regular-30"/>
      </g>
     </g>
    </g>
    <g id="xtick_4">
     <g id="line2d_4">
      <g>
       <use xlink:href="#mce5d530d58" x="391.7" y="194.7" style="stroke: #000000; stroke-width: 0.8"/>
      </g>
     </g>
     <g id="text_4">
      <!-- 2 -->
      <g transform="translate(387.2 213.993438) scale(0.18 -0.18)">
       <use xlink:href="#STIXGeneral-Regular-32"/>
      </g>
     </g>
    </g>
    <g id="xtick_5">
     <g id="line2d_5">
      <g>
       <use xlink:href="#mce5d530d58" x="503.3" y="194.7" style="stroke: #000000; stroke-width: 0.8"/>
      </g>
     </g>
     <g id="text_5">
      <!-- 4 -->
      <g transform="translate(498.8 213.993438) scale(0.18 -0.18)">
       <use xlink:href="#STIXGeneral-Regular-34"/>
      </g>
     </g>
    </g>
    <g id="text_6">
     <!-- $x$ -->
     <g transform="translate(276.05 234.193438) scale(0.18 -0.18)">
      <defs>
       <path id="STIXGeneral-Italic-78" d="M 1555 2272 
L 1632 1907 
Q 1971 2426 2179 2624 
Q 2387 2822 2598 2822 
Q 2714 2822 2787 2755 
Q 2861 2688 2861 2585 
Q 2861 2483 2800 2419 
Q 2739 2355 2643 2355 
Q 2586 2355 2490 2409 
Q 2394 2464 2310 2464 
Q 2125 2464 1683 1690 
Q 1683 1606 1734 1402 
L 1939 544 
Q 2003 282 2131 282 
Q 2234 282 2432 538 
Q 2451 563 2476 598 
Q 2502 634 2521 662 
Q 2541 691 2566 717 
L 2662 659 
Q 2387 230 2227 80 
Q 2067 -70 1882 -70 
Q 1728 -70 1645 26 
Q 1562 122 1504 365 
L 1318 1126 
L 755 365 
Q 557 96 432 13 
Q 307 -70 147 -70 
Q 0 -70 -86 0 
Q -173 70 -173 198 
Q -173 294 -112 361 
Q -51 429 45 429 
Q 122 429 250 358 
Q 346 301 416 301 
Q 525 301 742 614 
L 1267 1357 
L 1088 2150 
Q 1024 2432 969 2509 
Q 915 2586 794 2586 
Q 717 2586 544 2541 
L 429 2509 
L 410 2611 
L 480 2637 
Q 992 2822 1229 2822 
Q 1350 2822 1420 2707 
Q 1491 2592 1555 2272 
z
" transform="scale(0.015625)"/>
      </defs>
      <use xlink:href="#STIXGeneral-Italic-78" transform="translate(0 0.90625)"/>
     </g>
    </g>
   </g>
   <g id="matplotlib.axis_2">
    <g id="ytick_1">
     <g id="line2d_6">
      <defs>
       <path id="m487f643a37" d="M 0 0 
L -3.5 0 
" style="stroke: #000000; stroke-width: 0.8"/>
      </defs>
      <g>
       <use xlink:href="#m487f643a37" x="56.9" y="194.7" style="stroke: #000000; stroke-width: 0.8"/>
      </g>
     </g>
     <g id="text_7">
      <!-- 0.0 -->
      <g transform="translate(27.4 200.846719) scale(0.18 -0.18)">
       <defs>
        <path id="STIXGeneral-Regular-2e" d="M 1158 275 
Q 1158 134 1052 32 
Q 947 -70 800 -70 
Q 653 -70 550 32 
Q 448 134 448 281 
Q 448 429 553 534 
Q 659 640 806 640 
Q 947 640 1052 531 
Q 1158 422 1158 275 
z
" transform="scale(0.015625)"/>
       </defs>
       <use xlink:href="#STIXGeneral-Regular-30"/>
       <use xlink:href="#STIXGeneral-Regular-2e" x="49.999985"/>
       <use xlink:href="#STIXGeneral-Regular-30" x="74.999969"/>
      </g>
     </g>
    </g>
    <g id="ytick_2">
     <g id="line2d_7">
      <g>
       <use xlink:href="#m487f643a37" x="56.9" y="119.1" style="stroke: #000000; stroke-width: 0.8"/>
      </g>
     </g>
     <g id="text_8">
      <!-- 0.5 -->
      <g transform="translate(27.4 125.246719) scale(0.18 -0.18)">
       <defs>
        <path id="STIXGeneral-Regular-35" d="M 2803 4358 
L 2573 3814 
Q 2534 3731 2400 3731 
L 1158 3731 
L 902 3187 
Q 1606 3053 1920 2896 
Q 2234 2739 2502 2368 
Q 2726 2061 2726 1555 
Q 2726 1094 2576 780 
Q 2426 467 2099 224 
Q 1664 -90 1011 -90 
Q 646 -90 422 19 
Q 198 128 198 307 
Q 198 550 486 550 
Q 717 550 960 352 
Q 1210 147 1414 147 
Q 1747 147 2012 480 
Q 2278 813 2278 1229 
Q 2278 1843 1850 2189 
Q 1293 2637 486 2637 
Q 410 2637 410 2688 
L 416 2720 
L 1114 4237 
L 2438 4237 
Q 2547 4237 2608 4269 
Q 2669 4301 2746 4403 
L 2803 4358 
z
" transform="scale(0.015625)"/>
       </defs>
       <use xlink:href="#STIXGeneral-Regular-30"/>
       <use xlink:href="#STIXGeneral-Regular-2e" x="49.999985"/>
       <use xlink:href="#STIXGeneral-Regular-35" x="74.999969"/>
      </g>
     </g>
    </g>
    <g id="ytick_3">
     <g id="line2d_8">
      <g>
       <use xlink:href="#m487f643a37" x="56.9" y="43.5" style="stroke: #000000; stroke-width: 0.8"/>
      </g>
     </g>
     <g id="text_9">
      <!-- 1.0 -->
      <g transform="translate(27.4 49.646719) scale(0.18 -0.18)">
       <defs>
        <path id="STIXGeneral-Regular-31" d="M 2522 0 
L 755 0 
L 755 96 
Q 1107 115 1235 227 
Q 1363 339 1363 608 
L 1363 3482 
Q 1363 3795 1171 3795 
Q 1082 3795 883 3718 
L 710 3654 
L 710 3744 
L 1856 4326 
L 1914 4307 
L 1914 486 
Q 1914 275 2042 185 
Q 2170 96 2522 96 
L 2522 0 
z
" transform="scale(0.015625)"/>
       </defs>
       <use xlink:href="#STIXGeneral-Regular-31"/>
       <use xlink:href="#STIXGeneral-Regular-2e" x="49.999985"/>
       <use xlink:href="#STIXGeneral-Regular-30" x="74.999969"/>
      </g>
     </g>
    </g>
    <g id="text_10">
     <!-- $p(x),~ q(x)$ -->
     <g transform="translate(19.493438 146.28) rotate(-90) scale(0.18 -0.18)">
      <defs>
       <path id="STIXGeneral-Italic-70" d="M 1376 2739 
L 1190 2099 
Q 1670 2822 2285 2822 
Q 2637 2822 2829 2611 
Q 3021 2400 3021 2022 
Q 3021 1235 2422 582 
Q 1824 -70 1120 -70 
Q 890 -70 678 38 
Q 422 -1018 422 -1024 
Q 422 -1126 508 -1168 
Q 595 -1210 819 -1210 
L 819 -1312 
L -480 -1312 
L -480 -1210 
Q -275 -1203 -188 -1120 
Q -102 -1037 -45 -806 
L 691 1958 
Q 794 2330 794 2413 
Q 794 2586 512 2586 
L 371 2586 
L 358 2682 
L 1357 2822 
Q 1389 2822 1389 2797 
Q 1382 2765 1376 2739 
z
M 2445 2003 
Q 2445 2285 2352 2416 
Q 2259 2547 2048 2547 
Q 1798 2547 1548 2329 
Q 1299 2112 1184 1818 
Q 1043 1453 905 953 
Q 768 454 768 294 
Q 768 186 854 118 
Q 941 51 1075 51 
Q 1574 51 2003 659 
Q 2445 1274 2445 2003 
z
" transform="scale(0.015625)"/>
       <path id="STIXGeneral-Regular-28" d="M 1946 -1030 
L 1869 -1133 
Q 1126 -710 716 32 
Q 307 774 307 1613 
Q 307 3386 1888 4326 
L 1946 4224 
Q 1293 3667 1075 3126 
Q 858 2586 858 1632 
Q 858 685 1082 96 
Q 1306 -493 1946 -1030 
z
" transform="scale(0.015625)"/>
       <path id="STIXGeneral-Regular-29" d="M 186 4224 
L 262 4326 
Q 992 3891 1408 3148 
Q 1824 2406 1824 1581 
Q 1824 -166 243 -1133 
L 186 -1030 
Q 845 -486 1059 54 
Q 1274 595 1274 1562 
Q 1274 2534 1059 3120 
Q 845 3706 186 4224 
z
" transform="scale(0.015625)"/>
       <path id="STIXGeneral-Regular-2c" d="M 531 -902 
L 467 -781 
Q 998 -422 998 -96 
Q 998 -13 909 -13 
Q 883 -13 822 -25 
Q 762 -38 723 -38 
Q 352 -38 352 288 
Q 352 454 457 553 
Q 563 653 736 653 
Q 954 653 1101 496 
Q 1248 339 1248 96 
Q 1248 -198 1053 -473 
Q 858 -749 531 -902 
z
" transform="scale(0.015625)"/>
       <path id="STIXGeneral-Italic-71" d="M 3098 2739 
L 2042 -966 
Q 2029 -1018 2029 -1037 
Q 2029 -1235 2394 -1235 
L 2490 -1235 
L 2490 -1338 
L 973 -1338 
L 973 -1235 
Q 1267 -1216 1382 -1139 
Q 1498 -1062 1555 -877 
L 2131 979 
Q 1754 378 1466 154 
Q 1178 -70 800 -70 
Q 499 -70 329 128 
Q 160 326 160 672 
Q 160 1165 445 1670 
Q 730 2176 1168 2499 
Q 1606 2822 2035 2822 
Q 2438 2822 2528 2426 
L 2630 2739 
L 3098 2739 
z
M 2432 2298 
Q 2432 2458 2323 2570 
Q 2214 2682 2054 2682 
Q 1792 2682 1459 2368 
Q 1133 2054 921 1606 
Q 710 1158 710 762 
Q 710 269 1050 269 
Q 1312 269 1574 499 
Q 1901 781 2166 1341 
Q 2432 1901 2432 2298 
z
" transform="scale(0.015625)"/>
      </defs>
      <use xlink:href="#STIXGeneral-Italic-70" transform="translate(0 0.40625)"/>
      <use xlink:href="#STIXGeneral-Regular-28" transform="translate(50.399994 0.40625)"/>
      <use xlink:href="#STIXGeneral-Italic-78" transform="translate(83.699982 0.40625)"/>
      <use xlink:href="#STIXGeneral-Regular-29" transform="translate(128.099976 0.40625)"/>
      <use xlink:href="#STIXGeneral-Regular-2c" transform="translate(161.399963 0.40625)"/>
      <use xlink:href="#STIXGeneral-Italic-71" transform="translate(224.906364 0.40625)"/>
      <use xlink:href="#STIXGeneral-Regular-28" transform="translate(274.906349 0.40625)"/>
      <use xlink:href="#STIXGeneral-Italic-78" transform="translate(308.206337 0.40625)"/>
      <use xlink:href="#STIXGeneral-Regular-29" transform="translate(352.606331 0.40625)"/>
     </g>
    </g>
   </g>
   <g id="line2d_9">
    <path d="M 56.9 194.699719 
L 86.061808 194.617754 
L 95.034673 194.365138 
L 99.521112 194.064052 
L 104.007538 193.540074 
L 108.493964 192.668149 
L 110.73719 192.051236 
L 112.980403 191.281723 
L 115.223616 190.332985 
L 117.466842 189.176988 
L 119.710042 187.785204 
L 121.953268 186.129676 
L 124.196481 184.184551 
L 126.439694 181.927623 
L 128.68292 179.342186 
L 130.92612 176.419021 
L 133.169346 173.158115 
L 135.412559 169.570675 
L 137.655772 165.680411 
L 142.142211 157.15498 
L 153.358289 134.798557 
L 155.601502 130.895084 
L 157.844729 127.42024 
L 160.087942 124.469157 
L 162.331154 122.125401 
L 164.574367 120.457136 
L 166.81758 119.513806 
L 169.060807 119.323705 
L 171.304019 119.892566 
L 173.547232 121.203265 
L 175.790445 123.216692 
L 178.033672 125.873698 
L 180.276885 129.097917 
L 182.520097 132.799504 
L 184.76331 136.879221 
L 189.24975 145.755573 
L 195.979402 159.36281 
L 198.222615 163.632835 
L 200.465828 167.661378 
L 202.709041 171.40403 
L 204.952253 174.830344 
L 207.19548 177.92306 
L 209.438693 180.676743 
L 211.681906 183.09625 
L 213.925119 185.194803 
L 216.168345 186.99209 
L 218.411558 188.512346 
L 220.654771 189.782678 
L 222.897984 190.831482 
L 225.14121 191.687179 
L 227.384423 192.377178 
L 229.627636 192.927151 
L 234.114075 193.698104 
L 238.600501 194.156215 
L 245.330153 194.498426 
L 254.303018 194.653402 
L 276.735174 194.699279 
L 310.383421 194.601105 
L 317.113073 194.416544 
L 321.599499 194.156215 
L 326.085925 193.698104 
L 330.572351 192.927154 
L 332.815577 192.377178 
L 335.058803 191.687175 
L 337.302003 190.831487 
L 339.545229 189.782678 
L 341.788429 188.512355 
L 344.031655 186.99209 
L 346.274881 185.194803 
L 348.518081 183.096264 
L 350.761307 180.676743 
L 353.004507 177.923077 
L 355.247733 174.830363 
L 357.490959 171.40403 
L 359.734159 167.661401 
L 361.977385 163.632835 
L 366.463811 154.909839 
L 375.43669 136.879221 
L 377.679889 132.799527 
L 379.923115 129.097917 
L 382.166315 125.873715 
L 384.409541 123.216706 
L 386.652768 121.203265 
L 388.895967 119.892571 
L 391.139193 119.323705 
L 393.38242 119.513806 
L 395.625619 120.457128 
L 397.868846 122.125401 
L 400.112045 124.469141 
L 402.355271 127.42024 
L 404.598498 130.895084 
L 406.841697 134.798533 
L 411.32815 143.479564 
L 420.301002 161.524665 
L 422.544228 165.680411 
L 424.787427 169.570653 
L 427.030654 173.158115 
L 429.273853 176.418984 
L 431.51708 179.342186 
L 433.760306 181.927623 
L 436.003505 184.184539 
L 438.246732 186.129676 
L 440.489958 187.785204 
L 442.733158 189.176988 
L 444.976384 190.332985 
L 447.219583 191.281718 
L 449.46281 192.051236 
L 451.706036 192.668149 
L 456.192462 193.540074 
L 460.678888 194.064052 
L 465.165314 194.365137 
L 471.894966 194.581387 
L 485.35427 194.68867 
L 503.3 194.699719 
L 503.3 194.699719 
" clip-path="url(#p1a4c4013a3)" style="fill: none; stroke: #1f77b4; stroke-width: 1.5; stroke-linecap: square"/>
   </g>
   <g id="line2d_10">
    <path d="M 56.9 194.699719 
L 117.466842 194.601106 
L 133.169346 194.365138 
L 144.385424 193.958146 
L 151.115076 193.540074 
L 157.844729 192.927151 
L 164.574367 192.051238 
L 169.060807 191.281723 
L 173.547232 190.332985 
L 178.033672 189.176992 
L 182.520097 187.785199 
L 187.006537 186.129676 
L 191.492963 184.184551 
L 195.979402 181.927616 
L 200.465828 179.342194 
L 204.952253 176.419011 
L 209.438693 173.158115 
L 213.925119 169.570675 
L 218.411558 165.6804 
L 222.897984 161.524677 
L 229.627636 154.909825 
L 247.573366 136.879233 
L 252.059792 132.799515 
L 256.546231 129.097917 
L 261.032657 125.873698 
L 263.275883 124.469157 
L 265.519096 123.216699 
L 267.762309 122.125401 
L 270.005522 121.20327 
L 272.248735 120.457136 
L 274.491961 119.892566 
L 276.735174 119.513805 
L 278.978387 119.323705 
L 281.221613 119.323705 
L 283.464813 119.513803 
L 285.708039 119.892566 
L 287.951265 120.457136 
L 290.194465 121.203265 
L 292.437691 122.125401 
L 294.680891 123.216692 
L 296.924117 124.469157 
L 299.167343 125.873698 
L 303.653769 129.097917 
L 308.140195 132.799504 
L 312.626621 136.879221 
L 319.356273 143.479537 
L 335.058803 159.36281 
L 339.545229 163.632835 
L 344.031655 167.661378 
L 348.518081 171.40403 
L 353.004507 174.830344 
L 357.490959 177.92306 
L 361.977385 180.676743 
L 366.463811 183.09625 
L 370.950237 185.194803 
L 375.43669 186.99209 
L 379.923115 188.512346 
L 384.409541 189.782678 
L 388.895967 190.831482 
L 393.38242 191.687179 
L 400.112045 192.668146 
L 406.841697 193.360506 
L 413.571349 193.836784 
L 422.544228 194.236194 
L 433.760306 194.498426 
L 451.706036 194.653403 
L 494.327122 194.699248 
L 503.3 194.699719 
L 503.3 194.699719 
" clip-path="url(#p1a4c4013a3)" style="fill: none; stroke: #2ca02c; stroke-width: 1.5; stroke-linecap: square"/>
   </g>
   <g id="patch_42">
    <path d="M 56.9 194.7 
L 68.346153 194.7 
L 68.346153 194.7 
L 56.9 194.7 
z
" clip-path="url(#p1a4c4013a3)" style="fill: #1f77b4; opacity: 0.4"/>
   </g>
   <g id="patch_43">
    <path d="M 68.346153 194.7 
L 79.792306 194.7 
L 79.792306 194.7 
L 68.346153 194.7 
z
" clip-path="url(#p1a4c4013a3)" style="fill: #1f77b4; opacity: 0.4"/>
   </g>
   <g id="patch_44">
    <path d="M 79.792306 194.7 
L 91.238459 194.7 
L 91.238459 194.7 
L 79.792306 194.7 
z
" clip-path="url(#p1a4c4013a3)" style="fill: #1f77b4; opacity: 0.4"/>
   </g>
   <g id="patch_45">
    <path d="M 91.238459 194.7 
L 102.684613 194.7 
L 102.684613 194.7 
L 91.238459 194.7 
z
" clip-path="url(#p1a4c4013a3)" style="fill: #1f77b4; opacity: 0.4"/>
   </g>
   <g id="patch_46">
    <path d="M 102.684613 194.7 
L 114.130766 194.7 
L 114.130766 194.7 
L 102.684613 194.7 
z
" clip-path="url(#p1a4c4013a3)" style="fill: #1f77b4; opacity: 0.4"/>
   </g>
   <g id="patch_47">
    <path d="M 114.130766 194.7 
L 125.576919 194.7 
L 125.576919 194.7 
L 114.130766 194.7 
z
" clip-path="url(#p1a4c4013a3)" style="fill: #1f77b4; opacity: 0.4"/>
   </g>
   <g id="patch_48">
    <path d="M 125.576919 194.7 
L 137.023072 194.7 
L 137.023072 194.7 
L 125.576919 194.7 
z
" clip-path="url(#p1a4c4013a3)" style="fill: #1f77b4; opacity: 0.4"/>
   </g>
   <g id="patch_49">
    <path d="M 137.023072 194.7 
L 148.469225 194.7 
L 148.469225 194.7 
L 137.023072 194.7 
z
" clip-path="url(#p1a4c4013a3)" style="fill: #1f77b4; opacity: 0.4"/>
   </g>
   <g id="patch_50">
    <path d="M 148.469225 194.7 
L 159.915378 194.7 
L 159.915378 -159.640955 
L 148.469225 -159.640955 
z
" clip-path="url(#p1a4c4013a3)" style="fill: #1f77b4; opacity: 0.4"/>
   </g>
   <g id="patch_51">
    <path d="M 159.915378 194.7 
L 171.361545 194.7 
L 171.361545 194.7 
L 159.915378 194.7 
z
" clip-path="url(#p1a4c4013a3)" style="fill: #1f77b4; opacity: 0.4"/>
   </g>
   <g id="patch_52">
    <path d="M 171.361545 194.7 
L 182.807698 194.7 
L 182.807698 5.971494 
L 171.361545 5.971494 
z
" clip-path="url(#p1a4c4013a3)" style="fill: #1f77b4; opacity: 0.4"/>
   </g>
   <g id="patch_53">
    <path d="M 182.807698 194.7 
L 194.253851 194.7 
L 194.253851 112.736801 
L 182.807698 112.736801 
z
" clip-path="url(#p1a4c4013a3)" style="fill: #1f77b4; opacity: 0.4"/>
   </g>
   <g id="patch_54">
    <path d="M 194.253851 194.7 
L 205.700004 194.7 
L 205.700004 179.196058 
L 194.253851 179.196058 
z
" clip-path="url(#p1a4c4013a3)" style="fill: #1f77b4; opacity: 0.4"/>
   </g>
   <g id="patch_55">
    <path d="M 205.700004 194.7 
L 217.146158 194.7 
L 217.146158 181.085982 
L 205.700004 181.085982 
z
" clip-path="url(#p1a4c4013a3)" style="fill: #1f77b4; opacity: 0.4"/>
   </g>
   <g id="patch_56">
    <path d="M 217.146158 194.7 
L 228.592311 194.7 
L 228.592311 190.80506 
L 217.146158 190.80506 
z
" clip-path="url(#p1a4c4013a3)" style="fill: #1f77b4; opacity: 0.4"/>
   </g>
   <g id="patch_57">
    <path d="M 228.592311 194.7 
L 240.038464 194.7 
L 240.038464 192.217861 
L 228.592311 192.217861 
z
" clip-path="url(#p1a4c4013a3)" style="fill: #1f77b4; opacity: 0.4"/>
   </g>
   <g id="patch_58">
    <path d="M 240.038464 194.7 
L 251.484617 194.7 
L 251.484617 194.39165 
L 240.038464 194.39165 
z
" clip-path="url(#p1a4c4013a3)" style="fill: #1f77b4; opacity: 0.4"/>
   </g>
   <g id="patch_59">
    <path d="M 251.484617 194.7 
L 262.93077 194.7 
L 262.93077 194.651027 
L 251.484617 194.651027 
z
" clip-path="url(#p1a4c4013a3)" style="fill: #1f77b4; opacity: 0.4"/>
   </g>
   <g id="patch_60">
    <path d="M 262.93077 194.7 
L 274.376923 194.7 
L 274.376923 194.691886 
L 262.93077 194.691886 
z
" clip-path="url(#p1a4c4013a3)" style="fill: #1f77b4; opacity: 0.4"/>
   </g>
   <g id="patch_61">
    <path d="M 274.376923 194.7 
L 285.82309 194.7 
L 285.82309 194.699162 
L 274.376923 194.699162 
z
" clip-path="url(#p1a4c4013a3)" style="fill: #1f77b4; opacity: 0.4"/>
   </g>
   <g id="patch_62">
    <path d="M 285.82309 194.7 
L 297.269243 194.7 
L 297.269243 194.694814 
L 285.82309 194.694814 
z
" clip-path="url(#p1a4c4013a3)" style="fill: #1f77b4; opacity: 0.4"/>
   </g>
   <g id="patch_63">
    <path d="M 297.269243 194.7 
L 308.715396 194.7 
L 308.715396 194.668379 
L 297.269243 194.668379 
z
" clip-path="url(#p1a4c4013a3)" style="fill: #1f77b4; opacity: 0.4"/>
   </g>
   <g id="patch_64">
    <path d="M 308.715396 194.7 
L 320.161549 194.7 
L 320.161549 194.563281 
L 308.715396 194.563281 
z
" clip-path="url(#p1a4c4013a3)" style="fill: #1f77b4; opacity: 0.4"/>
   </g>
   <g id="patch_65">
    <path d="M 320.161549 194.7 
L 331.607703 194.7 
L 331.607703 193.967111 
L 320.161549 193.967111 
z
" clip-path="url(#p1a4c4013a3)" style="fill: #1f77b4; opacity: 0.4"/>
   </g>
   <g id="patch_66">
    <path d="M 331.607703 194.7 
L 343.053856 194.7 
L 343.053856 189.633563 
L 331.607703 189.633563 
z
" clip-path="url(#p1a4c4013a3)" style="fill: #1f77b4; opacity: 0.4"/>
   </g>
   <g id="patch_67">
    <path d="M 343.053856 194.7 
L 354.500009 194.7 
L 354.500009 187.020758 
L 343.053856 187.020758 
z
" clip-path="url(#p1a4c4013a3)" style="fill: #1f77b4; opacity: 0.4"/>
   </g>
   <g id="patch_68">
    <path d="M 354.500009 194.7 
L 365.946162 194.7 
L 365.946162 132.146026 
L 354.500009 132.146026 
z
" clip-path="url(#p1a4c4013a3)" style="fill: #1f77b4; opacity: 0.4"/>
   </g>
   <g id="patch_69">
    <path d="M 365.946162 194.7 
L 377.392315 194.7 
L 377.392315 194.7 
L 365.946162 194.7 
z
" clip-path="url(#p1a4c4013a3)" style="fill: #1f77b4; opacity: 0.4"/>
   </g>
   <g id="patch_70">
    <path d="M 377.392315 194.7 
L 388.838468 194.7 
L 388.838468 194.7 
L 377.392315 194.7 
z
" clip-path="url(#p1a4c4013a3)" style="fill: #1f77b4; opacity: 0.4"/>
   </g>
   <g id="patch_71">
    <path d="M 388.838468 194.7 
L 400.284622 194.7 
L 400.284622 194.7 
L 388.838468 194.7 
z
" clip-path="url(#p1a4c4013a3)" style="fill: #1f77b4; opacity: 0.4"/>
   </g>
   <g id="patch_72">
    <path d="M 400.284622 194.7 
L 411.730775 194.7 
L 411.730775 194.7 
L 400.284622 194.7 
z
" clip-path="url(#p1a4c4013a3)" style="fill: #1f77b4; opacity: 0.4"/>
   </g>
   <g id="patch_73">
    <path d="M 411.730775 194.7 
L 423.176928 194.7 
L 423.176928 194.7 
L 411.730775 194.7 
z
" clip-path="url(#p1a4c4013a3)" style="fill: #1f77b4; opacity: 0.4"/>
   </g>
   <g id="patch_74">
    <path d="M 423.176928 194.7 
L 434.623081 194.7 
L 434.623081 194.7 
L 423.176928 194.7 
z
" clip-path="url(#p1a4c4013a3)" style="fill: #1f77b4; opacity: 0.4"/>
   </g>
   <g id="patch_75">
    <path d="M 434.623081 194.7 
L 446.069234 194.7 
L 446.069234 194.7 
L 434.623081 194.7 
z
" clip-path="url(#p1a4c4013a3)" style="fill: #1f77b4; opacity: 0.4"/>
   </g>
   <g id="patch_76">
    <path d="M 446.069234 194.7 
L 457.515387 194.7 
L 457.515387 194.7 
L 446.069234 194.7 
z
" clip-path="url(#p1a4c4013a3)" style="fill: #1f77b4; opacity: 0.4"/>
   </g>
   <g id="patch_77">
    <path d="M 457.515387 194.7 
L 468.961541 194.7 
L 468.961541 194.7 
L 457.515387 194.7 
z
" clip-path="url(#p1a4c4013a3)" style="fill: #1f77b4; opacity: 0.4"/>
   </g>
   <g id="patch_78">
    <path d="M 468.961541 194.7 
L 480.407694 194.7 
L 480.407694 194.7 
L 468.961541 194.7 
z
" clip-path="url(#p1a4c4013a3)" style="fill: #1f77b4; opacity: 0.4"/>
   </g>
   <g id="patch_79">
    <path d="M 480.407694 194.7 
L 491.853847 194.7 
L 491.853847 194.7 
L 480.407694 194.7 
z
" clip-path="url(#p1a4c4013a3)" style="fill: #1f77b4; opacity: 0.4"/>
   </g>
   <g id="patch_80">
    <path d="M 491.853847 194.7 
L 503.3 194.7 
L 503.3 194.7 
L 491.853847 194.7 
z
" clip-path="url(#p1a4c4013a3)" style="fill: #1f77b4; opacity: 0.4"/>
   </g>
   <g id="patch_81">
    <path d="M 56.9 194.7 
L 56.9 28.38 
" style="fill: none; stroke: #000000; stroke-width: 0.8; stroke-linejoin: miter; stroke-linecap: square"/>
   </g>
   <g id="patch_82">
    <path d="M 503.3 194.7 
L 503.3 28.38 
" style="fill: none; stroke: #000000; stroke-width: 0.8; stroke-linejoin: miter; stroke-linecap: square"/>
   </g>
   <g id="patch_83">
    <path d="M 56.9 194.7 
L 503.3 194.7 
" style="fill: none; stroke: #000000; stroke-width: 0.8; stroke-linejoin: miter; stroke-linecap: square"/>
   </g>
   <g id="patch_84">
    <path d="M 56.9 28.38 
L 503.3 28.38 
" style="fill: none; stroke: #000000; stroke-width: 0.8; stroke-linejoin: miter; stroke-linecap: square"/>
   </g>
   <g id="text_11">
    <!-- Target $p$, proposal $q$, function $f$ -->
    <g transform="translate(143.48 22.38) scale(0.22 -0.22)">
     <defs>
      <path id="STIXGeneral-Regular-54" d="M 3795 3149 
L 3642 3149 
Q 3539 3674 3353 3821 
Q 3168 3968 2656 3968 
L 2278 3968 
L 2278 710 
Q 2278 346 2387 243 
Q 2496 141 2893 122 
L 2893 0 
L 1024 0 
L 1024 122 
Q 1427 147 1526 256 
Q 1626 365 1626 787 
L 1626 3968 
L 1242 3968 
Q 723 3968 540 3817 
Q 358 3667 262 3149 
L 109 3149 
L 154 4237 
L 3750 4237 
L 3795 3149 
z
" transform="scale(0.015625)"/>
      <path id="STIXGeneral-Regular-61" d="M 2829 422 
L 2829 243 
Q 2586 -64 2253 -64 
Q 1888 -64 1843 403 
L 1837 403 
Q 1427 -64 909 -64 
Q 608 -64 422 112 
Q 237 288 237 602 
Q 237 1050 685 1350 
Q 992 1555 1837 1869 
L 1837 2214 
Q 1837 2502 1699 2646 
Q 1562 2790 1338 2790 
Q 1146 2790 1018 2697 
Q 890 2605 890 2477 
Q 890 2419 909 2348 
Q 928 2278 928 2208 
Q 928 2112 841 2029 
Q 755 1946 634 1946 
Q 525 1946 441 2029 
Q 358 2112 358 2240 
Q 358 2547 685 2752 
Q 986 2944 1421 2944 
Q 1939 2944 2176 2656 
Q 2291 2522 2323 2384 
Q 2355 2246 2355 1946 
L 2355 723 
Q 2355 301 2554 301 
Q 2682 301 2829 422 
z
M 1837 813 
L 1837 1715 
Q 1248 1510 1018 1293 
Q 800 1094 800 800 
Q 800 557 921 432 
Q 1043 307 1242 307 
Q 1453 307 1613 410 
Q 1747 506 1792 589 
Q 1837 672 1837 813 
z
" transform="scale(0.015625)"/>
      <path id="STIXGeneral-Regular-72" d="M 1024 2931 
L 1024 2342 
Q 1267 2688 1430 2816 
Q 1594 2944 1792 2944 
Q 1958 2944 2051 2854 
Q 2144 2765 2144 2605 
Q 2144 2470 2077 2393 
Q 2010 2317 1894 2317 
Q 1773 2317 1638 2445 
Q 1536 2541 1472 2541 
Q 1338 2541 1181 2355 
Q 1024 2170 1024 2016 
L 1024 576 
Q 1024 301 1133 205 
Q 1242 109 1568 96 
L 1568 0 
L 32 0 
L 32 96 
Q 339 154 412 224 
Q 486 294 486 538 
L 486 2138 
Q 486 2349 438 2435 
Q 390 2522 269 2522 
Q 166 2522 45 2496 
L 45 2598 
Q 448 2726 992 2944 
L 1024 2931 
z
" transform="scale(0.015625)"/>
      <path id="STIXGeneral-Regular-67" d="M 3008 2483 
L 2477 2483 
Q 2598 2208 2598 1946 
Q 2598 1453 2265 1203 
Q 1933 954 1600 954 
Q 1530 954 1357 973 
L 1235 986 
Q 1107 947 979 812 
Q 851 678 851 582 
Q 851 435 1350 410 
L 2176 371 
Q 2528 358 2739 172 
Q 2950 -13 2950 -314 
Q 2950 -685 2566 -986 
Q 2035 -1395 1286 -1395 
Q 826 -1395 502 -1212 
Q 179 -1030 179 -774 
Q 179 -595 320 -419 
Q 461 -243 806 6 
Q 602 102 534 172 
Q 467 243 467 346 
Q 467 531 762 787 
Q 909 915 1037 1043 
Q 717 1203 579 1401 
Q 442 1600 442 1901 
Q 442 2336 752 2640 
Q 1062 2944 1510 2944 
Q 1766 2944 2022 2848 
L 2163 2797 
Q 2349 2733 2515 2733 
L 3008 2733 
L 3008 2483 
z
M 973 2163 
L 973 2144 
Q 973 1683 1155 1398 
Q 1338 1114 1632 1114 
Q 1850 1114 1978 1270 
Q 2106 1427 2106 1690 
Q 2106 2112 1914 2464 
Q 1754 2765 1446 2765 
Q 1222 2765 1097 2605 
Q 973 2445 973 2163 
z
M 2771 -410 
Q 2771 -230 2595 -163 
Q 2419 -96 1978 -96 
Q 1344 -96 941 -13 
Q 749 -243 688 -348 
Q 627 -454 627 -563 
Q 627 -774 880 -902 
Q 1133 -1030 1555 -1030 
Q 2099 -1030 2435 -860 
Q 2771 -691 2771 -410 
z
" transform="scale(0.015625)"/>
      <path id="STIXGeneral-Regular-65" d="M 2611 1050 
L 2714 1005 
Q 2330 -64 1376 -64 
Q 813 -64 486 329 
Q 160 723 160 1389 
Q 160 2074 525 2509 
Q 890 2944 1485 2944 
Q 2061 2944 2374 2502 
Q 2560 2246 2592 1773 
L 621 1773 
Q 646 1370 700 1158 
Q 755 947 915 730 
Q 1184 378 1626 378 
Q 1939 378 2153 531 
Q 2368 685 2611 1050 
z
M 634 1978 
L 1939 1978 
Q 1882 2381 1750 2547 
Q 1619 2714 1312 2714 
Q 1043 2714 864 2525 
Q 685 2336 634 1978 
z
" transform="scale(0.015625)"/>
      <path id="STIXGeneral-Regular-74" d="M 1702 493 
L 1786 422 
Q 1478 -64 1011 -64 
Q 448 -64 448 749 
L 448 2675 
L 109 2675 
Q 83 2694 83 2720 
Q 83 2771 192 2842 
Q 435 2982 813 3526 
Q 826 3546 874 3606 
Q 922 3667 941 3706 
Q 986 3706 986 3622 
L 986 2880 
L 1632 2880 
L 1632 2675 
L 986 2675 
L 986 845 
Q 986 538 1062 403 
Q 1139 269 1318 269 
Q 1510 269 1702 493 
z
" transform="scale(0.015625)"/>
      <path id="STIXGeneral-Regular-20" transform="scale(0.015625)"/>
      <path id="STIXGeneral-Regular-70" d="M 1018 2931 
L 1018 2438 
Q 1421 2944 1939 2944 
Q 2406 2944 2707 2560 
Q 3008 2176 3008 1581 
Q 3008 883 2621 409 
Q 2234 -64 1664 -64 
Q 1466 -64 1328 -6 
Q 1190 51 1018 211 
L 1018 -794 
Q 1018 -1094 1120 -1180 
Q 1222 -1267 1581 -1274 
L 1581 -1389 
L 32 -1389 
L 32 -1280 
Q 314 -1254 397 -1171 
Q 480 -1088 480 -838 
L 480 2157 
Q 480 2381 429 2451 
Q 378 2522 218 2522 
Q 115 2522 58 2515 
L 58 2618 
Q 506 2752 979 2944 
L 1018 2931 
z
M 1018 2138 
L 1018 563 
Q 1018 422 1238 281 
Q 1459 141 1683 141 
Q 2029 141 2243 467 
Q 2458 794 2458 1325 
Q 2458 1888 2243 2224 
Q 2029 2560 1670 2560 
Q 1446 2560 1232 2419 
Q 1018 2278 1018 2138 
z
" transform="scale(0.015625)"/>
      <path id="STIXGeneral-Regular-6f" d="M 3008 1478 
Q 3008 806 2608 371 
Q 2208 -64 1568 -64 
Q 979 -64 582 368 
Q 186 800 186 1459 
Q 186 2125 582 2534 
Q 979 2944 1626 2944 
Q 2221 2944 2614 2537 
Q 3008 2131 3008 1478 
z
M 2432 1306 
Q 2432 2035 2112 2445 
Q 1856 2765 1504 2765 
Q 1171 2765 966 2493 
Q 762 2221 762 1747 
Q 762 928 1101 435 
Q 1318 115 1677 115 
Q 2029 115 2230 432 
Q 2432 749 2432 1306 
z
" transform="scale(0.015625)"/>
      <path id="STIXGeneral-Regular-73" d="M 998 1926 
L 1664 1523 
Q 1984 1331 2105 1164 
Q 2227 998 2227 736 
Q 2227 416 1961 176 
Q 1696 -64 1331 -64 
Q 1030 -64 864 -6 
Q 691 51 570 51 
Q 461 51 416 -26 
L 333 -26 
L 333 979 
L 435 979 
Q 538 512 730 294 
Q 922 77 1248 77 
Q 1485 77 1632 211 
Q 1779 346 1779 550 
Q 1779 845 1440 1030 
L 1094 1222 
Q 326 1651 326 2150 
Q 326 2522 566 2730 
Q 806 2938 1210 2938 
Q 1491 2938 1638 2867 
Q 1754 2816 1818 2816 
Q 1862 2816 1920 2880 
L 1990 2880 
L 2022 2010 
L 1926 2010 
Q 1818 2445 1654 2621 
Q 1491 2797 1203 2797 
Q 986 2797 854 2688 
Q 723 2579 723 2362 
Q 723 2253 796 2128 
Q 870 2003 998 1926 
z
" transform="scale(0.015625)"/>
      <path id="STIXGeneral-Regular-6c" d="M 1645 0 
L 134 0 
L 134 96 
Q 435 122 531 221 
Q 627 320 627 589 
L 627 3590 
Q 627 3821 569 3910 
Q 512 4000 358 4000 
Q 224 4000 122 3987 
L 122 4090 
Q 730 4237 1133 4371 
L 1165 4346 
L 1165 557 
Q 1165 288 1254 201 
Q 1344 115 1645 96 
L 1645 0 
z
" transform="scale(0.015625)"/>
      <path id="STIXGeneral-Regular-66" d="M 134 2880 
L 659 2880 
Q 666 3264 710 3478 
Q 755 3693 883 3910 
Q 1152 4371 1786 4371 
Q 2074 4371 2262 4259 
Q 2451 4147 2451 3974 
Q 2451 3866 2374 3789 
Q 2298 3712 2182 3712 
Q 2029 3712 1894 3942 
Q 1741 4192 1555 4192 
Q 1197 4192 1197 3622 
L 1197 2880 
L 1978 2880 
L 1978 2675 
L 1197 2675 
L 1197 666 
Q 1197 307 1299 208 
Q 1402 109 1792 96 
L 1792 0 
L 128 0 
L 128 96 
Q 474 115 566 214 
Q 659 314 659 666 
L 659 2675 
L 134 2675 
L 134 2880 
z
" transform="scale(0.015625)"/>
      <path id="STIXGeneral-Regular-75" d="M 3072 320 
L 3072 230 
Q 2573 96 2195 -58 
L 2163 -38 
L 2163 486 
L 2150 486 
Q 1747 -64 1235 -64 
Q 870 -64 662 160 
Q 454 384 454 755 
L 454 2362 
Q 454 2598 371 2688 
Q 288 2778 58 2790 
L 58 2880 
L 992 2880 
L 992 813 
Q 992 595 1123 451 
Q 1254 307 1446 307 
Q 1760 307 1984 506 
Q 2067 582 2099 649 
Q 2131 717 2131 877 
L 2131 2355 
Q 2131 2605 2041 2678 
Q 1952 2752 1658 2771 
L 1658 2880 
L 2669 2880 
L 2669 685 
Q 2669 461 2742 390 
Q 2816 320 3034 320 
L 3072 320 
z
" transform="scale(0.015625)"/>
      <path id="STIXGeneral-Regular-6e" d="M 3104 0 
L 1773 0 
L 1779 96 
Q 2016 115 2096 233 
Q 2176 352 2176 672 
L 2176 1946 
Q 2176 2592 1709 2592 
Q 1549 2592 1408 2515 
Q 1267 2438 1050 2227 
L 1050 461 
Q 1050 269 1136 192 
Q 1222 115 1466 96 
L 1466 0 
L 115 0 
L 115 96 
Q 358 115 435 214 
Q 512 314 512 602 
L 512 2157 
Q 512 2394 467 2483 
Q 422 2573 288 2573 
Q 160 2573 102 2547 
L 102 2656 
Q 550 2784 979 2944 
L 1030 2925 
L 1030 2426 
L 1037 2426 
Q 1491 2944 1958 2944 
Q 2323 2944 2518 2688 
Q 2714 2432 2714 1958 
L 2714 544 
Q 2714 288 2790 205 
Q 2867 122 3104 96 
L 3104 0 
z
" transform="scale(0.015625)"/>
      <path id="STIXGeneral-Regular-63" d="M 2547 998 
L 2637 941 
Q 2362 403 2112 205 
Q 1786 -64 1376 -64 
Q 845 -64 502 336 
Q 160 736 160 1357 
Q 160 2170 698 2618 
Q 1094 2944 1562 2944 
Q 1965 2944 2256 2749 
Q 2547 2554 2547 2285 
Q 2547 2176 2457 2096 
Q 2368 2016 2246 2016 
Q 2022 2016 1939 2310 
L 1901 2451 
Q 1850 2630 1773 2694 
Q 1696 2758 1523 2758 
Q 1133 2758 893 2451 
Q 653 2144 653 1645 
Q 653 1094 928 745 
Q 1203 397 1645 397 
Q 1920 397 2118 528 
Q 2317 659 2547 998 
z
" transform="scale(0.015625)"/>
      <path id="STIXGeneral-Regular-69" d="M 1152 4045 
Q 1152 3904 1056 3811 
Q 960 3718 819 3718 
Q 685 3718 592 3811 
Q 499 3904 499 4045 
Q 499 4179 595 4275 
Q 691 4371 826 4371 
Q 966 4371 1059 4275 
Q 1152 4179 1152 4045 
z
M 1619 0 
L 102 0 
L 102 96 
Q 435 115 521 211 
Q 608 307 608 666 
L 608 2118 
Q 608 2342 563 2432 
Q 518 2522 397 2522 
Q 243 2522 128 2490 
L 128 2592 
L 1120 2944 
L 1146 2918 
L 1146 672 
Q 1146 314 1226 218 
Q 1306 122 1619 96 
L 1619 0 
z
" transform="scale(0.015625)"/>
      <path id="STIXGeneral-Italic-66" d="M 262 2739 
L 858 2739 
Q 1107 3546 1318 3846 
Q 1664 4339 2163 4339 
Q 2400 4339 2557 4227 
Q 2714 4115 2714 3942 
Q 2714 3834 2634 3750 
Q 2554 3667 2445 3667 
Q 2355 3667 2281 3737 
Q 2208 3808 2208 3917 
Q 2208 3981 2240 4038 
Q 2272 4096 2272 4115 
Q 2272 4198 2131 4198 
Q 1862 4198 1676 3849 
Q 1491 3501 1350 2739 
L 2035 2739 
L 1997 2534 
L 1306 2534 
L 845 486 
Q 435 -1325 -435 -1325 
Q -653 -1325 -797 -1213 
Q -941 -1101 -941 -934 
Q -941 -826 -870 -746 
Q -800 -666 -698 -666 
Q -589 -666 -521 -733 
Q -454 -800 -454 -902 
Q -454 -947 -483 -1001 
Q -512 -1056 -512 -1088 
Q -512 -1190 -384 -1190 
Q 13 -1190 237 -154 
L 800 2534 
L 218 2534 
L 262 2739 
z
" transform="scale(0.015625)"/>
     </defs>
     <use xlink:href="#STIXGeneral-Regular-54" transform="translate(0 0.703125)"/>
     <use xlink:href="#STIXGeneral-Regular-61" transform="translate(61.099991 0.703125)"/>
     <use xlink:href="#STIXGeneral-Regular-72" transform="translate(105.499985 0.703125)"/>
     <use xlink:href="#STIXGeneral-Regular-67" transform="translate(138.799973 0.703125)"/>
     <use xlink:href="#STIXGeneral-Regular-65" transform="translate(188.799957 0.703125)"/>
     <use xlink:href="#STIXGeneral-Regular-74" transform="translate(233.199951 0.703125)"/>
     <use xlink:href="#STIXGeneral-Regular-20" transform="translate(260.999939 0.703125)"/>
     <use xlink:href="#STIXGeneral-Italic-70" transform="translate(285.999924 0.703125)"/>
     <use xlink:href="#STIXGeneral-Regular-2c" transform="translate(336.399918 0.703125)"/>
     <use xlink:href="#STIXGeneral-Regular-20" transform="translate(361.399902 0.703125)"/>
     <use xlink:href="#STIXGeneral-Regular-70" transform="translate(386.399887 0.703125)"/>
     <use xlink:href="#STIXGeneral-Regular-72" transform="translate(436.399872 0.703125)"/>
     <use xlink:href="#STIXGeneral-Regular-6f" transform="translate(469.69986 0.703125)"/>
     <use xlink:href="#STIXGeneral-Regular-70" transform="translate(519.699844 0.703125)"/>
     <use xlink:href="#STIXGeneral-Regular-6f" transform="translate(569.699829 0.703125)"/>
     <use xlink:href="#STIXGeneral-Regular-73" transform="translate(619.699814 0.703125)"/>
     <use xlink:href="#STIXGeneral-Regular-61" transform="translate(658.599808 0.703125)"/>
     <use xlink:href="#STIXGeneral-Regular-6c" transform="translate(702.999802 0.703125)"/>
     <use xlink:href="#STIXGeneral-Regular-20" transform="translate(730.799789 0.703125)"/>
     <use xlink:href="#STIXGeneral-Italic-71" transform="translate(755.799774 0.703125)"/>
     <use xlink:href="#STIXGeneral-Regular-2c" transform="translate(805.799759 0.703125)"/>
     <use xlink:href="#STIXGeneral-Regular-20" transform="translate(830.799744 0.703125)"/>
     <use xlink:href="#STIXGeneral-Regular-66" transform="translate(855.799728 0.703125)"/>
     <use xlink:href="#STIXGeneral-Regular-75" transform="translate(889.099716 0.703125)"/>
     <use xlink:href="#STIXGeneral-Regular-6e" transform="translate(939.099701 0.703125)"/>
     <use xlink:href="#STIXGeneral-Regular-63" transform="translate(989.099686 0.703125)"/>
     <use xlink:href="#STIXGeneral-Regular-74" transform="translate(1033.49968 0.703125)"/>
     <use xlink:href="#STIXGeneral-Regular-69" transform="translate(1061.299667 0.703125)"/>
     <use xlink:href="#STIXGeneral-Regular-6f" transform="translate(1089.099655 0.703125)"/>
     <use xlink:href="#STIXGeneral-Regular-6e" transform="translate(1139.09964 0.703125)"/>
     <use xlink:href="#STIXGeneral-Regular-20" transform="translate(1189.099625 0.703125)"/>
     <use xlink:href="#STIXGeneral-Italic-66" transform="translate(1214.099609 0.703125)"/>
    </g>
   </g>
   <g id="legend_1">
    <g id="patch_85">
     <path d="M 68.1 86.62 
L 284.26 86.62 
Q 287.46 86.62 287.46 83.42 
L 287.46 39.58 
Q 287.46 36.38 284.26 36.38 
L 68.1 36.38 
Q 64.9 36.38 64.9 39.58 
L 64.9 83.42 
Q 64.9 86.62 68.1 86.62 
z
" style="fill: #ffffff; opacity: 0.8; stroke: #cccccc; stroke-linejoin: miter"/>
    </g>
    <g id="patch_86">
     <path d="M 71.3 53.98 
L 103.3 53.98 
L 103.3 42.78 
L 71.3 42.78 
z
" style="fill: #2ca02c; opacity: 0.4"/>
    </g>
    <g id="text_12">
     <!-- Samples from $q$ -->
     <g transform="translate(116.1 53.98) scale(0.16 -0.16)">
      <defs>
       <path id="STIXGeneral-Regular-53" d="M 3002 2963 
L 2842 2963 
Q 2733 3360 2579 3565 
Q 2189 4064 1651 4064 
Q 1357 4064 1181 3894 
Q 1005 3725 1005 3456 
Q 1005 3328 1069 3206 
Q 1133 3085 1206 2998 
Q 1280 2912 1465 2784 
Q 1651 2656 1766 2589 
Q 1882 2522 2150 2362 
Q 2669 2061 2905 1763 
Q 3142 1466 3142 1107 
Q 3142 576 2771 243 
Q 2400 -90 1837 -90 
Q 1421 -90 1082 58 
Q 915 128 781 128 
Q 704 128 653 70 
Q 602 13 602 -83 
L 461 -83 
L 275 1274 
L 416 1274 
Q 845 141 1734 141 
Q 2074 141 2285 342 
Q 2496 544 2496 858 
Q 2496 1158 2310 1363 
Q 2003 1696 1235 2106 
Q 454 2522 454 3206 
Q 454 3718 768 4022 
Q 1082 4326 1568 4326 
Q 1907 4326 2240 4186 
Q 2413 4109 2522 4109 
Q 2688 4109 2726 4326 
L 2861 4326 
L 3002 2963 
z
" transform="scale(0.015625)"/>
       <path id="STIXGeneral-Regular-6d" d="M 4960 0 
L 3565 0 
L 3565 96 
Q 3834 122 3907 208 
Q 3981 294 3981 576 
L 3981 1894 
Q 3981 2278 3869 2444 
Q 3757 2611 3488 2611 
Q 3264 2611 3107 2521 
Q 2950 2432 2803 2221 
L 2803 608 
Q 2803 301 2896 201 
Q 2989 102 3264 96 
L 3264 0 
L 1830 0 
L 1830 96 
Q 2112 115 2189 188 
Q 2266 262 2266 550 
L 2266 1901 
Q 2266 2611 1850 2611 
Q 1670 2611 1468 2531 
Q 1267 2451 1171 2336 
Q 1088 2240 1088 2227 
L 1088 448 
Q 1088 243 1177 176 
Q 1267 109 1523 96 
L 1523 0 
L 102 0 
L 102 96 
Q 371 102 460 195 
Q 550 288 550 563 
L 550 2150 
Q 550 2387 499 2480 
Q 448 2573 326 2573 
Q 230 2573 122 2547 
L 122 2656 
Q 557 2778 1011 2944 
L 1062 2925 
L 1062 2451 
L 1075 2451 
Q 1363 2752 1584 2848 
Q 1805 2944 2054 2944 
Q 2560 2944 2733 2406 
Q 3232 2944 3776 2944 
Q 4518 2944 4518 1792 
L 4518 493 
Q 4518 282 4582 202 
Q 4646 122 4794 109 
L 4960 96 
L 4960 0 
z
" transform="scale(0.015625)"/>
      </defs>
      <use xlink:href="#STIXGeneral-Regular-53" transform="translate(0 0.703125)"/>
      <use xlink:href="#STIXGeneral-Regular-61" transform="translate(55.599991 0.703125)"/>
      <use xlink:href="#STIXGeneral-Regular-6d" transform="translate(99.999985 0.703125)"/>
      <use xlink:href="#STIXGeneral-Regular-70" transform="translate(177.799973 0.703125)"/>
      <use xlink:href="#STIXGeneral-Regular-6c" transform="translate(227.799957 0.703125)"/>
      <use xlink:href="#STIXGeneral-Regular-65" transform="translate(255.599945 0.703125)"/>
      <use xlink:href="#STIXGeneral-Regular-73" transform="translate(299.999939 0.703125)"/>
      <use xlink:href="#STIXGeneral-Regular-20" transform="translate(338.899933 0.703125)"/>
      <use xlink:href="#STIXGeneral-Regular-66" transform="translate(363.899918 0.703125)"/>
      <use xlink:href="#STIXGeneral-Regular-72" transform="translate(397.199905 0.703125)"/>
      <use xlink:href="#STIXGeneral-Regular-6f" transform="translate(430.499893 0.703125)"/>
      <use xlink:href="#STIXGeneral-Regular-6d" transform="translate(480.499878 0.703125)"/>
      <use xlink:href="#STIXGeneral-Regular-20" transform="translate(558.299866 0.703125)"/>
      <use xlink:href="#STIXGeneral-Italic-71" transform="translate(583.29985 0.703125)"/>
     </g>
    </g>
    <g id="patch_87">
     <path d="M 71.3 76.7 
L 103.3 76.7 
L 103.3 65.5 
L 71.3 65.5 
z
" style="fill: #1f77b4; opacity: 0.4"/>
    </g>
    <g id="text_13">
     <!-- Weighted samples from $q$ -->
     <g transform="translate(116.1 76.7) scale(0.16 -0.16)">
      <defs>
       <path id="STIXGeneral-Regular-57" d="M 5965 4237 
L 5965 4115 
Q 5709 4064 5616 3990 
Q 5523 3917 5434 3667 
Q 4704 1709 4128 -70 
L 4032 -70 
Q 3642 1011 3008 2637 
L 2022 -70 
L 1926 -70 
Q 1709 576 1277 1753 
Q 845 2931 698 3347 
Q 538 3808 406 3958 
Q 275 4109 32 4115 
L 32 4237 
L 1594 4237 
L 1594 4115 
Q 1357 4109 1270 4064 
Q 1184 4019 1184 3917 
Q 1184 3808 1254 3616 
L 2176 1210 
L 2842 3021 
L 2662 3501 
Q 2509 3917 2400 4013 
Q 2291 4109 2010 4115 
L 2010 4237 
L 3706 4237 
L 3706 4115 
Q 3213 4102 3213 3891 
Q 3213 3808 3322 3520 
L 4237 1190 
L 5043 3360 
Q 5152 3667 5152 3853 
Q 5152 4109 4704 4115 
L 4704 4237 
L 5965 4237 
z
" transform="scale(0.015625)"/>
       <path id="STIXGeneral-Regular-68" d="M 3117 0 
L 1760 0 
L 1760 96 
Q 2042 128 2118 224 
Q 2195 320 2195 653 
L 2195 1920 
Q 2195 2598 1722 2598 
Q 1530 2598 1370 2508 
Q 1210 2419 1005 2195 
L 1005 653 
Q 1005 320 1081 224 
Q 1158 128 1440 96 
L 1440 0 
L 58 0 
L 58 96 
Q 333 134 400 224 
Q 467 314 467 653 
L 467 3667 
Q 467 3872 406 3933 
Q 346 3994 141 3994 
Q 83 3994 64 3987 
L 64 4090 
L 237 4141 
Q 730 4288 973 4371 
L 1005 4352 
L 1005 2406 
Q 1229 2694 1446 2819 
Q 1664 2944 1946 2944 
Q 2733 2944 2733 1926 
L 2733 653 
Q 2733 320 2793 233 
Q 2854 147 3117 96 
L 3117 0 
z
" transform="scale(0.015625)"/>
       <path id="STIXGeneral-Regular-64" d="M 3142 269 
L 2202 -64 
L 2176 -45 
L 2176 365 
Q 1869 -64 1357 -64 
Q 826 -64 499 317 
Q 173 698 173 1312 
Q 173 1990 563 2467 
Q 954 2944 1504 2944 
Q 1850 2944 2176 2669 
L 2176 3667 
Q 2176 3866 2118 3930 
Q 2061 3994 1882 3994 
Q 1792 3994 1741 3987 
L 1741 4090 
Q 2323 4243 2682 4371 
L 2714 4358 
L 2714 730 
Q 2714 506 2768 435 
Q 2822 365 2995 365 
Q 3034 365 3142 371 
L 3142 269 
z
M 2176 653 
L 2176 2125 
Q 2176 2381 1981 2573 
Q 1786 2765 1523 2765 
Q 1158 2765 940 2438 
Q 723 2112 723 1568 
Q 723 979 963 624 
Q 1203 269 1606 269 
Q 1907 269 2080 474 
Q 2176 582 2176 653 
z
" transform="scale(0.015625)"/>
      </defs>
      <use xlink:href="#STIXGeneral-Regular-57" transform="translate(0 0.703125)"/>
      <use xlink:href="#STIXGeneral-Regular-65" transform="translate(94.399994 0.703125)"/>
      <use xlink:href="#STIXGeneral-Regular-69" transform="translate(138.799988 0.703125)"/>
      <use xlink:href="#STIXGeneral-Regular-67" transform="translate(166.599976 0.703125)"/>
      <use xlink:href="#STIXGeneral-Regular-68" transform="translate(216.59996 0.703125)"/>
      <use xlink:href="#STIXGeneral-Regular-74" transform="translate(266.599945 0.703125)"/>
      <use xlink:href="#STIXGeneral-Regular-65" transform="translate(294.399933 0.703125)"/>
      <use xlink:href="#STIXGeneral-Regular-64" transform="translate(338.799927 0.703125)"/>
      <use xlink:href="#STIXGeneral-Regular-20" transform="translate(388.799911 0.703125)"/>
      <use xlink:href="#STIXGeneral-Regular-73" transform="translate(413.799896 0.703125)"/>
      <use xlink:href="#STIXGeneral-Regular-61" transform="translate(452.69989 0.703125)"/>
      <use xlink:href="#STIXGeneral-Regular-6d" transform="translate(497.099884 0.703125)"/>
      <use xlink:href="#STIXGeneral-Regular-70" transform="translate(574.899872 0.703125)"/>
      <use xlink:href="#STIXGeneral-Regular-6c" transform="translate(624.899857 0.703125)"/>
      <use xlink:href="#STIXGeneral-Regular-65" transform="translate(652.699844 0.703125)"/>
      <use xlink:href="#STIXGeneral-Regular-73" transform="translate(697.099838 0.703125)"/>
      <use xlink:href="#STIXGeneral-Regular-20" transform="translate(735.999832 0.703125)"/>
      <use xlink:href="#STIXGeneral-Regular-66" transform="translate(760.999817 0.703125)"/>
      <use xlink:href="#STIXGeneral-Regular-72" transform="translate(794.299805 0.703125)"/>
      <use xlink:href="#STIXGeneral-Regular-6f" transform="translate(827.599792 0.703125)"/>
      <use xlink:href="#STIXGeneral-Regular-6d" transform="translate(877.599777 0.703125)"/>
      <use xlink:href="#STIXGeneral-Regular-20" transform="translate(955.399765 0.703125)"/>
      <use xlink:href="#STIXGeneral-Italic-71" transform="translate(980.39975 0.703125)"/>
     </g>
    </g>
   </g>
  </g>
  <g id="axes_2">
   <g id="matplotlib.axis_3">
    <g id="ytick_4">
     <g id="line2d_11">
      <defs>
       <path id="m1292a1536d" d="M 0 0 
L 3.5 0 
" style="stroke: #000000; stroke-width: 0.8"/>
      </defs>
      <g>
       <use xlink:href="#m1292a1536d" x="503.3" y="182.415" style="stroke: #000000; stroke-width: 0.8"/>
      </g>
     </g>
     <g id="text_14">
      <!-- −60 -->
      <g transform="translate(510.3 188.561719) scale(0.18 -0.18)">
       <defs>
        <path id="STIXGeneral-Regular-36" d="M 2854 4378 
L 2867 4275 
Q 2112 4154 1606 3664 
Q 1101 3174 973 2451 
Q 1344 2739 1786 2739 
Q 2349 2739 2672 2380 
Q 2995 2022 2995 1402 
Q 2995 774 2669 378 
Q 2291 -90 1651 -90 
Q 870 -90 518 557 
Q 218 1107 218 1786 
Q 218 2835 915 3552 
Q 1312 3962 1731 4131 
Q 2150 4301 2854 4378 
z
M 2419 1203 
Q 2419 2445 1555 2445 
Q 1235 2445 1024 2275 
Q 813 2106 813 1702 
Q 813 954 1046 522 
Q 1280 90 1722 90 
Q 2061 90 2240 394 
Q 2419 698 2419 1203 
z
" transform="scale(0.015625)"/>
       </defs>
       <use xlink:href="#STIXGeneral-Regular-2212"/>
       <use xlink:href="#STIXGeneral-Regular-36" x="68.499985"/>
       <use xlink:href="#STIXGeneral-Regular-30" x="118.499969"/>
      </g>
     </g>
    </g>
    <g id="ytick_5">
     <g id="line2d_12">
      <g>
       <use xlink:href="#m1292a1536d" x="503.3" y="111.54" style="stroke: #000000; stroke-width: 0.8"/>
      </g>
     </g>
     <g id="text_15">
      <!-- 0 -->
      <g transform="translate(510.3 117.686719) scale(0.18 -0.18)">
       <use xlink:href="#STIXGeneral-Regular-30"/>
      </g>
     </g>
    </g>
    <g id="ytick_6">
     <g id="line2d_13">
      <g>
       <use xlink:href="#m1292a1536d" x="503.3" y="40.665" style="stroke: #000000; stroke-width: 0.8"/>
      </g>
     </g>
     <g id="text_16">
      <!-- 60 -->
      <g transform="translate(510.3 46.811719) scale(0.18 -0.18)">
       <use xlink:href="#STIXGeneral-Regular-36"/>
       <use xlink:href="#STIXGeneral-Regular-30" x="49.999985"/>
      </g>
     </g>
    </g>
    <g id="text_17">
     <!-- $f(x)$ -->
     <g transform="translate(556.923437 124.05) rotate(-90) scale(0.18 -0.18)">
      <use xlink:href="#STIXGeneral-Italic-66" transform="translate(0 0.203125)"/>
      <use xlink:href="#STIXGeneral-Regular-28" transform="translate(27.799988 0.203125)"/>
      <use xlink:href="#STIXGeneral-Italic-78" transform="translate(61.099976 0.203125)"/>
      <use xlink:href="#STIXGeneral-Regular-29" transform="translate(105.499969 0.203125)"/>
     </g>
    </g>
   </g>
   <g id="line2d_14">
    <path d="M 56.9 187.14 
L 63.629652 180.50591 
L 70.359291 174.271753 
L 77.088943 168.425071 
L 83.818595 162.953444 
L 90.548234 157.84445 
L 97.277886 153.085635 
L 104.007538 148.664577 
L 110.73719 144.568844 
L 117.466842 140.786002 
L 124.196481 137.303625 
L 130.92612 134.109274 
L 137.655772 131.190508 
L 144.385424 128.534904 
L 151.115076 126.130026 
L 157.844729 123.963444 
L 164.574367 122.022727 
L 171.304019 120.295436 
L 178.033672 118.769141 
L 184.76331 117.431412 
L 193.736175 115.919604 
L 202.709041 114.691446 
L 211.681906 113.71747 
L 220.654771 112.968204 
L 229.627636 112.414179 
L 240.843714 111.951308 
L 254.303018 111.65672 
L 272.248735 111.54329 
L 305.896995 111.42328 
L 319.356273 111.128693 
L 330.572351 110.665822 
L 339.545229 110.111796 
L 348.518081 109.362531 
L 357.490959 108.388554 
L 366.463811 107.160398 
L 375.43669 105.648588 
L 382.166315 104.310862 
L 388.895967 102.784567 
L 395.625619 101.057276 
L 402.355271 99.116556 
L 409.084924 96.949974 
L 415.814576 94.545096 
L 422.544228 91.889492 
L 429.273853 88.970738 
L 436.003505 85.776381 
L 442.733158 82.293998 
L 449.46281 78.511156 
L 456.192462 74.415423 
L 462.922114 69.994365 
L 469.651766 65.23555 
L 476.381392 60.126566 
L 483.111044 54.654941 
L 489.840696 48.808259 
L 496.570348 42.57409 
L 503.3 35.94 
L 503.3 35.94 
" clip-path="url(#p1a4c4013a3)" style="fill: none; stroke: #d62728; stroke-width: 1.5; stroke-linecap: square"/>
   </g>
   <g id="patch_88">
    <path d="M 56.9 194.7 
L 56.9 28.38 
" style="fill: none; stroke: #000000; stroke-width: 0.8; stroke-linejoin: miter; stroke-linecap: square"/>
   </g>
   <g id="patch_89">
    <path d="M 503.3 194.7 
L 503.3 28.38 
" style="fill: none; stroke: #000000; stroke-width: 0.8; stroke-linejoin: miter; stroke-linecap: square"/>
   </g>
   <g id="patch_90">
    <path d="M 56.9 194.7 
L 503.3 194.7 
" style="fill: none; stroke: #000000; stroke-width: 0.8; stroke-linejoin: miter; stroke-linecap: square"/>
   </g>
   <g id="patch_91">
    <path d="M 56.9 28.38 
L 503.3 28.38 
" style="fill: none; stroke: #000000; stroke-width: 0.8; stroke-linejoin: miter; stroke-linecap: square"/>
   </g>
   <g id="legend_2">
    <g id="patch_92">
     <path d="M 418.66 63.8525 
L 492.1 63.8525 
Q 495.3 63.8525 495.3 60.6525 
L 495.3 39.58 
Q 495.3 36.38 492.1 36.38 
L 418.66 36.38 
Q 415.46 36.38 415.46 39.58 
L 415.46 60.6525 
Q 415.46 63.8525 418.66 63.8525 
z
" style="fill: #ffffff; opacity: 0.8; stroke: #cccccc; stroke-linejoin: miter"/>
    </g>
    <g id="line2d_15">
     <path d="M 421.86 48.38 
L 437.86 48.38 
L 453.86 48.38 
" style="fill: none; stroke: #d62728; stroke-width: 1.5; stroke-linecap: square"/>
    </g>
    <g id="text_18">
     <!-- $f(x)$ -->
     <g transform="translate(466.66 53.98) scale(0.16 -0.16)">
      <use xlink:href="#STIXGeneral-Italic-66" transform="translate(0 0.203125)"/>
      <use xlink:href="#STIXGeneral-Regular-28" transform="translate(27.799988 0.203125)"/>
      <use xlink:href="#STIXGeneral-Italic-78" transform="translate(61.099976 0.203125)"/>
      <use xlink:href="#STIXGeneral-Regular-29" transform="translate(105.499969 0.203125)"/>
     </g>
    </g>
   </g>
  </g>
 </g>
 <defs>
  <clipPath id="p1a4c4013a3">
   <rect x="56.9" y="28.38" width="446.4" height="166.32"/>
  </clipPath>
 </defs>
</svg>