<?xml version="1.0" encoding="utf-8" standalone="no"?>
<!DOCTYPE svg PUBLIC "-//W3C//DTD SVG 1.1//EN"
  "http://www.w3.org/Graphics/SVG/1.1/DTD/svg11.dtd">
<!-- Created with matplotlib (https://matplotlib.org/) -->
<svg height="242.06pt" version="1.1" viewBox="0 0 568.03 242.06" width="568.03pt" xmlns="http://www.w3.org/2000/svg" xmlns:xlink="http://www.w3.org/1999/xlink">
 <defs>
  <style type="text/css">
*{stroke-linecap:butt;stroke-linejoin:round;}
  </style>
 </defs>
 <g id="figure_1">
  <g id="patch_1">
   <path d="M 0 242.06 
L 568.03 242.06 
L 568.03 0 
L 0 0 
z
" style="fill:none;"/>
  </g>
  <g id="axes_1">
   <g id="patch_2">
    <path d="M 56.9 191.46 
L 503.3 191.46 
L 503.3 28.38 
L 56.9 28.38 
z
" style="fill:#ffffff;"/>
   </g>
   <g id="matplotlib.axis_1">
    <g id="xtick_1">
     <g id="line2d_1">
      <defs>
       <path d="M 0 0 
L 0 3.5 
" id="m6e4179e667" style="stroke:#000000;stroke-width:0.8;"/>
      </defs>
      <g>
       <use style="stroke:#000000;stroke-width:0.8;" x="56.9" xlink:href="#m6e4179e667" y="191.46"/>
      </g>
     </g>
     <g id="text_1">
      <!-- −4 -->
      <defs>
       <path d="M 62.09375 22 
L 6.40625 22 
L 6.40625 28.59375 
L 62.09375 28.59375 
z
" id="STIXGeneral-Regular-8722"/>
       <path d="M 47.296875 16.703125 
L 37 16.703125 
L 37 0 
L 29.203125 0 
L 29.203125 16.703125 
L 1.203125 16.703125 
L 1.203125 23.09375 
L 32.59375 67.59375 
L 37 67.59375 
L 37 23.09375 
L 47.296875 23.09375 
z
M 29.203125 23.09375 
L 29.203125 57.40625 
L 5.203125 23.09375 
z
" id="STIXGeneral-Regular-52"/>
      </defs>
      <g transform="translate(46.235 210.753437)scale(0.18 -0.18)">
       <use xlink:href="#STIXGeneral-Regular-8722"/>
       <use x="68.499985" xlink:href="#STIXGeneral-Regular-52"/>
      </g>
     </g>
    </g>
    <g id="xtick_2">
     <g id="line2d_2">
      <g>
       <use style="stroke:#000000;stroke-width:0.8;" x="168.5" xlink:href="#m6e4179e667" y="191.46"/>
      </g>
     </g>
     <g id="text_2">
      <!-- −2 -->
      <defs>
       <path d="M 47.40625 13.703125 
L 42 0 
L 2.90625 0 
L 2.90625 1.203125 
L 20.703125 20.09375 
Q 27.703125 27.40625 30.703125 33.5 
Q 33.703125 39.59375 33.703125 46.09375 
Q 33.703125 52.796875 30 56.5 
Q 26.296875 60.203125 19.796875 60.203125 
Q 14.40625 60.203125 11.25 57.390625 
Q 8.09375 54.59375 5.09375 47.203125 
L 3 47.703125 
Q 4.703125 57 9.84375 62.296875 
Q 15 67.59375 23.796875 67.59375 
Q 32.09375 67.59375 37.1875 62.59375 
Q 42.296875 57.59375 42.296875 50 
Q 42.296875 38.703125 29.5 25.203125 
L 13 7.59375 
L 36.40625 7.59375 
Q 39.703125 7.59375 41.640625 8.890625 
Q 43.59375 10.203125 46 14.296875 
z
" id="STIXGeneral-Regular-50"/>
      </defs>
      <g transform="translate(157.835 210.753437)scale(0.18 -0.18)">
       <use xlink:href="#STIXGeneral-Regular-8722"/>
       <use x="68.499985" xlink:href="#STIXGeneral-Regular-50"/>
      </g>
     </g>
    </g>
    <g id="xtick_3">
     <g id="line2d_3">
      <g>
       <use style="stroke:#000000;stroke-width:0.8;" x="280.1" xlink:href="#m6e4179e667" y="191.46"/>
      </g>
     </g>
     <g id="text_3">
      <!-- 0 -->
      <defs>
       <path d="M 47.59375 33 
Q 47.59375 26.296875 46.296875 20.34375 
Q 45 14.40625 42.453125 9.40625 
Q 39.90625 4.40625 35.40625 1.5 
Q 30.90625 -1.40625 25 -1.40625 
Q 18.90625 -1.40625 14.296875 1.6875 
Q 9.703125 4.796875 7.203125 10 
Q 4.703125 15.203125 3.546875 21.09375 
Q 2.40625 27 2.40625 33.59375 
Q 2.40625 42.90625 4.703125 50.34375 
Q 7 57.796875 12.34375 62.6875 
Q 17.703125 67.59375 25.40625 67.59375 
Q 35.203125 67.59375 41.390625 58 
Q 47.59375 48.40625 47.59375 33 
z
M 38 32.5 
Q 38 48.296875 34.640625 56.640625 
Q 31.296875 65 24.796875 65 
Q 18.59375 65 15.296875 56.59375 
Q 12 48.203125 12 32.90625 
Q 12 17.5 15.296875 9.34375 
Q 18.59375 1.203125 25 1.203125 
Q 31.296875 1.203125 34.640625 9.34375 
Q 38 17.5 38 32.5 
z
" id="STIXGeneral-Regular-48"/>
      </defs>
      <g transform="translate(275.6 210.753437)scale(0.18 -0.18)">
       <use xlink:href="#STIXGeneral-Regular-48"/>
      </g>
     </g>
    </g>
    <g id="xtick_4">
     <g id="line2d_4">
      <g>
       <use style="stroke:#000000;stroke-width:0.8;" x="391.7" xlink:href="#m6e4179e667" y="191.46"/>
      </g>
     </g>
     <g id="text_4">
      <!-- 2 -->
      <g transform="translate(387.2 210.753437)scale(0.18 -0.18)">
       <use xlink:href="#STIXGeneral-Regular-50"/>
      </g>
     </g>
    </g>
    <g id="xtick_5">
     <g id="line2d_5">
      <g>
       <use style="stroke:#000000;stroke-width:0.8;" x="503.3" xlink:href="#m6e4179e667" y="191.46"/>
      </g>
     </g>
     <g id="text_5">
      <!-- 4 -->
      <g transform="translate(498.8 210.753437)scale(0.18 -0.18)">
       <use xlink:href="#STIXGeneral-Regular-52"/>
      </g>
     </g>
    </g>
    <g id="text_6">
     <!-- $x$ -->
     <defs>
      <path d="M 24.296875 35.5 
L 25.5 29.796875 
Q 30.796875 37.90625 34.046875 41 
Q 37.296875 44.09375 40.59375 44.09375 
Q 42.40625 44.09375 43.546875 43.046875 
Q 44.703125 42 44.703125 40.390625 
Q 44.703125 38.796875 43.75 37.796875 
Q 42.796875 36.796875 41.296875 36.796875 
Q 40.40625 36.796875 38.90625 37.640625 
Q 37.40625 38.5 36.09375 38.5 
Q 33.203125 38.5 26.296875 26.40625 
Q 26.296875 25.09375 27.09375 21.90625 
L 30.296875 8.5 
Q 31.296875 4.40625 33.296875 4.40625 
Q 34.90625 4.40625 38 8.40625 
Q 38.296875 8.796875 38.6875 9.34375 
Q 39.09375 9.90625 39.390625 10.34375 
Q 39.703125 10.796875 40.09375 11.203125 
L 41.59375 10.296875 
Q 37.296875 3.59375 34.796875 1.25 
Q 32.296875 -1.09375 29.40625 -1.09375 
Q 27 -1.09375 25.703125 0.40625 
Q 24.40625 1.90625 23.5 5.703125 
L 20.59375 17.59375 
L 11.796875 5.703125 
Q 8.703125 1.5 6.75 0.203125 
Q 4.796875 -1.09375 2.296875 -1.09375 
Q 0 -1.09375 -1.34375 0 
Q -2.703125 1.09375 -2.703125 3.09375 
Q -2.703125 4.59375 -1.75 5.640625 
Q -0.796875 6.703125 0.703125 6.703125 
Q 1.90625 6.703125 3.90625 5.59375 
Q 5.40625 4.703125 6.5 4.703125 
Q 8.203125 4.703125 11.59375 9.59375 
L 19.796875 21.203125 
L 17 33.59375 
Q 16 38 15.140625 39.203125 
Q 14.296875 40.40625 12.40625 40.40625 
Q 11.203125 40.40625 8.5 39.703125 
L 6.703125 39.203125 
L 6.40625 40.796875 
L 7.5 41.203125 
Q 15.5 44.09375 19.203125 44.09375 
Q 21.09375 44.09375 22.1875 42.296875 
Q 23.296875 40.5 24.296875 35.5 
z
" id="STIXGeneral-Italic-120"/>
     </defs>
     <g transform="translate(276.05 230.953437)scale(0.18 -0.18)">
      <use transform="translate(0 0.90625)" xlink:href="#STIXGeneral-Italic-120"/>
     </g>
    </g>
   </g>
   <g id="matplotlib.axis_2">
    <g id="ytick_1">
     <g id="line2d_6">
      <defs>
       <path d="M 0 0 
L -3.5 0 
" id="md194610170" style="stroke:#000000;stroke-width:0.8;"/>
      </defs>
      <g>
       <use style="stroke:#000000;stroke-width:0.8;" x="56.9" xlink:href="#md194610170" y="191.46"/>
      </g>
     </g>
     <g id="text_7">
      <!-- 0.0 -->
      <defs>
       <path d="M 18.09375 4.296875 
Q 18.09375 2.09375 16.4375 0.5 
Q 14.796875 -1.09375 12.5 -1.09375 
Q 10.203125 -1.09375 8.59375 0.5 
Q 7 2.09375 7 4.390625 
Q 7 6.703125 8.640625 8.34375 
Q 10.296875 10 12.59375 10 
Q 14.796875 10 16.4375 8.296875 
Q 18.09375 6.59375 18.09375 4.296875 
z
" id="STIXGeneral-Regular-46"/>
      </defs>
      <g transform="translate(27.4 197.606719)scale(0.18 -0.18)">
       <use xlink:href="#STIXGeneral-Regular-48"/>
       <use x="49.999985" xlink:href="#STIXGeneral-Regular-46"/>
       <use x="74.999969" xlink:href="#STIXGeneral-Regular-48"/>
      </g>
     </g>
    </g>
    <g id="ytick_2">
     <g id="line2d_7">
      <g>
       <use style="stroke:#000000;stroke-width:0.8;" x="56.9" xlink:href="#md194610170" y="116.192305"/>
      </g>
     </g>
     <g id="text_8">
      <!-- 0.3 -->
      <defs>
       <path d="M 6.09375 51 
L 4.5 51.40625 
Q 6.796875 58.90625 11.6875 63.25 
Q 16.59375 67.59375 24.09375 67.59375 
Q 31.09375 67.59375 35.390625 63.796875 
Q 39.703125 60 39.703125 53.90625 
Q 39.703125 45.703125 30.40625 40.09375 
Q 35.90625 37.703125 38.703125 34.796875 
Q 43.09375 29.90625 43.09375 21.90625 
Q 43.09375 13.90625 38.5 7.90625 
Q 35.09375 3.296875 28.75 0.9375 
Q 22.40625 -1.40625 15.296875 -1.40625 
Q 4.09375 -1.40625 4.09375 4.296875 
Q 4.09375 5.90625 5.296875 6.90625 
Q 6.5 7.90625 8.203125 7.90625 
Q 10.703125 7.90625 14.296875 5.296875 
Q 18.703125 2.203125 22.90625 2.203125 
Q 28.40625 2.203125 32.15625 6.640625 
Q 35.90625 11.09375 35.90625 17.5 
Q 35.90625 29 25.5 32 
Q 22.40625 33 15.296875 33 
L 15.296875 34.40625 
Q 20.90625 36.296875 23.703125 38 
Q 31.796875 42.59375 31.796875 51.40625 
Q 31.796875 56.40625 28.9375 59 
Q 26.09375 61.59375 21 61.59375 
Q 12 61.59375 6.09375 51 
z
" id="STIXGeneral-Regular-51"/>
      </defs>
      <g transform="translate(27.4 122.339023)scale(0.18 -0.18)">
       <use xlink:href="#STIXGeneral-Regular-48"/>
       <use x="49.999985" xlink:href="#STIXGeneral-Regular-46"/>
       <use x="74.999969" xlink:href="#STIXGeneral-Regular-51"/>
      </g>
     </g>
    </g>
    <g id="ytick_3">
     <g id="line2d_8">
      <g>
       <use style="stroke:#000000;stroke-width:0.8;" x="56.9" xlink:href="#md194610170" y="40.924609"/>
      </g>
     </g>
     <g id="text_9">
      <!-- 0.6 -->
      <defs>
       <path d="M 44.59375 68.40625 
L 44.796875 66.796875 
Q 33 64.90625 25.09375 57.25 
Q 17.203125 49.59375 15.203125 38.296875 
Q 21 42.796875 27.90625 42.796875 
Q 36.703125 42.796875 41.75 37.1875 
Q 46.796875 31.59375 46.796875 21.90625 
Q 46.796875 12.09375 41.703125 5.90625 
Q 35.796875 -1.40625 25.796875 -1.40625 
Q 13.59375 -1.40625 8.09375 8.703125 
Q 3.40625 17.296875 3.40625 27.90625 
Q 3.40625 44.296875 14.296875 55.5 
Q 20.5 61.90625 27.046875 64.546875 
Q 33.59375 67.203125 44.59375 68.40625 
z
M 37.796875 18.796875 
Q 37.796875 38.203125 24.296875 38.203125 
Q 19.296875 38.203125 16 35.546875 
Q 12.703125 32.90625 12.703125 26.59375 
Q 12.703125 14.90625 16.34375 8.15625 
Q 20 1.40625 26.90625 1.40625 
Q 32.203125 1.40625 35 6.15625 
Q 37.796875 10.90625 37.796875 18.796875 
z
" id="STIXGeneral-Regular-54"/>
      </defs>
      <g transform="translate(27.4 47.071328)scale(0.18 -0.18)">
       <use xlink:href="#STIXGeneral-Regular-48"/>
       <use x="49.999985" xlink:href="#STIXGeneral-Regular-46"/>
       <use x="74.999969" xlink:href="#STIXGeneral-Regular-54"/>
      </g>
     </g>
    </g>
    <g id="text_10">
     <!-- $p(x),~ q(x)$ -->
     <defs>
      <path d="M 21.5 42.796875 
L 18.59375 32.796875 
Q 26.09375 44.09375 35.703125 44.09375 
Q 41.203125 44.09375 44.203125 40.796875 
Q 47.203125 37.5 47.203125 31.59375 
Q 47.203125 19.296875 37.84375 9.09375 
Q 28.5 -1.09375 17.5 -1.09375 
Q 13.90625 -1.09375 10.59375 0.59375 
Q 6.59375 -15.90625 6.59375 -16 
Q 6.59375 -17.59375 7.9375 -18.25 
Q 9.296875 -18.90625 12.796875 -18.90625 
L 12.796875 -20.5 
L -7.5 -20.5 
L -7.5 -18.90625 
Q -4.296875 -18.796875 -2.9375 -17.5 
Q -1.59375 -16.203125 -0.703125 -12.59375 
L 10.796875 30.59375 
Q 12.40625 36.40625 12.40625 37.703125 
Q 12.40625 40.40625 8 40.40625 
L 5.796875 40.40625 
L 5.59375 41.90625 
L 21.203125 44.09375 
Q 21.703125 44.09375 21.703125 43.703125 
Q 21.59375 43.203125 21.5 42.796875 
z
M 38.203125 31.296875 
Q 38.203125 35.703125 36.75 37.75 
Q 35.296875 39.796875 32 39.796875 
Q 28.09375 39.796875 24.1875 36.390625 
Q 20.296875 33 18.5 28.40625 
Q 16.296875 22.703125 14.140625 14.890625 
Q 12 7.09375 12 4.59375 
Q 12 2.90625 13.34375 1.84375 
Q 14.703125 0.796875 16.796875 0.796875 
Q 24.59375 0.796875 31.296875 10.296875 
Q 38.203125 19.90625 38.203125 31.296875 
z
" id="STIXGeneral-Italic-112"/>
      <path d="M 30.40625 -16.09375 
L 29.203125 -17.703125 
Q 17.59375 -11.09375 11.1875 0.5 
Q 4.796875 12.09375 4.796875 25.203125 
Q 4.796875 52.90625 29.5 67.59375 
L 30.40625 66 
Q 20.203125 57.296875 16.796875 48.84375 
Q 13.40625 40.40625 13.40625 25.5 
Q 13.40625 10.703125 16.90625 1.5 
Q 20.40625 -7.703125 30.40625 -16.09375 
z
" id="STIXGeneral-Regular-40"/>
      <path d="M 2.90625 66 
L 4.09375 67.59375 
Q 15.5 60.796875 22 49.1875 
Q 28.5 37.59375 28.5 24.703125 
Q 28.5 -2.59375 3.796875 -17.703125 
L 2.90625 -16.09375 
Q 13.203125 -7.59375 16.546875 0.84375 
Q 19.90625 9.296875 19.90625 24.40625 
Q 19.90625 39.59375 16.546875 48.75 
Q 13.203125 57.90625 2.90625 66 
z
" id="STIXGeneral-Regular-41"/>
      <path d="M 8.296875 -14.09375 
L 7.296875 -12.203125 
Q 15.59375 -6.59375 15.59375 -1.5 
Q 15.59375 -0.203125 14.203125 -0.203125 
Q 13.796875 -0.203125 12.84375 -0.390625 
Q 11.90625 -0.59375 11.296875 -0.59375 
Q 5.5 -0.59375 5.5 4.5 
Q 5.5 7.09375 7.140625 8.640625 
Q 8.796875 10.203125 11.5 10.203125 
Q 14.90625 10.203125 17.203125 7.75 
Q 19.5 5.296875 19.5 1.5 
Q 19.5 -3.09375 16.453125 -7.390625 
Q 13.40625 -11.703125 8.296875 -14.09375 
z
" id="STIXGeneral-Regular-44"/>
      <path d="M 48.40625 42.796875 
L 31.90625 -15.09375 
Q 31.703125 -15.90625 31.703125 -16.203125 
Q 31.703125 -19.296875 37.40625 -19.296875 
L 38.90625 -19.296875 
L 38.90625 -20.90625 
L 15.203125 -20.90625 
L 15.203125 -19.296875 
Q 19.796875 -19 21.59375 -17.796875 
Q 23.40625 -16.59375 24.296875 -13.703125 
L 33.296875 15.296875 
Q 27.40625 5.90625 22.90625 2.40625 
Q 18.40625 -1.09375 12.5 -1.09375 
Q 7.796875 -1.09375 5.140625 2 
Q 2.5 5.09375 2.5 10.5 
Q 2.5 18.203125 6.953125 26.09375 
Q 11.40625 34 18.25 39.046875 
Q 25.09375 44.09375 31.796875 44.09375 
Q 38.09375 44.09375 39.5 37.90625 
L 41.09375 42.796875 
z
M 38 35.90625 
Q 38 38.40625 36.296875 40.15625 
Q 34.59375 41.90625 32.09375 41.90625 
Q 28 41.90625 22.796875 37 
Q 17.703125 32.09375 14.390625 25.09375 
Q 11.09375 18.09375 11.09375 11.90625 
Q 11.09375 4.203125 16.40625 4.203125 
Q 20.5 4.203125 24.59375 7.796875 
Q 29.703125 12.203125 33.84375 20.953125 
Q 38 29.703125 38 35.90625 
z
" id="STIXGeneral-Italic-113"/>
     </defs>
     <g transform="translate(19.493438 144.66)rotate(-90)scale(0.18 -0.18)">
      <use transform="translate(0 0.40625)" xlink:href="#STIXGeneral-Italic-112"/>
      <use transform="translate(50.399994 0.40625)" xlink:href="#STIXGeneral-Regular-40"/>
      <use transform="translate(83.699982 0.40625)" xlink:href="#STIXGeneral-Italic-120"/>
      <use transform="translate(128.099976 0.40625)" xlink:href="#STIXGeneral-Regular-41"/>
      <use transform="translate(161.399963 0.40625)" xlink:href="#STIXGeneral-Regular-44"/>
      <use transform="translate(224.906364 0.40625)" xlink:href="#STIXGeneral-Italic-113"/>
      <use transform="translate(274.906349 0.40625)" xlink:href="#STIXGeneral-Regular-40"/>
      <use transform="translate(308.206337 0.40625)" xlink:href="#STIXGeneral-Italic-120"/>
      <use transform="translate(352.606331 0.40625)" xlink:href="#STIXGeneral-Regular-41"/>
     </g>
    </g>
   </g>
   <g id="line2d_9">
    <path clip-path="url(#pb9f58a7c43)" d="M 56.9 191.459534 
L 83.818595 191.36632 
L 90.548234 191.179005 
L 95.034673 190.90435 
L 99.521112 190.404745 
L 101.764325 190.027631 
L 104.007538 189.535288 
L 106.250751 188.899706 
L 108.493964 188.088468 
L 110.73719 187.064798 
L 112.980403 185.787913 
L 115.223616 184.213634 
L 117.466842 182.295442 
L 119.710042 179.985998 
L 121.953268 177.238913 
L 124.196481 174.011288 
L 126.439694 170.266276 
L 128.68292 165.976155 
L 130.92612 161.125628 
L 133.169346 155.714674 
L 135.412559 149.761889 
L 137.655772 143.306617 
L 142.142211 129.160021 
L 151.115076 99.081843 
L 153.358289 92.0631 
L 155.601502 85.585909 
L 157.844729 79.819959 
L 160.087942 74.923106 
L 162.331154 71.034017 
L 164.574367 68.265797 
L 166.81758 66.700492 
L 169.060807 66.38505 
L 171.304019 67.328982 
L 173.547232 69.503879 
L 175.790445 72.84484 
L 178.033672 77.253718 
L 180.276885 82.603796 
L 182.520097 88.74599 
L 184.76331 95.51563 
L 189.24975 110.244522 
L 195.979402 132.823564 
L 198.222615 139.908989 
L 200.465828 146.593715 
L 202.709041 152.80405 
L 204.952253 158.489472 
L 207.19548 163.621341 
L 209.438693 168.190639 
L 211.681906 172.205426 
L 213.925119 175.68764 
L 216.168345 178.669951 
L 218.411558 181.192575 
L 220.654771 183.300487 
L 222.897984 185.04081 
L 225.14121 186.460704 
L 227.384423 187.605648 
L 229.627636 188.51824 
L 231.870849 189.237322 
L 234.114075 189.797513 
L 238.600501 190.557675 
L 243.086927 190.98965 
L 249.816579 191.2959 
L 258.789444 191.425008 
L 285.708039 191.458285 
L 308.140195 191.346787 
L 314.869847 191.125521 
L 319.356273 190.805236 
L 323.842699 190.229014 
L 326.085925 189.797513 
L 328.329151 189.237322 
L 330.572351 188.518244 
L 332.815577 187.605648 
L 335.058803 186.460697 
L 337.302003 185.04082 
L 339.545229 183.300487 
L 341.788429 181.192588 
L 344.031655 178.669951 
L 346.274881 175.68764 
L 348.518081 172.205448 
L 350.761307 168.190639 
L 353.004507 163.62137 
L 355.247733 158.489504 
L 357.490959 152.80405 
L 359.734159 146.593753 
L 361.977385 139.908989 
L 366.463811 125.434568 
L 375.43669 95.51563 
L 377.679889 88.746028 
L 379.923115 82.603796 
L 382.166315 77.253747 
L 384.409541 72.844863 
L 386.652768 69.503879 
L 388.895967 67.328992 
L 391.139193 66.38505 
L 393.38242 66.700492 
L 395.625619 68.265784 
L 397.868846 71.034017 
L 400.112045 74.92308 
L 402.355271 79.819959 
L 404.598498 85.585909 
L 406.841697 92.06306 
L 409.084924 99.081843 
L 413.571349 114.049098 
L 418.057775 129.159977 
L 422.544228 143.306617 
L 424.787427 149.761853 
L 427.030654 155.714674 
L 429.273853 161.125567 
L 431.51708 165.976155 
L 433.760306 170.266276 
L 436.003505 174.011267 
L 438.246732 177.238913 
L 440.489958 179.985998 
L 442.733158 182.295442 
L 444.976384 184.213634 
L 447.219583 185.787905 
L 449.46281 187.064798 
L 451.706036 188.088468 
L 453.949236 188.899702 
L 456.192462 189.535288 
L 458.435661 190.027629 
L 462.922114 190.690387 
L 467.40854 191.06286 
L 474.138192 191.323526 
L 485.35427 191.4412 
L 503.3 191.459534 
L 503.3 191.459534 
" style="fill:none;stroke:#1f77b4;stroke-linecap:square;stroke-width:1.5;"/>
   </g>
   <g id="line2d_10">
    <path clip-path="url(#pb9f58a7c43)" d="M 56.9 191.459534 
L 112.980403 191.346787 
L 126.439694 191.125521 
L 135.412559 190.805236 
L 142.142211 190.404746 
L 148.87185 189.797513 
L 155.601502 188.899706 
L 160.087942 188.088465 
L 164.574367 187.064802 
L 169.060807 185.787913 
L 173.547232 184.213634 
L 178.033672 182.295448 
L 182.520097 179.98599 
L 187.006537 177.238913 
L 191.492963 174.011288 
L 195.979402 170.266264 
L 200.465828 165.976169 
L 204.952253 161.125612 
L 209.438693 155.714674 
L 213.925119 149.761889 
L 218.411558 143.306597 
L 222.897984 136.410838 
L 227.384423 129.160021 
L 236.357288 114.049121 
L 243.086927 102.739823 
L 247.573366 95.515651 
L 252.059792 88.746009 
L 256.546231 82.603796 
L 258.789444 79.819975 
L 261.032657 77.253718 
L 263.275883 74.923106 
L 265.519096 72.844852 
L 267.762309 71.034017 
L 270.005522 69.503887 
L 272.248735 68.265797 
L 274.491961 67.328982 
L 276.735174 66.700489 
L 278.978387 66.38505 
L 281.221613 66.38505 
L 283.464813 66.700486 
L 285.708039 67.328982 
L 287.951265 68.265797 
L 290.194465 69.503879 
L 292.437691 71.034017 
L 294.680891 72.84484 
L 296.924117 74.923106 
L 299.167343 77.253718 
L 301.410543 79.819959 
L 303.653769 82.603796 
L 308.140195 88.74599 
L 312.626621 95.51563 
L 317.113073 102.739823 
L 326.085925 117.861575 
L 332.815577 129.160021 
L 337.302003 136.410817 
L 341.788429 143.306577 
L 346.274881 149.761889 
L 350.761307 155.714674 
L 355.247733 161.125597 
L 359.734159 165.976155 
L 364.220612 170.266276 
L 368.707037 174.011288 
L 373.193463 177.238913 
L 377.679889 179.985983 
L 382.166315 182.295442 
L 386.652768 184.213634 
L 391.139193 185.787913 
L 395.625619 187.064798 
L 400.112045 188.088462 
L 404.598498 188.899706 
L 409.084924 189.535288 
L 415.814576 190.229011 
L 422.544228 190.690387 
L 431.51708 191.06286 
L 442.733158 191.2959 
L 460.678888 191.42501 
L 503.3 191.459534 
L 503.3 191.459534 
" style="fill:none;stroke:#2ca02c;stroke-linecap:square;stroke-width:1.5;"/>
   </g>
   <g id="patch_3">
    <path d="M 56.9 191.46 
L 56.9 28.38 
" style="fill:none;stroke:#000000;stroke-linecap:square;stroke-linejoin:miter;stroke-width:0.8;"/>
   </g>
   <g id="patch_4">
    <path d="M 503.3 191.46 
L 503.3 28.38 
" style="fill:none;stroke:#000000;stroke-linecap:square;stroke-linejoin:miter;stroke-width:0.8;"/>
   </g>
   <g id="patch_5">
    <path d="M 56.9 191.46 
L 503.3 191.46 
" style="fill:none;stroke:#000000;stroke-linecap:square;stroke-linejoin:miter;stroke-width:0.8;"/>
   </g>
   <g id="patch_6">
    <path d="M 56.9 28.38 
L 503.3 28.38 
" style="fill:none;stroke:#000000;stroke-linecap:square;stroke-linejoin:miter;stroke-width:0.8;"/>
   </g>
   <g id="text_11">
    <!-- Target $p$, proposal $q$, function $f$ -->
    <defs>
     <path d="M 59.296875 49.203125 
L 56.90625 49.203125 
Q 55.296875 57.40625 52.390625 59.703125 
Q 49.5 62 41.5 62 
L 35.59375 62 
L 35.59375 11.09375 
Q 35.59375 5.40625 37.296875 3.796875 
Q 39 2.203125 45.203125 1.90625 
L 45.203125 0 
L 16 0 
L 16 1.90625 
Q 22.296875 2.296875 23.84375 4 
Q 25.40625 5.703125 25.40625 12.296875 
L 25.40625 62 
L 19.40625 62 
Q 11.296875 62 8.4375 59.640625 
Q 5.59375 57.296875 4.09375 49.203125 
L 1.703125 49.203125 
L 2.40625 66.203125 
L 58.59375 66.203125 
z
" id="STIXGeneral-Regular-84"/>
     <path d="M 44.203125 6.59375 
L 44.203125 3.796875 
Q 40.40625 -1 35.203125 -1 
Q 29.5 -1 28.796875 6.296875 
L 28.703125 6.296875 
Q 22.296875 -1 14.203125 -1 
Q 9.5 -1 6.59375 1.75 
Q 3.703125 4.5 3.703125 9.40625 
Q 3.703125 16.40625 10.703125 21.09375 
Q 15.5 24.296875 28.703125 29.203125 
L 28.703125 34.59375 
Q 28.703125 39.09375 26.546875 41.34375 
Q 24.40625 43.59375 20.90625 43.59375 
Q 17.90625 43.59375 15.90625 42.140625 
Q 13.90625 40.703125 13.90625 38.703125 
Q 13.90625 37.796875 14.203125 36.6875 
Q 14.5 35.59375 14.5 34.5 
Q 14.5 33 13.140625 31.703125 
Q 11.796875 30.40625 9.90625 30.40625 
Q 8.203125 30.40625 6.890625 31.703125 
Q 5.59375 33 5.59375 35 
Q 5.59375 39.796875 10.703125 43 
Q 15.40625 46 22.203125 46 
Q 30.296875 46 34 41.5 
Q 35.796875 39.40625 36.296875 37.25 
Q 36.796875 35.09375 36.796875 30.40625 
L 36.796875 11.296875 
Q 36.796875 4.703125 39.90625 4.703125 
Q 41.90625 4.703125 44.203125 6.59375 
z
M 28.703125 12.703125 
L 28.703125 26.796875 
Q 19.5 23.59375 15.90625 20.203125 
Q 12.5 17.09375 12.5 12.5 
Q 12.5 8.703125 14.390625 6.75 
Q 16.296875 4.796875 19.40625 4.796875 
Q 22.703125 4.796875 25.203125 6.40625 
Q 27.296875 7.90625 28 9.203125 
Q 28.703125 10.5 28.703125 12.703125 
z
" id="STIXGeneral-Regular-97"/>
     <path d="M 16 45.796875 
L 16 36.59375 
Q 19.796875 42 22.34375 44 
Q 24.90625 46 28 46 
Q 30.59375 46 32.046875 44.59375 
Q 33.5 43.203125 33.5 40.703125 
Q 33.5 38.59375 32.453125 37.390625 
Q 31.40625 36.203125 29.59375 36.203125 
Q 27.703125 36.203125 25.59375 38.203125 
Q 24 39.703125 23 39.703125 
Q 20.90625 39.703125 18.453125 36.796875 
Q 16 33.90625 16 31.5 
L 16 9 
Q 16 4.703125 17.703125 3.203125 
Q 19.40625 1.703125 24.5 1.5 
L 24.5 0 
L 0.5 0 
L 0.5 1.5 
Q 5.296875 2.40625 6.4375 3.5 
Q 7.59375 4.59375 7.59375 8.40625 
L 7.59375 33.40625 
Q 7.59375 36.703125 6.84375 38.046875 
Q 6.09375 39.40625 4.203125 39.40625 
Q 2.59375 39.40625 0.703125 39 
L 0.703125 40.59375 
Q 7 42.59375 15.5 46 
z
" id="STIXGeneral-Regular-114"/>
     <path d="M 47 38.796875 
L 38.703125 38.796875 
Q 40.59375 34.5 40.59375 30.40625 
Q 40.59375 22.703125 35.390625 18.796875 
Q 30.203125 14.90625 25 14.90625 
Q 23.90625 14.90625 21.203125 15.203125 
L 19.296875 15.40625 
Q 17.296875 14.796875 15.296875 12.6875 
Q 13.296875 10.59375 13.296875 9.09375 
Q 13.296875 6.796875 21.09375 6.40625 
L 34 5.796875 
Q 39.5 5.59375 42.796875 2.6875 
Q 46.09375 -0.203125 46.09375 -4.90625 
Q 46.09375 -10.703125 40.09375 -15.40625 
Q 31.796875 -21.796875 20.09375 -21.796875 
Q 12.90625 -21.796875 7.84375 -18.9375 
Q 2.796875 -16.09375 2.796875 -12.09375 
Q 2.796875 -9.296875 5 -6.546875 
Q 7.203125 -3.796875 12.59375 0.09375 
Q 9.40625 1.59375 8.34375 2.6875 
Q 7.296875 3.796875 7.296875 5.40625 
Q 7.296875 8.296875 11.90625 12.296875 
Q 14.203125 14.296875 16.203125 16.296875 
Q 11.203125 18.796875 9.046875 21.890625 
Q 6.90625 25 6.90625 29.703125 
Q 6.90625 36.5 11.75 41.25 
Q 16.59375 46 23.59375 46 
Q 27.59375 46 31.59375 44.5 
L 33.796875 43.703125 
Q 36.703125 42.703125 39.296875 42.703125 
L 47 42.703125 
z
M 15.203125 33.796875 
L 15.203125 33.5 
Q 15.203125 26.296875 18.046875 21.84375 
Q 20.90625 17.40625 25.5 17.40625 
Q 28.90625 17.40625 30.90625 19.84375 
Q 32.90625 22.296875 32.90625 26.40625 
Q 32.90625 33 29.90625 38.5 
Q 27.40625 43.203125 22.59375 43.203125 
Q 19.09375 43.203125 17.140625 40.703125 
Q 15.203125 38.203125 15.203125 33.796875 
z
M 43.296875 -6.40625 
Q 43.296875 -3.59375 40.546875 -2.546875 
Q 37.796875 -1.5 30.90625 -1.5 
Q 21 -1.5 14.703125 -0.203125 
Q 11.703125 -3.796875 10.75 -5.4375 
Q 9.796875 -7.09375 9.796875 -8.796875 
Q 9.796875 -12.09375 13.75 -14.09375 
Q 17.703125 -16.09375 24.296875 -16.09375 
Q 32.796875 -16.09375 38.046875 -13.4375 
Q 43.296875 -10.796875 43.296875 -6.40625 
z
" id="STIXGeneral-Regular-103"/>
     <path d="M 40.796875 16.40625 
L 42.40625 15.703125 
Q 36.40625 -1 21.5 -1 
Q 12.703125 -1 7.59375 5.140625 
Q 2.5 11.296875 2.5 21.703125 
Q 2.5 32.40625 8.203125 39.203125 
Q 13.90625 46 23.203125 46 
Q 32.203125 46 37.09375 39.09375 
Q 40 35.09375 40.5 27.703125 
L 9.703125 27.703125 
Q 10.09375 21.40625 10.9375 18.09375 
Q 11.796875 14.796875 14.296875 11.40625 
Q 18.5 5.90625 25.40625 5.90625 
Q 30.296875 5.90625 33.640625 8.296875 
Q 37 10.703125 40.796875 16.40625 
z
M 9.90625 30.90625 
L 30.296875 30.90625 
Q 29.40625 37.203125 27.34375 39.796875 
Q 25.296875 42.40625 20.5 42.40625 
Q 16.296875 42.40625 13.5 39.453125 
Q 10.703125 36.5 9.90625 30.90625 
z
" id="STIXGeneral-Regular-101"/>
     <path d="M 26.59375 7.703125 
L 27.90625 6.59375 
Q 23.09375 -1 15.796875 -1 
Q 7 -1 7 11.703125 
L 7 41.796875 
L 1.703125 41.796875 
Q 1.296875 42.09375 1.296875 42.5 
Q 1.296875 43.296875 3 44.40625 
Q 6.796875 46.59375 12.703125 55.09375 
Q 12.90625 55.40625 13.65625 56.34375 
Q 14.40625 57.296875 14.703125 57.90625 
Q 15.40625 57.90625 15.40625 56.59375 
L 15.40625 45 
L 25.5 45 
L 25.5 41.796875 
L 15.40625 41.796875 
L 15.40625 13.203125 
Q 15.40625 8.40625 16.59375 6.296875 
Q 17.796875 4.203125 20.59375 4.203125 
Q 23.59375 4.203125 26.59375 7.703125 
z
" id="STIXGeneral-Regular-116"/>
     <path id="STIXGeneral-Regular-32"/>
     <path d="M 15.90625 45.796875 
L 15.90625 38.09375 
Q 22.203125 46 30.296875 46 
Q 37.59375 46 42.296875 40 
Q 47 34 47 24.703125 
Q 47 13.796875 40.953125 6.390625 
Q 34.90625 -1 26 -1 
Q 22.90625 -1 20.75 -0.09375 
Q 18.59375 0.796875 15.90625 3.296875 
L 15.90625 -12.40625 
Q 15.90625 -17.09375 17.5 -18.4375 
Q 19.09375 -19.796875 24.703125 -19.90625 
L 24.703125 -21.703125 
L 0.5 -21.703125 
L 0.5 -20 
Q 4.90625 -19.59375 6.203125 -18.296875 
Q 7.5 -17 7.5 -13.09375 
L 7.5 33.703125 
Q 7.5 37.203125 6.703125 38.296875 
Q 5.90625 39.40625 3.40625 39.40625 
Q 1.796875 39.40625 0.90625 39.296875 
L 0.90625 40.90625 
Q 7.90625 43 15.296875 46 
z
M 15.90625 33.40625 
L 15.90625 8.796875 
Q 15.90625 6.59375 19.34375 4.390625 
Q 22.796875 2.203125 26.296875 2.203125 
Q 31.703125 2.203125 35.046875 7.296875 
Q 38.40625 12.40625 38.40625 20.703125 
Q 38.40625 29.5 35.046875 34.75 
Q 31.703125 40 26.09375 40 
Q 22.59375 40 19.25 37.796875 
Q 15.90625 35.59375 15.90625 33.40625 
z
" id="STIXGeneral-Regular-112"/>
     <path d="M 47 23.09375 
Q 47 12.59375 40.75 5.796875 
Q 34.5 -1 24.5 -1 
Q 15.296875 -1 9.09375 5.75 
Q 2.90625 12.5 2.90625 22.796875 
Q 2.90625 33.203125 9.09375 39.59375 
Q 15.296875 46 25.40625 46 
Q 34.703125 46 40.84375 39.640625 
Q 47 33.296875 47 23.09375 
z
M 38 20.40625 
Q 38 31.796875 33 38.203125 
Q 29 43.203125 23.5 43.203125 
Q 18.296875 43.203125 15.09375 38.953125 
Q 11.90625 34.703125 11.90625 27.296875 
Q 11.90625 14.5 17.203125 6.796875 
Q 20.59375 1.796875 26.203125 1.796875 
Q 31.703125 1.796875 34.84375 6.75 
Q 38 11.703125 38 20.40625 
z
" id="STIXGeneral-Regular-111"/>
     <path d="M 15.59375 30.09375 
L 26 23.796875 
Q 31 20.796875 32.890625 18.1875 
Q 34.796875 15.59375 34.796875 11.5 
Q 34.796875 6.5 30.640625 2.75 
Q 26.5 -1 20.796875 -1 
Q 16.09375 -1 13.5 -0.09375 
Q 10.796875 0.796875 8.90625 0.796875 
Q 7.203125 0.796875 6.5 -0.40625 
L 5.203125 -0.40625 
L 5.203125 15.296875 
L 6.796875 15.296875 
Q 8.40625 8 11.40625 4.59375 
Q 14.40625 1.203125 19.5 1.203125 
Q 23.203125 1.203125 25.5 3.296875 
Q 27.796875 5.40625 27.796875 8.59375 
Q 27.796875 13.203125 22.5 16.09375 
L 17.09375 19.09375 
Q 5.09375 25.796875 5.09375 33.59375 
Q 5.09375 39.40625 8.84375 42.65625 
Q 12.59375 45.90625 18.90625 45.90625 
Q 23.296875 45.90625 25.59375 44.796875 
Q 27.40625 44 28.40625 44 
Q 29.09375 44 30 45 
L 31.09375 45 
L 31.59375 31.40625 
L 30.09375 31.40625 
Q 28.40625 38.203125 25.84375 40.953125 
Q 23.296875 43.703125 18.796875 43.703125 
Q 15.40625 43.703125 13.34375 42 
Q 11.296875 40.296875 11.296875 36.90625 
Q 11.296875 35.203125 12.4375 33.25 
Q 13.59375 31.296875 15.59375 30.09375 
z
" id="STIXGeneral-Regular-115"/>
     <path d="M 25.703125 0 
L 2.09375 0 
L 2.09375 1.5 
Q 6.796875 1.90625 8.296875 3.453125 
Q 9.796875 5 9.796875 9.203125 
L 9.796875 56.09375 
Q 9.796875 59.703125 8.890625 61.09375 
Q 8 62.5 5.59375 62.5 
Q 3.5 62.5 1.90625 62.296875 
L 1.90625 63.90625 
Q 11.40625 66.203125 17.703125 68.296875 
L 18.203125 67.90625 
L 18.203125 8.703125 
Q 18.203125 4.5 19.59375 3.140625 
Q 21 1.796875 25.703125 1.5 
z
" id="STIXGeneral-Regular-108"/>
     <path d="M 2.09375 45 
L 10.296875 45 
Q 10.40625 51 11.09375 54.34375 
Q 11.796875 57.703125 13.796875 61.09375 
Q 18 68.296875 27.90625 68.296875 
Q 32.40625 68.296875 35.34375 66.546875 
Q 38.296875 64.796875 38.296875 62.09375 
Q 38.296875 60.40625 37.09375 59.203125 
Q 35.90625 58 34.09375 58 
Q 31.703125 58 29.59375 61.59375 
Q 27.203125 65.5 24.296875 65.5 
Q 18.703125 65.5 18.703125 56.59375 
L 18.703125 45 
L 30.90625 45 
L 30.90625 41.796875 
L 18.703125 41.796875 
L 18.703125 10.40625 
Q 18.703125 4.796875 20.296875 3.25 
Q 21.90625 1.703125 28 1.5 
L 28 0 
L 2 0 
L 2 1.5 
Q 7.40625 1.796875 8.84375 3.34375 
Q 10.296875 4.90625 10.296875 10.40625 
L 10.296875 41.796875 
L 2.09375 41.796875 
z
" id="STIXGeneral-Regular-102"/>
     <path d="M 48 5 
L 48 3.59375 
Q 40.203125 1.5 34.296875 -0.90625 
L 33.796875 -0.59375 
L 33.796875 7.59375 
L 33.59375 7.59375 
Q 27.296875 -1 19.296875 -1 
Q 13.59375 -1 10.34375 2.5 
Q 7.09375 6 7.09375 11.796875 
L 7.09375 36.90625 
Q 7.09375 40.59375 5.796875 42 
Q 4.5 43.40625 0.90625 43.59375 
L 0.90625 45 
L 15.5 45 
L 15.5 12.703125 
Q 15.5 9.296875 17.546875 7.046875 
Q 19.59375 4.796875 22.59375 4.796875 
Q 27.5 4.796875 31 7.90625 
Q 32.296875 9.09375 32.796875 10.140625 
Q 33.296875 11.203125 33.296875 13.703125 
L 33.296875 36.796875 
Q 33.296875 40.703125 31.890625 41.84375 
Q 30.5 43 25.90625 43.296875 
L 25.90625 45 
L 41.703125 45 
L 41.703125 10.703125 
Q 41.703125 7.203125 42.84375 6.09375 
Q 44 5 47.40625 5 
z
" id="STIXGeneral-Regular-117"/>
     <path d="M 48.5 0 
L 27.703125 0 
L 27.796875 1.5 
Q 31.5 1.796875 32.75 3.640625 
Q 34 5.5 34 10.5 
L 34 30.40625 
Q 34 40.5 26.703125 40.5 
Q 24.203125 40.5 22 39.296875 
Q 19.796875 38.09375 16.40625 34.796875 
L 16.40625 7.203125 
Q 16.40625 4.203125 17.75 3 
Q 19.09375 1.796875 22.90625 1.5 
L 22.90625 0 
L 1.796875 0 
L 1.796875 1.5 
Q 5.59375 1.796875 6.796875 3.34375 
Q 8 4.90625 8 9.40625 
L 8 33.703125 
Q 8 37.40625 7.296875 38.796875 
Q 6.59375 40.203125 4.5 40.203125 
Q 2.5 40.203125 1.59375 39.796875 
L 1.59375 41.5 
Q 8.59375 43.5 15.296875 46 
L 16.09375 45.703125 
L 16.09375 37.90625 
L 16.203125 37.90625 
Q 23.296875 46 30.59375 46 
Q 36.296875 46 39.34375 42 
Q 42.40625 38 42.40625 30.59375 
L 42.40625 8.5 
Q 42.40625 4.5 43.59375 3.203125 
Q 44.796875 1.90625 48.5 1.5 
z
" id="STIXGeneral-Regular-110"/>
     <path d="M 39.796875 15.59375 
L 41.203125 14.703125 
Q 36.90625 6.296875 33 3.203125 
Q 27.90625 -1 21.5 -1 
Q 13.203125 -1 7.84375 5.25 
Q 2.5 11.5 2.5 21.203125 
Q 2.5 33.90625 10.90625 40.90625 
Q 17.09375 46 24.40625 46 
Q 30.703125 46 35.25 42.953125 
Q 39.796875 39.90625 39.796875 35.703125 
Q 39.796875 34 38.390625 32.75 
Q 37 31.5 35.09375 31.5 
Q 31.59375 31.5 30.296875 36.09375 
L 29.703125 38.296875 
Q 28.90625 41.09375 27.703125 42.09375 
Q 26.5 43.09375 23.796875 43.09375 
Q 17.703125 43.09375 13.953125 38.296875 
Q 10.203125 33.5 10.203125 25.703125 
Q 10.203125 17.09375 14.5 11.640625 
Q 18.796875 6.203125 25.703125 6.203125 
Q 30 6.203125 33.09375 8.25 
Q 36.203125 10.296875 39.796875 15.59375 
z
" id="STIXGeneral-Regular-99"/>
     <path d="M 18 63.203125 
Q 18 61 16.5 59.546875 
Q 15 58.09375 12.796875 58.09375 
Q 10.703125 58.09375 9.25 59.546875 
Q 7.796875 61 7.796875 63.203125 
Q 7.796875 65.296875 9.296875 66.796875 
Q 10.796875 68.296875 12.90625 68.296875 
Q 15.09375 68.296875 16.546875 66.796875 
Q 18 65.296875 18 63.203125 
z
M 25.296875 0 
L 1.59375 0 
L 1.59375 1.5 
Q 6.796875 1.796875 8.140625 3.296875 
Q 9.5 4.796875 9.5 10.40625 
L 9.5 33.09375 
Q 9.5 36.59375 8.796875 38 
Q 8.09375 39.40625 6.203125 39.40625 
Q 3.796875 39.40625 2 38.90625 
L 2 40.5 
L 17.5 46 
L 17.90625 45.59375 
L 17.90625 10.5 
Q 17.90625 4.90625 19.15625 3.40625 
Q 20.40625 1.90625 25.296875 1.5 
z
" id="STIXGeneral-Regular-105"/>
     <path d="M 4.09375 42.796875 
L 13.40625 42.796875 
Q 17.296875 55.40625 20.59375 60.09375 
Q 26 67.796875 33.796875 67.796875 
Q 37.5 67.796875 39.953125 66.046875 
Q 42.40625 64.296875 42.40625 61.59375 
Q 42.40625 59.90625 41.15625 58.59375 
Q 39.90625 57.296875 38.203125 57.296875 
Q 36.796875 57.296875 35.640625 58.390625 
Q 34.5 59.5 34.5 61.203125 
Q 34.5 62.203125 35 63.09375 
Q 35.5 64 35.5 64.296875 
Q 35.5 65.59375 33.296875 65.59375 
Q 29.09375 65.59375 26.1875 60.140625 
Q 23.296875 54.703125 21.09375 42.796875 
L 31.796875 42.796875 
L 31.203125 39.59375 
L 20.40625 39.59375 
L 13.203125 7.59375 
Q 6.796875 -20.703125 -6.796875 -20.703125 
Q -10.203125 -20.703125 -12.453125 -18.953125 
Q -14.703125 -17.203125 -14.703125 -14.59375 
Q -14.703125 -12.90625 -13.59375 -11.65625 
Q -12.5 -10.40625 -10.90625 -10.40625 
Q -9.203125 -10.40625 -8.140625 -11.453125 
Q -7.09375 -12.5 -7.09375 -14.09375 
Q -7.09375 -14.796875 -7.546875 -15.640625 
Q -8 -16.5 -8 -17 
Q -8 -18.59375 -6 -18.59375 
Q 0.203125 -18.59375 3.703125 -2.40625 
L 12.5 39.59375 
L 3.40625 39.59375 
z
" id="STIXGeneral-Italic-102"/>
    </defs>
    <g transform="translate(143.48 22.38)scale(0.22 -0.22)">
     <use transform="translate(0 0.703125)" xlink:href="#STIXGeneral-Regular-84"/>
     <use transform="translate(61.099991 0.703125)" xlink:href="#STIXGeneral-Regular-97"/>
     <use transform="translate(105.499985 0.703125)" xlink:href="#STIXGeneral-Regular-114"/>
     <use transform="translate(138.799973 0.703125)" xlink:href="#STIXGeneral-Regular-103"/>
     <use transform="translate(188.799957 0.703125)" xlink:href="#STIXGeneral-Regular-101"/>
     <use transform="translate(233.199951 0.703125)" xlink:href="#STIXGeneral-Regular-116"/>
     <use transform="translate(260.999939 0.703125)" xlink:href="#STIXGeneral-Regular-32"/>
     <use transform="translate(285.999924 0.703125)" xlink:href="#STIXGeneral-Italic-112"/>
     <use transform="translate(336.399918 0.703125)" xlink:href="#STIXGeneral-Regular-44"/>
     <use transform="translate(361.399902 0.703125)" xlink:href="#STIXGeneral-Regular-32"/>
     <use transform="translate(386.399887 0.703125)" xlink:href="#STIXGeneral-Regular-112"/>
     <use transform="translate(436.399872 0.703125)" xlink:href="#STIXGeneral-Regular-114"/>
     <use transform="translate(469.69986 0.703125)" xlink:href="#STIXGeneral-Regular-111"/>
     <use transform="translate(519.699844 0.703125)" xlink:href="#STIXGeneral-Regular-112"/>
     <use transform="translate(569.699829 0.703125)" xlink:href="#STIXGeneral-Regular-111"/>
     <use transform="translate(619.699814 0.703125)" xlink:href="#STIXGeneral-Regular-115"/>
     <use transform="translate(658.599808 0.703125)" xlink:href="#STIXGeneral-Regular-97"/>
     <use transform="translate(702.999802 0.703125)" xlink:href="#STIXGeneral-Regular-108"/>
     <use transform="translate(730.799789 0.703125)" xlink:href="#STIXGeneral-Regular-32"/>
     <use transform="translate(755.799774 0.703125)" xlink:href="#STIXGeneral-Italic-113"/>
     <use transform="translate(805.799759 0.703125)" xlink:href="#STIXGeneral-Regular-44"/>
     <use transform="translate(830.799744 0.703125)" xlink:href="#STIXGeneral-Regular-32"/>
     <use transform="translate(855.799728 0.703125)" xlink:href="#STIXGeneral-Regular-102"/>
     <use transform="translate(889.099716 0.703125)" xlink:href="#STIXGeneral-Regular-117"/>
     <use transform="translate(939.099701 0.703125)" xlink:href="#STIXGeneral-Regular-110"/>
     <use transform="translate(989.099686 0.703125)" xlink:href="#STIXGeneral-Regular-99"/>
     <use transform="translate(1033.49968 0.703125)" xlink:href="#STIXGeneral-Regular-116"/>
     <use transform="translate(1061.299667 0.703125)" xlink:href="#STIXGeneral-Regular-105"/>
     <use transform="translate(1089.099655 0.703125)" xlink:href="#STIXGeneral-Regular-111"/>
     <use transform="translate(1139.09964 0.703125)" xlink:href="#STIXGeneral-Regular-110"/>
     <use transform="translate(1189.099625 0.703125)" xlink:href="#STIXGeneral-Regular-32"/>
     <use transform="translate(1214.099609 0.703125)" xlink:href="#STIXGeneral-Italic-102"/>
    </g>
   </g>
   <g id="legend_1">
    <g id="patch_7">
     <path d="M 68.1 86.62 
L 187.46 86.62 
Q 190.66 86.62 190.66 83.42 
L 190.66 39.58 
Q 190.66 36.38 187.46 36.38 
L 68.1 36.38 
Q 64.9 36.38 64.9 39.58 
L 64.9 83.42 
Q 64.9 86.62 68.1 86.62 
z
" style="fill:#ffffff;opacity:0.8;stroke:#cccccc;stroke-linejoin:miter;"/>
    </g>
    <g id="line2d_11">
     <path d="M 71.3 48.38 
L 103.3 48.38 
" style="fill:none;stroke:#1f77b4;stroke-linecap:square;stroke-width:1.5;"/>
    </g>
    <g id="line2d_12"/>
    <g id="text_12">
     <!-- Target $p$ -->
     <g transform="translate(116.1 53.98)scale(0.16 -0.16)">
      <use transform="translate(0 0.796875)" xlink:href="#STIXGeneral-Regular-84"/>
      <use transform="translate(61.099991 0.796875)" xlink:href="#STIXGeneral-Regular-97"/>
      <use transform="translate(105.499985 0.796875)" xlink:href="#STIXGeneral-Regular-114"/>
      <use transform="translate(138.799973 0.796875)" xlink:href="#STIXGeneral-Regular-103"/>
      <use transform="translate(188.799957 0.796875)" xlink:href="#STIXGeneral-Regular-101"/>
      <use transform="translate(233.199951 0.796875)" xlink:href="#STIXGeneral-Regular-116"/>
      <use transform="translate(260.999939 0.796875)" xlink:href="#STIXGeneral-Regular-32"/>
      <use transform="translate(285.999924 0.796875)" xlink:href="#STIXGeneral-Italic-112"/>
     </g>
    </g>
    <g id="line2d_13">
     <path d="M 71.3 71.1 
L 103.3 71.1 
" style="fill:none;stroke:#2ca02c;stroke-linecap:square;stroke-width:1.5;"/>
    </g>
    <g id="line2d_14"/>
    <g id="text_13">
     <!-- Proposal $q$ -->
     <defs>
      <path d="M 1.59375 66.203125 
L 27.5 66.203125 
Q 41.703125 66.203125 49.203125 59.90625 
Q 54.203125 55.703125 54.203125 48 
Q 54.203125 40 48.5 34.90625 
Q 44.296875 31.09375 39.890625 29.9375 
Q 35.5 28.796875 27.09375 28.796875 
Q 24.203125 28.796875 20.203125 29.09375 
L 20.203125 11.203125 
Q 20.203125 5.5 21.84375 3.84375 
Q 23.5 2.203125 29.59375 1.90625 
L 29.59375 0 
L 1.59375 0 
L 1.59375 1.90625 
Q 7.40625 2.296875 8.703125 4 
Q 10 5.703125 10 12.203125 
L 10 55.09375 
Q 10 60.703125 8.546875 62.296875 
Q 7.09375 63.90625 1.59375 64.296875 
z
M 20.203125 58.90625 
L 20.203125 33.09375 
Q 23.59375 32.796875 26.296875 32.796875 
Q 34.40625 32.796875 38.84375 36.75 
Q 43.296875 40.703125 43.296875 47.5 
Q 43.296875 55.59375 38.6875 59.046875 
Q 34.09375 62.5 23.703125 62.5 
Q 21.59375 62.5 20.890625 61.75 
Q 20.203125 61 20.203125 58.90625 
z
" id="STIXGeneral-Regular-80"/>
     </defs>
     <g transform="translate(116.1 76.7)scale(0.16 -0.16)">
      <use transform="translate(0 0.703125)" xlink:href="#STIXGeneral-Regular-80"/>
      <use transform="translate(55.699997 0.703125)" xlink:href="#STIXGeneral-Regular-114"/>
      <use transform="translate(88.999985 0.703125)" xlink:href="#STIXGeneral-Regular-111"/>
      <use transform="translate(138.999969 0.703125)" xlink:href="#STIXGeneral-Regular-112"/>
      <use transform="translate(188.999954 0.703125)" xlink:href="#STIXGeneral-Regular-111"/>
      <use transform="translate(238.999939 0.703125)" xlink:href="#STIXGeneral-Regular-115"/>
      <use transform="translate(277.899933 0.703125)" xlink:href="#STIXGeneral-Regular-97"/>
      <use transform="translate(322.299927 0.703125)" xlink:href="#STIXGeneral-Regular-108"/>
      <use transform="translate(350.099915 0.703125)" xlink:href="#STIXGeneral-Regular-32"/>
      <use transform="translate(375.099899 0.703125)" xlink:href="#STIXGeneral-Italic-113"/>
     </g>
    </g>
   </g>
  </g>
  <g id="axes_2">
   <g id="matplotlib.axis_3">
    <g id="ytick_4">
     <g id="line2d_15">
      <defs>
       <path d="M 0 0 
L 3.5 0 
" id="m5b82beb1ff" style="stroke:#000000;stroke-width:0.8;"/>
      </defs>
      <g>
       <use style="stroke:#000000;stroke-width:0.8;" x="503.3" xlink:href="#m5b82beb1ff" y="179.414318"/>
      </g>
     </g>
     <g id="text_14">
      <!-- −60 -->
      <g transform="translate(510.3 185.561037)scale(0.18 -0.18)">
       <use xlink:href="#STIXGeneral-Regular-8722"/>
       <use x="68.499985" xlink:href="#STIXGeneral-Regular-54"/>
       <use x="118.499969" xlink:href="#STIXGeneral-Regular-48"/>
      </g>
     </g>
    </g>
    <g id="ytick_5">
     <g id="line2d_16">
      <g>
       <use style="stroke:#000000;stroke-width:0.8;" x="503.3" xlink:href="#m5b82beb1ff" y="109.92"/>
      </g>
     </g>
     <g id="text_15">
      <!-- 0 -->
      <g transform="translate(510.3 116.066719)scale(0.18 -0.18)">
       <use xlink:href="#STIXGeneral-Regular-48"/>
      </g>
     </g>
    </g>
    <g id="ytick_6">
     <g id="line2d_17">
      <g>
       <use style="stroke:#000000;stroke-width:0.8;" x="503.3" xlink:href="#m5b82beb1ff" y="40.425682"/>
      </g>
     </g>
     <g id="text_16">
      <!-- 60 -->
      <g transform="translate(510.3 46.572401)scale(0.18 -0.18)">
       <use xlink:href="#STIXGeneral-Regular-54"/>
       <use x="49.999985" xlink:href="#STIXGeneral-Regular-48"/>
      </g>
     </g>
    </g>
    <g id="text_17">
     <!-- $f(x)$ -->
     <g transform="translate(556.923437 122.43)rotate(-90)scale(0.18 -0.18)">
      <use transform="translate(0 0.203125)" xlink:href="#STIXGeneral-Italic-102"/>
      <use transform="translate(27.799988 0.203125)" xlink:href="#STIXGeneral-Regular-40"/>
      <use transform="translate(61.099976 0.203125)" xlink:href="#STIXGeneral-Italic-120"/>
      <use transform="translate(105.499969 0.203125)" xlink:href="#STIXGeneral-Regular-41"/>
     </g>
    </g>
   </g>
   <g id="line2d_18">
    <path clip-path="url(#pb9f58a7c43)" d="M 56.9 184.047273 
L 63.629652 177.542418 
L 70.359291 171.429705 
L 77.088943 165.69692 
L 83.818595 160.331884 
L 90.548234 155.322415 
L 97.277886 150.656305 
L 104.007538 146.321371 
L 110.73719 142.305425 
L 117.466842 138.596275 
L 124.196481 135.181737 
L 130.92612 132.049612 
L 137.655772 129.187706 
L 144.385424 126.583834 
L 151.115076 124.225805 
L 157.844729 122.101429 
L 164.574367 120.198518 
L 171.304019 118.504876 
L 178.033672 117.008314 
L 184.76331 115.696645 
L 193.736175 114.214287 
L 202.709041 113.010055 
L 211.681906 112.055052 
L 220.654771 111.320382 
L 231.870849 110.667867 
L 243.086927 110.258034 
L 256.546231 110.007112 
L 274.491961 109.921176 
L 305.896995 109.805553 
L 319.356273 109.516705 
L 330.572351 109.062852 
L 341.788429 108.355028 
L 350.761307 107.567983 
L 359.734159 106.553384 
L 368.707037 105.282327 
L 377.679889 103.725926 
L 384.409541 102.353979 
L 391.139193 100.793078 
L 397.868846 99.031032 
L 404.598498 97.055652 
L 411.32815 94.854746 
L 418.057775 92.416133 
L 424.787427 89.727605 
L 431.51708 86.776979 
L 438.246732 83.552065 
L 444.976384 80.040673 
L 451.706036 76.230611 
L 458.435661 72.109707 
L 465.165314 67.665737 
L 471.894966 62.886526 
L 478.624618 57.759883 
L 485.35427 52.273618 
L 492.083922 46.415541 
L 498.813574 40.173461 
L 503.3 35.792727 
L 503.3 35.792727 
" style="fill:none;stroke:#d62728;stroke-linecap:square;stroke-width:1.5;"/>
   </g>
   <g id="patch_8">
    <path d="M 56.9 191.46 
L 56.9 28.38 
" style="fill:none;stroke:#000000;stroke-linecap:square;stroke-linejoin:miter;stroke-width:0.8;"/>
   </g>
   <g id="patch_9">
    <path d="M 503.3 191.46 
L 503.3 28.38 
" style="fill:none;stroke:#000000;stroke-linecap:square;stroke-linejoin:miter;stroke-width:0.8;"/>
   </g>
   <g id="patch_10">
    <path d="M 56.9 191.46 
L 503.3 191.46 
" style="fill:none;stroke:#000000;stroke-linecap:square;stroke-linejoin:miter;stroke-width:0.8;"/>
   </g>
   <g id="patch_11">
    <path d="M 56.9 28.38 
L 503.3 28.38 
" style="fill:none;stroke:#000000;stroke-linecap:square;stroke-linejoin:miter;stroke-width:0.8;"/>
   </g>
   <g id="legend_2">
    <g id="patch_12">
     <path d="M 418.66 63.8525 
L 492.1 63.8525 
Q 495.3 63.8525 495.3 60.6525 
L 495.3 39.58 
Q 495.3 36.38 492.1 36.38 
L 418.66 36.38 
Q 415.46 36.38 415.46 39.58 
L 415.46 60.6525 
Q 415.46 63.8525 418.66 63.8525 
z
" style="fill:#ffffff;opacity:0.8;stroke:#cccccc;stroke-linejoin:miter;"/>
    </g>
    <g id="line2d_19">
     <path d="M 421.86 48.38 
L 453.86 48.38 
" style="fill:none;stroke:#d62728;stroke-linecap:square;stroke-width:1.5;"/>
    </g>
    <g id="line2d_20"/>
    <g id="text_18">
     <!-- $f(x)$ -->
     <g transform="translate(466.66 53.98)scale(0.16 -0.16)">
      <use transform="translate(0 0.203125)" xlink:href="#STIXGeneral-Italic-102"/>
      <use transform="translate(27.799988 0.203125)" xlink:href="#STIXGeneral-Regular-40"/>
      <use transform="translate(61.099976 0.203125)" xlink:href="#STIXGeneral-Italic-120"/>
      <use transform="translate(105.499969 0.203125)" xlink:href="#STIXGeneral-Regular-41"/>
     </g>
    </g>
   </g>
  </g>
 </g>
 <defs>
  <clipPath id="pb9f58a7c43">
   <rect height="163.08" width="446.4" x="56.9" y="28.38"/>
  </clipPath>
 </defs>
</svg>
