<?xml version="1.0" encoding="utf-8" standalone="no"?>
<!DOCTYPE svg PUBLIC "-//W3C//DTD SVG 1.1//EN"
  "http://www.w3.org/Graphics/SVG/1.1/DTD/svg11.dtd">
<!-- Created with matplotlib (https://matplotlib.org/) -->
<svg height="241.905312pt" version="1.1" viewBox="0 0 568.03 241.905312" width="568.03pt" xmlns="http://www.w3.org/2000/svg" xmlns:xlink="http://www.w3.org/1999/xlink">
 <defs>
  <style type="text/css">
*{stroke-linecap:butt;stroke-linejoin:round;}
  </style>
 </defs>
 <g id="figure_1">
  <g id="patch_1">
   <path d="M 0 241.905312 
L 568.03 241.905312 
L 568.03 0 
L 0 0 
z
" style="fill:none;"/>
  </g>
  <g id="axes_1">
   <g id="patch_2">
    <path d="M 56.9 191.305312 
L 503.3 191.305312 
L 503.3 28.225312 
L 56.9 28.225312 
z
" style="fill:#ffffff;"/>
   </g>
   <g id="patch_3">
    <path clip-path="url(#pe846bbb149)" d="M 56.9 191.305312 
L 68.346153 191.305312 
L 68.346153 191.305312 
L 56.9 191.305312 
z
" style="fill:#2ca02c;opacity:0.4;"/>
   </g>
   <g id="patch_4">
    <path clip-path="url(#pe846bbb149)" d="M 68.346153 191.305312 
L 79.792306 191.305312 
L 79.792306 191.305312 
L 68.346153 191.305312 
z
" style="fill:#2ca02c;opacity:0.4;"/>
   </g>
   <g id="patch_5">
    <path clip-path="url(#pe846bbb149)" d="M 79.792306 191.305312 
L 91.238459 191.305312 
L 91.238459 191.305312 
L 79.792306 191.305312 
z
" style="fill:#2ca02c;opacity:0.4;"/>
   </g>
   <g id="patch_6">
    <path clip-path="url(#pe846bbb149)" d="M 91.238459 191.305312 
L 102.684613 191.305312 
L 102.684613 191.305312 
L 91.238459 191.305312 
z
" style="fill:#2ca02c;opacity:0.4;"/>
   </g>
   <g id="patch_7">
    <path clip-path="url(#pe846bbb149)" d="M 102.684613 191.305312 
L 114.130766 191.305312 
L 114.130766 191.305312 
L 102.684613 191.305312 
z
" style="fill:#2ca02c;opacity:0.4;"/>
   </g>
   <g id="patch_8">
    <path clip-path="url(#pe846bbb149)" d="M 114.130766 191.305312 
L 125.576919 191.305312 
L 125.576919 191.305312 
L 114.130766 191.305312 
z
" style="fill:#2ca02c;opacity:0.4;"/>
   </g>
   <g id="patch_9">
    <path clip-path="url(#pe846bbb149)" d="M 125.576919 191.305312 
L 137.023072 191.305312 
L 137.023072 191.305312 
L 125.576919 191.305312 
z
" style="fill:#2ca02c;opacity:0.4;"/>
   </g>
   <g id="patch_10">
    <path clip-path="url(#pe846bbb149)" d="M 137.023072 191.305312 
L 148.469225 191.305312 
L 148.469225 191.305312 
L 137.023072 191.305312 
z
" style="fill:#2ca02c;opacity:0.4;"/>
   </g>
   <g id="patch_11">
    <path clip-path="url(#pe846bbb149)" d="M 148.469225 191.305312 
L 159.915378 191.305312 
L 159.915378 184.077903 
L 148.469225 184.077903 
z
" style="fill:#2ca02c;opacity:0.4;"/>
   </g>
   <g id="patch_12">
    <path clip-path="url(#pe846bbb149)" d="M 159.915378 191.305312 
L 171.361545 191.305312 
L 171.361545 191.305312 
L 159.915378 191.305312 
z
" style="fill:#2ca02c;opacity:0.4;"/>
   </g>
   <g id="patch_13">
    <path clip-path="url(#pe846bbb149)" d="M 171.361545 191.305312 
L 182.807698 191.305312 
L 182.807698 176.850493 
L 171.361545 176.850493 
z
" style="fill:#2ca02c;opacity:0.4;"/>
   </g>
   <g id="patch_14">
    <path clip-path="url(#pe846bbb149)" d="M 182.807698 191.305312 
L 194.253851 191.305312 
L 194.253851 176.850493 
L 182.807698 176.850493 
z
" style="fill:#2ca02c;opacity:0.4;"/>
   </g>
   <g id="patch_15">
    <path clip-path="url(#pe846bbb149)" d="M 194.253851 191.305312 
L 205.700004 191.305312 
L 205.700004 184.077903 
L 194.253851 184.077903 
z
" style="fill:#2ca02c;opacity:0.4;"/>
   </g>
   <g id="patch_16">
    <path clip-path="url(#pe846bbb149)" d="M 205.700004 191.305312 
L 217.146158 191.305312 
L 217.146158 169.623084 
L 205.700004 169.623084 
z
" style="fill:#2ca02c;opacity:0.4;"/>
   </g>
   <g id="patch_17">
    <path clip-path="url(#pe846bbb149)" d="M 217.146158 191.305312 
L 228.592311 191.305312 
L 228.592311 169.623084 
L 217.146158 169.623084 
z
" style="fill:#2ca02c;opacity:0.4;"/>
   </g>
   <g id="patch_18">
    <path clip-path="url(#pe846bbb149)" d="M 228.592311 191.305312 
L 240.038464 191.305312 
L 240.038464 111.803808 
L 228.592311 111.803808 
z
" style="fill:#2ca02c;opacity:0.4;"/>
   </g>
   <g id="patch_19">
    <path clip-path="url(#pe846bbb149)" d="M 240.038464 191.305312 
L 251.484617 191.305312 
L 251.484617 133.486036 
L 240.038464 133.486036 
z
" style="fill:#2ca02c;opacity:0.4;"/>
   </g>
   <g id="patch_20">
    <path clip-path="url(#pe846bbb149)" d="M 251.484617 191.305312 
L 262.93077 191.305312 
L 262.93077 119.031217 
L 251.484617 119.031217 
z
" style="fill:#2ca02c;opacity:0.4;"/>
   </g>
   <g id="patch_21">
    <path clip-path="url(#pe846bbb149)" d="M 262.93077 191.305312 
L 274.376923 191.305312 
L 274.376923 104.576398 
L 262.93077 104.576398 
z
" style="fill:#2ca02c;opacity:0.4;"/>
   </g>
   <g id="patch_22">
    <path clip-path="url(#pe846bbb149)" d="M 274.376923 191.305312 
L 285.82309 191.305312 
L 285.82309 126.258702 
L 274.376923 126.258702 
z
" style="fill:#2ca02c;opacity:0.4;"/>
   </g>
   <g id="patch_23">
    <path clip-path="url(#pe846bbb149)" d="M 285.82309 191.305312 
L 297.269243 191.305312 
L 297.269243 126.258627 
L 285.82309 126.258627 
z
" style="fill:#2ca02c;opacity:0.4;"/>
   </g>
   <g id="patch_24">
    <path clip-path="url(#pe846bbb149)" d="M 297.269243 191.305312 
L 308.715396 191.305312 
L 308.715396 126.258627 
L 297.269243 126.258627 
z
" style="fill:#2ca02c;opacity:0.4;"/>
   </g>
   <g id="patch_25">
    <path clip-path="url(#pe846bbb149)" d="M 308.715396 191.305312 
L 320.161549 191.305312 
L 320.161549 147.940855 
L 308.715396 147.940855 
z
" style="fill:#2ca02c;opacity:0.4;"/>
   </g>
   <g id="patch_26">
    <path clip-path="url(#pe846bbb149)" d="M 320.161549 191.305312 
L 331.607703 191.305312 
L 331.607703 162.395674 
L 320.161549 162.395674 
z
" style="fill:#2ca02c;opacity:0.4;"/>
   </g>
   <g id="patch_27">
    <path clip-path="url(#pe846bbb149)" d="M 331.607703 191.305312 
L 343.053856 191.305312 
L 343.053856 162.395674 
L 331.607703 162.395674 
z
" style="fill:#2ca02c;opacity:0.4;"/>
   </g>
   <g id="patch_28">
    <path clip-path="url(#pe846bbb149)" d="M 343.053856 191.305312 
L 354.500009 191.305312 
L 354.500009 176.850493 
L 343.053856 176.850493 
z
" style="fill:#2ca02c;opacity:0.4;"/>
   </g>
   <g id="patch_29">
    <path clip-path="url(#pe846bbb149)" d="M 354.500009 191.305312 
L 365.946162 191.305312 
L 365.946162 162.395674 
L 354.500009 162.395674 
z
" style="fill:#2ca02c;opacity:0.4;"/>
   </g>
   <g id="patch_30">
    <path clip-path="url(#pe846bbb149)" d="M 365.946162 191.305312 
L 377.392315 191.305312 
L 377.392315 191.305312 
L 365.946162 191.305312 
z
" style="fill:#2ca02c;opacity:0.4;"/>
   </g>
   <g id="patch_31">
    <path clip-path="url(#pe846bbb149)" d="M 377.392315 191.305312 
L 388.838468 191.305312 
L 388.838468 191.305312 
L 377.392315 191.305312 
z
" style="fill:#2ca02c;opacity:0.4;"/>
   </g>
   <g id="patch_32">
    <path clip-path="url(#pe846bbb149)" d="M 388.838468 191.305312 
L 400.284622 191.305312 
L 400.284622 191.305312 
L 388.838468 191.305312 
z
" style="fill:#2ca02c;opacity:0.4;"/>
   </g>
   <g id="patch_33">
    <path clip-path="url(#pe846bbb149)" d="M 400.284622 191.305312 
L 411.730775 191.305312 
L 411.730775 191.305312 
L 400.284622 191.305312 
z
" style="fill:#2ca02c;opacity:0.4;"/>
   </g>
   <g id="patch_34">
    <path clip-path="url(#pe846bbb149)" d="M 411.730775 191.305312 
L 423.176928 191.305312 
L 423.176928 191.305312 
L 411.730775 191.305312 
z
" style="fill:#2ca02c;opacity:0.4;"/>
   </g>
   <g id="patch_35">
    <path clip-path="url(#pe846bbb149)" d="M 423.176928 191.305312 
L 434.623081 191.305312 
L 434.623081 191.305312 
L 423.176928 191.305312 
z
" style="fill:#2ca02c;opacity:0.4;"/>
   </g>
   <g id="patch_36">
    <path clip-path="url(#pe846bbb149)" d="M 434.623081 191.305312 
L 446.069234 191.305312 
L 446.069234 191.305312 
L 434.623081 191.305312 
z
" style="fill:#2ca02c;opacity:0.4;"/>
   </g>
   <g id="patch_37">
    <path clip-path="url(#pe846bbb149)" d="M 446.069234 191.305312 
L 457.515387 191.305312 
L 457.515387 191.305312 
L 446.069234 191.305312 
z
" style="fill:#2ca02c;opacity:0.4;"/>
   </g>
   <g id="patch_38">
    <path clip-path="url(#pe846bbb149)" d="M 457.515387 191.305312 
L 468.961541 191.305312 
L 468.961541 191.305312 
L 457.515387 191.305312 
z
" style="fill:#2ca02c;opacity:0.4;"/>
   </g>
   <g id="patch_39">
    <path clip-path="url(#pe846bbb149)" d="M 468.961541 191.305312 
L 480.407694 191.305312 
L 480.407694 191.305312 
L 468.961541 191.305312 
z
" style="fill:#2ca02c;opacity:0.4;"/>
   </g>
   <g id="patch_40">
    <path clip-path="url(#pe846bbb149)" d="M 480.407694 191.305312 
L 491.853847 191.305312 
L 491.853847 191.305312 
L 480.407694 191.305312 
z
" style="fill:#2ca02c;opacity:0.4;"/>
   </g>
   <g id="patch_41">
    <path clip-path="url(#pe846bbb149)" d="M 491.853847 191.305312 
L 503.3 191.305312 
L 503.3 191.305312 
L 491.853847 191.305312 
z
" style="fill:#2ca02c;opacity:0.4;"/>
   </g>
   <g id="patch_42">
    <path clip-path="url(#pe846bbb149)" d="M 56.9 191.305312 
L 68.346153 191.305312 
L 68.346153 191.305312 
L 56.9 191.305312 
z
" style="fill:#9467bd;opacity:0.4;"/>
   </g>
   <g id="patch_43">
    <path clip-path="url(#pe846bbb149)" d="M 68.346153 191.305312 
L 79.792306 191.305312 
L 79.792306 191.305312 
L 68.346153 191.305312 
z
" style="fill:#9467bd;opacity:0.4;"/>
   </g>
   <g id="patch_44">
    <path clip-path="url(#pe846bbb149)" d="M 79.792306 191.305312 
L 91.238459 191.305312 
L 91.238459 191.305312 
L 79.792306 191.305312 
z
" style="fill:#9467bd;opacity:0.4;"/>
   </g>
   <g id="patch_45">
    <path clip-path="url(#pe846bbb149)" d="M 91.238459 191.305312 
L 102.684613 191.305312 
L 102.684613 191.305312 
L 91.238459 191.305312 
z
" style="fill:#9467bd;opacity:0.4;"/>
   </g>
   <g id="patch_46">
    <path clip-path="url(#pe846bbb149)" d="M 102.684613 191.305312 
L 114.130766 191.305312 
L 114.130766 191.305312 
L 102.684613 191.305312 
z
" style="fill:#9467bd;opacity:0.4;"/>
   </g>
   <g id="patch_47">
    <path clip-path="url(#pe846bbb149)" d="M 114.130766 191.305312 
L 125.576919 191.305312 
L 125.576919 184.077903 
L 114.130766 184.077903 
z
" style="fill:#9467bd;opacity:0.4;"/>
   </g>
   <g id="patch_48">
    <path clip-path="url(#pe846bbb149)" d="M 125.576919 191.305312 
L 137.023072 191.305312 
L 137.023072 184.077903 
L 125.576919 184.077903 
z
" style="fill:#9467bd;opacity:0.4;"/>
   </g>
   <g id="patch_49">
    <path clip-path="url(#pe846bbb149)" d="M 137.023072 191.305312 
L 148.469225 191.305312 
L 148.469225 133.486036 
L 137.023072 133.486036 
z
" style="fill:#9467bd;opacity:0.4;"/>
   </g>
   <g id="patch_50">
    <path clip-path="url(#pe846bbb149)" d="M 148.469225 191.305312 
L 159.915378 191.305312 
L 159.915378 162.395674 
L 148.469225 162.395674 
z
" style="fill:#9467bd;opacity:0.4;"/>
   </g>
   <g id="patch_51">
    <path clip-path="url(#pe846bbb149)" d="M 159.915378 191.305312 
L 171.361545 191.305312 
L 171.361545 97.349098 
L 159.915378 97.349098 
z
" style="fill:#9467bd;opacity:0.4;"/>
   </g>
   <g id="patch_52">
    <path clip-path="url(#pe846bbb149)" d="M 171.361545 191.305312 
L 182.807698 191.305312 
L 182.807698 155.168265 
L 171.361545 155.168265 
z
" style="fill:#9467bd;opacity:0.4;"/>
   </g>
   <g id="patch_53">
    <path clip-path="url(#pe846bbb149)" d="M 182.807698 191.305312 
L 194.253851 191.305312 
L 194.253851 111.803808 
L 182.807698 111.803808 
z
" style="fill:#9467bd;opacity:0.4;"/>
   </g>
   <g id="patch_54">
    <path clip-path="url(#pe846bbb149)" d="M 194.253851 191.305312 
L 205.700004 191.305312 
L 205.700004 176.850493 
L 194.253851 176.850493 
z
" style="fill:#9467bd;opacity:0.4;"/>
   </g>
   <g id="patch_55">
    <path clip-path="url(#pe846bbb149)" d="M 205.700004 191.305312 
L 217.146158 191.305312 
L 217.146158 176.850493 
L 205.700004 176.850493 
z
" style="fill:#9467bd;opacity:0.4;"/>
   </g>
   <g id="patch_56">
    <path clip-path="url(#pe846bbb149)" d="M 217.146158 191.305312 
L 228.592311 191.305312 
L 228.592311 191.305312 
L 217.146158 191.305312 
z
" style="fill:#9467bd;opacity:0.4;"/>
   </g>
   <g id="patch_57">
    <path clip-path="url(#pe846bbb149)" d="M 228.592311 191.305312 
L 240.038464 191.305312 
L 240.038464 191.305312 
L 228.592311 191.305312 
z
" style="fill:#9467bd;opacity:0.4;"/>
   </g>
   <g id="patch_58">
    <path clip-path="url(#pe846bbb149)" d="M 240.038464 191.305312 
L 251.484617 191.305312 
L 251.484617 191.305312 
L 240.038464 191.305312 
z
" style="fill:#9467bd;opacity:0.4;"/>
   </g>
   <g id="patch_59">
    <path clip-path="url(#pe846bbb149)" d="M 251.484617 191.305312 
L 262.93077 191.305312 
L 262.93077 191.305312 
L 251.484617 191.305312 
z
" style="fill:#9467bd;opacity:0.4;"/>
   </g>
   <g id="patch_60">
    <path clip-path="url(#pe846bbb149)" d="M 262.93077 191.305312 
L 274.376923 191.305312 
L 274.376923 191.305312 
L 262.93077 191.305312 
z
" style="fill:#9467bd;opacity:0.4;"/>
   </g>
   <g id="patch_61">
    <path clip-path="url(#pe846bbb149)" d="M 274.376923 191.305312 
L 285.82309 191.305312 
L 285.82309 191.305312 
L 274.376923 191.305312 
z
" style="fill:#9467bd;opacity:0.4;"/>
   </g>
   <g id="patch_62">
    <path clip-path="url(#pe846bbb149)" d="M 285.82309 191.305312 
L 297.269243 191.305312 
L 297.269243 191.305312 
L 285.82309 191.305312 
z
" style="fill:#9467bd;opacity:0.4;"/>
   </g>
   <g id="patch_63">
    <path clip-path="url(#pe846bbb149)" d="M 297.269243 191.305312 
L 308.715396 191.305312 
L 308.715396 191.305312 
L 297.269243 191.305312 
z
" style="fill:#9467bd;opacity:0.4;"/>
   </g>
   <g id="patch_64">
    <path clip-path="url(#pe846bbb149)" d="M 308.715396 191.305312 
L 320.161549 191.305312 
L 320.161549 191.305312 
L 308.715396 191.305312 
z
" style="fill:#9467bd;opacity:0.4;"/>
   </g>
   <g id="patch_65">
    <path clip-path="url(#pe846bbb149)" d="M 320.161549 191.305312 
L 331.607703 191.305312 
L 331.607703 184.077903 
L 320.161549 184.077903 
z
" style="fill:#9467bd;opacity:0.4;"/>
   </g>
   <g id="patch_66">
    <path clip-path="url(#pe846bbb149)" d="M 331.607703 191.305312 
L 343.053856 191.305312 
L 343.053856 191.305312 
L 331.607703 191.305312 
z
" style="fill:#9467bd;opacity:0.4;"/>
   </g>
   <g id="patch_67">
    <path clip-path="url(#pe846bbb149)" d="M 343.053856 191.305312 
L 354.500009 191.305312 
L 354.500009 162.395674 
L 343.053856 162.395674 
z
" style="fill:#9467bd;opacity:0.4;"/>
   </g>
   <g id="patch_68">
    <path clip-path="url(#pe846bbb149)" d="M 354.500009 191.305312 
L 365.946162 191.305312 
L 365.946162 162.395674 
L 354.500009 162.395674 
z
" style="fill:#9467bd;opacity:0.4;"/>
   </g>
   <g id="patch_69">
    <path clip-path="url(#pe846bbb149)" d="M 365.946162 191.305312 
L 377.392315 191.305312 
L 377.392315 140.713446 
L 365.946162 140.713446 
z
" style="fill:#9467bd;opacity:0.4;"/>
   </g>
   <g id="patch_70">
    <path clip-path="url(#pe846bbb149)" d="M 377.392315 191.305312 
L 388.838468 191.305312 
L 388.838468 140.713446 
L 377.392315 140.713446 
z
" style="fill:#9467bd;opacity:0.4;"/>
   </g>
   <g id="patch_71">
    <path clip-path="url(#pe846bbb149)" d="M 388.838468 191.305312 
L 400.284622 191.305312 
L 400.284622 97.348989 
L 388.838468 97.348989 
z
" style="fill:#9467bd;opacity:0.4;"/>
   </g>
   <g id="patch_72">
    <path clip-path="url(#pe846bbb149)" d="M 400.284622 191.305312 
L 411.730775 191.305312 
L 411.730775 140.713446 
L 400.284622 140.713446 
z
" style="fill:#9467bd;opacity:0.4;"/>
   </g>
   <g id="patch_73">
    <path clip-path="url(#pe846bbb149)" d="M 411.730775 191.305312 
L 423.176928 191.305312 
L 423.176928 169.623084 
L 411.730775 169.623084 
z
" style="fill:#9467bd;opacity:0.4;"/>
   </g>
   <g id="patch_74">
    <path clip-path="url(#pe846bbb149)" d="M 423.176928 191.305312 
L 434.623081 191.305312 
L 434.623081 162.395674 
L 423.176928 162.395674 
z
" style="fill:#9467bd;opacity:0.4;"/>
   </g>
   <g id="patch_75">
    <path clip-path="url(#pe846bbb149)" d="M 434.623081 191.305312 
L 446.069234 191.305312 
L 446.069234 169.623084 
L 434.623081 169.623084 
z
" style="fill:#9467bd;opacity:0.4;"/>
   </g>
   <g id="patch_76">
    <path clip-path="url(#pe846bbb149)" d="M 446.069234 191.305312 
L 457.515387 191.305312 
L 457.515387 191.305312 
L 446.069234 191.305312 
z
" style="fill:#9467bd;opacity:0.4;"/>
   </g>
   <g id="patch_77">
    <path clip-path="url(#pe846bbb149)" d="M 457.515387 191.305312 
L 468.961541 191.305312 
L 468.961541 191.305312 
L 457.515387 191.305312 
z
" style="fill:#9467bd;opacity:0.4;"/>
   </g>
   <g id="patch_78">
    <path clip-path="url(#pe846bbb149)" d="M 468.961541 191.305312 
L 480.407694 191.305312 
L 480.407694 191.305312 
L 468.961541 191.305312 
z
" style="fill:#9467bd;opacity:0.4;"/>
   </g>
   <g id="patch_79">
    <path clip-path="url(#pe846bbb149)" d="M 480.407694 191.305312 
L 491.853847 191.305312 
L 491.853847 191.305312 
L 480.407694 191.305312 
z
" style="fill:#9467bd;opacity:0.4;"/>
   </g>
   <g id="patch_80">
    <path clip-path="url(#pe846bbb149)" d="M 491.853847 191.305312 
L 503.3 191.305312 
L 503.3 191.305312 
L 491.853847 191.305312 
z
" style="fill:#9467bd;opacity:0.4;"/>
   </g>
   <g id="matplotlib.axis_1">
    <g id="xtick_1">
     <g id="line2d_1">
      <defs>
       <path d="M 0 0 
L 0 3.5 
" id="m5f6a0444c4" style="stroke:#000000;stroke-width:0.8;"/>
      </defs>
      <g>
       <use style="stroke:#000000;stroke-width:0.8;" x="56.9" xlink:href="#m5f6a0444c4" y="191.305312"/>
      </g>
     </g>
     <g id="text_1">
      <!-- −4 -->
      <defs>
       <path d="M 62.09375 22 
L 6.40625 22 
L 6.40625 28.59375 
L 62.09375 28.59375 
z
" id="STIXGeneral-Regular-8722"/>
       <path d="M 47.296875 16.703125 
L 37 16.703125 
L 37 0 
L 29.203125 0 
L 29.203125 16.703125 
L 1.203125 16.703125 
L 1.203125 23.09375 
L 32.59375 67.59375 
L 37 67.59375 
L 37 23.09375 
L 47.296875 23.09375 
z
M 29.203125 23.09375 
L 29.203125 57.40625 
L 5.203125 23.09375 
z
" id="STIXGeneral-Regular-52"/>
      </defs>
      <g transform="translate(46.235 210.59875)scale(0.18 -0.18)">
       <use xlink:href="#STIXGeneral-Regular-8722"/>
       <use x="68.499985" xlink:href="#STIXGeneral-Regular-52"/>
      </g>
     </g>
    </g>
    <g id="xtick_2">
     <g id="line2d_2">
      <g>
       <use style="stroke:#000000;stroke-width:0.8;" x="168.5" xlink:href="#m5f6a0444c4" y="191.305312"/>
      </g>
     </g>
     <g id="text_2">
      <!-- −2 -->
      <defs>
       <path d="M 47.40625 13.703125 
L 42 0 
L 2.90625 0 
L 2.90625 1.203125 
L 20.703125 20.09375 
Q 27.703125 27.40625 30.703125 33.5 
Q 33.703125 39.59375 33.703125 46.09375 
Q 33.703125 52.796875 30 56.5 
Q 26.296875 60.203125 19.796875 60.203125 
Q 14.40625 60.203125 11.25 57.390625 
Q 8.09375 54.59375 5.09375 47.203125 
L 3 47.703125 
Q 4.703125 57 9.84375 62.296875 
Q 15 67.59375 23.796875 67.59375 
Q 32.09375 67.59375 37.1875 62.59375 
Q 42.296875 57.59375 42.296875 50 
Q 42.296875 38.703125 29.5 25.203125 
L 13 7.59375 
L 36.40625 7.59375 
Q 39.703125 7.59375 41.640625 8.890625 
Q 43.59375 10.203125 46 14.296875 
z
" id="STIXGeneral-Regular-50"/>
      </defs>
      <g transform="translate(157.835 210.59875)scale(0.18 -0.18)">
       <use xlink:href="#STIXGeneral-Regular-8722"/>
       <use x="68.499985" xlink:href="#STIXGeneral-Regular-50"/>
      </g>
     </g>
    </g>
    <g id="xtick_3">
     <g id="line2d_3">
      <g>
       <use style="stroke:#000000;stroke-width:0.8;" x="280.1" xlink:href="#m5f6a0444c4" y="191.305312"/>
      </g>
     </g>
     <g id="text_3">
      <!-- 0 -->
      <defs>
       <path d="M 47.59375 33 
Q 47.59375 26.296875 46.296875 20.34375 
Q 45 14.40625 42.453125 9.40625 
Q 39.90625 4.40625 35.40625 1.5 
Q 30.90625 -1.40625 25 -1.40625 
Q 18.90625 -1.40625 14.296875 1.6875 
Q 9.703125 4.796875 7.203125 10 
Q 4.703125 15.203125 3.546875 21.09375 
Q 2.40625 27 2.40625 33.59375 
Q 2.40625 42.90625 4.703125 50.34375 
Q 7 57.796875 12.34375 62.6875 
Q 17.703125 67.59375 25.40625 67.59375 
Q 35.203125 67.59375 41.390625 58 
Q 47.59375 48.40625 47.59375 33 
z
M 38 32.5 
Q 38 48.296875 34.640625 56.640625 
Q 31.296875 65 24.796875 65 
Q 18.59375 65 15.296875 56.59375 
Q 12 48.203125 12 32.90625 
Q 12 17.5 15.296875 9.34375 
Q 18.59375 1.203125 25 1.203125 
Q 31.296875 1.203125 34.640625 9.34375 
Q 38 17.5 38 32.5 
z
" id="STIXGeneral-Regular-48"/>
      </defs>
      <g transform="translate(275.6 210.59875)scale(0.18 -0.18)">
       <use xlink:href="#STIXGeneral-Regular-48"/>
      </g>
     </g>
    </g>
    <g id="xtick_4">
     <g id="line2d_4">
      <g>
       <use style="stroke:#000000;stroke-width:0.8;" x="391.7" xlink:href="#m5f6a0444c4" y="191.305312"/>
      </g>
     </g>
     <g id="text_4">
      <!-- 2 -->
      <g transform="translate(387.2 210.59875)scale(0.18 -0.18)">
       <use xlink:href="#STIXGeneral-Regular-50"/>
      </g>
     </g>
    </g>
    <g id="xtick_5">
     <g id="line2d_5">
      <g>
       <use style="stroke:#000000;stroke-width:0.8;" x="503.3" xlink:href="#m5f6a0444c4" y="191.305312"/>
      </g>
     </g>
     <g id="text_5">
      <!-- 4 -->
      <g transform="translate(498.8 210.59875)scale(0.18 -0.18)">
       <use xlink:href="#STIXGeneral-Regular-52"/>
      </g>
     </g>
    </g>
    <g id="text_6">
     <!-- $x$ -->
     <defs>
      <path d="M 24.296875 35.5 
L 25.5 29.796875 
Q 30.796875 37.90625 34.046875 41 
Q 37.296875 44.09375 40.59375 44.09375 
Q 42.40625 44.09375 43.546875 43.046875 
Q 44.703125 42 44.703125 40.390625 
Q 44.703125 38.796875 43.75 37.796875 
Q 42.796875 36.796875 41.296875 36.796875 
Q 40.40625 36.796875 38.90625 37.640625 
Q 37.40625 38.5 36.09375 38.5 
Q 33.203125 38.5 26.296875 26.40625 
Q 26.296875 25.09375 27.09375 21.90625 
L 30.296875 8.5 
Q 31.296875 4.40625 33.296875 4.40625 
Q 34.90625 4.40625 38 8.40625 
Q 38.296875 8.796875 38.6875 9.34375 
Q 39.09375 9.90625 39.390625 10.34375 
Q 39.703125 10.796875 40.09375 11.203125 
L 41.59375 10.296875 
Q 37.296875 3.59375 34.796875 1.25 
Q 32.296875 -1.09375 29.40625 -1.09375 
Q 27 -1.09375 25.703125 0.40625 
Q 24.40625 1.90625 23.5 5.703125 
L 20.59375 17.59375 
L 11.796875 5.703125 
Q 8.703125 1.5 6.75 0.203125 
Q 4.796875 -1.09375 2.296875 -1.09375 
Q 0 -1.09375 -1.34375 0 
Q -2.703125 1.09375 -2.703125 3.09375 
Q -2.703125 4.59375 -1.75 5.640625 
Q -0.796875 6.703125 0.703125 6.703125 
Q 1.90625 6.703125 3.90625 5.59375 
Q 5.40625 4.703125 6.5 4.703125 
Q 8.203125 4.703125 11.59375 9.59375 
L 19.796875 21.203125 
L 17 33.59375 
Q 16 38 15.140625 39.203125 
Q 14.296875 40.40625 12.40625 40.40625 
Q 11.203125 40.40625 8.5 39.703125 
L 6.703125 39.203125 
L 6.40625 40.796875 
L 7.5 41.203125 
Q 15.5 44.09375 19.203125 44.09375 
Q 21.09375 44.09375 22.1875 42.296875 
Q 23.296875 40.5 24.296875 35.5 
z
" id="STIXGeneral-Italic-120"/>
     </defs>
     <g transform="translate(276.05 230.79875)scale(0.18 -0.18)">
      <use transform="translate(0 0.90625)" xlink:href="#STIXGeneral-Italic-120"/>
     </g>
    </g>
   </g>
   <g id="matplotlib.axis_2">
    <g id="ytick_1">
     <g id="line2d_6">
      <defs>
       <path d="M 0 0 
L -3.5 0 
" id="m1561a321a1" style="stroke:#000000;stroke-width:0.8;"/>
      </defs>
      <g>
       <use style="stroke:#000000;stroke-width:0.8;" x="56.9" xlink:href="#m1561a321a1" y="191.305312"/>
      </g>
     </g>
     <g id="text_7">
      <!-- 0.0 -->
      <defs>
       <path d="M 18.09375 4.296875 
Q 18.09375 2.09375 16.4375 0.5 
Q 14.796875 -1.09375 12.5 -1.09375 
Q 10.203125 -1.09375 8.59375 0.5 
Q 7 2.09375 7 4.390625 
Q 7 6.703125 8.640625 8.34375 
Q 10.296875 10 12.59375 10 
Q 14.796875 10 16.4375 8.296875 
Q 18.09375 6.59375 18.09375 4.296875 
z
" id="STIXGeneral-Regular-46"/>
      </defs>
      <g transform="translate(27.4 197.452031)scale(0.18 -0.18)">
       <use xlink:href="#STIXGeneral-Regular-48"/>
       <use x="49.999985" xlink:href="#STIXGeneral-Regular-46"/>
       <use x="74.999969" xlink:href="#STIXGeneral-Regular-48"/>
      </g>
     </g>
    </g>
    <g id="ytick_2">
     <g id="line2d_7">
      <g>
       <use style="stroke:#000000;stroke-width:0.8;" x="56.9" xlink:href="#m1561a321a1" y="117.17804"/>
      </g>
     </g>
     <g id="text_8">
      <!-- 0.5 -->
      <defs>
       <path d="M 43.796875 68.09375 
L 40.203125 59.59375 
Q 39.59375 58.296875 37.5 58.296875 
L 18.09375 58.296875 
L 14.09375 49.796875 
Q 25.09375 47.703125 30 45.25 
Q 34.90625 42.796875 39.09375 37 
Q 42.59375 32.203125 42.59375 24.296875 
Q 42.59375 17.09375 40.25 12.1875 
Q 37.90625 7.296875 32.796875 3.5 
Q 26 -1.40625 15.796875 -1.40625 
Q 10.09375 -1.40625 6.59375 0.296875 
Q 3.09375 2 3.09375 4.796875 
Q 3.09375 8.59375 7.59375 8.59375 
Q 11.203125 8.59375 15 5.5 
Q 18.90625 2.296875 22.09375 2.296875 
Q 27.296875 2.296875 31.4375 7.5 
Q 35.59375 12.703125 35.59375 19.203125 
Q 35.59375 28.796875 28.90625 34.203125 
Q 20.203125 41.203125 7.59375 41.203125 
Q 6.40625 41.203125 6.40625 42 
L 6.5 42.5 
L 17.40625 66.203125 
L 38.09375 66.203125 
Q 39.796875 66.203125 40.75 66.703125 
Q 41.703125 67.203125 42.90625 68.796875 
z
" id="STIXGeneral-Regular-53"/>
      </defs>
      <g transform="translate(27.4 123.324759)scale(0.18 -0.18)">
       <use xlink:href="#STIXGeneral-Regular-48"/>
       <use x="49.999985" xlink:href="#STIXGeneral-Regular-46"/>
       <use x="74.999969" xlink:href="#STIXGeneral-Regular-53"/>
      </g>
     </g>
    </g>
    <g id="ytick_3">
     <g id="line2d_8">
      <g>
       <use style="stroke:#000000;stroke-width:0.8;" x="56.9" xlink:href="#m1561a321a1" y="43.050767"/>
      </g>
     </g>
     <g id="text_9">
      <!-- 1.0 -->
      <defs>
       <path d="M 39.40625 0 
L 11.796875 0 
L 11.796875 1.5 
Q 17.296875 1.796875 19.296875 3.546875 
Q 21.296875 5.296875 21.296875 9.5 
L 21.296875 54.40625 
Q 21.296875 59.296875 18.296875 59.296875 
Q 16.90625 59.296875 13.796875 58.09375 
L 11.09375 57.09375 
L 11.09375 58.5 
L 29 67.59375 
L 29.90625 67.296875 
L 29.90625 7.59375 
Q 29.90625 4.296875 31.90625 2.890625 
Q 33.90625 1.5 39.40625 1.5 
z
" id="STIXGeneral-Regular-49"/>
      </defs>
      <g transform="translate(27.4 49.197486)scale(0.18 -0.18)">
       <use xlink:href="#STIXGeneral-Regular-49"/>
       <use x="49.999985" xlink:href="#STIXGeneral-Regular-46"/>
       <use x="74.999969" xlink:href="#STIXGeneral-Regular-48"/>
      </g>
     </g>
    </g>
    <g id="text_10">
     <!-- $p(x),~ q(x)$ -->
     <defs>
      <path d="M 21.5 42.796875 
L 18.59375 32.796875 
Q 26.09375 44.09375 35.703125 44.09375 
Q 41.203125 44.09375 44.203125 40.796875 
Q 47.203125 37.5 47.203125 31.59375 
Q 47.203125 19.296875 37.84375 9.09375 
Q 28.5 -1.09375 17.5 -1.09375 
Q 13.90625 -1.09375 10.59375 0.59375 
Q 6.59375 -15.90625 6.59375 -16 
Q 6.59375 -17.59375 7.9375 -18.25 
Q 9.296875 -18.90625 12.796875 -18.90625 
L 12.796875 -20.5 
L -7.5 -20.5 
L -7.5 -18.90625 
Q -4.296875 -18.796875 -2.9375 -17.5 
Q -1.59375 -16.203125 -0.703125 -12.59375 
L 10.796875 30.59375 
Q 12.40625 36.40625 12.40625 37.703125 
Q 12.40625 40.40625 8 40.40625 
L 5.796875 40.40625 
L 5.59375 41.90625 
L 21.203125 44.09375 
Q 21.703125 44.09375 21.703125 43.703125 
Q 21.59375 43.203125 21.5 42.796875 
z
M 38.203125 31.296875 
Q 38.203125 35.703125 36.75 37.75 
Q 35.296875 39.796875 32 39.796875 
Q 28.09375 39.796875 24.1875 36.390625 
Q 20.296875 33 18.5 28.40625 
Q 16.296875 22.703125 14.140625 14.890625 
Q 12 7.09375 12 4.59375 
Q 12 2.90625 13.34375 1.84375 
Q 14.703125 0.796875 16.796875 0.796875 
Q 24.59375 0.796875 31.296875 10.296875 
Q 38.203125 19.90625 38.203125 31.296875 
z
" id="STIXGeneral-Italic-112"/>
      <path d="M 30.40625 -16.09375 
L 29.203125 -17.703125 
Q 17.59375 -11.09375 11.1875 0.5 
Q 4.796875 12.09375 4.796875 25.203125 
Q 4.796875 52.90625 29.5 67.59375 
L 30.40625 66 
Q 20.203125 57.296875 16.796875 48.84375 
Q 13.40625 40.40625 13.40625 25.5 
Q 13.40625 10.703125 16.90625 1.5 
Q 20.40625 -7.703125 30.40625 -16.09375 
z
" id="STIXGeneral-Regular-40"/>
      <path d="M 2.90625 66 
L 4.09375 67.59375 
Q 15.5 60.796875 22 49.1875 
Q 28.5 37.59375 28.5 24.703125 
Q 28.5 -2.59375 3.796875 -17.703125 
L 2.90625 -16.09375 
Q 13.203125 -7.59375 16.546875 0.84375 
Q 19.90625 9.296875 19.90625 24.40625 
Q 19.90625 39.59375 16.546875 48.75 
Q 13.203125 57.90625 2.90625 66 
z
" id="STIXGeneral-Regular-41"/>
      <path d="M 8.296875 -14.09375 
L 7.296875 -12.203125 
Q 15.59375 -6.59375 15.59375 -1.5 
Q 15.59375 -0.203125 14.203125 -0.203125 
Q 13.796875 -0.203125 12.84375 -0.390625 
Q 11.90625 -0.59375 11.296875 -0.59375 
Q 5.5 -0.59375 5.5 4.5 
Q 5.5 7.09375 7.140625 8.640625 
Q 8.796875 10.203125 11.5 10.203125 
Q 14.90625 10.203125 17.203125 7.75 
Q 19.5 5.296875 19.5 1.5 
Q 19.5 -3.09375 16.453125 -7.390625 
Q 13.40625 -11.703125 8.296875 -14.09375 
z
" id="STIXGeneral-Regular-44"/>
      <path d="M 48.40625 42.796875 
L 31.90625 -15.09375 
Q 31.703125 -15.90625 31.703125 -16.203125 
Q 31.703125 -19.296875 37.40625 -19.296875 
L 38.90625 -19.296875 
L 38.90625 -20.90625 
L 15.203125 -20.90625 
L 15.203125 -19.296875 
Q 19.796875 -19 21.59375 -17.796875 
Q 23.40625 -16.59375 24.296875 -13.703125 
L 33.296875 15.296875 
Q 27.40625 5.90625 22.90625 2.40625 
Q 18.40625 -1.09375 12.5 -1.09375 
Q 7.796875 -1.09375 5.140625 2 
Q 2.5 5.09375 2.5 10.5 
Q 2.5 18.203125 6.953125 26.09375 
Q 11.40625 34 18.25 39.046875 
Q 25.09375 44.09375 31.796875 44.09375 
Q 38.09375 44.09375 39.5 37.90625 
L 41.09375 42.796875 
z
M 38 35.90625 
Q 38 38.40625 36.296875 40.15625 
Q 34.59375 41.90625 32.09375 41.90625 
Q 28 41.90625 22.796875 37 
Q 17.703125 32.09375 14.390625 25.09375 
Q 11.09375 18.09375 11.09375 11.90625 
Q 11.09375 4.203125 16.40625 4.203125 
Q 20.5 4.203125 24.59375 7.796875 
Q 29.703125 12.203125 33.84375 20.953125 
Q 38 29.703125 38 35.90625 
z
" id="STIXGeneral-Italic-113"/>
     </defs>
     <g transform="translate(19.493438 144.505313)rotate(-90)scale(0.18 -0.18)">
      <use transform="translate(0 0.40625)" xlink:href="#STIXGeneral-Italic-112"/>
      <use transform="translate(50.399994 0.40625)" xlink:href="#STIXGeneral-Regular-40"/>
      <use transform="translate(83.699982 0.40625)" xlink:href="#STIXGeneral-Italic-120"/>
      <use transform="translate(128.099976 0.40625)" xlink:href="#STIXGeneral-Regular-41"/>
      <use transform="translate(161.399963 0.40625)" xlink:href="#STIXGeneral-Regular-44"/>
      <use transform="translate(224.906364 0.40625)" xlink:href="#STIXGeneral-Italic-113"/>
      <use transform="translate(274.906349 0.40625)" xlink:href="#STIXGeneral-Regular-40"/>
      <use transform="translate(308.206337 0.40625)" xlink:href="#STIXGeneral-Italic-120"/>
      <use transform="translate(352.606331 0.40625)" xlink:href="#STIXGeneral-Regular-41"/>
     </g>
    </g>
   </g>
   <g id="patch_81">
    <path clip-path="url(#pe846bbb149)" d="M 56.9 191.305312 
L 68.346153 191.305312 
L 68.346153 191.305312 
L 56.9 191.305312 
z
" style="fill:#1f77b4;opacity:0.4;"/>
   </g>
   <g id="patch_82">
    <path clip-path="url(#pe846bbb149)" d="M 68.346153 191.305312 
L 79.792306 191.305312 
L 79.792306 191.305312 
L 68.346153 191.305312 
z
" style="fill:#1f77b4;opacity:0.4;"/>
   </g>
   <g id="patch_83">
    <path clip-path="url(#pe846bbb149)" d="M 79.792306 191.305312 
L 91.238459 191.305312 
L 91.238459 191.305312 
L 79.792306 191.305312 
z
" style="fill:#1f77b4;opacity:0.4;"/>
   </g>
   <g id="patch_84">
    <path clip-path="url(#pe846bbb149)" d="M 91.238459 191.305312 
L 102.684613 191.305312 
L 102.684613 191.305312 
L 91.238459 191.305312 
z
" style="fill:#1f77b4;opacity:0.4;"/>
   </g>
   <g id="patch_85">
    <path clip-path="url(#pe846bbb149)" d="M 102.684613 191.305312 
L 114.130766 191.305312 
L 114.130766 191.305312 
L 102.684613 191.305312 
z
" style="fill:#1f77b4;opacity:0.4;"/>
   </g>
   <g id="patch_86">
    <path clip-path="url(#pe846bbb149)" d="M 114.130766 191.305312 
L 125.576919 191.305312 
L 125.576919 186.189271 
L 114.130766 186.189271 
z
" style="fill:#1f77b4;opacity:0.4;"/>
   </g>
   <g id="patch_87">
    <path clip-path="url(#pe846bbb149)" d="M 125.576919 191.305312 
L 137.023072 191.305312 
L 137.023072 187.07446 
L 125.576919 187.07446 
z
" style="fill:#1f77b4;opacity:0.4;"/>
   </g>
   <g id="patch_88">
    <path clip-path="url(#pe846bbb149)" d="M 137.023072 191.305312 
L 148.469225 191.305312 
L 148.469225 132.16413 
L 137.023072 132.16413 
z
" style="fill:#1f77b4;opacity:0.4;"/>
   </g>
   <g id="patch_89">
    <path clip-path="url(#pe846bbb149)" d="M 148.469225 191.305312 
L 159.915378 191.305312 
L 159.915378 161.080891 
L 148.469225 161.080891 
z
" style="fill:#1f77b4;opacity:0.4;"/>
   </g>
   <g id="patch_90">
    <path clip-path="url(#pe846bbb149)" d="M 159.915378 191.305312 
L 171.361545 191.305312 
L 171.361545 108.346125 
L 159.915378 108.346125 
z
" style="fill:#1f77b4;opacity:0.4;"/>
   </g>
   <g id="patch_91">
    <path clip-path="url(#pe846bbb149)" d="M 171.361545 191.305312 
L 182.807698 191.305312 
L 182.807698 152.003164 
L 171.361545 152.003164 
z
" style="fill:#1f77b4;opacity:0.4;"/>
   </g>
   <g id="patch_92">
    <path clip-path="url(#pe846bbb149)" d="M 182.807698 191.305312 
L 194.253851 191.305312 
L 194.253851 113.498992 
L 182.807698 113.498992 
z
" style="fill:#1f77b4;opacity:0.4;"/>
   </g>
   <g id="patch_93">
    <path clip-path="url(#pe846bbb149)" d="M 194.253851 191.305312 
L 205.700004 191.305312 
L 205.700004 171.83513 
L 194.253851 171.83513 
z
" style="fill:#1f77b4;opacity:0.4;"/>
   </g>
   <g id="patch_94">
    <path clip-path="url(#pe846bbb149)" d="M 205.700004 191.305312 
L 217.146158 191.305312 
L 217.146158 178.351156 
L 205.700004 178.351156 
z
" style="fill:#1f77b4;opacity:0.4;"/>
   </g>
   <g id="patch_95">
    <path clip-path="url(#pe846bbb149)" d="M 217.146158 191.305312 
L 228.592311 191.305312 
L 228.592311 191.305312 
L 217.146158 191.305312 
z
" style="fill:#1f77b4;opacity:0.4;"/>
   </g>
   <g id="patch_96">
    <path clip-path="url(#pe846bbb149)" d="M 228.592311 191.305312 
L 240.038464 191.305312 
L 240.038464 191.305312 
L 228.592311 191.305312 
z
" style="fill:#1f77b4;opacity:0.4;"/>
   </g>
   <g id="patch_97">
    <path clip-path="url(#pe846bbb149)" d="M 240.038464 191.305312 
L 251.484617 191.305312 
L 251.484617 191.305312 
L 240.038464 191.305312 
z
" style="fill:#1f77b4;opacity:0.4;"/>
   </g>
   <g id="patch_98">
    <path clip-path="url(#pe846bbb149)" d="M 251.484617 191.305312 
L 262.93077 191.305312 
L 262.93077 191.305312 
L 251.484617 191.305312 
z
" style="fill:#1f77b4;opacity:0.4;"/>
   </g>
   <g id="patch_99">
    <path clip-path="url(#pe846bbb149)" d="M 262.93077 191.305312 
L 274.376923 191.305312 
L 274.376923 191.305312 
L 262.93077 191.305312 
z
" style="fill:#1f77b4;opacity:0.4;"/>
   </g>
   <g id="patch_100">
    <path clip-path="url(#pe846bbb149)" d="M 274.376923 191.305312 
L 285.82309 191.305312 
L 285.82309 191.305312 
L 274.376923 191.305312 
z
" style="fill:#1f77b4;opacity:0.4;"/>
   </g>
   <g id="patch_101">
    <path clip-path="url(#pe846bbb149)" d="M 285.82309 191.305312 
L 297.269243 191.305312 
L 297.269243 191.305312 
L 285.82309 191.305312 
z
" style="fill:#1f77b4;opacity:0.4;"/>
   </g>
   <g id="patch_102">
    <path clip-path="url(#pe846bbb149)" d="M 297.269243 191.305312 
L 308.715396 191.305312 
L 308.715396 191.305312 
L 297.269243 191.305312 
z
" style="fill:#1f77b4;opacity:0.4;"/>
   </g>
   <g id="patch_103">
    <path clip-path="url(#pe846bbb149)" d="M 308.715396 191.305312 
L 320.161549 191.305312 
L 320.161549 191.305312 
L 308.715396 191.305312 
z
" style="fill:#1f77b4;opacity:0.4;"/>
   </g>
   <g id="patch_104">
    <path clip-path="url(#pe846bbb149)" d="M 320.161549 191.305312 
L 331.607703 191.305312 
L 331.607703 177.834891 
L 320.161549 177.834891 
z
" style="fill:#1f77b4;opacity:0.4;"/>
   </g>
   <g id="patch_105">
    <path clip-path="url(#pe846bbb149)" d="M 331.607703 191.305312 
L 343.053856 191.305312 
L 343.053856 191.305312 
L 331.607703 191.305312 
z
" style="fill:#1f77b4;opacity:0.4;"/>
   </g>
   <g id="patch_106">
    <path clip-path="url(#pe846bbb149)" d="M 343.053856 191.305312 
L 354.500009 191.305312 
L 354.500009 161.090313 
L 343.053856 161.090313 
z
" style="fill:#1f77b4;opacity:0.4;"/>
   </g>
   <g id="patch_107">
    <path clip-path="url(#pe846bbb149)" d="M 354.500009 191.305312 
L 365.946162 191.305312 
L 365.946162 159.490828 
L 354.500009 159.490828 
z
" style="fill:#1f77b4;opacity:0.4;"/>
   </g>
   <g id="patch_108">
    <path clip-path="url(#pe846bbb149)" d="M 365.946162 191.305312 
L 377.392315 191.305312 
L 377.392315 149.822018 
L 365.946162 149.822018 
z
" style="fill:#1f77b4;opacity:0.4;"/>
   </g>
   <g id="patch_109">
    <path clip-path="url(#pe846bbb149)" d="M 377.392315 191.305312 
L 388.838468 191.305312 
L 388.838468 125.005036 
L 377.392315 125.005036 
z
" style="fill:#1f77b4;opacity:0.4;"/>
   </g>
   <g id="patch_110">
    <path clip-path="url(#pe846bbb149)" d="M 388.838468 191.305312 
L 400.284622 191.305312 
L 400.284622 98.336173 
L 388.838468 98.336173 
z
" style="fill:#1f77b4;opacity:0.4;"/>
   </g>
   <g id="patch_111">
    <path clip-path="url(#pe846bbb149)" d="M 400.284622 191.305312 
L 411.730775 191.305312 
L 411.730775 144.695549 
L 400.284622 144.695549 
z
" style="fill:#1f77b4;opacity:0.4;"/>
   </g>
   <g id="patch_112">
    <path clip-path="url(#pe846bbb149)" d="M 411.730775 191.305312 
L 423.176928 191.305312 
L 423.176928 170.893185 
L 411.730775 170.893185 
z
" style="fill:#1f77b4;opacity:0.4;"/>
   </g>
   <g id="patch_113">
    <path clip-path="url(#pe846bbb149)" d="M 423.176928 191.305312 
L 434.623081 191.305312 
L 434.623081 165.303901 
L 423.176928 165.303901 
z
" style="fill:#1f77b4;opacity:0.4;"/>
   </g>
   <g id="patch_114">
    <path clip-path="url(#pe846bbb149)" d="M 434.623081 191.305312 
L 446.069234 191.305312 
L 446.069234 169.044868 
L 434.623081 169.044868 
z
" style="fill:#1f77b4;opacity:0.4;"/>
   </g>
   <g id="patch_115">
    <path clip-path="url(#pe846bbb149)" d="M 446.069234 191.305312 
L 457.515387 191.305312 
L 457.515387 191.305312 
L 446.069234 191.305312 
z
" style="fill:#1f77b4;opacity:0.4;"/>
   </g>
   <g id="patch_116">
    <path clip-path="url(#pe846bbb149)" d="M 457.515387 191.305312 
L 468.961541 191.305312 
L 468.961541 191.305312 
L 457.515387 191.305312 
z
" style="fill:#1f77b4;opacity:0.4;"/>
   </g>
   <g id="patch_117">
    <path clip-path="url(#pe846bbb149)" d="M 468.961541 191.305312 
L 480.407694 191.305312 
L 480.407694 191.305312 
L 468.961541 191.305312 
z
" style="fill:#1f77b4;opacity:0.4;"/>
   </g>
   <g id="patch_118">
    <path clip-path="url(#pe846bbb149)" d="M 480.407694 191.305312 
L 491.853847 191.305312 
L 491.853847 191.305312 
L 480.407694 191.305312 
z
" style="fill:#1f77b4;opacity:0.4;"/>
   </g>
   <g id="patch_119">
    <path clip-path="url(#pe846bbb149)" d="M 491.853847 191.305312 
L 503.3 191.305312 
L 503.3 191.305312 
L 491.853847 191.305312 
z
" style="fill:#1f77b4;opacity:0.4;"/>
   </g>
   <g id="line2d_9">
    <path clip-path="url(#pe846bbb149)" d="M 56.9 191.305037 
L 86.061808 191.224669 
L 95.034673 190.976974 
L 99.521112 190.681753 
L 104.007538 190.167983 
L 108.493964 189.313043 
L 110.73719 188.708148 
L 112.980403 187.953625 
L 115.223616 187.023369 
L 117.466842 185.889892 
L 119.710042 184.52522 
L 121.953268 182.901943 
L 124.196481 180.99471 
L 126.439694 178.781748 
L 128.68292 176.246677 
L 130.92612 173.380456 
L 133.169346 170.183075 
L 135.412559 166.66552 
L 137.655772 162.851041 
L 142.142211 154.491689 
L 153.358289 132.570781 
L 155.601502 128.743349 
L 157.844729 125.336197 
L 160.087942 122.442602 
L 162.331154 120.144504 
L 164.574367 118.508738 
L 166.81758 117.583785 
L 169.060807 117.397387 
L 171.304019 117.955166 
L 173.547232 119.240332 
L 175.790445 121.214536 
L 178.033672 123.819782 
L 180.276885 126.981192 
L 182.520097 130.61067 
L 184.76331 134.610912 
L 189.24975 143.314348 
L 195.979402 156.65651 
L 198.222615 160.843352 
L 200.465828 164.793417 
L 202.709041 168.46316 
L 204.952253 171.822728 
L 207.19548 174.855196 
L 209.438693 177.555236 
L 211.681906 179.92761 
L 213.925119 181.985282 
L 216.168345 183.747556 
L 218.411558 185.238197 
L 220.654771 186.483782 
L 222.897984 187.512155 
L 225.14121 188.351183 
L 227.384423 189.027741 
L 229.627636 189.567 
L 234.114075 190.322934 
L 238.600501 190.77212 
L 245.330153 191.107666 
L 254.303018 191.259622 
L 276.735174 191.304605 
L 310.383421 191.208344 
L 317.113073 191.027378 
L 321.599499 190.77212 
L 326.085925 190.322934 
L 330.572351 189.567002 
L 332.815577 189.027741 
L 335.058803 188.351179 
L 337.302003 187.512161 
L 339.545229 186.483782 
L 341.788429 185.238206 
L 344.031655 183.747556 
L 346.274881 181.985282 
L 348.518081 179.927623 
L 350.761307 177.555236 
L 353.004507 174.855213 
L 355.247733 171.822747 
L 357.490959 168.46316 
L 359.734159 164.793439 
L 361.977385 160.843352 
L 366.463811 152.290284 
L 375.43669 134.610912 
L 377.679889 130.610693 
L 379.923115 126.981192 
L 382.166315 123.819799 
L 384.409541 121.21455 
L 386.652768 119.240332 
L 388.895967 117.955171 
L 391.139193 117.397387 
L 393.38242 117.583785 
L 395.625619 118.50873 
L 397.868846 120.144504 
L 400.112045 122.442587 
L 402.355271 125.336197 
L 404.598498 128.743349 
L 406.841697 132.570757 
L 411.32815 141.082677 
L 420.301002 158.77625 
L 422.544228 162.851041 
L 424.787427 166.665498 
L 427.030654 170.183075 
L 429.273853 173.38042 
L 431.51708 176.246677 
L 433.760306 178.781748 
L 436.003505 180.994698 
L 438.246732 182.901943 
L 440.489958 184.52522 
L 442.733158 185.889892 
L 444.976384 187.023369 
L 447.219583 187.95362 
L 449.46281 188.708148 
L 451.706036 189.313043 
L 456.192462 190.167983 
L 460.678888 190.681753 
L 465.165314 190.976973 
L 471.894966 191.18901 
L 485.35427 191.294203 
L 503.3 191.305037 
L 503.3 191.305037 
" style="fill:none;stroke:#1f77b4;stroke-linecap:square;stroke-width:1.5;"/>
   </g>
   <g id="line2d_10">
    <path clip-path="url(#pe846bbb149)" d="M 56.9 191.305037 
L 117.466842 191.208345 
L 133.169346 190.976974 
L 144.385424 190.57791 
L 153.358289 189.991913 
L 160.087942 189.313042 
L 166.81758 188.351183 
L 171.304019 187.512158 
L 175.790445 186.483786 
L 180.276885 185.238197 
L 184.76331 183.747556 
L 189.24975 181.985287 
L 193.736175 179.927616 
L 198.222615 177.555236 
L 202.709041 174.855196 
L 207.19548 171.822737 
L 211.681906 168.463171 
L 216.168345 164.793417 
L 220.654771 160.843352 
L 227.384423 154.491689 
L 236.357288 145.56252 
L 245.330153 136.71822 
L 249.816579 132.570781 
L 254.303018 128.743339 
L 258.789444 125.336207 
L 261.032657 123.819782 
L 263.275883 122.442602 
L 265.519096 121.214543 
L 267.762309 120.144504 
L 270.005522 119.240337 
L 272.248735 118.508738 
L 274.491961 117.955166 
L 276.735174 117.583783 
L 278.978387 117.397387 
L 281.221613 117.397387 
L 283.464813 117.583782 
L 285.708039 117.955166 
L 287.951265 118.508738 
L 290.194465 119.240332 
L 292.437691 120.144504 
L 294.680891 121.214536 
L 296.924117 122.442602 
L 299.167343 123.819782 
L 303.653769 126.981192 
L 308.140195 130.61067 
L 312.626621 134.610912 
L 319.356273 141.082651 
L 335.058803 156.65651 
L 339.545229 160.843352 
L 344.031655 164.793417 
L 348.518081 168.46316 
L 353.004507 171.822728 
L 357.490959 174.855196 
L 361.977385 177.555236 
L 366.463811 179.92761 
L 370.950237 181.985282 
L 375.43669 183.747556 
L 379.923115 185.238197 
L 384.409541 186.483782 
L 388.895967 187.512155 
L 393.38242 188.351183 
L 400.112045 189.31304 
L 406.841697 189.991912 
L 413.571349 190.458913 
L 422.544228 190.850541 
L 433.760306 191.107666 
L 451.706036 191.259623 
L 494.327122 191.304575 
L 503.3 191.305037 
L 503.3 191.305037 
" style="fill:none;stroke:#2ca02c;stroke-linecap:square;stroke-width:1.5;"/>
   </g>
   <g id="patch_120">
    <path d="M 56.9 191.305312 
L 56.9 28.225312 
" style="fill:none;stroke:#000000;stroke-linecap:square;stroke-linejoin:miter;stroke-width:0.8;"/>
   </g>
   <g id="patch_121">
    <path d="M 503.3 191.305312 
L 503.3 28.225312 
" style="fill:none;stroke:#000000;stroke-linecap:square;stroke-linejoin:miter;stroke-width:0.8;"/>
   </g>
   <g id="patch_122">
    <path d="M 56.9 191.305312 
L 503.3 191.305312 
" style="fill:none;stroke:#000000;stroke-linecap:square;stroke-linejoin:miter;stroke-width:0.8;"/>
   </g>
   <g id="patch_123">
    <path d="M 56.9 28.225312 
L 503.3 28.225312 
" style="fill:none;stroke:#000000;stroke-linecap:square;stroke-linejoin:miter;stroke-width:0.8;"/>
   </g>
   <g id="text_11">
    <!-- AIS samples -->
    <defs>
     <path d="M 70.703125 0 
L 45.203125 0 
L 45.203125 1.90625 
Q 49.203125 1.90625 50.703125 2.796875 
Q 52.09375 3.5 52.09375 5.203125 
Q 52.09375 7.796875 50.203125 12.203125 
L 46.09375 21.59375 
L 19.90625 21.59375 
L 15.296875 10.203125 
Q 14.40625 7.90625 14.40625 6 
Q 14.40625 3.703125 16.046875 2.796875 
Q 17.703125 1.90625 21.40625 1.90625 
L 21.40625 0 
L 1.5 0 
L 1.5 1.90625 
Q 5.703125 2.296875 7.59375 4.9375 
Q 9.5 7.59375 14.09375 18.59375 
L 34.703125 67.40625 
L 36.703125 67.40625 
L 61.296875 11.09375 
Q 63.5 5.90625 65.25 4.09375 
Q 67 2.296875 70.703125 1.90625 
z
M 44.703125 25.703125 
L 33.09375 53.203125 
L 21.59375 25.703125 
z
" id="STIXGeneral-Regular-65"/>
     <path d="M 31.5 0 
L 1.796875 0 
L 1.796875 1.90625 
Q 8.09375 2.09375 9.796875 3.75 
Q 11.5 5.40625 11.5 11.203125 
L 11.5 55.09375 
Q 11.5 60.90625 9.890625 62.40625 
Q 8.296875 63.90625 1.796875 64.296875 
L 1.796875 66.203125 
L 31.5 66.203125 
L 31.5 64.296875 
Q 25.203125 64 23.453125 62.390625 
Q 21.703125 60.796875 21.703125 55.09375 
L 21.703125 11.203125 
Q 21.703125 5.59375 23.5 3.84375 
Q 25.296875 2.09375 31.5 1.90625 
z
" id="STIXGeneral-Regular-73"/>
     <path d="M 46.90625 46.296875 
L 44.40625 46.296875 
Q 42.703125 52.5 40.296875 55.703125 
Q 34.203125 63.5 25.796875 63.5 
Q 21.203125 63.5 18.453125 60.84375 
Q 15.703125 58.203125 15.703125 54 
Q 15.703125 52 16.703125 50.09375 
Q 17.703125 48.203125 18.84375 46.84375 
Q 20 45.5 22.890625 43.5 
Q 25.796875 41.5 27.59375 40.453125 
Q 29.40625 39.40625 33.59375 36.90625 
Q 41.703125 32.203125 45.390625 27.546875 
Q 49.09375 22.90625 49.09375 17.296875 
Q 49.09375 9 43.296875 3.796875 
Q 37.5 -1.40625 28.703125 -1.40625 
Q 22.203125 -1.40625 16.90625 0.90625 
Q 14.296875 2 12.203125 2 
Q 11 2 10.203125 1.09375 
Q 9.40625 0.203125 9.40625 -1.296875 
L 7.203125 -1.296875 
L 4.296875 19.90625 
L 6.5 19.90625 
Q 13.203125 2.203125 27.09375 2.203125 
Q 32.40625 2.203125 35.703125 5.34375 
Q 39 8.5 39 13.40625 
Q 39 18.09375 36.09375 21.296875 
Q 31.296875 26.5 19.296875 32.90625 
Q 7.09375 39.40625 7.09375 50.09375 
Q 7.09375 58.09375 12 62.84375 
Q 16.90625 67.59375 24.5 67.59375 
Q 29.796875 67.59375 35 65.40625 
Q 37.703125 64.203125 39.40625 64.203125 
Q 42 64.203125 42.59375 67.59375 
L 44.703125 67.59375 
z
" id="STIXGeneral-Regular-83"/>
     <path id="STIXGeneral-Regular-32"/>
     <path d="M 15.59375 30.09375 
L 26 23.796875 
Q 31 20.796875 32.890625 18.1875 
Q 34.796875 15.59375 34.796875 11.5 
Q 34.796875 6.5 30.640625 2.75 
Q 26.5 -1 20.796875 -1 
Q 16.09375 -1 13.5 -0.09375 
Q 10.796875 0.796875 8.90625 0.796875 
Q 7.203125 0.796875 6.5 -0.40625 
L 5.203125 -0.40625 
L 5.203125 15.296875 
L 6.796875 15.296875 
Q 8.40625 8 11.40625 4.59375 
Q 14.40625 1.203125 19.5 1.203125 
Q 23.203125 1.203125 25.5 3.296875 
Q 27.796875 5.40625 27.796875 8.59375 
Q 27.796875 13.203125 22.5 16.09375 
L 17.09375 19.09375 
Q 5.09375 25.796875 5.09375 33.59375 
Q 5.09375 39.40625 8.84375 42.65625 
Q 12.59375 45.90625 18.90625 45.90625 
Q 23.296875 45.90625 25.59375 44.796875 
Q 27.40625 44 28.40625 44 
Q 29.09375 44 30 45 
L 31.09375 45 
L 31.59375 31.40625 
L 30.09375 31.40625 
Q 28.40625 38.203125 25.84375 40.953125 
Q 23.296875 43.703125 18.796875 43.703125 
Q 15.40625 43.703125 13.34375 42 
Q 11.296875 40.296875 11.296875 36.90625 
Q 11.296875 35.203125 12.4375 33.25 
Q 13.59375 31.296875 15.59375 30.09375 
z
" id="STIXGeneral-Regular-115"/>
     <path d="M 44.203125 6.59375 
L 44.203125 3.796875 
Q 40.40625 -1 35.203125 -1 
Q 29.5 -1 28.796875 6.296875 
L 28.703125 6.296875 
Q 22.296875 -1 14.203125 -1 
Q 9.5 -1 6.59375 1.75 
Q 3.703125 4.5 3.703125 9.40625 
Q 3.703125 16.40625 10.703125 21.09375 
Q 15.5 24.296875 28.703125 29.203125 
L 28.703125 34.59375 
Q 28.703125 39.09375 26.546875 41.34375 
Q 24.40625 43.59375 20.90625 43.59375 
Q 17.90625 43.59375 15.90625 42.140625 
Q 13.90625 40.703125 13.90625 38.703125 
Q 13.90625 37.796875 14.203125 36.6875 
Q 14.5 35.59375 14.5 34.5 
Q 14.5 33 13.140625 31.703125 
Q 11.796875 30.40625 9.90625 30.40625 
Q 8.203125 30.40625 6.890625 31.703125 
Q 5.59375 33 5.59375 35 
Q 5.59375 39.796875 10.703125 43 
Q 15.40625 46 22.203125 46 
Q 30.296875 46 34 41.5 
Q 35.796875 39.40625 36.296875 37.25 
Q 36.796875 35.09375 36.796875 30.40625 
L 36.796875 11.296875 
Q 36.796875 4.703125 39.90625 4.703125 
Q 41.90625 4.703125 44.203125 6.59375 
z
M 28.703125 12.703125 
L 28.703125 26.796875 
Q 19.5 23.59375 15.90625 20.203125 
Q 12.5 17.09375 12.5 12.5 
Q 12.5 8.703125 14.390625 6.75 
Q 16.296875 4.796875 19.40625 4.796875 
Q 22.703125 4.796875 25.203125 6.40625 
Q 27.296875 7.90625 28 9.203125 
Q 28.703125 10.5 28.703125 12.703125 
z
" id="STIXGeneral-Regular-97"/>
     <path d="M 77.5 0 
L 55.703125 0 
L 55.703125 1.5 
Q 59.90625 1.90625 61.046875 3.25 
Q 62.203125 4.59375 62.203125 9 
L 62.203125 29.59375 
Q 62.203125 35.59375 60.453125 38.1875 
Q 58.703125 40.796875 54.5 40.796875 
Q 51 40.796875 48.546875 39.390625 
Q 46.09375 38 43.796875 34.703125 
L 43.796875 9.5 
Q 43.796875 4.703125 45.25 3.140625 
Q 46.703125 1.59375 51 1.5 
L 51 0 
L 28.59375 0 
L 28.59375 1.5 
Q 33 1.796875 34.203125 2.9375 
Q 35.40625 4.09375 35.40625 8.59375 
L 35.40625 29.703125 
Q 35.40625 40.796875 28.90625 40.796875 
Q 26.09375 40.796875 22.9375 39.546875 
Q 19.796875 38.296875 18.296875 36.5 
Q 17 35 17 34.796875 
L 17 7 
Q 17 3.796875 18.390625 2.75 
Q 19.796875 1.703125 23.796875 1.5 
L 23.796875 0 
L 1.59375 0 
L 1.59375 1.5 
Q 5.796875 1.59375 7.1875 3.046875 
Q 8.59375 4.5 8.59375 8.796875 
L 8.59375 33.59375 
Q 8.59375 37.296875 7.796875 38.75 
Q 7 40.203125 5.09375 40.203125 
Q 3.59375 40.203125 1.90625 39.796875 
L 1.90625 41.5 
Q 8.703125 43.40625 15.796875 46 
L 16.59375 45.703125 
L 16.59375 38.296875 
L 16.796875 38.296875 
Q 21.296875 43 24.75 44.5 
Q 28.203125 46 32.09375 46 
Q 40 46 42.703125 37.59375 
Q 50.5 46 59 46 
Q 70.59375 46 70.59375 28 
L 70.59375 7.703125 
Q 70.59375 4.40625 71.59375 3.15625 
Q 72.59375 1.90625 74.90625 1.703125 
L 77.5 1.5 
z
" id="STIXGeneral-Regular-109"/>
     <path d="M 15.90625 45.796875 
L 15.90625 38.09375 
Q 22.203125 46 30.296875 46 
Q 37.59375 46 42.296875 40 
Q 47 34 47 24.703125 
Q 47 13.796875 40.953125 6.390625 
Q 34.90625 -1 26 -1 
Q 22.90625 -1 20.75 -0.09375 
Q 18.59375 0.796875 15.90625 3.296875 
L 15.90625 -12.40625 
Q 15.90625 -17.09375 17.5 -18.4375 
Q 19.09375 -19.796875 24.703125 -19.90625 
L 24.703125 -21.703125 
L 0.5 -21.703125 
L 0.5 -20 
Q 4.90625 -19.59375 6.203125 -18.296875 
Q 7.5 -17 7.5 -13.09375 
L 7.5 33.703125 
Q 7.5 37.203125 6.703125 38.296875 
Q 5.90625 39.40625 3.40625 39.40625 
Q 1.796875 39.40625 0.90625 39.296875 
L 0.90625 40.90625 
Q 7.90625 43 15.296875 46 
z
M 15.90625 33.40625 
L 15.90625 8.796875 
Q 15.90625 6.59375 19.34375 4.390625 
Q 22.796875 2.203125 26.296875 2.203125 
Q 31.703125 2.203125 35.046875 7.296875 
Q 38.40625 12.40625 38.40625 20.703125 
Q 38.40625 29.5 35.046875 34.75 
Q 31.703125 40 26.09375 40 
Q 22.59375 40 19.25 37.796875 
Q 15.90625 35.59375 15.90625 33.40625 
z
" id="STIXGeneral-Regular-112"/>
     <path d="M 25.703125 0 
L 2.09375 0 
L 2.09375 1.5 
Q 6.796875 1.90625 8.296875 3.453125 
Q 9.796875 5 9.796875 9.203125 
L 9.796875 56.09375 
Q 9.796875 59.703125 8.890625 61.09375 
Q 8 62.5 5.59375 62.5 
Q 3.5 62.5 1.90625 62.296875 
L 1.90625 63.90625 
Q 11.40625 66.203125 17.703125 68.296875 
L 18.203125 67.90625 
L 18.203125 8.703125 
Q 18.203125 4.5 19.59375 3.140625 
Q 21 1.796875 25.703125 1.5 
z
" id="STIXGeneral-Regular-108"/>
     <path d="M 40.796875 16.40625 
L 42.40625 15.703125 
Q 36.40625 -1 21.5 -1 
Q 12.703125 -1 7.59375 5.140625 
Q 2.5 11.296875 2.5 21.703125 
Q 2.5 32.40625 8.203125 39.203125 
Q 13.90625 46 23.203125 46 
Q 32.203125 46 37.09375 39.09375 
Q 40 35.09375 40.5 27.703125 
L 9.703125 27.703125 
Q 10.09375 21.40625 10.9375 18.09375 
Q 11.796875 14.796875 14.296875 11.40625 
Q 18.5 5.90625 25.40625 5.90625 
Q 30.296875 5.90625 33.640625 8.296875 
Q 37 10.703125 40.796875 16.40625 
z
M 9.90625 30.90625 
L 30.296875 30.90625 
Q 29.40625 37.203125 27.34375 39.796875 
Q 25.296875 42.40625 20.5 42.40625 
Q 16.296875 42.40625 13.5 39.453125 
Q 10.703125 36.5 9.90625 30.90625 
z
" id="STIXGeneral-Regular-101"/>
    </defs>
    <g transform="translate(224.185625 22.225312)scale(0.22 -0.22)">
     <use xlink:href="#STIXGeneral-Regular-65"/>
     <use x="72.199982" xlink:href="#STIXGeneral-Regular-73"/>
     <use x="105.499969" xlink:href="#STIXGeneral-Regular-83"/>
     <use x="161.09996" xlink:href="#STIXGeneral-Regular-32"/>
     <use x="186.099945" xlink:href="#STIXGeneral-Regular-115"/>
     <use x="224.999939" xlink:href="#STIXGeneral-Regular-97"/>
     <use x="269.399933" xlink:href="#STIXGeneral-Regular-109"/>
     <use x="347.199921" xlink:href="#STIXGeneral-Regular-112"/>
     <use x="397.199905" xlink:href="#STIXGeneral-Regular-108"/>
     <use x="424.999893" xlink:href="#STIXGeneral-Regular-101"/>
     <use x="469.399887" xlink:href="#STIXGeneral-Regular-115"/>
    </g>
   </g>
   <g id="legend_1">
    <g id="patch_124">
     <path d="M 68.1 109.105312 
L 266.84 109.105312 
Q 270.04 109.105312 270.04 105.905312 
L 270.04 39.425312 
Q 270.04 36.225312 266.84 36.225312 
L 68.1 36.225312 
Q 64.9 36.225312 64.9 39.425312 
L 64.9 105.905312 
Q 64.9 109.105312 68.1 109.105312 
z
" style="fill:#ffffff;opacity:0.8;stroke:#cccccc;stroke-linejoin:miter;"/>
    </g>
    <g id="patch_125">
     <path d="M 71.3 53.825312 
L 103.3 53.825312 
L 103.3 42.625312 
L 71.3 42.625312 
z
" style="fill:#2ca02c;opacity:0.4;"/>
    </g>
    <g id="text_12">
     <!-- Initial samples from $q$ -->
     <defs>
      <path d="M 48.5 0 
L 27.703125 0 
L 27.796875 1.5 
Q 31.5 1.796875 32.75 3.640625 
Q 34 5.5 34 10.5 
L 34 30.40625 
Q 34 40.5 26.703125 40.5 
Q 24.203125 40.5 22 39.296875 
Q 19.796875 38.09375 16.40625 34.796875 
L 16.40625 7.203125 
Q 16.40625 4.203125 17.75 3 
Q 19.09375 1.796875 22.90625 1.5 
L 22.90625 0 
L 1.796875 0 
L 1.796875 1.5 
Q 5.59375 1.796875 6.796875 3.34375 
Q 8 4.90625 8 9.40625 
L 8 33.703125 
Q 8 37.40625 7.296875 38.796875 
Q 6.59375 40.203125 4.5 40.203125 
Q 2.5 40.203125 1.59375 39.796875 
L 1.59375 41.5 
Q 8.59375 43.5 15.296875 46 
L 16.09375 45.703125 
L 16.09375 37.90625 
L 16.203125 37.90625 
Q 23.296875 46 30.59375 46 
Q 36.296875 46 39.34375 42 
Q 42.40625 38 42.40625 30.59375 
L 42.40625 8.5 
Q 42.40625 4.5 43.59375 3.203125 
Q 44.796875 1.90625 48.5 1.5 
z
" id="STIXGeneral-Regular-110"/>
      <path d="M 18 63.203125 
Q 18 61 16.5 59.546875 
Q 15 58.09375 12.796875 58.09375 
Q 10.703125 58.09375 9.25 59.546875 
Q 7.796875 61 7.796875 63.203125 
Q 7.796875 65.296875 9.296875 66.796875 
Q 10.796875 68.296875 12.90625 68.296875 
Q 15.09375 68.296875 16.546875 66.796875 
Q 18 65.296875 18 63.203125 
z
M 25.296875 0 
L 1.59375 0 
L 1.59375 1.5 
Q 6.796875 1.796875 8.140625 3.296875 
Q 9.5 4.796875 9.5 10.40625 
L 9.5 33.09375 
Q 9.5 36.59375 8.796875 38 
Q 8.09375 39.40625 6.203125 39.40625 
Q 3.796875 39.40625 2 38.90625 
L 2 40.5 
L 17.5 46 
L 17.90625 45.59375 
L 17.90625 10.5 
Q 17.90625 4.90625 19.15625 3.40625 
Q 20.40625 1.90625 25.296875 1.5 
z
" id="STIXGeneral-Regular-105"/>
      <path d="M 26.59375 7.703125 
L 27.90625 6.59375 
Q 23.09375 -1 15.796875 -1 
Q 7 -1 7 11.703125 
L 7 41.796875 
L 1.703125 41.796875 
Q 1.296875 42.09375 1.296875 42.5 
Q 1.296875 43.296875 3 44.40625 
Q 6.796875 46.59375 12.703125 55.09375 
Q 12.90625 55.40625 13.65625 56.34375 
Q 14.40625 57.296875 14.703125 57.90625 
Q 15.40625 57.90625 15.40625 56.59375 
L 15.40625 45 
L 25.5 45 
L 25.5 41.796875 
L 15.40625 41.796875 
L 15.40625 13.203125 
Q 15.40625 8.40625 16.59375 6.296875 
Q 17.796875 4.203125 20.59375 4.203125 
Q 23.59375 4.203125 26.59375 7.703125 
z
" id="STIXGeneral-Regular-116"/>
      <path d="M 2.09375 45 
L 10.296875 45 
Q 10.40625 51 11.09375 54.34375 
Q 11.796875 57.703125 13.796875 61.09375 
Q 18 68.296875 27.90625 68.296875 
Q 32.40625 68.296875 35.34375 66.546875 
Q 38.296875 64.796875 38.296875 62.09375 
Q 38.296875 60.40625 37.09375 59.203125 
Q 35.90625 58 34.09375 58 
Q 31.703125 58 29.59375 61.59375 
Q 27.203125 65.5 24.296875 65.5 
Q 18.703125 65.5 18.703125 56.59375 
L 18.703125 45 
L 30.90625 45 
L 30.90625 41.796875 
L 18.703125 41.796875 
L 18.703125 10.40625 
Q 18.703125 4.796875 20.296875 3.25 
Q 21.90625 1.703125 28 1.5 
L 28 0 
L 2 0 
L 2 1.5 
Q 7.40625 1.796875 8.84375 3.34375 
Q 10.296875 4.90625 10.296875 10.40625 
L 10.296875 41.796875 
L 2.09375 41.796875 
z
" id="STIXGeneral-Regular-102"/>
      <path d="M 16 45.796875 
L 16 36.59375 
Q 19.796875 42 22.34375 44 
Q 24.90625 46 28 46 
Q 30.59375 46 32.046875 44.59375 
Q 33.5 43.203125 33.5 40.703125 
Q 33.5 38.59375 32.453125 37.390625 
Q 31.40625 36.203125 29.59375 36.203125 
Q 27.703125 36.203125 25.59375 38.203125 
Q 24 39.703125 23 39.703125 
Q 20.90625 39.703125 18.453125 36.796875 
Q 16 33.90625 16 31.5 
L 16 9 
Q 16 4.703125 17.703125 3.203125 
Q 19.40625 1.703125 24.5 1.5 
L 24.5 0 
L 0.5 0 
L 0.5 1.5 
Q 5.296875 2.40625 6.4375 3.5 
Q 7.59375 4.59375 7.59375 8.40625 
L 7.59375 33.40625 
Q 7.59375 36.703125 6.84375 38.046875 
Q 6.09375 39.40625 4.203125 39.40625 
Q 2.59375 39.40625 0.703125 39 
L 0.703125 40.59375 
Q 7 42.59375 15.5 46 
z
" id="STIXGeneral-Regular-114"/>
      <path d="M 47 23.09375 
Q 47 12.59375 40.75 5.796875 
Q 34.5 -1 24.5 -1 
Q 15.296875 -1 9.09375 5.75 
Q 2.90625 12.5 2.90625 22.796875 
Q 2.90625 33.203125 9.09375 39.59375 
Q 15.296875 46 25.40625 46 
Q 34.703125 46 40.84375 39.640625 
Q 47 33.296875 47 23.09375 
z
M 38 20.40625 
Q 38 31.796875 33 38.203125 
Q 29 43.203125 23.5 43.203125 
Q 18.296875 43.203125 15.09375 38.953125 
Q 11.90625 34.703125 11.90625 27.296875 
Q 11.90625 14.5 17.203125 6.796875 
Q 20.59375 1.796875 26.203125 1.796875 
Q 31.703125 1.796875 34.84375 6.75 
Q 38 11.703125 38 20.40625 
z
" id="STIXGeneral-Regular-111"/>
     </defs>
     <g transform="translate(116.1 53.825312)scale(0.16 -0.16)">
      <use transform="translate(0 0.703125)" xlink:href="#STIXGeneral-Regular-73"/>
      <use transform="translate(33.299988 0.703125)" xlink:href="#STIXGeneral-Regular-110"/>
      <use transform="translate(83.299973 0.703125)" xlink:href="#STIXGeneral-Regular-105"/>
      <use transform="translate(111.09996 0.703125)" xlink:href="#STIXGeneral-Regular-116"/>
      <use transform="translate(138.899948 0.703125)" xlink:href="#STIXGeneral-Regular-105"/>
      <use transform="translate(166.699936 0.703125)" xlink:href="#STIXGeneral-Regular-97"/>
      <use transform="translate(211.09993 0.703125)" xlink:href="#STIXGeneral-Regular-108"/>
      <use transform="translate(238.899918 0.703125)" xlink:href="#STIXGeneral-Regular-32"/>
      <use transform="translate(263.899902 0.703125)" xlink:href="#STIXGeneral-Regular-115"/>
      <use transform="translate(302.799896 0.703125)" xlink:href="#STIXGeneral-Regular-97"/>
      <use transform="translate(347.19989 0.703125)" xlink:href="#STIXGeneral-Regular-109"/>
      <use transform="translate(424.999878 0.703125)" xlink:href="#STIXGeneral-Regular-112"/>
      <use transform="translate(474.999863 0.703125)" xlink:href="#STIXGeneral-Regular-108"/>
      <use transform="translate(502.79985 0.703125)" xlink:href="#STIXGeneral-Regular-101"/>
      <use transform="translate(547.199844 0.703125)" xlink:href="#STIXGeneral-Regular-115"/>
      <use transform="translate(586.099838 0.703125)" xlink:href="#STIXGeneral-Regular-32"/>
      <use transform="translate(611.099823 0.703125)" xlink:href="#STIXGeneral-Regular-102"/>
      <use transform="translate(644.399811 0.703125)" xlink:href="#STIXGeneral-Regular-114"/>
      <use transform="translate(677.699799 0.703125)" xlink:href="#STIXGeneral-Regular-111"/>
      <use transform="translate(727.699783 0.703125)" xlink:href="#STIXGeneral-Regular-109"/>
      <use transform="translate(805.499771 0.703125)" xlink:href="#STIXGeneral-Regular-32"/>
      <use transform="translate(830.499756 0.703125)" xlink:href="#STIXGeneral-Italic-113"/>
     </g>
    </g>
    <g id="patch_126">
     <path d="M 71.3 76.545312 
L 103.3 76.545312 
L 103.3 65.345312 
L 71.3 65.345312 
z
" style="fill:#9467bd;opacity:0.4;"/>
    </g>
    <g id="text_13">
     <!-- AIS samples -->
     <g transform="translate(116.1 76.545312)scale(0.16 -0.16)">
      <use xlink:href="#STIXGeneral-Regular-65"/>
      <use x="72.199982" xlink:href="#STIXGeneral-Regular-73"/>
      <use x="105.499969" xlink:href="#STIXGeneral-Regular-83"/>
      <use x="161.09996" xlink:href="#STIXGeneral-Regular-32"/>
      <use x="186.099945" xlink:href="#STIXGeneral-Regular-115"/>
      <use x="224.999939" xlink:href="#STIXGeneral-Regular-97"/>
      <use x="269.399933" xlink:href="#STIXGeneral-Regular-109"/>
      <use x="347.199921" xlink:href="#STIXGeneral-Regular-112"/>
      <use x="397.199905" xlink:href="#STIXGeneral-Regular-108"/>
      <use x="424.999893" xlink:href="#STIXGeneral-Regular-101"/>
      <use x="469.399887" xlink:href="#STIXGeneral-Regular-115"/>
     </g>
    </g>
    <g id="patch_127">
     <path d="M 71.3 99.217812 
L 103.3 99.217812 
L 103.3 88.017812 
L 71.3 88.017812 
z
" style="fill:#1f77b4;opacity:0.4;"/>
    </g>
    <g id="text_14">
     <!-- Weighted AIS samples -->
     <defs>
      <path d="M 93.203125 66.203125 
L 93.203125 64.296875 
Q 89.203125 63.5 87.75 62.34375 
Q 86.296875 61.203125 84.90625 57.296875 
Q 73.5 26.703125 64.5 -1.09375 
L 63 -1.09375 
Q 56.90625 15.796875 47 41.203125 
L 31.59375 -1.09375 
L 30.09375 -1.09375 
Q 26.703125 9 19.953125 27.390625 
Q 13.203125 45.796875 10.90625 52.296875 
Q 8.40625 59.5 6.34375 61.84375 
Q 4.296875 64.203125 0.5 64.296875 
L 0.5 66.203125 
L 24.90625 66.203125 
L 24.90625 64.296875 
Q 21.203125 64.203125 19.84375 63.5 
Q 18.5 62.796875 18.5 61.203125 
Q 18.5 59.5 19.59375 56.5 
L 34 18.90625 
L 44.40625 47.203125 
L 41.59375 54.703125 
Q 39.203125 61.203125 37.5 62.703125 
Q 35.796875 64.203125 31.40625 64.296875 
L 31.40625 66.203125 
L 57.90625 66.203125 
L 57.90625 64.296875 
Q 50.203125 64.09375 50.203125 60.796875 
Q 50.203125 59.5 51.90625 55 
L 66.203125 18.59375 
L 78.796875 52.5 
Q 80.5 57.296875 80.5 60.203125 
Q 80.5 64.203125 73.5 64.296875 
L 73.5 66.203125 
z
" id="STIXGeneral-Regular-87"/>
      <path d="M 47 38.796875 
L 38.703125 38.796875 
Q 40.59375 34.5 40.59375 30.40625 
Q 40.59375 22.703125 35.390625 18.796875 
Q 30.203125 14.90625 25 14.90625 
Q 23.90625 14.90625 21.203125 15.203125 
L 19.296875 15.40625 
Q 17.296875 14.796875 15.296875 12.6875 
Q 13.296875 10.59375 13.296875 9.09375 
Q 13.296875 6.796875 21.09375 6.40625 
L 34 5.796875 
Q 39.5 5.59375 42.796875 2.6875 
Q 46.09375 -0.203125 46.09375 -4.90625 
Q 46.09375 -10.703125 40.09375 -15.40625 
Q 31.796875 -21.796875 20.09375 -21.796875 
Q 12.90625 -21.796875 7.84375 -18.9375 
Q 2.796875 -16.09375 2.796875 -12.09375 
Q 2.796875 -9.296875 5 -6.546875 
Q 7.203125 -3.796875 12.59375 0.09375 
Q 9.40625 1.59375 8.34375 2.6875 
Q 7.296875 3.796875 7.296875 5.40625 
Q 7.296875 8.296875 11.90625 12.296875 
Q 14.203125 14.296875 16.203125 16.296875 
Q 11.203125 18.796875 9.046875 21.890625 
Q 6.90625 25 6.90625 29.703125 
Q 6.90625 36.5 11.75 41.25 
Q 16.59375 46 23.59375 46 
Q 27.59375 46 31.59375 44.5 
L 33.796875 43.703125 
Q 36.703125 42.703125 39.296875 42.703125 
L 47 42.703125 
z
M 15.203125 33.796875 
L 15.203125 33.5 
Q 15.203125 26.296875 18.046875 21.84375 
Q 20.90625 17.40625 25.5 17.40625 
Q 28.90625 17.40625 30.90625 19.84375 
Q 32.90625 22.296875 32.90625 26.40625 
Q 32.90625 33 29.90625 38.5 
Q 27.40625 43.203125 22.59375 43.203125 
Q 19.09375 43.203125 17.140625 40.703125 
Q 15.203125 38.203125 15.203125 33.796875 
z
M 43.296875 -6.40625 
Q 43.296875 -3.59375 40.546875 -2.546875 
Q 37.796875 -1.5 30.90625 -1.5 
Q 21 -1.5 14.703125 -0.203125 
Q 11.703125 -3.796875 10.75 -5.4375 
Q 9.796875 -7.09375 9.796875 -8.796875 
Q 9.796875 -12.09375 13.75 -14.09375 
Q 17.703125 -16.09375 24.296875 -16.09375 
Q 32.796875 -16.09375 38.046875 -13.4375 
Q 43.296875 -10.796875 43.296875 -6.40625 
z
" id="STIXGeneral-Regular-103"/>
      <path d="M 48.703125 0 
L 27.5 0 
L 27.5 1.5 
Q 31.90625 2 33.09375 3.5 
Q 34.296875 5 34.296875 10.203125 
L 34.296875 30 
Q 34.296875 40.59375 26.90625 40.59375 
Q 23.90625 40.59375 21.40625 39.1875 
Q 18.90625 37.796875 15.703125 34.296875 
L 15.703125 10.203125 
Q 15.703125 5 16.890625 3.5 
Q 18.09375 2 22.5 1.5 
L 22.5 0 
L 0.90625 0 
L 0.90625 1.5 
Q 5.203125 2.09375 6.25 3.5 
Q 7.296875 4.90625 7.296875 10.203125 
L 7.296875 57.296875 
Q 7.296875 60.5 6.34375 61.453125 
Q 5.40625 62.40625 2.203125 62.40625 
Q 1.296875 62.40625 1 62.296875 
L 1 63.90625 
L 3.703125 64.703125 
Q 11.40625 67 15.203125 68.296875 
L 15.703125 68 
L 15.703125 37.59375 
Q 19.203125 42.09375 22.59375 44.046875 
Q 26 46 30.40625 46 
Q 42.703125 46 42.703125 30.09375 
L 42.703125 10.203125 
Q 42.703125 5 43.640625 3.640625 
Q 44.59375 2.296875 48.703125 1.5 
z
" id="STIXGeneral-Regular-104"/>
      <path d="M 49.09375 4.203125 
L 34.40625 -1 
L 34 -0.703125 
L 34 5.703125 
Q 29.203125 -1 21.203125 -1 
Q 12.90625 -1 7.796875 4.953125 
Q 2.703125 10.90625 2.703125 20.5 
Q 2.703125 31.09375 8.796875 38.546875 
Q 14.90625 46 23.5 46 
Q 28.90625 46 34 41.703125 
L 34 57.296875 
Q 34 60.40625 33.09375 61.40625 
Q 32.203125 62.40625 29.40625 62.40625 
Q 28 62.40625 27.203125 62.296875 
L 27.203125 63.90625 
Q 36.296875 66.296875 41.90625 68.296875 
L 42.40625 68.09375 
L 42.40625 11.40625 
Q 42.40625 7.90625 43.25 6.796875 
Q 44.09375 5.703125 46.796875 5.703125 
Q 47.40625 5.703125 49.09375 5.796875 
z
M 34 10.203125 
L 34 33.203125 
Q 34 37.203125 30.953125 40.203125 
Q 27.90625 43.203125 23.796875 43.203125 
Q 18.09375 43.203125 14.6875 38.09375 
Q 11.296875 33 11.296875 24.5 
Q 11.296875 15.296875 15.046875 9.75 
Q 18.796875 4.203125 25.09375 4.203125 
Q 29.796875 4.203125 32.5 7.40625 
Q 34 9.09375 34 10.203125 
z
" id="STIXGeneral-Regular-100"/>
     </defs>
     <g transform="translate(116.1 99.217812)scale(0.16 -0.16)">
      <use xlink:href="#STIXGeneral-Regular-87"/>
      <use x="94.399994" xlink:href="#STIXGeneral-Regular-101"/>
      <use x="138.799988" xlink:href="#STIXGeneral-Regular-105"/>
      <use x="166.599976" xlink:href="#STIXGeneral-Regular-103"/>
      <use x="216.59996" xlink:href="#STIXGeneral-Regular-104"/>
      <use x="266.599945" xlink:href="#STIXGeneral-Regular-116"/>
      <use x="294.399933" xlink:href="#STIXGeneral-Regular-101"/>
      <use x="338.799927" xlink:href="#STIXGeneral-Regular-100"/>
      <use x="388.799911" xlink:href="#STIXGeneral-Regular-32"/>
      <use x="413.799896" xlink:href="#STIXGeneral-Regular-65"/>
      <use x="485.999878" xlink:href="#STIXGeneral-Regular-73"/>
      <use x="519.299866" xlink:href="#STIXGeneral-Regular-83"/>
      <use x="574.899857" xlink:href="#STIXGeneral-Regular-32"/>
      <use x="599.899841" xlink:href="#STIXGeneral-Regular-115"/>
      <use x="638.799835" xlink:href="#STIXGeneral-Regular-97"/>
      <use x="683.199829" xlink:href="#STIXGeneral-Regular-109"/>
      <use x="760.999817" xlink:href="#STIXGeneral-Regular-112"/>
      <use x="810.999802" xlink:href="#STIXGeneral-Regular-108"/>
      <use x="838.799789" xlink:href="#STIXGeneral-Regular-101"/>
      <use x="883.199783" xlink:href="#STIXGeneral-Regular-115"/>
     </g>
    </g>
   </g>
  </g>
  <g id="axes_2">
   <g id="matplotlib.axis_3">
    <g id="ytick_4">
     <g id="line2d_11">
      <defs>
       <path d="M 0 0 
L 3.5 0 
" id="m02f5c7480f" style="stroke:#000000;stroke-width:0.8;"/>
      </defs>
      <g>
       <use style="stroke:#000000;stroke-width:0.8;" x="503.3" xlink:href="#m02f5c7480f" y="179.259631"/>
      </g>
     </g>
     <g id="text_15">
      <!-- −60 -->
      <defs>
       <path d="M 44.59375 68.40625 
L 44.796875 66.796875 
Q 33 64.90625 25.09375 57.25 
Q 17.203125 49.59375 15.203125 38.296875 
Q 21 42.796875 27.90625 42.796875 
Q 36.703125 42.796875 41.75 37.1875 
Q 46.796875 31.59375 46.796875 21.90625 
Q 46.796875 12.09375 41.703125 5.90625 
Q 35.796875 -1.40625 25.796875 -1.40625 
Q 13.59375 -1.40625 8.09375 8.703125 
Q 3.40625 17.296875 3.40625 27.90625 
Q 3.40625 44.296875 14.296875 55.5 
Q 20.5 61.90625 27.046875 64.546875 
Q 33.59375 67.203125 44.59375 68.40625 
z
M 37.796875 18.796875 
Q 37.796875 38.203125 24.296875 38.203125 
Q 19.296875 38.203125 16 35.546875 
Q 12.703125 32.90625 12.703125 26.59375 
Q 12.703125 14.90625 16.34375 8.15625 
Q 20 1.40625 26.90625 1.40625 
Q 32.203125 1.40625 35 6.15625 
Q 37.796875 10.90625 37.796875 18.796875 
z
" id="STIXGeneral-Regular-54"/>
      </defs>
      <g transform="translate(510.3 185.406349)scale(0.18 -0.18)">
       <use xlink:href="#STIXGeneral-Regular-8722"/>
       <use x="68.499985" xlink:href="#STIXGeneral-Regular-54"/>
       <use x="118.499969" xlink:href="#STIXGeneral-Regular-48"/>
      </g>
     </g>
    </g>
    <g id="ytick_5">
     <g id="line2d_12">
      <g>
       <use style="stroke:#000000;stroke-width:0.8;" x="503.3" xlink:href="#m02f5c7480f" y="109.765312"/>
      </g>
     </g>
     <g id="text_16">
      <!-- 0 -->
      <g transform="translate(510.3 115.912031)scale(0.18 -0.18)">
       <use xlink:href="#STIXGeneral-Regular-48"/>
      </g>
     </g>
    </g>
    <g id="ytick_6">
     <g id="line2d_13">
      <g>
       <use style="stroke:#000000;stroke-width:0.8;" x="503.3" xlink:href="#m02f5c7480f" y="40.270994"/>
      </g>
     </g>
     <g id="text_17">
      <!-- 60 -->
      <g transform="translate(510.3 46.417713)scale(0.18 -0.18)">
       <use xlink:href="#STIXGeneral-Regular-54"/>
       <use x="49.999985" xlink:href="#STIXGeneral-Regular-48"/>
      </g>
     </g>
    </g>
    <g id="text_18">
     <!-- $f(x)$ -->
     <defs>
      <path d="M 4.09375 42.796875 
L 13.40625 42.796875 
Q 17.296875 55.40625 20.59375 60.09375 
Q 26 67.796875 33.796875 67.796875 
Q 37.5 67.796875 39.953125 66.046875 
Q 42.40625 64.296875 42.40625 61.59375 
Q 42.40625 59.90625 41.15625 58.59375 
Q 39.90625 57.296875 38.203125 57.296875 
Q 36.796875 57.296875 35.640625 58.390625 
Q 34.5 59.5 34.5 61.203125 
Q 34.5 62.203125 35 63.09375 
Q 35.5 64 35.5 64.296875 
Q 35.5 65.59375 33.296875 65.59375 
Q 29.09375 65.59375 26.1875 60.140625 
Q 23.296875 54.703125 21.09375 42.796875 
L 31.796875 42.796875 
L 31.203125 39.59375 
L 20.40625 39.59375 
L 13.203125 7.59375 
Q 6.796875 -20.703125 -6.796875 -20.703125 
Q -10.203125 -20.703125 -12.453125 -18.953125 
Q -14.703125 -17.203125 -14.703125 -14.59375 
Q -14.703125 -12.90625 -13.59375 -11.65625 
Q -12.5 -10.40625 -10.90625 -10.40625 
Q -9.203125 -10.40625 -8.140625 -11.453125 
Q -7.09375 -12.5 -7.09375 -14.09375 
Q -7.09375 -14.796875 -7.546875 -15.640625 
Q -8 -16.5 -8 -17 
Q -8 -18.59375 -6 -18.59375 
Q 0.203125 -18.59375 3.703125 -2.40625 
L 12.5 39.59375 
L 3.40625 39.59375 
z
" id="STIXGeneral-Italic-102"/>
     </defs>
     <g transform="translate(556.923437 122.275312)rotate(-90)scale(0.18 -0.18)">
      <use transform="translate(0 0.203125)" xlink:href="#STIXGeneral-Italic-102"/>
      <use transform="translate(27.799988 0.203125)" xlink:href="#STIXGeneral-Regular-40"/>
      <use transform="translate(61.099976 0.203125)" xlink:href="#STIXGeneral-Italic-120"/>
      <use transform="translate(105.499969 0.203125)" xlink:href="#STIXGeneral-Regular-41"/>
     </g>
    </g>
   </g>
   <g id="line2d_14">
    <path clip-path="url(#pe846bbb149)" d="M 56.9 183.892585 
L 63.629652 177.387731 
L 70.359291 171.275018 
L 77.088943 165.542232 
L 83.818595 160.177196 
L 90.548234 155.167728 
L 97.277886 150.501617 
L 104.007538 146.166684 
L 110.73719 142.150737 
L 117.466842 138.441587 
L 124.196481 135.027049 
L 130.92612 131.894925 
L 137.655772 129.033019 
L 144.385424 126.429146 
L 151.115076 124.071118 
L 157.844729 121.946741 
L 164.574367 120.043831 
L 171.304019 118.350188 
L 178.033672 116.853626 
L 184.76331 115.541957 
L 193.736175 114.059599 
L 202.709041 112.855367 
L 211.681906 111.900364 
L 220.654771 111.165694 
L 231.870849 110.513179 
L 243.086927 110.103347 
L 256.546231 109.852424 
L 274.491961 109.766488 
L 305.896995 109.650866 
L 319.356273 109.362018 
L 330.572351 108.908164 
L 341.788429 108.20034 
L 350.761307 107.413296 
L 359.734159 106.398696 
L 368.707037 105.12764 
L 377.679889 103.571238 
L 384.409541 102.199291 
L 391.139193 100.63839 
L 397.868846 98.876345 
L 404.598498 96.900964 
L 411.32815 94.700058 
L 418.057775 92.261446 
L 424.787427 89.572917 
L 431.51708 86.622292 
L 438.246732 83.397378 
L 444.976384 79.885985 
L 451.706036 76.075924 
L 458.435661 71.95502 
L 465.165314 67.511049 
L 471.894966 62.731838 
L 478.624618 57.605196 
L 485.35427 52.118931 
L 492.083922 46.260854 
L 498.813574 40.018773 
L 503.3 35.63804 
L 503.3 35.63804 
" style="fill:none;stroke:#d62728;stroke-linecap:square;stroke-width:1.5;"/>
   </g>
   <g id="patch_128">
    <path d="M 56.9 191.305313 
L 56.9 28.225312 
" style="fill:none;stroke:#000000;stroke-linecap:square;stroke-linejoin:miter;stroke-width:0.8;"/>
   </g>
   <g id="patch_129">
    <path d="M 503.3 191.305313 
L 503.3 28.225312 
" style="fill:none;stroke:#000000;stroke-linecap:square;stroke-linejoin:miter;stroke-width:0.8;"/>
   </g>
   <g id="patch_130">
    <path d="M 56.9 191.305312 
L 503.3 191.305312 
" style="fill:none;stroke:#000000;stroke-linecap:square;stroke-linejoin:miter;stroke-width:0.8;"/>
   </g>
   <g id="patch_131">
    <path d="M 56.9 28.225312 
L 503.3 28.225312 
" style="fill:none;stroke:#000000;stroke-linecap:square;stroke-linejoin:miter;stroke-width:0.8;"/>
   </g>
   <g id="legend_2">
    <g id="patch_132">
     <path d="M 418.66 63.697812 
L 492.1 63.697812 
Q 495.3 63.697812 495.3 60.497812 
L 495.3 39.425312 
Q 495.3 36.225312 492.1 36.225312 
L 418.66 36.225312 
Q 415.46 36.225312 415.46 39.425312 
L 415.46 60.497812 
Q 415.46 63.697812 418.66 63.697812 
z
" style="fill:#ffffff;opacity:0.8;stroke:#cccccc;stroke-linejoin:miter;"/>
    </g>
    <g id="line2d_15">
     <path d="M 421.86 48.225312 
L 453.86 48.225312 
" style="fill:none;stroke:#d62728;stroke-linecap:square;stroke-width:1.5;"/>
    </g>
    <g id="line2d_16"/>
    <g id="text_19">
     <!-- $f(x)$ -->
     <g transform="translate(466.66 53.825312)scale(0.16 -0.16)">
      <use transform="translate(0 0.203125)" xlink:href="#STIXGeneral-Italic-102"/>
      <use transform="translate(27.799988 0.203125)" xlink:href="#STIXGeneral-Regular-40"/>
      <use transform="translate(61.099976 0.203125)" xlink:href="#STIXGeneral-Italic-120"/>
      <use transform="translate(105.499969 0.203125)" xlink:href="#STIXGeneral-Regular-41"/>
     </g>
    </g>
   </g>
  </g>
 </g>
 <defs>
  <clipPath id="pe846bbb149">
   <rect height="163.08" width="446.4" x="56.9" y="28.225312"/>
  </clipPath>
 </defs>
</svg>
