<?xml version="1.0" encoding="utf-8" standalone="no"?>
<!DOCTYPE svg PUBLIC "-//W3C//DTD SVG 1.1//EN"
  "http://www.w3.org/Graphics/SVG/1.1/DTD/svg11.dtd">
<!-- Created with matplotlib (https://matplotlib.org/) -->
<svg height="198.900625pt" version="1.1" viewBox="0 0 370.620625 198.900625" width="370.620625pt" xmlns="http://www.w3.org/2000/svg" xmlns:xlink="http://www.w3.org/1999/xlink">
 <defs>
  <style type="text/css">
*{stroke-linecap:butt;stroke-linejoin:round;}
  </style>
 </defs>
 <g id="figure_1">
  <g id="patch_1">
   <path d="M 0 198.900625 
L 370.620625 198.900625 
L 370.620625 0 
L 0 0 
z
" style="fill:none;"/>
  </g>
  <g id="axes_1">
   <g id="patch_2">
    <path d="M 28.620625 170.28 
L 363.420625 170.28 
L 363.420625 7.2 
L 28.620625 7.2 
z
" style="fill:#ffffff;"/>
   </g>
   <g id="patch_3">
    <path clip-path="url(#pb48f116c4e)" d="M -164.711811 170.28 
L -158.661218 170.28 
L -158.661218 170.054406 
L -164.711811 170.054406 
z
" style="fill:#808080;opacity:0.5;"/>
   </g>
   <g id="patch_4">
    <path clip-path="url(#pb48f116c4e)" d="M -158.661218 170.28 
L -152.610625 170.28 
L -152.610625 170.054406 
L -158.661218 170.054406 
z
" style="fill:#808080;opacity:0.5;"/>
   </g>
   <g id="patch_5">
    <path clip-path="url(#pb48f116c4e)" d="M -152.610625 170.28 
L -146.560032 170.28 
L -146.560032 170.054406 
L -152.610625 170.054406 
z
" style="fill:#808080;opacity:0.5;"/>
   </g>
   <g id="patch_6">
    <path clip-path="url(#pb48f116c4e)" d="M -146.560032 170.28 
L -140.509439 170.28 
L -140.509439 170.28 
L -146.560032 170.28 
z
" style="fill:#808080;opacity:0.5;"/>
   </g>
   <g id="patch_7">
    <path clip-path="url(#pb48f116c4e)" d="M -140.509439 170.28 
L -134.458846 170.28 
L -134.458846 170.28 
L -140.509439 170.28 
z
" style="fill:#808080;opacity:0.5;"/>
   </g>
   <g id="patch_8">
    <path clip-path="url(#pb48f116c4e)" d="M -134.458846 170.28 
L -128.408252 170.28 
L -128.408252 170.28 
L -134.458846 170.28 
z
" style="fill:#808080;opacity:0.5;"/>
   </g>
   <g id="patch_9">
    <path clip-path="url(#pb48f116c4e)" d="M -128.408252 170.28 
L -122.357659 170.28 
L -122.357659 170.28 
L -128.408252 170.28 
z
" style="fill:#808080;opacity:0.5;"/>
   </g>
   <g id="patch_10">
    <path clip-path="url(#pb48f116c4e)" d="M -122.357659 170.28 
L -116.307066 170.28 
L -116.307066 170.28 
L -122.357659 170.28 
z
" style="fill:#808080;opacity:0.5;"/>
   </g>
   <g id="patch_11">
    <path clip-path="url(#pb48f116c4e)" d="M -116.307066 170.28 
L -110.256473 170.28 
L -110.256473 170.054406 
L -116.307066 170.054406 
z
" style="fill:#808080;opacity:0.5;"/>
   </g>
   <g id="patch_12">
    <path clip-path="url(#pb48f116c4e)" d="M -110.256473 170.28 
L -104.20588 170.28 
L -104.20588 170.28 
L -110.256473 170.28 
z
" style="fill:#808080;opacity:0.5;"/>
   </g>
   <g id="patch_13">
    <path clip-path="url(#pb48f116c4e)" d="M -104.20588 170.28 
L -98.155287 170.28 
L -98.155287 170.054406 
L -104.20588 170.054406 
z
" style="fill:#808080;opacity:0.5;"/>
   </g>
   <g id="patch_14">
    <path clip-path="url(#pb48f116c4e)" d="M -98.155287 170.28 
L -92.104694 170.28 
L -92.104694 170.28 
L -98.155287 170.28 
z
" style="fill:#808080;opacity:0.5;"/>
   </g>
   <g id="patch_15">
    <path clip-path="url(#pb48f116c4e)" d="M -92.104694 170.28 
L -86.054101 170.28 
L -86.054101 170.28 
L -92.104694 170.28 
z
" style="fill:#808080;opacity:0.5;"/>
   </g>
   <g id="patch_16">
    <path clip-path="url(#pb48f116c4e)" d="M -86.054101 170.28 
L -80.003507 170.28 
L -80.003507 170.054406 
L -86.054101 170.054406 
z
" style="fill:#808080;opacity:0.5;"/>
   </g>
   <g id="patch_17">
    <path clip-path="url(#pb48f116c4e)" d="M -80.003507 170.28 
L -73.952914 170.28 
L -73.952914 170.054406 
L -80.003507 170.054406 
z
" style="fill:#808080;opacity:0.5;"/>
   </g>
   <g id="patch_18">
    <path clip-path="url(#pb48f116c4e)" d="M -73.952914 170.28 
L -67.902321 170.28 
L -67.902321 170.054406 
L -73.952914 170.054406 
z
" style="fill:#808080;opacity:0.5;"/>
   </g>
   <g id="patch_19">
    <path clip-path="url(#pb48f116c4e)" d="M -67.902321 170.28 
L -61.851728 170.28 
L -61.851728 169.152028 
L -67.902321 169.152028 
z
" style="fill:#808080;opacity:0.5;"/>
   </g>
   <g id="patch_20">
    <path clip-path="url(#pb48f116c4e)" d="M -61.851728 170.28 
L -55.801135 170.28 
L -55.801135 170.28 
L -61.851728 170.28 
z
" style="fill:#808080;opacity:0.5;"/>
   </g>
   <g id="patch_21">
    <path clip-path="url(#pb48f116c4e)" d="M -55.801135 170.28 
L -49.750542 170.28 
L -49.750542 170.054406 
L -55.801135 170.054406 
z
" style="fill:#808080;opacity:0.5;"/>
   </g>
   <g id="patch_22">
    <path clip-path="url(#pb48f116c4e)" d="M -49.750542 170.28 
L -43.699949 170.28 
L -43.699949 169.603217 
L -49.750542 169.603217 
z
" style="fill:#808080;opacity:0.5;"/>
   </g>
   <g id="patch_23">
    <path clip-path="url(#pb48f116c4e)" d="M -43.699949 170.28 
L -37.649356 170.28 
L -37.649356 169.828811 
L -43.699949 169.828811 
z
" style="fill:#808080;opacity:0.5;"/>
   </g>
   <g id="patch_24">
    <path clip-path="url(#pb48f116c4e)" d="M -37.649356 170.28 
L -31.598762 170.28 
L -31.598762 168.926434 
L -37.649356 168.926434 
z
" style="fill:#808080;opacity:0.5;"/>
   </g>
   <g id="patch_25">
    <path clip-path="url(#pb48f116c4e)" d="M -31.598762 170.28 
L -25.548169 170.28 
L -25.548169 169.152028 
L -31.598762 169.152028 
z
" style="fill:#808080;opacity:0.5;"/>
   </g>
   <g id="patch_26">
    <path clip-path="url(#pb48f116c4e)" d="M -25.548169 170.28 
L -19.497576 170.28 
L -19.497576 170.28 
L -25.548169 170.28 
z
" style="fill:#808080;opacity:0.5;"/>
   </g>
   <g id="patch_27">
    <path clip-path="url(#pb48f116c4e)" d="M -19.497576 170.28 
L -13.446983 170.28 
L -13.446983 168.926434 
L -19.497576 168.926434 
z
" style="fill:#808080;opacity:0.5;"/>
   </g>
   <g id="patch_28">
    <path clip-path="url(#pb48f116c4e)" d="M -13.446983 170.28 
L -7.39639 170.28 
L -7.39639 169.603217 
L -13.446983 169.603217 
z
" style="fill:#808080;opacity:0.5;"/>
   </g>
   <g id="patch_29">
    <path clip-path="url(#pb48f116c4e)" d="M -7.39639 170.28 
L -1.345797 170.28 
L -1.345797 168.475245 
L -7.39639 168.475245 
z
" style="fill:#808080;opacity:0.5;"/>
   </g>
   <g id="patch_30">
    <path clip-path="url(#pb48f116c4e)" d="M -1.345797 170.28 
L 4.704796 170.28 
L 4.704796 168.70084 
L -1.345797 168.70084 
z
" style="fill:#808080;opacity:0.5;"/>
   </g>
   <g id="patch_31">
    <path clip-path="url(#pb48f116c4e)" d="M 4.704796 170.28 
L 10.755389 170.28 
L 10.755389 169.377623 
L 4.704796 169.377623 
z
" style="fill:#808080;opacity:0.5;"/>
   </g>
   <g id="patch_32">
    <path clip-path="url(#pb48f116c4e)" d="M 10.755389 170.28 
L 16.805982 170.28 
L 16.805982 168.249651 
L 10.755389 168.249651 
z
" style="fill:#808080;opacity:0.5;"/>
   </g>
   <g id="patch_33">
    <path clip-path="url(#pb48f116c4e)" d="M 16.805982 170.28 
L 22.856576 170.28 
L 22.856576 167.798462 
L 16.805982 167.798462 
z
" style="fill:#808080;opacity:0.5;"/>
   </g>
   <g id="patch_34">
    <path clip-path="url(#pb48f116c4e)" d="M 22.856576 170.28 
L 28.907169 170.28 
L 28.907169 166.444896 
L 22.856576 166.444896 
z
" style="fill:#808080;opacity:0.5;"/>
   </g>
   <g id="patch_35">
    <path clip-path="url(#pb48f116c4e)" d="M 28.907169 170.28 
L 34.957762 170.28 
L 34.957762 166.67049 
L 28.907169 166.67049 
z
" style="fill:#808080;opacity:0.5;"/>
   </g>
   <g id="patch_36">
    <path clip-path="url(#pb48f116c4e)" d="M 34.957762 170.28 
L 41.008355 170.28 
L 41.008355 166.219302 
L 34.957762 166.219302 
z
" style="fill:#808080;opacity:0.5;"/>
   </g>
   <g id="patch_37">
    <path clip-path="url(#pb48f116c4e)" d="M 41.008355 170.28 
L 47.058948 170.28 
L 47.058948 167.121679 
L 41.008355 167.121679 
z
" style="fill:#808080;opacity:0.5;"/>
   </g>
   <g id="patch_38">
    <path clip-path="url(#pb48f116c4e)" d="M 47.058948 170.28 
L 53.109541 170.28 
L 53.109541 163.51217 
L 47.058948 163.51217 
z
" style="fill:#808080;opacity:0.5;"/>
   </g>
   <g id="patch_39">
    <path clip-path="url(#pb48f116c4e)" d="M 53.109541 170.28 
L 59.160134 170.28 
L 59.160134 161.933009 
L 53.109541 161.933009 
z
" style="fill:#808080;opacity:0.5;"/>
   </g>
   <g id="patch_40">
    <path clip-path="url(#pb48f116c4e)" d="M 59.160134 170.28 
L 65.210727 170.28 
L 65.210727 163.963358 
L 59.160134 163.963358 
z
" style="fill:#808080;opacity:0.5;"/>
   </g>
   <g id="patch_41">
    <path clip-path="url(#pb48f116c4e)" d="M 65.210727 170.28 
L 71.261321 170.28 
L 71.261321 161.707415 
L 65.210727 161.707415 
z
" style="fill:#808080;opacity:0.5;"/>
   </g>
   <g id="patch_42">
    <path clip-path="url(#pb48f116c4e)" d="M 71.261321 170.28 
L 77.311914 170.28 
L 77.311914 160.805037 
L 71.261321 160.805037 
z
" style="fill:#808080;opacity:0.5;"/>
   </g>
   <g id="patch_43">
    <path clip-path="url(#pb48f116c4e)" d="M 77.311914 170.28 
L 83.362507 170.28 
L 83.362507 156.969934 
L 77.311914 156.969934 
z
" style="fill:#808080;opacity:0.5;"/>
   </g>
   <g id="patch_44">
    <path clip-path="url(#pb48f116c4e)" d="M 83.362507 170.28 
L 89.4131 170.28 
L 89.4131 159.000283 
L 83.362507 159.000283 
z
" style="fill:#808080;opacity:0.5;"/>
   </g>
   <g id="patch_45">
    <path clip-path="url(#pb48f116c4e)" d="M 89.4131 170.28 
L 95.463693 170.28 
L 95.463693 151.330075 
L 89.4131 151.330075 
z
" style="fill:#808080;opacity:0.5;"/>
   </g>
   <g id="patch_46">
    <path clip-path="url(#pb48f116c4e)" d="M 95.463693 170.28 
L 101.514286 170.28 
L 101.514286 153.811613 
L 95.463693 153.811613 
z
" style="fill:#808080;opacity:0.5;"/>
   </g>
   <g id="patch_47">
    <path clip-path="url(#pb48f116c4e)" d="M 101.514286 170.28 
L 107.564879 170.28 
L 107.564879 153.360424 
L 101.514286 153.360424 
z
" style="fill:#808080;opacity:0.5;"/>
   </g>
   <g id="patch_48">
    <path clip-path="url(#pb48f116c4e)" d="M 107.564879 170.28 
L 113.615472 170.28 
L 113.615472 145.464622 
L 107.564879 145.464622 
z
" style="fill:#808080;opacity:0.5;"/>
   </g>
   <g id="patch_49">
    <path clip-path="url(#pb48f116c4e)" d="M 113.615472 170.28 
L 119.666066 170.28 
L 119.666066 142.306301 
L 113.615472 142.306301 
z
" style="fill:#808080;opacity:0.5;"/>
   </g>
   <g id="patch_50">
    <path clip-path="url(#pb48f116c4e)" d="M 119.666066 170.28 
L 125.716659 170.28 
L 125.716659 143.208678 
L 119.666066 143.208678 
z
" style="fill:#808080;opacity:0.5;"/>
   </g>
   <g id="patch_51">
    <path clip-path="url(#pb48f116c4e)" d="M 125.716659 170.28 
L 131.767252 170.28 
L 131.767252 130.124206 
L 125.716659 130.124206 
z
" style="fill:#808080;opacity:0.5;"/>
   </g>
   <g id="patch_52">
    <path clip-path="url(#pb48f116c4e)" d="M 131.767252 170.28 
L 137.817845 170.28 
L 137.817845 126.965886 
L 131.767252 126.965886 
z
" style="fill:#808080;opacity:0.5;"/>
   </g>
   <g id="patch_53">
    <path clip-path="url(#pb48f116c4e)" d="M 137.817845 170.28 
L 143.868438 170.28 
L 143.868438 123.58197 
L 137.817845 123.58197 
z
" style="fill:#808080;opacity:0.5;"/>
   </g>
   <g id="patch_54">
    <path clip-path="url(#pb48f116c4e)" d="M 143.868438 170.28 
L 149.919031 170.28 
L 149.919031 108.01596 
L 143.868438 108.01596 
z
" style="fill:#808080;opacity:0.5;"/>
   </g>
   <g id="patch_55">
    <path clip-path="url(#pb48f116c4e)" d="M 149.919031 170.28 
L 155.969624 170.28 
L 155.969624 105.083234 
L 149.919031 105.083234 
z
" style="fill:#808080;opacity:0.5;"/>
   </g>
   <g id="patch_56">
    <path clip-path="url(#pb48f116c4e)" d="M 155.969624 170.28 
L 162.020217 170.28 
L 162.020217 93.352328 
L 155.969624 93.352328 
z
" style="fill:#808080;opacity:0.5;"/>
   </g>
   <g id="patch_57">
    <path clip-path="url(#pb48f116c4e)" d="M 162.020217 170.28 
L 168.070811 170.28 
L 168.070811 73.951214 
L 162.020217 73.951214 
z
" style="fill:#808080;opacity:0.5;"/>
   </g>
   <g id="patch_58">
    <path clip-path="url(#pb48f116c4e)" d="M 168.070811 170.28 
L 174.121404 170.28 
L 174.121404 66.055412 
L 168.070811 66.055412 
z
" style="fill:#808080;opacity:0.5;"/>
   </g>
   <g id="patch_59">
    <path clip-path="url(#pb48f116c4e)" d="M 174.121404 170.28 
L 180.171997 170.28 
L 180.171997 57.482827 
L 174.121404 57.482827 
z
" style="fill:#808080;opacity:0.5;"/>
   </g>
   <g id="patch_60">
    <path clip-path="url(#pb48f116c4e)" d="M 180.171997 170.28 
L 186.22259 170.28 
L 186.22259 49.36143 
L 180.171997 49.36143 
z
" style="fill:#808080;opacity:0.5;"/>
   </g>
   <g id="patch_61">
    <path clip-path="url(#pb48f116c4e)" d="M 186.22259 170.28 
L 192.273183 170.28 
L 192.273183 55.903666 
L 186.22259 55.903666 
z
" style="fill:#808080;opacity:0.5;"/>
   </g>
   <g id="patch_62">
    <path clip-path="url(#pb48f116c4e)" d="M 192.273183 170.28 
L 198.323776 170.28 
L 198.323776 63.122685 
L 192.273183 63.122685 
z
" style="fill:#808080;opacity:0.5;"/>
   </g>
   <g id="patch_63">
    <path clip-path="url(#pb48f116c4e)" d="M 198.323776 170.28 
L 204.374369 170.28 
L 204.374369 61.994714 
L 198.323776 61.994714 
z
" style="fill:#808080;opacity:0.5;"/>
   </g>
   <g id="patch_64">
    <path clip-path="url(#pb48f116c4e)" d="M 204.374369 170.28 
L 210.424962 170.28 
L 210.424962 60.866742 
L 204.374369 60.866742 
z
" style="fill:#808080;opacity:0.5;"/>
   </g>
   <g id="patch_65">
    <path clip-path="url(#pb48f116c4e)" d="M 210.424962 170.28 
L 216.475555 170.28 
L 216.475555 58.385204 
L 210.424962 58.385204 
z
" style="fill:#808080;opacity:0.5;"/>
   </g>
   <g id="patch_66">
    <path clip-path="url(#pb48f116c4e)" d="M 216.475555 170.28 
L 222.526149 170.28 
L 222.526149 61.317931 
L 216.475555 61.317931 
z
" style="fill:#808080;opacity:0.5;"/>
   </g>
   <g id="patch_67">
    <path clip-path="url(#pb48f116c4e)" d="M 222.526149 170.28 
L 228.576742 170.28 
L 228.576742 64.476252 
L 222.526149 64.476252 
z
" style="fill:#808080;opacity:0.5;"/>
   </g>
   <g id="patch_68">
    <path clip-path="url(#pb48f116c4e)" d="M 228.576742 170.28 
L 234.627335 170.28 
L 234.627335 78.011912 
L 228.576742 78.011912 
z
" style="fill:#808080;opacity:0.5;"/>
   </g>
   <g id="patch_69">
    <path clip-path="url(#pb48f116c4e)" d="M 234.627335 170.28 
L 240.677928 170.28 
L 240.677928 94.705894 
L 234.627335 94.705894 
z
" style="fill:#808080;opacity:0.5;"/>
   </g>
   <g id="patch_70">
    <path clip-path="url(#pb48f116c4e)" d="M 240.677928 170.28 
L 246.728521 170.28 
L 246.728521 103.278479 
L 240.677928 103.278479 
z
" style="fill:#808080;opacity:0.5;"/>
   </g>
   <g id="patch_71">
    <path clip-path="url(#pb48f116c4e)" d="M 246.728521 170.28 
L 252.779114 170.28 
L 252.779114 118.618895 
L 246.728521 118.618895 
z
" style="fill:#808080;opacity:0.5;"/>
   </g>
   <g id="patch_72">
    <path clip-path="url(#pb48f116c4e)" d="M 252.779114 170.28 
L 258.829707 170.28 
L 258.829707 125.386725 
L 252.779114 125.386725 
z
" style="fill:#808080;opacity:0.5;"/>
   </g>
   <g id="patch_73">
    <path clip-path="url(#pb48f116c4e)" d="M 258.829707 170.28 
L 264.8803 170.28 
L 264.8803 137.56882 
L 258.829707 137.56882 
z
" style="fill:#808080;opacity:0.5;"/>
   </g>
   <g id="patch_74">
    <path clip-path="url(#pb48f116c4e)" d="M 264.8803 170.28 
L 270.930894 170.28 
L 270.930894 143.885461 
L 264.8803 143.885461 
z
" style="fill:#808080;opacity:0.5;"/>
   </g>
   <g id="patch_75">
    <path clip-path="url(#pb48f116c4e)" d="M 270.930894 170.28 
L 276.981487 170.28 
L 276.981487 151.104481 
L 270.930894 151.104481 
z
" style="fill:#808080;opacity:0.5;"/>
   </g>
   <g id="patch_76">
    <path clip-path="url(#pb48f116c4e)" d="M 276.981487 170.28 
L 283.03208 170.28 
L 283.03208 155.616367 
L 276.981487 155.616367 
z
" style="fill:#808080;opacity:0.5;"/>
   </g>
   <g id="patch_77">
    <path clip-path="url(#pb48f116c4e)" d="M 283.03208 170.28 
L 289.082673 170.28 
L 289.082673 157.646717 
L 283.03208 157.646717 
z
" style="fill:#808080;opacity:0.5;"/>
   </g>
   <g id="patch_78">
    <path clip-path="url(#pb48f116c4e)" d="M 289.082673 170.28 
L 295.133266 170.28 
L 295.133266 160.579443 
L 289.082673 160.579443 
z
" style="fill:#808080;opacity:0.5;"/>
   </g>
   <g id="patch_79">
    <path clip-path="url(#pb48f116c4e)" d="M 295.133266 170.28 
L 301.183859 170.28 
L 301.183859 159.90266 
L 295.133266 159.90266 
z
" style="fill:#808080;opacity:0.5;"/>
   </g>
   <g id="patch_80">
    <path clip-path="url(#pb48f116c4e)" d="M 301.183859 170.28 
L 307.234452 170.28 
L 307.234452 164.188953 
L 301.183859 164.188953 
z
" style="fill:#808080;opacity:0.5;"/>
   </g>
   <g id="patch_81">
    <path clip-path="url(#pb48f116c4e)" d="M 307.234452 170.28 
L 313.285045 170.28 
L 313.285045 165.542519 
L 307.234452 165.542519 
z
" style="fill:#808080;opacity:0.5;"/>
   </g>
   <g id="patch_82">
    <path clip-path="url(#pb48f116c4e)" d="M 313.285045 170.28 
L 319.335639 170.28 
L 319.335639 164.865736 
L 313.285045 164.865736 
z
" style="fill:#808080;opacity:0.5;"/>
   </g>
   <g id="patch_83">
    <path clip-path="url(#pb48f116c4e)" d="M 319.335639 170.28 
L 325.386232 170.28 
L 325.386232 165.993707 
L 319.335639 165.993707 
z
" style="fill:#808080;opacity:0.5;"/>
   </g>
   <g id="patch_84">
    <path clip-path="url(#pb48f116c4e)" d="M 325.386232 170.28 
L 331.436825 170.28 
L 331.436825 168.024057 
L 325.386232 168.024057 
z
" style="fill:#808080;opacity:0.5;"/>
   </g>
   <g id="patch_85">
    <path clip-path="url(#pb48f116c4e)" d="M 331.436825 170.28 
L 337.487418 170.28 
L 337.487418 167.572868 
L 331.436825 167.572868 
z
" style="fill:#808080;opacity:0.5;"/>
   </g>
   <g id="patch_86">
    <path clip-path="url(#pb48f116c4e)" d="M 337.487418 170.28 
L 343.538011 170.28 
L 343.538011 168.249651 
L 337.487418 168.249651 
z
" style="fill:#808080;opacity:0.5;"/>
   </g>
   <g id="patch_87">
    <path clip-path="url(#pb48f116c4e)" d="M 343.538011 170.28 
L 349.588604 170.28 
L 349.588604 169.152028 
L 343.538011 169.152028 
z
" style="fill:#808080;opacity:0.5;"/>
   </g>
   <g id="patch_88">
    <path clip-path="url(#pb48f116c4e)" d="M 349.588604 170.28 
L 355.639197 170.28 
L 355.639197 169.377623 
L 349.588604 169.377623 
z
" style="fill:#808080;opacity:0.5;"/>
   </g>
   <g id="patch_89">
    <path clip-path="url(#pb48f116c4e)" d="M 355.639197 170.28 
L 361.68979 170.28 
L 361.68979 169.603217 
L 355.639197 169.603217 
z
" style="fill:#808080;opacity:0.5;"/>
   </g>
   <g id="patch_90">
    <path clip-path="url(#pb48f116c4e)" d="M 361.68979 170.28 
L 367.740383 170.28 
L 367.740383 168.475245 
L 361.68979 168.475245 
z
" style="fill:#808080;opacity:0.5;"/>
   </g>
   <g id="patch_91">
    <path clip-path="url(#pb48f116c4e)" d="M 367.740383 170.28 
L 373.790977 170.28 
L 373.790977 169.377623 
L 367.740383 169.377623 
z
" style="fill:#808080;opacity:0.5;"/>
   </g>
   <g id="patch_92">
    <path clip-path="url(#pb48f116c4e)" d="M 373.790977 170.28 
L 379.84157 170.28 
L 379.84157 169.603217 
L 373.790977 169.603217 
z
" style="fill:#808080;opacity:0.5;"/>
   </g>
   <g id="patch_93">
    <path clip-path="url(#pb48f116c4e)" d="M 379.84157 170.28 
L 385.892163 170.28 
L 385.892163 169.603217 
L 379.84157 169.603217 
z
" style="fill:#808080;opacity:0.5;"/>
   </g>
   <g id="patch_94">
    <path clip-path="url(#pb48f116c4e)" d="M 385.892163 170.28 
L 391.942756 170.28 
L 391.942756 170.054406 
L 385.892163 170.054406 
z
" style="fill:#808080;opacity:0.5;"/>
   </g>
   <g id="patch_95">
    <path clip-path="url(#pb48f116c4e)" d="M 391.942756 170.28 
L 397.993349 170.28 
L 397.993349 170.054406 
L 391.942756 170.054406 
z
" style="fill:#808080;opacity:0.5;"/>
   </g>
   <g id="patch_96">
    <path clip-path="url(#pb48f116c4e)" d="M 397.993349 170.28 
L 404.043942 170.28 
L 404.043942 169.828811 
L 397.993349 169.828811 
z
" style="fill:#808080;opacity:0.5;"/>
   </g>
   <g id="patch_97">
    <path clip-path="url(#pb48f116c4e)" d="M 404.043942 170.28 
L 410.094535 170.28 
L 410.094535 170.054406 
L 404.043942 170.054406 
z
" style="fill:#808080;opacity:0.5;"/>
   </g>
   <g id="patch_98">
    <path clip-path="url(#pb48f116c4e)" d="M 410.094535 170.28 
L 416.145128 170.28 
L 416.145128 170.28 
L 410.094535 170.28 
z
" style="fill:#808080;opacity:0.5;"/>
   </g>
   <g id="patch_99">
    <path clip-path="url(#pb48f116c4e)" d="M 416.145128 170.28 
L 422.195722 170.28 
L 422.195722 170.28 
L 416.145128 170.28 
z
" style="fill:#808080;opacity:0.5;"/>
   </g>
   <g id="patch_100">
    <path clip-path="url(#pb48f116c4e)" d="M 422.195722 170.28 
L 428.246315 170.28 
L 428.246315 170.28 
L 422.195722 170.28 
z
" style="fill:#808080;opacity:0.5;"/>
   </g>
   <g id="patch_101">
    <path clip-path="url(#pb48f116c4e)" d="M 428.246315 170.28 
L 434.296908 170.28 
L 434.296908 170.28 
L 428.246315 170.28 
z
" style="fill:#808080;opacity:0.5;"/>
   </g>
   <g id="patch_102">
    <path clip-path="url(#pb48f116c4e)" d="M 434.296908 170.28 
L 440.347501 170.28 
L 440.347501 170.054406 
L 434.296908 170.054406 
z
" style="fill:#808080;opacity:0.5;"/>
   </g>
   <g id="matplotlib.axis_1">
    <g id="text_1">
     <!-- $x$ -->
     <defs>
      <path d="M 60.015625 54.6875 
L 34.90625 27.875 
L 50.296875 0 
L 39.984375 0 
L 28.421875 21.6875 
L 8.296875 0 
L -2.59375 0 
L 24.3125 28.8125 
L 10.015625 54.6875 
L 20.3125 54.6875 
L 30.8125 34.90625 
L 49.125 54.6875 
z
" id="DejaVuSans-Oblique-120"/>
     </defs>
     <g transform="translate(190.620625 187.957188)scale(0.18 -0.18)">
      <use transform="translate(0 0.3125)" xlink:href="#DejaVuSans-Oblique-120"/>
     </g>
    </g>
   </g>
   <g id="matplotlib.axis_2">
    <g id="text_2">
     <!-- $f(x)~/~Z$ -->
     <defs>
      <path d="M 47.796875 75.984375 
L 46.390625 68.5 
L 37.796875 68.5 
Q 32.90625 68.5 30.6875 66.578125 
Q 28.46875 64.65625 27.390625 59.515625 
L 26.421875 54.6875 
L 41.21875 54.6875 
L 39.890625 47.703125 
L 25.09375 47.703125 
L 15.828125 0 
L 6.78125 0 
L 16.109375 47.703125 
L 7.515625 47.703125 
L 8.796875 54.6875 
L 17.390625 54.6875 
L 18.109375 58.5 
Q 19.96875 68.171875 24.625 72.078125 
Q 29.296875 75.984375 39.3125 75.984375 
z
" id="DejaVuSans-Oblique-102"/>
      <path d="M 31 75.875 
Q 24.46875 64.65625 21.28125 53.65625 
Q 18.109375 42.671875 18.109375 31.390625 
Q 18.109375 20.125 21.3125 9.0625 
Q 24.515625 -2 31 -13.1875 
L 23.1875 -13.1875 
Q 15.875 -1.703125 12.234375 9.375 
Q 8.59375 20.453125 8.59375 31.390625 
Q 8.59375 42.28125 12.203125 53.3125 
Q 15.828125 64.359375 23.1875 75.875 
z
" id="DejaVuSans-40"/>
      <path d="M 8.015625 75.875 
L 15.828125 75.875 
Q 23.140625 64.359375 26.78125 53.3125 
Q 30.421875 42.28125 30.421875 31.390625 
Q 30.421875 20.453125 26.78125 9.375 
Q 23.140625 -1.703125 15.828125 -13.1875 
L 8.015625 -13.1875 
Q 14.5 -2 17.703125 9.0625 
Q 20.90625 20.125 20.90625 31.390625 
Q 20.90625 42.671875 17.703125 53.65625 
Q 14.5 64.65625 8.015625 75.875 
z
" id="DejaVuSans-41"/>
      <path d="M 25.390625 72.90625 
L 33.6875 72.90625 
L 8.296875 -9.28125 
L 0 -9.28125 
z
" id="DejaVuSans-47"/>
      <path d="M 13.09375 72.90625 
L 70.3125 72.90625 
L 68.890625 65.375 
L 12.40625 8.296875 
L 58.890625 8.296875 
L 57.328125 0 
L -2.203125 0 
L -0.78125 7.515625 
L 55.71875 64.59375 
L 11.53125 64.59375 
z
" id="DejaVuSans-Oblique-90"/>
     </defs>
     <g transform="translate(20.877187 119.34)rotate(-90)scale(0.18 -0.18)">
      <use transform="translate(0 0.015625)" xlink:href="#DejaVuSans-Oblique-102"/>
      <use transform="translate(35.205078 0.015625)" xlink:href="#DejaVuSans-40"/>
      <use transform="translate(74.21875 0.015625)" xlink:href="#DejaVuSans-Oblique-120"/>
      <use transform="translate(133.398438 0.015625)" xlink:href="#DejaVuSans-41"/>
      <use transform="translate(204.882488 0.015625)" xlink:href="#DejaVuSans-47"/>
      <use transform="translate(271.044272 0.015625)" xlink:href="#DejaVuSans-Oblique-90"/>
     </g>
    </g>
   </g>
   <g id="line2d_1">
    <path clip-path="url(#pb48f116c4e)" d="M 28.620625 166.889627 
L 38.715097 165.96479 
L 47.127158 165.004091 
L 55.539218 163.829511 
L 62.268866 162.704192 
L 68.998514 161.382556 
L 75.728163 159.830354 
L 82.457811 158.007364 
L 87.505047 156.434295 
L 92.552283 154.659594 
L 97.599519 152.657418 
L 102.646756 150.39861 
L 107.693992 147.850274 
L 112.741228 144.9753 
L 117.788464 141.73182 
L 121.153288 139.341691 
L 124.518112 136.751454 
L 127.882937 133.944355 
L 131.247761 130.902239 
L 134.612585 127.605428 
L 137.977409 124.0326 
L 141.342233 120.160645 
L 144.707057 115.96452 
L 148.071881 111.417085 
L 151.436705 106.488925 
L 154.80153 101.148168 
L 158.166354 95.360268 
L 161.531178 89.087789 
L 164.896002 82.290163 
L 168.260826 74.92342 
L 171.62565 66.939915 
L 174.990474 58.28801 
L 176.672886 53.694098 
L 178.355298 52.578593 
L 196.861831 57.670074 
L 215.368364 62.54131 
L 228.82766 65.951147 
L 230.510072 69.820063 
L 233.874896 81.233741 
L 237.23972 91.350663 
L 240.604545 100.318159 
L 243.969369 108.266819 
L 247.334193 115.312399 
L 250.699017 121.557501 
L 254.063841 127.09307 
L 257.428665 131.99972 
L 260.793489 136.348904 
L 264.158313 140.203959 
L 267.523138 143.621026 
L 270.887962 146.649864 
L 274.252786 149.334584 
L 277.61761 151.714281 
L 280.982434 153.823611 
L 284.347258 155.693291 
L 287.712082 157.350549 
L 291.076906 158.819518 
L 296.124143 160.716056 
L 301.171379 162.298745 
L 306.218615 163.619523 
L 311.265851 164.721731 
L 317.995499 165.912981 
L 324.725148 166.848922 
L 333.137208 167.742024 
L 341.549268 168.402653 
L 351.643741 168.972587 
L 363.420625 169.422779 
L 363.420625 169.422779 
" style="fill:none;stroke:#ff0000;stroke-linecap:square;stroke-width:1.5;"/>
   </g>
   <g id="patch_103">
    <path d="M 28.620625 170.28 
L 28.620625 7.2 
" style="fill:none;stroke:#000000;stroke-linecap:square;stroke-linejoin:miter;stroke-width:0.8;"/>
   </g>
   <g id="patch_104">
    <path d="M 363.420625 170.28 
L 363.420625 7.2 
" style="fill:none;stroke:#000000;stroke-linecap:square;stroke-linejoin:miter;stroke-width:0.8;"/>
   </g>
   <g id="patch_105">
    <path d="M 28.620625 170.28 
L 363.420625 170.28 
" style="fill:none;stroke:#000000;stroke-linecap:square;stroke-linejoin:miter;stroke-width:0.8;"/>
   </g>
   <g id="patch_106">
    <path d="M 28.620625 7.2 
L 363.420625 7.2 
" style="fill:none;stroke:#000000;stroke-linecap:square;stroke-linejoin:miter;stroke-width:0.8;"/>
   </g>
   <g id="legend_1">
    <g id="patch_107">
     <path d="M 233.54875 44.578125 
L 356.420625 44.578125 
Q 358.420625 44.578125 358.420625 42.578125 
L 358.420625 14.2 
Q 358.420625 12.2 356.420625 12.2 
L 233.54875 12.2 
Q 231.54875 12.2 231.54875 14.2 
L 231.54875 42.578125 
Q 231.54875 44.578125 233.54875 44.578125 
z
" style="fill:#ffffff;opacity:0.8;stroke:#cccccc;stroke-linejoin:miter;"/>
    </g>
    <g id="line2d_2">
     <path d="M 235.54875 20.3 
L 255.54875 20.3 
" style="fill:none;stroke:#ff0000;stroke-linecap:square;stroke-width:1.5;"/>
    </g>
    <g id="line2d_3"/>
    <g id="text_3">
     <!-- Normalised $g_u$ -->
     <defs>
      <path d="M 9.8125 72.90625 
L 23.09375 72.90625 
L 55.421875 11.921875 
L 55.421875 72.90625 
L 64.984375 72.90625 
L 64.984375 0 
L 51.703125 0 
L 19.390625 60.984375 
L 19.390625 0 
L 9.8125 0 
z
" id="DejaVuSans-78"/>
      <path d="M 30.609375 48.390625 
Q 23.390625 48.390625 19.1875 42.75 
Q 14.984375 37.109375 14.984375 27.296875 
Q 14.984375 17.484375 19.15625 11.84375 
Q 23.34375 6.203125 30.609375 6.203125 
Q 37.796875 6.203125 41.984375 11.859375 
Q 46.1875 17.53125 46.1875 27.296875 
Q 46.1875 37.015625 41.984375 42.703125 
Q 37.796875 48.390625 30.609375 48.390625 
z
M 30.609375 56 
Q 42.328125 56 49.015625 48.375 
Q 55.71875 40.765625 55.71875 27.296875 
Q 55.71875 13.875 49.015625 6.21875 
Q 42.328125 -1.421875 30.609375 -1.421875 
Q 18.84375 -1.421875 12.171875 6.21875 
Q 5.515625 13.875 5.515625 27.296875 
Q 5.515625 40.765625 12.171875 48.375 
Q 18.84375 56 30.609375 56 
z
" id="DejaVuSans-111"/>
      <path d="M 41.109375 46.296875 
Q 39.59375 47.171875 37.8125 47.578125 
Q 36.03125 48 33.890625 48 
Q 26.265625 48 22.1875 43.046875 
Q 18.109375 38.09375 18.109375 28.8125 
L 18.109375 0 
L 9.078125 0 
L 9.078125 54.6875 
L 18.109375 54.6875 
L 18.109375 46.1875 
Q 20.953125 51.171875 25.484375 53.578125 
Q 30.03125 56 36.53125 56 
Q 37.453125 56 38.578125 55.875 
Q 39.703125 55.765625 41.0625 55.515625 
z
" id="DejaVuSans-114"/>
      <path d="M 52 44.1875 
Q 55.375 50.25 60.0625 53.125 
Q 64.75 56 71.09375 56 
Q 79.640625 56 84.28125 50.015625 
Q 88.921875 44.046875 88.921875 33.015625 
L 88.921875 0 
L 79.890625 0 
L 79.890625 32.71875 
Q 79.890625 40.578125 77.09375 44.375 
Q 74.3125 48.1875 68.609375 48.1875 
Q 61.625 48.1875 57.5625 43.546875 
Q 53.515625 38.921875 53.515625 30.90625 
L 53.515625 0 
L 44.484375 0 
L 44.484375 32.71875 
Q 44.484375 40.625 41.703125 44.40625 
Q 38.921875 48.1875 33.109375 48.1875 
Q 26.21875 48.1875 22.15625 43.53125 
Q 18.109375 38.875 18.109375 30.90625 
L 18.109375 0 
L 9.078125 0 
L 9.078125 54.6875 
L 18.109375 54.6875 
L 18.109375 46.1875 
Q 21.1875 51.21875 25.484375 53.609375 
Q 29.78125 56 35.6875 56 
Q 41.65625 56 45.828125 52.96875 
Q 50 49.953125 52 44.1875 
z
" id="DejaVuSans-109"/>
      <path d="M 34.28125 27.484375 
Q 23.390625 27.484375 19.1875 25 
Q 14.984375 22.515625 14.984375 16.5 
Q 14.984375 11.71875 18.140625 8.90625 
Q 21.296875 6.109375 26.703125 6.109375 
Q 34.1875 6.109375 38.703125 11.40625 
Q 43.21875 16.703125 43.21875 25.484375 
L 43.21875 27.484375 
z
M 52.203125 31.203125 
L 52.203125 0 
L 43.21875 0 
L 43.21875 8.296875 
Q 40.140625 3.328125 35.546875 0.953125 
Q 30.953125 -1.421875 24.3125 -1.421875 
Q 15.921875 -1.421875 10.953125 3.296875 
Q 6 8.015625 6 15.921875 
Q 6 25.140625 12.171875 29.828125 
Q 18.359375 34.515625 30.609375 34.515625 
L 43.21875 34.515625 
L 43.21875 35.40625 
Q 43.21875 41.609375 39.140625 45 
Q 35.0625 48.390625 27.6875 48.390625 
Q 23 48.390625 18.546875 47.265625 
Q 14.109375 46.140625 10.015625 43.890625 
L 10.015625 52.203125 
Q 14.9375 54.109375 19.578125 55.046875 
Q 24.21875 56 28.609375 56 
Q 40.484375 56 46.34375 49.84375 
Q 52.203125 43.703125 52.203125 31.203125 
z
" id="DejaVuSans-97"/>
      <path d="M 9.421875 75.984375 
L 18.40625 75.984375 
L 18.40625 0 
L 9.421875 0 
z
" id="DejaVuSans-108"/>
      <path d="M 9.421875 54.6875 
L 18.40625 54.6875 
L 18.40625 0 
L 9.421875 0 
z
M 9.421875 75.984375 
L 18.40625 75.984375 
L 18.40625 64.59375 
L 9.421875 64.59375 
z
" id="DejaVuSans-105"/>
      <path d="M 44.28125 53.078125 
L 44.28125 44.578125 
Q 40.484375 46.53125 36.375 47.5 
Q 32.28125 48.484375 27.875 48.484375 
Q 21.1875 48.484375 17.84375 46.4375 
Q 14.5 44.390625 14.5 40.28125 
Q 14.5 37.15625 16.890625 35.375 
Q 19.28125 33.59375 26.515625 31.984375 
L 29.59375 31.296875 
Q 39.15625 29.25 43.1875 25.515625 
Q 47.21875 21.78125 47.21875 15.09375 
Q 47.21875 7.46875 41.1875 3.015625 
Q 35.15625 -1.421875 24.609375 -1.421875 
Q 20.21875 -1.421875 15.453125 -0.5625 
Q 10.6875 0.296875 5.421875 2 
L 5.421875 11.28125 
Q 10.40625 8.6875 15.234375 7.390625 
Q 20.0625 6.109375 24.8125 6.109375 
Q 31.15625 6.109375 34.5625 8.28125 
Q 37.984375 10.453125 37.984375 14.40625 
Q 37.984375 18.0625 35.515625 20.015625 
Q 33.0625 21.96875 24.703125 23.78125 
L 21.578125 24.515625 
Q 13.234375 26.265625 9.515625 29.90625 
Q 5.8125 33.546875 5.8125 39.890625 
Q 5.8125 47.609375 11.28125 51.796875 
Q 16.75 56 26.8125 56 
Q 31.78125 56 36.171875 55.265625 
Q 40.578125 54.546875 44.28125 53.078125 
z
" id="DejaVuSans-115"/>
      <path d="M 56.203125 29.59375 
L 56.203125 25.203125 
L 14.890625 25.203125 
Q 15.484375 15.921875 20.484375 11.0625 
Q 25.484375 6.203125 34.421875 6.203125 
Q 39.59375 6.203125 44.453125 7.46875 
Q 49.3125 8.734375 54.109375 11.28125 
L 54.109375 2.78125 
Q 49.265625 0.734375 44.1875 -0.34375 
Q 39.109375 -1.421875 33.890625 -1.421875 
Q 20.796875 -1.421875 13.15625 6.1875 
Q 5.515625 13.8125 5.515625 26.8125 
Q 5.515625 40.234375 12.765625 48.109375 
Q 20.015625 56 32.328125 56 
Q 43.359375 56 49.78125 48.890625 
Q 56.203125 41.796875 56.203125 29.59375 
z
M 47.21875 32.234375 
Q 47.125 39.59375 43.09375 43.984375 
Q 39.0625 48.390625 32.421875 48.390625 
Q 24.90625 48.390625 20.390625 44.140625 
Q 15.875 39.890625 15.1875 32.171875 
z
" id="DejaVuSans-101"/>
      <path d="M 45.40625 46.390625 
L 45.40625 75.984375 
L 54.390625 75.984375 
L 54.390625 0 
L 45.40625 0 
L 45.40625 8.203125 
Q 42.578125 3.328125 38.25 0.953125 
Q 33.9375 -1.421875 27.875 -1.421875 
Q 17.96875 -1.421875 11.734375 6.484375 
Q 5.515625 14.40625 5.515625 27.296875 
Q 5.515625 40.1875 11.734375 48.09375 
Q 17.96875 56 27.875 56 
Q 33.9375 56 38.25 53.625 
Q 42.578125 51.265625 45.40625 46.390625 
z
M 14.796875 27.296875 
Q 14.796875 17.390625 18.875 11.75 
Q 22.953125 6.109375 30.078125 6.109375 
Q 37.203125 6.109375 41.296875 11.75 
Q 45.40625 17.390625 45.40625 27.296875 
Q 45.40625 37.203125 41.296875 42.84375 
Q 37.203125 48.484375 30.078125 48.484375 
Q 22.953125 48.484375 18.875 42.84375 
Q 14.796875 37.203125 14.796875 27.296875 
z
" id="DejaVuSans-100"/>
      <path id="DejaVuSans-32"/>
      <path d="M 59.625 54.6875 
L 50.296875 6.78125 
Q 47.609375 -7.125 40.015625 -13.953125 
Q 32.421875 -20.796875 19.578125 -20.796875 
Q 14.84375 -20.796875 10.78125 -20.09375 
Q 6.734375 -19.390625 3.21875 -17.921875 
L 4.890625 -9.1875 
Q 8.203125 -11.328125 11.90625 -12.34375 
Q 15.625 -13.375 19.828125 -13.375 
Q 28.375 -13.375 33.859375 -8.703125 
Q 39.359375 -4.046875 41.109375 4.6875 
L 41.890625 8.796875 
Q 38.140625 4.5 33.15625 2.25 
Q 28.171875 0 22.40625 0 
Q 14.109375 0 9.34375 5.484375 
Q 4.59375 10.984375 4.59375 20.609375 
Q 4.59375 28.171875 7.46875 35.421875 
Q 10.359375 42.671875 15.578125 48.296875 
Q 19.046875 52 23.65625 54 
Q 28.265625 56 33.296875 56 
Q 38.8125 56 42.90625 53.4375 
Q 47.015625 50.875 49.03125 46.1875 
L 50.59375 54.6875 
z
M 46.09375 34.625 
Q 46.09375 41.265625 42.96875 44.875 
Q 39.84375 48.484375 34.078125 48.484375 
Q 30.515625 48.484375 27.296875 47.0625 
Q 24.078125 45.65625 21.78125 43.109375 
Q 18.0625 38.921875 15.984375 33.234375 
Q 13.921875 27.546875 13.921875 21.484375 
Q 13.921875 14.75 17.0625 11.125 
Q 20.21875 7.515625 26.125 7.515625 
Q 34.671875 7.515625 40.375 15.25 
Q 46.09375 23 46.09375 34.625 
z
" id="DejaVuSans-Oblique-103"/>
      <path d="M 6.6875 21.6875 
L 13.09375 54.6875 
L 22.125 54.6875 
L 15.71875 22.015625 
Q 15.234375 19.625 15.015625 17.921875 
Q 14.796875 16.21875 14.796875 15.09375 
Q 14.796875 10.9375 17.328125 8.65625 
Q 19.875 6.390625 24.515625 6.390625 
Q 31.734375 6.390625 37 11.265625 
Q 42.28125 16.15625 43.890625 24.421875 
L 49.90625 54.6875 
L 58.890625 54.6875 
L 48.296875 0 
L 39.3125 0 
L 41.109375 8.59375 
Q 37.3125 3.8125 32.0625 1.1875 
Q 26.8125 -1.421875 20.90625 -1.421875 
Q 13.71875 -1.421875 9.71875 2.515625 
Q 5.71875 6.453125 5.71875 13.484375 
Q 5.71875 14.9375 5.953125 17.140625 
Q 6.203125 19.34375 6.6875 21.6875 
z
" id="DejaVuSans-Oblique-117"/>
     </defs>
     <g transform="translate(263.54875 23.8)scale(0.1 -0.1)">
      <use transform="translate(0 0.015625)" xlink:href="#DejaVuSans-78"/>
      <use transform="translate(74.804688 0.015625)" xlink:href="#DejaVuSans-111"/>
      <use transform="translate(135.986328 0.015625)" xlink:href="#DejaVuSans-114"/>
      <use transform="translate(177.099609 0.015625)" xlink:href="#DejaVuSans-109"/>
      <use transform="translate(274.511719 0.015625)" xlink:href="#DejaVuSans-97"/>
      <use transform="translate(335.791016 0.015625)" xlink:href="#DejaVuSans-108"/>
      <use transform="translate(363.574219 0.015625)" xlink:href="#DejaVuSans-105"/>
      <use transform="translate(391.357422 0.015625)" xlink:href="#DejaVuSans-115"/>
      <use transform="translate(443.457031 0.015625)" xlink:href="#DejaVuSans-101"/>
      <use transform="translate(504.980469 0.015625)" xlink:href="#DejaVuSans-100"/>
      <use transform="translate(568.457031 0.015625)" xlink:href="#DejaVuSans-32"/>
      <use transform="translate(600.244141 0.015625)" xlink:href="#DejaVuSans-Oblique-103"/>
      <use transform="translate(663.720703 -16.390625)scale(0.7)" xlink:href="#DejaVuSans-Oblique-117"/>
     </g>
    </g>
    <g id="patch_108">
     <path d="M 235.54875 38.498438 
L 255.54875 38.498438 
L 255.54875 31.498438 
L 235.54875 31.498438 
z
" style="fill:#808080;opacity:0.5;"/>
    </g>
    <g id="text_4">
     <!-- Envelope samples -->
     <defs>
      <path d="M 9.8125 72.90625 
L 55.90625 72.90625 
L 55.90625 64.59375 
L 19.671875 64.59375 
L 19.671875 43.015625 
L 54.390625 43.015625 
L 54.390625 34.71875 
L 19.671875 34.71875 
L 19.671875 8.296875 
L 56.78125 8.296875 
L 56.78125 0 
L 9.8125 0 
z
" id="DejaVuSans-69"/>
      <path d="M 54.890625 33.015625 
L 54.890625 0 
L 45.90625 0 
L 45.90625 32.71875 
Q 45.90625 40.484375 42.875 44.328125 
Q 39.84375 48.1875 33.796875 48.1875 
Q 26.515625 48.1875 22.3125 43.546875 
Q 18.109375 38.921875 18.109375 30.90625 
L 18.109375 0 
L 9.078125 0 
L 9.078125 54.6875 
L 18.109375 54.6875 
L 18.109375 46.1875 
Q 21.34375 51.125 25.703125 53.5625 
Q 30.078125 56 35.796875 56 
Q 45.21875 56 50.046875 50.171875 
Q 54.890625 44.34375 54.890625 33.015625 
z
" id="DejaVuSans-110"/>
      <path d="M 2.984375 54.6875 
L 12.5 54.6875 
L 29.59375 8.796875 
L 46.6875 54.6875 
L 56.203125 54.6875 
L 35.6875 0 
L 23.484375 0 
z
" id="DejaVuSans-118"/>
      <path d="M 18.109375 8.203125 
L 18.109375 -20.796875 
L 9.078125 -20.796875 
L 9.078125 54.6875 
L 18.109375 54.6875 
L 18.109375 46.390625 
Q 20.953125 51.265625 25.265625 53.625 
Q 29.59375 56 35.59375 56 
Q 45.5625 56 51.78125 48.09375 
Q 58.015625 40.1875 58.015625 27.296875 
Q 58.015625 14.40625 51.78125 6.484375 
Q 45.5625 -1.421875 35.59375 -1.421875 
Q 29.59375 -1.421875 25.265625 0.953125 
Q 20.953125 3.328125 18.109375 8.203125 
z
M 48.6875 27.296875 
Q 48.6875 37.203125 44.609375 42.84375 
Q 40.53125 48.484375 33.40625 48.484375 
Q 26.265625 48.484375 22.1875 42.84375 
Q 18.109375 37.203125 18.109375 27.296875 
Q 18.109375 17.390625 22.1875 11.75 
Q 26.265625 6.109375 33.40625 6.109375 
Q 40.53125 6.109375 44.609375 11.75 
Q 48.6875 17.390625 48.6875 27.296875 
z
" id="DejaVuSans-112"/>
     </defs>
     <g transform="translate(263.54875 38.498438)scale(0.1 -0.1)">
      <use xlink:href="#DejaVuSans-69"/>
      <use x="63.183594" xlink:href="#DejaVuSans-110"/>
      <use x="126.5625" xlink:href="#DejaVuSans-118"/>
      <use x="185.742188" xlink:href="#DejaVuSans-101"/>
      <use x="247.265625" xlink:href="#DejaVuSans-108"/>
      <use x="275.048828" xlink:href="#DejaVuSans-111"/>
      <use x="336.230469" xlink:href="#DejaVuSans-112"/>
      <use x="399.707031" xlink:href="#DejaVuSans-101"/>
      <use x="461.230469" xlink:href="#DejaVuSans-32"/>
      <use x="493.017578" xlink:href="#DejaVuSans-115"/>
      <use x="545.117188" xlink:href="#DejaVuSans-97"/>
      <use x="606.396484" xlink:href="#DejaVuSans-109"/>
      <use x="703.808594" xlink:href="#DejaVuSans-112"/>
      <use x="767.285156" xlink:href="#DejaVuSans-108"/>
      <use x="795.068359" xlink:href="#DejaVuSans-101"/>
      <use x="856.591797" xlink:href="#DejaVuSans-115"/>
     </g>
    </g>
   </g>
  </g>
 </g>
 <defs>
  <clipPath id="pb48f116c4e">
   <rect height="163.08" width="334.8" x="28.620625" y="7.2"/>
  </clipPath>
 </defs>
</svg>
