<?xml version="1.0" encoding="utf-8" standalone="no"?>
<!DOCTYPE svg PUBLIC "-//W3C//DTD SVG 1.1//EN"
  "http://www.w3.org/Graphics/SVG/1.1/DTD/svg11.dtd">
<!-- Created with matplotlib (https://matplotlib.org/) -->
<svg height="198.900625pt" version="1.1" viewBox="0 0 370.620625 198.900625" width="370.620625pt" xmlns="http://www.w3.org/2000/svg" xmlns:xlink="http://www.w3.org/1999/xlink">
 <defs>
  <style type="text/css">
*{stroke-linecap:butt;stroke-linejoin:round;}
  </style>
 </defs>
 <g id="figure_1">
  <g id="patch_1">
   <path d="M 0 198.900625 
L 370.620625 198.900625 
L 370.620625 0 
L 0 0 
z
" style="fill:none;"/>
  </g>
  <g id="axes_1">
   <g id="patch_2">
    <path d="M 28.620625 170.28 
L 363.420625 170.28 
L 363.420625 7.2 
L 28.620625 7.2 
z
" style="fill:#ffffff;"/>
   </g>
   <g id="patch_3">
    <path clip-path="url(#p98767b9579)" d="M 48.086215 170.28 
L 54.382552 170.28 
L 54.382552 169.846464 
L 48.086215 169.846464 
z
" style="fill:#808080;opacity:0.5;"/>
   </g>
   <g id="patch_4">
    <path clip-path="url(#p98767b9579)" d="M 54.382552 170.28 
L 60.67889 170.28 
L 60.67889 169.196161 
L 54.382552 169.196161 
z
" style="fill:#808080;opacity:0.5;"/>
   </g>
   <g id="patch_5">
    <path clip-path="url(#p98767b9579)" d="M 60.67889 170.28 
L 66.975227 170.28 
L 66.975227 168.979393 
L 60.67889 168.979393 
z
" style="fill:#808080;opacity:0.5;"/>
   </g>
   <g id="patch_6">
    <path clip-path="url(#p98767b9579)" d="M 66.975227 170.28 
L 73.271565 170.28 
L 73.271565 168.545858 
L 66.975227 168.545858 
z
" style="fill:#808080;opacity:0.5;"/>
   </g>
   <g id="patch_7">
    <path clip-path="url(#p98767b9579)" d="M 73.271565 170.28 
L 79.567903 170.28 
L 79.567903 168.112322 
L 73.271565 168.112322 
z
" style="fill:#808080;opacity:0.5;"/>
   </g>
   <g id="patch_8">
    <path clip-path="url(#p98767b9579)" d="M 79.567903 170.28 
L 85.86424 170.28 
L 85.86424 168.545858 
L 79.567903 168.545858 
z
" style="fill:#808080;opacity:0.5;"/>
   </g>
   <g id="patch_9">
    <path clip-path="url(#p98767b9579)" d="M 85.86424 170.28 
L 92.160578 170.28 
L 92.160578 161.175753 
L 85.86424 161.175753 
z
" style="fill:#808080;opacity:0.5;"/>
   </g>
   <g id="patch_10">
    <path clip-path="url(#p98767b9579)" d="M 92.160578 170.28 
L 98.456915 170.28 
L 98.456915 165.511109 
L 92.160578 165.511109 
z
" style="fill:#808080;opacity:0.5;"/>
   </g>
   <g id="patch_11">
    <path clip-path="url(#p98767b9579)" d="M 98.456915 170.28 
L 104.753253 170.28 
L 104.753253 159.441611 
L 98.456915 159.441611 
z
" style="fill:#808080;opacity:0.5;"/>
   </g>
   <g id="patch_12">
    <path clip-path="url(#p98767b9579)" d="M 104.753253 170.28 
L 111.04959 170.28 
L 111.04959 159.008075 
L 104.753253 159.008075 
z
" style="fill:#808080;opacity:0.5;"/>
   </g>
   <g id="patch_13">
    <path clip-path="url(#p98767b9579)" d="M 111.04959 170.28 
L 117.345928 170.28 
L 117.345928 144.267866 
L 111.04959 144.267866 
z
" style="fill:#808080;opacity:0.5;"/>
   </g>
   <g id="patch_14">
    <path clip-path="url(#p98767b9579)" d="M 117.345928 170.28 
L 123.642266 170.28 
L 123.642266 145.134938 
L 117.345928 145.134938 
z
" style="fill:#808080;opacity:0.5;"/>
   </g>
   <g id="patch_15">
    <path clip-path="url(#p98767b9579)" d="M 123.642266 170.28 
L 129.938603 170.28 
L 129.938603 135.16362 
L 123.642266 135.16362 
z
" style="fill:#808080;opacity:0.5;"/>
   </g>
   <g id="patch_16">
    <path clip-path="url(#p98767b9579)" d="M 129.938603 170.28 
L 136.234941 170.28 
L 136.234941 123.024624 
L 129.938603 123.024624 
z
" style="fill:#808080;opacity:0.5;"/>
   </g>
   <g id="patch_17">
    <path clip-path="url(#p98767b9579)" d="M 136.234941 170.28 
L 142.531278 170.28 
L 142.531278 117.822197 
L 136.234941 117.822197 
z
" style="fill:#808080;opacity:0.5;"/>
   </g>
   <g id="patch_18">
    <path clip-path="url(#p98767b9579)" d="M 142.531278 170.28 
L 148.827616 170.28 
L 148.827616 106.550273 
L 142.531278 106.550273 
z
" style="fill:#808080;opacity:0.5;"/>
   </g>
   <g id="patch_19">
    <path clip-path="url(#p98767b9579)" d="M 148.827616 170.28 
L 155.123953 170.28 
L 155.123953 94.411277 
L 148.827616 94.411277 
z
" style="fill:#808080;opacity:0.5;"/>
   </g>
   <g id="patch_20">
    <path clip-path="url(#p98767b9579)" d="M 155.123953 170.28 
L 161.420291 170.28 
L 161.420291 87.908244 
L 155.123953 87.908244 
z
" style="fill:#808080;opacity:0.5;"/>
   </g>
   <g id="patch_21">
    <path clip-path="url(#p98767b9579)" d="M 161.420291 170.28 
L 167.716629 170.28 
L 167.716629 78.803997 
L 161.420291 78.803997 
z
" style="fill:#808080;opacity:0.5;"/>
   </g>
   <g id="patch_22">
    <path clip-path="url(#p98767b9579)" d="M 167.716629 170.28 
L 174.012966 170.28 
L 174.012966 62.112878 
L 167.716629 62.112878 
z
" style="fill:#808080;opacity:0.5;"/>
   </g>
   <g id="patch_23">
    <path clip-path="url(#p98767b9579)" d="M 174.012966 170.28 
L 180.309304 170.28 
L 180.309304 50.624186 
L 174.012966 50.624186 
z
" style="fill:#808080;opacity:0.5;"/>
   </g>
   <g id="patch_24">
    <path clip-path="url(#p98767b9579)" d="M 180.309304 170.28 
L 186.605641 170.28 
L 186.605641 49.323579 
L 180.309304 49.323579 
z
" style="fill:#808080;opacity:0.5;"/>
   </g>
   <g id="patch_25">
    <path clip-path="url(#p98767b9579)" d="M 186.605641 170.28 
L 192.901979 170.28 
L 192.901979 40.652868 
L 186.605641 40.652868 
z
" style="fill:#808080;opacity:0.5;"/>
   </g>
   <g id="patch_26">
    <path clip-path="url(#p98767b9579)" d="M 192.901979 170.28 
L 199.198316 170.28 
L 199.198316 37.618119 
L 192.901979 37.618119 
z
" style="fill:#808080;opacity:0.5;"/>
   </g>
   <g id="patch_27">
    <path clip-path="url(#p98767b9579)" d="M 199.198316 170.28 
L 205.494654 170.28 
L 205.494654 44.121152 
L 199.198316 44.121152 
z
" style="fill:#808080;opacity:0.5;"/>
   </g>
   <g id="patch_28">
    <path clip-path="url(#p98767b9579)" d="M 205.494654 170.28 
L 211.790991 170.28 
L 211.790991 48.890043 
L 205.494654 48.890043 
z
" style="fill:#808080;opacity:0.5;"/>
   </g>
   <g id="patch_29">
    <path clip-path="url(#p98767b9579)" d="M 211.790991 170.28 
L 218.087329 170.28 
L 218.087329 61.462575 
L 211.790991 61.462575 
z
" style="fill:#808080;opacity:0.5;"/>
   </g>
   <g id="patch_30">
    <path clip-path="url(#p98767b9579)" d="M 218.087329 170.28 
L 224.383667 170.28 
L 224.383667 61.462575 
L 218.087329 61.462575 
z
" style="fill:#808080;opacity:0.5;"/>
   </g>
   <g id="patch_31">
    <path clip-path="url(#p98767b9579)" d="M 224.383667 170.28 
L 230.680004 170.28 
L 230.680004 57.127219 
L 224.383667 57.127219 
z
" style="fill:#808080;opacity:0.5;"/>
   </g>
   <g id="patch_32">
    <path clip-path="url(#p98767b9579)" d="M 230.680004 170.28 
L 236.976342 170.28 
L 236.976342 93.977742 
L 230.680004 93.977742 
z
" style="fill:#808080;opacity:0.5;"/>
   </g>
   <g id="patch_33">
    <path clip-path="url(#p98767b9579)" d="M 236.976342 170.28 
L 243.272679 170.28 
L 243.272679 94.844813 
L 236.976342 94.844813 
z
" style="fill:#808080;opacity:0.5;"/>
   </g>
   <g id="patch_34">
    <path clip-path="url(#p98767b9579)" d="M 243.272679 170.28 
L 249.569017 170.28 
L 249.569017 108.717951 
L 243.272679 108.717951 
z
" style="fill:#808080;opacity:0.5;"/>
   </g>
   <g id="patch_35">
    <path clip-path="url(#p98767b9579)" d="M 249.569017 170.28 
L 255.865354 170.28 
L 255.865354 115.220984 
L 249.569017 115.220984 
z
" style="fill:#808080;opacity:0.5;"/>
   </g>
   <g id="patch_36">
    <path clip-path="url(#p98767b9579)" d="M 255.865354 170.28 
L 262.161692 170.28 
L 262.161692 124.541998 
L 255.865354 124.541998 
z
" style="fill:#808080;opacity:0.5;"/>
   </g>
   <g id="patch_37">
    <path clip-path="url(#p98767b9579)" d="M 262.161692 170.28 
L 268.45803 170.28 
L 268.45803 140.366046 
L 262.161692 140.366046 
z
" style="fill:#808080;opacity:0.5;"/>
   </g>
   <g id="patch_38">
    <path clip-path="url(#p98767b9579)" d="M 268.45803 170.28 
L 274.754367 170.28 
L 274.754367 140.799582 
L 268.45803 140.799582 
z
" style="fill:#808080;opacity:0.5;"/>
   </g>
   <g id="patch_39">
    <path clip-path="url(#p98767b9579)" d="M 274.754367 170.28 
L 281.050705 170.28 
L 281.050705 153.372113 
L 274.754367 153.372113 
z
" style="fill:#808080;opacity:0.5;"/>
   </g>
   <g id="patch_40">
    <path clip-path="url(#p98767b9579)" d="M 281.050705 170.28 
L 287.347042 170.28 
L 287.347042 157.057165 
L 281.050705 157.057165 
z
" style="fill:#808080;opacity:0.5;"/>
   </g>
   <g id="patch_41">
    <path clip-path="url(#p98767b9579)" d="M 287.347042 170.28 
L 293.64338 170.28 
L 293.64338 162.909895 
L 287.347042 162.909895 
z
" style="fill:#808080;opacity:0.5;"/>
   </g>
   <g id="patch_42">
    <path clip-path="url(#p98767b9579)" d="M 293.64338 170.28 
L 299.939717 170.28 
L 299.939717 161.175753 
L 293.64338 161.175753 
z
" style="fill:#808080;opacity:0.5;"/>
   </g>
   <g id="patch_43">
    <path clip-path="url(#p98767b9579)" d="M 299.939717 170.28 
L 306.236055 170.28 
L 306.236055 165.944644 
L 299.939717 165.944644 
z
" style="fill:#808080;opacity:0.5;"/>
   </g>
   <g id="patch_44">
    <path clip-path="url(#p98767b9579)" d="M 306.236055 170.28 
L 312.532393 170.28 
L 312.532393 165.511109 
L 306.236055 165.511109 
z
" style="fill:#808080;opacity:0.5;"/>
   </g>
   <g id="patch_45">
    <path clip-path="url(#p98767b9579)" d="M 312.532393 170.28 
L 318.82873 170.28 
L 318.82873 168.979393 
L 312.532393 168.979393 
z
" style="fill:#808080;opacity:0.5;"/>
   </g>
   <g id="patch_46">
    <path clip-path="url(#p98767b9579)" d="M 318.82873 170.28 
L 325.125068 170.28 
L 325.125068 169.629697 
L 318.82873 169.629697 
z
" style="fill:#808080;opacity:0.5;"/>
   </g>
   <g id="patch_47">
    <path clip-path="url(#p98767b9579)" d="M 325.125068 170.28 
L 331.421405 170.28 
L 331.421405 168.979393 
L 325.125068 168.979393 
z
" style="fill:#808080;opacity:0.5;"/>
   </g>
   <g id="patch_48">
    <path clip-path="url(#p98767b9579)" d="M 331.421405 170.28 
L 337.717743 170.28 
L 337.717743 169.412929 
L 331.421405 169.412929 
z
" style="fill:#808080;opacity:0.5;"/>
   </g>
   <g id="patch_49">
    <path clip-path="url(#p98767b9579)" d="M 337.717743 170.28 
L 344.01408 170.28 
L 344.01408 170.28 
L 337.717743 170.28 
z
" style="fill:#808080;opacity:0.5;"/>
   </g>
   <g id="patch_50">
    <path clip-path="url(#p98767b9579)" d="M 344.01408 170.28 
L 350.310418 170.28 
L 350.310418 170.28 
L 344.01408 170.28 
z
" style="fill:#808080;opacity:0.5;"/>
   </g>
   <g id="patch_51">
    <path clip-path="url(#p98767b9579)" d="M 350.310418 170.28 
L 356.606756 170.28 
L 356.606756 169.629697 
L 350.310418 169.629697 
z
" style="fill:#808080;opacity:0.5;"/>
   </g>
   <g id="patch_52">
    <path clip-path="url(#p98767b9579)" d="M 356.606756 170.28 
L 362.903093 170.28 
L 362.903093 169.629697 
L 356.606756 169.629697 
z
" style="fill:#808080;opacity:0.5;"/>
   </g>
   <g id="matplotlib.axis_1">
    <g id="text_1">
     <!-- $x$ -->
     <defs>
      <path d="M 60.015625 54.6875 
L 34.90625 27.875 
L 50.296875 0 
L 39.984375 0 
L 28.421875 21.6875 
L 8.296875 0 
L -2.59375 0 
L 24.3125 28.8125 
L 10.015625 54.6875 
L 20.3125 54.6875 
L 30.8125 34.90625 
L 49.125 54.6875 
z
" id="DejaVuSans-Oblique-120"/>
     </defs>
     <g transform="translate(190.620625 187.957188)scale(0.18 -0.18)">
      <use transform="translate(0 0.3125)" xlink:href="#DejaVuSans-Oblique-120"/>
     </g>
    </g>
   </g>
   <g id="matplotlib.axis_2">
    <g id="text_2">
     <!-- $f(x)~/~Z$ -->
     <defs>
      <path d="M 47.796875 75.984375 
L 46.390625 68.5 
L 37.796875 68.5 
Q 32.90625 68.5 30.6875 66.578125 
Q 28.46875 64.65625 27.390625 59.515625 
L 26.421875 54.6875 
L 41.21875 54.6875 
L 39.890625 47.703125 
L 25.09375 47.703125 
L 15.828125 0 
L 6.78125 0 
L 16.109375 47.703125 
L 7.515625 47.703125 
L 8.796875 54.6875 
L 17.390625 54.6875 
L 18.109375 58.5 
Q 19.96875 68.171875 24.625 72.078125 
Q 29.296875 75.984375 39.3125 75.984375 
z
" id="DejaVuSans-Oblique-102"/>
      <path d="M 31 75.875 
Q 24.46875 64.65625 21.28125 53.65625 
Q 18.109375 42.671875 18.109375 31.390625 
Q 18.109375 20.125 21.3125 9.0625 
Q 24.515625 -2 31 -13.1875 
L 23.1875 -13.1875 
Q 15.875 -1.703125 12.234375 9.375 
Q 8.59375 20.453125 8.59375 31.390625 
Q 8.59375 42.28125 12.203125 53.3125 
Q 15.828125 64.359375 23.1875 75.875 
z
" id="DejaVuSans-40"/>
      <path d="M 8.015625 75.875 
L 15.828125 75.875 
Q 23.140625 64.359375 26.78125 53.3125 
Q 30.421875 42.28125 30.421875 31.390625 
Q 30.421875 20.453125 26.78125 9.375 
Q 23.140625 -1.703125 15.828125 -13.1875 
L 8.015625 -13.1875 
Q 14.5 -2 17.703125 9.0625 
Q 20.90625 20.125 20.90625 31.390625 
Q 20.90625 42.671875 17.703125 53.65625 
Q 14.5 64.65625 8.015625 75.875 
z
" id="DejaVuSans-41"/>
      <path d="M 25.390625 72.90625 
L 33.6875 72.90625 
L 8.296875 -9.28125 
L 0 -9.28125 
z
" id="DejaVuSans-47"/>
      <path d="M 13.09375 72.90625 
L 70.3125 72.90625 
L 68.890625 65.375 
L 12.40625 8.296875 
L 58.890625 8.296875 
L 57.328125 0 
L -2.203125 0 
L -0.78125 7.515625 
L 55.71875 64.59375 
L 11.53125 64.59375 
z
" id="DejaVuSans-Oblique-90"/>
     </defs>
     <g transform="translate(20.877187 119.34)rotate(-90)scale(0.18 -0.18)">
      <use transform="translate(0 0.015625)" xlink:href="#DejaVuSans-Oblique-102"/>
      <use transform="translate(35.205078 0.015625)" xlink:href="#DejaVuSans-40"/>
      <use transform="translate(74.21875 0.015625)" xlink:href="#DejaVuSans-Oblique-120"/>
      <use transform="translate(133.398438 0.015625)" xlink:href="#DejaVuSans-41"/>
      <use transform="translate(204.882488 0.015625)" xlink:href="#DejaVuSans-47"/>
      <use transform="translate(271.044272 0.015625)" xlink:href="#DejaVuSans-Oblique-90"/>
     </g>
    </g>
   </g>
   <g id="line2d_1">
    <path clip-path="url(#p98767b9579)" d="M 28.620625 170.23635 
L 47.127158 170.047876 
L 57.22163 169.748159 
L 65.63369 169.26485 
L 72.363339 168.626151 
L 77.410575 167.93523 
L 82.457811 167.003669 
L 87.505047 165.76811 
L 90.869871 164.740171 
L 94.234695 163.521869 
L 97.599519 162.088764 
L 100.964344 160.415734 
L 104.329168 158.477538 
L 107.693992 156.249507 
L 111.058816 153.708349 
L 114.42364 150.833066 
L 117.788464 147.605954 
L 121.153288 144.013669 
L 124.518112 140.048319 
L 127.882937 135.708541 
L 131.247761 131.00053 
L 134.612585 125.938942 
L 137.977409 120.54765 
L 143.024645 111.918782 
L 148.071881 102.781697 
L 164.896002 71.599155 
L 168.260826 65.856465 
L 171.62565 60.491606 
L 174.990474 55.594903 
L 178.355298 51.251749 
L 181.720122 47.540139 
L 183.402535 45.942937 
L 185.084947 44.528345 
L 186.767359 43.303034 
L 188.449771 42.272827 
L 190.132183 41.442646 
L 191.814595 40.816479 
L 193.497007 40.397345 
L 195.179419 40.187269 
L 196.861831 40.187269 
L 198.544243 40.397345 
L 200.226655 40.816479 
L 201.909067 41.442646 
L 203.591479 42.272827 
L 205.273891 43.303034 
L 206.956303 44.528345 
L 208.638715 45.942937 
L 210.321128 47.540139 
L 212.00354 49.312481 
L 215.368364 53.349056 
L 218.733188 57.979253 
L 222.098012 63.121075 
L 225.462836 68.686351 
L 230.510072 77.626925 
L 237.23972 90.169153 
L 245.651781 105.872186 
L 250.699017 114.860267 
L 255.746253 123.282641 
L 259.111077 128.512665 
L 262.475901 133.399857 
L 265.840726 137.925035 
L 269.20555 142.077878 
L 272.570374 145.856092 
L 275.935198 149.264437 
L 279.300022 152.313669 
L 282.664846 155.019446 
L 286.02967 157.40125 
L 289.394494 159.481346 
L 292.759318 161.283822 
L 296.124143 162.833727 
L 299.488967 164.156321 
L 302.853791 165.276448 
L 306.218615 166.218029 
L 311.265851 167.344646 
L 316.313087 168.189418 
L 321.360323 168.81257 
L 328.089972 169.38508 
L 336.502032 169.814922 
L 346.596504 170.078973 
L 361.738213 170.228776 
L 363.420625 170.23635 
L 363.420625 170.23635 
" style="fill:none;stroke:#000000;stroke-linecap:square;stroke-width:1.5;"/>
   </g>
   <g id="patch_53">
    <path d="M 28.620625 170.28 
L 28.620625 7.2 
" style="fill:none;stroke:#000000;stroke-linecap:square;stroke-linejoin:miter;stroke-width:0.8;"/>
   </g>
   <g id="patch_54">
    <path d="M 363.420625 170.28 
L 363.420625 7.2 
" style="fill:none;stroke:#000000;stroke-linecap:square;stroke-linejoin:miter;stroke-width:0.8;"/>
   </g>
   <g id="patch_55">
    <path d="M 28.620625 170.28 
L 363.420625 170.28 
" style="fill:none;stroke:#000000;stroke-linecap:square;stroke-linejoin:miter;stroke-width:0.8;"/>
   </g>
   <g id="patch_56">
    <path d="M 28.620625 7.2 
L 363.420625 7.2 
" style="fill:none;stroke:#000000;stroke-linecap:square;stroke-linejoin:miter;stroke-width:0.8;"/>
   </g>
   <g id="legend_1">
    <g id="patch_57">
     <path d="M 247.120625 44.55625 
L 356.420625 44.55625 
Q 358.420625 44.55625 358.420625 42.55625 
L 358.420625 14.2 
Q 358.420625 12.2 356.420625 12.2 
L 247.120625 12.2 
Q 245.120625 12.2 245.120625 14.2 
L 245.120625 42.55625 
Q 245.120625 44.55625 247.120625 44.55625 
z
" style="fill:#ffffff;opacity:0.8;stroke:#cccccc;stroke-linejoin:miter;"/>
    </g>
    <g id="line2d_2">
     <path d="M 249.120625 20.298438 
L 269.120625 20.298438 
" style="fill:none;stroke:#000000;stroke-linecap:square;stroke-width:1.5;"/>
    </g>
    <g id="line2d_3"/>
    <g id="text_3">
     <!-- Normalised $f(x)$ -->
     <defs>
      <path d="M 9.8125 72.90625 
L 23.09375 72.90625 
L 55.421875 11.921875 
L 55.421875 72.90625 
L 64.984375 72.90625 
L 64.984375 0 
L 51.703125 0 
L 19.390625 60.984375 
L 19.390625 0 
L 9.8125 0 
z
" id="DejaVuSans-78"/>
      <path d="M 30.609375 48.390625 
Q 23.390625 48.390625 19.1875 42.75 
Q 14.984375 37.109375 14.984375 27.296875 
Q 14.984375 17.484375 19.15625 11.84375 
Q 23.34375 6.203125 30.609375 6.203125 
Q 37.796875 6.203125 41.984375 11.859375 
Q 46.1875 17.53125 46.1875 27.296875 
Q 46.1875 37.015625 41.984375 42.703125 
Q 37.796875 48.390625 30.609375 48.390625 
z
M 30.609375 56 
Q 42.328125 56 49.015625 48.375 
Q 55.71875 40.765625 55.71875 27.296875 
Q 55.71875 13.875 49.015625 6.21875 
Q 42.328125 -1.421875 30.609375 -1.421875 
Q 18.84375 -1.421875 12.171875 6.21875 
Q 5.515625 13.875 5.515625 27.296875 
Q 5.515625 40.765625 12.171875 48.375 
Q 18.84375 56 30.609375 56 
z
" id="DejaVuSans-111"/>
      <path d="M 41.109375 46.296875 
Q 39.59375 47.171875 37.8125 47.578125 
Q 36.03125 48 33.890625 48 
Q 26.265625 48 22.1875 43.046875 
Q 18.109375 38.09375 18.109375 28.8125 
L 18.109375 0 
L 9.078125 0 
L 9.078125 54.6875 
L 18.109375 54.6875 
L 18.109375 46.1875 
Q 20.953125 51.171875 25.484375 53.578125 
Q 30.03125 56 36.53125 56 
Q 37.453125 56 38.578125 55.875 
Q 39.703125 55.765625 41.0625 55.515625 
z
" id="DejaVuSans-114"/>
      <path d="M 52 44.1875 
Q 55.375 50.25 60.0625 53.125 
Q 64.75 56 71.09375 56 
Q 79.640625 56 84.28125 50.015625 
Q 88.921875 44.046875 88.921875 33.015625 
L 88.921875 0 
L 79.890625 0 
L 79.890625 32.71875 
Q 79.890625 40.578125 77.09375 44.375 
Q 74.3125 48.1875 68.609375 48.1875 
Q 61.625 48.1875 57.5625 43.546875 
Q 53.515625 38.921875 53.515625 30.90625 
L 53.515625 0 
L 44.484375 0 
L 44.484375 32.71875 
Q 44.484375 40.625 41.703125 44.40625 
Q 38.921875 48.1875 33.109375 48.1875 
Q 26.21875 48.1875 22.15625 43.53125 
Q 18.109375 38.875 18.109375 30.90625 
L 18.109375 0 
L 9.078125 0 
L 9.078125 54.6875 
L 18.109375 54.6875 
L 18.109375 46.1875 
Q 21.1875 51.21875 25.484375 53.609375 
Q 29.78125 56 35.6875 56 
Q 41.65625 56 45.828125 52.96875 
Q 50 49.953125 52 44.1875 
z
" id="DejaVuSans-109"/>
      <path d="M 34.28125 27.484375 
Q 23.390625 27.484375 19.1875 25 
Q 14.984375 22.515625 14.984375 16.5 
Q 14.984375 11.71875 18.140625 8.90625 
Q 21.296875 6.109375 26.703125 6.109375 
Q 34.1875 6.109375 38.703125 11.40625 
Q 43.21875 16.703125 43.21875 25.484375 
L 43.21875 27.484375 
z
M 52.203125 31.203125 
L 52.203125 0 
L 43.21875 0 
L 43.21875 8.296875 
Q 40.140625 3.328125 35.546875 0.953125 
Q 30.953125 -1.421875 24.3125 -1.421875 
Q 15.921875 -1.421875 10.953125 3.296875 
Q 6 8.015625 6 15.921875 
Q 6 25.140625 12.171875 29.828125 
Q 18.359375 34.515625 30.609375 34.515625 
L 43.21875 34.515625 
L 43.21875 35.40625 
Q 43.21875 41.609375 39.140625 45 
Q 35.0625 48.390625 27.6875 48.390625 
Q 23 48.390625 18.546875 47.265625 
Q 14.109375 46.140625 10.015625 43.890625 
L 10.015625 52.203125 
Q 14.9375 54.109375 19.578125 55.046875 
Q 24.21875 56 28.609375 56 
Q 40.484375 56 46.34375 49.84375 
Q 52.203125 43.703125 52.203125 31.203125 
z
" id="DejaVuSans-97"/>
      <path d="M 9.421875 75.984375 
L 18.40625 75.984375 
L 18.40625 0 
L 9.421875 0 
z
" id="DejaVuSans-108"/>
      <path d="M 9.421875 54.6875 
L 18.40625 54.6875 
L 18.40625 0 
L 9.421875 0 
z
M 9.421875 75.984375 
L 18.40625 75.984375 
L 18.40625 64.59375 
L 9.421875 64.59375 
z
" id="DejaVuSans-105"/>
      <path d="M 44.28125 53.078125 
L 44.28125 44.578125 
Q 40.484375 46.53125 36.375 47.5 
Q 32.28125 48.484375 27.875 48.484375 
Q 21.1875 48.484375 17.84375 46.4375 
Q 14.5 44.390625 14.5 40.28125 
Q 14.5 37.15625 16.890625 35.375 
Q 19.28125 33.59375 26.515625 31.984375 
L 29.59375 31.296875 
Q 39.15625 29.25 43.1875 25.515625 
Q 47.21875 21.78125 47.21875 15.09375 
Q 47.21875 7.46875 41.1875 3.015625 
Q 35.15625 -1.421875 24.609375 -1.421875 
Q 20.21875 -1.421875 15.453125 -0.5625 
Q 10.6875 0.296875 5.421875 2 
L 5.421875 11.28125 
Q 10.40625 8.6875 15.234375 7.390625 
Q 20.0625 6.109375 24.8125 6.109375 
Q 31.15625 6.109375 34.5625 8.28125 
Q 37.984375 10.453125 37.984375 14.40625 
Q 37.984375 18.0625 35.515625 20.015625 
Q 33.0625 21.96875 24.703125 23.78125 
L 21.578125 24.515625 
Q 13.234375 26.265625 9.515625 29.90625 
Q 5.8125 33.546875 5.8125 39.890625 
Q 5.8125 47.609375 11.28125 51.796875 
Q 16.75 56 26.8125 56 
Q 31.78125 56 36.171875 55.265625 
Q 40.578125 54.546875 44.28125 53.078125 
z
" id="DejaVuSans-115"/>
      <path d="M 56.203125 29.59375 
L 56.203125 25.203125 
L 14.890625 25.203125 
Q 15.484375 15.921875 20.484375 11.0625 
Q 25.484375 6.203125 34.421875 6.203125 
Q 39.59375 6.203125 44.453125 7.46875 
Q 49.3125 8.734375 54.109375 11.28125 
L 54.109375 2.78125 
Q 49.265625 0.734375 44.1875 -0.34375 
Q 39.109375 -1.421875 33.890625 -1.421875 
Q 20.796875 -1.421875 13.15625 6.1875 
Q 5.515625 13.8125 5.515625 26.8125 
Q 5.515625 40.234375 12.765625 48.109375 
Q 20.015625 56 32.328125 56 
Q 43.359375 56 49.78125 48.890625 
Q 56.203125 41.796875 56.203125 29.59375 
z
M 47.21875 32.234375 
Q 47.125 39.59375 43.09375 43.984375 
Q 39.0625 48.390625 32.421875 48.390625 
Q 24.90625 48.390625 20.390625 44.140625 
Q 15.875 39.890625 15.1875 32.171875 
z
" id="DejaVuSans-101"/>
      <path d="M 45.40625 46.390625 
L 45.40625 75.984375 
L 54.390625 75.984375 
L 54.390625 0 
L 45.40625 0 
L 45.40625 8.203125 
Q 42.578125 3.328125 38.25 0.953125 
Q 33.9375 -1.421875 27.875 -1.421875 
Q 17.96875 -1.421875 11.734375 6.484375 
Q 5.515625 14.40625 5.515625 27.296875 
Q 5.515625 40.1875 11.734375 48.09375 
Q 17.96875 56 27.875 56 
Q 33.9375 56 38.25 53.625 
Q 42.578125 51.265625 45.40625 46.390625 
z
M 14.796875 27.296875 
Q 14.796875 17.390625 18.875 11.75 
Q 22.953125 6.109375 30.078125 6.109375 
Q 37.203125 6.109375 41.296875 11.75 
Q 45.40625 17.390625 45.40625 27.296875 
Q 45.40625 37.203125 41.296875 42.84375 
Q 37.203125 48.484375 30.078125 48.484375 
Q 22.953125 48.484375 18.875 42.84375 
Q 14.796875 37.203125 14.796875 27.296875 
z
" id="DejaVuSans-100"/>
      <path id="DejaVuSans-32"/>
     </defs>
     <g transform="translate(277.120625 23.798438)scale(0.1 -0.1)">
      <use transform="translate(0 0.015625)" xlink:href="#DejaVuSans-78"/>
      <use transform="translate(74.804688 0.015625)" xlink:href="#DejaVuSans-111"/>
      <use transform="translate(135.986328 0.015625)" xlink:href="#DejaVuSans-114"/>
      <use transform="translate(177.099609 0.015625)" xlink:href="#DejaVuSans-109"/>
      <use transform="translate(274.511719 0.015625)" xlink:href="#DejaVuSans-97"/>
      <use transform="translate(335.791016 0.015625)" xlink:href="#DejaVuSans-108"/>
      <use transform="translate(363.574219 0.015625)" xlink:href="#DejaVuSans-105"/>
      <use transform="translate(391.357422 0.015625)" xlink:href="#DejaVuSans-115"/>
      <use transform="translate(443.457031 0.015625)" xlink:href="#DejaVuSans-101"/>
      <use transform="translate(504.980469 0.015625)" xlink:href="#DejaVuSans-100"/>
      <use transform="translate(568.457031 0.015625)" xlink:href="#DejaVuSans-32"/>
      <use transform="translate(600.244141 0.015625)" xlink:href="#DejaVuSans-Oblique-102"/>
      <use transform="translate(635.449219 0.015625)" xlink:href="#DejaVuSans-40"/>
      <use transform="translate(674.462891 0.015625)" xlink:href="#DejaVuSans-Oblique-120"/>
      <use transform="translate(733.642578 0.015625)" xlink:href="#DejaVuSans-41"/>
     </g>
    </g>
    <g id="patch_58">
     <path d="M 249.120625 38.476562 
L 269.120625 38.476562 
L 269.120625 31.476562 
L 249.120625 31.476562 
z
" style="fill:#808080;opacity:0.5;"/>
    </g>
    <g id="text_4">
     <!-- Samples -->
     <defs>
      <path d="M 53.515625 70.515625 
L 53.515625 60.890625 
Q 47.90625 63.578125 42.921875 64.890625 
Q 37.9375 66.21875 33.296875 66.21875 
Q 25.25 66.21875 20.875 63.09375 
Q 16.5 59.96875 16.5 54.203125 
Q 16.5 49.359375 19.40625 46.890625 
Q 22.3125 44.4375 30.421875 42.921875 
L 36.375 41.703125 
Q 47.40625 39.59375 52.65625 34.296875 
Q 57.90625 29 57.90625 20.125 
Q 57.90625 9.515625 50.796875 4.046875 
Q 43.703125 -1.421875 29.984375 -1.421875 
Q 24.8125 -1.421875 18.96875 -0.25 
Q 13.140625 0.921875 6.890625 3.21875 
L 6.890625 13.375 
Q 12.890625 10.015625 18.65625 8.296875 
Q 24.421875 6.59375 29.984375 6.59375 
Q 38.421875 6.59375 43.015625 9.90625 
Q 47.609375 13.234375 47.609375 19.390625 
Q 47.609375 24.75 44.3125 27.78125 
Q 41.015625 30.8125 33.5 32.328125 
L 27.484375 33.5 
Q 16.453125 35.6875 11.515625 40.375 
Q 6.59375 45.0625 6.59375 53.421875 
Q 6.59375 63.09375 13.40625 68.65625 
Q 20.21875 74.21875 32.171875 74.21875 
Q 37.3125 74.21875 42.625 73.28125 
Q 47.953125 72.359375 53.515625 70.515625 
z
" id="DejaVuSans-83"/>
      <path d="M 18.109375 8.203125 
L 18.109375 -20.796875 
L 9.078125 -20.796875 
L 9.078125 54.6875 
L 18.109375 54.6875 
L 18.109375 46.390625 
Q 20.953125 51.265625 25.265625 53.625 
Q 29.59375 56 35.59375 56 
Q 45.5625 56 51.78125 48.09375 
Q 58.015625 40.1875 58.015625 27.296875 
Q 58.015625 14.40625 51.78125 6.484375 
Q 45.5625 -1.421875 35.59375 -1.421875 
Q 29.59375 -1.421875 25.265625 0.953125 
Q 20.953125 3.328125 18.109375 8.203125 
z
M 48.6875 27.296875 
Q 48.6875 37.203125 44.609375 42.84375 
Q 40.53125 48.484375 33.40625 48.484375 
Q 26.265625 48.484375 22.1875 42.84375 
Q 18.109375 37.203125 18.109375 27.296875 
Q 18.109375 17.390625 22.1875 11.75 
Q 26.265625 6.109375 33.40625 6.109375 
Q 40.53125 6.109375 44.609375 11.75 
Q 48.6875 17.390625 48.6875 27.296875 
z
" id="DejaVuSans-112"/>
     </defs>
     <g transform="translate(277.120625 38.476562)scale(0.1 -0.1)">
      <use xlink:href="#DejaVuSans-83"/>
      <use x="63.476562" xlink:href="#DejaVuSans-97"/>
      <use x="124.755859" xlink:href="#DejaVuSans-109"/>
      <use x="222.167969" xlink:href="#DejaVuSans-112"/>
      <use x="285.644531" xlink:href="#DejaVuSans-108"/>
      <use x="313.427734" xlink:href="#DejaVuSans-101"/>
      <use x="374.951172" xlink:href="#DejaVuSans-115"/>
     </g>
    </g>
   </g>
  </g>
 </g>
 <defs>
  <clipPath id="p98767b9579">
   <rect height="163.08" width="334.8" x="28.620625" y="7.2"/>
  </clipPath>
 </defs>
</svg>
