<?xml version="1.0" encoding="utf-8" standalone="no"?>
<!DOCTYPE svg PUBLIC "-//W3C//DTD SVG 1.1//EN"
  "http://www.w3.org/Graphics/SVG/1.1/DTD/svg11.dtd">
<svg xmlns:xlink="http://www.w3.org/1999/xlink" width="621.2pt" height="303.75125pt" viewBox="0 0 621.2 303.75125" xmlns="http://www.w3.org/2000/svg" version="1.1">
 <metadata>
  <rdf:RDF xmlns:dc="http://purl.org/dc/elements/1.1/" xmlns:cc="http://creativecommons.org/ns#" xmlns:rdf="http://www.w3.org/1999/02/22-rdf-syntax-ns#">
   <cc:Work>
    <dc:type rdf:resource="http://purl.org/dc/dcmitype/StillImage"/>
    <dc:date>2024-05-09T13:02:29.962050</dc:date>
    <dc:format>image/svg+xml</dc:format>
    <dc:creator>
     <cc:Agent>
      <dc:title>Matplotlib v3.8.4, https://matplotlib.org/</dc:title>
     </cc:Agent>
    </dc:creator>
   </cc:Work>
  </rdf:RDF>
 </metadata>
 <defs>
  <style type="text/css">*{stroke-linejoin: round; stroke-linecap: butt}</style>
 </defs>
 <g id="figure_1">
  <g id="patch_1">
   <path d="M 0 303.75125 
L 621.2 303.75125 
L 621.2 0 
L 0 0 
z
" style="fill: #ffffff"/>
  </g>
  <g id="axes_1">
   <g id="patch_2">
    <path d="M 46 251.35125 
L 604 251.35125 
L 604 29.59125 
L 46 29.59125 
z
" style="fill: #ffffff"/>
   </g>
   <g id="PathCollection_1">
    <defs>
     <path id="mb538264b90" d="M -2.236068 2.236068 
L 2.236068 -2.236068 
M -2.236068 -2.236068 
L 2.236068 2.236068 
" style="stroke: #000000; stroke-width: 1.5"/>
    </defs>
    <g clip-path="url(#pb37661f472)">
     <use xlink:href="#mb538264b90" x="46" y="225.28647" style="stroke: #000000; stroke-width: 1.5"/>
     <use xlink:href="#mb538264b90" x="51.58" y="219.788102" style="stroke: #000000; stroke-width: 1.5"/>
     <use xlink:href="#mb538264b90" x="57.16" y="218.002978" style="stroke: #000000; stroke-width: 1.5"/>
     <use xlink:href="#mb538264b90" x="62.74" y="214.018172" style="stroke: #000000; stroke-width: 1.5"/>
     <use xlink:href="#mb538264b90" x="68.32" y="203.934807" style="stroke: #000000; stroke-width: 1.5"/>
     <use xlink:href="#mb538264b90" x="73.9" y="193.3349" style="stroke: #000000; stroke-width: 1.5"/>
     <use xlink:href="#mb538264b90" x="79.48" y="197.941299" style="stroke: #000000; stroke-width: 1.5"/>
     <use xlink:href="#mb538264b90" x="85.06" y="191.730366" style="stroke: #000000; stroke-width: 1.5"/>
     <use xlink:href="#mb538264b90" x="90.64" y="191.738457" style="stroke: #000000; stroke-width: 1.5"/>
     <use xlink:href="#mb538264b90" x="96.22" y="191.458928" style="stroke: #000000; stroke-width: 1.5"/>
     <use xlink:href="#mb538264b90" x="101.8" y="188.005478" style="stroke: #000000; stroke-width: 1.5"/>
     <use xlink:href="#mb538264b90" x="107.38" y="186.115181" style="stroke: #000000; stroke-width: 1.5"/>
     <use xlink:href="#mb538264b90" x="112.96" y="174.763291" style="stroke: #000000; stroke-width: 1.5"/>
     <use xlink:href="#mb538264b90" x="118.54" y="167.458127" style="stroke: #000000; stroke-width: 1.5"/>
     <use xlink:href="#mb538264b90" x="124.12" y="165.147718" style="stroke: #000000; stroke-width: 1.5"/>
     <use xlink:href="#mb538264b90" x="129.7" y="159.873345" style="stroke: #000000; stroke-width: 1.5"/>
     <use xlink:href="#mb538264b90" x="135.28" y="155.340045" style="stroke: #000000; stroke-width: 1.5"/>
     <use xlink:href="#mb538264b90" x="140.86" y="138.183321" style="stroke: #000000; stroke-width: 1.5"/>
     <use xlink:href="#mb538264b90" x="146.44" y="138.805818" style="stroke: #000000; stroke-width: 1.5"/>
     <use xlink:href="#mb538264b90" x="152.02" y="133.471651" style="stroke: #000000; stroke-width: 1.5"/>
     <use xlink:href="#mb538264b90" x="157.6" y="141.486048" style="stroke: #000000; stroke-width: 1.5"/>
     <use xlink:href="#mb538264b90" x="163.18" y="164.954056" style="stroke: #000000; stroke-width: 1.5"/>
     <use xlink:href="#mb538264b90" x="168.76" y="157.724413" style="stroke: #000000; stroke-width: 1.5"/>
     <use xlink:href="#mb538264b90" x="174.34" y="147.728108" style="stroke: #000000; stroke-width: 1.5"/>
     <use xlink:href="#mb538264b90" x="179.92" y="153.68616" style="stroke: #000000; stroke-width: 1.5"/>
     <use xlink:href="#mb538264b90" x="185.5" y="126.949078" style="stroke: #000000; stroke-width: 1.5"/>
     <use xlink:href="#mb538264b90" x="191.08" y="142.16195" style="stroke: #000000; stroke-width: 1.5"/>
     <use xlink:href="#mb538264b90" x="196.66" y="140.003418" style="stroke: #000000; stroke-width: 1.5"/>
     <use xlink:href="#mb538264b90" x="202.24" y="140.416683" style="stroke: #000000; stroke-width: 1.5"/>
     <use xlink:href="#mb538264b90" x="207.82" y="120.086213" style="stroke: #000000; stroke-width: 1.5"/>
     <use xlink:href="#mb538264b90" x="213.4" y="97.011809" style="stroke: #000000; stroke-width: 1.5"/>
     <use xlink:href="#mb538264b90" x="218.98" y="92.23277" style="stroke: #000000; stroke-width: 1.5"/>
     <use xlink:href="#mb538264b90" x="224.56" y="83.602834" style="stroke: #000000; stroke-width: 1.5"/>
     <use xlink:href="#mb538264b90" x="230.14" y="95.533547" style="stroke: #000000; stroke-width: 1.5"/>
     <use xlink:href="#mb538264b90" x="235.72" y="121.601563" style="stroke: #000000; stroke-width: 1.5"/>
     <use xlink:href="#mb538264b90" x="241.3" y="124.144223" style="stroke: #000000; stroke-width: 1.5"/>
     <use xlink:href="#mb538264b90" x="246.88" y="120.186943" style="stroke: #000000; stroke-width: 1.5"/>
     <use xlink:href="#mb538264b90" x="252.46" y="100.773455" style="stroke: #000000; stroke-width: 1.5"/>
     <use xlink:href="#mb538264b90" x="258.04" y="78.968405" style="stroke: #000000; stroke-width: 1.5"/>
     <use xlink:href="#mb538264b90" x="263.62" y="83.011348" style="stroke: #000000; stroke-width: 1.5"/>
     <use xlink:href="#mb538264b90" x="269.2" y="85.555785" style="stroke: #000000; stroke-width: 1.5"/>
     <use xlink:href="#mb538264b90" x="274.78" y="99.803677" style="stroke: #000000; stroke-width: 1.5"/>
     <use xlink:href="#mb538264b90" x="280.36" y="117.878439" style="stroke: #000000; stroke-width: 1.5"/>
     <use xlink:href="#mb538264b90" x="285.94" y="137.114759" style="stroke: #000000; stroke-width: 1.5"/>
     <use xlink:href="#mb538264b90" x="291.52" y="110.40927" style="stroke: #000000; stroke-width: 1.5"/>
     <use xlink:href="#mb538264b90" x="297.1" y="115.388208" style="stroke: #000000; stroke-width: 1.5"/>
     <use xlink:href="#mb538264b90" x="302.68" y="119.249076" style="stroke: #000000; stroke-width: 1.5"/>
     <use xlink:href="#mb538264b90" x="308.26" y="133.042689" style="stroke: #000000; stroke-width: 1.5"/>
     <use xlink:href="#mb538264b90" x="313.84" y="121.544712" style="stroke: #000000; stroke-width: 1.5"/>
     <use xlink:href="#mb538264b90" x="319.42" y="139.221646" style="stroke: #000000; stroke-width: 1.5"/>
     <use xlink:href="#mb538264b90" x="325" y="139.922948" style="stroke: #000000; stroke-width: 1.5"/>
     <use xlink:href="#mb538264b90" x="330.58" y="147.927492" style="stroke: #000000; stroke-width: 1.5"/>
     <use xlink:href="#mb538264b90" x="336.16" y="142.222874" style="stroke: #000000; stroke-width: 1.5"/>
     <use xlink:href="#mb538264b90" x="341.74" y="146.090097" style="stroke: #000000; stroke-width: 1.5"/>
     <use xlink:href="#mb538264b90" x="347.32" y="156.398327" style="stroke: #000000; stroke-width: 1.5"/>
     <use xlink:href="#mb538264b90" x="352.9" y="155.234558" style="stroke: #000000; stroke-width: 1.5"/>
     <use xlink:href="#mb538264b90" x="358.48" y="149.51194" style="stroke: #000000; stroke-width: 1.5"/>
     <use xlink:href="#mb538264b90" x="364.06" y="147.282899" style="stroke: #000000; stroke-width: 1.5"/>
     <use xlink:href="#mb538264b90" x="369.64" y="142.465944" style="stroke: #000000; stroke-width: 1.5"/>
     <use xlink:href="#mb538264b90" x="375.22" y="147.613831" style="stroke: #000000; stroke-width: 1.5"/>
     <use xlink:href="#mb538264b90" x="380.8" y="149.797444" style="stroke: #000000; stroke-width: 1.5"/>
     <use xlink:href="#mb538264b90" x="386.38" y="154.967008" style="stroke: #000000; stroke-width: 1.5"/>
     <use xlink:href="#mb538264b90" x="391.96" y="156.965755" style="stroke: #000000; stroke-width: 1.5"/>
     <use xlink:href="#mb538264b90" x="397.54" y="163.02187" style="stroke: #000000; stroke-width: 1.5"/>
     <use xlink:href="#mb538264b90" x="403.12" y="175.903187" style="stroke: #000000; stroke-width: 1.5"/>
     <use xlink:href="#mb538264b90" x="408.7" y="173.391931" style="stroke: #000000; stroke-width: 1.5"/>
     <use xlink:href="#mb538264b90" x="414.28" y="175.330294" style="stroke: #000000; stroke-width: 1.5"/>
     <use xlink:href="#mb538264b90" x="419.86" y="185.789713" style="stroke: #000000; stroke-width: 1.5"/>
     <use xlink:href="#mb538264b90" x="425.44" y="181.646572" style="stroke: #000000; stroke-width: 1.5"/>
     <use xlink:href="#mb538264b90" x="431.02" y="186.730369" style="stroke: #000000; stroke-width: 1.5"/>
     <use xlink:href="#mb538264b90" x="436.6" y="185.412114" style="stroke: #000000; stroke-width: 1.5"/>
     <use xlink:href="#mb538264b90" x="442.18" y="179.353045" style="stroke: #000000; stroke-width: 1.5"/>
     <use xlink:href="#mb538264b90" x="447.76" y="177.316137" style="stroke: #000000; stroke-width: 1.5"/>
     <use xlink:href="#mb538264b90" x="453.34" y="167.127281" style="stroke: #000000; stroke-width: 1.5"/>
     <use xlink:href="#mb538264b90" x="458.92" y="175.785966" style="stroke: #000000; stroke-width: 1.5"/>
     <use xlink:href="#mb538264b90" x="464.5" y="171.494761" style="stroke: #000000; stroke-width: 1.5"/>
     <use xlink:href="#mb538264b90" x="470.08" y="175.653372" style="stroke: #000000; stroke-width: 1.5"/>
     <use xlink:href="#mb538264b90" x="475.66" y="180.917651" style="stroke: #000000; stroke-width: 1.5"/>
     <use xlink:href="#mb538264b90" x="481.24" y="183.874342" style="stroke: #000000; stroke-width: 1.5"/>
     <use xlink:href="#mb538264b90" x="486.82" y="184.95569" style="stroke: #000000; stroke-width: 1.5"/>
     <use xlink:href="#mb538264b90" x="492.4" y="183.572636" style="stroke: #000000; stroke-width: 1.5"/>
     <use xlink:href="#mb538264b90" x="497.98" y="190.115465" style="stroke: #000000; stroke-width: 1.5"/>
     <use xlink:href="#mb538264b90" x="503.56" y="183.330392" style="stroke: #000000; stroke-width: 1.5"/>
     <use xlink:href="#mb538264b90" x="509.14" y="179.011004" style="stroke: #000000; stroke-width: 1.5"/>
     <use xlink:href="#mb538264b90" x="514.72" y="188.375089" style="stroke: #000000; stroke-width: 1.5"/>
     <use xlink:href="#mb538264b90" x="520.3" y="177.164803" style="stroke: #000000; stroke-width: 1.5"/>
     <use xlink:href="#mb538264b90" x="525.88" y="160.322954" style="stroke: #000000; stroke-width: 1.5"/>
     <use xlink:href="#mb538264b90" x="531.46" y="147.386868" style="stroke: #000000; stroke-width: 1.5"/>
     <use xlink:href="#mb538264b90" x="537.04" y="147.697515" style="stroke: #000000; stroke-width: 1.5"/>
     <use xlink:href="#mb538264b90" x="542.62" y="156.81526" style="stroke: #000000; stroke-width: 1.5"/>
     <use xlink:href="#mb538264b90" x="548.2" y="144.714758" style="stroke: #000000; stroke-width: 1.5"/>
     <use xlink:href="#mb538264b90" x="553.78" y="147.380658" style="stroke: #000000; stroke-width: 1.5"/>
     <use xlink:href="#mb538264b90" x="559.36" y="132.085691" style="stroke: #000000; stroke-width: 1.5"/>
     <use xlink:href="#mb538264b90" x="564.94" y="127.735237" style="stroke: #000000; stroke-width: 1.5"/>
     <use xlink:href="#mb538264b90" x="570.52" y="112.993324" style="stroke: #000000; stroke-width: 1.5"/>
     <use xlink:href="#mb538264b90" x="576.1" y="105.806931" style="stroke: #000000; stroke-width: 1.5"/>
     <use xlink:href="#mb538264b90" x="581.68" y="92.790476" style="stroke: #000000; stroke-width: 1.5"/>
     <use xlink:href="#mb538264b90" x="587.26" y="90.225043" style="stroke: #000000; stroke-width: 1.5"/>
     <use xlink:href="#mb538264b90" x="592.84" y="55.809286" style="stroke: #000000; stroke-width: 1.5"/>
     <use xlink:href="#mb538264b90" x="598.42" y="50.318825" style="stroke: #000000; stroke-width: 1.5"/>
     <use xlink:href="#mb538264b90" x="604" y="38.91007" style="stroke: #000000; stroke-width: 1.5"/>
    </g>
   </g>
   <g id="matplotlib.axis_1">
    <g id="xtick_1">
     <g id="line2d_1">
      <defs>
       <path id="m9727ef90c3" d="M 0 0 
L 0 3.5 
" style="stroke: #000000; stroke-width: 0.8"/>
      </defs>
      <g>
       <use xlink:href="#m9727ef90c3" x="46" y="251.35125" style="stroke: #000000; stroke-width: 0.8"/>
      </g>
     </g>
     <g id="text_1">
      <!-- 0.0 -->
      <g transform="translate(36 269.27875) scale(0.16 -0.16)">
       <defs>
        <path id="STIXGeneral-Regular-30" d="M 3046 2112 
Q 3046 1683 2963 1302 
Q 2880 922 2717 602 
Q 2554 282 2266 96 
Q 1978 -90 1600 -90 
Q 1210 -90 915 108 
Q 621 307 461 640 
Q 301 973 227 1350 
Q 154 1728 154 2150 
Q 154 2746 301 3222 
Q 448 3699 790 4012 
Q 1133 4326 1626 4326 
Q 2253 4326 2649 3712 
Q 3046 3098 3046 2112 
z
M 2432 2080 
Q 2432 3091 2217 3625 
Q 2003 4160 1587 4160 
Q 1190 4160 979 3622 
Q 768 3085 768 2106 
Q 768 1120 979 598 
Q 1190 77 1600 77 
Q 2003 77 2217 598 
Q 2432 1120 2432 2080 
z
" transform="scale(0.015625)"/>
        <path id="STIXGeneral-Regular-2e" d="M 1158 275 
Q 1158 134 1052 32 
Q 947 -70 800 -70 
Q 653 -70 550 32 
Q 448 134 448 281 
Q 448 429 553 534 
Q 659 640 806 640 
Q 947 640 1052 531 
Q 1158 422 1158 275 
z
" transform="scale(0.015625)"/>
       </defs>
       <use xlink:href="#STIXGeneral-Regular-30"/>
       <use xlink:href="#STIXGeneral-Regular-2e" x="49.999985"/>
       <use xlink:href="#STIXGeneral-Regular-30" x="74.999969"/>
      </g>
     </g>
    </g>
    <g id="xtick_2">
     <g id="line2d_2">
      <g>
       <use xlink:href="#m9727ef90c3" x="157.6" y="251.35125" style="stroke: #000000; stroke-width: 0.8"/>
      </g>
     </g>
     <g id="text_2">
      <!-- 0.2 -->
      <g transform="translate(147.6 269.27875) scale(0.16 -0.16)">
       <defs>
        <path id="STIXGeneral-Regular-32" d="M 3034 877 
L 2688 0 
L 186 0 
L 186 77 
L 1325 1286 
Q 1773 1754 1965 2144 
Q 2157 2534 2157 2950 
Q 2157 3379 1920 3616 
Q 1683 3853 1267 3853 
Q 922 3853 720 3673 
Q 518 3494 326 3021 
L 192 3053 
Q 301 3648 630 3987 
Q 960 4326 1523 4326 
Q 2054 4326 2380 4006 
Q 2707 3686 2707 3200 
Q 2707 2477 1888 1613 
L 832 486 
L 2330 486 
Q 2541 486 2665 569 
Q 2790 653 2944 915 
L 3034 877 
z
" transform="scale(0.015625)"/>
       </defs>
       <use xlink:href="#STIXGeneral-Regular-30"/>
       <use xlink:href="#STIXGeneral-Regular-2e" x="49.999985"/>
       <use xlink:href="#STIXGeneral-Regular-32" x="74.999969"/>
      </g>
     </g>
    </g>
    <g id="xtick_3">
     <g id="line2d_3">
      <g>
       <use xlink:href="#m9727ef90c3" x="269.2" y="251.35125" style="stroke: #000000; stroke-width: 0.8"/>
      </g>
     </g>
     <g id="text_3">
      <!-- 0.4 -->
      <g transform="translate(259.2 269.27875) scale(0.16 -0.16)">
       <defs>
        <path id="STIXGeneral-Regular-34" d="M 3027 1069 
L 2368 1069 
L 2368 0 
L 1869 0 
L 1869 1069 
L 77 1069 
L 77 1478 
L 2086 4326 
L 2368 4326 
L 2368 1478 
L 3027 1478 
L 3027 1069 
z
M 1869 1478 
L 1869 3674 
L 333 1478 
L 1869 1478 
z
" transform="scale(0.015625)"/>
       </defs>
       <use xlink:href="#STIXGeneral-Regular-30"/>
       <use xlink:href="#STIXGeneral-Regular-2e" x="49.999985"/>
       <use xlink:href="#STIXGeneral-Regular-34" x="74.999969"/>
      </g>
     </g>
    </g>
    <g id="xtick_4">
     <g id="line2d_4">
      <g>
       <use xlink:href="#m9727ef90c3" x="380.8" y="251.35125" style="stroke: #000000; stroke-width: 0.8"/>
      </g>
     </g>
     <g id="text_4">
      <!-- 0.6 -->
      <g transform="translate(370.8 269.27875) scale(0.16 -0.16)">
       <defs>
        <path id="STIXGeneral-Regular-36" d="M 2854 4378 
L 2867 4275 
Q 2112 4154 1606 3664 
Q 1101 3174 973 2451 
Q 1344 2739 1786 2739 
Q 2349 2739 2672 2380 
Q 2995 2022 2995 1402 
Q 2995 774 2669 378 
Q 2291 -90 1651 -90 
Q 870 -90 518 557 
Q 218 1107 218 1786 
Q 218 2835 915 3552 
Q 1312 3962 1731 4131 
Q 2150 4301 2854 4378 
z
M 2419 1203 
Q 2419 2445 1555 2445 
Q 1235 2445 1024 2275 
Q 813 2106 813 1702 
Q 813 954 1046 522 
Q 1280 90 1722 90 
Q 2061 90 2240 394 
Q 2419 698 2419 1203 
z
" transform="scale(0.015625)"/>
       </defs>
       <use xlink:href="#STIXGeneral-Regular-30"/>
       <use xlink:href="#STIXGeneral-Regular-2e" x="49.999985"/>
       <use xlink:href="#STIXGeneral-Regular-36" x="74.999969"/>
      </g>
     </g>
    </g>
    <g id="xtick_5">
     <g id="line2d_5">
      <g>
       <use xlink:href="#m9727ef90c3" x="492.4" y="251.35125" style="stroke: #000000; stroke-width: 0.8"/>
      </g>
     </g>
     <g id="text_5">
      <!-- 0.8 -->
      <g transform="translate(482.4 269.27875) scale(0.16 -0.16)">
       <defs>
        <path id="STIXGeneral-Regular-38" d="M 2848 992 
Q 2848 499 2505 204 
Q 2163 -90 1587 -90 
Q 1050 -90 704 204 
Q 358 499 358 954 
Q 358 1293 524 1533 
Q 691 1773 1190 2125 
Q 710 2522 553 2765 
Q 397 3008 397 3328 
Q 397 3782 745 4054 
Q 1094 4326 1638 4326 
Q 2106 4326 2410 4060 
Q 2714 3795 2714 3411 
Q 2714 3059 2531 2848 
Q 2349 2637 1856 2374 
Q 2432 1990 2640 1689 
Q 2848 1389 2848 992 
z
M 2272 3411 
Q 2272 3744 2086 3945 
Q 1901 4147 1574 4147 
Q 1248 4147 1059 3977 
Q 870 3808 870 3513 
Q 870 3219 1059 2979 
Q 1248 2739 1670 2490 
Q 1997 2682 2134 2896 
Q 2272 3110 2272 3411 
z
M 1734 1741 
L 1357 1997 
Q 1075 1766 960 1545 
Q 845 1325 845 1011 
Q 845 576 1065 333 
Q 1286 90 1658 90 
Q 1971 90 2166 285 
Q 2362 480 2362 794 
Q 2362 1082 2214 1299 
Q 2067 1517 1734 1741 
z
" transform="scale(0.015625)"/>
       </defs>
       <use xlink:href="#STIXGeneral-Regular-30"/>
       <use xlink:href="#STIXGeneral-Regular-2e" x="49.999985"/>
       <use xlink:href="#STIXGeneral-Regular-38" x="74.999969"/>
      </g>
     </g>
    </g>
    <g id="xtick_6">
     <g id="line2d_6">
      <g>
       <use xlink:href="#m9727ef90c3" x="604" y="251.35125" style="stroke: #000000; stroke-width: 0.8"/>
      </g>
     </g>
     <g id="text_6">
      <!-- 1.0 -->
      <g transform="translate(594 269.27875) scale(0.16 -0.16)">
       <defs>
        <path id="STIXGeneral-Regular-31" d="M 2522 0 
L 755 0 
L 755 96 
Q 1107 115 1235 227 
Q 1363 339 1363 608 
L 1363 3482 
Q 1363 3795 1171 3795 
Q 1082 3795 883 3718 
L 710 3654 
L 710 3744 
L 1856 4326 
L 1914 4307 
L 1914 486 
Q 1914 275 2042 185 
Q 2170 96 2522 96 
L 2522 0 
z
" transform="scale(0.015625)"/>
       </defs>
       <use xlink:href="#STIXGeneral-Regular-31"/>
       <use xlink:href="#STIXGeneral-Regular-2e" x="49.999985"/>
       <use xlink:href="#STIXGeneral-Regular-30" x="74.999969"/>
      </g>
     </g>
    </g>
    <g id="text_7">
     <!-- $t$ -->
     <g transform="translate(321.92 291.776563) scale(0.22 -0.22)">
      <defs>
       <path id="STIXGeneral-Italic-74" d="M 1894 2739 
L 1862 2534 
L 1325 2534 
L 768 435 
Q 755 384 755 346 
Q 755 243 851 243 
Q 928 243 1030 342 
Q 1133 442 1370 749 
L 1453 704 
Q 1158 256 969 93 
Q 781 -70 538 -70 
Q 243 -70 243 166 
Q 243 230 346 640 
L 845 2534 
L 365 2534 
L 358 2573 
Q 358 2688 570 2733 
Q 730 2771 992 2979 
Q 1254 3187 1421 3437 
Q 1459 3494 1510 3494 
Q 1568 3494 1568 3443 
Q 1568 3411 1562 3398 
L 1382 2739 
L 1894 2739 
z
" transform="scale(0.015625)"/>
      </defs>
      <use xlink:href="#STIXGeneral-Italic-74" transform="translate(0 0.40625)"/>
     </g>
    </g>
   </g>
   <g id="matplotlib.axis_2">
    <g id="ytick_1">
     <g id="line2d_7">
      <defs>
       <path id="m7734e6bb77" d="M 0 0 
L -3.5 0 
" style="stroke: #000000; stroke-width: 0.8"/>
      </defs>
      <g>
       <use xlink:href="#m7734e6bb77" x="46" y="251.35125" style="stroke: #000000; stroke-width: 0.8"/>
      </g>
     </g>
     <g id="text_8">
      <!-- 0 -->
      <g transform="translate(31 256.815) scale(0.16 -0.16)">
       <use xlink:href="#STIXGeneral-Regular-30"/>
      </g>
     </g>
    </g>
    <g id="ytick_2">
     <g id="line2d_8">
      <g>
       <use xlink:href="#m7734e6bb77" x="46" y="199.221689" style="stroke: #000000; stroke-width: 0.8"/>
      </g>
     </g>
     <g id="text_9">
      <!-- 2 -->
      <g transform="translate(31 204.685439) scale(0.16 -0.16)">
       <use xlink:href="#STIXGeneral-Regular-32"/>
      </g>
     </g>
    </g>
    <g id="ytick_3">
     <g id="line2d_9">
      <g>
       <use xlink:href="#m7734e6bb77" x="46" y="147.092128" style="stroke: #000000; stroke-width: 0.8"/>
      </g>
     </g>
     <g id="text_10">
      <!-- 4 -->
      <g transform="translate(31 152.555878) scale(0.16 -0.16)">
       <use xlink:href="#STIXGeneral-Regular-34"/>
      </g>
     </g>
    </g>
    <g id="ytick_4">
     <g id="line2d_10">
      <g>
       <use xlink:href="#m7734e6bb77" x="46" y="94.962567" style="stroke: #000000; stroke-width: 0.8"/>
      </g>
     </g>
     <g id="text_11">
      <!-- 6 -->
      <g transform="translate(31 100.426317) scale(0.16 -0.16)">
       <use xlink:href="#STIXGeneral-Regular-36"/>
      </g>
     </g>
    </g>
    <g id="ytick_5">
     <g id="line2d_11">
      <g>
       <use xlink:href="#m7734e6bb77" x="46" y="42.833006" style="stroke: #000000; stroke-width: 0.8"/>
      </g>
     </g>
     <g id="text_12">
      <!-- 8 -->
      <g transform="translate(31 48.296756) scale(0.16 -0.16)">
       <use xlink:href="#STIXGeneral-Regular-38"/>
      </g>
     </g>
    </g>
    <g id="text_13">
     <!-- $X(t)$ -->
     <g transform="translate(22.225313 157.63125) rotate(-90) scale(0.22 -0.22)">
      <defs>
       <path id="STIXGeneral-Italic-58" d="M 4192 4179 
L 4192 4077 
Q 3981 4006 3805 3875 
Q 3629 3744 3392 3469 
L 2310 2227 
L 2957 595 
Q 3072 307 3187 224 
Q 3302 141 3629 102 
L 3629 0 
L 1894 0 
L 1894 102 
Q 2170 109 2278 163 
Q 2387 218 2387 339 
Q 2387 442 2298 666 
L 1869 1722 
L 902 621 
Q 755 454 755 314 
Q 755 102 1178 102 
L 1178 0 
L -186 0 
L -186 102 
Q 70 147 300 361 
Q 531 576 1222 1382 
L 1754 2003 
L 1094 3635 
Q 998 3872 880 3961 
Q 762 4051 486 4077 
L 486 4179 
L 2170 4179 
L 2170 4077 
Q 1907 4045 1811 3990 
Q 1715 3936 1715 3814 
Q 1715 3706 1818 3456 
L 2195 2515 
L 3123 3584 
Q 3258 3738 3258 3859 
Q 3258 4058 2867 4077 
L 2867 4179 
L 4192 4179 
z
" transform="scale(0.015625)"/>
       <path id="STIXGeneral-Regular-28" d="M 1946 -1030 
L 1869 -1133 
Q 1126 -710 716 32 
Q 307 774 307 1613 
Q 307 3386 1888 4326 
L 1946 4224 
Q 1293 3667 1075 3126 
Q 858 2586 858 1632 
Q 858 685 1082 96 
Q 1306 -493 1946 -1030 
z
" transform="scale(0.015625)"/>
       <path id="STIXGeneral-Regular-29" d="M 186 4224 
L 262 4326 
Q 992 3891 1408 3148 
Q 1824 2406 1824 1581 
Q 1824 -166 243 -1133 
L 186 -1030 
Q 845 -486 1059 54 
Q 1274 595 1274 1562 
Q 1274 2534 1059 3120 
Q 845 3706 186 4224 
z
" transform="scale(0.015625)"/>
      </defs>
      <use xlink:href="#STIXGeneral-Italic-58" transform="translate(0 0.40625)"/>
      <use xlink:href="#STIXGeneral-Regular-28" transform="translate(61.099991 0.40625)"/>
      <use xlink:href="#STIXGeneral-Italic-74" transform="translate(94.399979 0.40625)"/>
      <use xlink:href="#STIXGeneral-Regular-29" transform="translate(122.199966 0.40625)"/>
     </g>
    </g>
   </g>
   <g id="PathCollection_2">
    <defs>
     <path id="ma19b290e77" d="M -2.236068 2.236068 
L 2.236068 -2.236068 
M -2.236068 -2.236068 
L 2.236068 2.236068 
" style="stroke: #ff0000; stroke-width: 1.5"/>
    </defs>
    <g clip-path="url(#pb37661f472)">
     <use xlink:href="#ma19b290e77" x="46" y="225.28647" style="fill: #ff0000; stroke: #ff0000; stroke-width: 1.5"/>
     <use xlink:href="#ma19b290e77" x="51.58" y="220.16721" style="fill: #ff0000; stroke: #ff0000; stroke-width: 1.5"/>
     <use xlink:href="#ma19b290e77" x="57.16" y="218.295678" style="fill: #ff0000; stroke: #ff0000; stroke-width: 1.5"/>
     <use xlink:href="#ma19b290e77" x="62.74" y="214.399292" style="fill: #ff0000; stroke: #ff0000; stroke-width: 1.5"/>
     <use xlink:href="#ma19b290e77" x="68.32" y="205.379713" style="fill: #ff0000; stroke: #ff0000; stroke-width: 1.5"/>
     <use xlink:href="#ma19b290e77" x="73.9" y="195.874832" style="fill: #ff0000; stroke: #ff0000; stroke-width: 1.5"/>
     <use xlink:href="#ma19b290e77" x="79.48" y="200.186891" style="fill: #ff0000; stroke: #ff0000; stroke-width: 1.5"/>
     <use xlink:href="#ma19b290e77" x="85.06" y="194.302537" style="fill: #ff0000; stroke: #ff0000; stroke-width: 1.5"/>
     <use xlink:href="#ma19b290e77" x="90.64" y="194.025036" style="fill: #ff0000; stroke: #ff0000; stroke-width: 1.5"/>
     <use xlink:href="#ma19b290e77" x="96.22" y="193.470227" style="fill: #ff0000; stroke: #ff0000; stroke-width: 1.5"/>
     <use xlink:href="#ma19b290e77" x="101.8" y="189.93602" style="fill: #ff0000; stroke: #ff0000; stroke-width: 1.5"/>
     <use xlink:href="#ma19b290e77" x="107.38" y="187.823069" style="fill: #ff0000; stroke: #ff0000; stroke-width: 1.5"/>
     <use xlink:href="#ma19b290e77" x="112.96" y="177.31377" style="fill: #ff0000; stroke: #ff0000; stroke-width: 1.5"/>
     <use xlink:href="#ma19b290e77" x="118.54" y="170.198489" style="fill: #ff0000; stroke: #ff0000; stroke-width: 1.5"/>
     <use xlink:href="#ma19b290e77" x="124.12" y="167.588007" style="fill: #ff0000; stroke: #ff0000; stroke-width: 1.5"/>
     <use xlink:href="#ma19b290e77" x="129.7" y="162.1948" style="fill: #ff0000; stroke: #ff0000; stroke-width: 1.5"/>
     <use xlink:href="#ma19b290e77" x="135.28" y="157.436749" style="fill: #ff0000; stroke: #ff0000; stroke-width: 1.5"/>
     <use xlink:href="#ma19b290e77" x="140.86" y="141.52689" style="fill: #ff0000; stroke: #ff0000; stroke-width: 1.5"/>
     <use xlink:href="#ma19b290e77" x="146.44" y="141.58354" style="fill: #ff0000; stroke: #ff0000; stroke-width: 1.5"/>
     <use xlink:href="#ma19b290e77" x="152.02" y="135.951713" style="fill: #ff0000; stroke: #ff0000; stroke-width: 1.5"/>
     <use xlink:href="#ma19b290e77" x="157.6" y="143.499948" style="fill: #ff0000; stroke: #ff0000; stroke-width: 1.5"/>
     <use xlink:href="#ma19b290e77" x="163.18" y="168.87725" style="fill: #ff0000; stroke: #ff0000; stroke-width: 1.5"/>
     <use xlink:href="#ma19b290e77" x="168.76" y="161.837115" style="fill: #ff0000; stroke: #ff0000; stroke-width: 1.5"/>
     <use xlink:href="#ma19b290e77" x="174.34" y="152.308907" style="fill: #ff0000; stroke: #ff0000; stroke-width: 1.5"/>
     <use xlink:href="#ma19b290e77" x="179.92" y="157.678636" style="fill: #ff0000; stroke: #ff0000; stroke-width: 1.5"/>
     <use xlink:href="#ma19b290e77" x="185.5" y="134.543799" style="fill: #ff0000; stroke: #ff0000; stroke-width: 1.5"/>
     <use xlink:href="#ma19b290e77" x="191.08" y="149.195725" style="fill: #ff0000; stroke: #ff0000; stroke-width: 1.5"/>
     <use xlink:href="#ma19b290e77" x="196.66" y="146.685166" style="fill: #ff0000; stroke: #ff0000; stroke-width: 1.5"/>
     <use xlink:href="#ma19b290e77" x="202.24" y="146.551024" style="fill: #ff0000; stroke: #ff0000; stroke-width: 1.5"/>
     <use xlink:href="#ma19b290e77" x="207.82" y="128.391459" style="fill: #ff0000; stroke: #ff0000; stroke-width: 1.5"/>
     <use xlink:href="#ma19b290e77" x="213.4" y="107.865058" style="fill: #ff0000; stroke: #ff0000; stroke-width: 1.5"/>
     <use xlink:href="#ma19b290e77" x="218.98" y="102.772053" style="fill: #ff0000; stroke: #ff0000; stroke-width: 1.5"/>
     <use xlink:href="#ma19b290e77" x="224.56" y="94.181761" style="fill: #ff0000; stroke: #ff0000; stroke-width: 1.5"/>
     <use xlink:href="#ma19b290e77" x="230.14" y="104.991654" style="fill: #ff0000; stroke: #ff0000; stroke-width: 1.5"/>
     <use xlink:href="#ma19b290e77" x="235.72" y="131.055319" style="fill: #ff0000; stroke: #ff0000; stroke-width: 1.5"/>
     <use xlink:href="#ma19b290e77" x="241.3" y="132.834642" style="fill: #ff0000; stroke: #ff0000; stroke-width: 1.5"/>
     <use xlink:href="#ma19b290e77" x="246.88" y="128.611315" style="fill: #ff0000; stroke: #ff0000; stroke-width: 1.5"/>
     <use xlink:href="#ma19b290e77" x="252.46" y="111.055937" style="fill: #ff0000; stroke: #ff0000; stroke-width: 1.5"/>
     <use xlink:href="#ma19b290e77" x="258.04" y="91.381205" style="fill: #ff0000; stroke: #ff0000; stroke-width: 1.5"/>
     <use xlink:href="#ma19b290e77" x="263.62" y="94.377873" style="fill: #ff0000; stroke: #ff0000; stroke-width: 1.5"/>
     <use xlink:href="#ma19b290e77" x="269.2" y="95.983753" style="fill: #ff0000; stroke: #ff0000; stroke-width: 1.5"/>
     <use xlink:href="#ma19b290e77" x="274.78" y="109.167508" style="fill: #ff0000; stroke: #ff0000; stroke-width: 1.5"/>
     <use xlink:href="#ma19b290e77" x="280.36" y="126.51418" style="fill: #ff0000; stroke: #ff0000; stroke-width: 1.5"/>
     <use xlink:href="#ma19b290e77" x="285.94" y="145.318016" style="fill: #ff0000; stroke: #ff0000; stroke-width: 1.5"/>
     <use xlink:href="#ma19b290e77" x="291.52" y="122.512649" style="fill: #ff0000; stroke: #ff0000; stroke-width: 1.5"/>
     <use xlink:href="#ma19b290e77" x="297.1" y="126.502164" style="fill: #ff0000; stroke: #ff0000; stroke-width: 1.5"/>
     <use xlink:href="#ma19b290e77" x="302.68" y="129.4745" style="fill: #ff0000; stroke: #ff0000; stroke-width: 1.5"/>
     <use xlink:href="#ma19b290e77" x="308.26" y="142.305628" style="fill: #ff0000; stroke: #ff0000; stroke-width: 1.5"/>
     <use xlink:href="#ma19b290e77" x="313.84" y="131.646523" style="fill: #ff0000; stroke: #ff0000; stroke-width: 1.5"/>
     <use xlink:href="#ma19b290e77" x="319.42" y="148.571549" style="fill: #ff0000; stroke: #ff0000; stroke-width: 1.5"/>
     <use xlink:href="#ma19b290e77" x="325" y="148.702493" style="fill: #ff0000; stroke: #ff0000; stroke-width: 1.5"/>
     <use xlink:href="#ma19b290e77" x="330.58" y="155.841371" style="fill: #ff0000; stroke: #ff0000; stroke-width: 1.5"/>
     <use xlink:href="#ma19b290e77" x="336.16" y="150.235872" style="fill: #ff0000; stroke: #ff0000; stroke-width: 1.5"/>
     <use xlink:href="#ma19b290e77" x="341.74" y="153.37859" style="fill: #ff0000; stroke: #ff0000; stroke-width: 1.5"/>
     <use xlink:href="#ma19b290e77" x="347.32" y="162.986104" style="fill: #ff0000; stroke: #ff0000; stroke-width: 1.5"/>
     <use xlink:href="#ma19b290e77" x="352.9" y="161.467834" style="fill: #ff0000; stroke: #ff0000; stroke-width: 1.5"/>
     <use xlink:href="#ma19b290e77" x="358.48" y="155.820173" style="fill: #ff0000; stroke: #ff0000; stroke-width: 1.5"/>
     <use xlink:href="#ma19b290e77" x="364.06" y="153.274105" style="fill: #ff0000; stroke: #ff0000; stroke-width: 1.5"/>
     <use xlink:href="#ma19b290e77" x="369.64" y="148.346004" style="fill: #ff0000; stroke: #ff0000; stroke-width: 1.5"/>
     <use xlink:href="#ma19b290e77" x="375.22" y="152.819749" style="fill: #ff0000; stroke: #ff0000; stroke-width: 1.5"/>
     <use xlink:href="#ma19b290e77" x="380.8" y="154.423262" style="fill: #ff0000; stroke: #ff0000; stroke-width: 1.5"/>
     <use xlink:href="#ma19b290e77" x="386.38" y="159.002727" style="fill: #ff0000; stroke: #ff0000; stroke-width: 1.5"/>
     <use xlink:href="#ma19b290e77" x="391.96" y="160.476176" style="fill: #ff0000; stroke: #ff0000; stroke-width: 1.5"/>
     <use xlink:href="#ma19b290e77" x="397.54" y="166.048148" style="fill: #ff0000; stroke: #ff0000; stroke-width: 1.5"/>
     <use xlink:href="#ma19b290e77" x="403.12" y="179.067812" style="fill: #ff0000; stroke: #ff0000; stroke-width: 1.5"/>
     <use xlink:href="#ma19b290e77" x="408.7" y="176.339646" style="fill: #ff0000; stroke: #ff0000; stroke-width: 1.5"/>
     <use xlink:href="#ma19b290e77" x="414.28" y="177.853237" style="fill: #ff0000; stroke: #ff0000; stroke-width: 1.5"/>
     <use xlink:href="#ma19b290e77" x="419.86" y="188.364911" style="fill: #ff0000; stroke: #ff0000; stroke-width: 1.5"/>
     <use xlink:href="#ma19b290e77" x="425.44" y="184.190288" style="fill: #ff0000; stroke: #ff0000; stroke-width: 1.5"/>
     <use xlink:href="#ma19b290e77" x="431.02" y="188.940572" style="fill: #ff0000; stroke: #ff0000; stroke-width: 1.5"/>
     <use xlink:href="#ma19b290e77" x="436.6" y="187.368164" style="fill: #ff0000; stroke: #ff0000; stroke-width: 1.5"/>
     <use xlink:href="#ma19b290e77" x="442.18" y="181.423555" style="fill: #ff0000; stroke: #ff0000; stroke-width: 1.5"/>
     <use xlink:href="#ma19b290e77" x="447.76" y="179.123054" style="fill: #ff0000; stroke: #ff0000; stroke-width: 1.5"/>
     <use xlink:href="#ma19b290e77" x="453.34" y="169.448804" style="fill: #ff0000; stroke: #ff0000; stroke-width: 1.5"/>
     <use xlink:href="#ma19b290e77" x="458.92" y="177.924281" style="fill: #ff0000; stroke: #ff0000; stroke-width: 1.5"/>
     <use xlink:href="#ma19b290e77" x="464.5" y="173.501469" style="fill: #ff0000; stroke: #ff0000; stroke-width: 1.5"/>
     <use xlink:href="#ma19b290e77" x="470.08" y="177.275705" style="fill: #ff0000; stroke: #ff0000; stroke-width: 1.5"/>
     <use xlink:href="#ma19b290e77" x="475.66" y="182.244671" style="fill: #ff0000; stroke: #ff0000; stroke-width: 1.5"/>
     <use xlink:href="#ma19b290e77" x="481.24" y="184.862771" style="fill: #ff0000; stroke: #ff0000; stroke-width: 1.5"/>
     <use xlink:href="#ma19b290e77" x="486.82" y="185.604467" style="fill: #ff0000; stroke: #ff0000; stroke-width: 1.5"/>
     <use xlink:href="#ma19b290e77" x="492.4" y="183.920263" style="fill: #ff0000; stroke: #ff0000; stroke-width: 1.5"/>
     <use xlink:href="#ma19b290e77" x="497.98" y="190.428363" style="fill: #ff0000; stroke: #ff0000; stroke-width: 1.5"/>
     <use xlink:href="#ma19b290e77" x="503.56" y="183.72181" style="fill: #ff0000; stroke: #ff0000; stroke-width: 1.5"/>
     <use xlink:href="#ma19b290e77" x="509.14" y="179.219973" style="fill: #ff0000; stroke: #ff0000; stroke-width: 1.5"/>
     <use xlink:href="#ma19b290e77" x="514.72" y="188.858469" style="fill: #ff0000; stroke: #ff0000; stroke-width: 1.5"/>
     <use xlink:href="#ma19b290e77" x="520.3" y="178.308112" style="fill: #ff0000; stroke: #ff0000; stroke-width: 1.5"/>
     <use xlink:href="#ma19b290e77" x="525.88" y="162.999079" style="fill: #ff0000; stroke: #ff0000; stroke-width: 1.5"/>
     <use xlink:href="#ma19b290e77" x="531.46" y="150.817263" style="fill: #ff0000; stroke: #ff0000; stroke-width: 1.5"/>
     <use xlink:href="#ma19b290e77" x="537.04" y="150.615439" style="fill: #ff0000; stroke: #ff0000; stroke-width: 1.5"/>
     <use xlink:href="#ma19b290e77" x="542.62" y="159.387036" style="fill: #ff0000; stroke: #ff0000; stroke-width: 1.5"/>
     <use xlink:href="#ma19b290e77" x="548.2" y="147.850569" style="fill: #ff0000; stroke: #ff0000; stroke-width: 1.5"/>
     <use xlink:href="#ma19b290e77" x="553.78" y="149.953465" style="fill: #ff0000; stroke: #ff0000; stroke-width: 1.5"/>
     <use xlink:href="#ma19b290e77" x="559.36" y="135.530187" style="fill: #ff0000; stroke: #ff0000; stroke-width: 1.5"/>
     <use xlink:href="#ma19b290e77" x="564.94" y="130.801502" style="fill: #ff0000; stroke: #ff0000; stroke-width: 1.5"/>
     <use xlink:href="#ma19b290e77" x="570.52" y="116.617148" style="fill: #ff0000; stroke: #ff0000; stroke-width: 1.5"/>
     <use xlink:href="#ma19b290e77" x="576.1" y="109.120996" style="fill: #ff0000; stroke: #ff0000; stroke-width: 1.5"/>
     <use xlink:href="#ma19b290e77" x="581.68" y="96.226783" style="fill: #ff0000; stroke: #ff0000; stroke-width: 1.5"/>
     <use xlink:href="#ma19b290e77" x="587.26" y="92.961412" style="fill: #ff0000; stroke: #ff0000; stroke-width: 1.5"/>
     <use xlink:href="#ma19b290e77" x="592.84" y="61.507242" style="fill: #ff0000; stroke: #ff0000; stroke-width: 1.5"/>
     <use xlink:href="#ma19b290e77" x="598.42" y="55.301012" style="fill: #ff0000; stroke: #ff0000; stroke-width: 1.5"/>
     <use xlink:href="#ma19b290e77" x="604" y="43.498996" style="fill: #ff0000; stroke: #ff0000; stroke-width: 1.5"/>
    </g>
   </g>
   <g id="patch_3">
    <path d="M 46 251.35125 
L 46 29.59125 
" style="fill: none; stroke: #000000; stroke-width: 0.8; stroke-linejoin: miter; stroke-linecap: square"/>
   </g>
   <g id="patch_4">
    <path d="M 604 251.35125 
L 604 29.59125 
" style="fill: none; stroke: #000000; stroke-width: 0.8; stroke-linejoin: miter; stroke-linecap: square"/>
   </g>
   <g id="patch_5">
    <path d="M 46 251.35125 
L 604 251.35125 
" style="fill: none; stroke: #000000; stroke-width: 0.8; stroke-linejoin: miter; stroke-linecap: square"/>
   </g>
   <g id="patch_6">
    <path d="M 46 29.59125 
L 604 29.59125 
" style="fill: none; stroke: #000000; stroke-width: 0.8; stroke-linejoin: miter; stroke-linecap: square"/>
   </g>
   <g id="text_14">
    <!-- EM and exact solutions of Black-Scholes -->
    <g transform="translate(126.683125 23.59125) scale(0.24 -0.24)">
     <defs>
      <path id="STIXGeneral-Regular-45" d="M 3821 1082 
L 3526 0 
L 77 0 
L 77 122 
Q 442 147 538 252 
Q 634 358 634 730 
L 634 3520 
Q 634 3878 534 3987 
Q 435 4096 77 4115 
L 77 4237 
L 3469 4237 
L 3494 3322 
L 3334 3322 
Q 3264 3750 3085 3872 
Q 2906 3994 2349 3994 
L 1510 3994 
Q 1370 3994 1328 3952 
Q 1286 3910 1286 3763 
L 1286 2355 
L 2253 2355 
Q 2656 2355 2787 2470 
Q 2918 2586 2976 2970 
L 3123 2970 
L 3123 1472 
L 2976 1472 
Q 2918 1875 2790 1984 
Q 2662 2093 2253 2093 
L 1286 2093 
L 1286 538 
Q 1286 346 1420 291 
Q 1555 237 1933 237 
L 2163 237 
Q 2848 237 3136 403 
Q 3424 570 3642 1082 
L 3821 1082 
z
" transform="scale(0.015625)"/>
      <path id="STIXGeneral-Regular-4d" d="M 5530 0 
L 3738 0 
L 3738 122 
Q 4115 147 4214 265 
Q 4314 384 4314 787 
L 4314 3661 
L 2682 0 
L 2592 0 
L 979 3514 
L 979 966 
Q 979 448 1088 294 
Q 1197 141 1574 122 
L 1574 0 
L 77 0 
L 77 122 
Q 358 141 480 205 
Q 602 269 650 432 
Q 698 595 698 966 
L 698 3514 
Q 698 3878 589 3984 
Q 480 4090 90 4115 
L 90 4237 
L 1357 4237 
L 2835 1024 
L 4250 4237 
L 5523 4237 
L 5523 4115 
Q 5178 4109 5072 3993 
Q 4966 3878 4966 3520 
L 4966 717 
Q 4966 378 5072 262 
Q 5178 147 5530 122 
L 5530 0 
z
" transform="scale(0.015625)"/>
      <path id="STIXGeneral-Regular-20" transform="scale(0.015625)"/>
      <path id="STIXGeneral-Regular-61" d="M 2829 422 
L 2829 243 
Q 2586 -64 2253 -64 
Q 1888 -64 1843 403 
L 1837 403 
Q 1427 -64 909 -64 
Q 608 -64 422 112 
Q 237 288 237 602 
Q 237 1050 685 1350 
Q 992 1555 1837 1869 
L 1837 2214 
Q 1837 2502 1699 2646 
Q 1562 2790 1338 2790 
Q 1146 2790 1018 2697 
Q 890 2605 890 2477 
Q 890 2419 909 2348 
Q 928 2278 928 2208 
Q 928 2112 841 2029 
Q 755 1946 634 1946 
Q 525 1946 441 2029 
Q 358 2112 358 2240 
Q 358 2547 685 2752 
Q 986 2944 1421 2944 
Q 1939 2944 2176 2656 
Q 2291 2522 2323 2384 
Q 2355 2246 2355 1946 
L 2355 723 
Q 2355 301 2554 301 
Q 2682 301 2829 422 
z
M 1837 813 
L 1837 1715 
Q 1248 1510 1018 1293 
Q 800 1094 800 800 
Q 800 557 921 432 
Q 1043 307 1242 307 
Q 1453 307 1613 410 
Q 1747 506 1792 589 
Q 1837 672 1837 813 
z
" transform="scale(0.015625)"/>
      <path id="STIXGeneral-Regular-6e" d="M 3104 0 
L 1773 0 
L 1779 96 
Q 2016 115 2096 233 
Q 2176 352 2176 672 
L 2176 1946 
Q 2176 2592 1709 2592 
Q 1549 2592 1408 2515 
Q 1267 2438 1050 2227 
L 1050 461 
Q 1050 269 1136 192 
Q 1222 115 1466 96 
L 1466 0 
L 115 0 
L 115 96 
Q 358 115 435 214 
Q 512 314 512 602 
L 512 2157 
Q 512 2394 467 2483 
Q 422 2573 288 2573 
Q 160 2573 102 2547 
L 102 2656 
Q 550 2784 979 2944 
L 1030 2925 
L 1030 2426 
L 1037 2426 
Q 1491 2944 1958 2944 
Q 2323 2944 2518 2688 
Q 2714 2432 2714 1958 
L 2714 544 
Q 2714 288 2790 205 
Q 2867 122 3104 96 
L 3104 0 
z
" transform="scale(0.015625)"/>
      <path id="STIXGeneral-Regular-64" d="M 3142 269 
L 2202 -64 
L 2176 -45 
L 2176 365 
Q 1869 -64 1357 -64 
Q 826 -64 499 317 
Q 173 698 173 1312 
Q 173 1990 563 2467 
Q 954 2944 1504 2944 
Q 1850 2944 2176 2669 
L 2176 3667 
Q 2176 3866 2118 3930 
Q 2061 3994 1882 3994 
Q 1792 3994 1741 3987 
L 1741 4090 
Q 2323 4243 2682 4371 
L 2714 4358 
L 2714 730 
Q 2714 506 2768 435 
Q 2822 365 2995 365 
Q 3034 365 3142 371 
L 3142 269 
z
M 2176 653 
L 2176 2125 
Q 2176 2381 1981 2573 
Q 1786 2765 1523 2765 
Q 1158 2765 940 2438 
Q 723 2112 723 1568 
Q 723 979 963 624 
Q 1203 269 1606 269 
Q 1907 269 2080 474 
Q 2176 582 2176 653 
z
" transform="scale(0.015625)"/>
      <path id="STIXGeneral-Regular-65" d="M 2611 1050 
L 2714 1005 
Q 2330 -64 1376 -64 
Q 813 -64 486 329 
Q 160 723 160 1389 
Q 160 2074 525 2509 
Q 890 2944 1485 2944 
Q 2061 2944 2374 2502 
Q 2560 2246 2592 1773 
L 621 1773 
Q 646 1370 700 1158 
Q 755 947 915 730 
Q 1184 378 1626 378 
Q 1939 378 2153 531 
Q 2368 685 2611 1050 
z
M 634 1978 
L 1939 1978 
Q 1882 2381 1750 2547 
Q 1619 2714 1312 2714 
Q 1043 2714 864 2525 
Q 685 2336 634 1978 
z
" transform="scale(0.015625)"/>
      <path id="STIXGeneral-Regular-78" d="M 3066 0 
L 1779 0 
L 1779 96 
Q 1939 109 1987 137 
Q 2035 166 2035 250 
Q 2035 307 1997 365 
L 1414 1261 
L 909 474 
Q 781 275 781 211 
Q 781 96 1037 96 
L 1037 0 
L 109 0 
L 109 96 
Q 269 109 355 169 
Q 442 230 576 422 
L 1306 1478 
L 704 2400 
Q 557 2624 454 2704 
Q 352 2784 211 2784 
L 154 2784 
L 154 2880 
L 1478 2880 
L 1478 2784 
Q 1203 2778 1203 2643 
Q 1203 2509 1498 2074 
Q 1581 1958 1587 1946 
Q 1619 1990 1779 2227 
Q 1811 2285 1856 2349 
Q 1901 2413 1923 2451 
Q 1946 2490 1971 2528 
Q 1997 2566 2006 2595 
Q 2016 2624 2016 2643 
Q 2016 2765 1760 2784 
L 1760 2880 
L 2771 2880 
L 2771 2784 
Q 2445 2771 2253 2502 
L 1722 1734 
L 2541 480 
Q 2790 96 3066 96 
L 3066 0 
z
" transform="scale(0.015625)"/>
      <path id="STIXGeneral-Regular-63" d="M 2547 998 
L 2637 941 
Q 2362 403 2112 205 
Q 1786 -64 1376 -64 
Q 845 -64 502 336 
Q 160 736 160 1357 
Q 160 2170 698 2618 
Q 1094 2944 1562 2944 
Q 1965 2944 2256 2749 
Q 2547 2554 2547 2285 
Q 2547 2176 2457 2096 
Q 2368 2016 2246 2016 
Q 2022 2016 1939 2310 
L 1901 2451 
Q 1850 2630 1773 2694 
Q 1696 2758 1523 2758 
Q 1133 2758 893 2451 
Q 653 2144 653 1645 
Q 653 1094 928 745 
Q 1203 397 1645 397 
Q 1920 397 2118 528 
Q 2317 659 2547 998 
z
" transform="scale(0.015625)"/>
      <path id="STIXGeneral-Regular-74" d="M 1702 493 
L 1786 422 
Q 1478 -64 1011 -64 
Q 448 -64 448 749 
L 448 2675 
L 109 2675 
Q 83 2694 83 2720 
Q 83 2771 192 2842 
Q 435 2982 813 3526 
Q 826 3546 874 3606 
Q 922 3667 941 3706 
Q 986 3706 986 3622 
L 986 2880 
L 1632 2880 
L 1632 2675 
L 986 2675 
L 986 845 
Q 986 538 1062 403 
Q 1139 269 1318 269 
Q 1510 269 1702 493 
z
" transform="scale(0.015625)"/>
      <path id="STIXGeneral-Regular-73" d="M 998 1926 
L 1664 1523 
Q 1984 1331 2105 1164 
Q 2227 998 2227 736 
Q 2227 416 1961 176 
Q 1696 -64 1331 -64 
Q 1030 -64 864 -6 
Q 691 51 570 51 
Q 461 51 416 -26 
L 333 -26 
L 333 979 
L 435 979 
Q 538 512 730 294 
Q 922 77 1248 77 
Q 1485 77 1632 211 
Q 1779 346 1779 550 
Q 1779 845 1440 1030 
L 1094 1222 
Q 326 1651 326 2150 
Q 326 2522 566 2730 
Q 806 2938 1210 2938 
Q 1491 2938 1638 2867 
Q 1754 2816 1818 2816 
Q 1862 2816 1920 2880 
L 1990 2880 
L 2022 2010 
L 1926 2010 
Q 1818 2445 1654 2621 
Q 1491 2797 1203 2797 
Q 986 2797 854 2688 
Q 723 2579 723 2362 
Q 723 2253 796 2128 
Q 870 2003 998 1926 
z
" transform="scale(0.015625)"/>
      <path id="STIXGeneral-Regular-6f" d="M 3008 1478 
Q 3008 806 2608 371 
Q 2208 -64 1568 -64 
Q 979 -64 582 368 
Q 186 800 186 1459 
Q 186 2125 582 2534 
Q 979 2944 1626 2944 
Q 2221 2944 2614 2537 
Q 3008 2131 3008 1478 
z
M 2432 1306 
Q 2432 2035 2112 2445 
Q 1856 2765 1504 2765 
Q 1171 2765 966 2493 
Q 762 2221 762 1747 
Q 762 928 1101 435 
Q 1318 115 1677 115 
Q 2029 115 2230 432 
Q 2432 749 2432 1306 
z
" transform="scale(0.015625)"/>
      <path id="STIXGeneral-Regular-6c" d="M 1645 0 
L 134 0 
L 134 96 
Q 435 122 531 221 
Q 627 320 627 589 
L 627 3590 
Q 627 3821 569 3910 
Q 512 4000 358 4000 
Q 224 4000 122 3987 
L 122 4090 
Q 730 4237 1133 4371 
L 1165 4346 
L 1165 557 
Q 1165 288 1254 201 
Q 1344 115 1645 96 
L 1645 0 
z
" transform="scale(0.015625)"/>
      <path id="STIXGeneral-Regular-75" d="M 3072 320 
L 3072 230 
Q 2573 96 2195 -58 
L 2163 -38 
L 2163 486 
L 2150 486 
Q 1747 -64 1235 -64 
Q 870 -64 662 160 
Q 454 384 454 755 
L 454 2362 
Q 454 2598 371 2688 
Q 288 2778 58 2790 
L 58 2880 
L 992 2880 
L 992 813 
Q 992 595 1123 451 
Q 1254 307 1446 307 
Q 1760 307 1984 506 
Q 2067 582 2099 649 
Q 2131 717 2131 877 
L 2131 2355 
Q 2131 2605 2041 2678 
Q 1952 2752 1658 2771 
L 1658 2880 
L 2669 2880 
L 2669 685 
Q 2669 461 2742 390 
Q 2816 320 3034 320 
L 3072 320 
z
" transform="scale(0.015625)"/>
      <path id="STIXGeneral-Regular-69" d="M 1152 4045 
Q 1152 3904 1056 3811 
Q 960 3718 819 3718 
Q 685 3718 592 3811 
Q 499 3904 499 4045 
Q 499 4179 595 4275 
Q 691 4371 826 4371 
Q 966 4371 1059 4275 
Q 1152 4179 1152 4045 
z
M 1619 0 
L 102 0 
L 102 96 
Q 435 115 521 211 
Q 608 307 608 666 
L 608 2118 
Q 608 2342 563 2432 
Q 518 2522 397 2522 
Q 243 2522 128 2490 
L 128 2592 
L 1120 2944 
L 1146 2918 
L 1146 672 
Q 1146 314 1226 218 
Q 1306 122 1619 96 
L 1619 0 
z
" transform="scale(0.015625)"/>
      <path id="STIXGeneral-Regular-66" d="M 134 2880 
L 659 2880 
Q 666 3264 710 3478 
Q 755 3693 883 3910 
Q 1152 4371 1786 4371 
Q 2074 4371 2262 4259 
Q 2451 4147 2451 3974 
Q 2451 3866 2374 3789 
Q 2298 3712 2182 3712 
Q 2029 3712 1894 3942 
Q 1741 4192 1555 4192 
Q 1197 4192 1197 3622 
L 1197 2880 
L 1978 2880 
L 1978 2675 
L 1197 2675 
L 1197 666 
Q 1197 307 1299 208 
Q 1402 109 1792 96 
L 1792 0 
L 128 0 
L 128 96 
Q 474 115 566 214 
Q 659 314 659 666 
L 659 2675 
L 134 2675 
L 134 2880 
z
" transform="scale(0.015625)"/>
      <path id="STIXGeneral-Regular-42" d="M 2701 2234 
L 2701 2227 
Q 3181 2150 3482 1875 
Q 3795 1594 3795 1139 
Q 3795 608 3379 304 
Q 2963 0 2266 0 
L 109 0 
L 109 122 
Q 486 134 604 246 
Q 723 358 723 723 
L 723 3520 
Q 723 3891 614 3990 
Q 506 4090 109 4115 
L 109 4237 
L 1901 4237 
Q 2726 4237 3152 3958 
Q 3578 3680 3578 3168 
Q 3578 2733 3315 2502 
Q 3130 2342 2701 2234 
z
M 1376 2342 
L 1965 2342 
Q 2925 2342 2925 3136 
Q 2925 3546 2640 3773 
Q 2355 4000 1792 4000 
L 1530 4000 
Q 1376 4000 1376 3795 
L 1376 2342 
z
M 1376 2086 
L 1376 525 
Q 1376 365 1462 301 
Q 1549 237 1773 237 
Q 2208 237 2413 285 
Q 2618 333 2816 512 
Q 3059 723 3059 1146 
Q 3059 1632 2758 1830 
Q 2688 1882 2617 1917 
Q 2547 1952 2492 1974 
Q 2438 1997 2348 2016 
Q 2259 2035 2211 2044 
Q 2163 2054 2041 2060 
Q 1920 2067 1862 2070 
Q 1805 2074 1635 2080 
Q 1466 2086 1376 2086 
z
" transform="scale(0.015625)"/>
      <path id="STIXGeneral-Regular-6b" d="M 3232 0 
L 1837 0 
L 1837 96 
L 1958 96 
Q 2093 96 2093 192 
Q 2093 250 2022 339 
L 1062 1606 
L 1062 429 
Q 1062 262 1142 185 
Q 1222 109 1414 102 
L 1542 96 
L 1542 0 
L 45 0 
L 45 96 
Q 390 154 457 214 
Q 525 275 525 525 
L 525 3610 
Q 525 3840 467 3920 
Q 410 4000 250 4000 
Q 211 4000 45 3987 
L 45 4090 
L 237 4141 
Q 621 4243 1037 4371 
L 1062 4358 
L 1062 1670 
L 1939 2451 
Q 2086 2586 2086 2675 
Q 2086 2739 2019 2761 
Q 1952 2784 1766 2790 
L 1766 2880 
L 3072 2880 
L 3072 2784 
Q 2752 2784 2505 2646 
Q 2259 2509 1690 1978 
L 1504 1805 
L 2483 563 
Q 2829 122 3232 96 
L 3232 0 
z
" transform="scale(0.015625)"/>
      <path id="STIXGeneral-Regular-2d" d="M 1824 1242 
L 250 1242 
L 250 1645 
L 1824 1645 
L 1824 1242 
z
" transform="scale(0.015625)"/>
      <path id="STIXGeneral-Regular-53" d="M 3002 2963 
L 2842 2963 
Q 2733 3360 2579 3565 
Q 2189 4064 1651 4064 
Q 1357 4064 1181 3894 
Q 1005 3725 1005 3456 
Q 1005 3328 1069 3206 
Q 1133 3085 1206 2998 
Q 1280 2912 1465 2784 
Q 1651 2656 1766 2589 
Q 1882 2522 2150 2362 
Q 2669 2061 2905 1763 
Q 3142 1466 3142 1107 
Q 3142 576 2771 243 
Q 2400 -90 1837 -90 
Q 1421 -90 1082 58 
Q 915 128 781 128 
Q 704 128 653 70 
Q 602 13 602 -83 
L 461 -83 
L 275 1274 
L 416 1274 
Q 845 141 1734 141 
Q 2074 141 2285 342 
Q 2496 544 2496 858 
Q 2496 1158 2310 1363 
Q 2003 1696 1235 2106 
Q 454 2522 454 3206 
Q 454 3718 768 4022 
Q 1082 4326 1568 4326 
Q 1907 4326 2240 4186 
Q 2413 4109 2522 4109 
Q 2688 4109 2726 4326 
L 2861 4326 
L 3002 2963 
z
" transform="scale(0.015625)"/>
      <path id="STIXGeneral-Regular-68" d="M 3117 0 
L 1760 0 
L 1760 96 
Q 2042 128 2118 224 
Q 2195 320 2195 653 
L 2195 1920 
Q 2195 2598 1722 2598 
Q 1530 2598 1370 2508 
Q 1210 2419 1005 2195 
L 1005 653 
Q 1005 320 1081 224 
Q 1158 128 1440 96 
L 1440 0 
L 58 0 
L 58 96 
Q 333 134 400 224 
Q 467 314 467 653 
L 467 3667 
Q 467 3872 406 3933 
Q 346 3994 141 3994 
Q 83 3994 64 3987 
L 64 4090 
L 237 4141 
Q 730 4288 973 4371 
L 1005 4352 
L 1005 2406 
Q 1229 2694 1446 2819 
Q 1664 2944 1946 2944 
Q 2733 2944 2733 1926 
L 2733 653 
Q 2733 320 2793 233 
Q 2854 147 3117 96 
L 3117 0 
z
" transform="scale(0.015625)"/>
     </defs>
     <use xlink:href="#STIXGeneral-Regular-45"/>
     <use xlink:href="#STIXGeneral-Regular-4d" x="61.099991"/>
     <use xlink:href="#STIXGeneral-Regular-20" x="149.999985"/>
     <use xlink:href="#STIXGeneral-Regular-61" x="174.999969"/>
     <use xlink:href="#STIXGeneral-Regular-6e" x="219.399963"/>
     <use xlink:href="#STIXGeneral-Regular-64" x="269.399948"/>
     <use xlink:href="#STIXGeneral-Regular-20" x="319.399933"/>
     <use xlink:href="#STIXGeneral-Regular-65" x="344.399918"/>
     <use xlink:href="#STIXGeneral-Regular-78" x="388.799911"/>
     <use xlink:href="#STIXGeneral-Regular-61" x="438.799896"/>
     <use xlink:href="#STIXGeneral-Regular-63" x="483.19989"/>
     <use xlink:href="#STIXGeneral-Regular-74" x="527.599884"/>
     <use xlink:href="#STIXGeneral-Regular-20" x="555.399872"/>
     <use xlink:href="#STIXGeneral-Regular-73" x="580.399857"/>
     <use xlink:href="#STIXGeneral-Regular-6f" x="619.29985"/>
     <use xlink:href="#STIXGeneral-Regular-6c" x="669.299835"/>
     <use xlink:href="#STIXGeneral-Regular-75" x="697.099823"/>
     <use xlink:href="#STIXGeneral-Regular-74" x="747.099808"/>
     <use xlink:href="#STIXGeneral-Regular-69" x="774.899796"/>
     <use xlink:href="#STIXGeneral-Regular-6f" x="802.699783"/>
     <use xlink:href="#STIXGeneral-Regular-6e" x="852.699768"/>
     <use xlink:href="#STIXGeneral-Regular-73" x="902.699753"/>
     <use xlink:href="#STIXGeneral-Regular-20" x="941.599747"/>
     <use xlink:href="#STIXGeneral-Regular-6f" x="966.599731"/>
     <use xlink:href="#STIXGeneral-Regular-66" x="1016.599716"/>
     <use xlink:href="#STIXGeneral-Regular-20" x="1049.899704"/>
     <use xlink:href="#STIXGeneral-Regular-42" x="1074.899689"/>
     <use xlink:href="#STIXGeneral-Regular-6c" x="1141.599686"/>
     <use xlink:href="#STIXGeneral-Regular-61" x="1169.399673"/>
     <use xlink:href="#STIXGeneral-Regular-63" x="1213.799667"/>
     <use xlink:href="#STIXGeneral-Regular-6b" x="1258.199661"/>
     <use xlink:href="#STIXGeneral-Regular-2d" x="1308.199646"/>
     <use xlink:href="#STIXGeneral-Regular-53" x="1341.499634"/>
     <use xlink:href="#STIXGeneral-Regular-63" x="1397.099625"/>
     <use xlink:href="#STIXGeneral-Regular-68" x="1441.499619"/>
     <use xlink:href="#STIXGeneral-Regular-6f" x="1491.499603"/>
     <use xlink:href="#STIXGeneral-Regular-6c" x="1541.499588"/>
     <use xlink:href="#STIXGeneral-Regular-65" x="1569.299576"/>
     <use xlink:href="#STIXGeneral-Regular-73" x="1613.69957"/>
    </g>
   </g>
   <g id="legend_1">
    <g id="patch_7">
     <path d="M 58.6 95.02125 
L 239.159687 95.02125 
Q 242.759687 95.02125 242.759687 91.42125 
L 242.759687 42.19125 
Q 242.759687 38.59125 239.159687 38.59125 
L 58.6 38.59125 
Q 55 38.59125 55 42.19125 
L 55 91.42125 
Q 55 95.02125 58.6 95.02125 
z
" style="fill: #ffffff; opacity: 0.8; stroke: #cccccc; stroke-linejoin: miter"/>
    </g>
    <g id="PathCollection_3">
     <g>
      <use xlink:href="#mb538264b90" x="80.2" y="53.66625" style="stroke: #000000; stroke-width: 1.5"/>
     </g>
    </g>
    <g id="text_15">
     <!-- Exact solution -->
     <g transform="translate(112.6 58.39125) scale(0.18 -0.18)">
      <use xlink:href="#STIXGeneral-Regular-45"/>
      <use xlink:href="#STIXGeneral-Regular-78" x="61.099991"/>
      <use xlink:href="#STIXGeneral-Regular-61" x="111.099976"/>
      <use xlink:href="#STIXGeneral-Regular-63" x="155.499969"/>
      <use xlink:href="#STIXGeneral-Regular-74" x="199.899963"/>
      <use xlink:href="#STIXGeneral-Regular-20" x="227.699951"/>
      <use xlink:href="#STIXGeneral-Regular-73" x="252.699936"/>
      <use xlink:href="#STIXGeneral-Regular-6f" x="291.59993"/>
      <use xlink:href="#STIXGeneral-Regular-6c" x="341.599915"/>
      <use xlink:href="#STIXGeneral-Regular-75" x="369.399902"/>
      <use xlink:href="#STIXGeneral-Regular-74" x="419.399887"/>
      <use xlink:href="#STIXGeneral-Regular-69" x="447.199875"/>
      <use xlink:href="#STIXGeneral-Regular-6f" x="474.999863"/>
      <use xlink:href="#STIXGeneral-Regular-6e" x="524.999847"/>
     </g>
    </g>
    <g id="PathCollection_4">
     <g>
      <use xlink:href="#ma19b290e77" x="80.2" y="79.172813" style="fill: #ff0000; stroke: #ff0000; stroke-width: 1.5"/>
     </g>
    </g>
    <g id="text_16">
     <!-- Euler-Maruyama -->
     <g transform="translate(112.6 83.897813) scale(0.18 -0.18)">
      <defs>
       <path id="STIXGeneral-Regular-72" d="M 1024 2931 
L 1024 2342 
Q 1267 2688 1430 2816 
Q 1594 2944 1792 2944 
Q 1958 2944 2051 2854 
Q 2144 2765 2144 2605 
Q 2144 2470 2077 2393 
Q 2010 2317 1894 2317 
Q 1773 2317 1638 2445 
Q 1536 2541 1472 2541 
Q 1338 2541 1181 2355 
Q 1024 2170 1024 2016 
L 1024 576 
Q 1024 301 1133 205 
Q 1242 109 1568 96 
L 1568 0 
L 32 0 
L 32 96 
Q 339 154 412 224 
Q 486 294 486 538 
L 486 2138 
Q 486 2349 438 2435 
Q 390 2522 269 2522 
Q 166 2522 45 2496 
L 45 2598 
Q 448 2726 992 2944 
L 1024 2931 
z
" transform="scale(0.015625)"/>
       <path id="STIXGeneral-Regular-79" d="M 3040 2880 
L 3040 2784 
Q 2925 2771 2854 2700 
Q 2784 2630 2720 2458 
L 1760 -160 
Q 1510 -838 1257 -1116 
Q 1005 -1395 640 -1395 
Q 435 -1395 313 -1289 
Q 192 -1184 192 -1024 
Q 192 -902 272 -816 
Q 352 -730 467 -730 
Q 653 -730 800 -813 
Q 883 -858 966 -858 
Q 1101 -858 1286 -576 
Q 1376 -448 1459 -211 
Q 1542 26 1542 115 
Q 1542 198 1274 762 
L 429 2566 
Q 346 2752 90 2790 
L 90 2880 
L 1402 2880 
L 1402 2784 
Q 1197 2778 1117 2739 
Q 1037 2701 1037 2611 
Q 1037 2541 1120 2349 
L 1837 749 
L 2458 2515 
Q 2483 2573 2483 2630 
Q 2483 2784 2189 2784 
L 2189 2880 
L 3040 2880 
z
" transform="scale(0.015625)"/>
       <path id="STIXGeneral-Regular-6d" d="M 4960 0 
L 3565 0 
L 3565 96 
Q 3834 122 3907 208 
Q 3981 294 3981 576 
L 3981 1894 
Q 3981 2278 3869 2444 
Q 3757 2611 3488 2611 
Q 3264 2611 3107 2521 
Q 2950 2432 2803 2221 
L 2803 608 
Q 2803 301 2896 201 
Q 2989 102 3264 96 
L 3264 0 
L 1830 0 
L 1830 96 
Q 2112 115 2189 188 
Q 2266 262 2266 550 
L 2266 1901 
Q 2266 2611 1850 2611 
Q 1670 2611 1468 2531 
Q 1267 2451 1171 2336 
Q 1088 2240 1088 2227 
L 1088 448 
Q 1088 243 1177 176 
Q 1267 109 1523 96 
L 1523 0 
L 102 0 
L 102 96 
Q 371 102 460 195 
Q 550 288 550 563 
L 550 2150 
Q 550 2387 499 2480 
Q 448 2573 326 2573 
Q 230 2573 122 2547 
L 122 2656 
Q 557 2778 1011 2944 
L 1062 2925 
L 1062 2451 
L 1075 2451 
Q 1363 2752 1584 2848 
Q 1805 2944 2054 2944 
Q 2560 2944 2733 2406 
Q 3232 2944 3776 2944 
Q 4518 2944 4518 1792 
L 4518 493 
Q 4518 282 4582 202 
Q 4646 122 4794 109 
L 4960 96 
L 4960 0 
z
" transform="scale(0.015625)"/>
      </defs>
      <use xlink:href="#STIXGeneral-Regular-45"/>
      <use xlink:href="#STIXGeneral-Regular-75" x="61.099991"/>
      <use xlink:href="#STIXGeneral-Regular-6c" x="111.099976"/>
      <use xlink:href="#STIXGeneral-Regular-65" x="138.899963"/>
      <use xlink:href="#STIXGeneral-Regular-72" x="183.299957"/>
      <use xlink:href="#STIXGeneral-Regular-2d" x="216.599945"/>
      <use xlink:href="#STIXGeneral-Regular-4d" x="249.899933"/>
      <use xlink:href="#STIXGeneral-Regular-61" x="338.799927"/>
      <use xlink:href="#STIXGeneral-Regular-72" x="383.199921"/>
      <use xlink:href="#STIXGeneral-Regular-75" x="416.499908"/>
      <use xlink:href="#STIXGeneral-Regular-79" x="466.499893"/>
      <use xlink:href="#STIXGeneral-Regular-61" x="516.499878"/>
      <use xlink:href="#STIXGeneral-Regular-6d" x="560.899872"/>
      <use xlink:href="#STIXGeneral-Regular-61" x="638.69986"/>
     </g>
    </g>
   </g>
  </g>
 </g>
 <defs>
  <clipPath id="pb37661f472">
   <rect x="46" y="29.59125" width="558" height="221.76"/>
  </clipPath>
 </defs>
</svg>