<?xml version="1.0" encoding="utf-8" standalone="no"?>
<!DOCTYPE svg PUBLIC "-//W3C//DTD SVG 1.1//EN"
  "http://www.w3.org/Graphics/SVG/1.1/DTD/svg11.dtd">
<!-- Created with matplotlib (https://matplotlib.org/) -->
<svg height="289.203125pt" version="1.1" viewBox="0 0 282.008437 289.203125" width="282.008437pt" xmlns="http://www.w3.org/2000/svg" xmlns:xlink="http://www.w3.org/1999/xlink">
 <defs>
  <style type="text/css">
*{stroke-linecap:butt;stroke-linejoin:round;}
  </style>
 </defs>
 <g id="figure_1">
  <g id="patch_1">
   <path d="M 0 289.203125 
L 282.008437 289.203125 
L 282.008437 0 
L 0 0 
z
" style="fill:none;"/>
  </g>
  <g id="axes_1">
   <g id="patch_2">
    <path d="M 48.427188 245.84 
L 271.627187 245.84 
L 271.627187 28.4 
L 48.427188 28.4 
z
" style="fill:#ffffff;"/>
   </g>
   <g id="PathCollection_1">
    <path clip-path="url(#p262f648778)" d="M 107.16403 194.424709 
L 118.911398 191.290982 
L 123.743979 188.618947 
L 130.658766 184.577143 
L 142.221696 177.174737 
L 142.406135 177.049506 
L 154.153503 167.444665 
L 156.147655 165.730526 
L 165.900872 157.00464 
L 168.809942 154.286316 
L 177.64824 145.676103 
L 180.438573 142.842105 
L 189.395609 133.340585 
L 191.155154 131.397895 
L 201.014428 119.953684 
L 201.142977 119.774005 
L 208.741473 108.509474 
L 212.890345 101.773133 
L 215.633162 97.065263 
L 218.849902 85.621053 
L 212.890345 79.815291 
L 201.142977 82.949018 
L 196.310396 85.621053 
L 189.395609 89.662857 
L 177.832679 97.065263 
L 177.64824 97.190494 
L 165.900872 106.795335 
L 163.90672 108.509474 
L 154.153503 117.23536 
L 151.244433 119.953684 
L 142.406135 128.563897 
L 139.615802 131.397895 
L 130.658766 140.899415 
L 128.899221 142.842105 
L 119.039947 154.286316 
L 118.911398 154.465995 
L 111.312902 165.730526 
L 107.16403 172.466867 
L 104.421213 177.174737 
L 101.204473 188.618947 
z
" style="fill:#3c4ec2;fill-opacity:0.5;"/>
   </g>
   <g id="PathCollection_2">
    <path clip-path="url(#p262f648778)" d="M 60.174556 245.84 
L 71.921924 245.84 
L 78.76403 245.84 
L 83.669293 243.488588 
L 95.416661 236.80551 
L 99.196999 234.395789 
L 107.16403 229.188754 
L 116.360202 222.951579 
L 118.911398 221.176323 
L 130.658766 212.477784 
L 131.887748 211.507368 
L 142.406135 203.023339 
L 145.983217 200.063158 
L 154.153503 193.153314 
L 159.382613 188.618947 
L 165.900872 182.839692 
L 172.136255 177.174737 
L 177.64824 172.051881 
L 184.289726 165.730526 
L 189.395609 160.756409 
L 195.884417 154.286316 
L 201.142977 148.916576 
L 206.957998 142.842105 
L 212.890345 136.49206 
L 217.544828 131.397895 
L 224.637714 123.438454 
L 227.67631 119.953684 
L 236.385082 109.70674 
L 237.381204 108.509474 
L 246.310168 97.065263 
L 248.132451 94.579904 
L 254.534849 85.621053 
L 259.879819 77.859623 
L 262.353373 74.176842 
L 269.213487 62.732632 
L 271.627187 57.953956 
L 271.627187 51.288421 
L 271.627187 39.844211 
L 271.627187 28.4 
L 259.879819 28.4 
L 248.132451 28.4 
L 241.290345 28.4 
L 236.385082 30.751412 
L 224.637714 37.43449 
L 220.857376 39.844211 
L 212.890345 45.051246 
L 203.694173 51.288421 
L 201.142977 53.063677 
L 189.395609 61.762216 
L 188.166627 62.732632 
L 177.64824 71.216661 
L 174.071158 74.176842 
L 165.900872 81.086686 
L 160.671762 85.621053 
L 154.153503 91.400308 
L 147.91812 97.065263 
L 142.406135 102.188119 
L 135.764649 108.509474 
L 130.658766 113.483591 
L 124.169958 119.953684 
L 118.911398 125.323424 
L 113.096377 131.397895 
L 107.16403 137.74794 
L 102.509547 142.842105 
L 95.416661 150.801546 
L 92.378065 154.286316 
L 83.669293 164.53326 
L 82.673171 165.730526 
L 73.744207 177.174737 
L 71.921924 179.660096 
L 65.519526 188.618947 
L 60.174556 196.380377 
L 57.701002 200.063158 
L 50.840888 211.507368 
L 48.427188 216.286044 
L 48.427188 222.951579 
L 48.427188 234.395789 
L 48.427188 245.84 
z
M 101.204473 188.618947 
L 104.421213 177.174737 
L 107.16403 172.466867 
L 111.312902 165.730526 
L 118.911398 154.465995 
L 119.039947 154.286316 
L 128.899221 142.842105 
L 130.658766 140.899415 
L 139.615802 131.397895 
L 142.406135 128.563897 
L 151.244433 119.953684 
L 154.153503 117.23536 
L 163.90672 108.509474 
L 165.900872 106.795335 
L 177.64824 97.190494 
L 177.832679 97.065263 
L 189.395609 89.662857 
L 196.310396 85.621053 
L 201.142977 82.949018 
L 212.890345 79.815291 
L 218.849902 85.621053 
L 215.633162 97.065263 
L 212.890345 101.773133 
L 208.741473 108.509474 
L 201.142977 119.774005 
L 201.014428 119.953684 
L 191.155154 131.397895 
L 189.395609 133.340585 
L 180.438573 142.842105 
L 177.64824 145.676103 
L 168.809942 154.286316 
L 165.900872 157.00464 
L 156.147655 165.730526 
L 154.153503 167.444665 
L 142.406135 177.049506 
L 142.221696 177.174737 
L 130.658766 184.577143 
L 123.743979 188.618947 
L 118.911398 191.290982 
L 107.16403 194.424709 
z
" style="fill:#4358cb;fill-opacity:0.5;"/>
   </g>
   <g id="PathCollection_3">
    <path clip-path="url(#p262f648778)" d="M 83.669293 245.84 
L 95.416661 245.84 
L 107.16403 245.84 
L 118.911398 245.84 
L 121.530744 245.84 
L 130.658766 238.528421 
L 135.726768 234.395789 
L 142.406135 228.867289 
L 149.429018 222.951579 
L 154.153503 218.911161 
L 162.662815 211.507368 
L 165.900872 208.646316 
L 175.451778 200.063158 
L 177.64824 198.058168 
L 187.817966 188.618947 
L 189.395609 187.1312 
L 199.782001 177.174737 
L 201.142977 175.848883 
L 211.363187 165.730526 
L 212.890345 164.193597 
L 222.579612 154.286316 
L 224.637714 152.146537 
L 233.44824 142.842105 
L 236.385082 139.687611 
L 243.985002 131.397895 
L 248.132451 126.795332 
L 254.204869 119.953684 
L 259.879819 113.446688 
L 264.121924 108.509474 
L 271.627187 99.617013 
L 271.627187 97.065263 
L 271.627187 85.621053 
L 271.627187 74.176842 
L 271.627187 62.732632 
L 271.627187 57.953956 
L 269.213487 62.732632 
L 262.353373 74.176842 
L 259.879819 77.859623 
L 254.534849 85.621053 
L 248.132451 94.579904 
L 246.310168 97.065263 
L 237.381204 108.509474 
L 236.385082 109.70674 
L 227.67631 119.953684 
L 224.637714 123.438454 
L 217.544828 131.397895 
L 212.890345 136.49206 
L 206.957998 142.842105 
L 201.142977 148.916576 
L 195.884417 154.286316 
L 189.395609 160.756409 
L 184.289726 165.730526 
L 177.64824 172.051881 
L 172.136255 177.174737 
L 165.900872 182.839692 
L 159.382613 188.618947 
L 154.153503 193.153314 
L 145.983217 200.063158 
L 142.406135 203.023339 
L 131.887748 211.507368 
L 130.658766 212.477784 
L 118.911398 221.176323 
L 116.360202 222.951579 
L 107.16403 229.188754 
L 99.196999 234.395789 
L 95.416661 236.80551 
L 83.669293 243.488588 
L 78.76403 245.84 
z
" style="fill:#536edd;fill-opacity:0.5;"/>
    <path clip-path="url(#p262f648778)" d="M 50.840888 211.507368 
L 57.701002 200.063158 
L 60.174556 196.380377 
L 65.519526 188.618947 
L 71.921924 179.660096 
L 73.744207 177.174737 
L 82.673171 165.730526 
L 83.669293 164.53326 
L 92.378065 154.286316 
L 95.416661 150.801546 
L 102.509547 142.842105 
L 107.16403 137.74794 
L 113.096377 131.397895 
L 118.911398 125.323424 
L 124.169958 119.953684 
L 130.658766 113.483591 
L 135.764649 108.509474 
L 142.406135 102.188119 
L 147.91812 97.065263 
L 154.153503 91.400308 
L 160.671762 85.621053 
L 165.900872 81.086686 
L 174.071158 74.176842 
L 177.64824 71.216661 
L 188.166627 62.732632 
L 189.395609 61.762216 
L 201.142977 53.063677 
L 203.694173 51.288421 
L 212.890345 45.051246 
L 220.857376 39.844211 
L 224.637714 37.43449 
L 236.385082 30.751412 
L 241.290345 28.4 
L 236.385082 28.4 
L 224.637714 28.4 
L 212.890345 28.4 
L 201.142977 28.4 
L 198.523631 28.4 
L 189.395609 35.711579 
L 184.327607 39.844211 
L 177.64824 45.372711 
L 170.625357 51.288421 
L 165.900872 55.328839 
L 157.39156 62.732632 
L 154.153503 65.593684 
L 144.602597 74.176842 
L 142.406135 76.181832 
L 132.236409 85.621053 
L 130.658766 87.1088 
L 120.272374 97.065263 
L 118.911398 98.391117 
L 108.691187 108.509474 
L 107.16403 110.046403 
L 97.474763 119.953684 
L 95.416661 122.093463 
L 86.606135 131.397895 
L 83.669293 134.552389 
L 76.069373 142.842105 
L 71.921924 147.444668 
L 65.849506 154.286316 
L 60.174556 160.793312 
L 55.932451 165.730526 
L 48.427187 174.622987 
L 48.427188 177.174737 
L 48.427188 188.618947 
L 48.427188 200.063158 
L 48.427188 211.507368 
L 48.427188 216.286044 
z
" style="fill:#536edd;fill-opacity:0.5;"/>
   </g>
   <g id="PathCollection_4">
    <path clip-path="url(#p262f648778)" d="M 130.658766 245.84 
L 142.406135 245.84 
L 152.809342 245.84 
L 154.153503 244.683681 
L 165.900872 234.439521 
L 165.949913 234.395789 
L 177.64824 223.852564 
L 178.636511 222.951579 
L 189.395609 213.0367 
L 191.036405 211.507368 
L 201.142977 201.984423 
L 203.159207 200.063158 
L 212.890345 190.687898 
L 215.014102 188.618947 
L 224.637714 179.138936 
L 226.609874 177.174737 
L 236.385082 167.32898 
L 237.954926 165.730526 
L 248.132451 155.249083 
L 249.057303 154.286316 
L 259.879819 142.889881 
L 259.924709 142.842105 
L 270.440238 131.397895 
L 271.627187 130.088421 
L 271.627187 119.953684 
L 271.627187 108.509474 
L 271.627187 99.617013 
L 264.121924 108.509474 
L 259.879819 113.446688 
L 254.204869 119.953684 
L 248.132451 126.795332 
L 243.985002 131.397895 
L 236.385082 139.687611 
L 233.44824 142.842105 
L 224.637714 152.146537 
L 222.579612 154.286316 
L 212.890345 164.193597 
L 211.363187 165.730526 
L 201.142977 175.848883 
L 199.782001 177.174737 
L 189.395609 187.1312 
L 187.817966 188.618947 
L 177.64824 198.058168 
L 175.451778 200.063158 
L 165.900872 208.646316 
L 162.662815 211.507368 
L 154.153503 218.911161 
L 149.429018 222.951579 
L 142.406135 228.867289 
L 135.726768 234.395789 
L 130.658766 238.528421 
L 121.530744 245.84 
z
" style="fill:#6b8df0;fill-opacity:0.5;"/>
    <path clip-path="url(#p262f648778)" d="M 55.932451 165.730526 
L 60.174556 160.793312 
L 65.849506 154.286316 
L 71.921924 147.444668 
L 76.069373 142.842105 
L 83.669293 134.552389 
L 86.606135 131.397895 
L 95.416661 122.093463 
L 97.474763 119.953684 
L 107.16403 110.046403 
L 108.691187 108.509474 
L 118.911398 98.391117 
L 120.272374 97.065263 
L 130.658766 87.1088 
L 132.236409 85.621053 
L 142.406135 76.181832 
L 144.602597 74.176842 
L 154.153503 65.593684 
L 157.39156 62.732632 
L 165.900872 55.328839 
L 170.625357 51.288421 
L 177.64824 45.372711 
L 184.327607 39.844211 
L 189.395609 35.711579 
L 198.523631 28.4 
L 189.395609 28.4 
L 177.64824 28.4 
L 167.245033 28.4 
L 165.900872 29.556319 
L 154.153503 39.800479 
L 154.104462 39.844211 
L 142.406135 50.387436 
L 141.417864 51.288421 
L 130.658766 61.2033 
L 129.01797 62.732632 
L 118.911398 72.255577 
L 116.895168 74.176842 
L 107.16403 83.552102 
L 105.040273 85.621053 
L 95.416661 95.101064 
L 93.444501 97.065263 
L 83.669293 106.91102 
L 82.099449 108.509474 
L 71.921924 118.990917 
L 70.997072 119.953684 
L 60.174556 131.350119 
L 60.129666 131.397895 
L 49.614137 142.842105 
L 48.427188 144.151579 
L 48.427188 154.286316 
L 48.427188 165.730526 
L 48.427187 174.622987 
z
" style="fill:#6b8df0;fill-opacity:0.5;"/>
   </g>
   <g id="PathCollection_5">
    <path clip-path="url(#p262f648778)" d="M 154.153503 245.84 
L 165.900872 245.84 
L 177.64824 245.84 
L 181.655274 245.84 
L 189.395609 238.768608 
L 194.137145 234.395789 
L 201.142977 227.876809 
L 206.386796 222.951579 
L 212.890345 216.787873 
L 218.410646 211.507368 
L 224.637714 205.4964 
L 230.214883 200.063158 
L 236.385082 193.996789 
L 241.805468 188.618947 
L 248.132451 182.283231 
L 253.18815 177.174737 
L 259.879819 170.349701 
L 264.368474 165.730526 
L 271.627187 158.189943 
L 271.627187 154.286316 
L 271.627187 142.842105 
L 271.627187 131.397895 
L 271.627187 130.088421 
L 270.440238 131.397895 
L 259.924709 142.842105 
L 259.879819 142.889881 
L 249.057303 154.286316 
L 248.132451 155.249083 
L 237.954926 165.730526 
L 236.385082 167.32898 
L 226.609874 177.174737 
L 224.637714 179.138936 
L 215.014102 188.618947 
L 212.890345 190.687898 
L 203.159207 200.063158 
L 201.142977 201.984423 
L 191.036405 211.507368 
L 189.395609 213.0367 
L 178.636511 222.951579 
L 177.64824 223.852564 
L 165.949913 234.395789 
L 165.900872 234.439521 
L 154.153503 244.683681 
L 152.809342 245.84 
z
" style="fill:#8db0fe;fill-opacity:0.5;"/>
    <path clip-path="url(#p262f648778)" d="M 49.614137 142.842105 
L 60.129666 131.397895 
L 60.174556 131.350119 
L 70.997072 119.953684 
L 71.921924 118.990917 
L 82.099449 108.509474 
L 83.669293 106.91102 
L 93.444501 97.065263 
L 95.416661 95.101064 
L 105.040273 85.621053 
L 107.16403 83.552102 
L 116.895168 74.176842 
L 118.911398 72.255577 
L 129.01797 62.732632 
L 130.658766 61.2033 
L 141.417864 51.288421 
L 142.406135 50.387436 
L 154.104462 39.844211 
L 154.153503 39.800479 
L 165.900872 29.556319 
L 167.245033 28.4 
L 165.900872 28.4 
L 154.153503 28.4 
L 142.406135 28.4 
L 138.399101 28.4 
L 130.658766 35.471392 
L 125.91723 39.844211 
L 118.911398 46.363191 
L 113.667579 51.288421 
L 107.16403 57.452127 
L 101.643729 62.732632 
L 95.416661 68.7436 
L 89.839492 74.176842 
L 83.669293 80.243211 
L 78.248907 85.621053 
L 71.921924 91.956769 
L 66.866225 97.065263 
L 60.174556 103.890299 
L 55.685901 108.509474 
L 48.427188 116.050057 
L 48.427188 119.953684 
L 48.427188 131.397895 
L 48.427188 142.842105 
L 48.427188 144.151579 
z
" style="fill:#8db0fe;fill-opacity:0.5;"/>
   </g>
   <g id="PathCollection_6">
    <path clip-path="url(#p262f648778)" d="M 189.395609 245.84 
L 201.142977 245.84 
L 209.637588 245.84 
L 212.890345 242.792595 
L 221.782128 234.395789 
L 224.637714 231.678342 
L 233.736166 222.951579 
L 236.385082 220.391104 
L 245.504148 211.507368 
L 248.132451 208.926811 
L 257.090386 200.063158 
L 259.879819 197.281265 
L 268.499057 188.618947 
L 271.627187 185.450132 
L 271.627187 177.174737 
L 271.627187 165.730526 
L 271.627187 158.189943 
L 264.368474 165.730526 
L 259.879819 170.349701 
L 253.18815 177.174737 
L 248.132451 182.283231 
L 241.805468 188.618947 
L 236.385082 193.996789 
L 230.214883 200.063158 
L 224.637714 205.4964 
L 218.410646 211.507368 
L 212.890345 216.787873 
L 206.386796 222.951579 
L 201.142977 227.876809 
L 194.137145 234.395789 
L 189.395609 238.768608 
L 181.655274 245.84 
z
" style="fill:#b9d0f9;fill-opacity:0.5;"/>
    <path clip-path="url(#p262f648778)" d="M 55.685901 108.509474 
L 60.174556 103.890299 
L 66.866225 97.065263 
L 71.921924 91.956769 
L 78.248907 85.621053 
L 83.669293 80.243211 
L 89.839492 74.176842 
L 95.416661 68.7436 
L 101.643729 62.732632 
L 107.16403 57.452127 
L 113.667579 51.288421 
L 118.911398 46.363191 
L 125.91723 39.844211 
L 130.658766 35.471392 
L 138.399101 28.4 
L 130.658766 28.4 
L 118.911398 28.4 
L 110.416787 28.4 
L 107.16403 31.447405 
L 98.272247 39.844211 
L 95.416661 42.561658 
L 86.318209 51.288421 
L 83.669293 53.848896 
L 74.550227 62.732632 
L 71.921924 65.313189 
L 62.963989 74.176842 
L 60.174556 76.958735 
L 51.555318 85.621053 
L 48.427188 88.789868 
L 48.427188 97.065263 
L 48.427188 108.509474 
L 48.427188 116.050057 
z
" style="fill:#b9d0f9;fill-opacity:0.5;"/>
   </g>
   <g id="PathCollection_7">
    <path clip-path="url(#p262f648778)" d="M 212.890345 245.84 
L 224.637714 245.84 
L 236.385082 245.84 
L 237.152082 245.84 
L 248.132451 235.27883 
L 249.044675 234.395789 
L 259.879819 223.840262 
L 260.786252 222.951579 
L 271.627187 212.254574 
L 271.627187 211.507368 
L 271.627187 200.063158 
L 271.627187 188.618947 
L 271.627187 185.450132 
L 268.499057 188.618947 
L 259.879819 197.281265 
L 257.090386 200.063158 
L 248.132451 208.926811 
L 245.504148 211.507368 
L 236.385082 220.391104 
L 233.736166 222.951579 
L 224.637714 231.678342 
L 221.782128 234.395789 
L 212.890345 242.792595 
L 209.637588 245.84 
z
" style="fill:#e3d9d3;fill-opacity:0.5;"/>
    <path clip-path="url(#p262f648778)" d="M 51.555318 85.621053 
L 60.174556 76.958735 
L 62.963989 74.176842 
L 71.921924 65.313189 
L 74.550227 62.732632 
L 83.669293 53.848896 
L 86.318209 51.288421 
L 95.416661 42.561658 
L 98.272247 39.844211 
L 107.16403 31.447405 
L 110.416787 28.4 
L 107.16403 28.4 
L 95.416661 28.4 
L 83.669293 28.4 
L 82.902293 28.4 
L 71.921924 38.96117 
L 71.0097 39.844211 
L 60.174556 50.399738 
L 59.268123 51.288421 
L 48.427188 61.985426 
L 48.427188 62.732632 
L 48.427188 74.176842 
L 48.427188 85.621053 
L 48.427188 88.789868 
z
" style="fill:#e3d9d3;fill-opacity:0.5;"/>
   </g>
   <g id="PathCollection_8">
    <path clip-path="url(#p262f648778)" d="M 248.132451 245.84 
L 259.879819 245.84 
L 264.243712 245.84 
L 271.627187 238.647066 
L 271.627187 234.395789 
L 271.627187 222.951579 
L 271.627187 212.254574 
L 260.786252 222.951579 
L 259.879819 223.840262 
L 249.044675 234.395789 
L 248.132451 235.27883 
L 237.152082 245.84 
z
" style="fill:#f7ad90;fill-opacity:0.5;"/>
    <path clip-path="url(#p262f648778)" d="M 59.268123 51.288421 
L 60.174556 50.399738 
L 71.0097 39.844211 
L 71.921924 38.96117 
L 82.902293 28.4 
L 71.921924 28.4 
L 60.174556 28.4 
L 55.810663 28.4 
L 48.427188 35.592934 
L 48.427188 39.844211 
L 48.427188 51.288421 
L 48.427188 61.985426 
z
" style="fill:#f7ad90;fill-opacity:0.5;"/>
   </g>
   <g id="PathCollection_9">
    <path clip-path="url(#p262f648778)" d="M 271.627187 245.84 
L 271.627187 238.647066 
L 264.243712 245.84 
z
" style="fill:#d75445;fill-opacity:0.5;"/>
    <path clip-path="url(#p262f648778)" d="M 55.810663 28.4 
L 48.427188 28.4 
L 48.427188 35.592934 
z
" style="fill:#d75445;fill-opacity:0.5;"/>
   </g>
   <g id="matplotlib.axis_1">
    <g id="xtick_1">
     <g id="line2d_1">
      <defs>
       <path d="M 0 0 
L 0 3.5 
" id="m044311b4a2" style="stroke:#000000;stroke-width:0.8;"/>
      </defs>
      <g>
       <use style="stroke:#000000;stroke-width:0.8;" x="48.427188" xlink:href="#m044311b4a2" y="245.84"/>
      </g>
     </g>
     <g id="text_1">
      <!-- −3 -->
      <defs>
       <path d="M 10.59375 35.5 
L 73.1875 35.5 
L 73.1875 27.203125 
L 10.59375 27.203125 
z
" id="DejaVuSans-8722"/>
       <path d="M 40.578125 39.3125 
Q 47.65625 37.796875 51.625 33 
Q 55.609375 28.21875 55.609375 21.1875 
Q 55.609375 10.40625 48.1875 4.484375 
Q 40.765625 -1.421875 27.09375 -1.421875 
Q 22.515625 -1.421875 17.65625 -0.515625 
Q 12.796875 0.390625 7.625 2.203125 
L 7.625 11.71875 
Q 11.71875 9.328125 16.59375 8.109375 
Q 21.484375 6.890625 26.8125 6.890625 
Q 36.078125 6.890625 40.9375 10.546875 
Q 45.796875 14.203125 45.796875 21.1875 
Q 45.796875 27.640625 41.28125 31.265625 
Q 36.765625 34.90625 28.71875 34.90625 
L 20.21875 34.90625 
L 20.21875 43.015625 
L 29.109375 43.015625 
Q 36.375 43.015625 40.234375 45.921875 
Q 44.09375 48.828125 44.09375 54.296875 
Q 44.09375 59.90625 40.109375 62.90625 
Q 36.140625 65.921875 28.71875 65.921875 
Q 24.65625 65.921875 20.015625 65.03125 
Q 15.375 64.15625 9.8125 62.3125 
L 9.8125 71.09375 
Q 15.4375 72.65625 20.34375 73.4375 
Q 25.25 74.21875 29.59375 74.21875 
Q 40.828125 74.21875 47.359375 69.109375 
Q 53.90625 64.015625 53.90625 55.328125 
Q 53.90625 49.265625 50.4375 45.09375 
Q 46.96875 40.921875 40.578125 39.3125 
z
" id="DejaVuSans-51"/>
      </defs>
      <g transform="translate(41.056094 260.438437)scale(0.1 -0.1)">
       <use xlink:href="#DejaVuSans-8722"/>
       <use x="83.789062" xlink:href="#DejaVuSans-51"/>
      </g>
     </g>
    </g>
    <g id="xtick_2">
     <g id="line2d_2">
      <g>
       <use style="stroke:#000000;stroke-width:0.8;" x="85.627188" xlink:href="#m044311b4a2" y="245.84"/>
      </g>
     </g>
     <g id="text_2">
      <!-- −2 -->
      <defs>
       <path d="M 19.1875 8.296875 
L 53.609375 8.296875 
L 53.609375 0 
L 7.328125 0 
L 7.328125 8.296875 
Q 12.9375 14.109375 22.625 23.890625 
Q 32.328125 33.6875 34.8125 36.53125 
Q 39.546875 41.84375 41.421875 45.53125 
Q 43.3125 49.21875 43.3125 52.78125 
Q 43.3125 58.59375 39.234375 62.25 
Q 35.15625 65.921875 28.609375 65.921875 
Q 23.96875 65.921875 18.8125 64.3125 
Q 13.671875 62.703125 7.8125 59.421875 
L 7.8125 69.390625 
Q 13.765625 71.78125 18.9375 73 
Q 24.125 74.21875 28.421875 74.21875 
Q 39.75 74.21875 46.484375 68.546875 
Q 53.21875 62.890625 53.21875 53.421875 
Q 53.21875 48.921875 51.53125 44.890625 
Q 49.859375 40.875 45.40625 35.40625 
Q 44.1875 33.984375 37.640625 27.21875 
Q 31.109375 20.453125 19.1875 8.296875 
z
" id="DejaVuSans-50"/>
      </defs>
      <g transform="translate(78.256094 260.438437)scale(0.1 -0.1)">
       <use xlink:href="#DejaVuSans-8722"/>
       <use x="83.789062" xlink:href="#DejaVuSans-50"/>
      </g>
     </g>
    </g>
    <g id="xtick_3">
     <g id="line2d_3">
      <g>
       <use style="stroke:#000000;stroke-width:0.8;" x="122.827188" xlink:href="#m044311b4a2" y="245.84"/>
      </g>
     </g>
     <g id="text_3">
      <!-- −1 -->
      <defs>
       <path d="M 12.40625 8.296875 
L 28.515625 8.296875 
L 28.515625 63.921875 
L 10.984375 60.40625 
L 10.984375 69.390625 
L 28.421875 72.90625 
L 38.28125 72.90625 
L 38.28125 8.296875 
L 54.390625 8.296875 
L 54.390625 0 
L 12.40625 0 
z
" id="DejaVuSans-49"/>
      </defs>
      <g transform="translate(115.456094 260.438437)scale(0.1 -0.1)">
       <use xlink:href="#DejaVuSans-8722"/>
       <use x="83.789062" xlink:href="#DejaVuSans-49"/>
      </g>
     </g>
    </g>
    <g id="xtick_4">
     <g id="line2d_4">
      <g>
       <use style="stroke:#000000;stroke-width:0.8;" x="160.027187" xlink:href="#m044311b4a2" y="245.84"/>
      </g>
     </g>
     <g id="text_4">
      <!-- 0 -->
      <defs>
       <path d="M 31.78125 66.40625 
Q 24.171875 66.40625 20.328125 58.90625 
Q 16.5 51.421875 16.5 36.375 
Q 16.5 21.390625 20.328125 13.890625 
Q 24.171875 6.390625 31.78125 6.390625 
Q 39.453125 6.390625 43.28125 13.890625 
Q 47.125 21.390625 47.125 36.375 
Q 47.125 51.421875 43.28125 58.90625 
Q 39.453125 66.40625 31.78125 66.40625 
z
M 31.78125 74.21875 
Q 44.046875 74.21875 50.515625 64.515625 
Q 56.984375 54.828125 56.984375 36.375 
Q 56.984375 17.96875 50.515625 8.265625 
Q 44.046875 -1.421875 31.78125 -1.421875 
Q 19.53125 -1.421875 13.0625 8.265625 
Q 6.59375 17.96875 6.59375 36.375 
Q 6.59375 54.828125 13.0625 64.515625 
Q 19.53125 74.21875 31.78125 74.21875 
z
" id="DejaVuSans-48"/>
      </defs>
      <g transform="translate(156.845937 260.438437)scale(0.1 -0.1)">
       <use xlink:href="#DejaVuSans-48"/>
      </g>
     </g>
    </g>
    <g id="xtick_5">
     <g id="line2d_5">
      <g>
       <use style="stroke:#000000;stroke-width:0.8;" x="197.227187" xlink:href="#m044311b4a2" y="245.84"/>
      </g>
     </g>
     <g id="text_5">
      <!-- 1 -->
      <g transform="translate(194.045937 260.438437)scale(0.1 -0.1)">
       <use xlink:href="#DejaVuSans-49"/>
      </g>
     </g>
    </g>
    <g id="xtick_6">
     <g id="line2d_6">
      <g>
       <use style="stroke:#000000;stroke-width:0.8;" x="234.427188" xlink:href="#m044311b4a2" y="245.84"/>
      </g>
     </g>
     <g id="text_6">
      <!-- 2 -->
      <g transform="translate(231.245937 260.438437)scale(0.1 -0.1)">
       <use xlink:href="#DejaVuSans-50"/>
      </g>
     </g>
    </g>
    <g id="xtick_7">
     <g id="line2d_7">
      <g>
       <use style="stroke:#000000;stroke-width:0.8;" x="271.627187" xlink:href="#m044311b4a2" y="245.84"/>
      </g>
     </g>
     <g id="text_7">
      <!-- 3 -->
      <g transform="translate(268.445938 260.438437)scale(0.1 -0.1)">
       <use xlink:href="#DejaVuSans-51"/>
      </g>
     </g>
    </g>
    <g id="text_8">
     <!-- $x_0$ -->
     <defs>
      <path d="M 60.015625 54.6875 
L 34.90625 27.875 
L 50.296875 0 
L 39.984375 0 
L 28.421875 21.6875 
L 8.296875 0 
L -2.59375 0 
L 24.3125 28.8125 
L 10.015625 54.6875 
L 20.3125 54.6875 
L 30.8125 34.90625 
L 49.125 54.6875 
z
" id="DejaVuSans-Oblique-120"/>
     </defs>
     <g transform="translate(151.467187 278.675625)scale(0.16 -0.16)">
      <use transform="translate(0 0.3125)" xlink:href="#DejaVuSans-Oblique-120"/>
      <use transform="translate(59.179688 -16.09375)scale(0.7)" xlink:href="#DejaVuSans-48"/>
     </g>
    </g>
   </g>
   <g id="matplotlib.axis_2">
    <g id="ytick_1">
     <g id="line2d_8">
      <defs>
       <path d="M 0 0 
L -3.5 0 
" id="m63adb74ad2" style="stroke:#000000;stroke-width:0.8;"/>
      </defs>
      <g>
       <use style="stroke:#000000;stroke-width:0.8;" x="48.427188" xlink:href="#m63adb74ad2" y="245.84"/>
      </g>
     </g>
     <g id="text_9">
      <!-- −3 -->
      <g transform="translate(26.685 249.639219)scale(0.1 -0.1)">
       <use xlink:href="#DejaVuSans-8722"/>
       <use x="83.789062" xlink:href="#DejaVuSans-51"/>
      </g>
     </g>
    </g>
    <g id="ytick_2">
     <g id="line2d_9">
      <g>
       <use style="stroke:#000000;stroke-width:0.8;" x="48.427188" xlink:href="#m63adb74ad2" y="209.6"/>
      </g>
     </g>
     <g id="text_10">
      <!-- −2 -->
      <g transform="translate(26.685 213.399219)scale(0.1 -0.1)">
       <use xlink:href="#DejaVuSans-8722"/>
       <use x="83.789062" xlink:href="#DejaVuSans-50"/>
      </g>
     </g>
    </g>
    <g id="ytick_3">
     <g id="line2d_10">
      <g>
       <use style="stroke:#000000;stroke-width:0.8;" x="48.427188" xlink:href="#m63adb74ad2" y="173.36"/>
      </g>
     </g>
     <g id="text_11">
      <!-- −1 -->
      <g transform="translate(26.685 177.159219)scale(0.1 -0.1)">
       <use xlink:href="#DejaVuSans-8722"/>
       <use x="83.789062" xlink:href="#DejaVuSans-49"/>
      </g>
     </g>
    </g>
    <g id="ytick_4">
     <g id="line2d_11">
      <g>
       <use style="stroke:#000000;stroke-width:0.8;" x="48.427188" xlink:href="#m63adb74ad2" y="137.12"/>
      </g>
     </g>
     <g id="text_12">
      <!-- 0 -->
      <g transform="translate(35.064688 140.919219)scale(0.1 -0.1)">
       <use xlink:href="#DejaVuSans-48"/>
      </g>
     </g>
    </g>
    <g id="ytick_5">
     <g id="line2d_12">
      <g>
       <use style="stroke:#000000;stroke-width:0.8;" x="48.427188" xlink:href="#m63adb74ad2" y="100.88"/>
      </g>
     </g>
     <g id="text_13">
      <!-- 1 -->
      <g transform="translate(35.064688 104.679219)scale(0.1 -0.1)">
       <use xlink:href="#DejaVuSans-49"/>
      </g>
     </g>
    </g>
    <g id="ytick_6">
     <g id="line2d_13">
      <g>
       <use style="stroke:#000000;stroke-width:0.8;" x="48.427188" xlink:href="#m63adb74ad2" y="64.64"/>
      </g>
     </g>
     <g id="text_14">
      <!-- 2 -->
      <g transform="translate(35.064688 68.439219)scale(0.1 -0.1)">
       <use xlink:href="#DejaVuSans-50"/>
      </g>
     </g>
    </g>
    <g id="ytick_7">
     <g id="line2d_14">
      <g>
       <use style="stroke:#000000;stroke-width:0.8;" x="48.427188" xlink:href="#m63adb74ad2" y="28.4"/>
      </g>
     </g>
     <g id="text_15">
      <!-- 3 -->
      <g transform="translate(35.064688 32.199219)scale(0.1 -0.1)">
       <use xlink:href="#DejaVuSans-51"/>
      </g>
     </g>
    </g>
    <g id="text_16">
     <!-- $x_1$ -->
     <g transform="translate(19.3575 145.68)rotate(-90)scale(0.16 -0.16)">
      <use transform="translate(0 0.3125)" xlink:href="#DejaVuSans-Oblique-120"/>
      <use transform="translate(59.179688 -16.09375)scale(0.7)" xlink:href="#DejaVuSans-49"/>
     </g>
    </g>
   </g>
   <g id="patch_3">
    <path d="M 48.427188 245.84 
L 48.427188 28.4 
" style="fill:none;stroke:#000000;stroke-linecap:square;stroke-linejoin:miter;stroke-width:0.8;"/>
   </g>
   <g id="patch_4">
    <path d="M 271.627187 245.84 
L 271.627187 28.4 
" style="fill:none;stroke:#000000;stroke-linecap:square;stroke-linejoin:miter;stroke-width:0.8;"/>
   </g>
   <g id="patch_5">
    <path d="M 48.427188 245.84 
L 271.627187 245.84 
" style="fill:none;stroke:#000000;stroke-linecap:square;stroke-linejoin:miter;stroke-width:0.8;"/>
   </g>
   <g id="patch_6">
    <path d="M 48.427188 28.4 
L 271.627187 28.4 
" style="fill:none;stroke:#000000;stroke-linecap:square;stroke-linejoin:miter;stroke-width:0.8;"/>
   </g>
   <g id="text_17">
    <!-- Objective $F$ -->
    <defs>
     <path d="M 39.40625 66.21875 
Q 28.65625 66.21875 22.328125 58.203125 
Q 16.015625 50.203125 16.015625 36.375 
Q 16.015625 22.609375 22.328125 14.59375 
Q 28.65625 6.59375 39.40625 6.59375 
Q 50.140625 6.59375 56.421875 14.59375 
Q 62.703125 22.609375 62.703125 36.375 
Q 62.703125 50.203125 56.421875 58.203125 
Q 50.140625 66.21875 39.40625 66.21875 
z
M 39.40625 74.21875 
Q 54.734375 74.21875 63.90625 63.9375 
Q 73.09375 53.65625 73.09375 36.375 
Q 73.09375 19.140625 63.90625 8.859375 
Q 54.734375 -1.421875 39.40625 -1.421875 
Q 24.03125 -1.421875 14.8125 8.828125 
Q 5.609375 19.09375 5.609375 36.375 
Q 5.609375 53.65625 14.8125 63.9375 
Q 24.03125 74.21875 39.40625 74.21875 
z
" id="DejaVuSans-79"/>
     <path d="M 48.6875 27.296875 
Q 48.6875 37.203125 44.609375 42.84375 
Q 40.53125 48.484375 33.40625 48.484375 
Q 26.265625 48.484375 22.1875 42.84375 
Q 18.109375 37.203125 18.109375 27.296875 
Q 18.109375 17.390625 22.1875 11.75 
Q 26.265625 6.109375 33.40625 6.109375 
Q 40.53125 6.109375 44.609375 11.75 
Q 48.6875 17.390625 48.6875 27.296875 
z
M 18.109375 46.390625 
Q 20.953125 51.265625 25.265625 53.625 
Q 29.59375 56 35.59375 56 
Q 45.5625 56 51.78125 48.09375 
Q 58.015625 40.1875 58.015625 27.296875 
Q 58.015625 14.40625 51.78125 6.484375 
Q 45.5625 -1.421875 35.59375 -1.421875 
Q 29.59375 -1.421875 25.265625 0.953125 
Q 20.953125 3.328125 18.109375 8.203125 
L 18.109375 0 
L 9.078125 0 
L 9.078125 75.984375 
L 18.109375 75.984375 
z
" id="DejaVuSans-98"/>
     <path d="M 9.421875 54.6875 
L 18.40625 54.6875 
L 18.40625 -0.984375 
Q 18.40625 -11.421875 14.421875 -16.109375 
Q 10.453125 -20.796875 1.609375 -20.796875 
L -1.8125 -20.796875 
L -1.8125 -13.1875 
L 0.59375 -13.1875 
Q 5.71875 -13.1875 7.5625 -10.8125 
Q 9.421875 -8.453125 9.421875 -0.984375 
z
M 9.421875 75.984375 
L 18.40625 75.984375 
L 18.40625 64.59375 
L 9.421875 64.59375 
z
" id="DejaVuSans-106"/>
     <path d="M 56.203125 29.59375 
L 56.203125 25.203125 
L 14.890625 25.203125 
Q 15.484375 15.921875 20.484375 11.0625 
Q 25.484375 6.203125 34.421875 6.203125 
Q 39.59375 6.203125 44.453125 7.46875 
Q 49.3125 8.734375 54.109375 11.28125 
L 54.109375 2.78125 
Q 49.265625 0.734375 44.1875 -0.34375 
Q 39.109375 -1.421875 33.890625 -1.421875 
Q 20.796875 -1.421875 13.15625 6.1875 
Q 5.515625 13.8125 5.515625 26.8125 
Q 5.515625 40.234375 12.765625 48.109375 
Q 20.015625 56 32.328125 56 
Q 43.359375 56 49.78125 48.890625 
Q 56.203125 41.796875 56.203125 29.59375 
z
M 47.21875 32.234375 
Q 47.125 39.59375 43.09375 43.984375 
Q 39.0625 48.390625 32.421875 48.390625 
Q 24.90625 48.390625 20.390625 44.140625 
Q 15.875 39.890625 15.1875 32.171875 
z
" id="DejaVuSans-101"/>
     <path d="M 48.78125 52.59375 
L 48.78125 44.1875 
Q 44.96875 46.296875 41.140625 47.34375 
Q 37.3125 48.390625 33.40625 48.390625 
Q 24.65625 48.390625 19.8125 42.84375 
Q 14.984375 37.3125 14.984375 27.296875 
Q 14.984375 17.28125 19.8125 11.734375 
Q 24.65625 6.203125 33.40625 6.203125 
Q 37.3125 6.203125 41.140625 7.25 
Q 44.96875 8.296875 48.78125 10.40625 
L 48.78125 2.09375 
Q 45.015625 0.34375 40.984375 -0.53125 
Q 36.96875 -1.421875 32.421875 -1.421875 
Q 20.0625 -1.421875 12.78125 6.34375 
Q 5.515625 14.109375 5.515625 27.296875 
Q 5.515625 40.671875 12.859375 48.328125 
Q 20.21875 56 33.015625 56 
Q 37.15625 56 41.109375 55.140625 
Q 45.0625 54.296875 48.78125 52.59375 
z
" id="DejaVuSans-99"/>
     <path d="M 18.3125 70.21875 
L 18.3125 54.6875 
L 36.8125 54.6875 
L 36.8125 47.703125 
L 18.3125 47.703125 
L 18.3125 18.015625 
Q 18.3125 11.328125 20.140625 9.421875 
Q 21.96875 7.515625 27.59375 7.515625 
L 36.8125 7.515625 
L 36.8125 0 
L 27.59375 0 
Q 17.1875 0 13.234375 3.875 
Q 9.28125 7.765625 9.28125 18.015625 
L 9.28125 47.703125 
L 2.6875 47.703125 
L 2.6875 54.6875 
L 9.28125 54.6875 
L 9.28125 70.21875 
z
" id="DejaVuSans-116"/>
     <path d="M 9.421875 54.6875 
L 18.40625 54.6875 
L 18.40625 0 
L 9.421875 0 
z
M 9.421875 75.984375 
L 18.40625 75.984375 
L 18.40625 64.59375 
L 9.421875 64.59375 
z
" id="DejaVuSans-105"/>
     <path d="M 2.984375 54.6875 
L 12.5 54.6875 
L 29.59375 8.796875 
L 46.6875 54.6875 
L 56.203125 54.6875 
L 35.6875 0 
L 23.484375 0 
z
" id="DejaVuSans-118"/>
     <path id="DejaVuSans-32"/>
     <path d="M 16.890625 72.90625 
L 58.6875 72.90625 
L 57.078125 64.59375 
L 25.09375 64.59375 
L 20.90625 43.109375 
L 49.8125 43.109375 
L 48.1875 34.8125 
L 19.28125 34.8125 
L 12.5 0 
L 2.6875 0 
z
" id="DejaVuSans-Oblique-70"/>
    </defs>
    <g transform="translate(103.627187 22.4)scale(0.2 -0.2)">
     <use transform="translate(0 0.015625)" xlink:href="#DejaVuSans-79"/>
     <use transform="translate(78.710938 0.015625)" xlink:href="#DejaVuSans-98"/>
     <use transform="translate(142.1875 0.015625)" xlink:href="#DejaVuSans-106"/>
     <use transform="translate(169.970703 0.015625)" xlink:href="#DejaVuSans-101"/>
     <use transform="translate(231.494141 0.015625)" xlink:href="#DejaVuSans-99"/>
     <use transform="translate(286.474609 0.015625)" xlink:href="#DejaVuSans-116"/>
     <use transform="translate(325.683594 0.015625)" xlink:href="#DejaVuSans-105"/>
     <use transform="translate(353.466797 0.015625)" xlink:href="#DejaVuSans-118"/>
     <use transform="translate(412.646484 0.015625)" xlink:href="#DejaVuSans-101"/>
     <use transform="translate(474.169922 0.015625)" xlink:href="#DejaVuSans-32"/>
     <use transform="translate(505.957031 0.015625)" xlink:href="#DejaVuSans-Oblique-70"/>
    </g>
   </g>
  </g>
 </g>
 <defs>
  <clipPath id="p262f648778">
   <rect height="217.44" width="223.2" x="48.427188" y="28.4"/>
  </clipPath>
 </defs>
</svg>
