<?xml version="1.0" encoding="utf-8" standalone="no"?>
<!DOCTYPE svg PUBLIC "-//W3C//DTD SVG 1.1//EN"
  "http://www.w3.org/Graphics/SVG/1.1/DTD/svg11.dtd">
<!-- Created with matplotlib (https://matplotlib.org/) -->
<svg height="284.533437pt" version="1.1" viewBox="0 0 500.55 284.533437" width="500.55pt" xmlns="http://www.w3.org/2000/svg" xmlns:xlink="http://www.w3.org/1999/xlink">
 <defs>
  <style type="text/css">
*{stroke-linecap:butt;stroke-linejoin:round;}
  </style>
 </defs>
 <g id="figure_1">
  <g id="patch_1">
   <path d="M 0 284.533437 
L 500.55 284.533437 
L 500.55 0 
L 0 0 
z
" style="fill:none;"/>
  </g>
  <g id="axes_1">
   <g id="patch_2">
    <path d="M 44.45 242.933437 
L 490.85 242.933437 
L 490.85 25.493437 
L 44.45 25.493437 
z
" style="fill:#ffffff;"/>
   </g>
   <g id="PathCollection_1">
    <path clip-path="url(#pd817d9f8c1)" d="M 232.407895 143.776771 
L 255.902632 147.591508 
L 279.397368 147.591508 
L 302.892105 143.776771 
L 314.721053 139.935543 
L 314.721053 128.491332 
L 302.892105 124.650104 
L 279.397368 120.835367 
L 255.902632 120.835367 
L 232.407895 124.650104 
L 220.578947 128.491332 
L 220.578947 139.935543 
z
" style="fill:#3c4ec2;fill-opacity:0.5;"/>
   </g>
   <g id="PathCollection_2">
    <path clip-path="url(#pd817d9f8c1)" d="M 255.902632 163.495075 
L 279.397368 163.495075 
L 291.797368 162.823964 
L 302.892105 161.923262 
L 326.386842 158.108525 
L 349.881579 152.38642 
L 352.981579 151.379753 
L 370.602632 139.935543 
L 370.602632 128.491332 
L 352.981579 117.047122 
L 349.881579 116.040455 
L 326.386842 110.31835 
L 302.892105 106.503613 
L 291.797368 105.602911 
L 279.397368 104.9318 
L 255.902632 104.9318 
L 243.502632 105.602911 
L 232.407895 106.503613 
L 208.913158 110.31835 
L 185.418421 116.040455 
L 182.318421 117.047122 
L 164.697368 128.491332 
L 164.697368 139.935543 
L 182.318421 151.379753 
L 185.418421 152.38642 
L 208.913158 158.108525 
L 232.407895 161.923262 
L 243.502632 162.823964 
z
M 220.578947 139.935543 
L 220.578947 128.491332 
L 232.407895 124.650104 
L 255.902632 120.835367 
L 279.397368 120.835367 
L 302.892105 124.650104 
L 314.721053 128.491332 
L 314.721053 139.935543 
L 302.892105 143.776771 
L 279.397368 147.591508 
L 255.902632 147.591508 
L 232.407895 143.776771 
z
" style="fill:#4358cb;fill-opacity:0.5;"/>
   </g>
   <g id="PathCollection_3">
    <path clip-path="url(#pd817d9f8c1)" d="M 208.913158 175.281464 
L 232.407895 177.188832 
L 255.902632 178.142516 
L 279.397368 178.142516 
L 302.892105 177.188832 
L 326.386842 175.281464 
L 334.707895 174.268174 
L 349.881579 171.80449 
L 373.376316 166.718174 
L 387.766842 162.823964 
L 396.871053 159.128437 
L 412.778947 151.379753 
L 420.365789 143.988701 
L 423.931955 139.935543 
L 423.931955 128.491332 
L 420.365789 124.438174 
L 412.778947 117.047122 
L 396.871053 109.298437 
L 387.766842 105.602911 
L 373.376316 101.708701 
L 349.881579 96.622385 
L 334.707895 94.158701 
L 326.386842 93.145411 
L 302.892105 91.238043 
L 279.397368 90.284359 
L 255.902632 90.284359 
L 232.407895 91.238043 
L 208.913158 93.145411 
L 200.592105 94.158701 
L 185.418421 96.622385 
L 161.923684 101.708701 
L 147.533158 105.602911 
L 138.428947 109.298437 
L 122.521053 117.047122 
L 114.934211 124.438174 
L 111.368045 128.491332 
L 111.368045 139.935543 
L 114.934211 143.988701 
L 122.521053 151.379753 
L 138.428947 159.128437 
L 147.533158 162.823964 
L 161.923684 166.718174 
L 185.418421 171.80449 
L 200.592105 174.268174 
z
M 243.502632 162.823964 
L 232.407895 161.923262 
L 208.913158 158.108525 
L 185.418421 152.38642 
L 182.318421 151.379753 
L 164.697368 139.935543 
L 164.697368 128.491332 
L 182.318421 117.047122 
L 185.418421 116.040455 
L 208.913158 110.31835 
L 232.407895 106.503613 
L 243.502632 105.602911 
L 255.902632 104.9318 
L 279.397368 104.9318 
L 291.797368 105.602911 
L 302.892105 106.503613 
L 326.386842 110.31835 
L 349.881579 116.040455 
L 352.981579 117.047122 
L 370.602632 128.491332 
L 370.602632 139.935543 
L 352.981579 151.379753 
L 349.881579 152.38642 
L 326.386842 158.108525 
L 302.892105 161.923262 
L 291.797368 162.823964 
L 279.397368 163.495075 
L 255.902632 163.495075 
z
" style="fill:#536edd;fill-opacity:0.5;"/>
   </g>
   <g id="PathCollection_4">
    <path clip-path="url(#pd817d9f8c1)" d="M 185.418421 188.467473 
L 208.913158 190.756315 
L 232.407895 192.282209 
L 255.902632 193.045157 
L 279.397368 193.045157 
L 302.892105 192.282209 
L 326.386842 190.756315 
L 349.881579 188.467473 
L 371.092105 185.712385 
L 373.376316 185.341508 
L 396.871053 180.573087 
L 420.365789 174.850981 
L 422.416917 174.268174 
L 443.860526 166.144198 
L 451.528947 162.823964 
L 467.355263 152.545367 
L 468.950585 151.379753 
L 476.782164 139.935543 
L 476.782164 128.491332 
L 468.950585 117.047122 
L 467.355263 115.881508 
L 451.528947 105.602911 
L 443.860526 102.282677 
L 422.416917 94.158701 
L 420.365789 93.575894 
L 396.871053 87.853788 
L 373.376316 83.085367 
L 371.092105 82.71449 
L 349.881579 79.959402 
L 326.386842 77.67056 
L 302.892105 76.144666 
L 279.397368 75.381718 
L 255.902632 75.381718 
L 232.407895 76.144666 
L 208.913158 77.67056 
L 185.418421 79.959402 
L 164.207895 82.71449 
L 161.923684 83.085367 
L 138.428947 87.853788 
L 114.934211 93.575894 
L 112.883083 94.158701 
L 91.439474 102.282677 
L 83.771053 105.602911 
L 67.944737 115.881508 
L 66.349415 117.047122 
L 58.517836 128.491332 
L 58.517836 139.935543 
L 66.349415 151.379753 
L 67.944737 152.545367 
L 83.771053 162.823964 
L 91.439474 166.144198 
L 112.883083 174.268174 
L 114.934211 174.850981 
L 138.428947 180.573087 
L 161.923684 185.341508 
L 164.207895 185.712385 
z
M 200.592105 174.268174 
L 185.418421 171.80449 
L 161.923684 166.718174 
L 147.533158 162.823964 
L 138.428947 159.128437 
L 122.521053 151.379753 
L 114.934211 143.988701 
L 111.368045 139.935543 
L 111.368045 128.491332 
L 114.934211 124.438174 
L 122.521053 117.047122 
L 138.428947 109.298437 
L 147.533158 105.602911 
L 161.923684 101.708701 
L 185.418421 96.622385 
L 200.592105 94.158701 
L 208.913158 93.145411 
L 232.407895 91.238043 
L 255.902632 90.284359 
L 279.397368 90.284359 
L 302.892105 91.238043 
L 326.386842 93.145411 
L 334.707895 94.158701 
L 349.881579 96.622385 
L 373.376316 101.708701 
L 387.766842 105.602911 
L 396.871053 109.298437 
L 412.778947 117.047122 
L 420.365789 124.438174 
L 423.931955 128.491332 
L 423.931955 139.935543 
L 420.365789 143.988701 
L 412.778947 151.379753 
L 396.871053 159.128437 
L 387.766842 162.823964 
L 373.376316 166.718174 
L 349.881579 171.80449 
L 334.707895 174.268174 
L 326.386842 175.281464 
L 302.892105 177.188832 
L 279.397368 178.142516 
L 255.902632 178.142516 
L 232.407895 177.188832 
L 208.913158 175.281464 
z
" style="fill:#6b8df0;fill-opacity:0.5;"/>
   </g>
   <g id="PathCollection_5">
    <path clip-path="url(#pd817d9f8c1)" d="M 138.428947 198.538554 
L 161.923684 201.717502 
L 185.418421 204.26066 
L 208.913158 206.168028 
L 232.407895 207.439607 
L 255.902632 208.075397 
L 279.397368 208.075397 
L 302.892105 207.439607 
L 326.386842 206.168028 
L 349.881579 204.26066 
L 373.376316 201.717502 
L 396.871053 198.538554 
L 405.382456 197.156595 
L 420.365789 194.237262 
L 443.860526 188.89663 
L 456.117763 185.712385 
L 467.355263 182.063218 
L 488.69269 174.268174 
L 490.85 173.217356 
L 490.85 162.823964 
L 490.85 151.379753 
L 490.85 139.935543 
L 490.85 128.491332 
L 490.85 117.047122 
L 490.85 105.602911 
L 490.85 95.209519 
L 488.69269 94.158701 
L 467.355263 86.363657 
L 456.117763 82.71449 
L 443.860526 79.530245 
L 420.365789 74.189613 
L 405.382456 71.27028 
L 396.871053 69.888321 
L 373.376316 66.709373 
L 349.881579 64.166215 
L 326.386842 62.258847 
L 302.892105 60.987268 
L 279.397368 60.351478 
L 255.902632 60.351478 
L 232.407895 60.987268 
L 208.913158 62.258847 
L 185.418421 64.166215 
L 161.923684 66.709373 
L 138.428947 69.888321 
L 129.917544 71.27028 
L 114.934211 74.189613 
L 91.439474 79.530245 
L 79.182237 82.71449 
L 67.944737 86.363657 
L 46.60731 94.158701 
L 44.45 95.209519 
L 44.45 105.602911 
L 44.45 117.047122 
L 44.45 128.491332 
L 44.45 139.935543 
L 44.45 151.379753 
L 44.45 162.823964 
L 44.45 173.217356 
L 46.60731 174.268174 
L 67.944737 182.063218 
L 79.182237 185.712385 
L 91.439474 188.89663 
L 114.934211 194.237262 
L 129.917544 197.156595 
z
M 164.207895 185.712385 
L 161.923684 185.341508 
L 138.428947 180.573087 
L 114.934211 174.850981 
L 112.883083 174.268174 
L 91.439474 166.144198 
L 83.771053 162.823964 
L 67.944737 152.545367 
L 66.349415 151.379753 
L 58.517836 139.935543 
L 58.517836 128.491332 
L 66.349415 117.047122 
L 67.944737 115.881508 
L 83.771053 105.602911 
L 91.439474 102.282677 
L 112.883083 94.158701 
L 114.934211 93.575894 
L 138.428947 87.853788 
L 161.923684 83.085367 
L 164.207895 82.71449 
L 185.418421 79.959402 
L 208.913158 77.67056 
L 232.407895 76.144666 
L 255.902632 75.381718 
L 279.397368 75.381718 
L 302.892105 76.144666 
L 326.386842 77.67056 
L 349.881579 79.959402 
L 371.092105 82.71449 
L 373.376316 83.085367 
L 396.871053 87.853788 
L 420.365789 93.575894 
L 422.416917 94.158701 
L 443.860526 102.282677 
L 451.528947 105.602911 
L 467.355263 115.881508 
L 468.950585 117.047122 
L 476.782164 128.491332 
L 476.782164 139.935543 
L 468.950585 151.379753 
L 467.355263 152.545367 
L 451.528947 162.823964 
L 443.860526 166.144198 
L 422.416917 174.268174 
L 420.365789 174.850981 
L 396.871053 180.573087 
L 373.376316 185.341508 
L 371.092105 185.712385 
L 349.881579 188.467473 
L 326.386842 190.756315 
L 302.892105 192.282209 
L 279.397368 193.045157 
L 255.902632 193.045157 
L 232.407895 192.282209 
L 208.913158 190.756315 
L 185.418421 188.467473 
z
" style="fill:#8db0fe;fill-opacity:0.5;"/>
   </g>
   <g id="PathCollection_6">
    <path clip-path="url(#pd817d9f8c1)" d="M 208.913158 221.356332 
L 232.407895 222.310016 
L 255.902632 222.786859 
L 279.397368 222.786859 
L 302.892105 222.310016 
L 326.386842 221.356332 
L 347.923684 220.045016 
L 349.881579 219.908776 
L 373.376316 217.728926 
L 396.871053 215.004114 
L 420.365789 211.73434 
L 439.665038 208.600806 
L 443.860526 207.806069 
L 467.355263 202.719753 
L 490.197368 197.156595 
L 490.85 196.965859 
L 490.85 185.712385 
L 490.85 174.268174 
L 490.85 173.217356 
L 488.69269 174.268174 
L 467.355263 182.063218 
L 456.117763 185.712385 
L 443.860526 188.89663 
L 420.365789 194.237262 
L 405.382456 197.156595 
L 396.871053 198.538554 
L 373.376316 201.717502 
L 349.881579 204.26066 
L 326.386842 206.168028 
L 302.892105 207.439607 
L 279.397368 208.075397 
L 255.902632 208.075397 
L 232.407895 207.439607 
L 208.913158 206.168028 
L 185.418421 204.26066 
L 161.923684 201.717502 
L 138.428947 198.538554 
L 129.917544 197.156595 
L 114.934211 194.237262 
L 91.439474 188.89663 
L 79.182237 185.712385 
L 67.944737 182.063218 
L 46.60731 174.268174 
L 44.45 173.217356 
L 44.45 174.268174 
L 44.45 185.712385 
L 44.45 196.965859 
L 45.102632 197.156595 
L 67.944737 202.719753 
L 91.439474 207.806069 
L 95.634962 208.600806 
L 114.934211 211.73434 
L 138.428947 215.004114 
L 161.923684 217.728926 
L 185.418421 219.908776 
L 187.376316 220.045016 
z
" style="fill:#b9d0f9;fill-opacity:0.5;"/>
    <path clip-path="url(#pd817d9f8c1)" d="M 46.60731 94.158701 
L 67.944737 86.363657 
L 79.182237 82.71449 
L 91.439474 79.530245 
L 114.934211 74.189613 
L 129.917544 71.27028 
L 138.428947 69.888321 
L 161.923684 66.709373 
L 185.418421 64.166215 
L 208.913158 62.258847 
L 232.407895 60.987268 
L 255.902632 60.351478 
L 279.397368 60.351478 
L 302.892105 60.987268 
L 326.386842 62.258847 
L 349.881579 64.166215 
L 373.376316 66.709373 
L 396.871053 69.888321 
L 405.382456 71.27028 
L 420.365789 74.189613 
L 443.860526 79.530245 
L 456.117763 82.71449 
L 467.355263 86.363657 
L 488.69269 94.158701 
L 490.85 95.209519 
L 490.85 94.158701 
L 490.85 82.71449 
L 490.85 71.461016 
L 490.197368 71.27028 
L 467.355263 65.707122 
L 443.860526 60.620806 
L 439.665038 59.826069 
L 420.365789 56.692535 
L 396.871053 53.422761 
L 373.376316 50.697949 
L 349.881579 48.518099 
L 347.923684 48.381859 
L 326.386842 47.070543 
L 302.892105 46.116859 
L 279.397368 45.640016 
L 255.902632 45.640016 
L 232.407895 46.116859 
L 208.913158 47.070543 
L 187.376316 48.381859 
L 185.418421 48.518099 
L 161.923684 50.697949 
L 138.428947 53.422761 
L 114.934211 56.692535 
L 95.634962 59.826069 
L 91.439474 60.620806 
L 67.944737 65.707122 
L 45.102632 71.27028 
L 44.45 71.461016 
L 44.45 82.71449 
L 44.45 94.158701 
L 44.45 95.209519 
z
" style="fill:#b9d0f9;fill-opacity:0.5;"/>
   </g>
   <g id="PathCollection_7">
    <path clip-path="url(#pd817d9f8c1)" d="M 161.923684 233.328896 
L 185.418421 235.024334 
L 208.913158 236.295913 
L 232.407895 237.143632 
L 255.902632 237.567492 
L 279.397368 237.567492 
L 302.892105 237.143632 
L 326.386842 236.295913 
L 349.881579 235.024334 
L 373.376316 233.328896 
L 393.771053 231.489227 
L 396.871053 231.174644 
L 420.365789 228.313591 
L 443.860526 224.975696 
L 467.355263 221.160959 
L 473.46462 220.045016 
L 490.85 216.415718 
L 490.85 208.600806 
L 490.85 197.156595 
L 490.85 196.965859 
L 490.197368 197.156595 
L 467.355263 202.719753 
L 443.860526 207.806069 
L 439.665038 208.600806 
L 420.365789 211.73434 
L 396.871053 215.004114 
L 373.376316 217.728926 
L 349.881579 219.908776 
L 347.923684 220.045016 
L 326.386842 221.356332 
L 302.892105 222.310016 
L 279.397368 222.786859 
L 255.902632 222.786859 
L 232.407895 222.310016 
L 208.913158 221.356332 
L 187.376316 220.045016 
L 185.418421 219.908776 
L 161.923684 217.728926 
L 138.428947 215.004114 
L 114.934211 211.73434 
L 95.634962 208.600806 
L 91.439474 207.806069 
L 67.944737 202.719753 
L 45.102632 197.156595 
L 44.45 196.965859 
L 44.45 197.156595 
L 44.45 208.600806 
L 44.45 216.415718 
L 61.83538 220.045016 
L 67.944737 221.160959 
L 91.439474 224.975696 
L 114.934211 228.313591 
L 138.428947 231.174644 
L 141.528947 231.489227 
z
" style="fill:#e3d9d3;fill-opacity:0.5;"/>
    <path clip-path="url(#pd817d9f8c1)" d="M 45.102632 71.27028 
L 67.944737 65.707122 
L 91.439474 60.620806 
L 95.634962 59.826069 
L 114.934211 56.692535 
L 138.428947 53.422761 
L 161.923684 50.697949 
L 185.418421 48.518099 
L 187.376316 48.381859 
L 208.913158 47.070543 
L 232.407895 46.116859 
L 255.902632 45.640016 
L 279.397368 45.640016 
L 302.892105 46.116859 
L 326.386842 47.070543 
L 347.923684 48.381859 
L 349.881579 48.518099 
L 373.376316 50.697949 
L 396.871053 53.422761 
L 420.365789 56.692535 
L 439.665038 59.826069 
L 443.860526 60.620806 
L 467.355263 65.707122 
L 490.197368 71.27028 
L 490.85 71.461016 
L 490.85 71.27028 
L 490.85 59.826069 
L 490.85 52.011157 
L 473.46462 48.381859 
L 467.355263 47.265916 
L 443.860526 43.451179 
L 420.365789 40.113284 
L 396.871053 37.252231 
L 393.771053 36.937648 
L 373.376316 35.097979 
L 349.881579 33.402541 
L 326.386842 32.130962 
L 302.892105 31.283243 
L 279.397368 30.859383 
L 255.902632 30.859383 
L 232.407895 31.283243 
L 208.913158 32.130962 
L 185.418421 33.402541 
L 161.923684 35.097979 
L 141.528947 36.937648 
L 138.428947 37.252231 
L 114.934211 40.113284 
L 91.439474 43.451179 
L 67.944737 47.265916 
L 61.83538 48.381859 
L 44.45 52.011157 
L 44.45 59.826069 
L 44.45 71.27028 
L 44.45 71.461016 
z
" style="fill:#e3d9d3;fill-opacity:0.5;"/>
   </g>
   <g id="PathCollection_8">
    <path clip-path="url(#pd817d9f8c1)" d="M 67.944737 238.247434 
L 91.439474 241.638311 
L 101.695113 242.933437 
L 114.934211 242.933437 
L 138.428947 242.933437 
L 161.923684 242.933437 
L 185.418421 242.933437 
L 208.913158 242.933437 
L 232.407895 242.933437 
L 255.902632 242.933437 
L 279.397368 242.933437 
L 302.892105 242.933437 
L 326.386842 242.933437 
L 349.881579 242.933437 
L 373.376316 242.933437 
L 396.871053 242.933437 
L 420.365789 242.933437 
L 433.604887 242.933437 
L 443.860526 241.638311 
L 467.355263 238.247434 
L 490.85 234.432697 
L 490.85 231.489227 
L 490.85 220.045016 
L 490.85 216.415718 
L 473.46462 220.045016 
L 467.355263 221.160959 
L 443.860526 224.975696 
L 420.365789 228.313591 
L 396.871053 231.174644 
L 393.771053 231.489227 
L 373.376316 233.328896 
L 349.881579 235.024334 
L 326.386842 236.295913 
L 302.892105 237.143632 
L 279.397368 237.567492 
L 255.902632 237.567492 
L 232.407895 237.143632 
L 208.913158 236.295913 
L 185.418421 235.024334 
L 161.923684 233.328896 
L 141.528947 231.489227 
L 138.428947 231.174644 
L 114.934211 228.313591 
L 91.439474 224.975696 
L 67.944737 221.160959 
L 61.83538 220.045016 
L 44.45 216.415718 
L 44.45 220.045016 
L 44.45 231.489227 
L 44.45 234.432697 
z
" style="fill:#f7ad90;fill-opacity:0.5;"/>
    <path clip-path="url(#pd817d9f8c1)" d="M 61.83538 48.381859 
L 67.944737 47.265916 
L 91.439474 43.451179 
L 114.934211 40.113284 
L 138.428947 37.252231 
L 141.528947 36.937648 
L 161.923684 35.097979 
L 185.418421 33.402541 
L 208.913158 32.130962 
L 232.407895 31.283243 
L 255.902632 30.859383 
L 279.397368 30.859383 
L 302.892105 31.283243 
L 326.386842 32.130962 
L 349.881579 33.402541 
L 373.376316 35.097979 
L 393.771053 36.937648 
L 396.871053 37.252231 
L 420.365789 40.113284 
L 443.860526 43.451179 
L 467.355263 47.265916 
L 473.46462 48.381859 
L 490.85 52.011157 
L 490.85 48.381859 
L 490.85 36.937648 
L 490.85 33.994178 
L 467.355263 30.179441 
L 443.860526 26.788564 
L 433.604887 25.493437 
L 420.365789 25.493437 
L 396.871053 25.493437 
L 373.376316 25.493437 
L 349.881579 25.493437 
L 326.386842 25.493437 
L 302.892105 25.493437 
L 279.397368 25.493437 
L 255.902632 25.493437 
L 232.407895 25.493437 
L 208.913158 25.493437 
L 185.418421 25.493437 
L 161.923684 25.493437 
L 138.428947 25.493437 
L 114.934211 25.493437 
L 101.695113 25.493437 
L 91.439474 26.788564 
L 67.944737 30.179441 
L 44.45 33.994178 
L 44.45 36.937648 
L 44.45 48.381859 
L 44.45 52.011157 
z
" style="fill:#f7ad90;fill-opacity:0.5;"/>
   </g>
   <g id="PathCollection_9">
    <path clip-path="url(#pd817d9f8c1)" d="M 67.944737 242.933437 
L 91.439474 242.933437 
L 101.695113 242.933437 
L 91.439474 241.638311 
L 67.944737 238.247434 
L 44.45 234.432697 
L 44.45 242.933437 
z
" style="fill:#d75445;fill-opacity:0.5;"/>
    <path clip-path="url(#pd817d9f8c1)" d="M 443.860526 242.933437 
L 467.355263 242.933437 
L 490.85 242.933437 
L 490.85 234.432697 
L 467.355263 238.247434 
L 443.860526 241.638311 
L 433.604887 242.933437 
z
" style="fill:#d75445;fill-opacity:0.5;"/>
    <path clip-path="url(#pd817d9f8c1)" d="M 67.944737 30.179441 
L 91.439474 26.788564 
L 101.695113 25.493437 
L 91.439474 25.493437 
L 67.944737 25.493437 
L 44.45 25.493437 
L 44.45 33.994178 
z
" style="fill:#d75445;fill-opacity:0.5;"/>
    <path clip-path="url(#pd817d9f8c1)" d="M 443.860526 26.788564 
L 467.355263 30.179441 
L 490.85 33.994178 
L 490.85 25.493437 
L 467.355263 25.493437 
L 443.860526 25.493437 
L 433.604887 25.493437 
z
" style="fill:#d75445;fill-opacity:0.5;"/>
   </g>
   <g id="PathCollection_10">
    <defs>
     <path d="M -2.236068 2.236068 
L 2.236068 -2.236068 
M -2.236068 -2.236068 
L 2.236068 2.236068 
" id="m170a9a1a89" style="stroke:#000000;stroke-width:1.5;"/>
    </defs>
    <g clip-path="url(#pd817d9f8c1)">
     <use style="stroke:#000000;stroke-width:1.5;" x="453.65" xlink:href="#m170a9a1a89" y="61.733437"/>
     <use style="stroke:#000000;stroke-width:1.5;" x="267.65" xlink:href="#m170a9a1a89" y="61.733437"/>
     <use style="stroke:#000000;stroke-width:1.5;" x="267.65" xlink:href="#m170a9a1a89" y="134.213437"/>
     <use style="stroke:#000000;stroke-width:1.5;" x="267.65" xlink:href="#m170a9a1a89" y="134.213437"/>
     <use style="stroke:#000000;stroke-width:1.5;" x="267.65" xlink:href="#m170a9a1a89" y="134.213437"/>
     <use style="stroke:#000000;stroke-width:1.5;" x="267.65" xlink:href="#m170a9a1a89" y="134.213437"/>
     <use style="stroke:#000000;stroke-width:1.5;" x="267.65" xlink:href="#m170a9a1a89" y="134.213437"/>
     <use style="stroke:#000000;stroke-width:1.5;" x="267.65" xlink:href="#m170a9a1a89" y="134.213437"/>
     <use style="stroke:#000000;stroke-width:1.5;" x="267.65" xlink:href="#m170a9a1a89" y="134.213437"/>
     <use style="stroke:#000000;stroke-width:1.5;" x="267.65" xlink:href="#m170a9a1a89" y="134.213437"/>
     <use style="stroke:#000000;stroke-width:1.5;" x="267.65" xlink:href="#m170a9a1a89" y="134.213437"/>
     <use style="stroke:#000000;stroke-width:1.5;" x="267.65" xlink:href="#m170a9a1a89" y="134.213437"/>
     <use style="stroke:#000000;stroke-width:1.5;" x="267.65" xlink:href="#m170a9a1a89" y="134.213437"/>
     <use style="stroke:#000000;stroke-width:1.5;" x="267.65" xlink:href="#m170a9a1a89" y="134.213437"/>
     <use style="stroke:#000000;stroke-width:1.5;" x="267.65" xlink:href="#m170a9a1a89" y="134.213437"/>
     <use style="stroke:#000000;stroke-width:1.5;" x="267.65" xlink:href="#m170a9a1a89" y="134.213437"/>
     <use style="stroke:#000000;stroke-width:1.5;" x="267.65" xlink:href="#m170a9a1a89" y="134.213437"/>
     <use style="stroke:#000000;stroke-width:1.5;" x="267.65" xlink:href="#m170a9a1a89" y="134.213437"/>
     <use style="stroke:#000000;stroke-width:1.5;" x="267.65" xlink:href="#m170a9a1a89" y="134.213437"/>
     <use style="stroke:#000000;stroke-width:1.5;" x="267.65" xlink:href="#m170a9a1a89" y="134.213437"/>
     <use style="stroke:#000000;stroke-width:1.5;" x="267.65" xlink:href="#m170a9a1a89" y="134.213437"/>
     <use style="stroke:#000000;stroke-width:1.5;" x="267.65" xlink:href="#m170a9a1a89" y="134.213437"/>
     <use style="stroke:#000000;stroke-width:1.5;" x="267.65" xlink:href="#m170a9a1a89" y="134.213437"/>
     <use style="stroke:#000000;stroke-width:1.5;" x="267.65" xlink:href="#m170a9a1a89" y="134.213437"/>
     <use style="stroke:#000000;stroke-width:1.5;" x="267.65" xlink:href="#m170a9a1a89" y="134.213437"/>
     <use style="stroke:#000000;stroke-width:1.5;" x="267.65" xlink:href="#m170a9a1a89" y="134.213437"/>
     <use style="stroke:#000000;stroke-width:1.5;" x="267.65" xlink:href="#m170a9a1a89" y="134.213437"/>
     <use style="stroke:#000000;stroke-width:1.5;" x="267.65" xlink:href="#m170a9a1a89" y="134.213437"/>
     <use style="stroke:#000000;stroke-width:1.5;" x="267.65" xlink:href="#m170a9a1a89" y="134.213437"/>
     <use style="stroke:#000000;stroke-width:1.5;" x="267.65" xlink:href="#m170a9a1a89" y="134.213437"/>
     <use style="stroke:#000000;stroke-width:1.5;" x="267.65" xlink:href="#m170a9a1a89" y="134.213437"/>
     <use style="stroke:#000000;stroke-width:1.5;" x="267.65" xlink:href="#m170a9a1a89" y="134.213437"/>
     <use style="stroke:#000000;stroke-width:1.5;" x="267.65" xlink:href="#m170a9a1a89" y="134.213437"/>
     <use style="stroke:#000000;stroke-width:1.5;" x="267.65" xlink:href="#m170a9a1a89" y="134.213437"/>
     <use style="stroke:#000000;stroke-width:1.5;" x="267.65" xlink:href="#m170a9a1a89" y="134.213437"/>
     <use style="stroke:#000000;stroke-width:1.5;" x="267.65" xlink:href="#m170a9a1a89" y="134.213437"/>
     <use style="stroke:#000000;stroke-width:1.5;" x="267.65" xlink:href="#m170a9a1a89" y="134.213437"/>
     <use style="stroke:#000000;stroke-width:1.5;" x="267.65" xlink:href="#m170a9a1a89" y="134.213437"/>
     <use style="stroke:#000000;stroke-width:1.5;" x="267.65" xlink:href="#m170a9a1a89" y="134.213437"/>
     <use style="stroke:#000000;stroke-width:1.5;" x="267.65" xlink:href="#m170a9a1a89" y="134.213437"/>
     <use style="stroke:#000000;stroke-width:1.5;" x="267.65" xlink:href="#m170a9a1a89" y="134.213437"/>
     <use style="stroke:#000000;stroke-width:1.5;" x="267.65" xlink:href="#m170a9a1a89" y="134.213437"/>
     <use style="stroke:#000000;stroke-width:1.5;" x="267.65" xlink:href="#m170a9a1a89" y="134.213437"/>
     <use style="stroke:#000000;stroke-width:1.5;" x="267.65" xlink:href="#m170a9a1a89" y="134.213437"/>
     <use style="stroke:#000000;stroke-width:1.5;" x="267.65" xlink:href="#m170a9a1a89" y="134.213437"/>
     <use style="stroke:#000000;stroke-width:1.5;" x="267.65" xlink:href="#m170a9a1a89" y="134.213437"/>
     <use style="stroke:#000000;stroke-width:1.5;" x="267.65" xlink:href="#m170a9a1a89" y="134.213437"/>
     <use style="stroke:#000000;stroke-width:1.5;" x="267.65" xlink:href="#m170a9a1a89" y="134.213437"/>
     <use style="stroke:#000000;stroke-width:1.5;" x="267.65" xlink:href="#m170a9a1a89" y="134.213437"/>
     <use style="stroke:#000000;stroke-width:1.5;" x="267.65" xlink:href="#m170a9a1a89" y="134.213437"/>
     <use style="stroke:#000000;stroke-width:1.5;" x="267.65" xlink:href="#m170a9a1a89" y="134.213437"/>
    </g>
   </g>
   <g id="matplotlib.axis_1">
    <g id="xtick_1">
     <g id="line2d_1">
      <defs>
       <path d="M 0 0 
L 0 3.5 
" id="maf5b3efa50" style="stroke:#000000;stroke-width:0.8;"/>
      </defs>
      <g>
       <use style="stroke:#000000;stroke-width:0.8;" x="44.45" xlink:href="#maf5b3efa50" y="242.933437"/>
      </g>
     </g>
     <g id="text_1">
      <!-- −3 -->
      <defs>
       <path d="M 62.09375 22 
L 6.40625 22 
L 6.40625 28.59375 
L 62.09375 28.59375 
z
" id="STIXGeneral-Regular-8722"/>
       <path d="M 6.09375 51 
L 4.5 51.40625 
Q 6.796875 58.90625 11.6875 63.25 
Q 16.59375 67.59375 24.09375 67.59375 
Q 31.09375 67.59375 35.390625 63.796875 
Q 39.703125 60 39.703125 53.90625 
Q 39.703125 45.703125 30.40625 40.09375 
Q 35.90625 37.703125 38.703125 34.796875 
Q 43.09375 29.90625 43.09375 21.90625 
Q 43.09375 13.90625 38.5 7.90625 
Q 35.09375 3.296875 28.75 0.9375 
Q 22.40625 -1.40625 15.296875 -1.40625 
Q 4.09375 -1.40625 4.09375 4.296875 
Q 4.09375 5.90625 5.296875 6.90625 
Q 6.5 7.90625 8.203125 7.90625 
Q 10.703125 7.90625 14.296875 5.296875 
Q 18.703125 2.203125 22.90625 2.203125 
Q 28.40625 2.203125 32.15625 6.640625 
Q 35.90625 11.09375 35.90625 17.5 
Q 35.90625 29 25.5 32 
Q 22.40625 33 15.296875 33 
L 15.296875 34.40625 
Q 20.90625 36.296875 23.703125 38 
Q 31.796875 42.59375 31.796875 51.40625 
Q 31.796875 56.40625 28.9375 59 
Q 26.09375 61.59375 21 61.59375 
Q 12 61.59375 6.09375 51 
z
" id="STIXGeneral-Regular-51"/>
      </defs>
      <g transform="translate(38.525 256.763125)scale(0.1 -0.1)">
       <use xlink:href="#STIXGeneral-Regular-8722"/>
       <use x="68.499985" xlink:href="#STIXGeneral-Regular-51"/>
      </g>
     </g>
    </g>
    <g id="xtick_2">
     <g id="line2d_2">
      <g>
       <use style="stroke:#000000;stroke-width:0.8;" x="118.85" xlink:href="#maf5b3efa50" y="242.933437"/>
      </g>
     </g>
     <g id="text_2">
      <!-- −2 -->
      <defs>
       <path d="M 47.40625 13.703125 
L 42 0 
L 2.90625 0 
L 2.90625 1.203125 
L 20.703125 20.09375 
Q 27.703125 27.40625 30.703125 33.5 
Q 33.703125 39.59375 33.703125 46.09375 
Q 33.703125 52.796875 30 56.5 
Q 26.296875 60.203125 19.796875 60.203125 
Q 14.40625 60.203125 11.25 57.390625 
Q 8.09375 54.59375 5.09375 47.203125 
L 3 47.703125 
Q 4.703125 57 9.84375 62.296875 
Q 15 67.59375 23.796875 67.59375 
Q 32.09375 67.59375 37.1875 62.59375 
Q 42.296875 57.59375 42.296875 50 
Q 42.296875 38.703125 29.5 25.203125 
L 13 7.59375 
L 36.40625 7.59375 
Q 39.703125 7.59375 41.640625 8.890625 
Q 43.59375 10.203125 46 14.296875 
z
" id="STIXGeneral-Regular-50"/>
      </defs>
      <g transform="translate(112.925 256.763125)scale(0.1 -0.1)">
       <use xlink:href="#STIXGeneral-Regular-8722"/>
       <use x="68.499985" xlink:href="#STIXGeneral-Regular-50"/>
      </g>
     </g>
    </g>
    <g id="xtick_3">
     <g id="line2d_3">
      <g>
       <use style="stroke:#000000;stroke-width:0.8;" x="193.25" xlink:href="#maf5b3efa50" y="242.933437"/>
      </g>
     </g>
     <g id="text_3">
      <!-- −1 -->
      <defs>
       <path d="M 39.40625 0 
L 11.796875 0 
L 11.796875 1.5 
Q 17.296875 1.796875 19.296875 3.546875 
Q 21.296875 5.296875 21.296875 9.5 
L 21.296875 54.40625 
Q 21.296875 59.296875 18.296875 59.296875 
Q 16.90625 59.296875 13.796875 58.09375 
L 11.09375 57.09375 
L 11.09375 58.5 
L 29 67.59375 
L 29.90625 67.296875 
L 29.90625 7.59375 
Q 29.90625 4.296875 31.90625 2.890625 
Q 33.90625 1.5 39.40625 1.5 
z
" id="STIXGeneral-Regular-49"/>
      </defs>
      <g transform="translate(187.325 256.763125)scale(0.1 -0.1)">
       <use xlink:href="#STIXGeneral-Regular-8722"/>
       <use x="68.499985" xlink:href="#STIXGeneral-Regular-49"/>
      </g>
     </g>
    </g>
    <g id="xtick_4">
     <g id="line2d_4">
      <g>
       <use style="stroke:#000000;stroke-width:0.8;" x="267.65" xlink:href="#maf5b3efa50" y="242.933437"/>
      </g>
     </g>
     <g id="text_4">
      <!-- 0 -->
      <defs>
       <path d="M 47.59375 33 
Q 47.59375 26.296875 46.296875 20.34375 
Q 45 14.40625 42.453125 9.40625 
Q 39.90625 4.40625 35.40625 1.5 
Q 30.90625 -1.40625 25 -1.40625 
Q 18.90625 -1.40625 14.296875 1.6875 
Q 9.703125 4.796875 7.203125 10 
Q 4.703125 15.203125 3.546875 21.09375 
Q 2.40625 27 2.40625 33.59375 
Q 2.40625 42.90625 4.703125 50.34375 
Q 7 57.796875 12.34375 62.6875 
Q 17.703125 67.59375 25.40625 67.59375 
Q 35.203125 67.59375 41.390625 58 
Q 47.59375 48.40625 47.59375 33 
z
M 38 32.5 
Q 38 48.296875 34.640625 56.640625 
Q 31.296875 65 24.796875 65 
Q 18.59375 65 15.296875 56.59375 
Q 12 48.203125 12 32.90625 
Q 12 17.5 15.296875 9.34375 
Q 18.59375 1.203125 25 1.203125 
Q 31.296875 1.203125 34.640625 9.34375 
Q 38 17.5 38 32.5 
z
" id="STIXGeneral-Regular-48"/>
      </defs>
      <g transform="translate(265.15 256.763125)scale(0.1 -0.1)">
       <use xlink:href="#STIXGeneral-Regular-48"/>
      </g>
     </g>
    </g>
    <g id="xtick_5">
     <g id="line2d_5">
      <g>
       <use style="stroke:#000000;stroke-width:0.8;" x="342.05" xlink:href="#maf5b3efa50" y="242.933437"/>
      </g>
     </g>
     <g id="text_5">
      <!-- 1 -->
      <g transform="translate(339.55 256.763125)scale(0.1 -0.1)">
       <use xlink:href="#STIXGeneral-Regular-49"/>
      </g>
     </g>
    </g>
    <g id="xtick_6">
     <g id="line2d_6">
      <g>
       <use style="stroke:#000000;stroke-width:0.8;" x="416.45" xlink:href="#maf5b3efa50" y="242.933437"/>
      </g>
     </g>
     <g id="text_6">
      <!-- 2 -->
      <g transform="translate(413.95 256.763125)scale(0.1 -0.1)">
       <use xlink:href="#STIXGeneral-Regular-50"/>
      </g>
     </g>
    </g>
    <g id="xtick_7">
     <g id="line2d_7">
      <g>
       <use style="stroke:#000000;stroke-width:0.8;" x="490.85" xlink:href="#maf5b3efa50" y="242.933437"/>
      </g>
     </g>
     <g id="text_7">
      <!-- 3 -->
      <g transform="translate(488.35 256.763125)scale(0.1 -0.1)">
       <use xlink:href="#STIXGeneral-Regular-51"/>
      </g>
     </g>
    </g>
    <g id="text_8">
     <!-- $x_0$ -->
     <defs>
      <path d="M 24.296875 35.5 
L 25.5 29.796875 
Q 30.796875 37.90625 34.046875 41 
Q 37.296875 44.09375 40.59375 44.09375 
Q 42.40625 44.09375 43.546875 43.046875 
Q 44.703125 42 44.703125 40.390625 
Q 44.703125 38.796875 43.75 37.796875 
Q 42.796875 36.796875 41.296875 36.796875 
Q 40.40625 36.796875 38.90625 37.640625 
Q 37.40625 38.5 36.09375 38.5 
Q 33.203125 38.5 26.296875 26.40625 
Q 26.296875 25.09375 27.09375 21.90625 
L 30.296875 8.5 
Q 31.296875 4.40625 33.296875 4.40625 
Q 34.90625 4.40625 38 8.40625 
Q 38.296875 8.796875 38.6875 9.34375 
Q 39.09375 9.90625 39.390625 10.34375 
Q 39.703125 10.796875 40.09375 11.203125 
L 41.59375 10.296875 
Q 37.296875 3.59375 34.796875 1.25 
Q 32.296875 -1.09375 29.40625 -1.09375 
Q 27 -1.09375 25.703125 0.40625 
Q 24.40625 1.90625 23.5 5.703125 
L 20.59375 17.59375 
L 11.796875 5.703125 
Q 8.703125 1.5 6.75 0.203125 
Q 4.796875 -1.09375 2.296875 -1.09375 
Q 0 -1.09375 -1.34375 0 
Q -2.703125 1.09375 -2.703125 3.09375 
Q -2.703125 4.59375 -1.75 5.640625 
Q -0.796875 6.703125 0.703125 6.703125 
Q 1.90625 6.703125 3.90625 5.59375 
Q 5.40625 4.703125 6.5 4.703125 
Q 8.203125 4.703125 11.59375 9.59375 
L 19.796875 21.203125 
L 17 33.59375 
Q 16 38 15.140625 39.203125 
Q 14.296875 40.40625 12.40625 40.40625 
Q 11.203125 40.40625 8.5 39.703125 
L 6.703125 39.203125 
L 6.40625 40.796875 
L 7.5 41.203125 
Q 15.5 44.09375 19.203125 44.09375 
Q 21.09375 44.09375 22.1875 42.296875 
Q 23.296875 40.5 24.296875 35.5 
z
" id="STIXGeneral-Italic-120"/>
     </defs>
     <g transform="translate(260.93 273.860937)scale(0.16 -0.16)">
      <use transform="translate(0 0.90625)" xlink:href="#STIXGeneral-Italic-120"/>
      <use transform="translate(44.399994 -12.321875)scale(0.7)" xlink:href="#STIXGeneral-Regular-48"/>
     </g>
    </g>
   </g>
   <g id="matplotlib.axis_2">
    <g id="ytick_1">
     <g id="line2d_8">
      <defs>
       <path d="M 0 0 
L -3.5 0 
" id="mecc1dddc3e" style="stroke:#000000;stroke-width:0.8;"/>
      </defs>
      <g>
       <use style="stroke:#000000;stroke-width:0.8;" x="44.45" xlink:href="#mecc1dddc3e" y="242.933437"/>
      </g>
     </g>
     <g id="text_9">
      <!-- −3 -->
      <g transform="translate(25.6 246.348281)scale(0.1 -0.1)">
       <use xlink:href="#STIXGeneral-Regular-8722"/>
       <use x="68.499985" xlink:href="#STIXGeneral-Regular-51"/>
      </g>
     </g>
    </g>
    <g id="ytick_2">
     <g id="line2d_9">
      <g>
       <use style="stroke:#000000;stroke-width:0.8;" x="44.45" xlink:href="#mecc1dddc3e" y="206.693437"/>
      </g>
     </g>
     <g id="text_10">
      <!-- −2 -->
      <g transform="translate(25.6 210.108281)scale(0.1 -0.1)">
       <use xlink:href="#STIXGeneral-Regular-8722"/>
       <use x="68.499985" xlink:href="#STIXGeneral-Regular-50"/>
      </g>
     </g>
    </g>
    <g id="ytick_3">
     <g id="line2d_10">
      <g>
       <use style="stroke:#000000;stroke-width:0.8;" x="44.45" xlink:href="#mecc1dddc3e" y="170.453437"/>
      </g>
     </g>
     <g id="text_11">
      <!-- −1 -->
      <g transform="translate(25.6 173.868281)scale(0.1 -0.1)">
       <use xlink:href="#STIXGeneral-Regular-8722"/>
       <use x="68.499985" xlink:href="#STIXGeneral-Regular-49"/>
      </g>
     </g>
    </g>
    <g id="ytick_4">
     <g id="line2d_11">
      <g>
       <use style="stroke:#000000;stroke-width:0.8;" x="44.45" xlink:href="#mecc1dddc3e" y="134.213437"/>
      </g>
     </g>
     <g id="text_12">
      <!-- 0 -->
      <g transform="translate(32.45 137.628281)scale(0.1 -0.1)">
       <use xlink:href="#STIXGeneral-Regular-48"/>
      </g>
     </g>
    </g>
    <g id="ytick_5">
     <g id="line2d_12">
      <g>
       <use style="stroke:#000000;stroke-width:0.8;" x="44.45" xlink:href="#mecc1dddc3e" y="97.973437"/>
      </g>
     </g>
     <g id="text_13">
      <!-- 1 -->
      <g transform="translate(32.45 101.388281)scale(0.1 -0.1)">
       <use xlink:href="#STIXGeneral-Regular-49"/>
      </g>
     </g>
    </g>
    <g id="ytick_6">
     <g id="line2d_13">
      <g>
       <use style="stroke:#000000;stroke-width:0.8;" x="44.45" xlink:href="#mecc1dddc3e" y="61.733437"/>
      </g>
     </g>
     <g id="text_14">
      <!-- 2 -->
      <g transform="translate(32.45 65.148281)scale(0.1 -0.1)">
       <use xlink:href="#STIXGeneral-Regular-50"/>
      </g>
     </g>
    </g>
    <g id="ytick_7">
     <g id="line2d_14">
      <g>
       <use style="stroke:#000000;stroke-width:0.8;" x="44.45" xlink:href="#mecc1dddc3e" y="25.493437"/>
      </g>
     </g>
     <g id="text_15">
      <!-- 3 -->
      <g transform="translate(32.45 28.908281)scale(0.1 -0.1)">
       <use xlink:href="#STIXGeneral-Regular-51"/>
      </g>
     </g>
    </g>
    <g id="text_16">
     <!-- $x_1$ -->
     <g transform="translate(18.1275 140.933437)rotate(-90)scale(0.16 -0.16)">
      <use transform="translate(0 0.90625)" xlink:href="#STIXGeneral-Italic-120"/>
      <use transform="translate(44.399994 -12.321875)scale(0.7)" xlink:href="#STIXGeneral-Regular-49"/>
     </g>
    </g>
   </g>
   <g id="line2d_15">
    <path clip-path="url(#pd817d9f8c1)" d="M 453.65 61.733437 
L 267.65 61.733437 
L 267.65 134.213437 
L 267.65 134.213437 
L 267.65 134.213437 
L 267.65 134.213437 
L 267.65 134.213437 
L 267.65 134.213437 
L 267.65 134.213437 
L 267.65 134.213437 
L 267.65 134.213437 
L 267.65 134.213437 
L 267.65 134.213437 
L 267.65 134.213437 
L 267.65 134.213437 
L 267.65 134.213437 
L 267.65 134.213437 
L 267.65 134.213437 
L 267.65 134.213437 
L 267.65 134.213437 
L 267.65 134.213437 
L 267.65 134.213437 
L 267.65 134.213437 
L 267.65 134.213437 
L 267.65 134.213437 
L 267.65 134.213437 
L 267.65 134.213437 
L 267.65 134.213437 
L 267.65 134.213437 
L 267.65 134.213437 
L 267.65 134.213437 
L 267.65 134.213437 
L 267.65 134.213437 
L 267.65 134.213437 
L 267.65 134.213437 
L 267.65 134.213437 
L 267.65 134.213437 
L 267.65 134.213437 
L 267.65 134.213437 
L 267.65 134.213437 
L 267.65 134.213437 
L 267.65 134.213437 
L 267.65 134.213437 
L 267.65 134.213437 
L 267.65 134.213437 
L 267.65 134.213437 
L 267.65 134.213437 
L 267.65 134.213437 
L 267.65 134.213437 
L 267.65 134.213437 
L 267.65 134.213437 
" style="fill:none;stroke:#000000;stroke-linecap:square;stroke-width:1.5;"/>
   </g>
   <g id="patch_3">
    <path d="M 44.45 242.933437 
L 44.45 25.493437 
" style="fill:none;stroke:#000000;stroke-linecap:square;stroke-linejoin:miter;stroke-width:0.8;"/>
   </g>
   <g id="patch_4">
    <path d="M 490.85 242.933437 
L 490.85 25.493437 
" style="fill:none;stroke:#000000;stroke-linecap:square;stroke-linejoin:miter;stroke-width:0.8;"/>
   </g>
   <g id="patch_5">
    <path d="M 44.45 242.933437 
L 490.85 242.933437 
" style="fill:none;stroke:#000000;stroke-linecap:square;stroke-linejoin:miter;stroke-width:0.8;"/>
   </g>
   <g id="patch_6">
    <path d="M 44.45 25.493437 
L 490.85 25.493437 
" style="fill:none;stroke:#000000;stroke-linecap:square;stroke-linejoin:miter;stroke-width:0.8;"/>
   </g>
   <g id="text_17">
    <!-- Descent with orthogonal search directions -->
    <defs>
     <path d="M 1.59375 66.203125 
L 28.59375 66.203125 
Q 48.09375 66.203125 58.59375 57.09375 
Q 68.5 48.59375 68.5 33.40625 
Q 68.5 15.09375 54.90625 6.40625 
Q 45 0 29.703125 0 
L 1.59375 0 
L 1.59375 1.90625 
Q 7.40625 2.296875 8.90625 3.9375 
Q 10.40625 5.59375 10.40625 11.5 
L 10.40625 55 
Q 10.40625 60.796875 8.90625 62.34375 
Q 7.40625 63.90625 1.59375 64.296875 
z
M 20.59375 58.296875 
L 20.59375 8.40625 
Q 20.59375 5.703125 21.546875 4.703125 
Q 22.5 3.703125 25.40625 3.703125 
Q 33.203125 3.703125 38 4.796875 
Q 42.796875 5.90625 47.203125 8.90625 
Q 57.59375 15.90625 57.59375 32.796875 
Q 57.59375 47.296875 48.09375 55.59375 
Q 43.796875 59.40625 38.6875 60.953125 
Q 33.59375 62.5 25.90625 62.5 
Q 23 62.5 21.796875 61.59375 
Q 20.59375 60.703125 20.59375 58.296875 
z
" id="STIXGeneral-Regular-68"/>
     <path d="M 40.796875 16.40625 
L 42.40625 15.703125 
Q 36.40625 -1 21.5 -1 
Q 12.703125 -1 7.59375 5.140625 
Q 2.5 11.296875 2.5 21.703125 
Q 2.5 32.40625 8.203125 39.203125 
Q 13.90625 46 23.203125 46 
Q 32.203125 46 37.09375 39.09375 
Q 40 35.09375 40.5 27.703125 
L 9.703125 27.703125 
Q 10.09375 21.40625 10.9375 18.09375 
Q 11.796875 14.796875 14.296875 11.40625 
Q 18.5 5.90625 25.40625 5.90625 
Q 30.296875 5.90625 33.640625 8.296875 
Q 37 10.703125 40.796875 16.40625 
z
M 9.90625 30.90625 
L 30.296875 30.90625 
Q 29.40625 37.203125 27.34375 39.796875 
Q 25.296875 42.40625 20.5 42.40625 
Q 16.296875 42.40625 13.5 39.453125 
Q 10.703125 36.5 9.90625 30.90625 
z
" id="STIXGeneral-Regular-101"/>
     <path d="M 15.59375 30.09375 
L 26 23.796875 
Q 31 20.796875 32.890625 18.1875 
Q 34.796875 15.59375 34.796875 11.5 
Q 34.796875 6.5 30.640625 2.75 
Q 26.5 -1 20.796875 -1 
Q 16.09375 -1 13.5 -0.09375 
Q 10.796875 0.796875 8.90625 0.796875 
Q 7.203125 0.796875 6.5 -0.40625 
L 5.203125 -0.40625 
L 5.203125 15.296875 
L 6.796875 15.296875 
Q 8.40625 8 11.40625 4.59375 
Q 14.40625 1.203125 19.5 1.203125 
Q 23.203125 1.203125 25.5 3.296875 
Q 27.796875 5.40625 27.796875 8.59375 
Q 27.796875 13.203125 22.5 16.09375 
L 17.09375 19.09375 
Q 5.09375 25.796875 5.09375 33.59375 
Q 5.09375 39.40625 8.84375 42.65625 
Q 12.59375 45.90625 18.90625 45.90625 
Q 23.296875 45.90625 25.59375 44.796875 
Q 27.40625 44 28.40625 44 
Q 29.09375 44 30 45 
L 31.09375 45 
L 31.59375 31.40625 
L 30.09375 31.40625 
Q 28.40625 38.203125 25.84375 40.953125 
Q 23.296875 43.703125 18.796875 43.703125 
Q 15.40625 43.703125 13.34375 42 
Q 11.296875 40.296875 11.296875 36.90625 
Q 11.296875 35.203125 12.4375 33.25 
Q 13.59375 31.296875 15.59375 30.09375 
z
" id="STIXGeneral-Regular-115"/>
     <path d="M 39.796875 15.59375 
L 41.203125 14.703125 
Q 36.90625 6.296875 33 3.203125 
Q 27.90625 -1 21.5 -1 
Q 13.203125 -1 7.84375 5.25 
Q 2.5 11.5 2.5 21.203125 
Q 2.5 33.90625 10.90625 40.90625 
Q 17.09375 46 24.40625 46 
Q 30.703125 46 35.25 42.953125 
Q 39.796875 39.90625 39.796875 35.703125 
Q 39.796875 34 38.390625 32.75 
Q 37 31.5 35.09375 31.5 
Q 31.59375 31.5 30.296875 36.09375 
L 29.703125 38.296875 
Q 28.90625 41.09375 27.703125 42.09375 
Q 26.5 43.09375 23.796875 43.09375 
Q 17.703125 43.09375 13.953125 38.296875 
Q 10.203125 33.5 10.203125 25.703125 
Q 10.203125 17.09375 14.5 11.640625 
Q 18.796875 6.203125 25.703125 6.203125 
Q 30 6.203125 33.09375 8.25 
Q 36.203125 10.296875 39.796875 15.59375 
z
" id="STIXGeneral-Regular-99"/>
     <path d="M 48.5 0 
L 27.703125 0 
L 27.796875 1.5 
Q 31.5 1.796875 32.75 3.640625 
Q 34 5.5 34 10.5 
L 34 30.40625 
Q 34 40.5 26.703125 40.5 
Q 24.203125 40.5 22 39.296875 
Q 19.796875 38.09375 16.40625 34.796875 
L 16.40625 7.203125 
Q 16.40625 4.203125 17.75 3 
Q 19.09375 1.796875 22.90625 1.5 
L 22.90625 0 
L 1.796875 0 
L 1.796875 1.5 
Q 5.59375 1.796875 6.796875 3.34375 
Q 8 4.90625 8 9.40625 
L 8 33.703125 
Q 8 37.40625 7.296875 38.796875 
Q 6.59375 40.203125 4.5 40.203125 
Q 2.5 40.203125 1.59375 39.796875 
L 1.59375 41.5 
Q 8.59375 43.5 15.296875 46 
L 16.09375 45.703125 
L 16.09375 37.90625 
L 16.203125 37.90625 
Q 23.296875 46 30.59375 46 
Q 36.296875 46 39.34375 42 
Q 42.40625 38 42.40625 30.59375 
L 42.40625 8.5 
Q 42.40625 4.5 43.59375 3.203125 
Q 44.796875 1.90625 48.5 1.5 
z
" id="STIXGeneral-Regular-110"/>
     <path d="M 26.59375 7.703125 
L 27.90625 6.59375 
Q 23.09375 -1 15.796875 -1 
Q 7 -1 7 11.703125 
L 7 41.796875 
L 1.703125 41.796875 
Q 1.296875 42.09375 1.296875 42.5 
Q 1.296875 43.296875 3 44.40625 
Q 6.796875 46.59375 12.703125 55.09375 
Q 12.90625 55.40625 13.65625 56.34375 
Q 14.40625 57.296875 14.703125 57.90625 
Q 15.40625 57.90625 15.40625 56.59375 
L 15.40625 45 
L 25.5 45 
L 25.5 41.796875 
L 15.40625 41.796875 
L 15.40625 13.203125 
Q 15.40625 8.40625 16.59375 6.296875 
Q 17.796875 4.203125 20.59375 4.203125 
Q 23.59375 4.203125 26.59375 7.703125 
z
" id="STIXGeneral-Regular-116"/>
     <path id="STIXGeneral-Regular-32"/>
     <path d="M 69.40625 45 
L 69.40625 43.5 
Q 67.90625 43 67.203125 42.046875 
Q 66.5 41.09375 65.296875 38.09375 
L 51.5 3.5 
Q 49.5 -1.40625 48.703125 -1.40625 
Q 48.203125 -1.40625 47.84375 -0.75 
Q 47.5 -0.09375 46.296875 2.90625 
L 37.203125 26.5 
L 26 2.5 
Q 24.203125 -1.40625 23.5 -1.40625 
Q 22.59375 -1.40625 20.90625 3 
L 7.40625 37.203125 
Q 5.90625 41.09375 4.90625 42.1875 
Q 3.90625 43.296875 2.09375 43.5 
L 2.09375 45 
L 20.09375 45 
L 20.09375 43.5 
Q 17.5 43.203125 16.5 42.5 
Q 15.5 41.796875 15.5 40.203125 
Q 15.5 38.703125 16.09375 37.203125 
L 26 11.09375 
L 35.09375 31 
L 33.09375 36.59375 
Q 31.703125 40.59375 30.34375 41.890625 
Q 29 43.203125 26.203125 43.5 
L 26.203125 45 
L 46.5 45 
L 46.5 43.5 
Q 43 43 41.84375 42.296875 
Q 40.703125 41.59375 40.703125 40 
Q 40.703125 38.40625 42.40625 34 
L 50.796875 11.59375 
L 59.796875 33.796875 
Q 61.5 38 61.5 40.5 
Q 61.5 41.703125 60.546875 42.34375 
Q 59.59375 43 57.09375 43.5 
L 57.09375 45 
z
" id="STIXGeneral-Regular-119"/>
     <path d="M 18 63.203125 
Q 18 61 16.5 59.546875 
Q 15 58.09375 12.796875 58.09375 
Q 10.703125 58.09375 9.25 59.546875 
Q 7.796875 61 7.796875 63.203125 
Q 7.796875 65.296875 9.296875 66.796875 
Q 10.796875 68.296875 12.90625 68.296875 
Q 15.09375 68.296875 16.546875 66.796875 
Q 18 65.296875 18 63.203125 
z
M 25.296875 0 
L 1.59375 0 
L 1.59375 1.5 
Q 6.796875 1.796875 8.140625 3.296875 
Q 9.5 4.796875 9.5 10.40625 
L 9.5 33.09375 
Q 9.5 36.59375 8.796875 38 
Q 8.09375 39.40625 6.203125 39.40625 
Q 3.796875 39.40625 2 38.90625 
L 2 40.5 
L 17.5 46 
L 17.90625 45.59375 
L 17.90625 10.5 
Q 17.90625 4.90625 19.15625 3.40625 
Q 20.40625 1.90625 25.296875 1.5 
z
" id="STIXGeneral-Regular-105"/>
     <path d="M 48.703125 0 
L 27.5 0 
L 27.5 1.5 
Q 31.90625 2 33.09375 3.5 
Q 34.296875 5 34.296875 10.203125 
L 34.296875 30 
Q 34.296875 40.59375 26.90625 40.59375 
Q 23.90625 40.59375 21.40625 39.1875 
Q 18.90625 37.796875 15.703125 34.296875 
L 15.703125 10.203125 
Q 15.703125 5 16.890625 3.5 
Q 18.09375 2 22.5 1.5 
L 22.5 0 
L 0.90625 0 
L 0.90625 1.5 
Q 5.203125 2.09375 6.25 3.5 
Q 7.296875 4.90625 7.296875 10.203125 
L 7.296875 57.296875 
Q 7.296875 60.5 6.34375 61.453125 
Q 5.40625 62.40625 2.203125 62.40625 
Q 1.296875 62.40625 1 62.296875 
L 1 63.90625 
L 3.703125 64.703125 
Q 11.40625 67 15.203125 68.296875 
L 15.703125 68 
L 15.703125 37.59375 
Q 19.203125 42.09375 22.59375 44.046875 
Q 26 46 30.40625 46 
Q 42.703125 46 42.703125 30.09375 
L 42.703125 10.203125 
Q 42.703125 5 43.640625 3.640625 
Q 44.59375 2.296875 48.703125 1.5 
z
" id="STIXGeneral-Regular-104"/>
     <path d="M 47 23.09375 
Q 47 12.59375 40.75 5.796875 
Q 34.5 -1 24.5 -1 
Q 15.296875 -1 9.09375 5.75 
Q 2.90625 12.5 2.90625 22.796875 
Q 2.90625 33.203125 9.09375 39.59375 
Q 15.296875 46 25.40625 46 
Q 34.703125 46 40.84375 39.640625 
Q 47 33.296875 47 23.09375 
z
M 38 20.40625 
Q 38 31.796875 33 38.203125 
Q 29 43.203125 23.5 43.203125 
Q 18.296875 43.203125 15.09375 38.953125 
Q 11.90625 34.703125 11.90625 27.296875 
Q 11.90625 14.5 17.203125 6.796875 
Q 20.59375 1.796875 26.203125 1.796875 
Q 31.703125 1.796875 34.84375 6.75 
Q 38 11.703125 38 20.40625 
z
" id="STIXGeneral-Regular-111"/>
     <path d="M 16 45.796875 
L 16 36.59375 
Q 19.796875 42 22.34375 44 
Q 24.90625 46 28 46 
Q 30.59375 46 32.046875 44.59375 
Q 33.5 43.203125 33.5 40.703125 
Q 33.5 38.59375 32.453125 37.390625 
Q 31.40625 36.203125 29.59375 36.203125 
Q 27.703125 36.203125 25.59375 38.203125 
Q 24 39.703125 23 39.703125 
Q 20.90625 39.703125 18.453125 36.796875 
Q 16 33.90625 16 31.5 
L 16 9 
Q 16 4.703125 17.703125 3.203125 
Q 19.40625 1.703125 24.5 1.5 
L 24.5 0 
L 0.5 0 
L 0.5 1.5 
Q 5.296875 2.40625 6.4375 3.5 
Q 7.59375 4.59375 7.59375 8.40625 
L 7.59375 33.40625 
Q 7.59375 36.703125 6.84375 38.046875 
Q 6.09375 39.40625 4.203125 39.40625 
Q 2.59375 39.40625 0.703125 39 
L 0.703125 40.59375 
Q 7 42.59375 15.5 46 
z
" id="STIXGeneral-Regular-114"/>
     <path d="M 47 38.796875 
L 38.703125 38.796875 
Q 40.59375 34.5 40.59375 30.40625 
Q 40.59375 22.703125 35.390625 18.796875 
Q 30.203125 14.90625 25 14.90625 
Q 23.90625 14.90625 21.203125 15.203125 
L 19.296875 15.40625 
Q 17.296875 14.796875 15.296875 12.6875 
Q 13.296875 10.59375 13.296875 9.09375 
Q 13.296875 6.796875 21.09375 6.40625 
L 34 5.796875 
Q 39.5 5.59375 42.796875 2.6875 
Q 46.09375 -0.203125 46.09375 -4.90625 
Q 46.09375 -10.703125 40.09375 -15.40625 
Q 31.796875 -21.796875 20.09375 -21.796875 
Q 12.90625 -21.796875 7.84375 -18.9375 
Q 2.796875 -16.09375 2.796875 -12.09375 
Q 2.796875 -9.296875 5 -6.546875 
Q 7.203125 -3.796875 12.59375 0.09375 
Q 9.40625 1.59375 8.34375 2.6875 
Q 7.296875 3.796875 7.296875 5.40625 
Q 7.296875 8.296875 11.90625 12.296875 
Q 14.203125 14.296875 16.203125 16.296875 
Q 11.203125 18.796875 9.046875 21.890625 
Q 6.90625 25 6.90625 29.703125 
Q 6.90625 36.5 11.75 41.25 
Q 16.59375 46 23.59375 46 
Q 27.59375 46 31.59375 44.5 
L 33.796875 43.703125 
Q 36.703125 42.703125 39.296875 42.703125 
L 47 42.703125 
z
M 15.203125 33.796875 
L 15.203125 33.5 
Q 15.203125 26.296875 18.046875 21.84375 
Q 20.90625 17.40625 25.5 17.40625 
Q 28.90625 17.40625 30.90625 19.84375 
Q 32.90625 22.296875 32.90625 26.40625 
Q 32.90625 33 29.90625 38.5 
Q 27.40625 43.203125 22.59375 43.203125 
Q 19.09375 43.203125 17.140625 40.703125 
Q 15.203125 38.203125 15.203125 33.796875 
z
M 43.296875 -6.40625 
Q 43.296875 -3.59375 40.546875 -2.546875 
Q 37.796875 -1.5 30.90625 -1.5 
Q 21 -1.5 14.703125 -0.203125 
Q 11.703125 -3.796875 10.75 -5.4375 
Q 9.796875 -7.09375 9.796875 -8.796875 
Q 9.796875 -12.09375 13.75 -14.09375 
Q 17.703125 -16.09375 24.296875 -16.09375 
Q 32.796875 -16.09375 38.046875 -13.4375 
Q 43.296875 -10.796875 43.296875 -6.40625 
z
" id="STIXGeneral-Regular-103"/>
     <path d="M 44.203125 6.59375 
L 44.203125 3.796875 
Q 40.40625 -1 35.203125 -1 
Q 29.5 -1 28.796875 6.296875 
L 28.703125 6.296875 
Q 22.296875 -1 14.203125 -1 
Q 9.5 -1 6.59375 1.75 
Q 3.703125 4.5 3.703125 9.40625 
Q 3.703125 16.40625 10.703125 21.09375 
Q 15.5 24.296875 28.703125 29.203125 
L 28.703125 34.59375 
Q 28.703125 39.09375 26.546875 41.34375 
Q 24.40625 43.59375 20.90625 43.59375 
Q 17.90625 43.59375 15.90625 42.140625 
Q 13.90625 40.703125 13.90625 38.703125 
Q 13.90625 37.796875 14.203125 36.6875 
Q 14.5 35.59375 14.5 34.5 
Q 14.5 33 13.140625 31.703125 
Q 11.796875 30.40625 9.90625 30.40625 
Q 8.203125 30.40625 6.890625 31.703125 
Q 5.59375 33 5.59375 35 
Q 5.59375 39.796875 10.703125 43 
Q 15.40625 46 22.203125 46 
Q 30.296875 46 34 41.5 
Q 35.796875 39.40625 36.296875 37.25 
Q 36.796875 35.09375 36.796875 30.40625 
L 36.796875 11.296875 
Q 36.796875 4.703125 39.90625 4.703125 
Q 41.90625 4.703125 44.203125 6.59375 
z
M 28.703125 12.703125 
L 28.703125 26.796875 
Q 19.5 23.59375 15.90625 20.203125 
Q 12.5 17.09375 12.5 12.5 
Q 12.5 8.703125 14.390625 6.75 
Q 16.296875 4.796875 19.40625 4.796875 
Q 22.703125 4.796875 25.203125 6.40625 
Q 27.296875 7.90625 28 9.203125 
Q 28.703125 10.5 28.703125 12.703125 
z
" id="STIXGeneral-Regular-97"/>
     <path d="M 25.703125 0 
L 2.09375 0 
L 2.09375 1.5 
Q 6.796875 1.90625 8.296875 3.453125 
Q 9.796875 5 9.796875 9.203125 
L 9.796875 56.09375 
Q 9.796875 59.703125 8.890625 61.09375 
Q 8 62.5 5.59375 62.5 
Q 3.5 62.5 1.90625 62.296875 
L 1.90625 63.90625 
Q 11.40625 66.203125 17.703125 68.296875 
L 18.203125 67.90625 
L 18.203125 8.703125 
Q 18.203125 4.5 19.59375 3.140625 
Q 21 1.796875 25.703125 1.5 
z
" id="STIXGeneral-Regular-108"/>
     <path d="M 49.09375 4.203125 
L 34.40625 -1 
L 34 -0.703125 
L 34 5.703125 
Q 29.203125 -1 21.203125 -1 
Q 12.90625 -1 7.796875 4.953125 
Q 2.703125 10.90625 2.703125 20.5 
Q 2.703125 31.09375 8.796875 38.546875 
Q 14.90625 46 23.5 46 
Q 28.90625 46 34 41.703125 
L 34 57.296875 
Q 34 60.40625 33.09375 61.40625 
Q 32.203125 62.40625 29.40625 62.40625 
Q 28 62.40625 27.203125 62.296875 
L 27.203125 63.90625 
Q 36.296875 66.296875 41.90625 68.296875 
L 42.40625 68.09375 
L 42.40625 11.40625 
Q 42.40625 7.90625 43.25 6.796875 
Q 44.09375 5.703125 46.796875 5.703125 
Q 47.40625 5.703125 49.09375 5.796875 
z
M 34 10.203125 
L 34 33.203125 
Q 34 37.203125 30.953125 40.203125 
Q 27.90625 43.203125 23.796875 43.203125 
Q 18.09375 43.203125 14.6875 38.09375 
Q 11.296875 33 11.296875 24.5 
Q 11.296875 15.296875 15.046875 9.75 
Q 18.796875 4.203125 25.09375 4.203125 
Q 29.796875 4.203125 32.5 7.40625 
Q 34 9.09375 34 10.203125 
z
" id="STIXGeneral-Regular-100"/>
    </defs>
    <g transform="translate(116.175781 19.493437)scale(0.18 -0.18)">
     <use xlink:href="#STIXGeneral-Regular-68"/>
     <use x="72.199982" xlink:href="#STIXGeneral-Regular-101"/>
     <use x="116.599976" xlink:href="#STIXGeneral-Regular-115"/>
     <use x="155.499969" xlink:href="#STIXGeneral-Regular-99"/>
     <use x="199.899963" xlink:href="#STIXGeneral-Regular-101"/>
     <use x="244.299957" xlink:href="#STIXGeneral-Regular-110"/>
     <use x="294.299942" xlink:href="#STIXGeneral-Regular-116"/>
     <use x="322.09993" xlink:href="#STIXGeneral-Regular-32"/>
     <use x="347.099915" xlink:href="#STIXGeneral-Regular-119"/>
     <use x="419.299896" xlink:href="#STIXGeneral-Regular-105"/>
     <use x="447.099884" xlink:href="#STIXGeneral-Regular-116"/>
     <use x="474.899872" xlink:href="#STIXGeneral-Regular-104"/>
     <use x="524.899857" xlink:href="#STIXGeneral-Regular-32"/>
     <use x="549.899841" xlink:href="#STIXGeneral-Regular-111"/>
     <use x="599.899826" xlink:href="#STIXGeneral-Regular-114"/>
     <use x="633.199814" xlink:href="#STIXGeneral-Regular-116"/>
     <use x="660.999802" xlink:href="#STIXGeneral-Regular-104"/>
     <use x="710.999786" xlink:href="#STIXGeneral-Regular-111"/>
     <use x="760.999771" xlink:href="#STIXGeneral-Regular-103"/>
     <use x="810.999756" xlink:href="#STIXGeneral-Regular-111"/>
     <use x="860.999741" xlink:href="#STIXGeneral-Regular-110"/>
     <use x="910.999725" xlink:href="#STIXGeneral-Regular-97"/>
     <use x="955.399719" xlink:href="#STIXGeneral-Regular-108"/>
     <use x="983.199707" xlink:href="#STIXGeneral-Regular-32"/>
     <use x="1008.199692" xlink:href="#STIXGeneral-Regular-115"/>
     <use x="1047.099686" xlink:href="#STIXGeneral-Regular-101"/>
     <use x="1091.49968" xlink:href="#STIXGeneral-Regular-97"/>
     <use x="1135.899673" xlink:href="#STIXGeneral-Regular-114"/>
     <use x="1169.199661" xlink:href="#STIXGeneral-Regular-99"/>
     <use x="1213.599655" xlink:href="#STIXGeneral-Regular-104"/>
     <use x="1263.59964" xlink:href="#STIXGeneral-Regular-32"/>
     <use x="1288.599625" xlink:href="#STIXGeneral-Regular-100"/>
     <use x="1338.599609" xlink:href="#STIXGeneral-Regular-105"/>
     <use x="1366.399597" xlink:href="#STIXGeneral-Regular-114"/>
     <use x="1399.699585" xlink:href="#STIXGeneral-Regular-101"/>
     <use x="1444.099579" xlink:href="#STIXGeneral-Regular-99"/>
     <use x="1488.499573" xlink:href="#STIXGeneral-Regular-116"/>
     <use x="1516.299561" xlink:href="#STIXGeneral-Regular-105"/>
     <use x="1544.099548" xlink:href="#STIXGeneral-Regular-111"/>
     <use x="1594.099533" xlink:href="#STIXGeneral-Regular-110"/>
     <use x="1644.099518" xlink:href="#STIXGeneral-Regular-115"/>
    </g>
   </g>
  </g>
 </g>
 <defs>
  <clipPath id="pd817d9f8c1">
   <rect height="217.44" width="446.4" x="44.45" y="25.493437"/>
  </clipPath>
 </defs>
</svg>
