<?xml version="1.0" encoding="utf-8" standalone="no"?>
<!DOCTYPE svg PUBLIC "-//W3C//DTD SVG 1.1//EN"
  "http://www.w3.org/Graphics/SVG/1.1/DTD/svg11.dtd">
<!-- Created with matplotlib (https://matplotlib.org/) -->
<svg height="232.1pt" version="1.1" viewBox="0 0 723.23 232.1" width="723.23pt" xmlns="http://www.w3.org/2000/svg" xmlns:xlink="http://www.w3.org/1999/xlink">
 <defs>
  <style type="text/css">
*{stroke-linecap:butt;stroke-linejoin:round;}
  </style>
 </defs>
 <g id="figure_1">
  <g id="patch_1">
   <path d="M 0 232.1 
L 723.23 232.1 
L 723.23 0 
L 0 0 
z
" style="fill:none;"/>
  </g>
  <g id="axes_1">
   <g id="patch_2">
    <path d="M 46.43 188.7 
L 716.03 188.7 
L 716.03 25.62 
L 46.43 25.62 
z
" style="fill:#ffffff;"/>
   </g>
   <g id="matplotlib.axis_1">
    <g id="xtick_1">
     <g id="line2d_1">
      <defs>
       <path d="M 0 0 
L 0 3.5 
" id="mb982a84369" style="stroke:#000000;stroke-width:0.8;"/>
      </defs>
      <g>
       <use style="stroke:#000000;stroke-width:0.8;" x="76.866364" xlink:href="#mb982a84369" y="188.7"/>
      </g>
     </g>
     <g id="text_1">
      <!-- 0 -->
      <defs>
       <path d="M 47.59375 33 
Q 47.59375 26.296875 46.296875 20.34375 
Q 45 14.40625 42.453125 9.40625 
Q 39.90625 4.40625 35.40625 1.5 
Q 30.90625 -1.40625 25 -1.40625 
Q 18.90625 -1.40625 14.296875 1.6875 
Q 9.703125 4.796875 7.203125 10 
Q 4.703125 15.203125 3.546875 21.09375 
Q 2.40625 27 2.40625 33.59375 
Q 2.40625 42.90625 4.703125 50.34375 
Q 7 57.796875 12.34375 62.6875 
Q 17.703125 67.59375 25.40625 67.59375 
Q 35.203125 67.59375 41.390625 58 
Q 47.59375 48.40625 47.59375 33 
z
M 38 32.5 
Q 38 48.296875 34.640625 56.640625 
Q 31.296875 65 24.796875 65 
Q 18.59375 65 15.296875 56.59375 
Q 12 48.203125 12 32.90625 
Q 12 17.5 15.296875 9.34375 
Q 18.59375 1.203125 25 1.203125 
Q 31.296875 1.203125 34.640625 9.34375 
Q 38 17.5 38 32.5 
z
" id="STIXGeneral-Regular-48"/>
      </defs>
      <g transform="translate(74.366364 202.529687)scale(0.1 -0.1)">
       <use xlink:href="#STIXGeneral-Regular-48"/>
      </g>
     </g>
    </g>
    <g id="xtick_2">
     <g id="line2d_2">
      <g>
       <use style="stroke:#000000;stroke-width:0.8;" x="229.048182" xlink:href="#mb982a84369" y="188.7"/>
      </g>
     </g>
     <g id="text_2">
      <!-- 5 -->
      <defs>
       <path d="M 43.796875 68.09375 
L 40.203125 59.59375 
Q 39.59375 58.296875 37.5 58.296875 
L 18.09375 58.296875 
L 14.09375 49.796875 
Q 25.09375 47.703125 30 45.25 
Q 34.90625 42.796875 39.09375 37 
Q 42.59375 32.203125 42.59375 24.296875 
Q 42.59375 17.09375 40.25 12.1875 
Q 37.90625 7.296875 32.796875 3.5 
Q 26 -1.40625 15.796875 -1.40625 
Q 10.09375 -1.40625 6.59375 0.296875 
Q 3.09375 2 3.09375 4.796875 
Q 3.09375 8.59375 7.59375 8.59375 
Q 11.203125 8.59375 15 5.5 
Q 18.90625 2.296875 22.09375 2.296875 
Q 27.296875 2.296875 31.4375 7.5 
Q 35.59375 12.703125 35.59375 19.203125 
Q 35.59375 28.796875 28.90625 34.203125 
Q 20.203125 41.203125 7.59375 41.203125 
Q 6.40625 41.203125 6.40625 42 
L 6.5 42.5 
L 17.40625 66.203125 
L 38.09375 66.203125 
Q 39.796875 66.203125 40.75 66.703125 
Q 41.703125 67.203125 42.90625 68.796875 
z
" id="STIXGeneral-Regular-53"/>
      </defs>
      <g transform="translate(226.548182 202.529687)scale(0.1 -0.1)">
       <use xlink:href="#STIXGeneral-Regular-53"/>
      </g>
     </g>
    </g>
    <g id="xtick_3">
     <g id="line2d_3">
      <g>
       <use style="stroke:#000000;stroke-width:0.8;" x="381.23" xlink:href="#mb982a84369" y="188.7"/>
      </g>
     </g>
     <g id="text_3">
      <!-- 10 -->
      <defs>
       <path d="M 39.40625 0 
L 11.796875 0 
L 11.796875 1.5 
Q 17.296875 1.796875 19.296875 3.546875 
Q 21.296875 5.296875 21.296875 9.5 
L 21.296875 54.40625 
Q 21.296875 59.296875 18.296875 59.296875 
Q 16.90625 59.296875 13.796875 58.09375 
L 11.09375 57.09375 
L 11.09375 58.5 
L 29 67.59375 
L 29.90625 67.296875 
L 29.90625 7.59375 
Q 29.90625 4.296875 31.90625 2.890625 
Q 33.90625 1.5 39.40625 1.5 
z
" id="STIXGeneral-Regular-49"/>
      </defs>
      <g transform="translate(376.23 202.529687)scale(0.1 -0.1)">
       <use xlink:href="#STIXGeneral-Regular-49"/>
       <use x="49.999985" xlink:href="#STIXGeneral-Regular-48"/>
      </g>
     </g>
    </g>
    <g id="xtick_4">
     <g id="line2d_4">
      <g>
       <use style="stroke:#000000;stroke-width:0.8;" x="533.411818" xlink:href="#mb982a84369" y="188.7"/>
      </g>
     </g>
     <g id="text_4">
      <!-- 15 -->
      <g transform="translate(528.411818 202.529687)scale(0.1 -0.1)">
       <use xlink:href="#STIXGeneral-Regular-49"/>
       <use x="49.999985" xlink:href="#STIXGeneral-Regular-53"/>
      </g>
     </g>
    </g>
    <g id="xtick_5">
     <g id="line2d_5">
      <g>
       <use style="stroke:#000000;stroke-width:0.8;" x="685.593636" xlink:href="#mb982a84369" y="188.7"/>
      </g>
     </g>
     <g id="text_5">
      <!-- 20 -->
      <defs>
       <path d="M 47.40625 13.703125 
L 42 0 
L 2.90625 0 
L 2.90625 1.203125 
L 20.703125 20.09375 
Q 27.703125 27.40625 30.703125 33.5 
Q 33.703125 39.59375 33.703125 46.09375 
Q 33.703125 52.796875 30 56.5 
Q 26.296875 60.203125 19.796875 60.203125 
Q 14.40625 60.203125 11.25 57.390625 
Q 8.09375 54.59375 5.09375 47.203125 
L 3 47.703125 
Q 4.703125 57 9.84375 62.296875 
Q 15 67.59375 23.796875 67.59375 
Q 32.09375 67.59375 37.1875 62.59375 
Q 42.296875 57.59375 42.296875 50 
Q 42.296875 38.703125 29.5 25.203125 
L 13 7.59375 
L 36.40625 7.59375 
Q 39.703125 7.59375 41.640625 8.890625 
Q 43.59375 10.203125 46 14.296875 
z
" id="STIXGeneral-Regular-50"/>
      </defs>
      <g transform="translate(680.593636 202.529687)scale(0.1 -0.1)">
       <use xlink:href="#STIXGeneral-Regular-50"/>
       <use x="49.999985" xlink:href="#STIXGeneral-Regular-48"/>
      </g>
     </g>
    </g>
    <g id="text_6">
     <!-- Optimisation step -->
     <defs>
      <path d="M 68.796875 33.09375 
Q 68.796875 17.703125 59.6875 8.140625 
Q 50.59375 -1.40625 36.09375 -1.40625 
Q 21.5 -1.40625 12.453125 8.1875 
Q 3.40625 17.796875 3.40625 33.40625 
Q 3.40625 48.59375 12.453125 58.09375 
Q 21.5 67.59375 36.09375 67.59375 
Q 50.703125 67.59375 59.75 57.84375 
Q 68.796875 48.09375 68.796875 33.09375 
z
M 57.40625 33.703125 
Q 57.40625 42.203125 55 48.953125 
Q 52.59375 55.703125 48.296875 59.296875 
Q 42.703125 64 36 64 
Q 27.5 64 21.703125 57.296875 
Q 18.5 53.703125 16.640625 47.046875 
Q 14.796875 40.40625 14.796875 33.203125 
Q 14.796875 15 23.796875 6.703125 
Q 28.703125 2.203125 36.203125 2.203125 
Q 44 2.203125 49.09375 7 
Q 57.40625 15 57.40625 33.703125 
z
" id="STIXGeneral-Regular-79"/>
      <path d="M 15.90625 45.796875 
L 15.90625 38.09375 
Q 22.203125 46 30.296875 46 
Q 37.59375 46 42.296875 40 
Q 47 34 47 24.703125 
Q 47 13.796875 40.953125 6.390625 
Q 34.90625 -1 26 -1 
Q 22.90625 -1 20.75 -0.09375 
Q 18.59375 0.796875 15.90625 3.296875 
L 15.90625 -12.40625 
Q 15.90625 -17.09375 17.5 -18.4375 
Q 19.09375 -19.796875 24.703125 -19.90625 
L 24.703125 -21.703125 
L 0.5 -21.703125 
L 0.5 -20 
Q 4.90625 -19.59375 6.203125 -18.296875 
Q 7.5 -17 7.5 -13.09375 
L 7.5 33.703125 
Q 7.5 37.203125 6.703125 38.296875 
Q 5.90625 39.40625 3.40625 39.40625 
Q 1.796875 39.40625 0.90625 39.296875 
L 0.90625 40.90625 
Q 7.90625 43 15.296875 46 
z
M 15.90625 33.40625 
L 15.90625 8.796875 
Q 15.90625 6.59375 19.34375 4.390625 
Q 22.796875 2.203125 26.296875 2.203125 
Q 31.703125 2.203125 35.046875 7.296875 
Q 38.40625 12.40625 38.40625 20.703125 
Q 38.40625 29.5 35.046875 34.75 
Q 31.703125 40 26.09375 40 
Q 22.59375 40 19.25 37.796875 
Q 15.90625 35.59375 15.90625 33.40625 
z
" id="STIXGeneral-Regular-112"/>
      <path d="M 26.59375 7.703125 
L 27.90625 6.59375 
Q 23.09375 -1 15.796875 -1 
Q 7 -1 7 11.703125 
L 7 41.796875 
L 1.703125 41.796875 
Q 1.296875 42.09375 1.296875 42.5 
Q 1.296875 43.296875 3 44.40625 
Q 6.796875 46.59375 12.703125 55.09375 
Q 12.90625 55.40625 13.65625 56.34375 
Q 14.40625 57.296875 14.703125 57.90625 
Q 15.40625 57.90625 15.40625 56.59375 
L 15.40625 45 
L 25.5 45 
L 25.5 41.796875 
L 15.40625 41.796875 
L 15.40625 13.203125 
Q 15.40625 8.40625 16.59375 6.296875 
Q 17.796875 4.203125 20.59375 4.203125 
Q 23.59375 4.203125 26.59375 7.703125 
z
" id="STIXGeneral-Regular-116"/>
      <path d="M 18 63.203125 
Q 18 61 16.5 59.546875 
Q 15 58.09375 12.796875 58.09375 
Q 10.703125 58.09375 9.25 59.546875 
Q 7.796875 61 7.796875 63.203125 
Q 7.796875 65.296875 9.296875 66.796875 
Q 10.796875 68.296875 12.90625 68.296875 
Q 15.09375 68.296875 16.546875 66.796875 
Q 18 65.296875 18 63.203125 
z
M 25.296875 0 
L 1.59375 0 
L 1.59375 1.5 
Q 6.796875 1.796875 8.140625 3.296875 
Q 9.5 4.796875 9.5 10.40625 
L 9.5 33.09375 
Q 9.5 36.59375 8.796875 38 
Q 8.09375 39.40625 6.203125 39.40625 
Q 3.796875 39.40625 2 38.90625 
L 2 40.5 
L 17.5 46 
L 17.90625 45.59375 
L 17.90625 10.5 
Q 17.90625 4.90625 19.15625 3.40625 
Q 20.40625 1.90625 25.296875 1.5 
z
" id="STIXGeneral-Regular-105"/>
      <path d="M 77.5 0 
L 55.703125 0 
L 55.703125 1.5 
Q 59.90625 1.90625 61.046875 3.25 
Q 62.203125 4.59375 62.203125 9 
L 62.203125 29.59375 
Q 62.203125 35.59375 60.453125 38.1875 
Q 58.703125 40.796875 54.5 40.796875 
Q 51 40.796875 48.546875 39.390625 
Q 46.09375 38 43.796875 34.703125 
L 43.796875 9.5 
Q 43.796875 4.703125 45.25 3.140625 
Q 46.703125 1.59375 51 1.5 
L 51 0 
L 28.59375 0 
L 28.59375 1.5 
Q 33 1.796875 34.203125 2.9375 
Q 35.40625 4.09375 35.40625 8.59375 
L 35.40625 29.703125 
Q 35.40625 40.796875 28.90625 40.796875 
Q 26.09375 40.796875 22.9375 39.546875 
Q 19.796875 38.296875 18.296875 36.5 
Q 17 35 17 34.796875 
L 17 7 
Q 17 3.796875 18.390625 2.75 
Q 19.796875 1.703125 23.796875 1.5 
L 23.796875 0 
L 1.59375 0 
L 1.59375 1.5 
Q 5.796875 1.59375 7.1875 3.046875 
Q 8.59375 4.5 8.59375 8.796875 
L 8.59375 33.59375 
Q 8.59375 37.296875 7.796875 38.75 
Q 7 40.203125 5.09375 40.203125 
Q 3.59375 40.203125 1.90625 39.796875 
L 1.90625 41.5 
Q 8.703125 43.40625 15.796875 46 
L 16.59375 45.703125 
L 16.59375 38.296875 
L 16.796875 38.296875 
Q 21.296875 43 24.75 44.5 
Q 28.203125 46 32.09375 46 
Q 40 46 42.703125 37.59375 
Q 50.5 46 59 46 
Q 70.59375 46 70.59375 28 
L 70.59375 7.703125 
Q 70.59375 4.40625 71.59375 3.15625 
Q 72.59375 1.90625 74.90625 1.703125 
L 77.5 1.5 
z
" id="STIXGeneral-Regular-109"/>
      <path d="M 15.59375 30.09375 
L 26 23.796875 
Q 31 20.796875 32.890625 18.1875 
Q 34.796875 15.59375 34.796875 11.5 
Q 34.796875 6.5 30.640625 2.75 
Q 26.5 -1 20.796875 -1 
Q 16.09375 -1 13.5 -0.09375 
Q 10.796875 0.796875 8.90625 0.796875 
Q 7.203125 0.796875 6.5 -0.40625 
L 5.203125 -0.40625 
L 5.203125 15.296875 
L 6.796875 15.296875 
Q 8.40625 8 11.40625 4.59375 
Q 14.40625 1.203125 19.5 1.203125 
Q 23.203125 1.203125 25.5 3.296875 
Q 27.796875 5.40625 27.796875 8.59375 
Q 27.796875 13.203125 22.5 16.09375 
L 17.09375 19.09375 
Q 5.09375 25.796875 5.09375 33.59375 
Q 5.09375 39.40625 8.84375 42.65625 
Q 12.59375 45.90625 18.90625 45.90625 
Q 23.296875 45.90625 25.59375 44.796875 
Q 27.40625 44 28.40625 44 
Q 29.09375 44 30 45 
L 31.09375 45 
L 31.59375 31.40625 
L 30.09375 31.40625 
Q 28.40625 38.203125 25.84375 40.953125 
Q 23.296875 43.703125 18.796875 43.703125 
Q 15.40625 43.703125 13.34375 42 
Q 11.296875 40.296875 11.296875 36.90625 
Q 11.296875 35.203125 12.4375 33.25 
Q 13.59375 31.296875 15.59375 30.09375 
z
" id="STIXGeneral-Regular-115"/>
      <path d="M 44.203125 6.59375 
L 44.203125 3.796875 
Q 40.40625 -1 35.203125 -1 
Q 29.5 -1 28.796875 6.296875 
L 28.703125 6.296875 
Q 22.296875 -1 14.203125 -1 
Q 9.5 -1 6.59375 1.75 
Q 3.703125 4.5 3.703125 9.40625 
Q 3.703125 16.40625 10.703125 21.09375 
Q 15.5 24.296875 28.703125 29.203125 
L 28.703125 34.59375 
Q 28.703125 39.09375 26.546875 41.34375 
Q 24.40625 43.59375 20.90625 43.59375 
Q 17.90625 43.59375 15.90625 42.140625 
Q 13.90625 40.703125 13.90625 38.703125 
Q 13.90625 37.796875 14.203125 36.6875 
Q 14.5 35.59375 14.5 34.5 
Q 14.5 33 13.140625 31.703125 
Q 11.796875 30.40625 9.90625 30.40625 
Q 8.203125 30.40625 6.890625 31.703125 
Q 5.59375 33 5.59375 35 
Q 5.59375 39.796875 10.703125 43 
Q 15.40625 46 22.203125 46 
Q 30.296875 46 34 41.5 
Q 35.796875 39.40625 36.296875 37.25 
Q 36.796875 35.09375 36.796875 30.40625 
L 36.796875 11.296875 
Q 36.796875 4.703125 39.90625 4.703125 
Q 41.90625 4.703125 44.203125 6.59375 
z
M 28.703125 12.703125 
L 28.703125 26.796875 
Q 19.5 23.59375 15.90625 20.203125 
Q 12.5 17.09375 12.5 12.5 
Q 12.5 8.703125 14.390625 6.75 
Q 16.296875 4.796875 19.40625 4.796875 
Q 22.703125 4.796875 25.203125 6.40625 
Q 27.296875 7.90625 28 9.203125 
Q 28.703125 10.5 28.703125 12.703125 
z
" id="STIXGeneral-Regular-97"/>
      <path d="M 47 23.09375 
Q 47 12.59375 40.75 5.796875 
Q 34.5 -1 24.5 -1 
Q 15.296875 -1 9.09375 5.75 
Q 2.90625 12.5 2.90625 22.796875 
Q 2.90625 33.203125 9.09375 39.59375 
Q 15.296875 46 25.40625 46 
Q 34.703125 46 40.84375 39.640625 
Q 47 33.296875 47 23.09375 
z
M 38 20.40625 
Q 38 31.796875 33 38.203125 
Q 29 43.203125 23.5 43.203125 
Q 18.296875 43.203125 15.09375 38.953125 
Q 11.90625 34.703125 11.90625 27.296875 
Q 11.90625 14.5 17.203125 6.796875 
Q 20.59375 1.796875 26.203125 1.796875 
Q 31.703125 1.796875 34.84375 6.75 
Q 38 11.703125 38 20.40625 
z
" id="STIXGeneral-Regular-111"/>
      <path d="M 48.5 0 
L 27.703125 0 
L 27.796875 1.5 
Q 31.5 1.796875 32.75 3.640625 
Q 34 5.5 34 10.5 
L 34 30.40625 
Q 34 40.5 26.703125 40.5 
Q 24.203125 40.5 22 39.296875 
Q 19.796875 38.09375 16.40625 34.796875 
L 16.40625 7.203125 
Q 16.40625 4.203125 17.75 3 
Q 19.09375 1.796875 22.90625 1.5 
L 22.90625 0 
L 1.796875 0 
L 1.796875 1.5 
Q 5.59375 1.796875 6.796875 3.34375 
Q 8 4.90625 8 9.40625 
L 8 33.703125 
Q 8 37.40625 7.296875 38.796875 
Q 6.59375 40.203125 4.5 40.203125 
Q 2.5 40.203125 1.59375 39.796875 
L 1.59375 41.5 
Q 8.59375 43.5 15.296875 46 
L 16.09375 45.703125 
L 16.09375 37.90625 
L 16.203125 37.90625 
Q 23.296875 46 30.59375 46 
Q 36.296875 46 39.34375 42 
Q 42.40625 38 42.40625 30.59375 
L 42.40625 8.5 
Q 42.40625 4.5 43.59375 3.203125 
Q 44.796875 1.90625 48.5 1.5 
z
" id="STIXGeneral-Regular-110"/>
      <path id="STIXGeneral-Regular-32"/>
      <path d="M 40.796875 16.40625 
L 42.40625 15.703125 
Q 36.40625 -1 21.5 -1 
Q 12.703125 -1 7.59375 5.140625 
Q 2.5 11.296875 2.5 21.703125 
Q 2.5 32.40625 8.203125 39.203125 
Q 13.90625 46 23.203125 46 
Q 32.203125 46 37.09375 39.09375 
Q 40 35.09375 40.5 27.703125 
L 9.703125 27.703125 
Q 10.09375 21.40625 10.9375 18.09375 
Q 11.796875 14.796875 14.296875 11.40625 
Q 18.5 5.90625 25.40625 5.90625 
Q 30.296875 5.90625 33.640625 8.296875 
Q 37 10.703125 40.796875 16.40625 
z
M 9.90625 30.90625 
L 30.296875 30.90625 
Q 29.40625 37.203125 27.34375 39.796875 
Q 25.296875 42.40625 20.5 42.40625 
Q 16.296875 42.40625 13.5 39.453125 
Q 10.703125 36.5 9.90625 30.90625 
z
" id="STIXGeneral-Regular-101"/>
     </defs>
     <g transform="translate(317.473438 220.993437)scale(0.18 -0.18)">
      <use xlink:href="#STIXGeneral-Regular-79"/>
      <use x="72.199982" xlink:href="#STIXGeneral-Regular-112"/>
      <use x="122.199966" xlink:href="#STIXGeneral-Regular-116"/>
      <use x="149.999954" xlink:href="#STIXGeneral-Regular-105"/>
      <use x="177.799942" xlink:href="#STIXGeneral-Regular-109"/>
      <use x="255.59993" xlink:href="#STIXGeneral-Regular-105"/>
      <use x="283.399918" xlink:href="#STIXGeneral-Regular-115"/>
      <use x="322.299911" xlink:href="#STIXGeneral-Regular-97"/>
      <use x="366.699905" xlink:href="#STIXGeneral-Regular-116"/>
      <use x="394.499893" xlink:href="#STIXGeneral-Regular-105"/>
      <use x="422.299881" xlink:href="#STIXGeneral-Regular-111"/>
      <use x="472.299866" xlink:href="#STIXGeneral-Regular-110"/>
      <use x="522.29985" xlink:href="#STIXGeneral-Regular-32"/>
      <use x="547.299835" xlink:href="#STIXGeneral-Regular-115"/>
      <use x="586.199829" xlink:href="#STIXGeneral-Regular-116"/>
      <use x="613.999817" xlink:href="#STIXGeneral-Regular-101"/>
      <use x="658.399811" xlink:href="#STIXGeneral-Regular-112"/>
     </g>
    </g>
   </g>
   <g id="matplotlib.axis_2">
    <g id="ytick_1">
     <g id="line2d_6">
      <defs>
       <path d="M 0 0 
L -3.5 0 
" id="m9dafa444c9" style="stroke:#000000;stroke-width:0.8;"/>
      </defs>
      <g>
       <use style="stroke:#000000;stroke-width:0.8;" x="46.43" xlink:href="#m9dafa444c9" y="32.781588"/>
      </g>
     </g>
     <g id="text_7">
      <!-- 0 -->
      <g transform="translate(34.43 36.196432)scale(0.1 -0.1)">
       <use xlink:href="#STIXGeneral-Regular-48"/>
      </g>
     </g>
    </g>
    <g id="ytick_2">
     <g id="line2d_7">
      <g>
       <use style="stroke:#000000;stroke-width:0.8;" x="46.43" xlink:href="#m9dafa444c9" y="71.761191"/>
      </g>
     </g>
     <g id="text_8">
      <!-- −1 -->
      <defs>
       <path d="M 62.09375 22 
L 6.40625 22 
L 6.40625 28.59375 
L 62.09375 28.59375 
z
" id="STIXGeneral-Regular-8722"/>
      </defs>
      <g transform="translate(27.58 75.176035)scale(0.1 -0.1)">
       <use xlink:href="#STIXGeneral-Regular-8722"/>
       <use x="68.499985" xlink:href="#STIXGeneral-Regular-49"/>
      </g>
     </g>
    </g>
    <g id="ytick_3">
     <g id="line2d_8">
      <g>
       <use style="stroke:#000000;stroke-width:0.8;" x="46.43" xlink:href="#m9dafa444c9" y="110.740794"/>
      </g>
     </g>
     <g id="text_9">
      <!-- −2 -->
      <g transform="translate(27.58 114.155638)scale(0.1 -0.1)">
       <use xlink:href="#STIXGeneral-Regular-8722"/>
       <use x="68.499985" xlink:href="#STIXGeneral-Regular-50"/>
      </g>
     </g>
    </g>
    <g id="ytick_4">
     <g id="line2d_9">
      <g>
       <use style="stroke:#000000;stroke-width:0.8;" x="46.43" xlink:href="#m9dafa444c9" y="149.720397"/>
      </g>
     </g>
     <g id="text_10">
      <!-- −3 -->
      <defs>
       <path d="M 6.09375 51 
L 4.5 51.40625 
Q 6.796875 58.90625 11.6875 63.25 
Q 16.59375 67.59375 24.09375 67.59375 
Q 31.09375 67.59375 35.390625 63.796875 
Q 39.703125 60 39.703125 53.90625 
Q 39.703125 45.703125 30.40625 40.09375 
Q 35.90625 37.703125 38.703125 34.796875 
Q 43.09375 29.90625 43.09375 21.90625 
Q 43.09375 13.90625 38.5 7.90625 
Q 35.09375 3.296875 28.75 0.9375 
Q 22.40625 -1.40625 15.296875 -1.40625 
Q 4.09375 -1.40625 4.09375 4.296875 
Q 4.09375 5.90625 5.296875 6.90625 
Q 6.5 7.90625 8.203125 7.90625 
Q 10.703125 7.90625 14.296875 5.296875 
Q 18.703125 2.203125 22.90625 2.203125 
Q 28.40625 2.203125 32.15625 6.640625 
Q 35.90625 11.09375 35.90625 17.5 
Q 35.90625 29 25.5 32 
Q 22.40625 33 15.296875 33 
L 15.296875 34.40625 
Q 20.90625 36.296875 23.703125 38 
Q 31.796875 42.59375 31.796875 51.40625 
Q 31.796875 56.40625 28.9375 59 
Q 26.09375 61.59375 21 61.59375 
Q 12 61.59375 6.09375 51 
z
" id="STIXGeneral-Regular-51"/>
      </defs>
      <g transform="translate(27.58 153.135241)scale(0.1 -0.1)">
       <use xlink:href="#STIXGeneral-Regular-8722"/>
       <use x="68.499985" xlink:href="#STIXGeneral-Regular-51"/>
      </g>
     </g>
    </g>
    <g id="ytick_5">
     <g id="line2d_10">
      <g>
       <use style="stroke:#000000;stroke-width:0.8;" x="46.43" xlink:href="#m9dafa444c9" y="188.7"/>
      </g>
     </g>
     <g id="text_11">
      <!-- −4 -->
      <defs>
       <path d="M 47.296875 16.703125 
L 37 16.703125 
L 37 0 
L 29.203125 0 
L 29.203125 16.703125 
L 1.203125 16.703125 
L 1.203125 23.09375 
L 32.59375 67.59375 
L 37 67.59375 
L 37 23.09375 
L 47.296875 23.09375 
z
M 29.203125 23.09375 
L 29.203125 57.40625 
L 5.203125 23.09375 
z
" id="STIXGeneral-Regular-52"/>
      </defs>
      <g transform="translate(27.58 192.114844)scale(0.1 -0.1)">
       <use xlink:href="#STIXGeneral-Regular-8722"/>
       <use x="68.499985" xlink:href="#STIXGeneral-Regular-52"/>
      </g>
     </g>
    </g>
    <g id="text_12">
     <!-- Objective $F$ -->
     <defs>
      <path d="M 15.296875 68.09375 
L 15.296875 37.59375 
Q 16.90625 41.40625 20.546875 43.703125 
Q 24.203125 46 28.796875 46 
Q 36.703125 46 41.75 39.703125 
Q 46.796875 33.40625 46.796875 24 
Q 46.796875 13 40.09375 6 
Q 33.40625 -1 23.40625 -1 
Q 17.296875 -1 12.09375 1.046875 
Q 6.90625 3.09375 6.90625 5.59375 
L 6.90625 56.59375 
Q 6.90625 60.296875 6 61.34375 
Q 5.09375 62.40625 2 62.40625 
Q 1.296875 62.40625 0.296875 62.203125 
L 0.296875 63.90625 
L 3.296875 64.796875 
Q 13.5 67.90625 14.796875 68.296875 
z
M 15.296875 31.796875 
L 15.296875 7.40625 
Q 15.296875 5.09375 18.140625 3.640625 
Q 21 2.203125 25 2.203125 
Q 30.90625 2.203125 34.296875 6.5 
Q 38 11.09375 38 19.703125 
Q 38 29.5 34.09375 35 
Q 30.796875 39.703125 25.203125 39.703125 
Q 21.203125 39.703125 18.25 37.34375 
Q 15.296875 35 15.296875 31.796875 
z
" id="STIXGeneral-Regular-98"/>
      <path d="M 19.40625 63.203125 
Q 19.40625 61 17.90625 59.546875 
Q 16.40625 58.09375 14.203125 58.09375 
Q 12.09375 58.09375 10.640625 59.546875 
Q 9.203125 61 9.203125 63.203125 
Q 9.203125 65.296875 10.703125 66.796875 
Q 12.203125 68.296875 14.296875 68.296875 
Q 16.40625 68.296875 17.90625 66.796875 
Q 19.40625 65.296875 19.40625 63.203125 
z
M 19.296875 45.703125 
L 19.296875 0 
Q 19.296875 -10.703125 14.9375 -16.25 
Q 10.59375 -21.796875 2.296875 -21.796875 
Q -1.796875 -21.796875 -4.390625 -20.25 
Q -7 -18.703125 -7 -16.296875 
Q -7 -14.703125 -5.796875 -13.546875 
Q -4.59375 -12.40625 -2.90625 -12.40625 
Q -0.59375 -12.40625 1.90625 -15.59375 
Q 4.203125 -18.40625 6.09375 -18.40625 
Q 8.40625 -18.40625 9.5 -16.59375 
Q 10.90625 -14.09375 10.90625 -4.5 
L 10.90625 33.40625 
Q 10.90625 39.40625 7.703125 39.40625 
Q 5.296875 39.40625 3.703125 39.09375 
L 3.203125 39 
L 3.203125 40.59375 
Q 11.203125 43.09375 18.796875 46 
z
" id="STIXGeneral-Regular-106"/>
      <path d="M 39.796875 15.59375 
L 41.203125 14.703125 
Q 36.90625 6.296875 33 3.203125 
Q 27.90625 -1 21.5 -1 
Q 13.203125 -1 7.84375 5.25 
Q 2.5 11.5 2.5 21.203125 
Q 2.5 33.90625 10.90625 40.90625 
Q 17.09375 46 24.40625 46 
Q 30.703125 46 35.25 42.953125 
Q 39.796875 39.90625 39.796875 35.703125 
Q 39.796875 34 38.390625 32.75 
Q 37 31.5 35.09375 31.5 
Q 31.59375 31.5 30.296875 36.09375 
L 29.703125 38.296875 
Q 28.90625 41.09375 27.703125 42.09375 
Q 26.5 43.09375 23.796875 43.09375 
Q 17.703125 43.09375 13.953125 38.296875 
Q 10.203125 33.5 10.203125 25.703125 
Q 10.203125 17.09375 14.5 11.640625 
Q 18.796875 6.203125 25.703125 6.203125 
Q 30 6.203125 33.09375 8.25 
Q 36.203125 10.296875 39.796875 15.59375 
z
" id="STIXGeneral-Regular-99"/>
      <path d="M 47.703125 45 
L 47.703125 43.5 
Q 45.40625 43.296875 44.296875 42 
Q 43.203125 40.703125 41.203125 35.703125 
L 28.40625 3.59375 
Q 26.40625 -1.40625 25.59375 -1.40625 
Q 24.796875 -1.40625 23.796875 1.203125 
Q 23.59375 1.5 23.390625 2.203125 
Q 23.203125 2.90625 23 3.296875 
L 11 32 
Q 7.796875 39.59375 6.296875 41.4375 
Q 4.796875 43.296875 1.90625 43.5 
L 1.90625 45 
L 21.5 45 
L 21.5 43.5 
Q 18.90625 43.296875 17.90625 42.6875 
Q 16.90625 42.09375 16.90625 40.796875 
Q 16.90625 39.203125 17.796875 37 
L 28 11.40625 
L 37.90625 37.296875 
Q 38.5 38.796875 38.5 40.296875 
Q 38.5 43.09375 33.796875 43.5 
L 33.796875 45 
z
" id="STIXGeneral-Regular-118"/>
      <path d="M 64.5 65.296875 
L 61.296875 49.90625 
L 59.203125 50.09375 
Q 59.5 52.296875 59.5 53.40625 
Q 59.5 57.296875 58.09375 58.9375 
Q 56.703125 60.59375 52.703125 61.296875 
Q 48.703125 62 39.59375 62 
Q 36.09375 62 34.6875 61.34375 
Q 33.296875 60.703125 32.796875 58.796875 
L 26.40625 36.09375 
Q 31.296875 36.203125 33.546875 36.203125 
Q 35.796875 36.203125 38.390625 36.640625 
Q 41 37.09375 41.84375 37.4375 
Q 42.703125 37.796875 44.09375 39.140625 
Q 45.5 40.5 46.09375 41.640625 
Q 46.703125 42.796875 48 45.5 
L 49.796875 45 
L 42.203125 21.5 
L 40.5 22 
Q 41.296875 26.09375 41.296875 28.09375 
Q 41.296875 30.90625 39.546875 31.703125 
Q 37.796875 32.5 33.796875 32.5 
Q 31 32.5 25.5 32.796875 
L 19.59375 11.5 
Q 18.203125 6.5 18.203125 5.5 
Q 18.203125 3.703125 19.890625 2.796875 
Q 21.59375 1.90625 25.90625 1.59375 
L 25.90625 0 
L 0.796875 0 
L 0.796875 1.59375 
Q 4.90625 1.90625 6.40625 3.5 
Q 7.90625 5.09375 9.09375 9.40625 
L 21.40625 53.59375 
Q 22.40625 57.203125 22.40625 59.703125 
Q 22.40625 61.796875 21.046875 62.546875 
Q 19.703125 63.296875 14.796875 63.703125 
L 14.796875 65.296875 
z
" id="STIXGeneral-Italic-70"/>
     </defs>
     <g transform="translate(19.62 149.91)rotate(-90)scale(0.18 -0.18)">
      <use transform="translate(0 0.703125)" xlink:href="#STIXGeneral-Regular-79"/>
      <use transform="translate(72.199982 0.703125)" xlink:href="#STIXGeneral-Regular-98"/>
      <use transform="translate(122.199966 0.703125)" xlink:href="#STIXGeneral-Regular-106"/>
      <use transform="translate(149.999954 0.703125)" xlink:href="#STIXGeneral-Regular-101"/>
      <use transform="translate(194.399948 0.703125)" xlink:href="#STIXGeneral-Regular-99"/>
      <use transform="translate(238.799942 0.703125)" xlink:href="#STIXGeneral-Regular-116"/>
      <use transform="translate(266.59993 0.703125)" xlink:href="#STIXGeneral-Regular-105"/>
      <use transform="translate(294.399918 0.703125)" xlink:href="#STIXGeneral-Regular-118"/>
      <use transform="translate(344.399902 0.703125)" xlink:href="#STIXGeneral-Regular-101"/>
      <use transform="translate(388.799896 0.703125)" xlink:href="#STIXGeneral-Regular-32"/>
      <use transform="translate(413.799881 0.703125)" xlink:href="#STIXGeneral-Italic-70"/>
     </g>
    </g>
   </g>
   <g id="line2d_11">
    <path clip-path="url(#pacff15ba81)" d="M 76.866364 32.781588 
L 107.302727 48.620614 
L 137.739091 55.296616 
L 168.175455 60.577933 
L 198.611818 65.260544 
L 229.048182 69.495353 
L 259.484545 73.347729 
L 289.920909 76.873665 
L 320.357273 80.113102 
L 350.793636 83.102938 
L 381.23 85.871046 
L 411.666364 88.44403 
L 442.102727 90.842329 
L 472.539091 93.085847 
L 502.975455 95.18993 
L 533.411818 97.169751 
L 563.848182 99.036994 
L 594.284545 100.803354 
L 624.720909 102.477819 
L 655.157273 104.06948 
L 685.593636 105.585311 
" style="fill:none;stroke:#ff0000;stroke-linecap:square;stroke-width:1.5;"/>
   </g>
   <g id="line2d_12">
    <path clip-path="url(#pacff15ba81)" d="M 76.866364 32.781588 
L 107.302727 33.11517 
L 137.739091 33.871047 
L 168.175455 34.375597 
L 198.611818 34.385727 
L 229.048182 36.081616 
L 259.484545 36.089891 
L 289.920909 36.257787 
L 320.357273 36.498205 
L 350.793636 36.500211 
L 381.23 36.637701 
L 411.666364 38.062273 
L 442.102727 38.146127 
L 472.539091 39.62831 
L 502.975455 39.828642 
L 533.411818 42.051214 
L 563.848182 43.619403 
L 594.284545 43.821381 
L 624.720909 43.97594 
L 655.157273 50.817098 
L 685.593636 55.586966 
" style="fill:none;stroke:#008000;stroke-linecap:square;stroke-width:1.5;"/>
   </g>
   <g id="line2d_13">
    <path clip-path="url(#pacff15ba81)" d="M 76.866364 32.781588 
L 107.302727 33.11517 
L 137.739091 33.87847 
L 168.175455 34.393497 
L 198.611818 34.423938 
L 229.048182 36.375776 
L 259.484545 36.396487 
L 289.920909 36.837155 
L 320.357273 37.292711 
L 350.793636 37.356936 
L 381.23 37.737048 
L 411.666364 40.339147 
L 442.102727 40.386878 
L 472.539091 46.391651 
L 502.975455 49.321019 
L 533.411818 59.413744 
L 563.848182 65.738175 
L 594.284545 74.942209 
L 624.720909 101.952897 
L 655.157273 161.071736 
L 685.593636 176.013358 
" style="fill:none;stroke:#0000ff;stroke-linecap:square;stroke-width:1.5;"/>
   </g>
   <g id="line2d_14">
    <path clip-path="url(#pacff15ba81)" d="M 76.866364 32.781588 
L 107.302727 48.620614 
L 137.739091 60.160622 
L 168.175455 89.398553 
L 198.611818 106.920658 
L 229.048182 112.729964 
L 259.484545 117.509745 
L 289.920909 125.974541 
L 320.357273 134.046671 
L 350.793636 147.174509 
L 381.23 153.126445 
L 411.666364 157.54467 
L 442.102727 165.321627 
L 472.539091 168.468151 
L 502.975455 170.309029 
L 533.411818 174.628109 
L 563.848182 174.972085 
L 594.284545 175.521486 
L 624.720909 175.857036 
L 655.157273 175.964889 
L 685.593636 175.977683 
" style="fill:none;stroke:#000000;stroke-linecap:square;stroke-width:1.5;"/>
   </g>
   <g id="patch_3">
    <path d="M 46.43 188.7 
L 46.43 25.62 
" style="fill:none;stroke:#000000;stroke-linecap:square;stroke-linejoin:miter;stroke-width:0.8;"/>
   </g>
   <g id="patch_4">
    <path d="M 716.03 188.7 
L 716.03 25.62 
" style="fill:none;stroke:#000000;stroke-linecap:square;stroke-linejoin:miter;stroke-width:0.8;"/>
   </g>
   <g id="patch_5">
    <path d="M 46.43 188.7 
L 716.03 188.7 
" style="fill:none;stroke:#000000;stroke-linecap:square;stroke-linejoin:miter;stroke-width:0.8;"/>
   </g>
   <g id="patch_6">
    <path d="M 46.43 25.62 
L 716.03 25.62 
" style="fill:none;stroke:#000000;stroke-linecap:square;stroke-linejoin:miter;stroke-width:0.8;"/>
   </g>
   <g id="text_13">
    <!-- Comparison of descent methods on random $A$, $b$ ($d = 20$) -->
    <defs>
     <path d="M 61.40625 13.09375 
L 63.296875 11.296875 
Q 54.40625 -1.40625 36 -1.40625 
Q 21.5 -1.40625 12.40625 7.5 
Q 2.796875 16.90625 2.796875 32.5 
Q 2.796875 47.09375 11.796875 57.203125 
Q 21.203125 67.59375 36.09375 67.59375 
Q 42.5 67.59375 48 66.09375 
Q 54.296875 64.296875 54.90625 64.296875 
Q 58.203125 64.296875 59.09375 67.59375 
L 61.09375 67.59375 
L 62 44.90625 
L 59.703125 44.90625 
Q 58.09375 52.09375 54.5 56 
Q 47.40625 63.59375 38.40625 63.59375 
Q 27.296875 63.59375 20.84375 55.4375 
Q 14.40625 47.296875 14.40625 34.09375 
Q 14.40625 18 21.59375 10.203125 
Q 28.296875 3 39.40625 3 
Q 46 3 50.796875 5.296875 
Q 55.59375 7.59375 61.40625 13.09375 
z
" id="STIXGeneral-Regular-67"/>
     <path d="M 16 45.796875 
L 16 36.59375 
Q 19.796875 42 22.34375 44 
Q 24.90625 46 28 46 
Q 30.59375 46 32.046875 44.59375 
Q 33.5 43.203125 33.5 40.703125 
Q 33.5 38.59375 32.453125 37.390625 
Q 31.40625 36.203125 29.59375 36.203125 
Q 27.703125 36.203125 25.59375 38.203125 
Q 24 39.703125 23 39.703125 
Q 20.90625 39.703125 18.453125 36.796875 
Q 16 33.90625 16 31.5 
L 16 9 
Q 16 4.703125 17.703125 3.203125 
Q 19.40625 1.703125 24.5 1.5 
L 24.5 0 
L 0.5 0 
L 0.5 1.5 
Q 5.296875 2.40625 6.4375 3.5 
Q 7.59375 4.59375 7.59375 8.40625 
L 7.59375 33.40625 
Q 7.59375 36.703125 6.84375 38.046875 
Q 6.09375 39.40625 4.203125 39.40625 
Q 2.59375 39.40625 0.703125 39 
L 0.703125 40.59375 
Q 7 42.59375 15.5 46 
z
" id="STIXGeneral-Regular-114"/>
     <path d="M 2.09375 45 
L 10.296875 45 
Q 10.40625 51 11.09375 54.34375 
Q 11.796875 57.703125 13.796875 61.09375 
Q 18 68.296875 27.90625 68.296875 
Q 32.40625 68.296875 35.34375 66.546875 
Q 38.296875 64.796875 38.296875 62.09375 
Q 38.296875 60.40625 37.09375 59.203125 
Q 35.90625 58 34.09375 58 
Q 31.703125 58 29.59375 61.59375 
Q 27.203125 65.5 24.296875 65.5 
Q 18.703125 65.5 18.703125 56.59375 
L 18.703125 45 
L 30.90625 45 
L 30.90625 41.796875 
L 18.703125 41.796875 
L 18.703125 10.40625 
Q 18.703125 4.796875 20.296875 3.25 
Q 21.90625 1.703125 28 1.5 
L 28 0 
L 2 0 
L 2 1.5 
Q 7.40625 1.796875 8.84375 3.34375 
Q 10.296875 4.90625 10.296875 10.40625 
L 10.296875 41.796875 
L 2.09375 41.796875 
z
" id="STIXGeneral-Regular-102"/>
     <path d="M 49.09375 4.203125 
L 34.40625 -1 
L 34 -0.703125 
L 34 5.703125 
Q 29.203125 -1 21.203125 -1 
Q 12.90625 -1 7.796875 4.953125 
Q 2.703125 10.90625 2.703125 20.5 
Q 2.703125 31.09375 8.796875 38.546875 
Q 14.90625 46 23.5 46 
Q 28.90625 46 34 41.703125 
L 34 57.296875 
Q 34 60.40625 33.09375 61.40625 
Q 32.203125 62.40625 29.40625 62.40625 
Q 28 62.40625 27.203125 62.296875 
L 27.203125 63.90625 
Q 36.296875 66.296875 41.90625 68.296875 
L 42.40625 68.09375 
L 42.40625 11.40625 
Q 42.40625 7.90625 43.25 6.796875 
Q 44.09375 5.703125 46.796875 5.703125 
Q 47.40625 5.703125 49.09375 5.796875 
z
M 34 10.203125 
L 34 33.203125 
Q 34 37.203125 30.953125 40.203125 
Q 27.90625 43.203125 23.796875 43.203125 
Q 18.09375 43.203125 14.6875 38.09375 
Q 11.296875 33 11.296875 24.5 
Q 11.296875 15.296875 15.046875 9.75 
Q 18.796875 4.203125 25.09375 4.203125 
Q 29.796875 4.203125 32.5 7.40625 
Q 34 9.09375 34 10.203125 
z
" id="STIXGeneral-Regular-100"/>
     <path d="M 48.703125 0 
L 27.5 0 
L 27.5 1.5 
Q 31.90625 2 33.09375 3.5 
Q 34.296875 5 34.296875 10.203125 
L 34.296875 30 
Q 34.296875 40.59375 26.90625 40.59375 
Q 23.90625 40.59375 21.40625 39.1875 
Q 18.90625 37.796875 15.703125 34.296875 
L 15.703125 10.203125 
Q 15.703125 5 16.890625 3.5 
Q 18.09375 2 22.5 1.5 
L 22.5 0 
L 0.90625 0 
L 0.90625 1.5 
Q 5.203125 2.09375 6.25 3.5 
Q 7.296875 4.90625 7.296875 10.203125 
L 7.296875 57.296875 
Q 7.296875 60.5 6.34375 61.453125 
Q 5.40625 62.40625 2.203125 62.40625 
Q 1.296875 62.40625 1 62.296875 
L 1 63.90625 
L 3.703125 64.703125 
Q 11.40625 67 15.203125 68.296875 
L 15.703125 68 
L 15.703125 37.59375 
Q 19.203125 42.09375 22.59375 44.046875 
Q 26 46 30.40625 46 
Q 42.703125 46 42.703125 30.09375 
L 42.703125 10.203125 
Q 42.703125 5 43.640625 3.640625 
Q 44.59375 2.296875 48.703125 1.5 
z
" id="STIXGeneral-Regular-104"/>
     <path d="M 56.40625 0 
L 31.90625 0 
L 31.90625 1.59375 
Q 36.40625 1.796875 38 3 
Q 39.59375 4.203125 39.59375 6.90625 
Q 39.59375 7.703125 39.40625 9.5 
L 37.40625 22.59375 
L 15.40625 22.59375 
L 9.5 11.5 
Q 7.296875 7.40625 7.296875 4.90625 
Q 7.296875 1.90625 13.5 1.59375 
L 13.5 0 
L -5.09375 0 
L -5.09375 1.59375 
Q -1.703125 2.296875 0.4375 4.796875 
Q 2.59375 7.296875 8.296875 17.203125 
L 36.796875 66.796875 
L 39.40625 66.796875 
L 48.59375 11.5 
Q 49.59375 5.296875 51 3.59375 
Q 52.40625 1.90625 56.40625 1.59375 
z
M 36.90625 26.203125 
L 32.40625 52.5 
L 17.5 26.203125 
z
" id="STIXGeneral-Italic-65"/>
     <path d="M 8.296875 -14.09375 
L 7.296875 -12.203125 
Q 15.59375 -6.59375 15.59375 -1.5 
Q 15.59375 -0.203125 14.203125 -0.203125 
Q 13.796875 -0.203125 12.84375 -0.390625 
Q 11.90625 -0.59375 11.296875 -0.59375 
Q 5.5 -0.59375 5.5 4.5 
Q 5.5 7.09375 7.140625 8.640625 
Q 8.796875 10.203125 11.5 10.203125 
Q 14.90625 10.203125 17.203125 7.75 
Q 19.5 5.296875 19.5 1.5 
Q 19.5 -3.09375 16.453125 -7.390625 
Q 13.40625 -11.703125 8.296875 -14.09375 
z
" id="STIXGeneral-Regular-44"/>
     <path d="M 16.296875 29 
L 16.40625 29 
Q 21.40625 37.296875 25.84375 40.6875 
Q 30.296875 44.09375 35.703125 44.09375 
Q 40.90625 44.09375 44.09375 40.890625 
Q 47.296875 37.703125 47.296875 32.09375 
Q 47.296875 24.40625 42.59375 16.59375 
Q 37.90625 8.796875 30.34375 3.84375 
Q 22.796875 -1.09375 15.296875 -1.09375 
Q 10.703125 -1.09375 6.5 0.5 
Q 2.296875 2.09375 2.296875 4.203125 
L 2.296875 4.796875 
L 16.5 57.09375 
Q 17.40625 60.703125 17.40625 61.796875 
Q 17.40625 63.40625 16.453125 63.75 
Q 15.5 64.09375 11 64.296875 
L 11 66 
Q 18.5 66.90625 26.296875 68.296875 
L 26.796875 67.796875 
L 24.703125 59.59375 
z
M 38.796875 30.59375 
Q 38.796875 39.203125 31.796875 39.203125 
Q 24.90625 39.203125 18.09375 27.703125 
Q 14.90625 22.296875 12.90625 15.75 
Q 10.90625 9.203125 10.90625 4.59375 
Q 10.90625 1.203125 15.5 1.203125 
Q 22.09375 1.203125 27.796875 7.09375 
Q 32.40625 11.90625 35.59375 18.546875 
Q 38.796875 25.203125 38.796875 30.59375 
z
" id="STIXGeneral-Italic-98"/>
     <path d="M 30.40625 -16.09375 
L 29.203125 -17.703125 
Q 17.59375 -11.09375 11.1875 0.5 
Q 4.796875 12.09375 4.796875 25.203125 
Q 4.796875 52.90625 29.5 67.59375 
L 30.40625 66 
Q 20.203125 57.296875 16.796875 48.84375 
Q 13.40625 40.40625 13.40625 25.5 
Q 13.40625 10.703125 16.90625 1.5 
Q 20.40625 -7.703125 30.40625 -16.09375 
z
" id="STIXGeneral-Regular-40"/>
     <path d="M 52.09375 68.296875 
L 52.703125 67.703125 
L 48.796875 52.5 
L 42.796875 30.59375 
Q 36.296875 6.703125 36.296875 6 
Q 36.296875 4 38.09375 4 
Q 39.40625 4 40.84375 5.25 
Q 42.296875 6.5 46.296875 11.09375 
L 47.5 10.09375 
Q 39.796875 -1.296875 32.796875 -1.296875 
Q 30.90625 -1.296875 29.796875 -0.09375 
Q 28.703125 1.09375 28.703125 3.203125 
Q 28.703125 6.203125 30 12.09375 
Q 25.703125 4.796875 21.546875 1.84375 
Q 17.40625 -1.09375 12.203125 -1.09375 
Q 7.203125 -1.09375 4.34375 1.953125 
Q 1.5 5 1.5 10.59375 
Q 1.5 22.5 11.140625 33.296875 
Q 20.796875 44.09375 30.703125 44.09375 
Q 33.796875 44.09375 35.25 42.6875 
Q 36.703125 41.296875 37.203125 38.296875 
L 37.296875 38.296875 
L 41.796875 54.59375 
Q 43.203125 59.5 43.203125 61.703125 
Q 43.203125 63.296875 42.09375 63.6875 
Q 41 64.09375 36.796875 64.296875 
L 36.796875 66 
Q 44.5 66.703125 52.09375 68.296875 
z
M 35.59375 36.09375 
Q 35.59375 38.703125 34.140625 40.25 
Q 32.703125 41.796875 30.90625 41.796875 
Q 26.203125 41.796875 21.796875 37.203125 
Q 16.796875 31.90625 13.5 24.546875 
Q 10.203125 17.203125 10.203125 11 
Q 10.203125 7.59375 11.75 5.640625 
Q 13.296875 3.703125 16 3.703125 
Q 20.5 3.703125 25.09375 8.59375 
Q 29.703125 13.5 32.640625 21.09375 
Q 35.59375 28.703125 35.59375 36.09375 
z
" id="STIXGeneral-Italic-100"/>
     <path d="M 63.703125 32 
L 4.796875 32 
L 4.796875 38.59375 
L 63.703125 38.59375 
z
M 63.703125 12 
L 4.796875 12 
L 4.796875 18.59375 
L 63.703125 18.59375 
z
" id="STIXGeneral-Regular-61"/>
     <path d="M 2.90625 66 
L 4.09375 67.59375 
Q 15.5 60.796875 22 49.1875 
Q 28.5 37.59375 28.5 24.703125 
Q 28.5 -2.59375 3.796875 -17.703125 
L 2.90625 -16.09375 
Q 13.203125 -7.59375 16.546875 0.84375 
Q 19.90625 9.296875 19.90625 24.40625 
Q 19.90625 39.59375 16.546875 48.75 
Q 13.203125 57.90625 2.90625 66 
z
" id="STIXGeneral-Regular-41"/>
    </defs>
    <g transform="translate(177.2 19.62)scale(0.18 -0.18)">
     <use transform="translate(0 0.703125)" xlink:href="#STIXGeneral-Regular-67"/>
     <use transform="translate(66.699997 0.703125)" xlink:href="#STIXGeneral-Regular-111"/>
     <use transform="translate(116.699982 0.703125)" xlink:href="#STIXGeneral-Regular-109"/>
     <use transform="translate(194.499969 0.703125)" xlink:href="#STIXGeneral-Regular-112"/>
     <use transform="translate(244.499954 0.703125)" xlink:href="#STIXGeneral-Regular-97"/>
     <use transform="translate(288.899948 0.703125)" xlink:href="#STIXGeneral-Regular-114"/>
     <use transform="translate(322.199936 0.703125)" xlink:href="#STIXGeneral-Regular-105"/>
     <use transform="translate(349.999924 0.703125)" xlink:href="#STIXGeneral-Regular-115"/>
     <use transform="translate(388.899918 0.703125)" xlink:href="#STIXGeneral-Regular-111"/>
     <use transform="translate(438.899902 0.703125)" xlink:href="#STIXGeneral-Regular-110"/>
     <use transform="translate(488.899887 0.703125)" xlink:href="#STIXGeneral-Regular-32"/>
     <use transform="translate(513.899872 0.703125)" xlink:href="#STIXGeneral-Regular-111"/>
     <use transform="translate(563.899857 0.703125)" xlink:href="#STIXGeneral-Regular-102"/>
     <use transform="translate(597.199844 0.703125)" xlink:href="#STIXGeneral-Regular-32"/>
     <use transform="translate(622.199829 0.703125)" xlink:href="#STIXGeneral-Regular-100"/>
     <use transform="translate(672.199814 0.703125)" xlink:href="#STIXGeneral-Regular-101"/>
     <use transform="translate(716.599808 0.703125)" xlink:href="#STIXGeneral-Regular-115"/>
     <use transform="translate(755.499802 0.703125)" xlink:href="#STIXGeneral-Regular-99"/>
     <use transform="translate(799.899796 0.703125)" xlink:href="#STIXGeneral-Regular-101"/>
     <use transform="translate(844.299789 0.703125)" xlink:href="#STIXGeneral-Regular-110"/>
     <use transform="translate(894.299774 0.703125)" xlink:href="#STIXGeneral-Regular-116"/>
     <use transform="translate(922.099762 0.703125)" xlink:href="#STIXGeneral-Regular-32"/>
     <use transform="translate(947.099747 0.703125)" xlink:href="#STIXGeneral-Regular-109"/>
     <use transform="translate(1024.899734 0.703125)" xlink:href="#STIXGeneral-Regular-101"/>
     <use transform="translate(1069.299728 0.703125)" xlink:href="#STIXGeneral-Regular-116"/>
     <use transform="translate(1097.099716 0.703125)" xlink:href="#STIXGeneral-Regular-104"/>
     <use transform="translate(1147.099701 0.703125)" xlink:href="#STIXGeneral-Regular-111"/>
     <use transform="translate(1197.099686 0.703125)" xlink:href="#STIXGeneral-Regular-100"/>
     <use transform="translate(1247.09967 0.703125)" xlink:href="#STIXGeneral-Regular-115"/>
     <use transform="translate(1285.999664 0.703125)" xlink:href="#STIXGeneral-Regular-32"/>
     <use transform="translate(1310.999649 0.703125)" xlink:href="#STIXGeneral-Regular-111"/>
     <use transform="translate(1360.999634 0.703125)" xlink:href="#STIXGeneral-Regular-110"/>
     <use transform="translate(1410.999619 0.703125)" xlink:href="#STIXGeneral-Regular-32"/>
     <use transform="translate(1435.999603 0.703125)" xlink:href="#STIXGeneral-Regular-114"/>
     <use transform="translate(1469.299591 0.703125)" xlink:href="#STIXGeneral-Regular-97"/>
     <use transform="translate(1513.699585 0.703125)" xlink:href="#STIXGeneral-Regular-110"/>
     <use transform="translate(1563.69957 0.703125)" xlink:href="#STIXGeneral-Regular-100"/>
     <use transform="translate(1613.699554 0.703125)" xlink:href="#STIXGeneral-Regular-111"/>
     <use transform="translate(1663.699539 0.703125)" xlink:href="#STIXGeneral-Regular-109"/>
     <use transform="translate(1741.499527 0.703125)" xlink:href="#STIXGeneral-Regular-32"/>
     <use transform="translate(1766.499512 0.703125)" xlink:href="#STIXGeneral-Italic-65"/>
     <use transform="translate(1827.599503 0.703125)" xlink:href="#STIXGeneral-Regular-44"/>
     <use transform="translate(1852.599487 0.703125)" xlink:href="#STIXGeneral-Regular-32"/>
     <use transform="translate(1877.599472 0.703125)" xlink:href="#STIXGeneral-Italic-98"/>
     <use transform="translate(1927.599457 0.703125)" xlink:href="#STIXGeneral-Regular-32"/>
     <use transform="translate(1952.599442 0.703125)" xlink:href="#STIXGeneral-Regular-40"/>
     <use transform="translate(1985.899429 0.703125)" xlink:href="#STIXGeneral-Italic-100"/>
     <use transform="translate(2050.33941 0.703125)" xlink:href="#STIXGeneral-Regular-61"/>
     <use transform="translate(2133.279391 0.703125)" xlink:href="#STIXGeneral-Regular-50"/>
     <use transform="translate(2183.279376 0.703125)" xlink:href="#STIXGeneral-Regular-48"/>
     <use transform="translate(2233.279361 0.703125)" xlink:href="#STIXGeneral-Regular-41"/>
    </g>
   </g>
   <g id="legend_1">
    <g id="patch_7">
     <path d="M 53.43 183.7 
L 239.870625 183.7 
Q 241.870625 183.7 241.870625 181.7 
L 241.870625 125.990625 
Q 241.870625 123.990625 239.870625 123.990625 
L 53.43 123.990625 
Q 51.43 123.990625 51.43 125.990625 
L 51.43 181.7 
Q 51.43 183.7 53.43 183.7 
z
" style="fill:#ffffff;opacity:0.8;stroke:#cccccc;stroke-linejoin:miter;"/>
    </g>
    <g id="line2d_15">
     <path d="M 55.43 131.490625 
L 75.43 131.490625 
" style="fill:none;stroke:#ff0000;stroke-linecap:square;stroke-width:1.5;"/>
    </g>
    <g id="line2d_16"/>
    <g id="text_14">
     <!-- Steepest descent (SD) -->
     <defs>
      <path d="M 46.90625 46.296875 
L 44.40625 46.296875 
Q 42.703125 52.5 40.296875 55.703125 
Q 34.203125 63.5 25.796875 63.5 
Q 21.203125 63.5 18.453125 60.84375 
Q 15.703125 58.203125 15.703125 54 
Q 15.703125 52 16.703125 50.09375 
Q 17.703125 48.203125 18.84375 46.84375 
Q 20 45.5 22.890625 43.5 
Q 25.796875 41.5 27.59375 40.453125 
Q 29.40625 39.40625 33.59375 36.90625 
Q 41.703125 32.203125 45.390625 27.546875 
Q 49.09375 22.90625 49.09375 17.296875 
Q 49.09375 9 43.296875 3.796875 
Q 37.5 -1.40625 28.703125 -1.40625 
Q 22.203125 -1.40625 16.90625 0.90625 
Q 14.296875 2 12.203125 2 
Q 11 2 10.203125 1.09375 
Q 9.40625 0.203125 9.40625 -1.296875 
L 7.203125 -1.296875 
L 4.296875 19.90625 
L 6.5 19.90625 
Q 13.203125 2.203125 27.09375 2.203125 
Q 32.40625 2.203125 35.703125 5.34375 
Q 39 8.5 39 13.40625 
Q 39 18.09375 36.09375 21.296875 
Q 31.296875 26.5 19.296875 32.90625 
Q 7.09375 39.40625 7.09375 50.09375 
Q 7.09375 58.09375 12 62.84375 
Q 16.90625 67.59375 24.5 67.59375 
Q 29.796875 67.59375 35 65.40625 
Q 37.703125 64.203125 39.40625 64.203125 
Q 42 64.203125 42.59375 67.59375 
L 44.703125 67.59375 
z
" id="STIXGeneral-Regular-83"/>
      <path d="M 1.59375 66.203125 
L 28.59375 66.203125 
Q 48.09375 66.203125 58.59375 57.09375 
Q 68.5 48.59375 68.5 33.40625 
Q 68.5 15.09375 54.90625 6.40625 
Q 45 0 29.703125 0 
L 1.59375 0 
L 1.59375 1.90625 
Q 7.40625 2.296875 8.90625 3.9375 
Q 10.40625 5.59375 10.40625 11.5 
L 10.40625 55 
Q 10.40625 60.796875 8.90625 62.34375 
Q 7.40625 63.90625 1.59375 64.296875 
z
M 20.59375 58.296875 
L 20.59375 8.40625 
Q 20.59375 5.703125 21.546875 4.703125 
Q 22.5 3.703125 25.40625 3.703125 
Q 33.203125 3.703125 38 4.796875 
Q 42.796875 5.90625 47.203125 8.90625 
Q 57.59375 15.90625 57.59375 32.796875 
Q 57.59375 47.296875 48.09375 55.59375 
Q 43.796875 59.40625 38.6875 60.953125 
Q 33.59375 62.5 25.90625 62.5 
Q 23 62.5 21.796875 61.59375 
Q 20.59375 60.703125 20.59375 58.296875 
z
" id="STIXGeneral-Regular-68"/>
     </defs>
     <g transform="translate(83.43 134.990625)scale(0.1 -0.1)">
      <use xlink:href="#STIXGeneral-Regular-83"/>
      <use x="55.599991" xlink:href="#STIXGeneral-Regular-116"/>
      <use x="83.399979" xlink:href="#STIXGeneral-Regular-101"/>
      <use x="127.799973" xlink:href="#STIXGeneral-Regular-101"/>
      <use x="172.199966" xlink:href="#STIXGeneral-Regular-112"/>
      <use x="222.199951" xlink:href="#STIXGeneral-Regular-101"/>
      <use x="266.599945" xlink:href="#STIXGeneral-Regular-115"/>
      <use x="305.499939" xlink:href="#STIXGeneral-Regular-116"/>
      <use x="333.299927" xlink:href="#STIXGeneral-Regular-32"/>
      <use x="358.299911" xlink:href="#STIXGeneral-Regular-100"/>
      <use x="408.299896" xlink:href="#STIXGeneral-Regular-101"/>
      <use x="452.69989" xlink:href="#STIXGeneral-Regular-115"/>
      <use x="491.599884" xlink:href="#STIXGeneral-Regular-99"/>
      <use x="535.999878" xlink:href="#STIXGeneral-Regular-101"/>
      <use x="580.399872" xlink:href="#STIXGeneral-Regular-110"/>
      <use x="630.399857" xlink:href="#STIXGeneral-Regular-116"/>
      <use x="658.199844" xlink:href="#STIXGeneral-Regular-32"/>
      <use x="683.199829" xlink:href="#STIXGeneral-Regular-40"/>
      <use x="716.499817" xlink:href="#STIXGeneral-Regular-83"/>
      <use x="772.099808" xlink:href="#STIXGeneral-Regular-68"/>
      <use x="844.299789" xlink:href="#STIXGeneral-Regular-41"/>
     </g>
    </g>
    <g id="line2d_17">
     <path d="M 55.43 145.660937 
L 75.43 145.660937 
" style="fill:none;stroke:#008000;stroke-linecap:square;stroke-width:1.5;"/>
    </g>
    <g id="line2d_18"/>
    <g id="text_15">
     <!-- Orthogonal descent (OD) -->
     <defs>
      <path d="M 47 38.796875 
L 38.703125 38.796875 
Q 40.59375 34.5 40.59375 30.40625 
Q 40.59375 22.703125 35.390625 18.796875 
Q 30.203125 14.90625 25 14.90625 
Q 23.90625 14.90625 21.203125 15.203125 
L 19.296875 15.40625 
Q 17.296875 14.796875 15.296875 12.6875 
Q 13.296875 10.59375 13.296875 9.09375 
Q 13.296875 6.796875 21.09375 6.40625 
L 34 5.796875 
Q 39.5 5.59375 42.796875 2.6875 
Q 46.09375 -0.203125 46.09375 -4.90625 
Q 46.09375 -10.703125 40.09375 -15.40625 
Q 31.796875 -21.796875 20.09375 -21.796875 
Q 12.90625 -21.796875 7.84375 -18.9375 
Q 2.796875 -16.09375 2.796875 -12.09375 
Q 2.796875 -9.296875 5 -6.546875 
Q 7.203125 -3.796875 12.59375 0.09375 
Q 9.40625 1.59375 8.34375 2.6875 
Q 7.296875 3.796875 7.296875 5.40625 
Q 7.296875 8.296875 11.90625 12.296875 
Q 14.203125 14.296875 16.203125 16.296875 
Q 11.203125 18.796875 9.046875 21.890625 
Q 6.90625 25 6.90625 29.703125 
Q 6.90625 36.5 11.75 41.25 
Q 16.59375 46 23.59375 46 
Q 27.59375 46 31.59375 44.5 
L 33.796875 43.703125 
Q 36.703125 42.703125 39.296875 42.703125 
L 47 42.703125 
z
M 15.203125 33.796875 
L 15.203125 33.5 
Q 15.203125 26.296875 18.046875 21.84375 
Q 20.90625 17.40625 25.5 17.40625 
Q 28.90625 17.40625 30.90625 19.84375 
Q 32.90625 22.296875 32.90625 26.40625 
Q 32.90625 33 29.90625 38.5 
Q 27.40625 43.203125 22.59375 43.203125 
Q 19.09375 43.203125 17.140625 40.703125 
Q 15.203125 38.203125 15.203125 33.796875 
z
M 43.296875 -6.40625 
Q 43.296875 -3.59375 40.546875 -2.546875 
Q 37.796875 -1.5 30.90625 -1.5 
Q 21 -1.5 14.703125 -0.203125 
Q 11.703125 -3.796875 10.75 -5.4375 
Q 9.796875 -7.09375 9.796875 -8.796875 
Q 9.796875 -12.09375 13.75 -14.09375 
Q 17.703125 -16.09375 24.296875 -16.09375 
Q 32.796875 -16.09375 38.046875 -13.4375 
Q 43.296875 -10.796875 43.296875 -6.40625 
z
" id="STIXGeneral-Regular-103"/>
      <path d="M 25.703125 0 
L 2.09375 0 
L 2.09375 1.5 
Q 6.796875 1.90625 8.296875 3.453125 
Q 9.796875 5 9.796875 9.203125 
L 9.796875 56.09375 
Q 9.796875 59.703125 8.890625 61.09375 
Q 8 62.5 5.59375 62.5 
Q 3.5 62.5 1.90625 62.296875 
L 1.90625 63.90625 
Q 11.40625 66.203125 17.703125 68.296875 
L 18.203125 67.90625 
L 18.203125 8.703125 
Q 18.203125 4.5 19.59375 3.140625 
Q 21 1.796875 25.703125 1.5 
z
" id="STIXGeneral-Regular-108"/>
     </defs>
     <g transform="translate(83.43 149.160937)scale(0.1 -0.1)">
      <use xlink:href="#STIXGeneral-Regular-79"/>
      <use x="72.199982" xlink:href="#STIXGeneral-Regular-114"/>
      <use x="105.499969" xlink:href="#STIXGeneral-Regular-116"/>
      <use x="133.299957" xlink:href="#STIXGeneral-Regular-104"/>
      <use x="183.299942" xlink:href="#STIXGeneral-Regular-111"/>
      <use x="233.299927" xlink:href="#STIXGeneral-Regular-103"/>
      <use x="283.299911" xlink:href="#STIXGeneral-Regular-111"/>
      <use x="333.299896" xlink:href="#STIXGeneral-Regular-110"/>
      <use x="383.299881" xlink:href="#STIXGeneral-Regular-97"/>
      <use x="427.699875" xlink:href="#STIXGeneral-Regular-108"/>
      <use x="455.499863" xlink:href="#STIXGeneral-Regular-32"/>
      <use x="480.499847" xlink:href="#STIXGeneral-Regular-100"/>
      <use x="530.499832" xlink:href="#STIXGeneral-Regular-101"/>
      <use x="574.899826" xlink:href="#STIXGeneral-Regular-115"/>
      <use x="613.79982" xlink:href="#STIXGeneral-Regular-99"/>
      <use x="658.199814" xlink:href="#STIXGeneral-Regular-101"/>
      <use x="702.599808" xlink:href="#STIXGeneral-Regular-110"/>
      <use x="752.599792" xlink:href="#STIXGeneral-Regular-116"/>
      <use x="780.39978" xlink:href="#STIXGeneral-Regular-32"/>
      <use x="805.399765" xlink:href="#STIXGeneral-Regular-40"/>
      <use x="838.699753" xlink:href="#STIXGeneral-Regular-79"/>
      <use x="910.899734" xlink:href="#STIXGeneral-Regular-68"/>
      <use x="983.099716" xlink:href="#STIXGeneral-Regular-41"/>
     </g>
    </g>
    <g id="line2d_19">
     <path d="M 55.43 159.840625 
L 75.43 159.840625 
" style="fill:none;stroke:#0000ff;stroke-linecap:square;stroke-width:1.5;"/>
    </g>
    <g id="line2d_20"/>
    <g id="text_16">
     <!-- Conjugate directions with GS (CDGS) -->
     <defs>
      <path d="M 48 5 
L 48 3.59375 
Q 40.203125 1.5 34.296875 -0.90625 
L 33.796875 -0.59375 
L 33.796875 7.59375 
L 33.59375 7.59375 
Q 27.296875 -1 19.296875 -1 
Q 13.59375 -1 10.34375 2.5 
Q 7.09375 6 7.09375 11.796875 
L 7.09375 36.90625 
Q 7.09375 40.59375 5.796875 42 
Q 4.5 43.40625 0.90625 43.59375 
L 0.90625 45 
L 15.5 45 
L 15.5 12.703125 
Q 15.5 9.296875 17.546875 7.046875 
Q 19.59375 4.796875 22.59375 4.796875 
Q 27.5 4.796875 31 7.90625 
Q 32.296875 9.09375 32.796875 10.140625 
Q 33.296875 11.203125 33.296875 13.703125 
L 33.296875 36.796875 
Q 33.296875 40.703125 31.890625 41.84375 
Q 30.5 43 25.90625 43.296875 
L 25.90625 45 
L 41.703125 45 
L 41.703125 10.703125 
Q 41.703125 7.203125 42.84375 6.09375 
Q 44 5 47.40625 5 
z
" id="STIXGeneral-Regular-117"/>
      <path d="M 69.40625 45 
L 69.40625 43.5 
Q 67.90625 43 67.203125 42.046875 
Q 66.5 41.09375 65.296875 38.09375 
L 51.5 3.5 
Q 49.5 -1.40625 48.703125 -1.40625 
Q 48.203125 -1.40625 47.84375 -0.75 
Q 47.5 -0.09375 46.296875 2.90625 
L 37.203125 26.5 
L 26 2.5 
Q 24.203125 -1.40625 23.5 -1.40625 
Q 22.59375 -1.40625 20.90625 3 
L 7.40625 37.203125 
Q 5.90625 41.09375 4.90625 42.1875 
Q 3.90625 43.296875 2.09375 43.5 
L 2.09375 45 
L 20.09375 45 
L 20.09375 43.5 
Q 17.5 43.203125 16.5 42.5 
Q 15.5 41.796875 15.5 40.203125 
Q 15.5 38.703125 16.09375 37.203125 
L 26 11.09375 
L 35.09375 31 
L 33.09375 36.59375 
Q 31.703125 40.59375 30.34375 41.890625 
Q 29 43.203125 26.203125 43.5 
L 26.203125 45 
L 46.5 45 
L 46.5 43.5 
Q 43 43 41.84375 42.296875 
Q 40.703125 41.59375 40.703125 40 
Q 40.703125 38.40625 42.40625 34 
L 50.796875 11.59375 
L 59.796875 33.796875 
Q 61.5 38 61.5 40.5 
Q 61.5 41.703125 60.546875 42.34375 
Q 59.59375 43 57.09375 43.5 
L 57.09375 45 
z
" id="STIXGeneral-Regular-119"/>
      <path d="M 70.90625 35.40625 
L 70.90625 33.59375 
Q 66.5 33.203125 65.203125 31.796875 
Q 63.90625 30.40625 63.90625 25.59375 
L 63.90625 5.59375 
Q 55.296875 -1.40625 38.5 -1.40625 
Q 30.703125 -1.40625 23.546875 1.390625 
Q 16.40625 4.203125 11.5 9.296875 
Q 3.203125 18 3.203125 32.703125 
Q 3.203125 49.296875 13.90625 59 
Q 23.296875 67.59375 37.796875 67.59375 
Q 44.203125 67.59375 51.09375 65.296875 
Q 53.796875 64.296875 55.5 64.296875 
Q 57.09375 64.296875 58.296875 65.25 
Q 59.5 66.203125 60 67.59375 
L 62.203125 67.59375 
L 63 46.5 
L 60.703125 46.5 
Q 57.5 54.296875 53.59375 58.09375 
Q 47.796875 63.59375 39 63.59375 
Q 29 63.59375 22.296875 56.703125 
Q 14.59375 49 14.59375 32.40625 
Q 14.59375 18.59375 21.796875 10.59375 
Q 29 2.59375 40.90625 2.59375 
Q 46.59375 2.59375 50.390625 4.390625 
Q 54.203125 6.203125 54.203125 8.703125 
L 54.203125 24.40625 
Q 54.203125 30.203125 52.75 31.640625 
Q 51.296875 33.09375 45.296875 33.59375 
L 45.296875 35.40625 
z
" id="STIXGeneral-Regular-71"/>
     </defs>
     <g transform="translate(83.43 163.340625)scale(0.1 -0.1)">
      <use xlink:href="#STIXGeneral-Regular-67"/>
      <use x="66.699997" xlink:href="#STIXGeneral-Regular-111"/>
      <use x="116.699982" xlink:href="#STIXGeneral-Regular-110"/>
      <use x="166.699966" xlink:href="#STIXGeneral-Regular-106"/>
      <use x="194.499954" xlink:href="#STIXGeneral-Regular-117"/>
      <use x="244.499939" xlink:href="#STIXGeneral-Regular-103"/>
      <use x="294.499924" xlink:href="#STIXGeneral-Regular-97"/>
      <use x="338.899918" xlink:href="#STIXGeneral-Regular-116"/>
      <use x="366.699905" xlink:href="#STIXGeneral-Regular-101"/>
      <use x="411.099899" xlink:href="#STIXGeneral-Regular-32"/>
      <use x="436.099884" xlink:href="#STIXGeneral-Regular-100"/>
      <use x="486.099869" xlink:href="#STIXGeneral-Regular-105"/>
      <use x="513.899857" xlink:href="#STIXGeneral-Regular-114"/>
      <use x="547.199844" xlink:href="#STIXGeneral-Regular-101"/>
      <use x="591.599838" xlink:href="#STIXGeneral-Regular-99"/>
      <use x="635.999832" xlink:href="#STIXGeneral-Regular-116"/>
      <use x="663.79982" xlink:href="#STIXGeneral-Regular-105"/>
      <use x="691.599808" xlink:href="#STIXGeneral-Regular-111"/>
      <use x="741.599792" xlink:href="#STIXGeneral-Regular-110"/>
      <use x="791.599777" xlink:href="#STIXGeneral-Regular-115"/>
      <use x="830.499771" xlink:href="#STIXGeneral-Regular-32"/>
      <use x="855.499756" xlink:href="#STIXGeneral-Regular-119"/>
      <use x="927.699738" xlink:href="#STIXGeneral-Regular-105"/>
      <use x="955.499725" xlink:href="#STIXGeneral-Regular-116"/>
      <use x="983.299713" xlink:href="#STIXGeneral-Regular-104"/>
      <use x="1033.299698" xlink:href="#STIXGeneral-Regular-32"/>
      <use x="1058.299683" xlink:href="#STIXGeneral-Regular-71"/>
      <use x="1130.499664" xlink:href="#STIXGeneral-Regular-83"/>
      <use x="1186.099655" xlink:href="#STIXGeneral-Regular-32"/>
      <use x="1211.09964" xlink:href="#STIXGeneral-Regular-40"/>
      <use x="1244.399628" xlink:href="#STIXGeneral-Regular-67"/>
      <use x="1311.099625" xlink:href="#STIXGeneral-Regular-68"/>
      <use x="1383.299606" xlink:href="#STIXGeneral-Regular-71"/>
      <use x="1455.499588" xlink:href="#STIXGeneral-Regular-83"/>
      <use x="1511.099579" xlink:href="#STIXGeneral-Regular-41"/>
     </g>
    </g>
    <g id="line2d_21">
     <path d="M 55.43 174.020312 
L 75.43 174.020312 
" style="fill:none;stroke:#000000;stroke-linecap:square;stroke-width:1.5;"/>
    </g>
    <g id="line2d_22"/>
    <g id="text_17">
     <!-- Conjugate gradients (CG) -->
     <g transform="translate(83.43 177.520312)scale(0.1 -0.1)">
      <use xlink:href="#STIXGeneral-Regular-67"/>
      <use x="66.699997" xlink:href="#STIXGeneral-Regular-111"/>
      <use x="116.699982" xlink:href="#STIXGeneral-Regular-110"/>
      <use x="166.699966" xlink:href="#STIXGeneral-Regular-106"/>
      <use x="194.499954" xlink:href="#STIXGeneral-Regular-117"/>
      <use x="244.499939" xlink:href="#STIXGeneral-Regular-103"/>
      <use x="294.499924" xlink:href="#STIXGeneral-Regular-97"/>
      <use x="338.899918" xlink:href="#STIXGeneral-Regular-116"/>
      <use x="366.699905" xlink:href="#STIXGeneral-Regular-101"/>
      <use x="411.099899" xlink:href="#STIXGeneral-Regular-32"/>
      <use x="436.099884" xlink:href="#STIXGeneral-Regular-103"/>
      <use x="486.099869" xlink:href="#STIXGeneral-Regular-114"/>
      <use x="519.399857" xlink:href="#STIXGeneral-Regular-97"/>
      <use x="563.79985" xlink:href="#STIXGeneral-Regular-100"/>
      <use x="613.799835" xlink:href="#STIXGeneral-Regular-105"/>
      <use x="641.599823" xlink:href="#STIXGeneral-Regular-101"/>
      <use x="685.999817" xlink:href="#STIXGeneral-Regular-110"/>
      <use x="735.999802" xlink:href="#STIXGeneral-Regular-116"/>
      <use x="763.799789" xlink:href="#STIXGeneral-Regular-115"/>
      <use x="802.699783" xlink:href="#STIXGeneral-Regular-32"/>
      <use x="827.699768" xlink:href="#STIXGeneral-Regular-40"/>
      <use x="860.999756" xlink:href="#STIXGeneral-Regular-67"/>
      <use x="927.699753" xlink:href="#STIXGeneral-Regular-71"/>
      <use x="999.899734" xlink:href="#STIXGeneral-Regular-41"/>
     </g>
    </g>
   </g>
  </g>
 </g>
 <defs>
  <clipPath id="pacff15ba81">
   <rect height="163.08" width="669.6" x="46.43" y="25.62"/>
  </clipPath>
 </defs>
</svg>
