<?xml version="1.0" encoding="utf-8" standalone="no"?>
<!DOCTYPE svg PUBLIC "-//W3C//DTD SVG 1.1//EN"
  "http://www.w3.org/Graphics/SVG/1.1/DTD/svg11.dtd">
<!-- Created with matplotlib (https://matplotlib.org/) -->
<svg height="307.836375pt" version="1.1" viewBox="0 0 282.008437 307.836375" width="282.008437pt" xmlns="http://www.w3.org/2000/svg" xmlns:xlink="http://www.w3.org/1999/xlink">
 <defs>
  <style type="text/css">
*{stroke-linecap:butt;stroke-linejoin:round;}
  </style>
 </defs>
 <g id="figure_1">
  <g id="patch_1">
   <path d="M 0 307.836375 
L 282.008437 307.836375 
L 282.008437 0 
L 0 0 
z
" style="fill:none;"/>
  </g>
  <g id="axes_1">
   <g id="patch_2">
    <path d="M 48.427188 264.47325 
L 271.627187 264.47325 
L 271.627187 47.03325 
L 48.427188 47.03325 
z
" style="fill:#ffffff;"/>
   </g>
   <g id="PathCollection_1">
    <path clip-path="url(#p9bf523e86d)" d="M 142.406135 165.316583 
L 154.153503 169.13132 
L 165.900872 169.13132 
L 177.64824 165.316583 
L 183.562714 161.475355 
L 183.562714 150.031145 
L 177.64824 146.189917 
L 165.900872 142.37518 
L 154.153503 142.37518 
L 142.406135 146.189917 
L 136.491661 150.031145 
L 136.491661 161.475355 
z
" style="fill:#3c4ec2;fill-opacity:0.5;"/>
   </g>
   <g id="PathCollection_2">
    <path clip-path="url(#p9bf523e86d)" d="M 154.153503 185.034887 
L 165.900872 185.034887 
L 172.100872 184.363776 
L 177.64824 183.463075 
L 189.395609 179.648338 
L 201.142977 173.926232 
L 202.692977 172.919566 
L 211.503503 161.475355 
L 211.503503 150.031145 
L 202.692977 138.586934 
L 201.142977 137.580268 
L 189.395609 131.858162 
L 177.64824 128.043425 
L 172.100872 127.142724 
L 165.900872 126.471613 
L 154.153503 126.471613 
L 147.953503 127.142724 
L 142.406135 128.043425 
L 130.658766 131.858162 
L 118.911398 137.580268 
L 117.361398 138.586934 
L 108.550872 150.031145 
L 108.550872 161.475355 
L 117.361398 172.919566 
L 118.911398 173.926232 
L 130.658766 179.648338 
L 142.406135 183.463075 
L 147.953503 184.363776 
z
M 136.491661 161.475355 
L 136.491661 150.031145 
L 142.406135 146.189917 
L 154.153503 142.37518 
L 165.900872 142.37518 
L 177.64824 146.189917 
L 183.562714 150.031145 
L 183.562714 161.475355 
L 177.64824 165.316583 
L 165.900872 169.13132 
L 154.153503 169.13132 
L 142.406135 165.316583 
z
" style="fill:#4358cb;fill-opacity:0.5;"/>
   </g>
   <g id="PathCollection_3">
    <path clip-path="url(#p9bf523e86d)" d="M 130.658766 196.821276 
L 142.406135 198.728645 
L 154.153503 199.682329 
L 165.900872 199.682329 
L 177.64824 198.728645 
L 189.395609 196.821276 
L 193.556135 195.807987 
L 201.142977 193.344303 
L 212.890345 188.257987 
L 220.085609 184.363776 
L 224.637714 180.66825 
L 232.591661 172.919566 
L 236.385082 165.528513 
L 238.168165 161.475355 
L 238.168165 150.031145 
L 236.385082 145.977987 
L 232.591661 138.586934 
L 224.637714 130.83825 
L 220.085609 127.142724 
L 212.890345 123.248513 
L 201.142977 118.162197 
L 193.556135 115.698513 
L 189.395609 114.685224 
L 177.64824 112.777855 
L 165.900872 111.824171 
L 154.153503 111.824171 
L 142.406135 112.777855 
L 130.658766 114.685224 
L 126.49824 115.698513 
L 118.911398 118.162197 
L 107.16403 123.248513 
L 99.968766 127.142724 
L 95.416661 130.83825 
L 87.462714 138.586934 
L 83.669293 145.977987 
L 81.88621 150.031145 
L 81.88621 161.475355 
L 83.669293 165.528513 
L 87.462714 172.919566 
L 95.416661 180.66825 
L 99.968766 184.363776 
L 107.16403 188.257987 
L 118.911398 193.344303 
L 126.49824 195.807987 
z
M 147.953503 184.363776 
L 142.406135 183.463075 
L 130.658766 179.648338 
L 118.911398 173.926232 
L 117.361398 172.919566 
L 108.550872 161.475355 
L 108.550872 150.031145 
L 117.361398 138.586934 
L 118.911398 137.580268 
L 130.658766 131.858162 
L 142.406135 128.043425 
L 147.953503 127.142724 
L 154.153503 126.471613 
L 165.900872 126.471613 
L 172.100872 127.142724 
L 177.64824 128.043425 
L 189.395609 131.858162 
L 201.142977 137.580268 
L 202.692977 138.586934 
L 211.503503 150.031145 
L 211.503503 161.475355 
L 202.692977 172.919566 
L 201.142977 173.926232 
L 189.395609 179.648338 
L 177.64824 183.463075 
L 172.100872 184.363776 
L 165.900872 185.034887 
L 154.153503 185.034887 
z
" style="fill:#536edd;fill-opacity:0.5;"/>
   </g>
   <g id="PathCollection_4">
    <path clip-path="url(#p9bf523e86d)" d="M 118.911398 210.007285 
L 130.658766 212.296127 
L 142.406135 213.822022 
L 154.153503 214.584969 
L 165.900872 214.584969 
L 177.64824 213.822022 
L 189.395609 212.296127 
L 201.142977 210.007285 
L 211.74824 207.252197 
L 212.890345 206.88132 
L 224.637714 202.112899 
L 236.385082 196.390794 
L 237.410646 195.807987 
L 248.132451 187.68401 
L 251.966661 184.363776 
L 259.879819 174.08518 
L 260.67748 172.919566 
L 264.593269 161.475355 
L 264.593269 150.031145 
L 260.67748 138.586934 
L 259.879819 137.42132 
L 251.966661 127.142724 
L 248.132451 123.82249 
L 237.410646 115.698513 
L 236.385082 115.115706 
L 224.637714 109.393601 
L 212.890345 104.62518 
L 211.74824 104.254303 
L 201.142977 101.499215 
L 189.395609 99.210373 
L 177.64824 97.684478 
L 165.900872 96.921531 
L 154.153503 96.921531 
L 142.406135 97.684478 
L 130.658766 99.210373 
L 118.911398 101.499215 
L 108.306135 104.254303 
L 107.16403 104.62518 
L 95.416661 109.393601 
L 83.669293 115.115706 
L 82.643729 115.698513 
L 71.921924 123.82249 
L 68.087714 127.142724 
L 60.174556 137.42132 
L 59.376895 138.586934 
L 55.461106 150.031145 
L 55.461106 161.475355 
L 59.376895 172.919566 
L 60.174556 174.08518 
L 68.087714 184.363776 
L 71.921924 187.68401 
L 82.643729 195.807987 
L 83.669293 196.390794 
L 95.416661 202.112899 
L 107.16403 206.88132 
L 108.306135 207.252197 
z
M 126.49824 195.807987 
L 118.911398 193.344303 
L 107.16403 188.257987 
L 99.968766 184.363776 
L 95.416661 180.66825 
L 87.462714 172.919566 
L 83.669293 165.528513 
L 81.88621 161.475355 
L 81.88621 150.031145 
L 83.669293 145.977987 
L 87.462714 138.586934 
L 95.416661 130.83825 
L 99.968766 127.142724 
L 107.16403 123.248513 
L 118.911398 118.162197 
L 126.49824 115.698513 
L 130.658766 114.685224 
L 142.406135 112.777855 
L 154.153503 111.824171 
L 165.900872 111.824171 
L 177.64824 112.777855 
L 189.395609 114.685224 
L 193.556135 115.698513 
L 201.142977 118.162197 
L 212.890345 123.248513 
L 220.085609 127.142724 
L 224.637714 130.83825 
L 232.591661 138.586934 
L 236.385082 145.977987 
L 238.168165 150.031145 
L 238.168165 161.475355 
L 236.385082 165.528513 
L 232.591661 172.919566 
L 224.637714 180.66825 
L 220.085609 184.363776 
L 212.890345 188.257987 
L 201.142977 193.344303 
L 193.556135 195.807987 
L 189.395609 196.821276 
L 177.64824 198.728645 
L 165.900872 199.682329 
L 154.153503 199.682329 
L 142.406135 198.728645 
L 130.658766 196.821276 
z
" style="fill:#6b8df0;fill-opacity:0.5;"/>
   </g>
   <g id="PathCollection_5">
    <path clip-path="url(#p9bf523e86d)" d="M 95.416661 220.078367 
L 107.16403 223.257314 
L 118.911398 225.800472 
L 130.658766 227.707841 
L 142.406135 228.97942 
L 154.153503 229.615209 
L 165.900872 229.615209 
L 177.64824 228.97942 
L 189.395609 227.707841 
L 201.142977 225.800472 
L 212.890345 223.257314 
L 224.637714 220.078367 
L 228.893416 218.696408 
L 236.385082 215.777075 
L 248.132451 210.436443 
L 254.261069 207.252197 
L 259.879819 203.603031 
L 270.548533 195.807987 
L 271.627187 194.757168 
L 271.627187 184.363776 
L 271.627187 172.919566 
L 271.627187 161.475355 
L 271.627187 150.031145 
L 271.627187 138.586934 
L 271.627187 127.142724 
L 271.627187 116.749332 
L 270.548533 115.698513 
L 259.879819 107.903469 
L 254.261069 104.254303 
L 248.132451 101.070057 
L 236.385082 95.729425 
L 228.893416 92.810092 
L 224.637714 91.428133 
L 212.890345 88.249186 
L 201.142977 85.706028 
L 189.395609 83.798659 
L 177.64824 82.52708 
L 165.900872 81.891291 
L 154.153503 81.891291 
L 142.406135 82.52708 
L 130.658766 83.798659 
L 118.911398 85.706028 
L 107.16403 88.249186 
L 95.416661 91.428133 
L 91.160959 92.810092 
L 83.669293 95.729425 
L 71.921924 101.070057 
L 65.793306 104.254303 
L 60.174556 107.903469 
L 49.505842 115.698513 
L 48.427188 116.749332 
L 48.427188 127.142724 
L 48.427188 138.586934 
L 48.427188 150.031145 
L 48.427188 161.475355 
L 48.427188 172.919566 
L 48.427188 184.363776 
L 48.427188 194.757168 
L 49.505842 195.807987 
L 60.174556 203.603031 
L 65.793306 207.252197 
L 71.921924 210.436443 
L 83.669293 215.777075 
L 91.160959 218.696408 
z
M 108.306135 207.252197 
L 107.16403 206.88132 
L 95.416661 202.112899 
L 83.669293 196.390794 
L 82.643729 195.807987 
L 71.921924 187.68401 
L 68.087714 184.363776 
L 60.174556 174.08518 
L 59.376895 172.919566 
L 55.461106 161.475355 
L 55.461106 150.031145 
L 59.376895 138.586934 
L 60.174556 137.42132 
L 68.087714 127.142724 
L 71.921924 123.82249 
L 82.643729 115.698513 
L 83.669293 115.115706 
L 95.416661 109.393601 
L 107.16403 104.62518 
L 108.306135 104.254303 
L 118.911398 101.499215 
L 130.658766 99.210373 
L 142.406135 97.684478 
L 154.153503 96.921531 
L 165.900872 96.921531 
L 177.64824 97.684478 
L 189.395609 99.210373 
L 201.142977 101.499215 
L 211.74824 104.254303 
L 212.890345 104.62518 
L 224.637714 109.393601 
L 236.385082 115.115706 
L 237.410646 115.698513 
L 248.132451 123.82249 
L 251.966661 127.142724 
L 259.879819 137.42132 
L 260.67748 138.586934 
L 264.593269 150.031145 
L 264.593269 161.475355 
L 260.67748 172.919566 
L 259.879819 174.08518 
L 251.966661 184.363776 
L 248.132451 187.68401 
L 237.410646 195.807987 
L 236.385082 196.390794 
L 224.637714 202.112899 
L 212.890345 206.88132 
L 211.74824 207.252197 
L 201.142977 210.007285 
L 189.395609 212.296127 
L 177.64824 213.822022 
L 165.900872 214.584969 
L 154.153503 214.584969 
L 142.406135 213.822022 
L 130.658766 212.296127 
L 118.911398 210.007285 
z
" style="fill:#8db0fe;fill-opacity:0.5;"/>
   </g>
   <g id="PathCollection_6">
    <path clip-path="url(#p9bf523e86d)" d="M 130.658766 242.896145 
L 142.406135 243.849829 
L 154.153503 244.326671 
L 165.900872 244.326671 
L 177.64824 243.849829 
L 189.395609 242.896145 
L 200.16403 241.584829 
L 201.142977 241.448588 
L 212.890345 239.268739 
L 224.637714 236.543927 
L 236.385082 233.274152 
L 246.034706 230.140618 
L 248.132451 229.345882 
L 259.879819 224.259566 
L 271.300872 218.696408 
L 271.627187 218.505671 
L 271.627187 207.252197 
L 271.627187 195.807987 
L 271.627187 194.757168 
L 270.548533 195.807987 
L 259.879819 203.603031 
L 254.261069 207.252197 
L 248.132451 210.436443 
L 236.385082 215.777075 
L 228.893416 218.696408 
L 224.637714 220.078367 
L 212.890345 223.257314 
L 201.142977 225.800472 
L 189.395609 227.707841 
L 177.64824 228.97942 
L 165.900872 229.615209 
L 154.153503 229.615209 
L 142.406135 228.97942 
L 130.658766 227.707841 
L 118.911398 225.800472 
L 107.16403 223.257314 
L 95.416661 220.078367 
L 91.160959 218.696408 
L 83.669293 215.777075 
L 71.921924 210.436443 
L 65.793306 207.252197 
L 60.174556 203.603031 
L 49.505842 195.807987 
L 48.427188 194.757168 
L 48.427188 195.807987 
L 48.427188 207.252197 
L 48.427188 218.505671 
L 48.753503 218.696408 
L 60.174556 224.259566 
L 71.921924 229.345882 
L 74.019669 230.140618 
L 83.669293 233.274152 
L 95.416661 236.543927 
L 107.16403 239.268739 
L 118.911398 241.448588 
L 119.890345 241.584829 
z
" style="fill:#b9d0f9;fill-opacity:0.5;"/>
    <path clip-path="url(#p9bf523e86d)" d="M 49.505842 115.698513 
L 60.174556 107.903469 
L 65.793306 104.254303 
L 71.921924 101.070057 
L 83.669293 95.729425 
L 91.160959 92.810092 
L 95.416661 91.428133 
L 107.16403 88.249186 
L 118.911398 85.706028 
L 130.658766 83.798659 
L 142.406135 82.52708 
L 154.153503 81.891291 
L 165.900872 81.891291 
L 177.64824 82.52708 
L 189.395609 83.798659 
L 201.142977 85.706028 
L 212.890345 88.249186 
L 224.637714 91.428133 
L 228.893416 92.810092 
L 236.385082 95.729425 
L 248.132451 101.070057 
L 254.261069 104.254303 
L 259.879819 107.903469 
L 270.548533 115.698513 
L 271.627187 116.749332 
L 271.627187 115.698513 
L 271.627187 104.254303 
L 271.627187 93.000829 
L 271.300872 92.810092 
L 259.879819 87.246934 
L 248.132451 82.160618 
L 246.034706 81.365882 
L 236.385082 78.232348 
L 224.637714 74.962573 
L 212.890345 72.237761 
L 201.142977 70.057912 
L 200.16403 69.921671 
L 189.395609 68.610355 
L 177.64824 67.656671 
L 165.900872 67.179829 
L 154.153503 67.179829 
L 142.406135 67.656671 
L 130.658766 68.610355 
L 119.890345 69.921671 
L 118.911398 70.057912 
L 107.16403 72.237761 
L 95.416661 74.962573 
L 83.669293 78.232348 
L 74.019669 81.365882 
L 71.921924 82.160618 
L 60.174556 87.246934 
L 48.753503 92.810092 
L 48.427188 93.000829 
L 48.427188 104.254303 
L 48.427188 115.698513 
L 48.427188 116.749332 
z
" style="fill:#b9d0f9;fill-opacity:0.5;"/>
   </g>
   <g id="PathCollection_7">
    <path clip-path="url(#p9bf523e86d)" d="M 107.16403 254.868708 
L 118.911398 256.564147 
L 130.658766 257.835726 
L 142.406135 258.683445 
L 154.153503 259.107305 
L 165.900872 259.107305 
L 177.64824 258.683445 
L 189.395609 257.835726 
L 201.142977 256.564147 
L 212.890345 254.868708 
L 223.087714 253.029039 
L 224.637714 252.714456 
L 236.385082 249.853404 
L 248.132451 246.515509 
L 259.879819 242.700772 
L 262.934497 241.584829 
L 271.627187 237.955531 
L 271.627187 230.140618 
L 271.627187 218.696408 
L 271.627187 218.505671 
L 271.300872 218.696408 
L 259.879819 224.259566 
L 248.132451 229.345882 
L 246.034706 230.140618 
L 236.385082 233.274152 
L 224.637714 236.543927 
L 212.890345 239.268739 
L 201.142977 241.448588 
L 200.16403 241.584829 
L 189.395609 242.896145 
L 177.64824 243.849829 
L 165.900872 244.326671 
L 154.153503 244.326671 
L 142.406135 243.849829 
L 130.658766 242.896145 
L 119.890345 241.584829 
L 118.911398 241.448588 
L 107.16403 239.268739 
L 95.416661 236.543927 
L 83.669293 233.274152 
L 74.019669 230.140618 
L 71.921924 229.345882 
L 60.174556 224.259566 
L 48.753503 218.696408 
L 48.427188 218.505671 
L 48.427188 218.696408 
L 48.427188 230.140618 
L 48.427188 237.955531 
L 57.119878 241.584829 
L 60.174556 242.700772 
L 71.921924 246.515509 
L 83.669293 249.853404 
L 95.416661 252.714456 
L 96.966661 253.029039 
z
" style="fill:#e3d9d3;fill-opacity:0.5;"/>
    <path clip-path="url(#p9bf523e86d)" d="M 48.753503 92.810092 
L 60.174556 87.246934 
L 71.921924 82.160618 
L 74.019669 81.365882 
L 83.669293 78.232348 
L 95.416661 74.962573 
L 107.16403 72.237761 
L 118.911398 70.057912 
L 119.890345 69.921671 
L 130.658766 68.610355 
L 142.406135 67.656671 
L 154.153503 67.179829 
L 165.900872 67.179829 
L 177.64824 67.656671 
L 189.395609 68.610355 
L 200.16403 69.921671 
L 201.142977 70.057912 
L 212.890345 72.237761 
L 224.637714 74.962573 
L 236.385082 78.232348 
L 246.034706 81.365882 
L 248.132451 82.160618 
L 259.879819 87.246934 
L 271.300872 92.810092 
L 271.627187 93.000829 
L 271.627187 92.810092 
L 271.627187 81.365882 
L 271.627187 73.550969 
L 262.934497 69.921671 
L 259.879819 68.805728 
L 248.132451 64.990991 
L 236.385082 61.653096 
L 224.637714 58.792044 
L 223.087714 58.477461 
L 212.890345 56.637792 
L 201.142977 54.942353 
L 189.395609 53.670774 
L 177.64824 52.823055 
L 165.900872 52.399195 
L 154.153503 52.399195 
L 142.406135 52.823055 
L 130.658766 53.670774 
L 118.911398 54.942353 
L 107.16403 56.637792 
L 96.966661 58.477461 
L 95.416661 58.792044 
L 83.669293 61.653096 
L 71.921924 64.990991 
L 60.174556 68.805728 
L 57.119878 69.921671 
L 48.427188 73.550969 
L 48.427188 81.365882 
L 48.427188 92.810092 
L 48.427188 93.000829 
z
" style="fill:#e3d9d3;fill-opacity:0.5;"/>
   </g>
   <g id="PathCollection_8">
    <path clip-path="url(#p9bf523e86d)" d="M 60.174556 259.787246 
L 71.921924 263.178123 
L 77.049744 264.47325 
L 83.669293 264.47325 
L 95.416661 264.47325 
L 107.16403 264.47325 
L 118.911398 264.47325 
L 130.658766 264.47325 
L 142.406135 264.47325 
L 154.153503 264.47325 
L 165.900872 264.47325 
L 177.64824 264.47325 
L 189.395609 264.47325 
L 201.142977 264.47325 
L 212.890345 264.47325 
L 224.637714 264.47325 
L 236.385082 264.47325 
L 243.004631 264.47325 
L 248.132451 263.178123 
L 259.879819 259.787246 
L 271.627187 255.972509 
L 271.627187 253.029039 
L 271.627187 241.584829 
L 271.627187 237.955531 
L 262.934497 241.584829 
L 259.879819 242.700772 
L 248.132451 246.515509 
L 236.385082 249.853404 
L 224.637714 252.714456 
L 223.087714 253.029039 
L 212.890345 254.868708 
L 201.142977 256.564147 
L 189.395609 257.835726 
L 177.64824 258.683445 
L 165.900872 259.107305 
L 154.153503 259.107305 
L 142.406135 258.683445 
L 130.658766 257.835726 
L 118.911398 256.564147 
L 107.16403 254.868708 
L 96.966661 253.029039 
L 95.416661 252.714456 
L 83.669293 249.853404 
L 71.921924 246.515509 
L 60.174556 242.700772 
L 57.119878 241.584829 
L 48.427188 237.955531 
L 48.427188 241.584829 
L 48.427188 253.029039 
L 48.427188 255.972509 
z
" style="fill:#f7ad90;fill-opacity:0.5;"/>
    <path clip-path="url(#p9bf523e86d)" d="M 57.119878 69.921671 
L 60.174556 68.805728 
L 71.921924 64.990991 
L 83.669293 61.653096 
L 95.416661 58.792044 
L 96.966661 58.477461 
L 107.16403 56.637792 
L 118.911398 54.942353 
L 130.658766 53.670774 
L 142.406135 52.823055 
L 154.153503 52.399195 
L 165.900872 52.399195 
L 177.64824 52.823055 
L 189.395609 53.670774 
L 201.142977 54.942353 
L 212.890345 56.637792 
L 223.087714 58.477461 
L 224.637714 58.792044 
L 236.385082 61.653096 
L 248.132451 64.990991 
L 259.879819 68.805728 
L 262.934497 69.921671 
L 271.627187 73.550969 
L 271.627187 69.921671 
L 271.627187 58.477461 
L 271.627187 55.533991 
L 259.879819 51.719254 
L 248.132451 48.328377 
L 243.004631 47.03325 
L 236.385082 47.03325 
L 224.637714 47.03325 
L 212.890345 47.03325 
L 201.142977 47.03325 
L 189.395609 47.03325 
L 177.64824 47.03325 
L 165.900872 47.03325 
L 154.153503 47.03325 
L 142.406135 47.03325 
L 130.658766 47.03325 
L 118.911398 47.03325 
L 107.16403 47.03325 
L 95.416661 47.03325 
L 83.669293 47.03325 
L 77.049744 47.03325 
L 71.921924 48.328377 
L 60.174556 51.719254 
L 48.427188 55.533991 
L 48.427188 58.477461 
L 48.427188 69.921671 
L 48.427188 73.550969 
z
" style="fill:#f7ad90;fill-opacity:0.5;"/>
   </g>
   <g id="PathCollection_9">
    <path clip-path="url(#p9bf523e86d)" d="M 60.174556 264.47325 
L 71.921924 264.47325 
L 77.049744 264.47325 
L 71.921924 263.178123 
L 60.174556 259.787246 
L 48.427188 255.972509 
L 48.427188 264.47325 
z
" style="fill:#d75445;fill-opacity:0.5;"/>
    <path clip-path="url(#p9bf523e86d)" d="M 248.132451 264.47325 
L 259.879819 264.47325 
L 271.627187 264.47325 
L 271.627187 255.972509 
L 259.879819 259.787246 
L 248.132451 263.178123 
L 243.004631 264.47325 
z
" style="fill:#d75445;fill-opacity:0.5;"/>
    <path clip-path="url(#p9bf523e86d)" d="M 60.174556 51.719254 
L 71.921924 48.328377 
L 77.049744 47.03325 
L 71.921924 47.03325 
L 60.174556 47.03325 
L 48.427188 47.03325 
L 48.427188 55.533991 
z
" style="fill:#d75445;fill-opacity:0.5;"/>
    <path clip-path="url(#p9bf523e86d)" d="M 248.132451 48.328377 
L 259.879819 51.719254 
L 271.627187 55.533991 
L 271.627187 47.03325 
L 259.879819 47.03325 
L 248.132451 47.03325 
L 243.004631 47.03325 
z
" style="fill:#d75445;fill-opacity:0.5;"/>
   </g>
   <g id="PathCollection_10">
    <defs>
     <path d="M -3.535534 3.535534 
L 3.535534 -3.535534 
M -3.535534 -3.535534 
L 3.535534 3.535534 
" id="m6921e4b95d" style="stroke:#000000;stroke-width:1.5;"/>
    </defs>
    <g clip-path="url(#p9bf523e86d)">
     <use style="stroke:#000000;stroke-width:1.5;" x="253.027187" xlink:href="#m6921e4b95d" y="83.27325"/>
     <use style="stroke:#000000;stroke-width:1.5;" x="160.027187" xlink:href="#m6921e4b95d" y="83.27325"/>
     <use style="stroke:#000000;stroke-width:1.5;" x="160.027187" xlink:href="#m6921e4b95d" y="155.75325"/>
     <use style="stroke:#000000;stroke-width:1.5;" x="160.027187" xlink:href="#m6921e4b95d" y="155.75325"/>
     <use style="stroke:#000000;stroke-width:1.5;" x="160.027187" xlink:href="#m6921e4b95d" y="155.75325"/>
     <use style="stroke:#000000;stroke-width:1.5;" x="160.027187" xlink:href="#m6921e4b95d" y="155.75325"/>
     <use style="stroke:#000000;stroke-width:1.5;" x="160.027187" xlink:href="#m6921e4b95d" y="155.75325"/>
     <use style="stroke:#000000;stroke-width:1.5;" x="160.027187" xlink:href="#m6921e4b95d" y="155.75325"/>
     <use style="stroke:#000000;stroke-width:1.5;" x="160.027187" xlink:href="#m6921e4b95d" y="155.75325"/>
     <use style="stroke:#000000;stroke-width:1.5;" x="160.027187" xlink:href="#m6921e4b95d" y="155.75325"/>
     <use style="stroke:#000000;stroke-width:1.5;" x="160.027187" xlink:href="#m6921e4b95d" y="155.75325"/>
     <use style="stroke:#000000;stroke-width:1.5;" x="160.027187" xlink:href="#m6921e4b95d" y="155.75325"/>
     <use style="stroke:#000000;stroke-width:1.5;" x="160.027187" xlink:href="#m6921e4b95d" y="155.75325"/>
     <use style="stroke:#000000;stroke-width:1.5;" x="160.027187" xlink:href="#m6921e4b95d" y="155.75325"/>
     <use style="stroke:#000000;stroke-width:1.5;" x="160.027187" xlink:href="#m6921e4b95d" y="155.75325"/>
     <use style="stroke:#000000;stroke-width:1.5;" x="160.027187" xlink:href="#m6921e4b95d" y="155.75325"/>
     <use style="stroke:#000000;stroke-width:1.5;" x="160.027187" xlink:href="#m6921e4b95d" y="155.75325"/>
     <use style="stroke:#000000;stroke-width:1.5;" x="160.027187" xlink:href="#m6921e4b95d" y="155.75325"/>
     <use style="stroke:#000000;stroke-width:1.5;" x="160.027187" xlink:href="#m6921e4b95d" y="155.75325"/>
     <use style="stroke:#000000;stroke-width:1.5;" x="160.027187" xlink:href="#m6921e4b95d" y="155.75325"/>
     <use style="stroke:#000000;stroke-width:1.5;" x="160.027187" xlink:href="#m6921e4b95d" y="155.75325"/>
     <use style="stroke:#000000;stroke-width:1.5;" x="160.027187" xlink:href="#m6921e4b95d" y="155.75325"/>
     <use style="stroke:#000000;stroke-width:1.5;" x="160.027187" xlink:href="#m6921e4b95d" y="155.75325"/>
     <use style="stroke:#000000;stroke-width:1.5;" x="160.027187" xlink:href="#m6921e4b95d" y="155.75325"/>
     <use style="stroke:#000000;stroke-width:1.5;" x="160.027187" xlink:href="#m6921e4b95d" y="155.75325"/>
     <use style="stroke:#000000;stroke-width:1.5;" x="160.027187" xlink:href="#m6921e4b95d" y="155.75325"/>
     <use style="stroke:#000000;stroke-width:1.5;" x="160.027187" xlink:href="#m6921e4b95d" y="155.75325"/>
     <use style="stroke:#000000;stroke-width:1.5;" x="160.027187" xlink:href="#m6921e4b95d" y="155.75325"/>
     <use style="stroke:#000000;stroke-width:1.5;" x="160.027187" xlink:href="#m6921e4b95d" y="155.75325"/>
     <use style="stroke:#000000;stroke-width:1.5;" x="160.027187" xlink:href="#m6921e4b95d" y="155.75325"/>
     <use style="stroke:#000000;stroke-width:1.5;" x="160.027187" xlink:href="#m6921e4b95d" y="155.75325"/>
     <use style="stroke:#000000;stroke-width:1.5;" x="160.027187" xlink:href="#m6921e4b95d" y="155.75325"/>
     <use style="stroke:#000000;stroke-width:1.5;" x="160.027187" xlink:href="#m6921e4b95d" y="155.75325"/>
     <use style="stroke:#000000;stroke-width:1.5;" x="160.027187" xlink:href="#m6921e4b95d" y="155.75325"/>
     <use style="stroke:#000000;stroke-width:1.5;" x="160.027187" xlink:href="#m6921e4b95d" y="155.75325"/>
     <use style="stroke:#000000;stroke-width:1.5;" x="160.027187" xlink:href="#m6921e4b95d" y="155.75325"/>
     <use style="stroke:#000000;stroke-width:1.5;" x="160.027187" xlink:href="#m6921e4b95d" y="155.75325"/>
     <use style="stroke:#000000;stroke-width:1.5;" x="160.027187" xlink:href="#m6921e4b95d" y="155.75325"/>
     <use style="stroke:#000000;stroke-width:1.5;" x="160.027187" xlink:href="#m6921e4b95d" y="155.75325"/>
     <use style="stroke:#000000;stroke-width:1.5;" x="160.027187" xlink:href="#m6921e4b95d" y="155.75325"/>
     <use style="stroke:#000000;stroke-width:1.5;" x="160.027187" xlink:href="#m6921e4b95d" y="155.75325"/>
     <use style="stroke:#000000;stroke-width:1.5;" x="160.027187" xlink:href="#m6921e4b95d" y="155.75325"/>
     <use style="stroke:#000000;stroke-width:1.5;" x="160.027187" xlink:href="#m6921e4b95d" y="155.75325"/>
     <use style="stroke:#000000;stroke-width:1.5;" x="160.027187" xlink:href="#m6921e4b95d" y="155.75325"/>
     <use style="stroke:#000000;stroke-width:1.5;" x="160.027187" xlink:href="#m6921e4b95d" y="155.75325"/>
     <use style="stroke:#000000;stroke-width:1.5;" x="160.027187" xlink:href="#m6921e4b95d" y="155.75325"/>
     <use style="stroke:#000000;stroke-width:1.5;" x="160.027187" xlink:href="#m6921e4b95d" y="155.75325"/>
     <use style="stroke:#000000;stroke-width:1.5;" x="160.027187" xlink:href="#m6921e4b95d" y="155.75325"/>
     <use style="stroke:#000000;stroke-width:1.5;" x="160.027187" xlink:href="#m6921e4b95d" y="155.75325"/>
     <use style="stroke:#000000;stroke-width:1.5;" x="160.027187" xlink:href="#m6921e4b95d" y="155.75325"/>
     <use style="stroke:#000000;stroke-width:1.5;" x="160.027187" xlink:href="#m6921e4b95d" y="155.75325"/>
    </g>
   </g>
   <g id="matplotlib.axis_1">
    <g id="xtick_1">
     <g id="line2d_1">
      <defs>
       <path d="M 0 0 
L 0 3.5 
" id="m2cbffb2c19" style="stroke:#000000;stroke-width:0.8;"/>
      </defs>
      <g>
       <use style="stroke:#000000;stroke-width:0.8;" x="48.427188" xlink:href="#m2cbffb2c19" y="264.47325"/>
      </g>
     </g>
     <g id="text_1">
      <!-- −3 -->
      <defs>
       <path d="M 10.59375 35.5 
L 73.1875 35.5 
L 73.1875 27.203125 
L 10.59375 27.203125 
z
" id="DejaVuSans-8722"/>
       <path d="M 40.578125 39.3125 
Q 47.65625 37.796875 51.625 33 
Q 55.609375 28.21875 55.609375 21.1875 
Q 55.609375 10.40625 48.1875 4.484375 
Q 40.765625 -1.421875 27.09375 -1.421875 
Q 22.515625 -1.421875 17.65625 -0.515625 
Q 12.796875 0.390625 7.625 2.203125 
L 7.625 11.71875 
Q 11.71875 9.328125 16.59375 8.109375 
Q 21.484375 6.890625 26.8125 6.890625 
Q 36.078125 6.890625 40.9375 10.546875 
Q 45.796875 14.203125 45.796875 21.1875 
Q 45.796875 27.640625 41.28125 31.265625 
Q 36.765625 34.90625 28.71875 34.90625 
L 20.21875 34.90625 
L 20.21875 43.015625 
L 29.109375 43.015625 
Q 36.375 43.015625 40.234375 45.921875 
Q 44.09375 48.828125 44.09375 54.296875 
Q 44.09375 59.90625 40.109375 62.90625 
Q 36.140625 65.921875 28.71875 65.921875 
Q 24.65625 65.921875 20.015625 65.03125 
Q 15.375 64.15625 9.8125 62.3125 
L 9.8125 71.09375 
Q 15.4375 72.65625 20.34375 73.4375 
Q 25.25 74.21875 29.59375 74.21875 
Q 40.828125 74.21875 47.359375 69.109375 
Q 53.90625 64.015625 53.90625 55.328125 
Q 53.90625 49.265625 50.4375 45.09375 
Q 46.96875 40.921875 40.578125 39.3125 
z
" id="DejaVuSans-51"/>
      </defs>
      <g transform="translate(41.056094 279.071687)scale(0.1 -0.1)">
       <use xlink:href="#DejaVuSans-8722"/>
       <use x="83.789062" xlink:href="#DejaVuSans-51"/>
      </g>
     </g>
    </g>
    <g id="xtick_2">
     <g id="line2d_2">
      <g>
       <use style="stroke:#000000;stroke-width:0.8;" x="85.627188" xlink:href="#m2cbffb2c19" y="264.47325"/>
      </g>
     </g>
     <g id="text_2">
      <!-- −2 -->
      <defs>
       <path d="M 19.1875 8.296875 
L 53.609375 8.296875 
L 53.609375 0 
L 7.328125 0 
L 7.328125 8.296875 
Q 12.9375 14.109375 22.625 23.890625 
Q 32.328125 33.6875 34.8125 36.53125 
Q 39.546875 41.84375 41.421875 45.53125 
Q 43.3125 49.21875 43.3125 52.78125 
Q 43.3125 58.59375 39.234375 62.25 
Q 35.15625 65.921875 28.609375 65.921875 
Q 23.96875 65.921875 18.8125 64.3125 
Q 13.671875 62.703125 7.8125 59.421875 
L 7.8125 69.390625 
Q 13.765625 71.78125 18.9375 73 
Q 24.125 74.21875 28.421875 74.21875 
Q 39.75 74.21875 46.484375 68.546875 
Q 53.21875 62.890625 53.21875 53.421875 
Q 53.21875 48.921875 51.53125 44.890625 
Q 49.859375 40.875 45.40625 35.40625 
Q 44.1875 33.984375 37.640625 27.21875 
Q 31.109375 20.453125 19.1875 8.296875 
z
" id="DejaVuSans-50"/>
      </defs>
      <g transform="translate(78.256094 279.071687)scale(0.1 -0.1)">
       <use xlink:href="#DejaVuSans-8722"/>
       <use x="83.789062" xlink:href="#DejaVuSans-50"/>
      </g>
     </g>
    </g>
    <g id="xtick_3">
     <g id="line2d_3">
      <g>
       <use style="stroke:#000000;stroke-width:0.8;" x="122.827188" xlink:href="#m2cbffb2c19" y="264.47325"/>
      </g>
     </g>
     <g id="text_3">
      <!-- −1 -->
      <defs>
       <path d="M 12.40625 8.296875 
L 28.515625 8.296875 
L 28.515625 63.921875 
L 10.984375 60.40625 
L 10.984375 69.390625 
L 28.421875 72.90625 
L 38.28125 72.90625 
L 38.28125 8.296875 
L 54.390625 8.296875 
L 54.390625 0 
L 12.40625 0 
z
" id="DejaVuSans-49"/>
      </defs>
      <g transform="translate(115.456094 279.071687)scale(0.1 -0.1)">
       <use xlink:href="#DejaVuSans-8722"/>
       <use x="83.789062" xlink:href="#DejaVuSans-49"/>
      </g>
     </g>
    </g>
    <g id="xtick_4">
     <g id="line2d_4">
      <g>
       <use style="stroke:#000000;stroke-width:0.8;" x="160.027187" xlink:href="#m2cbffb2c19" y="264.47325"/>
      </g>
     </g>
     <g id="text_4">
      <!-- 0 -->
      <defs>
       <path d="M 31.78125 66.40625 
Q 24.171875 66.40625 20.328125 58.90625 
Q 16.5 51.421875 16.5 36.375 
Q 16.5 21.390625 20.328125 13.890625 
Q 24.171875 6.390625 31.78125 6.390625 
Q 39.453125 6.390625 43.28125 13.890625 
Q 47.125 21.390625 47.125 36.375 
Q 47.125 51.421875 43.28125 58.90625 
Q 39.453125 66.40625 31.78125 66.40625 
z
M 31.78125 74.21875 
Q 44.046875 74.21875 50.515625 64.515625 
Q 56.984375 54.828125 56.984375 36.375 
Q 56.984375 17.96875 50.515625 8.265625 
Q 44.046875 -1.421875 31.78125 -1.421875 
Q 19.53125 -1.421875 13.0625 8.265625 
Q 6.59375 17.96875 6.59375 36.375 
Q 6.59375 54.828125 13.0625 64.515625 
Q 19.53125 74.21875 31.78125 74.21875 
z
" id="DejaVuSans-48"/>
      </defs>
      <g transform="translate(156.845937 279.071687)scale(0.1 -0.1)">
       <use xlink:href="#DejaVuSans-48"/>
      </g>
     </g>
    </g>
    <g id="xtick_5">
     <g id="line2d_5">
      <g>
       <use style="stroke:#000000;stroke-width:0.8;" x="197.227187" xlink:href="#m2cbffb2c19" y="264.47325"/>
      </g>
     </g>
     <g id="text_5">
      <!-- 1 -->
      <g transform="translate(194.045937 279.071687)scale(0.1 -0.1)">
       <use xlink:href="#DejaVuSans-49"/>
      </g>
     </g>
    </g>
    <g id="xtick_6">
     <g id="line2d_6">
      <g>
       <use style="stroke:#000000;stroke-width:0.8;" x="234.427188" xlink:href="#m2cbffb2c19" y="264.47325"/>
      </g>
     </g>
     <g id="text_6">
      <!-- 2 -->
      <g transform="translate(231.245937 279.071687)scale(0.1 -0.1)">
       <use xlink:href="#DejaVuSans-50"/>
      </g>
     </g>
    </g>
    <g id="xtick_7">
     <g id="line2d_7">
      <g>
       <use style="stroke:#000000;stroke-width:0.8;" x="271.627187" xlink:href="#m2cbffb2c19" y="264.47325"/>
      </g>
     </g>
     <g id="text_7">
      <!-- 3 -->
      <g transform="translate(268.445938 279.071687)scale(0.1 -0.1)">
       <use xlink:href="#DejaVuSans-51"/>
      </g>
     </g>
    </g>
    <g id="text_8">
     <!-- $x_0$ -->
     <defs>
      <path d="M 60.015625 54.6875 
L 34.90625 27.875 
L 50.296875 0 
L 39.984375 0 
L 28.421875 21.6875 
L 8.296875 0 
L -2.59375 0 
L 24.3125 28.8125 
L 10.015625 54.6875 
L 20.3125 54.6875 
L 30.8125 34.90625 
L 49.125 54.6875 
z
" id="DejaVuSans-Oblique-120"/>
     </defs>
     <g transform="translate(151.467187 297.308875)scale(0.16 -0.16)">
      <use transform="translate(0 0.3125)" xlink:href="#DejaVuSans-Oblique-120"/>
      <use transform="translate(59.179688 -16.09375)scale(0.7)" xlink:href="#DejaVuSans-48"/>
     </g>
    </g>
   </g>
   <g id="matplotlib.axis_2">
    <g id="ytick_1">
     <g id="line2d_8">
      <defs>
       <path d="M 0 0 
L -3.5 0 
" id="mafaad93ad5" style="stroke:#000000;stroke-width:0.8;"/>
      </defs>
      <g>
       <use style="stroke:#000000;stroke-width:0.8;" x="48.427188" xlink:href="#mafaad93ad5" y="264.47325"/>
      </g>
     </g>
     <g id="text_9">
      <!-- −3 -->
      <g transform="translate(26.685 268.272469)scale(0.1 -0.1)">
       <use xlink:href="#DejaVuSans-8722"/>
       <use x="83.789062" xlink:href="#DejaVuSans-51"/>
      </g>
     </g>
    </g>
    <g id="ytick_2">
     <g id="line2d_9">
      <g>
       <use style="stroke:#000000;stroke-width:0.8;" x="48.427188" xlink:href="#mafaad93ad5" y="228.23325"/>
      </g>
     </g>
     <g id="text_10">
      <!-- −2 -->
      <g transform="translate(26.685 232.032469)scale(0.1 -0.1)">
       <use xlink:href="#DejaVuSans-8722"/>
       <use x="83.789062" xlink:href="#DejaVuSans-50"/>
      </g>
     </g>
    </g>
    <g id="ytick_3">
     <g id="line2d_10">
      <g>
       <use style="stroke:#000000;stroke-width:0.8;" x="48.427188" xlink:href="#mafaad93ad5" y="191.99325"/>
      </g>
     </g>
     <g id="text_11">
      <!-- −1 -->
      <g transform="translate(26.685 195.792469)scale(0.1 -0.1)">
       <use xlink:href="#DejaVuSans-8722"/>
       <use x="83.789062" xlink:href="#DejaVuSans-49"/>
      </g>
     </g>
    </g>
    <g id="ytick_4">
     <g id="line2d_11">
      <g>
       <use style="stroke:#000000;stroke-width:0.8;" x="48.427188" xlink:href="#mafaad93ad5" y="155.75325"/>
      </g>
     </g>
     <g id="text_12">
      <!-- 0 -->
      <g transform="translate(35.064688 159.552469)scale(0.1 -0.1)">
       <use xlink:href="#DejaVuSans-48"/>
      </g>
     </g>
    </g>
    <g id="ytick_5">
     <g id="line2d_12">
      <g>
       <use style="stroke:#000000;stroke-width:0.8;" x="48.427188" xlink:href="#mafaad93ad5" y="119.51325"/>
      </g>
     </g>
     <g id="text_13">
      <!-- 1 -->
      <g transform="translate(35.064688 123.312469)scale(0.1 -0.1)">
       <use xlink:href="#DejaVuSans-49"/>
      </g>
     </g>
    </g>
    <g id="ytick_6">
     <g id="line2d_13">
      <g>
       <use style="stroke:#000000;stroke-width:0.8;" x="48.427188" xlink:href="#mafaad93ad5" y="83.27325"/>
      </g>
     </g>
     <g id="text_14">
      <!-- 2 -->
      <g transform="translate(35.064688 87.072469)scale(0.1 -0.1)">
       <use xlink:href="#DejaVuSans-50"/>
      </g>
     </g>
    </g>
    <g id="ytick_7">
     <g id="line2d_14">
      <g>
       <use style="stroke:#000000;stroke-width:0.8;" x="48.427188" xlink:href="#mafaad93ad5" y="47.03325"/>
      </g>
     </g>
     <g id="text_15">
      <!-- 3 -->
      <g transform="translate(35.064688 50.832469)scale(0.1 -0.1)">
       <use xlink:href="#DejaVuSans-51"/>
      </g>
     </g>
    </g>
    <g id="text_16">
     <!-- $x_1$ -->
     <g transform="translate(19.3575 164.31325)rotate(-90)scale(0.16 -0.16)">
      <use transform="translate(0 0.3125)" xlink:href="#DejaVuSans-Oblique-120"/>
      <use transform="translate(59.179688 -16.09375)scale(0.7)" xlink:href="#DejaVuSans-49"/>
     </g>
    </g>
   </g>
   <g id="line2d_15">
    <path clip-path="url(#p9bf523e86d)" d="M 253.027187 83.27325 
L 160.027187 83.27325 
L 160.027187 155.75325 
L 160.027187 155.75325 
L 160.027187 155.75325 
L 160.027187 155.75325 
L 160.027187 155.75325 
L 160.027187 155.75325 
L 160.027187 155.75325 
L 160.027187 155.75325 
L 160.027187 155.75325 
L 160.027187 155.75325 
L 160.027187 155.75325 
L 160.027187 155.75325 
L 160.027187 155.75325 
L 160.027187 155.75325 
L 160.027187 155.75325 
L 160.027187 155.75325 
L 160.027187 155.75325 
L 160.027187 155.75325 
L 160.027187 155.75325 
L 160.027187 155.75325 
L 160.027187 155.75325 
L 160.027187 155.75325 
L 160.027187 155.75325 
L 160.027187 155.75325 
L 160.027187 155.75325 
L 160.027187 155.75325 
L 160.027187 155.75325 
L 160.027187 155.75325 
L 160.027187 155.75325 
L 160.027187 155.75325 
L 160.027187 155.75325 
L 160.027187 155.75325 
L 160.027187 155.75325 
L 160.027187 155.75325 
L 160.027187 155.75325 
L 160.027187 155.75325 
L 160.027187 155.75325 
L 160.027187 155.75325 
L 160.027187 155.75325 
L 160.027187 155.75325 
L 160.027187 155.75325 
L 160.027187 155.75325 
L 160.027187 155.75325 
L 160.027187 155.75325 
L 160.027187 155.75325 
L 160.027187 155.75325 
L 160.027187 155.75325 
L 160.027187 155.75325 
L 160.027187 155.75325 
" style="fill:none;stroke:#000000;stroke-linecap:square;stroke-width:1.5;"/>
   </g>
   <g id="patch_3">
    <path d="M 48.427188 264.47325 
L 48.427188 47.03325 
" style="fill:none;stroke:#000000;stroke-linecap:square;stroke-linejoin:miter;stroke-width:0.8;"/>
   </g>
   <g id="patch_4">
    <path d="M 271.627187 264.47325 
L 271.627187 47.03325 
" style="fill:none;stroke:#000000;stroke-linecap:square;stroke-linejoin:miter;stroke-width:0.8;"/>
   </g>
   <g id="patch_5">
    <path d="M 48.427188 264.47325 
L 271.627187 264.47325 
" style="fill:none;stroke:#000000;stroke-linecap:square;stroke-linejoin:miter;stroke-width:0.8;"/>
   </g>
   <g id="patch_6">
    <path d="M 48.427188 47.03325 
L 271.627187 47.03325 
" style="fill:none;stroke:#000000;stroke-linecap:square;stroke-linejoin:miter;stroke-width:0.8;"/>
   </g>
   <g id="text_17">
    <!-- Descent with orthogonal -->
    <defs>
     <path d="M 19.671875 64.796875 
L 19.671875 8.109375 
L 31.59375 8.109375 
Q 46.6875 8.109375 53.6875 14.9375 
Q 60.6875 21.78125 60.6875 36.53125 
Q 60.6875 51.171875 53.6875 57.984375 
Q 46.6875 64.796875 31.59375 64.796875 
z
M 9.8125 72.90625 
L 30.078125 72.90625 
Q 51.265625 72.90625 61.171875 64.09375 
Q 71.09375 55.28125 71.09375 36.53125 
Q 71.09375 17.671875 61.125 8.828125 
Q 51.171875 0 30.078125 0 
L 9.8125 0 
z
" id="DejaVuSans-68"/>
     <path d="M 56.203125 29.59375 
L 56.203125 25.203125 
L 14.890625 25.203125 
Q 15.484375 15.921875 20.484375 11.0625 
Q 25.484375 6.203125 34.421875 6.203125 
Q 39.59375 6.203125 44.453125 7.46875 
Q 49.3125 8.734375 54.109375 11.28125 
L 54.109375 2.78125 
Q 49.265625 0.734375 44.1875 -0.34375 
Q 39.109375 -1.421875 33.890625 -1.421875 
Q 20.796875 -1.421875 13.15625 6.1875 
Q 5.515625 13.8125 5.515625 26.8125 
Q 5.515625 40.234375 12.765625 48.109375 
Q 20.015625 56 32.328125 56 
Q 43.359375 56 49.78125 48.890625 
Q 56.203125 41.796875 56.203125 29.59375 
z
M 47.21875 32.234375 
Q 47.125 39.59375 43.09375 43.984375 
Q 39.0625 48.390625 32.421875 48.390625 
Q 24.90625 48.390625 20.390625 44.140625 
Q 15.875 39.890625 15.1875 32.171875 
z
" id="DejaVuSans-101"/>
     <path d="M 44.28125 53.078125 
L 44.28125 44.578125 
Q 40.484375 46.53125 36.375 47.5 
Q 32.28125 48.484375 27.875 48.484375 
Q 21.1875 48.484375 17.84375 46.4375 
Q 14.5 44.390625 14.5 40.28125 
Q 14.5 37.15625 16.890625 35.375 
Q 19.28125 33.59375 26.515625 31.984375 
L 29.59375 31.296875 
Q 39.15625 29.25 43.1875 25.515625 
Q 47.21875 21.78125 47.21875 15.09375 
Q 47.21875 7.46875 41.1875 3.015625 
Q 35.15625 -1.421875 24.609375 -1.421875 
Q 20.21875 -1.421875 15.453125 -0.5625 
Q 10.6875 0.296875 5.421875 2 
L 5.421875 11.28125 
Q 10.40625 8.6875 15.234375 7.390625 
Q 20.0625 6.109375 24.8125 6.109375 
Q 31.15625 6.109375 34.5625 8.28125 
Q 37.984375 10.453125 37.984375 14.40625 
Q 37.984375 18.0625 35.515625 20.015625 
Q 33.0625 21.96875 24.703125 23.78125 
L 21.578125 24.515625 
Q 13.234375 26.265625 9.515625 29.90625 
Q 5.8125 33.546875 5.8125 39.890625 
Q 5.8125 47.609375 11.28125 51.796875 
Q 16.75 56 26.8125 56 
Q 31.78125 56 36.171875 55.265625 
Q 40.578125 54.546875 44.28125 53.078125 
z
" id="DejaVuSans-115"/>
     <path d="M 48.78125 52.59375 
L 48.78125 44.1875 
Q 44.96875 46.296875 41.140625 47.34375 
Q 37.3125 48.390625 33.40625 48.390625 
Q 24.65625 48.390625 19.8125 42.84375 
Q 14.984375 37.3125 14.984375 27.296875 
Q 14.984375 17.28125 19.8125 11.734375 
Q 24.65625 6.203125 33.40625 6.203125 
Q 37.3125 6.203125 41.140625 7.25 
Q 44.96875 8.296875 48.78125 10.40625 
L 48.78125 2.09375 
Q 45.015625 0.34375 40.984375 -0.53125 
Q 36.96875 -1.421875 32.421875 -1.421875 
Q 20.0625 -1.421875 12.78125 6.34375 
Q 5.515625 14.109375 5.515625 27.296875 
Q 5.515625 40.671875 12.859375 48.328125 
Q 20.21875 56 33.015625 56 
Q 37.15625 56 41.109375 55.140625 
Q 45.0625 54.296875 48.78125 52.59375 
z
" id="DejaVuSans-99"/>
     <path d="M 54.890625 33.015625 
L 54.890625 0 
L 45.90625 0 
L 45.90625 32.71875 
Q 45.90625 40.484375 42.875 44.328125 
Q 39.84375 48.1875 33.796875 48.1875 
Q 26.515625 48.1875 22.3125 43.546875 
Q 18.109375 38.921875 18.109375 30.90625 
L 18.109375 0 
L 9.078125 0 
L 9.078125 54.6875 
L 18.109375 54.6875 
L 18.109375 46.1875 
Q 21.34375 51.125 25.703125 53.5625 
Q 30.078125 56 35.796875 56 
Q 45.21875 56 50.046875 50.171875 
Q 54.890625 44.34375 54.890625 33.015625 
z
" id="DejaVuSans-110"/>
     <path d="M 18.3125 70.21875 
L 18.3125 54.6875 
L 36.8125 54.6875 
L 36.8125 47.703125 
L 18.3125 47.703125 
L 18.3125 18.015625 
Q 18.3125 11.328125 20.140625 9.421875 
Q 21.96875 7.515625 27.59375 7.515625 
L 36.8125 7.515625 
L 36.8125 0 
L 27.59375 0 
Q 17.1875 0 13.234375 3.875 
Q 9.28125 7.765625 9.28125 18.015625 
L 9.28125 47.703125 
L 2.6875 47.703125 
L 2.6875 54.6875 
L 9.28125 54.6875 
L 9.28125 70.21875 
z
" id="DejaVuSans-116"/>
     <path id="DejaVuSans-32"/>
     <path d="M 4.203125 54.6875 
L 13.1875 54.6875 
L 24.421875 12.015625 
L 35.59375 54.6875 
L 46.1875 54.6875 
L 57.421875 12.015625 
L 68.609375 54.6875 
L 77.59375 54.6875 
L 63.28125 0 
L 52.6875 0 
L 40.921875 44.828125 
L 29.109375 0 
L 18.5 0 
z
" id="DejaVuSans-119"/>
     <path d="M 9.421875 54.6875 
L 18.40625 54.6875 
L 18.40625 0 
L 9.421875 0 
z
M 9.421875 75.984375 
L 18.40625 75.984375 
L 18.40625 64.59375 
L 9.421875 64.59375 
z
" id="DejaVuSans-105"/>
     <path d="M 54.890625 33.015625 
L 54.890625 0 
L 45.90625 0 
L 45.90625 32.71875 
Q 45.90625 40.484375 42.875 44.328125 
Q 39.84375 48.1875 33.796875 48.1875 
Q 26.515625 48.1875 22.3125 43.546875 
Q 18.109375 38.921875 18.109375 30.90625 
L 18.109375 0 
L 9.078125 0 
L 9.078125 75.984375 
L 18.109375 75.984375 
L 18.109375 46.1875 
Q 21.34375 51.125 25.703125 53.5625 
Q 30.078125 56 35.796875 56 
Q 45.21875 56 50.046875 50.171875 
Q 54.890625 44.34375 54.890625 33.015625 
z
" id="DejaVuSans-104"/>
     <path d="M 30.609375 48.390625 
Q 23.390625 48.390625 19.1875 42.75 
Q 14.984375 37.109375 14.984375 27.296875 
Q 14.984375 17.484375 19.15625 11.84375 
Q 23.34375 6.203125 30.609375 6.203125 
Q 37.796875 6.203125 41.984375 11.859375 
Q 46.1875 17.53125 46.1875 27.296875 
Q 46.1875 37.015625 41.984375 42.703125 
Q 37.796875 48.390625 30.609375 48.390625 
z
M 30.609375 56 
Q 42.328125 56 49.015625 48.375 
Q 55.71875 40.765625 55.71875 27.296875 
Q 55.71875 13.875 49.015625 6.21875 
Q 42.328125 -1.421875 30.609375 -1.421875 
Q 18.84375 -1.421875 12.171875 6.21875 
Q 5.515625 13.875 5.515625 27.296875 
Q 5.515625 40.765625 12.171875 48.375 
Q 18.84375 56 30.609375 56 
z
" id="DejaVuSans-111"/>
     <path d="M 41.109375 46.296875 
Q 39.59375 47.171875 37.8125 47.578125 
Q 36.03125 48 33.890625 48 
Q 26.265625 48 22.1875 43.046875 
Q 18.109375 38.09375 18.109375 28.8125 
L 18.109375 0 
L 9.078125 0 
L 9.078125 54.6875 
L 18.109375 54.6875 
L 18.109375 46.1875 
Q 20.953125 51.171875 25.484375 53.578125 
Q 30.03125 56 36.53125 56 
Q 37.453125 56 38.578125 55.875 
Q 39.703125 55.765625 41.0625 55.515625 
z
" id="DejaVuSans-114"/>
     <path d="M 45.40625 27.984375 
Q 45.40625 37.75 41.375 43.109375 
Q 37.359375 48.484375 30.078125 48.484375 
Q 22.859375 48.484375 18.828125 43.109375 
Q 14.796875 37.75 14.796875 27.984375 
Q 14.796875 18.265625 18.828125 12.890625 
Q 22.859375 7.515625 30.078125 7.515625 
Q 37.359375 7.515625 41.375 12.890625 
Q 45.40625 18.265625 45.40625 27.984375 
z
M 54.390625 6.78125 
Q 54.390625 -7.171875 48.1875 -13.984375 
Q 42 -20.796875 29.203125 -20.796875 
Q 24.46875 -20.796875 20.265625 -20.09375 
Q 16.0625 -19.390625 12.109375 -17.921875 
L 12.109375 -9.1875 
Q 16.0625 -11.328125 19.921875 -12.34375 
Q 23.78125 -13.375 27.78125 -13.375 
Q 36.625 -13.375 41.015625 -8.765625 
Q 45.40625 -4.15625 45.40625 5.171875 
L 45.40625 9.625 
Q 42.625 4.78125 38.28125 2.390625 
Q 33.9375 0 27.875 0 
Q 17.828125 0 11.671875 7.65625 
Q 5.515625 15.328125 5.515625 27.984375 
Q 5.515625 40.671875 11.671875 48.328125 
Q 17.828125 56 27.875 56 
Q 33.9375 56 38.28125 53.609375 
Q 42.625 51.21875 45.40625 46.390625 
L 45.40625 54.6875 
L 54.390625 54.6875 
z
" id="DejaVuSans-103"/>
     <path d="M 34.28125 27.484375 
Q 23.390625 27.484375 19.1875 25 
Q 14.984375 22.515625 14.984375 16.5 
Q 14.984375 11.71875 18.140625 8.90625 
Q 21.296875 6.109375 26.703125 6.109375 
Q 34.1875 6.109375 38.703125 11.40625 
Q 43.21875 16.703125 43.21875 25.484375 
L 43.21875 27.484375 
z
M 52.203125 31.203125 
L 52.203125 0 
L 43.21875 0 
L 43.21875 8.296875 
Q 40.140625 3.328125 35.546875 0.953125 
Q 30.953125 -1.421875 24.3125 -1.421875 
Q 15.921875 -1.421875 10.953125 3.296875 
Q 6 8.015625 6 15.921875 
Q 6 25.140625 12.171875 29.828125 
Q 18.359375 34.515625 30.609375 34.515625 
L 43.21875 34.515625 
L 43.21875 35.40625 
Q 43.21875 41.609375 39.140625 45 
Q 35.0625 48.390625 27.6875 48.390625 
Q 23 48.390625 18.546875 47.265625 
Q 14.109375 46.140625 10.015625 43.890625 
L 10.015625 52.203125 
Q 14.9375 54.109375 19.578125 55.046875 
Q 24.21875 56 28.609375 56 
Q 40.484375 56 46.34375 49.84375 
Q 52.203125 43.703125 52.203125 31.203125 
z
" id="DejaVuSans-97"/>
     <path d="M 9.421875 75.984375 
L 18.40625 75.984375 
L 18.40625 0 
L 9.421875 0 
z
" id="DejaVuSans-108"/>
    </defs>
    <g transform="translate(49.45375 20.877187)scale(0.18 -0.18)">
     <use xlink:href="#DejaVuSans-68"/>
     <use x="77.001953" xlink:href="#DejaVuSans-101"/>
     <use x="138.525391" xlink:href="#DejaVuSans-115"/>
     <use x="190.625" xlink:href="#DejaVuSans-99"/>
     <use x="245.605469" xlink:href="#DejaVuSans-101"/>
     <use x="307.128906" xlink:href="#DejaVuSans-110"/>
     <use x="370.507812" xlink:href="#DejaVuSans-116"/>
     <use x="409.716797" xlink:href="#DejaVuSans-32"/>
     <use x="441.503906" xlink:href="#DejaVuSans-119"/>
     <use x="523.291016" xlink:href="#DejaVuSans-105"/>
     <use x="551.074219" xlink:href="#DejaVuSans-116"/>
     <use x="590.283203" xlink:href="#DejaVuSans-104"/>
     <use x="653.662109" xlink:href="#DejaVuSans-32"/>
     <use x="685.449219" xlink:href="#DejaVuSans-111"/>
     <use x="746.630859" xlink:href="#DejaVuSans-114"/>
     <use x="787.744141" xlink:href="#DejaVuSans-116"/>
     <use x="826.953125" xlink:href="#DejaVuSans-104"/>
     <use x="890.332031" xlink:href="#DejaVuSans-111"/>
     <use x="951.513672" xlink:href="#DejaVuSans-103"/>
     <use x="1014.990234" xlink:href="#DejaVuSans-111"/>
     <use x="1076.171875" xlink:href="#DejaVuSans-110"/>
     <use x="1139.550781" xlink:href="#DejaVuSans-97"/>
     <use x="1200.830078" xlink:href="#DejaVuSans-108"/>
    </g>
    <!-- search directions -->
    <defs>
     <path d="M 45.40625 46.390625 
L 45.40625 75.984375 
L 54.390625 75.984375 
L 54.390625 0 
L 45.40625 0 
L 45.40625 8.203125 
Q 42.578125 3.328125 38.25 0.953125 
Q 33.9375 -1.421875 27.875 -1.421875 
Q 17.96875 -1.421875 11.734375 6.484375 
Q 5.515625 14.40625 5.515625 27.296875 
Q 5.515625 40.1875 11.734375 48.09375 
Q 17.96875 56 27.875 56 
Q 33.9375 56 38.25 53.625 
Q 42.578125 51.265625 45.40625 46.390625 
z
M 14.796875 27.296875 
Q 14.796875 17.390625 18.875 11.75 
Q 22.953125 6.109375 30.078125 6.109375 
Q 37.203125 6.109375 41.296875 11.75 
Q 45.40625 17.390625 45.40625 27.296875 
Q 45.40625 37.203125 41.296875 42.84375 
Q 37.203125 48.484375 30.078125 48.484375 
Q 22.953125 48.484375 18.875 42.84375 
Q 14.796875 37.203125 14.796875 27.296875 
z
" id="DejaVuSans-100"/>
    </defs>
    <g transform="translate(83.150312 41.03325)scale(0.18 -0.18)">
     <use xlink:href="#DejaVuSans-115"/>
     <use x="52.099609" xlink:href="#DejaVuSans-101"/>
     <use x="113.623047" xlink:href="#DejaVuSans-97"/>
     <use x="174.902344" xlink:href="#DejaVuSans-114"/>
     <use x="213.765625" xlink:href="#DejaVuSans-99"/>
     <use x="268.746094" xlink:href="#DejaVuSans-104"/>
     <use x="332.125" xlink:href="#DejaVuSans-32"/>
     <use x="363.912109" xlink:href="#DejaVuSans-100"/>
     <use x="427.388672" xlink:href="#DejaVuSans-105"/>
     <use x="455.171875" xlink:href="#DejaVuSans-114"/>
     <use x="494.035156" xlink:href="#DejaVuSans-101"/>
     <use x="555.558594" xlink:href="#DejaVuSans-99"/>
     <use x="610.539062" xlink:href="#DejaVuSans-116"/>
     <use x="649.748047" xlink:href="#DejaVuSans-105"/>
     <use x="677.53125" xlink:href="#DejaVuSans-111"/>
     <use x="738.712891" xlink:href="#DejaVuSans-110"/>
     <use x="802.091797" xlink:href="#DejaVuSans-115"/>
    </g>
   </g>
  </g>
 </g>
 <defs>
  <clipPath id="p9bf523e86d">
   <rect height="217.44" width="223.2" x="48.427188" y="47.03325"/>
  </clipPath>
 </defs>
</svg>
