<?xml version="1.0" encoding="utf-8" standalone="no"?>
<!DOCTYPE svg PUBLIC "-//W3C//DTD SVG 1.1//EN"
  "http://www.w3.org/Graphics/SVG/1.1/DTD/svg11.dtd">
<!-- Created with matplotlib (https://matplotlib.org/) -->
<svg height="287.680313pt" version="1.1" viewBox="0 0 282.008437 287.680313" width="282.008437pt" xmlns="http://www.w3.org/2000/svg" xmlns:xlink="http://www.w3.org/1999/xlink">
 <defs>
  <style type="text/css">
*{stroke-linecap:butt;stroke-linejoin:round;}
  </style>
 </defs>
 <g id="figure_1">
  <g id="patch_1">
   <path d="M 0 287.680313 
L 282.008437 287.680313 
L 282.008437 0 
L 0 0 
z
" style="fill:none;"/>
  </g>
  <g id="axes_1">
   <g id="patch_2">
    <path d="M 48.427188 244.317188 
L 271.627187 244.317188 
L 271.627187 26.877187 
L 48.427188 26.877187 
z
" style="fill:#ffffff;"/>
   </g>
   <g id="PathCollection_1">
    <path clip-path="url(#p2468ec589a)" d="M 107.16403 192.901897 
L 118.911398 189.768169 
L 123.743979 187.096135 
L 130.658766 183.05433 
L 142.221696 175.651924 
L 142.406135 175.526693 
L 154.153503 165.921852 
L 156.147655 164.207714 
L 165.900872 155.481828 
L 168.809942 152.763503 
L 177.64824 144.153291 
L 180.438573 141.319293 
L 189.395609 131.817772 
L 191.155154 129.875082 
L 201.014428 118.430872 
L 201.142977 118.251192 
L 208.741473 106.986661 
L 212.890345 100.25032 
L 215.633162 95.542451 
L 218.849902 84.09824 
L 212.890345 78.292478 
L 201.142977 81.426206 
L 196.310396 84.09824 
L 189.395609 88.140045 
L 177.832679 95.542451 
L 177.64824 95.667682 
L 165.900872 105.272523 
L 163.90672 106.986661 
L 154.153503 115.712547 
L 151.244433 118.430872 
L 142.406135 127.041084 
L 139.615802 129.875082 
L 130.658766 139.376603 
L 128.899221 141.319293 
L 119.039947 152.763503 
L 118.911398 152.943183 
L 111.312902 164.207714 
L 107.16403 170.944055 
L 104.421213 175.651924 
L 101.204473 187.096135 
z
" style="fill:#3c4ec2;fill-opacity:0.5;"/>
   </g>
   <g id="PathCollection_2">
    <path clip-path="url(#p2468ec589a)" d="M 60.174556 244.317187 
L 71.921924 244.317187 
L 78.76403 244.317187 
L 83.669293 241.965776 
L 95.416661 235.282698 
L 99.196999 232.872977 
L 107.16403 227.665942 
L 116.360202 221.428766 
L 118.911398 219.65351 
L 130.658766 210.954971 
L 131.887748 209.984556 
L 142.406135 201.500526 
L 145.983217 198.540345 
L 154.153503 191.630502 
L 159.382613 187.096135 
L 165.900872 181.31688 
L 172.136255 175.651924 
L 177.64824 170.529069 
L 184.289726 164.207714 
L 189.395609 159.233596 
L 195.884417 152.763503 
L 201.142977 147.393763 
L 206.957998 141.319293 
L 212.890345 134.969247 
L 217.544828 129.875082 
L 224.637714 121.915642 
L 227.67631 118.430872 
L 236.385082 108.183927 
L 237.381204 106.986661 
L 246.310168 95.542451 
L 248.132451 93.057092 
L 254.534849 84.09824 
L 259.879819 76.33681 
L 262.353373 72.65403 
L 269.213487 61.209819 
L 271.627187 56.431143 
L 271.627187 49.765609 
L 271.627187 38.321398 
L 271.627187 26.877187 
L 259.879819 26.877187 
L 248.132451 26.877187 
L 241.290345 26.877187 
L 236.385082 29.228599 
L 224.637714 35.911677 
L 220.857376 38.321398 
L 212.890345 43.528433 
L 203.694173 49.765609 
L 201.142977 51.540865 
L 189.395609 60.239404 
L 188.166627 61.209819 
L 177.64824 69.693849 
L 174.071158 72.65403 
L 165.900872 79.563873 
L 160.671762 84.09824 
L 154.153503 89.877495 
L 147.91812 95.542451 
L 142.406135 100.665306 
L 135.764649 106.986661 
L 130.658766 111.960779 
L 124.169958 118.430872 
L 118.911398 123.800612 
L 113.096377 129.875082 
L 107.16403 136.225128 
L 102.509547 141.319293 
L 95.416661 149.278733 
L 92.378065 152.763503 
L 83.669293 163.010448 
L 82.673171 164.207714 
L 73.744207 175.651924 
L 71.921924 178.137283 
L 65.519526 187.096135 
L 60.174556 194.857565 
L 57.701002 198.540345 
L 50.840888 209.984556 
L 48.427188 214.763232 
L 48.427188 221.428766 
L 48.427188 232.872977 
L 48.427188 244.317187 
z
M 101.204473 187.096135 
L 104.421213 175.651924 
L 107.16403 170.944055 
L 111.312902 164.207714 
L 118.911398 152.943183 
L 119.039947 152.763503 
L 128.899221 141.319293 
L 130.658766 139.376603 
L 139.615802 129.875082 
L 142.406135 127.041084 
L 151.244433 118.430872 
L 154.153503 115.712547 
L 163.90672 106.986661 
L 165.900872 105.272523 
L 177.64824 95.667682 
L 177.832679 95.542451 
L 189.395609 88.140045 
L 196.310396 84.09824 
L 201.142977 81.426206 
L 212.890345 78.292478 
L 218.849902 84.09824 
L 215.633162 95.542451 
L 212.890345 100.25032 
L 208.741473 106.986661 
L 201.142977 118.251192 
L 201.014428 118.430872 
L 191.155154 129.875082 
L 189.395609 131.817772 
L 180.438573 141.319293 
L 177.64824 144.153291 
L 168.809942 152.763503 
L 165.900872 155.481828 
L 156.147655 164.207714 
L 154.153503 165.921852 
L 142.406135 175.526693 
L 142.221696 175.651924 
L 130.658766 183.05433 
L 123.743979 187.096135 
L 118.911398 189.768169 
L 107.16403 192.901897 
z
" style="fill:#4358cb;fill-opacity:0.5;"/>
   </g>
   <g id="PathCollection_3">
    <path clip-path="url(#p2468ec589a)" d="M 83.669293 244.317187 
L 95.416661 244.317187 
L 107.16403 244.317187 
L 118.911398 244.317187 
L 121.530744 244.317187 
L 130.658766 237.005609 
L 135.726768 232.872977 
L 142.406135 227.344477 
L 149.429018 221.428766 
L 154.153503 217.388349 
L 162.662815 209.984556 
L 165.900872 207.123503 
L 175.451778 198.540345 
L 177.64824 196.535356 
L 187.817966 187.096135 
L 189.395609 185.608387 
L 199.782001 175.651924 
L 201.142977 174.326071 
L 211.363187 164.207714 
L 212.890345 162.670785 
L 222.579612 152.763503 
L 224.637714 150.623724 
L 233.44824 141.319293 
L 236.385082 138.164799 
L 243.985002 129.875082 
L 248.132451 125.272519 
L 254.204869 118.430872 
L 259.879819 111.923876 
L 264.121924 106.986661 
L 271.627187 98.0942 
L 271.627187 95.542451 
L 271.627187 84.09824 
L 271.627187 72.65403 
L 271.627187 61.209819 
L 271.627187 56.431143 
L 269.213487 61.209819 
L 262.353373 72.65403 
L 259.879819 76.33681 
L 254.534849 84.09824 
L 248.132451 93.057092 
L 246.310168 95.542451 
L 237.381204 106.986661 
L 236.385082 108.183927 
L 227.67631 118.430872 
L 224.637714 121.915642 
L 217.544828 129.875082 
L 212.890345 134.969247 
L 206.957998 141.319293 
L 201.142977 147.393763 
L 195.884417 152.763503 
L 189.395609 159.233596 
L 184.289726 164.207714 
L 177.64824 170.529069 
L 172.136255 175.651924 
L 165.900872 181.31688 
L 159.382613 187.096135 
L 154.153503 191.630502 
L 145.983217 198.540345 
L 142.406135 201.500526 
L 131.887748 209.984556 
L 130.658766 210.954971 
L 118.911398 219.65351 
L 116.360202 221.428766 
L 107.16403 227.665942 
L 99.196999 232.872977 
L 95.416661 235.282698 
L 83.669293 241.965776 
L 78.76403 244.317187 
z
" style="fill:#536edd;fill-opacity:0.5;"/>
    <path clip-path="url(#p2468ec589a)" d="M 50.840888 209.984556 
L 57.701002 198.540345 
L 60.174556 194.857565 
L 65.519526 187.096135 
L 71.921924 178.137283 
L 73.744207 175.651924 
L 82.673171 164.207714 
L 83.669293 163.010448 
L 92.378065 152.763503 
L 95.416661 149.278733 
L 102.509547 141.319293 
L 107.16403 136.225128 
L 113.096377 129.875082 
L 118.911398 123.800612 
L 124.169958 118.430872 
L 130.658766 111.960779 
L 135.764649 106.986661 
L 142.406135 100.665306 
L 147.91812 95.542451 
L 154.153503 89.877495 
L 160.671762 84.09824 
L 165.900872 79.563873 
L 174.071158 72.65403 
L 177.64824 69.693849 
L 188.166627 61.209819 
L 189.395609 60.239404 
L 201.142977 51.540865 
L 203.694173 49.765609 
L 212.890345 43.528433 
L 220.857376 38.321398 
L 224.637714 35.911677 
L 236.385082 29.228599 
L 241.290345 26.877187 
L 236.385082 26.877187 
L 224.637714 26.877187 
L 212.890345 26.877187 
L 201.142977 26.877187 
L 198.523631 26.877187 
L 189.395609 34.188766 
L 184.327607 38.321398 
L 177.64824 43.849898 
L 170.625357 49.765609 
L 165.900872 53.806026 
L 157.39156 61.209819 
L 154.153503 64.070872 
L 144.602597 72.65403 
L 142.406135 74.659019 
L 132.236409 84.09824 
L 130.658766 85.585988 
L 120.272374 95.542451 
L 118.911398 96.868304 
L 108.691187 106.986661 
L 107.16403 108.52359 
L 97.474763 118.430872 
L 95.416661 120.570651 
L 86.606135 129.875082 
L 83.669293 133.029576 
L 76.069373 141.319293 
L 71.921924 145.921856 
L 65.849506 152.763503 
L 60.174556 159.270499 
L 55.932451 164.207714 
L 48.427187 173.100175 
L 48.427188 175.651924 
L 48.427188 187.096135 
L 48.427188 198.540345 
L 48.427188 209.984556 
L 48.427188 214.763232 
z
" style="fill:#536edd;fill-opacity:0.5;"/>
   </g>
   <g id="PathCollection_4">
    <path clip-path="url(#p2468ec589a)" d="M 130.658766 244.317187 
L 142.406135 244.317187 
L 152.809342 244.317187 
L 154.153503 243.160869 
L 165.900872 232.916709 
L 165.949913 232.872977 
L 177.64824 222.329752 
L 178.636511 221.428766 
L 189.395609 211.513887 
L 191.036405 209.984556 
L 201.142977 200.461611 
L 203.159207 198.540345 
L 212.890345 189.165085 
L 215.014102 187.096135 
L 224.637714 177.616123 
L 226.609874 175.651924 
L 236.385082 165.806168 
L 237.954926 164.207714 
L 248.132451 153.72627 
L 249.057303 152.763503 
L 259.879819 141.367069 
L 259.924709 141.319293 
L 270.440238 129.875082 
L 271.627187 128.565609 
L 271.627187 118.430872 
L 271.627187 106.986661 
L 271.627187 98.0942 
L 264.121924 106.986661 
L 259.879819 111.923876 
L 254.204869 118.430872 
L 248.132451 125.272519 
L 243.985002 129.875082 
L 236.385082 138.164799 
L 233.44824 141.319293 
L 224.637714 150.623724 
L 222.579612 152.763503 
L 212.890345 162.670785 
L 211.363187 164.207714 
L 201.142977 174.326071 
L 199.782001 175.651924 
L 189.395609 185.608387 
L 187.817966 187.096135 
L 177.64824 196.535356 
L 175.451778 198.540345 
L 165.900872 207.123503 
L 162.662815 209.984556 
L 154.153503 217.388349 
L 149.429018 221.428766 
L 142.406135 227.344477 
L 135.726768 232.872977 
L 130.658766 237.005609 
L 121.530744 244.317187 
z
" style="fill:#6b8df0;fill-opacity:0.5;"/>
    <path clip-path="url(#p2468ec589a)" d="M 55.932451 164.207714 
L 60.174556 159.270499 
L 65.849506 152.763503 
L 71.921924 145.921856 
L 76.069373 141.319293 
L 83.669293 133.029576 
L 86.606135 129.875082 
L 95.416661 120.570651 
L 97.474763 118.430872 
L 107.16403 108.52359 
L 108.691187 106.986661 
L 118.911398 96.868304 
L 120.272374 95.542451 
L 130.658766 85.585988 
L 132.236409 84.09824 
L 142.406135 74.659019 
L 144.602597 72.65403 
L 154.153503 64.070872 
L 157.39156 61.209819 
L 165.900872 53.806026 
L 170.625357 49.765609 
L 177.64824 43.849898 
L 184.327607 38.321398 
L 189.395609 34.188766 
L 198.523631 26.877187 
L 189.395609 26.877187 
L 177.64824 26.877187 
L 167.245033 26.877187 
L 165.900872 28.033506 
L 154.153503 38.277666 
L 154.104462 38.321398 
L 142.406135 48.864623 
L 141.417864 49.765609 
L 130.658766 59.680488 
L 129.01797 61.209819 
L 118.911398 70.732764 
L 116.895168 72.65403 
L 107.16403 82.02929 
L 105.040273 84.09824 
L 95.416661 93.578252 
L 93.444501 95.542451 
L 83.669293 105.388207 
L 82.099449 106.986661 
L 71.921924 117.468105 
L 70.997072 118.430872 
L 60.174556 129.827306 
L 60.129666 129.875082 
L 49.614137 141.319293 
L 48.427188 142.628766 
L 48.427188 152.763503 
L 48.427188 164.207714 
L 48.427187 173.100175 
z
" style="fill:#6b8df0;fill-opacity:0.5;"/>
   </g>
   <g id="PathCollection_5">
    <path clip-path="url(#p2468ec589a)" d="M 154.153503 244.317187 
L 165.900872 244.317187 
L 177.64824 244.317187 
L 181.655274 244.317187 
L 189.395609 237.245796 
L 194.137145 232.872977 
L 201.142977 226.353997 
L 206.386796 221.428766 
L 212.890345 215.265061 
L 218.410646 209.984556 
L 224.637714 203.973587 
L 230.214883 198.540345 
L 236.385082 192.473976 
L 241.805468 187.096135 
L 248.132451 180.760419 
L 253.18815 175.651924 
L 259.879819 168.826889 
L 264.368474 164.207714 
L 271.627187 156.66713 
L 271.627187 152.763503 
L 271.627187 141.319293 
L 271.627187 129.875082 
L 271.627187 128.565609 
L 270.440238 129.875082 
L 259.924709 141.319293 
L 259.879819 141.367069 
L 249.057303 152.763503 
L 248.132451 153.72627 
L 237.954926 164.207714 
L 236.385082 165.806168 
L 226.609874 175.651924 
L 224.637714 177.616123 
L 215.014102 187.096135 
L 212.890345 189.165085 
L 203.159207 198.540345 
L 201.142977 200.461611 
L 191.036405 209.984556 
L 189.395609 211.513887 
L 178.636511 221.428766 
L 177.64824 222.329752 
L 165.949913 232.872977 
L 165.900872 232.916709 
L 154.153503 243.160869 
L 152.809342 244.317187 
z
" style="fill:#8db0fe;fill-opacity:0.5;"/>
    <path clip-path="url(#p2468ec589a)" d="M 49.614137 141.319293 
L 60.129666 129.875082 
L 60.174556 129.827306 
L 70.997072 118.430872 
L 71.921924 117.468105 
L 82.099449 106.986661 
L 83.669293 105.388207 
L 93.444501 95.542451 
L 95.416661 93.578252 
L 105.040273 84.09824 
L 107.16403 82.02929 
L 116.895168 72.65403 
L 118.911398 70.732764 
L 129.01797 61.209819 
L 130.658766 59.680488 
L 141.417864 49.765609 
L 142.406135 48.864623 
L 154.104462 38.321398 
L 154.153503 38.277666 
L 165.900872 28.033506 
L 167.245033 26.877187 
L 165.900872 26.877187 
L 154.153503 26.877187 
L 142.406135 26.877187 
L 138.399101 26.877187 
L 130.658766 33.948579 
L 125.91723 38.321398 
L 118.911398 44.840378 
L 113.667579 49.765609 
L 107.16403 55.929314 
L 101.643729 61.209819 
L 95.416661 67.220788 
L 89.839492 72.65403 
L 83.669293 78.720399 
L 78.248907 84.09824 
L 71.921924 90.433956 
L 66.866225 95.542451 
L 60.174556 102.367486 
L 55.685901 106.986661 
L 48.427188 114.527245 
L 48.427188 118.430872 
L 48.427188 129.875082 
L 48.427188 141.319293 
L 48.427188 142.628766 
z
" style="fill:#8db0fe;fill-opacity:0.5;"/>
   </g>
   <g id="PathCollection_6">
    <path clip-path="url(#p2468ec589a)" d="M 189.395609 244.317187 
L 201.142977 244.317187 
L 209.637588 244.317187 
L 212.890345 241.269783 
L 221.782128 232.872977 
L 224.637714 230.155529 
L 233.736166 221.428766 
L 236.385082 218.868291 
L 245.504148 209.984556 
L 248.132451 207.403999 
L 257.090386 198.540345 
L 259.879819 195.758452 
L 268.499057 187.096135 
L 271.627187 183.92732 
L 271.627187 175.651924 
L 271.627187 164.207714 
L 271.627187 156.66713 
L 264.368474 164.207714 
L 259.879819 168.826889 
L 253.18815 175.651924 
L 248.132451 180.760419 
L 241.805468 187.096135 
L 236.385082 192.473976 
L 230.214883 198.540345 
L 224.637714 203.973587 
L 218.410646 209.984556 
L 212.890345 215.265061 
L 206.386796 221.428766 
L 201.142977 226.353997 
L 194.137145 232.872977 
L 189.395609 237.245796 
L 181.655274 244.317187 
z
" style="fill:#b9d0f9;fill-opacity:0.5;"/>
    <path clip-path="url(#p2468ec589a)" d="M 55.685901 106.986661 
L 60.174556 102.367486 
L 66.866225 95.542451 
L 71.921924 90.433956 
L 78.248907 84.09824 
L 83.669293 78.720399 
L 89.839492 72.65403 
L 95.416661 67.220788 
L 101.643729 61.209819 
L 107.16403 55.929314 
L 113.667579 49.765609 
L 118.911398 44.840378 
L 125.91723 38.321398 
L 130.658766 33.948579 
L 138.399101 26.877187 
L 130.658766 26.877187 
L 118.911398 26.877187 
L 110.416787 26.877187 
L 107.16403 29.924592 
L 98.272247 38.321398 
L 95.416661 41.038846 
L 86.318209 49.765609 
L 83.669293 52.326084 
L 74.550227 61.209819 
L 71.921924 63.790376 
L 62.963989 72.65403 
L 60.174556 75.435923 
L 51.555318 84.09824 
L 48.427188 87.267055 
L 48.427188 95.542451 
L 48.427188 106.986661 
L 48.427188 114.527245 
z
" style="fill:#b9d0f9;fill-opacity:0.5;"/>
   </g>
   <g id="PathCollection_7">
    <path clip-path="url(#p2468ec589a)" d="M 212.890345 244.317187 
L 224.637714 244.317187 
L 236.385082 244.317187 
L 237.152082 244.317187 
L 248.132451 233.756018 
L 249.044675 232.872977 
L 259.879819 222.31745 
L 260.786252 221.428766 
L 271.627187 210.731762 
L 271.627187 209.984556 
L 271.627187 198.540345 
L 271.627187 187.096135 
L 271.627187 183.92732 
L 268.499057 187.096135 
L 259.879819 195.758452 
L 257.090386 198.540345 
L 248.132451 207.403999 
L 245.504148 209.984556 
L 236.385082 218.868291 
L 233.736166 221.428766 
L 224.637714 230.155529 
L 221.782128 232.872977 
L 212.890345 241.269783 
L 209.637588 244.317187 
z
" style="fill:#e3d9d3;fill-opacity:0.5;"/>
    <path clip-path="url(#p2468ec589a)" d="M 51.555318 84.09824 
L 60.174556 75.435923 
L 62.963989 72.65403 
L 71.921924 63.790376 
L 74.550227 61.209819 
L 83.669293 52.326084 
L 86.318209 49.765609 
L 95.416661 41.038846 
L 98.272247 38.321398 
L 107.16403 29.924592 
L 110.416787 26.877187 
L 107.16403 26.877187 
L 95.416661 26.877187 
L 83.669293 26.877187 
L 82.902293 26.877187 
L 71.921924 37.438357 
L 71.0097 38.321398 
L 60.174556 48.876925 
L 59.268123 49.765609 
L 48.427188 60.462613 
L 48.427188 61.209819 
L 48.427188 72.65403 
L 48.427188 84.09824 
L 48.427188 87.267055 
z
" style="fill:#e3d9d3;fill-opacity:0.5;"/>
   </g>
   <g id="PathCollection_8">
    <path clip-path="url(#p2468ec589a)" d="M 248.132451 244.317187 
L 259.879819 244.317187 
L 264.243712 244.317187 
L 271.627187 237.124253 
L 271.627187 232.872977 
L 271.627187 221.428766 
L 271.627187 210.731762 
L 260.786252 221.428766 
L 259.879819 222.31745 
L 249.044675 232.872977 
L 248.132451 233.756018 
L 237.152082 244.317187 
z
" style="fill:#f7ad90;fill-opacity:0.5;"/>
    <path clip-path="url(#p2468ec589a)" d="M 59.268123 49.765609 
L 60.174556 48.876925 
L 71.0097 38.321398 
L 71.921924 37.438357 
L 82.902293 26.877187 
L 71.921924 26.877187 
L 60.174556 26.877187 
L 55.810663 26.877187 
L 48.427188 34.070122 
L 48.427188 38.321398 
L 48.427188 49.765609 
L 48.427188 60.462613 
z
" style="fill:#f7ad90;fill-opacity:0.5;"/>
   </g>
   <g id="PathCollection_9">
    <path clip-path="url(#p2468ec589a)" d="M 271.627187 244.317187 
L 271.627187 237.124253 
L 264.243712 244.317187 
z
" style="fill:#d75445;fill-opacity:0.5;"/>
    <path clip-path="url(#p2468ec589a)" d="M 55.810663 26.877187 
L 48.427188 26.877187 
L 48.427188 34.070122 
z
" style="fill:#d75445;fill-opacity:0.5;"/>
   </g>
   <g id="PathCollection_10">
    <defs>
     <path d="M -3.535534 3.535534 
L 3.535534 -3.535534 
M -3.535534 -3.535534 
L 3.535534 3.535534 
" id="m4f1ee76a86" style="stroke:#000000;stroke-width:1.5;"/>
    </defs>
    <g clip-path="url(#p2468ec589a)">
     <use style="stroke:#000000;stroke-width:1.5;" x="253.027187" xlink:href="#m4f1ee76a86" y="63.117187"/>
     <use style="stroke:#000000;stroke-width:1.5;" x="236.442634" xlink:href="#m4f1ee76a86" y="57.346986"/>
     <use style="stroke:#000000;stroke-width:1.5;" x="226.847285" xlink:href="#m4f1ee76a86" y="83.520621"/>
     <use style="stroke:#000000;stroke-width:1.5;" x="214.931356" xlink:href="#m4f1ee76a86" y="79.374756"/>
     <use style="stroke:#000000;stroke-width:1.5;" x="208.037139" xlink:href="#m4f1ee76a86" y="98.180399"/>
     <use style="stroke:#000000;stroke-width:1.5;" x="199.475595" xlink:href="#m4f1ee76a86" y="95.201613"/>
     <use style="stroke:#000000;stroke-width:1.5;" x="194.52213" xlink:href="#m4f1ee76a86" y="108.713387"/>
     <use style="stroke:#000000;stroke-width:1.5;" x="188.370698" xlink:href="#m4f1ee76a86" y="106.573142"/>
     <use style="stroke:#000000;stroke-width:1.5;" x="184.811655" xlink:href="#m4f1ee76a86" y="116.281293"/>
     <use style="stroke:#000000;stroke-width:1.5;" x="180.391877" xlink:href="#m4f1ee76a86" y="114.743536"/>
     <use style="stroke:#000000;stroke-width:1.5;" x="177.83472" xlink:href="#m4f1ee76a86" y="121.718801"/>
     <use style="stroke:#000000;stroke-width:1.5;" x="174.659129" xlink:href="#m4f1ee76a86" y="120.613929"/>
     <use style="stroke:#000000;stroke-width:1.5;" x="172.821823" xlink:href="#m4f1ee76a86" y="125.625627"/>
     <use style="stroke:#000000;stroke-width:1.5;" x="170.540174" xlink:href="#m4f1ee76a86" y="124.831781"/>
     <use style="stroke:#000000;stroke-width:1.5;" x="169.220078" xlink:href="#m4f1ee76a86" y="128.432664"/>
     <use style="stroke:#000000;stroke-width:1.5;" x="167.580723" xlink:href="#m4f1ee76a86" y="127.86229"/>
     <use style="stroke:#000000;stroke-width:1.5;" x="166.632239" xlink:href="#m4f1ee76a86" y="130.449508"/>
     <use style="stroke:#000000;stroke-width:1.5;" x="165.45437" xlink:href="#m4f1ee76a86" y="130.039697"/>
     <use style="stroke:#000000;stroke-width:1.5;" x="164.772889" xlink:href="#m4f1ee76a86" y="131.898602"/>
     <use style="stroke:#000000;stroke-width:1.5;" x="163.926595" xlink:href="#m4f1ee76a86" y="131.604154"/>
     <use style="stroke:#000000;stroke-width:1.5;" x="163.436953" xlink:href="#m4f1ee76a86" y="132.93977"/>
     <use style="stroke:#000000;stroke-width:1.5;" x="162.828895" xlink:href="#m4f1ee76a86" y="132.728211"/>
     <use style="stroke:#000000;stroke-width:1.5;" x="162.477089" xlink:href="#m4f1ee76a86" y="133.687845"/>
     <use style="stroke:#000000;stroke-width:1.5;" x="162.040202" xlink:href="#m4f1ee76a86" y="133.53584"/>
     <use style="stroke:#000000;stroke-width:1.5;" x="161.787431" xlink:href="#m4f1ee76a86" y="134.225333"/>
     <use style="stroke:#000000;stroke-width:1.5;" x="161.47353" xlink:href="#m4f1ee76a86" y="134.116118"/>
     <use style="stroke:#000000;stroke-width:1.5;" x="161.291915" xlink:href="#m4f1ee76a86" y="134.611516"/>
     <use style="stroke:#000000;stroke-width:1.5;" x="161.066378" xlink:href="#m4f1ee76a86" y="134.533046"/>
     <use style="stroke:#000000;stroke-width:1.5;" x="160.935889" xlink:href="#m4f1ee76a86" y="134.888987"/>
     <use style="stroke:#000000;stroke-width:1.5;" x="160.773841" xlink:href="#m4f1ee76a86" y="134.832606"/>
     <use style="stroke:#000000;stroke-width:1.5;" x="160.680086" xlink:href="#m4f1ee76a86" y="135.088348"/>
     <use style="stroke:#000000;stroke-width:1.5;" x="160.563655" xlink:href="#m4f1ee76a86" y="135.047839"/>
     <use style="stroke:#000000;stroke-width:1.5;" x="160.496292" xlink:href="#m4f1ee76a86" y="135.231589"/>
     <use style="stroke:#000000;stroke-width:1.5;" x="160.412637" xlink:href="#m4f1ee76a86" y="135.202483"/>
     <use style="stroke:#000000;stroke-width:1.5;" x="160.364237" xlink:href="#m4f1ee76a86" y="135.334506"/>
     <use style="stroke:#000000;stroke-width:1.5;" x="160.304131" xlink:href="#m4f1ee76a86" y="135.313594"/>
     <use style="stroke:#000000;stroke-width:1.5;" x="160.269356" xlink:href="#m4f1ee76a86" y="135.408452"/>
     <use style="stroke:#000000;stroke-width:1.5;" x="160.226171" xlink:href="#m4f1ee76a86" y="135.393427"/>
     <use style="stroke:#000000;stroke-width:1.5;" x="160.201185" xlink:href="#m4f1ee76a86" y="135.461582"/>
     <use style="stroke:#000000;stroke-width:1.5;" x="160.170156" xlink:href="#m4f1ee76a86" y="135.450786"/>
     <use style="stroke:#000000;stroke-width:1.5;" x="160.152204" xlink:href="#m4f1ee76a86" y="135.499756"/>
     <use style="stroke:#000000;stroke-width:1.5;" x="160.12991" xlink:href="#m4f1ee76a86" y="135.491999"/>
     <use style="stroke:#000000;stroke-width:1.5;" x="160.117011" xlink:href="#m4f1ee76a86" y="135.527183"/>
     <use style="stroke:#000000;stroke-width:1.5;" x="160.100993" xlink:href="#m4f1ee76a86" y="135.52161"/>
     <use style="stroke:#000000;stroke-width:1.5;" x="160.091725" xlink:href="#m4f1ee76a86" y="135.54689"/>
     <use style="stroke:#000000;stroke-width:1.5;" x="160.080216" xlink:href="#m4f1ee76a86" y="135.542885"/>
     <use style="stroke:#000000;stroke-width:1.5;" x="160.073558" xlink:href="#m4f1ee76a86" y="135.561049"/>
     <use style="stroke:#000000;stroke-width:1.5;" x="160.065289" xlink:href="#m4f1ee76a86" y="135.558172"/>
     <use style="stroke:#000000;stroke-width:1.5;" x="160.060504" xlink:href="#m4f1ee76a86" y="135.571222"/>
     <use style="stroke:#000000;stroke-width:1.5;" x="160.054563" xlink:href="#m4f1ee76a86" y="135.569155"/>
     <use style="stroke:#000000;stroke-width:1.5;" x="160.051125" xlink:href="#m4f1ee76a86" y="135.578531"/>
    </g>
   </g>
   <g id="matplotlib.axis_1">
    <g id="xtick_1">
     <g id="line2d_1">
      <defs>
       <path d="M 0 0 
L 0 3.5 
" id="m97bd2350df" style="stroke:#000000;stroke-width:0.8;"/>
      </defs>
      <g>
       <use style="stroke:#000000;stroke-width:0.8;" x="48.427188" xlink:href="#m97bd2350df" y="244.317188"/>
      </g>
     </g>
     <g id="text_1">
      <!-- −3 -->
      <defs>
       <path d="M 10.59375 35.5 
L 73.1875 35.5 
L 73.1875 27.203125 
L 10.59375 27.203125 
z
" id="DejaVuSans-8722"/>
       <path d="M 40.578125 39.3125 
Q 47.65625 37.796875 51.625 33 
Q 55.609375 28.21875 55.609375 21.1875 
Q 55.609375 10.40625 48.1875 4.484375 
Q 40.765625 -1.421875 27.09375 -1.421875 
Q 22.515625 -1.421875 17.65625 -0.515625 
Q 12.796875 0.390625 7.625 2.203125 
L 7.625 11.71875 
Q 11.71875 9.328125 16.59375 8.109375 
Q 21.484375 6.890625 26.8125 6.890625 
Q 36.078125 6.890625 40.9375 10.546875 
Q 45.796875 14.203125 45.796875 21.1875 
Q 45.796875 27.640625 41.28125 31.265625 
Q 36.765625 34.90625 28.71875 34.90625 
L 20.21875 34.90625 
L 20.21875 43.015625 
L 29.109375 43.015625 
Q 36.375 43.015625 40.234375 45.921875 
Q 44.09375 48.828125 44.09375 54.296875 
Q 44.09375 59.90625 40.109375 62.90625 
Q 36.140625 65.921875 28.71875 65.921875 
Q 24.65625 65.921875 20.015625 65.03125 
Q 15.375 64.15625 9.8125 62.3125 
L 9.8125 71.09375 
Q 15.4375 72.65625 20.34375 73.4375 
Q 25.25 74.21875 29.59375 74.21875 
Q 40.828125 74.21875 47.359375 69.109375 
Q 53.90625 64.015625 53.90625 55.328125 
Q 53.90625 49.265625 50.4375 45.09375 
Q 46.96875 40.921875 40.578125 39.3125 
z
" id="DejaVuSans-51"/>
      </defs>
      <g transform="translate(41.056094 258.915625)scale(0.1 -0.1)">
       <use xlink:href="#DejaVuSans-8722"/>
       <use x="83.789062" xlink:href="#DejaVuSans-51"/>
      </g>
     </g>
    </g>
    <g id="xtick_2">
     <g id="line2d_2">
      <g>
       <use style="stroke:#000000;stroke-width:0.8;" x="85.627188" xlink:href="#m97bd2350df" y="244.317188"/>
      </g>
     </g>
     <g id="text_2">
      <!-- −2 -->
      <defs>
       <path d="M 19.1875 8.296875 
L 53.609375 8.296875 
L 53.609375 0 
L 7.328125 0 
L 7.328125 8.296875 
Q 12.9375 14.109375 22.625 23.890625 
Q 32.328125 33.6875 34.8125 36.53125 
Q 39.546875 41.84375 41.421875 45.53125 
Q 43.3125 49.21875 43.3125 52.78125 
Q 43.3125 58.59375 39.234375 62.25 
Q 35.15625 65.921875 28.609375 65.921875 
Q 23.96875 65.921875 18.8125 64.3125 
Q 13.671875 62.703125 7.8125 59.421875 
L 7.8125 69.390625 
Q 13.765625 71.78125 18.9375 73 
Q 24.125 74.21875 28.421875 74.21875 
Q 39.75 74.21875 46.484375 68.546875 
Q 53.21875 62.890625 53.21875 53.421875 
Q 53.21875 48.921875 51.53125 44.890625 
Q 49.859375 40.875 45.40625 35.40625 
Q 44.1875 33.984375 37.640625 27.21875 
Q 31.109375 20.453125 19.1875 8.296875 
z
" id="DejaVuSans-50"/>
      </defs>
      <g transform="translate(78.256094 258.915625)scale(0.1 -0.1)">
       <use xlink:href="#DejaVuSans-8722"/>
       <use x="83.789062" xlink:href="#DejaVuSans-50"/>
      </g>
     </g>
    </g>
    <g id="xtick_3">
     <g id="line2d_3">
      <g>
       <use style="stroke:#000000;stroke-width:0.8;" x="122.827188" xlink:href="#m97bd2350df" y="244.317188"/>
      </g>
     </g>
     <g id="text_3">
      <!-- −1 -->
      <defs>
       <path d="M 12.40625 8.296875 
L 28.515625 8.296875 
L 28.515625 63.921875 
L 10.984375 60.40625 
L 10.984375 69.390625 
L 28.421875 72.90625 
L 38.28125 72.90625 
L 38.28125 8.296875 
L 54.390625 8.296875 
L 54.390625 0 
L 12.40625 0 
z
" id="DejaVuSans-49"/>
      </defs>
      <g transform="translate(115.456094 258.915625)scale(0.1 -0.1)">
       <use xlink:href="#DejaVuSans-8722"/>
       <use x="83.789062" xlink:href="#DejaVuSans-49"/>
      </g>
     </g>
    </g>
    <g id="xtick_4">
     <g id="line2d_4">
      <g>
       <use style="stroke:#000000;stroke-width:0.8;" x="160.027187" xlink:href="#m97bd2350df" y="244.317188"/>
      </g>
     </g>
     <g id="text_4">
      <!-- 0 -->
      <defs>
       <path d="M 31.78125 66.40625 
Q 24.171875 66.40625 20.328125 58.90625 
Q 16.5 51.421875 16.5 36.375 
Q 16.5 21.390625 20.328125 13.890625 
Q 24.171875 6.390625 31.78125 6.390625 
Q 39.453125 6.390625 43.28125 13.890625 
Q 47.125 21.390625 47.125 36.375 
Q 47.125 51.421875 43.28125 58.90625 
Q 39.453125 66.40625 31.78125 66.40625 
z
M 31.78125 74.21875 
Q 44.046875 74.21875 50.515625 64.515625 
Q 56.984375 54.828125 56.984375 36.375 
Q 56.984375 17.96875 50.515625 8.265625 
Q 44.046875 -1.421875 31.78125 -1.421875 
Q 19.53125 -1.421875 13.0625 8.265625 
Q 6.59375 17.96875 6.59375 36.375 
Q 6.59375 54.828125 13.0625 64.515625 
Q 19.53125 74.21875 31.78125 74.21875 
z
" id="DejaVuSans-48"/>
      </defs>
      <g transform="translate(156.845937 258.915625)scale(0.1 -0.1)">
       <use xlink:href="#DejaVuSans-48"/>
      </g>
     </g>
    </g>
    <g id="xtick_5">
     <g id="line2d_5">
      <g>
       <use style="stroke:#000000;stroke-width:0.8;" x="197.227187" xlink:href="#m97bd2350df" y="244.317188"/>
      </g>
     </g>
     <g id="text_5">
      <!-- 1 -->
      <g transform="translate(194.045937 258.915625)scale(0.1 -0.1)">
       <use xlink:href="#DejaVuSans-49"/>
      </g>
     </g>
    </g>
    <g id="xtick_6">
     <g id="line2d_6">
      <g>
       <use style="stroke:#000000;stroke-width:0.8;" x="234.427188" xlink:href="#m97bd2350df" y="244.317188"/>
      </g>
     </g>
     <g id="text_6">
      <!-- 2 -->
      <g transform="translate(231.245937 258.915625)scale(0.1 -0.1)">
       <use xlink:href="#DejaVuSans-50"/>
      </g>
     </g>
    </g>
    <g id="xtick_7">
     <g id="line2d_7">
      <g>
       <use style="stroke:#000000;stroke-width:0.8;" x="271.627187" xlink:href="#m97bd2350df" y="244.317188"/>
      </g>
     </g>
     <g id="text_7">
      <!-- 3 -->
      <g transform="translate(268.445938 258.915625)scale(0.1 -0.1)">
       <use xlink:href="#DejaVuSans-51"/>
      </g>
     </g>
    </g>
    <g id="text_8">
     <!-- $x_0$ -->
     <defs>
      <path d="M 60.015625 54.6875 
L 34.90625 27.875 
L 50.296875 0 
L 39.984375 0 
L 28.421875 21.6875 
L 8.296875 0 
L -2.59375 0 
L 24.3125 28.8125 
L 10.015625 54.6875 
L 20.3125 54.6875 
L 30.8125 34.90625 
L 49.125 54.6875 
z
" id="DejaVuSans-Oblique-120"/>
     </defs>
     <g transform="translate(151.467187 277.152813)scale(0.16 -0.16)">
      <use transform="translate(0 0.3125)" xlink:href="#DejaVuSans-Oblique-120"/>
      <use transform="translate(59.179688 -16.09375)scale(0.7)" xlink:href="#DejaVuSans-48"/>
     </g>
    </g>
   </g>
   <g id="matplotlib.axis_2">
    <g id="ytick_1">
     <g id="line2d_8">
      <defs>
       <path d="M 0 0 
L -3.5 0 
" id="m7033e93d72" style="stroke:#000000;stroke-width:0.8;"/>
      </defs>
      <g>
       <use style="stroke:#000000;stroke-width:0.8;" x="48.427188" xlink:href="#m7033e93d72" y="244.317187"/>
      </g>
     </g>
     <g id="text_9">
      <!-- −3 -->
      <g transform="translate(26.685 248.116406)scale(0.1 -0.1)">
       <use xlink:href="#DejaVuSans-8722"/>
       <use x="83.789062" xlink:href="#DejaVuSans-51"/>
      </g>
     </g>
    </g>
    <g id="ytick_2">
     <g id="line2d_9">
      <g>
       <use style="stroke:#000000;stroke-width:0.8;" x="48.427188" xlink:href="#m7033e93d72" y="208.077187"/>
      </g>
     </g>
     <g id="text_10">
      <!-- −2 -->
      <g transform="translate(26.685 211.876406)scale(0.1 -0.1)">
       <use xlink:href="#DejaVuSans-8722"/>
       <use x="83.789062" xlink:href="#DejaVuSans-50"/>
      </g>
     </g>
    </g>
    <g id="ytick_3">
     <g id="line2d_10">
      <g>
       <use style="stroke:#000000;stroke-width:0.8;" x="48.427188" xlink:href="#m7033e93d72" y="171.837187"/>
      </g>
     </g>
     <g id="text_11">
      <!-- −1 -->
      <g transform="translate(26.685 175.636406)scale(0.1 -0.1)">
       <use xlink:href="#DejaVuSans-8722"/>
       <use x="83.789062" xlink:href="#DejaVuSans-49"/>
      </g>
     </g>
    </g>
    <g id="ytick_4">
     <g id="line2d_11">
      <g>
       <use style="stroke:#000000;stroke-width:0.8;" x="48.427188" xlink:href="#m7033e93d72" y="135.597187"/>
      </g>
     </g>
     <g id="text_12">
      <!-- 0 -->
      <g transform="translate(35.064688 139.396406)scale(0.1 -0.1)">
       <use xlink:href="#DejaVuSans-48"/>
      </g>
     </g>
    </g>
    <g id="ytick_5">
     <g id="line2d_12">
      <g>
       <use style="stroke:#000000;stroke-width:0.8;" x="48.427188" xlink:href="#m7033e93d72" y="99.357187"/>
      </g>
     </g>
     <g id="text_13">
      <!-- 1 -->
      <g transform="translate(35.064688 103.156406)scale(0.1 -0.1)">
       <use xlink:href="#DejaVuSans-49"/>
      </g>
     </g>
    </g>
    <g id="ytick_6">
     <g id="line2d_13">
      <g>
       <use style="stroke:#000000;stroke-width:0.8;" x="48.427188" xlink:href="#m7033e93d72" y="63.117187"/>
      </g>
     </g>
     <g id="text_14">
      <!-- 2 -->
      <g transform="translate(35.064688 66.916406)scale(0.1 -0.1)">
       <use xlink:href="#DejaVuSans-50"/>
      </g>
     </g>
    </g>
    <g id="ytick_7">
     <g id="line2d_14">
      <g>
       <use style="stroke:#000000;stroke-width:0.8;" x="48.427188" xlink:href="#m7033e93d72" y="26.877187"/>
      </g>
     </g>
     <g id="text_15">
      <!-- 3 -->
      <g transform="translate(35.064688 30.676406)scale(0.1 -0.1)">
       <use xlink:href="#DejaVuSans-51"/>
      </g>
     </g>
    </g>
    <g id="text_16">
     <!-- $x_1$ -->
     <g transform="translate(19.3575 144.157187)rotate(-90)scale(0.16 -0.16)">
      <use transform="translate(0 0.3125)" xlink:href="#DejaVuSans-Oblique-120"/>
      <use transform="translate(59.179688 -16.09375)scale(0.7)" xlink:href="#DejaVuSans-49"/>
     </g>
    </g>
   </g>
   <g id="line2d_15">
    <path clip-path="url(#p2468ec589a)" d="M 253.027187 63.117187 
L 236.442634 57.346986 
L 226.847285 83.520621 
L 214.931356 79.374756 
L 208.037139 98.180399 
L 199.475595 95.201613 
L 194.52213 108.713387 
L 188.370698 106.573142 
L 184.811655 116.281293 
L 180.391877 114.743536 
L 177.83472 121.718801 
L 174.659129 120.613929 
L 172.821823 125.625627 
L 170.540174 124.831781 
L 169.220078 128.432664 
L 167.580723 127.86229 
L 166.632239 130.449508 
L 165.45437 130.039697 
L 164.772889 131.898602 
L 163.926595 131.604154 
L 163.436953 132.93977 
L 162.828895 132.728211 
L 162.477089 133.687845 
L 162.040202 133.53584 
L 161.787431 134.225333 
L 161.47353 134.116118 
L 161.291915 134.611516 
L 161.066378 134.533046 
L 160.935889 134.888987 
L 160.773841 134.832606 
L 160.680086 135.088348 
L 160.563655 135.047839 
L 160.496292 135.231589 
L 160.412637 135.202483 
L 160.364237 135.334506 
L 160.304131 135.313594 
L 160.269356 135.408452 
L 160.226171 135.393427 
L 160.201185 135.461582 
L 160.170156 135.450786 
L 160.152204 135.499756 
L 160.12991 135.491999 
L 160.117011 135.527183 
L 160.100993 135.52161 
L 160.091725 135.54689 
L 160.080216 135.542885 
L 160.073558 135.561049 
L 160.065289 135.558172 
L 160.060504 135.571222 
L 160.054563 135.569155 
L 160.051125 135.578531 
" style="fill:none;stroke:#000000;stroke-linecap:square;stroke-width:1.5;"/>
   </g>
   <g id="patch_3">
    <path d="M 48.427188 244.317187 
L 48.427188 26.877187 
" style="fill:none;stroke:#000000;stroke-linecap:square;stroke-linejoin:miter;stroke-width:0.8;"/>
   </g>
   <g id="patch_4">
    <path d="M 271.627187 244.317187 
L 271.627187 26.877187 
" style="fill:none;stroke:#000000;stroke-linecap:square;stroke-linejoin:miter;stroke-width:0.8;"/>
   </g>
   <g id="patch_5">
    <path d="M 48.427188 244.317188 
L 271.627187 244.317188 
" style="fill:none;stroke:#000000;stroke-linecap:square;stroke-linejoin:miter;stroke-width:0.8;"/>
   </g>
   <g id="patch_6">
    <path d="M 48.427188 26.877187 
L 271.627187 26.877187 
" style="fill:none;stroke:#000000;stroke-linecap:square;stroke-linejoin:miter;stroke-width:0.8;"/>
   </g>
   <g id="text_17">
    <!-- Steepest descent -->
    <defs>
     <path d="M 53.515625 70.515625 
L 53.515625 60.890625 
Q 47.90625 63.578125 42.921875 64.890625 
Q 37.9375 66.21875 33.296875 66.21875 
Q 25.25 66.21875 20.875 63.09375 
Q 16.5 59.96875 16.5 54.203125 
Q 16.5 49.359375 19.40625 46.890625 
Q 22.3125 44.4375 30.421875 42.921875 
L 36.375 41.703125 
Q 47.40625 39.59375 52.65625 34.296875 
Q 57.90625 29 57.90625 20.125 
Q 57.90625 9.515625 50.796875 4.046875 
Q 43.703125 -1.421875 29.984375 -1.421875 
Q 24.8125 -1.421875 18.96875 -0.25 
Q 13.140625 0.921875 6.890625 3.21875 
L 6.890625 13.375 
Q 12.890625 10.015625 18.65625 8.296875 
Q 24.421875 6.59375 29.984375 6.59375 
Q 38.421875 6.59375 43.015625 9.90625 
Q 47.609375 13.234375 47.609375 19.390625 
Q 47.609375 24.75 44.3125 27.78125 
Q 41.015625 30.8125 33.5 32.328125 
L 27.484375 33.5 
Q 16.453125 35.6875 11.515625 40.375 
Q 6.59375 45.0625 6.59375 53.421875 
Q 6.59375 63.09375 13.40625 68.65625 
Q 20.21875 74.21875 32.171875 74.21875 
Q 37.3125 74.21875 42.625 73.28125 
Q 47.953125 72.359375 53.515625 70.515625 
z
" id="DejaVuSans-83"/>
     <path d="M 18.3125 70.21875 
L 18.3125 54.6875 
L 36.8125 54.6875 
L 36.8125 47.703125 
L 18.3125 47.703125 
L 18.3125 18.015625 
Q 18.3125 11.328125 20.140625 9.421875 
Q 21.96875 7.515625 27.59375 7.515625 
L 36.8125 7.515625 
L 36.8125 0 
L 27.59375 0 
Q 17.1875 0 13.234375 3.875 
Q 9.28125 7.765625 9.28125 18.015625 
L 9.28125 47.703125 
L 2.6875 47.703125 
L 2.6875 54.6875 
L 9.28125 54.6875 
L 9.28125 70.21875 
z
" id="DejaVuSans-116"/>
     <path d="M 56.203125 29.59375 
L 56.203125 25.203125 
L 14.890625 25.203125 
Q 15.484375 15.921875 20.484375 11.0625 
Q 25.484375 6.203125 34.421875 6.203125 
Q 39.59375 6.203125 44.453125 7.46875 
Q 49.3125 8.734375 54.109375 11.28125 
L 54.109375 2.78125 
Q 49.265625 0.734375 44.1875 -0.34375 
Q 39.109375 -1.421875 33.890625 -1.421875 
Q 20.796875 -1.421875 13.15625 6.1875 
Q 5.515625 13.8125 5.515625 26.8125 
Q 5.515625 40.234375 12.765625 48.109375 
Q 20.015625 56 32.328125 56 
Q 43.359375 56 49.78125 48.890625 
Q 56.203125 41.796875 56.203125 29.59375 
z
M 47.21875 32.234375 
Q 47.125 39.59375 43.09375 43.984375 
Q 39.0625 48.390625 32.421875 48.390625 
Q 24.90625 48.390625 20.390625 44.140625 
Q 15.875 39.890625 15.1875 32.171875 
z
" id="DejaVuSans-101"/>
     <path d="M 18.109375 8.203125 
L 18.109375 -20.796875 
L 9.078125 -20.796875 
L 9.078125 54.6875 
L 18.109375 54.6875 
L 18.109375 46.390625 
Q 20.953125 51.265625 25.265625 53.625 
Q 29.59375 56 35.59375 56 
Q 45.5625 56 51.78125 48.09375 
Q 58.015625 40.1875 58.015625 27.296875 
Q 58.015625 14.40625 51.78125 6.484375 
Q 45.5625 -1.421875 35.59375 -1.421875 
Q 29.59375 -1.421875 25.265625 0.953125 
Q 20.953125 3.328125 18.109375 8.203125 
z
M 48.6875 27.296875 
Q 48.6875 37.203125 44.609375 42.84375 
Q 40.53125 48.484375 33.40625 48.484375 
Q 26.265625 48.484375 22.1875 42.84375 
Q 18.109375 37.203125 18.109375 27.296875 
Q 18.109375 17.390625 22.1875 11.75 
Q 26.265625 6.109375 33.40625 6.109375 
Q 40.53125 6.109375 44.609375 11.75 
Q 48.6875 17.390625 48.6875 27.296875 
z
" id="DejaVuSans-112"/>
     <path d="M 44.28125 53.078125 
L 44.28125 44.578125 
Q 40.484375 46.53125 36.375 47.5 
Q 32.28125 48.484375 27.875 48.484375 
Q 21.1875 48.484375 17.84375 46.4375 
Q 14.5 44.390625 14.5 40.28125 
Q 14.5 37.15625 16.890625 35.375 
Q 19.28125 33.59375 26.515625 31.984375 
L 29.59375 31.296875 
Q 39.15625 29.25 43.1875 25.515625 
Q 47.21875 21.78125 47.21875 15.09375 
Q 47.21875 7.46875 41.1875 3.015625 
Q 35.15625 -1.421875 24.609375 -1.421875 
Q 20.21875 -1.421875 15.453125 -0.5625 
Q 10.6875 0.296875 5.421875 2 
L 5.421875 11.28125 
Q 10.40625 8.6875 15.234375 7.390625 
Q 20.0625 6.109375 24.8125 6.109375 
Q 31.15625 6.109375 34.5625 8.28125 
Q 37.984375 10.453125 37.984375 14.40625 
Q 37.984375 18.0625 35.515625 20.015625 
Q 33.0625 21.96875 24.703125 23.78125 
L 21.578125 24.515625 
Q 13.234375 26.265625 9.515625 29.90625 
Q 5.8125 33.546875 5.8125 39.890625 
Q 5.8125 47.609375 11.28125 51.796875 
Q 16.75 56 26.8125 56 
Q 31.78125 56 36.171875 55.265625 
Q 40.578125 54.546875 44.28125 53.078125 
z
" id="DejaVuSans-115"/>
     <path id="DejaVuSans-32"/>
     <path d="M 45.40625 46.390625 
L 45.40625 75.984375 
L 54.390625 75.984375 
L 54.390625 0 
L 45.40625 0 
L 45.40625 8.203125 
Q 42.578125 3.328125 38.25 0.953125 
Q 33.9375 -1.421875 27.875 -1.421875 
Q 17.96875 -1.421875 11.734375 6.484375 
Q 5.515625 14.40625 5.515625 27.296875 
Q 5.515625 40.1875 11.734375 48.09375 
Q 17.96875 56 27.875 56 
Q 33.9375 56 38.25 53.625 
Q 42.578125 51.265625 45.40625 46.390625 
z
M 14.796875 27.296875 
Q 14.796875 17.390625 18.875 11.75 
Q 22.953125 6.109375 30.078125 6.109375 
Q 37.203125 6.109375 41.296875 11.75 
Q 45.40625 17.390625 45.40625 27.296875 
Q 45.40625 37.203125 41.296875 42.84375 
Q 37.203125 48.484375 30.078125 48.484375 
Q 22.953125 48.484375 18.875 42.84375 
Q 14.796875 37.203125 14.796875 27.296875 
z
" id="DejaVuSans-100"/>
     <path d="M 48.78125 52.59375 
L 48.78125 44.1875 
Q 44.96875 46.296875 41.140625 47.34375 
Q 37.3125 48.390625 33.40625 48.390625 
Q 24.65625 48.390625 19.8125 42.84375 
Q 14.984375 37.3125 14.984375 27.296875 
Q 14.984375 17.28125 19.8125 11.734375 
Q 24.65625 6.203125 33.40625 6.203125 
Q 37.3125 6.203125 41.140625 7.25 
Q 44.96875 8.296875 48.78125 10.40625 
L 48.78125 2.09375 
Q 45.015625 0.34375 40.984375 -0.53125 
Q 36.96875 -1.421875 32.421875 -1.421875 
Q 20.0625 -1.421875 12.78125 6.34375 
Q 5.515625 14.109375 5.515625 27.296875 
Q 5.515625 40.671875 12.859375 48.328125 
Q 20.21875 56 33.015625 56 
Q 37.15625 56 41.109375 55.140625 
Q 45.0625 54.296875 48.78125 52.59375 
z
" id="DejaVuSans-99"/>
     <path d="M 54.890625 33.015625 
L 54.890625 0 
L 45.90625 0 
L 45.90625 32.71875 
Q 45.90625 40.484375 42.875 44.328125 
Q 39.84375 48.1875 33.796875 48.1875 
Q 26.515625 48.1875 22.3125 43.546875 
Q 18.109375 38.921875 18.109375 30.90625 
L 18.109375 0 
L 9.078125 0 
L 9.078125 54.6875 
L 18.109375 54.6875 
L 18.109375 46.1875 
Q 21.34375 51.125 25.703125 53.5625 
Q 30.078125 56 35.796875 56 
Q 45.21875 56 50.046875 50.171875 
Q 54.890625 44.34375 54.890625 33.015625 
z
" id="DejaVuSans-110"/>
    </defs>
    <g transform="translate(81.722969 20.877187)scale(0.18 -0.18)">
     <use xlink:href="#DejaVuSans-83"/>
     <use x="63.476562" xlink:href="#DejaVuSans-116"/>
     <use x="102.685547" xlink:href="#DejaVuSans-101"/>
     <use x="164.208984" xlink:href="#DejaVuSans-101"/>
     <use x="225.732422" xlink:href="#DejaVuSans-112"/>
     <use x="289.208984" xlink:href="#DejaVuSans-101"/>
     <use x="350.732422" xlink:href="#DejaVuSans-115"/>
     <use x="402.832031" xlink:href="#DejaVuSans-116"/>
     <use x="442.041016" xlink:href="#DejaVuSans-32"/>
     <use x="473.828125" xlink:href="#DejaVuSans-100"/>
     <use x="537.304688" xlink:href="#DejaVuSans-101"/>
     <use x="598.828125" xlink:href="#DejaVuSans-115"/>
     <use x="650.927734" xlink:href="#DejaVuSans-99"/>
     <use x="705.908203" xlink:href="#DejaVuSans-101"/>
     <use x="767.431641" xlink:href="#DejaVuSans-110"/>
     <use x="830.810547" xlink:href="#DejaVuSans-116"/>
    </g>
   </g>
  </g>
 </g>
 <defs>
  <clipPath id="p2468ec589a">
   <rect height="217.44" width="223.2" x="48.427188" y="26.877187"/>
  </clipPath>
 </defs>
</svg>
