<?xml version="1.0" encoding="utf-8" standalone="no"?>
<!DOCTYPE svg PUBLIC "-//W3C//DTD SVG 1.1//EN"
  "http://www.w3.org/Graphics/SVG/1.1/DTD/svg11.dtd">
<!-- Created with matplotlib (https://matplotlib.org/) -->
<svg height="286.04pt" version="1.1" viewBox="0 0 500.55 286.04" width="500.55pt" xmlns="http://www.w3.org/2000/svg" xmlns:xlink="http://www.w3.org/1999/xlink">
 <defs>
  <style type="text/css">
*{stroke-linecap:butt;stroke-linejoin:round;}
  </style>
 </defs>
 <g id="figure_1">
  <g id="patch_1">
   <path d="M 0 286.04 
L 500.55 286.04 
L 500.55 0 
L 0 0 
z
" style="fill:none;"/>
  </g>
  <g id="axes_1">
   <g id="patch_2">
    <path d="M 44.45 244.44 
L 490.85 244.44 
L 490.85 27 
L 44.45 27 
z
" style="fill:#ffffff;"/>
   </g>
   <g id="PathCollection_1">
    <path clip-path="url(#pf1f261dea8)" d="M 161.923684 193.024709 
L 185.418421 189.890982 
L 195.083584 187.218947 
L 208.913158 183.177143 
L 232.039016 175.774737 
L 232.407895 175.649506 
L 255.902632 166.044665 
L 259.890936 164.330526 
L 279.397368 155.60464 
L 285.21551 152.886316 
L 302.892105 144.276103 
L 308.472771 141.442105 
L 326.386842 131.940585 
L 329.905934 129.997895 
L 349.624482 118.553684 
L 349.881579 118.374005 
L 365.078571 107.109474 
L 373.376316 100.373133 
L 378.861949 95.665263 
L 385.295429 84.221053 
L 373.376316 78.415291 
L 349.881579 81.549018 
L 340.216416 84.221053 
L 326.386842 88.262857 
L 303.260984 95.665263 
L 302.892105 95.790494 
L 279.397368 105.395335 
L 275.409064 107.109474 
L 255.902632 115.83536 
L 250.08449 118.553684 
L 232.407895 127.163897 
L 226.827229 129.997895 
L 208.913158 139.499415 
L 205.394066 141.442105 
L 185.675518 152.886316 
L 185.418421 153.065995 
L 170.221429 164.330526 
L 161.923684 171.066867 
L 156.438051 175.774737 
L 150.004571 187.218947 
z
" style="fill:#3c4ec2;fill-opacity:0.5;"/>
   </g>
   <g id="PathCollection_2">
    <path clip-path="url(#pf1f261dea8)" d="M 67.944737 244.44 
L 91.439474 244.44 
L 105.123684 244.44 
L 114.934211 242.088588 
L 138.428947 235.40551 
L 145.989623 232.995789 
L 161.923684 227.788754 
L 180.316029 221.551579 
L 185.418421 219.776323 
L 208.913158 211.077784 
L 211.371121 210.107368 
L 232.407895 201.623339 
L 239.562059 198.663158 
L 255.902632 191.753314 
L 266.360851 187.218947 
L 279.397368 181.439692 
L 291.868136 175.774737 
L 302.892105 170.651881 
L 316.175077 164.330526 
L 326.386842 159.356409 
L 339.364459 152.886316 
L 349.881579 147.516576 
L 361.51162 141.442105 
L 373.376316 135.09206 
L 382.685281 129.997895 
L 396.871053 122.038454 
L 402.948246 118.553684 
L 420.365789 108.30674 
L 422.358033 107.109474 
L 440.21596 95.665263 
L 443.860526 93.179904 
L 456.665323 84.221053 
L 467.355263 76.459623 
L 472.302372 72.776842 
L 486.022598 61.332632 
L 490.85 56.553956 
L 490.85 49.888421 
L 490.85 38.444211 
L 490.85 27 
L 467.355263 27 
L 443.860526 27 
L 430.176316 27 
L 420.365789 29.351412 
L 396.871053 36.03449 
L 389.310377 38.444211 
L 373.376316 43.651246 
L 354.983971 49.888421 
L 349.881579 51.663677 
L 326.386842 60.362216 
L 323.928879 61.332632 
L 302.892105 69.816661 
L 295.737941 72.776842 
L 279.397368 79.686686 
L 268.939149 84.221053 
L 255.902632 90.000308 
L 243.431864 95.665263 
L 232.407895 100.788119 
L 219.124923 107.109474 
L 208.913158 112.083591 
L 195.935541 118.553684 
L 185.418421 123.923424 
L 173.78838 129.997895 
L 161.923684 136.34794 
L 152.614719 141.442105 
L 138.428947 149.401546 
L 132.351754 152.886316 
L 114.934211 163.13326 
L 112.941967 164.330526 
L 95.08404 175.774737 
L 91.439474 178.260096 
L 78.634677 187.218947 
L 67.944737 194.980377 
L 62.997628 198.663158 
L 49.277402 210.107368 
L 44.45 214.886044 
L 44.45 221.551579 
L 44.45 232.995789 
L 44.45 244.44 
z
M 150.004571 187.218947 
L 156.438051 175.774737 
L 161.923684 171.066867 
L 170.221429 164.330526 
L 185.418421 153.065995 
L 185.675518 152.886316 
L 205.394066 141.442105 
L 208.913158 139.499415 
L 226.827229 129.997895 
L 232.407895 127.163897 
L 250.08449 118.553684 
L 255.902632 115.83536 
L 275.409064 107.109474 
L 279.397368 105.395335 
L 302.892105 95.790494 
L 303.260984 95.665263 
L 326.386842 88.262857 
L 340.216416 84.221053 
L 349.881579 81.549018 
L 373.376316 78.415291 
L 385.295429 84.221053 
L 378.861949 95.665263 
L 373.376316 100.373133 
L 365.078571 107.109474 
L 349.881579 118.374005 
L 349.624482 118.553684 
L 329.905934 129.997895 
L 326.386842 131.940585 
L 308.472771 141.442105 
L 302.892105 144.276103 
L 285.21551 152.886316 
L 279.397368 155.60464 
L 259.890936 164.330526 
L 255.902632 166.044665 
L 232.407895 175.649506 
L 232.039016 175.774737 
L 208.913158 183.177143 
L 195.083584 187.218947 
L 185.418421 189.890982 
L 161.923684 193.024709 
z
" style="fill:#4358cb;fill-opacity:0.5;"/>
   </g>
   <g id="PathCollection_3">
    <path clip-path="url(#pf1f261dea8)" d="M 114.934211 244.44 
L 138.428947 244.44 
L 161.923684 244.44 
L 185.418421 244.44 
L 190.657112 244.44 
L 208.913158 237.128421 
L 219.049162 232.995789 
L 232.407895 227.467289 
L 246.453661 221.551579 
L 255.902632 217.511161 
L 272.921255 210.107368 
L 279.397368 207.246316 
L 298.499182 198.663158 
L 302.892105 196.658168 
L 323.231557 187.218947 
L 326.386842 185.7312 
L 347.159628 175.774737 
L 349.881579 174.448883 
L 370.322 164.330526 
L 373.376316 162.793597 
L 392.754849 152.886316 
L 396.871053 150.746537 
L 414.492105 141.442105 
L 420.365789 138.287611 
L 435.565629 129.997895 
L 443.860526 125.395332 
L 456.005362 118.553684 
L 467.355263 112.046688 
L 475.839474 107.109474 
L 490.85 98.217013 
L 490.85 95.665263 
L 490.85 84.221053 
L 490.85 72.776842 
L 490.85 61.332632 
L 490.85 56.553956 
L 486.022598 61.332632 
L 472.302372 72.776842 
L 467.355263 76.459623 
L 456.665323 84.221053 
L 443.860526 93.179904 
L 440.21596 95.665263 
L 422.358033 107.109474 
L 420.365789 108.30674 
L 402.948246 118.553684 
L 396.871053 122.038454 
L 382.685281 129.997895 
L 373.376316 135.09206 
L 361.51162 141.442105 
L 349.881579 147.516576 
L 339.364459 152.886316 
L 326.386842 159.356409 
L 316.175077 164.330526 
L 302.892105 170.651881 
L 291.868136 175.774737 
L 279.397368 181.439692 
L 266.360851 187.218947 
L 255.902632 191.753314 
L 239.562059 198.663158 
L 232.407895 201.623339 
L 211.371121 210.107368 
L 208.913158 211.077784 
L 185.418421 219.776323 
L 180.316029 221.551579 
L 161.923684 227.788754 
L 145.989623 232.995789 
L 138.428947 235.40551 
L 114.934211 242.088588 
L 105.123684 244.44 
z
" style="fill:#536edd;fill-opacity:0.5;"/>
    <path clip-path="url(#pf1f261dea8)" d="M 49.277402 210.107368 
L 62.997628 198.663158 
L 67.944737 194.980377 
L 78.634677 187.218947 
L 91.439474 178.260096 
L 95.08404 175.774737 
L 112.941967 164.330526 
L 114.934211 163.13326 
L 132.351754 152.886316 
L 138.428947 149.401546 
L 152.614719 141.442105 
L 161.923684 136.34794 
L 173.78838 129.997895 
L 185.418421 123.923424 
L 195.935541 118.553684 
L 208.913158 112.083591 
L 219.124923 107.109474 
L 232.407895 100.788119 
L 243.431864 95.665263 
L 255.902632 90.000308 
L 268.939149 84.221053 
L 279.397368 79.686686 
L 295.737941 72.776842 
L 302.892105 69.816661 
L 323.928879 61.332632 
L 326.386842 60.362216 
L 349.881579 51.663677 
L 354.983971 49.888421 
L 373.376316 43.651246 
L 389.310377 38.444211 
L 396.871053 36.03449 
L 420.365789 29.351412 
L 430.176316 27 
L 420.365789 27 
L 396.871053 27 
L 373.376316 27 
L 349.881579 27 
L 344.642888 27 
L 326.386842 34.311579 
L 316.250838 38.444211 
L 302.892105 43.972711 
L 288.846339 49.888421 
L 279.397368 53.928839 
L 262.378745 61.332632 
L 255.902632 64.193684 
L 236.800818 72.776842 
L 232.407895 74.781832 
L 212.068443 84.221053 
L 208.913158 85.7088 
L 188.140372 95.665263 
L 185.418421 96.991117 
L 164.978 107.109474 
L 161.923684 108.646403 
L 142.545151 118.553684 
L 138.428947 120.693463 
L 120.807895 129.997895 
L 114.934211 133.152389 
L 99.734371 141.442105 
L 91.439474 146.044668 
L 79.294638 152.886316 
L 67.944737 159.393312 
L 59.460526 164.330526 
L 44.45 173.222987 
L 44.45 175.774737 
L 44.45 187.218947 
L 44.45 198.663158 
L 44.45 210.107368 
L 44.45 214.886044 
z
" style="fill:#536edd;fill-opacity:0.5;"/>
   </g>
   <g id="PathCollection_4">
    <path clip-path="url(#pf1f261dea8)" d="M 208.913158 244.44 
L 232.407895 244.44 
L 253.214308 244.44 
L 255.902632 243.283681 
L 279.397368 233.039521 
L 279.495452 232.995789 
L 302.892105 222.452564 
L 304.868647 221.551579 
L 326.386842 211.6367 
L 329.668436 210.107368 
L 349.881579 200.584423 
L 353.91404 198.663158 
L 373.376316 189.287898 
L 377.62383 187.218947 
L 396.871053 177.738936 
L 400.815372 175.774737 
L 420.365789 165.92898 
L 423.505477 164.330526 
L 443.860526 153.849083 
L 445.710231 152.886316 
L 467.355263 141.489881 
L 467.445043 141.442105 
L 488.4761 129.997895 
L 490.85 128.688421 
L 490.85 118.553684 
L 490.85 107.109474 
L 490.85 98.217013 
L 475.839474 107.109474 
L 467.355263 112.046688 
L 456.005362 118.553684 
L 443.860526 125.395332 
L 435.565629 129.997895 
L 420.365789 138.287611 
L 414.492105 141.442105 
L 396.871053 150.746537 
L 392.754849 152.886316 
L 373.376316 162.793597 
L 370.322 164.330526 
L 349.881579 174.448883 
L 347.159628 175.774737 
L 326.386842 185.7312 
L 323.231557 187.218947 
L 302.892105 196.658168 
L 298.499182 198.663158 
L 279.397368 207.246316 
L 272.921255 210.107368 
L 255.902632 217.511161 
L 246.453661 221.551579 
L 232.407895 227.467289 
L 219.049162 232.995789 
L 208.913158 237.128421 
L 190.657112 244.44 
z
" style="fill:#6b8df0;fill-opacity:0.5;"/>
    <path clip-path="url(#pf1f261dea8)" d="M 59.460526 164.330526 
L 67.944737 159.393312 
L 79.294638 152.886316 
L 91.439474 146.044668 
L 99.734371 141.442105 
L 114.934211 133.152389 
L 120.807895 129.997895 
L 138.428947 120.693463 
L 142.545151 118.553684 
L 161.923684 108.646403 
L 164.978 107.109474 
L 185.418421 96.991117 
L 188.140372 95.665263 
L 208.913158 85.7088 
L 212.068443 84.221053 
L 232.407895 74.781832 
L 236.800818 72.776842 
L 255.902632 64.193684 
L 262.378745 61.332632 
L 279.397368 53.928839 
L 288.846339 49.888421 
L 302.892105 43.972711 
L 316.250838 38.444211 
L 326.386842 34.311579 
L 344.642888 27 
L 326.386842 27 
L 302.892105 27 
L 282.085692 27 
L 279.397368 28.156319 
L 255.902632 38.400479 
L 255.804548 38.444211 
L 232.407895 48.987436 
L 230.431353 49.888421 
L 208.913158 59.8033 
L 205.631564 61.332632 
L 185.418421 70.855577 
L 181.38596 72.776842 
L 161.923684 82.152102 
L 157.67617 84.221053 
L 138.428947 93.701064 
L 134.484628 95.665263 
L 114.934211 105.51102 
L 111.794523 107.109474 
L 91.439474 117.590917 
L 89.589769 118.553684 
L 67.944737 129.950119 
L 67.854957 129.997895 
L 46.8239 141.442105 
L 44.45 142.751579 
L 44.45 152.886316 
L 44.45 164.330526 
L 44.45 173.222987 
z
" style="fill:#6b8df0;fill-opacity:0.5;"/>
   </g>
   <g id="PathCollection_5">
    <path clip-path="url(#pf1f261dea8)" d="M 255.902632 244.44 
L 279.397368 244.44 
L 302.892105 244.44 
L 310.906174 244.44 
L 326.386842 237.368608 
L 335.869916 232.995789 
L 349.881579 226.476809 
L 360.369217 221.551579 
L 373.376316 215.387873 
L 384.416917 210.107368 
L 396.871053 204.0964 
L 408.025391 198.663158 
L 420.365789 192.596789 
L 431.206561 187.218947 
L 443.860526 180.883231 
L 453.971926 175.774737 
L 467.355263 168.949701 
L 476.332573 164.330526 
L 490.85 156.789943 
L 490.85 152.886316 
L 490.85 141.442105 
L 490.85 129.997895 
L 490.85 128.688421 
L 488.4761 129.997895 
L 467.445043 141.442105 
L 467.355263 141.489881 
L 445.710231 152.886316 
L 443.860526 153.849083 
L 423.505477 164.330526 
L 420.365789 165.92898 
L 400.815372 175.774737 
L 396.871053 177.738936 
L 377.62383 187.218947 
L 373.376316 189.287898 
L 353.91404 198.663158 
L 349.881579 200.584423 
L 329.668436 210.107368 
L 326.386842 211.6367 
L 304.868647 221.551579 
L 302.892105 222.452564 
L 279.495452 232.995789 
L 279.397368 233.039521 
L 255.902632 243.283681 
L 253.214308 244.44 
z
" style="fill:#8db0fe;fill-opacity:0.5;"/>
    <path clip-path="url(#pf1f261dea8)" d="M 46.8239 141.442105 
L 67.854957 129.997895 
L 67.944737 129.950119 
L 89.589769 118.553684 
L 91.439474 117.590917 
L 111.794523 107.109474 
L 114.934211 105.51102 
L 134.484628 95.665263 
L 138.428947 93.701064 
L 157.67617 84.221053 
L 161.923684 82.152102 
L 181.38596 72.776842 
L 185.418421 70.855577 
L 205.631564 61.332632 
L 208.913158 59.8033 
L 230.431353 49.888421 
L 232.407895 48.987436 
L 255.804548 38.444211 
L 255.902632 38.400479 
L 279.397368 28.156319 
L 282.085692 27 
L 279.397368 27 
L 255.902632 27 
L 232.407895 27 
L 224.393826 27 
L 208.913158 34.071392 
L 199.430084 38.444211 
L 185.418421 44.963191 
L 174.930783 49.888421 
L 161.923684 56.052127 
L 150.883083 61.332632 
L 138.428947 67.3436 
L 127.274609 72.776842 
L 114.934211 78.843211 
L 104.093439 84.221053 
L 91.439474 90.556769 
L 81.328074 95.665263 
L 67.944737 102.490299 
L 58.967427 107.109474 
L 44.45 114.650057 
L 44.45 118.553684 
L 44.45 129.997895 
L 44.45 141.442105 
L 44.45 142.751579 
z
" style="fill:#8db0fe;fill-opacity:0.5;"/>
   </g>
   <g id="PathCollection_6">
    <path clip-path="url(#pf1f261dea8)" d="M 326.386842 244.44 
L 349.881579 244.44 
L 366.870801 244.44 
L 373.376316 241.392595 
L 391.159881 232.995789 
L 396.871053 230.278342 
L 415.067957 221.551579 
L 420.365789 218.991104 
L 438.603922 210.107368 
L 443.860526 207.526811 
L 461.776397 198.663158 
L 467.355263 195.881265 
L 484.593739 187.218947 
L 490.85 184.050132 
L 490.85 175.774737 
L 490.85 164.330526 
L 490.85 156.789943 
L 476.332573 164.330526 
L 467.355263 168.949701 
L 453.971926 175.774737 
L 443.860526 180.883231 
L 431.206561 187.218947 
L 420.365789 192.596789 
L 408.025391 198.663158 
L 396.871053 204.0964 
L 384.416917 210.107368 
L 373.376316 215.387873 
L 360.369217 221.551579 
L 349.881579 226.476809 
L 335.869916 232.995789 
L 326.386842 237.368608 
L 310.906174 244.44 
z
" style="fill:#b9d0f9;fill-opacity:0.5;"/>
    <path clip-path="url(#pf1f261dea8)" d="M 58.967427 107.109474 
L 67.944737 102.490299 
L 81.328074 95.665263 
L 91.439474 90.556769 
L 104.093439 84.221053 
L 114.934211 78.843211 
L 127.274609 72.776842 
L 138.428947 67.3436 
L 150.883083 61.332632 
L 161.923684 56.052127 
L 174.930783 49.888421 
L 185.418421 44.963191 
L 199.430084 38.444211 
L 208.913158 34.071392 
L 224.393826 27 
L 208.913158 27 
L 185.418421 27 
L 168.429199 27 
L 161.923684 30.047405 
L 144.140119 38.444211 
L 138.428947 41.161658 
L 120.232043 49.888421 
L 114.934211 52.448896 
L 96.696078 61.332632 
L 91.439474 63.913189 
L 73.523603 72.776842 
L 67.944737 75.558735 
L 50.706261 84.221053 
L 44.45 87.389868 
L 44.45 95.665263 
L 44.45 107.109474 
L 44.45 114.650057 
z
" style="fill:#b9d0f9;fill-opacity:0.5;"/>
   </g>
   <g id="PathCollection_7">
    <path clip-path="url(#pf1f261dea8)" d="M 373.376316 244.44 
L 396.871053 244.44 
L 420.365789 244.44 
L 421.899788 244.44 
L 443.860526 233.87883 
L 445.684976 232.995789 
L 467.355263 222.440262 
L 469.168129 221.551579 
L 490.85 210.854574 
L 490.85 210.107368 
L 490.85 198.663158 
L 490.85 187.218947 
L 490.85 184.050132 
L 484.593739 187.218947 
L 467.355263 195.881265 
L 461.776397 198.663158 
L 443.860526 207.526811 
L 438.603922 210.107368 
L 420.365789 218.991104 
L 415.067957 221.551579 
L 396.871053 230.278342 
L 391.159881 232.995789 
L 373.376316 241.392595 
L 366.870801 244.44 
z
" style="fill:#e3d9d3;fill-opacity:0.5;"/>
    <path clip-path="url(#pf1f261dea8)" d="M 50.706261 84.221053 
L 67.944737 75.558735 
L 73.523603 72.776842 
L 91.439474 63.913189 
L 96.696078 61.332632 
L 114.934211 52.448896 
L 120.232043 49.888421 
L 138.428947 41.161658 
L 144.140119 38.444211 
L 161.923684 30.047405 
L 168.429199 27 
L 161.923684 27 
L 138.428947 27 
L 114.934211 27 
L 113.400212 27 
L 91.439474 37.56117 
L 89.615024 38.444211 
L 67.944737 48.999738 
L 66.131871 49.888421 
L 44.45 60.585426 
L 44.45 61.332632 
L 44.45 72.776842 
L 44.45 84.221053 
L 44.45 87.389868 
z
" style="fill:#e3d9d3;fill-opacity:0.5;"/>
   </g>
   <g id="PathCollection_8">
    <path clip-path="url(#pf1f261dea8)" d="M 443.860526 244.44 
L 467.355263 244.44 
L 476.083048 244.44 
L 490.85 237.247066 
L 490.85 232.995789 
L 490.85 221.551579 
L 490.85 210.854574 
L 469.168129 221.551579 
L 467.355263 222.440262 
L 445.684976 232.995789 
L 443.860526 233.87883 
L 421.899788 244.44 
z
" style="fill:#f7ad90;fill-opacity:0.5;"/>
    <path clip-path="url(#pf1f261dea8)" d="M 66.131871 49.888421 
L 67.944737 48.999738 
L 89.615024 38.444211 
L 91.439474 37.56117 
L 113.400212 27 
L 91.439474 27 
L 67.944737 27 
L 59.216952 27 
L 44.45 34.192934 
L 44.45 38.444211 
L 44.45 49.888421 
L 44.45 60.585426 
z
" style="fill:#f7ad90;fill-opacity:0.5;"/>
   </g>
   <g id="PathCollection_9">
    <path clip-path="url(#pf1f261dea8)" d="M 490.85 244.44 
L 490.85 237.247066 
L 476.083048 244.44 
z
" style="fill:#d75445;fill-opacity:0.5;"/>
    <path clip-path="url(#pf1f261dea8)" d="M 59.216952 27 
L 44.45 27 
L 44.45 34.192934 
z
" style="fill:#d75445;fill-opacity:0.5;"/>
   </g>
   <g id="matplotlib.axis_1">
    <g id="xtick_1">
     <g id="line2d_1">
      <defs>
       <path d="M 0 0 
L 0 3.5 
" id="ma81195ca0d" style="stroke:#000000;stroke-width:0.8;"/>
      </defs>
      <g>
       <use style="stroke:#000000;stroke-width:0.8;" x="44.45" xlink:href="#ma81195ca0d" y="244.44"/>
      </g>
     </g>
     <g id="text_1">
      <!-- −3 -->
      <defs>
       <path d="M 62.09375 22 
L 6.40625 22 
L 6.40625 28.59375 
L 62.09375 28.59375 
z
" id="STIXGeneral-Regular-8722"/>
       <path d="M 6.09375 51 
L 4.5 51.40625 
Q 6.796875 58.90625 11.6875 63.25 
Q 16.59375 67.59375 24.09375 67.59375 
Q 31.09375 67.59375 35.390625 63.796875 
Q 39.703125 60 39.703125 53.90625 
Q 39.703125 45.703125 30.40625 40.09375 
Q 35.90625 37.703125 38.703125 34.796875 
Q 43.09375 29.90625 43.09375 21.90625 
Q 43.09375 13.90625 38.5 7.90625 
Q 35.09375 3.296875 28.75 0.9375 
Q 22.40625 -1.40625 15.296875 -1.40625 
Q 4.09375 -1.40625 4.09375 4.296875 
Q 4.09375 5.90625 5.296875 6.90625 
Q 6.5 7.90625 8.203125 7.90625 
Q 10.703125 7.90625 14.296875 5.296875 
Q 18.703125 2.203125 22.90625 2.203125 
Q 28.40625 2.203125 32.15625 6.640625 
Q 35.90625 11.09375 35.90625 17.5 
Q 35.90625 29 25.5 32 
Q 22.40625 33 15.296875 33 
L 15.296875 34.40625 
Q 20.90625 36.296875 23.703125 38 
Q 31.796875 42.59375 31.796875 51.40625 
Q 31.796875 56.40625 28.9375 59 
Q 26.09375 61.59375 21 61.59375 
Q 12 61.59375 6.09375 51 
z
" id="STIXGeneral-Regular-51"/>
      </defs>
      <g transform="translate(38.525 258.269688)scale(0.1 -0.1)">
       <use xlink:href="#STIXGeneral-Regular-8722"/>
       <use x="68.499985" xlink:href="#STIXGeneral-Regular-51"/>
      </g>
     </g>
    </g>
    <g id="xtick_2">
     <g id="line2d_2">
      <g>
       <use style="stroke:#000000;stroke-width:0.8;" x="118.85" xlink:href="#ma81195ca0d" y="244.44"/>
      </g>
     </g>
     <g id="text_2">
      <!-- −2 -->
      <defs>
       <path d="M 47.40625 13.703125 
L 42 0 
L 2.90625 0 
L 2.90625 1.203125 
L 20.703125 20.09375 
Q 27.703125 27.40625 30.703125 33.5 
Q 33.703125 39.59375 33.703125 46.09375 
Q 33.703125 52.796875 30 56.5 
Q 26.296875 60.203125 19.796875 60.203125 
Q 14.40625 60.203125 11.25 57.390625 
Q 8.09375 54.59375 5.09375 47.203125 
L 3 47.703125 
Q 4.703125 57 9.84375 62.296875 
Q 15 67.59375 23.796875 67.59375 
Q 32.09375 67.59375 37.1875 62.59375 
Q 42.296875 57.59375 42.296875 50 
Q 42.296875 38.703125 29.5 25.203125 
L 13 7.59375 
L 36.40625 7.59375 
Q 39.703125 7.59375 41.640625 8.890625 
Q 43.59375 10.203125 46 14.296875 
z
" id="STIXGeneral-Regular-50"/>
      </defs>
      <g transform="translate(112.925 258.269688)scale(0.1 -0.1)">
       <use xlink:href="#STIXGeneral-Regular-8722"/>
       <use x="68.499985" xlink:href="#STIXGeneral-Regular-50"/>
      </g>
     </g>
    </g>
    <g id="xtick_3">
     <g id="line2d_3">
      <g>
       <use style="stroke:#000000;stroke-width:0.8;" x="193.25" xlink:href="#ma81195ca0d" y="244.44"/>
      </g>
     </g>
     <g id="text_3">
      <!-- −1 -->
      <defs>
       <path d="M 39.40625 0 
L 11.796875 0 
L 11.796875 1.5 
Q 17.296875 1.796875 19.296875 3.546875 
Q 21.296875 5.296875 21.296875 9.5 
L 21.296875 54.40625 
Q 21.296875 59.296875 18.296875 59.296875 
Q 16.90625 59.296875 13.796875 58.09375 
L 11.09375 57.09375 
L 11.09375 58.5 
L 29 67.59375 
L 29.90625 67.296875 
L 29.90625 7.59375 
Q 29.90625 4.296875 31.90625 2.890625 
Q 33.90625 1.5 39.40625 1.5 
z
" id="STIXGeneral-Regular-49"/>
      </defs>
      <g transform="translate(187.325 258.269688)scale(0.1 -0.1)">
       <use xlink:href="#STIXGeneral-Regular-8722"/>
       <use x="68.499985" xlink:href="#STIXGeneral-Regular-49"/>
      </g>
     </g>
    </g>
    <g id="xtick_4">
     <g id="line2d_4">
      <g>
       <use style="stroke:#000000;stroke-width:0.8;" x="267.65" xlink:href="#ma81195ca0d" y="244.44"/>
      </g>
     </g>
     <g id="text_4">
      <!-- 0 -->
      <defs>
       <path d="M 47.59375 33 
Q 47.59375 26.296875 46.296875 20.34375 
Q 45 14.40625 42.453125 9.40625 
Q 39.90625 4.40625 35.40625 1.5 
Q 30.90625 -1.40625 25 -1.40625 
Q 18.90625 -1.40625 14.296875 1.6875 
Q 9.703125 4.796875 7.203125 10 
Q 4.703125 15.203125 3.546875 21.09375 
Q 2.40625 27 2.40625 33.59375 
Q 2.40625 42.90625 4.703125 50.34375 
Q 7 57.796875 12.34375 62.6875 
Q 17.703125 67.59375 25.40625 67.59375 
Q 35.203125 67.59375 41.390625 58 
Q 47.59375 48.40625 47.59375 33 
z
M 38 32.5 
Q 38 48.296875 34.640625 56.640625 
Q 31.296875 65 24.796875 65 
Q 18.59375 65 15.296875 56.59375 
Q 12 48.203125 12 32.90625 
Q 12 17.5 15.296875 9.34375 
Q 18.59375 1.203125 25 1.203125 
Q 31.296875 1.203125 34.640625 9.34375 
Q 38 17.5 38 32.5 
z
" id="STIXGeneral-Regular-48"/>
      </defs>
      <g transform="translate(265.15 258.269688)scale(0.1 -0.1)">
       <use xlink:href="#STIXGeneral-Regular-48"/>
      </g>
     </g>
    </g>
    <g id="xtick_5">
     <g id="line2d_5">
      <g>
       <use style="stroke:#000000;stroke-width:0.8;" x="342.05" xlink:href="#ma81195ca0d" y="244.44"/>
      </g>
     </g>
     <g id="text_5">
      <!-- 1 -->
      <g transform="translate(339.55 258.269688)scale(0.1 -0.1)">
       <use xlink:href="#STIXGeneral-Regular-49"/>
      </g>
     </g>
    </g>
    <g id="xtick_6">
     <g id="line2d_6">
      <g>
       <use style="stroke:#000000;stroke-width:0.8;" x="416.45" xlink:href="#ma81195ca0d" y="244.44"/>
      </g>
     </g>
     <g id="text_6">
      <!-- 2 -->
      <g transform="translate(413.95 258.269688)scale(0.1 -0.1)">
       <use xlink:href="#STIXGeneral-Regular-50"/>
      </g>
     </g>
    </g>
    <g id="xtick_7">
     <g id="line2d_7">
      <g>
       <use style="stroke:#000000;stroke-width:0.8;" x="490.85" xlink:href="#ma81195ca0d" y="244.44"/>
      </g>
     </g>
     <g id="text_7">
      <!-- 3 -->
      <g transform="translate(488.35 258.269688)scale(0.1 -0.1)">
       <use xlink:href="#STIXGeneral-Regular-51"/>
      </g>
     </g>
    </g>
    <g id="text_8">
     <!-- $x_0$ -->
     <defs>
      <path d="M 24.296875 35.5 
L 25.5 29.796875 
Q 30.796875 37.90625 34.046875 41 
Q 37.296875 44.09375 40.59375 44.09375 
Q 42.40625 44.09375 43.546875 43.046875 
Q 44.703125 42 44.703125 40.390625 
Q 44.703125 38.796875 43.75 37.796875 
Q 42.796875 36.796875 41.296875 36.796875 
Q 40.40625 36.796875 38.90625 37.640625 
Q 37.40625 38.5 36.09375 38.5 
Q 33.203125 38.5 26.296875 26.40625 
Q 26.296875 25.09375 27.09375 21.90625 
L 30.296875 8.5 
Q 31.296875 4.40625 33.296875 4.40625 
Q 34.90625 4.40625 38 8.40625 
Q 38.296875 8.796875 38.6875 9.34375 
Q 39.09375 9.90625 39.390625 10.34375 
Q 39.703125 10.796875 40.09375 11.203125 
L 41.59375 10.296875 
Q 37.296875 3.59375 34.796875 1.25 
Q 32.296875 -1.09375 29.40625 -1.09375 
Q 27 -1.09375 25.703125 0.40625 
Q 24.40625 1.90625 23.5 5.703125 
L 20.59375 17.59375 
L 11.796875 5.703125 
Q 8.703125 1.5 6.75 0.203125 
Q 4.796875 -1.09375 2.296875 -1.09375 
Q 0 -1.09375 -1.34375 0 
Q -2.703125 1.09375 -2.703125 3.09375 
Q -2.703125 4.59375 -1.75 5.640625 
Q -0.796875 6.703125 0.703125 6.703125 
Q 1.90625 6.703125 3.90625 5.59375 
Q 5.40625 4.703125 6.5 4.703125 
Q 8.203125 4.703125 11.59375 9.59375 
L 19.796875 21.203125 
L 17 33.59375 
Q 16 38 15.140625 39.203125 
Q 14.296875 40.40625 12.40625 40.40625 
Q 11.203125 40.40625 8.5 39.703125 
L 6.703125 39.203125 
L 6.40625 40.796875 
L 7.5 41.203125 
Q 15.5 44.09375 19.203125 44.09375 
Q 21.09375 44.09375 22.1875 42.296875 
Q 23.296875 40.5 24.296875 35.5 
z
" id="STIXGeneral-Italic-120"/>
     </defs>
     <g transform="translate(260.93 275.3675)scale(0.16 -0.16)">
      <use transform="translate(0 0.90625)" xlink:href="#STIXGeneral-Italic-120"/>
      <use transform="translate(44.399994 -12.321875)scale(0.7)" xlink:href="#STIXGeneral-Regular-48"/>
     </g>
    </g>
   </g>
   <g id="matplotlib.axis_2">
    <g id="ytick_1">
     <g id="line2d_8">
      <defs>
       <path d="M 0 0 
L -3.5 0 
" id="m41ce9da550" style="stroke:#000000;stroke-width:0.8;"/>
      </defs>
      <g>
       <use style="stroke:#000000;stroke-width:0.8;" x="44.45" xlink:href="#m41ce9da550" y="244.44"/>
      </g>
     </g>
     <g id="text_9">
      <!-- −3 -->
      <g transform="translate(25.6 247.854844)scale(0.1 -0.1)">
       <use xlink:href="#STIXGeneral-Regular-8722"/>
       <use x="68.499985" xlink:href="#STIXGeneral-Regular-51"/>
      </g>
     </g>
    </g>
    <g id="ytick_2">
     <g id="line2d_9">
      <g>
       <use style="stroke:#000000;stroke-width:0.8;" x="44.45" xlink:href="#m41ce9da550" y="208.2"/>
      </g>
     </g>
     <g id="text_10">
      <!-- −2 -->
      <g transform="translate(25.6 211.614844)scale(0.1 -0.1)">
       <use xlink:href="#STIXGeneral-Regular-8722"/>
       <use x="68.499985" xlink:href="#STIXGeneral-Regular-50"/>
      </g>
     </g>
    </g>
    <g id="ytick_3">
     <g id="line2d_10">
      <g>
       <use style="stroke:#000000;stroke-width:0.8;" x="44.45" xlink:href="#m41ce9da550" y="171.96"/>
      </g>
     </g>
     <g id="text_11">
      <!-- −1 -->
      <g transform="translate(25.6 175.374844)scale(0.1 -0.1)">
       <use xlink:href="#STIXGeneral-Regular-8722"/>
       <use x="68.499985" xlink:href="#STIXGeneral-Regular-49"/>
      </g>
     </g>
    </g>
    <g id="ytick_4">
     <g id="line2d_11">
      <g>
       <use style="stroke:#000000;stroke-width:0.8;" x="44.45" xlink:href="#m41ce9da550" y="135.72"/>
      </g>
     </g>
     <g id="text_12">
      <!-- 0 -->
      <g transform="translate(32.45 139.134844)scale(0.1 -0.1)">
       <use xlink:href="#STIXGeneral-Regular-48"/>
      </g>
     </g>
    </g>
    <g id="ytick_5">
     <g id="line2d_12">
      <g>
       <use style="stroke:#000000;stroke-width:0.8;" x="44.45" xlink:href="#m41ce9da550" y="99.48"/>
      </g>
     </g>
     <g id="text_13">
      <!-- 1 -->
      <g transform="translate(32.45 102.894844)scale(0.1 -0.1)">
       <use xlink:href="#STIXGeneral-Regular-49"/>
      </g>
     </g>
    </g>
    <g id="ytick_6">
     <g id="line2d_13">
      <g>
       <use style="stroke:#000000;stroke-width:0.8;" x="44.45" xlink:href="#m41ce9da550" y="63.24"/>
      </g>
     </g>
     <g id="text_14">
      <!-- 2 -->
      <g transform="translate(32.45 66.654844)scale(0.1 -0.1)">
       <use xlink:href="#STIXGeneral-Regular-50"/>
      </g>
     </g>
    </g>
    <g id="ytick_7">
     <g id="line2d_14">
      <g>
       <use style="stroke:#000000;stroke-width:0.8;" x="44.45" xlink:href="#m41ce9da550" y="27"/>
      </g>
     </g>
     <g id="text_15">
      <!-- 3 -->
      <g transform="translate(32.45 30.414844)scale(0.1 -0.1)">
       <use xlink:href="#STIXGeneral-Regular-51"/>
      </g>
     </g>
    </g>
    <g id="text_16">
     <!-- $x_1$ -->
     <g transform="translate(18.1275 142.44)rotate(-90)scale(0.16 -0.16)">
      <use transform="translate(0 0.90625)" xlink:href="#STIXGeneral-Italic-120"/>
      <use transform="translate(44.399994 -12.321875)scale(0.7)" xlink:href="#STIXGeneral-Regular-49"/>
     </g>
    </g>
   </g>
   <g id="patch_3">
    <path d="M 44.45 244.44 
L 44.45 27 
" style="fill:none;stroke:#000000;stroke-linecap:square;stroke-linejoin:miter;stroke-width:0.8;"/>
   </g>
   <g id="patch_4">
    <path d="M 490.85 244.44 
L 490.85 27 
" style="fill:none;stroke:#000000;stroke-linecap:square;stroke-linejoin:miter;stroke-width:0.8;"/>
   </g>
   <g id="patch_5">
    <path d="M 44.45 244.44 
L 490.85 244.44 
" style="fill:none;stroke:#000000;stroke-linecap:square;stroke-linejoin:miter;stroke-width:0.8;"/>
   </g>
   <g id="patch_6">
    <path d="M 44.45 27 
L 490.85 27 
" style="fill:none;stroke:#000000;stroke-linecap:square;stroke-linejoin:miter;stroke-width:0.8;"/>
   </g>
   <g id="text_17">
    <!-- Objective $F$ -->
    <defs>
     <path d="M 68.796875 33.09375 
Q 68.796875 17.703125 59.6875 8.140625 
Q 50.59375 -1.40625 36.09375 -1.40625 
Q 21.5 -1.40625 12.453125 8.1875 
Q 3.40625 17.796875 3.40625 33.40625 
Q 3.40625 48.59375 12.453125 58.09375 
Q 21.5 67.59375 36.09375 67.59375 
Q 50.703125 67.59375 59.75 57.84375 
Q 68.796875 48.09375 68.796875 33.09375 
z
M 57.40625 33.703125 
Q 57.40625 42.203125 55 48.953125 
Q 52.59375 55.703125 48.296875 59.296875 
Q 42.703125 64 36 64 
Q 27.5 64 21.703125 57.296875 
Q 18.5 53.703125 16.640625 47.046875 
Q 14.796875 40.40625 14.796875 33.203125 
Q 14.796875 15 23.796875 6.703125 
Q 28.703125 2.203125 36.203125 2.203125 
Q 44 2.203125 49.09375 7 
Q 57.40625 15 57.40625 33.703125 
z
" id="STIXGeneral-Regular-79"/>
     <path d="M 15.296875 68.09375 
L 15.296875 37.59375 
Q 16.90625 41.40625 20.546875 43.703125 
Q 24.203125 46 28.796875 46 
Q 36.703125 46 41.75 39.703125 
Q 46.796875 33.40625 46.796875 24 
Q 46.796875 13 40.09375 6 
Q 33.40625 -1 23.40625 -1 
Q 17.296875 -1 12.09375 1.046875 
Q 6.90625 3.09375 6.90625 5.59375 
L 6.90625 56.59375 
Q 6.90625 60.296875 6 61.34375 
Q 5.09375 62.40625 2 62.40625 
Q 1.296875 62.40625 0.296875 62.203125 
L 0.296875 63.90625 
L 3.296875 64.796875 
Q 13.5 67.90625 14.796875 68.296875 
z
M 15.296875 31.796875 
L 15.296875 7.40625 
Q 15.296875 5.09375 18.140625 3.640625 
Q 21 2.203125 25 2.203125 
Q 30.90625 2.203125 34.296875 6.5 
Q 38 11.09375 38 19.703125 
Q 38 29.5 34.09375 35 
Q 30.796875 39.703125 25.203125 39.703125 
Q 21.203125 39.703125 18.25 37.34375 
Q 15.296875 35 15.296875 31.796875 
z
" id="STIXGeneral-Regular-98"/>
     <path d="M 19.40625 63.203125 
Q 19.40625 61 17.90625 59.546875 
Q 16.40625 58.09375 14.203125 58.09375 
Q 12.09375 58.09375 10.640625 59.546875 
Q 9.203125 61 9.203125 63.203125 
Q 9.203125 65.296875 10.703125 66.796875 
Q 12.203125 68.296875 14.296875 68.296875 
Q 16.40625 68.296875 17.90625 66.796875 
Q 19.40625 65.296875 19.40625 63.203125 
z
M 19.296875 45.703125 
L 19.296875 0 
Q 19.296875 -10.703125 14.9375 -16.25 
Q 10.59375 -21.796875 2.296875 -21.796875 
Q -1.796875 -21.796875 -4.390625 -20.25 
Q -7 -18.703125 -7 -16.296875 
Q -7 -14.703125 -5.796875 -13.546875 
Q -4.59375 -12.40625 -2.90625 -12.40625 
Q -0.59375 -12.40625 1.90625 -15.59375 
Q 4.203125 -18.40625 6.09375 -18.40625 
Q 8.40625 -18.40625 9.5 -16.59375 
Q 10.90625 -14.09375 10.90625 -4.5 
L 10.90625 33.40625 
Q 10.90625 39.40625 7.703125 39.40625 
Q 5.296875 39.40625 3.703125 39.09375 
L 3.203125 39 
L 3.203125 40.59375 
Q 11.203125 43.09375 18.796875 46 
z
" id="STIXGeneral-Regular-106"/>
     <path d="M 40.796875 16.40625 
L 42.40625 15.703125 
Q 36.40625 -1 21.5 -1 
Q 12.703125 -1 7.59375 5.140625 
Q 2.5 11.296875 2.5 21.703125 
Q 2.5 32.40625 8.203125 39.203125 
Q 13.90625 46 23.203125 46 
Q 32.203125 46 37.09375 39.09375 
Q 40 35.09375 40.5 27.703125 
L 9.703125 27.703125 
Q 10.09375 21.40625 10.9375 18.09375 
Q 11.796875 14.796875 14.296875 11.40625 
Q 18.5 5.90625 25.40625 5.90625 
Q 30.296875 5.90625 33.640625 8.296875 
Q 37 10.703125 40.796875 16.40625 
z
M 9.90625 30.90625 
L 30.296875 30.90625 
Q 29.40625 37.203125 27.34375 39.796875 
Q 25.296875 42.40625 20.5 42.40625 
Q 16.296875 42.40625 13.5 39.453125 
Q 10.703125 36.5 9.90625 30.90625 
z
" id="STIXGeneral-Regular-101"/>
     <path d="M 39.796875 15.59375 
L 41.203125 14.703125 
Q 36.90625 6.296875 33 3.203125 
Q 27.90625 -1 21.5 -1 
Q 13.203125 -1 7.84375 5.25 
Q 2.5 11.5 2.5 21.203125 
Q 2.5 33.90625 10.90625 40.90625 
Q 17.09375 46 24.40625 46 
Q 30.703125 46 35.25 42.953125 
Q 39.796875 39.90625 39.796875 35.703125 
Q 39.796875 34 38.390625 32.75 
Q 37 31.5 35.09375 31.5 
Q 31.59375 31.5 30.296875 36.09375 
L 29.703125 38.296875 
Q 28.90625 41.09375 27.703125 42.09375 
Q 26.5 43.09375 23.796875 43.09375 
Q 17.703125 43.09375 13.953125 38.296875 
Q 10.203125 33.5 10.203125 25.703125 
Q 10.203125 17.09375 14.5 11.640625 
Q 18.796875 6.203125 25.703125 6.203125 
Q 30 6.203125 33.09375 8.25 
Q 36.203125 10.296875 39.796875 15.59375 
z
" id="STIXGeneral-Regular-99"/>
     <path d="M 26.59375 7.703125 
L 27.90625 6.59375 
Q 23.09375 -1 15.796875 -1 
Q 7 -1 7 11.703125 
L 7 41.796875 
L 1.703125 41.796875 
Q 1.296875 42.09375 1.296875 42.5 
Q 1.296875 43.296875 3 44.40625 
Q 6.796875 46.59375 12.703125 55.09375 
Q 12.90625 55.40625 13.65625 56.34375 
Q 14.40625 57.296875 14.703125 57.90625 
Q 15.40625 57.90625 15.40625 56.59375 
L 15.40625 45 
L 25.5 45 
L 25.5 41.796875 
L 15.40625 41.796875 
L 15.40625 13.203125 
Q 15.40625 8.40625 16.59375 6.296875 
Q 17.796875 4.203125 20.59375 4.203125 
Q 23.59375 4.203125 26.59375 7.703125 
z
" id="STIXGeneral-Regular-116"/>
     <path d="M 18 63.203125 
Q 18 61 16.5 59.546875 
Q 15 58.09375 12.796875 58.09375 
Q 10.703125 58.09375 9.25 59.546875 
Q 7.796875 61 7.796875 63.203125 
Q 7.796875 65.296875 9.296875 66.796875 
Q 10.796875 68.296875 12.90625 68.296875 
Q 15.09375 68.296875 16.546875 66.796875 
Q 18 65.296875 18 63.203125 
z
M 25.296875 0 
L 1.59375 0 
L 1.59375 1.5 
Q 6.796875 1.796875 8.140625 3.296875 
Q 9.5 4.796875 9.5 10.40625 
L 9.5 33.09375 
Q 9.5 36.59375 8.796875 38 
Q 8.09375 39.40625 6.203125 39.40625 
Q 3.796875 39.40625 2 38.90625 
L 2 40.5 
L 17.5 46 
L 17.90625 45.59375 
L 17.90625 10.5 
Q 17.90625 4.90625 19.15625 3.40625 
Q 20.40625 1.90625 25.296875 1.5 
z
" id="STIXGeneral-Regular-105"/>
     <path d="M 47.703125 45 
L 47.703125 43.5 
Q 45.40625 43.296875 44.296875 42 
Q 43.203125 40.703125 41.203125 35.703125 
L 28.40625 3.59375 
Q 26.40625 -1.40625 25.59375 -1.40625 
Q 24.796875 -1.40625 23.796875 1.203125 
Q 23.59375 1.5 23.390625 2.203125 
Q 23.203125 2.90625 23 3.296875 
L 11 32 
Q 7.796875 39.59375 6.296875 41.4375 
Q 4.796875 43.296875 1.90625 43.5 
L 1.90625 45 
L 21.5 45 
L 21.5 43.5 
Q 18.90625 43.296875 17.90625 42.6875 
Q 16.90625 42.09375 16.90625 40.796875 
Q 16.90625 39.203125 17.796875 37 
L 28 11.40625 
L 37.90625 37.296875 
Q 38.5 38.796875 38.5 40.296875 
Q 38.5 43.09375 33.796875 43.5 
L 33.796875 45 
z
" id="STIXGeneral-Regular-118"/>
     <path id="STIXGeneral-Regular-32"/>
     <path d="M 64.5 65.296875 
L 61.296875 49.90625 
L 59.203125 50.09375 
Q 59.5 52.296875 59.5 53.40625 
Q 59.5 57.296875 58.09375 58.9375 
Q 56.703125 60.59375 52.703125 61.296875 
Q 48.703125 62 39.59375 62 
Q 36.09375 62 34.6875 61.34375 
Q 33.296875 60.703125 32.796875 58.796875 
L 26.40625 36.09375 
Q 31.296875 36.203125 33.546875 36.203125 
Q 35.796875 36.203125 38.390625 36.640625 
Q 41 37.09375 41.84375 37.4375 
Q 42.703125 37.796875 44.09375 39.140625 
Q 45.5 40.5 46.09375 41.640625 
Q 46.703125 42.796875 48 45.5 
L 49.796875 45 
L 42.203125 21.5 
L 40.5 22 
Q 41.296875 26.09375 41.296875 28.09375 
Q 41.296875 30.90625 39.546875 31.703125 
Q 37.796875 32.5 33.796875 32.5 
Q 31 32.5 25.5 32.796875 
L 19.59375 11.5 
Q 18.203125 6.5 18.203125 5.5 
Q 18.203125 3.703125 19.890625 2.796875 
Q 21.59375 1.90625 25.90625 1.59375 
L 25.90625 0 
L 0.796875 0 
L 0.796875 1.59375 
Q 4.90625 1.90625 6.40625 3.5 
Q 7.90625 5.09375 9.09375 9.40625 
L 21.40625 53.59375 
Q 22.40625 57.203125 22.40625 59.703125 
Q 22.40625 61.796875 21.046875 62.546875 
Q 19.703125 63.296875 14.796875 63.703125 
L 14.796875 65.296875 
z
" id="STIXGeneral-Italic-70"/>
    </defs>
    <g transform="translate(220.15 21)scale(0.2 -0.2)">
     <use transform="translate(0 0.703125)" xlink:href="#STIXGeneral-Regular-79"/>
     <use transform="translate(72.199982 0.703125)" xlink:href="#STIXGeneral-Regular-98"/>
     <use transform="translate(122.199966 0.703125)" xlink:href="#STIXGeneral-Regular-106"/>
     <use transform="translate(149.999954 0.703125)" xlink:href="#STIXGeneral-Regular-101"/>
     <use transform="translate(194.399948 0.703125)" xlink:href="#STIXGeneral-Regular-99"/>
     <use transform="translate(238.799942 0.703125)" xlink:href="#STIXGeneral-Regular-116"/>
     <use transform="translate(266.59993 0.703125)" xlink:href="#STIXGeneral-Regular-105"/>
     <use transform="translate(294.399918 0.703125)" xlink:href="#STIXGeneral-Regular-118"/>
     <use transform="translate(344.399902 0.703125)" xlink:href="#STIXGeneral-Regular-101"/>
     <use transform="translate(388.799896 0.703125)" xlink:href="#STIXGeneral-Regular-32"/>
     <use transform="translate(413.799881 0.703125)" xlink:href="#STIXGeneral-Italic-70"/>
    </g>
   </g>
  </g>
 </g>
 <defs>
  <clipPath id="pf1f261dea8">
   <rect height="217.44" width="446.4" x="44.45" y="27"/>
  </clipPath>
 </defs>
</svg>
