<?xml version="1.0" encoding="utf-8" standalone="no"?>
<!DOCTYPE svg PUBLIC "-//W3C//DTD SVG 1.1//EN"
  "http://www.w3.org/Graphics/SVG/1.1/DTD/svg11.dtd">
<!-- Created with matplotlib (https://matplotlib.org/) -->
<svg height="307.836375pt" version="1.1" viewBox="0 0 282.008437 307.836375" width="282.008437pt" xmlns="http://www.w3.org/2000/svg" xmlns:xlink="http://www.w3.org/1999/xlink">
 <defs>
  <style type="text/css">
*{stroke-linecap:butt;stroke-linejoin:round;}
  </style>
 </defs>
 <g id="figure_1">
  <g id="patch_1">
   <path d="M 0 307.836375 
L 282.008437 307.836375 
L 282.008437 0 
L 0 0 
z
" style="fill:none;"/>
  </g>
  <g id="axes_1">
   <g id="patch_2">
    <path d="M 48.427188 264.47325 
L 271.627187 264.47325 
L 271.627187 47.03325 
L 48.427188 47.03325 
z
" style="fill:#ffffff;"/>
   </g>
   <g id="PathCollection_1">
    <path clip-path="url(#p8a4a7eed6d)" d="M 107.16403 213.057959 
L 118.911398 209.924232 
L 123.743979 207.252197 
L 130.658766 203.210393 
L 142.221696 195.807987 
L 142.406135 195.682756 
L 154.153503 186.077915 
L 156.147655 184.363776 
L 165.900872 175.63789 
L 168.809942 172.919566 
L 177.64824 164.309353 
L 180.438573 161.475355 
L 189.395609 151.973835 
L 191.155154 150.031145 
L 201.014428 138.586934 
L 201.142977 138.407255 
L 208.741473 127.142724 
L 212.890345 120.406383 
L 215.633162 115.698513 
L 218.849902 104.254303 
L 212.890345 98.448541 
L 201.142977 101.582268 
L 196.310396 104.254303 
L 189.395609 108.296107 
L 177.832679 115.698513 
L 177.64824 115.823744 
L 165.900872 125.428585 
L 163.90672 127.142724 
L 154.153503 135.86861 
L 151.244433 138.586934 
L 142.406135 147.197147 
L 139.615802 150.031145 
L 130.658766 159.532665 
L 128.899221 161.475355 
L 119.039947 172.919566 
L 118.911398 173.099245 
L 111.312902 184.363776 
L 107.16403 191.100117 
L 104.421213 195.807987 
L 101.204473 207.252197 
z
" style="fill:#3c4ec2;fill-opacity:0.5;"/>
   </g>
   <g id="PathCollection_2">
    <path clip-path="url(#p8a4a7eed6d)" d="M 60.174556 264.47325 
L 71.921924 264.47325 
L 78.76403 264.47325 
L 83.669293 262.121838 
L 95.416661 255.43876 
L 99.196999 253.029039 
L 107.16403 247.822004 
L 116.360202 241.584829 
L 118.911398 239.809573 
L 130.658766 231.111034 
L 131.887748 230.140618 
L 142.406135 221.656589 
L 145.983217 218.696408 
L 154.153503 211.786564 
L 159.382613 207.252197 
L 165.900872 201.472942 
L 172.136255 195.807987 
L 177.64824 190.685131 
L 184.289726 184.363776 
L 189.395609 179.389659 
L 195.884417 172.919566 
L 201.142977 167.549826 
L 206.957998 161.475355 
L 212.890345 155.12531 
L 217.544828 150.031145 
L 224.637714 142.071704 
L 227.67631 138.586934 
L 236.385082 128.33999 
L 237.381204 127.142724 
L 246.310168 115.698513 
L 248.132451 113.213154 
L 254.534849 104.254303 
L 259.879819 96.492873 
L 262.353373 92.810092 
L 269.213487 81.365882 
L 271.627187 76.587206 
L 271.627187 69.921671 
L 271.627187 58.477461 
L 271.627187 47.03325 
L 259.879819 47.03325 
L 248.132451 47.03325 
L 241.290345 47.03325 
L 236.385082 49.384662 
L 224.637714 56.06774 
L 220.857376 58.477461 
L 212.890345 63.684496 
L 203.694173 69.921671 
L 201.142977 71.696927 
L 189.395609 80.395466 
L 188.166627 81.365882 
L 177.64824 89.849911 
L 174.071158 92.810092 
L 165.900872 99.719936 
L 160.671762 104.254303 
L 154.153503 110.033558 
L 147.91812 115.698513 
L 142.406135 120.821369 
L 135.764649 127.142724 
L 130.658766 132.116841 
L 124.169958 138.586934 
L 118.911398 143.956674 
L 113.096377 150.031145 
L 107.16403 156.38119 
L 102.509547 161.475355 
L 95.416661 169.434796 
L 92.378065 172.919566 
L 83.669293 183.16651 
L 82.673171 184.363776 
L 73.744207 195.807987 
L 71.921924 198.293346 
L 65.519526 207.252197 
L 60.174556 215.013627 
L 57.701002 218.696408 
L 50.840888 230.140618 
L 48.427188 234.919294 
L 48.427188 241.584829 
L 48.427188 253.029039 
L 48.427188 264.47325 
z
M 101.204473 207.252197 
L 104.421213 195.807987 
L 107.16403 191.100117 
L 111.312902 184.363776 
L 118.911398 173.099245 
L 119.039947 172.919566 
L 128.899221 161.475355 
L 130.658766 159.532665 
L 139.615802 150.031145 
L 142.406135 147.197147 
L 151.244433 138.586934 
L 154.153503 135.86861 
L 163.90672 127.142724 
L 165.900872 125.428585 
L 177.64824 115.823744 
L 177.832679 115.698513 
L 189.395609 108.296107 
L 196.310396 104.254303 
L 201.142977 101.582268 
L 212.890345 98.448541 
L 218.849902 104.254303 
L 215.633162 115.698513 
L 212.890345 120.406383 
L 208.741473 127.142724 
L 201.142977 138.407255 
L 201.014428 138.586934 
L 191.155154 150.031145 
L 189.395609 151.973835 
L 180.438573 161.475355 
L 177.64824 164.309353 
L 168.809942 172.919566 
L 165.900872 175.63789 
L 156.147655 184.363776 
L 154.153503 186.077915 
L 142.406135 195.682756 
L 142.221696 195.807987 
L 130.658766 203.210393 
L 123.743979 207.252197 
L 118.911398 209.924232 
L 107.16403 213.057959 
z
" style="fill:#4358cb;fill-opacity:0.5;"/>
   </g>
   <g id="PathCollection_3">
    <path clip-path="url(#p8a4a7eed6d)" d="M 83.669293 264.47325 
L 95.416661 264.47325 
L 107.16403 264.47325 
L 118.911398 264.47325 
L 121.530744 264.47325 
L 130.658766 257.161671 
L 135.726768 253.029039 
L 142.406135 247.500539 
L 149.429018 241.584829 
L 154.153503 237.544411 
L 162.662815 230.140618 
L 165.900872 227.279566 
L 175.451778 218.696408 
L 177.64824 216.691418 
L 187.817966 207.252197 
L 189.395609 205.76445 
L 199.782001 195.807987 
L 201.142977 194.482133 
L 211.363187 184.363776 
L 212.890345 182.826847 
L 222.579612 172.919566 
L 224.637714 170.779787 
L 233.44824 161.475355 
L 236.385082 158.320861 
L 243.985002 150.031145 
L 248.132451 145.428582 
L 254.204869 138.586934 
L 259.879819 132.079938 
L 264.121924 127.142724 
L 271.627187 118.250263 
L 271.627187 115.698513 
L 271.627187 104.254303 
L 271.627187 92.810092 
L 271.627187 81.365882 
L 271.627187 76.587206 
L 269.213487 81.365882 
L 262.353373 92.810092 
L 259.879819 96.492873 
L 254.534849 104.254303 
L 248.132451 113.213154 
L 246.310168 115.698513 
L 237.381204 127.142724 
L 236.385082 128.33999 
L 227.67631 138.586934 
L 224.637714 142.071704 
L 217.544828 150.031145 
L 212.890345 155.12531 
L 206.957998 161.475355 
L 201.142977 167.549826 
L 195.884417 172.919566 
L 189.395609 179.389659 
L 184.289726 184.363776 
L 177.64824 190.685131 
L 172.136255 195.807987 
L 165.900872 201.472942 
L 159.382613 207.252197 
L 154.153503 211.786564 
L 145.983217 218.696408 
L 142.406135 221.656589 
L 131.887748 230.140618 
L 130.658766 231.111034 
L 118.911398 239.809573 
L 116.360202 241.584829 
L 107.16403 247.822004 
L 99.196999 253.029039 
L 95.416661 255.43876 
L 83.669293 262.121838 
L 78.76403 264.47325 
z
" style="fill:#536edd;fill-opacity:0.5;"/>
    <path clip-path="url(#p8a4a7eed6d)" d="M 50.840888 230.140618 
L 57.701002 218.696408 
L 60.174556 215.013627 
L 65.519526 207.252197 
L 71.921924 198.293346 
L 73.744207 195.807987 
L 82.673171 184.363776 
L 83.669293 183.16651 
L 92.378065 172.919566 
L 95.416661 169.434796 
L 102.509547 161.475355 
L 107.16403 156.38119 
L 113.096377 150.031145 
L 118.911398 143.956674 
L 124.169958 138.586934 
L 130.658766 132.116841 
L 135.764649 127.142724 
L 142.406135 120.821369 
L 147.91812 115.698513 
L 154.153503 110.033558 
L 160.671762 104.254303 
L 165.900872 99.719936 
L 174.071158 92.810092 
L 177.64824 89.849911 
L 188.166627 81.365882 
L 189.395609 80.395466 
L 201.142977 71.696927 
L 203.694173 69.921671 
L 212.890345 63.684496 
L 220.857376 58.477461 
L 224.637714 56.06774 
L 236.385082 49.384662 
L 241.290345 47.03325 
L 236.385082 47.03325 
L 224.637714 47.03325 
L 212.890345 47.03325 
L 201.142977 47.03325 
L 198.523631 47.03325 
L 189.395609 54.344829 
L 184.327607 58.477461 
L 177.64824 64.005961 
L 170.625357 69.921671 
L 165.900872 73.962089 
L 157.39156 81.365882 
L 154.153503 84.226934 
L 144.602597 92.810092 
L 142.406135 94.815082 
L 132.236409 104.254303 
L 130.658766 105.74205 
L 120.272374 115.698513 
L 118.911398 117.024367 
L 108.691187 127.142724 
L 107.16403 128.679653 
L 97.474763 138.586934 
L 95.416661 140.726713 
L 86.606135 150.031145 
L 83.669293 153.185639 
L 76.069373 161.475355 
L 71.921924 166.077918 
L 65.849506 172.919566 
L 60.174556 179.426562 
L 55.932451 184.363776 
L 48.427187 193.256237 
L 48.427188 195.807987 
L 48.427188 207.252197 
L 48.427188 218.696408 
L 48.427188 230.140618 
L 48.427188 234.919294 
z
" style="fill:#536edd;fill-opacity:0.5;"/>
   </g>
   <g id="PathCollection_4">
    <path clip-path="url(#p8a4a7eed6d)" d="M 130.658766 264.47325 
L 142.406135 264.47325 
L 152.809342 264.47325 
L 154.153503 263.316931 
L 165.900872 253.072771 
L 165.949913 253.029039 
L 177.64824 242.485814 
L 178.636511 241.584829 
L 189.395609 231.66995 
L 191.036405 230.140618 
L 201.142977 220.617673 
L 203.159207 218.696408 
L 212.890345 209.321148 
L 215.014102 207.252197 
L 224.637714 197.772186 
L 226.609874 195.807987 
L 236.385082 185.96223 
L 237.954926 184.363776 
L 248.132451 173.882333 
L 249.057303 172.919566 
L 259.879819 161.523131 
L 259.924709 161.475355 
L 270.440238 150.031145 
L 271.627187 148.721671 
L 271.627187 138.586934 
L 271.627187 127.142724 
L 271.627187 118.250263 
L 264.121924 127.142724 
L 259.879819 132.079938 
L 254.204869 138.586934 
L 248.132451 145.428582 
L 243.985002 150.031145 
L 236.385082 158.320861 
L 233.44824 161.475355 
L 224.637714 170.779787 
L 222.579612 172.919566 
L 212.890345 182.826847 
L 211.363187 184.363776 
L 201.142977 194.482133 
L 199.782001 195.807987 
L 189.395609 205.76445 
L 187.817966 207.252197 
L 177.64824 216.691418 
L 175.451778 218.696408 
L 165.900872 227.279566 
L 162.662815 230.140618 
L 154.153503 237.544411 
L 149.429018 241.584829 
L 142.406135 247.500539 
L 135.726768 253.029039 
L 130.658766 257.161671 
L 121.530744 264.47325 
z
" style="fill:#6b8df0;fill-opacity:0.5;"/>
    <path clip-path="url(#p8a4a7eed6d)" d="M 55.932451 184.363776 
L 60.174556 179.426562 
L 65.849506 172.919566 
L 71.921924 166.077918 
L 76.069373 161.475355 
L 83.669293 153.185639 
L 86.606135 150.031145 
L 95.416661 140.726713 
L 97.474763 138.586934 
L 107.16403 128.679653 
L 108.691187 127.142724 
L 118.911398 117.024367 
L 120.272374 115.698513 
L 130.658766 105.74205 
L 132.236409 104.254303 
L 142.406135 94.815082 
L 144.602597 92.810092 
L 154.153503 84.226934 
L 157.39156 81.365882 
L 165.900872 73.962089 
L 170.625357 69.921671 
L 177.64824 64.005961 
L 184.327607 58.477461 
L 189.395609 54.344829 
L 198.523631 47.03325 
L 189.395609 47.03325 
L 177.64824 47.03325 
L 167.245033 47.03325 
L 165.900872 48.189569 
L 154.153503 58.433729 
L 154.104462 58.477461 
L 142.406135 69.020686 
L 141.417864 69.921671 
L 130.658766 79.83655 
L 129.01797 81.365882 
L 118.911398 90.888827 
L 116.895168 92.810092 
L 107.16403 102.185352 
L 105.040273 104.254303 
L 95.416661 113.734314 
L 93.444501 115.698513 
L 83.669293 125.54427 
L 82.099449 127.142724 
L 71.921924 137.624167 
L 70.997072 138.586934 
L 60.174556 149.983369 
L 60.129666 150.031145 
L 49.614137 161.475355 
L 48.427188 162.784829 
L 48.427188 172.919566 
L 48.427188 184.363776 
L 48.427187 193.256237 
z
" style="fill:#6b8df0;fill-opacity:0.5;"/>
   </g>
   <g id="PathCollection_5">
    <path clip-path="url(#p8a4a7eed6d)" d="M 154.153503 264.47325 
L 165.900872 264.47325 
L 177.64824 264.47325 
L 181.655274 264.47325 
L 189.395609 257.401858 
L 194.137145 253.029039 
L 201.142977 246.510059 
L 206.386796 241.584829 
L 212.890345 235.421123 
L 218.410646 230.140618 
L 224.637714 224.12965 
L 230.214883 218.696408 
L 236.385082 212.630039 
L 241.805468 207.252197 
L 248.132451 200.916481 
L 253.18815 195.807987 
L 259.879819 188.982951 
L 264.368474 184.363776 
L 271.627187 176.823193 
L 271.627187 172.919566 
L 271.627187 161.475355 
L 271.627187 150.031145 
L 271.627187 148.721671 
L 270.440238 150.031145 
L 259.924709 161.475355 
L 259.879819 161.523131 
L 249.057303 172.919566 
L 248.132451 173.882333 
L 237.954926 184.363776 
L 236.385082 185.96223 
L 226.609874 195.807987 
L 224.637714 197.772186 
L 215.014102 207.252197 
L 212.890345 209.321148 
L 203.159207 218.696408 
L 201.142977 220.617673 
L 191.036405 230.140618 
L 189.395609 231.66995 
L 178.636511 241.584829 
L 177.64824 242.485814 
L 165.949913 253.029039 
L 165.900872 253.072771 
L 154.153503 263.316931 
L 152.809342 264.47325 
z
" style="fill:#8db0fe;fill-opacity:0.5;"/>
    <path clip-path="url(#p8a4a7eed6d)" d="M 49.614137 161.475355 
L 60.129666 150.031145 
L 60.174556 149.983369 
L 70.997072 138.586934 
L 71.921924 137.624167 
L 82.099449 127.142724 
L 83.669293 125.54427 
L 93.444501 115.698513 
L 95.416661 113.734314 
L 105.040273 104.254303 
L 107.16403 102.185352 
L 116.895168 92.810092 
L 118.911398 90.888827 
L 129.01797 81.365882 
L 130.658766 79.83655 
L 141.417864 69.921671 
L 142.406135 69.020686 
L 154.104462 58.477461 
L 154.153503 58.433729 
L 165.900872 48.189569 
L 167.245033 47.03325 
L 165.900872 47.03325 
L 154.153503 47.03325 
L 142.406135 47.03325 
L 138.399101 47.03325 
L 130.658766 54.104642 
L 125.91723 58.477461 
L 118.911398 64.996441 
L 113.667579 69.921671 
L 107.16403 76.085377 
L 101.643729 81.365882 
L 95.416661 87.37685 
L 89.839492 92.810092 
L 83.669293 98.876461 
L 78.248907 104.254303 
L 71.921924 110.590019 
L 66.866225 115.698513 
L 60.174556 122.523549 
L 55.685901 127.142724 
L 48.427188 134.683307 
L 48.427188 138.586934 
L 48.427188 150.031145 
L 48.427188 161.475355 
L 48.427188 162.784829 
z
" style="fill:#8db0fe;fill-opacity:0.5;"/>
   </g>
   <g id="PathCollection_6">
    <path clip-path="url(#p8a4a7eed6d)" d="M 189.395609 264.47325 
L 201.142977 264.47325 
L 209.637588 264.47325 
L 212.890345 261.425845 
L 221.782128 253.029039 
L 224.637714 250.311592 
L 233.736166 241.584829 
L 236.385082 239.024354 
L 245.504148 230.140618 
L 248.132451 227.560061 
L 257.090386 218.696408 
L 259.879819 215.914515 
L 268.499057 207.252197 
L 271.627187 204.083382 
L 271.627187 195.807987 
L 271.627187 184.363776 
L 271.627187 176.823193 
L 264.368474 184.363776 
L 259.879819 188.982951 
L 253.18815 195.807987 
L 248.132451 200.916481 
L 241.805468 207.252197 
L 236.385082 212.630039 
L 230.214883 218.696408 
L 224.637714 224.12965 
L 218.410646 230.140618 
L 212.890345 235.421123 
L 206.386796 241.584829 
L 201.142977 246.510059 
L 194.137145 253.029039 
L 189.395609 257.401858 
L 181.655274 264.47325 
z
" style="fill:#b9d0f9;fill-opacity:0.5;"/>
    <path clip-path="url(#p8a4a7eed6d)" d="M 55.685901 127.142724 
L 60.174556 122.523549 
L 66.866225 115.698513 
L 71.921924 110.590019 
L 78.248907 104.254303 
L 83.669293 98.876461 
L 89.839492 92.810092 
L 95.416661 87.37685 
L 101.643729 81.365882 
L 107.16403 76.085377 
L 113.667579 69.921671 
L 118.911398 64.996441 
L 125.91723 58.477461 
L 130.658766 54.104642 
L 138.399101 47.03325 
L 130.658766 47.03325 
L 118.911398 47.03325 
L 110.416787 47.03325 
L 107.16403 50.080655 
L 98.272247 58.477461 
L 95.416661 61.194908 
L 86.318209 69.921671 
L 83.669293 72.482146 
L 74.550227 81.365882 
L 71.921924 83.946439 
L 62.963989 92.810092 
L 60.174556 95.591985 
L 51.555318 104.254303 
L 48.427188 107.423118 
L 48.427188 115.698513 
L 48.427188 127.142724 
L 48.427188 134.683307 
z
" style="fill:#b9d0f9;fill-opacity:0.5;"/>
   </g>
   <g id="PathCollection_7">
    <path clip-path="url(#p8a4a7eed6d)" d="M 212.890345 264.47325 
L 224.637714 264.47325 
L 236.385082 264.47325 
L 237.152082 264.47325 
L 248.132451 253.91208 
L 249.044675 253.029039 
L 259.879819 242.473512 
L 260.786252 241.584829 
L 271.627187 230.887824 
L 271.627187 230.140618 
L 271.627187 218.696408 
L 271.627187 207.252197 
L 271.627187 204.083382 
L 268.499057 207.252197 
L 259.879819 215.914515 
L 257.090386 218.696408 
L 248.132451 227.560061 
L 245.504148 230.140618 
L 236.385082 239.024354 
L 233.736166 241.584829 
L 224.637714 250.311592 
L 221.782128 253.029039 
L 212.890345 261.425845 
L 209.637588 264.47325 
z
" style="fill:#e3d9d3;fill-opacity:0.5;"/>
    <path clip-path="url(#p8a4a7eed6d)" d="M 51.555318 104.254303 
L 60.174556 95.591985 
L 62.963989 92.810092 
L 71.921924 83.946439 
L 74.550227 81.365882 
L 83.669293 72.482146 
L 86.318209 69.921671 
L 95.416661 61.194908 
L 98.272247 58.477461 
L 107.16403 50.080655 
L 110.416787 47.03325 
L 107.16403 47.03325 
L 95.416661 47.03325 
L 83.669293 47.03325 
L 82.902293 47.03325 
L 71.921924 57.59442 
L 71.0097 58.477461 
L 60.174556 69.032988 
L 59.268123 69.921671 
L 48.427188 80.618676 
L 48.427188 81.365882 
L 48.427188 92.810092 
L 48.427188 104.254303 
L 48.427188 107.423118 
z
" style="fill:#e3d9d3;fill-opacity:0.5;"/>
   </g>
   <g id="PathCollection_8">
    <path clip-path="url(#p8a4a7eed6d)" d="M 248.132451 264.47325 
L 259.879819 264.47325 
L 264.243712 264.47325 
L 271.627187 257.280316 
L 271.627187 253.029039 
L 271.627187 241.584829 
L 271.627187 230.887824 
L 260.786252 241.584829 
L 259.879819 242.473512 
L 249.044675 253.029039 
L 248.132451 253.91208 
L 237.152082 264.47325 
z
" style="fill:#f7ad90;fill-opacity:0.5;"/>
    <path clip-path="url(#p8a4a7eed6d)" d="M 59.268123 69.921671 
L 60.174556 69.032988 
L 71.0097 58.477461 
L 71.921924 57.59442 
L 82.902293 47.03325 
L 71.921924 47.03325 
L 60.174556 47.03325 
L 55.810663 47.03325 
L 48.427188 54.226184 
L 48.427188 58.477461 
L 48.427188 69.921671 
L 48.427188 80.618676 
z
" style="fill:#f7ad90;fill-opacity:0.5;"/>
   </g>
   <g id="PathCollection_9">
    <path clip-path="url(#p8a4a7eed6d)" d="M 271.627187 264.47325 
L 271.627187 257.280316 
L 264.243712 264.47325 
z
" style="fill:#d75445;fill-opacity:0.5;"/>
    <path clip-path="url(#p8a4a7eed6d)" d="M 55.810663 47.03325 
L 48.427188 47.03325 
L 48.427188 54.226184 
z
" style="fill:#d75445;fill-opacity:0.5;"/>
   </g>
   <g id="PathCollection_10">
    <defs>
     <path d="M -3.535534 3.535534 
L 3.535534 -3.535534 
M -3.535534 -3.535534 
L 3.535534 3.535534 
" id="m047b0e0b7e" style="stroke:#000000;stroke-width:1.5;"/>
    </defs>
    <g clip-path="url(#p8a4a7eed6d)">
     <use style="stroke:#000000;stroke-width:1.5;" x="253.027187" xlink:href="#m047b0e0b7e" y="83.27325"/>
     <use style="stroke:#000000;stroke-width:1.5;" x="226.987188" xlink:href="#m047b0e0b7e" y="83.27325"/>
     <use style="stroke:#000000;stroke-width:1.5;" x="226.987188" xlink:href="#m047b0e0b7e" y="97.04445"/>
     <use style="stroke:#000000;stroke-width:1.5;" x="214.264788" xlink:href="#m047b0e0b7e" y="97.04445"/>
     <use style="stroke:#000000;stroke-width:1.5;" x="214.264788" xlink:href="#m047b0e0b7e" y="108.199122"/>
     <use style="stroke:#000000;stroke-width:1.5;" x="203.959643" xlink:href="#m047b0e0b7e" y="108.199122"/>
     <use style="stroke:#000000;stroke-width:1.5;" x="203.959643" xlink:href="#m047b0e0b7e" y="117.234406"/>
     <use style="stroke:#000000;stroke-width:1.5;" x="195.612477" xlink:href="#m047b0e0b7e" y="117.234406"/>
     <use style="stroke:#000000;stroke-width:1.5;" x="195.612477" xlink:href="#m047b0e0b7e" y="124.552987"/>
     <use style="stroke:#000000;stroke-width:1.5;" x="188.851272" xlink:href="#m047b0e0b7e" y="124.552987"/>
     <use style="stroke:#000000;stroke-width:1.5;" x="188.851272" xlink:href="#m047b0e0b7e" y="130.481037"/>
     <use style="stroke:#000000;stroke-width:1.5;" x="183.374696" xlink:href="#m047b0e0b7e" y="130.481037"/>
     <use style="stroke:#000000;stroke-width:1.5;" x="183.374696" xlink:href="#m047b0e0b7e" y="135.282757"/>
     <use style="stroke:#000000;stroke-width:1.5;" x="178.938669" xlink:href="#m047b0e0b7e" y="135.282757"/>
     <use style="stroke:#000000;stroke-width:1.5;" x="178.938669" xlink:href="#m047b0e0b7e" y="139.172151"/>
     <use style="stroke:#000000;stroke-width:1.5;" x="175.345488" xlink:href="#m047b0e0b7e" y="139.172151"/>
     <use style="stroke:#000000;stroke-width:1.5;" x="175.345488" xlink:href="#m047b0e0b7e" y="142.32256"/>
     <use style="stroke:#000000;stroke-width:1.5;" x="172.435011" xlink:href="#m047b0e0b7e" y="142.32256"/>
     <use style="stroke:#000000;stroke-width:1.5;" x="172.435011" xlink:href="#m047b0e0b7e" y="144.874391"/>
     <use style="stroke:#000000;stroke-width:1.5;" x="170.077524" xlink:href="#m047b0e0b7e" y="144.874391"/>
     <use style="stroke:#000000;stroke-width:1.5;" x="170.077524" xlink:href="#m047b0e0b7e" y="146.941374"/>
     <use style="stroke:#000000;stroke-width:1.5;" x="168.16796" xlink:href="#m047b0e0b7e" y="146.941374"/>
     <use style="stroke:#000000;stroke-width:1.5;" x="168.16796" xlink:href="#m047b0e0b7e" y="148.615631"/>
     <use style="stroke:#000000;stroke-width:1.5;" x="166.621213" xlink:href="#m047b0e0b7e" y="148.615631"/>
     <use style="stroke:#000000;stroke-width:1.5;" x="166.621213" xlink:href="#m047b0e0b7e" y="149.971778"/>
     <use style="stroke:#000000;stroke-width:1.5;" x="165.368349" xlink:href="#m047b0e0b7e" y="149.971778"/>
     <use style="stroke:#000000;stroke-width:1.5;" x="165.368349" xlink:href="#m047b0e0b7e" y="151.070258"/>
     <use style="stroke:#000000;stroke-width:1.5;" x="164.353528" xlink:href="#m047b0e0b7e" y="151.070258"/>
     <use style="stroke:#000000;stroke-width:1.5;" x="164.353528" xlink:href="#m047b0e0b7e" y="151.960026"/>
     <use style="stroke:#000000;stroke-width:1.5;" x="163.531523" xlink:href="#m047b0e0b7e" y="151.960026"/>
     <use style="stroke:#000000;stroke-width:1.5;" x="163.531523" xlink:href="#m047b0e0b7e" y="152.680739"/>
     <use style="stroke:#000000;stroke-width:1.5;" x="162.865699" xlink:href="#m047b0e0b7e" y="152.680739"/>
     <use style="stroke:#000000;stroke-width:1.5;" x="162.865699" xlink:href="#m047b0e0b7e" y="153.264516"/>
     <use style="stroke:#000000;stroke-width:1.5;" x="162.326382" xlink:href="#m047b0e0b7e" y="153.264516"/>
     <use style="stroke:#000000;stroke-width:1.5;" x="162.326382" xlink:href="#m047b0e0b7e" y="153.737375"/>
     <use style="stroke:#000000;stroke-width:1.5;" x="161.889535" xlink:href="#m047b0e0b7e" y="153.737375"/>
     <use style="stroke:#000000;stroke-width:1.5;" x="161.889535" xlink:href="#m047b0e0b7e" y="154.120392"/>
     <use style="stroke:#000000;stroke-width:1.5;" x="161.535689" xlink:href="#m047b0e0b7e" y="154.120392"/>
     <use style="stroke:#000000;stroke-width:1.5;" x="161.535689" xlink:href="#m047b0e0b7e" y="154.430635"/>
     <use style="stroke:#000000;stroke-width:1.5;" x="161.249074" xlink:href="#m047b0e0b7e" y="154.430635"/>
     <use style="stroke:#000000;stroke-width:1.5;" x="161.249074" xlink:href="#m047b0e0b7e" y="154.681932"/>
     <use style="stroke:#000000;stroke-width:1.5;" x="161.016915" xlink:href="#m047b0e0b7e" y="154.681932"/>
     <use style="stroke:#000000;stroke-width:1.5;" x="161.016915" xlink:href="#m047b0e0b7e" y="154.885482"/>
     <use style="stroke:#000000;stroke-width:1.5;" x="160.828867" xlink:href="#m047b0e0b7e" y="154.885482"/>
     <use style="stroke:#000000;stroke-width:1.5;" x="160.828867" xlink:href="#m047b0e0b7e" y="155.050358"/>
     <use style="stroke:#000000;stroke-width:1.5;" x="160.676548" xlink:href="#m047b0e0b7e" y="155.050358"/>
     <use style="stroke:#000000;stroke-width:1.5;" x="160.676548" xlink:href="#m047b0e0b7e" y="155.183907"/>
     <use style="stroke:#000000;stroke-width:1.5;" x="160.553169" xlink:href="#m047b0e0b7e" y="155.183907"/>
     <use style="stroke:#000000;stroke-width:1.5;" x="160.553169" xlink:href="#m047b0e0b7e" y="155.292083"/>
     <use style="stroke:#000000;stroke-width:1.5;" x="160.453233" xlink:href="#m047b0e0b7e" y="155.292083"/>
     <use style="stroke:#000000;stroke-width:1.5;" x="160.453233" xlink:href="#m047b0e0b7e" y="155.379704"/>
    </g>
   </g>
   <g id="matplotlib.axis_1">
    <g id="xtick_1">
     <g id="line2d_1">
      <defs>
       <path d="M 0 0 
L 0 3.5 
" id="m1812a1c9a4" style="stroke:#000000;stroke-width:0.8;"/>
      </defs>
      <g>
       <use style="stroke:#000000;stroke-width:0.8;" x="48.427188" xlink:href="#m1812a1c9a4" y="264.47325"/>
      </g>
     </g>
     <g id="text_1">
      <!-- −3 -->
      <defs>
       <path d="M 10.59375 35.5 
L 73.1875 35.5 
L 73.1875 27.203125 
L 10.59375 27.203125 
z
" id="DejaVuSans-8722"/>
       <path d="M 40.578125 39.3125 
Q 47.65625 37.796875 51.625 33 
Q 55.609375 28.21875 55.609375 21.1875 
Q 55.609375 10.40625 48.1875 4.484375 
Q 40.765625 -1.421875 27.09375 -1.421875 
Q 22.515625 -1.421875 17.65625 -0.515625 
Q 12.796875 0.390625 7.625 2.203125 
L 7.625 11.71875 
Q 11.71875 9.328125 16.59375 8.109375 
Q 21.484375 6.890625 26.8125 6.890625 
Q 36.078125 6.890625 40.9375 10.546875 
Q 45.796875 14.203125 45.796875 21.1875 
Q 45.796875 27.640625 41.28125 31.265625 
Q 36.765625 34.90625 28.71875 34.90625 
L 20.21875 34.90625 
L 20.21875 43.015625 
L 29.109375 43.015625 
Q 36.375 43.015625 40.234375 45.921875 
Q 44.09375 48.828125 44.09375 54.296875 
Q 44.09375 59.90625 40.109375 62.90625 
Q 36.140625 65.921875 28.71875 65.921875 
Q 24.65625 65.921875 20.015625 65.03125 
Q 15.375 64.15625 9.8125 62.3125 
L 9.8125 71.09375 
Q 15.4375 72.65625 20.34375 73.4375 
Q 25.25 74.21875 29.59375 74.21875 
Q 40.828125 74.21875 47.359375 69.109375 
Q 53.90625 64.015625 53.90625 55.328125 
Q 53.90625 49.265625 50.4375 45.09375 
Q 46.96875 40.921875 40.578125 39.3125 
z
" id="DejaVuSans-51"/>
      </defs>
      <g transform="translate(41.056094 279.071687)scale(0.1 -0.1)">
       <use xlink:href="#DejaVuSans-8722"/>
       <use x="83.789062" xlink:href="#DejaVuSans-51"/>
      </g>
     </g>
    </g>
    <g id="xtick_2">
     <g id="line2d_2">
      <g>
       <use style="stroke:#000000;stroke-width:0.8;" x="85.627188" xlink:href="#m1812a1c9a4" y="264.47325"/>
      </g>
     </g>
     <g id="text_2">
      <!-- −2 -->
      <defs>
       <path d="M 19.1875 8.296875 
L 53.609375 8.296875 
L 53.609375 0 
L 7.328125 0 
L 7.328125 8.296875 
Q 12.9375 14.109375 22.625 23.890625 
Q 32.328125 33.6875 34.8125 36.53125 
Q 39.546875 41.84375 41.421875 45.53125 
Q 43.3125 49.21875 43.3125 52.78125 
Q 43.3125 58.59375 39.234375 62.25 
Q 35.15625 65.921875 28.609375 65.921875 
Q 23.96875 65.921875 18.8125 64.3125 
Q 13.671875 62.703125 7.8125 59.421875 
L 7.8125 69.390625 
Q 13.765625 71.78125 18.9375 73 
Q 24.125 74.21875 28.421875 74.21875 
Q 39.75 74.21875 46.484375 68.546875 
Q 53.21875 62.890625 53.21875 53.421875 
Q 53.21875 48.921875 51.53125 44.890625 
Q 49.859375 40.875 45.40625 35.40625 
Q 44.1875 33.984375 37.640625 27.21875 
Q 31.109375 20.453125 19.1875 8.296875 
z
" id="DejaVuSans-50"/>
      </defs>
      <g transform="translate(78.256094 279.071687)scale(0.1 -0.1)">
       <use xlink:href="#DejaVuSans-8722"/>
       <use x="83.789062" xlink:href="#DejaVuSans-50"/>
      </g>
     </g>
    </g>
    <g id="xtick_3">
     <g id="line2d_3">
      <g>
       <use style="stroke:#000000;stroke-width:0.8;" x="122.827188" xlink:href="#m1812a1c9a4" y="264.47325"/>
      </g>
     </g>
     <g id="text_3">
      <!-- −1 -->
      <defs>
       <path d="M 12.40625 8.296875 
L 28.515625 8.296875 
L 28.515625 63.921875 
L 10.984375 60.40625 
L 10.984375 69.390625 
L 28.421875 72.90625 
L 38.28125 72.90625 
L 38.28125 8.296875 
L 54.390625 8.296875 
L 54.390625 0 
L 12.40625 0 
z
" id="DejaVuSans-49"/>
      </defs>
      <g transform="translate(115.456094 279.071687)scale(0.1 -0.1)">
       <use xlink:href="#DejaVuSans-8722"/>
       <use x="83.789062" xlink:href="#DejaVuSans-49"/>
      </g>
     </g>
    </g>
    <g id="xtick_4">
     <g id="line2d_4">
      <g>
       <use style="stroke:#000000;stroke-width:0.8;" x="160.027187" xlink:href="#m1812a1c9a4" y="264.47325"/>
      </g>
     </g>
     <g id="text_4">
      <!-- 0 -->
      <defs>
       <path d="M 31.78125 66.40625 
Q 24.171875 66.40625 20.328125 58.90625 
Q 16.5 51.421875 16.5 36.375 
Q 16.5 21.390625 20.328125 13.890625 
Q 24.171875 6.390625 31.78125 6.390625 
Q 39.453125 6.390625 43.28125 13.890625 
Q 47.125 21.390625 47.125 36.375 
Q 47.125 51.421875 43.28125 58.90625 
Q 39.453125 66.40625 31.78125 66.40625 
z
M 31.78125 74.21875 
Q 44.046875 74.21875 50.515625 64.515625 
Q 56.984375 54.828125 56.984375 36.375 
Q 56.984375 17.96875 50.515625 8.265625 
Q 44.046875 -1.421875 31.78125 -1.421875 
Q 19.53125 -1.421875 13.0625 8.265625 
Q 6.59375 17.96875 6.59375 36.375 
Q 6.59375 54.828125 13.0625 64.515625 
Q 19.53125 74.21875 31.78125 74.21875 
z
" id="DejaVuSans-48"/>
      </defs>
      <g transform="translate(156.845937 279.071687)scale(0.1 -0.1)">
       <use xlink:href="#DejaVuSans-48"/>
      </g>
     </g>
    </g>
    <g id="xtick_5">
     <g id="line2d_5">
      <g>
       <use style="stroke:#000000;stroke-width:0.8;" x="197.227187" xlink:href="#m1812a1c9a4" y="264.47325"/>
      </g>
     </g>
     <g id="text_5">
      <!-- 1 -->
      <g transform="translate(194.045937 279.071687)scale(0.1 -0.1)">
       <use xlink:href="#DejaVuSans-49"/>
      </g>
     </g>
    </g>
    <g id="xtick_6">
     <g id="line2d_6">
      <g>
       <use style="stroke:#000000;stroke-width:0.8;" x="234.427188" xlink:href="#m1812a1c9a4" y="264.47325"/>
      </g>
     </g>
     <g id="text_6">
      <!-- 2 -->
      <g transform="translate(231.245937 279.071687)scale(0.1 -0.1)">
       <use xlink:href="#DejaVuSans-50"/>
      </g>
     </g>
    </g>
    <g id="xtick_7">
     <g id="line2d_7">
      <g>
       <use style="stroke:#000000;stroke-width:0.8;" x="271.627187" xlink:href="#m1812a1c9a4" y="264.47325"/>
      </g>
     </g>
     <g id="text_7">
      <!-- 3 -->
      <g transform="translate(268.445938 279.071687)scale(0.1 -0.1)">
       <use xlink:href="#DejaVuSans-51"/>
      </g>
     </g>
    </g>
    <g id="text_8">
     <!-- $x_0$ -->
     <defs>
      <path d="M 60.015625 54.6875 
L 34.90625 27.875 
L 50.296875 0 
L 39.984375 0 
L 28.421875 21.6875 
L 8.296875 0 
L -2.59375 0 
L 24.3125 28.8125 
L 10.015625 54.6875 
L 20.3125 54.6875 
L 30.8125 34.90625 
L 49.125 54.6875 
z
" id="DejaVuSans-Oblique-120"/>
     </defs>
     <g transform="translate(151.467187 297.308875)scale(0.16 -0.16)">
      <use transform="translate(0 0.3125)" xlink:href="#DejaVuSans-Oblique-120"/>
      <use transform="translate(59.179688 -16.09375)scale(0.7)" xlink:href="#DejaVuSans-48"/>
     </g>
    </g>
   </g>
   <g id="matplotlib.axis_2">
    <g id="ytick_1">
     <g id="line2d_8">
      <defs>
       <path d="M 0 0 
L -3.5 0 
" id="md3a4f8d755" style="stroke:#000000;stroke-width:0.8;"/>
      </defs>
      <g>
       <use style="stroke:#000000;stroke-width:0.8;" x="48.427188" xlink:href="#md3a4f8d755" y="264.47325"/>
      </g>
     </g>
     <g id="text_9">
      <!-- −3 -->
      <g transform="translate(26.685 268.272469)scale(0.1 -0.1)">
       <use xlink:href="#DejaVuSans-8722"/>
       <use x="83.789062" xlink:href="#DejaVuSans-51"/>
      </g>
     </g>
    </g>
    <g id="ytick_2">
     <g id="line2d_9">
      <g>
       <use style="stroke:#000000;stroke-width:0.8;" x="48.427188" xlink:href="#md3a4f8d755" y="228.23325"/>
      </g>
     </g>
     <g id="text_10">
      <!-- −2 -->
      <g transform="translate(26.685 232.032469)scale(0.1 -0.1)">
       <use xlink:href="#DejaVuSans-8722"/>
       <use x="83.789062" xlink:href="#DejaVuSans-50"/>
      </g>
     </g>
    </g>
    <g id="ytick_3">
     <g id="line2d_10">
      <g>
       <use style="stroke:#000000;stroke-width:0.8;" x="48.427188" xlink:href="#md3a4f8d755" y="191.99325"/>
      </g>
     </g>
     <g id="text_11">
      <!-- −1 -->
      <g transform="translate(26.685 195.792469)scale(0.1 -0.1)">
       <use xlink:href="#DejaVuSans-8722"/>
       <use x="83.789062" xlink:href="#DejaVuSans-49"/>
      </g>
     </g>
    </g>
    <g id="ytick_4">
     <g id="line2d_11">
      <g>
       <use style="stroke:#000000;stroke-width:0.8;" x="48.427188" xlink:href="#md3a4f8d755" y="155.75325"/>
      </g>
     </g>
     <g id="text_12">
      <!-- 0 -->
      <g transform="translate(35.064688 159.552469)scale(0.1 -0.1)">
       <use xlink:href="#DejaVuSans-48"/>
      </g>
     </g>
    </g>
    <g id="ytick_5">
     <g id="line2d_12">
      <g>
       <use style="stroke:#000000;stroke-width:0.8;" x="48.427188" xlink:href="#md3a4f8d755" y="119.51325"/>
      </g>
     </g>
     <g id="text_13">
      <!-- 1 -->
      <g transform="translate(35.064688 123.312469)scale(0.1 -0.1)">
       <use xlink:href="#DejaVuSans-49"/>
      </g>
     </g>
    </g>
    <g id="ytick_6">
     <g id="line2d_13">
      <g>
       <use style="stroke:#000000;stroke-width:0.8;" x="48.427188" xlink:href="#md3a4f8d755" y="83.27325"/>
      </g>
     </g>
     <g id="text_14">
      <!-- 2 -->
      <g transform="translate(35.064688 87.072469)scale(0.1 -0.1)">
       <use xlink:href="#DejaVuSans-50"/>
      </g>
     </g>
    </g>
    <g id="ytick_7">
     <g id="line2d_14">
      <g>
       <use style="stroke:#000000;stroke-width:0.8;" x="48.427188" xlink:href="#md3a4f8d755" y="47.03325"/>
      </g>
     </g>
     <g id="text_15">
      <!-- 3 -->
      <g transform="translate(35.064688 50.832469)scale(0.1 -0.1)">
       <use xlink:href="#DejaVuSans-51"/>
      </g>
     </g>
    </g>
    <g id="text_16">
     <!-- $x_1$ -->
     <g transform="translate(19.3575 164.31325)rotate(-90)scale(0.16 -0.16)">
      <use transform="translate(0 0.3125)" xlink:href="#DejaVuSans-Oblique-120"/>
      <use transform="translate(59.179688 -16.09375)scale(0.7)" xlink:href="#DejaVuSans-49"/>
     </g>
    </g>
   </g>
   <g id="line2d_15">
    <path clip-path="url(#p8a4a7eed6d)" d="M 253.027187 83.27325 
L 226.987188 83.27325 
L 226.987188 97.04445 
L 214.264788 97.04445 
L 214.264788 108.199122 
L 203.959643 108.199122 
L 203.959643 117.234406 
L 195.612477 117.234406 
L 195.612477 124.552987 
L 188.851272 124.552987 
L 188.851272 130.481037 
L 183.374696 130.481037 
L 183.374696 135.282757 
L 178.938669 135.282757 
L 178.938669 139.172151 
L 175.345488 139.172151 
L 175.345488 142.32256 
L 172.435011 142.32256 
L 172.435011 144.874391 
L 170.077524 144.874391 
L 170.077524 146.941374 
L 168.16796 146.941374 
L 168.16796 148.615631 
L 166.621213 148.615631 
L 166.621213 149.971778 
L 165.368349 149.971778 
L 165.368349 151.070258 
L 164.353528 151.070258 
L 164.353528 151.960026 
L 163.531523 151.960026 
L 163.531523 152.680739 
L 162.865699 152.680739 
L 162.865699 153.264516 
L 162.326382 153.264516 
L 162.326382 153.737375 
L 161.889535 153.737375 
L 161.889535 154.120392 
L 161.535689 154.120392 
L 161.535689 154.430635 
L 161.249074 154.430635 
L 161.249074 154.681932 
L 161.016915 154.681932 
L 161.016915 154.885482 
L 160.828867 154.885482 
L 160.828867 155.050358 
L 160.676548 155.050358 
L 160.676548 155.183907 
L 160.553169 155.183907 
L 160.553169 155.292083 
L 160.453233 155.292083 
L 160.453233 155.379704 
" style="fill:none;stroke:#000000;stroke-linecap:square;stroke-width:1.5;"/>
   </g>
   <g id="patch_3">
    <path d="M 48.427188 264.47325 
L 48.427188 47.03325 
" style="fill:none;stroke:#000000;stroke-linecap:square;stroke-linejoin:miter;stroke-width:0.8;"/>
   </g>
   <g id="patch_4">
    <path d="M 271.627187 264.47325 
L 271.627187 47.03325 
" style="fill:none;stroke:#000000;stroke-linecap:square;stroke-linejoin:miter;stroke-width:0.8;"/>
   </g>
   <g id="patch_5">
    <path d="M 48.427188 264.47325 
L 271.627187 264.47325 
" style="fill:none;stroke:#000000;stroke-linecap:square;stroke-linejoin:miter;stroke-width:0.8;"/>
   </g>
   <g id="patch_6">
    <path d="M 48.427188 47.03325 
L 271.627187 47.03325 
" style="fill:none;stroke:#000000;stroke-linecap:square;stroke-linejoin:miter;stroke-width:0.8;"/>
   </g>
   <g id="text_17">
    <!-- Descent with orthogonal -->
    <defs>
     <path d="M 19.671875 64.796875 
L 19.671875 8.109375 
L 31.59375 8.109375 
Q 46.6875 8.109375 53.6875 14.9375 
Q 60.6875 21.78125 60.6875 36.53125 
Q 60.6875 51.171875 53.6875 57.984375 
Q 46.6875 64.796875 31.59375 64.796875 
z
M 9.8125 72.90625 
L 30.078125 72.90625 
Q 51.265625 72.90625 61.171875 64.09375 
Q 71.09375 55.28125 71.09375 36.53125 
Q 71.09375 17.671875 61.125 8.828125 
Q 51.171875 0 30.078125 0 
L 9.8125 0 
z
" id="DejaVuSans-68"/>
     <path d="M 56.203125 29.59375 
L 56.203125 25.203125 
L 14.890625 25.203125 
Q 15.484375 15.921875 20.484375 11.0625 
Q 25.484375 6.203125 34.421875 6.203125 
Q 39.59375 6.203125 44.453125 7.46875 
Q 49.3125 8.734375 54.109375 11.28125 
L 54.109375 2.78125 
Q 49.265625 0.734375 44.1875 -0.34375 
Q 39.109375 -1.421875 33.890625 -1.421875 
Q 20.796875 -1.421875 13.15625 6.1875 
Q 5.515625 13.8125 5.515625 26.8125 
Q 5.515625 40.234375 12.765625 48.109375 
Q 20.015625 56 32.328125 56 
Q 43.359375 56 49.78125 48.890625 
Q 56.203125 41.796875 56.203125 29.59375 
z
M 47.21875 32.234375 
Q 47.125 39.59375 43.09375 43.984375 
Q 39.0625 48.390625 32.421875 48.390625 
Q 24.90625 48.390625 20.390625 44.140625 
Q 15.875 39.890625 15.1875 32.171875 
z
" id="DejaVuSans-101"/>
     <path d="M 44.28125 53.078125 
L 44.28125 44.578125 
Q 40.484375 46.53125 36.375 47.5 
Q 32.28125 48.484375 27.875 48.484375 
Q 21.1875 48.484375 17.84375 46.4375 
Q 14.5 44.390625 14.5 40.28125 
Q 14.5 37.15625 16.890625 35.375 
Q 19.28125 33.59375 26.515625 31.984375 
L 29.59375 31.296875 
Q 39.15625 29.25 43.1875 25.515625 
Q 47.21875 21.78125 47.21875 15.09375 
Q 47.21875 7.46875 41.1875 3.015625 
Q 35.15625 -1.421875 24.609375 -1.421875 
Q 20.21875 -1.421875 15.453125 -0.5625 
Q 10.6875 0.296875 5.421875 2 
L 5.421875 11.28125 
Q 10.40625 8.6875 15.234375 7.390625 
Q 20.0625 6.109375 24.8125 6.109375 
Q 31.15625 6.109375 34.5625 8.28125 
Q 37.984375 10.453125 37.984375 14.40625 
Q 37.984375 18.0625 35.515625 20.015625 
Q 33.0625 21.96875 24.703125 23.78125 
L 21.578125 24.515625 
Q 13.234375 26.265625 9.515625 29.90625 
Q 5.8125 33.546875 5.8125 39.890625 
Q 5.8125 47.609375 11.28125 51.796875 
Q 16.75 56 26.8125 56 
Q 31.78125 56 36.171875 55.265625 
Q 40.578125 54.546875 44.28125 53.078125 
z
" id="DejaVuSans-115"/>
     <path d="M 48.78125 52.59375 
L 48.78125 44.1875 
Q 44.96875 46.296875 41.140625 47.34375 
Q 37.3125 48.390625 33.40625 48.390625 
Q 24.65625 48.390625 19.8125 42.84375 
Q 14.984375 37.3125 14.984375 27.296875 
Q 14.984375 17.28125 19.8125 11.734375 
Q 24.65625 6.203125 33.40625 6.203125 
Q 37.3125 6.203125 41.140625 7.25 
Q 44.96875 8.296875 48.78125 10.40625 
L 48.78125 2.09375 
Q 45.015625 0.34375 40.984375 -0.53125 
Q 36.96875 -1.421875 32.421875 -1.421875 
Q 20.0625 -1.421875 12.78125 6.34375 
Q 5.515625 14.109375 5.515625 27.296875 
Q 5.515625 40.671875 12.859375 48.328125 
Q 20.21875 56 33.015625 56 
Q 37.15625 56 41.109375 55.140625 
Q 45.0625 54.296875 48.78125 52.59375 
z
" id="DejaVuSans-99"/>
     <path d="M 54.890625 33.015625 
L 54.890625 0 
L 45.90625 0 
L 45.90625 32.71875 
Q 45.90625 40.484375 42.875 44.328125 
Q 39.84375 48.1875 33.796875 48.1875 
Q 26.515625 48.1875 22.3125 43.546875 
Q 18.109375 38.921875 18.109375 30.90625 
L 18.109375 0 
L 9.078125 0 
L 9.078125 54.6875 
L 18.109375 54.6875 
L 18.109375 46.1875 
Q 21.34375 51.125 25.703125 53.5625 
Q 30.078125 56 35.796875 56 
Q 45.21875 56 50.046875 50.171875 
Q 54.890625 44.34375 54.890625 33.015625 
z
" id="DejaVuSans-110"/>
     <path d="M 18.3125 70.21875 
L 18.3125 54.6875 
L 36.8125 54.6875 
L 36.8125 47.703125 
L 18.3125 47.703125 
L 18.3125 18.015625 
Q 18.3125 11.328125 20.140625 9.421875 
Q 21.96875 7.515625 27.59375 7.515625 
L 36.8125 7.515625 
L 36.8125 0 
L 27.59375 0 
Q 17.1875 0 13.234375 3.875 
Q 9.28125 7.765625 9.28125 18.015625 
L 9.28125 47.703125 
L 2.6875 47.703125 
L 2.6875 54.6875 
L 9.28125 54.6875 
L 9.28125 70.21875 
z
" id="DejaVuSans-116"/>
     <path id="DejaVuSans-32"/>
     <path d="M 4.203125 54.6875 
L 13.1875 54.6875 
L 24.421875 12.015625 
L 35.59375 54.6875 
L 46.1875 54.6875 
L 57.421875 12.015625 
L 68.609375 54.6875 
L 77.59375 54.6875 
L 63.28125 0 
L 52.6875 0 
L 40.921875 44.828125 
L 29.109375 0 
L 18.5 0 
z
" id="DejaVuSans-119"/>
     <path d="M 9.421875 54.6875 
L 18.40625 54.6875 
L 18.40625 0 
L 9.421875 0 
z
M 9.421875 75.984375 
L 18.40625 75.984375 
L 18.40625 64.59375 
L 9.421875 64.59375 
z
" id="DejaVuSans-105"/>
     <path d="M 54.890625 33.015625 
L 54.890625 0 
L 45.90625 0 
L 45.90625 32.71875 
Q 45.90625 40.484375 42.875 44.328125 
Q 39.84375 48.1875 33.796875 48.1875 
Q 26.515625 48.1875 22.3125 43.546875 
Q 18.109375 38.921875 18.109375 30.90625 
L 18.109375 0 
L 9.078125 0 
L 9.078125 75.984375 
L 18.109375 75.984375 
L 18.109375 46.1875 
Q 21.34375 51.125 25.703125 53.5625 
Q 30.078125 56 35.796875 56 
Q 45.21875 56 50.046875 50.171875 
Q 54.890625 44.34375 54.890625 33.015625 
z
" id="DejaVuSans-104"/>
     <path d="M 30.609375 48.390625 
Q 23.390625 48.390625 19.1875 42.75 
Q 14.984375 37.109375 14.984375 27.296875 
Q 14.984375 17.484375 19.15625 11.84375 
Q 23.34375 6.203125 30.609375 6.203125 
Q 37.796875 6.203125 41.984375 11.859375 
Q 46.1875 17.53125 46.1875 27.296875 
Q 46.1875 37.015625 41.984375 42.703125 
Q 37.796875 48.390625 30.609375 48.390625 
z
M 30.609375 56 
Q 42.328125 56 49.015625 48.375 
Q 55.71875 40.765625 55.71875 27.296875 
Q 55.71875 13.875 49.015625 6.21875 
Q 42.328125 -1.421875 30.609375 -1.421875 
Q 18.84375 -1.421875 12.171875 6.21875 
Q 5.515625 13.875 5.515625 27.296875 
Q 5.515625 40.765625 12.171875 48.375 
Q 18.84375 56 30.609375 56 
z
" id="DejaVuSans-111"/>
     <path d="M 41.109375 46.296875 
Q 39.59375 47.171875 37.8125 47.578125 
Q 36.03125 48 33.890625 48 
Q 26.265625 48 22.1875 43.046875 
Q 18.109375 38.09375 18.109375 28.8125 
L 18.109375 0 
L 9.078125 0 
L 9.078125 54.6875 
L 18.109375 54.6875 
L 18.109375 46.1875 
Q 20.953125 51.171875 25.484375 53.578125 
Q 30.03125 56 36.53125 56 
Q 37.453125 56 38.578125 55.875 
Q 39.703125 55.765625 41.0625 55.515625 
z
" id="DejaVuSans-114"/>
     <path d="M 45.40625 27.984375 
Q 45.40625 37.75 41.375 43.109375 
Q 37.359375 48.484375 30.078125 48.484375 
Q 22.859375 48.484375 18.828125 43.109375 
Q 14.796875 37.75 14.796875 27.984375 
Q 14.796875 18.265625 18.828125 12.890625 
Q 22.859375 7.515625 30.078125 7.515625 
Q 37.359375 7.515625 41.375 12.890625 
Q 45.40625 18.265625 45.40625 27.984375 
z
M 54.390625 6.78125 
Q 54.390625 -7.171875 48.1875 -13.984375 
Q 42 -20.796875 29.203125 -20.796875 
Q 24.46875 -20.796875 20.265625 -20.09375 
Q 16.0625 -19.390625 12.109375 -17.921875 
L 12.109375 -9.1875 
Q 16.0625 -11.328125 19.921875 -12.34375 
Q 23.78125 -13.375 27.78125 -13.375 
Q 36.625 -13.375 41.015625 -8.765625 
Q 45.40625 -4.15625 45.40625 5.171875 
L 45.40625 9.625 
Q 42.625 4.78125 38.28125 2.390625 
Q 33.9375 0 27.875 0 
Q 17.828125 0 11.671875 7.65625 
Q 5.515625 15.328125 5.515625 27.984375 
Q 5.515625 40.671875 11.671875 48.328125 
Q 17.828125 56 27.875 56 
Q 33.9375 56 38.28125 53.609375 
Q 42.625 51.21875 45.40625 46.390625 
L 45.40625 54.6875 
L 54.390625 54.6875 
z
" id="DejaVuSans-103"/>
     <path d="M 34.28125 27.484375 
Q 23.390625 27.484375 19.1875 25 
Q 14.984375 22.515625 14.984375 16.5 
Q 14.984375 11.71875 18.140625 8.90625 
Q 21.296875 6.109375 26.703125 6.109375 
Q 34.1875 6.109375 38.703125 11.40625 
Q 43.21875 16.703125 43.21875 25.484375 
L 43.21875 27.484375 
z
M 52.203125 31.203125 
L 52.203125 0 
L 43.21875 0 
L 43.21875 8.296875 
Q 40.140625 3.328125 35.546875 0.953125 
Q 30.953125 -1.421875 24.3125 -1.421875 
Q 15.921875 -1.421875 10.953125 3.296875 
Q 6 8.015625 6 15.921875 
Q 6 25.140625 12.171875 29.828125 
Q 18.359375 34.515625 30.609375 34.515625 
L 43.21875 34.515625 
L 43.21875 35.40625 
Q 43.21875 41.609375 39.140625 45 
Q 35.0625 48.390625 27.6875 48.390625 
Q 23 48.390625 18.546875 47.265625 
Q 14.109375 46.140625 10.015625 43.890625 
L 10.015625 52.203125 
Q 14.9375 54.109375 19.578125 55.046875 
Q 24.21875 56 28.609375 56 
Q 40.484375 56 46.34375 49.84375 
Q 52.203125 43.703125 52.203125 31.203125 
z
" id="DejaVuSans-97"/>
     <path d="M 9.421875 75.984375 
L 18.40625 75.984375 
L 18.40625 0 
L 9.421875 0 
z
" id="DejaVuSans-108"/>
    </defs>
    <g transform="translate(49.45375 20.877187)scale(0.18 -0.18)">
     <use xlink:href="#DejaVuSans-68"/>
     <use x="77.001953" xlink:href="#DejaVuSans-101"/>
     <use x="138.525391" xlink:href="#DejaVuSans-115"/>
     <use x="190.625" xlink:href="#DejaVuSans-99"/>
     <use x="245.605469" xlink:href="#DejaVuSans-101"/>
     <use x="307.128906" xlink:href="#DejaVuSans-110"/>
     <use x="370.507812" xlink:href="#DejaVuSans-116"/>
     <use x="409.716797" xlink:href="#DejaVuSans-32"/>
     <use x="441.503906" xlink:href="#DejaVuSans-119"/>
     <use x="523.291016" xlink:href="#DejaVuSans-105"/>
     <use x="551.074219" xlink:href="#DejaVuSans-116"/>
     <use x="590.283203" xlink:href="#DejaVuSans-104"/>
     <use x="653.662109" xlink:href="#DejaVuSans-32"/>
     <use x="685.449219" xlink:href="#DejaVuSans-111"/>
     <use x="746.630859" xlink:href="#DejaVuSans-114"/>
     <use x="787.744141" xlink:href="#DejaVuSans-116"/>
     <use x="826.953125" xlink:href="#DejaVuSans-104"/>
     <use x="890.332031" xlink:href="#DejaVuSans-111"/>
     <use x="951.513672" xlink:href="#DejaVuSans-103"/>
     <use x="1014.990234" xlink:href="#DejaVuSans-111"/>
     <use x="1076.171875" xlink:href="#DejaVuSans-110"/>
     <use x="1139.550781" xlink:href="#DejaVuSans-97"/>
     <use x="1200.830078" xlink:href="#DejaVuSans-108"/>
    </g>
    <!-- search directions -->
    <defs>
     <path d="M 45.40625 46.390625 
L 45.40625 75.984375 
L 54.390625 75.984375 
L 54.390625 0 
L 45.40625 0 
L 45.40625 8.203125 
Q 42.578125 3.328125 38.25 0.953125 
Q 33.9375 -1.421875 27.875 -1.421875 
Q 17.96875 -1.421875 11.734375 6.484375 
Q 5.515625 14.40625 5.515625 27.296875 
Q 5.515625 40.1875 11.734375 48.09375 
Q 17.96875 56 27.875 56 
Q 33.9375 56 38.25 53.625 
Q 42.578125 51.265625 45.40625 46.390625 
z
M 14.796875 27.296875 
Q 14.796875 17.390625 18.875 11.75 
Q 22.953125 6.109375 30.078125 6.109375 
Q 37.203125 6.109375 41.296875 11.75 
Q 45.40625 17.390625 45.40625 27.296875 
Q 45.40625 37.203125 41.296875 42.84375 
Q 37.203125 48.484375 30.078125 48.484375 
Q 22.953125 48.484375 18.875 42.84375 
Q 14.796875 37.203125 14.796875 27.296875 
z
" id="DejaVuSans-100"/>
    </defs>
    <g transform="translate(83.150312 41.03325)scale(0.18 -0.18)">
     <use xlink:href="#DejaVuSans-115"/>
     <use x="52.099609" xlink:href="#DejaVuSans-101"/>
     <use x="113.623047" xlink:href="#DejaVuSans-97"/>
     <use x="174.902344" xlink:href="#DejaVuSans-114"/>
     <use x="213.765625" xlink:href="#DejaVuSans-99"/>
     <use x="268.746094" xlink:href="#DejaVuSans-104"/>
     <use x="332.125" xlink:href="#DejaVuSans-32"/>
     <use x="363.912109" xlink:href="#DejaVuSans-100"/>
     <use x="427.388672" xlink:href="#DejaVuSans-105"/>
     <use x="455.171875" xlink:href="#DejaVuSans-114"/>
     <use x="494.035156" xlink:href="#DejaVuSans-101"/>
     <use x="555.558594" xlink:href="#DejaVuSans-99"/>
     <use x="610.539062" xlink:href="#DejaVuSans-116"/>
     <use x="649.748047" xlink:href="#DejaVuSans-105"/>
     <use x="677.53125" xlink:href="#DejaVuSans-111"/>
     <use x="738.712891" xlink:href="#DejaVuSans-110"/>
     <use x="802.091797" xlink:href="#DejaVuSans-115"/>
    </g>
   </g>
  </g>
 </g>
 <defs>
  <clipPath id="p8a4a7eed6d">
   <rect height="217.44" width="223.2" x="48.427188" y="47.03325"/>
  </clipPath>
 </defs>
</svg>
