<?xml version="1.0" encoding="utf-8" standalone="no"?>
<!DOCTYPE svg PUBLIC "-//W3C//DTD SVG 1.1//EN"
  "http://www.w3.org/Graphics/SVG/1.1/DTD/svg11.dtd">
<svg xmlns:xlink="http://www.w3.org/1999/xlink" width="345.36pt" height="354.659375pt" viewBox="0 0 345.36 354.659375" xmlns="http://www.w3.org/2000/svg" version="1.1">
 <metadata>
  <rdf:RDF xmlns:dc="http://purl.org/dc/elements/1.1/" xmlns:cc="http://creativecommons.org/ns#" xmlns:rdf="http://www.w3.org/1999/02/22-rdf-syntax-ns#">
   <cc:Work>
    <dc:type rdf:resource="http://purl.org/dc/dcmitype/StillImage"/>
    <dc:date>2023-11-30T18:01:25.780390</dc:date>
    <dc:format>image/svg+xml</dc:format>
    <dc:creator>
     <cc:Agent>
      <dc:title>Matplotlib v3.8.0, https://matplotlib.org/</dc:title>
     </cc:Agent>
    </dc:creator>
   </cc:Work>
  </rdf:RDF>
 </metadata>
 <defs>
  <style type="text/css">*{stroke-linejoin: round; stroke-linecap: butt}</style>
 </defs>
 <g id="figure_1">
  <g id="patch_1">
   <path d="M 0 354.659375 
L 345.36 354.659375 
L 345.36 0 
L 0 0 
z
" style="fill: #ffffff"/>
  </g>
  <g id="axes_1">
   <g id="patch_2">
    <path d="M 55.16 304.059375 
L 334.16 304.059375 
L 334.16 26.859375 
L 55.16 26.859375 
z
" style="fill: #ffffff"/>
   </g>
   <g id="QuadContourSet_1">
    <path d="M 23.807735 338.709375 
L 27.330453 338.709375 
L 30.853188 338.709375 
L 34.375907 338.709375 
L 37.898642 338.709375 
L 41.42136 338.709375 
L 44.944095 338.709375 
L 48.466813 338.709375 
L 51.989548 338.709375 
L 55.512275 338.709375 
L 59.035002 338.709375 
L 62.557729 338.709375 
L 66.080455 338.709375 
L 69.603182 338.709375 
L 73.125909 338.709375 
L 76.648635 338.709375 
L 80.171362 338.709375 
L 83.694089 338.709375 
L 87.216815 338.709375 
L 90.739542 338.709375 
L 94.262269 338.709375 
L 97.785004 338.709375 
L 101.30773 338.709375 
L 104.830457 338.709375 
L 108.353184 338.709375 
L 111.87591 338.709375 
L 115.398637 338.709375 
L 118.921364 338.709375 
L 122.44409 338.709375 
L 125.966817 338.709375 
L 129.489544 338.709375 
L 133.012275 338.709375 
L 136.535001 338.709375 
L 140.057728 338.709375 
L 143.580455 338.709375 
L 147.103181 338.709375 
L 150.625908 338.709375 
L 154.148635 338.709375 
L 157.671366 338.709375 
L 161.19409 338.709375 
L 164.716819 338.709375 
L 168.239546 338.709375 
L 171.762272 338.709375 
L 175.284999 338.709375 
L 178.807727 338.709375 
L 182.330455 338.709375 
L 185.853182 338.709375 
L 189.375909 338.709375 
L 192.898636 338.709375 
L 196.421364 338.709375 
L 199.944091 338.709375 
L 203.466818 338.709375 
L 206.989545 338.709375 
L 210.512273 338.709375 
L 214.035001 338.709375 
L 217.557728 338.709375 
L 221.080454 338.709375 
L 224.603181 338.709375 
L 228.12591 338.709375 
L 231.648634 338.709375 
L 235.171365 338.709375 
L 238.694092 338.709375 
L 242.216819 338.709375 
L 245.739545 338.709375 
L 249.262272 338.709375 
L 252.784999 338.709375 
L 256.307725 338.709375 
L 259.830456 338.709375 
L 263.353183 338.709375 
L 266.87591 338.709375 
L 270.398636 338.709375 
L 273.921363 338.709375 
L 277.44409 338.709375 
L 280.966816 338.709375 
L 284.489543 338.709375 
L 288.01227 338.709375 
L 291.534996 338.709375 
L 295.057731 338.709375 
L 298.580458 338.709375 
L 302.103185 338.709375 
L 305.625911 338.709375 
L 309.148638 338.709375 
L 312.671365 338.709375 
L 316.194091 338.709375 
L 319.716818 338.709375 
L 323.239545 338.709375 
L 326.762271 338.709375 
L 330.284998 338.709375 
L 333.807725 338.709375 
L 337.330452 338.709375 
L 340.853187 338.709375 
L 344.375905 338.709375 
L 347.89864 338.709375 
L 351.421358 338.709375 
L 354.944093 338.709375 
L 358.466812 338.709375 
L 361.989547 338.709375 
L 365.512265 338.709375 
L 369.035 338.709375 
L 369.035 335.209367 
L 369.035 331.709376 
L 369.035 328.209368 
L 369.035 324.709377 
L 369.035 321.20937 
L 369.035 317.709379 
L 369.035 314.209371 
L 369.035 310.70938 
L 369.035 307.209372 
L 369.035 303.709373 
L 369.035 300.209373 
L 369.035 296.709374 
L 369.035 293.209374 
L 369.035 289.709375 
L 369.035 286.209376 
L 369.035 282.709376 
L 369.035 279.209377 
L 369.035 275.709377 
L 369.035 272.209378 
L 369.035 268.709378 
L 369.035 265.209379 
L 369.035 261.709371 
L 369.035 258.209372 
L 369.035 254.709372 
L 369.035 251.209373 
L 369.035 247.709374 
L 369.035 244.209374 
L 369.035 240.709375 
L 369.035 237.209375 
L 369.035 233.709376 
L 369.035 230.209377 
L 369.035 226.709373 
L 369.035 223.209374 
L 369.035 219.709374 
L 369.035 216.209375 
L 369.035 212.709375 
L 369.035 209.209376 
L 369.035 205.709377 
L 369.035 202.209373 
L 369.035 198.709376 
L 369.035 195.209374 
L 369.035 191.709375 
L 369.035 188.209375 
L 369.035 184.709376 
L 369.035 181.209375 
L 369.035 177.709375 
L 369.035 174.209375 
L 369.035 170.709375 
L 369.035 167.209375 
L 369.035 163.709375 
L 369.035 160.209375 
L 369.035 156.709375 
L 369.035 153.209375 
L 369.035 149.709375 
L 369.035 146.209374 
L 369.035 142.709375 
L 369.035 139.209375 
L 369.035 135.709376 
L 369.035 132.209374 
L 369.035 128.709377 
L 369.035 125.209373 
L 369.035 121.709374 
L 369.035 118.209375 
L 369.035 114.709375 
L 369.035 111.209376 
L 369.035 107.709376 
L 369.035 104.209377 
L 369.035 100.709373 
L 369.035 97.209374 
L 369.035 93.709375 
L 369.035 90.209375 
L 369.035 86.709376 
L 369.035 83.209376 
L 369.035 79.709377 
L 369.035 76.209378 
L 369.035 72.709378 
L 369.035 69.209379 
L 369.035 65.709371 
L 369.035 62.209372 
L 369.035 58.709372 
L 369.035 55.209373 
L 369.035 51.709373 
L 369.035 48.209374 
L 369.035 44.709374 
L 369.035 41.209375 
L 369.035 37.709376 
L 369.035 34.209376 
L 369.035 30.709377 
L 369.035 27.209377 
L 369.035 23.709378 
L 369.035 20.20937 
L 369.035 16.709379 
L 369.035 13.209371 
L 369.035 9.70938 
L 369.035 6.209373 
L 369.035 2.709382 
L 369.035 -0.790626 
L 369.035 -4.290617 
L 369.035 -7.790625 
L 365.512265 -7.790625 
L 361.989547 -7.790625 
L 358.466812 -7.790625 
L 354.944093 -7.790625 
L 351.421358 -7.790625 
L 347.89864 -7.790625 
L 344.375905 -7.790625 
L 340.853187 -7.790625 
L 337.330452 -7.790625 
L 333.807725 -7.790625 
L 330.284998 -7.790625 
L 326.762271 -7.790625 
L 323.239545 -7.790625 
L 319.716818 -7.790625 
L 316.194091 -7.790625 
L 312.671365 -7.790625 
L 309.148638 -7.790625 
L 305.625911 -7.790625 
L 302.103185 -7.790625 
L 298.580458 -7.790625 
L 295.057731 -7.790625 
L 291.534996 -7.790625 
L 288.01227 -7.790625 
L 284.489543 -7.790625 
L 280.966816 -7.790625 
L 277.44409 -7.790625 
L 273.921363 -7.790625 
L 270.398636 -7.790625 
L 266.87591 -7.790625 
L 263.353183 -7.790625 
L 259.830456 -7.790625 
L 256.307725 -7.790625 
L 252.784999 -7.790625 
L 249.262272 -7.790625 
L 245.739545 -7.790625 
L 242.216819 -7.790625 
L 238.694092 -7.790625 
L 235.171365 -7.790625 
L 231.648634 -7.790625 
L 228.12591 -7.790625 
L 224.603181 -7.790625 
L 221.080454 -7.790625 
L 217.557728 -7.790625 
L 214.035001 -7.790625 
L 210.512273 -7.790625 
L 206.989545 -7.790625 
L 203.466818 -7.790625 
L 199.944091 -7.790625 
L 196.421364 -7.790625 
L 192.898636 -7.790625 
L 189.375909 -7.790625 
L 185.853182 -7.790625 
L 182.330455 -7.790625 
L 178.807727 -7.790625 
L 175.284999 -7.790625 
L 171.762272 -7.790625 
L 168.239546 -7.790625 
L 164.716819 -7.790625 
L 161.19409 -7.790625 
L 157.671366 -7.790625 
L 154.148635 -7.790625 
L 150.625908 -7.790625 
L 147.103181 -7.790625 
L 143.580455 -7.790625 
L 140.057728 -7.790625 
L 136.535001 -7.790625 
L 133.012275 -7.790625 
L 129.489544 -7.790625 
L 125.966817 -7.790625 
L 122.44409 -7.790625 
L 118.921364 -7.790625 
L 115.398637 -7.790625 
L 111.87591 -7.790625 
L 108.353184 -7.790625 
L 104.830457 -7.790625 
L 101.30773 -7.790625 
L 97.785004 -7.790625 
L 94.262269 -7.790625 
L 90.739542 -7.790625 
L 87.216815 -7.790625 
L 83.694089 -7.790625 
L 80.171362 -7.790625 
L 76.648635 -7.790625 
L 73.125909 -7.790625 
L 69.603182 -7.790625 
L 66.080455 -7.790625 
L 62.557729 -7.790625 
L 59.035002 -7.790625 
L 55.512275 -7.790625 
L 51.989548 -7.790625 
L 48.466813 -7.790625 
L 44.944095 -7.790625 
L 41.42136 -7.790625 
L 37.898642 -7.790625 
L 34.375907 -7.790625 
L 30.853188 -7.790625 
L 27.330453 -7.790625 
L 23.807735 -7.790625 
L 20.285 -7.790625 
L 20.285 -4.290617 
L 20.285 -0.790626 
L 20.285 2.709382 
L 20.285 6.209373 
L 20.285 9.70938 
L 20.285 13.209371 
L 20.285 16.709379 
L 20.285 20.20937 
L 20.285 23.709378 
L 20.285 27.209377 
L 20.285 30.709377 
L 20.285 34.209376 
L 20.285 37.709376 
L 20.285 41.209375 
L 20.285 44.709374 
L 20.285 48.209374 
L 20.285 51.709373 
L 20.285 55.209373 
L 20.285 58.709372 
L 20.285 62.209372 
L 20.285 65.709371 
L 20.285 69.209379 
L 20.285 72.709378 
L 20.285 76.209378 
L 20.285 79.709377 
L 20.285 83.209376 
L 20.285 86.709376 
L 20.285 90.209375 
L 20.285 93.709375 
L 20.285 97.209374 
L 20.285 100.709373 
L 20.285 104.209377 
L 20.285 107.709376 
L 20.285 111.209376 
L 20.285 114.709375 
L 20.285 118.209375 
L 20.285 121.709374 
L 20.285 125.209373 
L 20.285 128.709377 
L 20.285 132.209374 
L 20.285 135.709376 
L 20.285 139.209375 
L 20.285 142.709375 
L 20.285 146.209374 
L 20.285 149.709375 
L 20.285 153.209375 
L 20.285 156.709375 
L 20.285 160.209375 
L 20.285 163.709375 
L 20.285 167.209375 
L 20.285 170.709375 
L 20.285 174.209375 
L 20.285 177.709375 
L 20.285 181.209375 
L 20.285 184.709376 
L 20.285 188.209375 
L 20.285 191.709375 
L 20.285 195.209374 
L 20.285 198.709376 
L 20.285 202.209373 
L 20.285 205.709377 
L 20.285 209.209376 
L 20.285 212.709375 
L 20.285 216.209375 
L 20.285 219.709374 
L 20.285 223.209374 
L 20.285 226.709373 
L 20.285 230.209377 
L 20.285 233.709376 
L 20.285 237.209375 
L 20.285 240.709375 
L 20.285 244.209374 
L 20.285 247.709374 
L 20.285 251.209373 
L 20.285 254.709372 
L 20.285 258.209372 
L 20.285 261.709371 
L 20.285 265.209379 
L 20.285 268.709378 
L 20.285 272.209378 
L 20.285 275.709377 
L 20.285 279.209377 
L 20.285 282.709376 
L 20.285 286.209376 
L 20.285 289.709375 
L 20.285 293.209374 
L 20.285 296.709374 
L 20.285 300.209373 
L 20.285 303.709373 
L 20.285 307.209372 
L 20.285 310.70938 
L 20.285 314.209371 
L 20.285 317.709379 
L 20.285 321.20937 
L 20.285 324.709377 
L 20.285 328.209368 
L 20.285 331.709376 
L 20.285 335.209367 
L 20.285 338.709375 
z
M 121.583574 191.709375 
L 118.921364 191.335517 
L 115.398637 190.342333 
L 111.87591 188.624708 
L 111.235312 188.209375 
L 108.353184 186.322571 
L 106.524132 184.709376 
L 104.830457 182.947515 
L 103.36793 181.209375 
L 101.30773 177.793182 
L 101.256148 177.709375 
L 99.599108 174.209375 
L 98.658005 170.709375 
L 98.230594 167.209375 
L 98.230594 163.709375 
L 98.658005 160.209375 
L 99.599108 156.709375 
L 101.256148 153.209375 
L 101.30773 153.125568 
L 103.36793 149.709375 
L 104.830457 147.971235 
L 106.524132 146.209374 
L 108.353184 144.596179 
L 111.235312 142.709375 
L 111.87591 142.294042 
L 115.398637 140.576417 
L 118.921364 139.583233 
L 121.583574 139.209375 
L 122.44409 139.051757 
L 125.966817 138.942756 
L 128.122857 139.209375 
L 129.489544 139.335687 
L 133.012275 140.107668 
L 136.535001 141.499308 
L 138.5728 142.709375 
L 140.057728 143.577292 
L 143.251879 146.209374 
L 143.580455 146.520677 
L 146.414518 149.709375 
L 147.103181 150.76324 
L 148.678593 153.209375 
L 150.147596 156.709375 
L 150.625908 158.605856 
L 151.119038 160.209375 
L 151.643903 163.709375 
L 151.643903 167.209375 
L 151.119038 170.709375 
L 150.625908 172.312894 
L 150.147596 174.209375 
L 148.678593 177.709375 
L 147.103181 180.15551 
L 146.414518 181.209375 
L 143.580455 184.398073 
L 143.251879 184.709376 
L 140.057728 187.341458 
L 138.5728 188.209375 
L 136.535001 189.419442 
L 133.012275 190.811082 
L 129.489544 191.583063 
L 128.122857 191.709375 
L 125.966817 191.975994 
L 122.44409 191.866993 
z
M 261.197143 191.709375 
L 259.830456 191.583063 
L 256.307725 190.811082 
L 252.784999 189.419442 
L 250.7472 188.209375 
L 249.262272 187.341458 
L 246.068121 184.709376 
L 245.739545 184.398073 
L 242.905482 181.209375 
L 242.216819 180.15551 
L 240.641407 177.709375 
L 239.172404 174.209375 
L 238.694092 172.312894 
L 238.200962 170.709375 
L 237.676097 167.209375 
L 237.676097 163.709375 
L 238.200962 160.209375 
L 238.694092 158.605856 
L 239.172404 156.709375 
L 240.641407 153.209375 
L 242.216819 150.76324 
L 242.905482 149.709375 
L 245.739545 146.520677 
L 246.068121 146.209374 
L 249.262272 143.577292 
L 250.7472 142.709375 
L 252.784999 141.499308 
L 256.307725 140.107668 
L 259.830456 139.335687 
L 261.197143 139.209375 
L 263.353183 138.942756 
L 266.87591 139.051757 
L 267.736426 139.209375 
L 270.398636 139.583233 
L 273.921363 140.576417 
L 277.44409 142.294042 
L 278.084688 142.709375 
L 280.966816 144.596179 
L 282.795868 146.209374 
L 284.489543 147.971235 
L 285.95207 149.709375 
L 288.01227 153.125568 
L 288.063852 153.209375 
L 289.720892 156.709375 
L 290.661995 160.209375 
L 291.089406 163.709375 
L 291.089406 167.209375 
L 290.661995 170.709375 
L 289.720892 174.209375 
L 288.063852 177.709375 
L 288.01227 177.793182 
L 285.95207 181.209375 
L 284.489543 182.947515 
L 282.795868 184.709376 
L 280.966816 186.322571 
L 278.084688 188.209375 
L 277.44409 188.624708 
L 273.921363 190.342333 
L 270.398636 191.335517 
L 267.736426 191.709375 
L 266.87591 191.866993 
L 263.353183 191.975994 
z
" clip-path="url(#p2915237e65)" style="fill: #506bda"/>
    <path d="M 122.44409 191.866993 
L 125.966817 191.975994 
L 128.122857 191.709375 
L 129.489544 191.583063 
L 133.012275 190.811082 
L 136.535001 189.419442 
L 138.5728 188.209375 
L 140.057728 187.341458 
L 143.251879 184.709376 
L 143.580455 184.398073 
L 146.414518 181.209375 
L 147.103181 180.15551 
L 148.678593 177.709375 
L 150.147596 174.209375 
L 150.625908 172.312894 
L 151.119038 170.709375 
L 151.643903 167.209375 
L 151.643903 163.709375 
L 151.119038 160.209375 
L 150.625908 158.605856 
L 150.147596 156.709375 
L 148.678593 153.209375 
L 147.103181 150.76324 
L 146.414518 149.709375 
L 143.580455 146.520677 
L 143.251879 146.209374 
L 140.057728 143.577292 
L 138.5728 142.709375 
L 136.535001 141.499308 
L 133.012275 140.107668 
L 129.489544 139.335687 
L 128.122857 139.209375 
L 125.966817 138.942756 
L 122.44409 139.051757 
L 121.583574 139.209375 
L 118.921364 139.583233 
L 115.398637 140.576417 
L 111.87591 142.294042 
L 111.235312 142.709375 
L 108.353184 144.596179 
L 106.524132 146.209374 
L 104.830457 147.971235 
L 103.36793 149.709375 
L 101.30773 153.125568 
L 101.256148 153.209375 
L 99.599108 156.709375 
L 98.658005 160.209375 
L 98.230594 163.709375 
L 98.230594 167.209375 
L 98.658005 170.709375 
L 99.599108 174.209375 
L 101.256148 177.709375 
L 101.30773 177.793182 
L 103.36793 181.209375 
L 104.830457 182.947515 
L 106.524132 184.709376 
L 108.353184 186.322571 
L 111.235312 188.209375 
L 111.87591 188.624708 
L 115.398637 190.342333 
L 118.921364 191.335517 
L 121.583574 191.709375 
z
M 116.914762 184.709376 
L 115.398637 184.105257 
L 111.87591 181.858717 
L 111.116515 181.209375 
L 108.353184 178.307353 
L 107.873054 177.709375 
L 105.783279 174.209375 
L 104.830457 171.472978 
L 104.548655 170.709375 
L 103.899654 167.209375 
L 103.899654 163.709375 
L 104.548655 160.209375 
L 104.830457 159.445772 
L 105.783279 156.709375 
L 107.873054 153.209375 
L 108.353184 152.611397 
L 111.116515 149.709375 
L 111.87591 149.060033 
L 115.398637 146.813493 
L 116.914762 146.209374 
L 118.921364 145.388547 
L 122.44409 144.638009 
L 125.966817 144.518407 
L 129.489544 145.0061 
L 133.012275 146.198775 
L 133.033015 146.209374 
L 136.535001 148.020573 
L 138.691431 149.709375 
L 140.057728 150.990446 
L 141.964653 153.209375 
L 143.580455 155.936182 
L 144.018737 156.709375 
L 145.330597 160.209375 
L 145.926388 163.709375 
L 145.926388 167.209375 
L 145.330597 170.709375 
L 144.018737 174.209375 
L 143.580455 174.982568 
L 141.964653 177.709375 
L 140.057728 179.928304 
L 138.691431 181.209375 
L 136.535001 182.898177 
L 133.033015 184.709376 
L 133.012275 184.719975 
L 129.489544 185.91265 
L 125.966817 186.400343 
L 122.44409 186.280741 
L 118.921364 185.530203 
z
M 263.353183 191.975994 
L 266.87591 191.866993 
L 267.736426 191.709375 
L 270.398636 191.335517 
L 273.921363 190.342333 
L 277.44409 188.624708 
L 278.084688 188.209375 
L 280.966816 186.322571 
L 282.795868 184.709376 
L 284.489543 182.947515 
L 285.95207 181.209375 
L 288.01227 177.793182 
L 288.063852 177.709375 
L 289.720892 174.209375 
L 290.661995 170.709375 
L 291.089406 167.209375 
L 291.089406 163.709375 
L 290.661995 160.209375 
L 289.720892 156.709375 
L 288.063852 153.209375 
L 288.01227 153.125568 
L 285.95207 149.709375 
L 284.489543 147.971235 
L 282.795868 146.209374 
L 280.966816 144.596179 
L 278.084688 142.709375 
L 277.44409 142.294042 
L 273.921363 140.576417 
L 270.398636 139.583233 
L 267.736426 139.209375 
L 266.87591 139.051757 
L 263.353183 138.942756 
L 261.197143 139.209375 
L 259.830456 139.335687 
L 256.307725 140.107668 
L 252.784999 141.499308 
L 250.7472 142.709375 
L 249.262272 143.577292 
L 246.068121 146.209374 
L 245.739545 146.520677 
L 242.905482 149.709375 
L 242.216819 150.76324 
L 240.641407 153.209375 
L 239.172404 156.709375 
L 238.694092 158.605856 
L 238.200962 160.209375 
L 237.676097 163.709375 
L 237.676097 167.209375 
L 238.200962 170.709375 
L 238.694092 172.312894 
L 239.172404 174.209375 
L 240.641407 177.709375 
L 242.216819 180.15551 
L 242.905482 181.209375 
L 245.739545 184.398073 
L 246.068121 184.709376 
L 249.262272 187.341458 
L 250.7472 188.209375 
L 252.784999 189.419442 
L 256.307725 190.811082 
L 259.830456 191.583063 
L 261.197143 191.709375 
z
M 256.286985 184.709376 
L 252.784999 182.898177 
L 250.628569 181.209375 
L 249.262272 179.928304 
L 247.355347 177.709375 
L 245.739545 174.982568 
L 245.301263 174.209375 
L 243.989403 170.709375 
L 243.393612 167.209375 
L 243.393612 163.709375 
L 243.989403 160.209375 
L 245.301263 156.709375 
L 245.739545 155.936182 
L 247.355347 153.209375 
L 249.262272 150.990446 
L 250.628569 149.709375 
L 252.784999 148.020573 
L 256.286985 146.209374 
L 256.307725 146.198775 
L 259.830456 145.0061 
L 263.353183 144.518407 
L 266.87591 144.638009 
L 270.398636 145.388547 
L 272.405238 146.209374 
L 273.921363 146.813493 
L 277.44409 149.060033 
L 278.203485 149.709375 
L 280.966816 152.611397 
L 281.446946 153.209375 
L 283.536721 156.709375 
L 284.489543 159.445772 
L 284.771345 160.209375 
L 285.420346 163.709375 
L 285.420346 167.209375 
L 284.771345 170.709375 
L 284.489543 171.472978 
L 283.536721 174.209375 
L 281.446946 177.709375 
L 280.966816 178.307353 
L 278.203485 181.209375 
L 277.44409 181.858717 
L 273.921363 184.105257 
L 272.405238 184.709376 
L 270.398636 185.530203 
L 266.87591 186.280741 
L 263.353183 186.400343 
L 259.830456 185.91265 
L 256.307725 184.719975 
z
" clip-path="url(#p2915237e65)" style="fill: #80a3fa"/>
    <path d="M 118.921364 185.530203 
L 122.44409 186.280741 
L 125.966817 186.400343 
L 129.489544 185.91265 
L 133.012275 184.719975 
L 133.033015 184.709376 
L 136.535001 182.898177 
L 138.691431 181.209375 
L 140.057728 179.928304 
L 141.964653 177.709375 
L 143.580455 174.982568 
L 144.018737 174.209375 
L 145.330597 170.709375 
L 145.926388 167.209375 
L 145.926388 163.709375 
L 145.330597 160.209375 
L 144.018737 156.709375 
L 143.580455 155.936182 
L 141.964653 153.209375 
L 140.057728 150.990446 
L 138.691431 149.709375 
L 136.535001 148.020573 
L 133.033015 146.209374 
L 133.012275 146.198775 
L 129.489544 145.0061 
L 125.966817 144.518407 
L 122.44409 144.638009 
L 118.921364 145.388547 
L 116.914762 146.209374 
L 115.398637 146.813493 
L 111.87591 149.060033 
L 111.116515 149.709375 
L 108.353184 152.611397 
L 107.873054 153.209375 
L 105.783279 156.709375 
L 104.830457 159.445772 
L 104.548655 160.209375 
L 103.899654 163.709375 
L 103.899654 167.209375 
L 104.548655 170.709375 
L 104.830457 171.472978 
L 105.783279 174.209375 
L 107.873054 177.709375 
L 108.353184 178.307353 
L 111.116515 181.209375 
L 111.87591 181.858717 
L 115.398637 184.105257 
L 116.914762 184.709376 
z
M 119.327811 181.209375 
L 118.921364 181.098848 
L 115.398637 179.268002 
L 113.485223 177.709375 
L 111.87591 175.992579 
L 110.545868 174.209375 
L 108.909897 170.709375 
L 108.353184 168.129468 
L 108.150469 167.209375 
L 108.150469 163.709375 
L 108.353184 162.789282 
L 108.909897 160.209375 
L 110.545868 156.709375 
L 111.87591 154.926171 
L 113.485223 153.209375 
L 115.398637 151.650748 
L 118.921364 149.819902 
L 119.327811 149.709375 
L 122.44409 148.873918 
L 125.966817 148.72204 
L 129.489544 149.341347 
L 130.422105 149.709375 
L 133.012275 150.786652 
L 136.369653 153.209375 
L 136.535001 153.3617 
L 139.261275 156.709375 
L 140.057728 158.304504 
L 140.928368 160.209375 
L 141.699929 163.709375 
L 141.699929 167.209375 
L 140.928368 170.709375 
L 140.057728 172.614246 
L 139.261275 174.209375 
L 136.535001 177.55705 
L 136.369653 177.709375 
L 133.012275 180.132098 
L 130.422105 181.209375 
L 129.489544 181.577403 
L 125.966817 182.19671 
L 122.44409 182.044832 
z
M 256.307725 184.719975 
L 259.830456 185.91265 
L 263.353183 186.400343 
L 266.87591 186.280741 
L 270.398636 185.530203 
L 272.405238 184.709376 
L 273.921363 184.105257 
L 277.44409 181.858717 
L 278.203485 181.209375 
L 280.966816 178.307353 
L 281.446946 177.709375 
L 283.536721 174.209375 
L 284.489543 171.472978 
L 284.771345 170.709375 
L 285.420346 167.209375 
L 285.420346 163.709375 
L 284.771345 160.209375 
L 284.489543 159.445772 
L 283.536721 156.709375 
L 281.446946 153.209375 
L 280.966816 152.611397 
L 278.203485 149.709375 
L 277.44409 149.060033 
L 273.921363 146.813493 
L 272.405238 146.209374 
L 270.398636 145.388547 
L 266.87591 144.638009 
L 263.353183 144.518407 
L 259.830456 145.0061 
L 256.307725 146.198775 
L 256.286985 146.209374 
L 252.784999 148.020573 
L 250.628569 149.709375 
L 249.262272 150.990446 
L 247.355347 153.209375 
L 245.739545 155.936182 
L 245.301263 156.709375 
L 243.989403 160.209375 
L 243.393612 163.709375 
L 243.393612 167.209375 
L 243.989403 170.709375 
L 245.301263 174.209375 
L 245.739545 174.982568 
L 247.355347 177.709375 
L 249.262272 179.928304 
L 250.628569 181.209375 
L 252.784999 182.898177 
L 256.286985 184.709376 
z
M 258.897895 181.209375 
L 256.307725 180.132098 
L 252.950347 177.709375 
L 252.784999 177.55705 
L 250.058725 174.209375 
L 249.262272 172.614246 
L 248.391632 170.709375 
L 247.620071 167.209375 
L 247.620071 163.709375 
L 248.391632 160.209375 
L 249.262272 158.304504 
L 250.058725 156.709375 
L 252.784999 153.3617 
L 252.950347 153.209375 
L 256.307725 150.786652 
L 258.897895 149.709375 
L 259.830456 149.341347 
L 263.353183 148.72204 
L 266.87591 148.873918 
L 269.992189 149.709375 
L 270.398636 149.819902 
L 273.921363 151.650748 
L 275.834777 153.209375 
L 277.44409 154.926171 
L 278.774132 156.709375 
L 280.410103 160.209375 
L 280.966816 162.789282 
L 281.169531 163.709375 
L 281.169531 167.209375 
L 280.966816 168.129468 
L 280.410103 170.709375 
L 278.774132 174.209375 
L 277.44409 175.992579 
L 275.834777 177.709375 
L 273.921363 179.268002 
L 270.398636 181.098848 
L 269.992189 181.209375 
L 266.87591 182.044832 
L 263.353183 182.19671 
L 259.830456 181.577403 
z
" clip-path="url(#p2915237e65)" style="fill: #b2ccfb"/>
    <path d="M 122.44409 182.044832 
L 125.966817 182.19671 
L 129.489544 181.577403 
L 130.422105 181.209375 
L 133.012275 180.132098 
L 136.369653 177.709375 
L 136.535001 177.55705 
L 139.261275 174.209375 
L 140.057728 172.614246 
L 140.928368 170.709375 
L 141.699929 167.209375 
L 141.699929 163.709375 
L 140.928368 160.209375 
L 140.057728 158.304504 
L 139.261275 156.709375 
L 136.535001 153.3617 
L 136.369653 153.209375 
L 133.012275 150.786652 
L 130.422105 149.709375 
L 129.489544 149.341347 
L 125.966817 148.72204 
L 122.44409 148.873918 
L 119.327811 149.709375 
L 118.921364 149.819902 
L 115.398637 151.650748 
L 113.485223 153.209375 
L 111.87591 154.926171 
L 110.545868 156.709375 
L 108.909897 160.209375 
L 108.353184 162.789282 
L 108.150469 163.709375 
L 108.150469 167.209375 
L 108.353184 168.129468 
L 108.909897 170.709375 
L 110.545868 174.209375 
L 111.87591 175.992579 
L 113.485223 177.709375 
L 115.398637 179.268002 
L 118.921364 181.098848 
L 119.327811 181.209375 
z
M 120.809408 177.709375 
L 118.921364 177.001788 
L 115.398637 174.394958 
L 115.22244 174.209375 
L 112.958379 170.709375 
L 111.930135 167.209375 
L 111.930135 163.709375 
L 112.958379 160.209375 
L 115.22244 156.709375 
L 115.398637 156.523792 
L 118.921364 153.916962 
L 120.809408 153.209375 
L 122.44409 152.677946 
L 125.966817 152.487671 
L 129.255017 153.209375 
L 129.489544 153.267221 
L 133.012275 155.293456 
L 134.529775 156.709375 
L 136.535001 159.57251 
L 136.891667 160.209375 
L 137.88093 163.709375 
L 137.88093 167.209375 
L 136.891667 170.709375 
L 136.535001 171.34624 
L 134.529775 174.209375 
L 133.012275 175.625294 
L 129.489544 177.651529 
L 129.255017 177.709375 
L 125.966817 178.431079 
L 122.44409 178.240804 
z
M 259.830456 181.577403 
L 263.353183 182.19671 
L 266.87591 182.044832 
L 269.992189 181.209375 
L 270.398636 181.098848 
L 273.921363 179.268002 
L 275.834777 177.709375 
L 277.44409 175.992579 
L 278.774132 174.209375 
L 280.410103 170.709375 
L 280.966816 168.129468 
L 281.169531 167.209375 
L 281.169531 163.709375 
L 280.966816 162.789282 
L 280.410103 160.209375 
L 278.774132 156.709375 
L 277.44409 154.926171 
L 275.834777 153.209375 
L 273.921363 151.650748 
L 270.398636 149.819902 
L 269.992189 149.709375 
L 266.87591 148.873918 
L 263.353183 148.72204 
L 259.830456 149.341347 
L 258.897895 149.709375 
L 256.307725 150.786652 
L 252.950347 153.209375 
L 252.784999 153.3617 
L 250.058725 156.709375 
L 249.262272 158.304504 
L 248.391632 160.209375 
L 247.620071 163.709375 
L 247.620071 167.209375 
L 248.391632 170.709375 
L 249.262272 172.614246 
L 250.058725 174.209375 
L 252.784999 177.55705 
L 252.950347 177.709375 
L 256.307725 180.132098 
L 258.897895 181.209375 
z
M 260.064983 177.709375 
L 259.830456 177.651529 
L 256.307725 175.625294 
L 254.790225 174.209375 
L 252.784999 171.34624 
L 252.428333 170.709375 
L 251.43907 167.209375 
L 251.43907 163.709375 
L 252.428333 160.209375 
L 252.784999 159.57251 
L 254.790225 156.709375 
L 256.307725 155.293456 
L 259.830456 153.267221 
L 260.064983 153.209375 
L 263.353183 152.487671 
L 266.87591 152.677946 
L 268.510592 153.209375 
L 270.398636 153.916962 
L 273.921363 156.523792 
L 274.09756 156.709375 
L 276.361621 160.209375 
L 277.389865 163.709375 
L 277.389865 167.209375 
L 276.361621 170.709375 
L 274.09756 174.209375 
L 273.921363 174.394958 
L 270.398636 177.001788 
L 268.510592 177.709375 
L 266.87591 178.240804 
L 263.353183 178.431079 
z
" clip-path="url(#p2915237e65)" style="fill: #dddcdc"/>
    <path d="M 122.44409 178.240804 
L 125.966817 178.431079 
L 129.255017 177.709375 
L 129.489544 177.651529 
L 133.012275 175.625294 
L 134.529775 174.209375 
L 136.535001 171.34624 
L 136.891667 170.709375 
L 137.88093 167.209375 
L 137.88093 163.709375 
L 136.891667 160.209375 
L 136.535001 159.57251 
L 134.529775 156.709375 
L 133.012275 155.293456 
L 129.489544 153.267221 
L 129.255017 153.209375 
L 125.966817 152.487671 
L 122.44409 152.677946 
L 120.809408 153.209375 
L 118.921364 153.916962 
L 115.398637 156.523792 
L 115.22244 156.709375 
L 112.958379 160.209375 
L 111.930135 163.709375 
L 111.930135 167.209375 
L 112.958379 170.709375 
L 115.22244 174.209375 
L 115.398637 174.394958 
L 118.921364 177.001788 
L 120.809408 177.709375 
z
M 122.303404 174.209375 
L 118.921364 172.244867 
L 117.507612 170.709375 
L 115.932333 167.209375 
L 115.932333 163.709375 
L 117.507612 160.209375 
L 118.921364 158.673883 
L 122.303404 156.709375 
L 122.44409 156.650237 
L 125.966817 156.396247 
L 127.070171 156.709375 
L 129.489544 157.634263 
L 132.351416 160.209375 
L 133.012275 161.422238 
L 133.881972 163.709375 
L 133.881972 167.209375 
L 133.012275 169.496512 
L 132.351416 170.709375 
L 129.489544 173.284487 
L 127.070171 174.209375 
L 125.966817 174.522503 
L 122.44409 174.268513 
z
M 263.353183 178.431079 
L 266.87591 178.240804 
L 268.510592 177.709375 
L 270.398636 177.001788 
L 273.921363 174.394958 
L 274.09756 174.209375 
L 276.361621 170.709375 
L 277.389865 167.209375 
L 277.389865 163.709375 
L 276.361621 160.209375 
L 274.09756 156.709375 
L 273.921363 156.523792 
L 270.398636 153.916962 
L 268.510592 153.209375 
L 266.87591 152.677946 
L 263.353183 152.487671 
L 260.064983 153.209375 
L 259.830456 153.267221 
L 256.307725 155.293456 
L 254.790225 156.709375 
L 252.784999 159.57251 
L 252.428333 160.209375 
L 251.43907 163.709375 
L 251.43907 167.209375 
L 252.428333 170.709375 
L 252.784999 171.34624 
L 254.790225 174.209375 
L 256.307725 175.625294 
L 259.830456 177.651529 
L 260.064983 177.709375 
z
M 262.249829 174.209375 
L 259.830456 173.284487 
L 256.968584 170.709375 
L 256.307725 169.496512 
L 255.438028 167.209375 
L 255.438028 163.709375 
L 256.307725 161.422238 
L 256.968584 160.209375 
L 259.830456 157.634263 
L 262.249829 156.709375 
L 263.353183 156.396247 
L 266.87591 156.650237 
L 267.016596 156.709375 
L 270.398636 158.673883 
L 271.812388 160.209375 
L 273.387667 163.709375 
L 273.387667 167.209375 
L 271.812388 170.709375 
L 270.398636 172.244867 
L 267.016596 174.209375 
L 266.87591 174.268513 
L 263.353183 174.522503 
z
" clip-path="url(#p2915237e65)" style="fill: #f6bfa6"/>
    <path d="M 122.44409 174.268513 
L 125.966817 174.522503 
L 127.070171 174.209375 
L 129.489544 173.284487 
L 132.351416 170.709375 
L 133.012275 169.496512 
L 133.881972 167.209375 
L 133.881972 163.709375 
L 133.012275 161.422238 
L 132.351416 160.209375 
L 129.489544 157.634263 
L 127.070171 156.709375 
L 125.966817 156.396247 
L 122.44409 156.650237 
L 122.303404 156.709375 
L 118.921364 158.673883 
L 117.507612 160.209375 
L 115.932333 163.709375 
L 115.932333 167.209375 
L 117.507612 170.709375 
L 118.921364 172.244867 
L 122.303404 174.209375 
z
M 121.876915 167.209375 
L 121.876915 163.709375 
L 122.44409 163.037409 
L 125.966817 162.32796 
L 127.693863 163.709375 
L 127.693863 167.209375 
L 125.966817 168.59079 
L 122.44409 167.881341 
z
M 263.353183 174.522503 
L 266.87591 174.268513 
L 267.016596 174.209375 
L 270.398636 172.244867 
L 271.812388 170.709375 
L 273.387667 167.209375 
L 273.387667 163.709375 
L 271.812388 160.209375 
L 270.398636 158.673883 
L 267.016596 156.709375 
L 266.87591 156.650237 
L 263.353183 156.396247 
L 262.249829 156.709375 
L 259.830456 157.634263 
L 256.968584 160.209375 
L 256.307725 161.422238 
L 255.438028 163.709375 
L 255.438028 167.209375 
L 256.307725 169.496512 
L 256.968584 170.709375 
L 259.830456 173.284487 
L 262.249829 174.209375 
z
M 261.626137 167.209375 
L 261.626137 163.709375 
L 263.353183 162.32796 
L 266.87591 163.037409 
L 267.443085 163.709375 
L 267.443085 167.209375 
L 266.87591 167.881341 
L 263.353183 168.59079 
z
" clip-path="url(#p2915237e65)" style="fill: #f08a6c"/>
    <path d="M 122.44409 167.881341 
L 125.966817 168.59079 
L 127.693863 167.209375 
L 127.693863 163.709375 
L 125.966817 162.32796 
L 122.44409 163.037409 
L 121.876915 163.709375 
L 121.876915 167.209375 
z
M 263.353183 168.59079 
L 266.87591 167.881341 
L 267.443085 167.209375 
L 267.443085 163.709375 
L 266.87591 163.037409 
L 263.353183 162.32796 
L 261.626137 163.709375 
L 261.626137 167.209375 
z
" clip-path="url(#p2915237e65)" style="fill: #cd423b"/>
   </g>
   <g id="matplotlib.axis_1">
    <g id="xtick_1">
     <g id="line2d_1">
      <defs>
       <path id="m5bf0d4d915" d="M 0 0 
L 0 3.5 
" style="stroke: #000000; stroke-width: 0.8"/>
      </defs>
      <g>
       <use xlink:href="#m5bf0d4d915" x="55.16" y="304.059375" style="stroke: #000000; stroke-width: 0.8"/>
      </g>
     </g>
     <g id="text_1">
      <!-- −2 -->
      <g transform="translate(45.68 321.986875) scale(0.16 -0.16)">
       <defs>
        <path id="STIXGeneral-Regular-2212" d="M 3974 1408 
L 410 1408 
L 410 1830 
L 3974 1830 
L 3974 1408 
z
" transform="scale(0.015625)"/>
        <path id="STIXGeneral-Regular-32" d="M 3034 877 
L 2688 0 
L 186 0 
L 186 77 
L 1325 1286 
Q 1773 1754 1965 2144 
Q 2157 2534 2157 2950 
Q 2157 3379 1920 3616 
Q 1683 3853 1267 3853 
Q 922 3853 720 3673 
Q 518 3494 326 3021 
L 192 3053 
Q 301 3648 630 3987 
Q 960 4326 1523 4326 
Q 2054 4326 2380 4006 
Q 2707 3686 2707 3200 
Q 2707 2477 1888 1613 
L 832 486 
L 2330 486 
Q 2541 486 2665 569 
Q 2790 653 2944 915 
L 3034 877 
z
" transform="scale(0.015625)"/>
       </defs>
       <use xlink:href="#STIXGeneral-Regular-2212"/>
       <use xlink:href="#STIXGeneral-Regular-32" x="68.499985"/>
      </g>
     </g>
    </g>
    <g id="xtick_2">
     <g id="line2d_2">
      <g>
       <use xlink:href="#m5bf0d4d915" x="124.91" y="304.059375" style="stroke: #000000; stroke-width: 0.8"/>
      </g>
     </g>
     <g id="text_2">
      <!-- −1 -->
      <g transform="translate(115.43 321.986875) scale(0.16 -0.16)">
       <defs>
        <path id="STIXGeneral-Regular-31" d="M 2522 0 
L 755 0 
L 755 96 
Q 1107 115 1235 227 
Q 1363 339 1363 608 
L 1363 3482 
Q 1363 3795 1171 3795 
Q 1082 3795 883 3718 
L 710 3654 
L 710 3744 
L 1856 4326 
L 1914 4307 
L 1914 486 
Q 1914 275 2042 185 
Q 2170 96 2522 96 
L 2522 0 
z
" transform="scale(0.015625)"/>
       </defs>
       <use xlink:href="#STIXGeneral-Regular-2212"/>
       <use xlink:href="#STIXGeneral-Regular-31" x="68.499985"/>
      </g>
     </g>
    </g>
    <g id="xtick_3">
     <g id="line2d_3">
      <g>
       <use xlink:href="#m5bf0d4d915" x="194.66" y="304.059375" style="stroke: #000000; stroke-width: 0.8"/>
      </g>
     </g>
     <g id="text_3">
      <!-- 0 -->
      <g transform="translate(190.66 321.986875) scale(0.16 -0.16)">
       <defs>
        <path id="STIXGeneral-Regular-30" d="M 3046 2112 
Q 3046 1683 2963 1302 
Q 2880 922 2717 602 
Q 2554 282 2266 96 
Q 1978 -90 1600 -90 
Q 1210 -90 915 108 
Q 621 307 461 640 
Q 301 973 227 1350 
Q 154 1728 154 2150 
Q 154 2746 301 3222 
Q 448 3699 790 4012 
Q 1133 4326 1626 4326 
Q 2253 4326 2649 3712 
Q 3046 3098 3046 2112 
z
M 2432 2080 
Q 2432 3091 2217 3625 
Q 2003 4160 1587 4160 
Q 1190 4160 979 3622 
Q 768 3085 768 2106 
Q 768 1120 979 598 
Q 1190 77 1600 77 
Q 2003 77 2217 598 
Q 2432 1120 2432 2080 
z
" transform="scale(0.015625)"/>
       </defs>
       <use xlink:href="#STIXGeneral-Regular-30"/>
      </g>
     </g>
    </g>
    <g id="xtick_4">
     <g id="line2d_4">
      <g>
       <use xlink:href="#m5bf0d4d915" x="264.41" y="304.059375" style="stroke: #000000; stroke-width: 0.8"/>
      </g>
     </g>
     <g id="text_4">
      <!-- 1 -->
      <g transform="translate(260.41 321.986875) scale(0.16 -0.16)">
       <use xlink:href="#STIXGeneral-Regular-31"/>
      </g>
     </g>
    </g>
    <g id="xtick_5">
     <g id="line2d_5">
      <g>
       <use xlink:href="#m5bf0d4d915" x="334.16" y="304.059375" style="stroke: #000000; stroke-width: 0.8"/>
      </g>
     </g>
     <g id="text_5">
      <!-- 2 -->
      <g transform="translate(330.16 321.986875) scale(0.16 -0.16)">
       <use xlink:href="#STIXGeneral-Regular-32"/>
      </g>
     </g>
    </g>
    <g id="text_6">
     <!-- $x_1$ -->
     <g transform="translate(186.26 343.11875) scale(0.2 -0.2)">
      <defs>
       <path id="STIXGeneral-Italic-78" d="M 1555 2272 
L 1632 1907 
Q 1971 2426 2179 2624 
Q 2387 2822 2598 2822 
Q 2714 2822 2787 2755 
Q 2861 2688 2861 2585 
Q 2861 2483 2800 2419 
Q 2739 2355 2643 2355 
Q 2586 2355 2490 2409 
Q 2394 2464 2310 2464 
Q 2125 2464 1683 1690 
Q 1683 1606 1734 1402 
L 1939 544 
Q 2003 282 2131 282 
Q 2234 282 2432 538 
Q 2451 563 2476 598 
Q 2502 634 2521 662 
Q 2541 691 2566 717 
L 2662 659 
Q 2387 230 2227 80 
Q 2067 -70 1882 -70 
Q 1728 -70 1645 26 
Q 1562 122 1504 365 
L 1318 1126 
L 755 365 
Q 557 96 432 13 
Q 307 -70 147 -70 
Q 0 -70 -86 0 
Q -173 70 -173 198 
Q -173 294 -112 361 
Q -51 429 45 429 
Q 122 429 250 358 
Q 346 301 416 301 
Q 525 301 742 614 
L 1267 1357 
L 1088 2150 
Q 1024 2432 969 2509 
Q 915 2586 794 2586 
Q 717 2586 544 2541 
L 429 2509 
L 410 2611 
L 480 2637 
Q 992 2822 1229 2822 
Q 1350 2822 1420 2707 
Q 1491 2592 1555 2272 
z
" transform="scale(0.015625)"/>
      </defs>
      <use xlink:href="#STIXGeneral-Italic-78" transform="translate(0 0.90625)"/>
      <use xlink:href="#STIXGeneral-Regular-31" transform="translate(44.399994 -12.321875) scale(0.7)"/>
     </g>
    </g>
   </g>
   <g id="matplotlib.axis_2">
    <g id="ytick_1">
     <g id="line2d_6">
      <defs>
       <path id="md937c9af0a" d="M 0 0 
L -3.5 0 
" style="stroke: #000000; stroke-width: 0.8"/>
      </defs>
      <g>
       <use xlink:href="#md937c9af0a" x="55.16" y="304.059375" style="stroke: #000000; stroke-width: 0.8"/>
      </g>
     </g>
     <g id="text_7">
      <!-- −2 -->
      <g transform="translate(29.2 309.523125) scale(0.16 -0.16)">
       <use xlink:href="#STIXGeneral-Regular-2212"/>
       <use xlink:href="#STIXGeneral-Regular-32" x="68.499985"/>
      </g>
     </g>
    </g>
    <g id="ytick_2">
     <g id="line2d_7">
      <g>
       <use xlink:href="#md937c9af0a" x="55.16" y="234.759375" style="stroke: #000000; stroke-width: 0.8"/>
      </g>
     </g>
     <g id="text_8">
      <!-- −1 -->
      <g transform="translate(29.2 240.223125) scale(0.16 -0.16)">
       <use xlink:href="#STIXGeneral-Regular-2212"/>
       <use xlink:href="#STIXGeneral-Regular-31" x="68.499985"/>
      </g>
     </g>
    </g>
    <g id="ytick_3">
     <g id="line2d_8">
      <g>
       <use xlink:href="#md937c9af0a" x="55.16" y="165.459375" style="stroke: #000000; stroke-width: 0.8"/>
      </g>
     </g>
     <g id="text_9">
      <!-- 0 -->
      <g transform="translate(40.16 170.923125) scale(0.16 -0.16)">
       <use xlink:href="#STIXGeneral-Regular-30"/>
      </g>
     </g>
    </g>
    <g id="ytick_4">
     <g id="line2d_9">
      <g>
       <use xlink:href="#md937c9af0a" x="55.16" y="96.159375" style="stroke: #000000; stroke-width: 0.8"/>
      </g>
     </g>
     <g id="text_10">
      <!-- 1 -->
      <g transform="translate(40.16 101.623125) scale(0.16 -0.16)">
       <use xlink:href="#STIXGeneral-Regular-31"/>
      </g>
     </g>
    </g>
    <g id="ytick_5">
     <g id="line2d_10">
      <g>
       <use xlink:href="#md937c9af0a" x="55.16" y="26.859375" style="stroke: #000000; stroke-width: 0.8"/>
      </g>
     </g>
     <g id="text_11">
      <!-- 2 -->
      <g transform="translate(40.16 32.323125) scale(0.16 -0.16)">
       <use xlink:href="#STIXGeneral-Regular-32"/>
      </g>
     </g>
    </g>
    <g id="text_12">
     <!-- $x_2$ -->
     <g transform="translate(20.859375 173.859375) rotate(-90) scale(0.2 -0.2)">
      <use xlink:href="#STIXGeneral-Italic-78" transform="translate(0 0.90625)"/>
      <use xlink:href="#STIXGeneral-Regular-32" transform="translate(44.399994 -12.321875) scale(0.7)"/>
     </g>
    </g>
   </g>
   <g id="patch_3">
    <path d="M 55.16 304.059375 
L 55.16 26.859375 
" style="fill: none; stroke: #000000; stroke-width: 0.8; stroke-linejoin: miter; stroke-linecap: square"/>
   </g>
   <g id="patch_4">
    <path d="M 334.16 304.059375 
L 334.16 26.859375 
" style="fill: none; stroke: #000000; stroke-width: 0.8; stroke-linejoin: miter; stroke-linecap: square"/>
   </g>
   <g id="patch_5">
    <path d="M 55.16 304.059375 
L 334.16 304.059375 
" style="fill: none; stroke: #000000; stroke-width: 0.8; stroke-linejoin: miter; stroke-linecap: square"/>
   </g>
   <g id="patch_6">
    <path d="M 55.16 26.859375 
L 334.16 26.859375 
" style="fill: none; stroke: #000000; stroke-width: 0.8; stroke-linejoin: miter; stroke-linecap: square"/>
   </g>
   <g id="text_13">
    <!-- Mixture of Gaussians density -->
    <g transform="translate(77.16625 20.859375) scale(0.2 -0.2)">
     <defs>
      <path id="STIXGeneral-Regular-4d" d="M 5530 0 
L 3738 0 
L 3738 122 
Q 4115 147 4214 265 
Q 4314 384 4314 787 
L 4314 3661 
L 2682 0 
L 2592 0 
L 979 3514 
L 979 966 
Q 979 448 1088 294 
Q 1197 141 1574 122 
L 1574 0 
L 77 0 
L 77 122 
Q 358 141 480 205 
Q 602 269 650 432 
Q 698 595 698 966 
L 698 3514 
Q 698 3878 589 3984 
Q 480 4090 90 4115 
L 90 4237 
L 1357 4237 
L 2835 1024 
L 4250 4237 
L 5523 4237 
L 5523 4115 
Q 5178 4109 5072 3993 
Q 4966 3878 4966 3520 
L 4966 717 
Q 4966 378 5072 262 
Q 5178 147 5530 122 
L 5530 0 
z
" transform="scale(0.015625)"/>
      <path id="STIXGeneral-Regular-69" d="M 1152 4045 
Q 1152 3904 1056 3811 
Q 960 3718 819 3718 
Q 685 3718 592 3811 
Q 499 3904 499 4045 
Q 499 4179 595 4275 
Q 691 4371 826 4371 
Q 966 4371 1059 4275 
Q 1152 4179 1152 4045 
z
M 1619 0 
L 102 0 
L 102 96 
Q 435 115 521 211 
Q 608 307 608 666 
L 608 2118 
Q 608 2342 563 2432 
Q 518 2522 397 2522 
Q 243 2522 128 2490 
L 128 2592 
L 1120 2944 
L 1146 2918 
L 1146 672 
Q 1146 314 1226 218 
Q 1306 122 1619 96 
L 1619 0 
z
" transform="scale(0.015625)"/>
      <path id="STIXGeneral-Regular-78" d="M 3066 0 
L 1779 0 
L 1779 96 
Q 1939 109 1987 137 
Q 2035 166 2035 250 
Q 2035 307 1997 365 
L 1414 1261 
L 909 474 
Q 781 275 781 211 
Q 781 96 1037 96 
L 1037 0 
L 109 0 
L 109 96 
Q 269 109 355 169 
Q 442 230 576 422 
L 1306 1478 
L 704 2400 
Q 557 2624 454 2704 
Q 352 2784 211 2784 
L 154 2784 
L 154 2880 
L 1478 2880 
L 1478 2784 
Q 1203 2778 1203 2643 
Q 1203 2509 1498 2074 
Q 1581 1958 1587 1946 
Q 1619 1990 1779 2227 
Q 1811 2285 1856 2349 
Q 1901 2413 1923 2451 
Q 1946 2490 1971 2528 
Q 1997 2566 2006 2595 
Q 2016 2624 2016 2643 
Q 2016 2765 1760 2784 
L 1760 2880 
L 2771 2880 
L 2771 2784 
Q 2445 2771 2253 2502 
L 1722 1734 
L 2541 480 
Q 2790 96 3066 96 
L 3066 0 
z
" transform="scale(0.015625)"/>
      <path id="STIXGeneral-Regular-74" d="M 1702 493 
L 1786 422 
Q 1478 -64 1011 -64 
Q 448 -64 448 749 
L 448 2675 
L 109 2675 
Q 83 2694 83 2720 
Q 83 2771 192 2842 
Q 435 2982 813 3526 
Q 826 3546 874 3606 
Q 922 3667 941 3706 
Q 986 3706 986 3622 
L 986 2880 
L 1632 2880 
L 1632 2675 
L 986 2675 
L 986 845 
Q 986 538 1062 403 
Q 1139 269 1318 269 
Q 1510 269 1702 493 
z
" transform="scale(0.015625)"/>
      <path id="STIXGeneral-Regular-75" d="M 3072 320 
L 3072 230 
Q 2573 96 2195 -58 
L 2163 -38 
L 2163 486 
L 2150 486 
Q 1747 -64 1235 -64 
Q 870 -64 662 160 
Q 454 384 454 755 
L 454 2362 
Q 454 2598 371 2688 
Q 288 2778 58 2790 
L 58 2880 
L 992 2880 
L 992 813 
Q 992 595 1123 451 
Q 1254 307 1446 307 
Q 1760 307 1984 506 
Q 2067 582 2099 649 
Q 2131 717 2131 877 
L 2131 2355 
Q 2131 2605 2041 2678 
Q 1952 2752 1658 2771 
L 1658 2880 
L 2669 2880 
L 2669 685 
Q 2669 461 2742 390 
Q 2816 320 3034 320 
L 3072 320 
z
" transform="scale(0.015625)"/>
      <path id="STIXGeneral-Regular-72" d="M 1024 2931 
L 1024 2342 
Q 1267 2688 1430 2816 
Q 1594 2944 1792 2944 
Q 1958 2944 2051 2854 
Q 2144 2765 2144 2605 
Q 2144 2470 2077 2393 
Q 2010 2317 1894 2317 
Q 1773 2317 1638 2445 
Q 1536 2541 1472 2541 
Q 1338 2541 1181 2355 
Q 1024 2170 1024 2016 
L 1024 576 
Q 1024 301 1133 205 
Q 1242 109 1568 96 
L 1568 0 
L 32 0 
L 32 96 
Q 339 154 412 224 
Q 486 294 486 538 
L 486 2138 
Q 486 2349 438 2435 
Q 390 2522 269 2522 
Q 166 2522 45 2496 
L 45 2598 
Q 448 2726 992 2944 
L 1024 2931 
z
" transform="scale(0.015625)"/>
      <path id="STIXGeneral-Regular-65" d="M 2611 1050 
L 2714 1005 
Q 2330 -64 1376 -64 
Q 813 -64 486 329 
Q 160 723 160 1389 
Q 160 2074 525 2509 
Q 890 2944 1485 2944 
Q 2061 2944 2374 2502 
Q 2560 2246 2592 1773 
L 621 1773 
Q 646 1370 700 1158 
Q 755 947 915 730 
Q 1184 378 1626 378 
Q 1939 378 2153 531 
Q 2368 685 2611 1050 
z
M 634 1978 
L 1939 1978 
Q 1882 2381 1750 2547 
Q 1619 2714 1312 2714 
Q 1043 2714 864 2525 
Q 685 2336 634 1978 
z
" transform="scale(0.015625)"/>
      <path id="STIXGeneral-Regular-20" transform="scale(0.015625)"/>
      <path id="STIXGeneral-Regular-6f" d="M 3008 1478 
Q 3008 806 2608 371 
Q 2208 -64 1568 -64 
Q 979 -64 582 368 
Q 186 800 186 1459 
Q 186 2125 582 2534 
Q 979 2944 1626 2944 
Q 2221 2944 2614 2537 
Q 3008 2131 3008 1478 
z
M 2432 1306 
Q 2432 2035 2112 2445 
Q 1856 2765 1504 2765 
Q 1171 2765 966 2493 
Q 762 2221 762 1747 
Q 762 928 1101 435 
Q 1318 115 1677 115 
Q 2029 115 2230 432 
Q 2432 749 2432 1306 
z
" transform="scale(0.015625)"/>
      <path id="STIXGeneral-Regular-66" d="M 134 2880 
L 659 2880 
Q 666 3264 710 3478 
Q 755 3693 883 3910 
Q 1152 4371 1786 4371 
Q 2074 4371 2262 4259 
Q 2451 4147 2451 3974 
Q 2451 3866 2374 3789 
Q 2298 3712 2182 3712 
Q 2029 3712 1894 3942 
Q 1741 4192 1555 4192 
Q 1197 4192 1197 3622 
L 1197 2880 
L 1978 2880 
L 1978 2675 
L 1197 2675 
L 1197 666 
Q 1197 307 1299 208 
Q 1402 109 1792 96 
L 1792 0 
L 128 0 
L 128 96 
Q 474 115 566 214 
Q 659 314 659 666 
L 659 2675 
L 134 2675 
L 134 2880 
z
" transform="scale(0.015625)"/>
      <path id="STIXGeneral-Regular-47" d="M 4538 2266 
L 4538 2150 
Q 4256 2125 4173 2035 
Q 4090 1946 4090 1638 
L 4090 358 
Q 3539 -90 2464 -90 
Q 1965 -90 1507 89 
Q 1050 269 736 595 
Q 205 1152 205 2093 
Q 205 3155 890 3776 
Q 1491 4326 2419 4326 
Q 2829 4326 3270 4179 
Q 3443 4115 3552 4115 
Q 3654 4115 3731 4176 
Q 3808 4237 3840 4326 
L 3981 4326 
L 4032 2976 
L 3885 2976 
Q 3680 3475 3430 3718 
Q 3059 4070 2496 4070 
Q 1856 4070 1427 3629 
Q 934 3136 934 2074 
Q 934 1190 1395 678 
Q 1856 166 2618 166 
Q 2982 166 3225 281 
Q 3469 397 3469 557 
L 3469 1562 
Q 3469 1933 3376 2025 
Q 3283 2118 2899 2150 
L 2899 2266 
L 4538 2266 
z
" transform="scale(0.015625)"/>
      <path id="STIXGeneral-Regular-61" d="M 2829 422 
L 2829 243 
Q 2586 -64 2253 -64 
Q 1888 -64 1843 403 
L 1837 403 
Q 1427 -64 909 -64 
Q 608 -64 422 112 
Q 237 288 237 602 
Q 237 1050 685 1350 
Q 992 1555 1837 1869 
L 1837 2214 
Q 1837 2502 1699 2646 
Q 1562 2790 1338 2790 
Q 1146 2790 1018 2697 
Q 890 2605 890 2477 
Q 890 2419 909 2348 
Q 928 2278 928 2208 
Q 928 2112 841 2029 
Q 755 1946 634 1946 
Q 525 1946 441 2029 
Q 358 2112 358 2240 
Q 358 2547 685 2752 
Q 986 2944 1421 2944 
Q 1939 2944 2176 2656 
Q 2291 2522 2323 2384 
Q 2355 2246 2355 1946 
L 2355 723 
Q 2355 301 2554 301 
Q 2682 301 2829 422 
z
M 1837 813 
L 1837 1715 
Q 1248 1510 1018 1293 
Q 800 1094 800 800 
Q 800 557 921 432 
Q 1043 307 1242 307 
Q 1453 307 1613 410 
Q 1747 506 1792 589 
Q 1837 672 1837 813 
z
" transform="scale(0.015625)"/>
      <path id="STIXGeneral-Regular-73" d="M 998 1926 
L 1664 1523 
Q 1984 1331 2105 1164 
Q 2227 998 2227 736 
Q 2227 416 1961 176 
Q 1696 -64 1331 -64 
Q 1030 -64 864 -6 
Q 691 51 570 51 
Q 461 51 416 -26 
L 333 -26 
L 333 979 
L 435 979 
Q 538 512 730 294 
Q 922 77 1248 77 
Q 1485 77 1632 211 
Q 1779 346 1779 550 
Q 1779 845 1440 1030 
L 1094 1222 
Q 326 1651 326 2150 
Q 326 2522 566 2730 
Q 806 2938 1210 2938 
Q 1491 2938 1638 2867 
Q 1754 2816 1818 2816 
Q 1862 2816 1920 2880 
L 1990 2880 
L 2022 2010 
L 1926 2010 
Q 1818 2445 1654 2621 
Q 1491 2797 1203 2797 
Q 986 2797 854 2688 
Q 723 2579 723 2362 
Q 723 2253 796 2128 
Q 870 2003 998 1926 
z
" transform="scale(0.015625)"/>
      <path id="STIXGeneral-Regular-6e" d="M 3104 0 
L 1773 0 
L 1779 96 
Q 2016 115 2096 233 
Q 2176 352 2176 672 
L 2176 1946 
Q 2176 2592 1709 2592 
Q 1549 2592 1408 2515 
Q 1267 2438 1050 2227 
L 1050 461 
Q 1050 269 1136 192 
Q 1222 115 1466 96 
L 1466 0 
L 115 0 
L 115 96 
Q 358 115 435 214 
Q 512 314 512 602 
L 512 2157 
Q 512 2394 467 2483 
Q 422 2573 288 2573 
Q 160 2573 102 2547 
L 102 2656 
Q 550 2784 979 2944 
L 1030 2925 
L 1030 2426 
L 1037 2426 
Q 1491 2944 1958 2944 
Q 2323 2944 2518 2688 
Q 2714 2432 2714 1958 
L 2714 544 
Q 2714 288 2790 205 
Q 2867 122 3104 96 
L 3104 0 
z
" transform="scale(0.015625)"/>
      <path id="STIXGeneral-Regular-64" d="M 3142 269 
L 2202 -64 
L 2176 -45 
L 2176 365 
Q 1869 -64 1357 -64 
Q 826 -64 499 317 
Q 173 698 173 1312 
Q 173 1990 563 2467 
Q 954 2944 1504 2944 
Q 1850 2944 2176 2669 
L 2176 3667 
Q 2176 3866 2118 3930 
Q 2061 3994 1882 3994 
Q 1792 3994 1741 3987 
L 1741 4090 
Q 2323 4243 2682 4371 
L 2714 4358 
L 2714 730 
Q 2714 506 2768 435 
Q 2822 365 2995 365 
Q 3034 365 3142 371 
L 3142 269 
z
M 2176 653 
L 2176 2125 
Q 2176 2381 1981 2573 
Q 1786 2765 1523 2765 
Q 1158 2765 940 2438 
Q 723 2112 723 1568 
Q 723 979 963 624 
Q 1203 269 1606 269 
Q 1907 269 2080 474 
Q 2176 582 2176 653 
z
" transform="scale(0.015625)"/>
      <path id="STIXGeneral-Regular-79" d="M 3040 2880 
L 3040 2784 
Q 2925 2771 2854 2700 
Q 2784 2630 2720 2458 
L 1760 -160 
Q 1510 -838 1257 -1116 
Q 1005 -1395 640 -1395 
Q 435 -1395 313 -1289 
Q 192 -1184 192 -1024 
Q 192 -902 272 -816 
Q 352 -730 467 -730 
Q 653 -730 800 -813 
Q 883 -858 966 -858 
Q 1101 -858 1286 -576 
Q 1376 -448 1459 -211 
Q 1542 26 1542 115 
Q 1542 198 1274 762 
L 429 2566 
Q 346 2752 90 2790 
L 90 2880 
L 1402 2880 
L 1402 2784 
Q 1197 2778 1117 2739 
Q 1037 2701 1037 2611 
Q 1037 2541 1120 2349 
L 1837 749 
L 2458 2515 
Q 2483 2573 2483 2630 
Q 2483 2784 2189 2784 
L 2189 2880 
L 3040 2880 
z
" transform="scale(0.015625)"/>
     </defs>
     <use xlink:href="#STIXGeneral-Regular-4d"/>
     <use xlink:href="#STIXGeneral-Regular-69" x="88.899994"/>
     <use xlink:href="#STIXGeneral-Regular-78" x="116.699982"/>
     <use xlink:href="#STIXGeneral-Regular-74" x="166.699966"/>
     <use xlink:href="#STIXGeneral-Regular-75" x="194.499954"/>
     <use xlink:href="#STIXGeneral-Regular-72" x="244.499939"/>
     <use xlink:href="#STIXGeneral-Regular-65" x="277.799927"/>
     <use xlink:href="#STIXGeneral-Regular-20" x="322.199921"/>
     <use xlink:href="#STIXGeneral-Regular-6f" x="347.199905"/>
     <use xlink:href="#STIXGeneral-Regular-66" x="397.19989"/>
     <use xlink:href="#STIXGeneral-Regular-20" x="430.499878"/>
     <use xlink:href="#STIXGeneral-Regular-47" x="455.499863"/>
     <use xlink:href="#STIXGeneral-Regular-61" x="527.699844"/>
     <use xlink:href="#STIXGeneral-Regular-75" x="572.099838"/>
     <use xlink:href="#STIXGeneral-Regular-73" x="622.099823"/>
     <use xlink:href="#STIXGeneral-Regular-73" x="660.999817"/>
     <use xlink:href="#STIXGeneral-Regular-69" x="699.899811"/>
     <use xlink:href="#STIXGeneral-Regular-61" x="727.699799"/>
     <use xlink:href="#STIXGeneral-Regular-6e" x="772.099792"/>
     <use xlink:href="#STIXGeneral-Regular-73" x="822.099777"/>
     <use xlink:href="#STIXGeneral-Regular-20" x="860.999771"/>
     <use xlink:href="#STIXGeneral-Regular-64" x="885.999756"/>
     <use xlink:href="#STIXGeneral-Regular-65" x="935.999741"/>
     <use xlink:href="#STIXGeneral-Regular-6e" x="980.399734"/>
     <use xlink:href="#STIXGeneral-Regular-73" x="1030.399719"/>
     <use xlink:href="#STIXGeneral-Regular-69" x="1069.299713"/>
     <use xlink:href="#STIXGeneral-Regular-74" x="1097.099701"/>
     <use xlink:href="#STIXGeneral-Regular-79" x="1124.899689"/>
    </g>
   </g>
  </g>
 </g>
 <defs>
  <clipPath id="p2915237e65">
   <rect x="55.16" y="26.859375" width="279" height="277.2"/>
  </clipPath>
 </defs>
</svg>