<?xml version="1.0" encoding="UTF-8" standalone="no"?>
<!DOCTYPE svg PUBLIC "-//W3C//DTD SVG 1.1//EN"
 "http://www.w3.org/Graphics/SVG/1.1/DTD/svg11.dtd">
<!-- Generated by graphviz version 9.0.0 (0)
 -->
<!-- Pages: 1 -->
<svg width="171pt" height="90pt"
 viewBox="0.00 0.00 171.35 90.50" xmlns="http://www.w3.org/2000/svg" xmlns:xlink="http://www.w3.org/1999/xlink">
<g id="graph0" class="graph" transform="scale(1 1) rotate(0) translate(4 86.5)">
<polygon fill="white" stroke="none" points="-4,4 -4,-86.5 167.35,-86.5 167.35,4 -4,4"/>
<!-- f6ebe66c&#45;462e&#45;42b9&#45;8d30&#45;5c993b2b825b -->
<g id="node1" class="node">
<title>f6ebe66c&#45;462e&#45;42b9&#45;8d30&#45;5c993b2b825b</title>
<g id="a_node1"><a xlink:title=".">
<ellipse fill="black" stroke="black" cx="1.8" cy="-26" rx="1.8" ry="1.8"/>
</a>
</g>
</g>
<!-- E -->
<g id="node2" class="node">
<title>E</title>
<ellipse fill="none" stroke="black" cx="62.6" cy="-26" rx="22" ry="22"/>
<ellipse fill="none" stroke="black" cx="62.6" cy="-26" rx="26" ry="26"/>
<text text-anchor="middle" x="62.6" y="-20.95" font-family="Times,serif" font-size="14.00">E</text>
</g>
<!-- f6ebe66c&#45;462e&#45;42b9&#45;8d30&#45;5c993b2b825b&#45;&gt;E -->
<g id="edge1" class="edge">
<title>f6ebe66c&#45;462e&#45;42b9&#45;8d30&#45;5c993b2b825b&#45;&gt;E</title>
<g id="a_edge1"><a xlink:title="&#45;&gt;E">
<path fill="none" stroke="black" d="M3.82,-26C7.23,-26 18.66,-26 30.48,-26"/>
<polygon fill="black" stroke="black" points="30.3,-28.98 38.8,-26 30.3,-23.03 30.3,-28.98"/>
</a>
</g>
</g>
<!-- E&#45;&gt;E -->
<g id="edge2" class="edge">
<title>E&#45;&gt;E</title>
<path fill="none" stroke="black" d="M55.19,-46.99C54.28,-57.09 56.75,-66 62.6,-66 66.44,-66 68.83,-62.16 69.75,-56.67"/>
<polygon fill="black" stroke="black" points="72.72,-57.08 69.97,-48.5 66.77,-56.92 72.72,-57.08"/>
<text text-anchor="middle" x="62.6" y="-69.2" font-family="Times,serif" font-size="14.00">0</text>
</g>
<!-- O -->
<g id="node3" class="node">
<title>O</title>
<ellipse fill="none" stroke="black" cx="145.35" cy="-26" rx="18" ry="18"/>
<text text-anchor="middle" x="145.35" y="-20.95" font-family="Times,serif" font-size="14.00">O</text>
</g>
<!-- E&#45;&gt;O -->
<g id="edge3" class="edge">
<title>E&#45;&gt;O</title>
<path fill="none" stroke="black" d="M84.82,-26C94.7,-26 106.58,-26 117.11,-26"/>
<polygon fill="black" stroke="black" points="117.07,-28.98 125.57,-26 117.07,-23.03 117.07,-28.98"/>
<text text-anchor="middle" x="105.98" y="-29.2" font-family="Times,serif" font-size="14.00">1</text>
</g>
<!-- O&#45;&gt;E -->
<g id="edge4" class="edge">
<title>O&#45;&gt;E</title>
<path fill="none" stroke="black" d="M130.48,-15.58C124.34,-11.6 116.83,-7.53 109.35,-5.5 102.42,-3.62 95.2,-5.08 88.61,-7.92"/>
<polygon fill="black" stroke="black" points="87.52,-5.14 81.42,-11.76 90.32,-10.38 87.52,-5.14"/>
<text text-anchor="middle" x="105.98" y="-8.2" font-family="Times,serif" font-size="14.00">1</text>
</g>
<!-- O&#45;&gt;O -->
<g id="edge5" class="edge">
<title>O&#45;&gt;O</title>
<path fill="none" stroke="black" d="M138.37,-43.04C136.95,-52.86 139.27,-62 145.35,-62 149.24,-62 151.6,-58.25 152.41,-52.97"/>
<polygon fill="black" stroke="black" points="155.39,-53.03 152.34,-44.55 149.44,-53.07 155.39,-53.03"/>
<text text-anchor="middle" x="145.35" y="-65.2" font-family="Times,serif" font-size="14.00">0</text>
</g>
</g>
</svg>