<?xml version="1.0" encoding="utf-8" standalone="no"?>
<!DOCTYPE svg PUBLIC "-//W3C//DTD SVG 1.1//EN"
  "http://www.w3.org/Graphics/SVG/1.1/DTD/svg11.dtd">
<!-- Created with matplotlib (https://matplotlib.org/) -->
<svg height="222.28pt" version="1.1" viewBox="0 0 701.077026 222.28" width="701.077026pt" xmlns="http://www.w3.org/2000/svg" xmlns:xlink="http://www.w3.org/1999/xlink">
 <defs>
  <style type="text/css">
*{stroke-linecap:butt;stroke-linejoin:round;}
  </style>
 </defs>
 <g id="figure_1">
  <g id="patch_1">
   <path d="M -0 222.28 
L 701.077026 222.28 
L 701.077026 0 
L -0 0 
z
" style="fill:none;"/>
  </g>
  <g id="axes_1">
   <g id="patch_2">
    <path d="M 71.16 170.28 
L 684.96 170.28 
L 684.96 7.2 
L 71.16 7.2 
z
" style="fill:#ffffff;"/>
   </g>
   <g id="PolyCollection_1">
    <defs>
     <path d="M 71.16 -63.238929 
L 71.16 -62.860728 
L 132.54 -62.828011 
L 193.92 -64.122515 
L 255.3 -77.369069 
L 316.68 -112.223455 
L 378.06 -130.989684 
L 439.44 -166.495975 
L 500.82 -181.072462 
L 562.2 -182.6581 
L 623.58 -170.768523 
L 684.96 -169.222303 
L 684.96 -180.186636 
L 684.96 -180.186636 
L 623.58 -192.981661 
L 562.2 -188.660686 
L 500.82 -185.142992 
L 439.44 -173.845579 
L 378.06 -141.14845 
L 316.68 -117.065565 
L 255.3 -90.839718 
L 193.92 -66.903647 
L 132.54 -64.162735 
L 71.16 -63.238929 
z
" id="mcaee1ea829" style="stroke:#808080;stroke-opacity:0.3;"/>
    </defs>
    <g clip-path="url(#p1e91ae8c63)">
     <use style="fill:#808080;fill-opacity:0.3;stroke:#808080;stroke-opacity:0.3;" x="0" xlink:href="#mcaee1ea829" y="222.28"/>
    </g>
   </g>
   <g id="PolyCollection_2">
    <defs>
     <path d="M 71.16 -63.049386 
L 71.16 -63.042585 
L 132.54 -63.549721 
L 193.92 -66.866643 
L 255.3 -98.350908 
L 316.68 -120.301298 
L 378.06 -149.274584 
L 439.44 -180.899923 
L 500.82 -190.130508 
L 562.2 -192.054905 
L 623.58 -191.714395 
L 684.96 -186.307696 
L 684.96 -187.029951 
L 684.96 -187.029951 
L 623.58 -192.075094 
L 562.2 -192.465418 
L 500.82 -190.834901 
L 439.44 -182.450429 
L 378.06 -151.190925 
L 316.68 -121.024179 
L 255.3 -99.758837 
L 193.92 -67.031191 
L 132.54 -63.55855 
L 71.16 -63.049386 
z
" id="m2583c6a561" style="stroke:#ffc0cb;stroke-opacity:0.3;"/>
    </defs>
    <g clip-path="url(#p1e91ae8c63)">
     <use style="fill:#ffc0cb;fill-opacity:0.3;stroke:#ffc0cb;stroke-opacity:0.3;" x="0" xlink:href="#m2583c6a561" y="222.28"/>
    </g>
   </g>
   <g id="matplotlib.axis_1">
    <g id="xtick_1">
     <g id="line2d_1">
      <defs>
       <path d="M 0 0 
L 0 3.5 
" id="m258ff6b1d4" style="stroke:#000000;stroke-width:0.8;"/>
      </defs>
      <g>
       <use style="stroke:#000000;stroke-width:0.8;" x="378.06" xlink:href="#m258ff6b1d4" y="170.28"/>
      </g>
     </g>
     <g id="text_1">
      <!-- $\mathdefault{10^{0}}$ -->
      <defs>
       <path d="M 39.40625 0 
L 11.796875 0 
L 11.796875 1.5 
Q 17.296875 1.796875 19.296875 3.546875 
Q 21.296875 5.296875 21.296875 9.5 
L 21.296875 54.40625 
Q 21.296875 59.296875 18.296875 59.296875 
Q 16.90625 59.296875 13.796875 58.09375 
L 11.09375 57.09375 
L 11.09375 58.5 
L 29 67.59375 
L 29.90625 67.296875 
L 29.90625 7.59375 
Q 29.90625 4.296875 31.90625 2.890625 
Q 33.90625 1.5 39.40625 1.5 
z
" id="STIXGeneral-Regular-49"/>
       <path d="M 47.59375 33 
Q 47.59375 26.296875 46.296875 20.34375 
Q 45 14.40625 42.453125 9.40625 
Q 39.90625 4.40625 35.40625 1.5 
Q 30.90625 -1.40625 25 -1.40625 
Q 18.90625 -1.40625 14.296875 1.6875 
Q 9.703125 4.796875 7.203125 10 
Q 4.703125 15.203125 3.546875 21.09375 
Q 2.40625 27 2.40625 33.59375 
Q 2.40625 42.90625 4.703125 50.34375 
Q 7 57.796875 12.34375 62.6875 
Q 17.703125 67.59375 25.40625 67.59375 
Q 35.203125 67.59375 41.390625 58 
Q 47.59375 48.40625 47.59375 33 
z
M 38 32.5 
Q 38 48.296875 34.640625 56.640625 
Q 31.296875 65 24.796875 65 
Q 18.59375 65 15.296875 56.59375 
Q 12 48.203125 12 32.90625 
Q 12 17.5 15.296875 9.34375 
Q 18.59375 1.203125 25 1.203125 
Q 31.296875 1.203125 34.640625 9.34375 
Q 38 17.5 38 32.5 
z
" id="STIXGeneral-Regular-48"/>
      </defs>
      <g transform="translate(366.7 188.2075)scale(0.16 -0.16)">
       <use transform="translate(0 0.684375)" xlink:href="#STIXGeneral-Regular-49"/>
       <use transform="translate(49.999985 0.684375)" xlink:href="#STIXGeneral-Regular-48"/>
       <use transform="translate(101.574969 36.684375)scale(0.7)" xlink:href="#STIXGeneral-Regular-48"/>
      </g>
     </g>
    </g>
    <g id="xtick_2">
     <g id="line2d_2">
      <defs>
       <path d="M 0 0 
L 0 2 
" id="m726fc481a1" style="stroke:#000000;stroke-width:0.6;"/>
      </defs>
      <g>
       <use style="stroke:#000000;stroke-width:0.6;" x="133.804423" xlink:href="#m726fc481a1" y="170.28"/>
      </g>
     </g>
     <g id="text_2">
      <!-- $\mathdefault{4\times10^{-1}}$ -->
      <defs>
       <path d="M 47.296875 16.703125 
L 37 16.703125 
L 37 0 
L 29.203125 0 
L 29.203125 16.703125 
L 1.203125 16.703125 
L 1.203125 23.09375 
L 32.59375 67.59375 
L 37 67.59375 
L 37 23.09375 
L 47.296875 23.09375 
z
M 29.203125 23.09375 
L 29.203125 57.40625 
L 5.203125 23.09375 
z
" id="STIXGeneral-Regular-52"/>
       <path d="M 59.703125 2.203125 
L 55.09375 -2.5 
L 32 20.5 
L 8.90625 -2.5 
L 4.296875 2.09375 
L 27.296875 25.203125 
L 4.296875 48.296875 
L 9 52.90625 
L 32 29.90625 
L 55.09375 52.90625 
L 59.703125 48.40625 
L 36.703125 25.203125 
z
" id="STIXGeneral-Regular-215"/>
       <path d="M 62.09375 22 
L 6.40625 22 
L 6.40625 28.59375 
L 62.09375 28.59375 
z
" id="STIXGeneral-Regular-8722"/>
      </defs>
      <g transform="translate(107.004423 186.6075)scale(0.16 -0.16)">
       <use transform="translate(0 0.684375)" xlink:href="#STIXGeneral-Regular-52"/>
       <use transform="translate(65.559982 0.684375)" xlink:href="#STIXGeneral-Regular-215"/>
       <use transform="translate(145.119965 0.684375)" xlink:href="#STIXGeneral-Regular-49"/>
       <use transform="translate(195.119949 0.684375)" xlink:href="#STIXGeneral-Regular-48"/>
       <use transform="translate(246.694934 36.684375)scale(0.7)" xlink:href="#STIXGeneral-Regular-8722"/>
       <use transform="translate(294.644923 36.684375)scale(0.7)" xlink:href="#STIXGeneral-Regular-49"/>
      </g>
     </g>
    </g>
    <g id="xtick_3">
     <g id="line2d_3">
      <g>
       <use style="stroke:#000000;stroke-width:0.6;" x="193.287789" xlink:href="#m726fc481a1" y="170.28"/>
      </g>
     </g>
    </g>
    <g id="xtick_4">
     <g id="line2d_4">
      <g>
       <use style="stroke:#000000;stroke-width:0.6;" x="241.889237" xlink:href="#m726fc481a1" y="170.28"/>
      </g>
     </g>
     <g id="text_3">
      <!-- $\mathdefault{6\times10^{-1}}$ -->
      <defs>
       <path d="M 44.59375 68.40625 
L 44.796875 66.796875 
Q 33 64.90625 25.09375 57.25 
Q 17.203125 49.59375 15.203125 38.296875 
Q 21 42.796875 27.90625 42.796875 
Q 36.703125 42.796875 41.75 37.1875 
Q 46.796875 31.59375 46.796875 21.90625 
Q 46.796875 12.09375 41.703125 5.90625 
Q 35.796875 -1.40625 25.796875 -1.40625 
Q 13.59375 -1.40625 8.09375 8.703125 
Q 3.40625 17.296875 3.40625 27.90625 
Q 3.40625 44.296875 14.296875 55.5 
Q 20.5 61.90625 27.046875 64.546875 
Q 33.59375 67.203125 44.59375 68.40625 
z
M 37.796875 18.796875 
Q 37.796875 38.203125 24.296875 38.203125 
Q 19.296875 38.203125 16 35.546875 
Q 12.703125 32.90625 12.703125 26.59375 
Q 12.703125 14.90625 16.34375 8.15625 
Q 20 1.40625 26.90625 1.40625 
Q 32.203125 1.40625 35 6.15625 
Q 37.796875 10.90625 37.796875 18.796875 
z
" id="STIXGeneral-Regular-54"/>
      </defs>
      <g transform="translate(215.089237 186.6075)scale(0.16 -0.16)">
       <use transform="translate(0 0.684375)" xlink:href="#STIXGeneral-Regular-54"/>
       <use transform="translate(65.559982 0.684375)" xlink:href="#STIXGeneral-Regular-215"/>
       <use transform="translate(145.119965 0.684375)" xlink:href="#STIXGeneral-Regular-49"/>
       <use transform="translate(195.119949 0.684375)" xlink:href="#STIXGeneral-Regular-48"/>
       <use transform="translate(246.694934 36.684375)scale(0.7)" xlink:href="#STIXGeneral-Regular-8722"/>
       <use transform="translate(294.644923 36.684375)scale(0.7)" xlink:href="#STIXGeneral-Regular-49"/>
      </g>
     </g>
    </g>
    <g id="xtick_5">
     <g id="line2d_5">
      <g>
       <use style="stroke:#000000;stroke-width:0.6;" x="282.981177" xlink:href="#m726fc481a1" y="170.28"/>
      </g>
     </g>
    </g>
    <g id="xtick_6">
     <g id="line2d_6">
      <g>
       <use style="stroke:#000000;stroke-width:0.6;" x="318.576634" xlink:href="#m726fc481a1" y="170.28"/>
      </g>
     </g>
    </g>
    <g id="xtick_7">
     <g id="line2d_7">
      <g>
       <use style="stroke:#000000;stroke-width:0.6;" x="349.974052" xlink:href="#m726fc481a1" y="170.28"/>
      </g>
     </g>
    </g>
    <g id="xtick_8">
     <g id="line2d_8">
      <g>
       <use style="stroke:#000000;stroke-width:0.6;" x="562.832211" xlink:href="#m726fc481a1" y="170.28"/>
      </g>
     </g>
     <g id="text_4">
      <!-- $\mathdefault{2\times10^{0}}$ -->
      <defs>
       <path d="M 47.40625 13.703125 
L 42 0 
L 2.90625 0 
L 2.90625 1.203125 
L 20.703125 20.09375 
Q 27.703125 27.40625 30.703125 33.5 
Q 33.703125 39.59375 33.703125 46.09375 
Q 33.703125 52.796875 30 56.5 
Q 26.296875 60.203125 19.796875 60.203125 
Q 14.40625 60.203125 11.25 57.390625 
Q 8.09375 54.59375 5.09375 47.203125 
L 3 47.703125 
Q 4.703125 57 9.84375 62.296875 
Q 15 67.59375 23.796875 67.59375 
Q 32.09375 67.59375 37.1875 62.59375 
Q 42.296875 57.59375 42.296875 50 
Q 42.296875 38.703125 29.5 25.203125 
L 13 7.59375 
L 36.40625 7.59375 
Q 39.703125 7.59375 41.640625 8.890625 
Q 43.59375 10.203125 46 14.296875 
z
" id="STIXGeneral-Regular-50"/>
      </defs>
      <g transform="translate(539.872211 186.6075)scale(0.16 -0.16)">
       <use transform="translate(0 0.684375)" xlink:href="#STIXGeneral-Regular-50"/>
       <use transform="translate(65.559982 0.684375)" xlink:href="#STIXGeneral-Regular-215"/>
       <use transform="translate(145.119965 0.684375)" xlink:href="#STIXGeneral-Regular-49"/>
       <use transform="translate(195.119949 0.684375)" xlink:href="#STIXGeneral-Regular-48"/>
       <use transform="translate(246.694934 36.684375)scale(0.7)" xlink:href="#STIXGeneral-Regular-48"/>
      </g>
     </g>
    </g>
    <g id="xtick_9">
     <g id="line2d_9">
      <g>
       <use style="stroke:#000000;stroke-width:0.6;" x="670.917026" xlink:href="#m726fc481a1" y="170.28"/>
      </g>
     </g>
     <g id="text_5">
      <!-- $\mathdefault{3\times10^{0}}$ -->
      <defs>
       <path d="M 6.09375 51 
L 4.5 51.40625 
Q 6.796875 58.90625 11.6875 63.25 
Q 16.59375 67.59375 24.09375 67.59375 
Q 31.09375 67.59375 35.390625 63.796875 
Q 39.703125 60 39.703125 53.90625 
Q 39.703125 45.703125 30.40625 40.09375 
Q 35.90625 37.703125 38.703125 34.796875 
Q 43.09375 29.90625 43.09375 21.90625 
Q 43.09375 13.90625 38.5 7.90625 
Q 35.09375 3.296875 28.75 0.9375 
Q 22.40625 -1.40625 15.296875 -1.40625 
Q 4.09375 -1.40625 4.09375 4.296875 
Q 4.09375 5.90625 5.296875 6.90625 
Q 6.5 7.90625 8.203125 7.90625 
Q 10.703125 7.90625 14.296875 5.296875 
Q 18.703125 2.203125 22.90625 2.203125 
Q 28.40625 2.203125 32.15625 6.640625 
Q 35.90625 11.09375 35.90625 17.5 
Q 35.90625 29 25.5 32 
Q 22.40625 33 15.296875 33 
L 15.296875 34.40625 
Q 20.90625 36.296875 23.703125 38 
Q 31.796875 42.59375 31.796875 51.40625 
Q 31.796875 56.40625 28.9375 59 
Q 26.09375 61.59375 21 61.59375 
Q 12 61.59375 6.09375 51 
z
" id="STIXGeneral-Regular-51"/>
      </defs>
      <g transform="translate(647.957026 186.6075)scale(0.16 -0.16)">
       <use transform="translate(0 0.684375)" xlink:href="#STIXGeneral-Regular-51"/>
       <use transform="translate(65.559982 0.684375)" xlink:href="#STIXGeneral-Regular-215"/>
       <use transform="translate(145.119965 0.684375)" xlink:href="#STIXGeneral-Regular-49"/>
       <use transform="translate(195.119949 0.684375)" xlink:href="#STIXGeneral-Regular-48"/>
       <use transform="translate(246.694934 36.684375)scale(0.7)" xlink:href="#STIXGeneral-Regular-48"/>
      </g>
     </g>
    </g>
    <g id="text_6">
     <!-- Prior scale $\sigma_p$ -->
     <defs>
      <path d="M 1.59375 66.203125 
L 27.5 66.203125 
Q 41.703125 66.203125 49.203125 59.90625 
Q 54.203125 55.703125 54.203125 48 
Q 54.203125 40 48.5 34.90625 
Q 44.296875 31.09375 39.890625 29.9375 
Q 35.5 28.796875 27.09375 28.796875 
Q 24.203125 28.796875 20.203125 29.09375 
L 20.203125 11.203125 
Q 20.203125 5.5 21.84375 3.84375 
Q 23.5 2.203125 29.59375 1.90625 
L 29.59375 0 
L 1.59375 0 
L 1.59375 1.90625 
Q 7.40625 2.296875 8.703125 4 
Q 10 5.703125 10 12.203125 
L 10 55.09375 
Q 10 60.703125 8.546875 62.296875 
Q 7.09375 63.90625 1.59375 64.296875 
z
M 20.203125 58.90625 
L 20.203125 33.09375 
Q 23.59375 32.796875 26.296875 32.796875 
Q 34.40625 32.796875 38.84375 36.75 
Q 43.296875 40.703125 43.296875 47.5 
Q 43.296875 55.59375 38.6875 59.046875 
Q 34.09375 62.5 23.703125 62.5 
Q 21.59375 62.5 20.890625 61.75 
Q 20.203125 61 20.203125 58.90625 
z
" id="STIXGeneral-Regular-80"/>
      <path d="M 16 45.796875 
L 16 36.59375 
Q 19.796875 42 22.34375 44 
Q 24.90625 46 28 46 
Q 30.59375 46 32.046875 44.59375 
Q 33.5 43.203125 33.5 40.703125 
Q 33.5 38.59375 32.453125 37.390625 
Q 31.40625 36.203125 29.59375 36.203125 
Q 27.703125 36.203125 25.59375 38.203125 
Q 24 39.703125 23 39.703125 
Q 20.90625 39.703125 18.453125 36.796875 
Q 16 33.90625 16 31.5 
L 16 9 
Q 16 4.703125 17.703125 3.203125 
Q 19.40625 1.703125 24.5 1.5 
L 24.5 0 
L 0.5 0 
L 0.5 1.5 
Q 5.296875 2.40625 6.4375 3.5 
Q 7.59375 4.59375 7.59375 8.40625 
L 7.59375 33.40625 
Q 7.59375 36.703125 6.84375 38.046875 
Q 6.09375 39.40625 4.203125 39.40625 
Q 2.59375 39.40625 0.703125 39 
L 0.703125 40.59375 
Q 7 42.59375 15.5 46 
z
" id="STIXGeneral-Regular-114"/>
      <path d="M 18 63.203125 
Q 18 61 16.5 59.546875 
Q 15 58.09375 12.796875 58.09375 
Q 10.703125 58.09375 9.25 59.546875 
Q 7.796875 61 7.796875 63.203125 
Q 7.796875 65.296875 9.296875 66.796875 
Q 10.796875 68.296875 12.90625 68.296875 
Q 15.09375 68.296875 16.546875 66.796875 
Q 18 65.296875 18 63.203125 
z
M 25.296875 0 
L 1.59375 0 
L 1.59375 1.5 
Q 6.796875 1.796875 8.140625 3.296875 
Q 9.5 4.796875 9.5 10.40625 
L 9.5 33.09375 
Q 9.5 36.59375 8.796875 38 
Q 8.09375 39.40625 6.203125 39.40625 
Q 3.796875 39.40625 2 38.90625 
L 2 40.5 
L 17.5 46 
L 17.90625 45.59375 
L 17.90625 10.5 
Q 17.90625 4.90625 19.15625 3.40625 
Q 20.40625 1.90625 25.296875 1.5 
z
" id="STIXGeneral-Regular-105"/>
      <path d="M 47 23.09375 
Q 47 12.59375 40.75 5.796875 
Q 34.5 -1 24.5 -1 
Q 15.296875 -1 9.09375 5.75 
Q 2.90625 12.5 2.90625 22.796875 
Q 2.90625 33.203125 9.09375 39.59375 
Q 15.296875 46 25.40625 46 
Q 34.703125 46 40.84375 39.640625 
Q 47 33.296875 47 23.09375 
z
M 38 20.40625 
Q 38 31.796875 33 38.203125 
Q 29 43.203125 23.5 43.203125 
Q 18.296875 43.203125 15.09375 38.953125 
Q 11.90625 34.703125 11.90625 27.296875 
Q 11.90625 14.5 17.203125 6.796875 
Q 20.59375 1.796875 26.203125 1.796875 
Q 31.703125 1.796875 34.84375 6.75 
Q 38 11.703125 38 20.40625 
z
" id="STIXGeneral-Regular-111"/>
      <path id="STIXGeneral-Regular-32"/>
      <path d="M 15.59375 30.09375 
L 26 23.796875 
Q 31 20.796875 32.890625 18.1875 
Q 34.796875 15.59375 34.796875 11.5 
Q 34.796875 6.5 30.640625 2.75 
Q 26.5 -1 20.796875 -1 
Q 16.09375 -1 13.5 -0.09375 
Q 10.796875 0.796875 8.90625 0.796875 
Q 7.203125 0.796875 6.5 -0.40625 
L 5.203125 -0.40625 
L 5.203125 15.296875 
L 6.796875 15.296875 
Q 8.40625 8 11.40625 4.59375 
Q 14.40625 1.203125 19.5 1.203125 
Q 23.203125 1.203125 25.5 3.296875 
Q 27.796875 5.40625 27.796875 8.59375 
Q 27.796875 13.203125 22.5 16.09375 
L 17.09375 19.09375 
Q 5.09375 25.796875 5.09375 33.59375 
Q 5.09375 39.40625 8.84375 42.65625 
Q 12.59375 45.90625 18.90625 45.90625 
Q 23.296875 45.90625 25.59375 44.796875 
Q 27.40625 44 28.40625 44 
Q 29.09375 44 30 45 
L 31.09375 45 
L 31.59375 31.40625 
L 30.09375 31.40625 
Q 28.40625 38.203125 25.84375 40.953125 
Q 23.296875 43.703125 18.796875 43.703125 
Q 15.40625 43.703125 13.34375 42 
Q 11.296875 40.296875 11.296875 36.90625 
Q 11.296875 35.203125 12.4375 33.25 
Q 13.59375 31.296875 15.59375 30.09375 
z
" id="STIXGeneral-Regular-115"/>
      <path d="M 39.796875 15.59375 
L 41.203125 14.703125 
Q 36.90625 6.296875 33 3.203125 
Q 27.90625 -1 21.5 -1 
Q 13.203125 -1 7.84375 5.25 
Q 2.5 11.5 2.5 21.203125 
Q 2.5 33.90625 10.90625 40.90625 
Q 17.09375 46 24.40625 46 
Q 30.703125 46 35.25 42.953125 
Q 39.796875 39.90625 39.796875 35.703125 
Q 39.796875 34 38.390625 32.75 
Q 37 31.5 35.09375 31.5 
Q 31.59375 31.5 30.296875 36.09375 
L 29.703125 38.296875 
Q 28.90625 41.09375 27.703125 42.09375 
Q 26.5 43.09375 23.796875 43.09375 
Q 17.703125 43.09375 13.953125 38.296875 
Q 10.203125 33.5 10.203125 25.703125 
Q 10.203125 17.09375 14.5 11.640625 
Q 18.796875 6.203125 25.703125 6.203125 
Q 30 6.203125 33.09375 8.25 
Q 36.203125 10.296875 39.796875 15.59375 
z
" id="STIXGeneral-Regular-99"/>
      <path d="M 44.203125 6.59375 
L 44.203125 3.796875 
Q 40.40625 -1 35.203125 -1 
Q 29.5 -1 28.796875 6.296875 
L 28.703125 6.296875 
Q 22.296875 -1 14.203125 -1 
Q 9.5 -1 6.59375 1.75 
Q 3.703125 4.5 3.703125 9.40625 
Q 3.703125 16.40625 10.703125 21.09375 
Q 15.5 24.296875 28.703125 29.203125 
L 28.703125 34.59375 
Q 28.703125 39.09375 26.546875 41.34375 
Q 24.40625 43.59375 20.90625 43.59375 
Q 17.90625 43.59375 15.90625 42.140625 
Q 13.90625 40.703125 13.90625 38.703125 
Q 13.90625 37.796875 14.203125 36.6875 
Q 14.5 35.59375 14.5 34.5 
Q 14.5 33 13.140625 31.703125 
Q 11.796875 30.40625 9.90625 30.40625 
Q 8.203125 30.40625 6.890625 31.703125 
Q 5.59375 33 5.59375 35 
Q 5.59375 39.796875 10.703125 43 
Q 15.40625 46 22.203125 46 
Q 30.296875 46 34 41.5 
Q 35.796875 39.40625 36.296875 37.25 
Q 36.796875 35.09375 36.796875 30.40625 
L 36.796875 11.296875 
Q 36.796875 4.703125 39.90625 4.703125 
Q 41.90625 4.703125 44.203125 6.59375 
z
M 28.703125 12.703125 
L 28.703125 26.796875 
Q 19.5 23.59375 15.90625 20.203125 
Q 12.5 17.09375 12.5 12.5 
Q 12.5 8.703125 14.390625 6.75 
Q 16.296875 4.796875 19.40625 4.796875 
Q 22.703125 4.796875 25.203125 6.40625 
Q 27.296875 7.90625 28 9.203125 
Q 28.703125 10.5 28.703125 12.703125 
z
" id="STIXGeneral-Regular-97"/>
      <path d="M 25.703125 0 
L 2.09375 0 
L 2.09375 1.5 
Q 6.796875 1.90625 8.296875 3.453125 
Q 9.796875 5 9.796875 9.203125 
L 9.796875 56.09375 
Q 9.796875 59.703125 8.890625 61.09375 
Q 8 62.5 5.59375 62.5 
Q 3.5 62.5 1.90625 62.296875 
L 1.90625 63.90625 
Q 11.40625 66.203125 17.703125 68.296875 
L 18.203125 67.90625 
L 18.203125 8.703125 
Q 18.203125 4.5 19.59375 3.140625 
Q 21 1.796875 25.703125 1.5 
z
" id="STIXGeneral-Regular-108"/>
      <path d="M 40.796875 16.40625 
L 42.40625 15.703125 
Q 36.40625 -1 21.5 -1 
Q 12.703125 -1 7.59375 5.140625 
Q 2.5 11.296875 2.5 21.703125 
Q 2.5 32.40625 8.203125 39.203125 
Q 13.90625 46 23.203125 46 
Q 32.203125 46 37.09375 39.09375 
Q 40 35.09375 40.5 27.703125 
L 9.703125 27.703125 
Q 10.09375 21.40625 10.9375 18.09375 
Q 11.796875 14.796875 14.296875 11.40625 
Q 18.5 5.90625 25.40625 5.90625 
Q 30.296875 5.90625 33.640625 8.296875 
Q 37 10.703125 40.796875 16.40625 
z
M 9.90625 30.90625 
L 30.296875 30.90625 
Q 29.40625 37.203125 27.34375 39.796875 
Q 25.296875 42.40625 20.5 42.40625 
Q 16.296875 42.40625 13.5 39.453125 
Q 10.703125 36.5 9.90625 30.90625 
z
" id="STIXGeneral-Regular-101"/>
      <path d="M 53.09375 42.796875 
L 51.296875 35.40625 
L 34.296875 35.40625 
Q 35.796875 33 38.390625 30.953125 
Q 41 28.90625 42.453125 26.953125 
Q 43.90625 25 43.90625 21.703125 
Q 43.90625 13.296875 35.75 6.09375 
Q 27.59375 -1.09375 17.296875 -1.09375 
Q 10.296875 -1.09375 6.5 2.65625 
Q 2.703125 6.40625 2.703125 13 
Q 2.703125 19.90625 6.390625 26.65625 
Q 10.09375 33.40625 17.390625 38.09375 
Q 24.703125 42.796875 33.703125 42.796875 
z
M 35.5 22.09375 
Q 35.5 26.703125 33.84375 30.296875 
Q 32.203125 33.90625 29.703125 35.40625 
Q 23.90625 35.40625 17.5 27.65625 
Q 11.09375 19.90625 11.09375 10 
Q 11.09375 5.59375 13.1875 3.296875 
Q 15.296875 1 18.90625 1 
Q 25.59375 1 30.546875 8.203125 
Q 35.5 15.40625 35.5 22.09375 
z
" id="STIXGeneral-Italic-963"/>
      <path d="M 21.5 42.796875 
L 18.59375 32.796875 
Q 26.09375 44.09375 35.703125 44.09375 
Q 41.203125 44.09375 44.203125 40.796875 
Q 47.203125 37.5 47.203125 31.59375 
Q 47.203125 19.296875 37.84375 9.09375 
Q 28.5 -1.09375 17.5 -1.09375 
Q 13.90625 -1.09375 10.59375 0.59375 
Q 6.59375 -15.90625 6.59375 -16 
Q 6.59375 -17.59375 7.9375 -18.25 
Q 9.296875 -18.90625 12.796875 -18.90625 
L 12.796875 -20.5 
L -7.5 -20.5 
L -7.5 -18.90625 
Q -4.296875 -18.796875 -2.9375 -17.5 
Q -1.59375 -16.203125 -0.703125 -12.59375 
L 10.796875 30.59375 
Q 12.40625 36.40625 12.40625 37.703125 
Q 12.40625 40.40625 8 40.40625 
L 5.796875 40.40625 
L 5.59375 41.90625 
L 21.203125 44.09375 
Q 21.703125 44.09375 21.703125 43.703125 
Q 21.59375 43.203125 21.5 42.796875 
z
M 38.203125 31.296875 
Q 38.203125 35.703125 36.75 37.75 
Q 35.296875 39.796875 32 39.796875 
Q 28.09375 39.796875 24.1875 36.390625 
Q 20.296875 33 18.5 28.40625 
Q 16.296875 22.703125 14.140625 14.890625 
Q 12 7.09375 12 4.59375 
Q 12 2.90625 13.34375 1.84375 
Q 14.703125 0.796875 16.796875 0.796875 
Q 24.59375 0.796875 31.296875 10.296875 
Q 38.203125 19.90625 38.203125 31.296875 
z
" id="STIXGeneral-Italic-112"/>
     </defs>
     <g transform="translate(324.06 209.48)scale(0.2 -0.2)">
      <use transform="translate(0 0.703125)" xlink:href="#STIXGeneral-Regular-80"/>
      <use transform="translate(55.699997 0.703125)" xlink:href="#STIXGeneral-Regular-114"/>
      <use transform="translate(88.999985 0.703125)" xlink:href="#STIXGeneral-Regular-105"/>
      <use transform="translate(116.799973 0.703125)" xlink:href="#STIXGeneral-Regular-111"/>
      <use transform="translate(166.799957 0.703125)" xlink:href="#STIXGeneral-Regular-114"/>
      <use transform="translate(200.099945 0.703125)" xlink:href="#STIXGeneral-Regular-32"/>
      <use transform="translate(225.09993 0.703125)" xlink:href="#STIXGeneral-Regular-115"/>
      <use transform="translate(263.999924 0.703125)" xlink:href="#STIXGeneral-Regular-99"/>
      <use transform="translate(308.399918 0.703125)" xlink:href="#STIXGeneral-Regular-97"/>
      <use transform="translate(352.799911 0.703125)" xlink:href="#STIXGeneral-Regular-108"/>
      <use transform="translate(380.599899 0.703125)" xlink:href="#STIXGeneral-Regular-101"/>
      <use transform="translate(424.999893 0.703125)" xlink:href="#STIXGeneral-Regular-32"/>
      <use transform="translate(449.999878 0.703125)" xlink:href="#STIXGeneral-Italic-963"/>
      <use transform="translate(499.799866 -12.525)scale(0.7)" xlink:href="#STIXGeneral-Italic-112"/>
     </g>
    </g>
   </g>
   <g id="matplotlib.axis_2">
    <g id="ytick_1">
     <g id="line2d_10">
      <defs>
       <path d="M 0 0 
L -3.5 0 
" id="m9f5e4ed825" style="stroke:#000000;stroke-width:0.8;"/>
      </defs>
      <g>
       <use style="stroke:#000000;stroke-width:0.8;" x="71.16" xlink:href="#m9f5e4ed825" y="134.04"/>
      </g>
     </g>
     <g id="text_7">
      <!-- −100 -->
      <g transform="translate(29.2 139.50375)scale(0.16 -0.16)">
       <use xlink:href="#STIXGeneral-Regular-8722"/>
       <use x="68.499985" xlink:href="#STIXGeneral-Regular-49"/>
       <use x="118.499969" xlink:href="#STIXGeneral-Regular-48"/>
       <use x="168.499954" xlink:href="#STIXGeneral-Regular-48"/>
      </g>
     </g>
    </g>
    <g id="ytick_2">
     <g id="line2d_11">
      <g>
       <use style="stroke:#000000;stroke-width:0.8;" x="71.16" xlink:href="#m9f5e4ed825" y="73.64"/>
      </g>
     </g>
     <g id="text_8">
      <!-- 0 -->
      <g transform="translate(56.16 79.10375)scale(0.16 -0.16)">
       <use xlink:href="#STIXGeneral-Regular-48"/>
      </g>
     </g>
    </g>
    <g id="ytick_3">
     <g id="line2d_12">
      <g>
       <use style="stroke:#000000;stroke-width:0.8;" x="71.16" xlink:href="#m9f5e4ed825" y="13.24"/>
      </g>
     </g>
     <g id="text_9">
      <!-- 100 -->
      <g transform="translate(40.16 18.70375)scale(0.16 -0.16)">
       <use xlink:href="#STIXGeneral-Regular-49"/>
       <use x="49.999985" xlink:href="#STIXGeneral-Regular-48"/>
       <use x="99.999969" xlink:href="#STIXGeneral-Regular-48"/>
      </g>
     </g>
    </g>
    <g id="text_10">
     <!-- ELBO and IWBO -->
     <defs>
      <path d="M 59.703125 16.90625 
L 55.09375 0 
L 1.203125 0 
L 1.203125 1.90625 
Q 6.90625 2.296875 8.40625 3.9375 
Q 9.90625 5.59375 9.90625 11.40625 
L 9.90625 55 
Q 9.90625 60.59375 8.34375 62.296875 
Q 6.796875 64 1.203125 64.296875 
L 1.203125 66.203125 
L 54.203125 66.203125 
L 54.59375 51.90625 
L 52.09375 51.90625 
Q 51 58.59375 48.203125 60.5 
Q 45.40625 62.40625 36.703125 62.40625 
L 23.59375 62.40625 
Q 21.40625 62.40625 20.75 61.75 
Q 20.09375 61.09375 20.09375 58.796875 
L 20.09375 36.796875 
L 35.203125 36.796875 
Q 41.5 36.796875 43.546875 38.59375 
Q 45.59375 40.40625 46.5 46.40625 
L 48.796875 46.40625 
L 48.796875 23 
L 46.5 23 
Q 45.59375 29.296875 43.59375 31 
Q 41.59375 32.703125 35.203125 32.703125 
L 20.09375 32.703125 
L 20.09375 8.40625 
Q 20.09375 5.40625 22.1875 4.546875 
Q 24.296875 3.703125 30.203125 3.703125 
L 33.796875 3.703125 
Q 44.5 3.703125 49 6.296875 
Q 53.5 8.90625 56.90625 16.90625 
z
" id="STIXGeneral-Regular-69"/>
      <path d="M 59.796875 17.40625 
L 55 0 
L 1.203125 0 
L 1.203125 1.90625 
Q 6.703125 2.203125 8.296875 4 
Q 9.90625 5.796875 9.90625 11.5 
L 9.90625 54.59375 
Q 9.90625 60.5 8.453125 62.203125 
Q 7 63.90625 1.203125 64.296875 
L 1.203125 66.203125 
L 29.5 66.203125 
L 29.5 64.296875 
Q 23.40625 63.90625 21.75 62.25 
Q 20.09375 60.59375 20.09375 54.796875 
L 20.09375 8.40625 
Q 20.09375 5.59375 21.84375 4.75 
Q 23.59375 3.90625 29.09375 3.90625 
L 36.09375 3.90625 
Q 48.203125 3.90625 53 10 
Q 55 12.703125 57.203125 17.40625 
z
" id="STIXGeneral-Regular-76"/>
      <path d="M 42.203125 34.90625 
L 42.203125 34.796875 
Q 49.703125 33.59375 54.40625 29.296875 
Q 59.296875 24.90625 59.296875 17.796875 
Q 59.296875 9.5 52.796875 4.75 
Q 46.296875 0 35.40625 0 
L 1.703125 0 
L 1.703125 1.90625 
Q 7.59375 2.09375 9.4375 3.84375 
Q 11.296875 5.59375 11.296875 11.296875 
L 11.296875 55 
Q 11.296875 60.796875 9.59375 62.34375 
Q 7.90625 63.90625 1.703125 64.296875 
L 1.703125 66.203125 
L 29.703125 66.203125 
Q 42.59375 66.203125 49.25 61.84375 
Q 55.90625 57.5 55.90625 49.5 
Q 55.90625 42.703125 51.796875 39.09375 
Q 48.90625 36.59375 42.203125 34.90625 
z
M 21.5 36.59375 
L 30.703125 36.59375 
Q 45.703125 36.59375 45.703125 49 
Q 45.703125 55.40625 41.25 58.953125 
Q 36.796875 62.5 28 62.5 
L 23.90625 62.5 
Q 21.5 62.5 21.5 59.296875 
z
M 21.5 32.59375 
L 21.5 8.203125 
Q 21.5 5.703125 22.84375 4.703125 
Q 24.203125 3.703125 27.703125 3.703125 
Q 34.5 3.703125 37.703125 4.453125 
Q 40.90625 5.203125 44 8 
Q 47.796875 11.296875 47.796875 17.90625 
Q 47.796875 25.5 43.09375 28.59375 
Q 42 29.40625 40.890625 29.953125 
Q 39.796875 30.5 38.9375 30.84375 
Q 38.09375 31.203125 36.6875 31.5 
Q 35.296875 31.796875 34.546875 31.9375 
Q 33.796875 32.09375 31.890625 32.1875 
Q 30 32.296875 29.09375 32.34375 
Q 28.203125 32.40625 25.546875 32.5 
Q 22.90625 32.59375 21.5 32.59375 
z
" id="STIXGeneral-Regular-66"/>
      <path d="M 68.796875 33.09375 
Q 68.796875 17.703125 59.6875 8.140625 
Q 50.59375 -1.40625 36.09375 -1.40625 
Q 21.5 -1.40625 12.453125 8.1875 
Q 3.40625 17.796875 3.40625 33.40625 
Q 3.40625 48.59375 12.453125 58.09375 
Q 21.5 67.59375 36.09375 67.59375 
Q 50.703125 67.59375 59.75 57.84375 
Q 68.796875 48.09375 68.796875 33.09375 
z
M 57.40625 33.703125 
Q 57.40625 42.203125 55 48.953125 
Q 52.59375 55.703125 48.296875 59.296875 
Q 42.703125 64 36 64 
Q 27.5 64 21.703125 57.296875 
Q 18.5 53.703125 16.640625 47.046875 
Q 14.796875 40.40625 14.796875 33.203125 
Q 14.796875 15 23.796875 6.703125 
Q 28.703125 2.203125 36.203125 2.203125 
Q 44 2.203125 49.09375 7 
Q 57.40625 15 57.40625 33.703125 
z
" id="STIXGeneral-Regular-79"/>
      <path d="M 48.5 0 
L 27.703125 0 
L 27.796875 1.5 
Q 31.5 1.796875 32.75 3.640625 
Q 34 5.5 34 10.5 
L 34 30.40625 
Q 34 40.5 26.703125 40.5 
Q 24.203125 40.5 22 39.296875 
Q 19.796875 38.09375 16.40625 34.796875 
L 16.40625 7.203125 
Q 16.40625 4.203125 17.75 3 
Q 19.09375 1.796875 22.90625 1.5 
L 22.90625 0 
L 1.796875 0 
L 1.796875 1.5 
Q 5.59375 1.796875 6.796875 3.34375 
Q 8 4.90625 8 9.40625 
L 8 33.703125 
Q 8 37.40625 7.296875 38.796875 
Q 6.59375 40.203125 4.5 40.203125 
Q 2.5 40.203125 1.59375 39.796875 
L 1.59375 41.5 
Q 8.59375 43.5 15.296875 46 
L 16.09375 45.703125 
L 16.09375 37.90625 
L 16.203125 37.90625 
Q 23.296875 46 30.59375 46 
Q 36.296875 46 39.34375 42 
Q 42.40625 38 42.40625 30.59375 
L 42.40625 8.5 
Q 42.40625 4.5 43.59375 3.203125 
Q 44.796875 1.90625 48.5 1.5 
z
" id="STIXGeneral-Regular-110"/>
      <path d="M 49.09375 4.203125 
L 34.40625 -1 
L 34 -0.703125 
L 34 5.703125 
Q 29.203125 -1 21.203125 -1 
Q 12.90625 -1 7.796875 4.953125 
Q 2.703125 10.90625 2.703125 20.5 
Q 2.703125 31.09375 8.796875 38.546875 
Q 14.90625 46 23.5 46 
Q 28.90625 46 34 41.703125 
L 34 57.296875 
Q 34 60.40625 33.09375 61.40625 
Q 32.203125 62.40625 29.40625 62.40625 
Q 28 62.40625 27.203125 62.296875 
L 27.203125 63.90625 
Q 36.296875 66.296875 41.90625 68.296875 
L 42.40625 68.09375 
L 42.40625 11.40625 
Q 42.40625 7.90625 43.25 6.796875 
Q 44.09375 5.703125 46.796875 5.703125 
Q 47.40625 5.703125 49.09375 5.796875 
z
M 34 10.203125 
L 34 33.203125 
Q 34 37.203125 30.953125 40.203125 
Q 27.90625 43.203125 23.796875 43.203125 
Q 18.09375 43.203125 14.6875 38.09375 
Q 11.296875 33 11.296875 24.5 
Q 11.296875 15.296875 15.046875 9.75 
Q 18.796875 4.203125 25.09375 4.203125 
Q 29.796875 4.203125 32.5 7.40625 
Q 34 9.09375 34 10.203125 
z
" id="STIXGeneral-Regular-100"/>
      <path d="M 31.5 0 
L 1.796875 0 
L 1.796875 1.90625 
Q 8.09375 2.09375 9.796875 3.75 
Q 11.5 5.40625 11.5 11.203125 
L 11.5 55.09375 
Q 11.5 60.90625 9.890625 62.40625 
Q 8.296875 63.90625 1.796875 64.296875 
L 1.796875 66.203125 
L 31.5 66.203125 
L 31.5 64.296875 
Q 25.203125 64 23.453125 62.390625 
Q 21.703125 60.796875 21.703125 55.09375 
L 21.703125 11.203125 
Q 21.703125 5.59375 23.5 3.84375 
Q 25.296875 2.09375 31.5 1.90625 
z
" id="STIXGeneral-Regular-73"/>
      <path d="M 93.203125 66.203125 
L 93.203125 64.296875 
Q 89.203125 63.5 87.75 62.34375 
Q 86.296875 61.203125 84.90625 57.296875 
Q 73.5 26.703125 64.5 -1.09375 
L 63 -1.09375 
Q 56.90625 15.796875 47 41.203125 
L 31.59375 -1.09375 
L 30.09375 -1.09375 
Q 26.703125 9 19.953125 27.390625 
Q 13.203125 45.796875 10.90625 52.296875 
Q 8.40625 59.5 6.34375 61.84375 
Q 4.296875 64.203125 0.5 64.296875 
L 0.5 66.203125 
L 24.90625 66.203125 
L 24.90625 64.296875 
Q 21.203125 64.203125 19.84375 63.5 
Q 18.5 62.796875 18.5 61.203125 
Q 18.5 59.5 19.59375 56.5 
L 34 18.90625 
L 44.40625 47.203125 
L 41.59375 54.703125 
Q 39.203125 61.203125 37.5 62.703125 
Q 35.796875 64.203125 31.40625 64.296875 
L 31.40625 66.203125 
L 57.90625 66.203125 
L 57.90625 64.296875 
Q 50.203125 64.09375 50.203125 60.796875 
Q 50.203125 59.5 51.90625 55 
L 66.203125 18.59375 
L 78.796875 52.5 
Q 80.5 57.296875 80.5 60.203125 
Q 80.5 64.203125 73.5 64.296875 
L 73.5 66.203125 
z
" id="STIXGeneral-Regular-87"/>
     </defs>
     <g transform="translate(20.859375 160.950938)rotate(-90)scale(0.2 -0.2)">
      <use xlink:href="#STIXGeneral-Regular-69"/>
      <use x="61.099991" xlink:href="#STIXGeneral-Regular-76"/>
      <use x="122.199982" xlink:href="#STIXGeneral-Regular-66"/>
      <use x="188.899979" xlink:href="#STIXGeneral-Regular-79"/>
      <use x="261.09996" xlink:href="#STIXGeneral-Regular-32"/>
      <use x="286.099945" xlink:href="#STIXGeneral-Regular-97"/>
      <use x="330.499939" xlink:href="#STIXGeneral-Regular-110"/>
      <use x="380.499924" xlink:href="#STIXGeneral-Regular-100"/>
      <use x="430.499908" xlink:href="#STIXGeneral-Regular-32"/>
      <use x="455.499893" xlink:href="#STIXGeneral-Regular-73"/>
      <use x="488.799881" xlink:href="#STIXGeneral-Regular-87"/>
      <use x="583.199875" xlink:href="#STIXGeneral-Regular-66"/>
      <use x="649.899872" xlink:href="#STIXGeneral-Regular-79"/>
     </g>
    </g>
   </g>
   <g id="line2d_13">
    <path clip-path="url(#p1e91ae8c63)" d="M 71.16 159.230171 
L 132.54 158.784627 
L 193.92 156.766919 
L 255.3 138.175607 
L 316.68 107.63549 
L 378.06 86.210933 
L 439.44 52.109224 
L 500.82 39.172273 
L 562.2 36.620607 
L 623.58 40.404908 
L 684.96 47.57553 
" style="fill:none;stroke:#808080;stroke-linecap:square;stroke-width:1.5;"/>
    <defs>
     <path d="M 0 -3 
L -3 3 
L 3 3 
z
" id="mec9392d00b" style="stroke:#808080;stroke-linejoin:miter;"/>
    </defs>
    <g clip-path="url(#p1e91ae8c63)">
     <use style="fill:#808080;stroke:#808080;stroke-linejoin:miter;" x="71.16" xlink:href="#mec9392d00b" y="159.230171"/>
     <use style="fill:#808080;stroke:#808080;stroke-linejoin:miter;" x="132.54" xlink:href="#mec9392d00b" y="158.784627"/>
     <use style="fill:#808080;stroke:#808080;stroke-linejoin:miter;" x="193.92" xlink:href="#mec9392d00b" y="156.766919"/>
     <use style="fill:#808080;stroke:#808080;stroke-linejoin:miter;" x="255.3" xlink:href="#mec9392d00b" y="138.175607"/>
     <use style="fill:#808080;stroke:#808080;stroke-linejoin:miter;" x="316.68" xlink:href="#mec9392d00b" y="107.63549"/>
     <use style="fill:#808080;stroke:#808080;stroke-linejoin:miter;" x="378.06" xlink:href="#mec9392d00b" y="86.210933"/>
     <use style="fill:#808080;stroke:#808080;stroke-linejoin:miter;" x="439.44" xlink:href="#mec9392d00b" y="52.109224"/>
     <use style="fill:#808080;stroke:#808080;stroke-linejoin:miter;" x="500.82" xlink:href="#mec9392d00b" y="39.172273"/>
     <use style="fill:#808080;stroke:#808080;stroke-linejoin:miter;" x="562.2" xlink:href="#mec9392d00b" y="36.620607"/>
     <use style="fill:#808080;stroke:#808080;stroke-linejoin:miter;" x="623.58" xlink:href="#mec9392d00b" y="40.404908"/>
     <use style="fill:#808080;stroke:#808080;stroke-linejoin:miter;" x="684.96" xlink:href="#mec9392d00b" y="47.57553"/>
    </g>
   </g>
   <g id="line2d_14">
    <path clip-path="url(#p1e91ae8c63)" d="M 71.16 159.234015 
L 132.54 158.725864 
L 193.92 155.331083 
L 255.3 123.225127 
L 316.68 101.617261 
L 378.06 72.047246 
L 439.44 40.604824 
L 500.82 31.797295 
L 562.2 30.019838 
L 623.58 30.385256 
L 684.96 35.611177 
" style="fill:none;stroke:#ffc0cb;stroke-linecap:square;stroke-width:1.5;"/>
    <defs>
     <path d="M 0 -3 
L -3 3 
L 3 3 
z
" id="m61eb36cda3" style="stroke:#ffc0cb;stroke-linejoin:miter;"/>
    </defs>
    <g clip-path="url(#p1e91ae8c63)">
     <use style="fill:#ffc0cb;stroke:#ffc0cb;stroke-linejoin:miter;" x="71.16" xlink:href="#m61eb36cda3" y="159.234015"/>
     <use style="fill:#ffc0cb;stroke:#ffc0cb;stroke-linejoin:miter;" x="132.54" xlink:href="#m61eb36cda3" y="158.725864"/>
     <use style="fill:#ffc0cb;stroke:#ffc0cb;stroke-linejoin:miter;" x="193.92" xlink:href="#m61eb36cda3" y="155.331083"/>
     <use style="fill:#ffc0cb;stroke:#ffc0cb;stroke-linejoin:miter;" x="255.3" xlink:href="#m61eb36cda3" y="123.225127"/>
     <use style="fill:#ffc0cb;stroke:#ffc0cb;stroke-linejoin:miter;" x="316.68" xlink:href="#m61eb36cda3" y="101.617261"/>
     <use style="fill:#ffc0cb;stroke:#ffc0cb;stroke-linejoin:miter;" x="378.06" xlink:href="#m61eb36cda3" y="72.047246"/>
     <use style="fill:#ffc0cb;stroke:#ffc0cb;stroke-linejoin:miter;" x="439.44" xlink:href="#m61eb36cda3" y="40.604824"/>
     <use style="fill:#ffc0cb;stroke:#ffc0cb;stroke-linejoin:miter;" x="500.82" xlink:href="#m61eb36cda3" y="31.797295"/>
     <use style="fill:#ffc0cb;stroke:#ffc0cb;stroke-linejoin:miter;" x="562.2" xlink:href="#m61eb36cda3" y="30.019838"/>
     <use style="fill:#ffc0cb;stroke:#ffc0cb;stroke-linejoin:miter;" x="623.58" xlink:href="#m61eb36cda3" y="30.385256"/>
     <use style="fill:#ffc0cb;stroke:#ffc0cb;stroke-linejoin:miter;" x="684.96" xlink:href="#m61eb36cda3" y="35.611177"/>
    </g>
   </g>
   <g id="patch_3">
    <path d="M 71.16 170.28 
L 71.16 7.2 
" style="fill:none;stroke:#000000;stroke-linecap:square;stroke-linejoin:miter;stroke-width:0.8;"/>
   </g>
   <g id="patch_4">
    <path d="M 684.96 170.28 
L 684.96 7.2 
" style="fill:none;stroke:#000000;stroke-linecap:square;stroke-linejoin:miter;stroke-width:0.8;"/>
   </g>
   <g id="patch_5">
    <path d="M 71.16 170.28 
L 684.96 170.28 
" style="fill:none;stroke:#000000;stroke-linecap:square;stroke-linejoin:miter;stroke-width:0.8;"/>
   </g>
   <g id="patch_6">
    <path d="M 71.16 7.2 
L 684.96 7.2 
" style="fill:none;stroke:#000000;stroke-linecap:square;stroke-linejoin:miter;stroke-width:0.8;"/>
   </g>
   <g id="legend_1">
    <g id="patch_7">
     <path d="M 579.9025 162.28 
L 673.76 162.28 
Q 676.96 162.28 676.96 159.08 
L 676.96 115.335 
Q 676.96 112.135 673.76 112.135 
L 579.9025 112.135 
Q 576.7025 112.135 576.7025 115.335 
L 576.7025 159.08 
Q 576.7025 162.28 579.9025 162.28 
z
" style="fill:#ffffff;opacity:0.8;stroke:#cccccc;stroke-linejoin:miter;"/>
    </g>
    <g id="line2d_15">
     <path d="M 583.1025 124.135 
L 615.1025 124.135 
" style="fill:none;stroke:#808080;stroke-linecap:square;stroke-width:1.5;"/>
    </g>
    <g id="line2d_16">
     <g>
      <use style="fill:#808080;stroke:#808080;stroke-linejoin:miter;" x="599.1025" xlink:href="#mec9392d00b" y="124.135"/>
     </g>
    </g>
    <g id="text_11">
     <!-- ELBO -->
     <g transform="translate(627.9025 129.735)scale(0.16 -0.16)">
      <use xlink:href="#STIXGeneral-Regular-69"/>
      <use x="61.099991" xlink:href="#STIXGeneral-Regular-76"/>
      <use x="122.199982" xlink:href="#STIXGeneral-Regular-66"/>
      <use x="188.899979" xlink:href="#STIXGeneral-Regular-79"/>
     </g>
    </g>
    <g id="line2d_17">
     <path d="M 583.1025 146.8075 
L 615.1025 146.8075 
" style="fill:none;stroke:#ffc0cb;stroke-linecap:square;stroke-width:1.5;"/>
    </g>
    <g id="line2d_18">
     <g>
      <use style="fill:#ffc0cb;stroke:#ffc0cb;stroke-linejoin:miter;" x="599.1025" xlink:href="#m61eb36cda3" y="146.8075"/>
     </g>
    </g>
    <g id="text_12">
     <!-- IWBO -->
     <g transform="translate(627.9025 152.4075)scale(0.16 -0.16)">
      <use xlink:href="#STIXGeneral-Regular-73"/>
      <use x="33.299988" xlink:href="#STIXGeneral-Regular-87"/>
      <use x="127.699982" xlink:href="#STIXGeneral-Regular-66"/>
      <use x="194.399979" xlink:href="#STIXGeneral-Regular-79"/>
     </g>
    </g>
   </g>
  </g>
 </g>
 <defs>
  <clipPath id="p1e91ae8c63">
   <rect height="163.08" width="613.8" x="71.16" y="7.2"/>
  </clipPath>
 </defs>
</svg>
