<?xml version="1.0" encoding="utf-8" standalone="no"?>
<!DOCTYPE svg PUBLIC "-//W3C//DTD SVG 1.1//EN"
  "http://www.w3.org/Graphics/SVG/1.1/DTD/svg11.dtd">
<!-- Created with matplotlib (https://matplotlib.org/) -->
<svg height="170.12pt" version="1.1" viewBox="0 0 680.9 170.12" width="680.9pt" xmlns="http://www.w3.org/2000/svg" xmlns:xlink="http://www.w3.org/1999/xlink">
 <defs>
  <style type="text/css">
*{stroke-linecap:butt;stroke-linejoin:round;}
  </style>
 </defs>
 <g id="figure_1">
  <g id="patch_1">
   <path d="M 0 170.12 
L 680.9 170.12 
L 680.9 0 
L 0 0 
z
" style="fill:none;"/>
  </g>
  <g id="axes_1">
   <g id="patch_2">
    <path d="M 59.9 115.92 
L 673.7 115.92 
L 673.7 7.2 
L 59.9 7.2 
z
" style="fill:#ffffff;"/>
   </g>
   <g id="PathCollection_1">
    <defs>
     <path d="M -3 0 
L 3 0 
M 0 3 
L 0 -3 
" id="mb9381e0b4d" style="stroke:#000000;stroke-width:1.5;"/>
    </defs>
    <g clip-path="url(#p45795ec31b)">
     <use style="stroke:#000000;stroke-width:1.5;" x="285.192029" xlink:href="#mb9381e0b4d" y="65.548198"/>
     <use style="stroke:#000000;stroke-width:1.5;" x="217.283069" xlink:href="#mb9381e0b4d" y="86.265868"/>
     <use style="stroke:#000000;stroke-width:1.5;" x="241.194569" xlink:href="#mb9381e0b4d" y="72.454157"/>
     <use style="stroke:#000000;stroke-width:1.5;" x="208.849507" xlink:href="#mb9381e0b4d" y="88.634837"/>
     <use style="stroke:#000000;stroke-width:1.5;" x="210.498978" xlink:href="#mb9381e0b4d" y="87.847452"/>
     <use style="stroke:#000000;stroke-width:1.5;" x="284.050442" xlink:href="#mb9381e0b4d" y="65.776609"/>
     <use style="stroke:#000000;stroke-width:1.5;" x="243.186362" xlink:href="#mb9381e0b4d" y="76.013728"/>
     <use style="stroke:#000000;stroke-width:1.5;" x="261.528374" xlink:href="#mb9381e0b4d" y="69.973529"/>
     <use style="stroke:#000000;stroke-width:1.5;" x="208.657785" xlink:href="#mb9381e0b4d" y="89.469828"/>
     <use style="stroke:#000000;stroke-width:1.5;" x="217.095577" xlink:href="#mb9381e0b4d" y="85.033025"/>
     <use style="stroke:#000000;stroke-width:1.5;" x="257.913282" xlink:href="#mb9381e0b4d" y="70.809084"/>
     <use style="stroke:#000000;stroke-width:1.5;" x="222.532523" xlink:href="#mb9381e0b4d" y="82.403925"/>
     <use style="stroke:#000000;stroke-width:1.5;" x="237.15205" xlink:href="#mb9381e0b4d" y="77.918693"/>
     <use style="stroke:#000000;stroke-width:1.5;" x="231.268368" xlink:href="#mb9381e0b4d" y="79.942569"/>
     <use style="stroke:#000000;stroke-width:1.5;" x="282.900463" xlink:href="#mb9381e0b4d" y="65.260554"/>
     <use style="stroke:#000000;stroke-width:1.5;" x="218.968087" xlink:href="#mb9381e0b4d" y="84.372921"/>
     <use style="stroke:#000000;stroke-width:1.5;" x="253.513142" xlink:href="#mb9381e0b4d" y="72.782446"/>
     <use style="stroke:#000000;stroke-width:1.5;" x="275.374758" xlink:href="#mb9381e0b4d" y="65.328492"/>
     <use style="stroke:#000000;stroke-width:1.5;" x="242.422445" xlink:href="#mb9381e0b4d" y="74.315183"/>
     <use style="stroke:#000000;stroke-width:1.5;" x="273.461901" xlink:href="#mb9381e0b4d" y="65.06157"/>
     <use style="stroke:#000000;stroke-width:1.5;" x="272.186983" xlink:href="#mb9381e0b4d" y="69.584706"/>
     <use style="stroke:#000000;stroke-width:1.5;" x="216.694382" xlink:href="#mb9381e0b4d" y="87.475543"/>
     <use style="stroke:#000000;stroke-width:1.5;" x="232.491694" xlink:href="#mb9381e0b4d" y="76.247075"/>
     <use style="stroke:#000000;stroke-width:1.5;" x="210.401969" xlink:href="#mb9381e0b4d" y="88.979353"/>
     <use style="stroke:#000000;stroke-width:1.5;" x="234.716302" xlink:href="#mb9381e0b4d" y="78.324697"/>
     <use style="stroke:#000000;stroke-width:1.5;" x="234.651867" xlink:href="#mb9381e0b4d" y="78.606063"/>
     <use style="stroke:#000000;stroke-width:1.5;" x="242.721172" xlink:href="#mb9381e0b4d" y="74.200108"/>
     <use style="stroke:#000000;stroke-width:1.5;" x="213.917468" xlink:href="#mb9381e0b4d" y="85.20185"/>
     <use style="stroke:#000000;stroke-width:1.5;" x="269.07622" xlink:href="#mb9381e0b4d" y="70.148582"/>
     <use style="stroke:#000000;stroke-width:1.5;" x="273.247892" xlink:href="#mb9381e0b4d" y="68.707627"/>
     <use style="stroke:#000000;stroke-width:1.5;" x="242.121787" xlink:href="#mb9381e0b4d" y="74.246256"/>
     <use style="stroke:#000000;stroke-width:1.5;" x="212.439318" xlink:href="#mb9381e0b4d" y="90.875804"/>
     <use style="stroke:#000000;stroke-width:1.5;" x="285.864445" xlink:href="#mb9381e0b4d" y="67.065028"/>
     <use style="stroke:#000000;stroke-width:1.5;" x="288.008909" xlink:href="#mb9381e0b4d" y="61.09036"/>
     <use style="stroke:#000000;stroke-width:1.5;" x="242.987191" xlink:href="#mb9381e0b4d" y="74.66955"/>
     <use style="stroke:#000000;stroke-width:1.5;" x="261.147593" xlink:href="#mb9381e0b4d" y="67.354207"/>
     <use style="stroke:#000000;stroke-width:1.5;" x="254.407156" xlink:href="#mb9381e0b4d" y="70.098849"/>
     <use style="stroke:#000000;stroke-width:1.5;" x="229.38137" xlink:href="#mb9381e0b4d" y="78.314296"/>
     <use style="stroke:#000000;stroke-width:1.5;" x="238.756786" xlink:href="#mb9381e0b4d" y="74.286526"/>
     <use style="stroke:#000000;stroke-width:1.5;" x="242.674035" xlink:href="#mb9381e0b4d" y="71.931671"/>
     <use style="stroke:#000000;stroke-width:1.5;" x="242.052582" xlink:href="#mb9381e0b4d" y="71.745495"/>
     <use style="stroke:#000000;stroke-width:1.5;" x="287.431403" xlink:href="#mb9381e0b4d" y="64.651057"/>
     <use style="stroke:#000000;stroke-width:1.5;" x="280.972965" xlink:href="#mb9381e0b4d" y="66.501549"/>
     <use style="stroke:#000000;stroke-width:1.5;" x="257.663009" xlink:href="#mb9381e0b4d" y="68.288706"/>
     <use style="stroke:#000000;stroke-width:1.5;" x="223.575995" xlink:href="#mb9381e0b4d" y="79.267641"/>
     <use style="stroke:#000000;stroke-width:1.5;" x="265.513855" xlink:href="#mb9381e0b4d" y="68.060137"/>
     <use style="stroke:#000000;stroke-width:1.5;" x="212.134357" xlink:href="#mb9381e0b4d" y="85.060096"/>
     <use style="stroke:#000000;stroke-width:1.5;" x="258.427781" xlink:href="#mb9381e0b4d" y="72.360783"/>
     <use style="stroke:#000000;stroke-width:1.5;" x="269.694219" xlink:href="#mb9381e0b4d" y="68.05321"/>
     <use style="stroke:#000000;stroke-width:1.5;" x="257.235919" xlink:href="#mb9381e0b4d" y="68.996272"/>
     <use style="stroke:#000000;stroke-width:1.5;" x="457.662787" xlink:href="#mb9381e0b4d" y="56.500783"/>
     <use style="stroke:#000000;stroke-width:1.5;" x="465.347579" xlink:href="#mb9381e0b4d" y="52.989237"/>
     <use style="stroke:#000000;stroke-width:1.5;" x="463.617817" xlink:href="#mb9381e0b4d" y="54.430356"/>
     <use style="stroke:#000000;stroke-width:1.5;" x="526.189233" xlink:href="#mb9381e0b4d" y="33.283575"/>
     <use style="stroke:#000000;stroke-width:1.5;" x="475.897772" xlink:href="#mb9381e0b4d" y="49.870001"/>
     <use style="stroke:#000000;stroke-width:1.5;" x="461.065588" xlink:href="#mb9381e0b4d" y="55.565752"/>
     <use style="stroke:#000000;stroke-width:1.5;" x="459.230848" xlink:href="#mb9381e0b4d" y="56.105176"/>
     <use style="stroke:#000000;stroke-width:1.5;" x="485.84634" xlink:href="#mb9381e0b4d" y="50.061163"/>
     <use style="stroke:#000000;stroke-width:1.5;" x="525.505585" xlink:href="#mb9381e0b4d" y="35.413047"/>
     <use style="stroke:#000000;stroke-width:1.5;" x="503.182943" xlink:href="#mb9381e0b4d" y="44.938912"/>
     <use style="stroke:#000000;stroke-width:1.5;" x="453.506181" xlink:href="#mb9381e0b4d" y="54.394777"/>
     <use style="stroke:#000000;stroke-width:1.5;" x="478.694954" xlink:href="#mb9381e0b4d" y="53.133849"/>
     <use style="stroke:#000000;stroke-width:1.5;" x="518.226714" xlink:href="#mb9381e0b4d" y="39.860603"/>
     <use style="stroke:#000000;stroke-width:1.5;" x="504.811985" xlink:href="#mb9381e0b4d" y="43.724627"/>
     <use style="stroke:#000000;stroke-width:1.5;" x="496.050867" xlink:href="#mb9381e0b4d" y="49.351748"/>
     <use style="stroke:#000000;stroke-width:1.5;" x="457.026377" xlink:href="#mb9381e0b4d" y="56.837418"/>
     <use style="stroke:#000000;stroke-width:1.5;" x="471.2338" xlink:href="#mb9381e0b4d" y="55.134972"/>
     <use style="stroke:#000000;stroke-width:1.5;" x="483.811845" xlink:href="#mb9381e0b4d" y="46.746105"/>
     <use style="stroke:#000000;stroke-width:1.5;" x="494.179996" xlink:href="#mb9381e0b4d" y="49.083583"/>
     <use style="stroke:#000000;stroke-width:1.5;" x="469.277517" xlink:href="#mb9381e0b4d" y="53.325089"/>
     <use style="stroke:#000000;stroke-width:1.5;" x="473.909564" xlink:href="#mb9381e0b4d" y="53.272519"/>
     <use style="stroke:#000000;stroke-width:1.5;" x="516.847637" xlink:href="#mb9381e0b4d" y="38.922454"/>
     <use style="stroke:#000000;stroke-width:1.5;" x="506.609628" xlink:href="#mb9381e0b4d" y="41.274312"/>
     <use style="stroke:#000000;stroke-width:1.5;" x="517.651476" xlink:href="#mb9381e0b4d" y="37.543614"/>
     <use style="stroke:#000000;stroke-width:1.5;" x="502.455773" xlink:href="#mb9381e0b4d" y="45.374258"/>
     <use style="stroke:#000000;stroke-width:1.5;" x="496.648803" xlink:href="#mb9381e0b4d" y="45.996591"/>
     <use style="stroke:#000000;stroke-width:1.5;" x="510.837868" xlink:href="#mb9381e0b4d" y="42.631016"/>
     <use style="stroke:#000000;stroke-width:1.5;" x="485.995542" xlink:href="#mb9381e0b4d" y="50.137496"/>
     <use style="stroke:#000000;stroke-width:1.5;" x="483.168923" xlink:href="#mb9381e0b4d" y="52.050625"/>
     <use style="stroke:#000000;stroke-width:1.5;" x="471.633217" xlink:href="#mb9381e0b4d" y="54.174974"/>
     <use style="stroke:#000000;stroke-width:1.5;" x="459.0326" xlink:href="#mb9381e0b4d" y="57.027552"/>
     <use style="stroke:#000000;stroke-width:1.5;" x="476.629917" xlink:href="#mb9381e0b4d" y="52.155132"/>
     <use style="stroke:#000000;stroke-width:1.5;" x="463.915095" xlink:href="#mb9381e0b4d" y="56.41102"/>
     <use style="stroke:#000000;stroke-width:1.5;" x="532.770949" xlink:href="#mb9381e0b4d" y="31.550597"/>
     <use style="stroke:#000000;stroke-width:1.5;" x="455.648303" xlink:href="#mb9381e0b4d" y="55.556292"/>
     <use style="stroke:#000000;stroke-width:1.5;" x="496.493432" xlink:href="#mb9381e0b4d" y="46.980351"/>
     <use style="stroke:#000000;stroke-width:1.5;" x="466.511695" xlink:href="#mb9381e0b4d" y="57.231375"/>
     <use style="stroke:#000000;stroke-width:1.5;" x="467.199902" xlink:href="#mb9381e0b4d" y="53.482772"/>
     <use style="stroke:#000000;stroke-width:1.5;" x="474.199759" xlink:href="#mb9381e0b4d" y="52.376161"/>
     <use style="stroke:#000000;stroke-width:1.5;" x="467.184134" xlink:href="#mb9381e0b4d" y="54.408314"/>
     <use style="stroke:#000000;stroke-width:1.5;" x="525.510414" xlink:href="#mb9381e0b4d" y="35.36869"/>
     <use style="stroke:#000000;stroke-width:1.5;" x="531.357702" xlink:href="#mb9381e0b4d" y="31.280196"/>
     <use style="stroke:#000000;stroke-width:1.5;" x="458.815963" xlink:href="#mb9381e0b4d" y="55.526721"/>
     <use style="stroke:#000000;stroke-width:1.5;" x="459.840462" xlink:href="#mb9381e0b4d" y="57.123479"/>
     <use style="stroke:#000000;stroke-width:1.5;" x="524.567991" xlink:href="#mb9381e0b4d" y="34.969824"/>
     <use style="stroke:#000000;stroke-width:1.5;" x="531.556945" xlink:href="#mb9381e0b4d" y="29.870347"/>
     <use style="stroke:#000000;stroke-width:1.5;" x="501.240613" xlink:href="#mb9381e0b4d" y="45.078822"/>
     <use style="stroke:#000000;stroke-width:1.5;" x="459.761819" xlink:href="#mb9381e0b4d" y="54.270653"/>
     <use style="stroke:#000000;stroke-width:1.5;" x="495.931482" xlink:href="#mb9381e0b4d" y="47.227829"/>
     <use style="stroke:#000000;stroke-width:1.5;" x="490.065331" xlink:href="#mb9381e0b4d" y="50.369487"/>
    </g>
   </g>
   <g id="matplotlib.axis_1">
    <g id="xtick_1">
     <g id="line2d_1">
      <defs>
       <path d="M 0 0 
L 0 3.5 
" id="m3048f00f5f" style="stroke:#000000;stroke-width:0.8;"/>
      </defs>
      <g>
       <use style="stroke:#000000;stroke-width:0.8;" x="121.28" xlink:href="#m3048f00f5f" y="115.92"/>
      </g>
     </g>
     <g id="text_1">
      <!-- −2 -->
      <defs>
       <path d="M 62.09375 22 
L 6.40625 22 
L 6.40625 28.59375 
L 62.09375 28.59375 
z
" id="STIXGeneral-Regular-8722"/>
       <path d="M 47.40625 13.703125 
L 42 0 
L 2.90625 0 
L 2.90625 1.203125 
L 20.703125 20.09375 
Q 27.703125 27.40625 30.703125 33.5 
Q 33.703125 39.59375 33.703125 46.09375 
Q 33.703125 52.796875 30 56.5 
Q 26.296875 60.203125 19.796875 60.203125 
Q 14.40625 60.203125 11.25 57.390625 
Q 8.09375 54.59375 5.09375 47.203125 
L 3 47.703125 
Q 4.703125 57 9.84375 62.296875 
Q 15 67.59375 23.796875 67.59375 
Q 32.09375 67.59375 37.1875 62.59375 
Q 42.296875 57.59375 42.296875 50 
Q 42.296875 38.703125 29.5 25.203125 
L 13 7.59375 
L 36.40625 7.59375 
Q 39.703125 7.59375 41.640625 8.890625 
Q 43.59375 10.203125 46 14.296875 
z
" id="STIXGeneral-Regular-50"/>
      </defs>
      <g transform="translate(109.43 136.579375)scale(0.2 -0.2)">
       <use xlink:href="#STIXGeneral-Regular-8722"/>
       <use x="68.499985" xlink:href="#STIXGeneral-Regular-50"/>
      </g>
     </g>
    </g>
    <g id="xtick_2">
     <g id="line2d_2">
      <g>
       <use style="stroke:#000000;stroke-width:0.8;" x="366.8" xlink:href="#m3048f00f5f" y="115.92"/>
      </g>
     </g>
     <g id="text_2">
      <!-- 0 -->
      <defs>
       <path d="M 47.59375 33 
Q 47.59375 26.296875 46.296875 20.34375 
Q 45 14.40625 42.453125 9.40625 
Q 39.90625 4.40625 35.40625 1.5 
Q 30.90625 -1.40625 25 -1.40625 
Q 18.90625 -1.40625 14.296875 1.6875 
Q 9.703125 4.796875 7.203125 10 
Q 4.703125 15.203125 3.546875 21.09375 
Q 2.40625 27 2.40625 33.59375 
Q 2.40625 42.90625 4.703125 50.34375 
Q 7 57.796875 12.34375 62.6875 
Q 17.703125 67.59375 25.40625 67.59375 
Q 35.203125 67.59375 41.390625 58 
Q 47.59375 48.40625 47.59375 33 
z
M 38 32.5 
Q 38 48.296875 34.640625 56.640625 
Q 31.296875 65 24.796875 65 
Q 18.59375 65 15.296875 56.59375 
Q 12 48.203125 12 32.90625 
Q 12 17.5 15.296875 9.34375 
Q 18.59375 1.203125 25 1.203125 
Q 31.296875 1.203125 34.640625 9.34375 
Q 38 17.5 38 32.5 
z
" id="STIXGeneral-Regular-48"/>
      </defs>
      <g transform="translate(361.8 136.579375)scale(0.2 -0.2)">
       <use xlink:href="#STIXGeneral-Regular-48"/>
      </g>
     </g>
    </g>
    <g id="xtick_3">
     <g id="line2d_3">
      <g>
       <use style="stroke:#000000;stroke-width:0.8;" x="612.32" xlink:href="#m3048f00f5f" y="115.92"/>
      </g>
     </g>
     <g id="text_3">
      <!-- 2 -->
      <g transform="translate(607.32 136.579375)scale(0.2 -0.2)">
       <use xlink:href="#STIXGeneral-Regular-50"/>
      </g>
     </g>
    </g>
    <g id="text_4">
     <!-- $x$ -->
     <defs>
      <path d="M 24.296875 35.5 
L 25.5 29.796875 
Q 30.796875 37.90625 34.046875 41 
Q 37.296875 44.09375 40.59375 44.09375 
Q 42.40625 44.09375 43.546875 43.046875 
Q 44.703125 42 44.703125 40.390625 
Q 44.703125 38.796875 43.75 37.796875 
Q 42.796875 36.796875 41.296875 36.796875 
Q 40.40625 36.796875 38.90625 37.640625 
Q 37.40625 38.5 36.09375 38.5 
Q 33.203125 38.5 26.296875 26.40625 
Q 26.296875 25.09375 27.09375 21.90625 
L 30.296875 8.5 
Q 31.296875 4.40625 33.296875 4.40625 
Q 34.90625 4.40625 38 8.40625 
Q 38.296875 8.796875 38.6875 9.34375 
Q 39.09375 9.90625 39.390625 10.34375 
Q 39.703125 10.796875 40.09375 11.203125 
L 41.59375 10.296875 
Q 37.296875 3.59375 34.796875 1.25 
Q 32.296875 -1.09375 29.40625 -1.09375 
Q 27 -1.09375 25.703125 0.40625 
Q 24.40625 1.90625 23.5 5.703125 
L 20.59375 17.59375 
L 11.796875 5.703125 
Q 8.703125 1.5 6.75 0.203125 
Q 4.796875 -1.09375 2.296875 -1.09375 
Q 0 -1.09375 -1.34375 0 
Q -2.703125 1.09375 -2.703125 3.09375 
Q -2.703125 4.59375 -1.75 5.640625 
Q -0.796875 6.703125 0.703125 6.703125 
Q 1.90625 6.703125 3.90625 5.59375 
Q 5.40625 4.703125 6.5 4.703125 
Q 8.203125 4.703125 11.59375 9.59375 
L 19.796875 21.203125 
L 17 33.59375 
Q 16 38 15.140625 39.203125 
Q 14.296875 40.40625 12.40625 40.40625 
Q 11.203125 40.40625 8.5 39.703125 
L 6.703125 39.203125 
L 6.40625 40.796875 
L 7.5 41.203125 
Q 15.5 44.09375 19.203125 44.09375 
Q 21.09375 44.09375 22.1875 42.296875 
Q 23.296875 40.5 24.296875 35.5 
z
" id="STIXGeneral-Italic-120"/>
     </defs>
     <g transform="translate(362.3 158.579375)scale(0.2 -0.2)">
      <use transform="translate(0 0.90625)" xlink:href="#STIXGeneral-Italic-120"/>
     </g>
    </g>
   </g>
   <g id="matplotlib.axis_2">
    <g id="ytick_1">
     <g id="line2d_4">
      <defs>
       <path d="M 0 0 
L -3.5 0 
" id="mfbe8dcf9a4" style="stroke:#000000;stroke-width:0.8;"/>
      </defs>
      <g>
       <use style="stroke:#000000;stroke-width:0.8;" x="59.9" xlink:href="#mfbe8dcf9a4" y="108.154286"/>
      </g>
     </g>
     <g id="text_5">
      <!-- −3 -->
      <defs>
       <path d="M 6.09375 51 
L 4.5 51.40625 
Q 6.796875 58.90625 11.6875 63.25 
Q 16.59375 67.59375 24.09375 67.59375 
Q 31.09375 67.59375 35.390625 63.796875 
Q 39.703125 60 39.703125 53.90625 
Q 39.703125 45.703125 30.40625 40.09375 
Q 35.90625 37.703125 38.703125 34.796875 
Q 43.09375 29.90625 43.09375 21.90625 
Q 43.09375 13.90625 38.5 7.90625 
Q 35.09375 3.296875 28.75 0.9375 
Q 22.40625 -1.40625 15.296875 -1.40625 
Q 4.09375 -1.40625 4.09375 4.296875 
Q 4.09375 5.90625 5.296875 6.90625 
Q 6.5 7.90625 8.203125 7.90625 
Q 10.703125 7.90625 14.296875 5.296875 
Q 18.703125 2.203125 22.90625 2.203125 
Q 28.40625 2.203125 32.15625 6.640625 
Q 35.90625 11.09375 35.90625 17.5 
Q 35.90625 29 25.5 32 
Q 22.40625 33 15.296875 33 
L 15.296875 34.40625 
Q 20.90625 36.296875 23.703125 38 
Q 31.796875 42.59375 31.796875 51.40625 
Q 31.796875 56.40625 28.9375 59 
Q 26.09375 61.59375 21 61.59375 
Q 12 61.59375 6.09375 51 
z
" id="STIXGeneral-Regular-51"/>
      </defs>
      <g transform="translate(29.2 114.983973)scale(0.2 -0.2)">
       <use xlink:href="#STIXGeneral-Regular-8722"/>
       <use x="68.499985" xlink:href="#STIXGeneral-Regular-51"/>
      </g>
     </g>
    </g>
    <g id="ytick_2">
     <g id="line2d_5">
      <g>
       <use style="stroke:#000000;stroke-width:0.8;" x="59.9" xlink:href="#mfbe8dcf9a4" y="61.56"/>
      </g>
     </g>
     <g id="text_6">
      <!-- 0 -->
      <g transform="translate(42.9 68.389688)scale(0.2 -0.2)">
       <use xlink:href="#STIXGeneral-Regular-48"/>
      </g>
     </g>
    </g>
    <g id="ytick_3">
     <g id="line2d_6">
      <g>
       <use style="stroke:#000000;stroke-width:0.8;" x="59.9" xlink:href="#mfbe8dcf9a4" y="14.965714"/>
      </g>
     </g>
     <g id="text_7">
      <!-- 3 -->
      <g transform="translate(42.9 21.795402)scale(0.2 -0.2)">
       <use xlink:href="#STIXGeneral-Regular-51"/>
      </g>
     </g>
    </g>
    <g id="text_8">
     <!-- $y$ -->
     <defs>
      <path d="M 24.296875 18.59375 
L 26.40625 7.59375 
Q 33.09375 18.59375 35.84375 24.34375 
Q 38.59375 30.09375 38.59375 33.296875 
Q 38.59375 34.90625 36 36.5 
Q 33.40625 38.203125 33.40625 40.40625 
Q 33.40625 42 34.546875 43.046875 
Q 35.703125 44.09375 37.40625 44.09375 
Q 39.59375 44.09375 41.09375 42.5 
Q 42.59375 40.90625 42.59375 38.59375 
Q 42.59375 29.90625 29.5 8.09375 
Q 21.703125 -4.796875 14.34375 -12.6875 
Q 7 -20.59375 2.703125 -20.59375 
Q 0.40625 -20.59375 -1 -19.390625 
Q -2.40625 -18.203125 -2.40625 -16.296875 
Q -2.40625 -14.59375 -1.25 -13.4375 
Q -0.09375 -12.296875 1.5 -12.296875 
Q 3.40625 -12.296875 4.90625 -13.6875 
Q 6.40625 -15.09375 7.59375 -15.09375 
Q 9.40625 -15.09375 12.40625 -11.796875 
Q 13.703125 -10.5 16.25 -7.140625 
Q 18.796875 -3.796875 19.5 -2.703125 
Q 20.5 -0.703125 20.5 0.796875 
Q 20.5 3.796875 17.390625 16.34375 
Q 14.296875 28.90625 12.296875 34 
Q 10.90625 37.703125 9.25 39.046875 
Q 7.59375 40.40625 4.59375 40.40625 
Q 3 40.40625 1.5 40 
L 1.5 41.703125 
Q 3.703125 42.09375 4.703125 42.296875 
Q 8.796875 43.09375 15.40625 44.09375 
L 15.796875 44.09375 
Q 16.90625 44.09375 19.953125 34.796875 
Q 23 25.5 24.296875 18.59375 
z
" id="STIXGeneral-Italic-121"/>
     </defs>
     <g transform="translate(20.859375 66.06)rotate(-90)scale(0.2 -0.2)">
      <use transform="translate(0 0.90625)" xlink:href="#STIXGeneral-Italic-121"/>
     </g>
    </g>
   </g>
   <g id="patch_3">
    <path d="M 59.9 115.92 
L 59.9 7.2 
" style="fill:none;stroke:#000000;stroke-linecap:square;stroke-linejoin:miter;stroke-width:0.8;"/>
   </g>
   <g id="patch_4">
    <path d="M 673.7 115.92 
L 673.7 7.2 
" style="fill:none;stroke:#000000;stroke-linecap:square;stroke-linejoin:miter;stroke-width:0.8;"/>
   </g>
   <g id="patch_5">
    <path d="M 59.9 115.92 
L 673.7 115.92 
" style="fill:none;stroke:#000000;stroke-linecap:square;stroke-linejoin:miter;stroke-width:0.8;"/>
   </g>
   <g id="patch_6">
    <path d="M 59.9 7.2 
L 673.7 7.2 
" style="fill:none;stroke:#000000;stroke-linecap:square;stroke-linejoin:miter;stroke-width:0.8;"/>
   </g>
  </g>
 </g>
 <defs>
  <clipPath id="p45795ec31b">
   <rect height="108.72" width="613.8" x="59.9" y="7.2"/>
  </clipPath>
 </defs>
</svg>
