<?xml version="1.0" encoding="utf-8" standalone="no"?>
<!DOCTYPE svg PUBLIC "-//W3C//DTD SVG 1.1//EN"
  "http://www.w3.org/Graphics/SVG/1.1/DTD/svg11.dtd">
<!-- Created with matplotlib (https://matplotlib.org/) -->
<svg height="166.52pt" version="1.1" viewBox="0 0 676.16 166.52" width="676.16pt" xmlns="http://www.w3.org/2000/svg" xmlns:xlink="http://www.w3.org/1999/xlink">
 <defs>
  <style type="text/css">
*{stroke-linecap:butt;stroke-linejoin:round;}
  </style>
 </defs>
 <g id="figure_1">
  <g id="patch_1">
   <path d="M 0 166.52 
L 676.16 166.52 
L 676.16 0 
L 0 0 
z
" style="fill:none;"/>
  </g>
  <g id="axes_1">
   <g id="patch_2">
    <path d="M 55.16 115.92 
L 668.96 115.92 
L 668.96 7.2 
L 55.16 7.2 
z
" style="fill:#ffffff;"/>
   </g>
   <g id="PolyCollection_1">
    <path clip-path="url(#p1714bdb29a)" d="M 11.317143 136.106037 
L 11.317143 203.604651 
L 14.842192 201.858011 
L 18.367241 200.114712 
L 21.89231 198.373186 
L 25.417359 196.626016 
L 28.942408 194.87865 
L 32.467457 193.129464 
L 35.992527 191.381752 
L 39.517576 189.634237 
L 43.042625 187.886513 
L 46.567674 186.137949 
L 50.092744 184.389178 
L 53.617792 182.640464 
L 57.142841 180.891784 
L 60.66789 179.144326 
L 64.192939 177.396833 
L 67.718009 175.660308 
L 71.243058 173.924566 
L 74.768107 172.187499 
L 78.293177 170.44382 
L 81.818225 168.693171 
L 85.343274 166.937429 
L 88.868323 165.183554 
L 92.393372 163.421419 
L 95.918442 161.651542 
L 99.443491 159.881101 
L 102.96854 158.10271 
L 106.49361 156.321901 
L 110.018638 154.542318 
L 113.543707 152.757401 
L 117.068756 150.974403 
L 120.593805 149.193011 
L 124.118875 147.413388 
L 127.643903 145.632071 
L 131.168973 143.855997 
L 134.694022 142.080884 
L 138.219071 140.301376 
L 141.74414 138.520497 
L 145.269189 136.735298 
L 148.794238 134.957708 
L 152.319308 133.183989 
L 155.844336 131.411843 
L 159.369406 129.635532 
L 162.894455 127.868109 
L 166.419504 126.096106 
L 169.944573 124.346177 
L 173.469622 122.607918 
L 176.994671 120.871433 
L 180.51972 119.124948 
L 184.044769 117.369028 
L 187.569839 115.609456 
L 191.094888 113.847241 
L 194.619937 112.06574 
L 198.144986 110.273104 
L 201.670055 108.481489 
L 205.195104 106.660061 
L 208.720153 104.809507 
L 212.245202 102.952999 
L 215.770272 101.091875 
L 219.295321 99.21612 
L 222.82037 97.33699 
L 226.345419 95.412515 
L 229.870488 93.472396 
L 233.395537 91.523962 
L 236.920586 89.583989 
L 240.445635 87.64762 
L 243.970684 85.717946 
L 247.495754 83.830448 
L 251.020803 82.031142 
L 254.545852 80.337248 
L 258.070901 78.709861 
L 261.59597 77.068185 
L 265.121019 75.426479 
L 268.646068 73.862483 
L 272.171117 72.471848 
L 275.696187 71.269614 
L 279.221236 70.188384 
L 282.746285 69.174265 
L 286.271334 68.260507 
L 289.796403 67.426938 
L 293.321452 66.707829 
L 296.846501 66.057395 
L 300.37155 65.448341 
L 303.896599 64.931352 
L 307.421669 64.569745 
L 310.946718 64.43427 
L 314.471767 64.419206 
L 317.996816 64.504632 
L 321.521885 64.624487 
L 325.046934 64.761989 
L 328.571983 64.934606 
L 332.097032 65.130201 
L 335.622102 65.366975 
L 339.147151 65.649791 
L 342.6722 65.924414 
L 346.197249 66.166526 
L 349.722297 66.367429 
L 353.247367 66.593593 
L 356.772416 66.848593 
L 360.297465 67.095364 
L 363.822535 67.373327 
L 367.347563 67.485868 
L 370.872633 67.524362 
L 374.397703 67.537682 
L 377.922731 67.465002 
L 381.4478 67.307346 
L 384.972828 67.031194 
L 388.497898 66.620347 
L 392.022968 66.079268 
L 395.547996 65.448781 
L 399.073066 64.720338 
L 402.598136 63.963547 
L 406.123164 63.13201 
L 409.648233 62.229966 
L 413.173261 61.305679 
L 416.698331 60.364589 
L 420.223401 59.43752 
L 423.748429 58.573036 
L 427.273499 57.78452 
L 430.798527 57.03323 
L 434.323597 56.256077 
L 437.848666 55.467654 
L 441.373694 54.637392 
L 444.898764 53.775678 
L 448.423834 52.796278 
L 451.948862 51.640699 
L 455.473932 50.418855 
L 458.99896 49.10234 
L 462.52403 47.640585 
L 466.049099 46.070892 
L 469.574127 44.451873 
L 473.099197 42.834959 
L 476.624225 41.215425 
L 480.149295 39.658592 
L 483.674365 38.198576 
L 487.199393 36.847266 
L 490.724463 35.582651 
L 494.249532 34.387638 
L 497.77456 33.241602 
L 501.29963 32.132396 
L 504.824658 31.095907 
L 508.349728 30.10668 
L 511.874798 29.126243 
L 515.399826 28.155852 
L 518.924896 27.190882 
L 522.449924 26.235905 
L 525.974994 25.29155 
L 529.500063 24.37714 
L 533.025091 23.488728 
L 536.550161 22.610267 
L 540.075231 21.750645 
L 543.600259 20.919938 
L 547.125329 20.090272 
L 550.650357 19.268635 
L 554.175427 18.455898 
L 557.700496 17.644042 
L 561.225524 16.831765 
L 564.750594 16.015252 
L 568.275664 15.201153 
L 571.800692 14.391005 
L 575.325762 13.588181 
L 578.85079 12.8015 
L 582.37586 12.016115 
L 585.900929 11.238892 
L 589.425957 10.464635 
L 592.951027 9.690022 
L 596.476055 8.920829 
L 600.001125 8.163882 
L 603.526195 7.423864 
L 607.051223 6.688933 
L 610.576293 5.952342 
L 614.101362 5.223902 
L 617.62639 4.504881 
L 621.15146 3.793295 
L 624.676488 3.078668 
L 628.201558 2.364514 
L 631.726628 1.655567 
L 635.251656 0.948301 
L 638.776726 0.24595 
L 642.301754 -0.44979 
L 645.826823 -1.142038 
L 649.351893 -1.833302 
L 652.876921 -2.527065 
L 656.401991 -3.217389 
L 659.927061 -3.897553 
L 663.452089 -4.574894 
L 666.977159 -5.249401 
L 670.502187 -5.925671 
L 674.027256 -6.604003 
L 677.552326 -7.282375 
L 681.077354 -7.958627 
L 684.602424 -8.634528 
L 688.127452 -9.307803 
L 691.652522 -9.979925 
L 695.177592 -10.647612 
L 698.70262 -11.314677 
L 702.22769 -11.982686 
L 705.752759 -12.647056 
L 709.277787 -13.304443 
L 712.802857 -13.969751 
L 712.802857 -79.148056 
L 712.802857 -79.148056 
L 709.277787 -77.456264 
L 705.752759 -75.753517 
L 702.22769 -74.044295 
L 698.70262 -72.328621 
L 695.177592 -70.606796 
L 691.652522 -68.886745 
L 688.127452 -67.163502 
L 684.602424 -65.441389 
L 681.077354 -63.722248 
L 677.552326 -62.003764 
L 674.027256 -60.282411 
L 670.502187 -58.558247 
L 666.977159 -56.835684 
L 663.452089 -55.105287 
L 659.927061 -53.373843 
L 656.401991 -51.637536 
L 652.876921 -49.896218 
L 649.351893 -48.152873 
L 645.826823 -46.407776 
L 642.301754 -44.665168 
L 638.776726 -42.928378 
L 635.251656 -41.197094 
L 631.726628 -39.462781 
L 628.201558 -37.728157 
L 624.676488 -35.987668 
L 621.15146 -34.240175 
L 617.62639 -32.482723 
L 614.101362 -30.726475 
L 610.576293 -28.96612 
L 607.051223 -27.19493 
L 603.526195 -25.418647 
L 600.001125 -23.643823 
L 596.476055 -21.871711 
L 592.951027 -20.09468 
L 589.425957 -18.306099 
L 585.900929 -16.530042 
L 582.37586 -14.756283 
L 578.85079 -12.980202 
L 575.325762 -11.196846 
L 571.800692 -9.406025 
L 568.275664 -7.616581 
L 564.750594 -5.828733 
L 561.225524 -4.047583 
L 557.700496 -2.243324 
L 554.175427 -0.44714 
L 550.650357 1.363202 
L 547.125329 3.169535 
L 543.600259 4.968743 
L 540.075231 6.778711 
L 536.550161 8.607215 
L 533.025091 10.450759 
L 529.500063 12.314297 
L 525.974994 14.165542 
L 522.449924 16.021758 
L 518.924896 17.867267 
L 515.399826 19.7213 
L 511.874798 21.572476 
L 508.349728 23.426619 
L 504.824658 25.305323 
L 501.29963 27.172225 
L 497.77456 29.056781 
L 494.249532 30.95333 
L 490.724463 32.845332 
L 487.199393 34.692407 
L 483.674365 36.509647 
L 480.149295 38.307331 
L 476.624225 40.05398 
L 473.099197 41.745612 
L 469.574127 43.392202 
L 466.049099 44.958541 
L 462.52403 46.440483 
L 458.99896 47.873193 
L 455.473932 49.226788 
L 451.948862 50.478953 
L 448.423834 51.62389 
L 444.898764 52.703421 
L 441.373694 53.679045 
L 437.848666 54.584051 
L 434.323597 55.371558 
L 430.798527 56.043037 
L 427.273499 56.560893 
L 423.748429 56.888525 
L 420.223401 57.098225 
L 416.698331 57.206561 
L 413.173261 57.240751 
L 409.648233 57.191878 
L 406.123164 57.135162 
L 402.598136 57.03988 
L 399.073066 56.942177 
L 395.547996 56.840674 
L 392.022968 56.679696 
L 388.497898 56.515434 
L 384.972828 56.433101 
L 381.4478 56.391864 
L 377.922731 56.340224 
L 374.397703 56.310363 
L 370.872633 56.265261 
L 367.347563 56.177957 
L 363.822535 56.100558 
L 360.297465 55.968823 
L 356.772416 55.955464 
L 353.247367 56.016232 
L 349.722297 56.10631 
L 346.197249 56.256264 
L 342.6722 56.552829 
L 339.147151 56.936829 
L 335.622102 57.366112 
L 332.097032 57.782249 
L 328.571983 58.304125 
L 325.046934 58.91481 
L 321.521885 59.6669 
L 317.996816 60.450687 
L 314.471767 61.288433 
L 310.946718 62.112765 
L 307.421669 62.912336 
L 303.896599 63.590796 
L 300.37155 64.198742 
L 296.846501 64.857327 
L 293.321452 65.551417 
L 289.796403 66.238648 
L 286.271334 66.966884 
L 282.746285 67.818645 
L 279.221236 68.811986 
L 275.696187 69.970154 
L 272.171117 71.244658 
L 268.646068 72.62952 
L 265.121019 74.120459 
L 261.59597 75.704312 
L 258.070901 77.374545 
L 254.545852 79.106347 
L 251.020803 80.777013 
L 247.495754 82.350369 
L 243.970684 83.823788 
L 240.445635 85.19449 
L 236.920586 86.487108 
L 233.395537 87.732067 
L 229.870488 88.915346 
L 226.345419 90.04462 
L 222.82037 91.119916 
L 219.295321 92.146238 
L 215.770272 93.168183 
L 212.245202 94.169713 
L 208.720153 95.139635 
L 205.195104 96.091461 
L 201.670055 97.020058 
L 198.144986 97.924702 
L 194.619937 98.819787 
L 191.094888 99.707692 
L 187.569839 100.588345 
L 184.044769 101.44338 
L 180.51972 102.289307 
L 176.994671 103.123798 
L 173.469622 103.946301 
L 169.944573 104.758434 
L 166.419504 105.565132 
L 162.894455 106.359111 
L 159.369406 107.144421 
L 155.844336 107.921995 
L 152.319308 108.688812 
L 148.794238 109.452657 
L 145.269189 110.206407 
L 141.74414 110.956292 
L 138.219071 111.697813 
L 134.694022 112.434254 
L 131.168973 113.170481 
L 127.643903 113.902613 
L 124.118875 114.620552 
L 120.593805 115.330093 
L 117.068756 116.028487 
L 113.543707 116.716831 
L 110.018638 117.398624 
L 106.49361 118.069289 
L 102.96854 118.736988 
L 99.443491 119.412307 
L 95.918442 120.086278 
L 92.393372 120.754772 
L 88.868323 121.425143 
L 85.343274 122.096874 
L 81.818225 122.765096 
L 78.293177 123.436263 
L 74.768107 124.11047 
L 71.243058 124.781198 
L 67.718009 125.451138 
L 64.192939 126.119366 
L 60.66789 126.776397 
L 57.142841 127.432264 
L 53.617792 128.091645 
L 50.092744 128.753214 
L 46.567674 129.415285 
L 43.042625 130.077794 
L 39.517576 130.740642 
L 35.992527 131.411676 
L 32.467457 132.083815 
L 28.942408 132.755362 
L 25.417359 133.428734 
L 21.89231 134.100424 
L 18.367241 134.768273 
L 14.842192 135.437043 
L 11.317143 136.106037 
z
" style="fill:#1f77b4;fill-opacity:0.2;stroke:#1f77b4;stroke-opacity:0.2;"/>
   </g>
   <g id="PolyCollection_2">
    <path clip-path="url(#p1714bdb29a)" d="M 11.317143 102.356727 
L 11.317143 237.353967 
L 14.842192 235.068495 
L 18.367241 232.787931 
L 21.89231 230.509567 
L 25.417359 228.224649 
L 28.942408 225.940306 
L 32.467457 223.652288 
L 35.992527 221.366782 
L 39.517576 219.081045 
L 43.042625 216.790885 
L 46.567674 214.499296 
L 50.092744 212.207154 
L 53.617792 209.914873 
L 57.142841 207.621545 
L 60.66789 205.328285 
L 64.192939 203.035567 
L 67.718009 200.764899 
L 71.243058 198.496236 
L 74.768107 196.226005 
L 78.293177 193.947607 
L 81.818225 191.657205 
L 85.343274 189.357713 
L 88.868323 187.06276 
L 92.393372 184.754743 
L 95.918442 182.434168 
L 99.443491 180.115495 
L 102.96854 177.785566 
L 106.49361 175.448206 
L 110.018638 173.114165 
L 113.543707 170.777681 
L 117.068756 168.44736 
L 120.593805 166.12447 
L 124.118875 163.809806 
L 127.643903 161.4968 
L 131.168973 159.198748 
L 134.694022 156.904199 
L 138.219071 154.603151 
L 141.74414 152.302605 
L 145.269189 149.999738 
L 148.794238 147.710234 
L 152.319308 145.431582 
L 155.844336 143.156767 
L 159.369406 140.881087 
L 162.894455 138.622614 
L 166.419504 136.3616 
L 169.944573 134.140049 
L 173.469622 131.938722 
L 176.994671 129.745246 
L 180.51972 127.542773 
L 184.044769 125.331856 
L 187.569839 123.120011 
L 191.094888 120.917013 
L 194.619937 118.688717 
L 198.144986 116.447311 
L 201.670055 114.212201 
L 205.195104 111.944361 
L 208.720153 109.644446 
L 212.245202 107.344642 
L 215.770272 105.053722 
L 219.295321 102.751064 
L 222.82037 100.44553 
L 226.345419 98.09646 
L 229.870488 95.750921 
L 233.395537 93.419906 
L 236.920586 91.132433 
L 240.445635 88.874187 
L 243.970684 86.665026 
L 247.495754 84.570486 
L 251.020803 82.658207 
L 254.545852 80.9527 
L 258.070901 79.377521 
L 261.59597 77.750121 
L 265.121019 76.079489 
L 268.646068 74.478965 
L 272.171117 73.085442 
L 275.696187 71.919344 
L 279.221236 70.876583 
L 282.746285 69.852076 
L 286.271334 68.907319 
L 289.796403 68.021083 
L 293.321452 67.286034 
L 296.846501 66.657429 
L 300.37155 66.07314 
L 303.896599 65.60163 
L 307.421669 65.398449 
L 310.946718 65.595022 
L 314.471767 65.984593 
L 317.996816 66.531604 
L 321.521885 67.10328 
L 325.046934 67.685578 
L 328.571983 68.249848 
L 332.097032 68.804176 
L 335.622102 69.367406 
L 339.147151 70.006271 
L 342.6722 70.610206 
L 346.197249 71.121657 
L 349.722297 71.497989 
L 353.247367 71.882273 
L 356.772416 72.295158 
L 360.297465 72.658635 
L 363.822535 73.009711 
L 367.347563 73.139823 
L 370.872633 73.153913 
L 374.397703 73.151341 
L 377.922731 73.027391 
L 381.4478 72.765087 
L 384.972828 72.33024 
L 388.497898 71.672803 
L 392.022968 70.779054 
L 395.547996 69.752835 
L 399.073066 68.609419 
L 402.598136 67.42538 
L 406.123164 66.130434 
L 409.648233 64.749009 
L 413.173261 63.338143 
L 416.698331 61.943603 
L 420.223401 60.607167 
L 423.748429 59.415291 
L 427.273499 58.396333 
L 430.798527 57.528327 
L 434.323597 56.698337 
L 437.848666 55.909456 
L 441.373694 55.116565 
L 444.898764 54.311807 
L 448.423834 53.382472 
L 451.948862 52.221572 
L 455.473932 51.014889 
L 458.99896 49.716914 
L 462.52403 48.240637 
L 466.049099 46.627067 
L 469.574127 44.981708 
L 473.099197 43.379633 
L 476.624225 41.796146 
L 480.149295 40.334222 
L 483.674365 39.04304 
L 487.199393 37.924699 
L 490.724463 36.95131 
L 494.249532 36.104795 
L 497.77456 35.334009 
L 501.29963 34.612481 
L 504.824658 33.991196 
L 508.349728 33.446711 
L 511.874798 32.903124 
L 515.399826 32.373129 
L 518.924896 31.852692 
L 522.449924 31.342976 
L 525.974994 30.854552 
L 529.500063 30.40856 
L 533.025091 30.007714 
L 536.550161 29.61179 
L 540.075231 29.236614 
L 543.600259 28.895536 
L 547.125329 28.550639 
L 550.650357 28.221354 
L 554.175427 27.907415 
L 557.700496 27.587725 
L 561.225524 27.271438 
L 564.750594 26.937243 
L 568.275664 26.610018 
L 571.800692 26.289521 
L 575.325762 25.980694 
L 578.85079 25.69235 
L 582.37586 25.40231 
L 585.900929 25.123359 
L 589.425957 24.849997 
L 592.951027 24.582373 
L 596.476055 24.317096 
L 600.001125 24.067737 
L 603.526195 23.845126 
L 607.051223 23.630867 
L 610.576293 23.411576 
L 614.101362 23.199091 
L 617.62639 22.998683 
L 621.15146 22.810033 
L 624.676488 22.611837 
L 628.201558 22.410843 
L 631.726628 22.214741 
L 635.251656 22.020996 
L 638.776726 21.833119 
L 642.301754 21.657894 
L 645.826823 21.490831 
L 649.351893 21.326481 
L 652.876921 21.157512 
L 656.401991 20.992684 
L 659.927061 20.840598 
L 663.452089 20.690308 
L 666.977159 20.543746 
L 670.502187 20.390617 
L 674.027256 20.235207 
L 677.552326 20.078317 
L 681.077354 19.923177 
L 684.602424 19.768908 
L 688.127452 19.620053 
L 691.652522 19.473485 
L 695.177592 19.331986 
L 698.70262 19.19229 
L 702.22769 19.048118 
L 705.752759 18.906175 
L 709.277787 18.771461 
L 712.802857 18.619398 
L 712.802857 -111.7372 
L 712.802857 -111.7372 
L 709.277787 -109.532175 
L 705.752759 -107.306747 
L 702.22769 -105.075099 
L 698.70262 -102.835582 
L 695.177592 -100.586388 
L 691.652522 -98.340155 
L 688.127452 -96.091364 
L 684.602424 -93.844819 
L 681.077354 -91.604058 
L 677.552326 -89.364449 
L 674.027256 -87.121615 
L 670.502187 -84.87454 
L 666.977159 -82.628825 
L 663.452089 -80.370484 
L 659.927061 -78.111993 
L 656.401991 -75.847604 
L 652.876921 -73.580795 
L 649.351893 -71.31265 
L 645.826823 -69.040646 
L 642.301754 -66.772858 
L 638.776726 -64.515553 
L 635.251656 -62.269792 
L 631.726628 -60.021958 
L 628.201558 -57.774492 
L 624.676488 -55.520839 
L 621.15146 -53.256911 
L 617.62639 -50.976519 
L 614.101362 -48.701658 
L 610.576293 -46.425357 
L 607.051223 -44.136866 
L 603.526195 -41.839909 
L 600.001125 -39.547675 
L 596.476055 -37.267975 
L 592.951027 -34.98703 
L 589.425957 -32.691461 
L 585.900929 -30.414509 
L 582.37586 -28.142481 
L 578.85079 -25.871053 
L 575.325762 -23.58936 
L 571.800692 -21.304545 
L 568.275664 -19.025444 
L 564.750594 -16.750721 
L 561.225524 -14.487253 
L 557.700496 -12.187006 
L 554.175427 -9.898654 
L 550.650357 -7.589514 
L 547.125329 -5.290828 
L 543.600259 -3.006854 
L 540.075231 -0.707259 
L 536.550161 1.605689 
L 533.025091 3.931776 
L 529.500063 6.282874 
L 525.974994 8.602538 
L 522.449924 10.914685 
L 518.924896 13.205456 
L 515.399826 15.504024 
L 511.874798 17.795595 
L 508.349728 20.086588 
L 504.824658 22.410034 
L 501.29963 24.692139 
L 497.77456 26.964374 
L 494.249532 29.236174 
L 490.724463 31.476673 
L 487.199393 33.614974 
L 483.674365 35.665183 
L 480.149295 37.631701 
L 476.624225 39.473259 
L 473.099197 41.200938 
L 469.574127 42.862366 
L 466.049099 44.402366 
L 462.52403 45.840431 
L 458.99896 47.258619 
L 455.473932 48.630755 
L 451.948862 49.89808 
L 448.423834 51.037696 
L 444.898764 52.167293 
L 441.373694 53.199871 
L 437.848666 54.142249 
L 434.323597 54.929299 
L 430.798527 55.54794 
L 427.273499 55.94908 
L 423.748429 56.04627 
L 420.223401 55.928578 
L 416.698331 55.627548 
L 413.173261 55.208286 
L 409.648233 54.672834 
L 406.123164 54.136738 
L 402.598136 53.578047 
L 399.073066 53.053097 
L 395.547996 52.53662 
L 392.022968 51.97991 
L 388.497898 51.462978 
L 384.972828 51.134055 
L 381.4478 50.934123 
L 377.922731 50.777835 
L 374.397703 50.696702 
L 370.872633 50.635711 
L 367.347563 50.524003 
L 363.822535 50.464174 
L 360.297465 50.405552 
L 356.772416 50.5089 
L 353.247367 50.727551 
L 349.722297 50.97575 
L 346.197249 51.301133 
L 342.6722 51.867035 
L 339.147151 52.580348 
L 335.622102 53.36568 
L 332.097032 54.108272 
L 328.571983 54.988884 
L 325.046934 55.99122 
L 321.521885 57.188106 
L 317.996816 58.423715 
L 314.471767 59.723046 
L 310.946718 60.952013 
L 307.421669 62.083632 
L 303.896599 62.920517 
L 300.37155 63.573943 
L 296.846501 64.257293 
L 293.321452 64.973212 
L 289.796403 65.644502 
L 286.271334 66.320072 
L 282.746285 67.140835 
L 279.221236 68.123787 
L 275.696187 69.320424 
L 272.171117 70.631063 
L 268.646068 72.013039 
L 265.121019 73.467448 
L 261.59597 75.022376 
L 258.070901 76.706885 
L 254.545852 78.490895 
L 251.020803 80.149948 
L 247.495754 81.610331 
L 243.970684 82.876708 
L 240.445635 83.967926 
L 236.920586 84.938666 
L 233.395537 85.836123 
L 229.870488 86.636821 
L 226.345419 87.360676 
L 222.82037 88.011376 
L 219.295321 88.611294 
L 215.770272 89.206337 
L 212.245202 89.77807 
L 208.720153 90.304696 
L 205.195104 90.80716 
L 201.670055 91.289346 
L 198.144986 91.750499 
L 194.619937 92.19681 
L 191.094888 92.637917 
L 187.569839 93.077791 
L 184.044769 93.480552 
L 180.51972 93.871485 
L 176.994671 94.249982 
L 173.469622 94.615495 
L 169.944573 94.964562 
L 166.419504 95.299641 
L 162.894455 95.604609 
L 159.369406 95.898866 
L 155.844336 96.177071 
L 152.319308 96.441222 
L 148.794238 96.700131 
L 145.269189 96.941967 
L 141.74414 97.174184 
L 138.219071 97.396038 
L 134.694022 97.610942 
L 131.168973 97.827724 
L 127.643903 98.037887 
L 124.118875 98.224132 
L 120.593805 98.398634 
L 117.068756 98.555524 
L 113.543707 98.696545 
L 110.018638 98.826775 
L 106.49361 98.942986 
L 102.96854 99.054129 
L 99.443491 99.17791 
L 95.918442 99.303652 
L 92.393372 99.421445 
L 88.868323 99.545938 
L 85.343274 99.676593 
L 81.818225 99.801059 
L 78.293177 99.932484 
L 74.768107 100.071955 
L 71.243058 100.209517 
L 67.718009 100.346547 
L 64.192939 100.480632 
L 60.66789 100.592432 
L 57.142841 100.702504 
L 53.617792 100.817241 
L 50.092744 100.935233 
L 46.567674 101.05395 
L 43.042625 101.173428 
L 39.517576 101.293839 
L 35.992527 101.42664 
L 32.467457 101.560997 
L 28.942408 101.693712 
L 25.417359 101.830096 
L 21.89231 101.964043 
L 18.367241 102.095047 
L 14.842192 102.226558 
L 11.317143 102.356727 
z
" style="fill:#1f77b4;fill-opacity:0.1;stroke:#1f77b4;stroke-opacity:0.1;"/>
   </g>
   <g id="matplotlib.axis_1">
    <g id="xtick_1">
     <g id="line2d_1">
      <defs>
       <path d="M 0 0 
L 0 3.5 
" id="mda7f0ee135" style="stroke:#000000;stroke-width:0.8;"/>
      </defs>
      <g>
       <use style="stroke:#000000;stroke-width:0.8;" x="99.002857" xlink:href="#mda7f0ee135" y="115.92"/>
      </g>
     </g>
     <g id="text_1">
      <!-- −3 -->
      <defs>
       <path d="M 62.09375 22 
L 6.40625 22 
L 6.40625 28.59375 
L 62.09375 28.59375 
z
" id="STIXGeneral-Regular-8722"/>
       <path d="M 6.09375 51 
L 4.5 51.40625 
Q 6.796875 58.90625 11.6875 63.25 
Q 16.59375 67.59375 24.09375 67.59375 
Q 31.09375 67.59375 35.390625 63.796875 
Q 39.703125 60 39.703125 53.90625 
Q 39.703125 45.703125 30.40625 40.09375 
Q 35.90625 37.703125 38.703125 34.796875 
Q 43.09375 29.90625 43.09375 21.90625 
Q 43.09375 13.90625 38.5 7.90625 
Q 35.09375 3.296875 28.75 0.9375 
Q 22.40625 -1.40625 15.296875 -1.40625 
Q 4.09375 -1.40625 4.09375 4.296875 
Q 4.09375 5.90625 5.296875 6.90625 
Q 6.5 7.90625 8.203125 7.90625 
Q 10.703125 7.90625 14.296875 5.296875 
Q 18.703125 2.203125 22.90625 2.203125 
Q 28.40625 2.203125 32.15625 6.640625 
Q 35.90625 11.09375 35.90625 17.5 
Q 35.90625 29 25.5 32 
Q 22.40625 33 15.296875 33 
L 15.296875 34.40625 
Q 20.90625 36.296875 23.703125 38 
Q 31.796875 42.59375 31.796875 51.40625 
Q 31.796875 56.40625 28.9375 59 
Q 26.09375 61.59375 21 61.59375 
Q 12 61.59375 6.09375 51 
z
" id="STIXGeneral-Regular-51"/>
      </defs>
      <g transform="translate(89.522857 133.8475)scale(0.16 -0.16)">
       <use xlink:href="#STIXGeneral-Regular-8722"/>
       <use x="68.499985" xlink:href="#STIXGeneral-Regular-51"/>
      </g>
     </g>
    </g>
    <g id="xtick_2">
     <g id="line2d_2">
      <g>
       <use style="stroke:#000000;stroke-width:0.8;" x="362.06" xlink:href="#mda7f0ee135" y="115.92"/>
      </g>
     </g>
     <g id="text_2">
      <!-- 0 -->
      <defs>
       <path d="M 47.59375 33 
Q 47.59375 26.296875 46.296875 20.34375 
Q 45 14.40625 42.453125 9.40625 
Q 39.90625 4.40625 35.40625 1.5 
Q 30.90625 -1.40625 25 -1.40625 
Q 18.90625 -1.40625 14.296875 1.6875 
Q 9.703125 4.796875 7.203125 10 
Q 4.703125 15.203125 3.546875 21.09375 
Q 2.40625 27 2.40625 33.59375 
Q 2.40625 42.90625 4.703125 50.34375 
Q 7 57.796875 12.34375 62.6875 
Q 17.703125 67.59375 25.40625 67.59375 
Q 35.203125 67.59375 41.390625 58 
Q 47.59375 48.40625 47.59375 33 
z
M 38 32.5 
Q 38 48.296875 34.640625 56.640625 
Q 31.296875 65 24.796875 65 
Q 18.59375 65 15.296875 56.59375 
Q 12 48.203125 12 32.90625 
Q 12 17.5 15.296875 9.34375 
Q 18.59375 1.203125 25 1.203125 
Q 31.296875 1.203125 34.640625 9.34375 
Q 38 17.5 38 32.5 
z
" id="STIXGeneral-Regular-48"/>
      </defs>
      <g transform="translate(358.06 133.8475)scale(0.16 -0.16)">
       <use xlink:href="#STIXGeneral-Regular-48"/>
      </g>
     </g>
    </g>
    <g id="xtick_3">
     <g id="line2d_3">
      <g>
       <use style="stroke:#000000;stroke-width:0.8;" x="625.117143" xlink:href="#mda7f0ee135" y="115.92"/>
      </g>
     </g>
     <g id="text_3">
      <!-- 3 -->
      <g transform="translate(621.117143 133.8475)scale(0.16 -0.16)">
       <use xlink:href="#STIXGeneral-Regular-51"/>
      </g>
     </g>
    </g>
    <g id="text_4">
     <!-- $x$ -->
     <defs>
      <path d="M 24.296875 35.5 
L 25.5 29.796875 
Q 30.796875 37.90625 34.046875 41 
Q 37.296875 44.09375 40.59375 44.09375 
Q 42.40625 44.09375 43.546875 43.046875 
Q 44.703125 42 44.703125 40.390625 
Q 44.703125 38.796875 43.75 37.796875 
Q 42.796875 36.796875 41.296875 36.796875 
Q 40.40625 36.796875 38.90625 37.640625 
Q 37.40625 38.5 36.09375 38.5 
Q 33.203125 38.5 26.296875 26.40625 
Q 26.296875 25.09375 27.09375 21.90625 
L 30.296875 8.5 
Q 31.296875 4.40625 33.296875 4.40625 
Q 34.90625 4.40625 38 8.40625 
Q 38.296875 8.796875 38.6875 9.34375 
Q 39.09375 9.90625 39.390625 10.34375 
Q 39.703125 10.796875 40.09375 11.203125 
L 41.59375 10.296875 
Q 37.296875 3.59375 34.796875 1.25 
Q 32.296875 -1.09375 29.40625 -1.09375 
Q 27 -1.09375 25.703125 0.40625 
Q 24.40625 1.90625 23.5 5.703125 
L 20.59375 17.59375 
L 11.796875 5.703125 
Q 8.703125 1.5 6.75 0.203125 
Q 4.796875 -1.09375 2.296875 -1.09375 
Q 0 -1.09375 -1.34375 0 
Q -2.703125 1.09375 -2.703125 3.09375 
Q -2.703125 4.59375 -1.75 5.640625 
Q -0.796875 6.703125 0.703125 6.703125 
Q 1.90625 6.703125 3.90625 5.59375 
Q 5.40625 4.703125 6.5 4.703125 
Q 8.203125 4.703125 11.59375 9.59375 
L 19.796875 21.203125 
L 17 33.59375 
Q 16 38 15.140625 39.203125 
Q 14.296875 40.40625 12.40625 40.40625 
Q 11.203125 40.40625 8.5 39.703125 
L 6.703125 39.203125 
L 6.40625 40.796875 
L 7.5 41.203125 
Q 15.5 44.09375 19.203125 44.09375 
Q 21.09375 44.09375 22.1875 42.296875 
Q 23.296875 40.5 24.296875 35.5 
z
" id="STIXGeneral-Italic-120"/>
     </defs>
     <g transform="translate(357.56 154.979375)scale(0.2 -0.2)">
      <use transform="translate(0 0.90625)" xlink:href="#STIXGeneral-Italic-120"/>
     </g>
    </g>
   </g>
   <g id="matplotlib.axis_2">
    <g id="ytick_1">
     <g id="line2d_4">
      <defs>
       <path d="M 0 0 
L -3.5 0 
" id="m52275bd39c" style="stroke:#000000;stroke-width:0.8;"/>
      </defs>
      <g>
       <use style="stroke:#000000;stroke-width:0.8;" x="55.16" xlink:href="#m52275bd39c" y="109.88"/>
      </g>
     </g>
     <g id="text_5">
      <!-- −4 -->
      <defs>
       <path d="M 47.296875 16.703125 
L 37 16.703125 
L 37 0 
L 29.203125 0 
L 29.203125 16.703125 
L 1.203125 16.703125 
L 1.203125 23.09375 
L 32.59375 67.59375 
L 37 67.59375 
L 37 23.09375 
L 47.296875 23.09375 
z
M 29.203125 23.09375 
L 29.203125 57.40625 
L 5.203125 23.09375 
z
" id="STIXGeneral-Regular-52"/>
      </defs>
      <g transform="translate(29.2 115.34375)scale(0.16 -0.16)">
       <use xlink:href="#STIXGeneral-Regular-8722"/>
       <use x="68.499985" xlink:href="#STIXGeneral-Regular-52"/>
      </g>
     </g>
    </g>
    <g id="ytick_2">
     <g id="line2d_5">
      <g>
       <use style="stroke:#000000;stroke-width:0.8;" x="55.16" xlink:href="#m52275bd39c" y="85.72"/>
      </g>
     </g>
     <g id="text_6">
      <!-- −2 -->
      <defs>
       <path d="M 47.40625 13.703125 
L 42 0 
L 2.90625 0 
L 2.90625 1.203125 
L 20.703125 20.09375 
Q 27.703125 27.40625 30.703125 33.5 
Q 33.703125 39.59375 33.703125 46.09375 
Q 33.703125 52.796875 30 56.5 
Q 26.296875 60.203125 19.796875 60.203125 
Q 14.40625 60.203125 11.25 57.390625 
Q 8.09375 54.59375 5.09375 47.203125 
L 3 47.703125 
Q 4.703125 57 9.84375 62.296875 
Q 15 67.59375 23.796875 67.59375 
Q 32.09375 67.59375 37.1875 62.59375 
Q 42.296875 57.59375 42.296875 50 
Q 42.296875 38.703125 29.5 25.203125 
L 13 7.59375 
L 36.40625 7.59375 
Q 39.703125 7.59375 41.640625 8.890625 
Q 43.59375 10.203125 46 14.296875 
z
" id="STIXGeneral-Regular-50"/>
      </defs>
      <g transform="translate(29.2 91.18375)scale(0.16 -0.16)">
       <use xlink:href="#STIXGeneral-Regular-8722"/>
       <use x="68.499985" xlink:href="#STIXGeneral-Regular-50"/>
      </g>
     </g>
    </g>
    <g id="ytick_3">
     <g id="line2d_6">
      <g>
       <use style="stroke:#000000;stroke-width:0.8;" x="55.16" xlink:href="#m52275bd39c" y="61.56"/>
      </g>
     </g>
     <g id="text_7">
      <!-- 0 -->
      <g transform="translate(40.16 67.02375)scale(0.16 -0.16)">
       <use xlink:href="#STIXGeneral-Regular-48"/>
      </g>
     </g>
    </g>
    <g id="ytick_4">
     <g id="line2d_7">
      <g>
       <use style="stroke:#000000;stroke-width:0.8;" x="55.16" xlink:href="#m52275bd39c" y="37.4"/>
      </g>
     </g>
     <g id="text_8">
      <!-- 2 -->
      <g transform="translate(40.16 42.86375)scale(0.16 -0.16)">
       <use xlink:href="#STIXGeneral-Regular-50"/>
      </g>
     </g>
    </g>
    <g id="ytick_5">
     <g id="line2d_8">
      <g>
       <use style="stroke:#000000;stroke-width:0.8;" x="55.16" xlink:href="#m52275bd39c" y="13.24"/>
      </g>
     </g>
     <g id="text_9">
      <!-- 4 -->
      <g transform="translate(40.16 18.70375)scale(0.16 -0.16)">
       <use xlink:href="#STIXGeneral-Regular-52"/>
      </g>
     </g>
    </g>
    <g id="text_10">
     <!-- $y$ -->
     <defs>
      <path d="M 24.296875 18.59375 
L 26.40625 7.59375 
Q 33.09375 18.59375 35.84375 24.34375 
Q 38.59375 30.09375 38.59375 33.296875 
Q 38.59375 34.90625 36 36.5 
Q 33.40625 38.203125 33.40625 40.40625 
Q 33.40625 42 34.546875 43.046875 
Q 35.703125 44.09375 37.40625 44.09375 
Q 39.59375 44.09375 41.09375 42.5 
Q 42.59375 40.90625 42.59375 38.59375 
Q 42.59375 29.90625 29.5 8.09375 
Q 21.703125 -4.796875 14.34375 -12.6875 
Q 7 -20.59375 2.703125 -20.59375 
Q 0.40625 -20.59375 -1 -19.390625 
Q -2.40625 -18.203125 -2.40625 -16.296875 
Q -2.40625 -14.59375 -1.25 -13.4375 
Q -0.09375 -12.296875 1.5 -12.296875 
Q 3.40625 -12.296875 4.90625 -13.6875 
Q 6.40625 -15.09375 7.59375 -15.09375 
Q 9.40625 -15.09375 12.40625 -11.796875 
Q 13.703125 -10.5 16.25 -7.140625 
Q 18.796875 -3.796875 19.5 -2.703125 
Q 20.5 -0.703125 20.5 0.796875 
Q 20.5 3.796875 17.390625 16.34375 
Q 14.296875 28.90625 12.296875 34 
Q 10.90625 37.703125 9.25 39.046875 
Q 7.59375 40.40625 4.59375 40.40625 
Q 3 40.40625 1.5 40 
L 1.5 41.703125 
Q 3.703125 42.09375 4.703125 42.296875 
Q 8.796875 43.09375 15.40625 44.09375 
L 15.796875 44.09375 
Q 16.90625 44.09375 19.953125 34.796875 
Q 23 25.5 24.296875 18.59375 
z
" id="STIXGeneral-Italic-121"/>
     </defs>
     <g transform="translate(20.859375 66.06)rotate(-90)scale(0.2 -0.2)">
      <use transform="translate(0 0.90625)" xlink:href="#STIXGeneral-Italic-121"/>
     </g>
    </g>
   </g>
   <g id="line2d_9">
    <path clip-path="url(#p1714bdb29a)" d="M 84.119585 167.52 
L 187.569839 115.182442 
L 212.245202 102.304145 
L 222.82037 96.841464 
L 240.445635 87.926759 
L 247.495754 84.113701 
L 261.59597 77.48361 
L 265.121019 75.798776 
L 268.646068 73.707965 
L 272.171117 72.051551 
L 275.696187 70.815146 
L 279.221236 69.762292 
L 300.37155 65.204758 
L 303.896599 64.210578 
L 314.471767 60.240911 
L 321.521885 58.279643 
L 325.046934 57.268404 
L 332.097032 54.678323 
L 335.622102 53.55479 
L 339.147151 52.896125 
L 342.6722 52.695295 
L 346.197249 52.610324 
L 353.247367 52.701278 
L 363.822535 51.961169 
L 367.347563 51.86345 
L 370.872633 52.086833 
L 374.397703 52.502774 
L 392.022968 55.461429 
L 399.073066 56.242448 
L 402.598136 56.626527 
L 413.173261 56.924066 
L 416.698331 57.047597 
L 423.748429 56.888188 
L 427.273499 56.587608 
L 434.323597 55.697052 
L 437.848666 54.884962 
L 458.99896 48.59558 
L 462.52403 47.17005 
L 466.049099 45.508451 
L 490.724463 32.139164 
L 504.824658 24.994693 
L 515.399826 19.638569 
L 525.974994 15.018897 
L 563.005189 -1 
L 563.005189 -1 
" style="fill:none;stroke:#d62728;stroke-linecap:square;stroke-width:1.5;"/>
   </g>
   <g id="line2d_10">
    <path clip-path="url(#p1714bdb29a)" d="M 29.738398 167.52 
L 53.617792 158.811479 
L 191.094888 108.864749 
L 212.245202 100.349571 
L 215.770272 98.577937 
L 229.870488 90.827822 
L 236.920586 87.379391 
L 247.495754 82.425777 
L 258.070901 77.725448 
L 261.59597 75.994849 
L 272.171117 71.279692 
L 275.696187 69.90575 
L 286.271334 66.756089 
L 293.321452 65.2613 
L 303.896599 63.248057 
L 310.946718 62.105136 
L 317.996816 61.309993 
L 321.521885 61.027397 
L 328.571983 61.145234 
L 335.622102 61.424296 
L 346.197249 62.222725 
L 349.722297 62.656839 
L 353.247367 63.541074 
L 356.772416 64.899176 
L 363.822535 67.139102 
L 367.347563 67.941069 
L 374.397703 69.068293 
L 381.4478 68.368749 
L 392.022968 67.103212 
L 395.547996 66.848113 
L 399.073066 65.741217 
L 402.598136 64.135603 
L 406.123164 62.402625 
L 409.648233 60.509965 
L 413.173261 59.34891 
L 416.698331 58.364343 
L 427.273499 57.588457 
L 430.798527 57.114665 
L 462.52403 47.708329 
L 469.574127 45.071212 
L 473.099197 43.332515 
L 480.149295 38.995488 
L 494.249532 30.609456 
L 540.075231 2.122332 
L 545.239562 -1 
L 545.239562 -1 
" style="fill:none;stroke:#2ca02c;stroke-linecap:square;stroke-width:1.5;"/>
   </g>
   <g id="line2d_11">
    <path clip-path="url(#p1714bdb29a)" d="M 18.093255 167.52 
L 67.718009 149.350662 
L 106.49361 135.20963 
L 131.168973 127.316933 
L 148.794238 120.786683 
L 176.994671 110.148079 
L 191.094888 105.122265 
L 198.144986 102.925722 
L 215.770272 97.498728 
L 219.295321 96.405783 
L 222.82037 94.986779 
L 268.646068 73.038308 
L 275.696187 70.347424 
L 279.221236 69.193196 
L 282.746285 68.406189 
L 293.321452 66.570131 
L 296.846501 65.783912 
L 303.896599 64.461023 
L 307.421669 64.083115 
L 310.946718 64.160384 
L 314.471767 64.353655 
L 317.996816 64.863261 
L 321.521885 65.143627 
L 325.046934 64.691887 
L 332.097032 63.43375 
L 335.622102 62.671813 
L 339.147151 61.704726 
L 342.6722 59.909455 
L 346.197249 58.705489 
L 353.247367 59.050398 
L 356.772416 59.320366 
L 360.297465 59.912025 
L 367.347563 60.650145 
L 377.922731 62.109092 
L 381.4478 62.782016 
L 384.972828 63.011362 
L 388.497898 62.705148 
L 416.698331 58.444767 
L 423.748429 58.156205 
L 427.273499 57.816123 
L 444.898764 53.604442 
L 448.423834 52.341801 
L 466.049099 45.03617 
L 480.149295 38.574581 
L 483.674365 36.690137 
L 501.29963 26.761497 
L 522.449924 15.567962 
L 547.125329 2.21059 
L 552.906637 -1 
L 552.906637 -1 
" style="fill:none;stroke:#1f77b4;stroke-linecap:square;stroke-width:1.5;"/>
   </g>
   <g id="patch_3">
    <path d="M 55.16 115.92 
L 55.16 7.2 
" style="fill:none;stroke:#000000;stroke-linecap:square;stroke-linejoin:miter;stroke-width:0.8;"/>
   </g>
   <g id="patch_4">
    <path d="M 668.96 115.92 
L 668.96 7.2 
" style="fill:none;stroke:#000000;stroke-linecap:square;stroke-linejoin:miter;stroke-width:0.8;"/>
   </g>
   <g id="patch_5">
    <path d="M 55.16 115.92 
L 668.96 115.92 
" style="fill:none;stroke:#000000;stroke-linecap:square;stroke-linejoin:miter;stroke-width:0.8;"/>
   </g>
   <g id="patch_6">
    <path d="M 55.16 7.2 
L 668.96 7.2 
" style="fill:none;stroke:#000000;stroke-linecap:square;stroke-linejoin:miter;stroke-width:0.8;"/>
   </g>
   <g id="PathCollection_1">
    <defs>
     <path d="M -3 3 
L 3 -3 
M -3 -3 
L 3 3 
" id="m1a429ce24b" style="stroke:#9467bd;stroke-width:1.5;"/>
    </defs>
    <g clip-path="url(#p1714bdb29a)">
     <use style="fill:#9467bd;stroke:#9467bd;stroke-width:1.5;" x="434.81511" xlink:href="#m1a429ce24b" y="97.8"/>
     <use style="fill:#9467bd;stroke:#9467bd;stroke-width:1.5;" x="426.204815" xlink:href="#m1a429ce24b" y="97.8"/>
     <use style="fill:#9467bd;stroke:#9467bd;stroke-width:1.5;" x="280.334857" xlink:href="#m1a429ce24b" y="97.8"/>
     <use style="fill:#9467bd;stroke:#9467bd;stroke-width:1.5;" x="297.497464" xlink:href="#m1a429ce24b" y="97.8"/>
     <use style="fill:#9467bd;stroke:#9467bd;stroke-width:1.5;" x="301.571669" xlink:href="#m1a429ce24b" y="97.8"/>
     <use style="fill:#9467bd;stroke:#9467bd;stroke-width:1.5;" x="281.096093" xlink:href="#m1a429ce24b" y="97.8"/>
     <use style="fill:#9467bd;stroke:#9467bd;stroke-width:1.5;" x="281.767089" xlink:href="#m1a429ce24b" y="97.8"/>
     <use style="fill:#9467bd;stroke:#9467bd;stroke-width:1.5;" x="423.820701" xlink:href="#m1a429ce24b" y="97.8"/>
     <use style="fill:#9467bd;stroke:#9467bd;stroke-width:1.5;" x="273.949906" xlink:href="#m1a429ce24b" y="97.8"/>
     <use style="fill:#9467bd;stroke:#9467bd;stroke-width:1.5;" x="430.587492" xlink:href="#m1a429ce24b" y="97.8"/>
     <use style="fill:#9467bd;stroke:#9467bd;stroke-width:1.5;" x="421.026956" xlink:href="#m1a429ce24b" y="97.8"/>
     <use style="fill:#9467bd;stroke:#9467bd;stroke-width:1.5;" x="421.648144" xlink:href="#m1a429ce24b" y="97.8"/>
     <use style="fill:#9467bd;stroke:#9467bd;stroke-width:1.5;" x="432.461335" xlink:href="#m1a429ce24b" y="97.8"/>
     <use style="fill:#9467bd;stroke:#9467bd;stroke-width:1.5;" x="430.019149" xlink:href="#m1a429ce24b" y="97.8"/>
     <use style="fill:#9467bd;stroke:#9467bd;stroke-width:1.5;" x="449.246063" xlink:href="#m1a429ce24b" y="97.8"/>
     <use style="fill:#9467bd;stroke:#9467bd;stroke-width:1.5;" x="434.274285" xlink:href="#m1a429ce24b" y="97.8"/>
     <use style="fill:#9467bd;stroke:#9467bd;stroke-width:1.5;" x="422.874844" xlink:href="#m1a429ce24b" y="97.8"/>
     <use style="fill:#9467bd;stroke:#9467bd;stroke-width:1.5;" x="281.75581" xlink:href="#m1a429ce24b" y="97.8"/>
     <use style="fill:#9467bd;stroke:#9467bd;stroke-width:1.5;" x="427.957273" xlink:href="#m1a429ce24b" y="97.8"/>
     <use style="fill:#9467bd;stroke:#9467bd;stroke-width:1.5;" x="281.186239" xlink:href="#m1a429ce24b" y="97.8"/>
     <use style="fill:#9467bd;stroke:#9467bd;stroke-width:1.5;" x="308.560852" xlink:href="#m1a429ce24b" y="97.8"/>
     <use style="fill:#9467bd;stroke:#9467bd;stroke-width:1.5;" x="426.85341" xlink:href="#m1a429ce24b" y="97.8"/>
     <use style="fill:#9467bd;stroke:#9467bd;stroke-width:1.5;" x="424.555005" xlink:href="#m1a429ce24b" y="97.8"/>
     <use style="fill:#9467bd;stroke:#9467bd;stroke-width:1.5;" x="270.043753" xlink:href="#m1a429ce24b" y="97.8"/>
     <use style="fill:#9467bd;stroke:#9467bd;stroke-width:1.5;" x="302.042616" xlink:href="#m1a429ce24b" y="97.8"/>
     <use style="fill:#9467bd;stroke:#9467bd;stroke-width:1.5;" x="468.53271" xlink:href="#m1a429ce24b" y="97.8"/>
     <use style="fill:#9467bd;stroke:#9467bd;stroke-width:1.5;" x="291.576546" xlink:href="#m1a429ce24b" y="97.8"/>
     <use style="fill:#9467bd;stroke:#9467bd;stroke-width:1.5;" x="298.602367" xlink:href="#m1a429ce24b" y="97.8"/>
     <use style="fill:#9467bd;stroke:#9467bd;stroke-width:1.5;" x="431.447467" xlink:href="#m1a429ce24b" y="97.8"/>
     <use style="fill:#9467bd;stroke:#9467bd;stroke-width:1.5;" x="425.396614" xlink:href="#m1a429ce24b" y="97.8"/>
     <use style="fill:#9467bd;stroke:#9467bd;stroke-width:1.5;" x="283.850258" xlink:href="#m1a429ce24b" y="97.8"/>
     <use style="fill:#9467bd;stroke:#9467bd;stroke-width:1.5;" x="424.501909" xlink:href="#m1a429ce24b" y="97.8"/>
     <use style="fill:#9467bd;stroke:#9467bd;stroke-width:1.5;" x="334.190353" xlink:href="#m1a429ce24b" y="97.8"/>
     <use style="fill:#9467bd;stroke:#9467bd;stroke-width:1.5;" x="423.734464" xlink:href="#m1a429ce24b" y="97.8"/>
     <use style="fill:#9467bd;stroke:#9467bd;stroke-width:1.5;" x="302.491236" xlink:href="#m1a429ce24b" y="97.8"/>
     <use style="fill:#9467bd;stroke:#9467bd;stroke-width:1.5;" x="282.56075" xlink:href="#m1a429ce24b" y="97.8"/>
     <use style="fill:#9467bd;stroke:#9467bd;stroke-width:1.5;" x="279.138208" xlink:href="#m1a429ce24b" y="97.8"/>
     <use style="fill:#9467bd;stroke:#9467bd;stroke-width:1.5;" x="424.922275" xlink:href="#m1a429ce24b" y="97.8"/>
     <use style="fill:#9467bd;stroke:#9467bd;stroke-width:1.5;" x="307.170009" xlink:href="#m1a429ce24b" y="97.8"/>
     <use style="fill:#9467bd;stroke:#9467bd;stroke-width:1.5;" x="434.770293" xlink:href="#m1a429ce24b" y="97.8"/>
     <use style="fill:#9467bd;stroke:#9467bd;stroke-width:1.5;" x="280.034016" xlink:href="#m1a429ce24b" y="97.8"/>
     <use style="fill:#9467bd;stroke:#9467bd;stroke-width:1.5;" x="277.490948" xlink:href="#m1a429ce24b" y="97.8"/>
     <use style="fill:#9467bd;stroke:#9467bd;stroke-width:1.5;" x="367.542189" xlink:href="#m1a429ce24b" y="97.8"/>
     <use style="fill:#9467bd;stroke:#9467bd;stroke-width:1.5;" x="281.868859" xlink:href="#m1a429ce24b" y="97.8"/>
     <use style="fill:#9467bd;stroke:#9467bd;stroke-width:1.5;" x="279.912469" xlink:href="#m1a429ce24b" y="97.8"/>
     <use style="fill:#9467bd;stroke:#9467bd;stroke-width:1.5;" x="302.005362" xlink:href="#m1a429ce24b" y="97.8"/>
     <use style="fill:#9467bd;stroke:#9467bd;stroke-width:1.5;" x="279.954589" xlink:href="#m1a429ce24b" y="97.8"/>
     <use style="fill:#9467bd;stroke:#9467bd;stroke-width:1.5;" x="252.399223" xlink:href="#m1a429ce24b" y="97.8"/>
     <use style="fill:#9467bd;stroke:#9467bd;stroke-width:1.5;" x="441.116463" xlink:href="#m1a429ce24b" y="97.8"/>
     <use style="fill:#9467bd;stroke:#9467bd;stroke-width:1.5;" x="281.036218" xlink:href="#m1a429ce24b" y="97.8"/>
     <use style="fill:#9467bd;stroke:#9467bd;stroke-width:1.5;" x="425.995892" xlink:href="#m1a429ce24b" y="97.8"/>
     <use style="fill:#9467bd;stroke:#9467bd;stroke-width:1.5;" x="298.830895" xlink:href="#m1a429ce24b" y="97.8"/>
     <use style="fill:#9467bd;stroke:#9467bd;stroke-width:1.5;" x="429.23904" xlink:href="#m1a429ce24b" y="97.8"/>
     <use style="fill:#9467bd;stroke:#9467bd;stroke-width:1.5;" x="302.091542" xlink:href="#m1a429ce24b" y="97.8"/>
     <use style="fill:#9467bd;stroke:#9467bd;stroke-width:1.5;" x="444.118927" xlink:href="#m1a429ce24b" y="97.8"/>
     <use style="fill:#9467bd;stroke:#9467bd;stroke-width:1.5;" x="281.792233" xlink:href="#m1a429ce24b" y="97.8"/>
     <use style="fill:#9467bd;stroke:#9467bd;stroke-width:1.5;" x="259.548039" xlink:href="#m1a429ce24b" y="97.8"/>
     <use style="fill:#9467bd;stroke:#9467bd;stroke-width:1.5;" x="384.364072" xlink:href="#m1a429ce24b" y="97.8"/>
     <use style="fill:#9467bd;stroke:#9467bd;stroke-width:1.5;" x="439.875201" xlink:href="#m1a429ce24b" y="97.8"/>
     <use style="fill:#9467bd;stroke:#9467bd;stroke-width:1.5;" x="280.853025" xlink:href="#m1a429ce24b" y="97.8"/>
     <use style="fill:#9467bd;stroke:#9467bd;stroke-width:1.5;" x="431.351911" xlink:href="#m1a429ce24b" y="97.8"/>
     <use style="fill:#9467bd;stroke:#9467bd;stroke-width:1.5;" x="429.338636" xlink:href="#m1a429ce24b" y="97.8"/>
     <use style="fill:#9467bd;stroke:#9467bd;stroke-width:1.5;" x="434.859864" xlink:href="#m1a429ce24b" y="97.8"/>
     <use style="fill:#9467bd;stroke:#9467bd;stroke-width:1.5;" x="427.150441" xlink:href="#m1a429ce24b" y="97.8"/>
     <use style="fill:#9467bd;stroke:#9467bd;stroke-width:1.5;" x="436.065022" xlink:href="#m1a429ce24b" y="97.8"/>
     <use style="fill:#9467bd;stroke:#9467bd;stroke-width:1.5;" x="430.731424" xlink:href="#m1a429ce24b" y="97.8"/>
     <use style="fill:#9467bd;stroke:#9467bd;stroke-width:1.5;" x="285.824141" xlink:href="#m1a429ce24b" y="97.8"/>
     <use style="fill:#9467bd;stroke:#9467bd;stroke-width:1.5;" x="425.910627" xlink:href="#m1a429ce24b" y="97.8"/>
     <use style="fill:#9467bd;stroke:#9467bd;stroke-width:1.5;" x="275.026926" xlink:href="#m1a429ce24b" y="97.8"/>
     <use style="fill:#9467bd;stroke:#9467bd;stroke-width:1.5;" x="282.775229" xlink:href="#m1a429ce24b" y="97.8"/>
     <use style="fill:#9467bd;stroke:#9467bd;stroke-width:1.5;" x="432.8713" xlink:href="#m1a429ce24b" y="97.8"/>
     <use style="fill:#9467bd;stroke:#9467bd;stroke-width:1.5;" x="281.334305" xlink:href="#m1a429ce24b" y="97.8"/>
     <use style="fill:#9467bd;stroke:#9467bd;stroke-width:1.5;" x="302.800529" xlink:href="#m1a429ce24b" y="97.8"/>
     <use style="fill:#9467bd;stroke:#9467bd;stroke-width:1.5;" x="269.610593" xlink:href="#m1a429ce24b" y="97.8"/>
     <use style="fill:#9467bd;stroke:#9467bd;stroke-width:1.5;" x="430.021773" xlink:href="#m1a429ce24b" y="97.8"/>
     <use style="fill:#9467bd;stroke:#9467bd;stroke-width:1.5;" x="423.664241" xlink:href="#m1a429ce24b" y="97.8"/>
     <use style="fill:#9467bd;stroke:#9467bd;stroke-width:1.5;" x="431.33608" xlink:href="#m1a429ce24b" y="97.8"/>
     <use style="fill:#9467bd;stroke:#9467bd;stroke-width:1.5;" x="280.882278" xlink:href="#m1a429ce24b" y="97.8"/>
     <use style="fill:#9467bd;stroke:#9467bd;stroke-width:1.5;" x="282.079611" xlink:href="#m1a429ce24b" y="97.8"/>
     <use style="fill:#9467bd;stroke:#9467bd;stroke-width:1.5;" x="307.078775" xlink:href="#m1a429ce24b" y="97.8"/>
     <use style="fill:#9467bd;stroke:#9467bd;stroke-width:1.5;" x="444.019462" xlink:href="#m1a429ce24b" y="97.8"/>
     <use style="fill:#9467bd;stroke:#9467bd;stroke-width:1.5;" x="430.107581" xlink:href="#m1a429ce24b" y="97.8"/>
     <use style="fill:#9467bd;stroke:#9467bd;stroke-width:1.5;" x="270.870707" xlink:href="#m1a429ce24b" y="97.8"/>
     <use style="fill:#9467bd;stroke:#9467bd;stroke-width:1.5;" x="307.313209" xlink:href="#m1a429ce24b" y="97.8"/>
     <use style="fill:#9467bd;stroke:#9467bd;stroke-width:1.5;" x="428.346698" xlink:href="#m1a429ce24b" y="97.8"/>
     <use style="fill:#9467bd;stroke:#9467bd;stroke-width:1.5;" x="439.806813" xlink:href="#m1a429ce24b" y="97.8"/>
     <use style="fill:#9467bd;stroke:#9467bd;stroke-width:1.5;" x="272.776615" xlink:href="#m1a429ce24b" y="97.8"/>
     <use style="fill:#9467bd;stroke:#9467bd;stroke-width:1.5;" x="478.835526" xlink:href="#m1a429ce24b" y="97.8"/>
     <use style="fill:#9467bd;stroke:#9467bd;stroke-width:1.5;" x="424.51728" xlink:href="#m1a429ce24b" y="97.8"/>
     <use style="fill:#9467bd;stroke:#9467bd;stroke-width:1.5;" x="384.429071" xlink:href="#m1a429ce24b" y="97.8"/>
     <use style="fill:#9467bd;stroke:#9467bd;stroke-width:1.5;" x="429.436753" xlink:href="#m1a429ce24b" y="97.8"/>
     <use style="fill:#9467bd;stroke:#9467bd;stroke-width:1.5;" x="425.389992" xlink:href="#m1a429ce24b" y="97.8"/>
     <use style="fill:#9467bd;stroke:#9467bd;stroke-width:1.5;" x="439.645466" xlink:href="#m1a429ce24b" y="97.8"/>
     <use style="fill:#9467bd;stroke:#9467bd;stroke-width:1.5;" x="280.467933" xlink:href="#m1a429ce24b" y="97.8"/>
     <use style="fill:#9467bd;stroke:#9467bd;stroke-width:1.5;" x="429.96447" xlink:href="#m1a429ce24b" y="97.8"/>
     <use style="fill:#9467bd;stroke:#9467bd;stroke-width:1.5;" x="423.807755" xlink:href="#m1a429ce24b" y="97.8"/>
     <use style="fill:#9467bd;stroke:#9467bd;stroke-width:1.5;" x="392.470699" xlink:href="#m1a429ce24b" y="97.8"/>
     <use style="fill:#9467bd;stroke:#9467bd;stroke-width:1.5;" x="434.233111" xlink:href="#m1a429ce24b" y="97.8"/>
     <use style="fill:#9467bd;stroke:#9467bd;stroke-width:1.5;" x="435.065845" xlink:href="#m1a429ce24b" y="97.8"/>
     <use style="fill:#9467bd;stroke:#9467bd;stroke-width:1.5;" x="454.253341" xlink:href="#m1a429ce24b" y="97.8"/>
    </g>
   </g>
   <g id="PathCollection_2">
    <defs>
     <path d="M -3 0 
L 3 0 
M 0 3 
L 0 -3 
" id="mbd4ce56023" style="stroke:#000000;stroke-width:1.5;"/>
    </defs>
    <g clip-path="url(#p1714bdb29a)">
     <use style="stroke:#000000;stroke-width:1.5;" x="303.768592" xlink:href="#mbd4ce56023" y="64.661932"/>
     <use style="stroke:#000000;stroke-width:1.5;" x="255.262192" xlink:href="#mbd4ce56023" y="80.775675"/>
     <use style="stroke:#000000;stroke-width:1.5;" x="272.341835" xlink:href="#mbd4ce56023" y="70.033233"/>
     <use style="stroke:#000000;stroke-width:1.5;" x="249.238219" xlink:href="#mbd4ce56023" y="82.618207"/>
     <use style="stroke:#000000;stroke-width:1.5;" x="250.416413" xlink:href="#mbd4ce56023" y="82.005796"/>
     <use style="stroke:#000000;stroke-width:1.5;" x="302.953173" xlink:href="#mbd4ce56023" y="64.839585"/>
     <use style="stroke:#000000;stroke-width:1.5;" x="273.764544" xlink:href="#mbd4ce56023" y="72.801788"/>
     <use style="stroke:#000000;stroke-width:1.5;" x="286.865981" xlink:href="#mbd4ce56023" y="68.103856"/>
     <use style="stroke:#000000;stroke-width:1.5;" x="249.101275" xlink:href="#mbd4ce56023" y="83.267644"/>
     <use style="stroke:#000000;stroke-width:1.5;" x="255.128269" xlink:href="#mbd4ce56023" y="79.816797"/>
     <use style="stroke:#000000;stroke-width:1.5;" x="284.283773" xlink:href="#mbd4ce56023" y="68.753732"/>
     <use style="stroke:#000000;stroke-width:1.5;" x="259.011802" xlink:href="#mbd4ce56023" y="77.771942"/>
     <use style="stroke:#000000;stroke-width:1.5;" x="269.454322" xlink:href="#mbd4ce56023" y="74.283428"/>
     <use style="stroke:#000000;stroke-width:1.5;" x="265.251692" xlink:href="#mbd4ce56023" y="75.857553"/>
     <use style="stroke:#000000;stroke-width:1.5;" x="302.131759" xlink:href="#mbd4ce56023" y="64.438209"/>
     <use style="stroke:#000000;stroke-width:1.5;" x="256.465777" xlink:href="#mbd4ce56023" y="79.303383"/>
     <use style="stroke:#000000;stroke-width:1.5;" x="281.140816" xlink:href="#mbd4ce56023" y="70.288569"/>
     <use style="stroke:#000000;stroke-width:1.5;" x="296.756256" xlink:href="#mbd4ce56023" y="64.491049"/>
     <use style="stroke:#000000;stroke-width:1.5;" x="273.21889" xlink:href="#mbd4ce56023" y="71.480698"/>
     <use style="stroke:#000000;stroke-width:1.5;" x="295.389929" xlink:href="#mbd4ce56023" y="64.283443"/>
     <use style="stroke:#000000;stroke-width:1.5;" x="294.479274" xlink:href="#mbd4ce56023" y="67.801438"/>
     <use style="stroke:#000000;stroke-width:1.5;" x="254.841702" xlink:href="#mbd4ce56023" y="81.716533"/>
     <use style="stroke:#000000;stroke-width:1.5;" x="266.125496" xlink:href="#mbd4ce56023" y="72.98328"/>
     <use style="stroke:#000000;stroke-width:1.5;" x="250.34712" xlink:href="#mbd4ce56023" y="82.886164"/>
     <use style="stroke:#000000;stroke-width:1.5;" x="267.714501" xlink:href="#mbd4ce56023" y="74.599209"/>
     <use style="stroke:#000000;stroke-width:1.5;" x="267.668477" xlink:href="#mbd4ce56023" y="74.818049"/>
     <use style="stroke:#000000;stroke-width:1.5;" x="273.432266" xlink:href="#mbd4ce56023" y="71.391195"/>
     <use style="stroke:#000000;stroke-width:1.5;" x="252.858191" xlink:href="#mbd4ce56023" y="79.948105"/>
     <use style="stroke:#000000;stroke-width:1.5;" x="292.2573" xlink:href="#mbd4ce56023" y="68.240009"/>
     <use style="stroke:#000000;stroke-width:1.5;" x="295.237065" xlink:href="#mbd4ce56023" y="67.119265"/>
     <use style="stroke:#000000;stroke-width:1.5;" x="273.004134" xlink:href="#mbd4ce56023" y="71.427088"/>
     <use style="stroke:#000000;stroke-width:1.5;" x="251.80237" xlink:href="#mbd4ce56023" y="84.361181"/>
     <use style="stroke:#000000;stroke-width:1.5;" x="304.24889" xlink:href="#mbd4ce56023" y="65.841689"/>
     <use style="stroke:#000000;stroke-width:1.5;" x="305.780649" xlink:href="#mbd4ce56023" y="61.194725"/>
     <use style="stroke:#000000;stroke-width:1.5;" x="273.622279" xlink:href="#mbd4ce56023" y="71.756317"/>
     <use style="stroke:#000000;stroke-width:1.5;" x="286.593995" xlink:href="#mbd4ce56023" y="66.066606"/>
     <use style="stroke:#000000;stroke-width:1.5;" x="281.779397" xlink:href="#mbd4ce56023" y="68.201327"/>
     <use style="stroke:#000000;stroke-width:1.5;" x="263.903836" xlink:href="#mbd4ce56023" y="74.591119"/>
     <use style="stroke:#000000;stroke-width:1.5;" x="270.600561" xlink:href="#mbd4ce56023" y="71.458409"/>
     <use style="stroke:#000000;stroke-width:1.5;" x="273.398597" xlink:href="#mbd4ce56023" y="69.626855"/>
     <use style="stroke:#000000;stroke-width:1.5;" x="272.954702" xlink:href="#mbd4ce56023" y="69.482052"/>
     <use style="stroke:#000000;stroke-width:1.5;" x="305.368145" xlink:href="#mbd4ce56023" y="63.964156"/>
     <use style="stroke:#000000;stroke-width:1.5;" x="300.754975" xlink:href="#mbd4ce56023" y="65.403427"/>
     <use style="stroke:#000000;stroke-width:1.5;" x="284.105006" xlink:href="#mbd4ce56023" y="66.793438"/>
     <use style="stroke:#000000;stroke-width:1.5;" x="259.757139" xlink:href="#mbd4ce56023" y="75.33261"/>
     <use style="stroke:#000000;stroke-width:1.5;" x="289.712754" xlink:href="#mbd4ce56023" y="66.615662"/>
     <use style="stroke:#000000;stroke-width:1.5;" x="251.584541" xlink:href="#mbd4ce56023" y="79.837852"/>
     <use style="stroke:#000000;stroke-width:1.5;" x="284.651272" xlink:href="#mbd4ce56023" y="69.960609"/>
     <use style="stroke:#000000;stroke-width:1.5;" x="292.698728" xlink:href="#mbd4ce56023" y="66.610274"/>
     <use style="stroke:#000000;stroke-width:1.5;" x="283.799942" xlink:href="#mbd4ce56023" y="67.343767"/>
     <use style="stroke:#000000;stroke-width:1.5;" x="426.96199" xlink:href="#mbd4ce56023" y="57.625053"/>
     <use style="stroke:#000000;stroke-width:1.5;" x="432.451128" xlink:href="#mbd4ce56023" y="54.893851"/>
     <use style="stroke:#000000;stroke-width:1.5;" x="431.215584" xlink:href="#mbd4ce56023" y="56.014721"/>
     <use style="stroke:#000000;stroke-width:1.5;" x="475.909452" xlink:href="#mbd4ce56023" y="39.567225"/>
     <use style="stroke:#000000;stroke-width:1.5;" x="439.98698" xlink:href="#mbd4ce56023" y="52.467778"/>
     <use style="stroke:#000000;stroke-width:1.5;" x="429.392563" xlink:href="#mbd4ce56023" y="56.897807"/>
     <use style="stroke:#000000;stroke-width:1.5;" x="428.082035" xlink:href="#mbd4ce56023" y="57.317359"/>
     <use style="stroke:#000000;stroke-width:1.5;" x="447.0931" xlink:href="#mbd4ce56023" y="52.61646"/>
     <use style="stroke:#000000;stroke-width:1.5;" x="475.421132" xlink:href="#mbd4ce56023" y="41.223481"/>
     <use style="stroke:#000000;stroke-width:1.5;" x="459.476388" xlink:href="#mbd4ce56023" y="48.632487"/>
     <use style="stroke:#000000;stroke-width:1.5;" x="423.992986" xlink:href="#mbd4ce56023" y="55.987049"/>
     <use style="stroke:#000000;stroke-width:1.5;" x="441.984967" xlink:href="#mbd4ce56023" y="55.006327"/>
     <use style="stroke:#000000;stroke-width:1.5;" x="470.221939" xlink:href="#mbd4ce56023" y="44.682691"/>
     <use style="stroke:#000000;stroke-width:1.5;" x="460.63999" xlink:href="#mbd4ce56023" y="47.688043"/>
     <use style="stroke:#000000;stroke-width:1.5;" x="454.382048" xlink:href="#mbd4ce56023" y="52.064693"/>
     <use style="stroke:#000000;stroke-width:1.5;" x="426.507412" xlink:href="#mbd4ce56023" y="57.886881"/>
     <use style="stroke:#000000;stroke-width:1.5;" x="436.655572" xlink:href="#mbd4ce56023" y="56.562756"/>
     <use style="stroke:#000000;stroke-width:1.5;" x="445.639889" xlink:href="#mbd4ce56023" y="50.038082"/>
     <use style="stroke:#000000;stroke-width:1.5;" x="453.045711" xlink:href="#mbd4ce56023" y="51.85612"/>
     <use style="stroke:#000000;stroke-width:1.5;" x="435.258226" xlink:href="#mbd4ce56023" y="55.155069"/>
     <use style="stroke:#000000;stroke-width:1.5;" x="438.566831" xlink:href="#mbd4ce56023" y="55.114181"/>
     <use style="stroke:#000000;stroke-width:1.5;" x="469.236884" xlink:href="#mbd4ce56023" y="43.95302"/>
     <use style="stroke:#000000;stroke-width:1.5;" x="461.92402" xlink:href="#mbd4ce56023" y="45.782243"/>
     <use style="stroke:#000000;stroke-width:1.5;" x="469.811054" xlink:href="#mbd4ce56023" y="42.880589"/>
     <use style="stroke:#000000;stroke-width:1.5;" x="458.956981" xlink:href="#mbd4ce56023" y="48.97109"/>
     <use style="stroke:#000000;stroke-width:1.5;" x="454.809145" xlink:href="#mbd4ce56023" y="49.455126"/>
     <use style="stroke:#000000;stroke-width:1.5;" x="464.944191" xlink:href="#mbd4ce56023" y="46.837457"/>
     <use style="stroke:#000000;stroke-width:1.5;" x="447.199673" xlink:href="#mbd4ce56023" y="52.675831"/>
     <use style="stroke:#000000;stroke-width:1.5;" x="445.180659" xlink:href="#mbd4ce56023" y="54.163819"/>
     <use style="stroke:#000000;stroke-width:1.5;" x="436.940869" xlink:href="#mbd4ce56023" y="55.816091"/>
     <use style="stroke:#000000;stroke-width:1.5;" x="427.940428" xlink:href="#mbd4ce56023" y="58.034763"/>
     <use style="stroke:#000000;stroke-width:1.5;" x="440.509941" xlink:href="#mbd4ce56023" y="54.245103"/>
     <use style="stroke:#000000;stroke-width:1.5;" x="431.427925" xlink:href="#mbd4ce56023" y="57.555238"/>
     <use style="stroke:#000000;stroke-width:1.5;" x="480.610678" xlink:href="#mbd4ce56023" y="38.219353"/>
     <use style="stroke:#000000;stroke-width:1.5;" x="425.523074" xlink:href="#mbd4ce56023" y="56.890449"/>
     <use style="stroke:#000000;stroke-width:1.5;" x="454.698166" xlink:href="#mbd4ce56023" y="50.220273"/>
     <use style="stroke:#000000;stroke-width:1.5;" x="433.282639" xlink:href="#mbd4ce56023" y="58.193292"/>
     <use style="stroke:#000000;stroke-width:1.5;" x="433.774216" xlink:href="#mbd4ce56023" y="55.277712"/>
     <use style="stroke:#000000;stroke-width:1.5;" x="438.774113" xlink:href="#mbd4ce56023" y="54.417014"/>
     <use style="stroke:#000000;stroke-width:1.5;" x="433.762953" xlink:href="#mbd4ce56023" y="55.997577"/>
     <use style="stroke:#000000;stroke-width:1.5;" x="475.424582" xlink:href="#mbd4ce56023" y="41.188981"/>
     <use style="stroke:#000000;stroke-width:1.5;" x="479.601215" xlink:href="#mbd4ce56023" y="38.009041"/>
     <use style="stroke:#000000;stroke-width:1.5;" x="427.785688" xlink:href="#mbd4ce56023" y="56.86745"/>
     <use style="stroke:#000000;stroke-width:1.5;" x="428.517473" xlink:href="#mbd4ce56023" y="58.109372"/>
     <use style="stroke:#000000;stroke-width:1.5;" x="474.751422" xlink:href="#mbd4ce56023" y="40.878752"/>
     <use style="stroke:#000000;stroke-width:1.5;" x="479.743532" xlink:href="#mbd4ce56023" y="36.912492"/>
     <use style="stroke:#000000;stroke-width:1.5;" x="458.089009" xlink:href="#mbd4ce56023" y="48.741306"/>
     <use style="stroke:#000000;stroke-width:1.5;" x="428.461299" xlink:href="#mbd4ce56023" y="55.890508"/>
     <use style="stroke:#000000;stroke-width:1.5;" x="454.296773" xlink:href="#mbd4ce56023" y="50.412756"/>
     <use style="stroke:#000000;stroke-width:1.5;" x="450.106665" xlink:href="#mbd4ce56023" y="52.856268"/>
    </g>
   </g>
  </g>
 </g>
 <defs>
  <clipPath id="p1714bdb29a">
   <rect height="108.72" width="613.8" x="55.16" y="7.2"/>
  </clipPath>
 </defs>
</svg>
