<?xml version="1.0" encoding="utf-8" standalone="no"?>
<!DOCTYPE svg PUBLIC "-//W3C//DTD SVG 1.1//EN"
  "http://www.w3.org/Graphics/SVG/1.1/DTD/svg11.dtd">
<!-- Created with matplotlib (https://matplotlib.org/) -->
<svg height="238.305313pt" version="1.1" viewBox="0 0 619.69 238.305313" width="619.69pt" xmlns="http://www.w3.org/2000/svg" xmlns:xlink="http://www.w3.org/1999/xlink">
 <defs>
  <style type="text/css">
*{stroke-linecap:butt;stroke-linejoin:round;}
  </style>
 </defs>
 <g id="figure_1">
  <g id="patch_1">
   <path d="M 0 238.305313 
L 619.69 238.305313 
L 619.69 0 
L 0 0 
z
" style="fill:none;"/>
  </g>
  <g id="axes_1">
   <g id="patch_2">
    <path d="M 50.99 191.305313 
L 608.99 191.305313 
L 608.99 28.225313 
L 50.99 28.225313 
z
" style="fill:#ffffff;"/>
   </g>
   <g id="matplotlib.axis_1">
    <g id="xtick_1">
     <g id="line2d_1">
      <defs>
       <path d="M 0 0 
L 0 3.5 
" id="mf3ac7c9569" style="stroke:#000000;stroke-width:0.8;"/>
      </defs>
      <g>
       <use style="stroke:#000000;stroke-width:0.8;" x="50.99" xlink:href="#mf3ac7c9569" y="191.305313"/>
      </g>
     </g>
     <g id="text_1">
      <!-- −8 -->
      <defs>
       <path d="M 62.09375 22 
L 6.40625 22 
L 6.40625 28.59375 
L 62.09375 28.59375 
z
" id="STIXGeneral-Regular-8722"/>
       <path d="M 44.5 15.5 
Q 44.5 7.796875 39.140625 3.1875 
Q 33.796875 -1.40625 24.796875 -1.40625 
Q 16.40625 -1.40625 11 3.1875 
Q 5.59375 7.796875 5.59375 14.90625 
Q 5.59375 20.203125 8.1875 23.953125 
Q 10.796875 27.703125 18.59375 33.203125 
Q 11.09375 39.40625 8.640625 43.203125 
Q 6.203125 47 6.203125 52 
Q 6.203125 59.09375 11.640625 63.34375 
Q 17.09375 67.59375 25.59375 67.59375 
Q 32.90625 67.59375 37.65625 63.4375 
Q 42.40625 59.296875 42.40625 53.296875 
Q 42.40625 47.796875 39.546875 44.5 
Q 36.703125 41.203125 29 37.09375 
Q 38 31.09375 41.25 26.390625 
Q 44.5 21.703125 44.5 15.5 
z
M 35.5 53.296875 
Q 35.5 58.5 32.59375 61.640625 
Q 29.703125 64.796875 24.59375 64.796875 
Q 19.5 64.796875 16.546875 62.140625 
Q 13.59375 59.5 13.59375 54.890625 
Q 13.59375 50.296875 16.546875 46.546875 
Q 19.5 42.796875 26.09375 38.90625 
Q 31.203125 41.90625 33.34375 45.25 
Q 35.5 48.59375 35.5 53.296875 
z
M 27.09375 27.203125 
L 21.203125 31.203125 
Q 16.796875 27.59375 15 24.140625 
Q 13.203125 20.703125 13.203125 15.796875 
Q 13.203125 9 16.640625 5.203125 
Q 20.09375 1.40625 25.90625 1.40625 
Q 30.796875 1.40625 33.84375 4.453125 
Q 36.90625 7.5 36.90625 12.40625 
Q 36.90625 16.90625 34.59375 20.296875 
Q 32.296875 23.703125 27.09375 27.203125 
z
" id="STIXGeneral-Regular-56"/>
      </defs>
      <g transform="translate(42.695 207.866875)scale(0.14 -0.14)">
       <use xlink:href="#STIXGeneral-Regular-8722"/>
       <use x="68.499985" xlink:href="#STIXGeneral-Regular-56"/>
      </g>
     </g>
    </g>
    <g id="xtick_2">
     <g id="line2d_2">
      <g>
       <use style="stroke:#000000;stroke-width:0.8;" x="190.49" xlink:href="#mf3ac7c9569" y="191.305313"/>
      </g>
     </g>
     <g id="text_2">
      <!-- −4 -->
      <defs>
       <path d="M 47.296875 16.703125 
L 37 16.703125 
L 37 0 
L 29.203125 0 
L 29.203125 16.703125 
L 1.203125 16.703125 
L 1.203125 23.09375 
L 32.59375 67.59375 
L 37 67.59375 
L 37 23.09375 
L 47.296875 23.09375 
z
M 29.203125 23.09375 
L 29.203125 57.40625 
L 5.203125 23.09375 
z
" id="STIXGeneral-Regular-52"/>
      </defs>
      <g transform="translate(182.195 207.866875)scale(0.14 -0.14)">
       <use xlink:href="#STIXGeneral-Regular-8722"/>
       <use x="68.499985" xlink:href="#STIXGeneral-Regular-52"/>
      </g>
     </g>
    </g>
    <g id="xtick_3">
     <g id="line2d_3">
      <g>
       <use style="stroke:#000000;stroke-width:0.8;" x="329.99" xlink:href="#mf3ac7c9569" y="191.305313"/>
      </g>
     </g>
     <g id="text_3">
      <!-- 0 -->
      <defs>
       <path d="M 47.59375 33 
Q 47.59375 26.296875 46.296875 20.34375 
Q 45 14.40625 42.453125 9.40625 
Q 39.90625 4.40625 35.40625 1.5 
Q 30.90625 -1.40625 25 -1.40625 
Q 18.90625 -1.40625 14.296875 1.6875 
Q 9.703125 4.796875 7.203125 10 
Q 4.703125 15.203125 3.546875 21.09375 
Q 2.40625 27 2.40625 33.59375 
Q 2.40625 42.90625 4.703125 50.34375 
Q 7 57.796875 12.34375 62.6875 
Q 17.703125 67.59375 25.40625 67.59375 
Q 35.203125 67.59375 41.390625 58 
Q 47.59375 48.40625 47.59375 33 
z
M 38 32.5 
Q 38 48.296875 34.640625 56.640625 
Q 31.296875 65 24.796875 65 
Q 18.59375 65 15.296875 56.59375 
Q 12 48.203125 12 32.90625 
Q 12 17.5 15.296875 9.34375 
Q 18.59375 1.203125 25 1.203125 
Q 31.296875 1.203125 34.640625 9.34375 
Q 38 17.5 38 32.5 
z
" id="STIXGeneral-Regular-48"/>
      </defs>
      <g transform="translate(326.49 207.866875)scale(0.14 -0.14)">
       <use xlink:href="#STIXGeneral-Regular-48"/>
      </g>
     </g>
    </g>
    <g id="xtick_4">
     <g id="line2d_4">
      <g>
       <use style="stroke:#000000;stroke-width:0.8;" x="469.49" xlink:href="#mf3ac7c9569" y="191.305313"/>
      </g>
     </g>
     <g id="text_4">
      <!-- 4 -->
      <g transform="translate(465.99 207.866875)scale(0.14 -0.14)">
       <use xlink:href="#STIXGeneral-Regular-52"/>
      </g>
     </g>
    </g>
    <g id="xtick_5">
     <g id="line2d_5">
      <g>
       <use style="stroke:#000000;stroke-width:0.8;" x="608.99" xlink:href="#mf3ac7c9569" y="191.305313"/>
      </g>
     </g>
     <g id="text_5">
      <!-- 8 -->
      <g transform="translate(605.49 207.866875)scale(0.14 -0.14)">
       <use xlink:href="#STIXGeneral-Regular-56"/>
      </g>
     </g>
    </g>
    <g id="text_6">
     <!-- $x$ -->
     <defs>
      <path d="M 24.296875 35.5 
L 25.5 29.796875 
Q 30.796875 37.90625 34.046875 41 
Q 37.296875 44.09375 40.59375 44.09375 
Q 42.40625 44.09375 43.546875 43.046875 
Q 44.703125 42 44.703125 40.390625 
Q 44.703125 38.796875 43.75 37.796875 
Q 42.796875 36.796875 41.296875 36.796875 
Q 40.40625 36.796875 38.90625 37.640625 
Q 37.40625 38.5 36.09375 38.5 
Q 33.203125 38.5 26.296875 26.40625 
Q 26.296875 25.09375 27.09375 21.90625 
L 30.296875 8.5 
Q 31.296875 4.40625 33.296875 4.40625 
Q 34.90625 4.40625 38 8.40625 
Q 38.296875 8.796875 38.6875 9.34375 
Q 39.09375 9.90625 39.390625 10.34375 
Q 39.703125 10.796875 40.09375 11.203125 
L 41.59375 10.296875 
Q 37.296875 3.59375 34.796875 1.25 
Q 32.296875 -1.09375 29.40625 -1.09375 
Q 27 -1.09375 25.703125 0.40625 
Q 24.40625 1.90625 23.5 5.703125 
L 20.59375 17.59375 
L 11.796875 5.703125 
Q 8.703125 1.5 6.75 0.203125 
Q 4.796875 -1.09375 2.296875 -1.09375 
Q 0 -1.09375 -1.34375 0 
Q -2.703125 1.09375 -2.703125 3.09375 
Q -2.703125 4.59375 -1.75 5.640625 
Q -0.796875 6.703125 0.703125 6.703125 
Q 1.90625 6.703125 3.90625 5.59375 
Q 5.40625 4.703125 6.5 4.703125 
Q 8.203125 4.703125 11.59375 9.59375 
L 19.796875 21.203125 
L 17 33.59375 
Q 16 38 15.140625 39.203125 
Q 14.296875 40.40625 12.40625 40.40625 
Q 11.203125 40.40625 8.5 39.703125 
L 6.703125 39.203125 
L 6.40625 40.796875 
L 7.5 41.203125 
Q 15.5 44.09375 19.203125 44.09375 
Q 21.09375 44.09375 22.1875 42.296875 
Q 23.296875 40.5 24.296875 35.5 
z
" id="STIXGeneral-Italic-120"/>
     </defs>
     <g transform="translate(325.94 227.19875)scale(0.18 -0.18)">
      <use transform="translate(0 0.90625)" xlink:href="#STIXGeneral-Italic-120"/>
     </g>
    </g>
   </g>
   <g id="matplotlib.axis_2">
    <g id="ytick_1">
     <g id="line2d_6">
      <defs>
       <path d="M 0 0 
L -3.5 0 
" id="m9f4ea9c069" style="stroke:#000000;stroke-width:0.8;"/>
      </defs>
      <g>
       <use style="stroke:#000000;stroke-width:0.8;" x="50.99" xlink:href="#m9f4ea9c069" y="191.305313"/>
      </g>
     </g>
     <g id="text_7">
      <!-- −8 -->
      <g transform="translate(27.4 196.086094)scale(0.14 -0.14)">
       <use xlink:href="#STIXGeneral-Regular-8722"/>
       <use x="68.499985" xlink:href="#STIXGeneral-Regular-56"/>
      </g>
     </g>
    </g>
    <g id="ytick_2">
     <g id="line2d_7">
      <g>
       <use style="stroke:#000000;stroke-width:0.8;" x="50.99" xlink:href="#m9f4ea9c069" y="150.535313"/>
      </g>
     </g>
     <g id="text_8">
      <!-- −4 -->
      <g transform="translate(27.4 155.316094)scale(0.14 -0.14)">
       <use xlink:href="#STIXGeneral-Regular-8722"/>
       <use x="68.499985" xlink:href="#STIXGeneral-Regular-52"/>
      </g>
     </g>
    </g>
    <g id="ytick_3">
     <g id="line2d_8">
      <g>
       <use style="stroke:#000000;stroke-width:0.8;" x="50.99" xlink:href="#m9f4ea9c069" y="109.765312"/>
      </g>
     </g>
     <g id="text_9">
      <!-- 0 -->
      <g transform="translate(36.99 114.546094)scale(0.14 -0.14)">
       <use xlink:href="#STIXGeneral-Regular-48"/>
      </g>
     </g>
    </g>
    <g id="ytick_4">
     <g id="line2d_9">
      <g>
       <use style="stroke:#000000;stroke-width:0.8;" x="50.99" xlink:href="#m9f4ea9c069" y="68.995312"/>
      </g>
     </g>
     <g id="text_10">
      <!-- 4 -->
      <g transform="translate(36.99 73.776094)scale(0.14 -0.14)">
       <use xlink:href="#STIXGeneral-Regular-52"/>
      </g>
     </g>
    </g>
    <g id="ytick_5">
     <g id="line2d_10">
      <g>
       <use style="stroke:#000000;stroke-width:0.8;" x="50.99" xlink:href="#m9f4ea9c069" y="28.225312"/>
      </g>
     </g>
     <g id="text_11">
      <!-- 8 -->
      <g transform="translate(36.99 33.006094)scale(0.14 -0.14)">
       <use xlink:href="#STIXGeneral-Regular-56"/>
      </g>
     </g>
    </g>
    <g id="text_12">
     <!-- $y$ -->
     <defs>
      <path d="M 24.296875 18.59375 
L 26.40625 7.59375 
Q 33.09375 18.59375 35.84375 24.34375 
Q 38.59375 30.09375 38.59375 33.296875 
Q 38.59375 34.90625 36 36.5 
Q 33.40625 38.203125 33.40625 40.40625 
Q 33.40625 42 34.546875 43.046875 
Q 35.703125 44.09375 37.40625 44.09375 
Q 39.59375 44.09375 41.09375 42.5 
Q 42.59375 40.90625 42.59375 38.59375 
Q 42.59375 29.90625 29.5 8.09375 
Q 21.703125 -4.796875 14.34375 -12.6875 
Q 7 -20.59375 2.703125 -20.59375 
Q 0.40625 -20.59375 -1 -19.390625 
Q -2.40625 -18.203125 -2.40625 -16.296875 
Q -2.40625 -14.59375 -1.25 -13.4375 
Q -0.09375 -12.296875 1.5 -12.296875 
Q 3.40625 -12.296875 4.90625 -13.6875 
Q 6.40625 -15.09375 7.59375 -15.09375 
Q 9.40625 -15.09375 12.40625 -11.796875 
Q 13.703125 -10.5 16.25 -7.140625 
Q 18.796875 -3.796875 19.5 -2.703125 
Q 20.5 -0.703125 20.5 0.796875 
Q 20.5 3.796875 17.390625 16.34375 
Q 14.296875 28.90625 12.296875 34 
Q 10.90625 37.703125 9.25 39.046875 
Q 7.59375 40.40625 4.59375 40.40625 
Q 3 40.40625 1.5 40 
L 1.5 41.703125 
Q 3.703125 42.09375 4.703125 42.296875 
Q 8.796875 43.09375 15.40625 44.09375 
L 15.796875 44.09375 
Q 16.90625 44.09375 19.953125 34.796875 
Q 23 25.5 24.296875 18.59375 
z
" id="STIXGeneral-Italic-121"/>
     </defs>
     <g transform="translate(19.493438 113.815312)rotate(-90)scale(0.18 -0.18)">
      <use transform="translate(0 0.90625)" xlink:href="#STIXGeneral-Italic-121"/>
     </g>
    </g>
   </g>
   <g id="line2d_11">
    <path clip-path="url(#pdb542b30b4)" d="M 50.99 130.261129 
L 56.626364 130.269156 
L 62.262727 130.2833 
L 67.899091 130.307421 
L 73.535455 130.347175 
L 79.171818 130.410375 
L 84.808182 130.507045 
L 90.444545 130.648838 
L 96.080909 130.84737 
L 101.717273 131.111063 
L 107.353636 131.440293 
L 112.99 131.821186 
L 118.626364 132.219112 
L 124.262727 132.573719 
L 129.899091 132.79775 
L 135.535455 132.781639 
L 141.171818 132.404952 
L 146.808182 131.554166 
L 152.444545 130.144596 
L 158.080909 128.142722 
L 163.717273 125.584401 
L 169.353636 122.584678 
L 174.99 119.336691 
L 180.626364 116.099374 
L 186.262727 113.16845 
L 191.899091 110.789575 
L 197.535455 109.000329 
L 203.171818 107.662873 
L 208.808182 106.669205 
L 214.444545 105.958872 
L 220.080909 105.444171 
L 225.717273 104.980587 
L 231.353636 104.393983 
L 236.99 103.536464 
L 242.626364 102.3373 
L 248.262727 100.831352 
L 253.899091 99.163125 
L 259.535455 97.568863 
L 265.171818 96.339174 
L 270.808182 95.767269 
L 276.444545 96.092774 
L 282.080909 97.454003 
L 287.717273 99.859519 
L 293.353636 103.183454 
L 298.99 107.182164 
L 304.626364 111.525315 
L 310.262727 115.833408 
L 315.899091 119.716749 
L 321.535455 122.816424 
L 327.171818 124.848796 
L 332.808182 125.647796 
L 338.444545 125.192636 
L 344.080909 123.611001 
L 349.717273 121.156459 
L 355.353636 118.167989 
L 360.99 115.023098 
L 366.626364 112.091125 
L 372.262727 109.68773 
L 377.899091 108.03322 
L 383.535455 107.223145 
L 389.171818 107.222275 
L 394.808182 107.887912 
L 400.444545 109.016369 
L 406.080909 110.396237 
L 411.717273 111.850712 
L 417.353636 113.258059 
L 422.99 114.551204 
L 428.626364 115.707408 
L 434.262727 116.736322 
L 439.899091 117.664223 
L 445.535455 118.511356 
L 451.171818 119.272505 
L 456.808182 119.926481 
L 462.444545 120.498596 
L 468.080909 121.136865 
L 473.717273 122.020817 
L 479.353636 123.162487 
L 484.99 124.452148 
L 490.626364 125.770402 
L 496.262727 127.017842 
L 501.899091 128.118613 
L 507.535455 129.022917 
L 513.171818 129.708604 
L 518.808182 130.179784 
L 524.444545 130.461938 
L 530.080909 130.594348 
L 535.717273 130.621533 
L 541.353636 130.585509 
L 546.99 130.520361 
L 552.626364 130.449792 
L 558.262727 130.387398 
L 563.899091 130.338779 
L 569.535455 130.30432 
L 575.171818 130.281745 
L 580.808182 130.267949 
L 586.444545 130.260044 
L 592.080909 130.255791 
L 597.717273 130.253644 
L 603.353636 130.252634 
L 608.99 130.252197 
" style="fill:none;stroke:#800080;stroke-dasharray:5.55,2.4;stroke-dashoffset:0;stroke-width:1.5;"/>
   </g>
   <g id="line2d_12">
    <path clip-path="url(#pdb542b30b4)" d="M 50.99 109.774467 
L 56.626364 109.782514 
L 62.262727 109.796725 
L 67.899091 109.821044 
L 73.535455 109.861351 
L 79.171818 109.926008 
L 84.808182 110.026295 
L 90.444545 110.176546 
L 96.080909 110.393693 
L 101.717273 110.695914 
L 107.353636 111.100115 
L 112.99 111.618117 
L 118.626364 112.25173 
L 124.262727 112.987305 
L 129.899091 113.790842 
L 135.535455 114.605127 
L 141.171818 115.350514 
L 146.808182 115.930678 
L 152.444545 116.24385 
L 158.080909 116.198737 
L 163.717273 115.732755 
L 169.353636 114.828826 
L 174.99 113.5263 
L 180.626364 111.921936 
L 186.262727 110.158597 
L 191.899091 108.402111 
L 197.535455 106.809978 
L 203.171818 105.498464 
L 208.808182 104.516018 
L 214.444545 103.830426 
L 220.080909 103.334382 
L 225.717273 102.869919 
L 231.353636 102.267316 
L 236.99 101.390146 
L 242.626364 100.176062 
L 248.262727 98.663458 
L 253.899091 96.997143 
L 259.535455 95.410929 
L 265.171818 94.190238 
L 270.808182 93.622197 
L 276.444545 93.943215 
L 282.080909 95.294087 
L 287.717273 97.690637 
L 293.353636 101.014356 
L 298.99 105.0235 
L 304.626364 109.381717 
L 310.262727 113.698994 
L 315.899091 117.578827 
L 321.535455 120.665642 
L 327.171818 122.687206 
L 332.808182 123.487506 
L 338.444545 123.046328 
L 344.080909 121.482563 
L 349.717273 119.039615 
L 355.353636 116.053376 
L 360.99 112.906179 
L 366.626364 109.973169 
L 372.262727 107.569969 
L 377.899091 105.911202 
L 383.535455 105.087843 
L 389.171818 105.067631 
L 394.808182 105.7176 
L 400.444545 106.842743 
L 406.080909 108.231235 
L 411.717273 109.695603 
L 417.353636 111.101046 
L 422.99 112.376124 
L 428.626364 113.505981 
L 434.262727 114.51277 
L 439.899091 115.430655 
L 445.535455 116.283166 
L 451.171818 117.068922 
L 456.808182 117.758497 
L 462.444545 118.3017 
L 468.080909 118.641741 
L 473.717273 118.731323 
L 479.353636 118.545946 
L 484.99 118.091135 
L 490.626364 117.402415 
L 496.262727 116.538939 
L 501.899091 115.573076 
L 507.535455 114.578844 
L 513.171818 113.621808 
L 518.808182 112.75215 
L 524.444545 112.00159 
L 530.080909 111.383824 
L 535.717273 110.897517 
L 541.353636 110.530635 
L 546.99 110.265002 
L 552.626364 110.080257 
L 558.262727 109.95677 
L 563.899091 109.877436 
L 569.535455 109.828461 
L 575.171818 109.799434 
L 580.808182 109.782939 
L 586.444545 109.773971 
L 592.080909 109.769323 
L 597.717273 109.767038 
L 603.353636 109.765983 
L 608.99 109.765531 
" style="fill:none;stroke:#800080;stroke-linecap:square;stroke-width:1.5;"/>
   </g>
   <g id="line2d_13">
    <path clip-path="url(#pdb542b30b4)" d="M 50.99 89.287804 
L 56.626364 89.295873 
L 62.262727 89.310151 
L 67.899091 89.334668 
L 73.535455 89.375528 
L 79.171818 89.441641 
L 84.808182 89.545545 
L 90.444545 89.704255 
L 96.080909 89.940015 
L 101.717273 90.280765 
L 107.353636 90.759937 
L 112.99 91.415049 
L 118.626364 92.284349 
L 124.262727 93.400891 
L 129.899091 94.783934 
L 135.535455 96.428616 
L 141.171818 98.296077 
L 146.808182 100.307189 
L 152.444545 102.343103 
L 158.080909 104.254752 
L 163.717273 105.881108 
L 169.353636 107.072973 
L 174.99 107.715909 
L 180.626364 107.744498 
L 186.262727 107.148744 
L 191.899091 106.014646 
L 197.535455 104.619627 
L 203.171818 103.334055 
L 208.808182 102.362831 
L 214.444545 101.701979 
L 220.080909 101.224592 
L 225.717273 100.759251 
L 231.353636 100.140649 
L 236.99 99.243827 
L 242.626364 98.014824 
L 248.262727 96.495564 
L 253.899091 94.831161 
L 259.535455 93.252996 
L 265.171818 92.041301 
L 270.808182 91.477125 
L 276.444545 91.793657 
L 282.080909 93.134171 
L 287.717273 95.521755 
L 293.353636 98.845257 
L 298.99 102.864836 
L 304.626364 107.238119 
L 310.262727 111.564581 
L 315.899091 115.440904 
L 321.535455 118.51486 
L 327.171818 120.525617 
L 332.808182 121.327217 
L 338.444545 120.900019 
L 344.080909 119.354126 
L 349.717273 116.92277 
L 355.353636 113.938763 
L 360.99 110.78926 
L 366.626364 107.855213 
L 372.262727 105.452209 
L 377.899091 103.789184 
L 383.535455 102.952542 
L 389.171818 102.912988 
L 394.808182 103.547287 
L 400.444545 104.669117 
L 406.080909 106.066234 
L 411.717273 107.540494 
L 417.353636 108.944034 
L 422.99 110.201044 
L 428.626364 111.304554 
L 434.262727 112.289219 
L 439.899091 113.197086 
L 445.535455 114.054976 
L 451.171818 114.86534 
L 456.808182 115.590512 
L 462.444545 116.104804 
L 468.080909 116.146617 
L 473.717273 115.441829 
L 479.353636 113.929406 
L 484.99 111.730122 
L 490.626364 109.034428 
L 496.262727 106.060036 
L 501.899091 103.027538 
L 507.535455 100.134771 
L 513.171818 97.535013 
L 518.808182 95.324515 
L 524.444545 93.541242 
L 530.080909 92.173301 
L 535.717273 91.173501 
L 541.353636 90.475761 
L 546.99 90.009643 
L 552.626364 89.710722 
L 558.262727 89.526142 
L 563.899091 89.416092 
L 569.535455 89.352602 
L 575.171818 89.317123 
L 580.808182 89.297929 
L 586.444545 89.287899 
L 592.080909 89.282856 
L 597.717273 89.280432 
L 603.353636 89.279331 
L 608.99 89.278866 
" style="fill:none;stroke:#800080;stroke-dasharray:5.55,2.4;stroke-dashoffset:0;stroke-width:1.5;"/>
   </g>
   <g id="patch_3">
    <path d="M 50.99 191.305313 
L 50.99 28.225312 
" style="fill:none;stroke:#000000;stroke-linecap:square;stroke-linejoin:miter;stroke-width:0.8;"/>
   </g>
   <g id="patch_4">
    <path d="M 608.99 191.305313 
L 608.99 28.225312 
" style="fill:none;stroke:#000000;stroke-linecap:square;stroke-linejoin:miter;stroke-width:0.8;"/>
   </g>
   <g id="patch_5">
    <path d="M 50.99 191.305313 
L 608.99 191.305313 
" style="fill:none;stroke:#000000;stroke-linecap:square;stroke-linejoin:miter;stroke-width:0.8;"/>
   </g>
   <g id="patch_6">
    <path d="M 50.99 28.225313 
L 608.99 28.225313 
" style="fill:none;stroke:#000000;stroke-linecap:square;stroke-linejoin:miter;stroke-width:0.8;"/>
   </g>
   <g id="PathCollection_1">
    <defs>
     <path d="M -3 0 
L 3 0 
M 0 3 
L 0 -3 
" id="m7e3ed8fdac" style="stroke:#ff0000;stroke-width:1.5;"/>
    </defs>
    <g clip-path="url(#pdb542b30b4)">
     <use style="fill:#ff0000;stroke:#ff0000;stroke-width:1.5;" x="343.608968" xlink:href="#m7e3ed8fdac" y="121.700333"/>
     <use style="fill:#ff0000;stroke:#ff0000;stroke-width:1.5;" x="390.027833" xlink:href="#m7e3ed8fdac" y="106.215193"/>
     <use style="fill:#ff0000;stroke:#ff0000;stroke-width:1.5;" x="358.660982" xlink:href="#m7e3ed8fdac" y="116.195416"/>
     <use style="fill:#ff0000;stroke:#ff0000;stroke-width:1.5;" x="342.512408" xlink:href="#m7e3ed8fdac" y="123.935325"/>
     <use style="fill:#ff0000;stroke:#ff0000;stroke-width:1.5;" x="308.689689" xlink:href="#m7e3ed8fdac" y="113.894601"/>
     <use style="fill:#ff0000;stroke:#ff0000;stroke-width:1.5;" x="370.694458" xlink:href="#m7e3ed8fdac" y="108.125024"/>
     <use style="fill:#ff0000;stroke:#ff0000;stroke-width:1.5;" x="312.576832" xlink:href="#m7e3ed8fdac" y="114.583391"/>
     <use style="fill:#ff0000;stroke:#ff0000;stroke-width:1.5;" x="439.294667" xlink:href="#m7e3ed8fdac" y="115.845509"/>
     <use style="fill:#ff0000;stroke:#ff0000;stroke-width:1.5;" x="459.35191" xlink:href="#m7e3ed8fdac" y="119.375261"/>
     <use style="fill:#ff0000;stroke:#ff0000;stroke-width:1.5;" x="297.470184" xlink:href="#m7e3ed8fdac" y="105.382879"/>
     <use style="fill:#ff0000;stroke:#ff0000;stroke-width:1.5;" x="411.381286" xlink:href="#m7e3ed8fdac" y="110.467319"/>
     <use style="fill:#ff0000;stroke:#ff0000;stroke-width:1.5;" x="338.051683" xlink:href="#m7e3ed8fdac" y="122.097611"/>
     <use style="fill:#ff0000;stroke:#ff0000;stroke-width:1.5;" x="348.974433" xlink:href="#m7e3ed8fdac" y="119.940096"/>
     <use style="fill:#ff0000;stroke:#ff0000;stroke-width:1.5;" x="448.731462" xlink:href="#m7e3ed8fdac" y="116.354649"/>
     <use style="fill:#ff0000;stroke:#ff0000;stroke-width:1.5;" x="210.30906" xlink:href="#m7e3ed8fdac" y="104.81996"/>
     <use style="fill:#ff0000;stroke:#ff0000;stroke-width:1.5;" x="214.799075" xlink:href="#m7e3ed8fdac" y="103.114573"/>
     <use style="fill:#ff0000;stroke:#ff0000;stroke-width:1.5;" x="196.130933" xlink:href="#m7e3ed8fdac" y="107.298899"/>
     <use style="fill:#ff0000;stroke:#ff0000;stroke-width:1.5;" x="422.790937" xlink:href="#m7e3ed8fdac" y="110.43735"/>
     <use style="fill:#ff0000;stroke:#ff0000;stroke-width:1.5;" x="407.595734" xlink:href="#m7e3ed8fdac" y="108.411279"/>
     <use style="fill:#ff0000;stroke:#ff0000;stroke-width:1.5;" x="433.223389" xlink:href="#m7e3ed8fdac" y="113.33487"/>
     <use style="fill:#ff0000;stroke:#ff0000;stroke-width:1.5;" x="463.524517" xlink:href="#m7e3ed8fdac" y="116.644466"/>
     <use style="fill:#ff0000;stroke:#ff0000;stroke-width:1.5;" x="413.455239" xlink:href="#m7e3ed8fdac" y="111.244262"/>
     <use style="fill:#ff0000;stroke:#ff0000;stroke-width:1.5;" x="319.242742" xlink:href="#m7e3ed8fdac" y="120.620595"/>
     <use style="fill:#ff0000;stroke:#ff0000;stroke-width:1.5;" x="408.25764" xlink:href="#m7e3ed8fdac" y="107.831641"/>
     <use style="fill:#ff0000;stroke:#ff0000;stroke-width:1.5;" x="223.488565" xlink:href="#m7e3ed8fdac" y="103.955751"/>
     <use style="fill:#ff0000;stroke:#ff0000;stroke-width:1.5;" x="369.027965" xlink:href="#m7e3ed8fdac" y="107.698952"/>
     <use style="fill:#ff0000;stroke:#ff0000;stroke-width:1.5;" x="230.485567" xlink:href="#m7e3ed8fdac" y="103.659497"/>
     <use style="fill:#ff0000;stroke:#ff0000;stroke-width:1.5;" x="454.052628" xlink:href="#m7e3ed8fdac" y="118.198086"/>
     <use style="fill:#ff0000;stroke:#ff0000;stroke-width:1.5;" x="336.085682" xlink:href="#m7e3ed8fdac" y="121.492928"/>
     <use style="fill:#ff0000;stroke:#ff0000;stroke-width:1.5;" x="306.180681" xlink:href="#m7e3ed8fdac" y="109.696635"/>
     <use style="fill:#ff0000;stroke:#ff0000;stroke-width:1.5;" x="264.301016" xlink:href="#m7e3ed8fdac" y="93.609062"/>
     <use style="fill:#ff0000;stroke:#ff0000;stroke-width:1.5;" x="406.501199" xlink:href="#m7e3ed8fdac" y="107.270508"/>
     <use style="fill:#ff0000;stroke:#ff0000;stroke-width:1.5;" x="317.755943" xlink:href="#m7e3ed8fdac" y="119.571599"/>
     <use style="fill:#ff0000;stroke:#ff0000;stroke-width:1.5;" x="349.083072" xlink:href="#m7e3ed8fdac" y="117.403702"/>
     <use style="fill:#ff0000;stroke:#ff0000;stroke-width:1.5;" x="195.732354" xlink:href="#m7e3ed8fdac" y="107.28446"/>
     <use style="fill:#ff0000;stroke:#ff0000;stroke-width:1.5;" x="362.810304" xlink:href="#m7e3ed8fdac" y="111.234287"/>
     <use style="fill:#ff0000;stroke:#ff0000;stroke-width:1.5;" x="361.264707" xlink:href="#m7e3ed8fdac" y="111.702078"/>
     <use style="fill:#ff0000;stroke:#ff0000;stroke-width:1.5;" x="362.614585" xlink:href="#m7e3ed8fdac" y="112.06102"/>
     <use style="fill:#ff0000;stroke:#ff0000;stroke-width:1.5;" x="453.795714" xlink:href="#m7e3ed8fdac" y="116.834667"/>
     <use style="fill:#ff0000;stroke:#ff0000;stroke-width:1.5;" x="380.717863" xlink:href="#m7e3ed8fdac" y="104.661837"/>
     <use style="fill:#ff0000;stroke:#ff0000;stroke-width:1.5;" x="290.792704" xlink:href="#m7e3ed8fdac" y="99.678129"/>
     <use style="fill:#ff0000;stroke:#ff0000;stroke-width:1.5;" x="312.421915" xlink:href="#m7e3ed8fdac" y="116.82032"/>
     <use style="fill:#ff0000;stroke:#ff0000;stroke-width:1.5;" x="385.129104" xlink:href="#m7e3ed8fdac" y="104.786441"/>
     <use style="fill:#ff0000;stroke:#ff0000;stroke-width:1.5;" x="207.292907" xlink:href="#m7e3ed8fdac" y="103.610754"/>
     <use style="fill:#ff0000;stroke:#ff0000;stroke-width:1.5;" x="376.517914" xlink:href="#m7e3ed8fdac" y="107.002536"/>
     <use style="fill:#ff0000;stroke:#ff0000;stroke-width:1.5;" x="377.597966" xlink:href="#m7e3ed8fdac" y="106.267635"/>
     <use style="fill:#ff0000;stroke:#ff0000;stroke-width:1.5;" x="249.186735" xlink:href="#m7e3ed8fdac" y="99.011401"/>
     <use style="fill:#ff0000;stroke:#ff0000;stroke-width:1.5;" x="226.460437" xlink:href="#m7e3ed8fdac" y="101.228024"/>
     <use style="fill:#ff0000;stroke:#ff0000;stroke-width:1.5;" x="278.49451" xlink:href="#m7e3ed8fdac" y="93.711131"/>
     <use style="fill:#ff0000;stroke:#ff0000;stroke-width:1.5;" x="291.965305" xlink:href="#m7e3ed8fdac" y="99.995909"/>
     <use style="fill:#ff0000;stroke:#ff0000;stroke-width:1.5;" x="349.574899" xlink:href="#m7e3ed8fdac" y="119.595754"/>
     <use style="fill:#ff0000;stroke:#ff0000;stroke-width:1.5;" x="312.859822" xlink:href="#m7e3ed8fdac" y="115.509122"/>
     <use style="fill:#ff0000;stroke:#ff0000;stroke-width:1.5;" x="466.246301" xlink:href="#m7e3ed8fdac" y="118.842077"/>
     <use style="fill:#ff0000;stroke:#ff0000;stroke-width:1.5;" x="218.960502" xlink:href="#m7e3ed8fdac" y="103.391415"/>
     <use style="fill:#ff0000;stroke:#ff0000;stroke-width:1.5;" x="248.766615" xlink:href="#m7e3ed8fdac" y="99.338232"/>
     <use style="fill:#ff0000;stroke:#ff0000;stroke-width:1.5;" x="235.495355" xlink:href="#m7e3ed8fdac" y="101.187552"/>
     <use style="fill:#ff0000;stroke:#ff0000;stroke-width:1.5;" x="372.707223" xlink:href="#m7e3ed8fdac" y="106.870427"/>
     <use style="fill:#ff0000;stroke:#ff0000;stroke-width:1.5;" x="261.158357" xlink:href="#m7e3ed8fdac" y="95.254315"/>
     <use style="fill:#ff0000;stroke:#ff0000;stroke-width:1.5;" x="320.590706" xlink:href="#m7e3ed8fdac" y="120.110979"/>
     <use style="fill:#ff0000;stroke:#ff0000;stroke-width:1.5;" x="258.68474" xlink:href="#m7e3ed8fdac" y="96.97829"/>
     <use style="fill:#ff0000;stroke:#ff0000;stroke-width:1.5;" x="234.842514" xlink:href="#m7e3ed8fdac" y="103.627752"/>
     <use style="fill:#ff0000;stroke:#ff0000;stroke-width:1.5;" x="221.284664" xlink:href="#m7e3ed8fdac" y="102.831014"/>
     <use style="fill:#ff0000;stroke:#ff0000;stroke-width:1.5;" x="373.605955" xlink:href="#m7e3ed8fdac" y="106.954459"/>
     <use style="fill:#ff0000;stroke:#ff0000;stroke-width:1.5;" x="229.043043" xlink:href="#m7e3ed8fdac" y="102.117858"/>
     <use style="fill:#ff0000;stroke:#ff0000;stroke-width:1.5;" x="245.336479" xlink:href="#m7e3ed8fdac" y="97.38744"/>
     <use style="fill:#ff0000;stroke:#ff0000;stroke-width:1.5;" x="293.364323" xlink:href="#m7e3ed8fdac" y="100.269003"/>
     <use style="fill:#ff0000;stroke:#ff0000;stroke-width:1.5;" x="419.547111" xlink:href="#m7e3ed8fdac" y="112.172563"/>
     <use style="fill:#ff0000;stroke:#ff0000;stroke-width:1.5;" x="217.581256" xlink:href="#m7e3ed8fdac" y="102.228266"/>
     <use style="fill:#ff0000;stroke:#ff0000;stroke-width:1.5;" x="424.276629" xlink:href="#m7e3ed8fdac" y="113.833275"/>
     <use style="fill:#ff0000;stroke:#ff0000;stroke-width:1.5;" x="217.301456" xlink:href="#m7e3ed8fdac" y="103.812749"/>
     <use style="fill:#ff0000;stroke:#ff0000;stroke-width:1.5;" x="462.922191" xlink:href="#m7e3ed8fdac" y="118.263109"/>
     <use style="fill:#ff0000;stroke:#ff0000;stroke-width:1.5;" x="321.243685" xlink:href="#m7e3ed8fdac" y="118.920024"/>
     <use style="fill:#ff0000;stroke:#ff0000;stroke-width:1.5;" x="463.006344" xlink:href="#m7e3ed8fdac" y="119.044962"/>
     <use style="fill:#ff0000;stroke:#ff0000;stroke-width:1.5;" x="359.2419" xlink:href="#m7e3ed8fdac" y="114.625439"/>
     <use style="fill:#ff0000;stroke:#ff0000;stroke-width:1.5;" x="396.744539" xlink:href="#m7e3ed8fdac" y="106.062525"/>
     <use style="fill:#ff0000;stroke:#ff0000;stroke-width:1.5;" x="201.423394" xlink:href="#m7e3ed8fdac" y="106.39043"/>
     <use style="fill:#ff0000;stroke:#ff0000;stroke-width:1.5;" x="269.393143" xlink:href="#m7e3ed8fdac" y="92.446197"/>
     <use style="fill:#ff0000;stroke:#ff0000;stroke-width:1.5;" x="224.024841" xlink:href="#m7e3ed8fdac" y="104.070965"/>
     <use style="fill:#ff0000;stroke:#ff0000;stroke-width:1.5;" x="273.113115" xlink:href="#m7e3ed8fdac" y="94.673563"/>
     <use style="fill:#ff0000;stroke:#ff0000;stroke-width:1.5;" x="223.615034" xlink:href="#m7e3ed8fdac" y="103.505382"/>
     <use style="fill:#ff0000;stroke:#ff0000;stroke-width:1.5;" x="279.207307" xlink:href="#m7e3ed8fdac" y="95.030971"/>
     <use style="fill:#ff0000;stroke:#ff0000;stroke-width:1.5;" x="306.069375" xlink:href="#m7e3ed8fdac" y="108.688653"/>
     <use style="fill:#ff0000;stroke:#ff0000;stroke-width:1.5;" x="208.387151" xlink:href="#m7e3ed8fdac" y="103.481643"/>
     <use style="fill:#ff0000;stroke:#ff0000;stroke-width:1.5;" x="383.689721" xlink:href="#m7e3ed8fdac" y="104.979891"/>
     <use style="fill:#ff0000;stroke:#ff0000;stroke-width:1.5;" x="348.571806" xlink:href="#m7e3ed8fdac" y="120.753433"/>
     <use style="fill:#ff0000;stroke:#ff0000;stroke-width:1.5;" x="264.533668" xlink:href="#m7e3ed8fdac" y="93.461569"/>
     <use style="fill:#ff0000;stroke:#ff0000;stroke-width:1.5;" x="336.476207" xlink:href="#m7e3ed8fdac" y="124.30304"/>
     <use style="fill:#ff0000;stroke:#ff0000;stroke-width:1.5;" x="216.699403" xlink:href="#m7e3ed8fdac" y="105.160711"/>
     <use style="fill:#ff0000;stroke:#ff0000;stroke-width:1.5;" x="351.179072" xlink:href="#m7e3ed8fdac" y="117.095396"/>
     <use style="fill:#ff0000;stroke:#ff0000;stroke-width:1.5;" x="449.763639" xlink:href="#m7e3ed8fdac" y="116.584377"/>
     <use style="fill:#ff0000;stroke:#ff0000;stroke-width:1.5;" x="279.370738" xlink:href="#m7e3ed8fdac" y="93.505838"/>
     <use style="fill:#ff0000;stroke:#ff0000;stroke-width:1.5;" x="376.697496" xlink:href="#m7e3ed8fdac" y="105.840521"/>
     <use style="fill:#ff0000;stroke:#ff0000;stroke-width:1.5;" x="227.261604" xlink:href="#m7e3ed8fdac" y="101.951975"/>
     <use style="fill:#ff0000;stroke:#ff0000;stroke-width:1.5;" x="390.34529" xlink:href="#m7e3ed8fdac" y="105.795956"/>
     <use style="fill:#ff0000;stroke:#ff0000;stroke-width:1.5;" x="271.2343" xlink:href="#m7e3ed8fdac" y="94.611423"/>
     <use style="fill:#ff0000;stroke:#ff0000;stroke-width:1.5;" x="241.60039" xlink:href="#m7e3ed8fdac" y="99.760821"/>
     <use style="fill:#ff0000;stroke:#ff0000;stroke-width:1.5;" x="354.127109" xlink:href="#m7e3ed8fdac" y="117.513246"/>
     <use style="fill:#ff0000;stroke:#ff0000;stroke-width:1.5;" x="196.100005" xlink:href="#m7e3ed8fdac" y="107.800271"/>
     <use style="fill:#ff0000;stroke:#ff0000;stroke-width:1.5;" x="421.764268" xlink:href="#m7e3ed8fdac" y="112.543678"/>
     <use style="fill:#ff0000;stroke:#ff0000;stroke-width:1.5;" x="191.800038" xlink:href="#m7e3ed8fdac" y="108.417943"/>
    </g>
   </g>
   <g id="text_13">
    <!-- Synthetic data and ground truth -->
    <defs>
     <path d="M 46.90625 46.296875 
L 44.40625 46.296875 
Q 42.703125 52.5 40.296875 55.703125 
Q 34.203125 63.5 25.796875 63.5 
Q 21.203125 63.5 18.453125 60.84375 
Q 15.703125 58.203125 15.703125 54 
Q 15.703125 52 16.703125 50.09375 
Q 17.703125 48.203125 18.84375 46.84375 
Q 20 45.5 22.890625 43.5 
Q 25.796875 41.5 27.59375 40.453125 
Q 29.40625 39.40625 33.59375 36.90625 
Q 41.703125 32.203125 45.390625 27.546875 
Q 49.09375 22.90625 49.09375 17.296875 
Q 49.09375 9 43.296875 3.796875 
Q 37.5 -1.40625 28.703125 -1.40625 
Q 22.203125 -1.40625 16.90625 0.90625 
Q 14.296875 2 12.203125 2 
Q 11 2 10.203125 1.09375 
Q 9.40625 0.203125 9.40625 -1.296875 
L 7.203125 -1.296875 
L 4.296875 19.90625 
L 6.5 19.90625 
Q 13.203125 2.203125 27.09375 2.203125 
Q 32.40625 2.203125 35.703125 5.34375 
Q 39 8.5 39 13.40625 
Q 39 18.09375 36.09375 21.296875 
Q 31.296875 26.5 19.296875 32.90625 
Q 7.09375 39.40625 7.09375 50.09375 
Q 7.09375 58.09375 12 62.84375 
Q 16.90625 67.59375 24.5 67.59375 
Q 29.796875 67.59375 35 65.40625 
Q 37.703125 64.203125 39.40625 64.203125 
Q 42 64.203125 42.59375 67.59375 
L 44.703125 67.59375 
z
" id="STIXGeneral-Regular-83"/>
     <path d="M 47.5 45 
L 47.5 43.5 
Q 45.703125 43.296875 44.59375 42.1875 
Q 43.5 41.09375 42.5 38.40625 
L 27.5 -2.5 
Q 23.59375 -13.09375 19.640625 -17.4375 
Q 15.703125 -21.796875 10 -21.796875 
Q 6.796875 -21.796875 4.890625 -20.140625 
Q 3 -18.5 3 -16 
Q 3 -14.09375 4.25 -12.75 
Q 5.5 -11.40625 7.296875 -11.40625 
Q 10.203125 -11.40625 12.5 -12.703125 
Q 13.796875 -13.40625 15.09375 -13.40625 
Q 17.203125 -13.40625 20.09375 -9 
Q 21.5 -7 22.796875 -3.296875 
Q 24.09375 0.40625 24.09375 1.796875 
Q 24.09375 3.09375 19.90625 11.90625 
L 6.703125 40.09375 
Q 5.40625 43 1.40625 43.59375 
L 1.40625 45 
L 21.90625 45 
L 21.90625 43.5 
Q 18.703125 43.40625 17.453125 42.796875 
Q 16.203125 42.203125 16.203125 40.796875 
Q 16.203125 39.703125 17.5 36.703125 
L 28.703125 11.703125 
L 38.40625 39.296875 
Q 38.796875 40.203125 38.796875 41.09375 
Q 38.796875 43.5 34.203125 43.5 
L 34.203125 45 
z
" id="STIXGeneral-Regular-121"/>
     <path d="M 48.5 0 
L 27.703125 0 
L 27.796875 1.5 
Q 31.5 1.796875 32.75 3.640625 
Q 34 5.5 34 10.5 
L 34 30.40625 
Q 34 40.5 26.703125 40.5 
Q 24.203125 40.5 22 39.296875 
Q 19.796875 38.09375 16.40625 34.796875 
L 16.40625 7.203125 
Q 16.40625 4.203125 17.75 3 
Q 19.09375 1.796875 22.90625 1.5 
L 22.90625 0 
L 1.796875 0 
L 1.796875 1.5 
Q 5.59375 1.796875 6.796875 3.34375 
Q 8 4.90625 8 9.40625 
L 8 33.703125 
Q 8 37.40625 7.296875 38.796875 
Q 6.59375 40.203125 4.5 40.203125 
Q 2.5 40.203125 1.59375 39.796875 
L 1.59375 41.5 
Q 8.59375 43.5 15.296875 46 
L 16.09375 45.703125 
L 16.09375 37.90625 
L 16.203125 37.90625 
Q 23.296875 46 30.59375 46 
Q 36.296875 46 39.34375 42 
Q 42.40625 38 42.40625 30.59375 
L 42.40625 8.5 
Q 42.40625 4.5 43.59375 3.203125 
Q 44.796875 1.90625 48.5 1.5 
z
" id="STIXGeneral-Regular-110"/>
     <path d="M 26.59375 7.703125 
L 27.90625 6.59375 
Q 23.09375 -1 15.796875 -1 
Q 7 -1 7 11.703125 
L 7 41.796875 
L 1.703125 41.796875 
Q 1.296875 42.09375 1.296875 42.5 
Q 1.296875 43.296875 3 44.40625 
Q 6.796875 46.59375 12.703125 55.09375 
Q 12.90625 55.40625 13.65625 56.34375 
Q 14.40625 57.296875 14.703125 57.90625 
Q 15.40625 57.90625 15.40625 56.59375 
L 15.40625 45 
L 25.5 45 
L 25.5 41.796875 
L 15.40625 41.796875 
L 15.40625 13.203125 
Q 15.40625 8.40625 16.59375 6.296875 
Q 17.796875 4.203125 20.59375 4.203125 
Q 23.59375 4.203125 26.59375 7.703125 
z
" id="STIXGeneral-Regular-116"/>
     <path d="M 48.703125 0 
L 27.5 0 
L 27.5 1.5 
Q 31.90625 2 33.09375 3.5 
Q 34.296875 5 34.296875 10.203125 
L 34.296875 30 
Q 34.296875 40.59375 26.90625 40.59375 
Q 23.90625 40.59375 21.40625 39.1875 
Q 18.90625 37.796875 15.703125 34.296875 
L 15.703125 10.203125 
Q 15.703125 5 16.890625 3.5 
Q 18.09375 2 22.5 1.5 
L 22.5 0 
L 0.90625 0 
L 0.90625 1.5 
Q 5.203125 2.09375 6.25 3.5 
Q 7.296875 4.90625 7.296875 10.203125 
L 7.296875 57.296875 
Q 7.296875 60.5 6.34375 61.453125 
Q 5.40625 62.40625 2.203125 62.40625 
Q 1.296875 62.40625 1 62.296875 
L 1 63.90625 
L 3.703125 64.703125 
Q 11.40625 67 15.203125 68.296875 
L 15.703125 68 
L 15.703125 37.59375 
Q 19.203125 42.09375 22.59375 44.046875 
Q 26 46 30.40625 46 
Q 42.703125 46 42.703125 30.09375 
L 42.703125 10.203125 
Q 42.703125 5 43.640625 3.640625 
Q 44.59375 2.296875 48.703125 1.5 
z
" id="STIXGeneral-Regular-104"/>
     <path d="M 40.796875 16.40625 
L 42.40625 15.703125 
Q 36.40625 -1 21.5 -1 
Q 12.703125 -1 7.59375 5.140625 
Q 2.5 11.296875 2.5 21.703125 
Q 2.5 32.40625 8.203125 39.203125 
Q 13.90625 46 23.203125 46 
Q 32.203125 46 37.09375 39.09375 
Q 40 35.09375 40.5 27.703125 
L 9.703125 27.703125 
Q 10.09375 21.40625 10.9375 18.09375 
Q 11.796875 14.796875 14.296875 11.40625 
Q 18.5 5.90625 25.40625 5.90625 
Q 30.296875 5.90625 33.640625 8.296875 
Q 37 10.703125 40.796875 16.40625 
z
M 9.90625 30.90625 
L 30.296875 30.90625 
Q 29.40625 37.203125 27.34375 39.796875 
Q 25.296875 42.40625 20.5 42.40625 
Q 16.296875 42.40625 13.5 39.453125 
Q 10.703125 36.5 9.90625 30.90625 
z
" id="STIXGeneral-Regular-101"/>
     <path d="M 18 63.203125 
Q 18 61 16.5 59.546875 
Q 15 58.09375 12.796875 58.09375 
Q 10.703125 58.09375 9.25 59.546875 
Q 7.796875 61 7.796875 63.203125 
Q 7.796875 65.296875 9.296875 66.796875 
Q 10.796875 68.296875 12.90625 68.296875 
Q 15.09375 68.296875 16.546875 66.796875 
Q 18 65.296875 18 63.203125 
z
M 25.296875 0 
L 1.59375 0 
L 1.59375 1.5 
Q 6.796875 1.796875 8.140625 3.296875 
Q 9.5 4.796875 9.5 10.40625 
L 9.5 33.09375 
Q 9.5 36.59375 8.796875 38 
Q 8.09375 39.40625 6.203125 39.40625 
Q 3.796875 39.40625 2 38.90625 
L 2 40.5 
L 17.5 46 
L 17.90625 45.59375 
L 17.90625 10.5 
Q 17.90625 4.90625 19.15625 3.40625 
Q 20.40625 1.90625 25.296875 1.5 
z
" id="STIXGeneral-Regular-105"/>
     <path d="M 39.796875 15.59375 
L 41.203125 14.703125 
Q 36.90625 6.296875 33 3.203125 
Q 27.90625 -1 21.5 -1 
Q 13.203125 -1 7.84375 5.25 
Q 2.5 11.5 2.5 21.203125 
Q 2.5 33.90625 10.90625 40.90625 
Q 17.09375 46 24.40625 46 
Q 30.703125 46 35.25 42.953125 
Q 39.796875 39.90625 39.796875 35.703125 
Q 39.796875 34 38.390625 32.75 
Q 37 31.5 35.09375 31.5 
Q 31.59375 31.5 30.296875 36.09375 
L 29.703125 38.296875 
Q 28.90625 41.09375 27.703125 42.09375 
Q 26.5 43.09375 23.796875 43.09375 
Q 17.703125 43.09375 13.953125 38.296875 
Q 10.203125 33.5 10.203125 25.703125 
Q 10.203125 17.09375 14.5 11.640625 
Q 18.796875 6.203125 25.703125 6.203125 
Q 30 6.203125 33.09375 8.25 
Q 36.203125 10.296875 39.796875 15.59375 
z
" id="STIXGeneral-Regular-99"/>
     <path id="STIXGeneral-Regular-32"/>
     <path d="M 49.09375 4.203125 
L 34.40625 -1 
L 34 -0.703125 
L 34 5.703125 
Q 29.203125 -1 21.203125 -1 
Q 12.90625 -1 7.796875 4.953125 
Q 2.703125 10.90625 2.703125 20.5 
Q 2.703125 31.09375 8.796875 38.546875 
Q 14.90625 46 23.5 46 
Q 28.90625 46 34 41.703125 
L 34 57.296875 
Q 34 60.40625 33.09375 61.40625 
Q 32.203125 62.40625 29.40625 62.40625 
Q 28 62.40625 27.203125 62.296875 
L 27.203125 63.90625 
Q 36.296875 66.296875 41.90625 68.296875 
L 42.40625 68.09375 
L 42.40625 11.40625 
Q 42.40625 7.90625 43.25 6.796875 
Q 44.09375 5.703125 46.796875 5.703125 
Q 47.40625 5.703125 49.09375 5.796875 
z
M 34 10.203125 
L 34 33.203125 
Q 34 37.203125 30.953125 40.203125 
Q 27.90625 43.203125 23.796875 43.203125 
Q 18.09375 43.203125 14.6875 38.09375 
Q 11.296875 33 11.296875 24.5 
Q 11.296875 15.296875 15.046875 9.75 
Q 18.796875 4.203125 25.09375 4.203125 
Q 29.796875 4.203125 32.5 7.40625 
Q 34 9.09375 34 10.203125 
z
" id="STIXGeneral-Regular-100"/>
     <path d="M 44.203125 6.59375 
L 44.203125 3.796875 
Q 40.40625 -1 35.203125 -1 
Q 29.5 -1 28.796875 6.296875 
L 28.703125 6.296875 
Q 22.296875 -1 14.203125 -1 
Q 9.5 -1 6.59375 1.75 
Q 3.703125 4.5 3.703125 9.40625 
Q 3.703125 16.40625 10.703125 21.09375 
Q 15.5 24.296875 28.703125 29.203125 
L 28.703125 34.59375 
Q 28.703125 39.09375 26.546875 41.34375 
Q 24.40625 43.59375 20.90625 43.59375 
Q 17.90625 43.59375 15.90625 42.140625 
Q 13.90625 40.703125 13.90625 38.703125 
Q 13.90625 37.796875 14.203125 36.6875 
Q 14.5 35.59375 14.5 34.5 
Q 14.5 33 13.140625 31.703125 
Q 11.796875 30.40625 9.90625 30.40625 
Q 8.203125 30.40625 6.890625 31.703125 
Q 5.59375 33 5.59375 35 
Q 5.59375 39.796875 10.703125 43 
Q 15.40625 46 22.203125 46 
Q 30.296875 46 34 41.5 
Q 35.796875 39.40625 36.296875 37.25 
Q 36.796875 35.09375 36.796875 30.40625 
L 36.796875 11.296875 
Q 36.796875 4.703125 39.90625 4.703125 
Q 41.90625 4.703125 44.203125 6.59375 
z
M 28.703125 12.703125 
L 28.703125 26.796875 
Q 19.5 23.59375 15.90625 20.203125 
Q 12.5 17.09375 12.5 12.5 
Q 12.5 8.703125 14.390625 6.75 
Q 16.296875 4.796875 19.40625 4.796875 
Q 22.703125 4.796875 25.203125 6.40625 
Q 27.296875 7.90625 28 9.203125 
Q 28.703125 10.5 28.703125 12.703125 
z
" id="STIXGeneral-Regular-97"/>
     <path d="M 47 38.796875 
L 38.703125 38.796875 
Q 40.59375 34.5 40.59375 30.40625 
Q 40.59375 22.703125 35.390625 18.796875 
Q 30.203125 14.90625 25 14.90625 
Q 23.90625 14.90625 21.203125 15.203125 
L 19.296875 15.40625 
Q 17.296875 14.796875 15.296875 12.6875 
Q 13.296875 10.59375 13.296875 9.09375 
Q 13.296875 6.796875 21.09375 6.40625 
L 34 5.796875 
Q 39.5 5.59375 42.796875 2.6875 
Q 46.09375 -0.203125 46.09375 -4.90625 
Q 46.09375 -10.703125 40.09375 -15.40625 
Q 31.796875 -21.796875 20.09375 -21.796875 
Q 12.90625 -21.796875 7.84375 -18.9375 
Q 2.796875 -16.09375 2.796875 -12.09375 
Q 2.796875 -9.296875 5 -6.546875 
Q 7.203125 -3.796875 12.59375 0.09375 
Q 9.40625 1.59375 8.34375 2.6875 
Q 7.296875 3.796875 7.296875 5.40625 
Q 7.296875 8.296875 11.90625 12.296875 
Q 14.203125 14.296875 16.203125 16.296875 
Q 11.203125 18.796875 9.046875 21.890625 
Q 6.90625 25 6.90625 29.703125 
Q 6.90625 36.5 11.75 41.25 
Q 16.59375 46 23.59375 46 
Q 27.59375 46 31.59375 44.5 
L 33.796875 43.703125 
Q 36.703125 42.703125 39.296875 42.703125 
L 47 42.703125 
z
M 15.203125 33.796875 
L 15.203125 33.5 
Q 15.203125 26.296875 18.046875 21.84375 
Q 20.90625 17.40625 25.5 17.40625 
Q 28.90625 17.40625 30.90625 19.84375 
Q 32.90625 22.296875 32.90625 26.40625 
Q 32.90625 33 29.90625 38.5 
Q 27.40625 43.203125 22.59375 43.203125 
Q 19.09375 43.203125 17.140625 40.703125 
Q 15.203125 38.203125 15.203125 33.796875 
z
M 43.296875 -6.40625 
Q 43.296875 -3.59375 40.546875 -2.546875 
Q 37.796875 -1.5 30.90625 -1.5 
Q 21 -1.5 14.703125 -0.203125 
Q 11.703125 -3.796875 10.75 -5.4375 
Q 9.796875 -7.09375 9.796875 -8.796875 
Q 9.796875 -12.09375 13.75 -14.09375 
Q 17.703125 -16.09375 24.296875 -16.09375 
Q 32.796875 -16.09375 38.046875 -13.4375 
Q 43.296875 -10.796875 43.296875 -6.40625 
z
" id="STIXGeneral-Regular-103"/>
     <path d="M 16 45.796875 
L 16 36.59375 
Q 19.796875 42 22.34375 44 
Q 24.90625 46 28 46 
Q 30.59375 46 32.046875 44.59375 
Q 33.5 43.203125 33.5 40.703125 
Q 33.5 38.59375 32.453125 37.390625 
Q 31.40625 36.203125 29.59375 36.203125 
Q 27.703125 36.203125 25.59375 38.203125 
Q 24 39.703125 23 39.703125 
Q 20.90625 39.703125 18.453125 36.796875 
Q 16 33.90625 16 31.5 
L 16 9 
Q 16 4.703125 17.703125 3.203125 
Q 19.40625 1.703125 24.5 1.5 
L 24.5 0 
L 0.5 0 
L 0.5 1.5 
Q 5.296875 2.40625 6.4375 3.5 
Q 7.59375 4.59375 7.59375 8.40625 
L 7.59375 33.40625 
Q 7.59375 36.703125 6.84375 38.046875 
Q 6.09375 39.40625 4.203125 39.40625 
Q 2.59375 39.40625 0.703125 39 
L 0.703125 40.59375 
Q 7 42.59375 15.5 46 
z
" id="STIXGeneral-Regular-114"/>
     <path d="M 47 23.09375 
Q 47 12.59375 40.75 5.796875 
Q 34.5 -1 24.5 -1 
Q 15.296875 -1 9.09375 5.75 
Q 2.90625 12.5 2.90625 22.796875 
Q 2.90625 33.203125 9.09375 39.59375 
Q 15.296875 46 25.40625 46 
Q 34.703125 46 40.84375 39.640625 
Q 47 33.296875 47 23.09375 
z
M 38 20.40625 
Q 38 31.796875 33 38.203125 
Q 29 43.203125 23.5 43.203125 
Q 18.296875 43.203125 15.09375 38.953125 
Q 11.90625 34.703125 11.90625 27.296875 
Q 11.90625 14.5 17.203125 6.796875 
Q 20.59375 1.796875 26.203125 1.796875 
Q 31.703125 1.796875 34.84375 6.75 
Q 38 11.703125 38 20.40625 
z
" id="STIXGeneral-Regular-111"/>
     <path d="M 48 5 
L 48 3.59375 
Q 40.203125 1.5 34.296875 -0.90625 
L 33.796875 -0.59375 
L 33.796875 7.59375 
L 33.59375 7.59375 
Q 27.296875 -1 19.296875 -1 
Q 13.59375 -1 10.34375 2.5 
Q 7.09375 6 7.09375 11.796875 
L 7.09375 36.90625 
Q 7.09375 40.59375 5.796875 42 
Q 4.5 43.40625 0.90625 43.59375 
L 0.90625 45 
L 15.5 45 
L 15.5 12.703125 
Q 15.5 9.296875 17.546875 7.046875 
Q 19.59375 4.796875 22.59375 4.796875 
Q 27.5 4.796875 31 7.90625 
Q 32.296875 9.09375 32.796875 10.140625 
Q 33.296875 11.203125 33.296875 13.703125 
L 33.296875 36.796875 
Q 33.296875 40.703125 31.890625 41.84375 
Q 30.5 43 25.90625 43.296875 
L 25.90625 45 
L 41.703125 45 
L 41.703125 10.703125 
Q 41.703125 7.203125 42.84375 6.09375 
Q 44 5 47.40625 5 
z
" id="STIXGeneral-Regular-117"/>
    </defs>
    <g transform="translate(191.28 22.225313)scale(0.22 -0.22)">
     <use xlink:href="#STIXGeneral-Regular-83"/>
     <use x="55.599991" xlink:href="#STIXGeneral-Regular-121"/>
     <use x="105.599976" xlink:href="#STIXGeneral-Regular-110"/>
     <use x="155.59996" xlink:href="#STIXGeneral-Regular-116"/>
     <use x="183.399948" xlink:href="#STIXGeneral-Regular-104"/>
     <use x="233.399933" xlink:href="#STIXGeneral-Regular-101"/>
     <use x="277.799927" xlink:href="#STIXGeneral-Regular-116"/>
     <use x="305.599915" xlink:href="#STIXGeneral-Regular-105"/>
     <use x="333.399902" xlink:href="#STIXGeneral-Regular-99"/>
     <use x="377.799896" xlink:href="#STIXGeneral-Regular-32"/>
     <use x="402.799881" xlink:href="#STIXGeneral-Regular-100"/>
     <use x="452.799866" xlink:href="#STIXGeneral-Regular-97"/>
     <use x="497.19986" xlink:href="#STIXGeneral-Regular-116"/>
     <use x="524.999847" xlink:href="#STIXGeneral-Regular-97"/>
     <use x="569.399841" xlink:href="#STIXGeneral-Regular-32"/>
     <use x="594.399826" xlink:href="#STIXGeneral-Regular-97"/>
     <use x="638.79982" xlink:href="#STIXGeneral-Regular-110"/>
     <use x="688.799805" xlink:href="#STIXGeneral-Regular-100"/>
     <use x="738.799789" xlink:href="#STIXGeneral-Regular-32"/>
     <use x="763.799774" xlink:href="#STIXGeneral-Regular-103"/>
     <use x="813.799759" xlink:href="#STIXGeneral-Regular-114"/>
     <use x="847.099747" xlink:href="#STIXGeneral-Regular-111"/>
     <use x="897.099731" xlink:href="#STIXGeneral-Regular-117"/>
     <use x="947.099716" xlink:href="#STIXGeneral-Regular-110"/>
     <use x="997.099701" xlink:href="#STIXGeneral-Regular-100"/>
     <use x="1047.099686" xlink:href="#STIXGeneral-Regular-32"/>
     <use x="1072.09967" xlink:href="#STIXGeneral-Regular-116"/>
     <use x="1099.899658" xlink:href="#STIXGeneral-Regular-114"/>
     <use x="1133.199646" xlink:href="#STIXGeneral-Regular-117"/>
     <use x="1183.199631" xlink:href="#STIXGeneral-Regular-116"/>
     <use x="1210.999619" xlink:href="#STIXGeneral-Regular-104"/>
    </g>
   </g>
   <g id="legend_1">
    <g id="patch_7">
     <path d="M 490.13 184.305313 
L 599.19 184.305313 
Q 601.99 184.305313 601.99 181.505313 
L 601.99 143.228437 
Q 601.99 140.428438 599.19 140.428438 
L 490.13 140.428438 
Q 487.33 140.428438 487.33 143.228437 
L 487.33 181.505313 
Q 487.33 184.305313 490.13 184.305313 
z
" style="fill:#ffffff;opacity:0.8;stroke:#cccccc;stroke-linejoin:miter;"/>
    </g>
    <g id="line2d_14">
     <path d="M 492.93 150.928438 
L 520.93 150.928438 
" style="fill:none;stroke:#800080;stroke-linecap:square;stroke-width:1.5;"/>
    </g>
    <g id="line2d_15"/>
    <g id="text_14">
     <!-- Exact post. -->
     <defs>
      <path d="M 59.703125 16.90625 
L 55.09375 0 
L 1.203125 0 
L 1.203125 1.90625 
Q 6.90625 2.296875 8.40625 3.9375 
Q 9.90625 5.59375 9.90625 11.40625 
L 9.90625 55 
Q 9.90625 60.59375 8.34375 62.296875 
Q 6.796875 64 1.203125 64.296875 
L 1.203125 66.203125 
L 54.203125 66.203125 
L 54.59375 51.90625 
L 52.09375 51.90625 
Q 51 58.59375 48.203125 60.5 
Q 45.40625 62.40625 36.703125 62.40625 
L 23.59375 62.40625 
Q 21.40625 62.40625 20.75 61.75 
Q 20.09375 61.09375 20.09375 58.796875 
L 20.09375 36.796875 
L 35.203125 36.796875 
Q 41.5 36.796875 43.546875 38.59375 
Q 45.59375 40.40625 46.5 46.40625 
L 48.796875 46.40625 
L 48.796875 23 
L 46.5 23 
Q 45.59375 29.296875 43.59375 31 
Q 41.59375 32.703125 35.203125 32.703125 
L 20.09375 32.703125 
L 20.09375 8.40625 
Q 20.09375 5.40625 22.1875 4.546875 
Q 24.296875 3.703125 30.203125 3.703125 
L 33.796875 3.703125 
Q 44.5 3.703125 49 6.296875 
Q 53.5 8.90625 56.90625 16.90625 
z
" id="STIXGeneral-Regular-69"/>
      <path d="M 47.90625 0 
L 27.796875 0 
L 27.796875 1.5 
Q 30.296875 1.703125 31.046875 2.140625 
Q 31.796875 2.59375 31.796875 3.90625 
Q 31.796875 4.796875 31.203125 5.703125 
L 22.09375 19.703125 
L 14.203125 7.40625 
Q 12.203125 4.296875 12.203125 3.296875 
Q 12.203125 1.5 16.203125 1.5 
L 16.203125 0 
L 1.703125 0 
L 1.703125 1.5 
Q 4.203125 1.703125 5.546875 2.640625 
Q 6.90625 3.59375 9 6.59375 
L 20.40625 23.09375 
L 11 37.5 
Q 8.703125 41 7.09375 42.25 
Q 5.5 43.5 3.296875 43.5 
L 2.40625 43.5 
L 2.40625 45 
L 23.09375 45 
L 23.09375 43.5 
Q 18.796875 43.40625 18.796875 41.296875 
Q 18.796875 39.203125 23.40625 32.40625 
Q 24.703125 30.59375 24.796875 30.40625 
Q 25.296875 31.09375 27.796875 34.796875 
Q 28.296875 35.703125 29 36.703125 
Q 29.703125 37.703125 30.046875 38.296875 
Q 30.40625 38.90625 30.796875 39.5 
Q 31.203125 40.09375 31.34375 40.546875 
Q 31.5 41 31.5 41.296875 
Q 31.5 43.203125 27.5 43.5 
L 27.5 45 
L 43.296875 45 
L 43.296875 43.5 
Q 38.203125 43.296875 35.203125 39.09375 
L 26.90625 27.09375 
L 39.703125 7.5 
Q 43.59375 1.5 47.90625 1.5 
z
" id="STIXGeneral-Regular-120"/>
      <path d="M 15.90625 45.796875 
L 15.90625 38.09375 
Q 22.203125 46 30.296875 46 
Q 37.59375 46 42.296875 40 
Q 47 34 47 24.703125 
Q 47 13.796875 40.953125 6.390625 
Q 34.90625 -1 26 -1 
Q 22.90625 -1 20.75 -0.09375 
Q 18.59375 0.796875 15.90625 3.296875 
L 15.90625 -12.40625 
Q 15.90625 -17.09375 17.5 -18.4375 
Q 19.09375 -19.796875 24.703125 -19.90625 
L 24.703125 -21.703125 
L 0.5 -21.703125 
L 0.5 -20 
Q 4.90625 -19.59375 6.203125 -18.296875 
Q 7.5 -17 7.5 -13.09375 
L 7.5 33.703125 
Q 7.5 37.203125 6.703125 38.296875 
Q 5.90625 39.40625 3.40625 39.40625 
Q 1.796875 39.40625 0.90625 39.296875 
L 0.90625 40.90625 
Q 7.90625 43 15.296875 46 
z
M 15.90625 33.40625 
L 15.90625 8.796875 
Q 15.90625 6.59375 19.34375 4.390625 
Q 22.796875 2.203125 26.296875 2.203125 
Q 31.703125 2.203125 35.046875 7.296875 
Q 38.40625 12.40625 38.40625 20.703125 
Q 38.40625 29.5 35.046875 34.75 
Q 31.703125 40 26.09375 40 
Q 22.59375 40 19.25 37.796875 
Q 15.90625 35.59375 15.90625 33.40625 
z
" id="STIXGeneral-Regular-112"/>
      <path d="M 15.59375 30.09375 
L 26 23.796875 
Q 31 20.796875 32.890625 18.1875 
Q 34.796875 15.59375 34.796875 11.5 
Q 34.796875 6.5 30.640625 2.75 
Q 26.5 -1 20.796875 -1 
Q 16.09375 -1 13.5 -0.09375 
Q 10.796875 0.796875 8.90625 0.796875 
Q 7.203125 0.796875 6.5 -0.40625 
L 5.203125 -0.40625 
L 5.203125 15.296875 
L 6.796875 15.296875 
Q 8.40625 8 11.40625 4.59375 
Q 14.40625 1.203125 19.5 1.203125 
Q 23.203125 1.203125 25.5 3.296875 
Q 27.796875 5.40625 27.796875 8.59375 
Q 27.796875 13.203125 22.5 16.09375 
L 17.09375 19.09375 
Q 5.09375 25.796875 5.09375 33.59375 
Q 5.09375 39.40625 8.84375 42.65625 
Q 12.59375 45.90625 18.90625 45.90625 
Q 23.296875 45.90625 25.59375 44.796875 
Q 27.40625 44 28.40625 44 
Q 29.09375 44 30 45 
L 31.09375 45 
L 31.59375 31.40625 
L 30.09375 31.40625 
Q 28.40625 38.203125 25.84375 40.953125 
Q 23.296875 43.703125 18.796875 43.703125 
Q 15.40625 43.703125 13.34375 42 
Q 11.296875 40.296875 11.296875 36.90625 
Q 11.296875 35.203125 12.4375 33.25 
Q 13.59375 31.296875 15.59375 30.09375 
z
" id="STIXGeneral-Regular-115"/>
      <path d="M 18.09375 4.296875 
Q 18.09375 2.09375 16.4375 0.5 
Q 14.796875 -1.09375 12.5 -1.09375 
Q 10.203125 -1.09375 8.59375 0.5 
Q 7 2.09375 7 4.390625 
Q 7 6.703125 8.640625 8.34375 
Q 10.296875 10 12.59375 10 
Q 14.796875 10 16.4375 8.296875 
Q 18.09375 6.59375 18.09375 4.296875 
z
" id="STIXGeneral-Regular-46"/>
     </defs>
     <g transform="translate(532.13 155.828438)scale(0.14 -0.14)">
      <use xlink:href="#STIXGeneral-Regular-69"/>
      <use x="61.099991" xlink:href="#STIXGeneral-Regular-120"/>
      <use x="111.099976" xlink:href="#STIXGeneral-Regular-97"/>
      <use x="155.499969" xlink:href="#STIXGeneral-Regular-99"/>
      <use x="199.899963" xlink:href="#STIXGeneral-Regular-116"/>
      <use x="227.699951" xlink:href="#STIXGeneral-Regular-32"/>
      <use x="252.699936" xlink:href="#STIXGeneral-Regular-112"/>
      <use x="302.699921" xlink:href="#STIXGeneral-Regular-111"/>
      <use x="352.699905" xlink:href="#STIXGeneral-Regular-115"/>
      <use x="391.599899" xlink:href="#STIXGeneral-Regular-116"/>
      <use x="419.399887" xlink:href="#STIXGeneral-Regular-46"/>
     </g>
    </g>
    <g id="PathCollection_2">
     <g>
      <use style="fill:#ff0000;stroke:#ff0000;stroke-width:1.5;" x="506.93" xlink:href="#m7e3ed8fdac" y="171.991875"/>
     </g>
    </g>
    <g id="text_15">
     <!-- Observed $\mathbf{y}$ -->
     <defs>
      <path d="M 68.796875 33.09375 
Q 68.796875 17.703125 59.6875 8.140625 
Q 50.59375 -1.40625 36.09375 -1.40625 
Q 21.5 -1.40625 12.453125 8.1875 
Q 3.40625 17.796875 3.40625 33.40625 
Q 3.40625 48.59375 12.453125 58.09375 
Q 21.5 67.59375 36.09375 67.59375 
Q 50.703125 67.59375 59.75 57.84375 
Q 68.796875 48.09375 68.796875 33.09375 
z
M 57.40625 33.703125 
Q 57.40625 42.203125 55 48.953125 
Q 52.59375 55.703125 48.296875 59.296875 
Q 42.703125 64 36 64 
Q 27.5 64 21.703125 57.296875 
Q 18.5 53.703125 16.640625 47.046875 
Q 14.796875 40.40625 14.796875 33.203125 
Q 14.796875 15 23.796875 6.703125 
Q 28.703125 2.203125 36.203125 2.203125 
Q 44 2.203125 49.09375 7 
Q 57.40625 15 57.40625 33.703125 
z
" id="STIXGeneral-Regular-79"/>
      <path d="M 15.296875 68.09375 
L 15.296875 37.59375 
Q 16.90625 41.40625 20.546875 43.703125 
Q 24.203125 46 28.796875 46 
Q 36.703125 46 41.75 39.703125 
Q 46.796875 33.40625 46.796875 24 
Q 46.796875 13 40.09375 6 
Q 33.40625 -1 23.40625 -1 
Q 17.296875 -1 12.09375 1.046875 
Q 6.90625 3.09375 6.90625 5.59375 
L 6.90625 56.59375 
Q 6.90625 60.296875 6 61.34375 
Q 5.09375 62.40625 2 62.40625 
Q 1.296875 62.40625 0.296875 62.203125 
L 0.296875 63.90625 
L 3.296875 64.796875 
Q 13.5 67.90625 14.796875 68.296875 
z
M 15.296875 31.796875 
L 15.296875 7.40625 
Q 15.296875 5.09375 18.140625 3.640625 
Q 21 2.203125 25 2.203125 
Q 30.90625 2.203125 34.296875 6.5 
Q 38 11.09375 38 19.703125 
Q 38 29.5 34.09375 35 
Q 30.796875 39.703125 25.203125 39.703125 
Q 21.203125 39.703125 18.25 37.34375 
Q 15.296875 35 15.296875 31.796875 
z
" id="STIXGeneral-Regular-98"/>
      <path d="M 47.703125 45 
L 47.703125 43.5 
Q 45.40625 43.296875 44.296875 42 
Q 43.203125 40.703125 41.203125 35.703125 
L 28.40625 3.59375 
Q 26.40625 -1.40625 25.59375 -1.40625 
Q 24.796875 -1.40625 23.796875 1.203125 
Q 23.59375 1.5 23.390625 2.203125 
Q 23.203125 2.90625 23 3.296875 
L 11 32 
Q 7.796875 39.59375 6.296875 41.4375 
Q 4.796875 43.296875 1.90625 43.5 
L 1.90625 45 
L 21.5 45 
L 21.5 43.5 
Q 18.90625 43.296875 17.90625 42.6875 
Q 16.90625 42.09375 16.90625 40.796875 
Q 16.90625 39.203125 17.796875 37 
L 28 11.40625 
L 37.90625 37.296875 
Q 38.5 38.796875 38.5 40.296875 
Q 38.5 43.09375 33.796875 43.5 
L 33.796875 45 
z
" id="STIXGeneral-Regular-118"/>
      <path d="M 48.203125 46.09375 
L 48.203125 43.703125 
Q 45.796875 43.40625 44.59375 42.34375 
Q 43.40625 41.296875 42.203125 38.203125 
L 27.40625 -1.59375 
Q 22.90625 -13.703125 19.703125 -17.203125 
Q 16.59375 -20.5 11.296875 -20.5 
Q 7 -20.5 4.296875 -18.296875 
Q 1.59375 -16.09375 1.59375 -12.59375 
Q 1.59375 -9.703125 3.296875 -7.796875 
Q 5 -5.90625 7.796875 -5.90625 
Q 10.296875 -5.90625 12.046875 -7.40625 
Q 13.796875 -8.90625 13.796875 -11.09375 
Q 13.796875 -11.5 13.59375 -12.5 
L 13.5 -13.09375 
Q 13.5 -13.796875 14 -14.296875 
Q 14.5 -14.796875 15.203125 -14.796875 
Q 19 -14.796875 21.796875 -6.59375 
L 23.59375 -1.296875 
L 11.703125 27.703125 
Q 6.796875 39.796875 5 42.296875 
Q 4.203125 43.296875 1.59375 43.703125 
L 1.59375 46.09375 
L 26.5 46.09375 
L 26.5 43.703125 
L 24.90625 43.59375 
Q 21.296875 43.296875 21.296875 41.09375 
Q 21.296875 40.40625 23.296875 35.296875 
L 30.5 16.703125 
L 37.296875 35.5 
Q 38.40625 38.703125 38.40625 40.40625 
Q 38.40625 42.203125 37.296875 42.890625 
Q 36.203125 43.59375 33 43.703125 
L 33 46.09375 
z
" id="STIXGeneral-Bold-121"/>
     </defs>
     <g transform="translate(532.13 175.666875)scale(0.14 -0.14)">
      <use transform="translate(0 0.703125)" xlink:href="#STIXGeneral-Regular-79"/>
      <use transform="translate(72.199982 0.703125)" xlink:href="#STIXGeneral-Regular-98"/>
      <use transform="translate(122.199966 0.703125)" xlink:href="#STIXGeneral-Regular-115"/>
      <use transform="translate(161.09996 0.703125)" xlink:href="#STIXGeneral-Regular-101"/>
      <use transform="translate(205.499954 0.703125)" xlink:href="#STIXGeneral-Regular-114"/>
      <use transform="translate(238.799942 0.703125)" xlink:href="#STIXGeneral-Regular-118"/>
      <use transform="translate(288.799927 0.703125)" xlink:href="#STIXGeneral-Regular-101"/>
      <use transform="translate(333.199921 0.703125)" xlink:href="#STIXGeneral-Regular-100"/>
      <use transform="translate(383.199905 0.703125)" xlink:href="#STIXGeneral-Regular-32"/>
      <use transform="translate(408.19989 0.703125)" xlink:href="#STIXGeneral-Bold-121"/>
     </g>
    </g>
   </g>
  </g>
 </g>
 <defs>
  <clipPath id="pdb542b30b4">
   <rect height="163.08" width="558" x="50.99" y="28.225313"/>
  </clipPath>
 </defs>
</svg>
