<?xml version="1.0" encoding="utf-8" standalone="no"?>
<!DOCTYPE svg PUBLIC "-//W3C//DTD SVG 1.1//EN"
  "http://www.w3.org/Graphics/SVG/1.1/DTD/svg11.dtd">
<!-- Created with matplotlib (https://matplotlib.org/) -->
<svg height="217.706563pt" version="1.1" viewBox="0 0 600.039062 217.706563" width="600.039062pt" xmlns="http://www.w3.org/2000/svg" xmlns:xlink="http://www.w3.org/1999/xlink">
 <defs>
  <style type="text/css">
*{stroke-linecap:butt;stroke-linejoin:round;}
  </style>
 </defs>
 <g id="figure_1">
  <g id="patch_1">
   <path d="M 0 217.706563 
L 600.039062 217.706563 
L 600.039062 -0 
L 0 -0 
z
" style="fill:none;"/>
  </g>
  <g id="axes_1">
   <g id="patch_2">
    <path d="M 34.839063 189.957188 
L 592.839062 189.957188 
L 592.839062 26.877187 
L 34.839063 26.877187 
z
" style="fill:#ffffff;"/>
   </g>
   <g id="PolyCollection_1">
    <defs>
     <path d="M 34.839063 -168.369171 
L 34.839063 -104.462926 
L 40.475432 -104.428083 
L 46.111785 -104.373905 
L 51.748154 -104.292029 
L 57.384523 -104.171996 
L 63.020876 -104.001704 
L 68.657245 -103.768671 
L 74.293615 -103.462475 
L 79.929967 -103.07863 
L 85.566337 -102.62392 
L 91.202689 -102.122778 
L 96.839059 -101.623611 
L 102.475428 -101.203457 
L 108.111797 -100.968892 
L 113.74815 -101.051332 
L 119.38452 -101.595565 
L 125.020872 -102.741633 
L 130.657242 -104.601773 
L 136.293611 -107.235578 
L 141.92998 -110.627785 
L 147.566333 -114.673261 
L 153.202702 -119.17291 
L 158.839055 -123.841372 
L 164.475424 -128.324453 
L 170.111794 -132.231255 
L 175.748147 -135.253128 
L 181.384516 -137.42429 
L 187.020885 -139.051174 
L 192.657238 -140.328136 
L 198.293607 -141.315493 
L 203.929977 -142.088175 
L 209.566329 -142.807421 
L 215.202699 -143.682245 
L 220.839068 -144.879188 
L 226.475421 -146.460064 
L 232.11179 -148.372423 
L 237.748159 -150.464176 
L 243.384512 -152.488738 
L 249.020882 -154.107561 
L 254.657251 -154.924464 
L 260.293604 -154.570094 
L 265.929973 -152.813558 
L 271.566342 -149.635812 
L 277.202695 -145.221601 
L 282.839064 -139.902084 
L 288.475434 -134.098268 
L 294.111786 -128.289343 
L 299.748156 -123.002058 
L 305.384525 -118.772419 
L 311.020878 -116.043397 
L 316.657231 -115.053419 
L 322.2936 -115.78538 
L 327.929969 -117.994026 
L 333.566339 -121.291102 
L 339.202708 -125.232331 
L 344.839077 -129.358733 
L 350.475413 -133.214594 
L 356.111783 -136.388088 
L 361.748152 -138.581377 
L 367.384521 -139.675414 
L 373.020891 -139.735199 
L 378.65726 -138.946849 
L 384.293596 -137.537823 
L 389.929966 -135.728008 
L 395.566335 -133.722609 
L 401.202704 -131.717815 
L 406.839074 -129.876416 
L 412.47541 -128.280388 
L 418.111779 -126.913384 
L 423.748148 -125.706168 
L 429.384518 -124.618773 
L 435.020887 -123.675522 
L 440.657256 -122.891041 
L 446.293593 -122.0922 
L 451.929962 -120.810722 
L 457.566331 -118.746358 
L 463.202701 -116.093539 
L 468.83907 -113.176282 
L 474.475439 -110.27406 
L 480.111775 -107.61043 
L 485.748145 -105.348533 
L 491.384514 -103.585312 
L 497.020883 -102.351498 
L 502.657253 -101.619706 
L 508.293622 -101.318971 
L 513.929958 -101.352606 
L 519.566328 -101.615967 
L 525.202697 -102.011264 
L 530.839066 -102.457635 
L 536.475436 -102.895983 
L 542.111805 -103.289142 
L 547.748141 -103.618762 
L 553.38451 -103.880529 
L 559.02088 -104.079126 
L 564.657249 -104.223927 
L 570.293618 -104.325833 
L 575.929988 -104.395282 
L 581.566324 -104.441226 
L 587.202693 -104.470785 
L 592.839062 -104.489306 
L 592.839062 -168.395675 
L 592.839062 -168.395675 
L 587.202693 -168.376967 
L 581.566324 -168.346904 
L 575.929988 -168.299673 
L 570.293618 -168.227084 
L 564.657249 -168.117871 
L 559.02088 -167.956862 
L 553.38451 -167.724015 
L 547.748141 -167.39334 
L 542.111805 -166.931804 
L 536.475436 -166.298452 
L 530.839066 -165.444276 
L 525.202697 -164.313497 
L 519.566328 -162.847141 
L 513.929958 -160.989502 
L 508.293622 -158.697588 
L 502.657253 -155.952609 
L 497.020883 -152.771903 
L 491.384514 -149.218545 
L 485.748145 -145.406146 
L 480.111775 -141.496729 
L 474.475439 -137.691121 
L 468.83907 -134.213614 
L 463.202701 -131.297009 
L 457.566331 -129.178017 
L 451.929962 -128.096391 
L 446.293593 -128.140923 
L 440.657256 -128.910527 
L 435.020887 -129.86728 
L 429.384518 -130.819051 
L 423.748148 -131.818242 
L 418.111779 -132.972196 
L 412.47541 -134.339772 
L 406.839074 -135.92336 
L 401.202704 -137.703344 
L 395.566335 -139.642439 
L 389.929966 -141.645961 
L 384.293596 -143.520179 
L 378.65726 -144.985973 
L 373.020891 -145.752345 
L 367.384521 -145.597178 
L 361.748152 -144.411579 
L 356.111783 -142.200716 
L 350.475413 -139.071975 
L 344.839077 -135.249119 
L 339.202708 -131.097803 
L 333.566339 -127.111561 
L 327.929969 -123.833425 
L 322.2936 -121.737976 
L 316.657231 -121.140516 
L 311.020878 -122.176784 
L 305.384525 -124.823508 
L 299.748156 -128.915332 
L 294.111786 -134.140537 
L 288.475434 -140.027755 
L 282.839064 -145.979218 
L 277.202695 -151.384222 
L 271.566342 -155.753454 
L 265.929973 -158.802018 
L 260.293604 -160.458898 
L 254.657251 -160.81736 
L 249.020882 -160.076182 
L 243.384512 -158.514609 
L 237.748159 -156.477007 
L 232.11179 -154.325726 
L 226.475421 -152.3635 
L 220.839068 -150.762818 
L 215.202699 -149.54756 
L 209.566329 -148.634136 
L 203.929977 -147.888569 
L 198.293607 -147.154066 
L 192.657238 -146.25347 
L 187.020885 -145.027339 
L 181.384516 -143.452513 
L 175.748147 -141.801966 
L 170.111794 -140.600321 
L 164.475424 -140.191983 
L 158.839055 -140.61061 
L 153.202702 -141.780556 
L 147.566333 -143.588525 
L 141.92998 -145.887253 
L 136.293611 -148.505205 
L 130.657242 -151.265194 
L 125.020872 -154.004392 
L 119.38452 -156.590039 
L 113.74815 -158.92817 
L 108.111797 -160.964917 
L 102.475428 -162.681977 
L 96.839059 -164.088379 
L 91.202689 -165.211195 
L 85.566337 -166.08707 
L 79.929967 -166.755723 
L 74.293615 -167.255643 
L 68.657245 -167.621708 
L 63.020876 -167.884112 
L 57.384523 -168.068117 
L 51.748154 -168.194246 
L 46.111785 -168.278705 
L 40.475432 -168.333927 
L 34.839063 -168.369171 
z
" id="mf07e00f785" style="stroke:#ffa500;stroke-opacity:0.1;"/>
    </defs>
    <g clip-path="url(#p07cec6a794)">
     <use style="fill:#ffa500;fill-opacity:0.1;stroke:#ffa500;stroke-opacity:0.1;" x="0" xlink:href="#mf07e00f785" y="217.706563"/>
    </g>
   </g>
   <g id="line2d_1">
    <path clip-path="url(#p07cec6a794)" d="M 34.839063 110.141927 
L 40.475432 111.066921 
L 46.111785 111.782077 
L 51.748154 112.114393 
L 57.384523 111.932285 
L 63.020876 111.168155 
L 68.657245 109.830143 
L 74.293615 108.001464 
L 79.929967 105.82765 
L 85.566337 103.493881 
L 91.202689 101.196203 
L 96.839059 99.111102 
L 102.475428 97.368434 
L 108.111797 96.031851 
L 113.74815 95.089937 
L 119.38452 94.459477 
L 125.020872 94.000492 
L 130.657242 93.540694 
L 136.293611 92.905596 
L 141.92998 91.949362 
L 147.566333 90.581237 
L 153.202702 88.782833 
L 158.839055 86.612948 
L 164.475424 84.198371 
L 170.111794 81.711803 
L 175.748147 79.340166 
L 181.384516 77.248806 
L 187.020885 75.548393 
L 192.657238 74.271124 
L 198.293607 73.361831 
L 203.929977 72.68701 
L 209.566329 72.061335 
L 215.202699 71.28775 
L 220.839068 70.204032 
L 226.475421 68.726802 
L 232.11179 66.883718 
L 237.748159 64.826369 
L 243.384512 62.819492 
L 249.020882 61.206682 
L 254.657251 60.357326 
L 260.293604 60.603173 
L 265.929973 62.175542 
L 271.566342 65.154369 
L 277.202695 69.438655 
L 282.839064 74.744521 
L 288.475434 80.63218 
L 294.111786 86.55873 
L 299.748156 91.948965 
L 305.384525 96.273223 
L 311.020878 99.120474 
L 316.657231 100.254943 
L 322.2936 99.647304 
L 327.929969 97.475641 
L 333.566339 94.096069 
L 339.202708 89.987936 
L 344.839077 85.682758 
L 350.475413 81.688698 
L 356.111783 78.422813 
L 361.748152 76.162161 
L 367.384521 75.020387 
L 373.020891 74.952367 
L 378.65726 75.783745 
L 384.293596 77.257939 
L 389.929966 79.090499 
L 395.566335 81.019968 
L 401.202704 82.84649 
L 406.839074 84.452545 
L 412.47541 85.804673 
L 418.111779 86.939102 
L 423.748148 87.936947 
L 429.384518 88.896116 
L 435.020887 89.90617 
L 440.657256 91.03058 
L 446.293593 92.298096 
L 451.929962 93.702485 
L 457.566331 95.207984 
L 463.202701 96.75747 
L 468.83907 98.280494 
L 474.475439 99.69969 
L 480.111775 100.935316 
L 485.748145 101.908842 
L 491.384514 102.546752 
L 497.020883 102.785727 
L 502.657253 102.579284 
L 508.293622 101.905137 
L 513.929958 100.771635 
L 519.566328 99.221268 
L 525.202697 97.329676 
L 530.839066 95.19916 
L 536.475436 92.947152 
L 542.111805 90.691187 
L 547.748141 88.532913 
L 553.38451 86.544036 
L 559.02088 84.757143 
L 564.657249 83.163121 
L 570.293618 81.716086 
L 575.929988 80.345089 
L 581.566324 78.970644 
L 587.202693 77.523109 
L 592.839062 75.959713 
" style="fill:none;stroke:#ffa500;stroke-linecap:square;stroke-width:1.5;"/>
   </g>
   <g id="line2d_2">
    <path clip-path="url(#p07cec6a794)" d="M 34.839063 100.647756 
L 40.475432 100.949901 
L 46.111785 100.579254 
L 51.748154 99.693725 
L 57.384523 98.544739 
L 63.020876 97.43145 
L 68.657245 96.645873 
L 74.293615 96.419341 
L 79.929967 96.880224 
L 85.566337 98.030554 
L 91.202689 99.745308 
L 96.839059 101.793692 
L 102.475428 103.877479 
L 108.111797 105.678707 
L 113.74815 106.907638 
L 119.38452 107.342742 
L 125.020872 106.856755 
L 130.657242 105.426267 
L 136.293611 103.125693 
L 141.92998 100.109172 
L 147.566333 96.585448 
L 153.202702 92.790613 
L 158.839055 88.962675 
L 164.475424 85.319686 
L 170.111794 82.04213 
L 175.748147 79.258826 
L 181.384516 77.036135 
L 187.020885 75.37112 
L 192.657238 74.190271 
L 198.293607 73.356378 
L 203.929977 72.685669 
L 209.566329 71.975565 
L 215.202699 71.040828 
L 220.839068 69.752881 
L 226.475421 68.074739 
L 232.11179 66.083383 
L 237.748159 63.972888 
L 243.384512 62.034844 
L 249.020882 60.617402 
L 254.657251 60.069055 
L 260.293604 60.67678 
L 265.929973 62.610028 
L 271.566342 65.881104 
L 277.202695 70.329557 
L 282.839064 75.633806 
L 288.475434 81.348013 
L 294.111786 86.958368 
L 299.748156 91.949625 
L 305.384525 95.871429 
L 311.020878 98.394977 
L 316.657231 99.351964 
L 322.2936 98.750929 
L 327.929969 96.76963 
L 333.566339 93.72533 
L 339.202708 90.028032 
L 344.839077 86.124019 
L 350.475413 82.438285 
L 356.111783 79.324275 
L 361.748152 77.028308 
L 367.384521 75.672664 
L 373.020891 75.258622 
L 378.65726 75.686715 
L 384.293596 76.78866 
L 389.929966 78.363835 
L 395.566335 80.21303 
L 401.202704 82.164045 
L 406.839074 84.086176 
L 412.47541 85.893766 
L 418.111779 87.541522 
L 423.748148 89.015386 
L 429.384518 90.323004 
L 435.020887 91.48614 
L 440.657256 92.535667 
L 446.293593 93.507923 
L 451.929962 94.440345 
L 457.566331 95.364432 
L 463.202701 96.295697 
L 468.83907 97.221999 
L 474.475439 98.093627 
L 480.111775 98.819357 
L 485.748145 99.272268 
L 491.384514 99.307117 
L 497.020883 98.788239 
L 502.657253 97.623557 
L 508.293622 95.797796 
L 513.929958 93.396784 
L 519.566328 90.615429 
L 525.202697 87.744926 
L 530.839066 85.138322 
L 536.475436 83.158748 
L 542.111805 82.11849 
L 547.748141 82.219885 
L 553.38451 83.509643 
L 559.02088 85.856341 
L 564.657249 88.957066 
L 570.293618 92.373885 
L 575.929988 95.595249 
L 581.566324 98.112565 
L 587.202693 99.499136 
L 592.839062 99.477601 
" style="fill:none;stroke:#ffa500;stroke-linecap:square;stroke-width:1.5;"/>
   </g>
   <g id="line2d_3">
    <path clip-path="url(#p07cec6a794)" d="M 34.839063 98.792301 
L 40.475432 101.497221 
L 46.111785 103.579151 
L 51.748154 104.885346 
L 57.384523 105.32097 
L 63.020876 104.85698 
L 68.657245 103.532621 
L 74.293615 101.452238 
L 79.929967 98.776432 
L 85.566337 95.707997 
L 91.202689 92.473682 
L 96.839059 89.302962 
L 102.475428 86.405937 
L 108.111797 83.952336 
L 113.74815 82.054261 
L 119.38452 80.75498 
L 125.020872 80.02588 
L 130.657242 79.772617 
L 136.293611 79.850486 
L 141.92998 80.087313 
L 147.566333 80.310718 
L 153.202702 80.375309 
L 158.839055 80.184826 
L 164.475424 79.704678 
L 170.111794 78.961864 
L 175.748147 78.031691 
L 181.384516 77.013655 
L 187.020885 76.001692 
L 192.657238 75.055736 
L 198.293607 74.182007 
L 203.929977 73.327919 
L 209.566329 72.394338 
L 215.202699 71.26386 
L 220.839068 69.839523 
L 226.475421 68.085175 
L 232.11179 66.057432 
L 237.748159 63.920374 
L 243.384512 61.937244 
L 249.020882 60.438438 
L 254.657251 59.770359 
L 260.293604 60.234002 
L 265.929973 62.024968 
L 271.566342 65.186644 
L 277.202695 69.586087 
L 282.839064 74.918029 
L 288.475434 80.736992 
L 294.111786 86.512836 
L 299.748156 91.700704 
L 305.384525 95.813946 
L 311.020878 98.488824 
L 316.657231 99.530964 
L 322.2936 98.936924 
L 327.929969 96.888504 
L 333.566339 93.721528 
L 339.202708 89.874787 
L 344.839077 85.827639 
L 350.475413 82.036136 
L 356.111783 78.877169 
L 361.748152 76.608804 
L 367.384521 75.351176 
L 373.020891 75.089435 
L 378.65726 75.696039 
L 384.293596 76.966756 
L 389.929966 78.662942 
L 395.566335 80.552146 
L 401.202704 82.440507 
L 406.839074 84.19251 
L 412.47541 85.736754 
L 418.111779 87.059253 
L 423.748148 88.187872 
L 429.384518 89.172914 
L 435.020887 90.068499 
L 440.657256 90.918485 
L 446.293593 91.748875 
L 451.929962 92.56682 
L 457.566331 93.364683 
L 463.202701 94.126871 
L 468.83907 94.836811 
L 474.475439 95.482004 
L 480.111775 96.056014 
L 485.748145 96.557269 
L 491.384514 96.985416 
L 497.020883 97.336622 
L 502.657253 97.599252 
L 508.293622 97.751208 
L 513.929958 97.759672 
L 519.566328 97.583466 
L 525.202697 97.177618 
L 530.839066 96.499387 
L 536.475436 95.514733 
L 542.111805 94.20424 
L 547.748141 92.567654 
L 553.38451 90.626393 
L 559.02088 88.423909 
L 564.657249 86.023751 
L 570.293618 83.505755 
L 575.929988 80.960813 
L 581.566324 78.484829 
L 587.202693 76.172411 
L 592.839062 74.111118 
" style="fill:none;stroke:#ffa500;stroke-linecap:square;stroke-width:1.5;"/>
   </g>
   <g id="line2d_4">
    <path clip-path="url(#p07cec6a794)" d="M 34.839063 62.161407 
L 40.475432 64.433451 
L 46.111785 66.591642 
L 51.748154 68.496776 
L 57.384523 70.042593 
L 63.020876 71.173235 
L 68.657245 71.893859 
L 74.293615 72.272217 
L 79.929967 72.430452 
L 85.566337 72.527734 
L 91.202689 72.73594 
L 96.839059 73.211823 
L 102.475428 74.069846 
L 108.111797 75.360093 
L 113.74815 77.055143 
L 119.38452 79.048692 
L 125.020872 81.166897 
L 130.657242 83.191653 
L 136.293611 84.892604 
L 141.92998 86.06327 
L 147.566333 86.555247 
L 153.202702 86.30437 
L 158.839055 85.343552 
L 164.475424 83.798993 
L 170.111794 81.869362 
L 175.748147 79.790744 
L 181.384516 77.793307 
L 187.020885 76.057935 
L 192.657238 74.681608 
L 198.293607 73.659433 
L 203.929977 72.888262 
L 209.566329 72.192526 
L 215.202699 71.368243 
L 220.839068 70.236851 
L 226.475421 68.697779 
L 232.11179 66.768191 
L 237.748159 64.600436 
L 243.384512 62.471834 
L 249.020882 60.746997 
L 254.657251 59.818664 
L 260.293604 60.037358 
L 265.929973 61.642955 
L 271.566342 64.710989 
L 277.202695 69.123988 
L 282.839064 74.573683 
L 288.475434 80.594115 
L 294.111786 86.620699 
L 299.748156 92.06568 
L 305.384525 96.39776 
L 311.020878 99.213778 
L 316.657231 100.29139 
L 322.2936 99.61516 
L 327.929969 97.372947 
L 333.566339 93.923898 
L 339.202708 89.743765 
L 344.839077 85.356579 
L 350.475413 81.263521 
L 356.111783 77.879733 
L 361.748152 75.488613 
L 367.384521 74.219052 
L 373.020891 74.047842 
L 378.65726 74.82459 
L 384.293596 76.312971 
L 389.929966 78.239784 
L 395.566335 80.342451 
L 401.202704 82.407085 
L 406.839074 84.291581 
L 412.47541 85.931804 
L 418.111779 87.332427 
L 423.748148 88.546549 
L 429.384518 89.650032 
L 435.020887 90.716282 
L 440.657256 91.796231 
L 446.293593 92.906297 
L 451.929962 94.025015 
L 457.566331 95.097081 
L 463.202701 96.042677 
L 468.83907 96.769348 
L 474.475439 97.184218 
L 480.111775 97.204998 
L 485.748145 96.769045 
L 491.384514 95.840364 
L 497.020883 94.41468 
L 502.657253 92.522641 
L 508.293622 90.230933 
L 513.929958 87.640829 
L 519.566328 84.883439 
L 525.202697 82.111451 
L 530.839066 79.487073 
L 536.475436 77.167131 
L 542.111805 75.286695 
L 547.748141 73.943342 
L 553.38451 73.184392 
L 559.02088 72.9995 
L 564.657249 73.320114 
L 570.293618 74.026671 
L 575.929988 74.963021 
L 581.566324 75.956405 
L 587.202693 76.840348 
L 592.839062 77.477017 
" style="fill:none;stroke:#ffa500;stroke-linecap:square;stroke-width:1.5;"/>
   </g>
   <g id="line2d_5">
    <path clip-path="url(#p07cec6a794)" d="M 34.839063 59.476367 
L 40.475432 58.959799 
L 46.111785 59.10566 
L 51.748154 59.947838 
L 57.384523 61.479199 
L 63.020876 63.651909 
L 68.657245 66.380914 
L 74.293615 69.550094 
L 79.929967 73.020508 
L 85.566337 76.639792 
L 91.202689 80.251576 
L 96.839059 83.70426 
L 102.475428 86.858149 
L 108.111797 89.590892 
L 113.74815 91.80113 
L 119.38452 93.410923 
L 125.020872 94.367541 
L 130.657242 94.645434 
L 136.293611 94.24862 
L 141.92998 93.213405 
L 147.566333 91.610579 
L 153.202702 89.545624 
L 158.839055 87.155373 
L 164.475424 84.599529 
L 170.111794 82.046645 
L 175.748147 79.655174 
L 181.384516 77.552026 
L 187.020885 75.812469 
L 192.657238 74.445818 
L 198.293607 73.391318 
L 203.929977 72.527154 
L 209.566329 71.693007 
L 215.202699 70.723671 
L 220.839068 69.488318 
L 226.475421 67.927904 
L 232.11179 66.082663 
L 237.748159 64.102854 
L 243.384512 62.238576 
L 249.020882 60.808485 
L 254.657251 60.151481 
L 260.293604 60.56886 
L 265.929973 62.266922 
L 271.566342 65.310255 
L 277.202695 69.594522 
L 282.839064 74.844497 
L 288.475434 80.638714 
L 294.111786 86.458081 
L 299.748156 91.75152 
L 305.384525 96.008759 
L 311.020878 98.829526 
L 316.657231 99.97831 
L 322.2936 99.416096 
L 327.929969 97.304151 
L 333.566339 93.979078 
L 339.202708 89.903054 
L 344.839077 85.597246 
L 350.475413 81.569185 
L 356.111783 78.245676 
L 361.748152 75.922175 
L 367.384521 74.735654 
L 373.020891 74.664367 
L 378.65726 75.552423 
L 384.293596 77.152784 
L 389.929966 79.179351 
L 395.566335 81.357549 
L 401.202704 83.464446 
L 406.839074 85.352057 
L 412.47541 86.951764 
L 418.111779 88.261896 
L 423.748148 89.323594 
L 429.384518 90.192167 
L 435.020887 90.910812 
L 440.657256 91.492229 
L 446.293593 91.911056 
L 451.929962 92.107267 
L 457.566331 91.998218 
L 463.202701 91.495616 
L 468.83907 90.523202 
L 474.475439 89.031568 
L 480.111775 87.007786 
L 485.748145 84.478956 
L 491.384514 81.510376 
L 497.020883 78.199555 
L 502.657253 74.668048 
L 508.293622 71.05275 
L 513.929958 67.497887 
L 519.566328 64.14818 
L 525.202697 61.143524 
L 530.839066 58.61439 
L 536.475436 56.677767 
L 542.111805 55.433059 
L 547.748141 54.957745 
L 553.38451 55.302866 
L 559.02088 56.488708 
L 564.657249 58.501174 
L 570.293618 61.289495 
L 575.929988 64.765809 
L 581.566324 68.807003 
L 587.202693 73.259113 
L 592.839062 77.943845 
" style="fill:none;stroke:#ffa500;stroke-linecap:square;stroke-width:1.5;"/>
   </g>
   <g id="line2d_6">
    <path clip-path="url(#p07cec6a794)" d="M 34.839063 79.867504 
L 40.475432 81.109252 
L 46.111785 81.664679 
L 51.748154 81.311624 
L 57.384523 79.943013 
L 63.020876 77.588652 
L 68.657245 74.417491 
L 74.293615 70.719777 
L 79.929967 66.871216 
L 85.566337 63.284167 
L 91.202689 60.352915 
L 96.839059 58.400692 
L 102.475428 57.636427 
L 108.111797 58.127338 
L 113.74815 59.791516 
L 119.38452 62.411539 
L 125.020872 65.66691 
L 130.657242 69.180474 
L 136.293611 72.571455 
L 141.92998 75.507109 
L 147.566333 77.744868 
L 153.202702 79.158598 
L 158.839055 79.745031 
L 164.475424 79.609987 
L 170.111794 78.937198 
L 175.748147 77.945801 
L 181.384516 76.844481 
L 187.020885 75.790984 
L 192.657238 74.864674 
L 198.293607 74.057463 
L 203.929977 73.284941 
L 209.566329 72.41548 
L 215.202699 71.311526 
L 220.839068 69.874659 
L 226.475421 68.084927 
L 232.11179 66.025849 
L 237.748159 63.889107 
L 243.384512 61.956649 
L 249.020882 60.562398 
L 254.657251 60.039784 
L 260.293604 60.664005 
L 265.929973 62.599314 
L 271.566342 65.860728 
L 277.202695 70.297192 
L 282.839064 75.599645 
L 288.475434 81.333012 
L 294.111786 86.987709 
L 299.748156 92.042932 
L 305.384525 96.032275 
L 311.020878 98.602607 
L 316.657231 99.55784 
L 322.2936 98.881854 
L 327.929969 96.737981 
L 333.566339 93.445547 
L 339.202708 89.437092 
L 344.839077 85.202339 
L 350.475413 81.226596 
L 356.111783 77.931661 
L 361.748152 75.627332 
L 367.384521 74.479268 
L 373.020891 74.497528 
L 378.65726 75.546737 
L 384.293596 77.376038 
L 389.929966 79.664229 
L 395.566335 82.073127 
L 401.202704 84.301367 
L 406.839074 86.1304 
L 412.47541 87.45578 
L 418.111779 88.298982 
L 423.748148 88.797793 
L 429.384518 89.176845 
L 435.020887 89.702723 
L 440.657256 90.63069 
L 446.293593 92.151512 
L 451.929962 94.347027 
L 457.566331 97.161789 
L 463.202701 100.396049 
L 468.83907 103.721878 
L 474.475439 106.720897 
L 480.111775 108.938674 
L 485.748145 109.948334 
L 491.384514 109.414141 
L 497.020883 107.146075 
L 502.657253 103.137113 
L 508.293622 97.577539 
L 513.929958 90.843755 
L 519.566328 83.462283 
L 525.202697 76.053945 
L 530.839066 69.264558 
L 536.475436 63.691654 
L 542.111805 59.816464 
L 547.748141 57.949938 
L 553.38451 58.199547 
L 559.02088 60.460976 
L 564.657249 64.43515 
L 570.293618 69.668105 
L 575.929988 75.608017 
L 581.566324 81.671665 
L 587.202693 87.311832 
L 592.839062 92.076571 
" style="fill:none;stroke:#ffa500;stroke-linecap:square;stroke-width:1.5;"/>
   </g>
   <g id="line2d_7">
    <path clip-path="url(#p07cec6a794)" d="M 34.839063 95.706657 
L 40.475432 94.300998 
L 46.111785 92.219636 
L 51.748154 89.625677 
L 57.384523 86.781959 
L 63.020876 84.00529 
L 68.657245 81.610473 
L 74.293615 79.857087 
L 79.929967 78.910241 
L 85.566337 78.822479 
L 91.202689 79.538018 
L 96.839059 80.914879 
L 102.475428 82.756733 
L 108.111797 84.845333 
L 113.74815 86.966174 
L 119.38452 88.923949 
L 125.020872 90.548586 
L 130.657242 91.696292 
L 136.293611 92.250949 
L 141.92998 92.130257 
L 147.566333 91.297586 
L 153.202702 89.776609 
L 158.839055 87.662721 
L 164.475424 85.124029 
L 170.111794 82.38672 
L 175.748147 79.703484 
L 181.384516 77.30933 
L 187.020885 75.374159 
L 192.657238 73.96405 
L 198.293607 73.022963 
L 203.929977 72.382378 
L 209.566329 71.799622 
L 215.202699 71.0181 
L 220.839068 69.836202 
L 226.475421 68.168406 
L 232.11179 66.082996 
L 237.748159 63.806017 
L 243.384512 61.688812 
L 249.020882 60.145373 
L 254.657251 59.572978 
L 260.293604 60.273245 
L 265.929973 62.390515 
L 271.566342 65.879788 
L 277.202695 70.509382 
L 282.839064 75.895647 
L 288.475434 81.560339 
L 294.111786 86.998123 
L 299.748156 91.741213 
L 305.384525 95.41096 
L 311.020878 97.751391 
L 316.657231 98.643959 
L 322.2936 98.10659 
L 327.929969 96.281704 
L 333.566339 93.417228 
L 339.202708 89.842869 
L 344.839077 85.941991 
L 350.475413 82.118455 
L 356.111783 78.758217 
L 361.748152 76.188004 
L 367.384521 74.635397 
L 373.020891 74.197756 
L 378.65726 74.827583 
L 384.293596 76.340334 
L 389.929966 78.446664 
L 395.566335 80.805295 
L 401.202704 83.087443 
L 406.839074 85.039525 
L 412.47541 86.530142 
L 418.111779 87.570021 
L 423.748148 88.299322 
L 429.384518 88.944685 
L 435.020887 89.755581 
L 440.657256 90.935055 
L 446.293593 92.581536 
L 451.929962 94.655888 
L 457.566331 96.981522 
L 463.202701 99.27758 
L 468.83907 101.21682 
L 474.475439 102.494281 
L 480.111775 102.890569 
L 485.748145 102.315712 
L 491.384514 100.824843 
L 497.020883 98.604324 
L 502.657253 95.933825 
L 508.293622 93.134897 
L 513.929958 90.518385 
L 519.566328 88.341273 
L 525.202697 86.779812 
L 530.839066 85.919966 
L 536.475436 85.76226 
L 542.111805 86.235014 
L 547.748141 87.209954 
L 553.38451 88.51616 
L 559.02088 89.951405 
L 564.657249 91.293077 
L 570.293618 92.312219 
L 575.929988 92.793742 
L 581.566324 92.563288 
L 587.202693 91.517618 
L 592.839062 89.652097 
" style="fill:none;stroke:#ffa500;stroke-linecap:square;stroke-width:1.5;"/>
   </g>
   <g id="line2d_8">
    <path clip-path="url(#p07cec6a794)" d="M 34.839063 64.76986 
L 40.475432 68.295622 
L 46.111785 71.844513 
L 51.748154 75.259038 
L 57.384523 78.451394 
L 63.020876 81.398095 
L 68.657245 84.123712 
L 74.293615 86.678188 
L 79.929967 89.113103 
L 85.566337 91.461499 
L 91.202689 93.724545 
L 96.839059 95.866667 
L 102.475428 97.818509 
L 108.111797 99.486024 
L 113.74815 100.763023 
L 119.38452 101.544734 
L 125.020872 101.740522 
L 130.657242 101.284974 
L 136.293611 100.147126 
L 141.92998 98.338022 
L 147.566333 95.916348 
L 153.202702 92.991085 
L 158.839055 89.719516 
L 164.475424 86.298254 
L 170.111794 82.946033 
L 175.748147 79.878198 
L 181.384516 77.275545 
L 187.020885 75.252774 
L 192.657238 73.833387 
L 198.293607 72.938432 
L 203.929977 72.394649 
L 209.566329 71.963749 
L 215.202699 71.389761 
L 220.839068 70.456331 
L 226.475421 69.042286 
L 232.11179 67.162724 
L 237.748159 64.985005 
L 243.384512 62.813698 
L 249.020882 61.045273 
L 254.657251 60.100073 
L 260.293604 60.344188 
L 265.929973 62.016561 
L 271.566342 65.175579 
L 277.202695 69.675545 
L 282.839064 75.177465 
L 288.475434 81.191692 
L 294.111786 87.144618 
L 299.748156 92.457511 
L 305.384525 96.624174 
L 311.020878 99.275862 
L 316.657231 100.224365 
L 322.2936 99.478584 
L 327.929969 97.234295 
L 333.566339 93.84044 
L 339.202708 89.748135 
L 344.839077 85.450283 
L 350.475413 81.420148 
L 356.111783 78.056604 
L 361.748152 75.642916 
L 367.384521 74.323038 
L 373.020891 74.097867 
L 378.65726 74.840734 
L 384.293596 76.329031 
L 389.929966 78.28683 
L 395.566335 80.431716 
L 401.202704 82.518912 
L 406.839074 84.376019 
L 412.47541 85.923376 
L 418.111779 87.177339 
L 423.748148 88.236262 
L 429.384518 89.25199 
L 435.020887 90.391649 
L 440.657256 91.796238 
L 446.293593 93.54305 
L 451.929962 95.618524 
L 457.566331 97.906382 
L 463.202701 100.193934 
L 468.83907 102.196282 
L 474.475439 103.595433 
L 480.111775 104.08875 
L 485.748145 103.439418 
L 491.384514 101.520927 
L 497.020883 98.348233 
L 502.657253 94.089955 
L 508.293622 89.058857 
L 513.929958 83.681151 
L 519.566328 78.448325 
L 525.202697 73.858665 
L 530.839066 70.356266 
L 536.475436 68.276906 
L 542.111805 67.808434 
L 547.748141 68.971287 
L 553.38451 71.621583 
L 559.02088 75.475572 
L 564.657249 80.151235 
L 570.293618 85.220175 
L 575.929988 90.261799 
L 581.566324 94.911848 
L 587.202693 98.898935 
L 592.839062 102.064527 
" style="fill:none;stroke:#ffa500;stroke-linecap:square;stroke-width:1.5;"/>
   </g>
   <g id="line2d_9">
    <path clip-path="url(#p07cec6a794)" d="M 34.839063 70.519638 
L 40.475432 69.77486 
L 46.111785 70.012796 
L 51.748154 71.626594 
L 57.384523 74.835024 
L 63.020876 79.644869 
L 68.657245 85.843885 
L 74.293615 93.025062 
L 79.929967 100.638613 
L 85.566337 108.063492 
L 91.202689 114.68712 
L 96.839059 119.981682 
L 102.475428 123.565064 
L 108.111797 125.238458 
L 113.74815 124.995978 
L 119.38452 123.006945 
L 125.020872 119.576005 
L 130.657242 115.089612 
L 136.293611 109.959327 
L 141.92998 104.571546 
L 147.566333 99.251207 
L 153.202702 94.242846 
L 158.839055 89.708611 
L 164.475424 85.73846 
L 170.111794 82.366576 
L 175.748147 79.587058 
L 181.384516 77.364355 
L 187.020885 75.636905 
L 192.657238 74.315721 
L 198.293607 73.282512 
L 203.929977 72.392743 
L 209.566329 71.487812 
L 215.202699 70.417639 
L 220.839068 69.071106 
L 226.475421 67.408111 
L 232.11179 65.484985 
L 237.748159 63.465143 
L 243.384512 61.609183 
L 249.020882 60.243072 
L 254.657251 59.70809 
L 260.293604 60.300567 
L 265.929973 62.2125 
L 271.566342 65.484513 
L 277.202695 69.980771 
L 282.839064 75.391656 
L 288.475434 81.264747 
L 294.111786 87.060064 
L 299.748156 92.221006 
L 305.384525 96.249684 
L 311.020878 98.775161 
L 316.657231 99.603727 
L 322.2936 98.743472 
L 327.929969 96.39958 
L 333.566339 92.941247 
L 339.202708 88.845733 
L 344.839077 84.628754 
L 350.475413 80.772632 
L 356.111783 77.663739 
L 361.748152 75.549405 
L 367.384521 74.520057 
L 373.020891 74.518339 
L 378.65726 75.371385 
L 384.293596 76.838343 
L 389.929966 78.662681 
L 395.566335 80.618338 
L 401.202704 82.541094 
L 406.839074 84.340062 
L 412.47541 85.989147 
L 418.111779 87.502905 
L 423.748148 88.904442 
L 429.384518 90.194757 
L 435.020887 91.331839 
L 440.657256 92.225321 
L 446.293593 92.748454 
L 451.929962 92.764888 
L 457.566331 92.164052 
L 463.202701 90.896808 
L 468.83907 89.002583 
L 474.475439 86.620876 
L 480.111775 83.983084 
L 485.748145 81.384552 
L 491.384514 79.141112 
L 497.020883 77.53718 
L 502.657253 76.774983 
L 508.293622 76.934394 
L 513.929958 77.951374 
L 519.566328 79.620018 
L 525.202697 81.619029 
L 530.839066 83.559393 
L 536.475436 85.046086 
L 542.111805 85.744029 
L 547.748141 85.437504 
L 553.38451 84.072868 
L 559.02088 81.776942 
L 564.657249 78.847046 
L 570.293618 75.713147 
L 575.929988 72.877069 
L 581.566324 70.837481 
L 587.202693 70.011791 
L 592.839062 70.667151 
" style="fill:none;stroke:#ffa500;stroke-linecap:square;stroke-width:1.5;"/>
   </g>
   <g id="line2d_10">
    <path clip-path="url(#p07cec6a794)" d="M 34.839063 78.101347 
L 40.475432 81.334796 
L 46.111785 83.881846 
L 51.748154 85.50015 
L 57.384523 86.076201 
L 63.020876 85.636131 
L 68.657245 84.337173 
L 74.293615 82.441669 
L 79.929967 80.277723 
L 85.566337 78.192335 
L 91.202689 76.503721 
L 96.839059 75.459154 
L 102.475428 75.203933 
L 108.111797 75.765107 
L 113.74815 77.051715 
L 119.38452 78.871019 
L 125.020872 80.958092 
L 130.657242 83.014651 
L 136.293611 84.751586 
L 141.92998 85.929467 
L 147.566333 86.391209 
L 153.202702 86.082147 
L 158.839055 85.054315 
L 164.475424 83.453892 
L 170.111794 81.493421 
L 175.748147 79.412875 
L 181.384516 77.435973 
L 187.020885 75.729567 
L 192.657238 74.373784 
L 198.293607 73.349407 
L 203.929977 72.546005 
L 209.566329 71.790316 
L 215.202699 70.890294 
L 220.839068 69.686491 
L 226.475421 68.100282 
L 232.11179 66.168359 
L 237.748159 64.055198 
L 243.384512 62.039175 
L 249.020882 60.473384 
L 254.657251 59.727478 
L 260.293604 60.120772 
L 265.929973 61.859125 
L 271.566342 64.987535 
L 277.202695 69.367625 
L 282.839064 74.684746 
L 288.475434 80.483749 
L 294.111786 86.227865 
L 299.748156 91.370944 
L 305.384525 95.43116 
L 311.020878 98.0549 
L 316.657231 99.061013 
L 322.2936 98.459307 
L 327.929969 96.441607 
L 333.566339 93.347842 
L 339.202708 89.613507 
L 344.839077 85.707402 
L 350.475413 82.069621 
L 356.111783 79.058994 
L 361.748152 76.917521 
L 367.384521 75.755322 
L 373.020891 75.556625 
L 378.65726 76.203264 
L 384.293596 77.509515 
L 389.929966 79.260751 
L 395.566335 81.24839 
L 401.202704 83.295547 
L 406.839074 85.270213 
L 412.47541 87.086033 
L 418.111779 88.693483 
L 423.748148 90.065872 
L 429.384518 91.18544 
L 435.020887 92.033638 
L 440.657256 92.588078 
L 446.293593 92.826293 
L 451.929962 92.734289 
L 457.566331 92.316441 
L 463.202701 91.602883 
L 468.83907 90.651188 
L 474.475439 89.540667 
L 480.111775 88.359613 
L 485.748145 87.187742 
L 491.384514 86.07762 
L 497.020883 85.039277 
L 502.657253 84.032075 
L 508.293622 82.966523 
L 513.929958 81.716931 
L 519.566328 80.143598 
L 525.202697 78.121437 
L 530.839066 75.570196 
L 536.475436 72.481071 
L 542.111805 68.934553 
L 547.748141 65.105624 
L 553.38451 61.254085 
L 559.02088 57.700582 
L 564.657249 54.79048 
L 570.293618 52.850542 
L 575.929988 52.144336 
L 581.566324 52.832931 
L 587.202693 54.946979 
L 592.839062 58.37473 
" style="fill:none;stroke:#ffa500;stroke-linecap:square;stroke-width:1.5;"/>
   </g>
   <g id="line2d_11">
    <path clip-path="url(#p07cec6a794)" d="M 34.839063 81.290514 
L 40.475432 81.325557 
L 46.111785 81.380258 
L 51.748154 81.463425 
L 57.384523 81.586506 
L 63.020876 81.763654 
L 68.657245 82.011373 
L 74.293615 82.347503 
L 79.929967 82.789386 
L 85.566337 83.351068 
L 91.202689 84.039576 
L 96.839059 84.850567 
L 102.475428 85.763845 
L 108.111797 86.739658 
L 113.74815 87.716812 
L 119.38452 88.61376 
L 125.020872 89.33355 
L 130.657242 89.773079 
L 136.293611 89.836171 
L 141.92998 89.449044 
L 147.566333 88.57567 
L 153.202702 87.22983 
L 158.839055 85.480572 
L 164.475424 83.448345 
L 170.111794 81.290774 
L 175.748147 79.179015 
L 181.384516 77.268161 
L 187.020885 75.667306 
L 192.657238 74.41576 
L 198.293607 73.471783 
L 203.929977 72.718191 
L 209.566329 71.985784 
L 215.202699 71.09166 
L 220.839068 69.88556 
L 226.475421 68.29478 
L 232.11179 66.357488 
L 237.748159 64.235971 
L 243.384512 62.204889 
L 249.020882 60.614691 
L 254.657251 59.835651 
L 260.293604 60.192067 
L 265.929973 61.898774 
L 271.566342 65.011929 
L 277.202695 69.403651 
L 282.839064 74.765912 
L 288.475434 80.643551 
L 294.111786 86.491623 
L 299.748156 91.747868 
L 305.384525 95.908599 
L 311.020878 98.596472 
L 316.657231 99.609595 
L 322.2936 98.944885 
L 327.929969 96.792837 
L 333.566339 93.505231 
L 339.202708 89.541496 
L 344.839077 85.402637 
L 350.475413 81.563278 
L 356.111783 78.41216 
L 361.748152 76.210084 
L 367.384521 75.070267 
L 373.020891 74.96279 
L 378.65726 75.740151 
L 384.293596 77.177562 
L 389.929966 79.019578 
L 395.566335 81.024038 
L 401.202704 82.995983 
L 406.839074 84.806674 
L 412.47541 86.396482 
L 418.111779 87.763773 
L 423.748148 88.944358 
L 429.384518 89.98765 
L 435.020887 90.935162 
L 440.657256 91.805779 
L 446.293593 92.590001 
L 451.929962 93.253006 
L 457.566331 93.744375 
L 463.202701 94.011289 
L 468.83907 94.011615 
L 474.475439 93.723972 
L 480.111775 93.152983 
L 485.748145 92.329223 
L 491.384514 91.304634 
L 497.020883 90.144862 
L 502.657253 88.920405 
L 508.293622 87.698283 
L 513.929958 86.535509 
L 519.566328 85.475008 
L 525.202697 84.544182 
L 530.839066 83.755607 
L 536.475436 83.109345 
L 542.111805 82.596089 
L 547.748141 82.200511 
L 553.38451 81.904291 
L 559.02088 81.688569 
L 564.657249 81.535663 
L 570.293618 81.430104 
L 575.929988 81.359085 
L 581.566324 81.312498 
L 587.202693 81.282687 
L 592.839062 81.264072 
" style="fill:none;stroke:#000000;stroke-linecap:square;stroke-width:1.5;"/>
   </g>
   <g id="line2d_12">
    <path clip-path="url(#p07cec6a794)" d="M 34.839063 108.217121 
L 40.475426 108.23125 
L 46.11179 108.255829 
L 51.748153 108.297204 
L 57.384517 108.364508 
L 63.020881 108.470094 
L 68.657244 108.629428 
L 74.293608 108.859925 
L 79.929972 109.178127 
L 85.566335 109.594732 
L 91.202699 110.1074 
L 96.839063 110.692064 
L 102.475426 111.294469 
L 108.11179 111.824553 
L 113.748153 112.15656 
L 119.384517 112.137192 
L 125.020881 111.602679 
L 130.657244 110.40356 
L 136.293608 108.433867 
L 141.929972 105.659571 
L 147.566335 102.140322 
L 153.202699 98.039141 
L 158.839063 93.617313 
L 164.475426 89.215752 
L 170.11179 85.221402 
L 175.748153 81.968405 
L 181.384517 79.518654 
L 187.020881 77.690624 
L 192.657244 76.35167 
L 198.293608 75.423169 
L 203.929972 74.773471 
L 209.566335 74.190327 
L 215.202699 73.428945 
L 220.839063 72.289248 
L 226.475426 70.679956 
L 232.11179 68.652793 
L 237.748153 66.406474 
L 243.384517 64.261953 
L 249.020881 62.61098 
L 254.657244 61.845713 
L 260.293608 62.284031 
L 265.929972 64.107555 
L 271.566335 67.325151 
L 277.202699 71.766865 
L 282.839063 77.105746 
L 288.475426 82.89953 
L 294.11179 88.641814 
L 299.748153 93.815063 
L 305.384517 97.944778 
L 311.020881 100.656579 
L 316.657244 101.729964 
L 322.293608 101.134138 
L 327.929972 99.033619 
L 333.566335 95.761313 
L 339.202699 91.767696 
L 344.839063 87.559307 
L 350.475426 83.634654 
L 356.11179 80.420265 
L 361.748153 78.212789 
L 367.384517 77.139568 
L 373.020881 77.151597 
L 378.657244 78.055117 
L 384.293608 79.573445 
L 389.929972 81.418655 
L 395.566335 83.35054 
L 401.202699 85.20698 
L 406.839063 86.904154 
L 412.475426 88.420098 
L 418.11179 89.775413 
L 423.748153 91.010946 
L 429.384517 92.157079 
L 435.020881 93.203621 
L 440.657244 94.104133 
L 446.293608 94.857794 
L 451.929972 95.636806 
L 457.566335 96.68513 
L 463.202699 98.03051 
L 468.839063 99.555028 
L 474.475426 101.137309 
L 480.11179 102.67561 
L 485.748153 104.086506 
L 491.384517 105.307477 
L 497.020881 106.300959 
L 502.657244 107.056171 
L 508.293608 107.587076 
L 513.929972 107.926572 
L 519.566335 108.118238 
L 525.202699 108.207649 
L 530.839063 108.235213 
L 536.475426 108.231849 
L 542.11179 108.217824 
L 547.748153 108.20408 
L 553.384517 108.194878 
L 559.020881 108.190592 
L 564.657244 108.189926 
L 570.293608 108.191282 
L 575.929972 108.193393 
L 581.566335 108.19549 
L 587.202699 108.197215 
L 592.839062 108.198481 
" style="fill:none;stroke:#800080;stroke-dasharray:5.55,2.4;stroke-dashoffset:0;stroke-width:1.5;"/>
   </g>
   <g id="line2d_13">
    <path clip-path="url(#p07cec6a794)" d="M 34.839063 81.253744 
L 40.475426 81.267923 
L 46.11179 81.29265 
L 51.748153 81.334449 
L 57.384517 81.402899 
L 63.020881 81.511404 
L 68.657244 81.677746 
L 74.293608 81.924102 
L 79.929972 82.276099 
L 85.566335 82.760479 
L 91.202699 83.401019 
L 96.839063 84.212619 
L 102.475426 85.193946 
L 108.11179 86.319637 
L 113.748153 87.533735 
L 119.384517 88.746533 
L 125.020881 89.837069 
L 130.657244 90.662956 
L 136.293608 91.077914 
L 141.929972 90.955425 
L 147.566335 90.214756 
L 153.202699 88.843801 
L 158.839063 86.912501 
L 164.475426 84.571492 
L 170.11179 82.033334 
L 175.748153 79.537711 
L 181.384517 77.306453 
L 187.020881 75.497875 
L 192.657244 74.171449 
L 198.293608 73.272601 
L 203.929972 72.643326 
L 209.566335 72.058329 
L 215.202699 71.279983 
L 220.839063 70.12027 
L 226.475426 68.495541 
L 232.11179 66.461049 
L 237.748153 64.216562 
L 243.384517 62.080858 
L 249.020881 60.439868 
L 254.657244 59.678882 
L 260.293608 60.112357 
L 265.929972 61.924724 
L 271.566335 65.132586 
L 277.202699 69.573814 
L 282.839063 74.923701 
L 288.475426 80.733794 
L 294.11179 86.48627 
L 299.748153 91.65578 
L 305.384517 95.771198 
L 311.020881 98.470796 
L 316.657244 99.545419 
L 322.293608 98.964929 
L 327.929972 96.883887 
L 333.566335 93.623828 
L 339.202699 89.632056 
L 344.839063 85.420819 
L 350.475426 81.49516 
L 356.11179 78.281434 
L 361.748153 76.069866 
L 367.384517 74.98263 
L 373.020881 74.973783 
L 378.657244 75.860127 
L 384.293608 77.374758 
L 389.929972 79.229811 
L 395.566335 81.173383 
L 401.202699 83.028124 
L 406.839063 84.704799 
L 412.475426 86.191266 
L 418.11179 87.523741 
L 423.748153 88.751088 
L 429.384517 89.903263 
L 435.020881 90.97238 
L 440.657244 91.910044 
L 446.293608 92.639521 
L 451.929972 93.077268 
L 457.566335 93.156517 
L 463.202699 92.846021 
L 468.839063 92.159417 
L 474.475426 91.153798 
L 480.11179 89.919133 
L 485.748153 88.562179 
L 491.384517 87.189274 
L 497.020881 85.891805 
L 502.657244 84.736782 
L 508.293608 83.763293 
L 513.929972 82.984132 
L 519.566335 82.391033 
L 525.202699 81.961582 
L 530.839063 81.66614 
L 536.475426 81.47359 
L 542.11179 81.355357 
L 547.748153 81.287632 
L 553.384517 81.252126 
L 559.020881 81.235778 
L 564.657244 81.229904 
L 570.293608 81.229139 
L 575.929972 81.230437 
L 581.566335 81.232239 
L 587.202699 81.233863 
L 592.839062 81.235097 
" style="fill:none;stroke:#800080;stroke-linecap:square;stroke-width:1.5;"/>
   </g>
   <g id="line2d_14">
    <path clip-path="url(#p07cec6a794)" d="M 34.839063 54.290367 
L 40.475426 54.304595 
L 46.11179 54.32947 
L 51.748153 54.371695 
L 57.384517 54.441291 
L 63.020881 54.552714 
L 68.657244 54.726064 
L 74.293608 54.988279 
L 79.929972 55.37407 
L 85.566335 55.926226 
L 91.202699 56.694638 
L 96.839063 57.733175 
L 102.475426 59.093424 
L 108.11179 60.81472 
L 113.748153 62.91091 
L 119.384517 65.355874 
L 125.020881 68.071459 
L 130.657244 70.922352 
L 136.293608 73.721961 
L 141.929972 76.25128 
L 147.566335 78.289191 
L 153.202699 79.648462 
L 158.839063 80.207689 
L 164.475426 79.927232 
L 170.11179 78.845267 
L 175.748153 77.107018 
L 181.384517 75.094253 
L 187.020881 73.305125 
L 192.657244 71.991227 
L 198.293608 71.122033 
L 203.929972 70.51318 
L 209.566335 69.926331 
L 215.202699 69.131021 
L 220.839063 67.951292 
L 226.475426 66.311127 
L 232.11179 64.269306 
L 237.748153 62.026649 
L 243.384517 59.899764 
L 249.020881 58.268756 
L 254.657244 57.51205 
L 260.293608 57.940683 
L 265.929972 59.741893 
L 271.566335 62.94002 
L 277.202699 67.380763 
L 282.839063 72.741656 
L 288.475426 78.568057 
L 294.11179 84.330725 
L 299.748153 89.496496 
L 305.384517 93.597618 
L 311.020881 96.285013 
L 316.657244 97.360875 
L 322.293608 96.795719 
L 327.929972 94.734155 
L 333.566335 91.486344 
L 339.202699 87.496417 
L 344.839063 83.282331 
L 350.475426 79.355666 
L 356.11179 76.142603 
L 361.748153 73.926943 
L 367.384517 72.825692 
L 373.020881 72.79597 
L 378.657244 73.665138 
L 384.293608 75.176071 
L 389.929972 77.040967 
L 395.566335 78.996225 
L 401.202699 80.849267 
L 406.839063 82.505445 
L 412.475426 83.962433 
L 418.11179 85.27207 
L 423.748153 86.49123 
L 429.384517 87.649448 
L 435.020881 88.741139 
L 440.657244 89.715956 
L 446.293608 90.421247 
L 451.929972 90.517729 
L 457.566335 89.627903 
L 463.202699 87.661533 
L 468.839063 84.763806 
L 474.475426 81.170288 
L 480.11179 77.162655 
L 485.748153 73.037852 
L 491.384517 69.071072 
L 497.020881 65.482651 
L 502.657244 62.417394 
L 508.293608 59.939509 
L 513.929972 58.041692 
L 519.566335 56.663828 
L 525.202699 55.715515 
L 530.839063 55.097068 
L 536.475426 54.715332 
L 542.11179 54.492889 
L 547.748153 54.371184 
L 553.384517 54.309375 
L 559.020881 54.280965 
L 564.657244 54.269881 
L 570.293608 54.266996 
L 575.929972 54.267481 
L 581.566335 54.268988 
L 587.202699 54.270512 
L 592.839062 54.271712 
" style="fill:none;stroke:#800080;stroke-dasharray:5.55,2.4;stroke-dashoffset:0;stroke-width:1.5;"/>
   </g>
   <g id="matplotlib.axis_1">
    <g id="xtick_1">
     <g id="line2d_15">
      <defs>
       <path d="M 0 0 
L 0 3.5 
" id="md952c1a3da" style="stroke:#000000;stroke-width:0.8;"/>
      </defs>
      <g>
       <use style="stroke:#000000;stroke-width:0.8;" x="104.589063" xlink:href="#md952c1a3da" y="189.957188"/>
      </g>
     </g>
     <g id="text_1">
      <!-- −6 -->
      <defs>
       <path d="M 10.59375 35.5 
L 73.1875 35.5 
L 73.1875 27.203125 
L 10.59375 27.203125 
z
" id="DejaVuSans-8722"/>
       <path d="M 33.015625 40.375 
Q 26.375 40.375 22.484375 35.828125 
Q 18.609375 31.296875 18.609375 23.390625 
Q 18.609375 15.53125 22.484375 10.953125 
Q 26.375 6.390625 33.015625 6.390625 
Q 39.65625 6.390625 43.53125 10.953125 
Q 47.40625 15.53125 47.40625 23.390625 
Q 47.40625 31.296875 43.53125 35.828125 
Q 39.65625 40.375 33.015625 40.375 
z
M 52.59375 71.296875 
L 52.59375 62.3125 
Q 48.875 64.0625 45.09375 64.984375 
Q 41.3125 65.921875 37.59375 65.921875 
Q 27.828125 65.921875 22.671875 59.328125 
Q 17.53125 52.734375 16.796875 39.40625 
Q 19.671875 43.65625 24.015625 45.921875 
Q 28.375 48.1875 33.59375 48.1875 
Q 44.578125 48.1875 50.953125 41.515625 
Q 57.328125 34.859375 57.328125 23.390625 
Q 57.328125 12.15625 50.6875 5.359375 
Q 44.046875 -1.421875 33.015625 -1.421875 
Q 20.359375 -1.421875 13.671875 8.265625 
Q 6.984375 17.96875 6.984375 36.375 
Q 6.984375 53.65625 15.1875 63.9375 
Q 23.390625 74.21875 37.203125 74.21875 
Q 40.921875 74.21875 44.703125 73.484375 
Q 48.484375 72.75 52.59375 71.296875 
z
" id="DejaVuSans-54"/>
      </defs>
      <g transform="translate(94.269531 207.595)scale(0.14 -0.14)">
       <use xlink:href="#DejaVuSans-8722"/>
       <use x="83.789062" xlink:href="#DejaVuSans-54"/>
      </g>
     </g>
    </g>
    <g id="xtick_2">
     <g id="line2d_16">
      <g>
       <use style="stroke:#000000;stroke-width:0.8;" x="244.089063" xlink:href="#md952c1a3da" y="189.957188"/>
      </g>
     </g>
     <g id="text_2">
      <!-- −2 -->
      <defs>
       <path d="M 19.1875 8.296875 
L 53.609375 8.296875 
L 53.609375 0 
L 7.328125 0 
L 7.328125 8.296875 
Q 12.9375 14.109375 22.625 23.890625 
Q 32.328125 33.6875 34.8125 36.53125 
Q 39.546875 41.84375 41.421875 45.53125 
Q 43.3125 49.21875 43.3125 52.78125 
Q 43.3125 58.59375 39.234375 62.25 
Q 35.15625 65.921875 28.609375 65.921875 
Q 23.96875 65.921875 18.8125 64.3125 
Q 13.671875 62.703125 7.8125 59.421875 
L 7.8125 69.390625 
Q 13.765625 71.78125 18.9375 73 
Q 24.125 74.21875 28.421875 74.21875 
Q 39.75 74.21875 46.484375 68.546875 
Q 53.21875 62.890625 53.21875 53.421875 
Q 53.21875 48.921875 51.53125 44.890625 
Q 49.859375 40.875 45.40625 35.40625 
Q 44.1875 33.984375 37.640625 27.21875 
Q 31.109375 20.453125 19.1875 8.296875 
z
" id="DejaVuSans-50"/>
      </defs>
      <g transform="translate(233.769531 207.595)scale(0.14 -0.14)">
       <use xlink:href="#DejaVuSans-8722"/>
       <use x="83.789062" xlink:href="#DejaVuSans-50"/>
      </g>
     </g>
    </g>
    <g id="xtick_3">
     <g id="line2d_17">
      <g>
       <use style="stroke:#000000;stroke-width:0.8;" x="383.589063" xlink:href="#md952c1a3da" y="189.957188"/>
      </g>
     </g>
     <g id="text_3">
      <!-- 2 -->
      <g transform="translate(379.135312 207.595)scale(0.14 -0.14)">
       <use xlink:href="#DejaVuSans-50"/>
      </g>
     </g>
    </g>
    <g id="xtick_4">
     <g id="line2d_18">
      <g>
       <use style="stroke:#000000;stroke-width:0.8;" x="523.089062" xlink:href="#md952c1a3da" y="189.957188"/>
      </g>
     </g>
     <g id="text_4">
      <!-- 6 -->
      <g transform="translate(518.635312 207.595)scale(0.14 -0.14)">
       <use xlink:href="#DejaVuSans-54"/>
      </g>
     </g>
    </g>
   </g>
   <g id="matplotlib.axis_2">
    <g id="ytick_1">
     <g id="line2d_19">
      <defs>
       <path d="M 0 0 
L -3.5 0 
" id="mcefb50457e" style="stroke:#000000;stroke-width:0.8;"/>
      </defs>
      <g>
       <use style="stroke:#000000;stroke-width:0.8;" x="34.839063" xlink:href="#mcefb50457e" y="162.777188"/>
      </g>
     </g>
     <g id="text_5">
      <!-- −6 -->
      <g transform="translate(7.2 168.096094)scale(0.14 -0.14)">
       <use xlink:href="#DejaVuSans-8722"/>
       <use x="83.789062" xlink:href="#DejaVuSans-54"/>
      </g>
     </g>
    </g>
    <g id="ytick_2">
     <g id="line2d_20">
      <g>
       <use style="stroke:#000000;stroke-width:0.8;" x="34.839063" xlink:href="#mcefb50457e" y="122.007188"/>
      </g>
     </g>
     <g id="text_6">
      <!-- −3 -->
      <defs>
       <path d="M 40.578125 39.3125 
Q 47.65625 37.796875 51.625 33 
Q 55.609375 28.21875 55.609375 21.1875 
Q 55.609375 10.40625 48.1875 4.484375 
Q 40.765625 -1.421875 27.09375 -1.421875 
Q 22.515625 -1.421875 17.65625 -0.515625 
Q 12.796875 0.390625 7.625 2.203125 
L 7.625 11.71875 
Q 11.71875 9.328125 16.59375 8.109375 
Q 21.484375 6.890625 26.8125 6.890625 
Q 36.078125 6.890625 40.9375 10.546875 
Q 45.796875 14.203125 45.796875 21.1875 
Q 45.796875 27.640625 41.28125 31.265625 
Q 36.765625 34.90625 28.71875 34.90625 
L 20.21875 34.90625 
L 20.21875 43.015625 
L 29.109375 43.015625 
Q 36.375 43.015625 40.234375 45.921875 
Q 44.09375 48.828125 44.09375 54.296875 
Q 44.09375 59.90625 40.109375 62.90625 
Q 36.140625 65.921875 28.71875 65.921875 
Q 24.65625 65.921875 20.015625 65.03125 
Q 15.375 64.15625 9.8125 62.3125 
L 9.8125 71.09375 
Q 15.4375 72.65625 20.34375 73.4375 
Q 25.25 74.21875 29.59375 74.21875 
Q 40.828125 74.21875 47.359375 69.109375 
Q 53.90625 64.015625 53.90625 55.328125 
Q 53.90625 49.265625 50.4375 45.09375 
Q 46.96875 40.921875 40.578125 39.3125 
z
" id="DejaVuSans-51"/>
      </defs>
      <g transform="translate(7.2 127.326094)scale(0.14 -0.14)">
       <use xlink:href="#DejaVuSans-8722"/>
       <use x="83.789062" xlink:href="#DejaVuSans-51"/>
      </g>
     </g>
    </g>
    <g id="ytick_3">
     <g id="line2d_21">
      <g>
       <use style="stroke:#000000;stroke-width:0.8;" x="34.839063" xlink:href="#mcefb50457e" y="81.237188"/>
      </g>
     </g>
     <g id="text_7">
      <!-- 0 -->
      <defs>
       <path d="M 31.78125 66.40625 
Q 24.171875 66.40625 20.328125 58.90625 
Q 16.5 51.421875 16.5 36.375 
Q 16.5 21.390625 20.328125 13.890625 
Q 24.171875 6.390625 31.78125 6.390625 
Q 39.453125 6.390625 43.28125 13.890625 
Q 47.125 21.390625 47.125 36.375 
Q 47.125 51.421875 43.28125 58.90625 
Q 39.453125 66.40625 31.78125 66.40625 
z
M 31.78125 74.21875 
Q 44.046875 74.21875 50.515625 64.515625 
Q 56.984375 54.828125 56.984375 36.375 
Q 56.984375 17.96875 50.515625 8.265625 
Q 44.046875 -1.421875 31.78125 -1.421875 
Q 19.53125 -1.421875 13.0625 8.265625 
Q 6.59375 17.96875 6.59375 36.375 
Q 6.59375 54.828125 13.0625 64.515625 
Q 19.53125 74.21875 31.78125 74.21875 
z
" id="DejaVuSans-48"/>
      </defs>
      <g transform="translate(18.931563 86.556094)scale(0.14 -0.14)">
       <use xlink:href="#DejaVuSans-48"/>
      </g>
     </g>
    </g>
    <g id="ytick_4">
     <g id="line2d_22">
      <g>
       <use style="stroke:#000000;stroke-width:0.8;" x="34.839063" xlink:href="#mcefb50457e" y="40.467188"/>
      </g>
     </g>
     <g id="text_8">
      <!-- 3 -->
      <g transform="translate(18.931563 45.786094)scale(0.14 -0.14)">
       <use xlink:href="#DejaVuSans-51"/>
      </g>
     </g>
    </g>
   </g>
   <g id="PathCollection_1">
    <defs>
     <path d="M -3 0 
L 3 0 
M 0 3 
L 0 -3 
" id="mdec0bd0cc3" style="stroke:#ff0000;stroke-width:1.5;"/>
    </defs>
    <g clip-path="url(#p07cec6a794)">
     <use style="fill:#ff0000;stroke:#ff0000;stroke-width:1.5;" x="327.45803" xlink:href="#mdec0bd0cc3" y="97.150549"/>
     <use style="fill:#ff0000;stroke:#ff0000;stroke-width:1.5;" x="373.876896" xlink:href="#mdec0bd0cc3" y="76.503695"/>
     <use style="fill:#ff0000;stroke:#ff0000;stroke-width:1.5;" x="342.510044" xlink:href="#mdec0bd0cc3" y="89.810659"/>
     <use style="fill:#ff0000;stroke:#ff0000;stroke-width:1.5;" x="326.361471" xlink:href="#mdec0bd0cc3" y="100.130537"/>
     <use style="fill:#ff0000;stroke:#ff0000;stroke-width:1.5;" x="292.538752" xlink:href="#mdec0bd0cc3" y="86.742906"/>
     <use style="fill:#ff0000;stroke:#ff0000;stroke-width:1.5;" x="354.54352" xlink:href="#mdec0bd0cc3" y="79.050137"/>
     <use style="fill:#ff0000;stroke:#ff0000;stroke-width:1.5;" x="296.425894" xlink:href="#mdec0bd0cc3" y="87.661292"/>
     <use style="fill:#ff0000;stroke:#ff0000;stroke-width:1.5;" x="423.14373" xlink:href="#mdec0bd0cc3" y="89.344116"/>
     <use style="fill:#ff0000;stroke:#ff0000;stroke-width:1.5;" x="443.200973" xlink:href="#mdec0bd0cc3" y="94.050452"/>
     <use style="fill:#ff0000;stroke:#ff0000;stroke-width:1.5;" x="281.319246" xlink:href="#mdec0bd0cc3" y="75.393943"/>
     <use style="fill:#ff0000;stroke:#ff0000;stroke-width:1.5;" x="395.230348" xlink:href="#mdec0bd0cc3" y="82.173196"/>
     <use style="fill:#ff0000;stroke:#ff0000;stroke-width:1.5;" x="321.900745" xlink:href="#mdec0bd0cc3" y="97.680252"/>
     <use style="fill:#ff0000;stroke:#ff0000;stroke-width:1.5;" x="332.823495" xlink:href="#mdec0bd0cc3" y="94.803565"/>
     <use style="fill:#ff0000;stroke:#ff0000;stroke-width:1.5;" x="432.580525" xlink:href="#mdec0bd0cc3" y="90.02297"/>
     <use style="fill:#ff0000;stroke:#ff0000;stroke-width:1.5;" x="194.158123" xlink:href="#mdec0bd0cc3" y="74.643384"/>
     <use style="fill:#ff0000;stroke:#ff0000;stroke-width:1.5;" x="198.648137" xlink:href="#mdec0bd0cc3" y="72.369534"/>
     <use style="fill:#ff0000;stroke:#ff0000;stroke-width:1.5;" x="179.979995" xlink:href="#mdec0bd0cc3" y="77.948636"/>
     <use style="fill:#ff0000;stroke:#ff0000;stroke-width:1.5;" x="406.639999" xlink:href="#mdec0bd0cc3" y="82.133238"/>
     <use style="fill:#ff0000;stroke:#ff0000;stroke-width:1.5;" x="391.444796" xlink:href="#mdec0bd0cc3" y="79.431809"/>
     <use style="fill:#ff0000;stroke:#ff0000;stroke-width:1.5;" x="417.072452" xlink:href="#mdec0bd0cc3" y="85.996597"/>
     <use style="fill:#ff0000;stroke:#ff0000;stroke-width:1.5;" x="447.37358" xlink:href="#mdec0bd0cc3" y="90.409392"/>
     <use style="fill:#ff0000;stroke:#ff0000;stroke-width:1.5;" x="397.304302" xlink:href="#mdec0bd0cc3" y="83.20912"/>
     <use style="fill:#ff0000;stroke:#ff0000;stroke-width:1.5;" x="303.091805" xlink:href="#mdec0bd0cc3" y="95.710897"/>
     <use style="fill:#ff0000;stroke:#ff0000;stroke-width:1.5;" x="392.106703" xlink:href="#mdec0bd0cc3" y="78.658959"/>
     <use style="fill:#ff0000;stroke:#ff0000;stroke-width:1.5;" x="207.337627" xlink:href="#mdec0bd0cc3" y="73.491105"/>
     <use style="fill:#ff0000;stroke:#ff0000;stroke-width:1.5;" x="352.877027" xlink:href="#mdec0bd0cc3" y="78.48204"/>
     <use style="fill:#ff0000;stroke:#ff0000;stroke-width:1.5;" x="214.33463" xlink:href="#mdec0bd0cc3" y="73.0961"/>
     <use style="fill:#ff0000;stroke:#ff0000;stroke-width:1.5;" x="437.90169" xlink:href="#mdec0bd0cc3" y="92.480886"/>
     <use style="fill:#ff0000;stroke:#ff0000;stroke-width:1.5;" x="319.934744" xlink:href="#mdec0bd0cc3" y="96.874008"/>
     <use style="fill:#ff0000;stroke:#ff0000;stroke-width:1.5;" x="290.029744" xlink:href="#mdec0bd0cc3" y="81.145618"/>
     <use style="fill:#ff0000;stroke:#ff0000;stroke-width:1.5;" x="248.150078" xlink:href="#mdec0bd0cc3" y="59.69552"/>
     <use style="fill:#ff0000;stroke:#ff0000;stroke-width:1.5;" x="390.350262" xlink:href="#mdec0bd0cc3" y="77.910782"/>
     <use style="fill:#ff0000;stroke:#ff0000;stroke-width:1.5;" x="301.605005" xlink:href="#mdec0bd0cc3" y="94.312236"/>
     <use style="fill:#ff0000;stroke:#ff0000;stroke-width:1.5;" x="332.932134" xlink:href="#mdec0bd0cc3" y="91.421707"/>
     <use style="fill:#ff0000;stroke:#ff0000;stroke-width:1.5;" x="179.581417" xlink:href="#mdec0bd0cc3" y="77.929384"/>
     <use style="fill:#ff0000;stroke:#ff0000;stroke-width:1.5;" x="346.659366" xlink:href="#mdec0bd0cc3" y="83.19582"/>
     <use style="fill:#ff0000;stroke:#ff0000;stroke-width:1.5;" x="345.113769" xlink:href="#mdec0bd0cc3" y="83.819542"/>
     <use style="fill:#ff0000;stroke:#ff0000;stroke-width:1.5;" x="346.463648" xlink:href="#mdec0bd0cc3" y="84.29813"/>
     <use style="fill:#ff0000;stroke:#ff0000;stroke-width:1.5;" x="437.644776" xlink:href="#mdec0bd0cc3" y="90.662993"/>
     <use style="fill:#ff0000;stroke:#ff0000;stroke-width:1.5;" x="364.566926" xlink:href="#mdec0bd0cc3" y="74.432554"/>
     <use style="fill:#ff0000;stroke:#ff0000;stroke-width:1.5;" x="274.641767" xlink:href="#mdec0bd0cc3" y="67.787609"/>
     <use style="fill:#ff0000;stroke:#ff0000;stroke-width:1.5;" x="296.270978" xlink:href="#mdec0bd0cc3" y="90.643864"/>
     <use style="fill:#ff0000;stroke:#ff0000;stroke-width:1.5;" x="368.978166" xlink:href="#mdec0bd0cc3" y="74.598693"/>
     <use style="fill:#ff0000;stroke:#ff0000;stroke-width:1.5;" x="191.141969" xlink:href="#mdec0bd0cc3" y="73.031109"/>
     <use style="fill:#ff0000;stroke:#ff0000;stroke-width:1.5;" x="360.366976" xlink:href="#mdec0bd0cc3" y="77.553485"/>
     <use style="fill:#ff0000;stroke:#ff0000;stroke-width:1.5;" x="361.447028" xlink:href="#mdec0bd0cc3" y="76.573618"/>
     <use style="fill:#ff0000;stroke:#ff0000;stroke-width:1.5;" x="233.035797" xlink:href="#mdec0bd0cc3" y="66.898639"/>
     <use style="fill:#ff0000;stroke:#ff0000;stroke-width:1.5;" x="210.3095" xlink:href="#mdec0bd0cc3" y="69.854136"/>
     <use style="fill:#ff0000;stroke:#ff0000;stroke-width:1.5;" x="262.343572" xlink:href="#mdec0bd0cc3" y="59.831612"/>
     <use style="fill:#ff0000;stroke:#ff0000;stroke-width:1.5;" x="275.814368" xlink:href="#mdec0bd0cc3" y="68.211317"/>
     <use style="fill:#ff0000;stroke:#ff0000;stroke-width:1.5;" x="333.423961" xlink:href="#mdec0bd0cc3" y="94.344443"/>
     <use style="fill:#ff0000;stroke:#ff0000;stroke-width:1.5;" x="296.708885" xlink:href="#mdec0bd0cc3" y="88.8956"/>
     <use style="fill:#ff0000;stroke:#ff0000;stroke-width:1.5;" x="450.095363" xlink:href="#mdec0bd0cc3" y="93.33954"/>
     <use style="fill:#ff0000;stroke:#ff0000;stroke-width:1.5;" x="202.809565" xlink:href="#mdec0bd0cc3" y="72.738657"/>
     <use style="fill:#ff0000;stroke:#ff0000;stroke-width:1.5;" x="232.615677" xlink:href="#mdec0bd0cc3" y="67.334413"/>
     <use style="fill:#ff0000;stroke:#ff0000;stroke-width:1.5;" x="219.344418" xlink:href="#mdec0bd0cc3" y="69.800173"/>
     <use style="fill:#ff0000;stroke:#ff0000;stroke-width:1.5;" x="356.556285" xlink:href="#mdec0bd0cc3" y="77.377341"/>
     <use style="fill:#ff0000;stroke:#ff0000;stroke-width:1.5;" x="245.00742" xlink:href="#mdec0bd0cc3" y="61.88919"/>
     <use style="fill:#ff0000;stroke:#ff0000;stroke-width:1.5;" x="304.439768" xlink:href="#mdec0bd0cc3" y="95.031409"/>
     <use style="fill:#ff0000;stroke:#ff0000;stroke-width:1.5;" x="242.533803" xlink:href="#mdec0bd0cc3" y="64.187824"/>
     <use style="fill:#ff0000;stroke:#ff0000;stroke-width:1.5;" x="218.691576" xlink:href="#mdec0bd0cc3" y="73.053774"/>
     <use style="fill:#ff0000;stroke:#ff0000;stroke-width:1.5;" x="205.133727" xlink:href="#mdec0bd0cc3" y="71.991456"/>
     <use style="fill:#ff0000;stroke:#ff0000;stroke-width:1.5;" x="357.455018" xlink:href="#mdec0bd0cc3" y="77.489383"/>
     <use style="fill:#ff0000;stroke:#ff0000;stroke-width:1.5;" x="212.892106" xlink:href="#mdec0bd0cc3" y="71.040581"/>
     <use style="fill:#ff0000;stroke:#ff0000;stroke-width:1.5;" x="229.185541" xlink:href="#mdec0bd0cc3" y="64.733357"/>
     <use style="fill:#ff0000;stroke:#ff0000;stroke-width:1.5;" x="277.213385" xlink:href="#mdec0bd0cc3" y="68.575441"/>
     <use style="fill:#ff0000;stroke:#ff0000;stroke-width:1.5;" x="403.396174" xlink:href="#mdec0bd0cc3" y="84.446854"/>
     <use style="fill:#ff0000;stroke:#ff0000;stroke-width:1.5;" x="201.430318" xlink:href="#mdec0bd0cc3" y="71.187792"/>
     <use style="fill:#ff0000;stroke:#ff0000;stroke-width:1.5;" x="408.125692" xlink:href="#mdec0bd0cc3" y="86.661138"/>
     <use style="fill:#ff0000;stroke:#ff0000;stroke-width:1.5;" x="201.150518" xlink:href="#mdec0bd0cc3" y="73.300436"/>
     <use style="fill:#ff0000;stroke:#ff0000;stroke-width:1.5;" x="446.771253" xlink:href="#mdec0bd0cc3" y="92.567583"/>
     <use style="fill:#ff0000;stroke:#ff0000;stroke-width:1.5;" x="305.092748" xlink:href="#mdec0bd0cc3" y="93.443469"/>
     <use style="fill:#ff0000;stroke:#ff0000;stroke-width:1.5;" x="446.855406" xlink:href="#mdec0bd0cc3" y="93.610054"/>
     <use style="fill:#ff0000;stroke:#ff0000;stroke-width:1.5;" x="343.090963" xlink:href="#mdec0bd0cc3" y="87.717356"/>
     <use style="fill:#ff0000;stroke:#ff0000;stroke-width:1.5;" x="380.593601" xlink:href="#mdec0bd0cc3" y="76.300137"/>
     <use style="fill:#ff0000;stroke:#ff0000;stroke-width:1.5;" x="185.272457" xlink:href="#mdec0bd0cc3" y="76.737345"/>
     <use style="fill:#ff0000;stroke:#ff0000;stroke-width:1.5;" x="253.242205" xlink:href="#mdec0bd0cc3" y="58.145034"/>
     <use style="fill:#ff0000;stroke:#ff0000;stroke-width:1.5;" x="207.873903" xlink:href="#mdec0bd0cc3" y="73.644724"/>
     <use style="fill:#ff0000;stroke:#ff0000;stroke-width:1.5;" x="256.962178" xlink:href="#mdec0bd0cc3" y="61.114854"/>
     <use style="fill:#ff0000;stroke:#ff0000;stroke-width:1.5;" x="207.464096" xlink:href="#mdec0bd0cc3" y="72.890614"/>
     <use style="fill:#ff0000;stroke:#ff0000;stroke-width:1.5;" x="263.05637" xlink:href="#mdec0bd0cc3" y="61.591399"/>
     <use style="fill:#ff0000;stroke:#ff0000;stroke-width:1.5;" x="289.918438" xlink:href="#mdec0bd0cc3" y="79.801641"/>
     <use style="fill:#ff0000;stroke:#ff0000;stroke-width:1.5;" x="192.236214" xlink:href="#mdec0bd0cc3" y="72.858961"/>
     <use style="fill:#ff0000;stroke:#ff0000;stroke-width:1.5;" x="367.538784" xlink:href="#mdec0bd0cc3" y="74.856625"/>
     <use style="fill:#ff0000;stroke:#ff0000;stroke-width:1.5;" x="332.420868" xlink:href="#mdec0bd0cc3" y="95.888015"/>
     <use style="fill:#ff0000;stroke:#ff0000;stroke-width:1.5;" x="248.38273" xlink:href="#mdec0bd0cc3" y="59.498863"/>
     <use style="fill:#ff0000;stroke:#ff0000;stroke-width:1.5;" x="320.325269" xlink:href="#mdec0bd0cc3" y="100.620824"/>
     <use style="fill:#ff0000;stroke:#ff0000;stroke-width:1.5;" x="200.548465" xlink:href="#mdec0bd0cc3" y="75.097719"/>
     <use style="fill:#ff0000;stroke:#ff0000;stroke-width:1.5;" x="335.028135" xlink:href="#mdec0bd0cc3" y="91.010632"/>
     <use style="fill:#ff0000;stroke:#ff0000;stroke-width:1.5;" x="433.612702" xlink:href="#mdec0bd0cc3" y="90.329273"/>
     <use style="fill:#ff0000;stroke:#ff0000;stroke-width:1.5;" x="263.2198" xlink:href="#mdec0bd0cc3" y="59.557888"/>
     <use style="fill:#ff0000;stroke:#ff0000;stroke-width:1.5;" x="360.546559" xlink:href="#mdec0bd0cc3" y="76.004132"/>
     <use style="fill:#ff0000;stroke:#ff0000;stroke-width:1.5;" x="211.110666" xlink:href="#mdec0bd0cc3" y="70.819404"/>
     <use style="fill:#ff0000;stroke:#ff0000;stroke-width:1.5;" x="374.194352" xlink:href="#mdec0bd0cc3" y="75.944713"/>
     <use style="fill:#ff0000;stroke:#ff0000;stroke-width:1.5;" x="255.083362" xlink:href="#mdec0bd0cc3" y="61.032001"/>
     <use style="fill:#ff0000;stroke:#ff0000;stroke-width:1.5;" x="225.449452" xlink:href="#mdec0bd0cc3" y="67.897865"/>
     <use style="fill:#ff0000;stroke:#ff0000;stroke-width:1.5;" x="337.976171" xlink:href="#mdec0bd0cc3" y="91.567766"/>
     <use style="fill:#ff0000;stroke:#ff0000;stroke-width:1.5;" x="179.949068" xlink:href="#mdec0bd0cc3" y="78.617132"/>
     <use style="fill:#ff0000;stroke:#ff0000;stroke-width:1.5;" x="405.613331" xlink:href="#mdec0bd0cc3" y="84.941674"/>
     <use style="fill:#ff0000;stroke:#ff0000;stroke-width:1.5;" x="175.6491" xlink:href="#mdec0bd0cc3" y="79.440695"/>
    </g>
   </g>
   <g id="PathCollection_2">
    <defs>
     <path d="M -3 0 
L 3 0 
M 0 3 
L 0 -3 
" id="mc400699bbb" style="stroke:#008000;stroke-width:1.5;"/>
    </defs>
    <g clip-path="url(#p07cec6a794)">
     <use style="fill:#008000;stroke:#008000;stroke-width:1.5;" x="231.186264" xlink:href="#mc400699bbb" y="155.982188"/>
     <use style="fill:#008000;stroke:#008000;stroke-width:1.5;" x="233.883609" xlink:href="#mc400699bbb" y="155.982188"/>
     <use style="fill:#008000;stroke:#008000;stroke-width:1.5;" x="233.588233" xlink:href="#mc400699bbb" y="155.982188"/>
     <use style="fill:#008000;stroke:#008000;stroke-width:1.5;" x="193.330766" xlink:href="#mc400699bbb" y="155.982188"/>
     <use style="fill:#008000;stroke:#008000;stroke-width:1.5;" x="199.638941" xlink:href="#mc400699bbb" y="155.982188"/>
     <use style="fill:#008000;stroke:#008000;stroke-width:1.5;" x="211.517816" xlink:href="#mc400699bbb" y="155.982188"/>
     <use style="fill:#008000;stroke:#008000;stroke-width:1.5;" x="222.204075" xlink:href="#mc400699bbb" y="155.982188"/>
     <use style="fill:#008000;stroke:#008000;stroke-width:1.5;" x="211.112658" xlink:href="#mc400699bbb" y="155.982188"/>
     <use style="fill:#008000;stroke:#008000;stroke-width:1.5;" x="237.898425" xlink:href="#mc400699bbb" y="155.982188"/>
     <use style="fill:#008000;stroke:#008000;stroke-width:1.5;" x="202.40594" xlink:href="#mc400699bbb" y="155.982188"/>
    </g>
   </g>
   <g id="PathCollection_3">
    <defs>
     <path d="M -3 0 
L 3 0 
M 0 3 
L 0 -3 
" id="m4079b2e642" style="stroke:#0000ff;stroke-width:1.5;"/>
    </defs>
    <g clip-path="url(#p07cec6a794)">
     <use style="fill:#0000ff;stroke:#0000ff;stroke-width:1.5;" x="330.351239" xlink:href="#m4079b2e642" y="149.187188"/>
     <use style="fill:#0000ff;stroke:#0000ff;stroke-width:1.5;" x="420.517208" xlink:href="#m4079b2e642" y="149.187188"/>
     <use style="fill:#0000ff;stroke:#0000ff;stroke-width:1.5;" x="392.043987" xlink:href="#m4079b2e642" y="149.187188"/>
     <use style="fill:#0000ff;stroke:#0000ff;stroke-width:1.5;" x="294.45892" xlink:href="#m4079b2e642" y="149.187188"/>
     <use style="fill:#0000ff;stroke:#0000ff;stroke-width:1.5;" x="179.724365" xlink:href="#m4079b2e642" y="149.187188"/>
     <use style="fill:#0000ff;stroke:#0000ff;stroke-width:1.5;" x="226.924668" xlink:href="#m4079b2e642" y="149.187188"/>
     <use style="fill:#0000ff;stroke:#0000ff;stroke-width:1.5;" x="358.826366" xlink:href="#m4079b2e642" y="149.187188"/>
     <use style="fill:#0000ff;stroke:#0000ff;stroke-width:1.5;" x="258.82912" xlink:href="#m4079b2e642" y="149.187188"/>
     <use style="fill:#0000ff;stroke:#0000ff;stroke-width:1.5;" x="445.180097" xlink:href="#m4079b2e642" y="149.187188"/>
     <use style="fill:#0000ff;stroke:#0000ff;stroke-width:1.5;" x="201.984172" xlink:href="#m4079b2e642" y="149.187188"/>
    </g>
   </g>
   <g id="patch_3">
    <path d="M 34.839063 189.957188 
L 34.839063 26.877188 
" style="fill:none;stroke:#000000;stroke-linecap:square;stroke-linejoin:miter;stroke-width:0.8;"/>
   </g>
   <g id="patch_4">
    <path d="M 592.839062 189.957188 
L 592.839062 26.877188 
" style="fill:none;stroke:#000000;stroke-linecap:square;stroke-linejoin:miter;stroke-width:0.8;"/>
   </g>
   <g id="patch_5">
    <path d="M 34.839063 189.957188 
L 592.839062 189.957188 
" style="fill:none;stroke:#000000;stroke-linecap:square;stroke-linejoin:miter;stroke-width:0.8;"/>
   </g>
   <g id="patch_6">
    <path d="M 34.839063 26.877187 
L 592.839062 26.877187 
" style="fill:none;stroke:#000000;stroke-linecap:square;stroke-linejoin:miter;stroke-width:0.8;"/>
   </g>
   <g id="text_9">
    <!-- VFE after 1000 optimisation steps -->
    <defs>
     <path d="M 28.609375 0 
L 0.78125 72.90625 
L 11.078125 72.90625 
L 34.1875 11.53125 
L 57.328125 72.90625 
L 67.578125 72.90625 
L 39.796875 0 
z
" id="DejaVuSans-86"/>
     <path d="M 9.8125 72.90625 
L 51.703125 72.90625 
L 51.703125 64.59375 
L 19.671875 64.59375 
L 19.671875 43.109375 
L 48.578125 43.109375 
L 48.578125 34.8125 
L 19.671875 34.8125 
L 19.671875 0 
L 9.8125 0 
z
" id="DejaVuSans-70"/>
     <path d="M 9.8125 72.90625 
L 55.90625 72.90625 
L 55.90625 64.59375 
L 19.671875 64.59375 
L 19.671875 43.015625 
L 54.390625 43.015625 
L 54.390625 34.71875 
L 19.671875 34.71875 
L 19.671875 8.296875 
L 56.78125 8.296875 
L 56.78125 0 
L 9.8125 0 
z
" id="DejaVuSans-69"/>
     <path id="DejaVuSans-32"/>
     <path d="M 34.28125 27.484375 
Q 23.390625 27.484375 19.1875 25 
Q 14.984375 22.515625 14.984375 16.5 
Q 14.984375 11.71875 18.140625 8.90625 
Q 21.296875 6.109375 26.703125 6.109375 
Q 34.1875 6.109375 38.703125 11.40625 
Q 43.21875 16.703125 43.21875 25.484375 
L 43.21875 27.484375 
z
M 52.203125 31.203125 
L 52.203125 0 
L 43.21875 0 
L 43.21875 8.296875 
Q 40.140625 3.328125 35.546875 0.953125 
Q 30.953125 -1.421875 24.3125 -1.421875 
Q 15.921875 -1.421875 10.953125 3.296875 
Q 6 8.015625 6 15.921875 
Q 6 25.140625 12.171875 29.828125 
Q 18.359375 34.515625 30.609375 34.515625 
L 43.21875 34.515625 
L 43.21875 35.40625 
Q 43.21875 41.609375 39.140625 45 
Q 35.0625 48.390625 27.6875 48.390625 
Q 23 48.390625 18.546875 47.265625 
Q 14.109375 46.140625 10.015625 43.890625 
L 10.015625 52.203125 
Q 14.9375 54.109375 19.578125 55.046875 
Q 24.21875 56 28.609375 56 
Q 40.484375 56 46.34375 49.84375 
Q 52.203125 43.703125 52.203125 31.203125 
z
" id="DejaVuSans-97"/>
     <path d="M 37.109375 75.984375 
L 37.109375 68.5 
L 28.515625 68.5 
Q 23.6875 68.5 21.796875 66.546875 
Q 19.921875 64.59375 19.921875 59.515625 
L 19.921875 54.6875 
L 34.71875 54.6875 
L 34.71875 47.703125 
L 19.921875 47.703125 
L 19.921875 0 
L 10.890625 0 
L 10.890625 47.703125 
L 2.296875 47.703125 
L 2.296875 54.6875 
L 10.890625 54.6875 
L 10.890625 58.5 
Q 10.890625 67.625 15.140625 71.796875 
Q 19.390625 75.984375 28.609375 75.984375 
z
" id="DejaVuSans-102"/>
     <path d="M 18.3125 70.21875 
L 18.3125 54.6875 
L 36.8125 54.6875 
L 36.8125 47.703125 
L 18.3125 47.703125 
L 18.3125 18.015625 
Q 18.3125 11.328125 20.140625 9.421875 
Q 21.96875 7.515625 27.59375 7.515625 
L 36.8125 7.515625 
L 36.8125 0 
L 27.59375 0 
Q 17.1875 0 13.234375 3.875 
Q 9.28125 7.765625 9.28125 18.015625 
L 9.28125 47.703125 
L 2.6875 47.703125 
L 2.6875 54.6875 
L 9.28125 54.6875 
L 9.28125 70.21875 
z
" id="DejaVuSans-116"/>
     <path d="M 56.203125 29.59375 
L 56.203125 25.203125 
L 14.890625 25.203125 
Q 15.484375 15.921875 20.484375 11.0625 
Q 25.484375 6.203125 34.421875 6.203125 
Q 39.59375 6.203125 44.453125 7.46875 
Q 49.3125 8.734375 54.109375 11.28125 
L 54.109375 2.78125 
Q 49.265625 0.734375 44.1875 -0.34375 
Q 39.109375 -1.421875 33.890625 -1.421875 
Q 20.796875 -1.421875 13.15625 6.1875 
Q 5.515625 13.8125 5.515625 26.8125 
Q 5.515625 40.234375 12.765625 48.109375 
Q 20.015625 56 32.328125 56 
Q 43.359375 56 49.78125 48.890625 
Q 56.203125 41.796875 56.203125 29.59375 
z
M 47.21875 32.234375 
Q 47.125 39.59375 43.09375 43.984375 
Q 39.0625 48.390625 32.421875 48.390625 
Q 24.90625 48.390625 20.390625 44.140625 
Q 15.875 39.890625 15.1875 32.171875 
z
" id="DejaVuSans-101"/>
     <path d="M 41.109375 46.296875 
Q 39.59375 47.171875 37.8125 47.578125 
Q 36.03125 48 33.890625 48 
Q 26.265625 48 22.1875 43.046875 
Q 18.109375 38.09375 18.109375 28.8125 
L 18.109375 0 
L 9.078125 0 
L 9.078125 54.6875 
L 18.109375 54.6875 
L 18.109375 46.1875 
Q 20.953125 51.171875 25.484375 53.578125 
Q 30.03125 56 36.53125 56 
Q 37.453125 56 38.578125 55.875 
Q 39.703125 55.765625 41.0625 55.515625 
z
" id="DejaVuSans-114"/>
     <path d="M 12.40625 8.296875 
L 28.515625 8.296875 
L 28.515625 63.921875 
L 10.984375 60.40625 
L 10.984375 69.390625 
L 28.421875 72.90625 
L 38.28125 72.90625 
L 38.28125 8.296875 
L 54.390625 8.296875 
L 54.390625 0 
L 12.40625 0 
z
" id="DejaVuSans-49"/>
     <path d="M 30.609375 48.390625 
Q 23.390625 48.390625 19.1875 42.75 
Q 14.984375 37.109375 14.984375 27.296875 
Q 14.984375 17.484375 19.15625 11.84375 
Q 23.34375 6.203125 30.609375 6.203125 
Q 37.796875 6.203125 41.984375 11.859375 
Q 46.1875 17.53125 46.1875 27.296875 
Q 46.1875 37.015625 41.984375 42.703125 
Q 37.796875 48.390625 30.609375 48.390625 
z
M 30.609375 56 
Q 42.328125 56 49.015625 48.375 
Q 55.71875 40.765625 55.71875 27.296875 
Q 55.71875 13.875 49.015625 6.21875 
Q 42.328125 -1.421875 30.609375 -1.421875 
Q 18.84375 -1.421875 12.171875 6.21875 
Q 5.515625 13.875 5.515625 27.296875 
Q 5.515625 40.765625 12.171875 48.375 
Q 18.84375 56 30.609375 56 
z
" id="DejaVuSans-111"/>
     <path d="M 18.109375 8.203125 
L 18.109375 -20.796875 
L 9.078125 -20.796875 
L 9.078125 54.6875 
L 18.109375 54.6875 
L 18.109375 46.390625 
Q 20.953125 51.265625 25.265625 53.625 
Q 29.59375 56 35.59375 56 
Q 45.5625 56 51.78125 48.09375 
Q 58.015625 40.1875 58.015625 27.296875 
Q 58.015625 14.40625 51.78125 6.484375 
Q 45.5625 -1.421875 35.59375 -1.421875 
Q 29.59375 -1.421875 25.265625 0.953125 
Q 20.953125 3.328125 18.109375 8.203125 
z
M 48.6875 27.296875 
Q 48.6875 37.203125 44.609375 42.84375 
Q 40.53125 48.484375 33.40625 48.484375 
Q 26.265625 48.484375 22.1875 42.84375 
Q 18.109375 37.203125 18.109375 27.296875 
Q 18.109375 17.390625 22.1875 11.75 
Q 26.265625 6.109375 33.40625 6.109375 
Q 40.53125 6.109375 44.609375 11.75 
Q 48.6875 17.390625 48.6875 27.296875 
z
" id="DejaVuSans-112"/>
     <path d="M 9.421875 54.6875 
L 18.40625 54.6875 
L 18.40625 0 
L 9.421875 0 
z
M 9.421875 75.984375 
L 18.40625 75.984375 
L 18.40625 64.59375 
L 9.421875 64.59375 
z
" id="DejaVuSans-105"/>
     <path d="M 52 44.1875 
Q 55.375 50.25 60.0625 53.125 
Q 64.75 56 71.09375 56 
Q 79.640625 56 84.28125 50.015625 
Q 88.921875 44.046875 88.921875 33.015625 
L 88.921875 0 
L 79.890625 0 
L 79.890625 32.71875 
Q 79.890625 40.578125 77.09375 44.375 
Q 74.3125 48.1875 68.609375 48.1875 
Q 61.625 48.1875 57.5625 43.546875 
Q 53.515625 38.921875 53.515625 30.90625 
L 53.515625 0 
L 44.484375 0 
L 44.484375 32.71875 
Q 44.484375 40.625 41.703125 44.40625 
Q 38.921875 48.1875 33.109375 48.1875 
Q 26.21875 48.1875 22.15625 43.53125 
Q 18.109375 38.875 18.109375 30.90625 
L 18.109375 0 
L 9.078125 0 
L 9.078125 54.6875 
L 18.109375 54.6875 
L 18.109375 46.1875 
Q 21.1875 51.21875 25.484375 53.609375 
Q 29.78125 56 35.6875 56 
Q 41.65625 56 45.828125 52.96875 
Q 50 49.953125 52 44.1875 
z
" id="DejaVuSans-109"/>
     <path d="M 44.28125 53.078125 
L 44.28125 44.578125 
Q 40.484375 46.53125 36.375 47.5 
Q 32.28125 48.484375 27.875 48.484375 
Q 21.1875 48.484375 17.84375 46.4375 
Q 14.5 44.390625 14.5 40.28125 
Q 14.5 37.15625 16.890625 35.375 
Q 19.28125 33.59375 26.515625 31.984375 
L 29.59375 31.296875 
Q 39.15625 29.25 43.1875 25.515625 
Q 47.21875 21.78125 47.21875 15.09375 
Q 47.21875 7.46875 41.1875 3.015625 
Q 35.15625 -1.421875 24.609375 -1.421875 
Q 20.21875 -1.421875 15.453125 -0.5625 
Q 10.6875 0.296875 5.421875 2 
L 5.421875 11.28125 
Q 10.40625 8.6875 15.234375 7.390625 
Q 20.0625 6.109375 24.8125 6.109375 
Q 31.15625 6.109375 34.5625 8.28125 
Q 37.984375 10.453125 37.984375 14.40625 
Q 37.984375 18.0625 35.515625 20.015625 
Q 33.0625 21.96875 24.703125 23.78125 
L 21.578125 24.515625 
Q 13.234375 26.265625 9.515625 29.90625 
Q 5.8125 33.546875 5.8125 39.890625 
Q 5.8125 47.609375 11.28125 51.796875 
Q 16.75 56 26.8125 56 
Q 31.78125 56 36.171875 55.265625 
Q 40.578125 54.546875 44.28125 53.078125 
z
" id="DejaVuSans-115"/>
     <path d="M 54.890625 33.015625 
L 54.890625 0 
L 45.90625 0 
L 45.90625 32.71875 
Q 45.90625 40.484375 42.875 44.328125 
Q 39.84375 48.1875 33.796875 48.1875 
Q 26.515625 48.1875 22.3125 43.546875 
Q 18.109375 38.921875 18.109375 30.90625 
L 18.109375 0 
L 9.078125 0 
L 9.078125 54.6875 
L 18.109375 54.6875 
L 18.109375 46.1875 
Q 21.34375 51.125 25.703125 53.5625 
Q 30.078125 56 35.796875 56 
Q 45.21875 56 50.046875 50.171875 
Q 54.890625 44.34375 54.890625 33.015625 
z
" id="DejaVuSans-110"/>
    </defs>
    <g transform="translate(161.065469 20.877188)scale(0.18 -0.18)">
     <use xlink:href="#DejaVuSans-86"/>
     <use x="68.408203" xlink:href="#DejaVuSans-70"/>
     <use x="125.927734" xlink:href="#DejaVuSans-69"/>
     <use x="189.111328" xlink:href="#DejaVuSans-32"/>
     <use x="220.898438" xlink:href="#DejaVuSans-97"/>
     <use x="282.177734" xlink:href="#DejaVuSans-102"/>
     <use x="315.632812" xlink:href="#DejaVuSans-116"/>
     <use x="354.841797" xlink:href="#DejaVuSans-101"/>
     <use x="416.365234" xlink:href="#DejaVuSans-114"/>
     <use x="457.478516" xlink:href="#DejaVuSans-32"/>
     <use x="489.265625" xlink:href="#DejaVuSans-49"/>
     <use x="552.888672" xlink:href="#DejaVuSans-48"/>
     <use x="616.511719" xlink:href="#DejaVuSans-48"/>
     <use x="680.134766" xlink:href="#DejaVuSans-48"/>
     <use x="743.757812" xlink:href="#DejaVuSans-32"/>
     <use x="775.544922" xlink:href="#DejaVuSans-111"/>
     <use x="836.726562" xlink:href="#DejaVuSans-112"/>
     <use x="900.203125" xlink:href="#DejaVuSans-116"/>
     <use x="939.412109" xlink:href="#DejaVuSans-105"/>
     <use x="967.195312" xlink:href="#DejaVuSans-109"/>
     <use x="1064.607422" xlink:href="#DejaVuSans-105"/>
     <use x="1092.390625" xlink:href="#DejaVuSans-115"/>
     <use x="1144.490234" xlink:href="#DejaVuSans-97"/>
     <use x="1205.769531" xlink:href="#DejaVuSans-116"/>
     <use x="1244.978516" xlink:href="#DejaVuSans-105"/>
     <use x="1272.761719" xlink:href="#DejaVuSans-111"/>
     <use x="1333.943359" xlink:href="#DejaVuSans-110"/>
     <use x="1397.322266" xlink:href="#DejaVuSans-32"/>
     <use x="1429.109375" xlink:href="#DejaVuSans-115"/>
     <use x="1481.208984" xlink:href="#DejaVuSans-116"/>
     <use x="1520.417969" xlink:href="#DejaVuSans-101"/>
     <use x="1581.941406" xlink:href="#DejaVuSans-112"/>
     <use x="1645.417969" xlink:href="#DejaVuSans-115"/>
    </g>
   </g>
   <g id="legend_1">
    <g id="patch_7">
     <path d="M 488.240625 184.957188 
L 585.839063 184.957188 
Q 587.839063 184.957188 587.839063 182.957188 
L 587.839063 125.244688 
Q 587.839063 123.244688 585.839063 123.244688 
L 488.240625 123.244688 
Q 486.240625 123.244688 486.240625 125.244688 
L 486.240625 182.957188 
Q 486.240625 184.957188 488.240625 184.957188 
z
" style="fill:#ffffff;opacity:0.8;stroke:#cccccc;stroke-linejoin:miter;"/>
    </g>
    <g id="line2d_23">
     <path d="M 490.240625 131.343125 
L 510.240625 131.343125 
" style="fill:none;stroke:#000000;stroke-linecap:square;stroke-width:1.5;"/>
    </g>
    <g id="line2d_24"/>
    <g id="text_10">
     <!-- Approx. Post. -->
     <defs>
      <path d="M 34.1875 63.1875 
L 20.796875 26.90625 
L 47.609375 26.90625 
z
M 28.609375 72.90625 
L 39.796875 72.90625 
L 67.578125 0 
L 57.328125 0 
L 50.6875 18.703125 
L 17.828125 18.703125 
L 11.1875 0 
L 0.78125 0 
z
" id="DejaVuSans-65"/>
      <path d="M 54.890625 54.6875 
L 35.109375 28.078125 
L 55.90625 0 
L 45.3125 0 
L 29.390625 21.484375 
L 13.484375 0 
L 2.875 0 
L 24.125 28.609375 
L 4.6875 54.6875 
L 15.28125 54.6875 
L 29.78125 35.203125 
L 44.28125 54.6875 
z
" id="DejaVuSans-120"/>
      <path d="M 10.6875 12.40625 
L 21 12.40625 
L 21 0 
L 10.6875 0 
z
" id="DejaVuSans-46"/>
      <path d="M 19.671875 64.796875 
L 19.671875 37.40625 
L 32.078125 37.40625 
Q 38.96875 37.40625 42.71875 40.96875 
Q 46.484375 44.53125 46.484375 51.125 
Q 46.484375 57.671875 42.71875 61.234375 
Q 38.96875 64.796875 32.078125 64.796875 
z
M 9.8125 72.90625 
L 32.078125 72.90625 
Q 44.34375 72.90625 50.609375 67.359375 
Q 56.890625 61.8125 56.890625 51.125 
Q 56.890625 40.328125 50.609375 34.8125 
Q 44.34375 29.296875 32.078125 29.296875 
L 19.671875 29.296875 
L 19.671875 0 
L 9.8125 0 
z
" id="DejaVuSans-80"/>
     </defs>
     <g transform="translate(518.240625 134.843125)scale(0.1 -0.1)">
      <use xlink:href="#DejaVuSans-65"/>
      <use x="68.408203" xlink:href="#DejaVuSans-112"/>
      <use x="131.884766" xlink:href="#DejaVuSans-112"/>
      <use x="195.361328" xlink:href="#DejaVuSans-114"/>
      <use x="234.224609" xlink:href="#DejaVuSans-111"/>
      <use x="292.28125" xlink:href="#DejaVuSans-120"/>
      <use x="351.460938" xlink:href="#DejaVuSans-46"/>
      <use x="383.248047" xlink:href="#DejaVuSans-32"/>
      <use x="415.035156" xlink:href="#DejaVuSans-80"/>
      <use x="471.712891" xlink:href="#DejaVuSans-111"/>
      <use x="532.894531" xlink:href="#DejaVuSans-115"/>
      <use x="584.994141" xlink:href="#DejaVuSans-116"/>
      <use x="624.203125" xlink:href="#DejaVuSans-46"/>
     </g>
    </g>
    <g id="line2d_25">
     <path d="M 490.240625 146.02125 
L 510.240625 146.02125 
" style="fill:none;stroke:#800080;stroke-dasharray:5.55,2.4;stroke-dashoffset:0;stroke-width:1.5;"/>
    </g>
    <g id="line2d_26"/>
    <g id="text_11">
     <!-- Exact Post. -->
     <defs>
      <path d="M 48.78125 52.59375 
L 48.78125 44.1875 
Q 44.96875 46.296875 41.140625 47.34375 
Q 37.3125 48.390625 33.40625 48.390625 
Q 24.65625 48.390625 19.8125 42.84375 
Q 14.984375 37.3125 14.984375 27.296875 
Q 14.984375 17.28125 19.8125 11.734375 
Q 24.65625 6.203125 33.40625 6.203125 
Q 37.3125 6.203125 41.140625 7.25 
Q 44.96875 8.296875 48.78125 10.40625 
L 48.78125 2.09375 
Q 45.015625 0.34375 40.984375 -0.53125 
Q 36.96875 -1.421875 32.421875 -1.421875 
Q 20.0625 -1.421875 12.78125 6.34375 
Q 5.515625 14.109375 5.515625 27.296875 
Q 5.515625 40.671875 12.859375 48.328125 
Q 20.21875 56 33.015625 56 
Q 37.15625 56 41.109375 55.140625 
Q 45.0625 54.296875 48.78125 52.59375 
z
" id="DejaVuSans-99"/>
     </defs>
     <g transform="translate(518.240625 149.52125)scale(0.1 -0.1)">
      <use xlink:href="#DejaVuSans-69"/>
      <use x="63.183594" xlink:href="#DejaVuSans-120"/>
      <use x="122.363281" xlink:href="#DejaVuSans-97"/>
      <use x="183.642578" xlink:href="#DejaVuSans-99"/>
      <use x="238.623047" xlink:href="#DejaVuSans-116"/>
      <use x="277.832031" xlink:href="#DejaVuSans-32"/>
      <use x="309.619141" xlink:href="#DejaVuSans-80"/>
      <use x="366.296875" xlink:href="#DejaVuSans-111"/>
      <use x="427.478516" xlink:href="#DejaVuSans-115"/>
      <use x="479.578125" xlink:href="#DejaVuSans-116"/>
      <use x="518.787109" xlink:href="#DejaVuSans-46"/>
     </g>
    </g>
    <g id="PathCollection_4">
     <g>
      <use style="fill:#008000;stroke:#008000;stroke-width:1.5;" x="500.240625" xlink:href="#mc400699bbb" y="161.574375"/>
     </g>
    </g>
    <g id="text_12">
     <!-- Init. $\bar{\mathbf{X}}$ -->
     <defs>
      <path d="M 9.8125 72.90625 
L 19.671875 72.90625 
L 19.671875 0 
L 9.8125 0 
z
" id="DejaVuSans-73"/>
      <path d="M -39.34375 74.515625 
L -10.15625 74.515625 
L -10.15625 67.28125 
L -39.34375 67.28125 
z
" id="DejaVuSans-772"/>
      <path d="M 49.8125 37.203125 
L 75.09375 0 
L 55.515625 0 
L 38.484375 24.90625 
L 21.578125 0 
L 1.90625 0 
L 27.203125 37.203125 
L 2.875 72.90625 
L 22.515625 72.90625 
L 38.484375 49.421875 
L 54.390625 72.90625 
L 74.125 72.90625 
z
" id="DejaVuSans-Bold-88"/>
     </defs>
     <g transform="translate(518.240625 164.199375)scale(0.1 -0.1)">
      <use transform="translate(0 0.359375)" xlink:href="#DejaVuSans-73"/>
      <use transform="translate(29.492188 0.359375)" xlink:href="#DejaVuSans-110"/>
      <use transform="translate(92.871094 0.359375)" xlink:href="#DejaVuSans-105"/>
      <use transform="translate(120.654297 0.359375)" xlink:href="#DejaVuSans-116"/>
      <use transform="translate(159.863281 0.359375)" xlink:href="#DejaVuSans-46"/>
      <use transform="translate(191.650391 0.359375)" xlink:href="#DejaVuSans-32"/>
      <use transform="translate(296.056152 18.484375)" xlink:href="#DejaVuSans-772"/>
      <use transform="translate(223.4375 0.359375)" xlink:href="#DejaVuSans-Bold-88"/>
     </g>
    </g>
    <g id="PathCollection_5">
     <g>
      <use style="fill:#0000ff;stroke:#0000ff;stroke-width:1.5;" x="500.240625" xlink:href="#m4079b2e642" y="176.2525"/>
     </g>
    </g>
    <g id="text_13">
     <!-- Curr. $\bar{\mathbf{X}}$ -->
     <defs>
      <path d="M 64.40625 67.28125 
L 64.40625 56.890625 
Q 59.421875 61.53125 53.78125 63.8125 
Q 48.140625 66.109375 41.796875 66.109375 
Q 29.296875 66.109375 22.65625 58.46875 
Q 16.015625 50.828125 16.015625 36.375 
Q 16.015625 21.96875 22.65625 14.328125 
Q 29.296875 6.6875 41.796875 6.6875 
Q 48.140625 6.6875 53.78125 8.984375 
Q 59.421875 11.28125 64.40625 15.921875 
L 64.40625 5.609375 
Q 59.234375 2.09375 53.4375 0.328125 
Q 47.65625 -1.421875 41.21875 -1.421875 
Q 24.65625 -1.421875 15.125 8.703125 
Q 5.609375 18.84375 5.609375 36.375 
Q 5.609375 53.953125 15.125 64.078125 
Q 24.65625 74.21875 41.21875 74.21875 
Q 47.75 74.21875 53.53125 72.484375 
Q 59.328125 70.75 64.40625 67.28125 
z
" id="DejaVuSans-67"/>
      <path d="M 8.5 21.578125 
L 8.5 54.6875 
L 17.484375 54.6875 
L 17.484375 21.921875 
Q 17.484375 14.15625 20.5 10.265625 
Q 23.53125 6.390625 29.59375 6.390625 
Q 36.859375 6.390625 41.078125 11.03125 
Q 45.3125 15.671875 45.3125 23.6875 
L 45.3125 54.6875 
L 54.296875 54.6875 
L 54.296875 0 
L 45.3125 0 
L 45.3125 8.40625 
Q 42.046875 3.421875 37.71875 1 
Q 33.40625 -1.421875 27.6875 -1.421875 
Q 18.265625 -1.421875 13.375 4.4375 
Q 8.5 10.296875 8.5 21.578125 
z
M 31.109375 56 
z
" id="DejaVuSans-117"/>
     </defs>
     <g transform="translate(518.240625 178.8775)scale(0.1 -0.1)">
      <use transform="translate(0 0.359375)" xlink:href="#DejaVuSans-67"/>
      <use transform="translate(69.824219 0.359375)" xlink:href="#DejaVuSans-117"/>
      <use transform="translate(133.203125 0.359375)" xlink:href="#DejaVuSans-114"/>
      <use transform="translate(174.316406 0.359375)" xlink:href="#DejaVuSans-114"/>
      <use transform="translate(215.429688 0.359375)" xlink:href="#DejaVuSans-46"/>
      <use transform="translate(247.216797 0.359375)" xlink:href="#DejaVuSans-32"/>
      <use transform="translate(351.622559 18.484375)" xlink:href="#DejaVuSans-772"/>
      <use transform="translate(279.003906 0.359375)" xlink:href="#DejaVuSans-Bold-88"/>
     </g>
    </g>
   </g>
  </g>
 </g>
 <defs>
  <clipPath id="p07cec6a794">
   <rect height="163.08" width="558" x="34.839063" y="26.877188"/>
  </clipPath>
 </defs>
</svg>
