<?xml version="1.0" encoding="utf-8" standalone="no"?>
<!DOCTYPE svg PUBLIC "-//W3C//DTD SVG 1.1//EN"
  "http://www.w3.org/Graphics/SVG/1.1/DTD/svg11.dtd">
<!-- Created with matplotlib (https://matplotlib.org/) -->
<svg height="235.573438pt" version="1.1" viewBox="0 0 616.19 235.573438" width="616.19pt" xmlns="http://www.w3.org/2000/svg" xmlns:xlink="http://www.w3.org/1999/xlink">
 <defs>
  <style type="text/css">
*{stroke-linecap:butt;stroke-linejoin:round;}
  </style>
 </defs>
 <g id="figure_1">
  <g id="patch_1">
   <path d="M 0 235.573438 
L 616.19 235.573438 
L 616.19 0 
L 0 0 
z
" style="fill:none;"/>
  </g>
  <g id="axes_1">
   <g id="patch_2">
    <path d="M 50.99 188.573438 
L 608.99 188.573438 
L 608.99 25.493437 
L 50.99 25.493437 
z
" style="fill:#ffffff;"/>
   </g>
   <g id="PolyCollection_1">
    <defs>
     <path d="M 50.99 -187.619796 
L 50.99 -123.713551 
L 56.626369 -123.678708 
L 62.262722 -123.62453 
L 67.899091 -123.542654 
L 73.535461 -123.422621 
L 79.171813 -123.252329 
L 84.808183 -123.019296 
L 90.444552 -122.7131 
L 96.080905 -122.329255 
L 101.717274 -121.874545 
L 107.353627 -121.373403 
L 112.989996 -120.874236 
L 118.626366 -120.454082 
L 124.262735 -120.219517 
L 129.899088 -120.301957 
L 135.535457 -120.84619 
L 141.17181 -121.992258 
L 146.808179 -123.852398 
L 152.444548 -126.486203 
L 158.080918 -129.87841 
L 163.717271 -133.923886 
L 169.35364 -138.423535 
L 174.989993 -143.091997 
L 180.626362 -147.575078 
L 186.262731 -151.48188 
L 191.899084 -154.503753 
L 197.535453 -156.674915 
L 203.171823 -158.301799 
L 208.808175 -159.578761 
L 214.444545 -160.566118 
L 220.080914 -161.3388 
L 225.717267 -162.058046 
L 231.353636 -162.93287 
L 236.990006 -164.129813 
L 242.626358 -165.710689 
L 248.262728 -167.623048 
L 253.899097 -169.714801 
L 259.53545 -171.739363 
L 265.171819 -173.358186 
L 270.808188 -174.175089 
L 276.444541 -173.820719 
L 282.08091 -172.064183 
L 287.71728 -168.886437 
L 293.353633 -164.472226 
L 298.990002 -159.152709 
L 304.626371 -153.348893 
L 310.262724 -147.539968 
L 315.899093 -142.252683 
L 321.535463 -138.023044 
L 327.171815 -135.294022 
L 332.808168 -134.304044 
L 338.444537 -135.036005 
L 344.080907 -137.244651 
L 349.717276 -140.541727 
L 355.353645 -144.482956 
L 360.990015 -148.609358 
L 366.626351 -152.465219 
L 372.26272 -155.638713 
L 377.89909 -157.832002 
L 383.535459 -158.926039 
L 389.171828 -158.985824 
L 394.808198 -158.197474 
L 400.444534 -156.788448 
L 406.080903 -154.978633 
L 411.717272 -152.973234 
L 417.353642 -150.96844 
L 422.990011 -149.127041 
L 428.626347 -147.531013 
L 434.262717 -146.164009 
L 439.899086 -144.956793 
L 445.535455 -143.869398 
L 451.171825 -142.926147 
L 456.808194 -142.141666 
L 462.44453 -141.342825 
L 468.080899 -140.061347 
L 473.717269 -137.996983 
L 479.353638 -135.344164 
L 484.990007 -132.426907 
L 490.626377 -129.524685 
L 496.262713 -126.861055 
L 501.899082 -124.599158 
L 507.535452 -122.835937 
L 513.171821 -121.602123 
L 518.80819 -120.870331 
L 524.44456 -120.569596 
L 530.080896 -120.603231 
L 535.717265 -120.866592 
L 541.353634 -121.261889 
L 546.990004 -121.70826 
L 552.626373 -122.146608 
L 558.262742 -122.539767 
L 563.899078 -122.869387 
L 569.535448 -123.131154 
L 575.171817 -123.329751 
L 580.808187 -123.474552 
L 586.444556 -123.576458 
L 592.080925 -123.645907 
L 597.717261 -123.691851 
L 603.353631 -123.72141 
L 608.99 -123.739931 
L 608.99 -187.6463 
L 608.99 -187.6463 
L 603.353631 -187.627592 
L 597.717261 -187.597529 
L 592.080925 -187.550298 
L 586.444556 -187.477709 
L 580.808187 -187.368496 
L 575.171817 -187.207487 
L 569.535448 -186.97464 
L 563.899078 -186.643965 
L 558.262742 -186.182429 
L 552.626373 -185.549077 
L 546.990004 -184.694901 
L 541.353634 -183.564122 
L 535.717265 -182.097766 
L 530.080896 -180.240127 
L 524.44456 -177.948213 
L 518.80819 -175.203234 
L 513.171821 -172.022528 
L 507.535452 -168.46917 
L 501.899082 -164.656771 
L 496.262713 -160.747354 
L 490.626377 -156.941746 
L 484.990007 -153.464239 
L 479.353638 -150.547634 
L 473.717269 -148.428642 
L 468.080899 -147.347016 
L 462.44453 -147.391548 
L 456.808194 -148.161152 
L 451.171825 -149.117905 
L 445.535455 -150.069676 
L 439.899086 -151.068867 
L 434.262717 -152.222821 
L 428.626347 -153.590397 
L 422.990011 -155.173985 
L 417.353642 -156.953969 
L 411.717272 -158.893064 
L 406.080903 -160.896586 
L 400.444534 -162.770804 
L 394.808198 -164.236598 
L 389.171828 -165.00297 
L 383.535459 -164.847803 
L 377.89909 -163.662204 
L 372.26272 -161.451341 
L 366.626351 -158.3226 
L 360.990015 -154.499744 
L 355.353645 -150.348428 
L 349.717276 -146.362186 
L 344.080907 -143.08405 
L 338.444537 -140.988601 
L 332.808168 -140.391141 
L 327.171815 -141.427409 
L 321.535463 -144.074133 
L 315.899093 -148.165957 
L 310.262724 -153.391162 
L 304.626371 -159.27838 
L 298.990002 -165.229843 
L 293.353633 -170.634847 
L 287.71728 -175.004079 
L 282.08091 -178.052643 
L 276.444541 -179.709523 
L 270.808188 -180.067985 
L 265.171819 -179.326807 
L 259.53545 -177.765234 
L 253.899097 -175.727632 
L 248.262728 -173.576351 
L 242.626358 -171.614125 
L 236.990006 -170.013443 
L 231.353636 -168.798185 
L 225.717267 -167.884761 
L 220.080914 -167.139194 
L 214.444545 -166.404691 
L 208.808175 -165.504095 
L 203.171823 -164.277964 
L 197.535453 -162.703138 
L 191.899084 -161.052591 
L 186.262731 -159.850946 
L 180.626362 -159.442608 
L 174.989993 -159.861235 
L 169.35364 -161.031181 
L 163.717271 -162.83915 
L 158.080918 -165.137878 
L 152.444548 -167.75583 
L 146.808179 -170.515819 
L 141.17181 -173.255017 
L 135.535457 -175.840664 
L 129.899088 -178.178795 
L 124.262735 -180.215542 
L 118.626366 -181.932602 
L 112.989996 -183.339004 
L 107.353627 -184.46182 
L 101.717274 -185.337695 
L 96.080905 -186.006348 
L 90.444552 -186.506268 
L 84.808183 -186.872333 
L 79.171813 -187.134737 
L 73.535461 -187.318742 
L 67.899091 -187.444871 
L 62.262722 -187.52933 
L 56.626369 -187.584552 
L 50.99 -187.619796 
z
" id="m3e812a2927" style="stroke:#ffa500;stroke-opacity:0.1;"/>
    </defs>
    <g clip-path="url(#pfb4a8ce974)">
     <use style="fill:#ffa500;fill-opacity:0.1;stroke:#ffa500;stroke-opacity:0.1;" x="0" xlink:href="#m3e812a2927" y="235.573438"/>
    </g>
   </g>
   <g id="line2d_1">
    <path clip-path="url(#pfb4a8ce974)" d="M 50.99 108.758177 
L 56.626369 109.683171 
L 62.262722 110.398327 
L 67.899091 110.730643 
L 73.535461 110.548535 
L 79.171813 109.784405 
L 84.808183 108.446393 
L 90.444552 106.617714 
L 96.080905 104.4439 
L 101.717274 102.110131 
L 107.353627 99.812453 
L 112.989996 97.727352 
L 118.626366 95.984684 
L 124.262735 94.648101 
L 129.899088 93.706187 
L 135.535457 93.075727 
L 141.17181 92.616742 
L 146.808179 92.156944 
L 152.444548 91.521846 
L 158.080918 90.565612 
L 163.717271 89.197487 
L 169.35364 87.399083 
L 174.989993 85.229198 
L 180.626362 82.814621 
L 186.262731 80.328053 
L 191.899084 77.956416 
L 197.535453 75.865056 
L 203.171823 74.164643 
L 208.808175 72.887374 
L 214.444545 71.978081 
L 220.080914 71.30326 
L 225.717267 70.677585 
L 231.353636 69.904 
L 236.990006 68.820282 
L 242.626358 67.343052 
L 248.262728 65.499968 
L 253.899097 63.442619 
L 259.53545 61.435742 
L 265.171819 59.822932 
L 270.808188 58.973576 
L 276.444541 59.219423 
L 282.08091 60.791792 
L 287.71728 63.770619 
L 293.353633 68.054905 
L 298.990002 73.360771 
L 304.626371 79.24843 
L 310.262724 85.17498 
L 315.899093 90.565215 
L 321.535463 94.889473 
L 327.171815 97.736724 
L 332.808168 98.871193 
L 338.444537 98.263554 
L 344.080907 96.091891 
L 349.717276 92.712319 
L 355.353645 88.604186 
L 360.990015 84.299008 
L 366.626351 80.304948 
L 372.26272 77.039063 
L 377.89909 74.778411 
L 383.535459 73.636637 
L 389.171828 73.568617 
L 394.808198 74.399995 
L 400.444534 75.874189 
L 406.080903 77.706749 
L 411.717272 79.636218 
L 417.353642 81.46274 
L 422.990011 83.068795 
L 428.626347 84.420923 
L 434.262717 85.555352 
L 439.899086 86.553197 
L 445.535455 87.512366 
L 451.171825 88.52242 
L 456.808194 89.64683 
L 462.44453 90.914346 
L 468.080899 92.318735 
L 473.717269 93.824234 
L 479.353638 95.37372 
L 484.990007 96.896744 
L 490.626377 98.31594 
L 496.262713 99.551566 
L 501.899082 100.525092 
L 507.535452 101.163002 
L 513.171821 101.401977 
L 518.80819 101.195534 
L 524.44456 100.521387 
L 530.080896 99.387885 
L 535.717265 97.837518 
L 541.353634 95.945926 
L 546.990004 93.81541 
L 552.626373 91.563402 
L 558.262742 89.307437 
L 563.899078 87.149163 
L 569.535448 85.160286 
L 575.171817 83.373393 
L 580.808187 81.779371 
L 586.444556 80.332336 
L 592.080925 78.961339 
L 597.717261 77.586894 
L 603.353631 76.139359 
L 608.99 74.575963 
" style="fill:none;stroke:#ffa500;stroke-linecap:square;stroke-width:1.5;"/>
   </g>
   <g id="line2d_2">
    <path clip-path="url(#pfb4a8ce974)" d="M 50.99 99.264006 
L 56.626369 99.566151 
L 62.262722 99.195504 
L 67.899091 98.309975 
L 73.535461 97.160989 
L 79.171813 96.0477 
L 84.808183 95.262123 
L 90.444552 95.035591 
L 96.080905 95.496474 
L 101.717274 96.646804 
L 107.353627 98.361558 
L 112.989996 100.409942 
L 118.626366 102.493729 
L 124.262735 104.294957 
L 129.899088 105.523888 
L 135.535457 105.958992 
L 141.17181 105.473005 
L 146.808179 104.042517 
L 152.444548 101.741943 
L 158.080918 98.725422 
L 163.717271 95.201698 
L 169.35364 91.406863 
L 174.989993 87.578925 
L 180.626362 83.935936 
L 186.262731 80.65838 
L 191.899084 77.875076 
L 197.535453 75.652385 
L 203.171823 73.98737 
L 208.808175 72.806521 
L 214.444545 71.972628 
L 220.080914 71.301919 
L 225.717267 70.591815 
L 231.353636 69.657078 
L 236.990006 68.369131 
L 242.626358 66.690989 
L 248.262728 64.699633 
L 253.899097 62.589138 
L 259.53545 60.651094 
L 265.171819 59.233652 
L 270.808188 58.685305 
L 276.444541 59.29303 
L 282.08091 61.226278 
L 287.71728 64.497354 
L 293.353633 68.945807 
L 298.990002 74.250056 
L 304.626371 79.964263 
L 310.262724 85.574618 
L 315.899093 90.565875 
L 321.535463 94.487679 
L 327.171815 97.011227 
L 332.808168 97.968214 
L 338.444537 97.367179 
L 344.080907 95.38588 
L 349.717276 92.34158 
L 355.353645 88.644282 
L 360.990015 84.740269 
L 366.626351 81.054535 
L 372.26272 77.940525 
L 377.89909 75.644558 
L 383.535459 74.288914 
L 389.171828 73.874872 
L 394.808198 74.302965 
L 400.444534 75.40491 
L 406.080903 76.980085 
L 411.717272 78.82928 
L 417.353642 80.780295 
L 422.990011 82.702426 
L 428.626347 84.510016 
L 434.262717 86.157772 
L 439.899086 87.631636 
L 445.535455 88.939254 
L 451.171825 90.10239 
L 456.808194 91.151917 
L 462.44453 92.124173 
L 468.080899 93.056595 
L 473.717269 93.980682 
L 479.353638 94.911947 
L 484.990007 95.838249 
L 490.626377 96.709877 
L 496.262713 97.435607 
L 501.899082 97.888518 
L 507.535452 97.923367 
L 513.171821 97.404489 
L 518.80819 96.239807 
L 524.44456 94.414046 
L 530.080896 92.013034 
L 535.717265 89.231679 
L 541.353634 86.361176 
L 546.990004 83.754572 
L 552.626373 81.774998 
L 558.262742 80.73474 
L 563.899078 80.836135 
L 569.535448 82.125893 
L 575.171817 84.472591 
L 580.808187 87.573316 
L 586.444556 90.990135 
L 592.080925 94.211499 
L 597.717261 96.728815 
L 603.353631 98.115386 
L 608.99 98.093851 
" style="fill:none;stroke:#ffa500;stroke-linecap:square;stroke-width:1.5;"/>
   </g>
   <g id="line2d_3">
    <path clip-path="url(#pfb4a8ce974)" d="M 50.99 97.408551 
L 56.626369 100.113471 
L 62.262722 102.195401 
L 67.899091 103.501596 
L 73.535461 103.93722 
L 79.171813 103.47323 
L 84.808183 102.148871 
L 90.444552 100.068488 
L 96.080905 97.392682 
L 101.717274 94.324247 
L 107.353627 91.089932 
L 112.989996 87.919212 
L 118.626366 85.022187 
L 124.262735 82.568586 
L 129.899088 80.670511 
L 135.535457 79.37123 
L 141.17181 78.64213 
L 146.808179 78.388867 
L 152.444548 78.466736 
L 158.080918 78.703563 
L 163.717271 78.926968 
L 169.35364 78.991559 
L 174.989993 78.801076 
L 180.626362 78.320928 
L 186.262731 77.578114 
L 191.899084 76.647941 
L 197.535453 75.629905 
L 203.171823 74.617942 
L 208.808175 73.671986 
L 214.444545 72.798257 
L 220.080914 71.944169 
L 225.717267 71.010588 
L 231.353636 69.88011 
L 236.990006 68.455773 
L 242.626358 66.701425 
L 248.262728 64.673682 
L 253.899097 62.536624 
L 259.53545 60.553494 
L 265.171819 59.054688 
L 270.808188 58.386609 
L 276.444541 58.850252 
L 282.08091 60.641218 
L 287.71728 63.802894 
L 293.353633 68.202337 
L 298.990002 73.534279 
L 304.626371 79.353242 
L 310.262724 85.129086 
L 315.899093 90.316954 
L 321.535463 94.430196 
L 327.171815 97.105074 
L 332.808168 98.147214 
L 338.444537 97.553174 
L 344.080907 95.504754 
L 349.717276 92.337778 
L 355.353645 88.491037 
L 360.990015 84.443889 
L 366.626351 80.652386 
L 372.26272 77.493419 
L 377.89909 75.225054 
L 383.535459 73.967426 
L 389.171828 73.705685 
L 394.808198 74.312289 
L 400.444534 75.583006 
L 406.080903 77.279192 
L 411.717272 79.168396 
L 417.353642 81.056757 
L 422.990011 82.80876 
L 428.626347 84.353004 
L 434.262717 85.675503 
L 439.899086 86.804122 
L 445.535455 87.789164 
L 451.171825 88.684749 
L 456.808194 89.534735 
L 462.44453 90.365125 
L 468.080899 91.18307 
L 473.717269 91.980933 
L 479.353638 92.743121 
L 484.990007 93.453061 
L 490.626377 94.098254 
L 496.262713 94.672264 
L 501.899082 95.173519 
L 507.535452 95.601666 
L 513.171821 95.952872 
L 518.80819 96.215502 
L 524.44456 96.367458 
L 530.080896 96.375922 
L 535.717265 96.199716 
L 541.353634 95.793868 
L 546.990004 95.115637 
L 552.626373 94.130983 
L 558.262742 92.82049 
L 563.899078 91.183904 
L 569.535448 89.242643 
L 575.171817 87.040159 
L 580.808187 84.640001 
L 586.444556 82.122005 
L 592.080925 79.577063 
L 597.717261 77.101079 
L 603.353631 74.788661 
L 608.99 72.727368 
" style="fill:none;stroke:#ffa500;stroke-linecap:square;stroke-width:1.5;"/>
   </g>
   <g id="line2d_4">
    <path clip-path="url(#pfb4a8ce974)" d="M 50.99 60.777657 
L 56.626369 63.049701 
L 62.262722 65.207892 
L 67.899091 67.113026 
L 73.535461 68.658843 
L 79.171813 69.789485 
L 84.808183 70.510109 
L 90.444552 70.888467 
L 96.080905 71.046702 
L 101.717274 71.143984 
L 107.353627 71.35219 
L 112.989996 71.828073 
L 118.626366 72.686096 
L 124.262735 73.976343 
L 129.899088 75.671393 
L 135.535457 77.664942 
L 141.17181 79.783147 
L 146.808179 81.807903 
L 152.444548 83.508854 
L 158.080918 84.67952 
L 163.717271 85.171497 
L 169.35364 84.92062 
L 174.989993 83.959802 
L 180.626362 82.415243 
L 186.262731 80.485612 
L 191.899084 78.406994 
L 197.535453 76.409557 
L 203.171823 74.674185 
L 208.808175 73.297858 
L 214.444545 72.275683 
L 220.080914 71.504512 
L 225.717267 70.808776 
L 231.353636 69.984493 
L 236.990006 68.853101 
L 242.626358 67.314029 
L 248.262728 65.384441 
L 253.899097 63.216686 
L 259.53545 61.088084 
L 265.171819 59.363247 
L 270.808188 58.434914 
L 276.444541 58.653608 
L 282.08091 60.259205 
L 287.71728 63.327239 
L 293.353633 67.740238 
L 298.990002 73.189933 
L 304.626371 79.210365 
L 310.262724 85.236949 
L 315.899093 90.68193 
L 321.535463 95.01401 
L 327.171815 97.830028 
L 332.808168 98.90764 
L 338.444537 98.23141 
L 344.080907 95.989197 
L 349.717276 92.540148 
L 355.353645 88.360015 
L 360.990015 83.972829 
L 366.626351 79.879771 
L 372.26272 76.495983 
L 377.89909 74.104863 
L 383.535459 72.835302 
L 389.171828 72.664092 
L 394.808198 73.44084 
L 400.444534 74.929221 
L 406.080903 76.856034 
L 411.717272 78.958701 
L 417.353642 81.023335 
L 422.990011 82.907831 
L 428.626347 84.548054 
L 434.262717 85.948677 
L 439.899086 87.162799 
L 445.535455 88.266282 
L 451.171825 89.332532 
L 456.808194 90.412481 
L 462.44453 91.522547 
L 468.080899 92.641265 
L 473.717269 93.713331 
L 479.353638 94.658927 
L 484.990007 95.385598 
L 490.626377 95.800468 
L 496.262713 95.821248 
L 501.899082 95.385295 
L 507.535452 94.456614 
L 513.171821 93.03093 
L 518.80819 91.138891 
L 524.44456 88.847183 
L 530.080896 86.257079 
L 535.717265 83.499689 
L 541.353634 80.727701 
L 546.990004 78.103323 
L 552.626373 75.783381 
L 558.262742 73.902945 
L 563.899078 72.559592 
L 569.535448 71.800642 
L 575.171817 71.61575 
L 580.808187 71.936364 
L 586.444556 72.642921 
L 592.080925 73.579271 
L 597.717261 74.572655 
L 603.353631 75.456598 
L 608.99 76.093267 
" style="fill:none;stroke:#ffa500;stroke-linecap:square;stroke-width:1.5;"/>
   </g>
   <g id="line2d_5">
    <path clip-path="url(#pfb4a8ce974)" d="M 50.99 58.092617 
L 56.626369 57.576049 
L 62.262722 57.72191 
L 67.899091 58.564088 
L 73.535461 60.095449 
L 79.171813 62.268159 
L 84.808183 64.997164 
L 90.444552 68.166344 
L 96.080905 71.636758 
L 101.717274 75.256042 
L 107.353627 78.867826 
L 112.989996 82.32051 
L 118.626366 85.474399 
L 124.262735 88.207142 
L 129.899088 90.41738 
L 135.535457 92.027173 
L 141.17181 92.983791 
L 146.808179 93.261684 
L 152.444548 92.86487 
L 158.080918 91.829655 
L 163.717271 90.226829 
L 169.35364 88.161874 
L 174.989993 85.771623 
L 180.626362 83.215779 
L 186.262731 80.662895 
L 191.899084 78.271424 
L 197.535453 76.168276 
L 203.171823 74.428719 
L 208.808175 73.062068 
L 214.444545 72.007568 
L 220.080914 71.143404 
L 225.717267 70.309257 
L 231.353636 69.339921 
L 236.990006 68.104568 
L 242.626358 66.544154 
L 248.262728 64.698913 
L 253.899097 62.719104 
L 259.53545 60.854826 
L 265.171819 59.424735 
L 270.808188 58.767731 
L 276.444541 59.18511 
L 282.08091 60.883172 
L 287.71728 63.926505 
L 293.353633 68.210772 
L 298.990002 73.460747 
L 304.626371 79.254964 
L 310.262724 85.074331 
L 315.899093 90.36777 
L 321.535463 94.625009 
L 327.171815 97.445776 
L 332.808168 98.59456 
L 338.444537 98.032346 
L 344.080907 95.920401 
L 349.717276 92.595328 
L 355.353645 88.519304 
L 360.990015 84.213496 
L 366.626351 80.185435 
L 372.26272 76.861926 
L 377.89909 74.538425 
L 383.535459 73.351904 
L 389.171828 73.280617 
L 394.808198 74.168673 
L 400.444534 75.769034 
L 406.080903 77.795601 
L 411.717272 79.973799 
L 417.353642 82.080696 
L 422.990011 83.968307 
L 428.626347 85.568014 
L 434.262717 86.878146 
L 439.899086 87.939844 
L 445.535455 88.808417 
L 451.171825 89.527062 
L 456.808194 90.108479 
L 462.44453 90.527306 
L 468.080899 90.723517 
L 473.717269 90.614468 
L 479.353638 90.111866 
L 484.990007 89.139452 
L 490.626377 87.647818 
L 496.262713 85.624036 
L 501.899082 83.095206 
L 507.535452 80.126626 
L 513.171821 76.815805 
L 518.80819 73.284298 
L 524.44456 69.669 
L 530.080896 66.114137 
L 535.717265 62.76443 
L 541.353634 59.759774 
L 546.990004 57.23064 
L 552.626373 55.294017 
L 558.262742 54.049309 
L 563.899078 53.573995 
L 569.535448 53.919116 
L 575.171817 55.104958 
L 580.808187 57.117424 
L 586.444556 59.905745 
L 592.080925 63.382059 
L 597.717261 67.423253 
L 603.353631 71.875363 
L 608.99 76.560095 
" style="fill:none;stroke:#ffa500;stroke-linecap:square;stroke-width:1.5;"/>
   </g>
   <g id="line2d_6">
    <path clip-path="url(#pfb4a8ce974)" d="M 50.99 78.483754 
L 56.626369 79.725502 
L 62.262722 80.280929 
L 67.899091 79.927874 
L 73.535461 78.559263 
L 79.171813 76.204902 
L 84.808183 73.033741 
L 90.444552 69.336027 
L 96.080905 65.487466 
L 101.717274 61.900417 
L 107.353627 58.969165 
L 112.989996 57.016942 
L 118.626366 56.252677 
L 124.262735 56.743588 
L 129.899088 58.407766 
L 135.535457 61.027789 
L 141.17181 64.28316 
L 146.808179 67.796724 
L 152.444548 71.187705 
L 158.080918 74.123359 
L 163.717271 76.361118 
L 169.35364 77.774848 
L 174.989993 78.361281 
L 180.626362 78.226237 
L 186.262731 77.553448 
L 191.899084 76.562051 
L 197.535453 75.460731 
L 203.171823 74.407234 
L 208.808175 73.480924 
L 214.444545 72.673713 
L 220.080914 71.901191 
L 225.717267 71.03173 
L 231.353636 69.927776 
L 236.990006 68.490909 
L 242.626358 66.701177 
L 248.262728 64.642099 
L 253.899097 62.505357 
L 259.53545 60.572899 
L 265.171819 59.178648 
L 270.808188 58.656034 
L 276.444541 59.280255 
L 282.08091 61.215564 
L 287.71728 64.476978 
L 293.353633 68.913442 
L 298.990002 74.215895 
L 304.626371 79.949262 
L 310.262724 85.603959 
L 315.899093 90.659182 
L 321.535463 94.648525 
L 327.171815 97.218857 
L 332.808168 98.17409 
L 338.444537 97.498104 
L 344.080907 95.354231 
L 349.717276 92.061797 
L 355.353645 88.053342 
L 360.990015 83.818589 
L 366.626351 79.842846 
L 372.26272 76.547911 
L 377.89909 74.243582 
L 383.535459 73.095518 
L 389.171828 73.113778 
L 394.808198 74.162987 
L 400.444534 75.992288 
L 406.080903 78.280479 
L 411.717272 80.689377 
L 417.353642 82.917617 
L 422.990011 84.74665 
L 428.626347 86.07203 
L 434.262717 86.915232 
L 439.899086 87.414043 
L 445.535455 87.793095 
L 451.171825 88.318973 
L 456.808194 89.24694 
L 462.44453 90.767762 
L 468.080899 92.963277 
L 473.717269 95.778039 
L 479.353638 99.012299 
L 484.990007 102.338128 
L 490.626377 105.337147 
L 496.262713 107.554924 
L 501.899082 108.564584 
L 507.535452 108.030391 
L 513.171821 105.762325 
L 518.80819 101.753363 
L 524.44456 96.193789 
L 530.080896 89.460005 
L 535.717265 82.078533 
L 541.353634 74.670195 
L 546.990004 67.880808 
L 552.626373 62.307904 
L 558.262742 58.432714 
L 563.899078 56.566188 
L 569.535448 56.815797 
L 575.171817 59.077226 
L 580.808187 63.0514 
L 586.444556 68.284355 
L 592.080925 74.224267 
L 597.717261 80.287915 
L 603.353631 85.928082 
L 608.99 90.692821 
" style="fill:none;stroke:#ffa500;stroke-linecap:square;stroke-width:1.5;"/>
   </g>
   <g id="line2d_7">
    <path clip-path="url(#pfb4a8ce974)" d="M 50.99 94.322907 
L 56.626369 92.917248 
L 62.262722 90.835886 
L 67.899091 88.241927 
L 73.535461 85.398209 
L 79.171813 82.62154 
L 84.808183 80.226723 
L 90.444552 78.473337 
L 96.080905 77.526491 
L 101.717274 77.438729 
L 107.353627 78.154268 
L 112.989996 79.531129 
L 118.626366 81.372983 
L 124.262735 83.461583 
L 129.899088 85.582424 
L 135.535457 87.540199 
L 141.17181 89.164836 
L 146.808179 90.312542 
L 152.444548 90.867199 
L 158.080918 90.746507 
L 163.717271 89.913836 
L 169.35364 88.392859 
L 174.989993 86.278971 
L 180.626362 83.740279 
L 186.262731 81.00297 
L 191.899084 78.319734 
L 197.535453 75.92558 
L 203.171823 73.990409 
L 208.808175 72.5803 
L 214.444545 71.639213 
L 220.080914 70.998628 
L 225.717267 70.415872 
L 231.353636 69.63435 
L 236.990006 68.452452 
L 242.626358 66.784656 
L 248.262728 64.699246 
L 253.899097 62.422267 
L 259.53545 60.305062 
L 265.171819 58.761623 
L 270.808188 58.189228 
L 276.444541 58.889495 
L 282.08091 61.006765 
L 287.71728 64.496038 
L 293.353633 69.125632 
L 298.990002 74.511897 
L 304.626371 80.176589 
L 310.262724 85.614373 
L 315.899093 90.357463 
L 321.535463 94.02721 
L 327.171815 96.367641 
L 332.808168 97.260209 
L 338.444537 96.72284 
L 344.080907 94.897954 
L 349.717276 92.033478 
L 355.353645 88.459119 
L 360.990015 84.558241 
L 366.626351 80.734705 
L 372.26272 77.374467 
L 377.89909 74.804254 
L 383.535459 73.251647 
L 389.171828 72.814006 
L 394.808198 73.443833 
L 400.444534 74.956584 
L 406.080903 77.062914 
L 411.717272 79.421545 
L 417.353642 81.703693 
L 422.990011 83.655775 
L 428.626347 85.146392 
L 434.262717 86.186271 
L 439.899086 86.915572 
L 445.535455 87.560935 
L 451.171825 88.371831 
L 456.808194 89.551305 
L 462.44453 91.197786 
L 468.080899 93.272138 
L 473.717269 95.597772 
L 479.353638 97.89383 
L 484.990007 99.83307 
L 490.626377 101.110531 
L 496.262713 101.506819 
L 501.899082 100.931962 
L 507.535452 99.441093 
L 513.171821 97.220574 
L 518.80819 94.550075 
L 524.44456 91.751147 
L 530.080896 89.134635 
L 535.717265 86.957523 
L 541.353634 85.396062 
L 546.990004 84.536216 
L 552.626373 84.37851 
L 558.262742 84.851264 
L 563.899078 85.826204 
L 569.535448 87.13241 
L 575.171817 88.567655 
L 580.808187 89.909327 
L 586.444556 90.928469 
L 592.080925 91.409992 
L 597.717261 91.179538 
L 603.353631 90.133868 
L 608.99 88.268347 
" style="fill:none;stroke:#ffa500;stroke-linecap:square;stroke-width:1.5;"/>
   </g>
   <g id="line2d_8">
    <path clip-path="url(#pfb4a8ce974)" d="M 50.99 63.38611 
L 56.626369 66.911872 
L 62.262722 70.460763 
L 67.899091 73.875288 
L 73.535461 77.067644 
L 79.171813 80.014345 
L 84.808183 82.739962 
L 90.444552 85.294438 
L 96.080905 87.729353 
L 101.717274 90.077749 
L 107.353627 92.340795 
L 112.989996 94.482917 
L 118.626366 96.434759 
L 124.262735 98.102274 
L 129.899088 99.379273 
L 135.535457 100.160984 
L 141.17181 100.356772 
L 146.808179 99.901224 
L 152.444548 98.763376 
L 158.080918 96.954272 
L 163.717271 94.532598 
L 169.35364 91.607335 
L 174.989993 88.335766 
L 180.626362 84.914504 
L 186.262731 81.562283 
L 191.899084 78.494448 
L 197.535453 75.891795 
L 203.171823 73.869024 
L 208.808175 72.449637 
L 214.444545 71.554682 
L 220.080914 71.010899 
L 225.717267 70.579999 
L 231.353636 70.006011 
L 236.990006 69.072581 
L 242.626358 67.658536 
L 248.262728 65.778974 
L 253.899097 63.601255 
L 259.53545 61.429948 
L 265.171819 59.661523 
L 270.808188 58.716323 
L 276.444541 58.960438 
L 282.08091 60.632811 
L 287.71728 63.791829 
L 293.353633 68.291795 
L 298.990002 73.793715 
L 304.626371 79.807942 
L 310.262724 85.760868 
L 315.899093 91.073761 
L 321.535463 95.240424 
L 327.171815 97.892112 
L 332.808168 98.840615 
L 338.444537 98.094834 
L 344.080907 95.850545 
L 349.717276 92.45669 
L 355.353645 88.364385 
L 360.990015 84.066533 
L 366.626351 80.036398 
L 372.26272 76.672854 
L 377.89909 74.259166 
L 383.535459 72.939288 
L 389.171828 72.714117 
L 394.808198 73.456984 
L 400.444534 74.945281 
L 406.080903 76.90308 
L 411.717272 79.047966 
L 417.353642 81.135162 
L 422.990011 82.992269 
L 428.626347 84.539626 
L 434.262717 85.793589 
L 439.899086 86.852512 
L 445.535455 87.86824 
L 451.171825 89.007899 
L 456.808194 90.412488 
L 462.44453 92.1593 
L 468.080899 94.234774 
L 473.717269 96.522632 
L 479.353638 98.810184 
L 484.990007 100.812532 
L 490.626377 102.211683 
L 496.262713 102.705 
L 501.899082 102.055668 
L 507.535452 100.137177 
L 513.171821 96.964483 
L 518.80819 92.706205 
L 524.44456 87.675107 
L 530.080896 82.297401 
L 535.717265 77.064575 
L 541.353634 72.474915 
L 546.990004 68.972516 
L 552.626373 66.893156 
L 558.262742 66.424684 
L 563.899078 67.587537 
L 569.535448 70.237833 
L 575.171817 74.091822 
L 580.808187 78.767485 
L 586.444556 83.836425 
L 592.080925 88.878049 
L 597.717261 93.528098 
L 603.353631 97.515185 
L 608.99 100.680777 
" style="fill:none;stroke:#ffa500;stroke-linecap:square;stroke-width:1.5;"/>
   </g>
   <g id="line2d_9">
    <path clip-path="url(#pfb4a8ce974)" d="M 50.99 69.135888 
L 56.626369 68.39111 
L 62.262722 68.629046 
L 67.899091 70.242844 
L 73.535461 73.451274 
L 79.171813 78.261119 
L 84.808183 84.460135 
L 90.444552 91.641312 
L 96.080905 99.254863 
L 101.717274 106.679742 
L 107.353627 113.30337 
L 112.989996 118.597932 
L 118.626366 122.181314 
L 124.262735 123.854708 
L 129.899088 123.612228 
L 135.535457 121.623195 
L 141.17181 118.192255 
L 146.808179 113.705862 
L 152.444548 108.575577 
L 158.080918 103.187796 
L 163.717271 97.867457 
L 169.35364 92.859096 
L 174.989993 88.324861 
L 180.626362 84.35471 
L 186.262731 80.982826 
L 191.899084 78.203308 
L 197.535453 75.980605 
L 203.171823 74.253155 
L 208.808175 72.931971 
L 214.444545 71.898762 
L 220.080914 71.008993 
L 225.717267 70.104062 
L 231.353636 69.033889 
L 236.990006 67.687356 
L 242.626358 66.024361 
L 248.262728 64.101235 
L 253.899097 62.081393 
L 259.53545 60.225433 
L 265.171819 58.859322 
L 270.808188 58.32434 
L 276.444541 58.916817 
L 282.08091 60.82875 
L 287.71728 64.100763 
L 293.353633 68.597021 
L 298.990002 74.007906 
L 304.626371 79.880997 
L 310.262724 85.676314 
L 315.899093 90.837256 
L 321.535463 94.865934 
L 327.171815 97.391411 
L 332.808168 98.219977 
L 338.444537 97.359722 
L 344.080907 95.01583 
L 349.717276 91.557497 
L 355.353645 87.461983 
L 360.990015 83.245004 
L 366.626351 79.388882 
L 372.26272 76.279989 
L 377.89909 74.165655 
L 383.535459 73.136307 
L 389.171828 73.134589 
L 394.808198 73.987635 
L 400.444534 75.454593 
L 406.080903 77.278931 
L 411.717272 79.234588 
L 417.353642 81.157344 
L 422.990011 82.956312 
L 428.626347 84.605397 
L 434.262717 86.119155 
L 439.899086 87.520692 
L 445.535455 88.811007 
L 451.171825 89.948089 
L 456.808194 90.841571 
L 462.44453 91.364704 
L 468.080899 91.381138 
L 473.717269 90.780302 
L 479.353638 89.513058 
L 484.990007 87.618833 
L 490.626377 85.237126 
L 496.262713 82.599334 
L 501.899082 80.000802 
L 507.535452 77.757362 
L 513.171821 76.15343 
L 518.80819 75.391233 
L 524.44456 75.550644 
L 530.080896 76.567624 
L 535.717265 78.236268 
L 541.353634 80.235279 
L 546.990004 82.175643 
L 552.626373 83.662336 
L 558.262742 84.360279 
L 563.899078 84.053754 
L 569.535448 82.689118 
L 575.171817 80.393192 
L 580.808187 77.463296 
L 586.444556 74.329397 
L 592.080925 71.493319 
L 597.717261 69.453731 
L 603.353631 68.628041 
L 608.99 69.283401 
" style="fill:none;stroke:#ffa500;stroke-linecap:square;stroke-width:1.5;"/>
   </g>
   <g id="line2d_10">
    <path clip-path="url(#pfb4a8ce974)" d="M 50.99 76.717597 
L 56.626369 79.951046 
L 62.262722 82.498096 
L 67.899091 84.1164 
L 73.535461 84.692451 
L 79.171813 84.252381 
L 84.808183 82.953423 
L 90.444552 81.057919 
L 96.080905 78.893973 
L 101.717274 76.808585 
L 107.353627 75.119971 
L 112.989996 74.075404 
L 118.626366 73.820183 
L 124.262735 74.381357 
L 129.899088 75.667965 
L 135.535457 77.487269 
L 141.17181 79.574342 
L 146.808179 81.630901 
L 152.444548 83.367836 
L 158.080918 84.545717 
L 163.717271 85.007459 
L 169.35364 84.698397 
L 174.989993 83.670565 
L 180.626362 82.070142 
L 186.262731 80.109671 
L 191.899084 78.029125 
L 197.535453 76.052223 
L 203.171823 74.345817 
L 208.808175 72.990034 
L 214.444545 71.965657 
L 220.080914 71.162255 
L 225.717267 70.406566 
L 231.353636 69.506544 
L 236.990006 68.302741 
L 242.626358 66.716532 
L 248.262728 64.784609 
L 253.899097 62.671448 
L 259.53545 60.655425 
L 265.171819 59.089634 
L 270.808188 58.343728 
L 276.444541 58.737022 
L 282.08091 60.475375 
L 287.71728 63.603785 
L 293.353633 67.983875 
L 298.990002 73.300996 
L 304.626371 79.099999 
L 310.262724 84.844115 
L 315.899093 89.987194 
L 321.535463 94.04741 
L 327.171815 96.67115 
L 332.808168 97.677263 
L 338.444537 97.075557 
L 344.080907 95.057857 
L 349.717276 91.964092 
L 355.353645 88.229757 
L 360.990015 84.323652 
L 366.626351 80.685871 
L 372.26272 77.675244 
L 377.89909 75.533771 
L 383.535459 74.371572 
L 389.171828 74.172875 
L 394.808198 74.819514 
L 400.444534 76.125765 
L 406.080903 77.877001 
L 411.717272 79.86464 
L 417.353642 81.911797 
L 422.990011 83.886463 
L 428.626347 85.702283 
L 434.262717 87.309733 
L 439.899086 88.682122 
L 445.535455 89.80169 
L 451.171825 90.649888 
L 456.808194 91.204328 
L 462.44453 91.442543 
L 468.080899 91.350539 
L 473.717269 90.932691 
L 479.353638 90.219133 
L 484.990007 89.267438 
L 490.626377 88.156917 
L 496.262713 86.975863 
L 501.899082 85.803992 
L 507.535452 84.69387 
L 513.171821 83.655527 
L 518.80819 82.648325 
L 524.44456 81.582773 
L 530.080896 80.333181 
L 535.717265 78.759848 
L 541.353634 76.737687 
L 546.990004 74.186446 
L 552.626373 71.097321 
L 558.262742 67.550803 
L 563.899078 63.721874 
L 569.535448 59.870335 
L 575.171817 56.316832 
L 580.808187 53.40673 
L 586.444556 51.466792 
L 592.080925 50.760586 
L 597.717261 51.449181 
L 603.353631 53.563229 
L 608.99 56.99098 
" style="fill:none;stroke:#ffa500;stroke-linecap:square;stroke-width:1.5;"/>
   </g>
   <g id="line2d_11">
    <path clip-path="url(#pfb4a8ce974)" d="M 50.99 79.906764 
L 56.626369 79.941807 
L 62.262722 79.996508 
L 67.899091 80.079675 
L 73.535461 80.202756 
L 79.171813 80.379904 
L 84.808183 80.627623 
L 90.444552 80.963753 
L 96.080905 81.405636 
L 101.717274 81.967318 
L 107.353627 82.655826 
L 112.989996 83.466817 
L 118.626366 84.380095 
L 124.262735 85.355908 
L 129.899088 86.333062 
L 135.535457 87.23001 
L 141.17181 87.9498 
L 146.808179 88.389329 
L 152.444548 88.452421 
L 158.080918 88.065294 
L 163.717271 87.19192 
L 169.35364 85.84608 
L 174.989993 84.096822 
L 180.626362 82.064595 
L 186.262731 79.907024 
L 191.899084 77.795265 
L 197.535453 75.884411 
L 203.171823 74.283556 
L 208.808175 73.03201 
L 214.444545 72.088033 
L 220.080914 71.334441 
L 225.717267 70.602034 
L 231.353636 69.70791 
L 236.990006 68.50181 
L 242.626358 66.91103 
L 248.262728 64.973738 
L 253.899097 62.852221 
L 259.53545 60.821139 
L 265.171819 59.230941 
L 270.808188 58.451901 
L 276.444541 58.808317 
L 282.08091 60.515024 
L 287.71728 63.628179 
L 293.353633 68.019901 
L 298.990002 73.382162 
L 304.626371 79.259801 
L 310.262724 85.107873 
L 315.899093 90.364118 
L 321.535463 94.524849 
L 327.171815 97.212722 
L 332.808168 98.225845 
L 338.444537 97.561135 
L 344.080907 95.409087 
L 349.717276 92.121481 
L 355.353645 88.157746 
L 360.990015 84.018887 
L 366.626351 80.179528 
L 372.26272 77.02841 
L 377.89909 74.826334 
L 383.535459 73.686517 
L 389.171828 73.57904 
L 394.808198 74.356401 
L 400.444534 75.793812 
L 406.080903 77.635828 
L 411.717272 79.640288 
L 417.353642 81.612233 
L 422.990011 83.422924 
L 428.626347 85.012732 
L 434.262717 86.380023 
L 439.899086 87.560608 
L 445.535455 88.6039 
L 451.171825 89.551412 
L 456.808194 90.422029 
L 462.44453 91.206251 
L 468.080899 91.869256 
L 473.717269 92.360625 
L 479.353638 92.627539 
L 484.990007 92.627865 
L 490.626377 92.340222 
L 496.262713 91.769233 
L 501.899082 90.945473 
L 507.535452 89.920884 
L 513.171821 88.761112 
L 518.80819 87.536655 
L 524.44456 86.314533 
L 530.080896 85.151759 
L 535.717265 84.091258 
L 541.353634 83.160432 
L 546.990004 82.371857 
L 552.626373 81.725595 
L 558.262742 81.212339 
L 563.899078 80.816761 
L 569.535448 80.520541 
L 575.171817 80.304819 
L 580.808187 80.151913 
L 586.444556 80.046354 
L 592.080925 79.975335 
L 597.717261 79.928748 
L 603.353631 79.898937 
L 608.99 79.880322 
" style="fill:none;stroke:#000000;stroke-linecap:square;stroke-width:1.5;"/>
   </g>
   <g id="line2d_12">
    <path clip-path="url(#pfb4a8ce974)" d="M 50.99 107.124245 
L 56.626364 107.136074 
L 62.262727 107.156972 
L 67.899091 107.192682 
L 73.535455 107.25162 
L 79.171818 107.345386 
L 84.808182 107.488815 
L 90.444545 107.699037 
L 96.080909 107.992935 
L 101.717273 108.382409 
L 107.353636 108.867283 
L 112.99 109.426437 
L 118.626364 110.008854 
L 124.262727 110.527231 
L 129.899091 110.857269 
L 135.535455 110.845193 
L 141.171818 110.324634 
L 146.808182 109.141792 
L 152.444545 107.185511 
L 158.080909 104.416941 
L 163.717273 100.892469 
L 169.353636 96.77427 
L 174.99 92.325463 
L 180.626364 87.891322 
L 186.262727 83.865938 
L 191.899091 80.593147 
L 197.535455 78.135831 
L 203.171818 76.30218 
L 208.808182 74.957403 
L 214.444545 74.026669 
L 220.080909 73.38005 
L 225.717273 72.803479 
L 231.353636 72.049017 
L 236.99 70.914081 
L 242.626364 69.305956 
L 248.262727 67.275974 
L 253.899091 65.023716 
L 259.535455 62.872261 
L 265.171818 61.215988 
L 270.808182 60.448995 
L 276.444545 60.889618 
L 282.080909 62.718438 
L 287.717273 65.942248 
L 293.353636 70.388637 
L 298.99 75.728641 
L 304.626364 81.519413 
L 310.262727 87.255921 
L 315.899091 92.42335 
L 321.535455 96.549727 
L 327.171818 99.261761 
L 332.808182 100.338446 
L 338.444545 99.747477 
L 344.080909 97.651471 
L 349.717273 94.381479 
L 355.353636 90.386689 
L 360.99 86.173698 
L 366.626364 82.242874 
L 372.262727 79.023785 
L 377.899091 76.815767 
L 383.535455 75.747036 
L 389.171818 75.767133 
L 394.808182 76.679111 
L 400.444545 78.202663 
L 406.080909 80.047361 
L 411.717273 81.972877 
L 417.353636 83.819612 
L 422.99 85.507613 
L 428.626364 87.018101 
L 434.262727 88.373077 
L 439.899091 89.613293 
L 445.535455 90.767874 
L 451.171818 91.823267 
L 456.808182 92.726695 
L 462.444545 93.471874 
L 468.080909 94.236975 
L 473.717273 95.280613 
L 479.353636 96.634228 
L 484.99 98.178035 
L 490.626364 99.78878 
L 496.262727 101.361827 
L 501.899091 102.809914 
L 507.535455 104.066664 
L 513.171818 105.091575 
L 518.808182 105.872386 
L 524.444545 106.423061 
L 530.080909 106.777549 
L 535.717273 106.980904 
L 541.353636 107.080005 
L 546.99 107.116063 
L 552.626364 107.12026 
L 558.262727 107.112774 
L 563.899091 107.104363 
L 569.535455 107.099189 
L 575.171818 107.097697 
L 580.808182 107.098792 
L 586.444545 107.101137 
L 592.080909 107.103727 
L 597.717273 107.106 
L 603.353636 107.107746 
L 608.99 107.108968 
" style="fill:none;stroke:#800080;stroke-dasharray:5.55,2.4;stroke-dashoffset:0;stroke-width:1.5;"/>
   </g>
   <g id="line2d_13">
    <path clip-path="url(#pfb4a8ce974)" d="M 50.99 79.86684 
L 56.626364 79.878706 
L 62.262727 79.89972 
L 67.899091 79.93577 
L 73.535455 79.995647 
L 79.171818 80.091863 
L 84.808182 80.241308 
L 90.444545 80.465433 
L 96.080909 80.789545 
L 101.717273 81.240747 
L 107.353636 81.844109 
L 112.99 82.616912 
L 118.626364 83.561269 
L 124.262727 84.656032 
L 129.899091 85.849664 
L 135.535455 87.056275 
L 141.171818 88.157242 
L 146.808182 89.010297 
L 152.444545 89.466692 
L 158.080909 89.395043 
L 163.717273 88.708139 
L 169.353636 87.387051 
L 174.99 85.49597 
L 180.626364 83.182075 
L 186.262727 80.657398 
L 191.899091 78.163896 
L 197.535455 75.927625 
L 203.171818 74.111759 
L 208.808182 72.779897 
L 214.444545 71.879856 
L 220.080909 71.253899 
L 225.717273 70.675186 
L 231.353636 69.903543 
L 236.99 68.748417 
L 242.626364 67.124531 
L 248.262727 65.086913 
L 253.899091 62.836507 
L 259.535455 60.69421 
L 265.171818 59.048255 
L 270.808182 58.285619 
L 276.444545 58.721239 
L 282.080909 60.538637 
L 287.717273 63.752429 
L 293.353636 68.198146 
L 298.99 73.549284 
L 304.626364 79.35686 
L 310.262727 85.104054 
L 315.899091 90.267681 
L 321.535455 94.379072 
L 327.171818 97.078196 
L 332.808182 98.156075 
L 338.444545 97.581098 
L 344.080909 95.505314 
L 349.717273 92.247807 
L 355.353636 88.254615 
L 360.99 84.038529 
L 366.626364 80.106773 
L 372.262727 76.888598 
L 377.899091 74.676564 
L 383.535455 73.593539 
L 389.171818 73.592241 
L 394.808182 74.486573 
L 400.444545 76.006325 
L 406.080909 77.861285 
L 411.717273 79.799168 
L 417.353636 81.644449 
L 422.99 83.311286 
L 428.626364 84.791225 
L 434.262727 86.123013 
L 439.899091 87.355794 
L 445.535455 88.517217 
L 451.171818 89.595033 
L 456.808182 90.535664 
L 462.444545 91.257907 
L 468.080909 91.675831 
L 473.717273 91.723127 
L 479.353636 91.37186 
L 484.99 90.641069 
L 490.626364 89.594105 
L 496.262727 88.326673 
L 501.899091 86.949625 
L 507.535455 85.571105 
L 513.171818 84.281951 
L 518.808182 83.146711 
L 524.444545 82.200836 
L 530.080909 81.453145 
L 535.717273 80.891757 
L 541.353636 80.491487 
L 546.99 80.22096 
L 552.626364 80.048318 
L 558.262727 79.945037 
L 563.899091 79.887889 
L 569.535455 79.85942 
L 575.171818 79.847463 
L 580.808182 79.844134 
L 586.444545 79.84472 
L 592.080909 79.846651 
L 597.717273 79.848691 
L 603.353636 79.850359 
L 608.99 79.851557 
" style="fill:none;stroke:#800080;stroke-linecap:square;stroke-width:1.5;"/>
   </g>
   <g id="line2d_14">
    <path clip-path="url(#pfb4a8ce974)" d="M 50.99 52.609434 
L 56.626364 52.621338 
L 62.262727 52.642468 
L 67.899091 52.678857 
L 73.535455 52.739675 
L 79.171818 52.838341 
L 84.808182 52.993802 
L 90.444545 53.231828 
L 96.080909 53.586154 
L 101.717273 54.099085 
L 107.353636 54.820934 
L 112.99 55.807387 
L 118.626364 57.113684 
L 124.262727 58.784833 
L 129.899091 60.842059 
L 135.535455 63.267357 
L 141.171818 65.98985 
L 146.808182 68.878803 
L 152.444545 71.747873 
L 158.080909 74.373145 
L 163.717273 76.523809 
L 169.353636 77.999832 
L 174.99 78.666477 
L 180.626364 78.472829 
L 186.262727 77.448858 
L 191.899091 75.734644 
L 197.535455 73.71942 
L 203.171818 71.921337 
L 208.808182 70.602392 
L 214.444545 69.733042 
L 220.080909 69.127747 
L 225.717273 68.546894 
L 231.353636 67.758068 
L 236.99 66.582752 
L 242.626364 64.943106 
L 248.262727 62.897852 
L 253.899091 60.649297 
L 259.535455 58.516159 
L 265.171818 56.880522 
L 270.808182 56.122243 
L 276.444545 56.55286 
L 282.080909 58.358837 
L 287.717273 61.56261 
L 293.353636 66.007656 
L 298.99 71.369927 
L 304.626364 77.194308 
L 310.262727 82.952186 
L 315.899091 88.112013 
L 321.535455 92.208417 
L 327.171818 94.894631 
L 332.808182 95.973704 
L 338.444545 95.414719 
L 344.080909 93.359157 
L 349.717273 90.114135 
L 355.353636 86.122541 
L 360.99 81.903361 
L 366.626364 77.970672 
L 372.262727 74.753411 
L 377.899091 72.537361 
L 383.535455 71.440042 
L 389.171818 71.417349 
L 394.808182 72.294035 
L 400.444545 73.809987 
L 406.080909 75.675209 
L 411.717273 77.625459 
L 417.353636 79.469285 
L 422.99 81.11496 
L 428.626364 82.56435 
L 434.262727 83.87295 
L 439.899091 85.098294 
L 445.535455 86.266559 
L 451.171818 87.366798 
L 456.808182 88.344632 
L 462.444545 89.04394 
L 468.080909 89.114686 
L 473.717273 88.165641 
L 479.353636 86.109492 
L 484.99 83.104103 
L 490.626364 79.399429 
L 496.262727 75.291519 
L 501.899091 71.089337 
L 507.535455 67.075545 
L 513.171818 63.472326 
L 518.808182 60.421036 
L 524.444545 57.978612 
L 530.080909 56.12874 
L 535.717273 54.80261 
L 541.353636 53.902969 
L 546.99 53.325858 
L 552.626364 52.976377 
L 558.262727 52.7773 
L 563.899091 52.671415 
L 569.535455 52.619652 
L 575.171818 52.597228 
L 580.808182 52.589477 
L 586.444545 52.588303 
L 592.080909 52.589575 
L 597.717273 52.591382 
L 603.353636 52.592973 
L 608.99 52.594146 
" style="fill:none;stroke:#800080;stroke-dasharray:5.55,2.4;stroke-dashoffset:0;stroke-width:1.5;"/>
   </g>
   <g id="matplotlib.axis_1">
    <g id="xtick_1">
     <g id="line2d_15">
      <defs>
       <path d="M 0 0 
L 0 3.5 
" id="m6173b32675" style="stroke:#000000;stroke-width:0.8;"/>
      </defs>
      <g>
       <use style="stroke:#000000;stroke-width:0.8;" x="120.74" xlink:href="#m6173b32675" y="188.573438"/>
      </g>
     </g>
     <g id="text_1">
      <!-- −6 -->
      <defs>
       <path d="M 62.09375 22 
L 6.40625 22 
L 6.40625 28.59375 
L 62.09375 28.59375 
z
" id="STIXGeneral-Regular-8722"/>
       <path d="M 44.59375 68.40625 
L 44.796875 66.796875 
Q 33 64.90625 25.09375 57.25 
Q 17.203125 49.59375 15.203125 38.296875 
Q 21 42.796875 27.90625 42.796875 
Q 36.703125 42.796875 41.75 37.1875 
Q 46.796875 31.59375 46.796875 21.90625 
Q 46.796875 12.09375 41.703125 5.90625 
Q 35.796875 -1.40625 25.796875 -1.40625 
Q 13.59375 -1.40625 8.09375 8.703125 
Q 3.40625 17.296875 3.40625 27.90625 
Q 3.40625 44.296875 14.296875 55.5 
Q 20.5 61.90625 27.046875 64.546875 
Q 33.59375 67.203125 44.59375 68.40625 
z
M 37.796875 18.796875 
Q 37.796875 38.203125 24.296875 38.203125 
Q 19.296875 38.203125 16 35.546875 
Q 12.703125 32.90625 12.703125 26.59375 
Q 12.703125 14.90625 16.34375 8.15625 
Q 20 1.40625 26.90625 1.40625 
Q 32.203125 1.40625 35 6.15625 
Q 37.796875 10.90625 37.796875 18.796875 
z
" id="STIXGeneral-Regular-54"/>
      </defs>
      <g transform="translate(112.445 205.135)scale(0.14 -0.14)">
       <use xlink:href="#STIXGeneral-Regular-8722"/>
       <use x="68.499985" xlink:href="#STIXGeneral-Regular-54"/>
      </g>
     </g>
    </g>
    <g id="xtick_2">
     <g id="line2d_16">
      <g>
       <use style="stroke:#000000;stroke-width:0.8;" x="225.365" xlink:href="#m6173b32675" y="188.573438"/>
      </g>
     </g>
     <g id="text_2">
      <!-- −3 -->
      <defs>
       <path d="M 6.09375 51 
L 4.5 51.40625 
Q 6.796875 58.90625 11.6875 63.25 
Q 16.59375 67.59375 24.09375 67.59375 
Q 31.09375 67.59375 35.390625 63.796875 
Q 39.703125 60 39.703125 53.90625 
Q 39.703125 45.703125 30.40625 40.09375 
Q 35.90625 37.703125 38.703125 34.796875 
Q 43.09375 29.90625 43.09375 21.90625 
Q 43.09375 13.90625 38.5 7.90625 
Q 35.09375 3.296875 28.75 0.9375 
Q 22.40625 -1.40625 15.296875 -1.40625 
Q 4.09375 -1.40625 4.09375 4.296875 
Q 4.09375 5.90625 5.296875 6.90625 
Q 6.5 7.90625 8.203125 7.90625 
Q 10.703125 7.90625 14.296875 5.296875 
Q 18.703125 2.203125 22.90625 2.203125 
Q 28.40625 2.203125 32.15625 6.640625 
Q 35.90625 11.09375 35.90625 17.5 
Q 35.90625 29 25.5 32 
Q 22.40625 33 15.296875 33 
L 15.296875 34.40625 
Q 20.90625 36.296875 23.703125 38 
Q 31.796875 42.59375 31.796875 51.40625 
Q 31.796875 56.40625 28.9375 59 
Q 26.09375 61.59375 21 61.59375 
Q 12 61.59375 6.09375 51 
z
" id="STIXGeneral-Regular-51"/>
      </defs>
      <g transform="translate(217.07 205.135)scale(0.14 -0.14)">
       <use xlink:href="#STIXGeneral-Regular-8722"/>
       <use x="68.499985" xlink:href="#STIXGeneral-Regular-51"/>
      </g>
     </g>
    </g>
    <g id="xtick_3">
     <g id="line2d_17">
      <g>
       <use style="stroke:#000000;stroke-width:0.8;" x="329.99" xlink:href="#m6173b32675" y="188.573438"/>
      </g>
     </g>
     <g id="text_3">
      <!-- 0 -->
      <defs>
       <path d="M 47.59375 33 
Q 47.59375 26.296875 46.296875 20.34375 
Q 45 14.40625 42.453125 9.40625 
Q 39.90625 4.40625 35.40625 1.5 
Q 30.90625 -1.40625 25 -1.40625 
Q 18.90625 -1.40625 14.296875 1.6875 
Q 9.703125 4.796875 7.203125 10 
Q 4.703125 15.203125 3.546875 21.09375 
Q 2.40625 27 2.40625 33.59375 
Q 2.40625 42.90625 4.703125 50.34375 
Q 7 57.796875 12.34375 62.6875 
Q 17.703125 67.59375 25.40625 67.59375 
Q 35.203125 67.59375 41.390625 58 
Q 47.59375 48.40625 47.59375 33 
z
M 38 32.5 
Q 38 48.296875 34.640625 56.640625 
Q 31.296875 65 24.796875 65 
Q 18.59375 65 15.296875 56.59375 
Q 12 48.203125 12 32.90625 
Q 12 17.5 15.296875 9.34375 
Q 18.59375 1.203125 25 1.203125 
Q 31.296875 1.203125 34.640625 9.34375 
Q 38 17.5 38 32.5 
z
" id="STIXGeneral-Regular-48"/>
      </defs>
      <g transform="translate(326.49 205.135)scale(0.14 -0.14)">
       <use xlink:href="#STIXGeneral-Regular-48"/>
      </g>
     </g>
    </g>
    <g id="xtick_4">
     <g id="line2d_18">
      <g>
       <use style="stroke:#000000;stroke-width:0.8;" x="434.615" xlink:href="#m6173b32675" y="188.573438"/>
      </g>
     </g>
     <g id="text_4">
      <!-- 3 -->
      <g transform="translate(431.115 205.135)scale(0.14 -0.14)">
       <use xlink:href="#STIXGeneral-Regular-51"/>
      </g>
     </g>
    </g>
    <g id="xtick_5">
     <g id="line2d_19">
      <g>
       <use style="stroke:#000000;stroke-width:0.8;" x="539.24" xlink:href="#m6173b32675" y="188.573438"/>
      </g>
     </g>
     <g id="text_5">
      <!-- 6 -->
      <g transform="translate(535.74 205.135)scale(0.14 -0.14)">
       <use xlink:href="#STIXGeneral-Regular-54"/>
      </g>
     </g>
    </g>
    <g id="text_6">
     <!-- $x$ -->
     <defs>
      <path d="M 24.296875 35.5 
L 25.5 29.796875 
Q 30.796875 37.90625 34.046875 41 
Q 37.296875 44.09375 40.59375 44.09375 
Q 42.40625 44.09375 43.546875 43.046875 
Q 44.703125 42 44.703125 40.390625 
Q 44.703125 38.796875 43.75 37.796875 
Q 42.796875 36.796875 41.296875 36.796875 
Q 40.40625 36.796875 38.90625 37.640625 
Q 37.40625 38.5 36.09375 38.5 
Q 33.203125 38.5 26.296875 26.40625 
Q 26.296875 25.09375 27.09375 21.90625 
L 30.296875 8.5 
Q 31.296875 4.40625 33.296875 4.40625 
Q 34.90625 4.40625 38 8.40625 
Q 38.296875 8.796875 38.6875 9.34375 
Q 39.09375 9.90625 39.390625 10.34375 
Q 39.703125 10.796875 40.09375 11.203125 
L 41.59375 10.296875 
Q 37.296875 3.59375 34.796875 1.25 
Q 32.296875 -1.09375 29.40625 -1.09375 
Q 27 -1.09375 25.703125 0.40625 
Q 24.40625 1.90625 23.5 5.703125 
L 20.59375 17.59375 
L 11.796875 5.703125 
Q 8.703125 1.5 6.75 0.203125 
Q 4.796875 -1.09375 2.296875 -1.09375 
Q 0 -1.09375 -1.34375 0 
Q -2.703125 1.09375 -2.703125 3.09375 
Q -2.703125 4.59375 -1.75 5.640625 
Q -0.796875 6.703125 0.703125 6.703125 
Q 1.90625 6.703125 3.90625 5.59375 
Q 5.40625 4.703125 6.5 4.703125 
Q 8.203125 4.703125 11.59375 9.59375 
L 19.796875 21.203125 
L 17 33.59375 
Q 16 38 15.140625 39.203125 
Q 14.296875 40.40625 12.40625 40.40625 
Q 11.203125 40.40625 8.5 39.703125 
L 6.703125 39.203125 
L 6.40625 40.796875 
L 7.5 41.203125 
Q 15.5 44.09375 19.203125 44.09375 
Q 21.09375 44.09375 22.1875 42.296875 
Q 23.296875 40.5 24.296875 35.5 
z
" id="STIXGeneral-Italic-120"/>
     </defs>
     <g transform="translate(325.94 224.466875)scale(0.18 -0.18)">
      <use transform="translate(0 0.90625)" xlink:href="#STIXGeneral-Italic-120"/>
     </g>
    </g>
   </g>
   <g id="matplotlib.axis_2">
    <g id="ytick_1">
     <g id="line2d_20">
      <defs>
       <path d="M 0 0 
L -3.5 0 
" id="m5fd05513bd" style="stroke:#000000;stroke-width:0.8;"/>
      </defs>
      <g>
       <use style="stroke:#000000;stroke-width:0.8;" x="50.99" xlink:href="#m5fd05513bd" y="161.393438"/>
      </g>
     </g>
     <g id="text_7">
      <!-- −6 -->
      <g transform="translate(27.4 166.174219)scale(0.14 -0.14)">
       <use xlink:href="#STIXGeneral-Regular-8722"/>
       <use x="68.499985" xlink:href="#STIXGeneral-Regular-54"/>
      </g>
     </g>
    </g>
    <g id="ytick_2">
     <g id="line2d_21">
      <g>
       <use style="stroke:#000000;stroke-width:0.8;" x="50.99" xlink:href="#m5fd05513bd" y="120.623438"/>
      </g>
     </g>
     <g id="text_8">
      <!-- −3 -->
      <g transform="translate(27.4 125.404219)scale(0.14 -0.14)">
       <use xlink:href="#STIXGeneral-Regular-8722"/>
       <use x="68.499985" xlink:href="#STIXGeneral-Regular-51"/>
      </g>
     </g>
    </g>
    <g id="ytick_3">
     <g id="line2d_22">
      <g>
       <use style="stroke:#000000;stroke-width:0.8;" x="50.99" xlink:href="#m5fd05513bd" y="79.853438"/>
      </g>
     </g>
     <g id="text_9">
      <!-- 0 -->
      <g transform="translate(36.99 84.634219)scale(0.14 -0.14)">
       <use xlink:href="#STIXGeneral-Regular-48"/>
      </g>
     </g>
    </g>
    <g id="ytick_4">
     <g id="line2d_23">
      <g>
       <use style="stroke:#000000;stroke-width:0.8;" x="50.99" xlink:href="#m5fd05513bd" y="39.083438"/>
      </g>
     </g>
     <g id="text_10">
      <!-- 3 -->
      <g transform="translate(36.99 43.864219)scale(0.14 -0.14)">
       <use xlink:href="#STIXGeneral-Regular-51"/>
      </g>
     </g>
    </g>
    <g id="text_11">
     <!-- $y$ -->
     <defs>
      <path d="M 24.296875 18.59375 
L 26.40625 7.59375 
Q 33.09375 18.59375 35.84375 24.34375 
Q 38.59375 30.09375 38.59375 33.296875 
Q 38.59375 34.90625 36 36.5 
Q 33.40625 38.203125 33.40625 40.40625 
Q 33.40625 42 34.546875 43.046875 
Q 35.703125 44.09375 37.40625 44.09375 
Q 39.59375 44.09375 41.09375 42.5 
Q 42.59375 40.90625 42.59375 38.59375 
Q 42.59375 29.90625 29.5 8.09375 
Q 21.703125 -4.796875 14.34375 -12.6875 
Q 7 -20.59375 2.703125 -20.59375 
Q 0.40625 -20.59375 -1 -19.390625 
Q -2.40625 -18.203125 -2.40625 -16.296875 
Q -2.40625 -14.59375 -1.25 -13.4375 
Q -0.09375 -12.296875 1.5 -12.296875 
Q 3.40625 -12.296875 4.90625 -13.6875 
Q 6.40625 -15.09375 7.59375 -15.09375 
Q 9.40625 -15.09375 12.40625 -11.796875 
Q 13.703125 -10.5 16.25 -7.140625 
Q 18.796875 -3.796875 19.5 -2.703125 
Q 20.5 -0.703125 20.5 0.796875 
Q 20.5 3.796875 17.390625 16.34375 
Q 14.296875 28.90625 12.296875 34 
Q 10.90625 37.703125 9.25 39.046875 
Q 7.59375 40.40625 4.59375 40.40625 
Q 3 40.40625 1.5 40 
L 1.5 41.703125 
Q 3.703125 42.09375 4.703125 42.296875 
Q 8.796875 43.09375 15.40625 44.09375 
L 15.796875 44.09375 
Q 16.90625 44.09375 19.953125 34.796875 
Q 23 25.5 24.296875 18.59375 
z
" id="STIXGeneral-Italic-121"/>
     </defs>
     <g transform="translate(19.493438 111.083437)rotate(-90)scale(0.18 -0.18)">
      <use transform="translate(0 0.90625)" xlink:href="#STIXGeneral-Italic-121"/>
     </g>
    </g>
   </g>
   <g id="PathCollection_1">
    <defs>
     <path d="M -3 0 
L 3 0 
M 0 3 
L 0 -3 
" id="mae485510ee" style="stroke:#ff0000;stroke-width:1.5;"/>
    </defs>
    <g clip-path="url(#pfb4a8ce974)">
     <use style="fill:#ff0000;stroke:#ff0000;stroke-width:1.5;" x="343.608968" xlink:href="#mae485510ee" y="95.766799"/>
     <use style="fill:#ff0000;stroke:#ff0000;stroke-width:1.5;" x="390.027833" xlink:href="#mae485510ee" y="75.119945"/>
     <use style="fill:#ff0000;stroke:#ff0000;stroke-width:1.5;" x="358.660982" xlink:href="#mae485510ee" y="88.426909"/>
     <use style="fill:#ff0000;stroke:#ff0000;stroke-width:1.5;" x="342.512408" xlink:href="#mae485510ee" y="98.746787"/>
     <use style="fill:#ff0000;stroke:#ff0000;stroke-width:1.5;" x="308.689689" xlink:href="#mae485510ee" y="85.359156"/>
     <use style="fill:#ff0000;stroke:#ff0000;stroke-width:1.5;" x="370.694458" xlink:href="#mae485510ee" y="77.666387"/>
     <use style="fill:#ff0000;stroke:#ff0000;stroke-width:1.5;" x="312.576832" xlink:href="#mae485510ee" y="86.277542"/>
     <use style="fill:#ff0000;stroke:#ff0000;stroke-width:1.5;" x="439.294667" xlink:href="#mae485510ee" y="87.960366"/>
     <use style="fill:#ff0000;stroke:#ff0000;stroke-width:1.5;" x="459.35191" xlink:href="#mae485510ee" y="92.666702"/>
     <use style="fill:#ff0000;stroke:#ff0000;stroke-width:1.5;" x="297.470184" xlink:href="#mae485510ee" y="74.010193"/>
     <use style="fill:#ff0000;stroke:#ff0000;stroke-width:1.5;" x="411.381286" xlink:href="#mae485510ee" y="80.789446"/>
     <use style="fill:#ff0000;stroke:#ff0000;stroke-width:1.5;" x="338.051683" xlink:href="#mae485510ee" y="96.296502"/>
     <use style="fill:#ff0000;stroke:#ff0000;stroke-width:1.5;" x="348.974433" xlink:href="#mae485510ee" y="93.419815"/>
     <use style="fill:#ff0000;stroke:#ff0000;stroke-width:1.5;" x="448.731462" xlink:href="#mae485510ee" y="88.63922"/>
     <use style="fill:#ff0000;stroke:#ff0000;stroke-width:1.5;" x="210.30906" xlink:href="#mae485510ee" y="73.259634"/>
     <use style="fill:#ff0000;stroke:#ff0000;stroke-width:1.5;" x="214.799075" xlink:href="#mae485510ee" y="70.985784"/>
     <use style="fill:#ff0000;stroke:#ff0000;stroke-width:1.5;" x="196.130933" xlink:href="#mae485510ee" y="76.564886"/>
     <use style="fill:#ff0000;stroke:#ff0000;stroke-width:1.5;" x="422.790937" xlink:href="#mae485510ee" y="80.749488"/>
     <use style="fill:#ff0000;stroke:#ff0000;stroke-width:1.5;" x="407.595734" xlink:href="#mae485510ee" y="78.048059"/>
     <use style="fill:#ff0000;stroke:#ff0000;stroke-width:1.5;" x="433.223389" xlink:href="#mae485510ee" y="84.612847"/>
     <use style="fill:#ff0000;stroke:#ff0000;stroke-width:1.5;" x="463.524517" xlink:href="#mae485510ee" y="89.025642"/>
     <use style="fill:#ff0000;stroke:#ff0000;stroke-width:1.5;" x="413.455239" xlink:href="#mae485510ee" y="81.82537"/>
     <use style="fill:#ff0000;stroke:#ff0000;stroke-width:1.5;" x="319.242742" xlink:href="#mae485510ee" y="94.327147"/>
     <use style="fill:#ff0000;stroke:#ff0000;stroke-width:1.5;" x="408.25764" xlink:href="#mae485510ee" y="77.275209"/>
     <use style="fill:#ff0000;stroke:#ff0000;stroke-width:1.5;" x="223.488565" xlink:href="#mae485510ee" y="72.107355"/>
     <use style="fill:#ff0000;stroke:#ff0000;stroke-width:1.5;" x="369.027965" xlink:href="#mae485510ee" y="77.09829"/>
     <use style="fill:#ff0000;stroke:#ff0000;stroke-width:1.5;" x="230.485567" xlink:href="#mae485510ee" y="71.71235"/>
     <use style="fill:#ff0000;stroke:#ff0000;stroke-width:1.5;" x="454.052628" xlink:href="#mae485510ee" y="91.097136"/>
     <use style="fill:#ff0000;stroke:#ff0000;stroke-width:1.5;" x="336.085682" xlink:href="#mae485510ee" y="95.490258"/>
     <use style="fill:#ff0000;stroke:#ff0000;stroke-width:1.5;" x="306.180681" xlink:href="#mae485510ee" y="79.761868"/>
     <use style="fill:#ff0000;stroke:#ff0000;stroke-width:1.5;" x="264.301016" xlink:href="#mae485510ee" y="58.31177"/>
     <use style="fill:#ff0000;stroke:#ff0000;stroke-width:1.5;" x="406.501199" xlink:href="#mae485510ee" y="76.527032"/>
     <use style="fill:#ff0000;stroke:#ff0000;stroke-width:1.5;" x="317.755943" xlink:href="#mae485510ee" y="92.928486"/>
     <use style="fill:#ff0000;stroke:#ff0000;stroke-width:1.5;" x="349.083072" xlink:href="#mae485510ee" y="90.037957"/>
     <use style="fill:#ff0000;stroke:#ff0000;stroke-width:1.5;" x="195.732354" xlink:href="#mae485510ee" y="76.545634"/>
     <use style="fill:#ff0000;stroke:#ff0000;stroke-width:1.5;" x="362.810304" xlink:href="#mae485510ee" y="81.81207"/>
     <use style="fill:#ff0000;stroke:#ff0000;stroke-width:1.5;" x="361.264707" xlink:href="#mae485510ee" y="82.435792"/>
     <use style="fill:#ff0000;stroke:#ff0000;stroke-width:1.5;" x="362.614585" xlink:href="#mae485510ee" y="82.91438"/>
     <use style="fill:#ff0000;stroke:#ff0000;stroke-width:1.5;" x="453.795714" xlink:href="#mae485510ee" y="89.279243"/>
     <use style="fill:#ff0000;stroke:#ff0000;stroke-width:1.5;" x="380.717863" xlink:href="#mae485510ee" y="73.048804"/>
     <use style="fill:#ff0000;stroke:#ff0000;stroke-width:1.5;" x="290.792704" xlink:href="#mae485510ee" y="66.403859"/>
     <use style="fill:#ff0000;stroke:#ff0000;stroke-width:1.5;" x="312.421915" xlink:href="#mae485510ee" y="89.260114"/>
     <use style="fill:#ff0000;stroke:#ff0000;stroke-width:1.5;" x="385.129104" xlink:href="#mae485510ee" y="73.214943"/>
     <use style="fill:#ff0000;stroke:#ff0000;stroke-width:1.5;" x="207.292907" xlink:href="#mae485510ee" y="71.647359"/>
     <use style="fill:#ff0000;stroke:#ff0000;stroke-width:1.5;" x="376.517914" xlink:href="#mae485510ee" y="76.169735"/>
     <use style="fill:#ff0000;stroke:#ff0000;stroke-width:1.5;" x="377.597966" xlink:href="#mae485510ee" y="75.189868"/>
     <use style="fill:#ff0000;stroke:#ff0000;stroke-width:1.5;" x="249.186735" xlink:href="#mae485510ee" y="65.514889"/>
     <use style="fill:#ff0000;stroke:#ff0000;stroke-width:1.5;" x="226.460437" xlink:href="#mae485510ee" y="68.470386"/>
     <use style="fill:#ff0000;stroke:#ff0000;stroke-width:1.5;" x="278.49451" xlink:href="#mae485510ee" y="58.447862"/>
     <use style="fill:#ff0000;stroke:#ff0000;stroke-width:1.5;" x="291.965305" xlink:href="#mae485510ee" y="66.827567"/>
     <use style="fill:#ff0000;stroke:#ff0000;stroke-width:1.5;" x="349.574899" xlink:href="#mae485510ee" y="92.960693"/>
     <use style="fill:#ff0000;stroke:#ff0000;stroke-width:1.5;" x="312.859822" xlink:href="#mae485510ee" y="87.51185"/>
     <use style="fill:#ff0000;stroke:#ff0000;stroke-width:1.5;" x="466.246301" xlink:href="#mae485510ee" y="91.95579"/>
     <use style="fill:#ff0000;stroke:#ff0000;stroke-width:1.5;" x="218.960502" xlink:href="#mae485510ee" y="71.354907"/>
     <use style="fill:#ff0000;stroke:#ff0000;stroke-width:1.5;" x="248.766615" xlink:href="#mae485510ee" y="65.950663"/>
     <use style="fill:#ff0000;stroke:#ff0000;stroke-width:1.5;" x="235.495355" xlink:href="#mae485510ee" y="68.416423"/>
     <use style="fill:#ff0000;stroke:#ff0000;stroke-width:1.5;" x="372.707223" xlink:href="#mae485510ee" y="75.993591"/>
     <use style="fill:#ff0000;stroke:#ff0000;stroke-width:1.5;" x="261.158357" xlink:href="#mae485510ee" y="60.50544"/>
     <use style="fill:#ff0000;stroke:#ff0000;stroke-width:1.5;" x="320.590706" xlink:href="#mae485510ee" y="93.647659"/>
     <use style="fill:#ff0000;stroke:#ff0000;stroke-width:1.5;" x="258.68474" xlink:href="#mae485510ee" y="62.804074"/>
     <use style="fill:#ff0000;stroke:#ff0000;stroke-width:1.5;" x="234.842514" xlink:href="#mae485510ee" y="71.670024"/>
     <use style="fill:#ff0000;stroke:#ff0000;stroke-width:1.5;" x="221.284664" xlink:href="#mae485510ee" y="70.607706"/>
     <use style="fill:#ff0000;stroke:#ff0000;stroke-width:1.5;" x="373.605955" xlink:href="#mae485510ee" y="76.105633"/>
     <use style="fill:#ff0000;stroke:#ff0000;stroke-width:1.5;" x="229.043043" xlink:href="#mae485510ee" y="69.656831"/>
     <use style="fill:#ff0000;stroke:#ff0000;stroke-width:1.5;" x="245.336479" xlink:href="#mae485510ee" y="63.349607"/>
     <use style="fill:#ff0000;stroke:#ff0000;stroke-width:1.5;" x="293.364323" xlink:href="#mae485510ee" y="67.191691"/>
     <use style="fill:#ff0000;stroke:#ff0000;stroke-width:1.5;" x="419.547111" xlink:href="#mae485510ee" y="83.063104"/>
     <use style="fill:#ff0000;stroke:#ff0000;stroke-width:1.5;" x="217.581256" xlink:href="#mae485510ee" y="69.804042"/>
     <use style="fill:#ff0000;stroke:#ff0000;stroke-width:1.5;" x="424.276629" xlink:href="#mae485510ee" y="85.277388"/>
     <use style="fill:#ff0000;stroke:#ff0000;stroke-width:1.5;" x="217.301456" xlink:href="#mae485510ee" y="71.916686"/>
     <use style="fill:#ff0000;stroke:#ff0000;stroke-width:1.5;" x="462.922191" xlink:href="#mae485510ee" y="91.183833"/>
     <use style="fill:#ff0000;stroke:#ff0000;stroke-width:1.5;" x="321.243685" xlink:href="#mae485510ee" y="92.059719"/>
     <use style="fill:#ff0000;stroke:#ff0000;stroke-width:1.5;" x="463.006344" xlink:href="#mae485510ee" y="92.226304"/>
     <use style="fill:#ff0000;stroke:#ff0000;stroke-width:1.5;" x="359.2419" xlink:href="#mae485510ee" y="86.333606"/>
     <use style="fill:#ff0000;stroke:#ff0000;stroke-width:1.5;" x="396.744539" xlink:href="#mae485510ee" y="74.916387"/>
     <use style="fill:#ff0000;stroke:#ff0000;stroke-width:1.5;" x="201.423394" xlink:href="#mae485510ee" y="75.353595"/>
     <use style="fill:#ff0000;stroke:#ff0000;stroke-width:1.5;" x="269.393143" xlink:href="#mae485510ee" y="56.761284"/>
     <use style="fill:#ff0000;stroke:#ff0000;stroke-width:1.5;" x="224.024841" xlink:href="#mae485510ee" y="72.260974"/>
     <use style="fill:#ff0000;stroke:#ff0000;stroke-width:1.5;" x="273.113115" xlink:href="#mae485510ee" y="59.731104"/>
     <use style="fill:#ff0000;stroke:#ff0000;stroke-width:1.5;" x="223.615034" xlink:href="#mae485510ee" y="71.506864"/>
     <use style="fill:#ff0000;stroke:#ff0000;stroke-width:1.5;" x="279.207307" xlink:href="#mae485510ee" y="60.207649"/>
     <use style="fill:#ff0000;stroke:#ff0000;stroke-width:1.5;" x="306.069375" xlink:href="#mae485510ee" y="78.417891"/>
     <use style="fill:#ff0000;stroke:#ff0000;stroke-width:1.5;" x="208.387151" xlink:href="#mae485510ee" y="71.475211"/>
     <use style="fill:#ff0000;stroke:#ff0000;stroke-width:1.5;" x="383.689721" xlink:href="#mae485510ee" y="73.472875"/>
     <use style="fill:#ff0000;stroke:#ff0000;stroke-width:1.5;" x="348.571806" xlink:href="#mae485510ee" y="94.504265"/>
     <use style="fill:#ff0000;stroke:#ff0000;stroke-width:1.5;" x="264.533668" xlink:href="#mae485510ee" y="58.115113"/>
     <use style="fill:#ff0000;stroke:#ff0000;stroke-width:1.5;" x="336.476207" xlink:href="#mae485510ee" y="99.237074"/>
     <use style="fill:#ff0000;stroke:#ff0000;stroke-width:1.5;" x="216.699403" xlink:href="#mae485510ee" y="73.713969"/>
     <use style="fill:#ff0000;stroke:#ff0000;stroke-width:1.5;" x="351.179072" xlink:href="#mae485510ee" y="89.626882"/>
     <use style="fill:#ff0000;stroke:#ff0000;stroke-width:1.5;" x="449.763639" xlink:href="#mae485510ee" y="88.945523"/>
     <use style="fill:#ff0000;stroke:#ff0000;stroke-width:1.5;" x="279.370738" xlink:href="#mae485510ee" y="58.174138"/>
     <use style="fill:#ff0000;stroke:#ff0000;stroke-width:1.5;" x="376.697496" xlink:href="#mae485510ee" y="74.620382"/>
     <use style="fill:#ff0000;stroke:#ff0000;stroke-width:1.5;" x="227.261604" xlink:href="#mae485510ee" y="69.435654"/>
     <use style="fill:#ff0000;stroke:#ff0000;stroke-width:1.5;" x="390.34529" xlink:href="#mae485510ee" y="74.560963"/>
     <use style="fill:#ff0000;stroke:#ff0000;stroke-width:1.5;" x="271.2343" xlink:href="#mae485510ee" y="59.648251"/>
     <use style="fill:#ff0000;stroke:#ff0000;stroke-width:1.5;" x="241.60039" xlink:href="#mae485510ee" y="66.514115"/>
     <use style="fill:#ff0000;stroke:#ff0000;stroke-width:1.5;" x="354.127109" xlink:href="#mae485510ee" y="90.184016"/>
     <use style="fill:#ff0000;stroke:#ff0000;stroke-width:1.5;" x="196.100005" xlink:href="#mae485510ee" y="77.233382"/>
     <use style="fill:#ff0000;stroke:#ff0000;stroke-width:1.5;" x="421.764268" xlink:href="#mae485510ee" y="83.557924"/>
     <use style="fill:#ff0000;stroke:#ff0000;stroke-width:1.5;" x="191.800038" xlink:href="#mae485510ee" y="78.056945"/>
    </g>
   </g>
   <g id="PathCollection_2">
    <defs>
     <path d="M -3 0 
L 3 0 
M 0 3 
L 0 -3 
" id="m0608fda162" style="stroke:#008000;stroke-width:1.5;"/>
    </defs>
    <g clip-path="url(#pfb4a8ce974)">
     <use style="fill:#008000;stroke:#008000;stroke-width:1.5;" x="247.337202" xlink:href="#m0608fda162" y="154.598438"/>
     <use style="fill:#008000;stroke:#008000;stroke-width:1.5;" x="250.034547" xlink:href="#m0608fda162" y="154.598438"/>
     <use style="fill:#008000;stroke:#008000;stroke-width:1.5;" x="249.73917" xlink:href="#m0608fda162" y="154.598438"/>
     <use style="fill:#008000;stroke:#008000;stroke-width:1.5;" x="209.481703" xlink:href="#m0608fda162" y="154.598438"/>
     <use style="fill:#008000;stroke:#008000;stroke-width:1.5;" x="215.789879" xlink:href="#m0608fda162" y="154.598438"/>
     <use style="fill:#008000;stroke:#008000;stroke-width:1.5;" x="227.668753" xlink:href="#m0608fda162" y="154.598438"/>
     <use style="fill:#008000;stroke:#008000;stroke-width:1.5;" x="238.355013" xlink:href="#m0608fda162" y="154.598438"/>
     <use style="fill:#008000;stroke:#008000;stroke-width:1.5;" x="227.263596" xlink:href="#m0608fda162" y="154.598438"/>
     <use style="fill:#008000;stroke:#008000;stroke-width:1.5;" x="254.049363" xlink:href="#m0608fda162" y="154.598438"/>
     <use style="fill:#008000;stroke:#008000;stroke-width:1.5;" x="218.556877" xlink:href="#m0608fda162" y="154.598438"/>
    </g>
   </g>
   <g id="PathCollection_3">
    <defs>
     <path d="M -3 0 
L 3 0 
M 0 3 
L 0 -3 
" id="mc955367a3e" style="stroke:#0000ff;stroke-width:1.5;"/>
    </defs>
    <g clip-path="url(#pfb4a8ce974)">
     <use style="fill:#0000ff;stroke:#0000ff;stroke-width:1.5;" x="346.502176" xlink:href="#mc955367a3e" y="147.803438"/>
     <use style="fill:#0000ff;stroke:#0000ff;stroke-width:1.5;" x="436.668146" xlink:href="#mc955367a3e" y="147.803438"/>
     <use style="fill:#0000ff;stroke:#0000ff;stroke-width:1.5;" x="408.194925" xlink:href="#mc955367a3e" y="147.803438"/>
     <use style="fill:#0000ff;stroke:#0000ff;stroke-width:1.5;" x="310.609858" xlink:href="#mc955367a3e" y="147.803438"/>
     <use style="fill:#0000ff;stroke:#0000ff;stroke-width:1.5;" x="195.875302" xlink:href="#mc955367a3e" y="147.803438"/>
     <use style="fill:#0000ff;stroke:#0000ff;stroke-width:1.5;" x="243.075606" xlink:href="#mc955367a3e" y="147.803438"/>
     <use style="fill:#0000ff;stroke:#0000ff;stroke-width:1.5;" x="374.977304" xlink:href="#mc955367a3e" y="147.803438"/>
     <use style="fill:#0000ff;stroke:#0000ff;stroke-width:1.5;" x="274.980058" xlink:href="#mc955367a3e" y="147.803438"/>
     <use style="fill:#0000ff;stroke:#0000ff;stroke-width:1.5;" x="461.331035" xlink:href="#mc955367a3e" y="147.803438"/>
     <use style="fill:#0000ff;stroke:#0000ff;stroke-width:1.5;" x="218.135109" xlink:href="#mc955367a3e" y="147.803438"/>
    </g>
   </g>
   <g id="patch_3">
    <path d="M 50.99 188.573438 
L 50.99 25.493438 
" style="fill:none;stroke:#000000;stroke-linecap:square;stroke-linejoin:miter;stroke-width:0.8;"/>
   </g>
   <g id="patch_4">
    <path d="M 608.99 188.573438 
L 608.99 25.493438 
" style="fill:none;stroke:#000000;stroke-linecap:square;stroke-linejoin:miter;stroke-width:0.8;"/>
   </g>
   <g id="patch_5">
    <path d="M 50.99 188.573438 
L 608.99 188.573438 
" style="fill:none;stroke:#000000;stroke-linecap:square;stroke-linejoin:miter;stroke-width:0.8;"/>
   </g>
   <g id="patch_6">
    <path d="M 50.99 25.493437 
L 608.99 25.493437 
" style="fill:none;stroke:#000000;stroke-linecap:square;stroke-linejoin:miter;stroke-width:0.8;"/>
   </g>
   <g id="text_12">
    <!-- VFE after 1000 optimisation steps -->
    <defs>
     <path d="M 69.703125 66.203125 
L 69.703125 64.296875 
Q 66.59375 64.203125 64.59375 62.34375 
Q 62.59375 60.5 60.5 55.203125 
L 38.296875 -1.09375 
L 36.796875 -1.09375 
L 12.40625 53.296875 
Q 9.203125 60.40625 7.296875 62.296875 
Q 5.40625 64.203125 1.59375 64.296875 
L 1.59375 66.203125 
L 28.09375 66.203125 
L 28.09375 64.296875 
L 25.296875 64.09375 
Q 20.796875 63.796875 20.796875 61 
Q 20.796875 59 24.703125 50.296875 
L 39.90625 16.09375 
L 54.59375 53 
Q 56.5 57.796875 56.5 60.203125 
Q 56.5 60.90625 56.34375 61.453125 
Q 56.203125 62 56 62.390625 
Q 55.796875 62.796875 55.25 63.09375 
Q 54.703125 63.40625 54.390625 63.546875 
Q 54.09375 63.703125 53.296875 63.84375 
Q 52.5 64 52.140625 64.046875 
Q 51.796875 64.09375 50.75 64.1875 
Q 49.703125 64.296875 49.296875 64.296875 
L 49.296875 66.203125 
z
" id="STIXGeneral-Regular-86"/>
     <path d="M 54.59375 51.90625 
L 52.09375 51.90625 
Q 51 58.703125 48.34375 60.546875 
Q 45.703125 62.40625 36.703125 62.40625 
L 23.5 62.40625 
Q 21.40625 62.40625 20.75 61.65625 
Q 20.09375 60.90625 20.09375 58.5 
L 20.09375 36.796875 
L 34.296875 36.796875 
Q 40.59375 36.796875 42.75 38.59375 
Q 44.90625 40.40625 45.59375 46.296875 
L 47.90625 46.296875 
L 47.90625 23 
L 45.59375 23 
Q 45 29.09375 42.890625 30.890625 
Q 40.796875 32.703125 34.296875 32.703125 
L 20.09375 32.703125 
L 20.09375 11.203125 
Q 20.09375 5.5 21.75 3.84375 
Q 23.40625 2.203125 29.203125 1.90625 
L 29.203125 0 
L 1.09375 0 
L 1.09375 1.90625 
Q 6.796875 2.296875 8.34375 4.046875 
Q 9.90625 5.796875 9.90625 12.296875 
L 9.90625 55.09375 
Q 9.90625 60.59375 8.40625 62.25 
Q 6.90625 63.90625 1.203125 64.296875 
L 1.203125 66.203125 
L 54.09375 66.203125 
z
" id="STIXGeneral-Regular-70"/>
     <path d="M 59.703125 16.90625 
L 55.09375 0 
L 1.203125 0 
L 1.203125 1.90625 
Q 6.90625 2.296875 8.40625 3.9375 
Q 9.90625 5.59375 9.90625 11.40625 
L 9.90625 55 
Q 9.90625 60.59375 8.34375 62.296875 
Q 6.796875 64 1.203125 64.296875 
L 1.203125 66.203125 
L 54.203125 66.203125 
L 54.59375 51.90625 
L 52.09375 51.90625 
Q 51 58.59375 48.203125 60.5 
Q 45.40625 62.40625 36.703125 62.40625 
L 23.59375 62.40625 
Q 21.40625 62.40625 20.75 61.75 
Q 20.09375 61.09375 20.09375 58.796875 
L 20.09375 36.796875 
L 35.203125 36.796875 
Q 41.5 36.796875 43.546875 38.59375 
Q 45.59375 40.40625 46.5 46.40625 
L 48.796875 46.40625 
L 48.796875 23 
L 46.5 23 
Q 45.59375 29.296875 43.59375 31 
Q 41.59375 32.703125 35.203125 32.703125 
L 20.09375 32.703125 
L 20.09375 8.40625 
Q 20.09375 5.40625 22.1875 4.546875 
Q 24.296875 3.703125 30.203125 3.703125 
L 33.796875 3.703125 
Q 44.5 3.703125 49 6.296875 
Q 53.5 8.90625 56.90625 16.90625 
z
" id="STIXGeneral-Regular-69"/>
     <path id="STIXGeneral-Regular-32"/>
     <path d="M 44.203125 6.59375 
L 44.203125 3.796875 
Q 40.40625 -1 35.203125 -1 
Q 29.5 -1 28.796875 6.296875 
L 28.703125 6.296875 
Q 22.296875 -1 14.203125 -1 
Q 9.5 -1 6.59375 1.75 
Q 3.703125 4.5 3.703125 9.40625 
Q 3.703125 16.40625 10.703125 21.09375 
Q 15.5 24.296875 28.703125 29.203125 
L 28.703125 34.59375 
Q 28.703125 39.09375 26.546875 41.34375 
Q 24.40625 43.59375 20.90625 43.59375 
Q 17.90625 43.59375 15.90625 42.140625 
Q 13.90625 40.703125 13.90625 38.703125 
Q 13.90625 37.796875 14.203125 36.6875 
Q 14.5 35.59375 14.5 34.5 
Q 14.5 33 13.140625 31.703125 
Q 11.796875 30.40625 9.90625 30.40625 
Q 8.203125 30.40625 6.890625 31.703125 
Q 5.59375 33 5.59375 35 
Q 5.59375 39.796875 10.703125 43 
Q 15.40625 46 22.203125 46 
Q 30.296875 46 34 41.5 
Q 35.796875 39.40625 36.296875 37.25 
Q 36.796875 35.09375 36.796875 30.40625 
L 36.796875 11.296875 
Q 36.796875 4.703125 39.90625 4.703125 
Q 41.90625 4.703125 44.203125 6.59375 
z
M 28.703125 12.703125 
L 28.703125 26.796875 
Q 19.5 23.59375 15.90625 20.203125 
Q 12.5 17.09375 12.5 12.5 
Q 12.5 8.703125 14.390625 6.75 
Q 16.296875 4.796875 19.40625 4.796875 
Q 22.703125 4.796875 25.203125 6.40625 
Q 27.296875 7.90625 28 9.203125 
Q 28.703125 10.5 28.703125 12.703125 
z
" id="STIXGeneral-Regular-97"/>
     <path d="M 2.09375 45 
L 10.296875 45 
Q 10.40625 51 11.09375 54.34375 
Q 11.796875 57.703125 13.796875 61.09375 
Q 18 68.296875 27.90625 68.296875 
Q 32.40625 68.296875 35.34375 66.546875 
Q 38.296875 64.796875 38.296875 62.09375 
Q 38.296875 60.40625 37.09375 59.203125 
Q 35.90625 58 34.09375 58 
Q 31.703125 58 29.59375 61.59375 
Q 27.203125 65.5 24.296875 65.5 
Q 18.703125 65.5 18.703125 56.59375 
L 18.703125 45 
L 30.90625 45 
L 30.90625 41.796875 
L 18.703125 41.796875 
L 18.703125 10.40625 
Q 18.703125 4.796875 20.296875 3.25 
Q 21.90625 1.703125 28 1.5 
L 28 0 
L 2 0 
L 2 1.5 
Q 7.40625 1.796875 8.84375 3.34375 
Q 10.296875 4.90625 10.296875 10.40625 
L 10.296875 41.796875 
L 2.09375 41.796875 
z
" id="STIXGeneral-Regular-102"/>
     <path d="M 26.59375 7.703125 
L 27.90625 6.59375 
Q 23.09375 -1 15.796875 -1 
Q 7 -1 7 11.703125 
L 7 41.796875 
L 1.703125 41.796875 
Q 1.296875 42.09375 1.296875 42.5 
Q 1.296875 43.296875 3 44.40625 
Q 6.796875 46.59375 12.703125 55.09375 
Q 12.90625 55.40625 13.65625 56.34375 
Q 14.40625 57.296875 14.703125 57.90625 
Q 15.40625 57.90625 15.40625 56.59375 
L 15.40625 45 
L 25.5 45 
L 25.5 41.796875 
L 15.40625 41.796875 
L 15.40625 13.203125 
Q 15.40625 8.40625 16.59375 6.296875 
Q 17.796875 4.203125 20.59375 4.203125 
Q 23.59375 4.203125 26.59375 7.703125 
z
" id="STIXGeneral-Regular-116"/>
     <path d="M 40.796875 16.40625 
L 42.40625 15.703125 
Q 36.40625 -1 21.5 -1 
Q 12.703125 -1 7.59375 5.140625 
Q 2.5 11.296875 2.5 21.703125 
Q 2.5 32.40625 8.203125 39.203125 
Q 13.90625 46 23.203125 46 
Q 32.203125 46 37.09375 39.09375 
Q 40 35.09375 40.5 27.703125 
L 9.703125 27.703125 
Q 10.09375 21.40625 10.9375 18.09375 
Q 11.796875 14.796875 14.296875 11.40625 
Q 18.5 5.90625 25.40625 5.90625 
Q 30.296875 5.90625 33.640625 8.296875 
Q 37 10.703125 40.796875 16.40625 
z
M 9.90625 30.90625 
L 30.296875 30.90625 
Q 29.40625 37.203125 27.34375 39.796875 
Q 25.296875 42.40625 20.5 42.40625 
Q 16.296875 42.40625 13.5 39.453125 
Q 10.703125 36.5 9.90625 30.90625 
z
" id="STIXGeneral-Regular-101"/>
     <path d="M 16 45.796875 
L 16 36.59375 
Q 19.796875 42 22.34375 44 
Q 24.90625 46 28 46 
Q 30.59375 46 32.046875 44.59375 
Q 33.5 43.203125 33.5 40.703125 
Q 33.5 38.59375 32.453125 37.390625 
Q 31.40625 36.203125 29.59375 36.203125 
Q 27.703125 36.203125 25.59375 38.203125 
Q 24 39.703125 23 39.703125 
Q 20.90625 39.703125 18.453125 36.796875 
Q 16 33.90625 16 31.5 
L 16 9 
Q 16 4.703125 17.703125 3.203125 
Q 19.40625 1.703125 24.5 1.5 
L 24.5 0 
L 0.5 0 
L 0.5 1.5 
Q 5.296875 2.40625 6.4375 3.5 
Q 7.59375 4.59375 7.59375 8.40625 
L 7.59375 33.40625 
Q 7.59375 36.703125 6.84375 38.046875 
Q 6.09375 39.40625 4.203125 39.40625 
Q 2.59375 39.40625 0.703125 39 
L 0.703125 40.59375 
Q 7 42.59375 15.5 46 
z
" id="STIXGeneral-Regular-114"/>
     <path d="M 39.40625 0 
L 11.796875 0 
L 11.796875 1.5 
Q 17.296875 1.796875 19.296875 3.546875 
Q 21.296875 5.296875 21.296875 9.5 
L 21.296875 54.40625 
Q 21.296875 59.296875 18.296875 59.296875 
Q 16.90625 59.296875 13.796875 58.09375 
L 11.09375 57.09375 
L 11.09375 58.5 
L 29 67.59375 
L 29.90625 67.296875 
L 29.90625 7.59375 
Q 29.90625 4.296875 31.90625 2.890625 
Q 33.90625 1.5 39.40625 1.5 
z
" id="STIXGeneral-Regular-49"/>
     <path d="M 47 23.09375 
Q 47 12.59375 40.75 5.796875 
Q 34.5 -1 24.5 -1 
Q 15.296875 -1 9.09375 5.75 
Q 2.90625 12.5 2.90625 22.796875 
Q 2.90625 33.203125 9.09375 39.59375 
Q 15.296875 46 25.40625 46 
Q 34.703125 46 40.84375 39.640625 
Q 47 33.296875 47 23.09375 
z
M 38 20.40625 
Q 38 31.796875 33 38.203125 
Q 29 43.203125 23.5 43.203125 
Q 18.296875 43.203125 15.09375 38.953125 
Q 11.90625 34.703125 11.90625 27.296875 
Q 11.90625 14.5 17.203125 6.796875 
Q 20.59375 1.796875 26.203125 1.796875 
Q 31.703125 1.796875 34.84375 6.75 
Q 38 11.703125 38 20.40625 
z
" id="STIXGeneral-Regular-111"/>
     <path d="M 15.90625 45.796875 
L 15.90625 38.09375 
Q 22.203125 46 30.296875 46 
Q 37.59375 46 42.296875 40 
Q 47 34 47 24.703125 
Q 47 13.796875 40.953125 6.390625 
Q 34.90625 -1 26 -1 
Q 22.90625 -1 20.75 -0.09375 
Q 18.59375 0.796875 15.90625 3.296875 
L 15.90625 -12.40625 
Q 15.90625 -17.09375 17.5 -18.4375 
Q 19.09375 -19.796875 24.703125 -19.90625 
L 24.703125 -21.703125 
L 0.5 -21.703125 
L 0.5 -20 
Q 4.90625 -19.59375 6.203125 -18.296875 
Q 7.5 -17 7.5 -13.09375 
L 7.5 33.703125 
Q 7.5 37.203125 6.703125 38.296875 
Q 5.90625 39.40625 3.40625 39.40625 
Q 1.796875 39.40625 0.90625 39.296875 
L 0.90625 40.90625 
Q 7.90625 43 15.296875 46 
z
M 15.90625 33.40625 
L 15.90625 8.796875 
Q 15.90625 6.59375 19.34375 4.390625 
Q 22.796875 2.203125 26.296875 2.203125 
Q 31.703125 2.203125 35.046875 7.296875 
Q 38.40625 12.40625 38.40625 20.703125 
Q 38.40625 29.5 35.046875 34.75 
Q 31.703125 40 26.09375 40 
Q 22.59375 40 19.25 37.796875 
Q 15.90625 35.59375 15.90625 33.40625 
z
" id="STIXGeneral-Regular-112"/>
     <path d="M 18 63.203125 
Q 18 61 16.5 59.546875 
Q 15 58.09375 12.796875 58.09375 
Q 10.703125 58.09375 9.25 59.546875 
Q 7.796875 61 7.796875 63.203125 
Q 7.796875 65.296875 9.296875 66.796875 
Q 10.796875 68.296875 12.90625 68.296875 
Q 15.09375 68.296875 16.546875 66.796875 
Q 18 65.296875 18 63.203125 
z
M 25.296875 0 
L 1.59375 0 
L 1.59375 1.5 
Q 6.796875 1.796875 8.140625 3.296875 
Q 9.5 4.796875 9.5 10.40625 
L 9.5 33.09375 
Q 9.5 36.59375 8.796875 38 
Q 8.09375 39.40625 6.203125 39.40625 
Q 3.796875 39.40625 2 38.90625 
L 2 40.5 
L 17.5 46 
L 17.90625 45.59375 
L 17.90625 10.5 
Q 17.90625 4.90625 19.15625 3.40625 
Q 20.40625 1.90625 25.296875 1.5 
z
" id="STIXGeneral-Regular-105"/>
     <path d="M 77.5 0 
L 55.703125 0 
L 55.703125 1.5 
Q 59.90625 1.90625 61.046875 3.25 
Q 62.203125 4.59375 62.203125 9 
L 62.203125 29.59375 
Q 62.203125 35.59375 60.453125 38.1875 
Q 58.703125 40.796875 54.5 40.796875 
Q 51 40.796875 48.546875 39.390625 
Q 46.09375 38 43.796875 34.703125 
L 43.796875 9.5 
Q 43.796875 4.703125 45.25 3.140625 
Q 46.703125 1.59375 51 1.5 
L 51 0 
L 28.59375 0 
L 28.59375 1.5 
Q 33 1.796875 34.203125 2.9375 
Q 35.40625 4.09375 35.40625 8.59375 
L 35.40625 29.703125 
Q 35.40625 40.796875 28.90625 40.796875 
Q 26.09375 40.796875 22.9375 39.546875 
Q 19.796875 38.296875 18.296875 36.5 
Q 17 35 17 34.796875 
L 17 7 
Q 17 3.796875 18.390625 2.75 
Q 19.796875 1.703125 23.796875 1.5 
L 23.796875 0 
L 1.59375 0 
L 1.59375 1.5 
Q 5.796875 1.59375 7.1875 3.046875 
Q 8.59375 4.5 8.59375 8.796875 
L 8.59375 33.59375 
Q 8.59375 37.296875 7.796875 38.75 
Q 7 40.203125 5.09375 40.203125 
Q 3.59375 40.203125 1.90625 39.796875 
L 1.90625 41.5 
Q 8.703125 43.40625 15.796875 46 
L 16.59375 45.703125 
L 16.59375 38.296875 
L 16.796875 38.296875 
Q 21.296875 43 24.75 44.5 
Q 28.203125 46 32.09375 46 
Q 40 46 42.703125 37.59375 
Q 50.5 46 59 46 
Q 70.59375 46 70.59375 28 
L 70.59375 7.703125 
Q 70.59375 4.40625 71.59375 3.15625 
Q 72.59375 1.90625 74.90625 1.703125 
L 77.5 1.5 
z
" id="STIXGeneral-Regular-109"/>
     <path d="M 15.59375 30.09375 
L 26 23.796875 
Q 31 20.796875 32.890625 18.1875 
Q 34.796875 15.59375 34.796875 11.5 
Q 34.796875 6.5 30.640625 2.75 
Q 26.5 -1 20.796875 -1 
Q 16.09375 -1 13.5 -0.09375 
Q 10.796875 0.796875 8.90625 0.796875 
Q 7.203125 0.796875 6.5 -0.40625 
L 5.203125 -0.40625 
L 5.203125 15.296875 
L 6.796875 15.296875 
Q 8.40625 8 11.40625 4.59375 
Q 14.40625 1.203125 19.5 1.203125 
Q 23.203125 1.203125 25.5 3.296875 
Q 27.796875 5.40625 27.796875 8.59375 
Q 27.796875 13.203125 22.5 16.09375 
L 17.09375 19.09375 
Q 5.09375 25.796875 5.09375 33.59375 
Q 5.09375 39.40625 8.84375 42.65625 
Q 12.59375 45.90625 18.90625 45.90625 
Q 23.296875 45.90625 25.59375 44.796875 
Q 27.40625 44 28.40625 44 
Q 29.09375 44 30 45 
L 31.09375 45 
L 31.59375 31.40625 
L 30.09375 31.40625 
Q 28.40625 38.203125 25.84375 40.953125 
Q 23.296875 43.703125 18.796875 43.703125 
Q 15.40625 43.703125 13.34375 42 
Q 11.296875 40.296875 11.296875 36.90625 
Q 11.296875 35.203125 12.4375 33.25 
Q 13.59375 31.296875 15.59375 30.09375 
z
" id="STIXGeneral-Regular-115"/>
     <path d="M 48.5 0 
L 27.703125 0 
L 27.796875 1.5 
Q 31.5 1.796875 32.75 3.640625 
Q 34 5.5 34 10.5 
L 34 30.40625 
Q 34 40.5 26.703125 40.5 
Q 24.203125 40.5 22 39.296875 
Q 19.796875 38.09375 16.40625 34.796875 
L 16.40625 7.203125 
Q 16.40625 4.203125 17.75 3 
Q 19.09375 1.796875 22.90625 1.5 
L 22.90625 0 
L 1.796875 0 
L 1.796875 1.5 
Q 5.59375 1.796875 6.796875 3.34375 
Q 8 4.90625 8 9.40625 
L 8 33.703125 
Q 8 37.40625 7.296875 38.796875 
Q 6.59375 40.203125 4.5 40.203125 
Q 2.5 40.203125 1.59375 39.796875 
L 1.59375 41.5 
Q 8.59375 43.5 15.296875 46 
L 16.09375 45.703125 
L 16.09375 37.90625 
L 16.203125 37.90625 
Q 23.296875 46 30.59375 46 
Q 36.296875 46 39.34375 42 
Q 42.40625 38 42.40625 30.59375 
L 42.40625 8.5 
Q 42.40625 4.5 43.59375 3.203125 
Q 44.796875 1.90625 48.5 1.5 
z
" id="STIXGeneral-Regular-110"/>
    </defs>
    <g transform="translate(206.491719 19.493437)scale(0.18 -0.18)">
     <use xlink:href="#STIXGeneral-Regular-86"/>
     <use x="72.199982" xlink:href="#STIXGeneral-Regular-70"/>
     <use x="127.799973" xlink:href="#STIXGeneral-Regular-69"/>
     <use x="188.899963" xlink:href="#STIXGeneral-Regular-32"/>
     <use x="213.899948" xlink:href="#STIXGeneral-Regular-97"/>
     <use x="258.299942" xlink:href="#STIXGeneral-Regular-102"/>
     <use x="291.59993" xlink:href="#STIXGeneral-Regular-116"/>
     <use x="319.399918" xlink:href="#STIXGeneral-Regular-101"/>
     <use x="363.799911" xlink:href="#STIXGeneral-Regular-114"/>
     <use x="397.099899" xlink:href="#STIXGeneral-Regular-32"/>
     <use x="422.099884" xlink:href="#STIXGeneral-Regular-49"/>
     <use x="472.099869" xlink:href="#STIXGeneral-Regular-48"/>
     <use x="522.099854" xlink:href="#STIXGeneral-Regular-48"/>
     <use x="572.099838" xlink:href="#STIXGeneral-Regular-48"/>
     <use x="622.099823" xlink:href="#STIXGeneral-Regular-32"/>
     <use x="647.099808" xlink:href="#STIXGeneral-Regular-111"/>
     <use x="697.099792" xlink:href="#STIXGeneral-Regular-112"/>
     <use x="747.099777" xlink:href="#STIXGeneral-Regular-116"/>
     <use x="774.899765" xlink:href="#STIXGeneral-Regular-105"/>
     <use x="802.699753" xlink:href="#STIXGeneral-Regular-109"/>
     <use x="880.499741" xlink:href="#STIXGeneral-Regular-105"/>
     <use x="908.299728" xlink:href="#STIXGeneral-Regular-115"/>
     <use x="947.199722" xlink:href="#STIXGeneral-Regular-97"/>
     <use x="991.599716" xlink:href="#STIXGeneral-Regular-116"/>
     <use x="1019.399704" xlink:href="#STIXGeneral-Regular-105"/>
     <use x="1047.199692" xlink:href="#STIXGeneral-Regular-111"/>
     <use x="1097.199677" xlink:href="#STIXGeneral-Regular-110"/>
     <use x="1147.199661" xlink:href="#STIXGeneral-Regular-32"/>
     <use x="1172.199646" xlink:href="#STIXGeneral-Regular-115"/>
     <use x="1211.09964" xlink:href="#STIXGeneral-Regular-116"/>
     <use x="1238.899628" xlink:href="#STIXGeneral-Regular-101"/>
     <use x="1283.299622" xlink:href="#STIXGeneral-Regular-112"/>
     <use x="1333.299606" xlink:href="#STIXGeneral-Regular-115"/>
    </g>
   </g>
   <g id="legend_1">
    <g id="patch_7">
     <path d="M 512.779063 183.573438 
L 601.99 183.573438 
Q 603.99 183.573438 603.99 181.573438 
L 603.99 125.892188 
Q 603.99 123.892188 601.99 123.892188 
L 512.779063 123.892188 
Q 510.779063 123.892188 510.779063 125.892188 
L 510.779063 181.573438 
Q 510.779063 183.573438 512.779063 183.573438 
z
" style="fill:#ffffff;opacity:0.8;stroke:#cccccc;stroke-linejoin:miter;"/>
    </g>
    <g id="line2d_24">
     <path d="M 514.779063 131.392188 
L 534.779063 131.392188 
" style="fill:none;stroke:#000000;stroke-linecap:square;stroke-width:1.5;"/>
    </g>
    <g id="line2d_25"/>
    <g id="text_13">
     <!-- Approx. mean -->
     <defs>
      <path d="M 70.703125 0 
L 45.203125 0 
L 45.203125 1.90625 
Q 49.203125 1.90625 50.703125 2.796875 
Q 52.09375 3.5 52.09375 5.203125 
Q 52.09375 7.796875 50.203125 12.203125 
L 46.09375 21.59375 
L 19.90625 21.59375 
L 15.296875 10.203125 
Q 14.40625 7.90625 14.40625 6 
Q 14.40625 3.703125 16.046875 2.796875 
Q 17.703125 1.90625 21.40625 1.90625 
L 21.40625 0 
L 1.5 0 
L 1.5 1.90625 
Q 5.703125 2.296875 7.59375 4.9375 
Q 9.5 7.59375 14.09375 18.59375 
L 34.703125 67.40625 
L 36.703125 67.40625 
L 61.296875 11.09375 
Q 63.5 5.90625 65.25 4.09375 
Q 67 2.296875 70.703125 1.90625 
z
M 44.703125 25.703125 
L 33.09375 53.203125 
L 21.59375 25.703125 
z
" id="STIXGeneral-Regular-65"/>
      <path d="M 47.90625 0 
L 27.796875 0 
L 27.796875 1.5 
Q 30.296875 1.703125 31.046875 2.140625 
Q 31.796875 2.59375 31.796875 3.90625 
Q 31.796875 4.796875 31.203125 5.703125 
L 22.09375 19.703125 
L 14.203125 7.40625 
Q 12.203125 4.296875 12.203125 3.296875 
Q 12.203125 1.5 16.203125 1.5 
L 16.203125 0 
L 1.703125 0 
L 1.703125 1.5 
Q 4.203125 1.703125 5.546875 2.640625 
Q 6.90625 3.59375 9 6.59375 
L 20.40625 23.09375 
L 11 37.5 
Q 8.703125 41 7.09375 42.25 
Q 5.5 43.5 3.296875 43.5 
L 2.40625 43.5 
L 2.40625 45 
L 23.09375 45 
L 23.09375 43.5 
Q 18.796875 43.40625 18.796875 41.296875 
Q 18.796875 39.203125 23.40625 32.40625 
Q 24.703125 30.59375 24.796875 30.40625 
Q 25.296875 31.09375 27.796875 34.796875 
Q 28.296875 35.703125 29 36.703125 
Q 29.703125 37.703125 30.046875 38.296875 
Q 30.40625 38.90625 30.796875 39.5 
Q 31.203125 40.09375 31.34375 40.546875 
Q 31.5 41 31.5 41.296875 
Q 31.5 43.203125 27.5 43.5 
L 27.5 45 
L 43.296875 45 
L 43.296875 43.5 
Q 38.203125 43.296875 35.203125 39.09375 
L 26.90625 27.09375 
L 39.703125 7.5 
Q 43.59375 1.5 47.90625 1.5 
z
" id="STIXGeneral-Regular-120"/>
      <path d="M 18.09375 4.296875 
Q 18.09375 2.09375 16.4375 0.5 
Q 14.796875 -1.09375 12.5 -1.09375 
Q 10.203125 -1.09375 8.59375 0.5 
Q 7 2.09375 7 4.390625 
Q 7 6.703125 8.640625 8.34375 
Q 10.296875 10 12.59375 10 
Q 14.796875 10 16.4375 8.296875 
Q 18.09375 6.59375 18.09375 4.296875 
z
" id="STIXGeneral-Regular-46"/>
     </defs>
     <g transform="translate(542.779063 134.892188)scale(0.1 -0.1)">
      <use xlink:href="#STIXGeneral-Regular-65"/>
      <use x="72.199982" xlink:href="#STIXGeneral-Regular-112"/>
      <use x="122.199966" xlink:href="#STIXGeneral-Regular-112"/>
      <use x="172.199951" xlink:href="#STIXGeneral-Regular-114"/>
      <use x="205.499939" xlink:href="#STIXGeneral-Regular-111"/>
      <use x="255.499924" xlink:href="#STIXGeneral-Regular-120"/>
      <use x="305.499908" xlink:href="#STIXGeneral-Regular-46"/>
      <use x="330.499893" xlink:href="#STIXGeneral-Regular-32"/>
      <use x="355.499878" xlink:href="#STIXGeneral-Regular-109"/>
      <use x="433.299866" xlink:href="#STIXGeneral-Regular-101"/>
      <use x="477.69986" xlink:href="#STIXGeneral-Regular-97"/>
      <use x="522.099854" xlink:href="#STIXGeneral-Regular-110"/>
     </g>
    </g>
    <g id="line2d_26">
     <path d="M 514.779063 145.5625 
L 534.779063 145.5625 
" style="fill:none;stroke:#800080;stroke-dasharray:5.55,2.4;stroke-dashoffset:0;stroke-width:1.5;"/>
    </g>
    <g id="line2d_27"/>
    <g id="text_14">
     <!-- Exact Post. -->
     <defs>
      <path d="M 39.796875 15.59375 
L 41.203125 14.703125 
Q 36.90625 6.296875 33 3.203125 
Q 27.90625 -1 21.5 -1 
Q 13.203125 -1 7.84375 5.25 
Q 2.5 11.5 2.5 21.203125 
Q 2.5 33.90625 10.90625 40.90625 
Q 17.09375 46 24.40625 46 
Q 30.703125 46 35.25 42.953125 
Q 39.796875 39.90625 39.796875 35.703125 
Q 39.796875 34 38.390625 32.75 
Q 37 31.5 35.09375 31.5 
Q 31.59375 31.5 30.296875 36.09375 
L 29.703125 38.296875 
Q 28.90625 41.09375 27.703125 42.09375 
Q 26.5 43.09375 23.796875 43.09375 
Q 17.703125 43.09375 13.953125 38.296875 
Q 10.203125 33.5 10.203125 25.703125 
Q 10.203125 17.09375 14.5 11.640625 
Q 18.796875 6.203125 25.703125 6.203125 
Q 30 6.203125 33.09375 8.25 
Q 36.203125 10.296875 39.796875 15.59375 
z
" id="STIXGeneral-Regular-99"/>
      <path d="M 1.59375 66.203125 
L 27.5 66.203125 
Q 41.703125 66.203125 49.203125 59.90625 
Q 54.203125 55.703125 54.203125 48 
Q 54.203125 40 48.5 34.90625 
Q 44.296875 31.09375 39.890625 29.9375 
Q 35.5 28.796875 27.09375 28.796875 
Q 24.203125 28.796875 20.203125 29.09375 
L 20.203125 11.203125 
Q 20.203125 5.5 21.84375 3.84375 
Q 23.5 2.203125 29.59375 1.90625 
L 29.59375 0 
L 1.59375 0 
L 1.59375 1.90625 
Q 7.40625 2.296875 8.703125 4 
Q 10 5.703125 10 12.203125 
L 10 55.09375 
Q 10 60.703125 8.546875 62.296875 
Q 7.09375 63.90625 1.59375 64.296875 
z
M 20.203125 58.90625 
L 20.203125 33.09375 
Q 23.59375 32.796875 26.296875 32.796875 
Q 34.40625 32.796875 38.84375 36.75 
Q 43.296875 40.703125 43.296875 47.5 
Q 43.296875 55.59375 38.6875 59.046875 
Q 34.09375 62.5 23.703125 62.5 
Q 21.59375 62.5 20.890625 61.75 
Q 20.203125 61 20.203125 58.90625 
z
" id="STIXGeneral-Regular-80"/>
     </defs>
     <g transform="translate(542.779063 149.0625)scale(0.1 -0.1)">
      <use xlink:href="#STIXGeneral-Regular-69"/>
      <use x="61.099991" xlink:href="#STIXGeneral-Regular-120"/>
      <use x="111.099976" xlink:href="#STIXGeneral-Regular-97"/>
      <use x="155.499969" xlink:href="#STIXGeneral-Regular-99"/>
      <use x="199.899963" xlink:href="#STIXGeneral-Regular-116"/>
      <use x="227.699951" xlink:href="#STIXGeneral-Regular-32"/>
      <use x="252.699936" xlink:href="#STIXGeneral-Regular-80"/>
      <use x="308.399933" xlink:href="#STIXGeneral-Regular-111"/>
      <use x="358.399918" xlink:href="#STIXGeneral-Regular-115"/>
      <use x="397.299911" xlink:href="#STIXGeneral-Regular-116"/>
      <use x="425.099899" xlink:href="#STIXGeneral-Regular-46"/>
     </g>
    </g>
    <g id="PathCollection_4">
     <g>
      <use style="fill:#008000;stroke:#008000;stroke-width:1.5;" x="524.779063" xlink:href="#m0608fda162" y="160.607813"/>
     </g>
    </g>
    <g id="text_15">
     <!-- Init. $\bar{\mathbf{X}}$ -->
     <defs>
      <path d="M 31.5 0 
L 1.796875 0 
L 1.796875 1.90625 
Q 8.09375 2.09375 9.796875 3.75 
Q 11.5 5.40625 11.5 11.203125 
L 11.5 55.09375 
Q 11.5 60.90625 9.890625 62.40625 
Q 8.296875 63.90625 1.796875 64.296875 
L 1.796875 66.203125 
L 31.5 66.203125 
L 31.5 64.296875 
Q 25.203125 64 23.453125 62.390625 
Q 21.703125 60.796875 21.703125 55.09375 
L 21.703125 11.203125 
Q 21.703125 5.59375 23.5 3.84375 
Q 25.296875 2.09375 31.5 1.90625 
z
" id="STIXGeneral-Regular-73"/>
      <path d="M -7.40625 54.703125 
L -38.5 54.703125 
L -38.5 60.09375 
L -7.40625 60.09375 
z
" id="STIXGeneral-Regular-772"/>
      <path d="M 69.90625 0 
L 35.90625 0 
L 35.90625 2.5 
L 38.703125 2.703125 
Q 43.90625 3 43.90625 5.5 
Q 43.90625 7.59375 41.796875 10.90625 
L 31.703125 27.09375 
L 27.90625 22 
Q 22.296875 14.40625 20.390625 11.34375 
Q 18.5 8.296875 18.5 6.703125 
Q 18.5 4.796875 20.25 3.890625 
Q 22 3 26.59375 2.5 
L 26.59375 0 
L 1.59375 0 
L 1.59375 2.5 
Q 5.296875 2.90625 7.5 4.09375 
Q 9.703125 5.296875 12 8.09375 
L 29.5 30.203125 
L 9.703125 59.296875 
Q 7.40625 62.703125 5.90625 63.796875 
Q 4.40625 64.90625 1.703125 65.09375 
L 1.703125 67.59375 
L 36.296875 67.59375 
L 36.296875 65.09375 
L 33.203125 64.90625 
Q 30.5 64.796875 29.453125 64.09375 
Q 28.40625 63.40625 28.40625 61.796875 
Q 28.40625 60.40625 29.90625 58.09375 
L 39.59375 43.09375 
L 45.203125 50.796875 
Q 48.796875 55.703125 49.890625 57.75 
Q 51 59.796875 51 61.40625 
Q 51 63.203125 49.890625 63.890625 
Q 48.796875 64.59375 45.90625 64.90625 
L 43.796875 65.09375 
L 43.796875 67.59375 
L 68.796875 67.59375 
L 68.796875 65.09375 
Q 63.09375 64.59375 59.75 62.046875 
Q 56.40625 59.5 50 50.5 
L 42 39.40625 
L 60.203125 11.09375 
Q 63.703125 5.703125 65.5 4.140625 
Q 67.296875 2.59375 69.90625 2.5 
z
" id="STIXGeneral-Bold-88"/>
     </defs>
     <g transform="translate(542.779063 163.232813)scale(0.1 -0.1)">
      <use transform="translate(0 0.515625)" xlink:href="#STIXGeneral-Regular-73"/>
      <use transform="translate(33.299988 0.515625)" xlink:href="#STIXGeneral-Regular-110"/>
      <use transform="translate(83.299973 0.515625)" xlink:href="#STIXGeneral-Regular-105"/>
      <use transform="translate(111.09996 0.515625)" xlink:href="#STIXGeneral-Regular-116"/>
      <use transform="translate(138.899948 0.515625)" xlink:href="#STIXGeneral-Regular-46"/>
      <use transform="translate(163.899933 0.515625)" xlink:href="#STIXGeneral-Regular-32"/>
      <use transform="translate(257.449913 25.90625)" xlink:href="#STIXGeneral-Regular-772"/>
      <use transform="translate(188.899918 0.515625)" xlink:href="#STIXGeneral-Bold-88"/>
     </g>
    </g>
    <g id="PathCollection_5">
     <g>
      <use style="fill:#0000ff;stroke:#0000ff;stroke-width:1.5;" x="524.779063" xlink:href="#mc955367a3e" y="174.778125"/>
     </g>
    </g>
    <g id="text_16">
     <!-- Curr. $\bar{\mathbf{X}}$ -->
     <defs>
      <path d="M 61.40625 13.09375 
L 63.296875 11.296875 
Q 54.40625 -1.40625 36 -1.40625 
Q 21.5 -1.40625 12.40625 7.5 
Q 2.796875 16.90625 2.796875 32.5 
Q 2.796875 47.09375 11.796875 57.203125 
Q 21.203125 67.59375 36.09375 67.59375 
Q 42.5 67.59375 48 66.09375 
Q 54.296875 64.296875 54.90625 64.296875 
Q 58.203125 64.296875 59.09375 67.59375 
L 61.09375 67.59375 
L 62 44.90625 
L 59.703125 44.90625 
Q 58.09375 52.09375 54.5 56 
Q 47.40625 63.59375 38.40625 63.59375 
Q 27.296875 63.59375 20.84375 55.4375 
Q 14.40625 47.296875 14.40625 34.09375 
Q 14.40625 18 21.59375 10.203125 
Q 28.296875 3 39.40625 3 
Q 46 3 50.796875 5.296875 
Q 55.59375 7.59375 61.40625 13.09375 
z
" id="STIXGeneral-Regular-67"/>
      <path d="M 48 5 
L 48 3.59375 
Q 40.203125 1.5 34.296875 -0.90625 
L 33.796875 -0.59375 
L 33.796875 7.59375 
L 33.59375 7.59375 
Q 27.296875 -1 19.296875 -1 
Q 13.59375 -1 10.34375 2.5 
Q 7.09375 6 7.09375 11.796875 
L 7.09375 36.90625 
Q 7.09375 40.59375 5.796875 42 
Q 4.5 43.40625 0.90625 43.59375 
L 0.90625 45 
L 15.5 45 
L 15.5 12.703125 
Q 15.5 9.296875 17.546875 7.046875 
Q 19.59375 4.796875 22.59375 4.796875 
Q 27.5 4.796875 31 7.90625 
Q 32.296875 9.09375 32.796875 10.140625 
Q 33.296875 11.203125 33.296875 13.703125 
L 33.296875 36.796875 
Q 33.296875 40.703125 31.890625 41.84375 
Q 30.5 43 25.90625 43.296875 
L 25.90625 45 
L 41.703125 45 
L 41.703125 10.703125 
Q 41.703125 7.203125 42.84375 6.09375 
Q 44 5 47.40625 5 
z
" id="STIXGeneral-Regular-117"/>
     </defs>
     <g transform="translate(542.779063 177.403125)scale(0.1 -0.1)">
      <use transform="translate(0 0.515625)" xlink:href="#STIXGeneral-Regular-67"/>
      <use transform="translate(66.699997 0.515625)" xlink:href="#STIXGeneral-Regular-117"/>
      <use transform="translate(116.699982 0.515625)" xlink:href="#STIXGeneral-Regular-114"/>
      <use transform="translate(149.999969 0.515625)" xlink:href="#STIXGeneral-Regular-114"/>
      <use transform="translate(183.299957 0.515625)" xlink:href="#STIXGeneral-Regular-46"/>
      <use transform="translate(208.299942 0.515625)" xlink:href="#STIXGeneral-Regular-32"/>
      <use transform="translate(301.849922 25.90625)" xlink:href="#STIXGeneral-Regular-772"/>
      <use transform="translate(233.299927 0.515625)" xlink:href="#STIXGeneral-Bold-88"/>
     </g>
    </g>
   </g>
  </g>
 </g>
 <defs>
  <clipPath id="pfb4a8ce974">
   <rect height="163.08" width="558" x="50.99" y="25.493437"/>
  </clipPath>
 </defs>
</svg>
