<?xml version="1.0" encoding="utf-8" standalone="no"?>
<!DOCTYPE svg PUBLIC "-//W3C//DTD SVG 1.1//EN"
  "http://www.w3.org/Graphics/SVG/1.1/DTD/svg11.dtd">
<!-- Created with matplotlib (https://matplotlib.org/) -->
<svg height="205.21625pt" version="1.1" viewBox="0 0 464.3 205.21625" width="464.3pt" xmlns="http://www.w3.org/2000/svg" xmlns:xlink="http://www.w3.org/1999/xlink">
 <defs>
  <style type="text/css">
*{stroke-linecap:butt;stroke-linejoin:round;}
  </style>
 </defs>
 <g id="figure_1">
  <g id="patch_1">
   <path d="M 0 205.21625 
L 464.3 205.21625 
L 464.3 -0 
L 0 -0 
z
" style="fill:none;"/>
  </g>
  <g id="axes_1">
   <g id="patch_2">
    <path d="M 10.7 194.51625 
L 457.1 194.51625 
L 457.1 31.43625 
L 10.7 31.43625 
z
" style="fill:#ffffff;"/>
   </g>
   <g id="line2d_1">
    <path clip-path="url(#p1a89a82682)" d="M 23.214982 206.21625 
L 24.227273 203.845215 
L 28.736364 193.283811 
L 33.245455 182.722407 
L 37.754545 172.161003 
L 42.263636 161.599599 
L 46.772727 151.038195 
L 51.281818 140.476791 
L 55.790909 129.915388 
L 60.3 119.353984 
L 64.809091 108.79258 
L 69.318182 98.269286 
L 73.827273 88.118408 
L 78.336364 78.812921 
L 82.845455 70.826589 
L 87.354545 64.633179 
L 91.863636 60.706455 
L 96.372727 59.520183 
L 100.881818 61.548128 
L 105.390909 67.23444 
L 109.9 76.171355 
L 114.409091 86.991892 
L 118.918182 98.277906 
L 123.427273 108.611249 
L 127.936364 116.573775 
L 132.445455 120.747337 
L 136.954545 119.761388 
L 141.463636 113.770926 
L 145.972727 104.742874 
L 150.481818 94.749565 
L 154.990909 85.86333 
L 159.5 80.156502 
L 164.009091 79.700881 
L 168.518182 85.561056 
L 173.027273 95.700214 
L 177.536364 107.486517 
L 182.045455 118.288129 
L 186.554545 125.475588 
L 191.063636 127.417226 
L 195.572727 125.020798 
L 200.081818 119.592116 
L 204.590909 112.436989 
L 209.1 104.861227 
L 213.609091 98.170641 
L 218.118182 93.67104 
L 222.627273 92.568496 
L 227.136364 94.744361 
L 231.645455 99.139695 
L 236.154545 104.675546 
L 240.663636 110.272961 
L 245.172727 114.886889 
L 249.681818 118.139887 
L 254.190909 120.265206 
L 258.7 121.518589 
L 263.209091 122.155775 
L 267.718182 122.432506 
L 272.227273 122.604524 
L 276.736364 122.92757 
L 281.245455 123.657385 
L 285.754545 125.049711 
L 290.263636 127.359924 
L 294.772727 130.673814 
L 299.281818 134.638208 
L 303.790909 138.829843 
L 308.3 142.825457 
L 312.809091 146.20179 
L 317.318182 148.53558 
L 321.827273 149.403567 
L 326.336364 148.382487 
L 330.845455 145.049081 
L 335.354545 138.980087 
L 339.863636 129.752244 
L 344.372727 117.233721 
L 348.881818 102.759058 
L 353.390909 88.122971 
L 357.9 75.120344 
L 362.409091 65.509722 
L 366.918182 60.021729 
L 371.427273 58.239403 
L 375.936364 59.685423 
L 380.445455 63.882466 
L 384.954545 70.353212 
L 389.463636 78.620338 
L 393.972727 88.206523 
L 398.481818 98.634445 
L 402.990909 110.45147 
L 407.5 125.607774 
L 412.009091 140.764078 
L 416.518182 155.920382 
L 421.027273 171.076686 
L 425.536364 186.23299 
L 430.045455 201.389295 
L 431.481503 206.21625 
" style="fill:none;stroke:#000000;stroke-linecap:square;stroke-width:1.5;"/>
   </g>
   <g id="matplotlib.axis_1"/>
   <g id="matplotlib.axis_2"/>
   <g id="PathCollection_1">
    <defs>
     <path d="M -3.535534 3.535534 
L 3.535534 -3.535534 
M -3.535534 -3.535534 
L 3.535534 3.535534 
" id="m9a40602c28" style="stroke:#ff0000;stroke-width:1.5;"/>
    </defs>
    <g clip-path="url(#p1a89a82682)">
     <use style="fill:#ff0000;stroke:#ff0000;stroke-width:1.5;" x="65.781217" xlink:href="#m9a40602c28" y="106.51562"/>
     <use style="fill:#ff0000;stroke:#ff0000;stroke-width:1.5;" x="103.34128" xlink:href="#m9a40602c28" y="64.178408"/>
     <use style="fill:#ff0000;stroke:#ff0000;stroke-width:1.5;" x="134.996994" xlink:href="#m9a40602c28" y="120.893002"/>
     <use style="fill:#ff0000;stroke:#ff0000;stroke-width:1.5;" x="163.612977" xlink:href="#m9a40602c28" y="79.478058"/>
     <use style="fill:#ff0000;stroke:#ff0000;stroke-width:1.5;" x="185.86233" xlink:href="#m9a40602c28" y="124.710424"/>
     <use style="fill:#ff0000;stroke:#ff0000;stroke-width:1.5;" x="219.783169" xlink:href="#m9a40602c28" y="92.824137"/>
     <use style="fill:#ff0000;stroke:#ff0000;stroke-width:1.5;" x="242.76422" xlink:href="#m9a40602c28" y="112.598763"/>
     <use style="fill:#ff0000;stroke:#ff0000;stroke-width:1.5;" x="289.59804" xlink:href="#m9a40602c28" y="126.951516"/>
     <use style="fill:#ff0000;stroke:#ff0000;stroke-width:1.5;" x="340.207341" xlink:href="#m9a40602c28" y="128.907271"/>
     <use style="fill:#ff0000;stroke:#ff0000;stroke-width:1.5;" x="360.344787" xlink:href="#m9a40602c28" y="69.389251"/>
     <use style="fill:#ff0000;stroke:#ff0000;stroke-width:1.5;" x="401.924323" xlink:href="#m9a40602c28" y="106.866379"/>
    </g>
   </g>
   <g id="patch_3">
    <path d="M 10.7 194.51625 
L 10.7 31.43625 
" style="fill:none;stroke:#000000;stroke-linecap:square;stroke-linejoin:miter;stroke-width:0.8;"/>
   </g>
   <g id="patch_4">
    <path d="M 457.1 194.51625 
L 457.1 31.43625 
" style="fill:none;stroke:#000000;stroke-linecap:square;stroke-linejoin:miter;stroke-width:0.8;"/>
   </g>
   <g id="patch_5">
    <path d="M 10.7 194.51625 
L 457.1 194.51625 
" style="fill:none;stroke:#000000;stroke-linecap:square;stroke-linejoin:miter;stroke-width:0.8;"/>
   </g>
   <g id="patch_6">
    <path d="M 10.7 31.43625 
L 457.1 31.43625 
" style="fill:none;stroke:#000000;stroke-linecap:square;stroke-linejoin:miter;stroke-width:0.8;"/>
   </g>
   <g id="text_1">
    <!-- NCS fit and data -->
    <defs>
     <path d="M 9.8125 72.90625 
L 23.09375 72.90625 
L 55.421875 11.921875 
L 55.421875 72.90625 
L 64.984375 72.90625 
L 64.984375 0 
L 51.703125 0 
L 19.390625 60.984375 
L 19.390625 0 
L 9.8125 0 
z
" id="DejaVuSans-78"/>
     <path d="M 64.40625 67.28125 
L 64.40625 56.890625 
Q 59.421875 61.53125 53.78125 63.8125 
Q 48.140625 66.109375 41.796875 66.109375 
Q 29.296875 66.109375 22.65625 58.46875 
Q 16.015625 50.828125 16.015625 36.375 
Q 16.015625 21.96875 22.65625 14.328125 
Q 29.296875 6.6875 41.796875 6.6875 
Q 48.140625 6.6875 53.78125 8.984375 
Q 59.421875 11.28125 64.40625 15.921875 
L 64.40625 5.609375 
Q 59.234375 2.09375 53.4375 0.328125 
Q 47.65625 -1.421875 41.21875 -1.421875 
Q 24.65625 -1.421875 15.125 8.703125 
Q 5.609375 18.84375 5.609375 36.375 
Q 5.609375 53.953125 15.125 64.078125 
Q 24.65625 74.21875 41.21875 74.21875 
Q 47.75 74.21875 53.53125 72.484375 
Q 59.328125 70.75 64.40625 67.28125 
z
" id="DejaVuSans-67"/>
     <path d="M 53.515625 70.515625 
L 53.515625 60.890625 
Q 47.90625 63.578125 42.921875 64.890625 
Q 37.9375 66.21875 33.296875 66.21875 
Q 25.25 66.21875 20.875 63.09375 
Q 16.5 59.96875 16.5 54.203125 
Q 16.5 49.359375 19.40625 46.890625 
Q 22.3125 44.4375 30.421875 42.921875 
L 36.375 41.703125 
Q 47.40625 39.59375 52.65625 34.296875 
Q 57.90625 29 57.90625 20.125 
Q 57.90625 9.515625 50.796875 4.046875 
Q 43.703125 -1.421875 29.984375 -1.421875 
Q 24.8125 -1.421875 18.96875 -0.25 
Q 13.140625 0.921875 6.890625 3.21875 
L 6.890625 13.375 
Q 12.890625 10.015625 18.65625 8.296875 
Q 24.421875 6.59375 29.984375 6.59375 
Q 38.421875 6.59375 43.015625 9.90625 
Q 47.609375 13.234375 47.609375 19.390625 
Q 47.609375 24.75 44.3125 27.78125 
Q 41.015625 30.8125 33.5 32.328125 
L 27.484375 33.5 
Q 16.453125 35.6875 11.515625 40.375 
Q 6.59375 45.0625 6.59375 53.421875 
Q 6.59375 63.09375 13.40625 68.65625 
Q 20.21875 74.21875 32.171875 74.21875 
Q 37.3125 74.21875 42.625 73.28125 
Q 47.953125 72.359375 53.515625 70.515625 
z
" id="DejaVuSans-83"/>
     <path id="DejaVuSans-32"/>
     <path d="M 37.109375 75.984375 
L 37.109375 68.5 
L 28.515625 68.5 
Q 23.6875 68.5 21.796875 66.546875 
Q 19.921875 64.59375 19.921875 59.515625 
L 19.921875 54.6875 
L 34.71875 54.6875 
L 34.71875 47.703125 
L 19.921875 47.703125 
L 19.921875 0 
L 10.890625 0 
L 10.890625 47.703125 
L 2.296875 47.703125 
L 2.296875 54.6875 
L 10.890625 54.6875 
L 10.890625 58.5 
Q 10.890625 67.625 15.140625 71.796875 
Q 19.390625 75.984375 28.609375 75.984375 
z
" id="DejaVuSans-102"/>
     <path d="M 9.421875 54.6875 
L 18.40625 54.6875 
L 18.40625 0 
L 9.421875 0 
z
M 9.421875 75.984375 
L 18.40625 75.984375 
L 18.40625 64.59375 
L 9.421875 64.59375 
z
" id="DejaVuSans-105"/>
     <path d="M 18.3125 70.21875 
L 18.3125 54.6875 
L 36.8125 54.6875 
L 36.8125 47.703125 
L 18.3125 47.703125 
L 18.3125 18.015625 
Q 18.3125 11.328125 20.140625 9.421875 
Q 21.96875 7.515625 27.59375 7.515625 
L 36.8125 7.515625 
L 36.8125 0 
L 27.59375 0 
Q 17.1875 0 13.234375 3.875 
Q 9.28125 7.765625 9.28125 18.015625 
L 9.28125 47.703125 
L 2.6875 47.703125 
L 2.6875 54.6875 
L 9.28125 54.6875 
L 9.28125 70.21875 
z
" id="DejaVuSans-116"/>
     <path d="M 34.28125 27.484375 
Q 23.390625 27.484375 19.1875 25 
Q 14.984375 22.515625 14.984375 16.5 
Q 14.984375 11.71875 18.140625 8.90625 
Q 21.296875 6.109375 26.703125 6.109375 
Q 34.1875 6.109375 38.703125 11.40625 
Q 43.21875 16.703125 43.21875 25.484375 
L 43.21875 27.484375 
z
M 52.203125 31.203125 
L 52.203125 0 
L 43.21875 0 
L 43.21875 8.296875 
Q 40.140625 3.328125 35.546875 0.953125 
Q 30.953125 -1.421875 24.3125 -1.421875 
Q 15.921875 -1.421875 10.953125 3.296875 
Q 6 8.015625 6 15.921875 
Q 6 25.140625 12.171875 29.828125 
Q 18.359375 34.515625 30.609375 34.515625 
L 43.21875 34.515625 
L 43.21875 35.40625 
Q 43.21875 41.609375 39.140625 45 
Q 35.0625 48.390625 27.6875 48.390625 
Q 23 48.390625 18.546875 47.265625 
Q 14.109375 46.140625 10.015625 43.890625 
L 10.015625 52.203125 
Q 14.9375 54.109375 19.578125 55.046875 
Q 24.21875 56 28.609375 56 
Q 40.484375 56 46.34375 49.84375 
Q 52.203125 43.703125 52.203125 31.203125 
z
" id="DejaVuSans-97"/>
     <path d="M 54.890625 33.015625 
L 54.890625 0 
L 45.90625 0 
L 45.90625 32.71875 
Q 45.90625 40.484375 42.875 44.328125 
Q 39.84375 48.1875 33.796875 48.1875 
Q 26.515625 48.1875 22.3125 43.546875 
Q 18.109375 38.921875 18.109375 30.90625 
L 18.109375 0 
L 9.078125 0 
L 9.078125 54.6875 
L 18.109375 54.6875 
L 18.109375 46.1875 
Q 21.34375 51.125 25.703125 53.5625 
Q 30.078125 56 35.796875 56 
Q 45.21875 56 50.046875 50.171875 
Q 54.890625 44.34375 54.890625 33.015625 
z
" id="DejaVuSans-110"/>
     <path d="M 45.40625 46.390625 
L 45.40625 75.984375 
L 54.390625 75.984375 
L 54.390625 0 
L 45.40625 0 
L 45.40625 8.203125 
Q 42.578125 3.328125 38.25 0.953125 
Q 33.9375 -1.421875 27.875 -1.421875 
Q 17.96875 -1.421875 11.734375 6.484375 
Q 5.515625 14.40625 5.515625 27.296875 
Q 5.515625 40.1875 11.734375 48.09375 
Q 17.96875 56 27.875 56 
Q 33.9375 56 38.25 53.625 
Q 42.578125 51.265625 45.40625 46.390625 
z
M 14.796875 27.296875 
Q 14.796875 17.390625 18.875 11.75 
Q 22.953125 6.109375 30.078125 6.109375 
Q 37.203125 6.109375 41.296875 11.75 
Q 45.40625 17.390625 45.40625 27.296875 
Q 45.40625 37.203125 41.296875 42.84375 
Q 37.203125 48.484375 30.078125 48.484375 
Q 22.953125 48.484375 18.875 42.84375 
Q 14.796875 37.203125 14.796875 27.296875 
z
" id="DejaVuSans-100"/>
    </defs>
    <g transform="translate(135.614375 25.43625)scale(0.24 -0.24)">
     <use xlink:href="#DejaVuSans-78"/>
     <use x="74.804688" xlink:href="#DejaVuSans-67"/>
     <use x="144.628906" xlink:href="#DejaVuSans-83"/>
     <use x="208.105469" xlink:href="#DejaVuSans-32"/>
     <use x="239.892578" xlink:href="#DejaVuSans-102"/>
     <use x="275.097656" xlink:href="#DejaVuSans-105"/>
     <use x="302.880859" xlink:href="#DejaVuSans-116"/>
     <use x="342.089844" xlink:href="#DejaVuSans-32"/>
     <use x="373.876953" xlink:href="#DejaVuSans-97"/>
     <use x="435.15625" xlink:href="#DejaVuSans-110"/>
     <use x="498.535156" xlink:href="#DejaVuSans-100"/>
     <use x="562.011719" xlink:href="#DejaVuSans-32"/>
     <use x="593.798828" xlink:href="#DejaVuSans-100"/>
     <use x="657.275391" xlink:href="#DejaVuSans-97"/>
     <use x="718.554688" xlink:href="#DejaVuSans-116"/>
     <use x="757.763672" xlink:href="#DejaVuSans-97"/>
    </g>
   </g>
  </g>
 </g>
 <defs>
  <clipPath id="p1a89a82682">
   <rect height="163.08" width="446.4" x="10.7" y="31.43625"/>
  </clipPath>
 </defs>
</svg>
