<?xml version="1.0" encoding="utf-8" standalone="no"?>
<!DOCTYPE svg PUBLIC "-//W3C//DTD SVG 1.1//EN"
  "http://www.w3.org/Graphics/SVG/1.1/DTD/svg11.dtd">
<!-- Created with matplotlib (https://matplotlib.org/) -->
<svg height="315.466875pt" version="1.1" viewBox="0 0 393.870312 315.466875" width="393.870312pt" xmlns="http://www.w3.org/2000/svg" xmlns:xlink="http://www.w3.org/1999/xlink">
 <defs>
  <style type="text/css">
*{stroke-linecap:butt;stroke-linejoin:round;}
  </style>
 </defs>
 <g id="figure_1">
  <g id="patch_1">
   <path d="M 0 315.466875 
L 393.870312 315.466875 
L 393.870312 0 
L 0 0 
z
" style="fill:none;"/>
  </g>
  <g id="axes_1">
   <g id="patch_2">
    <path d="M 43.91875 268.2325 
L 378.71875 268.2325 
L 378.71875 50.7925 
L 43.91875 50.7925 
z
" style="fill:#ffffff;"/>
   </g>
   <g id="line2d_1">
    <path clip-path="url(#p2ccceb88ef)" d="M 43.91875 242.675475 
L 47.26675 237.284219 
L 50.61475 235.53387 
L 53.96275 231.62669 
L 57.31075 221.739754 
L 60.65875 211.346339 
L 64.00675 215.863002 
L 67.35475 209.773061 
L 70.70275 209.780995 
L 74.05075 209.506912 
L 77.39875 206.120736 
L 80.74675 204.267263 
L 84.09475 193.136514 
L 87.44275 185.973658 
L 90.79075 183.708258 
L 94.13875 178.536632 
L 97.48675 174.091643 
L 100.83475 157.269141 
L 104.18275 157.879511 
L 107.53075 152.649257 
L 110.87875 160.507529 
L 114.22675 183.518368 
L 117.57475 176.429563 
L 120.92275 166.627991 
L 124.27075 172.469977 
L 127.61875 146.253747 
L 130.96675 161.170264 
L 134.31475 159.053782 
L 137.66275 159.458996 
L 141.01075 139.524574 
L 144.35875 116.899672 
L 147.70675 112.213731 
L 151.05475 103.751911 
L 154.40275 115.450206 
L 157.75075 141.010404 
L 161.09875 143.503532 
L 164.44675 139.623342 
L 167.79475 120.588039 
L 171.14275 99.207763 
L 174.49075 103.171947 
L 177.83875 105.666817 
L 181.18675 119.637152 
L 184.53475 137.359808 
L 187.88275 156.221396 
L 191.23075 130.036143 
L 194.57875 134.918089 
L 197.92675 138.703745 
L 201.27475 152.228651 
L 204.62275 140.954661 
L 207.97075 158.287239 
L 211.31875 158.974879 
L 214.66675 166.823491 
L 218.01475 161.230002 
L 221.36275 165.021889 
L 224.71075 175.12931 
L 228.05875 173.988211 
L 231.40675 168.377072 
L 234.75475 166.191455 
L 238.10275 161.468336 
L 241.45075 166.51594 
L 244.79875 168.657015 
L 248.14675 173.725873 
L 251.49475 175.685683 
L 254.84275 181.623822 
L 258.19075 194.254204 
L 261.53875 191.79187 
L 264.88675 193.692472 
L 268.23475 203.948135 
L 271.58275 199.885705 
L 274.93075 204.870467 
L 278.27875 203.577893 
L 281.62675 197.636857 
L 284.97475 195.639629 
L 288.32275 185.649258 
L 291.67075 194.139267 
L 295.01875 189.931657 
L 298.36675 194.009256 
L 301.71475 199.170984 
L 305.06275 202.070077 
L 308.41075 203.13036 
L 311.75875 201.774248 
L 315.10675 208.18962 
L 318.45475 201.536724 
L 321.80275 197.301479 
L 325.15075 206.483147 
L 328.49875 195.491243 
L 331.84675 178.977483 
L 335.19475 166.293399 
L 338.54275 166.597994 
L 341.89075 175.53812 
L 345.23875 163.673342 
L 348.58675 166.287309 
L 351.93475 151.290296 
L 355.28275 147.024591 
L 358.63075 132.569858 
L 361.97875 125.52346 
L 365.32675 112.760572 
L 368.67475 110.245115 
L 372.02275 76.499795 
L 375.37075 71.116291 
L 378.71875 59.929785 
" style="fill:none;stroke:#000000;stroke-linecap:square;stroke-width:1.5;"/>
   </g>
   <g id="matplotlib.axis_1">
    <g id="xtick_1">
     <g id="line2d_2">
      <defs>
       <path d="M 0 0 
L 0 3.5 
" id="ma0b7c8cd8f" style="stroke:#000000;stroke-width:0.8;"/>
      </defs>
      <g>
       <use style="stroke:#000000;stroke-width:0.8;" x="43.91875" xlink:href="#ma0b7c8cd8f" y="268.2325"/>
      </g>
     </g>
     <g id="text_1">
      <!-- 0.0 -->
      <defs>
       <path d="M 31.78125 66.40625 
Q 24.171875 66.40625 20.328125 58.90625 
Q 16.5 51.421875 16.5 36.375 
Q 16.5 21.390625 20.328125 13.890625 
Q 24.171875 6.390625 31.78125 6.390625 
Q 39.453125 6.390625 43.28125 13.890625 
Q 47.125 21.390625 47.125 36.375 
Q 47.125 51.421875 43.28125 58.90625 
Q 39.453125 66.40625 31.78125 66.40625 
z
M 31.78125 74.21875 
Q 44.046875 74.21875 50.515625 64.515625 
Q 56.984375 54.828125 56.984375 36.375 
Q 56.984375 17.96875 50.515625 8.265625 
Q 44.046875 -1.421875 31.78125 -1.421875 
Q 19.53125 -1.421875 13.0625 8.265625 
Q 6.59375 17.96875 6.59375 36.375 
Q 6.59375 54.828125 13.0625 64.515625 
Q 19.53125 74.21875 31.78125 74.21875 
z
" id="DejaVuSans-48"/>
       <path d="M 10.6875 12.40625 
L 21 12.40625 
L 21 0 
L 10.6875 0 
z
" id="DejaVuSans-46"/>
      </defs>
      <g transform="translate(35.967188 282.830937)scale(0.1 -0.1)">
       <use xlink:href="#DejaVuSans-48"/>
       <use x="63.623047" xlink:href="#DejaVuSans-46"/>
       <use x="95.410156" xlink:href="#DejaVuSans-48"/>
      </g>
     </g>
    </g>
    <g id="xtick_2">
     <g id="line2d_3">
      <g>
       <use style="stroke:#000000;stroke-width:0.8;" x="110.87875" xlink:href="#ma0b7c8cd8f" y="268.2325"/>
      </g>
     </g>
     <g id="text_2">
      <!-- 0.2 -->
      <defs>
       <path d="M 19.1875 8.296875 
L 53.609375 8.296875 
L 53.609375 0 
L 7.328125 0 
L 7.328125 8.296875 
Q 12.9375 14.109375 22.625 23.890625 
Q 32.328125 33.6875 34.8125 36.53125 
Q 39.546875 41.84375 41.421875 45.53125 
Q 43.3125 49.21875 43.3125 52.78125 
Q 43.3125 58.59375 39.234375 62.25 
Q 35.15625 65.921875 28.609375 65.921875 
Q 23.96875 65.921875 18.8125 64.3125 
Q 13.671875 62.703125 7.8125 59.421875 
L 7.8125 69.390625 
Q 13.765625 71.78125 18.9375 73 
Q 24.125 74.21875 28.421875 74.21875 
Q 39.75 74.21875 46.484375 68.546875 
Q 53.21875 62.890625 53.21875 53.421875 
Q 53.21875 48.921875 51.53125 44.890625 
Q 49.859375 40.875 45.40625 35.40625 
Q 44.1875 33.984375 37.640625 27.21875 
Q 31.109375 20.453125 19.1875 8.296875 
z
" id="DejaVuSans-50"/>
      </defs>
      <g transform="translate(102.927188 282.830937)scale(0.1 -0.1)">
       <use xlink:href="#DejaVuSans-48"/>
       <use x="63.623047" xlink:href="#DejaVuSans-46"/>
       <use x="95.410156" xlink:href="#DejaVuSans-50"/>
      </g>
     </g>
    </g>
    <g id="xtick_3">
     <g id="line2d_4">
      <g>
       <use style="stroke:#000000;stroke-width:0.8;" x="177.83875" xlink:href="#ma0b7c8cd8f" y="268.2325"/>
      </g>
     </g>
     <g id="text_3">
      <!-- 0.4 -->
      <defs>
       <path d="M 37.796875 64.3125 
L 12.890625 25.390625 
L 37.796875 25.390625 
z
M 35.203125 72.90625 
L 47.609375 72.90625 
L 47.609375 25.390625 
L 58.015625 25.390625 
L 58.015625 17.1875 
L 47.609375 17.1875 
L 47.609375 0 
L 37.796875 0 
L 37.796875 17.1875 
L 4.890625 17.1875 
L 4.890625 26.703125 
z
" id="DejaVuSans-52"/>
      </defs>
      <g transform="translate(169.887188 282.830937)scale(0.1 -0.1)">
       <use xlink:href="#DejaVuSans-48"/>
       <use x="63.623047" xlink:href="#DejaVuSans-46"/>
       <use x="95.410156" xlink:href="#DejaVuSans-52"/>
      </g>
     </g>
    </g>
    <g id="xtick_4">
     <g id="line2d_5">
      <g>
       <use style="stroke:#000000;stroke-width:0.8;" x="244.79875" xlink:href="#ma0b7c8cd8f" y="268.2325"/>
      </g>
     </g>
     <g id="text_4">
      <!-- 0.6 -->
      <defs>
       <path d="M 33.015625 40.375 
Q 26.375 40.375 22.484375 35.828125 
Q 18.609375 31.296875 18.609375 23.390625 
Q 18.609375 15.53125 22.484375 10.953125 
Q 26.375 6.390625 33.015625 6.390625 
Q 39.65625 6.390625 43.53125 10.953125 
Q 47.40625 15.53125 47.40625 23.390625 
Q 47.40625 31.296875 43.53125 35.828125 
Q 39.65625 40.375 33.015625 40.375 
z
M 52.59375 71.296875 
L 52.59375 62.3125 
Q 48.875 64.0625 45.09375 64.984375 
Q 41.3125 65.921875 37.59375 65.921875 
Q 27.828125 65.921875 22.671875 59.328125 
Q 17.53125 52.734375 16.796875 39.40625 
Q 19.671875 43.65625 24.015625 45.921875 
Q 28.375 48.1875 33.59375 48.1875 
Q 44.578125 48.1875 50.953125 41.515625 
Q 57.328125 34.859375 57.328125 23.390625 
Q 57.328125 12.15625 50.6875 5.359375 
Q 44.046875 -1.421875 33.015625 -1.421875 
Q 20.359375 -1.421875 13.671875 8.265625 
Q 6.984375 17.96875 6.984375 36.375 
Q 6.984375 53.65625 15.1875 63.9375 
Q 23.390625 74.21875 37.203125 74.21875 
Q 40.921875 74.21875 44.703125 73.484375 
Q 48.484375 72.75 52.59375 71.296875 
z
" id="DejaVuSans-54"/>
      </defs>
      <g transform="translate(236.847188 282.830937)scale(0.1 -0.1)">
       <use xlink:href="#DejaVuSans-48"/>
       <use x="63.623047" xlink:href="#DejaVuSans-46"/>
       <use x="95.410156" xlink:href="#DejaVuSans-54"/>
      </g>
     </g>
    </g>
    <g id="xtick_5">
     <g id="line2d_6">
      <g>
       <use style="stroke:#000000;stroke-width:0.8;" x="311.75875" xlink:href="#ma0b7c8cd8f" y="268.2325"/>
      </g>
     </g>
     <g id="text_5">
      <!-- 0.8 -->
      <defs>
       <path d="M 31.78125 34.625 
Q 24.75 34.625 20.71875 30.859375 
Q 16.703125 27.09375 16.703125 20.515625 
Q 16.703125 13.921875 20.71875 10.15625 
Q 24.75 6.390625 31.78125 6.390625 
Q 38.8125 6.390625 42.859375 10.171875 
Q 46.921875 13.96875 46.921875 20.515625 
Q 46.921875 27.09375 42.890625 30.859375 
Q 38.875 34.625 31.78125 34.625 
z
M 21.921875 38.8125 
Q 15.578125 40.375 12.03125 44.71875 
Q 8.5 49.078125 8.5 55.328125 
Q 8.5 64.0625 14.71875 69.140625 
Q 20.953125 74.21875 31.78125 74.21875 
Q 42.671875 74.21875 48.875 69.140625 
Q 55.078125 64.0625 55.078125 55.328125 
Q 55.078125 49.078125 51.53125 44.71875 
Q 48 40.375 41.703125 38.8125 
Q 48.828125 37.15625 52.796875 32.3125 
Q 56.78125 27.484375 56.78125 20.515625 
Q 56.78125 9.90625 50.3125 4.234375 
Q 43.84375 -1.421875 31.78125 -1.421875 
Q 19.734375 -1.421875 13.25 4.234375 
Q 6.78125 9.90625 6.78125 20.515625 
Q 6.78125 27.484375 10.78125 32.3125 
Q 14.796875 37.15625 21.921875 38.8125 
z
M 18.3125 54.390625 
Q 18.3125 48.734375 21.84375 45.5625 
Q 25.390625 42.390625 31.78125 42.390625 
Q 38.140625 42.390625 41.71875 45.5625 
Q 45.3125 48.734375 45.3125 54.390625 
Q 45.3125 60.0625 41.71875 63.234375 
Q 38.140625 66.40625 31.78125 66.40625 
Q 25.390625 66.40625 21.84375 63.234375 
Q 18.3125 60.0625 18.3125 54.390625 
z
" id="DejaVuSans-56"/>
      </defs>
      <g transform="translate(303.807187 282.830937)scale(0.1 -0.1)">
       <use xlink:href="#DejaVuSans-48"/>
       <use x="63.623047" xlink:href="#DejaVuSans-46"/>
       <use x="95.410156" xlink:href="#DejaVuSans-56"/>
      </g>
     </g>
    </g>
    <g id="xtick_6">
     <g id="line2d_7">
      <g>
       <use style="stroke:#000000;stroke-width:0.8;" x="378.71875" xlink:href="#ma0b7c8cd8f" y="268.2325"/>
      </g>
     </g>
     <g id="text_6">
      <!-- 1.0 -->
      <defs>
       <path d="M 12.40625 8.296875 
L 28.515625 8.296875 
L 28.515625 63.921875 
L 10.984375 60.40625 
L 10.984375 69.390625 
L 28.421875 72.90625 
L 38.28125 72.90625 
L 38.28125 8.296875 
L 54.390625 8.296875 
L 54.390625 0 
L 12.40625 0 
z
" id="DejaVuSans-49"/>
      </defs>
      <g transform="translate(370.767187 282.830937)scale(0.1 -0.1)">
       <use xlink:href="#DejaVuSans-49"/>
       <use x="63.623047" xlink:href="#DejaVuSans-46"/>
       <use x="95.410156" xlink:href="#DejaVuSans-48"/>
      </g>
     </g>
    </g>
    <g id="text_7">
     <!-- $t$ -->
     <defs>
      <path d="M 42.28125 54.6875 
L 40.921875 47.703125 
L 23 47.703125 
L 17.1875 18.015625 
Q 16.890625 16.359375 16.75 15.234375 
Q 16.609375 14.109375 16.609375 13.484375 
Q 16.609375 10.359375 18.484375 8.9375 
Q 20.359375 7.515625 24.515625 7.515625 
L 33.59375 7.515625 
L 32.078125 0 
L 23.484375 0 
Q 15.484375 0 11.546875 3.125 
Q 7.625 6.25 7.625 12.59375 
Q 7.625 13.71875 7.765625 15.0625 
Q 7.90625 16.40625 8.203125 18.015625 
L 14.015625 47.703125 
L 6.390625 47.703125 
L 7.8125 54.6875 
L 15.28125 54.6875 
L 18.3125 70.21875 
L 27.296875 70.21875 
L 24.3125 54.6875 
z
" id="DejaVuSans-Oblique-116"/>
     </defs>
     <g transform="translate(207.31875 304.1075)scale(0.2 -0.2)">
      <use transform="translate(0 0.78125)" xlink:href="#DejaVuSans-Oblique-116"/>
     </g>
    </g>
   </g>
   <g id="matplotlib.axis_2">
    <g id="ytick_1">
     <g id="line2d_8">
      <defs>
       <path d="M 0 0 
L -3.5 0 
" id="me536fb16ae" style="stroke:#000000;stroke-width:0.8;"/>
      </defs>
      <g>
       <use style="stroke:#000000;stroke-width:0.8;" x="43.91875" xlink:href="#me536fb16ae" y="268.2325"/>
      </g>
     </g>
     <g id="text_8">
      <!-- 0 -->
      <g transform="translate(30.55625 272.031719)scale(0.1 -0.1)">
       <use xlink:href="#DejaVuSans-48"/>
      </g>
     </g>
    </g>
    <g id="ytick_2">
     <g id="line2d_9">
      <g>
       <use style="stroke:#000000;stroke-width:0.8;" x="43.91875" xlink:href="#me536fb16ae" y="217.11845"/>
      </g>
     </g>
     <g id="text_9">
      <!-- 2 -->
      <g transform="translate(30.55625 220.917669)scale(0.1 -0.1)">
       <use xlink:href="#DejaVuSans-50"/>
      </g>
     </g>
    </g>
    <g id="ytick_3">
     <g id="line2d_10">
      <g>
       <use style="stroke:#000000;stroke-width:0.8;" x="43.91875" xlink:href="#me536fb16ae" y="166.0044"/>
      </g>
     </g>
     <g id="text_10">
      <!-- 4 -->
      <g transform="translate(30.55625 169.803619)scale(0.1 -0.1)">
       <use xlink:href="#DejaVuSans-52"/>
      </g>
     </g>
    </g>
    <g id="ytick_4">
     <g id="line2d_11">
      <g>
       <use style="stroke:#000000;stroke-width:0.8;" x="43.91875" xlink:href="#me536fb16ae" y="114.89035"/>
      </g>
     </g>
     <g id="text_11">
      <!-- 6 -->
      <g transform="translate(30.55625 118.689569)scale(0.1 -0.1)">
       <use xlink:href="#DejaVuSans-54"/>
      </g>
     </g>
    </g>
    <g id="ytick_5">
     <g id="line2d_12">
      <g>
       <use style="stroke:#000000;stroke-width:0.8;" x="43.91875" xlink:href="#me536fb16ae" y="63.7763"/>
      </g>
     </g>
     <g id="text_12">
      <!-- 8 -->
      <g transform="translate(30.55625 67.575519)scale(0.1 -0.1)">
       <use xlink:href="#DejaVuSans-56"/>
      </g>
     </g>
    </g>
    <g id="text_13">
     <!-- $X(t)$ -->
     <defs>
      <path d="M 13.71875 72.90625 
L 23.6875 72.90625 
L 36.1875 46.578125 
L 58.796875 72.90625 
L 70.3125 72.90625 
L 40.28125 38.09375 
L 58.40625 0 
L 48.484375 0 
L 33.796875 30.71875 
L 7.171875 0 
L -4.296875 0 
L 29.78125 39.203125 
z
" id="DejaVuSans-Oblique-88"/>
      <path d="M 31 75.875 
Q 24.46875 64.65625 21.28125 53.65625 
Q 18.109375 42.671875 18.109375 31.390625 
Q 18.109375 20.125 21.3125 9.0625 
Q 24.515625 -2 31 -13.1875 
L 23.1875 -13.1875 
Q 15.875 -1.703125 12.234375 9.375 
Q 8.59375 20.453125 8.59375 31.390625 
Q 8.59375 42.28125 12.203125 53.3125 
Q 15.828125 64.359375 23.1875 75.875 
z
" id="DejaVuSans-40"/>
      <path d="M 8.015625 75.875 
L 15.828125 75.875 
Q 23.140625 64.359375 26.78125 53.3125 
Q 30.421875 42.28125 30.421875 31.390625 
Q 30.421875 20.453125 26.78125 9.375 
Q 23.140625 -1.703125 15.828125 -13.1875 
L 8.015625 -13.1875 
Q 14.5 -2 17.703125 9.0625 
Q 20.90625 20.125 20.90625 31.390625 
Q 20.90625 42.671875 17.703125 53.65625 
Q 14.5 64.65625 8.015625 75.875 
z
" id="DejaVuSans-41"/>
     </defs>
     <g transform="translate(22.396875 178.1125)rotate(-90)scale(0.2 -0.2)">
      <use transform="translate(0 0.125)" xlink:href="#DejaVuSans-Oblique-88"/>
      <use transform="translate(68.505859 0.125)" xlink:href="#DejaVuSans-40"/>
      <use transform="translate(107.519531 0.125)" xlink:href="#DejaVuSans-Oblique-116"/>
      <use transform="translate(146.728516 0.125)" xlink:href="#DejaVuSans-41"/>
     </g>
    </g>
   </g>
   <g id="PathCollection_1">
    <defs>
     <path d="M -2.236068 2.236068 
L 2.236068 -2.236068 
M -2.236068 -2.236068 
L 2.236068 2.236068 
" id="mc6876a30f9" style="stroke:#ff0000;stroke-width:1.5;"/>
    </defs>
    <g clip-path="url(#p2ccceb88ef)">
     <use style="fill:#ff0000;stroke:#ff0000;stroke-width:1.5;" x="43.91875" xlink:href="#mc6876a30f9" y="242.675475"/>
     <use style="fill:#ff0000;stroke:#ff0000;stroke-width:1.5;" x="47.26675" xlink:href="#mc6876a30f9" y="237.655942"/>
     <use style="fill:#ff0000;stroke:#ff0000;stroke-width:1.5;" x="50.61475" xlink:href="#mc6876a30f9" y="235.820867"/>
     <use style="fill:#ff0000;stroke:#ff0000;stroke-width:1.5;" x="53.96275" xlink:href="#mc6876a30f9" y="232.000385"/>
     <use style="fill:#ff0000;stroke:#ff0000;stroke-width:1.5;" x="57.31075" xlink:href="#mc6876a30f9" y="223.156513"/>
     <use style="fill:#ff0000;stroke:#ff0000;stroke-width:1.5;" x="60.65875" xlink:href="#mc6876a30f9" y="213.836791"/>
     <use style="fill:#ff0000;stroke:#ff0000;stroke-width:1.5;" x="64.00675" xlink:href="#mc6876a30f9" y="218.064849"/>
     <use style="fill:#ff0000;stroke:#ff0000;stroke-width:1.5;" x="67.35475" xlink:href="#mc6876a30f9" y="212.295126"/>
     <use style="fill:#ff0000;stroke:#ff0000;stroke-width:1.5;" x="70.70275" xlink:href="#mc6876a30f9" y="212.023031"/>
     <use style="fill:#ff0000;stroke:#ff0000;stroke-width:1.5;" x="74.05075" xlink:href="#mc6876a30f9" y="211.479029"/>
     <use style="fill:#ff0000;stroke:#ff0000;stroke-width:1.5;" x="77.39875" xlink:href="#mc6876a30f9" y="208.013671"/>
     <use style="fill:#ff0000;stroke:#ff0000;stroke-width:1.5;" x="80.74675" xlink:href="#mc6876a30f9" y="205.941881"/>
     <use style="fill:#ff0000;stroke:#ff0000;stroke-width:1.5;" x="84.09475" xlink:href="#mc6876a30f9" y="195.637308"/>
     <use style="fill:#ff0000;stroke:#ff0000;stroke-width:1.5;" x="87.44275" xlink:href="#mc6876a30f9" y="188.660637"/>
     <use style="fill:#ff0000;stroke:#ff0000;stroke-width:1.5;" x="90.79075" xlink:href="#mc6876a30f9" y="186.101009"/>
     <use style="fill:#ff0000;stroke:#ff0000;stroke-width:1.5;" x="94.13875" xlink:href="#mc6876a30f9" y="180.812864"/>
     <use style="fill:#ff0000;stroke:#ff0000;stroke-width:1.5;" x="97.48675" xlink:href="#mc6876a30f9" y="176.147502"/>
     <use style="fill:#ff0000;stroke:#ff0000;stroke-width:1.5;" x="100.83475" xlink:href="#mc6876a30f9" y="160.547575"/>
     <use style="fill:#ff0000;stroke:#ff0000;stroke-width:1.5;" x="104.18275" xlink:href="#mc6876a30f9" y="160.603122"/>
     <use style="fill:#ff0000;stroke:#ff0000;stroke-width:1.5;" x="107.53075" xlink:href="#mc6876a30f9" y="155.081006"/>
     <use style="fill:#ff0000;stroke:#ff0000;stroke-width:1.5;" x="110.87875" xlink:href="#mc6876a30f9" y="162.482197"/>
     <use style="fill:#ff0000;stroke:#ff0000;stroke-width:1.5;" x="114.22675" xlink:href="#mc6876a30f9" y="187.365136"/>
     <use style="fill:#ff0000;stroke:#ff0000;stroke-width:1.5;" x="117.57475" xlink:href="#mc6876a30f9" y="180.462147"/>
     <use style="fill:#ff0000;stroke:#ff0000;stroke-width:1.5;" x="120.92275" xlink:href="#mc6876a30f9" y="171.119553"/>
     <use style="fill:#ff0000;stroke:#ff0000;stroke-width:1.5;" x="124.27075" xlink:href="#mc6876a30f9" y="176.384678"/>
     <use style="fill:#ff0000;stroke:#ff0000;stroke-width:1.5;" x="127.61875" xlink:href="#mc6876a30f9" y="153.700519"/>
     <use style="fill:#ff0000;stroke:#ff0000;stroke-width:1.5;" x="130.96675" xlink:href="#mc6876a30f9" y="168.067018"/>
     <use style="fill:#ff0000;stroke:#ff0000;stroke-width:1.5;" x="134.31475" xlink:href="#mc6876a30f9" y="165.605366"/>
     <use style="fill:#ff0000;stroke:#ff0000;stroke-width:1.5;" x="137.66275" xlink:href="#mc6876a30f9" y="165.473837"/>
     <use style="fill:#ff0000;stroke:#ff0000;stroke-width:1.5;" x="141.01075" xlink:href="#mc6876a30f9" y="147.66803"/>
     <use style="fill:#ff0000;stroke:#ff0000;stroke-width:1.5;" x="144.35875" xlink:href="#mc6876a30f9" y="127.541494"/>
     <use style="fill:#ff0000;stroke:#ff0000;stroke-width:1.5;" x="147.70675" xlink:href="#mc6876a30f9" y="122.547703"/>
     <use style="fill:#ff0000;stroke:#ff0000;stroke-width:1.5;" x="151.05475" xlink:href="#mc6876a30f9" y="114.124754"/>
     <use style="fill:#ff0000;stroke:#ff0000;stroke-width:1.5;" x="154.40275" xlink:href="#mc6876a30f9" y="124.724065"/>
     <use style="fill:#ff0000;stroke:#ff0000;stroke-width:1.5;" x="157.75075" xlink:href="#mc6876a30f9" y="150.279997"/>
     <use style="fill:#ff0000;stroke:#ff0000;stroke-width:1.5;" x="161.09875" xlink:href="#mc6876a30f9" y="152.024657"/>
     <use style="fill:#ff0000;stroke:#ff0000;stroke-width:1.5;" x="164.44675" xlink:href="#mc6876a30f9" y="147.883603"/>
     <use style="fill:#ff0000;stroke:#ff0000;stroke-width:1.5;" x="167.79475" xlink:href="#mc6876a30f9" y="130.670212"/>
     <use style="fill:#ff0000;stroke:#ff0000;stroke-width:1.5;" x="171.14275" xlink:href="#mc6876a30f9" y="111.378754"/>
     <use style="fill:#ff0000;stroke:#ff0000;stroke-width:1.5;" x="174.49075" xlink:href="#mc6876a30f9" y="114.317046"/>
     <use style="fill:#ff0000;stroke:#ff0000;stroke-width:1.5;" x="177.83875" xlink:href="#mc6876a30f9" y="115.891643"/>
     <use style="fill:#ff0000;stroke:#ff0000;stroke-width:1.5;" x="181.18675" xlink:href="#mc6876a30f9" y="128.818572"/>
     <use style="fill:#ff0000;stroke:#ff0000;stroke-width:1.5;" x="184.53475" xlink:href="#mc6876a30f9" y="145.827321"/>
     <use style="fill:#ff0000;stroke:#ff0000;stroke-width:1.5;" x="187.88275" xlink:href="#mc6876a30f9" y="164.264848"/>
     <use style="fill:#ff0000;stroke:#ff0000;stroke-width:1.5;" x="191.23075" xlink:href="#mc6876a30f9" y="141.903741"/>
     <use style="fill:#ff0000;stroke:#ff0000;stroke-width:1.5;" x="194.57875" xlink:href="#mc6876a30f9" y="145.815539"/>
     <use style="fill:#ff0000;stroke:#ff0000;stroke-width:1.5;" x="197.92675" xlink:href="#mc6876a30f9" y="148.729972"/>
     <use style="fill:#ff0000;stroke:#ff0000;stroke-width:1.5;" x="201.27475" xlink:href="#mc6876a30f9" y="161.311143"/>
     <use style="fill:#ff0000;stroke:#ff0000;stroke-width:1.5;" x="204.62275" xlink:href="#mc6876a30f9" y="150.859683"/>
     <use style="fill:#ff0000;stroke:#ff0000;stroke-width:1.5;" x="207.97075" xlink:href="#mc6876a30f9" y="167.455001"/>
     <use style="fill:#ff0000;stroke:#ff0000;stroke-width:1.5;" x="211.31875" xlink:href="#mc6876a30f9" y="167.583394"/>
     <use style="fill:#ff0000;stroke:#ff0000;stroke-width:1.5;" x="214.66675" xlink:href="#mc6876a30f9" y="174.583203"/>
     <use style="fill:#ff0000;stroke:#ff0000;stroke-width:1.5;" x="218.01475" xlink:href="#mc6876a30f9" y="169.086902"/>
     <use style="fill:#ff0000;stroke:#ff0000;stroke-width:1.5;" x="221.36275" xlink:href="#mc6876a30f9" y="172.168398"/>
     <use style="fill:#ff0000;stroke:#ff0000;stroke-width:1.5;" x="224.71075" xlink:href="#mc6876a30f9" y="181.588753"/>
     <use style="fill:#ff0000;stroke:#ff0000;stroke-width:1.5;" x="228.05875" xlink:href="#mc6876a30f9" y="180.10006"/>
     <use style="fill:#ff0000;stroke:#ff0000;stroke-width:1.5;" x="231.40675" xlink:href="#mc6876a30f9" y="174.562418"/>
     <use style="fill:#ff0000;stroke:#ff0000;stroke-width:1.5;" x="234.75475" xlink:href="#mc6876a30f9" y="172.065949"/>
     <use style="fill:#ff0000;stroke:#ff0000;stroke-width:1.5;" x="238.10275" xlink:href="#mc6876a30f9" y="167.23385"/>
     <use style="fill:#ff0000;stroke:#ff0000;stroke-width:1.5;" x="241.45075" xlink:href="#mc6876a30f9" y="171.620444"/>
     <use style="fill:#ff0000;stroke:#ff0000;stroke-width:1.5;" x="244.79875" xlink:href="#mc6876a30f9" y="173.19272"/>
     <use style="fill:#ff0000;stroke:#ff0000;stroke-width:1.5;" x="248.14675" xlink:href="#mc6876a30f9" y="177.682974"/>
     <use style="fill:#ff0000;stroke:#ff0000;stroke-width:1.5;" x="251.49475" xlink:href="#mc6876a30f9" y="179.12772"/>
     <use style="fill:#ff0000;stroke:#ff0000;stroke-width:1.5;" x="254.84275" xlink:href="#mc6876a30f9" y="184.591146"/>
     <use style="fill:#ff0000;stroke:#ff0000;stroke-width:1.5;" x="258.19075" xlink:href="#mc6876a30f9" y="197.357181"/>
     <use style="fill:#ff0000;stroke:#ff0000;stroke-width:1.5;" x="261.53875" xlink:href="#mc6876a30f9" y="194.682161"/>
     <use style="fill:#ff0000;stroke:#ff0000;stroke-width:1.5;" x="264.88675" xlink:href="#mc6876a30f9" y="196.166267"/>
     <use style="fill:#ff0000;stroke:#ff0000;stroke-width:1.5;" x="268.23475" xlink:href="#mc6876a30f9" y="206.473167"/>
     <use style="fill:#ff0000;stroke:#ff0000;stroke-width:1.5;" x="271.58275" xlink:href="#mc6876a30f9" y="202.379868"/>
     <use style="fill:#ff0000;stroke:#ff0000;stroke-width:1.5;" x="274.93075" xlink:href="#mc6876a30f9" y="207.037614"/>
     <use style="fill:#ff0000;stroke:#ff0000;stroke-width:1.5;" x="278.27875" xlink:href="#mc6876a30f9" y="205.495837"/>
     <use style="fill:#ff0000;stroke:#ff0000;stroke-width:1.5;" x="281.62675" xlink:href="#mc6876a30f9" y="199.667033"/>
     <use style="fill:#ff0000;stroke:#ff0000;stroke-width:1.5;" x="284.97475" xlink:href="#mc6876a30f9" y="197.411346"/>
     <use style="fill:#ff0000;stroke:#ff0000;stroke-width:1.5;" x="288.32275" xlink:href="#mc6876a30f9" y="187.925556"/>
     <use style="fill:#ff0000;stroke:#ff0000;stroke-width:1.5;" x="291.67075" xlink:href="#mc6876a30f9" y="196.235926"/>
     <use style="fill:#ff0000;stroke:#ff0000;stroke-width:1.5;" x="295.01875" xlink:href="#mc6876a30f9" y="191.899273"/>
     <use style="fill:#ff0000;stroke:#ff0000;stroke-width:1.5;" x="298.36675" xlink:href="#mc6876a30f9" y="195.599985"/>
     <use style="fill:#ff0000;stroke:#ff0000;stroke-width:1.5;" x="301.71475" xlink:href="#mc6876a30f9" y="200.472153"/>
     <use style="fill:#ff0000;stroke:#ff0000;stroke-width:1.5;" x="305.06275" xlink:href="#mc6876a30f9" y="203.039252"/>
     <use style="fill:#ff0000;stroke:#ff0000;stroke-width:1.5;" x="308.41075" xlink:href="#mc6876a30f9" y="203.766499"/>
     <use style="fill:#ff0000;stroke:#ff0000;stroke-width:1.5;" x="311.75875" xlink:href="#mc6876a30f9" y="202.115103"/>
     <use style="fill:#ff0000;stroke:#ff0000;stroke-width:1.5;" x="315.10675" xlink:href="#mc6876a30f9" y="208.496423"/>
     <use style="fill:#ff0000;stroke:#ff0000;stroke-width:1.5;" x="318.45475" xlink:href="#mc6876a30f9" y="201.920517"/>
     <use style="fill:#ff0000;stroke:#ff0000;stroke-width:1.5;" x="321.80275" xlink:href="#mc6876a30f9" y="197.506377"/>
     <use style="fill:#ff0000;stroke:#ff0000;stroke-width:1.5;" x="325.15075" xlink:href="#mc6876a30f9" y="206.957111"/>
     <use style="fill:#ff0000;stroke:#ff0000;stroke-width:1.5;" x="328.49875" xlink:href="#mc6876a30f9" y="196.61228"/>
     <use style="fill:#ff0000;stroke:#ff0000;stroke-width:1.5;" x="331.84675" xlink:href="#mc6876a30f9" y="181.601476"/>
     <use style="fill:#ff0000;stroke:#ff0000;stroke-width:1.5;" x="335.19475" xlink:href="#mc6876a30f9" y="169.656967"/>
     <use style="fill:#ff0000;stroke:#ff0000;stroke-width:1.5;" x="338.54275" xlink:href="#mc6876a30f9" y="169.459075"/>
     <use style="fill:#ff0000;stroke:#ff0000;stroke-width:1.5;" x="341.89075" xlink:href="#mc6876a30f9" y="178.059797"/>
     <use style="fill:#ff0000;stroke:#ff0000;stroke-width:1.5;" x="345.23875" xlink:href="#mc6876a30f9" y="166.748066"/>
     <use style="fill:#ff0000;stroke:#ff0000;stroke-width:1.5;" x="348.58675" xlink:href="#mc6876a30f9" y="168.809996"/>
     <use style="fill:#ff0000;stroke:#ff0000;stroke-width:1.5;" x="351.93475" xlink:href="#mc6876a30f9" y="154.667691"/>
     <use style="fill:#ff0000;stroke:#ff0000;stroke-width:1.5;" x="355.28275" xlink:href="#mc6876a30f9" y="150.031124"/>
     <use style="fill:#ff0000;stroke:#ff0000;stroke-width:1.5;" x="358.63075" xlink:href="#mc6876a30f9" y="136.123089"/>
     <use style="fill:#ff0000;stroke:#ff0000;stroke-width:1.5;" x="361.97875" xlink:href="#mc6876a30f9" y="128.772965"/>
     <use style="fill:#ff0000;stroke:#ff0000;stroke-width:1.5;" x="365.32675" xlink:href="#mc6876a30f9" y="116.129938"/>
     <use style="fill:#ff0000;stroke:#ff0000;stroke-width:1.5;" x="368.67475" xlink:href="#mc6876a30f9" y="112.928179"/>
     <use style="fill:#ff0000;stroke:#ff0000;stroke-width:1.5;" x="372.02275" xlink:href="#mc6876a30f9" y="82.086752"/>
     <use style="fill:#ff0000;stroke:#ff0000;stroke-width:1.5;" x="375.37075" xlink:href="#mc6876a30f9" y="76.001422"/>
     <use style="fill:#ff0000;stroke:#ff0000;stroke-width:1.5;" x="378.71875" xlink:href="#mc6876a30f9" y="64.429316"/>
    </g>
   </g>
   <g id="patch_3">
    <path d="M 43.91875 268.2325 
L 43.91875 50.7925 
" style="fill:none;stroke:#000000;stroke-linecap:square;stroke-linejoin:miter;stroke-width:0.8;"/>
   </g>
   <g id="patch_4">
    <path d="M 378.71875 268.2325 
L 378.71875 50.7925 
" style="fill:none;stroke:#000000;stroke-linecap:square;stroke-linejoin:miter;stroke-width:0.8;"/>
   </g>
   <g id="patch_5">
    <path d="M 43.91875 268.2325 
L 378.71875 268.2325 
" style="fill:none;stroke:#000000;stroke-linecap:square;stroke-linejoin:miter;stroke-width:0.8;"/>
   </g>
   <g id="patch_6">
    <path d="M 43.91875 50.7925 
L 378.71875 50.7925 
" style="fill:none;stroke:#000000;stroke-linecap:square;stroke-linejoin:miter;stroke-width:0.8;"/>
   </g>
   <g id="text_14">
    <!-- EM and exact solutions -->
    <defs>
     <path d="M 9.8125 72.90625 
L 55.90625 72.90625 
L 55.90625 64.59375 
L 19.671875 64.59375 
L 19.671875 43.015625 
L 54.390625 43.015625 
L 54.390625 34.71875 
L 19.671875 34.71875 
L 19.671875 8.296875 
L 56.78125 8.296875 
L 56.78125 0 
L 9.8125 0 
z
" id="DejaVuSans-69"/>
     <path d="M 9.8125 72.90625 
L 24.515625 72.90625 
L 43.109375 23.296875 
L 61.8125 72.90625 
L 76.515625 72.90625 
L 76.515625 0 
L 66.890625 0 
L 66.890625 64.015625 
L 48.09375 14.015625 
L 38.1875 14.015625 
L 19.390625 64.015625 
L 19.390625 0 
L 9.8125 0 
z
" id="DejaVuSans-77"/>
     <path id="DejaVuSans-32"/>
     <path d="M 34.28125 27.484375 
Q 23.390625 27.484375 19.1875 25 
Q 14.984375 22.515625 14.984375 16.5 
Q 14.984375 11.71875 18.140625 8.90625 
Q 21.296875 6.109375 26.703125 6.109375 
Q 34.1875 6.109375 38.703125 11.40625 
Q 43.21875 16.703125 43.21875 25.484375 
L 43.21875 27.484375 
z
M 52.203125 31.203125 
L 52.203125 0 
L 43.21875 0 
L 43.21875 8.296875 
Q 40.140625 3.328125 35.546875 0.953125 
Q 30.953125 -1.421875 24.3125 -1.421875 
Q 15.921875 -1.421875 10.953125 3.296875 
Q 6 8.015625 6 15.921875 
Q 6 25.140625 12.171875 29.828125 
Q 18.359375 34.515625 30.609375 34.515625 
L 43.21875 34.515625 
L 43.21875 35.40625 
Q 43.21875 41.609375 39.140625 45 
Q 35.0625 48.390625 27.6875 48.390625 
Q 23 48.390625 18.546875 47.265625 
Q 14.109375 46.140625 10.015625 43.890625 
L 10.015625 52.203125 
Q 14.9375 54.109375 19.578125 55.046875 
Q 24.21875 56 28.609375 56 
Q 40.484375 56 46.34375 49.84375 
Q 52.203125 43.703125 52.203125 31.203125 
z
" id="DejaVuSans-97"/>
     <path d="M 54.890625 33.015625 
L 54.890625 0 
L 45.90625 0 
L 45.90625 32.71875 
Q 45.90625 40.484375 42.875 44.328125 
Q 39.84375 48.1875 33.796875 48.1875 
Q 26.515625 48.1875 22.3125 43.546875 
Q 18.109375 38.921875 18.109375 30.90625 
L 18.109375 0 
L 9.078125 0 
L 9.078125 54.6875 
L 18.109375 54.6875 
L 18.109375 46.1875 
Q 21.34375 51.125 25.703125 53.5625 
Q 30.078125 56 35.796875 56 
Q 45.21875 56 50.046875 50.171875 
Q 54.890625 44.34375 54.890625 33.015625 
z
" id="DejaVuSans-110"/>
     <path d="M 45.40625 46.390625 
L 45.40625 75.984375 
L 54.390625 75.984375 
L 54.390625 0 
L 45.40625 0 
L 45.40625 8.203125 
Q 42.578125 3.328125 38.25 0.953125 
Q 33.9375 -1.421875 27.875 -1.421875 
Q 17.96875 -1.421875 11.734375 6.484375 
Q 5.515625 14.40625 5.515625 27.296875 
Q 5.515625 40.1875 11.734375 48.09375 
Q 17.96875 56 27.875 56 
Q 33.9375 56 38.25 53.625 
Q 42.578125 51.265625 45.40625 46.390625 
z
M 14.796875 27.296875 
Q 14.796875 17.390625 18.875 11.75 
Q 22.953125 6.109375 30.078125 6.109375 
Q 37.203125 6.109375 41.296875 11.75 
Q 45.40625 17.390625 45.40625 27.296875 
Q 45.40625 37.203125 41.296875 42.84375 
Q 37.203125 48.484375 30.078125 48.484375 
Q 22.953125 48.484375 18.875 42.84375 
Q 14.796875 37.203125 14.796875 27.296875 
z
" id="DejaVuSans-100"/>
     <path d="M 56.203125 29.59375 
L 56.203125 25.203125 
L 14.890625 25.203125 
Q 15.484375 15.921875 20.484375 11.0625 
Q 25.484375 6.203125 34.421875 6.203125 
Q 39.59375 6.203125 44.453125 7.46875 
Q 49.3125 8.734375 54.109375 11.28125 
L 54.109375 2.78125 
Q 49.265625 0.734375 44.1875 -0.34375 
Q 39.109375 -1.421875 33.890625 -1.421875 
Q 20.796875 -1.421875 13.15625 6.1875 
Q 5.515625 13.8125 5.515625 26.8125 
Q 5.515625 40.234375 12.765625 48.109375 
Q 20.015625 56 32.328125 56 
Q 43.359375 56 49.78125 48.890625 
Q 56.203125 41.796875 56.203125 29.59375 
z
M 47.21875 32.234375 
Q 47.125 39.59375 43.09375 43.984375 
Q 39.0625 48.390625 32.421875 48.390625 
Q 24.90625 48.390625 20.390625 44.140625 
Q 15.875 39.890625 15.1875 32.171875 
z
" id="DejaVuSans-101"/>
     <path d="M 54.890625 54.6875 
L 35.109375 28.078125 
L 55.90625 0 
L 45.3125 0 
L 29.390625 21.484375 
L 13.484375 0 
L 2.875 0 
L 24.125 28.609375 
L 4.6875 54.6875 
L 15.28125 54.6875 
L 29.78125 35.203125 
L 44.28125 54.6875 
z
" id="DejaVuSans-120"/>
     <path d="M 48.78125 52.59375 
L 48.78125 44.1875 
Q 44.96875 46.296875 41.140625 47.34375 
Q 37.3125 48.390625 33.40625 48.390625 
Q 24.65625 48.390625 19.8125 42.84375 
Q 14.984375 37.3125 14.984375 27.296875 
Q 14.984375 17.28125 19.8125 11.734375 
Q 24.65625 6.203125 33.40625 6.203125 
Q 37.3125 6.203125 41.140625 7.25 
Q 44.96875 8.296875 48.78125 10.40625 
L 48.78125 2.09375 
Q 45.015625 0.34375 40.984375 -0.53125 
Q 36.96875 -1.421875 32.421875 -1.421875 
Q 20.0625 -1.421875 12.78125 6.34375 
Q 5.515625 14.109375 5.515625 27.296875 
Q 5.515625 40.671875 12.859375 48.328125 
Q 20.21875 56 33.015625 56 
Q 37.15625 56 41.109375 55.140625 
Q 45.0625 54.296875 48.78125 52.59375 
z
" id="DejaVuSans-99"/>
     <path d="M 18.3125 70.21875 
L 18.3125 54.6875 
L 36.8125 54.6875 
L 36.8125 47.703125 
L 18.3125 47.703125 
L 18.3125 18.015625 
Q 18.3125 11.328125 20.140625 9.421875 
Q 21.96875 7.515625 27.59375 7.515625 
L 36.8125 7.515625 
L 36.8125 0 
L 27.59375 0 
Q 17.1875 0 13.234375 3.875 
Q 9.28125 7.765625 9.28125 18.015625 
L 9.28125 47.703125 
L 2.6875 47.703125 
L 2.6875 54.6875 
L 9.28125 54.6875 
L 9.28125 70.21875 
z
" id="DejaVuSans-116"/>
     <path d="M 44.28125 53.078125 
L 44.28125 44.578125 
Q 40.484375 46.53125 36.375 47.5 
Q 32.28125 48.484375 27.875 48.484375 
Q 21.1875 48.484375 17.84375 46.4375 
Q 14.5 44.390625 14.5 40.28125 
Q 14.5 37.15625 16.890625 35.375 
Q 19.28125 33.59375 26.515625 31.984375 
L 29.59375 31.296875 
Q 39.15625 29.25 43.1875 25.515625 
Q 47.21875 21.78125 47.21875 15.09375 
Q 47.21875 7.46875 41.1875 3.015625 
Q 35.15625 -1.421875 24.609375 -1.421875 
Q 20.21875 -1.421875 15.453125 -0.5625 
Q 10.6875 0.296875 5.421875 2 
L 5.421875 11.28125 
Q 10.40625 8.6875 15.234375 7.390625 
Q 20.0625 6.109375 24.8125 6.109375 
Q 31.15625 6.109375 34.5625 8.28125 
Q 37.984375 10.453125 37.984375 14.40625 
Q 37.984375 18.0625 35.515625 20.015625 
Q 33.0625 21.96875 24.703125 23.78125 
L 21.578125 24.515625 
Q 13.234375 26.265625 9.515625 29.90625 
Q 5.8125 33.546875 5.8125 39.890625 
Q 5.8125 47.609375 11.28125 51.796875 
Q 16.75 56 26.8125 56 
Q 31.78125 56 36.171875 55.265625 
Q 40.578125 54.546875 44.28125 53.078125 
z
" id="DejaVuSans-115"/>
     <path d="M 30.609375 48.390625 
Q 23.390625 48.390625 19.1875 42.75 
Q 14.984375 37.109375 14.984375 27.296875 
Q 14.984375 17.484375 19.15625 11.84375 
Q 23.34375 6.203125 30.609375 6.203125 
Q 37.796875 6.203125 41.984375 11.859375 
Q 46.1875 17.53125 46.1875 27.296875 
Q 46.1875 37.015625 41.984375 42.703125 
Q 37.796875 48.390625 30.609375 48.390625 
z
M 30.609375 56 
Q 42.328125 56 49.015625 48.375 
Q 55.71875 40.765625 55.71875 27.296875 
Q 55.71875 13.875 49.015625 6.21875 
Q 42.328125 -1.421875 30.609375 -1.421875 
Q 18.84375 -1.421875 12.171875 6.21875 
Q 5.515625 13.875 5.515625 27.296875 
Q 5.515625 40.765625 12.171875 48.375 
Q 18.84375 56 30.609375 56 
z
" id="DejaVuSans-111"/>
     <path d="M 9.421875 75.984375 
L 18.40625 75.984375 
L 18.40625 0 
L 9.421875 0 
z
" id="DejaVuSans-108"/>
     <path d="M 8.5 21.578125 
L 8.5 54.6875 
L 17.484375 54.6875 
L 17.484375 21.921875 
Q 17.484375 14.15625 20.5 10.265625 
Q 23.53125 6.390625 29.59375 6.390625 
Q 36.859375 6.390625 41.078125 11.03125 
Q 45.3125 15.671875 45.3125 23.6875 
L 45.3125 54.6875 
L 54.296875 54.6875 
L 54.296875 0 
L 45.3125 0 
L 45.3125 8.40625 
Q 42.046875 3.421875 37.71875 1 
Q 33.40625 -1.421875 27.6875 -1.421875 
Q 18.265625 -1.421875 13.375 4.4375 
Q 8.5 10.296875 8.5 21.578125 
z
M 31.109375 56 
z
" id="DejaVuSans-117"/>
     <path d="M 9.421875 54.6875 
L 18.40625 54.6875 
L 18.40625 0 
L 9.421875 0 
z
M 9.421875 75.984375 
L 18.40625 75.984375 
L 18.40625 64.59375 
L 9.421875 64.59375 
z
" id="DejaVuSans-105"/>
    </defs>
    <g transform="translate(95.771875 22.396875)scale(0.2 -0.2)">
     <use xlink:href="#DejaVuSans-69"/>
     <use x="63.183594" xlink:href="#DejaVuSans-77"/>
     <use x="149.462891" xlink:href="#DejaVuSans-32"/>
     <use x="181.25" xlink:href="#DejaVuSans-97"/>
     <use x="242.529297" xlink:href="#DejaVuSans-110"/>
     <use x="305.908203" xlink:href="#DejaVuSans-100"/>
     <use x="369.384766" xlink:href="#DejaVuSans-32"/>
     <use x="401.171875" xlink:href="#DejaVuSans-101"/>
     <use x="460.945312" xlink:href="#DejaVuSans-120"/>
     <use x="520.125" xlink:href="#DejaVuSans-97"/>
     <use x="581.404297" xlink:href="#DejaVuSans-99"/>
     <use x="636.384766" xlink:href="#DejaVuSans-116"/>
     <use x="675.59375" xlink:href="#DejaVuSans-32"/>
     <use x="707.380859" xlink:href="#DejaVuSans-115"/>
     <use x="759.480469" xlink:href="#DejaVuSans-111"/>
     <use x="820.662109" xlink:href="#DejaVuSans-108"/>
     <use x="848.445312" xlink:href="#DejaVuSans-117"/>
     <use x="911.824219" xlink:href="#DejaVuSans-116"/>
     <use x="951.033203" xlink:href="#DejaVuSans-105"/>
     <use x="978.816406" xlink:href="#DejaVuSans-111"/>
     <use x="1039.998047" xlink:href="#DejaVuSans-110"/>
     <use x="1103.376953" xlink:href="#DejaVuSans-115"/>
    </g>
    <!-- of Black-Scholes -->
    <defs>
     <path d="M 37.109375 75.984375 
L 37.109375 68.5 
L 28.515625 68.5 
Q 23.6875 68.5 21.796875 66.546875 
Q 19.921875 64.59375 19.921875 59.515625 
L 19.921875 54.6875 
L 34.71875 54.6875 
L 34.71875 47.703125 
L 19.921875 47.703125 
L 19.921875 0 
L 10.890625 0 
L 10.890625 47.703125 
L 2.296875 47.703125 
L 2.296875 54.6875 
L 10.890625 54.6875 
L 10.890625 58.5 
Q 10.890625 67.625 15.140625 71.796875 
Q 19.390625 75.984375 28.609375 75.984375 
z
" id="DejaVuSans-102"/>
     <path d="M 19.671875 34.8125 
L 19.671875 8.109375 
L 35.5 8.109375 
Q 43.453125 8.109375 47.28125 11.40625 
Q 51.125 14.703125 51.125 21.484375 
Q 51.125 28.328125 47.28125 31.5625 
Q 43.453125 34.8125 35.5 34.8125 
z
M 19.671875 64.796875 
L 19.671875 42.828125 
L 34.28125 42.828125 
Q 41.5 42.828125 45.03125 45.53125 
Q 48.578125 48.25 48.578125 53.8125 
Q 48.578125 59.328125 45.03125 62.0625 
Q 41.5 64.796875 34.28125 64.796875 
z
M 9.8125 72.90625 
L 35.015625 72.90625 
Q 46.296875 72.90625 52.390625 68.21875 
Q 58.5 63.53125 58.5 54.890625 
Q 58.5 48.1875 55.375 44.234375 
Q 52.25 40.28125 46.1875 39.3125 
Q 53.46875 37.75 57.5 32.78125 
Q 61.53125 27.828125 61.53125 20.40625 
Q 61.53125 10.640625 54.890625 5.3125 
Q 48.25 0 35.984375 0 
L 9.8125 0 
z
" id="DejaVuSans-66"/>
     <path d="M 9.078125 75.984375 
L 18.109375 75.984375 
L 18.109375 31.109375 
L 44.921875 54.6875 
L 56.390625 54.6875 
L 27.390625 29.109375 
L 57.625 0 
L 45.90625 0 
L 18.109375 26.703125 
L 18.109375 0 
L 9.078125 0 
z
" id="DejaVuSans-107"/>
     <path d="M 4.890625 31.390625 
L 31.203125 31.390625 
L 31.203125 23.390625 
L 4.890625 23.390625 
z
" id="DejaVuSans-45"/>
     <path d="M 53.515625 70.515625 
L 53.515625 60.890625 
Q 47.90625 63.578125 42.921875 64.890625 
Q 37.9375 66.21875 33.296875 66.21875 
Q 25.25 66.21875 20.875 63.09375 
Q 16.5 59.96875 16.5 54.203125 
Q 16.5 49.359375 19.40625 46.890625 
Q 22.3125 44.4375 30.421875 42.921875 
L 36.375 41.703125 
Q 47.40625 39.59375 52.65625 34.296875 
Q 57.90625 29 57.90625 20.125 
Q 57.90625 9.515625 50.796875 4.046875 
Q 43.703125 -1.421875 29.984375 -1.421875 
Q 24.8125 -1.421875 18.96875 -0.25 
Q 13.140625 0.921875 6.890625 3.21875 
L 6.890625 13.375 
Q 12.890625 10.015625 18.65625 8.296875 
Q 24.421875 6.59375 29.984375 6.59375 
Q 38.421875 6.59375 43.015625 9.90625 
Q 47.609375 13.234375 47.609375 19.390625 
Q 47.609375 24.75 44.3125 27.78125 
Q 41.015625 30.8125 33.5 32.328125 
L 27.484375 33.5 
Q 16.453125 35.6875 11.515625 40.375 
Q 6.59375 45.0625 6.59375 53.421875 
Q 6.59375 63.09375 13.40625 68.65625 
Q 20.21875 74.21875 32.171875 74.21875 
Q 37.3125 74.21875 42.625 73.28125 
Q 47.953125 72.359375 53.515625 70.515625 
z
" id="DejaVuSans-83"/>
     <path d="M 54.890625 33.015625 
L 54.890625 0 
L 45.90625 0 
L 45.90625 32.71875 
Q 45.90625 40.484375 42.875 44.328125 
Q 39.84375 48.1875 33.796875 48.1875 
Q 26.515625 48.1875 22.3125 43.546875 
Q 18.109375 38.921875 18.109375 30.90625 
L 18.109375 0 
L 9.078125 0 
L 9.078125 75.984375 
L 18.109375 75.984375 
L 18.109375 46.1875 
Q 21.34375 51.125 25.703125 53.5625 
Q 30.078125 56 35.796875 56 
Q 45.21875 56 50.046875 50.171875 
Q 54.890625 44.34375 54.890625 33.015625 
z
" id="DejaVuSans-104"/>
    </defs>
    <g transform="translate(129.39375 44.7925)scale(0.2 -0.2)">
     <use xlink:href="#DejaVuSans-111"/>
     <use x="61.181641" xlink:href="#DejaVuSans-102"/>
     <use x="96.386719" xlink:href="#DejaVuSans-32"/>
     <use x="128.173828" xlink:href="#DejaVuSans-66"/>
     <use x="196.777344" xlink:href="#DejaVuSans-108"/>
     <use x="224.560547" xlink:href="#DejaVuSans-97"/>
     <use x="285.839844" xlink:href="#DejaVuSans-99"/>
     <use x="340.820312" xlink:href="#DejaVuSans-107"/>
     <use x="398.730469" xlink:href="#DejaVuSans-45"/>
     <use x="434.814453" xlink:href="#DejaVuSans-83"/>
     <use x="498.291016" xlink:href="#DejaVuSans-99"/>
     <use x="553.271484" xlink:href="#DejaVuSans-104"/>
     <use x="616.650391" xlink:href="#DejaVuSans-111"/>
     <use x="677.832031" xlink:href="#DejaVuSans-108"/>
     <use x="705.615234" xlink:href="#DejaVuSans-101"/>
     <use x="767.138672" xlink:href="#DejaVuSans-115"/>
    </g>
   </g>
   <g id="legend_1">
    <g id="patch_7">
     <path d="M 50.91875 88.14875 
L 164.707812 88.14875 
Q 166.707812 88.14875 166.707812 86.14875 
L 166.707812 57.7925 
Q 166.707812 55.7925 164.707812 55.7925 
L 50.91875 55.7925 
Q 48.91875 55.7925 48.91875 57.7925 
L 48.91875 86.14875 
Q 48.91875 88.14875 50.91875 88.14875 
z
" style="fill:#ffffff;opacity:0.8;stroke:#cccccc;stroke-linejoin:miter;"/>
    </g>
    <g id="line2d_13">
     <path d="M 52.91875 63.890937 
L 72.91875 63.890937 
" style="fill:none;stroke:#000000;stroke-linecap:square;stroke-width:1.5;"/>
    </g>
    <g id="line2d_14"/>
    <g id="text_15">
     <!-- Exact solution -->
     <g transform="translate(80.91875 67.390937)scale(0.1 -0.1)">
      <use xlink:href="#DejaVuSans-69"/>
      <use x="63.183594" xlink:href="#DejaVuSans-120"/>
      <use x="122.363281" xlink:href="#DejaVuSans-97"/>
      <use x="183.642578" xlink:href="#DejaVuSans-99"/>
      <use x="238.623047" xlink:href="#DejaVuSans-116"/>
      <use x="277.832031" xlink:href="#DejaVuSans-32"/>
      <use x="309.619141" xlink:href="#DejaVuSans-115"/>
      <use x="361.71875" xlink:href="#DejaVuSans-111"/>
      <use x="422.900391" xlink:href="#DejaVuSans-108"/>
      <use x="450.683594" xlink:href="#DejaVuSans-117"/>
      <use x="514.0625" xlink:href="#DejaVuSans-116"/>
      <use x="553.271484" xlink:href="#DejaVuSans-105"/>
      <use x="581.054688" xlink:href="#DejaVuSans-111"/>
      <use x="642.236328" xlink:href="#DejaVuSans-110"/>
     </g>
    </g>
    <g id="PathCollection_2">
     <g>
      <use style="fill:#ff0000;stroke:#ff0000;stroke-width:1.5;" x="62.91875" xlink:href="#mc6876a30f9" y="79.444062"/>
     </g>
    </g>
    <g id="text_16">
     <!-- Euler-Maruyama -->
     <defs>
      <path d="M 41.109375 46.296875 
Q 39.59375 47.171875 37.8125 47.578125 
Q 36.03125 48 33.890625 48 
Q 26.265625 48 22.1875 43.046875 
Q 18.109375 38.09375 18.109375 28.8125 
L 18.109375 0 
L 9.078125 0 
L 9.078125 54.6875 
L 18.109375 54.6875 
L 18.109375 46.1875 
Q 20.953125 51.171875 25.484375 53.578125 
Q 30.03125 56 36.53125 56 
Q 37.453125 56 38.578125 55.875 
Q 39.703125 55.765625 41.0625 55.515625 
z
" id="DejaVuSans-114"/>
      <path d="M 32.171875 -5.078125 
Q 28.375 -14.84375 24.75 -17.8125 
Q 21.140625 -20.796875 15.09375 -20.796875 
L 7.90625 -20.796875 
L 7.90625 -13.28125 
L 13.1875 -13.28125 
Q 16.890625 -13.28125 18.9375 -11.515625 
Q 21 -9.765625 23.484375 -3.21875 
L 25.09375 0.875 
L 2.984375 54.6875 
L 12.5 54.6875 
L 29.59375 11.921875 
L 46.6875 54.6875 
L 56.203125 54.6875 
z
" id="DejaVuSans-121"/>
      <path d="M 52 44.1875 
Q 55.375 50.25 60.0625 53.125 
Q 64.75 56 71.09375 56 
Q 79.640625 56 84.28125 50.015625 
Q 88.921875 44.046875 88.921875 33.015625 
L 88.921875 0 
L 79.890625 0 
L 79.890625 32.71875 
Q 79.890625 40.578125 77.09375 44.375 
Q 74.3125 48.1875 68.609375 48.1875 
Q 61.625 48.1875 57.5625 43.546875 
Q 53.515625 38.921875 53.515625 30.90625 
L 53.515625 0 
L 44.484375 0 
L 44.484375 32.71875 
Q 44.484375 40.625 41.703125 44.40625 
Q 38.921875 48.1875 33.109375 48.1875 
Q 26.21875 48.1875 22.15625 43.53125 
Q 18.109375 38.875 18.109375 30.90625 
L 18.109375 0 
L 9.078125 0 
L 9.078125 54.6875 
L 18.109375 54.6875 
L 18.109375 46.1875 
Q 21.1875 51.21875 25.484375 53.609375 
Q 29.78125 56 35.6875 56 
Q 41.65625 56 45.828125 52.96875 
Q 50 49.953125 52 44.1875 
z
" id="DejaVuSans-109"/>
     </defs>
     <g transform="translate(80.91875 82.069062)scale(0.1 -0.1)">
      <use xlink:href="#DejaVuSans-69"/>
      <use x="63.183594" xlink:href="#DejaVuSans-117"/>
      <use x="126.5625" xlink:href="#DejaVuSans-108"/>
      <use x="154.345703" xlink:href="#DejaVuSans-101"/>
      <use x="215.869141" xlink:href="#DejaVuSans-114"/>
      <use x="250.607422" xlink:href="#DejaVuSans-45"/>
      <use x="286.691406" xlink:href="#DejaVuSans-77"/>
      <use x="372.970703" xlink:href="#DejaVuSans-97"/>
      <use x="434.25" xlink:href="#DejaVuSans-114"/>
      <use x="475.363281" xlink:href="#DejaVuSans-117"/>
      <use x="538.742188" xlink:href="#DejaVuSans-121"/>
      <use x="597.921875" xlink:href="#DejaVuSans-97"/>
      <use x="659.201172" xlink:href="#DejaVuSans-109"/>
      <use x="756.613281" xlink:href="#DejaVuSans-97"/>
     </g>
    </g>
   </g>
  </g>
 </g>
 <defs>
  <clipPath id="p2ccceb88ef">
   <rect height="217.44" width="334.8" x="43.91875" y="50.7925"/>
  </clipPath>
 </defs>
</svg>
