<?xml version="1.0" encoding="utf-8" standalone="no"?>
<!DOCTYPE svg PUBLIC "-//W3C//DTD SVG 1.1//EN"
  "http://www.w3.org/Graphics/SVG/1.1/DTD/svg11.dtd">
<!-- Created with matplotlib (https://matplotlib.org/) -->
<svg height="293.07125pt" version="1.1" viewBox="0 0 402.25 293.07125" width="402.25pt" xmlns="http://www.w3.org/2000/svg" xmlns:xlink="http://www.w3.org/1999/xlink">
 <defs>
  <style type="text/css">
*{stroke-linecap:butt;stroke-linejoin:round;}
  </style>
 </defs>
 <g id="figure_1">
  <g id="patch_1">
   <path d="M 0 293.07125 
L 402.25 293.07125 
L 402.25 0 
L 0 0 
z
" style="fill:none;"/>
  </g>
  <g id="axes_1">
   <g id="patch_2">
    <path d="M 52.298438 245.836875 
L 387.098437 245.836875 
L 387.098437 28.396875 
L 52.298438 28.396875 
z
" style="fill:#ffffff;"/>
   </g>
   <g id="matplotlib.axis_1">
    <g id="xtick_1">
     <g id="line2d_1">
      <defs>
       <path d="M 0 0 
L 0 3.5 
" id="m7b5267540a" style="stroke:#000000;stroke-width:0.8;"/>
      </defs>
      <g>
       <use style="stroke:#000000;stroke-width:0.8;" x="52.298438" xlink:href="#m7b5267540a" y="245.836875"/>
      </g>
     </g>
     <g id="text_1">
      <!-- 0.0 -->
      <defs>
       <path d="M 31.78125 66.40625 
Q 24.171875 66.40625 20.328125 58.90625 
Q 16.5 51.421875 16.5 36.375 
Q 16.5 21.390625 20.328125 13.890625 
Q 24.171875 6.390625 31.78125 6.390625 
Q 39.453125 6.390625 43.28125 13.890625 
Q 47.125 21.390625 47.125 36.375 
Q 47.125 51.421875 43.28125 58.90625 
Q 39.453125 66.40625 31.78125 66.40625 
z
M 31.78125 74.21875 
Q 44.046875 74.21875 50.515625 64.515625 
Q 56.984375 54.828125 56.984375 36.375 
Q 56.984375 17.96875 50.515625 8.265625 
Q 44.046875 -1.421875 31.78125 -1.421875 
Q 19.53125 -1.421875 13.0625 8.265625 
Q 6.59375 17.96875 6.59375 36.375 
Q 6.59375 54.828125 13.0625 64.515625 
Q 19.53125 74.21875 31.78125 74.21875 
z
" id="DejaVuSans-48"/>
       <path d="M 10.6875 12.40625 
L 21 12.40625 
L 21 0 
L 10.6875 0 
z
" id="DejaVuSans-46"/>
      </defs>
      <g transform="translate(44.346875 260.435312)scale(0.1 -0.1)">
       <use xlink:href="#DejaVuSans-48"/>
       <use x="63.623047" xlink:href="#DejaVuSans-46"/>
       <use x="95.410156" xlink:href="#DejaVuSans-48"/>
      </g>
     </g>
    </g>
    <g id="xtick_2">
     <g id="line2d_2">
      <g>
       <use style="stroke:#000000;stroke-width:0.8;" x="119.258437" xlink:href="#m7b5267540a" y="245.836875"/>
      </g>
     </g>
     <g id="text_2">
      <!-- 0.2 -->
      <defs>
       <path d="M 19.1875 8.296875 
L 53.609375 8.296875 
L 53.609375 0 
L 7.328125 0 
L 7.328125 8.296875 
Q 12.9375 14.109375 22.625 23.890625 
Q 32.328125 33.6875 34.8125 36.53125 
Q 39.546875 41.84375 41.421875 45.53125 
Q 43.3125 49.21875 43.3125 52.78125 
Q 43.3125 58.59375 39.234375 62.25 
Q 35.15625 65.921875 28.609375 65.921875 
Q 23.96875 65.921875 18.8125 64.3125 
Q 13.671875 62.703125 7.8125 59.421875 
L 7.8125 69.390625 
Q 13.765625 71.78125 18.9375 73 
Q 24.125 74.21875 28.421875 74.21875 
Q 39.75 74.21875 46.484375 68.546875 
Q 53.21875 62.890625 53.21875 53.421875 
Q 53.21875 48.921875 51.53125 44.890625 
Q 49.859375 40.875 45.40625 35.40625 
Q 44.1875 33.984375 37.640625 27.21875 
Q 31.109375 20.453125 19.1875 8.296875 
z
" id="DejaVuSans-50"/>
      </defs>
      <g transform="translate(111.306875 260.435312)scale(0.1 -0.1)">
       <use xlink:href="#DejaVuSans-48"/>
       <use x="63.623047" xlink:href="#DejaVuSans-46"/>
       <use x="95.410156" xlink:href="#DejaVuSans-50"/>
      </g>
     </g>
    </g>
    <g id="xtick_3">
     <g id="line2d_3">
      <g>
       <use style="stroke:#000000;stroke-width:0.8;" x="186.218437" xlink:href="#m7b5267540a" y="245.836875"/>
      </g>
     </g>
     <g id="text_3">
      <!-- 0.4 -->
      <defs>
       <path d="M 37.796875 64.3125 
L 12.890625 25.390625 
L 37.796875 25.390625 
z
M 35.203125 72.90625 
L 47.609375 72.90625 
L 47.609375 25.390625 
L 58.015625 25.390625 
L 58.015625 17.1875 
L 47.609375 17.1875 
L 47.609375 0 
L 37.796875 0 
L 37.796875 17.1875 
L 4.890625 17.1875 
L 4.890625 26.703125 
z
" id="DejaVuSans-52"/>
      </defs>
      <g transform="translate(178.266875 260.435312)scale(0.1 -0.1)">
       <use xlink:href="#DejaVuSans-48"/>
       <use x="63.623047" xlink:href="#DejaVuSans-46"/>
       <use x="95.410156" xlink:href="#DejaVuSans-52"/>
      </g>
     </g>
    </g>
    <g id="xtick_4">
     <g id="line2d_4">
      <g>
       <use style="stroke:#000000;stroke-width:0.8;" x="253.178438" xlink:href="#m7b5267540a" y="245.836875"/>
      </g>
     </g>
     <g id="text_4">
      <!-- 0.6 -->
      <defs>
       <path d="M 33.015625 40.375 
Q 26.375 40.375 22.484375 35.828125 
Q 18.609375 31.296875 18.609375 23.390625 
Q 18.609375 15.53125 22.484375 10.953125 
Q 26.375 6.390625 33.015625 6.390625 
Q 39.65625 6.390625 43.53125 10.953125 
Q 47.40625 15.53125 47.40625 23.390625 
Q 47.40625 31.296875 43.53125 35.828125 
Q 39.65625 40.375 33.015625 40.375 
z
M 52.59375 71.296875 
L 52.59375 62.3125 
Q 48.875 64.0625 45.09375 64.984375 
Q 41.3125 65.921875 37.59375 65.921875 
Q 27.828125 65.921875 22.671875 59.328125 
Q 17.53125 52.734375 16.796875 39.40625 
Q 19.671875 43.65625 24.015625 45.921875 
Q 28.375 48.1875 33.59375 48.1875 
Q 44.578125 48.1875 50.953125 41.515625 
Q 57.328125 34.859375 57.328125 23.390625 
Q 57.328125 12.15625 50.6875 5.359375 
Q 44.046875 -1.421875 33.015625 -1.421875 
Q 20.359375 -1.421875 13.671875 8.265625 
Q 6.984375 17.96875 6.984375 36.375 
Q 6.984375 53.65625 15.1875 63.9375 
Q 23.390625 74.21875 37.203125 74.21875 
Q 40.921875 74.21875 44.703125 73.484375 
Q 48.484375 72.75 52.59375 71.296875 
z
" id="DejaVuSans-54"/>
      </defs>
      <g transform="translate(245.226875 260.435312)scale(0.1 -0.1)">
       <use xlink:href="#DejaVuSans-48"/>
       <use x="63.623047" xlink:href="#DejaVuSans-46"/>
       <use x="95.410156" xlink:href="#DejaVuSans-54"/>
      </g>
     </g>
    </g>
    <g id="xtick_5">
     <g id="line2d_5">
      <g>
       <use style="stroke:#000000;stroke-width:0.8;" x="320.138438" xlink:href="#m7b5267540a" y="245.836875"/>
      </g>
     </g>
     <g id="text_5">
      <!-- 0.8 -->
      <defs>
       <path d="M 31.78125 34.625 
Q 24.75 34.625 20.71875 30.859375 
Q 16.703125 27.09375 16.703125 20.515625 
Q 16.703125 13.921875 20.71875 10.15625 
Q 24.75 6.390625 31.78125 6.390625 
Q 38.8125 6.390625 42.859375 10.171875 
Q 46.921875 13.96875 46.921875 20.515625 
Q 46.921875 27.09375 42.890625 30.859375 
Q 38.875 34.625 31.78125 34.625 
z
M 21.921875 38.8125 
Q 15.578125 40.375 12.03125 44.71875 
Q 8.5 49.078125 8.5 55.328125 
Q 8.5 64.0625 14.71875 69.140625 
Q 20.953125 74.21875 31.78125 74.21875 
Q 42.671875 74.21875 48.875 69.140625 
Q 55.078125 64.0625 55.078125 55.328125 
Q 55.078125 49.078125 51.53125 44.71875 
Q 48 40.375 41.703125 38.8125 
Q 48.828125 37.15625 52.796875 32.3125 
Q 56.78125 27.484375 56.78125 20.515625 
Q 56.78125 9.90625 50.3125 4.234375 
Q 43.84375 -1.421875 31.78125 -1.421875 
Q 19.734375 -1.421875 13.25 4.234375 
Q 6.78125 9.90625 6.78125 20.515625 
Q 6.78125 27.484375 10.78125 32.3125 
Q 14.796875 37.15625 21.921875 38.8125 
z
M 18.3125 54.390625 
Q 18.3125 48.734375 21.84375 45.5625 
Q 25.390625 42.390625 31.78125 42.390625 
Q 38.140625 42.390625 41.71875 45.5625 
Q 45.3125 48.734375 45.3125 54.390625 
Q 45.3125 60.0625 41.71875 63.234375 
Q 38.140625 66.40625 31.78125 66.40625 
Q 25.390625 66.40625 21.84375 63.234375 
Q 18.3125 60.0625 18.3125 54.390625 
z
" id="DejaVuSans-56"/>
      </defs>
      <g transform="translate(312.186875 260.435312)scale(0.1 -0.1)">
       <use xlink:href="#DejaVuSans-48"/>
       <use x="63.623047" xlink:href="#DejaVuSans-46"/>
       <use x="95.410156" xlink:href="#DejaVuSans-56"/>
      </g>
     </g>
    </g>
    <g id="xtick_6">
     <g id="line2d_6">
      <g>
       <use style="stroke:#000000;stroke-width:0.8;" x="387.098437" xlink:href="#m7b5267540a" y="245.836875"/>
      </g>
     </g>
     <g id="text_6">
      <!-- 1.0 -->
      <defs>
       <path d="M 12.40625 8.296875 
L 28.515625 8.296875 
L 28.515625 63.921875 
L 10.984375 60.40625 
L 10.984375 69.390625 
L 28.421875 72.90625 
L 38.28125 72.90625 
L 38.28125 8.296875 
L 54.390625 8.296875 
L 54.390625 0 
L 12.40625 0 
z
" id="DejaVuSans-49"/>
      </defs>
      <g transform="translate(379.146875 260.435312)scale(0.1 -0.1)">
       <use xlink:href="#DejaVuSans-49"/>
       <use x="63.623047" xlink:href="#DejaVuSans-46"/>
       <use x="95.410156" xlink:href="#DejaVuSans-48"/>
      </g>
     </g>
    </g>
    <g id="text_7">
     <!-- $t$ -->
     <defs>
      <path d="M 42.28125 54.6875 
L 40.921875 47.703125 
L 23 47.703125 
L 17.1875 18.015625 
Q 16.890625 16.359375 16.75 15.234375 
Q 16.609375 14.109375 16.609375 13.484375 
Q 16.609375 10.359375 18.484375 8.9375 
Q 20.359375 7.515625 24.515625 7.515625 
L 33.59375 7.515625 
L 32.078125 0 
L 23.484375 0 
Q 15.484375 0 11.546875 3.125 
Q 7.625 6.25 7.625 12.59375 
Q 7.625 13.71875 7.765625 15.0625 
Q 7.90625 16.40625 8.203125 18.015625 
L 14.015625 47.703125 
L 6.390625 47.703125 
L 7.8125 54.6875 
L 15.28125 54.6875 
L 18.3125 70.21875 
L 27.296875 70.21875 
L 24.3125 54.6875 
z
" id="DejaVuSans-Oblique-116"/>
     </defs>
     <g transform="translate(215.698437 281.711875)scale(0.2 -0.2)">
      <use transform="translate(0 0.78125)" xlink:href="#DejaVuSans-Oblique-116"/>
     </g>
    </g>
   </g>
   <g id="matplotlib.axis_2">
    <g id="ytick_1">
     <g id="line2d_7">
      <defs>
       <path d="M 0 0 
L -3.5 0 
" id="mc4d26378a8" style="stroke:#000000;stroke-width:0.8;"/>
      </defs>
      <g>
       <use style="stroke:#000000;stroke-width:0.8;" x="52.298438" xlink:href="#mc4d26378a8" y="245.836875"/>
      </g>
     </g>
     <g id="text_8">
      <!-- −2 -->
      <defs>
       <path d="M 10.59375 35.5 
L 73.1875 35.5 
L 73.1875 27.203125 
L 10.59375 27.203125 
z
" id="DejaVuSans-8722"/>
      </defs>
      <g transform="translate(30.55625 249.636094)scale(0.1 -0.1)">
       <use xlink:href="#DejaVuSans-8722"/>
       <use x="83.789062" xlink:href="#DejaVuSans-50"/>
      </g>
     </g>
    </g>
    <g id="ytick_2">
     <g id="line2d_8">
      <g>
       <use style="stroke:#000000;stroke-width:0.8;" x="52.298438" xlink:href="#mc4d26378a8" y="191.476875"/>
      </g>
     </g>
     <g id="text_9">
      <!-- −1 -->
      <g transform="translate(30.55625 195.276094)scale(0.1 -0.1)">
       <use xlink:href="#DejaVuSans-8722"/>
       <use x="83.789062" xlink:href="#DejaVuSans-49"/>
      </g>
     </g>
    </g>
    <g id="ytick_3">
     <g id="line2d_9">
      <g>
       <use style="stroke:#000000;stroke-width:0.8;" x="52.298438" xlink:href="#mc4d26378a8" y="137.116875"/>
      </g>
     </g>
     <g id="text_10">
      <!-- 0 -->
      <g transform="translate(38.935938 140.916094)scale(0.1 -0.1)">
       <use xlink:href="#DejaVuSans-48"/>
      </g>
     </g>
    </g>
    <g id="ytick_4">
     <g id="line2d_10">
      <g>
       <use style="stroke:#000000;stroke-width:0.8;" x="52.298438" xlink:href="#mc4d26378a8" y="82.756875"/>
      </g>
     </g>
     <g id="text_11">
      <!-- 1 -->
      <g transform="translate(38.935938 86.556094)scale(0.1 -0.1)">
       <use xlink:href="#DejaVuSans-49"/>
      </g>
     </g>
    </g>
    <g id="ytick_5">
     <g id="line2d_11">
      <g>
       <use style="stroke:#000000;stroke-width:0.8;" x="52.298438" xlink:href="#mc4d26378a8" y="28.396875"/>
      </g>
     </g>
     <g id="text_12">
      <!-- 2 -->
      <g transform="translate(38.935938 32.196094)scale(0.1 -0.1)">
       <use xlink:href="#DejaVuSans-50"/>
      </g>
     </g>
    </g>
    <g id="text_13">
     <!-- $W(t)$ -->
     <defs>
      <path d="M 9.625 72.90625 
L 19.1875 72.90625 
L 22.703125 10.890625 
L 50.203125 72.90625 
L 61.1875 72.90625 
L 64.796875 10.890625 
L 92 72.90625 
L 102 72.90625 
L 69.578125 0 
L 57.171875 0 
L 53.8125 60.796875 
L 26.515625 0 
L 14.109375 0 
z
" id="DejaVuSans-Oblique-87"/>
      <path d="M 31 75.875 
Q 24.46875 64.65625 21.28125 53.65625 
Q 18.109375 42.671875 18.109375 31.390625 
Q 18.109375 20.125 21.3125 9.0625 
Q 24.515625 -2 31 -13.1875 
L 23.1875 -13.1875 
Q 15.875 -1.703125 12.234375 9.375 
Q 8.59375 20.453125 8.59375 31.390625 
Q 8.59375 42.28125 12.203125 53.3125 
Q 15.828125 64.359375 23.1875 75.875 
z
" id="DejaVuSans-40"/>
      <path d="M 8.015625 75.875 
L 15.828125 75.875 
Q 23.140625 64.359375 26.78125 53.3125 
Q 30.421875 42.28125 30.421875 31.390625 
Q 30.421875 20.453125 26.78125 9.375 
Q 23.140625 -1.703125 15.828125 -13.1875 
L 8.015625 -13.1875 
Q 14.5 -2 17.703125 9.0625 
Q 20.90625 20.125 20.90625 31.390625 
Q 20.90625 42.671875 17.703125 53.65625 
Q 14.5 64.65625 8.015625 75.875 
z
" id="DejaVuSans-41"/>
     </defs>
     <g transform="translate(22.396875 158.816875)rotate(-90)scale(0.2 -0.2)">
      <use transform="translate(0 0.125)" xlink:href="#DejaVuSans-Oblique-87"/>
      <use transform="translate(98.876953 0.125)" xlink:href="#DejaVuSans-40"/>
      <use transform="translate(137.890625 0.125)" xlink:href="#DejaVuSans-Oblique-116"/>
      <use transform="translate(177.099609 0.125)" xlink:href="#DejaVuSans-41"/>
     </g>
    </g>
   </g>
   <g id="line2d_12">
    <path clip-path="url(#pfc59f7124c)" d="M 52.298438 137.116875 
L 52.969379 132.82837 
L 53.640321 131.855567 
L 54.311263 129.476203 
L 55.653147 119.48834 
L 56.324089 121.864154 
L 56.995031 119.554439 
L 58.336914 120.173327 
L 59.007856 119.17514 
L 59.678798 118.824962 
L 60.34974 115.289546 
L 61.020682 113.439423 
L 61.691624 113.143625 
L 62.362566 112.064569 
L 63.033508 111.253389 
L 63.70445 107.621204 
L 64.375391 108.119955 
L 65.046333 107.35887 
L 65.717275 109.435222 
L 66.388217 115.641676 
L 67.059159 114.052695 
L 67.730101 111.951204 
L 68.401043 113.755447 
L 69.071985 108.237553 
L 69.742926 111.773193 
L 70.413868 111.661952 
L 71.08481 112.117006 
L 72.426694 104.818649 
L 73.097636 104.441963 
L 73.768578 103.52263 
L 74.43952 105.680884 
L 75.110462 110.496306 
L 75.781403 111.342099 
L 76.452345 110.962006 
L 77.794229 105.048055 
L 78.465171 105.989667 
L 79.136113 106.724581 
L 79.807055 109.273669 
L 80.477997 112.725808 
L 81.148939 116.873841 
L 81.81988 112.131403 
L 83.161764 114.435376 
L 83.832706 117.480988 
L 84.503648 115.590868 
L 85.17459 119.514339 
L 85.845532 120.031522 
L 86.516474 122.208449 
L 87.187415 121.267868 
L 87.858357 122.509663 
L 88.529299 125.379842 
L 89.200241 125.448355 
L 89.871183 124.407057 
L 90.542125 124.24535 
L 91.213067 123.510025 
L 91.884009 125.052096 
L 92.554951 125.933939 
L 93.225892 127.568726 
L 93.896834 128.442819 
L 94.567776 130.419621 
L 95.238718 134.616305 
L 95.90966 134.184973 
L 96.580602 135.161724 
L 97.251544 139.124823 
L 97.922486 137.999774 
L 98.593427 140.205465 
L 99.264369 140.079183 
L 99.935311 138.306725 
L 100.606253 137.993161 
L 101.277195 135.223217 
L 101.948137 138.225144 
L 102.619079 137.24703 
L 103.290021 138.91184 
L 103.960963 141.028794 
L 104.631904 142.436008 
L 105.302846 143.193409 
L 105.973788 143.056868 
L 106.64473 145.889409 
L 107.315672 143.699452 
L 107.986614 142.567402 
L 108.657556 146.302092 
L 109.328498 142.684072 
L 109.99944 138.075065 
L 110.670381 135.209389 
L 111.341323 135.646796 
L 112.012265 138.249852 
L 112.683207 135.686424 
L 113.354149 136.666569 
L 114.025091 133.69474 
L 114.696033 133.188412 
L 115.366975 130.814151 
L 116.037916 129.947805 
L 116.708858 128.230088 
L 117.3798 128.204562 
L 118.050742 123.863016 
L 118.721684 123.554486 
L 119.392626 122.577229 
L 120.063568 117.999189 
L 121.405452 124.36428 
L 122.076393 122.007625 
L 122.747335 124.85955 
L 123.418277 120.134504 
L 124.089219 121.140034 
L 124.760161 122.957136 
L 125.431103 118.282362 
L 126.102045 114.683152 
L 126.772987 110.143017 
L 127.443928 107.940374 
L 128.11487 110.034059 
L 128.785812 105.39059 
L 129.456754 106.04212 
L 130.127696 104.091306 
L 130.798638 101.788487 
L 131.46958 102.165324 
L 132.140522 100.672465 
L 132.811464 98.430531 
L 133.482405 97.515421 
L 134.153347 100.188123 
L 134.824289 99.46309 
L 135.495231 96.238575 
L 136.166173 97.927107 
L 136.837115 98.290876 
L 137.508057 99.348757 
L 138.178999 94.853099 
L 138.849941 93.218715 
L 139.520882 92.228154 
L 140.191824 94.09986 
L 140.862766 92.788917 
L 141.533708 94.428255 
L 142.20465 94.350874 
L 142.875592 95.896649 
L 144.217476 92.850481 
L 144.888417 93.356866 
L 145.559359 92.394153 
L 146.230301 95.051444 
L 146.901243 98.67677 
L 147.572185 97.608586 
L 148.243127 97.203393 
L 148.914069 95.659598 
L 149.585011 89.866047 
L 150.255953 87.569967 
L 150.926894 89.789086 
L 151.597836 87.07356 
L 152.268778 90.272601 
L 152.93972 91.394738 
L 153.610662 91.560637 
L 154.281604 87.39541 
L 155.623488 91.215064 
L 156.294429 91.454407 
L 156.965371 93.067358 
L 157.636313 90.328447 
L 158.978197 95.743375 
L 160.320081 98.018482 
L 160.991023 93.327687 
L 161.661965 91.019595 
L 162.332906 90.806753 
L 163.003848 93.785852 
L 163.67479 91.73316 
L 164.345732 94.164737 
L 165.016674 97.920158 
L 165.687616 95.031994 
L 166.358558 94.26149 
L 167.0295 92.022833 
L 167.700442 91.247989 
L 168.371383 89.164989 
L 169.042325 90.747666 
L 169.713267 93.261966 
L 170.384209 91.604973 
L 171.726093 95.234437 
L 172.397035 96.34186 
L 173.067977 96.299368 
L 173.738918 97.159946 
L 174.40986 100.502525 
L 175.080802 102.067196 
L 175.751744 107.472407 
L 176.422686 105.952436 
L 177.093628 109.847123 
L 177.76457 112.531938 
L 178.435512 112.405122 
L 179.106454 114.203039 
L 179.777395 110.451888 
L 180.448337 113.594892 
L 181.119279 112.945677 
L 181.790221 113.041176 
L 182.461163 115.880873 
L 183.132105 114.60876 
L 183.803047 115.025798 
L 185.14493 111.147552 
L 185.815872 105.888611 
L 186.486814 102.63944 
L 187.157756 103.536941 
L 187.828698 104.118884 
L 188.49964 101.445553 
L 189.841524 98.296379 
L 190.512466 102.227285 
L 191.183407 102.286423 
L 191.854349 104.080615 
L 192.525291 103.400104 
L 193.196233 103.638712 
L 193.867175 101.426019 
L 194.538117 100.654845 
L 195.209059 98.74324 
L 195.880001 99.877129 
L 196.550943 102.173128 
L 197.221884 103.169981 
L 197.892826 103.211358 
L 198.563768 102.28962 
L 199.23471 96.79712 
L 199.905652 96.89985 
L 200.576594 99.223803 
L 201.247536 100.064903 
L 201.918478 101.191929 
L 202.589419 100.021422 
L 203.260361 103.767182 
L 203.931303 103.613388 
L 204.602245 103.232913 
L 205.273187 102.668468 
L 205.944129 104.120575 
L 206.615071 104.698976 
L 207.286013 108.160943 
L 208.627896 110.679955 
L 209.298838 109.668516 
L 209.96978 112.479256 
L 210.640722 110.580122 
L 211.311664 106.946951 
L 211.982606 111.979195 
L 212.653548 110.942937 
L 213.32449 109.297338 
L 213.995431 110.846981 
L 214.666373 111.81277 
L 215.337315 112.13581 
L 216.679199 113.610982 
L 217.350141 117.685436 
L 218.692025 112.259447 
L 219.362967 114.236779 
L 220.033908 117.801734 
L 220.70485 116.534998 
L 221.375792 117.934769 
L 222.046734 117.589673 
L 222.717676 118.365977 
L 224.05956 114.995838 
L 224.730502 116.759804 
L 226.072385 123.971042 
L 226.743327 122.487177 
L 227.414269 125.377357 
L 228.756153 128.059126 
L 229.427095 128.18692 
L 230.098037 132.894119 
L 230.768979 132.435188 
L 231.43992 131.161581 
L 232.110862 130.946622 
L 232.781804 131.702403 
L 233.452746 131.465618 
L 234.123688 130.495515 
L 234.79463 137.235836 
L 235.465572 132.480909 
L 236.136514 131.532571 
L 236.807456 133.118611 
L 237.478397 134.06904 
L 238.149339 132.868727 
L 238.820281 133.150982 
L 239.491223 138.087684 
L 240.162165 133.068792 
L 240.833107 133.337522 
L 241.504049 130.857428 
L 242.174991 132.539838 
L 242.845932 128.804824 
L 243.516874 128.108707 
L 244.187816 126.628576 
L 244.858758 129.169642 
L 245.5297 126.225283 
L 246.200642 124.548299 
L 246.871584 121.383442 
L 247.542526 122.910356 
L 248.213468 124.079758 
L 248.884409 118.478814 
L 249.555351 121.055769 
L 250.226293 121.38627 
L 250.897235 118.622427 
L 251.568177 118.384852 
L 252.239119 116.967661 
L 252.910061 117.938743 
L 253.581003 117.039117 
L 254.251945 120.215353 
L 254.922886 116.18435 
L 255.593828 116.471613 
L 256.26477 118.125162 
L 256.935712 116.505149 
L 257.606654 117.625184 
L 258.948538 124.142779 
L 259.61948 122.456179 
L 260.961363 123.169146 
L 261.632305 120.549094 
L 262.303247 123.288467 
L 262.974189 125.064784 
L 263.645131 126.000447 
L 264.316073 125.771073 
L 264.987015 125.873594 
L 265.657957 126.571032 
L 266.99984 126.981714 
L 268.341724 130.70754 
L 269.012666 130.040176 
L 269.683608 132.206038 
L 270.35455 135.01963 
L 271.025492 135.778829 
L 271.696433 136.162126 
L 272.367375 130.675911 
L 273.038317 132.389075 
L 273.709259 130.095958 
L 274.380201 128.279504 
L 275.051143 131.169892 
L 275.722085 129.290073 
L 276.393027 132.168149 
L 277.063969 138.632738 
L 277.73491 137.158743 
L 278.405852 141.427407 
L 279.076794 140.331161 
L 279.747736 141.994028 
L 280.418678 137.959572 
L 281.08962 135.361969 
L 281.760562 136.464174 
L 282.431504 138.136343 
L 283.102446 141.08783 
L 283.773387 142.159736 
L 284.444329 142.841295 
L 285.115271 143.727885 
L 285.786213 143.346929 
L 286.457155 141.940513 
L 287.128097 141.090484 
L 287.799039 142.948159 
L 288.469981 146.443506 
L 289.140922 143.126257 
L 290.482806 146.388105 
L 291.153748 147.655144 
L 291.82469 152.135744 
L 293.166574 154.463793 
L 294.508458 151.257682 
L 295.179399 151.248515 
L 295.850341 148.983142 
L 296.521283 148.156669 
L 297.192225 148.194793 
L 297.863167 147.803568 
L 298.534109 148.267057 
L 299.205051 149.226957 
L 299.875993 149.877832 
L 300.546934 152.620087 
L 301.217876 151.938319 
L 301.888818 154.352655 
L 302.55976 152.306604 
L 303.230702 152.913051 
L 303.901644 152.792727 
L 304.572586 151.592183 
L 305.243528 150.028252 
L 305.91447 153.84652 
L 306.585411 154.349514 
L 307.256353 152.209753 
L 307.927295 156.337938 
L 308.598237 155.396439 
L 309.269179 160.879835 
L 309.940121 163.365603 
L 310.611063 163.271691 
L 311.282005 167.299253 
L 311.952947 169.695082 
L 312.623888 173.273191 
L 313.29483 169.266487 
L 313.965772 168.867241 
L 314.636714 167.488128 
L 315.307656 168.029463 
L 315.978598 168.888675 
L 316.64954 172.818409 
L 317.320482 173.527881 
L 317.991423 175.379109 
L 318.662365 173.293451 
L 319.333307 170.519371 
L 320.004249 166.954041 
L 320.675191 164.881442 
L 321.346133 166.336801 
L 322.017075 169.049606 
L 322.688017 167.185807 
L 323.358959 166.31964 
L 324.0299 170.619051 
L 324.700842 169.754856 
L 325.371784 167.774715 
L 326.042726 167.631464 
L 326.713668 168.081339 
L 327.38461 170.044776 
L 328.055552 173.561378 
L 328.726494 171.615811 
L 329.397435 172.367285 
L 330.068377 172.934855 
L 330.739319 168.722518 
L 331.410261 167.058459 
L 332.081203 166.156964 
L 332.752145 165.811604 
L 334.094029 157.936003 
L 334.764971 155.676327 
L 335.435912 154.260908 
L 336.106854 159.352999 
L 336.777796 159.052225 
L 337.448738 159.368521 
L 338.11968 159.140116 
L 338.790622 156.847521 
L 339.461564 163.507822 
L 340.132506 164.89185 
L 340.803448 164.235698 
L 341.474389 165.370624 
L 342.145331 168.815198 
L 342.816273 166.702702 
L 343.487215 166.029611 
L 344.158157 168.390418 
L 344.829099 167.625081 
L 345.500041 165.627762 
L 346.170983 165.614896 
L 346.841924 163.66868 
L 347.512866 163.478425 
L 348.183808 164.439248 
L 348.85475 167.257861 
L 349.525692 167.466763 
L 350.196634 166.994427 
L 350.867576 164.865231 
L 351.538518 165.145063 
L 352.20946 164.033061 
L 352.880401 166.378085 
L 353.551343 168.280698 
L 354.222285 168.54906 
L 354.893227 171.112918 
L 355.564169 169.118852 
L 356.235111 167.992957 
L 357.576995 166.490567 
L 358.247936 161.577302 
L 358.918878 162.717136 
L 359.58982 168.068957 
L 360.260762 167.584447 
L 360.931704 167.707467 
L 361.602646 168.965584 
L 362.273588 171.345171 
L 362.94453 172.412864 
L 363.615472 171.972021 
L 364.286413 173.194395 
L 364.957355 167.329592 
L 365.628297 169.664629 
L 366.299239 171.592739 
L 366.970181 177.156496 
L 367.641123 176.545124 
L 368.312065 181.447116 
L 368.983007 182.758559 
L 369.653949 183.428728 
L 370.32489 185.154115 
L 370.995832 180.926823 
L 371.666774 178.509397 
L 372.337716 175.302506 
L 373.008658 177.447713 
L 373.6796 174.70404 
L 374.350542 173.498236 
L 375.021484 171.622907 
L 375.692425 169.120287 
L 376.363367 171.329538 
L 377.034309 172.361077 
L 377.705251 170.26406 
L 378.376193 176.720011 
L 379.047135 173.04103 
L 379.718077 171.696337 
L 380.389019 171.807446 
L 381.059961 171.27138 
L 381.730902 173.775207 
L 382.401844 174.625938 
L 383.072786 171.951088 
L 383.743728 168.795528 
L 384.41467 162.240864 
L 385.085612 162.420579 
L 385.756554 164.021556 
L 386.427496 165.271686 
L 387.098437 167.7466 
L 387.098437 167.7466 
" style="fill:none;stroke:#000000;stroke-linecap:square;stroke-width:1.5;"/>
   </g>
   <g id="patch_3">
    <path d="M 52.298438 245.836875 
L 52.298438 28.396875 
" style="fill:none;stroke:#000000;stroke-linecap:square;stroke-linejoin:miter;stroke-width:0.8;"/>
   </g>
   <g id="patch_4">
    <path d="M 387.098437 245.836875 
L 387.098437 28.396875 
" style="fill:none;stroke:#000000;stroke-linecap:square;stroke-linejoin:miter;stroke-width:0.8;"/>
   </g>
   <g id="patch_5">
    <path d="M 52.298438 245.836875 
L 387.098437 245.836875 
" style="fill:none;stroke:#000000;stroke-linecap:square;stroke-linejoin:miter;stroke-width:0.8;"/>
   </g>
   <g id="patch_6">
    <path d="M 52.298438 28.396875 
L 387.098437 28.396875 
" style="fill:none;stroke:#000000;stroke-linecap:square;stroke-linejoin:miter;stroke-width:0.8;"/>
   </g>
   <g id="text_14">
    <!-- Sample from a Wiener process -->
    <defs>
     <path d="M 53.515625 70.515625 
L 53.515625 60.890625 
Q 47.90625 63.578125 42.921875 64.890625 
Q 37.9375 66.21875 33.296875 66.21875 
Q 25.25 66.21875 20.875 63.09375 
Q 16.5 59.96875 16.5 54.203125 
Q 16.5 49.359375 19.40625 46.890625 
Q 22.3125 44.4375 30.421875 42.921875 
L 36.375 41.703125 
Q 47.40625 39.59375 52.65625 34.296875 
Q 57.90625 29 57.90625 20.125 
Q 57.90625 9.515625 50.796875 4.046875 
Q 43.703125 -1.421875 29.984375 -1.421875 
Q 24.8125 -1.421875 18.96875 -0.25 
Q 13.140625 0.921875 6.890625 3.21875 
L 6.890625 13.375 
Q 12.890625 10.015625 18.65625 8.296875 
Q 24.421875 6.59375 29.984375 6.59375 
Q 38.421875 6.59375 43.015625 9.90625 
Q 47.609375 13.234375 47.609375 19.390625 
Q 47.609375 24.75 44.3125 27.78125 
Q 41.015625 30.8125 33.5 32.328125 
L 27.484375 33.5 
Q 16.453125 35.6875 11.515625 40.375 
Q 6.59375 45.0625 6.59375 53.421875 
Q 6.59375 63.09375 13.40625 68.65625 
Q 20.21875 74.21875 32.171875 74.21875 
Q 37.3125 74.21875 42.625 73.28125 
Q 47.953125 72.359375 53.515625 70.515625 
z
" id="DejaVuSans-83"/>
     <path d="M 34.28125 27.484375 
Q 23.390625 27.484375 19.1875 25 
Q 14.984375 22.515625 14.984375 16.5 
Q 14.984375 11.71875 18.140625 8.90625 
Q 21.296875 6.109375 26.703125 6.109375 
Q 34.1875 6.109375 38.703125 11.40625 
Q 43.21875 16.703125 43.21875 25.484375 
L 43.21875 27.484375 
z
M 52.203125 31.203125 
L 52.203125 0 
L 43.21875 0 
L 43.21875 8.296875 
Q 40.140625 3.328125 35.546875 0.953125 
Q 30.953125 -1.421875 24.3125 -1.421875 
Q 15.921875 -1.421875 10.953125 3.296875 
Q 6 8.015625 6 15.921875 
Q 6 25.140625 12.171875 29.828125 
Q 18.359375 34.515625 30.609375 34.515625 
L 43.21875 34.515625 
L 43.21875 35.40625 
Q 43.21875 41.609375 39.140625 45 
Q 35.0625 48.390625 27.6875 48.390625 
Q 23 48.390625 18.546875 47.265625 
Q 14.109375 46.140625 10.015625 43.890625 
L 10.015625 52.203125 
Q 14.9375 54.109375 19.578125 55.046875 
Q 24.21875 56 28.609375 56 
Q 40.484375 56 46.34375 49.84375 
Q 52.203125 43.703125 52.203125 31.203125 
z
" id="DejaVuSans-97"/>
     <path d="M 52 44.1875 
Q 55.375 50.25 60.0625 53.125 
Q 64.75 56 71.09375 56 
Q 79.640625 56 84.28125 50.015625 
Q 88.921875 44.046875 88.921875 33.015625 
L 88.921875 0 
L 79.890625 0 
L 79.890625 32.71875 
Q 79.890625 40.578125 77.09375 44.375 
Q 74.3125 48.1875 68.609375 48.1875 
Q 61.625 48.1875 57.5625 43.546875 
Q 53.515625 38.921875 53.515625 30.90625 
L 53.515625 0 
L 44.484375 0 
L 44.484375 32.71875 
Q 44.484375 40.625 41.703125 44.40625 
Q 38.921875 48.1875 33.109375 48.1875 
Q 26.21875 48.1875 22.15625 43.53125 
Q 18.109375 38.875 18.109375 30.90625 
L 18.109375 0 
L 9.078125 0 
L 9.078125 54.6875 
L 18.109375 54.6875 
L 18.109375 46.1875 
Q 21.1875 51.21875 25.484375 53.609375 
Q 29.78125 56 35.6875 56 
Q 41.65625 56 45.828125 52.96875 
Q 50 49.953125 52 44.1875 
z
" id="DejaVuSans-109"/>
     <path d="M 18.109375 8.203125 
L 18.109375 -20.796875 
L 9.078125 -20.796875 
L 9.078125 54.6875 
L 18.109375 54.6875 
L 18.109375 46.390625 
Q 20.953125 51.265625 25.265625 53.625 
Q 29.59375 56 35.59375 56 
Q 45.5625 56 51.78125 48.09375 
Q 58.015625 40.1875 58.015625 27.296875 
Q 58.015625 14.40625 51.78125 6.484375 
Q 45.5625 -1.421875 35.59375 -1.421875 
Q 29.59375 -1.421875 25.265625 0.953125 
Q 20.953125 3.328125 18.109375 8.203125 
z
M 48.6875 27.296875 
Q 48.6875 37.203125 44.609375 42.84375 
Q 40.53125 48.484375 33.40625 48.484375 
Q 26.265625 48.484375 22.1875 42.84375 
Q 18.109375 37.203125 18.109375 27.296875 
Q 18.109375 17.390625 22.1875 11.75 
Q 26.265625 6.109375 33.40625 6.109375 
Q 40.53125 6.109375 44.609375 11.75 
Q 48.6875 17.390625 48.6875 27.296875 
z
" id="DejaVuSans-112"/>
     <path d="M 9.421875 75.984375 
L 18.40625 75.984375 
L 18.40625 0 
L 9.421875 0 
z
" id="DejaVuSans-108"/>
     <path d="M 56.203125 29.59375 
L 56.203125 25.203125 
L 14.890625 25.203125 
Q 15.484375 15.921875 20.484375 11.0625 
Q 25.484375 6.203125 34.421875 6.203125 
Q 39.59375 6.203125 44.453125 7.46875 
Q 49.3125 8.734375 54.109375 11.28125 
L 54.109375 2.78125 
Q 49.265625 0.734375 44.1875 -0.34375 
Q 39.109375 -1.421875 33.890625 -1.421875 
Q 20.796875 -1.421875 13.15625 6.1875 
Q 5.515625 13.8125 5.515625 26.8125 
Q 5.515625 40.234375 12.765625 48.109375 
Q 20.015625 56 32.328125 56 
Q 43.359375 56 49.78125 48.890625 
Q 56.203125 41.796875 56.203125 29.59375 
z
M 47.21875 32.234375 
Q 47.125 39.59375 43.09375 43.984375 
Q 39.0625 48.390625 32.421875 48.390625 
Q 24.90625 48.390625 20.390625 44.140625 
Q 15.875 39.890625 15.1875 32.171875 
z
" id="DejaVuSans-101"/>
     <path id="DejaVuSans-32"/>
     <path d="M 37.109375 75.984375 
L 37.109375 68.5 
L 28.515625 68.5 
Q 23.6875 68.5 21.796875 66.546875 
Q 19.921875 64.59375 19.921875 59.515625 
L 19.921875 54.6875 
L 34.71875 54.6875 
L 34.71875 47.703125 
L 19.921875 47.703125 
L 19.921875 0 
L 10.890625 0 
L 10.890625 47.703125 
L 2.296875 47.703125 
L 2.296875 54.6875 
L 10.890625 54.6875 
L 10.890625 58.5 
Q 10.890625 67.625 15.140625 71.796875 
Q 19.390625 75.984375 28.609375 75.984375 
z
" id="DejaVuSans-102"/>
     <path d="M 41.109375 46.296875 
Q 39.59375 47.171875 37.8125 47.578125 
Q 36.03125 48 33.890625 48 
Q 26.265625 48 22.1875 43.046875 
Q 18.109375 38.09375 18.109375 28.8125 
L 18.109375 0 
L 9.078125 0 
L 9.078125 54.6875 
L 18.109375 54.6875 
L 18.109375 46.1875 
Q 20.953125 51.171875 25.484375 53.578125 
Q 30.03125 56 36.53125 56 
Q 37.453125 56 38.578125 55.875 
Q 39.703125 55.765625 41.0625 55.515625 
z
" id="DejaVuSans-114"/>
     <path d="M 30.609375 48.390625 
Q 23.390625 48.390625 19.1875 42.75 
Q 14.984375 37.109375 14.984375 27.296875 
Q 14.984375 17.484375 19.15625 11.84375 
Q 23.34375 6.203125 30.609375 6.203125 
Q 37.796875 6.203125 41.984375 11.859375 
Q 46.1875 17.53125 46.1875 27.296875 
Q 46.1875 37.015625 41.984375 42.703125 
Q 37.796875 48.390625 30.609375 48.390625 
z
M 30.609375 56 
Q 42.328125 56 49.015625 48.375 
Q 55.71875 40.765625 55.71875 27.296875 
Q 55.71875 13.875 49.015625 6.21875 
Q 42.328125 -1.421875 30.609375 -1.421875 
Q 18.84375 -1.421875 12.171875 6.21875 
Q 5.515625 13.875 5.515625 27.296875 
Q 5.515625 40.765625 12.171875 48.375 
Q 18.84375 56 30.609375 56 
z
" id="DejaVuSans-111"/>
     <path d="M 3.328125 72.90625 
L 13.28125 72.90625 
L 28.609375 11.28125 
L 43.890625 72.90625 
L 54.984375 72.90625 
L 70.3125 11.28125 
L 85.59375 72.90625 
L 95.609375 72.90625 
L 77.296875 0 
L 64.890625 0 
L 49.515625 63.28125 
L 33.984375 0 
L 21.578125 0 
z
" id="DejaVuSans-87"/>
     <path d="M 9.421875 54.6875 
L 18.40625 54.6875 
L 18.40625 0 
L 9.421875 0 
z
M 9.421875 75.984375 
L 18.40625 75.984375 
L 18.40625 64.59375 
L 9.421875 64.59375 
z
" id="DejaVuSans-105"/>
     <path d="M 54.890625 33.015625 
L 54.890625 0 
L 45.90625 0 
L 45.90625 32.71875 
Q 45.90625 40.484375 42.875 44.328125 
Q 39.84375 48.1875 33.796875 48.1875 
Q 26.515625 48.1875 22.3125 43.546875 
Q 18.109375 38.921875 18.109375 30.90625 
L 18.109375 0 
L 9.078125 0 
L 9.078125 54.6875 
L 18.109375 54.6875 
L 18.109375 46.1875 
Q 21.34375 51.125 25.703125 53.5625 
Q 30.078125 56 35.796875 56 
Q 45.21875 56 50.046875 50.171875 
Q 54.890625 44.34375 54.890625 33.015625 
z
" id="DejaVuSans-110"/>
     <path d="M 48.78125 52.59375 
L 48.78125 44.1875 
Q 44.96875 46.296875 41.140625 47.34375 
Q 37.3125 48.390625 33.40625 48.390625 
Q 24.65625 48.390625 19.8125 42.84375 
Q 14.984375 37.3125 14.984375 27.296875 
Q 14.984375 17.28125 19.8125 11.734375 
Q 24.65625 6.203125 33.40625 6.203125 
Q 37.3125 6.203125 41.140625 7.25 
Q 44.96875 8.296875 48.78125 10.40625 
L 48.78125 2.09375 
Q 45.015625 0.34375 40.984375 -0.53125 
Q 36.96875 -1.421875 32.421875 -1.421875 
Q 20.0625 -1.421875 12.78125 6.34375 
Q 5.515625 14.109375 5.515625 27.296875 
Q 5.515625 40.671875 12.859375 48.328125 
Q 20.21875 56 33.015625 56 
Q 37.15625 56 41.109375 55.140625 
Q 45.0625 54.296875 48.78125 52.59375 
z
" id="DejaVuSans-99"/>
     <path d="M 44.28125 53.078125 
L 44.28125 44.578125 
Q 40.484375 46.53125 36.375 47.5 
Q 32.28125 48.484375 27.875 48.484375 
Q 21.1875 48.484375 17.84375 46.4375 
Q 14.5 44.390625 14.5 40.28125 
Q 14.5 37.15625 16.890625 35.375 
Q 19.28125 33.59375 26.515625 31.984375 
L 29.59375 31.296875 
Q 39.15625 29.25 43.1875 25.515625 
Q 47.21875 21.78125 47.21875 15.09375 
Q 47.21875 7.46875 41.1875 3.015625 
Q 35.15625 -1.421875 24.609375 -1.421875 
Q 20.21875 -1.421875 15.453125 -0.5625 
Q 10.6875 0.296875 5.421875 2 
L 5.421875 11.28125 
Q 10.40625 8.6875 15.234375 7.390625 
Q 20.0625 6.109375 24.8125 6.109375 
Q 31.15625 6.109375 34.5625 8.28125 
Q 37.984375 10.453125 37.984375 14.40625 
Q 37.984375 18.0625 35.515625 20.015625 
Q 33.0625 21.96875 24.703125 23.78125 
L 21.578125 24.515625 
Q 13.234375 26.265625 9.515625 29.90625 
Q 5.8125 33.546875 5.8125 39.890625 
Q 5.8125 47.609375 11.28125 51.796875 
Q 16.75 56 26.8125 56 
Q 31.78125 56 36.171875 55.265625 
Q 40.578125 54.546875 44.28125 53.078125 
z
" id="DejaVuSans-115"/>
    </defs>
    <g transform="translate(66.476562 22.396875)scale(0.2 -0.2)">
     <use xlink:href="#DejaVuSans-83"/>
     <use x="63.476562" xlink:href="#DejaVuSans-97"/>
     <use x="124.755859" xlink:href="#DejaVuSans-109"/>
     <use x="222.167969" xlink:href="#DejaVuSans-112"/>
     <use x="285.644531" xlink:href="#DejaVuSans-108"/>
     <use x="313.427734" xlink:href="#DejaVuSans-101"/>
     <use x="374.951172" xlink:href="#DejaVuSans-32"/>
     <use x="406.738281" xlink:href="#DejaVuSans-102"/>
     <use x="441.943359" xlink:href="#DejaVuSans-114"/>
     <use x="480.806641" xlink:href="#DejaVuSans-111"/>
     <use x="541.988281" xlink:href="#DejaVuSans-109"/>
     <use x="639.400391" xlink:href="#DejaVuSans-32"/>
     <use x="671.1875" xlink:href="#DejaVuSans-97"/>
     <use x="732.466797" xlink:href="#DejaVuSans-32"/>
     <use x="764.253906" xlink:href="#DejaVuSans-87"/>
     <use x="860.880859" xlink:href="#DejaVuSans-105"/>
     <use x="888.664062" xlink:href="#DejaVuSans-101"/>
     <use x="950.1875" xlink:href="#DejaVuSans-110"/>
     <use x="1013.566406" xlink:href="#DejaVuSans-101"/>
     <use x="1075.089844" xlink:href="#DejaVuSans-114"/>
     <use x="1116.203125" xlink:href="#DejaVuSans-32"/>
     <use x="1147.990234" xlink:href="#DejaVuSans-112"/>
     <use x="1211.466797" xlink:href="#DejaVuSans-114"/>
     <use x="1250.330078" xlink:href="#DejaVuSans-111"/>
     <use x="1311.511719" xlink:href="#DejaVuSans-99"/>
     <use x="1366.492188" xlink:href="#DejaVuSans-101"/>
     <use x="1428.015625" xlink:href="#DejaVuSans-115"/>
     <use x="1480.115234" xlink:href="#DejaVuSans-115"/>
    </g>
   </g>
  </g>
 </g>
 <defs>
  <clipPath id="pfc59f7124c">
   <rect height="217.44" width="334.8" x="52.298438" y="28.396875"/>
  </clipPath>
 </defs>
</svg>
