<?xml version="1.0" encoding="utf-8" standalone="no"?>
<!DOCTYPE svg PUBLIC "-//W3C//DTD SVG 1.1//EN"
  "http://www.w3.org/Graphics/SVG/1.1/DTD/svg11.dtd">
<!-- Created with matplotlib (https://matplotlib.org/) -->
<svg height="315.466875pt" version="1.1" viewBox="0 0 393.870312 315.466875" width="393.870312pt" xmlns="http://www.w3.org/2000/svg" xmlns:xlink="http://www.w3.org/1999/xlink">
 <defs>
  <style type="text/css">
*{stroke-linecap:butt;stroke-linejoin:round;}
  </style>
 </defs>
 <g id="figure_1">
  <g id="patch_1">
   <path d="M 0 315.466875 
L 393.870312 315.466875 
L 393.870312 0 
L 0 0 
z
" style="fill:none;"/>
  </g>
  <g id="axes_1">
   <g id="patch_2">
    <path d="M 43.91875 268.2325 
L 378.71875 268.2325 
L 378.71875 50.7925 
L 43.91875 50.7925 
z
" style="fill:#ffffff;"/>
   </g>
   <g id="PolyCollection_1">
    <defs>
     <path d="M 43.91875 -210.314375 
L 43.91875 -210.314375 
L 47.26675 -197.057428 
L 50.61475 -190.503682 
L 53.96275 -185.239493 
L 57.31075 -180.720189 
L 60.65875 -176.724219 
L 64.00675 -173.131826 
L 67.35475 -169.867817 
L 70.70275 -166.880323 
L 74.05075 -164.131187 
L 77.39875 -161.590991 
L 80.74675 -159.236253 
L 84.09475 -157.047714 
L 87.44275 -155.00924 
L 90.79075 -153.107082 
L 94.13875 -151.329364 
L 97.48675 -149.665709 
L 100.83475 -148.106965 
L 104.18275 -146.644995 
L 107.53075 -145.27252 
L 110.87875 -143.982988 
L 114.22675 -142.770472 
L 117.57475 -141.629591 
L 120.92275 -140.55544 
L 124.27075 -139.543533 
L 127.61875 -138.589755 
L 130.96675 -137.690325 
L 134.31475 -136.841756 
L 137.66275 -136.040831 
L 141.01075 -135.284572 
L 144.35875 -134.570221 
L 147.70675 -133.895218 
L 151.05475 -133.257185 
L 154.40275 -132.653909 
L 157.75075 -132.083328 
L 161.09875 -131.54352 
L 164.44675 -131.032692 
L 167.79475 -130.549165 
L 171.14275 -130.091374 
L 174.49075 -129.657851 
L 177.83875 -129.247222 
L 181.18675 -128.858198 
L 184.53475 -128.489573 
L 187.88275 -128.140213 
L 191.23075 -127.809053 
L 194.57875 -127.495093 
L 197.92675 -127.197392 
L 201.27475 -126.915066 
L 204.62275 -126.647283 
L 207.97075 -126.393259 
L 211.31875 -126.152255 
L 214.66675 -125.923576 
L 218.01475 -125.706566 
L 221.36275 -125.500606 
L 224.71075 -125.305112 
L 228.05875 -125.119535 
L 231.40675 -124.943353 
L 234.75475 -124.776075 
L 238.10275 -124.617238 
L 241.45075 -124.466402 
L 244.79875 -124.323154 
L 248.14675 -124.1871 
L 251.49475 -124.057871 
L 254.84275 -123.935115 
L 258.19075 -123.8185 
L 261.53875 -123.707712 
L 264.88675 -123.602454 
L 268.23475 -123.502444 
L 271.58275 -123.407415 
L 274.93075 -123.317113 
L 278.27875 -123.231301 
L 281.62675 -123.14975 
L 284.97475 -123.072246 
L 288.32275 -122.998585 
L 291.67075 -122.928572 
L 295.01875 -122.862026 
L 298.36675 -122.798771 
L 301.71475 -122.738644 
L 305.06275 -122.681487 
L 308.41075 -122.627152 
L 311.75875 -122.575498 
L 315.10675 -122.526391 
L 318.45475 -122.479705 
L 321.80275 -122.435318 
L 325.15075 -122.393118 
L 328.49875 -122.352994 
L 331.84675 -122.314844 
L 335.19475 -122.27857 
L 338.54275 -122.24408 
L 341.89075 -122.211284 
L 345.23875 -122.180099 
L 348.58675 -122.150445 
L 351.93475 -122.122247 
L 355.28275 -122.095433 
L 358.63075 -122.069934 
L 361.97875 -122.045685 
L 365.32675 -122.022626 
L 368.67475 -122.000696 
L 372.02275 -121.979842 
L 375.37075 -121.960009 
L 378.71875 -121.941148 
L 378.71875 -190.700152 
L 378.71875 -190.700152 
L 375.37075 -190.718849 
L 372.02275 -190.738501 
L 368.67475 -190.759155 
L 365.32675 -190.780862 
L 361.97875 -190.803677 
L 358.63075 -190.827655 
L 355.28275 -190.852855 
L 351.93475 -190.879339 
L 348.58675 -190.907171 
L 345.23875 -190.936421 
L 341.89075 -190.96716 
L 338.54275 -190.999463 
L 335.19475 -191.033408 
L 331.84675 -191.06908 
L 328.49875 -191.106564 
L 325.15075 -191.145952 
L 321.80275 -191.187339 
L 318.45475 -191.230827 
L 315.10675 -191.27652 
L 311.75875 -191.324529 
L 308.41075 -191.37497 
L 305.06275 -191.427964 
L 301.71475 -191.483639 
L 298.36675 -191.542129 
L 295.01875 -191.603573 
L 291.67075 -191.668119 
L 288.32275 -191.735921 
L 284.97475 -191.807139 
L 281.62675 -191.881943 
L 278.27875 -191.960509 
L 274.93075 -192.043022 
L 271.58275 -192.129677 
L 268.23475 -192.220677 
L 264.88675 -192.316234 
L 261.53875 -192.41657 
L 258.19075 -192.521917 
L 254.84275 -192.632518 
L 251.49475 -192.748628 
L 248.14675 -192.870512 
L 244.79875 -192.998446 
L 241.45075 -193.13272 
L 238.10275 -193.273636 
L 234.75475 -193.421509 
L 231.40675 -193.576667 
L 228.05875 -193.739452 
L 224.71075 -193.910221 
L 221.36275 -194.089344 
L 218.01475 -194.277208 
L 214.66675 -194.474213 
L 211.31875 -194.680776 
L 207.97075 -194.89733 
L 204.62275 -195.124323 
L 201.27475 -195.362219 
L 197.92675 -195.6115 
L 194.57875 -195.872661 
L 191.23075 -196.146216 
L 187.88275 -196.432694 
L 184.53475 -196.732639 
L 181.18675 -197.04661 
L 177.83875 -197.37518 
L 174.49075 -197.718936 
L 171.14275 -198.078476 
L 167.79475 -198.454409 
L 164.44675 -198.847354 
L 161.09875 -199.257933 
L 157.75075 -199.686775 
L 154.40275 -200.134507 
L 151.05475 -200.601754 
L 147.70675 -201.089132 
L 144.35875 -201.59724 
L 141.01075 -202.12666 
L 137.66275 -202.677941 
L 134.31475 -203.251595 
L 130.96675 -203.848082 
L 127.61875 -204.467796 
L 124.27075 -205.111052 
L 120.92275 -205.778059 
L 117.57475 -206.468903 
L 114.22675 -207.18351 
L 110.87875 -207.921615 
L 107.53075 -208.682714 
L 104.18275 -209.466008 
L 100.83475 -210.270337 
L 97.48675 -211.094086 
L 94.13875 -211.935078 
L 90.79075 -212.790422 
L 87.44275 -213.656327 
L 84.09475 -214.527837 
L 80.74675 -215.39848 
L 77.39875 -216.259773 
L 74.05075 -217.100496 
L 70.70275 -217.905622 
L 67.35475 -218.654622 
L 64.00675 -219.318681 
L 60.65875 -219.855752 
L 57.31075 -220.200968 
L 53.96275 -220.245428 
L 50.61475 -219.778992 
L 47.26675 -218.268985 
L 43.91875 -210.314375 
z
" id="m6d06360f88" style="stroke:#808080;stroke-opacity:0.3;"/>
    </defs>
    <g clip-path="url(#p33ba1a7e41)">
     <use style="fill:#808080;fill-opacity:0.3;stroke:#808080;stroke-opacity:0.3;" x="0" xlink:href="#m6d06360f88" y="315.466875"/>
    </g>
   </g>
   <g id="matplotlib.axis_1">
    <g id="xtick_1">
     <g id="line2d_1">
      <defs>
       <path d="M 0 0 
L 0 3.5 
" id="m6d8d099131" style="stroke:#000000;stroke-width:0.8;"/>
      </defs>
      <g>
       <use style="stroke:#000000;stroke-width:0.8;" x="43.91875" xlink:href="#m6d8d099131" y="268.2325"/>
      </g>
     </g>
     <g id="text_1">
      <!-- 0.0 -->
      <defs>
       <path d="M 31.78125 66.40625 
Q 24.171875 66.40625 20.328125 58.90625 
Q 16.5 51.421875 16.5 36.375 
Q 16.5 21.390625 20.328125 13.890625 
Q 24.171875 6.390625 31.78125 6.390625 
Q 39.453125 6.390625 43.28125 13.890625 
Q 47.125 21.390625 47.125 36.375 
Q 47.125 51.421875 43.28125 58.90625 
Q 39.453125 66.40625 31.78125 66.40625 
z
M 31.78125 74.21875 
Q 44.046875 74.21875 50.515625 64.515625 
Q 56.984375 54.828125 56.984375 36.375 
Q 56.984375 17.96875 50.515625 8.265625 
Q 44.046875 -1.421875 31.78125 -1.421875 
Q 19.53125 -1.421875 13.0625 8.265625 
Q 6.59375 17.96875 6.59375 36.375 
Q 6.59375 54.828125 13.0625 64.515625 
Q 19.53125 74.21875 31.78125 74.21875 
z
" id="DejaVuSans-48"/>
       <path d="M 10.6875 12.40625 
L 21 12.40625 
L 21 0 
L 10.6875 0 
z
" id="DejaVuSans-46"/>
      </defs>
      <g transform="translate(35.967188 282.830937)scale(0.1 -0.1)">
       <use xlink:href="#DejaVuSans-48"/>
       <use x="63.623047" xlink:href="#DejaVuSans-46"/>
       <use x="95.410156" xlink:href="#DejaVuSans-48"/>
      </g>
     </g>
    </g>
    <g id="xtick_2">
     <g id="line2d_2">
      <g>
       <use style="stroke:#000000;stroke-width:0.8;" x="110.87875" xlink:href="#m6d8d099131" y="268.2325"/>
      </g>
     </g>
     <g id="text_2">
      <!-- 0.2 -->
      <defs>
       <path d="M 19.1875 8.296875 
L 53.609375 8.296875 
L 53.609375 0 
L 7.328125 0 
L 7.328125 8.296875 
Q 12.9375 14.109375 22.625 23.890625 
Q 32.328125 33.6875 34.8125 36.53125 
Q 39.546875 41.84375 41.421875 45.53125 
Q 43.3125 49.21875 43.3125 52.78125 
Q 43.3125 58.59375 39.234375 62.25 
Q 35.15625 65.921875 28.609375 65.921875 
Q 23.96875 65.921875 18.8125 64.3125 
Q 13.671875 62.703125 7.8125 59.421875 
L 7.8125 69.390625 
Q 13.765625 71.78125 18.9375 73 
Q 24.125 74.21875 28.421875 74.21875 
Q 39.75 74.21875 46.484375 68.546875 
Q 53.21875 62.890625 53.21875 53.421875 
Q 53.21875 48.921875 51.53125 44.890625 
Q 49.859375 40.875 45.40625 35.40625 
Q 44.1875 33.984375 37.640625 27.21875 
Q 31.109375 20.453125 19.1875 8.296875 
z
" id="DejaVuSans-50"/>
      </defs>
      <g transform="translate(102.927188 282.830937)scale(0.1 -0.1)">
       <use xlink:href="#DejaVuSans-48"/>
       <use x="63.623047" xlink:href="#DejaVuSans-46"/>
       <use x="95.410156" xlink:href="#DejaVuSans-50"/>
      </g>
     </g>
    </g>
    <g id="xtick_3">
     <g id="line2d_3">
      <g>
       <use style="stroke:#000000;stroke-width:0.8;" x="177.83875" xlink:href="#m6d8d099131" y="268.2325"/>
      </g>
     </g>
     <g id="text_3">
      <!-- 0.4 -->
      <defs>
       <path d="M 37.796875 64.3125 
L 12.890625 25.390625 
L 37.796875 25.390625 
z
M 35.203125 72.90625 
L 47.609375 72.90625 
L 47.609375 25.390625 
L 58.015625 25.390625 
L 58.015625 17.1875 
L 47.609375 17.1875 
L 47.609375 0 
L 37.796875 0 
L 37.796875 17.1875 
L 4.890625 17.1875 
L 4.890625 26.703125 
z
" id="DejaVuSans-52"/>
      </defs>
      <g transform="translate(169.887188 282.830937)scale(0.1 -0.1)">
       <use xlink:href="#DejaVuSans-48"/>
       <use x="63.623047" xlink:href="#DejaVuSans-46"/>
       <use x="95.410156" xlink:href="#DejaVuSans-52"/>
      </g>
     </g>
    </g>
    <g id="xtick_4">
     <g id="line2d_4">
      <g>
       <use style="stroke:#000000;stroke-width:0.8;" x="244.79875" xlink:href="#m6d8d099131" y="268.2325"/>
      </g>
     </g>
     <g id="text_4">
      <!-- 0.6 -->
      <defs>
       <path d="M 33.015625 40.375 
Q 26.375 40.375 22.484375 35.828125 
Q 18.609375 31.296875 18.609375 23.390625 
Q 18.609375 15.53125 22.484375 10.953125 
Q 26.375 6.390625 33.015625 6.390625 
Q 39.65625 6.390625 43.53125 10.953125 
Q 47.40625 15.53125 47.40625 23.390625 
Q 47.40625 31.296875 43.53125 35.828125 
Q 39.65625 40.375 33.015625 40.375 
z
M 52.59375 71.296875 
L 52.59375 62.3125 
Q 48.875 64.0625 45.09375 64.984375 
Q 41.3125 65.921875 37.59375 65.921875 
Q 27.828125 65.921875 22.671875 59.328125 
Q 17.53125 52.734375 16.796875 39.40625 
Q 19.671875 43.65625 24.015625 45.921875 
Q 28.375 48.1875 33.59375 48.1875 
Q 44.578125 48.1875 50.953125 41.515625 
Q 57.328125 34.859375 57.328125 23.390625 
Q 57.328125 12.15625 50.6875 5.359375 
Q 44.046875 -1.421875 33.015625 -1.421875 
Q 20.359375 -1.421875 13.671875 8.265625 
Q 6.984375 17.96875 6.984375 36.375 
Q 6.984375 53.65625 15.1875 63.9375 
Q 23.390625 74.21875 37.203125 74.21875 
Q 40.921875 74.21875 44.703125 73.484375 
Q 48.484375 72.75 52.59375 71.296875 
z
" id="DejaVuSans-54"/>
      </defs>
      <g transform="translate(236.847188 282.830937)scale(0.1 -0.1)">
       <use xlink:href="#DejaVuSans-48"/>
       <use x="63.623047" xlink:href="#DejaVuSans-46"/>
       <use x="95.410156" xlink:href="#DejaVuSans-54"/>
      </g>
     </g>
    </g>
    <g id="xtick_5">
     <g id="line2d_5">
      <g>
       <use style="stroke:#000000;stroke-width:0.8;" x="311.75875" xlink:href="#m6d8d099131" y="268.2325"/>
      </g>
     </g>
     <g id="text_5">
      <!-- 0.8 -->
      <defs>
       <path d="M 31.78125 34.625 
Q 24.75 34.625 20.71875 30.859375 
Q 16.703125 27.09375 16.703125 20.515625 
Q 16.703125 13.921875 20.71875 10.15625 
Q 24.75 6.390625 31.78125 6.390625 
Q 38.8125 6.390625 42.859375 10.171875 
Q 46.921875 13.96875 46.921875 20.515625 
Q 46.921875 27.09375 42.890625 30.859375 
Q 38.875 34.625 31.78125 34.625 
z
M 21.921875 38.8125 
Q 15.578125 40.375 12.03125 44.71875 
Q 8.5 49.078125 8.5 55.328125 
Q 8.5 64.0625 14.71875 69.140625 
Q 20.953125 74.21875 31.78125 74.21875 
Q 42.671875 74.21875 48.875 69.140625 
Q 55.078125 64.0625 55.078125 55.328125 
Q 55.078125 49.078125 51.53125 44.71875 
Q 48 40.375 41.703125 38.8125 
Q 48.828125 37.15625 52.796875 32.3125 
Q 56.78125 27.484375 56.78125 20.515625 
Q 56.78125 9.90625 50.3125 4.234375 
Q 43.84375 -1.421875 31.78125 -1.421875 
Q 19.734375 -1.421875 13.25 4.234375 
Q 6.78125 9.90625 6.78125 20.515625 
Q 6.78125 27.484375 10.78125 32.3125 
Q 14.796875 37.15625 21.921875 38.8125 
z
M 18.3125 54.390625 
Q 18.3125 48.734375 21.84375 45.5625 
Q 25.390625 42.390625 31.78125 42.390625 
Q 38.140625 42.390625 41.71875 45.5625 
Q 45.3125 48.734375 45.3125 54.390625 
Q 45.3125 60.0625 41.71875 63.234375 
Q 38.140625 66.40625 31.78125 66.40625 
Q 25.390625 66.40625 21.84375 63.234375 
Q 18.3125 60.0625 18.3125 54.390625 
z
" id="DejaVuSans-56"/>
      </defs>
      <g transform="translate(303.807187 282.830937)scale(0.1 -0.1)">
       <use xlink:href="#DejaVuSans-48"/>
       <use x="63.623047" xlink:href="#DejaVuSans-46"/>
       <use x="95.410156" xlink:href="#DejaVuSans-56"/>
      </g>
     </g>
    </g>
    <g id="xtick_6">
     <g id="line2d_6">
      <g>
       <use style="stroke:#000000;stroke-width:0.8;" x="378.71875" xlink:href="#m6d8d099131" y="268.2325"/>
      </g>
     </g>
     <g id="text_6">
      <!-- 1.0 -->
      <defs>
       <path d="M 12.40625 8.296875 
L 28.515625 8.296875 
L 28.515625 63.921875 
L 10.984375 60.40625 
L 10.984375 69.390625 
L 28.421875 72.90625 
L 38.28125 72.90625 
L 38.28125 8.296875 
L 54.390625 8.296875 
L 54.390625 0 
L 12.40625 0 
z
" id="DejaVuSans-49"/>
      </defs>
      <g transform="translate(370.767187 282.830937)scale(0.1 -0.1)">
       <use xlink:href="#DejaVuSans-49"/>
       <use x="63.623047" xlink:href="#DejaVuSans-46"/>
       <use x="95.410156" xlink:href="#DejaVuSans-48"/>
      </g>
     </g>
    </g>
    <g id="text_7">
     <!-- $t$ -->
     <defs>
      <path d="M 42.28125 54.6875 
L 40.921875 47.703125 
L 23 47.703125 
L 17.1875 18.015625 
Q 16.890625 16.359375 16.75 15.234375 
Q 16.609375 14.109375 16.609375 13.484375 
Q 16.609375 10.359375 18.484375 8.9375 
Q 20.359375 7.515625 24.515625 7.515625 
L 33.59375 7.515625 
L 32.078125 0 
L 23.484375 0 
Q 15.484375 0 11.546875 3.125 
Q 7.625 6.25 7.625 12.59375 
Q 7.625 13.71875 7.765625 15.0625 
Q 7.90625 16.40625 8.203125 18.015625 
L 14.015625 47.703125 
L 6.390625 47.703125 
L 7.8125 54.6875 
L 15.28125 54.6875 
L 18.3125 70.21875 
L 27.296875 70.21875 
L 24.3125 54.6875 
z
" id="DejaVuSans-Oblique-116"/>
     </defs>
     <g transform="translate(207.31875 304.1075)scale(0.2 -0.2)">
      <use transform="translate(0 0.78125)" xlink:href="#DejaVuSans-Oblique-116"/>
     </g>
    </g>
   </g>
   <g id="matplotlib.axis_2">
    <g id="ytick_1">
     <g id="line2d_7">
      <defs>
       <path d="M 0 0 
L -3.5 0 
" id="ma4aff7c399" style="stroke:#000000;stroke-width:0.8;"/>
      </defs>
      <g>
       <use style="stroke:#000000;stroke-width:0.8;" x="43.91875" xlink:href="#ma4aff7c399" y="268.2325"/>
      </g>
     </g>
     <g id="text_8">
      <!-- 0 -->
      <g transform="translate(30.55625 272.031719)scale(0.1 -0.1)">
       <use xlink:href="#DejaVuSans-48"/>
      </g>
     </g>
    </g>
    <g id="ytick_2">
     <g id="line2d_8">
      <g>
       <use style="stroke:#000000;stroke-width:0.8;" x="43.91875" xlink:href="#ma4aff7c399" y="213.8725"/>
      </g>
     </g>
     <g id="text_9">
      <!-- 1 -->
      <g transform="translate(30.55625 217.671719)scale(0.1 -0.1)">
       <use xlink:href="#DejaVuSans-49"/>
      </g>
     </g>
    </g>
    <g id="ytick_3">
     <g id="line2d_9">
      <g>
       <use style="stroke:#000000;stroke-width:0.8;" x="43.91875" xlink:href="#ma4aff7c399" y="159.5125"/>
      </g>
     </g>
     <g id="text_10">
      <!-- 2 -->
      <g transform="translate(30.55625 163.311719)scale(0.1 -0.1)">
       <use xlink:href="#DejaVuSans-50"/>
      </g>
     </g>
    </g>
    <g id="ytick_4">
     <g id="line2d_10">
      <g>
       <use style="stroke:#000000;stroke-width:0.8;" x="43.91875" xlink:href="#ma4aff7c399" y="105.1525"/>
      </g>
     </g>
     <g id="text_11">
      <!-- 3 -->
      <defs>
       <path d="M 40.578125 39.3125 
Q 47.65625 37.796875 51.625 33 
Q 55.609375 28.21875 55.609375 21.1875 
Q 55.609375 10.40625 48.1875 4.484375 
Q 40.765625 -1.421875 27.09375 -1.421875 
Q 22.515625 -1.421875 17.65625 -0.515625 
Q 12.796875 0.390625 7.625 2.203125 
L 7.625 11.71875 
Q 11.71875 9.328125 16.59375 8.109375 
Q 21.484375 6.890625 26.8125 6.890625 
Q 36.078125 6.890625 40.9375 10.546875 
Q 45.796875 14.203125 45.796875 21.1875 
Q 45.796875 27.640625 41.28125 31.265625 
Q 36.765625 34.90625 28.71875 34.90625 
L 20.21875 34.90625 
L 20.21875 43.015625 
L 29.109375 43.015625 
Q 36.375 43.015625 40.234375 45.921875 
Q 44.09375 48.828125 44.09375 54.296875 
Q 44.09375 59.90625 40.109375 62.90625 
Q 36.140625 65.921875 28.71875 65.921875 
Q 24.65625 65.921875 20.015625 65.03125 
Q 15.375 64.15625 9.8125 62.3125 
L 9.8125 71.09375 
Q 15.4375 72.65625 20.34375 73.4375 
Q 25.25 74.21875 29.59375 74.21875 
Q 40.828125 74.21875 47.359375 69.109375 
Q 53.90625 64.015625 53.90625 55.328125 
Q 53.90625 49.265625 50.4375 45.09375 
Q 46.96875 40.921875 40.578125 39.3125 
z
" id="DejaVuSans-51"/>
      </defs>
      <g transform="translate(30.55625 108.951719)scale(0.1 -0.1)">
       <use xlink:href="#DejaVuSans-51"/>
      </g>
     </g>
    </g>
    <g id="ytick_5">
     <g id="line2d_11">
      <g>
       <use style="stroke:#000000;stroke-width:0.8;" x="43.91875" xlink:href="#ma4aff7c399" y="50.7925"/>
      </g>
     </g>
     <g id="text_12">
      <!-- 4 -->
      <g transform="translate(30.55625 54.591719)scale(0.1 -0.1)">
       <use xlink:href="#DejaVuSans-52"/>
      </g>
     </g>
    </g>
    <g id="text_13">
     <!-- $X(t)$ -->
     <defs>
      <path d="M 13.71875 72.90625 
L 23.6875 72.90625 
L 36.1875 46.578125 
L 58.796875 72.90625 
L 70.3125 72.90625 
L 40.28125 38.09375 
L 58.40625 0 
L 48.484375 0 
L 33.796875 30.71875 
L 7.171875 0 
L -4.296875 0 
L 29.78125 39.203125 
z
" id="DejaVuSans-Oblique-88"/>
      <path d="M 31 75.875 
Q 24.46875 64.65625 21.28125 53.65625 
Q 18.109375 42.671875 18.109375 31.390625 
Q 18.109375 20.125 21.3125 9.0625 
Q 24.515625 -2 31 -13.1875 
L 23.1875 -13.1875 
Q 15.875 -1.703125 12.234375 9.375 
Q 8.59375 20.453125 8.59375 31.390625 
Q 8.59375 42.28125 12.203125 53.3125 
Q 15.828125 64.359375 23.1875 75.875 
z
" id="DejaVuSans-40"/>
      <path d="M 8.015625 75.875 
L 15.828125 75.875 
Q 23.140625 64.359375 26.78125 53.3125 
Q 30.421875 42.28125 30.421875 31.390625 
Q 30.421875 20.453125 26.78125 9.375 
Q 23.140625 -1.703125 15.828125 -13.1875 
L 8.015625 -13.1875 
Q 14.5 -2 17.703125 9.0625 
Q 20.90625 20.125 20.90625 31.390625 
Q 20.90625 42.671875 17.703125 53.65625 
Q 14.5 64.65625 8.015625 75.875 
z
" id="DejaVuSans-41"/>
     </defs>
     <g transform="translate(22.396875 178.1125)rotate(-90)scale(0.2 -0.2)">
      <use transform="translate(0 0.125)" xlink:href="#DejaVuSans-Oblique-88"/>
      <use transform="translate(68.505859 0.125)" xlink:href="#DejaVuSans-40"/>
      <use transform="translate(107.519531 0.125)" xlink:href="#DejaVuSans-Oblique-116"/>
      <use transform="translate(146.728516 0.125)" xlink:href="#DejaVuSans-41"/>
     </g>
    </g>
   </g>
   <g id="PathCollection_1">
    <defs>
     <path d="M -2.236068 2.236068 
L 2.236068 -2.236068 
M -2.236068 -2.236068 
L 2.236068 2.236068 
" id="m0863b4fd6d" style="stroke:#ff0000;stroke-width:1.5;"/>
    </defs>
    <g clip-path="url(#p33ba1a7e41)">
     <use style="fill:#ff0000;stroke:#ff0000;stroke-width:1.5;" x="43.91875" xlink:href="#m0863b4fd6d" y="105.1525"/>
     <use style="fill:#ff0000;stroke:#ff0000;stroke-width:1.5;" x="47.26675" xlink:href="#m0863b4fd6d" y="98.281111"/>
     <use style="fill:#ff0000;stroke:#ff0000;stroke-width:1.5;" x="50.61475" xlink:href="#m0863b4fd6d" y="99.167426"/>
     <use style="fill:#ff0000;stroke:#ff0000;stroke-width:1.5;" x="53.96275" xlink:href="#m0863b4fd6d" y="96.86426"/>
     <use style="fill:#ff0000;stroke:#ff0000;stroke-width:1.5;" x="57.31075" xlink:href="#m0863b4fd6d" y="87.815177"/>
     <use style="fill:#ff0000;stroke:#ff0000;stroke-width:1.5;" x="60.65875" xlink:href="#m0863b4fd6d" y="81.247998"/>
     <use style="fill:#ff0000;stroke:#ff0000;stroke-width:1.5;" x="64.00675" xlink:href="#m0863b4fd6d" y="90.473705"/>
     <use style="fill:#ff0000;stroke:#ff0000;stroke-width:1.5;" x="67.35475" xlink:href="#m0863b4fd6d" y="88.760965"/>
     <use style="fill:#ff0000;stroke:#ff0000;stroke-width:1.5;" x="70.70275" xlink:href="#m0863b4fd6d" y="93.121319"/>
     <use style="fill:#ff0000;stroke:#ff0000;stroke-width:1.5;" x="74.05075" xlink:href="#m0863b4fd6d" y="97.001976"/>
     <use style="fill:#ff0000;stroke:#ff0000;stroke-width:1.5;" x="77.39875" xlink:href="#m0863b4fd6d" y="97.895489"/>
     <use style="fill:#ff0000;stroke:#ff0000;stroke-width:1.5;" x="80.74675" xlink:href="#m0863b4fd6d" y="100.193318"/>
     <use style="fill:#ff0000;stroke:#ff0000;stroke-width:1.5;" x="84.09475" xlink:href="#m0863b4fd6d" y="95.253847"/>
     <use style="fill:#ff0000;stroke:#ff0000;stroke-width:1.5;" x="87.44275" xlink:href="#m0863b4fd6d" y="94.329778"/>
     <use style="fill:#ff0000;stroke:#ff0000;stroke-width:1.5;" x="90.79075" xlink:href="#m0863b4fd6d" y="96.927489"/>
     <use style="fill:#ff0000;stroke:#ff0000;stroke-width:1.5;" x="94.13875" xlink:href="#m0863b4fd6d" y="97.643899"/>
     <use style="fill:#ff0000;stroke:#ff0000;stroke-width:1.5;" x="97.48675" xlink:href="#m0863b4fd6d" y="98.923475"/>
     <use style="fill:#ff0000;stroke:#ff0000;stroke-width:1.5;" x="100.83475" xlink:href="#m0863b4fd6d" y="93.831113"/>
     <use style="fill:#ff0000;stroke:#ff0000;stroke-width:1.5;" x="104.18275" xlink:href="#m0863b4fd6d" y="98.230422"/>
     <use style="fill:#ff0000;stroke:#ff0000;stroke-width:1.5;" x="107.53075" xlink:href="#m0863b4fd6d" y="99.59269"/>
     <use style="fill:#ff0000;stroke:#ff0000;stroke-width:1.5;" x="110.87875" xlink:href="#m0863b4fd6d" y="107.231545"/>
     <use style="fill:#ff0000;stroke:#ff0000;stroke-width:1.5;" x="114.22675" xlink:href="#m0863b4fd6d" y="123.723646"/>
     <use style="fill:#ff0000;stroke:#ff0000;stroke-width:1.5;" x="117.57475" xlink:href="#m0863b4fd6d" y="121.960018"/>
     <use style="fill:#ff0000;stroke:#ff0000;stroke-width:1.5;" x="120.92275" xlink:href="#m0863b4fd6d" y="119.138567"/>
     <use style="fill:#ff0000;stroke:#ff0000;stroke-width:1.5;" x="124.27075" xlink:href="#m0863b4fd6d" y="125.191672"/>
     <use style="fill:#ff0000;stroke:#ff0000;stroke-width:1.5;" x="127.61875" xlink:href="#m0863b4fd6d" y="114.569328"/>
     <use style="fill:#ff0000;stroke:#ff0000;stroke-width:1.5;" x="130.96675" xlink:href="#m0863b4fd6d" y="124.722418"/>
     <use style="fill:#ff0000;stroke:#ff0000;stroke-width:1.5;" x="134.31475" xlink:href="#m0863b4fd6d" y="126.213179"/>
     <use style="fill:#ff0000;stroke:#ff0000;stroke-width:1.5;" x="137.66275" xlink:href="#m0863b4fd6d" y="128.895676"/>
     <use style="fill:#ff0000;stroke:#ff0000;stroke-width:1.5;" x="141.01075" xlink:href="#m0863b4fd6d" y="122.09433"/>
     <use style="fill:#ff0000;stroke:#ff0000;stroke-width:1.5;" x="144.35875" xlink:href="#m0863b4fd6d" y="115.977804"/>
     <use style="fill:#ff0000;stroke:#ff0000;stroke-width:1.5;" x="147.70675" xlink:href="#m0863b4fd6d" y="117.312244"/>
     <use style="fill:#ff0000;stroke:#ff0000;stroke-width:1.5;" x="151.05475" xlink:href="#m0863b4fd6d" y="117.366566"/>
     <use style="fill:#ff0000;stroke:#ff0000;stroke-width:1.5;" x="154.40275" xlink:href="#m0863b4fd6d" y="124.299866"/>
     <use style="fill:#ff0000;stroke:#ff0000;stroke-width:1.5;" x="157.75075" xlink:href="#m0863b4fd6d" y="136.828107"/>
     <use style="fill:#ff0000;stroke:#ff0000;stroke-width:1.5;" x="161.09875" xlink:href="#m0863b4fd6d" y="139.853577"/>
     <use style="fill:#ff0000;stroke:#ff0000;stroke-width:1.5;" x="164.44675" xlink:href="#m0863b4fd6d" y="139.98661"/>
     <use style="fill:#ff0000;stroke:#ff0000;stroke-width:1.5;" x="167.79475" xlink:href="#m0863b4fd6d" y="134.275045"/>
     <use style="fill:#ff0000;stroke:#ff0000;stroke-width:1.5;" x="171.14275" xlink:href="#m0863b4fd6d" y="129.000781"/>
     <use style="fill:#ff0000;stroke:#ff0000;stroke-width:1.5;" x="174.49075" xlink:href="#m0863b4fd6d" y="132.631875"/>
     <use style="fill:#ff0000;stroke:#ff0000;stroke-width:1.5;" x="177.83875" xlink:href="#m0863b4fd6d" y="135.619224"/>
     <use style="fill:#ff0000;stroke:#ff0000;stroke-width:1.5;" x="181.18675" xlink:href="#m0863b4fd6d" y="142.513822"/>
     <use style="fill:#ff0000;stroke:#ff0000;stroke-width:1.5;" x="184.53475" xlink:href="#m0863b4fd6d" y="151.082973"/>
     <use style="fill:#ff0000;stroke:#ff0000;stroke-width:1.5;" x="187.88275" xlink:href="#m0863b4fd6d" y="160.779734"/>
     <use style="fill:#ff0000;stroke:#ff0000;stroke-width:1.5;" x="191.23075" xlink:href="#m0863b4fd6d" y="150.111958"/>
     <use style="fill:#ff0000;stroke:#ff0000;stroke-width:1.5;" x="194.57875" xlink:href="#m0863b4fd6d" y="153.352454"/>
     <use style="fill:#ff0000;stroke:#ff0000;stroke-width:1.5;" x="197.92675" xlink:href="#m0863b4fd6d" y="156.041828"/>
     <use style="fill:#ff0000;stroke:#ff0000;stroke-width:1.5;" x="201.27475" xlink:href="#m0863b4fd6d" y="163.025557"/>
     <use style="fill:#ff0000;stroke:#ff0000;stroke-width:1.5;" x="204.62275" xlink:href="#m0863b4fd6d" y="158.623467"/>
     <use style="fill:#ff0000;stroke:#ff0000;stroke-width:1.5;" x="207.97075" xlink:href="#m0863b4fd6d" y="167.441067"/>
     <use style="fill:#ff0000;stroke:#ff0000;stroke-width:1.5;" x="211.31875" xlink:href="#m0863b4fd6d" y="168.201095"/>
     <use style="fill:#ff0000;stroke:#ff0000;stroke-width:1.5;" x="214.66675" xlink:href="#m0863b4fd6d" y="172.634422"/>
     <use style="fill:#ff0000;stroke:#ff0000;stroke-width:1.5;" x="218.01475" xlink:href="#m0863b4fd6d" y="169.875123"/>
     <use style="fill:#ff0000;stroke:#ff0000;stroke-width:1.5;" x="221.36275" xlink:href="#m0863b4fd6d" y="172.133729"/>
     <use style="fill:#ff0000;stroke:#ff0000;stroke-width:1.5;" x="224.71075" xlink:href="#m0863b4fd6d" y="177.920584"/>
     <use style="fill:#ff0000;stroke:#ff0000;stroke-width:1.5;" x="228.05875" xlink:href="#m0863b4fd6d" y="177.153379"/>
     <use style="fill:#ff0000;stroke:#ff0000;stroke-width:1.5;" x="231.40675" xlink:href="#m0863b4fd6d" y="173.942923"/>
     <use style="fill:#ff0000;stroke:#ff0000;stroke-width:1.5;" x="234.75475" xlink:href="#m0863b4fd6d" y="172.859814"/>
     <use style="fill:#ff0000;stroke:#ff0000;stroke-width:1.5;" x="238.10275" xlink:href="#m0863b4fd6d" y="170.548211"/>
     <use style="fill:#ff0000;stroke:#ff0000;stroke-width:1.5;" x="241.45075" xlink:href="#m0863b4fd6d" y="173.4446"/>
     <use style="fill:#ff0000;stroke:#ff0000;stroke-width:1.5;" x="244.79875" xlink:href="#m0863b4fd6d" y="174.719856"/>
     <use style="fill:#ff0000;stroke:#ff0000;stroke-width:1.5;" x="248.14675" xlink:href="#m0863b4fd6d" y="177.614983"/>
     <use style="fill:#ff0000;stroke:#ff0000;stroke-width:1.5;" x="251.49475" xlink:href="#m0863b4fd6d" y="178.66439"/>
     <use style="fill:#ff0000;stroke:#ff0000;stroke-width:1.5;" x="254.84275" xlink:href="#m0863b4fd6d" y="182.127059"/>
     <use style="fill:#ff0000;stroke:#ff0000;stroke-width:1.5;" x="258.19075" xlink:href="#m0863b4fd6d" y="190.380403"/>
     <use style="fill:#ff0000;stroke:#ff0000;stroke-width:1.5;" x="261.53875" xlink:href="#m0863b4fd6d" y="187.872519"/>
     <use style="fill:#ff0000;stroke:#ff0000;stroke-width:1.5;" x="264.88675" xlink:href="#m0863b4fd6d" y="188.6386"/>
     <use style="fill:#ff0000;stroke:#ff0000;stroke-width:1.5;" x="268.23475" xlink:href="#m0863b4fd6d" y="196.044053"/>
     <use style="fill:#ff0000;stroke:#ff0000;stroke-width:1.5;" x="271.58275" xlink:href="#m0863b4fd6d" y="191.701791"/>
     <use style="fill:#ff0000;stroke:#ff0000;stroke-width:1.5;" x="274.93075" xlink:href="#m0863b4fd6d" y="195.0244"/>
     <use style="fill:#ff0000;stroke:#ff0000;stroke-width:1.5;" x="278.27875" xlink:href="#m0863b4fd6d" y="192.96643"/>
     <use style="fill:#ff0000;stroke:#ff0000;stroke-width:1.5;" x="281.62675" xlink:href="#m0863b4fd6d" y="187.330397"/>
     <use style="fill:#ff0000;stroke:#ff0000;stroke-width:1.5;" x="284.97475" xlink:href="#m0863b4fd6d" y="185.238351"/>
     <use style="fill:#ff0000;stroke:#ff0000;stroke-width:1.5;" x="288.32275" xlink:href="#m0863b4fd6d" y="177.758277"/>
     <use style="fill:#ff0000;stroke:#ff0000;stroke-width:1.5;" x="291.67075" xlink:href="#m0863b4fd6d" y="183.558501"/>
     <use style="fill:#ff0000;stroke:#ff0000;stroke-width:1.5;" x="295.01875" xlink:href="#m0863b4fd6d" y="180.169072"/>
     <use style="fill:#ff0000;stroke:#ff0000;stroke-width:1.5;" x="298.36675" xlink:href="#m0863b4fd6d" y="182.858871"/>
     <use style="fill:#ff0000;stroke:#ff0000;stroke-width:1.5;" x="301.71475" xlink:href="#m0863b4fd6d" y="186.425206"/>
     <use style="fill:#ff0000;stroke:#ff0000;stroke-width:1.5;" x="305.06275" xlink:href="#m0863b4fd6d" y="188.226197"/>
     <use style="fill:#ff0000;stroke:#ff0000;stroke-width:1.5;" x="308.41075" xlink:href="#m0863b4fd6d" y="188.484112"/>
     <use style="fill:#ff0000;stroke:#ff0000;stroke-width:1.5;" x="311.75875" xlink:href="#m0863b4fd6d" y="186.730216"/>
     <use style="fill:#ff0000;stroke:#ff0000;stroke-width:1.5;" x="315.10675" xlink:href="#m0863b4fd6d" y="191.703085"/>
     <use style="fill:#ff0000;stroke:#ff0000;stroke-width:1.5;" x="318.45475" xlink:href="#m0863b4fd6d" y="185.196663"/>
     <use style="fill:#ff0000;stroke:#ff0000;stroke-width:1.5;" x="321.80275" xlink:href="#m0863b4fd6d" y="181.381114"/>
     <use style="fill:#ff0000;stroke:#ff0000;stroke-width:1.5;" x="325.15075" xlink:href="#m0863b4fd6d" y="188.638704"/>
     <use style="fill:#ff0000;stroke:#ff0000;stroke-width:1.5;" x="328.49875" xlink:href="#m0863b4fd6d" y="179.092255"/>
     <use style="fill:#ff0000;stroke:#ff0000;stroke-width:1.5;" x="331.84675" xlink:href="#m0863b4fd6d" y="167.807213"/>
     <use style="fill:#ff0000;stroke:#ff0000;stroke-width:1.5;" x="335.19475" xlink:href="#m0863b4fd6d" y="160.984632"/>
     <use style="fill:#ff0000;stroke:#ff0000;stroke-width:1.5;" x="338.54275" xlink:href="#m0863b4fd6d" y="161.889097"/>
     <use style="fill:#ff0000;stroke:#ff0000;stroke-width:1.5;" x="341.89075" xlink:href="#m0863b4fd6d" y="167.590878"/>
     <use style="fill:#ff0000;stroke:#ff0000;stroke-width:1.5;" x="345.23875" xlink:href="#m0863b4fd6d" y="161.45496"/>
     <use style="fill:#ff0000;stroke:#ff0000;stroke-width:1.5;" x="348.58675" xlink:href="#m0863b4fd6d" y="163.549507"/>
     <use style="fill:#ff0000;stroke:#ff0000;stroke-width:1.5;" x="351.93475" xlink:href="#m0863b4fd6d" y="156.702445"/>
     <use style="fill:#ff0000;stroke:#ff0000;stroke-width:1.5;" x="355.28275" xlink:href="#m0863b4fd6d" y="155.710765"/>
     <use style="fill:#ff0000;stroke:#ff0000;stroke-width:1.5;" x="358.63075" xlink:href="#m0863b4fd6d" y="150.591842"/>
     <use style="fill:#ff0000;stroke:#ff0000;stroke-width:1.5;" x="361.97875" xlink:href="#m0863b4fd6d" y="149.100667"/>
     <use style="fill:#ff0000;stroke:#ff0000;stroke-width:1.5;" x="365.32675" xlink:href="#m0863b4fd6d" y="145.780327"/>
     <use style="fill:#ff0000;stroke:#ff0000;stroke-width:1.5;" x="368.67475" xlink:href="#m0863b4fd6d" y="146.409857"/>
     <use style="fill:#ff0000;stroke:#ff0000;stroke-width:1.5;" x="372.02275" xlink:href="#m0863b4fd6d" y="137.356998"/>
     <use style="fill:#ff0000;stroke:#ff0000;stroke-width:1.5;" x="375.37075" xlink:href="#m0863b4fd6d" y="137.774879"/>
     <use style="fill:#ff0000;stroke:#ff0000;stroke-width:1.5;" x="378.71875" xlink:href="#m0863b4fd6d" y="136.676545"/>
    </g>
   </g>
   <g id="line2d_12">
    <path clip-path="url(#p33ba1a7e41)" d="M 43.91875 105.1525 
L 47.26675 107.803668 
L 50.61475 110.325538 
L 53.96275 112.724414 
L 57.31075 115.006296 
L 60.65875 117.176889 
L 64.00675 119.241622 
L 67.35475 121.205655 
L 70.70275 123.073902 
L 74.05075 124.851034 
L 77.39875 126.541493 
L 80.74675 128.149508 
L 84.09475 129.679099 
L 87.44275 131.134092 
L 90.79075 132.518123 
L 94.13875 133.834654 
L 97.48675 135.086978 
L 100.83475 136.278224 
L 104.18275 137.411373 
L 107.53075 138.489258 
L 110.87875 139.514574 
L 114.22675 140.489884 
L 117.57475 141.417628 
L 120.92275 142.300125 
L 124.27075 143.139583 
L 127.61875 143.938099 
L 130.96675 144.697672 
L 134.31475 145.420199 
L 137.66275 146.107489 
L 141.01075 146.761259 
L 144.35875 147.383144 
L 147.70675 147.9747 
L 151.05475 148.537405 
L 154.40275 149.072667 
L 157.75075 149.581824 
L 161.09875 150.066148 
L 164.44675 150.526852 
L 167.79475 150.965088 
L 171.14275 151.38195 
L 174.49075 151.778481 
L 177.83875 152.155674 
L 181.18675 152.514471 
L 184.53475 152.855769 
L 187.88275 153.180421 
L 191.23075 153.48924 
L 194.57875 153.782998 
L 197.92675 154.062429 
L 201.27475 154.328232 
L 204.62275 154.581072 
L 207.97075 154.821581 
L 211.31875 155.050359 
L 214.66675 155.267981 
L 218.01475 155.474988 
L 221.36275 155.6719 
L 224.71075 155.859208 
L 228.05875 156.037381 
L 231.40675 156.206865 
L 234.75475 156.368083 
L 238.10275 156.521438 
L 241.45075 156.667314 
L 244.79875 156.806075 
L 248.14675 156.938069 
L 251.49475 157.063625 
L 254.84275 157.183058 
L 258.19075 157.296667 
L 261.53875 157.404734 
L 264.88675 157.507531 
L 268.23475 157.605315 
L 271.58275 157.698329 
L 274.93075 157.786807 
L 278.27875 157.87097 
L 281.62675 157.951029 
L 284.97475 158.027182 
L 288.32275 158.099622 
L 291.67075 158.168529 
L 295.01875 158.234075 
L 298.36675 158.296425 
L 301.71475 158.355734 
L 305.06275 158.41215 
L 308.41075 158.465814 
L 311.75875 158.516862 
L 315.10675 158.56542 
L 318.45475 158.611609 
L 321.80275 158.655546 
L 325.15075 158.69734 
L 328.49875 158.737096 
L 331.84675 158.774913 
L 335.19475 158.810886 
L 338.54275 158.845104 
L 341.89075 158.877653 
L 345.23875 158.908615 
L 348.58675 158.938067 
L 351.93475 158.966082 
L 355.28275 158.992731 
L 358.63075 159.018081 
L 361.97875 159.042194 
L 365.32675 159.065131 
L 368.67475 159.086949 
L 372.02275 159.107704 
L 375.37075 159.127446 
L 378.71875 159.146225 
" style="fill:none;stroke:#000000;stroke-linecap:square;stroke-width:1.5;"/>
   </g>
   <g id="patch_3">
    <path d="M 43.91875 268.2325 
L 43.91875 50.7925 
" style="fill:none;stroke:#000000;stroke-linecap:square;stroke-linejoin:miter;stroke-width:0.8;"/>
   </g>
   <g id="patch_4">
    <path d="M 378.71875 268.2325 
L 378.71875 50.7925 
" style="fill:none;stroke:#000000;stroke-linecap:square;stroke-linejoin:miter;stroke-width:0.8;"/>
   </g>
   <g id="patch_5">
    <path d="M 43.91875 268.2325 
L 378.71875 268.2325 
" style="fill:none;stroke:#000000;stroke-linecap:square;stroke-linejoin:miter;stroke-width:0.8;"/>
   </g>
   <g id="patch_6">
    <path d="M 43.91875 50.7925 
L 378.71875 50.7925 
" style="fill:none;stroke:#000000;stroke-linecap:square;stroke-linejoin:miter;stroke-width:0.8;"/>
   </g>
   <g id="text_14">
    <!-- EM solution -->
    <defs>
     <path d="M 9.8125 72.90625 
L 55.90625 72.90625 
L 55.90625 64.59375 
L 19.671875 64.59375 
L 19.671875 43.015625 
L 54.390625 43.015625 
L 54.390625 34.71875 
L 19.671875 34.71875 
L 19.671875 8.296875 
L 56.78125 8.296875 
L 56.78125 0 
L 9.8125 0 
z
" id="DejaVuSans-69"/>
     <path d="M 9.8125 72.90625 
L 24.515625 72.90625 
L 43.109375 23.296875 
L 61.8125 72.90625 
L 76.515625 72.90625 
L 76.515625 0 
L 66.890625 0 
L 66.890625 64.015625 
L 48.09375 14.015625 
L 38.1875 14.015625 
L 19.390625 64.015625 
L 19.390625 0 
L 9.8125 0 
z
" id="DejaVuSans-77"/>
     <path id="DejaVuSans-32"/>
     <path d="M 44.28125 53.078125 
L 44.28125 44.578125 
Q 40.484375 46.53125 36.375 47.5 
Q 32.28125 48.484375 27.875 48.484375 
Q 21.1875 48.484375 17.84375 46.4375 
Q 14.5 44.390625 14.5 40.28125 
Q 14.5 37.15625 16.890625 35.375 
Q 19.28125 33.59375 26.515625 31.984375 
L 29.59375 31.296875 
Q 39.15625 29.25 43.1875 25.515625 
Q 47.21875 21.78125 47.21875 15.09375 
Q 47.21875 7.46875 41.1875 3.015625 
Q 35.15625 -1.421875 24.609375 -1.421875 
Q 20.21875 -1.421875 15.453125 -0.5625 
Q 10.6875 0.296875 5.421875 2 
L 5.421875 11.28125 
Q 10.40625 8.6875 15.234375 7.390625 
Q 20.0625 6.109375 24.8125 6.109375 
Q 31.15625 6.109375 34.5625 8.28125 
Q 37.984375 10.453125 37.984375 14.40625 
Q 37.984375 18.0625 35.515625 20.015625 
Q 33.0625 21.96875 24.703125 23.78125 
L 21.578125 24.515625 
Q 13.234375 26.265625 9.515625 29.90625 
Q 5.8125 33.546875 5.8125 39.890625 
Q 5.8125 47.609375 11.28125 51.796875 
Q 16.75 56 26.8125 56 
Q 31.78125 56 36.171875 55.265625 
Q 40.578125 54.546875 44.28125 53.078125 
z
" id="DejaVuSans-115"/>
     <path d="M 30.609375 48.390625 
Q 23.390625 48.390625 19.1875 42.75 
Q 14.984375 37.109375 14.984375 27.296875 
Q 14.984375 17.484375 19.15625 11.84375 
Q 23.34375 6.203125 30.609375 6.203125 
Q 37.796875 6.203125 41.984375 11.859375 
Q 46.1875 17.53125 46.1875 27.296875 
Q 46.1875 37.015625 41.984375 42.703125 
Q 37.796875 48.390625 30.609375 48.390625 
z
M 30.609375 56 
Q 42.328125 56 49.015625 48.375 
Q 55.71875 40.765625 55.71875 27.296875 
Q 55.71875 13.875 49.015625 6.21875 
Q 42.328125 -1.421875 30.609375 -1.421875 
Q 18.84375 -1.421875 12.171875 6.21875 
Q 5.515625 13.875 5.515625 27.296875 
Q 5.515625 40.765625 12.171875 48.375 
Q 18.84375 56 30.609375 56 
z
" id="DejaVuSans-111"/>
     <path d="M 9.421875 75.984375 
L 18.40625 75.984375 
L 18.40625 0 
L 9.421875 0 
z
" id="DejaVuSans-108"/>
     <path d="M 8.5 21.578125 
L 8.5 54.6875 
L 17.484375 54.6875 
L 17.484375 21.921875 
Q 17.484375 14.15625 20.5 10.265625 
Q 23.53125 6.390625 29.59375 6.390625 
Q 36.859375 6.390625 41.078125 11.03125 
Q 45.3125 15.671875 45.3125 23.6875 
L 45.3125 54.6875 
L 54.296875 54.6875 
L 54.296875 0 
L 45.3125 0 
L 45.3125 8.40625 
Q 42.046875 3.421875 37.71875 1 
Q 33.40625 -1.421875 27.6875 -1.421875 
Q 18.265625 -1.421875 13.375 4.4375 
Q 8.5 10.296875 8.5 21.578125 
z
M 31.109375 56 
z
" id="DejaVuSans-117"/>
     <path d="M 18.3125 70.21875 
L 18.3125 54.6875 
L 36.8125 54.6875 
L 36.8125 47.703125 
L 18.3125 47.703125 
L 18.3125 18.015625 
Q 18.3125 11.328125 20.140625 9.421875 
Q 21.96875 7.515625 27.59375 7.515625 
L 36.8125 7.515625 
L 36.8125 0 
L 27.59375 0 
Q 17.1875 0 13.234375 3.875 
Q 9.28125 7.765625 9.28125 18.015625 
L 9.28125 47.703125 
L 2.6875 47.703125 
L 2.6875 54.6875 
L 9.28125 54.6875 
L 9.28125 70.21875 
z
" id="DejaVuSans-116"/>
     <path d="M 9.421875 54.6875 
L 18.40625 54.6875 
L 18.40625 0 
L 9.421875 0 
z
M 9.421875 75.984375 
L 18.40625 75.984375 
L 18.40625 64.59375 
L 9.421875 64.59375 
z
" id="DejaVuSans-105"/>
     <path d="M 54.890625 33.015625 
L 54.890625 0 
L 45.90625 0 
L 45.90625 32.71875 
Q 45.90625 40.484375 42.875 44.328125 
Q 39.84375 48.1875 33.796875 48.1875 
Q 26.515625 48.1875 22.3125 43.546875 
Q 18.109375 38.921875 18.109375 30.90625 
L 18.109375 0 
L 9.078125 0 
L 9.078125 54.6875 
L 18.109375 54.6875 
L 18.109375 46.1875 
Q 21.34375 51.125 25.703125 53.5625 
Q 30.078125 56 35.796875 56 
Q 45.21875 56 50.046875 50.171875 
Q 54.890625 44.34375 54.890625 33.015625 
z
" id="DejaVuSans-110"/>
    </defs>
    <g transform="translate(153.595313 22.396875)scale(0.2 -0.2)">
     <use xlink:href="#DejaVuSans-69"/>
     <use x="63.183594" xlink:href="#DejaVuSans-77"/>
     <use x="149.462891" xlink:href="#DejaVuSans-32"/>
     <use x="181.25" xlink:href="#DejaVuSans-115"/>
     <use x="233.349609" xlink:href="#DejaVuSans-111"/>
     <use x="294.53125" xlink:href="#DejaVuSans-108"/>
     <use x="322.314453" xlink:href="#DejaVuSans-117"/>
     <use x="385.693359" xlink:href="#DejaVuSans-116"/>
     <use x="424.902344" xlink:href="#DejaVuSans-105"/>
     <use x="452.685547" xlink:href="#DejaVuSans-111"/>
     <use x="513.867188" xlink:href="#DejaVuSans-110"/>
    </g>
    <!-- of mean-reverting OU -->
    <defs>
     <path d="M 37.109375 75.984375 
L 37.109375 68.5 
L 28.515625 68.5 
Q 23.6875 68.5 21.796875 66.546875 
Q 19.921875 64.59375 19.921875 59.515625 
L 19.921875 54.6875 
L 34.71875 54.6875 
L 34.71875 47.703125 
L 19.921875 47.703125 
L 19.921875 0 
L 10.890625 0 
L 10.890625 47.703125 
L 2.296875 47.703125 
L 2.296875 54.6875 
L 10.890625 54.6875 
L 10.890625 58.5 
Q 10.890625 67.625 15.140625 71.796875 
Q 19.390625 75.984375 28.609375 75.984375 
z
" id="DejaVuSans-102"/>
     <path d="M 52 44.1875 
Q 55.375 50.25 60.0625 53.125 
Q 64.75 56 71.09375 56 
Q 79.640625 56 84.28125 50.015625 
Q 88.921875 44.046875 88.921875 33.015625 
L 88.921875 0 
L 79.890625 0 
L 79.890625 32.71875 
Q 79.890625 40.578125 77.09375 44.375 
Q 74.3125 48.1875 68.609375 48.1875 
Q 61.625 48.1875 57.5625 43.546875 
Q 53.515625 38.921875 53.515625 30.90625 
L 53.515625 0 
L 44.484375 0 
L 44.484375 32.71875 
Q 44.484375 40.625 41.703125 44.40625 
Q 38.921875 48.1875 33.109375 48.1875 
Q 26.21875 48.1875 22.15625 43.53125 
Q 18.109375 38.875 18.109375 30.90625 
L 18.109375 0 
L 9.078125 0 
L 9.078125 54.6875 
L 18.109375 54.6875 
L 18.109375 46.1875 
Q 21.1875 51.21875 25.484375 53.609375 
Q 29.78125 56 35.6875 56 
Q 41.65625 56 45.828125 52.96875 
Q 50 49.953125 52 44.1875 
z
" id="DejaVuSans-109"/>
     <path d="M 56.203125 29.59375 
L 56.203125 25.203125 
L 14.890625 25.203125 
Q 15.484375 15.921875 20.484375 11.0625 
Q 25.484375 6.203125 34.421875 6.203125 
Q 39.59375 6.203125 44.453125 7.46875 
Q 49.3125 8.734375 54.109375 11.28125 
L 54.109375 2.78125 
Q 49.265625 0.734375 44.1875 -0.34375 
Q 39.109375 -1.421875 33.890625 -1.421875 
Q 20.796875 -1.421875 13.15625 6.1875 
Q 5.515625 13.8125 5.515625 26.8125 
Q 5.515625 40.234375 12.765625 48.109375 
Q 20.015625 56 32.328125 56 
Q 43.359375 56 49.78125 48.890625 
Q 56.203125 41.796875 56.203125 29.59375 
z
M 47.21875 32.234375 
Q 47.125 39.59375 43.09375 43.984375 
Q 39.0625 48.390625 32.421875 48.390625 
Q 24.90625 48.390625 20.390625 44.140625 
Q 15.875 39.890625 15.1875 32.171875 
z
" id="DejaVuSans-101"/>
     <path d="M 34.28125 27.484375 
Q 23.390625 27.484375 19.1875 25 
Q 14.984375 22.515625 14.984375 16.5 
Q 14.984375 11.71875 18.140625 8.90625 
Q 21.296875 6.109375 26.703125 6.109375 
Q 34.1875 6.109375 38.703125 11.40625 
Q 43.21875 16.703125 43.21875 25.484375 
L 43.21875 27.484375 
z
M 52.203125 31.203125 
L 52.203125 0 
L 43.21875 0 
L 43.21875 8.296875 
Q 40.140625 3.328125 35.546875 0.953125 
Q 30.953125 -1.421875 24.3125 -1.421875 
Q 15.921875 -1.421875 10.953125 3.296875 
Q 6 8.015625 6 15.921875 
Q 6 25.140625 12.171875 29.828125 
Q 18.359375 34.515625 30.609375 34.515625 
L 43.21875 34.515625 
L 43.21875 35.40625 
Q 43.21875 41.609375 39.140625 45 
Q 35.0625 48.390625 27.6875 48.390625 
Q 23 48.390625 18.546875 47.265625 
Q 14.109375 46.140625 10.015625 43.890625 
L 10.015625 52.203125 
Q 14.9375 54.109375 19.578125 55.046875 
Q 24.21875 56 28.609375 56 
Q 40.484375 56 46.34375 49.84375 
Q 52.203125 43.703125 52.203125 31.203125 
z
" id="DejaVuSans-97"/>
     <path d="M 4.890625 31.390625 
L 31.203125 31.390625 
L 31.203125 23.390625 
L 4.890625 23.390625 
z
" id="DejaVuSans-45"/>
     <path d="M 41.109375 46.296875 
Q 39.59375 47.171875 37.8125 47.578125 
Q 36.03125 48 33.890625 48 
Q 26.265625 48 22.1875 43.046875 
Q 18.109375 38.09375 18.109375 28.8125 
L 18.109375 0 
L 9.078125 0 
L 9.078125 54.6875 
L 18.109375 54.6875 
L 18.109375 46.1875 
Q 20.953125 51.171875 25.484375 53.578125 
Q 30.03125 56 36.53125 56 
Q 37.453125 56 38.578125 55.875 
Q 39.703125 55.765625 41.0625 55.515625 
z
" id="DejaVuSans-114"/>
     <path d="M 2.984375 54.6875 
L 12.5 54.6875 
L 29.59375 8.796875 
L 46.6875 54.6875 
L 56.203125 54.6875 
L 35.6875 0 
L 23.484375 0 
z
" id="DejaVuSans-118"/>
     <path d="M 45.40625 27.984375 
Q 45.40625 37.75 41.375 43.109375 
Q 37.359375 48.484375 30.078125 48.484375 
Q 22.859375 48.484375 18.828125 43.109375 
Q 14.796875 37.75 14.796875 27.984375 
Q 14.796875 18.265625 18.828125 12.890625 
Q 22.859375 7.515625 30.078125 7.515625 
Q 37.359375 7.515625 41.375 12.890625 
Q 45.40625 18.265625 45.40625 27.984375 
z
M 54.390625 6.78125 
Q 54.390625 -7.171875 48.1875 -13.984375 
Q 42 -20.796875 29.203125 -20.796875 
Q 24.46875 -20.796875 20.265625 -20.09375 
Q 16.0625 -19.390625 12.109375 -17.921875 
L 12.109375 -9.1875 
Q 16.0625 -11.328125 19.921875 -12.34375 
Q 23.78125 -13.375 27.78125 -13.375 
Q 36.625 -13.375 41.015625 -8.765625 
Q 45.40625 -4.15625 45.40625 5.171875 
L 45.40625 9.625 
Q 42.625 4.78125 38.28125 2.390625 
Q 33.9375 0 27.875 0 
Q 17.828125 0 11.671875 7.65625 
Q 5.515625 15.328125 5.515625 27.984375 
Q 5.515625 40.671875 11.671875 48.328125 
Q 17.828125 56 27.875 56 
Q 33.9375 56 38.28125 53.609375 
Q 42.625 51.21875 45.40625 46.390625 
L 45.40625 54.6875 
L 54.390625 54.6875 
z
" id="DejaVuSans-103"/>
     <path d="M 39.40625 66.21875 
Q 28.65625 66.21875 22.328125 58.203125 
Q 16.015625 50.203125 16.015625 36.375 
Q 16.015625 22.609375 22.328125 14.59375 
Q 28.65625 6.59375 39.40625 6.59375 
Q 50.140625 6.59375 56.421875 14.59375 
Q 62.703125 22.609375 62.703125 36.375 
Q 62.703125 50.203125 56.421875 58.203125 
Q 50.140625 66.21875 39.40625 66.21875 
z
M 39.40625 74.21875 
Q 54.734375 74.21875 63.90625 63.9375 
Q 73.09375 53.65625 73.09375 36.375 
Q 73.09375 19.140625 63.90625 8.859375 
Q 54.734375 -1.421875 39.40625 -1.421875 
Q 24.03125 -1.421875 14.8125 8.828125 
Q 5.609375 19.09375 5.609375 36.375 
Q 5.609375 53.65625 14.8125 63.9375 
Q 24.03125 74.21875 39.40625 74.21875 
z
" id="DejaVuSans-79"/>
     <path d="M 8.6875 72.90625 
L 18.609375 72.90625 
L 18.609375 28.609375 
Q 18.609375 16.890625 22.84375 11.734375 
Q 27.09375 6.59375 36.625 6.59375 
Q 46.09375 6.59375 50.34375 11.734375 
Q 54.59375 16.890625 54.59375 28.609375 
L 54.59375 72.90625 
L 64.5 72.90625 
L 64.5 27.390625 
Q 64.5 13.140625 57.4375 5.859375 
Q 50.390625 -1.421875 36.625 -1.421875 
Q 22.796875 -1.421875 15.734375 5.859375 
Q 8.6875 13.140625 8.6875 27.390625 
z
" id="DejaVuSans-85"/>
    </defs>
    <g transform="translate(102.559375 44.7925)scale(0.2 -0.2)">
     <use xlink:href="#DejaVuSans-111"/>
     <use x="61.181641" xlink:href="#DejaVuSans-102"/>
     <use x="96.386719" xlink:href="#DejaVuSans-32"/>
     <use x="128.173828" xlink:href="#DejaVuSans-109"/>
     <use x="225.585938" xlink:href="#DejaVuSans-101"/>
     <use x="287.109375" xlink:href="#DejaVuSans-97"/>
     <use x="348.388672" xlink:href="#DejaVuSans-110"/>
     <use x="411.767578" xlink:href="#DejaVuSans-45"/>
     <use x="447.851562" xlink:href="#DejaVuSans-114"/>
     <use x="486.714844" xlink:href="#DejaVuSans-101"/>
     <use x="548.238281" xlink:href="#DejaVuSans-118"/>
     <use x="607.417969" xlink:href="#DejaVuSans-101"/>
     <use x="668.941406" xlink:href="#DejaVuSans-114"/>
     <use x="710.054688" xlink:href="#DejaVuSans-116"/>
     <use x="749.263672" xlink:href="#DejaVuSans-105"/>
     <use x="777.046875" xlink:href="#DejaVuSans-110"/>
     <use x="840.425781" xlink:href="#DejaVuSans-103"/>
     <use x="903.902344" xlink:href="#DejaVuSans-32"/>
     <use x="935.689453" xlink:href="#DejaVuSans-79"/>
     <use x="1014.400391" xlink:href="#DejaVuSans-85"/>
    </g>
   </g>
   <g id="legend_1">
    <g id="patch_7">
     <path d="M 257.929688 102.826875 
L 371.71875 102.826875 
Q 373.71875 102.826875 373.71875 100.826875 
L 373.71875 57.7925 
Q 373.71875 55.7925 371.71875 55.7925 
L 257.929688 55.7925 
Q 255.929688 55.7925 255.929688 57.7925 
L 255.929688 100.826875 
Q 255.929688 102.826875 257.929688 102.826875 
z
" style="fill:#ffffff;opacity:0.8;stroke:#cccccc;stroke-linejoin:miter;"/>
    </g>
    <g id="line2d_13">
     <path d="M 259.929688 63.890937 
L 279.929688 63.890937 
" style="fill:none;stroke:#000000;stroke-linecap:square;stroke-width:1.5;"/>
    </g>
    <g id="line2d_14"/>
    <g id="text_15">
     <!-- Mean -->
     <g transform="translate(287.929688 67.390937)scale(0.1 -0.1)">
      <use xlink:href="#DejaVuSans-77"/>
      <use x="86.279297" xlink:href="#DejaVuSans-101"/>
      <use x="147.802734" xlink:href="#DejaVuSans-97"/>
      <use x="209.082031" xlink:href="#DejaVuSans-110"/>
     </g>
    </g>
    <g id="PathCollection_2">
     <g>
      <use style="fill:#ff0000;stroke:#ff0000;stroke-width:1.5;" x="269.929688" xlink:href="#m0863b4fd6d" y="79.444062"/>
     </g>
    </g>
    <g id="text_16">
     <!-- Euler-Maruyama -->
     <defs>
      <path d="M 32.171875 -5.078125 
Q 28.375 -14.84375 24.75 -17.8125 
Q 21.140625 -20.796875 15.09375 -20.796875 
L 7.90625 -20.796875 
L 7.90625 -13.28125 
L 13.1875 -13.28125 
Q 16.890625 -13.28125 18.9375 -11.515625 
Q 21 -9.765625 23.484375 -3.21875 
L 25.09375 0.875 
L 2.984375 54.6875 
L 12.5 54.6875 
L 29.59375 11.921875 
L 46.6875 54.6875 
L 56.203125 54.6875 
z
" id="DejaVuSans-121"/>
     </defs>
     <g transform="translate(287.929688 82.069062)scale(0.1 -0.1)">
      <use xlink:href="#DejaVuSans-69"/>
      <use x="63.183594" xlink:href="#DejaVuSans-117"/>
      <use x="126.5625" xlink:href="#DejaVuSans-108"/>
      <use x="154.345703" xlink:href="#DejaVuSans-101"/>
      <use x="215.869141" xlink:href="#DejaVuSans-114"/>
      <use x="250.607422" xlink:href="#DejaVuSans-45"/>
      <use x="286.691406" xlink:href="#DejaVuSans-77"/>
      <use x="372.970703" xlink:href="#DejaVuSans-97"/>
      <use x="434.25" xlink:href="#DejaVuSans-114"/>
      <use x="475.363281" xlink:href="#DejaVuSans-117"/>
      <use x="538.742188" xlink:href="#DejaVuSans-121"/>
      <use x="597.921875" xlink:href="#DejaVuSans-97"/>
      <use x="659.201172" xlink:href="#DejaVuSans-109"/>
      <use x="756.613281" xlink:href="#DejaVuSans-97"/>
     </g>
    </g>
    <g id="patch_8">
     <path d="M 259.929688 96.747187 
L 279.929688 96.747187 
L 279.929688 89.747187 
L 259.929688 89.747187 
z
" style="fill:#808080;opacity:0.3;stroke:#808080;stroke-linejoin:miter;"/>
    </g>
    <g id="text_17">
     <!-- 2 Std. dev. -->
     <defs>
      <path d="M 53.515625 70.515625 
L 53.515625 60.890625 
Q 47.90625 63.578125 42.921875 64.890625 
Q 37.9375 66.21875 33.296875 66.21875 
Q 25.25 66.21875 20.875 63.09375 
Q 16.5 59.96875 16.5 54.203125 
Q 16.5 49.359375 19.40625 46.890625 
Q 22.3125 44.4375 30.421875 42.921875 
L 36.375 41.703125 
Q 47.40625 39.59375 52.65625 34.296875 
Q 57.90625 29 57.90625 20.125 
Q 57.90625 9.515625 50.796875 4.046875 
Q 43.703125 -1.421875 29.984375 -1.421875 
Q 24.8125 -1.421875 18.96875 -0.25 
Q 13.140625 0.921875 6.890625 3.21875 
L 6.890625 13.375 
Q 12.890625 10.015625 18.65625 8.296875 
Q 24.421875 6.59375 29.984375 6.59375 
Q 38.421875 6.59375 43.015625 9.90625 
Q 47.609375 13.234375 47.609375 19.390625 
Q 47.609375 24.75 44.3125 27.78125 
Q 41.015625 30.8125 33.5 32.328125 
L 27.484375 33.5 
Q 16.453125 35.6875 11.515625 40.375 
Q 6.59375 45.0625 6.59375 53.421875 
Q 6.59375 63.09375 13.40625 68.65625 
Q 20.21875 74.21875 32.171875 74.21875 
Q 37.3125 74.21875 42.625 73.28125 
Q 47.953125 72.359375 53.515625 70.515625 
z
" id="DejaVuSans-83"/>
      <path d="M 45.40625 46.390625 
L 45.40625 75.984375 
L 54.390625 75.984375 
L 54.390625 0 
L 45.40625 0 
L 45.40625 8.203125 
Q 42.578125 3.328125 38.25 0.953125 
Q 33.9375 -1.421875 27.875 -1.421875 
Q 17.96875 -1.421875 11.734375 6.484375 
Q 5.515625 14.40625 5.515625 27.296875 
Q 5.515625 40.1875 11.734375 48.09375 
Q 17.96875 56 27.875 56 
Q 33.9375 56 38.25 53.625 
Q 42.578125 51.265625 45.40625 46.390625 
z
M 14.796875 27.296875 
Q 14.796875 17.390625 18.875 11.75 
Q 22.953125 6.109375 30.078125 6.109375 
Q 37.203125 6.109375 41.296875 11.75 
Q 45.40625 17.390625 45.40625 27.296875 
Q 45.40625 37.203125 41.296875 42.84375 
Q 37.203125 48.484375 30.078125 48.484375 
Q 22.953125 48.484375 18.875 42.84375 
Q 14.796875 37.203125 14.796875 27.296875 
z
" id="DejaVuSans-100"/>
     </defs>
     <g transform="translate(287.929688 96.747187)scale(0.1 -0.1)">
      <use xlink:href="#DejaVuSans-50"/>
      <use x="63.623047" xlink:href="#DejaVuSans-32"/>
      <use x="95.410156" xlink:href="#DejaVuSans-83"/>
      <use x="158.886719" xlink:href="#DejaVuSans-116"/>
      <use x="198.095703" xlink:href="#DejaVuSans-100"/>
      <use x="261.572266" xlink:href="#DejaVuSans-46"/>
      <use x="293.359375" xlink:href="#DejaVuSans-32"/>
      <use x="325.146484" xlink:href="#DejaVuSans-100"/>
      <use x="388.623047" xlink:href="#DejaVuSans-101"/>
      <use x="450.146484" xlink:href="#DejaVuSans-118"/>
      <use x="501.576172" xlink:href="#DejaVuSans-46"/>
     </g>
    </g>
   </g>
  </g>
 </g>
 <defs>
  <clipPath id="p33ba1a7e41">
   <rect height="217.44" width="334.8" x="43.91875" y="50.7925"/>
  </clipPath>
 </defs>
</svg>
