<?xml version="1.0" encoding="utf-8" standalone="no"?>
<!DOCTYPE svg PUBLIC "-//W3C//DTD SVG 1.1//EN"
  "http://www.w3.org/Graphics/SVG/1.1/DTD/svg11.dtd">
<!-- Created with matplotlib (https://matplotlib.org/) -->
<svg height="299.074375pt" version="1.1" viewBox="0 0 393.870312 299.074375" width="393.870312pt" xmlns="http://www.w3.org/2000/svg" xmlns:xlink="http://www.w3.org/1999/xlink">
 <defs>
  <style type="text/css">
*{stroke-linecap:butt;stroke-linejoin:round;}
  </style>
 </defs>
 <g id="figure_1">
  <g id="patch_1">
   <path d="M 0 299.074375 
L 393.870312 299.074375 
L 393.870312 0 
L 0 0 
z
" style="fill:none;"/>
  </g>
  <g id="axes_1">
   <g id="patch_2">
    <path d="M 43.91875 251.84 
L 378.71875 251.84 
L 378.71875 34.4 
L 43.91875 34.4 
z
" style="fill:#ffffff;"/>
   </g>
   <g id="PolyCollection_1">
    <defs>
     <path d="M 43.91875 -83.474375 
L 43.91875 -83.474375 
L 44.589692 -81.916736 
L 45.260634 -81.39407 
L 45.931576 -80.977295 
L 46.602518 -80.535613 
L 47.273459 -80.255541 
L 47.944401 -79.91369 
L 48.615343 -79.641819 
L 49.286285 -79.370364 
L 49.957227 -79.17452 
L 50.628169 -79.025869 
L 51.299111 -78.934964 
L 51.970053 -78.72274 
L 52.640994 -78.50447 
L 53.311936 -78.288577 
L 53.982878 -78.210628 
L 54.65382 -78.016762 
L 55.324762 -77.985303 
L 55.995704 -77.825607 
L 56.666646 -77.688809 
L 57.337588 -77.650048 
L 58.00853 -77.529515 
L 58.679471 -77.453624 
L 59.350413 -77.394249 
L 60.021355 -77.250852 
L 60.692297 -77.202329 
L 61.363239 -77.078274 
L 62.034181 -76.989381 
L 62.705123 -76.911967 
L 63.376065 -76.808161 
L 64.047007 -76.63452 
L 64.717948 -76.458713 
L 65.38889 -76.428833 
L 66.059832 -76.348117 
L 66.730774 -76.187071 
L 67.401716 -76.160302 
L 68.072658 -76.054985 
L 68.7436 -76.0302 
L 69.414542 -75.998621 
L 70.085483 -75.936646 
L 70.756425 -75.885148 
L 71.427367 -75.779676 
L 72.098309 -75.632424 
L 72.769251 -75.514454 
L 73.440193 -75.431084 
L 74.111135 -75.379999 
L 74.782077 -75.349137 
L 75.453019 -75.246066 
L 76.12396 -75.141253 
L 76.794902 -75.030133 
L 77.465844 -74.910169 
L 78.136786 -74.887691 
L 78.807728 -74.792926 
L 79.47867 -74.779357 
L 80.149612 -74.71608 
L 80.820554 -74.525592 
L 81.491495 -74.452978 
L 82.162437 -74.442527 
L 82.833379 -74.494111 
L 83.504321 -74.421454 
L 84.175263 -74.474533 
L 84.846205 -74.398701 
L 85.517147 -74.324763 
L 86.188089 -74.187002 
L 86.859031 -74.173729 
L 87.529972 -73.956661 
L 88.200914 -73.880456 
L 88.871856 -73.902417 
L 89.542798 -73.906012 
L 90.21374 -74.047935 
L 90.884682 -73.972421 
L 91.555624 -73.863174 
L 92.226566 -73.796257 
L 92.897508 -73.665101 
L 93.568449 -73.557663 
L 94.239391 -73.547564 
L 94.910333 -73.480566 
L 95.581275 -73.527757 
L 96.252217 -73.44644 
L 96.923159 -73.434482 
L 97.594101 -73.577679 
L 98.265043 -73.478437 
L 98.935984 -73.465764 
L 99.606926 -73.378737 
L 100.277868 -73.394443 
L 100.94881 -73.428459 
L 101.619752 -73.284814 
L 102.290694 -73.299654 
L 102.961636 -73.320112 
L 103.632578 -73.273377 
L 104.30352 -73.251605 
L 104.974461 -73.305947 
L 105.645403 -73.379321 
L 106.316345 -73.300492 
L 106.987287 -73.261459 
L 107.658229 -73.254134 
L 108.329171 -73.229039 
L 109.000113 -73.311871 
L 109.671055 -73.302392 
L 110.341996 -73.200915 
L 111.012938 -73.09315 
L 111.68388 -73.193926 
L 112.354822 -73.230178 
L 113.025764 -73.275052 
L 113.696706 -73.27683 
L 114.367648 -73.268891 
L 115.03859 -73.26241 
L 115.709532 -73.261917 
L 116.380473 -73.195553 
L 117.051415 -73.132192 
L 117.722357 -73.14457 
L 118.393299 -73.078995 
L 119.064241 -73.003468 
L 119.735183 -72.92916 
L 120.406125 -73.083016 
L 121.077067 -73.132453 
L 121.748009 -73.181834 
L 122.41895 -73.07654 
L 123.089892 -72.987901 
L 123.760834 -72.934286 
L 124.431776 -72.892762 
L 125.102718 -72.96729 
L 125.77366 -72.84167 
L 126.444602 -72.809559 
L 127.115544 -72.732795 
L 127.786485 -72.673543 
L 128.457427 -72.530687 
L 129.128369 -72.457832 
L 129.799311 -72.464088 
L 130.470253 -72.237478 
L 131.141195 -72.153787 
L 131.812137 -72.058165 
L 132.483079 -71.886593 
L 133.154021 -71.836662 
L 133.824962 -71.879918 
L 134.495904 -71.874905 
L 135.166846 -71.747565 
L 135.837788 -71.714359 
L 136.50873 -71.680729 
L 137.179672 -71.650171 
L 137.850614 -71.62918 
L 138.521556 -71.597805 
L 139.192497 -71.575978 
L 139.863439 -71.76503 
L 140.534381 -71.816816 
L 141.205323 -71.759303 
L 141.876265 -71.604791 
L 142.547207 -71.599563 
L 143.218149 -71.635581 
L 143.889091 -71.644198 
L 144.560033 -71.651231 
L 145.230974 -71.494511 
L 145.901916 -71.582579 
L 146.572858 -71.615057 
L 147.2438 -71.590074 
L 147.914742 -71.626515 
L 148.585684 -71.790554 
L 149.256626 -71.827136 
L 149.927568 -71.818597 
L 150.59851 -71.624476 
L 151.269451 -71.632069 
L 151.940393 -71.514199 
L 152.611335 -71.494767 
L 153.282277 -71.269083 
L 153.953219 -71.289123 
L 154.624161 -71.155128 
L 155.295103 -71.172124 
L 155.966045 -70.94082 
L 156.636986 -70.830691 
L 157.307928 -70.90939 
L 157.97887 -70.790852 
L 158.649812 -70.748928 
L 159.320754 -70.69591 
L 159.991696 -70.626122 
L 160.662638 -70.610395 
L 161.33358 -70.55352 
L 162.004522 -70.399227 
L 162.675463 -70.317359 
L 163.346405 -70.173741 
L 164.017347 -69.967635 
L 164.688289 -69.902601 
L 165.359231 -69.861261 
L 166.030173 -69.750511 
L 166.701115 -69.849225 
L 167.372057 -69.947062 
L 168.042998 -69.957629 
L 168.71394 -70.025996 
L 169.384882 -70.065485 
L 170.055824 -69.899644 
L 170.726766 -69.870718 
L 171.397708 -69.853769 
L 172.06865 -69.806868 
L 172.739592 -69.798236 
L 173.410534 -69.804015 
L 174.081475 -69.786238 
L 174.752417 -69.853541 
L 175.423359 -69.894677 
L 176.094301 -69.860361 
L 176.765243 -69.743314 
L 177.436185 -69.774938 
L 178.107127 -69.678592 
L 178.778069 -69.598597 
L 179.449011 -69.701516 
L 180.119952 -69.597573 
L 180.790894 -69.46728 
L 181.461836 -69.325893 
L 182.132778 -69.292872 
L 182.80372 -69.113468 
L 183.474662 -69.063457 
L 184.145604 -68.958885 
L 184.816546 -68.956311 
L 185.487487 -69.048574 
L 186.158429 -68.91401 
L 186.829371 -68.942276 
L 187.500313 -68.704318 
L 188.171255 -68.788414 
L 188.842197 -68.868784 
L 189.513139 -68.788304 
L 190.184081 -68.670816 
L 190.855023 -68.587994 
L 191.525964 -68.40015 
L 192.196906 -68.452538 
L 192.867848 -68.434363 
L 193.53879 -68.355362 
L 194.209732 -68.13781 
L 194.880674 -68.153264 
L 195.551616 -68.072425 
L 196.222558 -68.15029 
L 196.893499 -68.076384 
L 197.564441 -68.085135 
L 198.235383 -68.222786 
L 198.906325 -68.18598 
L 199.577267 -68.157457 
L 200.248209 -68.222198 
L 200.919151 -68.187451 
L 201.590093 -68.215983 
L 202.261035 -68.261227 
L 202.931976 -68.255692 
L 203.602918 -68.208002 
L 204.27386 -67.95124 
L 204.944802 -67.935616 
L 205.615744 -67.7426 
L 206.286686 -67.88577 
L 206.957628 -67.852975 
L 207.62857 -67.783059 
L 208.299512 -67.579674 
L 208.970453 -67.596964 
L 209.641395 -67.452009 
L 210.312337 -67.253159 
L 210.983279 -67.271914 
L 211.654221 -67.185857 
L 212.325163 -67.264834 
L 212.996105 -67.320214 
L 213.667047 -67.176292 
L 214.337988 -67.101018 
L 215.00893 -67.0976 
L 215.679872 -66.932053 
L 216.350814 -66.736108 
L 217.021756 -66.776357 
L 217.692698 -66.736749 
L 218.36364 -66.661542 
L 219.034582 -66.612739 
L 219.705524 -66.530214 
L 220.376465 -66.483001 
L 221.047407 -66.330901 
L 221.718349 -66.191358 
L 222.389291 -66.402117 
L 223.060233 -66.217406 
L 223.731175 -66.089514 
L 224.402117 -65.967353 
L 225.073059 -66.001277 
L 225.744001 -65.719093 
L 226.414942 -65.585751 
L 227.085884 -65.557933 
L 227.756826 -65.470838 
L 228.427768 -65.444534 
L 229.09871 -65.507264 
L 229.769652 -65.534348 
L 230.440594 -65.45868 
L 231.111536 -65.516229 
L 231.782477 -65.695875 
L 232.453419 -65.760129 
L 233.124361 -65.653479 
L 233.795303 -65.620451 
L 234.466245 -65.663463 
L 235.137187 -65.527552 
L 235.808129 -65.526178 
L 236.479071 -65.500787 
L 237.150013 -65.101759 
L 237.820954 -64.916279 
L 238.491896 -64.886437 
L 239.162838 -64.848959 
L 239.83378 -64.829634 
L 240.504722 -64.641374 
L 241.175664 -64.38248 
L 241.846606 -64.361687 
L 242.517548 -64.327445 
L 243.188489 -64.397157 
L 243.859431 -64.615301 
L 244.530373 -64.394293 
L 245.201315 -64.305831 
L 245.872257 -64.335857 
L 246.543199 -64.469898 
L 247.214141 -64.317355 
L 247.885083 -64.265498 
L 248.556025 -64.23191 
L 249.226966 -64.289425 
L 249.897908 -63.922762 
L 250.56885 -63.818683 
L 251.239792 -63.796208 
L 251.910734 -63.745395 
L 252.581676 -63.783643 
L 253.252618 -63.618176 
L 253.92356 -63.407832 
L 254.594502 -63.254629 
L 255.265443 -62.920102 
L 255.936385 -63.150059 
L 256.607327 -63.0688 
L 257.278269 -62.892116 
L 257.949211 -62.431839 
L 258.620153 -62.107789 
L 259.291095 -62.034957 
L 259.962037 -61.705693 
L 260.632978 -61.545467 
L 261.30392 -61.439875 
L 261.974862 -61.229625 
L 262.645804 -61.213083 
L 263.316746 -61.231613 
L 263.987688 -61.583861 
L 264.65863 -61.243424 
L 265.329572 -61.020159 
L 266.000514 -61.296021 
L 266.671455 -60.922533 
L 267.342397 -60.758735 
L 268.013339 -60.713681 
L 268.684281 -60.858154 
L 269.355223 -60.659888 
L 270.026165 -60.787442 
L 270.697107 -60.790143 
L 271.368049 -61.062921 
L 272.03899 -60.938379 
L 272.709932 -61.024435 
L 273.380874 -61.138184 
L 274.051816 -61.154763 
L 274.722758 -60.97667 
L 275.3937 -61.056756 
L 276.064642 -61.029444 
L 276.735584 -61.111824 
L 277.406526 -60.700809 
L 278.077467 -60.931097 
L 278.748409 -60.999817 
L 279.419351 -60.773484 
L 280.090293 -60.608831 
L 280.761235 -60.34363 
L 281.432177 -60.254219 
L 282.103119 -60.320945 
L 282.774061 -60.414194 
L 283.445003 -60.410862 
L 284.115944 -60.600425 
L 284.786886 -60.771481 
L 285.457828 -60.477897 
L 286.12877 -60.57515 
L 286.799712 -60.213937 
L 287.470654 -60.174503 
L 288.141596 -60.230693 
L 288.812538 -60.035328 
L 289.483479 -59.934285 
L 290.154421 -60.059501 
L 290.825363 -59.886294 
L 291.496305 -59.730696 
L 292.167247 -59.860753 
L 292.838189 -59.79732 
L 293.509131 -59.415882 
L 294.180073 -59.060142 
L 294.851015 -59.098468 
L 295.521956 -59.232734 
L 296.192898 -59.067752 
L 296.86384 -58.938996 
L 297.534782 -58.790979 
L 298.205724 -58.72105 
L 298.876666 -58.727337 
L 299.547608 -58.634387 
L 300.21855 -58.530604 
L 300.889491 -58.487925 
L 301.560433 -58.432167 
L 302.231375 -58.360825 
L 302.902317 -58.26254 
L 303.573259 -58.096727 
L 304.244201 -58.100603 
L 304.915143 -57.582365 
L 305.586085 -57.162574 
L 306.257027 -56.790317 
L 306.927968 -56.744498 
L 307.59891 -56.790303 
L 308.269852 -56.857176 
L 308.940794 -56.428035 
L 309.611736 -56.531584 
L 310.282678 -56.521831 
L 310.95362 -56.06265 
L 311.624562 -56.358416 
L 312.295504 -56.49745 
L 312.966445 -56.092776 
L 313.637387 -55.9327 
L 314.308329 -55.738679 
L 314.979271 -55.750612 
L 315.650213 -55.957138 
L 316.321155 -55.843517 
L 316.992097 -55.472206 
L 317.663039 -55.291704 
L 318.33398 -55.068639 
L 319.004922 -54.977622 
L 319.675864 -55.395768 
L 320.346806 -55.331067 
L 321.017748 -55.411424 
L 321.68869 -55.131334 
L 322.359632 -55.141581 
L 323.030574 -55.625088 
L 323.701516 -55.49047 
L 324.372457 -55.569796 
L 325.043399 -55.206752 
L 325.714341 -54.778577 
L 326.385283 -54.721615 
L 327.056225 -54.647774 
L 327.727167 -54.606903 
L 328.398109 -54.421004 
L 329.069051 -53.986972 
L 329.739992 -53.673234 
L 330.410934 -53.348426 
L 331.081876 -53.400832 
L 331.752818 -53.171015 
L 332.42376 -53.314519 
L 333.094702 -53.275163 
L 333.765644 -53.006236 
L 334.436586 -52.962957 
L 335.107528 -52.831356 
L 335.778469 -52.727263 
L 336.449411 -52.324775 
L 337.120353 -52.093562 
L 337.791295 -52.056356 
L 338.462237 -51.860231 
L 339.133179 -51.555209 
L 339.804121 -51.587819 
L 340.475063 -51.554359 
L 341.146005 -51.765448 
L 341.816946 -51.478243 
L 342.487888 -51.186291 
L 343.15883 -51.098403 
L 343.829772 -51.140753 
L 344.500714 -51.342554 
L 345.171656 -51.305886 
L 345.842598 -51.400597 
L 346.51354 -51.070288 
L 347.184481 -50.71186 
L 347.855423 -50.513513 
L 348.526365 -50.254835 
L 349.197307 -50.165537 
L 349.868249 -49.896077 
L 350.539191 -50.018558 
L 351.210133 -49.661432 
L 351.881075 -49.87552 
L 352.552017 -49.924347 
L 353.222958 -50.03482 
L 353.8939 -50.217488 
L 354.564842 -50.30427 
L 355.235784 -49.76133 
L 355.906726 -49.760416 
L 356.577668 -49.789078 
L 357.24861 -50.216071 
L 357.919552 -50.271777 
L 358.590493 -50.341026 
L 359.261435 -49.832366 
L 359.932377 -50.0575 
L 360.603319 -50.12364 
L 361.274261 -50.113876 
L 361.945203 -50.358128 
L 362.616145 -50.33593 
L 363.287087 -49.939085 
L 363.958029 -49.855967 
L 364.62897 -49.898398 
L 365.299912 -50.064176 
L 365.970854 -49.920369 
L 366.641796 -50.338662 
L 367.312738 -49.955595 
L 367.98368 -49.995537 
L 368.654622 -50.166722 
L 369.325564 -50.067235 
L 369.996506 -49.961466 
L 370.667447 -49.625986 
L 371.338389 -49.790322 
L 372.009331 -49.087936 
L 372.680273 -48.946013 
L 373.351215 -48.566938 
L 374.022157 -48.792322 
L 374.693099 -48.729816 
L 375.364041 -48.926945 
L 376.034982 -48.791912 
L 376.705924 -48.536817 
L 377.376866 -48.600985 
L 378.047808 -48.579934 
L 378.71875 -48.27322 
L 378.71875 -273.784294 
L 378.71875 -273.784294 
L 378.047808 -272.793756 
L 377.376866 -272.455727 
L 376.705924 -271.583672 
L 376.034982 -270.830695 
L 375.364041 -270.337013 
L 374.693099 -270.052175 
L 374.022157 -269.428865 
L 373.351215 -269.198406 
L 372.680273 -268.241669 
L 372.009331 -267.566474 
L 371.338389 -266.359479 
L 370.667447 -266.202518 
L 369.996506 -265.479154 
L 369.325564 -264.863903 
L 368.654622 -264.213488 
L 367.98368 -263.853298 
L 367.312738 -263.142585 
L 366.641796 -262.310141 
L 365.970854 -262.237608 
L 365.299912 -261.755752 
L 364.62897 -261.784411 
L 363.958029 -261.413532 
L 363.287087 -260.80737 
L 362.616145 -259.939191 
L 361.945203 -259.704998 
L 361.274261 -259.644955 
L 360.603319 -259.127794 
L 359.932377 -258.863874 
L 359.261435 -258.805028 
L 358.590493 -257.719423 
L 357.919552 -257.302549 
L 357.24861 -256.65906 
L 356.577668 -256.632539 
L 355.906726 -256.196954 
L 355.235784 -255.765785 
L 354.564842 -254.823981 
L 353.8939 -254.278637 
L 353.222958 -254.087935 
L 352.552017 -253.813197 
L 351.881075 -253.764853 
L 351.210133 -253.412663 
L 350.539191 -252.280172 
L 349.868249 -252.068689 
L 349.197307 -251.385991 
L 348.526365 -250.948258 
L 347.855423 -250.125625 
L 347.184481 -249.511373 
L 346.51354 -248.434089 
L 345.842598 -247.396443 
L 345.171656 -247.131609 
L 344.500714 -246.8101 
L 343.829772 -246.67644 
L 343.15883 -246.126641 
L 342.487888 -245.273362 
L 341.816946 -244.489416 
L 341.146005 -243.66757 
L 340.475063 -243.314342 
L 339.804121 -242.685257 
L 339.133179 -242.050018 
L 338.462237 -241.272029 
L 337.791295 -240.841378 
L 337.120353 -240.090992 
L 336.449411 -239.336817 
L 335.778469 -238.142444 
L 335.107528 -237.637447 
L 334.436586 -237.335505 
L 333.765644 -236.867588 
L 333.094702 -236.146872 
L 332.42376 -235.476481 
L 331.752818 -235.485667 
L 331.081876 -234.96677 
L 330.410934 -234.442121 
L 329.739992 -233.618439 
L 329.069051 -233.023078 
L 328.398109 -232.19858 
L 327.727167 -231.642353 
L 327.056225 -230.980154 
L 326.385283 -230.534287 
L 325.714341 -230.066159 
L 325.043399 -229.278183 
L 324.372457 -228.295885 
L 323.701516 -227.897581 
L 323.030574 -227.12486 
L 322.359632 -227.265353 
L 321.68869 -227.088947 
L 321.017748 -226.516085 
L 320.346806 -226.002455 
L 319.675864 -225.373519 
L 319.004922 -225.441979 
L 318.33398 -224.853811 
L 317.663039 -224.321666 
L 316.992097 -223.648637 
L 316.321155 -222.655654 
L 315.650213 -222.047943 
L 314.979271 -221.791906 
L 314.308329 -221.572821 
L 313.637387 -220.792346 
L 312.966445 -220.06453 
L 312.295504 -219.086061 
L 311.624562 -218.74047 
L 310.95362 -218.907573 
L 310.282678 -217.845348 
L 309.611736 -217.36021 
L 308.940794 -216.979747 
L 308.269852 -216.057729 
L 307.59891 -215.920735 
L 306.927968 -215.672211 
L 306.257027 -215.321971 
L 305.586085 -214.517058 
L 304.915143 -213.825289 
L 304.244201 -212.810508 
L 303.573259 -212.375441 
L 302.902317 -211.648849 
L 302.231375 -211.228149 
L 301.560433 -210.990338 
L 300.889491 -210.550513 
L 300.21855 -210.000683 
L 299.547608 -209.106324 
L 298.876666 -208.705383 
L 298.205724 -208.431745 
L 297.534782 -207.848393 
L 296.86384 -207.254215 
L 296.192898 -206.614681 
L 295.521956 -205.926193 
L 294.851015 -205.671324 
L 294.180073 -205.209197 
L 293.509131 -204.22082 
L 292.838189 -203.360783 
L 292.167247 -202.826582 
L 291.496305 -202.428428 
L 290.825363 -201.946096 
L 290.154421 -201.49724 
L 289.483479 -201.276326 
L 288.812538 -200.987919 
L 288.141596 -200.404462 
L 287.470654 -200.036728 
L 286.799712 -199.489719 
L 286.12877 -198.560091 
L 285.457828 -198.295039 
L 284.786886 -197.587477 
L 284.115944 -197.240544 
L 283.445003 -196.952971 
L 282.774061 -196.592265 
L 282.103119 -196.43131 
L 281.432177 -196.10229 
L 280.761235 -195.672858 
L 280.090293 -194.996858 
L 279.419351 -194.446662 
L 278.748409 -193.966809 
L 278.077467 -193.377071 
L 277.406526 -193.063389 
L 276.735584 -192.259302 
L 276.064642 -191.943019 
L 275.3937 -191.619612 
L 274.722758 -191.373185 
L 274.051816 -190.884417 
L 273.380874 -190.467986 
L 272.709932 -190.176604 
L 272.03899 -190.057028 
L 271.368049 -189.564147 
L 270.697107 -189.577851 
L 270.026165 -189.190892 
L 269.355223 -188.969233 
L 268.684281 -188.408862 
L 268.013339 -188.266991 
L 267.342397 -187.796192 
L 266.671455 -187.475325 
L 266.000514 -186.627369 
L 265.329572 -186.6617 
L 264.65863 -186.284537 
L 263.987688 -185.528472 
L 263.316746 -185.709788 
L 262.645804 -185.385548 
L 261.974862 -185.077061 
L 261.30392 -184.40216 
L 260.632978 -183.894218 
L 259.962037 -183.365192 
L 259.291095 -182.861756 
L 258.620153 -182.439881 
L 257.949211 -181.767746 
L 257.278269 -180.917807 
L 256.607327 -180.292404 
L 255.936385 -179.870019 
L 255.265443 -179.927159 
L 254.594502 -179.225257 
L 253.92356 -178.543632 
L 253.252618 -177.907136 
L 252.581676 -177.244536 
L 251.910734 -177.072391 
L 251.239792 -176.746465 
L 250.56885 -176.398313 
L 249.897908 -175.892685 
L 249.226966 -175.143862 
L 248.556025 -174.82643 
L 247.885083 -174.582484 
L 247.214141 -174.261935 
L 246.543199 -173.736359 
L 245.872257 -173.564269 
L 245.201315 -173.203668 
L 244.530373 -172.911769 
L 243.859431 -172.258303 
L 243.188489 -172.167026 
L 242.517548 -171.916776 
L 241.846606 -171.609254 
L 241.175664 -171.426697 
L 240.504722 -170.954877 
L 239.83378 -170.404136 
L 239.162838 -169.965544 
L 238.491896 -169.509603 
L 237.820954 -169.233587 
L 237.150013 -168.813298 
L 236.479071 -167.925075 
L 235.808129 -167.510706 
L 235.137187 -167.207468 
L 234.466245 -166.920826 
L 233.795303 -166.731909 
L 233.124361 -166.437706 
L 232.453419 -165.965095 
L 231.782477 -165.619341 
L 231.111536 -165.493864 
L 230.440594 -165.167522 
L 229.769652 -164.689829 
L 229.09871 -164.356744 
L 228.427768 -164.088573 
L 227.756826 -163.882556 
L 227.085884 -163.585901 
L 226.414942 -163.132968 
L 225.744001 -162.721762 
L 225.073059 -162.135119 
L 224.402117 -161.70902 
L 223.731175 -161.120283 
L 223.060233 -160.814821 
L 222.389291 -160.31879 
L 221.718349 -160.310908 
L 221.047407 -159.776601 
L 220.376465 -159.392744 
L 219.705524 -158.918726 
L 219.034582 -158.583884 
L 218.36364 -158.337874 
L 217.692698 -158.006096 
L 217.021756 -157.827497 
L 216.350814 -157.646875 
L 215.679872 -157.222941 
L 215.00893 -156.695138 
L 214.337988 -156.331911 
L 213.667047 -156.087065 
L 212.996105 -155.603256 
L 212.325163 -155.307216 
L 211.654221 -155.037652 
L 210.983279 -154.46752 
L 210.312337 -154.165216 
L 209.641395 -153.626872 
L 208.970453 -153.236429 
L 208.299512 -153.088549 
L 207.62857 -152.680004 
L 206.957628 -152.451053 
L 206.286686 -152.238899 
L 205.615744 -152.196402 
L 204.944802 -151.735113 
L 204.27386 -151.398906 
L 203.602918 -150.860238 
L 202.931976 -150.552986 
L 202.261035 -150.371952 
L 201.590093 -150.077766 
L 200.919151 -149.857662 
L 200.248209 -149.460721 
L 199.577267 -149.351272 
L 198.906325 -149.113041 
L 198.235383 -148.877637 
L 197.564441 -148.716689 
L 196.893499 -148.518017 
L 196.222558 -148.148869 
L 195.551616 -148.041899 
L 194.880674 -147.632845 
L 194.209732 -147.541588 
L 193.53879 -147.047864 
L 192.867848 -146.660375 
L 192.196906 -146.538067 
L 191.525964 -146.386904 
L 190.855023 -145.858742 
L 190.184081 -145.560937 
L 189.513139 -145.207409 
L 188.842197 -144.805061 
L 188.171255 -144.447534 
L 187.500313 -144.275287 
L 186.829371 -143.713848 
L 186.158429 -143.63518 
L 185.487487 -143.197756 
L 184.816546 -143.000002 
L 184.145604 -142.758241 
L 183.474662 -142.44299 
L 182.80372 -142.053084 
L 182.132778 -141.666553 
L 181.461836 -141.386224 
L 180.790894 -140.936593 
L 180.119952 -140.483858 
L 179.449011 -140.137227 
L 178.778069 -140.030667 
L 178.107127 -139.760919 
L 177.436185 -139.377561 
L 176.765243 -139.225277 
L 176.094301 -138.8409 
L 175.423359 -138.62587 
L 174.752417 -138.559774 
L 174.081475 -138.423323 
L 173.410534 -138.246395 
L 172.739592 -138.024725 
L 172.06865 -137.814969 
L 171.397708 -137.463412 
L 170.726766 -137.290137 
L 170.055824 -137.097891 
L 169.384882 -136.679899 
L 168.71394 -136.502925 
L 168.042998 -136.101182 
L 167.372057 -135.871755 
L 166.701115 -135.726022 
L 166.030173 -135.666915 
L 165.359231 -135.353732 
L 164.688289 -135.06035 
L 164.017347 -134.814244 
L 163.346405 -134.270701 
L 162.675463 -133.895 
L 162.004522 -133.531524 
L 161.33358 -133.011986 
L 160.662638 -132.590001 
L 159.991696 -132.397405 
L 159.320754 -132.124185 
L 158.649812 -131.887658 
L 157.97887 -131.597195 
L 157.307928 -131.298864 
L 156.636986 -131.231856 
L 155.966045 -130.798269 
L 155.295103 -130.198228 
L 154.624161 -130.058426 
L 153.953219 -129.650965 
L 153.282277 -129.343135 
L 152.611335 -128.922397 
L 151.940393 -128.572824 
L 151.269451 -128.236413 
L 150.59851 -128.097741 
L 149.927568 -127.638968 
L 149.256626 -127.407129 
L 148.585684 -127.223469 
L 147.914742 -127.067225 
L 147.2438 -126.849875 
L 146.572858 -126.549745 
L 145.901916 -126.260604 
L 145.230974 -126.216179 
L 144.560033 -125.682898 
L 143.889091 -125.539169 
L 143.218149 -125.3012 
L 142.547207 -125.045004 
L 141.876265 -124.663351 
L 141.205323 -124.262405 
L 140.534381 -124.076378 
L 139.863439 -123.880902 
L 139.192497 -123.829346 
L 138.521556 -123.4445 
L 137.850614 -123.294199 
L 137.179672 -122.987869 
L 136.50873 -122.709122 
L 135.837788 -122.521712 
L 135.166846 -122.2442 
L 134.495904 -121.834706 
L 133.824962 -121.565972 
L 133.154021 -121.309882 
L 132.483079 -121.00405 
L 131.812137 -120.442588 
L 131.141195 -120.091938 
L 130.470253 -119.657432 
L 129.799311 -119.167373 
L 129.128369 -118.899513 
L 128.457427 -118.567343 
L 127.786485 -118.186035 
L 127.115544 -117.905205 
L 126.444602 -117.700419 
L 125.77366 -117.451784 
L 125.102718 -117.110584 
L 124.431776 -117.00646 
L 123.760834 -116.688033 
L 123.089892 -116.298175 
L 122.41895 -116.049674 
L 121.748009 -115.740896 
L 121.077067 -115.550119 
L 120.406125 -115.336686 
L 119.735183 -115.216805 
L 119.064241 -115.033082 
L 118.393299 -114.779849 
L 117.722357 -114.534403 
L 117.051415 -114.259013 
L 116.380473 -114.045546 
L 115.709532 -113.758794 
L 115.03859 -113.599699 
L 114.367648 -113.323563 
L 113.696706 -113.137478 
L 113.025764 -112.841237 
L 112.354822 -112.603536 
L 111.68388 -112.515148 
L 111.012938 -112.331259 
L 110.341996 -111.914481 
L 109.671055 -111.513976 
L 109.000113 -111.296566 
L 108.329171 -111.239795 
L 107.658229 -110.892457 
L 106.987287 -110.699087 
L 106.316345 -110.408915 
L 105.645403 -110.074726 
L 104.974461 -109.982892 
L 104.30352 -109.813668 
L 103.632578 -109.53106 
L 102.961636 -109.251096 
L 102.290694 -109.05961 
L 101.619752 -108.763793 
L 100.94881 -108.319703 
L 100.277868 -108.152858 
L 99.606926 -108.00239 
L 98.935984 -107.757802 
L 98.265043 -107.580347 
L 97.594101 -107.262112 
L 96.923159 -107.137549 
L 96.252217 -106.945001 
L 95.581275 -106.642824 
L 94.910333 -106.506082 
L 94.239391 -106.211553 
L 93.568449 -105.992515 
L 92.897508 -105.668631 
L 92.226566 -105.370072 
L 91.555624 -105.114525 
L 90.884682 -104.795525 
L 90.21374 -104.558471 
L 89.542798 -104.543221 
L 88.871856 -104.342331 
L 88.200914 -104.198775 
L 87.529972 -103.962348 
L 86.859031 -103.524056 
L 86.188089 -103.353602 
L 85.517147 -103.128118 
L 84.846205 -102.926175 
L 84.175263 -102.679877 
L 83.504321 -102.484563 
L 82.833379 -102.29125 
L 82.162437 -102.169947 
L 81.491495 -101.978886 
L 80.820554 -101.691403 
L 80.149612 -101.386784 
L 79.47867 -101.094768 
L 78.807728 -100.835356 
L 78.136786 -100.501624 
L 77.465844 -100.327724 
L 76.794902 -100.069531 
L 76.12396 -99.830898 
L 75.453019 -99.597963 
L 74.782077 -99.348401 
L 74.111135 -99.138386 
L 73.440193 -98.821376 
L 72.769251 -98.496512 
L 72.098309 -98.210454 
L 71.427367 -97.884355 
L 70.756425 -97.579656 
L 70.085483 -97.312266 
L 69.414542 -97.037472 
L 68.7436 -96.812651 
L 68.072658 -96.655124 
L 67.401716 -96.399811 
L 66.730774 -96.242954 
L 66.059832 -95.930993 
L 65.38889 -95.708167 
L 64.717948 -95.45798 
L 64.047007 -95.126237 
L 63.376065 -94.830607 
L 62.705123 -94.590601 
L 62.034181 -94.368501 
L 61.363239 -94.109494 
L 60.692297 -93.822095 
L 60.021355 -93.628451 
L 59.350413 -93.334863 
L 58.679471 -93.123797 
L 58.00853 -92.840999 
L 57.337588 -92.496978 
L 56.666646 -92.206327 
L 55.995704 -91.956995 
L 55.324762 -91.682971 
L 54.65382 -91.336937 
L 53.982878 -90.956775 
L 53.311936 -90.639402 
L 52.640994 -90.221273 
L 51.970053 -89.88969 
L 51.299111 -89.603549 
L 50.628169 -89.262452 
L 49.957227 -88.992838 
L 49.286285 -88.719594 
L 48.615343 -88.331686 
L 47.944401 -87.867751 
L 47.273459 -87.389466 
L 46.602518 -86.899526 
L 45.931576 -86.322496 
L 45.260634 -85.827992 
L 44.589692 -85.12163 
L 43.91875 -83.474375 
z
" id="m86ff4d2d9d" style="stroke:#808080;stroke-opacity:0.3;"/>
    </defs>
    <g clip-path="url(#pa931a8e2e1)">
     <use style="fill:#808080;fill-opacity:0.3;stroke:#808080;stroke-opacity:0.3;" x="0" xlink:href="#m86ff4d2d9d" y="299.074375"/>
    </g>
   </g>
   <g id="matplotlib.axis_1">
    <g id="xtick_1">
     <g id="line2d_1">
      <defs>
       <path d="M 0 0 
L 0 3.5 
" id="m278c6a6b7f" style="stroke:#000000;stroke-width:0.8;"/>
      </defs>
      <g>
       <use style="stroke:#000000;stroke-width:0.8;" x="43.91875" xlink:href="#m278c6a6b7f" y="251.84"/>
      </g>
     </g>
     <g id="text_1">
      <!-- 0.0 -->
      <defs>
       <path d="M 31.78125 66.40625 
Q 24.171875 66.40625 20.328125 58.90625 
Q 16.5 51.421875 16.5 36.375 
Q 16.5 21.390625 20.328125 13.890625 
Q 24.171875 6.390625 31.78125 6.390625 
Q 39.453125 6.390625 43.28125 13.890625 
Q 47.125 21.390625 47.125 36.375 
Q 47.125 51.421875 43.28125 58.90625 
Q 39.453125 66.40625 31.78125 66.40625 
z
M 31.78125 74.21875 
Q 44.046875 74.21875 50.515625 64.515625 
Q 56.984375 54.828125 56.984375 36.375 
Q 56.984375 17.96875 50.515625 8.265625 
Q 44.046875 -1.421875 31.78125 -1.421875 
Q 19.53125 -1.421875 13.0625 8.265625 
Q 6.59375 17.96875 6.59375 36.375 
Q 6.59375 54.828125 13.0625 64.515625 
Q 19.53125 74.21875 31.78125 74.21875 
z
" id="DejaVuSans-48"/>
       <path d="M 10.6875 12.40625 
L 21 12.40625 
L 21 0 
L 10.6875 0 
z
" id="DejaVuSans-46"/>
      </defs>
      <g transform="translate(35.967188 266.438437)scale(0.1 -0.1)">
       <use xlink:href="#DejaVuSans-48"/>
       <use x="63.623047" xlink:href="#DejaVuSans-46"/>
       <use x="95.410156" xlink:href="#DejaVuSans-48"/>
      </g>
     </g>
    </g>
    <g id="xtick_2">
     <g id="line2d_2">
      <g>
       <use style="stroke:#000000;stroke-width:0.8;" x="110.87875" xlink:href="#m278c6a6b7f" y="251.84"/>
      </g>
     </g>
     <g id="text_2">
      <!-- 0.2 -->
      <defs>
       <path d="M 19.1875 8.296875 
L 53.609375 8.296875 
L 53.609375 0 
L 7.328125 0 
L 7.328125 8.296875 
Q 12.9375 14.109375 22.625 23.890625 
Q 32.328125 33.6875 34.8125 36.53125 
Q 39.546875 41.84375 41.421875 45.53125 
Q 43.3125 49.21875 43.3125 52.78125 
Q 43.3125 58.59375 39.234375 62.25 
Q 35.15625 65.921875 28.609375 65.921875 
Q 23.96875 65.921875 18.8125 64.3125 
Q 13.671875 62.703125 7.8125 59.421875 
L 7.8125 69.390625 
Q 13.765625 71.78125 18.9375 73 
Q 24.125 74.21875 28.421875 74.21875 
Q 39.75 74.21875 46.484375 68.546875 
Q 53.21875 62.890625 53.21875 53.421875 
Q 53.21875 48.921875 51.53125 44.890625 
Q 49.859375 40.875 45.40625 35.40625 
Q 44.1875 33.984375 37.640625 27.21875 
Q 31.109375 20.453125 19.1875 8.296875 
z
" id="DejaVuSans-50"/>
      </defs>
      <g transform="translate(102.927188 266.438437)scale(0.1 -0.1)">
       <use xlink:href="#DejaVuSans-48"/>
       <use x="63.623047" xlink:href="#DejaVuSans-46"/>
       <use x="95.410156" xlink:href="#DejaVuSans-50"/>
      </g>
     </g>
    </g>
    <g id="xtick_3">
     <g id="line2d_3">
      <g>
       <use style="stroke:#000000;stroke-width:0.8;" x="177.83875" xlink:href="#m278c6a6b7f" y="251.84"/>
      </g>
     </g>
     <g id="text_3">
      <!-- 0.4 -->
      <defs>
       <path d="M 37.796875 64.3125 
L 12.890625 25.390625 
L 37.796875 25.390625 
z
M 35.203125 72.90625 
L 47.609375 72.90625 
L 47.609375 25.390625 
L 58.015625 25.390625 
L 58.015625 17.1875 
L 47.609375 17.1875 
L 47.609375 0 
L 37.796875 0 
L 37.796875 17.1875 
L 4.890625 17.1875 
L 4.890625 26.703125 
z
" id="DejaVuSans-52"/>
      </defs>
      <g transform="translate(169.887188 266.438437)scale(0.1 -0.1)">
       <use xlink:href="#DejaVuSans-48"/>
       <use x="63.623047" xlink:href="#DejaVuSans-46"/>
       <use x="95.410156" xlink:href="#DejaVuSans-52"/>
      </g>
     </g>
    </g>
    <g id="xtick_4">
     <g id="line2d_4">
      <g>
       <use style="stroke:#000000;stroke-width:0.8;" x="244.79875" xlink:href="#m278c6a6b7f" y="251.84"/>
      </g>
     </g>
     <g id="text_4">
      <!-- 0.6 -->
      <defs>
       <path d="M 33.015625 40.375 
Q 26.375 40.375 22.484375 35.828125 
Q 18.609375 31.296875 18.609375 23.390625 
Q 18.609375 15.53125 22.484375 10.953125 
Q 26.375 6.390625 33.015625 6.390625 
Q 39.65625 6.390625 43.53125 10.953125 
Q 47.40625 15.53125 47.40625 23.390625 
Q 47.40625 31.296875 43.53125 35.828125 
Q 39.65625 40.375 33.015625 40.375 
z
M 52.59375 71.296875 
L 52.59375 62.3125 
Q 48.875 64.0625 45.09375 64.984375 
Q 41.3125 65.921875 37.59375 65.921875 
Q 27.828125 65.921875 22.671875 59.328125 
Q 17.53125 52.734375 16.796875 39.40625 
Q 19.671875 43.65625 24.015625 45.921875 
Q 28.375 48.1875 33.59375 48.1875 
Q 44.578125 48.1875 50.953125 41.515625 
Q 57.328125 34.859375 57.328125 23.390625 
Q 57.328125 12.15625 50.6875 5.359375 
Q 44.046875 -1.421875 33.015625 -1.421875 
Q 20.359375 -1.421875 13.671875 8.265625 
Q 6.984375 17.96875 6.984375 36.375 
Q 6.984375 53.65625 15.1875 63.9375 
Q 23.390625 74.21875 37.203125 74.21875 
Q 40.921875 74.21875 44.703125 73.484375 
Q 48.484375 72.75 52.59375 71.296875 
z
" id="DejaVuSans-54"/>
      </defs>
      <g transform="translate(236.847188 266.438437)scale(0.1 -0.1)">
       <use xlink:href="#DejaVuSans-48"/>
       <use x="63.623047" xlink:href="#DejaVuSans-46"/>
       <use x="95.410156" xlink:href="#DejaVuSans-54"/>
      </g>
     </g>
    </g>
    <g id="xtick_5">
     <g id="line2d_5">
      <g>
       <use style="stroke:#000000;stroke-width:0.8;" x="311.75875" xlink:href="#m278c6a6b7f" y="251.84"/>
      </g>
     </g>
     <g id="text_5">
      <!-- 0.8 -->
      <defs>
       <path d="M 31.78125 34.625 
Q 24.75 34.625 20.71875 30.859375 
Q 16.703125 27.09375 16.703125 20.515625 
Q 16.703125 13.921875 20.71875 10.15625 
Q 24.75 6.390625 31.78125 6.390625 
Q 38.8125 6.390625 42.859375 10.171875 
Q 46.921875 13.96875 46.921875 20.515625 
Q 46.921875 27.09375 42.890625 30.859375 
Q 38.875 34.625 31.78125 34.625 
z
M 21.921875 38.8125 
Q 15.578125 40.375 12.03125 44.71875 
Q 8.5 49.078125 8.5 55.328125 
Q 8.5 64.0625 14.71875 69.140625 
Q 20.953125 74.21875 31.78125 74.21875 
Q 42.671875 74.21875 48.875 69.140625 
Q 55.078125 64.0625 55.078125 55.328125 
Q 55.078125 49.078125 51.53125 44.71875 
Q 48 40.375 41.703125 38.8125 
Q 48.828125 37.15625 52.796875 32.3125 
Q 56.78125 27.484375 56.78125 20.515625 
Q 56.78125 9.90625 50.3125 4.234375 
Q 43.84375 -1.421875 31.78125 -1.421875 
Q 19.734375 -1.421875 13.25 4.234375 
Q 6.78125 9.90625 6.78125 20.515625 
Q 6.78125 27.484375 10.78125 32.3125 
Q 14.796875 37.15625 21.921875 38.8125 
z
M 18.3125 54.390625 
Q 18.3125 48.734375 21.84375 45.5625 
Q 25.390625 42.390625 31.78125 42.390625 
Q 38.140625 42.390625 41.71875 45.5625 
Q 45.3125 48.734375 45.3125 54.390625 
Q 45.3125 60.0625 41.71875 63.234375 
Q 38.140625 66.40625 31.78125 66.40625 
Q 25.390625 66.40625 21.84375 63.234375 
Q 18.3125 60.0625 18.3125 54.390625 
z
" id="DejaVuSans-56"/>
      </defs>
      <g transform="translate(303.807187 266.438437)scale(0.1 -0.1)">
       <use xlink:href="#DejaVuSans-48"/>
       <use x="63.623047" xlink:href="#DejaVuSans-46"/>
       <use x="95.410156" xlink:href="#DejaVuSans-56"/>
      </g>
     </g>
    </g>
    <g id="xtick_6">
     <g id="line2d_6">
      <g>
       <use style="stroke:#000000;stroke-width:0.8;" x="378.71875" xlink:href="#m278c6a6b7f" y="251.84"/>
      </g>
     </g>
     <g id="text_6">
      <!-- 1.0 -->
      <defs>
       <path d="M 12.40625 8.296875 
L 28.515625 8.296875 
L 28.515625 63.921875 
L 10.984375 60.40625 
L 10.984375 69.390625 
L 28.421875 72.90625 
L 38.28125 72.90625 
L 38.28125 8.296875 
L 54.390625 8.296875 
L 54.390625 0 
L 12.40625 0 
z
" id="DejaVuSans-49"/>
      </defs>
      <g transform="translate(370.767187 266.438437)scale(0.1 -0.1)">
       <use xlink:href="#DejaVuSans-49"/>
       <use x="63.623047" xlink:href="#DejaVuSans-46"/>
       <use x="95.410156" xlink:href="#DejaVuSans-48"/>
      </g>
     </g>
    </g>
    <g id="text_7">
     <!-- $t$ -->
     <defs>
      <path d="M 42.28125 54.6875 
L 40.921875 47.703125 
L 23 47.703125 
L 17.1875 18.015625 
Q 16.890625 16.359375 16.75 15.234375 
Q 16.609375 14.109375 16.609375 13.484375 
Q 16.609375 10.359375 18.484375 8.9375 
Q 20.359375 7.515625 24.515625 7.515625 
L 33.59375 7.515625 
L 32.078125 0 
L 23.484375 0 
Q 15.484375 0 11.546875 3.125 
Q 7.625 6.25 7.625 12.59375 
Q 7.625 13.71875 7.765625 15.0625 
Q 7.90625 16.40625 8.203125 18.015625 
L 14.015625 47.703125 
L 6.390625 47.703125 
L 7.8125 54.6875 
L 15.28125 54.6875 
L 18.3125 70.21875 
L 27.296875 70.21875 
L 24.3125 54.6875 
z
" id="DejaVuSans-Oblique-116"/>
     </defs>
     <g transform="translate(207.31875 287.715)scale(0.2 -0.2)">
      <use transform="translate(0 0.78125)" xlink:href="#DejaVuSans-Oblique-116"/>
     </g>
    </g>
   </g>
   <g id="matplotlib.axis_2">
    <g id="ytick_1">
     <g id="line2d_7">
      <defs>
       <path d="M 0 0 
L -3.5 0 
" id="m318f40fbf8" style="stroke:#000000;stroke-width:0.8;"/>
      </defs>
      <g>
       <use style="stroke:#000000;stroke-width:0.8;" x="43.91875" xlink:href="#m318f40fbf8" y="251.84"/>
      </g>
     </g>
     <g id="text_8">
      <!-- 0 -->
      <g transform="translate(30.55625 255.639219)scale(0.1 -0.1)">
       <use xlink:href="#DejaVuSans-48"/>
      </g>
     </g>
    </g>
    <g id="ytick_2">
     <g id="line2d_8">
      <g>
       <use style="stroke:#000000;stroke-width:0.8;" x="43.91875" xlink:href="#m318f40fbf8" y="179.36"/>
      </g>
     </g>
     <g id="text_9">
      <!-- 2 -->
      <g transform="translate(30.55625 183.159219)scale(0.1 -0.1)">
       <use xlink:href="#DejaVuSans-50"/>
      </g>
     </g>
    </g>
    <g id="ytick_3">
     <g id="line2d_9">
      <g>
       <use style="stroke:#000000;stroke-width:0.8;" x="43.91875" xlink:href="#m318f40fbf8" y="106.88"/>
      </g>
     </g>
     <g id="text_10">
      <!-- 4 -->
      <g transform="translate(30.55625 110.679219)scale(0.1 -0.1)">
       <use xlink:href="#DejaVuSans-52"/>
      </g>
     </g>
    </g>
    <g id="ytick_4">
     <g id="line2d_10">
      <g>
       <use style="stroke:#000000;stroke-width:0.8;" x="43.91875" xlink:href="#m318f40fbf8" y="34.4"/>
      </g>
     </g>
     <g id="text_11">
      <!-- 6 -->
      <g transform="translate(30.55625 38.199219)scale(0.1 -0.1)">
       <use xlink:href="#DejaVuSans-54"/>
      </g>
     </g>
    </g>
    <g id="text_12">
     <!-- $X(t)$ -->
     <defs>
      <path d="M 13.71875 72.90625 
L 23.6875 72.90625 
L 36.1875 46.578125 
L 58.796875 72.90625 
L 70.3125 72.90625 
L 40.28125 38.09375 
L 58.40625 0 
L 48.484375 0 
L 33.796875 30.71875 
L 7.171875 0 
L -4.296875 0 
L 29.78125 39.203125 
z
" id="DejaVuSans-Oblique-88"/>
      <path d="M 31 75.875 
Q 24.46875 64.65625 21.28125 53.65625 
Q 18.109375 42.671875 18.109375 31.390625 
Q 18.109375 20.125 21.3125 9.0625 
Q 24.515625 -2 31 -13.1875 
L 23.1875 -13.1875 
Q 15.875 -1.703125 12.234375 9.375 
Q 8.59375 20.453125 8.59375 31.390625 
Q 8.59375 42.28125 12.203125 53.3125 
Q 15.828125 64.359375 23.1875 75.875 
z
" id="DejaVuSans-40"/>
      <path d="M 8.015625 75.875 
L 15.828125 75.875 
Q 23.140625 64.359375 26.78125 53.3125 
Q 30.421875 42.28125 30.421875 31.390625 
Q 30.421875 20.453125 26.78125 9.375 
Q 23.140625 -1.703125 15.828125 -13.1875 
L 8.015625 -13.1875 
Q 14.5 -2 17.703125 9.0625 
Q 20.90625 20.125 20.90625 31.390625 
Q 20.90625 42.671875 17.703125 53.65625 
Q 14.5 64.65625 8.015625 75.875 
z
" id="DejaVuSans-41"/>
     </defs>
     <g transform="translate(22.396875 161.72)rotate(-90)scale(0.2 -0.2)">
      <use transform="translate(0 0.125)" xlink:href="#DejaVuSans-Oblique-88"/>
      <use transform="translate(68.505859 0.125)" xlink:href="#DejaVuSans-40"/>
      <use transform="translate(107.519531 0.125)" xlink:href="#DejaVuSans-Oblique-116"/>
      <use transform="translate(146.728516 0.125)" xlink:href="#DejaVuSans-41"/>
     </g>
    </g>
   </g>
   <g id="line2d_11">
    <path clip-path="url(#pa931a8e2e1)" d="M 43.91875 215.6 
L 44.589692 214.066307 
L 45.260634 213.517062 
L 45.931576 214.734119 
L 46.602518 213.311195 
L 47.273459 212.700779 
L 47.944401 212.349714 
L 48.615343 210.421352 
L 49.286285 210.813336 
L 49.957227 209.803483 
L 50.628169 208.363109 
L 51.299111 208.472336 
L 51.970053 208.314784 
L 52.640994 207.29559 
L 53.982878 208.453029 
L 54.65382 205.89736 
L 55.324762 207.781803 
L 55.995704 208.307691 
L 56.666646 208.214498 
L 57.337588 206.797985 
L 58.00853 206.373318 
L 58.679471 207.275231 
L 59.350413 207.970035 
L 60.021355 207.730622 
L 60.692297 207.975836 
L 62.034181 207.097832 
L 62.705123 206.250901 
L 63.376065 207.117399 
L 64.047007 205.976712 
L 64.717948 205.501647 
L 65.38889 206.300349 
L 66.059832 205.778423 
L 66.730774 207.079971 
L 67.401716 208.057866 
L 68.072658 207.58853 
L 68.7436 207.886834 
L 69.414542 209.058064 
L 70.085483 209.263085 
L 70.756425 209.901747 
L 71.427367 211.601114 
L 72.098309 212.71294 
L 72.769251 213.537606 
L 74.111135 215.769161 
L 74.782077 215.23997 
L 75.453019 215.24179 
L 76.12396 214.292497 
L 76.794902 214.785562 
L 77.465844 215.882995 
L 78.136786 215.75762 
L 78.807728 215.498183 
L 79.47867 214.455553 
L 80.149612 213.913877 
L 80.820554 214.015749 
L 81.491495 214.236063 
L 82.162437 213.888537 
L 82.833379 213.042303 
L 83.504321 213.225722 
L 84.175263 211.660057 
L 84.846205 212.538025 
L 85.517147 211.116688 
L 86.188089 210.917808 
L 86.859031 210.420725 
L 87.529972 211.68115 
L 88.200914 212.249608 
L 88.871856 212.489675 
L 89.542798 212.199277 
L 90.21374 212.566306 
L 90.884682 213.207087 
L 91.555624 214.707783 
L 92.226566 215.147601 
L 92.897508 214.938251 
L 93.568449 213.937869 
L 94.239391 215.251177 
L 94.910333 214.586295 
L 95.581275 215.167238 
L 96.252217 214.027508 
L 98.935984 212.137521 
L 99.606926 212.378499 
L 100.277868 211.546557 
L 100.94881 211.370159 
L 101.619752 210.783165 
L 102.290694 210.922932 
L 102.961636 213.320238 
L 103.632578 213.529201 
L 104.30352 212.468832 
L 104.974461 212.285161 
L 105.645403 212.460944 
L 106.316345 212.190576 
L 106.987287 212.854153 
L 107.658229 213.800918 
L 108.329171 215.529732 
L 109.000113 214.111817 
L 109.671055 214.027278 
L 110.341996 212.154949 
L 111.012938 212.136015 
L 111.68388 212.48443 
L 112.354822 211.457604 
L 113.025764 209.905121 
L 113.696706 209.758538 
L 114.367648 209.869973 
L 115.03859 210.111725 
L 115.709532 207.969647 
L 116.380473 207.7036 
L 117.722357 209.339528 
L 119.064241 207.331864 
L 119.735183 208.335419 
L 120.406125 208.539518 
L 121.077067 207.700803 
L 121.748009 207.091522 
L 122.41895 207.298547 
L 123.089892 207.625605 
L 123.760834 206.750362 
L 124.431776 206.695799 
L 125.102718 204.68781 
L 126.444602 205.447838 
L 127.115544 205.161399 
L 128.457427 207.154402 
L 129.128369 206.416453 
L 129.799311 206.594917 
L 130.470253 205.87016 
L 131.141195 205.567793 
L 131.812137 206.65734 
L 132.483079 206.111524 
L 133.154021 207.165111 
L 133.824962 207.529929 
L 134.495904 205.815743 
L 135.166846 206.544815 
L 135.837788 206.895949 
L 136.50873 206.740298 
L 137.179672 205.885301 
L 137.850614 205.608021 
L 138.521556 205.07663 
L 139.192497 205.890859 
L 139.863439 205.259772 
L 140.534381 204.278942 
L 141.205323 205.486217 
L 141.876265 206.193722 
L 142.547207 206.217929 
L 143.218149 206.931677 
L 143.889091 207.024734 
L 144.560033 205.610523 
L 145.230974 204.921114 
L 145.901916 206.475902 
L 146.572858 205.452202 
L 147.2438 205.227819 
L 147.914742 202.890148 
L 148.585684 202.817018 
L 149.256626 203.216335 
L 149.927568 204.206063 
L 150.59851 206.217629 
L 151.269451 206.257031 
L 151.940393 207.361572 
L 152.611335 205.089958 
L 153.282277 206.896793 
L 153.953219 206.670376 
L 154.624161 206.29396 
L 155.295103 206.649777 
L 155.966045 207.872112 
L 156.636986 208.358501 
L 157.307928 207.83032 
L 157.97887 209.470064 
L 158.649812 208.797285 
L 159.320754 208.776842 
L 159.991696 207.196612 
L 160.662638 207.795586 
L 161.33358 209.409527 
L 162.004522 210.612074 
L 162.675463 210.80353 
L 163.346405 209.477053 
L 164.017347 209.865065 
L 165.359231 208.65499 
L 166.030173 207.778115 
L 166.701115 208.95185 
L 167.372057 208.028946 
L 168.042998 206.48236 
L 168.71394 207.497168 
L 169.384882 207.67385 
L 170.055824 206.3794 
L 170.726766 206.005826 
L 171.397708 206.239401 
L 172.06865 206.196438 
L 172.739592 205.107499 
L 173.410534 204.435331 
L 174.752417 206.34789 
L 175.423359 206.402658 
L 176.094301 206.930118 
L 176.765243 206.785683 
L 177.436185 205.105471 
L 178.107127 205.426173 
L 178.778069 205.291961 
L 179.449011 204.64315 
L 180.119952 204.427531 
L 180.790894 206.126863 
L 181.461836 205.542897 
L 182.132778 203.884639 
L 182.80372 204.080944 
L 183.474662 206.219069 
L 184.145604 205.887131 
L 184.816546 205.843088 
L 186.158429 206.867366 
L 186.829371 208.739568 
L 187.500313 208.861255 
L 188.171255 209.25579 
L 188.842197 210.838762 
L 189.513139 211.740857 
L 190.184081 211.29738 
L 190.855023 211.164948 
L 191.525964 210.787464 
L 192.196906 209.458365 
L 193.53879 204.983309 
L 194.880674 205.183393 
L 195.551616 204.465912 
L 196.222558 202.116995 
L 196.893499 202.175248 
L 197.564441 202.068927 
L 198.235383 199.804895 
L 198.906325 199.152891 
L 199.577267 201.779599 
L 200.248209 202.418229 
L 200.919151 202.044457 
L 201.590093 202.792146 
L 202.261035 204.087255 
L 202.931976 201.098912 
L 203.602918 201.228478 
L 204.27386 203.755544 
L 204.944802 203.582231 
L 205.615744 202.706625 
L 206.286686 202.421706 
L 206.957628 202.319442 
L 207.62857 204.443294 
L 208.299512 204.097488 
L 208.970453 205.61196 
L 209.641395 205.616597 
L 210.312337 205.966745 
L 210.983279 206.17757 
L 212.325163 208.294955 
L 213.667047 209.305464 
L 214.337988 210.512735 
L 215.00893 212.025137 
L 215.679872 212.821243 
L 216.350814 212.902472 
L 217.021756 213.628275 
L 218.36364 215.813089 
L 219.705524 213.32316 
L 220.376465 213.403883 
L 221.047407 212.974915 
L 221.718349 213.024103 
L 222.389291 212.881334 
L 223.060233 212.516968 
L 223.731175 214.165679 
L 224.402117 214.877556 
L 225.073059 215.033052 
L 225.744001 215.372419 
L 226.414942 214.842154 
L 227.085884 215.495994 
L 227.756826 215.748207 
L 228.427768 217.060142 
L 229.09871 217.302506 
L 229.769652 217.018468 
L 230.440594 218.246571 
L 231.782477 219.252777 
L 232.453419 218.869559 
L 233.124361 219.742841 
L 233.795303 221.193957 
L 234.466245 220.677484 
L 235.137187 221.189639 
L 235.808129 221.122778 
L 236.479071 220.348533 
L 237.150013 219.915396 
L 237.820954 220.232759 
L 238.491896 219.955831 
L 239.162838 219.426807 
L 239.83378 219.293226 
L 240.504722 218.524021 
L 241.175664 218.422197 
L 241.846606 219.013342 
L 243.188489 219.071051 
L 243.859431 218.946857 
L 244.530373 219.862249 
L 245.201315 219.180622 
L 246.543199 216.819842 
L 247.214141 217.396116 
L 247.885083 216.718738 
L 248.556025 217.089784 
L 249.226966 217.878355 
L 249.897908 218.231795 
L 250.56885 217.356863 
L 251.239792 217.824168 
L 251.910734 217.183927 
L 252.581676 218.313432 
L 253.252618 218.962936 
L 255.265443 218.028302 
L 256.607327 217.31993 
L 257.949211 216.629762 
L 258.620153 215.879146 
L 259.291095 216.751853 
L 259.962037 216.293429 
L 260.632978 216.20952 
L 261.30392 216.442004 
L 261.974862 216.203387 
L 263.316746 215.867182 
L 263.987688 216.480588 
L 264.65863 216.234542 
L 265.329572 216.371144 
L 266.000514 217.0901 
L 266.671455 215.744177 
L 267.342397 215.260203 
L 268.013339 215.296241 
L 268.684281 214.805817 
L 269.355223 213.402875 
L 270.026165 214.000999 
L 270.697107 214.449725 
L 271.368049 214.025281 
L 272.03899 213.899474 
L 272.709932 214.19214 
L 273.380874 213.950636 
L 274.051816 212.984892 
L 274.722758 212.79853 
L 276.735584 213.702994 
L 277.406526 213.510313 
L 278.077467 212.0963 
L 278.748409 211.693231 
L 279.419351 212.579301 
L 280.090293 214.091656 
L 280.761235 212.741787 
L 281.432177 213.039494 
L 282.103119 213.673844 
L 282.774061 213.572215 
L 283.445003 212.603081 
L 284.115944 212.07871 
L 284.786886 212.202598 
L 285.457828 212.183383 
L 286.12877 213.988967 
L 286.799712 214.060065 
L 288.141596 216.5215 
L 288.812538 216.016015 
L 289.483479 215.813616 
L 290.154421 216.054634 
L 290.825363 216.092737 
L 291.496305 217.018369 
L 292.167247 217.246977 
L 292.838189 217.141735 
L 293.509131 215.483766 
L 294.180073 214.588809 
L 294.851015 215.480672 
L 295.521956 215.876919 
L 296.192898 215.012533 
L 296.86384 216.667175 
L 297.534782 217.733411 
L 298.205724 217.661686 
L 298.876666 217.73851 
L 299.547608 217.992028 
L 300.21855 219.621277 
L 300.889491 219.588784 
L 301.560433 217.905739 
L 302.231375 218.469355 
L 302.902317 218.254929 
L 303.573259 217.604026 
L 304.244201 218.10822 
L 304.915143 217.70012 
L 306.257027 216.135346 
L 306.927968 216.19536 
L 307.59891 216.609908 
L 308.269852 216.440529 
L 308.940794 216.953683 
L 309.611736 216.587851 
L 310.282678 216.712492 
L 310.95362 215.560829 
L 311.624562 214.096458 
L 312.295504 214.438463 
L 312.966445 215.23451 
L 313.637387 214.802438 
L 314.308329 214.617304 
L 314.979271 212.870764 
L 315.650213 212.496644 
L 316.321155 213.285419 
L 317.663039 213.824834 
L 318.33398 215.091683 
L 319.675864 213.51832 
L 321.017748 215.236776 
L 321.68869 214.980157 
L 322.359632 216.499691 
L 323.701516 216.800247 
L 324.372457 215.870011 
L 325.043399 216.853026 
L 325.714341 217.633057 
L 327.056225 215.810891 
L 327.727167 215.768043 
L 328.398109 216.965872 
L 329.739992 215.513126 
L 330.410934 215.20904 
L 331.752818 216.098693 
L 332.42376 216.56325 
L 333.094702 217.959214 
L 334.436586 216.275271 
L 335.778469 217.440438 
L 336.449411 218.145723 
L 337.120353 218.292837 
L 337.791295 217.403027 
L 338.462237 217.057034 
L 339.133179 217.799289 
L 339.804121 218.099757 
L 340.475063 217.263915 
L 341.146005 217.781937 
L 341.816946 218.022064 
L 343.829772 216.144226 
L 344.500714 216.472794 
L 345.171656 216.516611 
L 345.842598 217.320726 
L 346.51354 217.108759 
L 347.184481 217.116418 
L 347.855423 217.301849 
L 348.526365 217.287218 
L 349.868249 216.65386 
L 350.539191 216.483373 
L 351.210133 215.558564 
L 351.881075 214.953335 
L 352.552017 215.192594 
L 353.222958 214.438067 
L 353.8939 214.193535 
L 354.564842 214.341111 
L 355.235784 214.936931 
L 355.906726 215.265303 
L 356.577668 215.803703 
L 357.24861 215.360666 
L 357.919552 214.486577 
L 358.590493 214.975236 
L 359.261435 215.094898 
L 359.932377 215.886938 
L 360.603319 215.230996 
L 361.274261 215.309769 
L 362.616145 213.760801 
L 363.287087 213.966302 
L 363.958029 214.470399 
L 364.62897 214.166652 
L 365.299912 212.993714 
L 365.970854 213.216503 
L 366.641796 211.512252 
L 367.312738 211.5497 
L 367.98368 210.401335 
L 368.654622 206.603459 
L 369.325564 205.826496 
L 369.996506 205.849235 
L 370.667447 204.314613 
L 371.338389 204.151764 
L 372.009331 206.156297 
L 372.680273 204.776056 
L 374.022157 203.095328 
L 374.693099 202.658634 
L 375.364041 202.371358 
L 376.034982 201.65416 
L 376.705924 201.118645 
L 378.047808 202.388622 
L 378.71875 202.587021 
L 378.71875 202.587021 
" style="fill:none;stroke:#ff0000;stroke-linecap:square;stroke-width:1.5;"/>
   </g>
   <g id="line2d_12">
    <path clip-path="url(#pa931a8e2e1)" d="M 43.91875 215.6 
L 44.589692 215.200926 
L 45.260634 214.38742 
L 45.931576 215.721731 
L 46.602518 215.1861 
L 47.273459 213.566788 
L 48.615343 214.810739 
L 50.628169 213.641295 
L 51.299111 214.271196 
L 51.970053 214.256867 
L 52.640994 213.823654 
L 53.311936 214.906565 
L 53.982878 215.082297 
L 54.65382 214.521921 
L 55.324762 215.137958 
L 55.995704 216.883928 
L 56.666646 216.219238 
L 57.337588 217.095003 
L 58.00853 217.025677 
L 58.679471 218.236586 
L 59.350413 218.878047 
L 60.021355 220.304695 
L 60.692297 219.107735 
L 61.363239 218.934275 
L 62.034181 218.573436 
L 62.705123 218.530404 
L 63.376065 218.598779 
L 64.047007 220.260325 
L 64.717948 219.980587 
L 66.730774 216.071821 
L 67.401716 216.464931 
L 68.072658 215.273095 
L 68.7436 214.887125 
L 69.414542 214.931563 
L 70.085483 215.317655 
L 70.756425 214.374104 
L 71.427367 213.673572 
L 72.098309 215.322461 
L 72.769251 214.781842 
L 73.440193 214.930025 
L 74.782077 217.07118 
L 75.453019 217.541624 
L 76.12396 217.396507 
L 76.794902 219.611206 
L 77.465844 220.718324 
L 78.136786 219.447681 
L 78.807728 218.809915 
L 79.47867 218.354593 
L 80.149612 218.354926 
L 80.820554 217.506895 
L 82.162437 216.280431 
L 82.833379 216.327847 
L 83.504321 217.401956 
L 84.175263 217.448764 
L 84.846205 218.022732 
L 85.517147 217.353987 
L 86.859031 216.665054 
L 87.529972 215.94171 
L 88.200914 216.167006 
L 89.542798 218.430214 
L 90.21374 218.472516 
L 90.884682 219.196533 
L 91.555624 217.875836 
L 92.897508 220.557246 
L 93.568449 219.847561 
L 94.910333 219.624079 
L 95.581275 220.100064 
L 96.252217 219.788434 
L 96.923159 220.287514 
L 97.594101 219.305775 
L 98.265043 218.585211 
L 98.935984 219.166944 
L 99.606926 218.883684 
L 100.277868 218.225699 
L 100.94881 218.568932 
L 102.290694 218.564896 
L 102.961636 218.634184 
L 103.632578 218.963133 
L 104.30352 219.685844 
L 104.974461 218.330887 
L 105.645403 218.779018 
L 106.316345 219.706191 
L 106.987287 217.763526 
L 107.658229 217.918145 
L 108.329171 216.7385 
L 109.000113 218.140215 
L 109.671055 218.103995 
L 110.341996 218.307198 
L 111.012938 218.917161 
L 111.68388 217.887162 
L 112.354822 217.086353 
L 114.367648 216.319987 
L 115.03859 215.009778 
L 115.709532 214.360562 
L 116.380473 214.814515 
L 117.051415 214.029348 
L 117.722357 214.690567 
L 118.393299 215.828969 
L 119.064241 215.636466 
L 119.735183 215.619736 
L 120.406125 213.663454 
L 121.077067 212.890492 
L 121.748009 213.441752 
L 122.41895 213.475275 
L 123.089892 212.766842 
L 123.760834 212.850098 
L 124.431776 212.298847 
L 125.102718 213.530631 
L 125.77366 212.240695 
L 127.115544 212.668124 
L 127.786485 213.580914 
L 128.457427 211.694018 
L 129.799311 213.085979 
L 130.470253 211.32956 
L 131.141195 211.045369 
L 131.812137 211.080128 
L 132.483079 210.627386 
L 133.154021 211.920738 
L 133.824962 211.563498 
L 134.495904 211.490251 
L 135.166846 213.031027 
L 135.837788 213.51566 
L 136.50873 214.716045 
L 137.850614 212.488906 
L 138.521556 212.860956 
L 139.192497 212.384496 
L 139.863439 212.228775 
L 141.205323 212.416468 
L 141.876265 212.807442 
L 142.547207 212.953402 
L 143.218149 214.802357 
L 143.889091 216.305765 
L 144.560033 216.250605 
L 145.230974 217.212797 
L 145.901916 217.219179 
L 146.572858 216.469505 
L 147.2438 216.441429 
L 147.914742 216.58429 
L 148.585684 216.991033 
L 149.256626 217.033241 
L 149.927568 215.247907 
L 150.59851 214.819857 
L 151.269451 215.298894 
L 151.940393 214.833434 
L 152.611335 213.186648 
L 153.282277 212.276712 
L 153.953219 213.259043 
L 154.624161 213.738462 
L 155.295103 213.490558 
L 155.966045 212.957204 
L 156.636986 213.939927 
L 157.307928 213.143229 
L 157.97887 211.983026 
L 158.649812 211.313102 
L 159.320754 211.739861 
L 159.991696 211.480986 
L 161.33358 212.144418 
L 162.004522 211.541473 
L 162.675463 211.617415 
L 163.346405 211.091781 
L 164.688289 211.195294 
L 165.359231 211.457763 
L 166.030173 210.991807 
L 166.701115 210.374505 
L 167.372057 212.097591 
L 168.71394 213.769729 
L 169.384882 213.425731 
L 170.055824 212.149175 
L 170.726766 212.022754 
L 171.397708 212.210992 
L 172.06865 212.080512 
L 172.739592 213.354642 
L 173.410534 213.865928 
L 174.081475 213.610839 
L 174.752417 212.91151 
L 175.423359 212.444553 
L 176.094301 211.448119 
L 176.765243 212.228819 
L 177.436185 212.828619 
L 178.107127 213.635313 
L 178.778069 213.267925 
L 179.449011 213.426989 
L 180.119952 214.25382 
L 180.790894 213.985624 
L 181.461836 212.73329 
L 182.132778 213.286538 
L 182.80372 214.372543 
L 183.474662 214.665863 
L 184.145604 215.232782 
L 184.816546 214.182723 
L 185.487487 214.466218 
L 186.829371 216.805379 
L 187.500313 215.912816 
L 188.171255 216.008292 
L 189.513139 215.279523 
L 190.184081 214.23236 
L 190.855023 216.032888 
L 191.525964 216.633549 
L 192.196906 216.371574 
L 192.867848 216.258731 
L 193.53879 215.92822 
L 194.209732 215.404907 
L 194.880674 214.52518 
L 195.551616 214.305914 
L 196.222558 213.037313 
L 196.893499 213.106148 
L 197.564441 211.762973 
L 198.235383 209.123271 
L 198.906325 208.267894 
L 199.577267 209.522329 
L 200.248209 208.597011 
L 200.919151 208.053297 
L 201.590093 207.738216 
L 202.261035 206.881333 
L 202.931976 207.557031 
L 203.602918 207.062486 
L 204.27386 205.830082 
L 204.944802 205.004027 
L 206.286686 207.006734 
L 206.957628 206.886294 
L 207.62857 206.268599 
L 208.970453 207.3378 
L 209.641395 204.913232 
L 210.312337 205.64404 
L 210.983279 204.636094 
L 212.325163 205.496618 
L 213.667047 205.911782 
L 214.337988 205.541117 
L 215.00893 205.685152 
L 215.679872 204.198644 
L 216.350814 205.177253 
L 217.692698 205.498314 
L 218.36364 205.370696 
L 219.034582 204.712852 
L 219.705524 203.076102 
L 220.376465 203.623897 
L 221.047407 202.91785 
L 221.718349 203.477928 
L 222.389291 203.751182 
L 223.060233 202.638493 
L 223.731175 202.374347 
L 224.402117 201.915676 
L 225.073059 202.118708 
L 225.744001 202.074454 
L 226.414942 202.404576 
L 227.085884 200.546448 
L 227.756826 203.647944 
L 228.427768 203.657312 
L 229.09871 202.149584 
L 229.769652 203.220045 
L 230.440594 202.862407 
L 231.111536 204.445487 
L 231.782477 205.213239 
L 232.453419 203.211239 
L 233.124361 204.386393 
L 234.466245 204.976012 
L 235.137187 206.634737 
L 235.808129 205.925125 
L 236.479071 206.066035 
L 237.150013 206.926863 
L 237.820954 206.918477 
L 238.491896 207.919327 
L 239.162838 209.449172 
L 239.83378 208.270101 
L 240.504722 208.565421 
L 241.175664 210.305094 
L 241.846606 210.50358 
L 242.517548 209.312406 
L 243.188489 210.241905 
L 243.859431 210.815784 
L 244.530373 214.115914 
L 245.201315 212.867297 
L 245.872257 213.733418 
L 246.543199 212.778079 
L 247.214141 213.394986 
L 248.556025 214.270915 
L 249.226966 215.553852 
L 250.56885 217.17218 
L 251.239792 216.71319 
L 251.910734 216.562101 
L 252.581676 216.787466 
L 253.252618 217.318803 
L 254.594502 216.823205 
L 255.936385 217.423853 
L 256.607327 218.184124 
L 257.278269 217.895596 
L 257.949211 218.544685 
L 258.620153 218.21972 
L 259.291095 217.05666 
L 259.962037 217.12196 
L 260.632978 218.221995 
L 261.974862 217.724674 
L 262.645804 215.528143 
L 263.316746 216.427661 
L 263.987688 216.138511 
L 264.65863 217.018465 
L 265.329572 216.934042 
L 266.000514 216.238615 
L 266.671455 216.419901 
L 267.342397 215.662165 
L 268.013339 216.213924 
L 268.684281 215.727221 
L 269.355223 215.521375 
L 270.026165 214.72081 
L 270.697107 214.156667 
L 271.368049 214.413027 
L 272.709932 212.825863 
L 273.380874 213.695329 
L 274.051816 212.396913 
L 274.722758 212.366976 
L 275.3937 212.079472 
L 276.064642 212.186183 
L 276.735584 213.00268 
L 277.406526 213.586432 
L 278.077467 213.717027 
L 279.419351 211.827234 
L 280.090293 212.036886 
L 280.761235 212.090997 
L 281.432177 213.241083 
L 282.103119 212.286118 
L 282.774061 211.719621 
L 283.445003 211.946802 
L 284.115944 210.36867 
L 284.786886 211.325589 
L 285.457828 210.262057 
L 286.799712 205.31279 
L 288.141596 203.456192 
L 288.812538 204.181639 
L 289.483479 204.381224 
L 290.154421 206.527957 
L 290.825363 206.237069 
L 291.496305 206.287266 
L 292.167247 205.651131 
L 292.838189 205.254531 
L 294.180073 206.239597 
L 294.851015 203.902786 
L 295.521956 203.101586 
L 296.192898 202.983804 
L 296.86384 204.183041 
L 298.205724 204.64703 
L 298.876666 204.923216 
L 299.547608 202.672446 
L 300.21855 201.16056 
L 300.889491 202.702868 
L 301.560433 203.01511 
L 302.231375 202.243481 
L 302.902317 202.378792 
L 303.573259 202.218642 
L 304.244201 203.896286 
L 304.915143 201.750297 
L 305.586085 201.200331 
L 306.257027 199.343056 
L 306.927968 199.794815 
L 307.59891 200.044656 
L 308.269852 200.436966 
L 308.940794 201.340897 
L 309.611736 199.203577 
L 310.282678 199.50162 
L 310.95362 200.248771 
L 311.624562 199.687578 
L 312.295504 197.862459 
L 312.966445 197.58483 
L 313.637387 195.77719 
L 314.308329 195.456023 
L 314.979271 196.244556 
L 315.650213 196.453449 
L 316.321155 196.495395 
L 317.663039 196.958505 
L 318.33398 198.555604 
L 319.675864 197.024308 
L 320.346806 197.158774 
L 321.017748 195.437812 
L 321.68869 193.306679 
L 322.359632 194.934052 
L 323.030574 195.461321 
L 323.701516 193.999441 
L 324.372457 191.101914 
L 325.043399 191.572631 
L 325.714341 191.007804 
L 326.385283 190.122464 
L 327.056225 190.016835 
L 327.727167 189.757881 
L 328.398109 191.384179 
L 329.069051 191.23066 
L 329.739992 190.20779 
L 330.410934 189.868888 
L 331.081876 189.960066 
L 331.752818 190.331204 
L 332.42376 190.956682 
L 333.094702 188.767931 
L 333.765644 188.013101 
L 334.436586 185.614346 
L 335.107528 184.097434 
L 335.778469 183.437797 
L 336.449411 183.820944 
L 337.120353 182.407231 
L 338.462237 185.40443 
L 339.133179 185.068334 
L 339.804121 183.740108 
L 341.146005 183.437963 
L 341.816946 182.800627 
L 342.487888 182.580723 
L 343.15883 182.046806 
L 343.829772 181.853562 
L 344.500714 180.03026 
L 345.171656 180.885053 
L 345.842598 180.15224 
L 346.51354 180.869289 
L 347.184481 177.802646 
L 347.855423 179.061411 
L 348.526365 177.84046 
L 349.197307 178.07952 
L 349.868249 177.455766 
L 350.539191 178.091169 
L 351.210133 179.691497 
L 351.881075 181.949479 
L 352.552017 179.088611 
L 353.222958 180.07989 
L 354.564842 183.311179 
L 355.235784 182.275091 
L 356.577668 184.598816 
L 357.919552 181.657308 
L 358.590493 183.245053 
L 359.261435 183.39913 
L 359.932377 179.926195 
L 360.603319 181.081059 
L 361.274261 180.223885 
L 361.945203 178.535707 
L 362.616145 174.926117 
L 363.287087 174.638897 
L 363.958029 176.260285 
L 364.62897 176.049122 
L 365.299912 173.54467 
L 365.970854 173.954071 
L 366.641796 174.946924 
L 367.312738 174.561035 
L 367.98368 172.489516 
L 368.654622 172.780246 
L 369.325564 168.048562 
L 370.667447 163.816689 
L 371.338389 163.288082 
L 372.009331 163.195584 
L 372.680273 165.615513 
L 373.351215 166.356832 
L 374.022157 164.743163 
L 374.693099 166.097585 
L 375.364041 164.205535 
L 376.034982 163.315438 
L 376.705924 163.328372 
L 377.376866 164.722574 
L 378.047808 165.298527 
L 378.71875 163.882162 
L 378.71875 163.882162 
" style="fill:none;stroke:#008000;stroke-linecap:square;stroke-width:1.5;"/>
   </g>
   <g id="line2d_13">
    <path clip-path="url(#pa931a8e2e1)" d="M 43.91875 215.6 
L 44.589692 214.72383 
L 45.260634 214.998921 
L 45.931576 214.886916 
L 46.602518 214.907456 
L 47.273459 214.608361 
L 47.944401 215.793984 
L 48.615343 215.628945 
L 49.286285 217.181079 
L 49.957227 216.38571 
L 50.628169 216.37568 
L 51.299111 214.899977 
L 51.970053 214.318656 
L 52.640994 215.218886 
L 53.982878 212.680016 
L 54.65382 212.948553 
L 55.324762 211.093828 
L 56.666646 210.423334 
L 57.337588 211.350261 
L 58.00853 210.520018 
L 58.679471 209.329723 
L 59.350413 209.062763 
L 60.021355 210.648957 
L 60.692297 211.212197 
L 61.363239 210.571475 
L 62.034181 210.443462 
L 62.705123 212.626005 
L 63.376065 214.371084 
L 64.047007 214.623683 
L 64.717948 214.126283 
L 65.38889 212.95575 
L 66.059832 213.914617 
L 66.730774 214.028412 
L 68.072658 215.24787 
L 68.7436 215.351832 
L 69.414542 214.731146 
L 70.085483 214.421413 
L 70.756425 213.669236 
L 71.427367 212.381086 
L 72.098309 212.857619 
L 72.769251 211.3183 
L 73.440193 211.019969 
L 74.111135 211.295464 
L 74.782077 211.173275 
L 75.453019 211.356107 
L 76.12396 210.910176 
L 77.465844 211.272732 
L 78.136786 212.636785 
L 78.807728 211.714128 
L 79.47867 209.636203 
L 80.149612 211.975626 
L 80.820554 211.136916 
L 81.491495 211.352782 
L 82.162437 212.089584 
L 82.833379 212.126245 
L 83.504321 211.644387 
L 84.846205 211.951096 
L 85.517147 210.546287 
L 86.188089 210.13577 
L 86.859031 210.414557 
L 87.529972 211.384664 
L 88.200914 210.856353 
L 88.871856 210.94801 
L 89.542798 209.47136 
L 90.21374 209.314897 
L 90.884682 208.392689 
L 91.555624 209.041148 
L 92.226566 206.884144 
L 92.897508 206.830483 
L 93.568449 204.842698 
L 94.239391 205.233544 
L 94.910333 206.437385 
L 95.581275 204.479824 
L 96.923159 205.420512 
L 97.594101 206.114382 
L 98.265043 206.416798 
L 98.935984 207.81969 
L 99.606926 209.841495 
L 100.277868 209.822018 
L 100.94881 210.467238 
L 101.619752 210.229924 
L 102.290694 210.946256 
L 102.961636 212.054827 
L 103.632578 212.003246 
L 104.30352 213.358155 
L 104.974461 213.357546 
L 106.316345 214.901399 
L 106.987287 215.16861 
L 107.658229 213.522992 
L 108.329171 214.71277 
L 109.000113 215.520568 
L 109.671055 215.069723 
L 110.341996 213.802901 
L 111.012938 213.566424 
L 111.68388 213.600861 
L 112.354822 212.984635 
L 113.025764 213.521605 
L 113.696706 213.471148 
L 114.367648 212.15419 
L 115.03859 212.811831 
L 115.709532 212.305758 
L 117.051415 210.472102 
L 117.722357 211.98518 
L 118.393299 212.748455 
L 119.064241 213.68972 
L 119.735183 213.681403 
L 120.406125 212.628957 
L 121.077067 211.897048 
L 121.748009 210.747503 
L 122.41895 211.045136 
L 123.089892 210.931311 
L 123.760834 208.11772 
L 124.431776 208.227157 
L 125.102718 207.23633 
L 125.77366 207.077672 
L 126.444602 206.327307 
L 127.115544 203.748752 
L 127.786485 203.019241 
L 128.457427 201.756752 
L 129.128369 201.054966 
L 129.799311 200.118475 
L 130.470253 199.417254 
L 131.141195 201.132682 
L 131.812137 199.01967 
L 132.483079 199.25525 
L 133.154021 198.723915 
L 133.824962 195.507175 
L 134.495904 196.005059 
L 135.837788 198.215689 
L 136.50873 198.827654 
L 137.179672 198.968055 
L 137.850614 200.110374 
L 138.521556 200.282079 
L 139.192497 200.721568 
L 139.863439 201.505819 
L 140.534381 203.266777 
L 141.205323 203.57067 
L 141.876265 203.099132 
L 142.547207 200.156618 
L 143.218149 199.623272 
L 143.889091 199.504356 
L 144.560033 198.884769 
L 145.230974 198.779004 
L 145.901916 199.560919 
L 146.572858 198.893019 
L 147.2438 196.535153 
L 147.914742 195.612339 
L 148.585684 192.79004 
L 149.927568 195.592826 
L 150.59851 192.923361 
L 151.269451 193.822046 
L 151.940393 192.13213 
L 152.611335 189.945297 
L 153.282277 190.751126 
L 153.953219 190.475085 
L 154.624161 191.59357 
L 155.295103 192.129897 
L 155.966045 194.17196 
L 156.636986 194.910661 
L 157.307928 194.392715 
L 157.97887 197.212045 
L 158.649812 198.397955 
L 159.320754 198.939086 
L 159.991696 199.061535 
L 160.662638 198.372477 
L 161.33358 197.347979 
L 162.004522 196.666022 
L 162.675463 196.815506 
L 164.017347 200.431965 
L 164.688289 199.669035 
L 165.359231 199.276194 
L 166.030173 200.460141 
L 167.372057 200.687232 
L 168.71394 196.372839 
L 169.384882 195.130834 
L 170.055824 195.989058 
L 170.726766 196.638313 
L 171.397708 196.990948 
L 172.06865 199.138296 
L 172.739592 200.143902 
L 173.410534 201.407845 
L 174.081475 200.189457 
L 175.423359 200.85929 
L 176.094301 202.26406 
L 177.436185 204.321778 
L 178.107127 203.109237 
L 178.778069 203.922407 
L 179.449011 202.075058 
L 180.119952 202.009174 
L 180.790894 202.19874 
L 181.461836 201.346518 
L 182.132778 202.131441 
L 182.80372 202.551872 
L 183.474662 202.722941 
L 184.145604 202.194065 
L 184.816546 204.194373 
L 185.487487 204.533048 
L 186.158429 205.195008 
L 186.829371 203.371314 
L 187.500313 202.323159 
L 188.171255 203.597819 
L 188.842197 203.217854 
L 189.513139 204.22729 
L 190.184081 203.795162 
L 190.855023 202.337933 
L 191.525964 199.975784 
L 192.196906 199.855323 
L 192.867848 198.340926 
L 193.53879 198.255937 
L 194.209732 197.628586 
L 194.880674 199.007826 
L 195.551616 196.444224 
L 196.222558 197.216033 
L 196.893499 197.126014 
L 197.564441 195.403949 
L 198.235383 194.702736 
L 198.906325 192.921305 
L 199.577267 194.708458 
L 200.248209 196.1748 
L 200.919151 196.32177 
L 201.590093 196.996708 
L 202.261035 197.067869 
L 202.931976 196.00123 
L 203.602918 196.22542 
L 204.27386 196.115454 
L 204.944802 193.832233 
L 205.615744 194.357893 
L 206.286686 194.106165 
L 206.957628 192.838372 
L 207.62857 193.050902 
L 208.970453 189.87668 
L 209.641395 191.258133 
L 210.312337 191.190202 
L 210.983279 190.103294 
L 211.654221 189.806148 
L 212.325163 190.992906 
L 212.996105 189.333387 
L 213.667047 188.055449 
L 214.337988 187.653827 
L 215.00893 188.747028 
L 216.350814 187.170439 
L 217.021756 185.683367 
L 217.692698 186.253974 
L 218.36364 185.172206 
L 219.034582 187.327427 
L 219.705524 187.003048 
L 220.376465 185.817697 
L 221.047407 186.907178 
L 221.718349 188.774918 
L 222.389291 187.7418 
L 223.060233 188.066142 
L 223.731175 188.095872 
L 224.402117 189.35987 
L 225.073059 187.44701 
L 225.744001 186.31548 
L 226.414942 184.121032 
L 227.085884 183.122428 
L 227.756826 182.643043 
L 228.427768 180.908981 
L 229.09871 181.411531 
L 229.769652 184.119359 
L 230.440594 181.823072 
L 231.111536 183.444989 
L 231.782477 180.222873 
L 232.453419 177.991679 
L 233.124361 174.05286 
L 233.795303 175.717098 
L 234.466245 173.874993 
L 235.808129 178.352751 
L 236.479071 176.338001 
L 237.150013 173.878962 
L 237.820954 175.261357 
L 238.491896 178.792547 
L 239.162838 179.196263 
L 239.83378 180.901738 
L 240.504722 180.260605 
L 241.175664 179.819741 
L 241.846606 181.819889 
L 242.517548 181.01112 
L 243.188489 179.971153 
L 243.859431 177.639365 
L 244.530373 174.611586 
L 245.201315 173.53532 
L 245.872257 171.139123 
L 246.543199 167.304036 
L 247.214141 167.814577 
L 247.885083 167.90081 
L 248.556025 169.660365 
L 249.226966 167.766308 
L 249.897908 169.60455 
L 250.56885 169.563196 
L 251.239792 169.754559 
L 251.910734 169.023107 
L 252.581676 170.653749 
L 253.252618 167.691303 
L 253.92356 166.943698 
L 254.594502 165.226126 
L 255.265443 165.590318 
L 255.936385 166.570391 
L 256.607327 164.84304 
L 257.949211 162.398471 
L 258.620153 163.269268 
L 259.291095 163.853908 
L 259.962037 166.169405 
L 260.632978 166.389772 
L 261.30392 166.224102 
L 261.974862 165.044951 
L 262.645804 165.421486 
L 263.316746 164.210373 
L 264.65863 157.833312 
L 265.329572 159.19806 
L 266.000514 156.969011 
L 266.671455 155.586436 
L 267.342397 156.578695 
L 268.013339 155.107972 
L 268.684281 155.505119 
L 269.355223 152.744739 
L 270.026165 151.383017 
L 270.697107 148.92443 
L 271.368049 147.494234 
L 272.03899 147.667694 
L 272.709932 145.335303 
L 273.380874 147.639813 
L 274.051816 146.78731 
L 275.3937 155.077202 
L 276.064642 154.004454 
L 276.735584 154.749508 
L 277.406526 154.746176 
L 278.077467 151.909818 
L 278.748409 151.445094 
L 279.419351 144.343959 
L 280.090293 145.206801 
L 280.761235 141.162622 
L 281.432177 144.717903 
L 282.103119 144.612244 
L 282.774061 140.932237 
L 283.445003 141.945159 
L 284.786886 137.600709 
L 286.12877 141.370992 
L 286.799712 137.807929 
L 287.470654 137.892148 
L 289.483479 131.816867 
L 290.154421 132.474534 
L 290.825363 131.881289 
L 291.496305 132.919874 
L 292.167247 133.530584 
L 292.838189 135.47692 
L 293.509131 136.428691 
L 294.180073 130.709631 
L 295.521956 135.580919 
L 296.192898 139.936497 
L 296.86384 140.759168 
L 297.534782 142.082485 
L 298.205724 142.022717 
L 298.876666 144.992545 
L 300.21855 141.940774 
L 300.889491 144.870547 
L 301.560433 145.059549 
L 302.231375 142.822532 
L 302.902317 142.060646 
L 303.573259 145.500689 
L 304.244201 143.680345 
L 304.915143 144.106409 
L 305.586085 146.010022 
L 306.257027 148.785016 
L 306.927968 148.112828 
L 307.59891 147.972375 
L 308.269852 145.503215 
L 308.940794 142.588107 
L 309.611736 139.13512 
L 310.282678 140.817254 
L 310.95362 141.933992 
L 311.624562 146.063062 
L 312.295504 144.508666 
L 312.966445 146.90339 
L 314.308329 149.190016 
L 314.979271 144.771401 
L 315.650213 145.899382 
L 316.321155 147.757814 
L 316.992097 147.49016 
L 317.663039 147.048402 
L 318.33398 150.787489 
L 319.004922 146.805327 
L 319.675864 145.777913 
L 320.346806 146.110106 
L 321.017748 146.939318 
L 321.68869 142.765354 
L 322.359632 142.064963 
L 323.030574 135.775641 
L 323.701516 135.861019 
L 324.372457 134.137103 
L 325.043399 131.028049 
L 325.714341 131.830966 
L 326.385283 130.279438 
L 327.056225 124.825227 
L 327.727167 121.745573 
L 328.398109 117.874473 
L 329.069051 117.614131 
L 329.739992 111.75809 
L 330.410934 112.178091 
L 331.081876 111.312797 
L 331.752818 109.98404 
L 332.42376 109.153401 
L 333.094702 108.54822 
L 333.765644 104.162642 
L 334.436586 107.618048 
L 335.107528 110.196814 
L 335.778469 110.09434 
L 336.449411 103.62264 
L 337.120353 105.785137 
L 337.791295 104.225002 
L 338.462237 99.134094 
L 339.133179 100.657395 
L 339.804121 104.776418 
L 340.475063 103.647572 
L 341.146005 109.92526 
L 341.816946 111.264151 
L 342.487888 109.683604 
L 343.15883 108.766061 
L 343.829772 115.088887 
L 344.500714 113.157808 
L 345.171656 109.795527 
L 345.842598 108.812436 
L 346.51354 108.428882 
L 347.184481 107.373229 
L 347.855423 105.652745 
L 348.526365 105.233569 
L 349.197307 103.669186 
L 349.868249 103.768255 
L 350.539191 99.699463 
L 351.881075 103.371222 
L 353.222958 101.813679 
L 353.8939 104.491799 
L 354.564842 104.572911 
L 355.235784 105.405429 
L 355.906726 108.07577 
L 356.577668 110.000429 
L 357.24861 111.383223 
L 357.919552 106.824566 
L 358.590493 108.891077 
L 359.261435 108.922653 
L 360.603319 107.519166 
L 361.274261 114.822558 
L 361.945203 114.123984 
L 362.616145 112.16807 
L 363.287087 106.295689 
L 363.958029 105.699266 
L 364.62897 107.699023 
L 365.299912 108.960411 
L 365.970854 105.045198 
L 366.641796 102.074782 
L 367.312738 106.762333 
L 367.98368 116.402584 
L 368.654622 120.793969 
L 369.325564 120.676031 
L 369.996506 121.780623 
L 370.667447 120.145827 
L 371.338389 123.397534 
L 372.680273 114.712299 
L 373.351215 112.87351 
L 374.022157 115.694545 
L 374.693099 114.565469 
L 375.364041 117.787121 
L 376.034982 115.935481 
L 376.705924 118.802273 
L 377.376866 115.42864 
L 378.047808 109.86369 
L 378.71875 109.135079 
L 378.71875 109.135079 
" style="fill:none;stroke:#0000ff;stroke-linecap:square;stroke-width:1.5;"/>
   </g>
   <g id="line2d_14">
    <path clip-path="url(#pa931a8e2e1)" d="M 43.91875 215.6 
L 46.602518 215.356805 
L 49.286285 215.029396 
L 51.970053 214.76816 
L 53.982878 214.490673 
L 64.047007 213.193997 
L 72.769251 212.068892 
L 75.453019 211.652361 
L 78.807728 211.260234 
L 81.491495 210.858443 
L 101.619752 208.050072 
L 104.30352 207.541739 
L 130.470253 203.12692 
L 133.824962 202.35143 
L 137.850614 201.612685 
L 138.521556 201.553223 
L 139.863439 201.251409 
L 155.966045 198.204831 
L 157.307928 197.970248 
L 160.662638 197.474177 
L 163.346405 196.852154 
L 164.688289 196.592899 
L 173.410534 195.04917 
L 177.436185 194.498125 
L 182.132778 193.594662 
L 184.816546 193.096219 
L 192.196906 191.579073 
L 193.53879 191.372762 
L 196.893499 190.777174 
L 200.919151 190.051818 
L 211.654221 187.96262 
L 215.679872 186.996878 
L 221.047407 186.020624 
L 222.389291 185.713922 
L 226.414942 184.715016 
L 227.756826 184.397678 
L 229.09871 184.142371 
L 234.466245 182.78223 
L 235.808129 182.555933 
L 240.504722 181.276249 
L 243.859431 180.637573 
L 245.201315 180.319626 
L 247.885083 179.650384 
L 249.226966 179.357731 
L 251.910734 178.665482 
L 252.581676 178.560286 
L 255.265443 177.650744 
L 256.607327 177.393773 
L 258.620153 176.80054 
L 264.65863 175.310394 
L 266.000514 175.11268 
L 266.671455 174.875446 
L 267.342397 174.796912 
L 269.355223 174.259815 
L 278.077467 171.920291 
L 278.748409 171.591062 
L 280.090293 171.27153 
L 282.103119 170.698247 
L 283.445003 170.392459 
L 288.812538 168.562752 
L 290.154421 168.296005 
L 291.496305 167.994813 
L 296.86384 165.97777 
L 298.876666 165.358015 
L 299.547608 165.204019 
L 300.21855 164.808731 
L 301.560433 164.363122 
L 302.902317 164.118681 
L 304.915143 163.370548 
L 308.269852 162.616923 
L 310.95362 161.589263 
L 311.624562 161.524932 
L 313.637387 160.711852 
L 314.308329 160.418625 
L 314.979271 160.303116 
L 322.359632 157.870908 
L 323.030574 157.699401 
L 325.043399 156.831907 
L 327.056225 156.260411 
L 327.727167 155.949747 
L 330.410934 155.179102 
L 331.081876 154.890574 
L 333.094702 154.363357 
L 334.436586 153.925144 
L 335.107528 153.839973 
L 335.778469 153.639521 
L 336.449411 153.243579 
L 342.487888 150.844549 
L 343.829772 150.165779 
L 345.842598 149.675855 
L 347.184481 148.962759 
L 350.539191 147.92501 
L 351.881075 147.254189 
L 352.552017 147.205603 
L 353.8939 146.826312 
L 355.235784 146.310817 
L 357.24861 145.636809 
L 358.590493 145.044151 
L 359.261435 144.755678 
L 360.603319 144.448658 
L 361.945203 144.042812 
L 362.616145 143.936815 
L 364.62897 143.23297 
L 365.970854 142.995387 
L 367.98368 142.149958 
L 370.667447 141.160123 
L 372.009331 140.74717 
L 376.034982 139.263072 
L 376.705924 139.01413 
L 377.376866 138.546019 
L 378.047808 138.38753 
L 378.71875 138.045618 
L 378.71875 138.045618 
" style="fill:none;stroke:#000000;stroke-linecap:square;stroke-width:1.5;"/>
   </g>
   <g id="patch_3">
    <path d="M 43.91875 251.84 
L 43.91875 34.4 
" style="fill:none;stroke:#000000;stroke-linecap:square;stroke-linejoin:miter;stroke-width:0.8;"/>
   </g>
   <g id="patch_4">
    <path d="M 378.71875 251.84 
L 378.71875 34.4 
" style="fill:none;stroke:#000000;stroke-linecap:square;stroke-linejoin:miter;stroke-width:0.8;"/>
   </g>
   <g id="patch_5">
    <path d="M 43.91875 251.84 
L 378.71875 251.84 
" style="fill:none;stroke:#000000;stroke-linecap:square;stroke-linejoin:miter;stroke-width:0.8;"/>
   </g>
   <g id="patch_6">
    <path d="M 43.91875 34.4 
L 378.71875 34.4 
" style="fill:none;stroke:#000000;stroke-linecap:square;stroke-linejoin:miter;stroke-width:0.8;"/>
   </g>
   <g id="text_13">
    <!-- Samples from $\exp\left(t + \frac{1}{2} W(t)\right)$ -->
    <defs>
     <path d="M 53.515625 70.515625 
L 53.515625 60.890625 
Q 47.90625 63.578125 42.921875 64.890625 
Q 37.9375 66.21875 33.296875 66.21875 
Q 25.25 66.21875 20.875 63.09375 
Q 16.5 59.96875 16.5 54.203125 
Q 16.5 49.359375 19.40625 46.890625 
Q 22.3125 44.4375 30.421875 42.921875 
L 36.375 41.703125 
Q 47.40625 39.59375 52.65625 34.296875 
Q 57.90625 29 57.90625 20.125 
Q 57.90625 9.515625 50.796875 4.046875 
Q 43.703125 -1.421875 29.984375 -1.421875 
Q 24.8125 -1.421875 18.96875 -0.25 
Q 13.140625 0.921875 6.890625 3.21875 
L 6.890625 13.375 
Q 12.890625 10.015625 18.65625 8.296875 
Q 24.421875 6.59375 29.984375 6.59375 
Q 38.421875 6.59375 43.015625 9.90625 
Q 47.609375 13.234375 47.609375 19.390625 
Q 47.609375 24.75 44.3125 27.78125 
Q 41.015625 30.8125 33.5 32.328125 
L 27.484375 33.5 
Q 16.453125 35.6875 11.515625 40.375 
Q 6.59375 45.0625 6.59375 53.421875 
Q 6.59375 63.09375 13.40625 68.65625 
Q 20.21875 74.21875 32.171875 74.21875 
Q 37.3125 74.21875 42.625 73.28125 
Q 47.953125 72.359375 53.515625 70.515625 
z
" id="DejaVuSans-83"/>
     <path d="M 34.28125 27.484375 
Q 23.390625 27.484375 19.1875 25 
Q 14.984375 22.515625 14.984375 16.5 
Q 14.984375 11.71875 18.140625 8.90625 
Q 21.296875 6.109375 26.703125 6.109375 
Q 34.1875 6.109375 38.703125 11.40625 
Q 43.21875 16.703125 43.21875 25.484375 
L 43.21875 27.484375 
z
M 52.203125 31.203125 
L 52.203125 0 
L 43.21875 0 
L 43.21875 8.296875 
Q 40.140625 3.328125 35.546875 0.953125 
Q 30.953125 -1.421875 24.3125 -1.421875 
Q 15.921875 -1.421875 10.953125 3.296875 
Q 6 8.015625 6 15.921875 
Q 6 25.140625 12.171875 29.828125 
Q 18.359375 34.515625 30.609375 34.515625 
L 43.21875 34.515625 
L 43.21875 35.40625 
Q 43.21875 41.609375 39.140625 45 
Q 35.0625 48.390625 27.6875 48.390625 
Q 23 48.390625 18.546875 47.265625 
Q 14.109375 46.140625 10.015625 43.890625 
L 10.015625 52.203125 
Q 14.9375 54.109375 19.578125 55.046875 
Q 24.21875 56 28.609375 56 
Q 40.484375 56 46.34375 49.84375 
Q 52.203125 43.703125 52.203125 31.203125 
z
" id="DejaVuSans-97"/>
     <path d="M 52 44.1875 
Q 55.375 50.25 60.0625 53.125 
Q 64.75 56 71.09375 56 
Q 79.640625 56 84.28125 50.015625 
Q 88.921875 44.046875 88.921875 33.015625 
L 88.921875 0 
L 79.890625 0 
L 79.890625 32.71875 
Q 79.890625 40.578125 77.09375 44.375 
Q 74.3125 48.1875 68.609375 48.1875 
Q 61.625 48.1875 57.5625 43.546875 
Q 53.515625 38.921875 53.515625 30.90625 
L 53.515625 0 
L 44.484375 0 
L 44.484375 32.71875 
Q 44.484375 40.625 41.703125 44.40625 
Q 38.921875 48.1875 33.109375 48.1875 
Q 26.21875 48.1875 22.15625 43.53125 
Q 18.109375 38.875 18.109375 30.90625 
L 18.109375 0 
L 9.078125 0 
L 9.078125 54.6875 
L 18.109375 54.6875 
L 18.109375 46.1875 
Q 21.1875 51.21875 25.484375 53.609375 
Q 29.78125 56 35.6875 56 
Q 41.65625 56 45.828125 52.96875 
Q 50 49.953125 52 44.1875 
z
" id="DejaVuSans-109"/>
     <path d="M 18.109375 8.203125 
L 18.109375 -20.796875 
L 9.078125 -20.796875 
L 9.078125 54.6875 
L 18.109375 54.6875 
L 18.109375 46.390625 
Q 20.953125 51.265625 25.265625 53.625 
Q 29.59375 56 35.59375 56 
Q 45.5625 56 51.78125 48.09375 
Q 58.015625 40.1875 58.015625 27.296875 
Q 58.015625 14.40625 51.78125 6.484375 
Q 45.5625 -1.421875 35.59375 -1.421875 
Q 29.59375 -1.421875 25.265625 0.953125 
Q 20.953125 3.328125 18.109375 8.203125 
z
M 48.6875 27.296875 
Q 48.6875 37.203125 44.609375 42.84375 
Q 40.53125 48.484375 33.40625 48.484375 
Q 26.265625 48.484375 22.1875 42.84375 
Q 18.109375 37.203125 18.109375 27.296875 
Q 18.109375 17.390625 22.1875 11.75 
Q 26.265625 6.109375 33.40625 6.109375 
Q 40.53125 6.109375 44.609375 11.75 
Q 48.6875 17.390625 48.6875 27.296875 
z
" id="DejaVuSans-112"/>
     <path d="M 9.421875 75.984375 
L 18.40625 75.984375 
L 18.40625 0 
L 9.421875 0 
z
" id="DejaVuSans-108"/>
     <path d="M 56.203125 29.59375 
L 56.203125 25.203125 
L 14.890625 25.203125 
Q 15.484375 15.921875 20.484375 11.0625 
Q 25.484375 6.203125 34.421875 6.203125 
Q 39.59375 6.203125 44.453125 7.46875 
Q 49.3125 8.734375 54.109375 11.28125 
L 54.109375 2.78125 
Q 49.265625 0.734375 44.1875 -0.34375 
Q 39.109375 -1.421875 33.890625 -1.421875 
Q 20.796875 -1.421875 13.15625 6.1875 
Q 5.515625 13.8125 5.515625 26.8125 
Q 5.515625 40.234375 12.765625 48.109375 
Q 20.015625 56 32.328125 56 
Q 43.359375 56 49.78125 48.890625 
Q 56.203125 41.796875 56.203125 29.59375 
z
M 47.21875 32.234375 
Q 47.125 39.59375 43.09375 43.984375 
Q 39.0625 48.390625 32.421875 48.390625 
Q 24.90625 48.390625 20.390625 44.140625 
Q 15.875 39.890625 15.1875 32.171875 
z
" id="DejaVuSans-101"/>
     <path d="M 44.28125 53.078125 
L 44.28125 44.578125 
Q 40.484375 46.53125 36.375 47.5 
Q 32.28125 48.484375 27.875 48.484375 
Q 21.1875 48.484375 17.84375 46.4375 
Q 14.5 44.390625 14.5 40.28125 
Q 14.5 37.15625 16.890625 35.375 
Q 19.28125 33.59375 26.515625 31.984375 
L 29.59375 31.296875 
Q 39.15625 29.25 43.1875 25.515625 
Q 47.21875 21.78125 47.21875 15.09375 
Q 47.21875 7.46875 41.1875 3.015625 
Q 35.15625 -1.421875 24.609375 -1.421875 
Q 20.21875 -1.421875 15.453125 -0.5625 
Q 10.6875 0.296875 5.421875 2 
L 5.421875 11.28125 
Q 10.40625 8.6875 15.234375 7.390625 
Q 20.0625 6.109375 24.8125 6.109375 
Q 31.15625 6.109375 34.5625 8.28125 
Q 37.984375 10.453125 37.984375 14.40625 
Q 37.984375 18.0625 35.515625 20.015625 
Q 33.0625 21.96875 24.703125 23.78125 
L 21.578125 24.515625 
Q 13.234375 26.265625 9.515625 29.90625 
Q 5.8125 33.546875 5.8125 39.890625 
Q 5.8125 47.609375 11.28125 51.796875 
Q 16.75 56 26.8125 56 
Q 31.78125 56 36.171875 55.265625 
Q 40.578125 54.546875 44.28125 53.078125 
z
" id="DejaVuSans-115"/>
     <path id="DejaVuSans-32"/>
     <path d="M 37.109375 75.984375 
L 37.109375 68.5 
L 28.515625 68.5 
Q 23.6875 68.5 21.796875 66.546875 
Q 19.921875 64.59375 19.921875 59.515625 
L 19.921875 54.6875 
L 34.71875 54.6875 
L 34.71875 47.703125 
L 19.921875 47.703125 
L 19.921875 0 
L 10.890625 0 
L 10.890625 47.703125 
L 2.296875 47.703125 
L 2.296875 54.6875 
L 10.890625 54.6875 
L 10.890625 58.5 
Q 10.890625 67.625 15.140625 71.796875 
Q 19.390625 75.984375 28.609375 75.984375 
z
" id="DejaVuSans-102"/>
     <path d="M 41.109375 46.296875 
Q 39.59375 47.171875 37.8125 47.578125 
Q 36.03125 48 33.890625 48 
Q 26.265625 48 22.1875 43.046875 
Q 18.109375 38.09375 18.109375 28.8125 
L 18.109375 0 
L 9.078125 0 
L 9.078125 54.6875 
L 18.109375 54.6875 
L 18.109375 46.1875 
Q 20.953125 51.171875 25.484375 53.578125 
Q 30.03125 56 36.53125 56 
Q 37.453125 56 38.578125 55.875 
Q 39.703125 55.765625 41.0625 55.515625 
z
" id="DejaVuSans-114"/>
     <path d="M 30.609375 48.390625 
Q 23.390625 48.390625 19.1875 42.75 
Q 14.984375 37.109375 14.984375 27.296875 
Q 14.984375 17.484375 19.15625 11.84375 
Q 23.34375 6.203125 30.609375 6.203125 
Q 37.796875 6.203125 41.984375 11.859375 
Q 46.1875 17.53125 46.1875 27.296875 
Q 46.1875 37.015625 41.984375 42.703125 
Q 37.796875 48.390625 30.609375 48.390625 
z
M 30.609375 56 
Q 42.328125 56 49.015625 48.375 
Q 55.71875 40.765625 55.71875 27.296875 
Q 55.71875 13.875 49.015625 6.21875 
Q 42.328125 -1.421875 30.609375 -1.421875 
Q 18.84375 -1.421875 12.171875 6.21875 
Q 5.515625 13.875 5.515625 27.296875 
Q 5.515625 40.765625 12.171875 48.375 
Q 18.84375 56 30.609375 56 
z
" id="DejaVuSans-111"/>
     <path d="M 54.890625 54.6875 
L 35.109375 28.078125 
L 55.90625 0 
L 45.3125 0 
L 29.390625 21.484375 
L 13.484375 0 
L 2.875 0 
L 24.125 28.609375 
L 4.6875 54.6875 
L 15.28125 54.6875 
L 29.78125 35.203125 
L 44.28125 54.6875 
z
" id="DejaVuSans-120"/>
     <path d="M 50.296875 -24.296875 
L 50.296875 -27.90625 
Q 33.5 -12.09375 23.703125 11.40625 
Q 13.90625 34.90625 13.90625 64.296875 
Q 13.90625 93.796875 23.953125 118.640625 
Q 34 143.5 50.296875 156.59375 
L 50.296875 153.296875 
Q 38.90625 141.59375 31.15625 118.84375 
Q 23.40625 96.09375 23.40625 64.296875 
Q 23.40625 8.796875 50.296875 -24.296875 
z
" id="STIXSizeTwoSym-Regular-40"/>
     <path d="M 46 62.703125 
L 46 35.5 
L 73.1875 35.5 
L 73.1875 27.203125 
L 46 27.203125 
L 46 0 
L 37.796875 0 
L 37.796875 27.203125 
L 10.59375 27.203125 
L 10.59375 35.5 
L 37.796875 35.5 
L 37.796875 62.703125 
z
" id="DejaVuSans-43"/>
     <path d="M 9.625 72.90625 
L 19.1875 72.90625 
L 22.703125 10.890625 
L 50.203125 72.90625 
L 61.1875 72.90625 
L 64.796875 10.890625 
L 92 72.90625 
L 102 72.90625 
L 69.578125 0 
L 57.171875 0 
L 53.8125 60.796875 
L 26.515625 0 
L 14.109375 0 
z
" id="DejaVuSans-Oblique-87"/>
     <path d="M 11.40625 153 
L 11.40625 156.59375 
Q 28.203125 140.796875 38 117.296875 
Q 47.796875 93.796875 47.796875 64.296875 
Q 47.796875 34.90625 37.75 10.046875 
Q 27.703125 -14.796875 11.40625 -27.90625 
L 11.40625 -24.59375 
Q 22.796875 -12.90625 30.546875 9.890625 
Q 38.296875 32.703125 38.296875 64.296875 
Q 38.296875 119.90625 11.40625 153 
z
" id="STIXSizeTwoSym-Regular-41"/>
    </defs>
    <g transform="translate(68.11875 26.4)scale(0.2 -0.2)">
     <use transform="translate(0 0.734375)" xlink:href="#DejaVuSans-83"/>
     <use transform="translate(63.476562 0.734375)" xlink:href="#DejaVuSans-97"/>
     <use transform="translate(124.755859 0.734375)" xlink:href="#DejaVuSans-109"/>
     <use transform="translate(222.167969 0.734375)" xlink:href="#DejaVuSans-112"/>
     <use transform="translate(285.644531 0.734375)" xlink:href="#DejaVuSans-108"/>
     <use transform="translate(313.427734 0.734375)" xlink:href="#DejaVuSans-101"/>
     <use transform="translate(374.951172 0.734375)" xlink:href="#DejaVuSans-115"/>
     <use transform="translate(427.050781 0.734375)" xlink:href="#DejaVuSans-32"/>
     <use transform="translate(458.837891 0.734375)" xlink:href="#DejaVuSans-102"/>
     <use transform="translate(494.042969 0.734375)" xlink:href="#DejaVuSans-114"/>
     <use transform="translate(535.15625 0.734375)" xlink:href="#DejaVuSans-111"/>
     <use transform="translate(596.337891 0.734375)" xlink:href="#DejaVuSans-109"/>
     <use transform="translate(693.75 0.734375)" xlink:href="#DejaVuSans-32"/>
     <use transform="translate(725.537109 0.734375)" xlink:href="#DejaVuSans-101"/>
     <use transform="translate(787.060547 0.734375)" xlink:href="#DejaVuSans-120"/>
     <use transform="translate(846.240234 0.734375)" xlink:href="#DejaVuSans-112"/>
     <use transform="translate(909.716797 -18.3125)scale(0.727575)" xlink:href="#STIXSizeTwoSym-Regular-40"/>
     <use transform="translate(952.566544 0.734375)" xlink:href="#DejaVuSans-Oblique-116"/>
     <use transform="translate(1011.25795 0.734375)" xlink:href="#DejaVuSans-43"/>
     <use transform="translate(1114.529434 44.53125)scale(0.7)" xlink:href="#DejaVuSans-49"/>
     <use transform="translate(1114.529434 -38.671875)scale(0.7)" xlink:href="#DejaVuSans-50"/>
     <use transform="translate(1171.565567 0.734375)" xlink:href="#DejaVuSans-Oblique-87"/>
     <use transform="translate(1270.44252 0.734375)" xlink:href="#DejaVuSans-40"/>
     <use transform="translate(1309.456192 0.734375)" xlink:href="#DejaVuSans-Oblique-116"/>
     <use transform="translate(1348.665176 0.734375)" xlink:href="#DejaVuSans-41"/>
     <use transform="translate(1387.678848 -18.3125)scale(0.727575)" xlink:href="#STIXSizeTwoSym-Regular-41"/>
     <path d="M 1114.529434 19.53125 
L 1114.529434 25.78125 
L 1159.065567 25.78125 
L 1159.065567 19.53125 
L 1114.529434 19.53125 
z
"/>
    </g>
   </g>
   <g id="legend_1">
    <g id="patch_7">
     <path d="M 50.91875 115.790625 
L 129.95625 115.790625 
Q 131.95625 115.790625 131.95625 113.790625 
L 131.95625 41.4 
Q 131.95625 39.4 129.95625 39.4 
L 50.91875 39.4 
Q 48.91875 39.4 48.91875 41.4 
L 48.91875 113.790625 
Q 48.91875 115.790625 50.91875 115.790625 
z
" style="fill:#ffffff;opacity:0.8;stroke:#cccccc;stroke-linejoin:miter;"/>
    </g>
    <g id="line2d_15">
     <path d="M 52.91875 47.498437 
L 72.91875 47.498437 
" style="fill:none;stroke:#ff0000;stroke-linecap:square;stroke-width:1.5;"/>
    </g>
    <g id="line2d_16"/>
    <g id="text_14">
     <!-- Sample 1 -->
     <g transform="translate(80.91875 50.998437)scale(0.1 -0.1)">
      <use xlink:href="#DejaVuSans-83"/>
      <use x="63.476562" xlink:href="#DejaVuSans-97"/>
      <use x="124.755859" xlink:href="#DejaVuSans-109"/>
      <use x="222.167969" xlink:href="#DejaVuSans-112"/>
      <use x="285.644531" xlink:href="#DejaVuSans-108"/>
      <use x="313.427734" xlink:href="#DejaVuSans-101"/>
      <use x="374.951172" xlink:href="#DejaVuSans-32"/>
      <use x="406.738281" xlink:href="#DejaVuSans-49"/>
     </g>
    </g>
    <g id="line2d_17">
     <path d="M 52.91875 62.176562 
L 72.91875 62.176562 
" style="fill:none;stroke:#008000;stroke-linecap:square;stroke-width:1.5;"/>
    </g>
    <g id="line2d_18"/>
    <g id="text_15">
     <!-- Sample 2 -->
     <g transform="translate(80.91875 65.676562)scale(0.1 -0.1)">
      <use xlink:href="#DejaVuSans-83"/>
      <use x="63.476562" xlink:href="#DejaVuSans-97"/>
      <use x="124.755859" xlink:href="#DejaVuSans-109"/>
      <use x="222.167969" xlink:href="#DejaVuSans-112"/>
      <use x="285.644531" xlink:href="#DejaVuSans-108"/>
      <use x="313.427734" xlink:href="#DejaVuSans-101"/>
      <use x="374.951172" xlink:href="#DejaVuSans-32"/>
      <use x="406.738281" xlink:href="#DejaVuSans-50"/>
     </g>
    </g>
    <g id="line2d_19">
     <path d="M 52.91875 76.854687 
L 72.91875 76.854687 
" style="fill:none;stroke:#0000ff;stroke-linecap:square;stroke-width:1.5;"/>
    </g>
    <g id="line2d_20"/>
    <g id="text_16">
     <!-- Sample 3 -->
     <defs>
      <path d="M 40.578125 39.3125 
Q 47.65625 37.796875 51.625 33 
Q 55.609375 28.21875 55.609375 21.1875 
Q 55.609375 10.40625 48.1875 4.484375 
Q 40.765625 -1.421875 27.09375 -1.421875 
Q 22.515625 -1.421875 17.65625 -0.515625 
Q 12.796875 0.390625 7.625 2.203125 
L 7.625 11.71875 
Q 11.71875 9.328125 16.59375 8.109375 
Q 21.484375 6.890625 26.8125 6.890625 
Q 36.078125 6.890625 40.9375 10.546875 
Q 45.796875 14.203125 45.796875 21.1875 
Q 45.796875 27.640625 41.28125 31.265625 
Q 36.765625 34.90625 28.71875 34.90625 
L 20.21875 34.90625 
L 20.21875 43.015625 
L 29.109375 43.015625 
Q 36.375 43.015625 40.234375 45.921875 
Q 44.09375 48.828125 44.09375 54.296875 
Q 44.09375 59.90625 40.109375 62.90625 
Q 36.140625 65.921875 28.71875 65.921875 
Q 24.65625 65.921875 20.015625 65.03125 
Q 15.375 64.15625 9.8125 62.3125 
L 9.8125 71.09375 
Q 15.4375 72.65625 20.34375 73.4375 
Q 25.25 74.21875 29.59375 74.21875 
Q 40.828125 74.21875 47.359375 69.109375 
Q 53.90625 64.015625 53.90625 55.328125 
Q 53.90625 49.265625 50.4375 45.09375 
Q 46.96875 40.921875 40.578125 39.3125 
z
" id="DejaVuSans-51"/>
     </defs>
     <g transform="translate(80.91875 80.354687)scale(0.1 -0.1)">
      <use xlink:href="#DejaVuSans-83"/>
      <use x="63.476562" xlink:href="#DejaVuSans-97"/>
      <use x="124.755859" xlink:href="#DejaVuSans-109"/>
      <use x="222.167969" xlink:href="#DejaVuSans-112"/>
      <use x="285.644531" xlink:href="#DejaVuSans-108"/>
      <use x="313.427734" xlink:href="#DejaVuSans-101"/>
      <use x="374.951172" xlink:href="#DejaVuSans-32"/>
      <use x="406.738281" xlink:href="#DejaVuSans-51"/>
     </g>
    </g>
    <g id="line2d_21">
     <path d="M 52.91875 91.532812 
L 72.91875 91.532812 
" style="fill:none;stroke:#000000;stroke-linecap:square;stroke-width:1.5;"/>
    </g>
    <g id="line2d_22"/>
    <g id="text_17">
     <!-- Mean -->
     <defs>
      <path d="M 9.8125 72.90625 
L 24.515625 72.90625 
L 43.109375 23.296875 
L 61.8125 72.90625 
L 76.515625 72.90625 
L 76.515625 0 
L 66.890625 0 
L 66.890625 64.015625 
L 48.09375 14.015625 
L 38.1875 14.015625 
L 19.390625 64.015625 
L 19.390625 0 
L 9.8125 0 
z
" id="DejaVuSans-77"/>
      <path d="M 54.890625 33.015625 
L 54.890625 0 
L 45.90625 0 
L 45.90625 32.71875 
Q 45.90625 40.484375 42.875 44.328125 
Q 39.84375 48.1875 33.796875 48.1875 
Q 26.515625 48.1875 22.3125 43.546875 
Q 18.109375 38.921875 18.109375 30.90625 
L 18.109375 0 
L 9.078125 0 
L 9.078125 54.6875 
L 18.109375 54.6875 
L 18.109375 46.1875 
Q 21.34375 51.125 25.703125 53.5625 
Q 30.078125 56 35.796875 56 
Q 45.21875 56 50.046875 50.171875 
Q 54.890625 44.34375 54.890625 33.015625 
z
" id="DejaVuSans-110"/>
     </defs>
     <g transform="translate(80.91875 95.032812)scale(0.1 -0.1)">
      <use xlink:href="#DejaVuSans-77"/>
      <use x="86.279297" xlink:href="#DejaVuSans-101"/>
      <use x="147.802734" xlink:href="#DejaVuSans-97"/>
      <use x="209.082031" xlink:href="#DejaVuSans-110"/>
     </g>
    </g>
    <g id="patch_8">
     <path d="M 52.91875 109.710937 
L 72.91875 109.710937 
L 72.91875 102.710937 
L 52.91875 102.710937 
z
" style="fill:#808080;opacity:0.3;stroke:#808080;stroke-linejoin:miter;"/>
    </g>
    <g id="text_18">
     <!-- Std. dev. -->
     <defs>
      <path d="M 18.3125 70.21875 
L 18.3125 54.6875 
L 36.8125 54.6875 
L 36.8125 47.703125 
L 18.3125 47.703125 
L 18.3125 18.015625 
Q 18.3125 11.328125 20.140625 9.421875 
Q 21.96875 7.515625 27.59375 7.515625 
L 36.8125 7.515625 
L 36.8125 0 
L 27.59375 0 
Q 17.1875 0 13.234375 3.875 
Q 9.28125 7.765625 9.28125 18.015625 
L 9.28125 47.703125 
L 2.6875 47.703125 
L 2.6875 54.6875 
L 9.28125 54.6875 
L 9.28125 70.21875 
z
" id="DejaVuSans-116"/>
      <path d="M 45.40625 46.390625 
L 45.40625 75.984375 
L 54.390625 75.984375 
L 54.390625 0 
L 45.40625 0 
L 45.40625 8.203125 
Q 42.578125 3.328125 38.25 0.953125 
Q 33.9375 -1.421875 27.875 -1.421875 
Q 17.96875 -1.421875 11.734375 6.484375 
Q 5.515625 14.40625 5.515625 27.296875 
Q 5.515625 40.1875 11.734375 48.09375 
Q 17.96875 56 27.875 56 
Q 33.9375 56 38.25 53.625 
Q 42.578125 51.265625 45.40625 46.390625 
z
M 14.796875 27.296875 
Q 14.796875 17.390625 18.875 11.75 
Q 22.953125 6.109375 30.078125 6.109375 
Q 37.203125 6.109375 41.296875 11.75 
Q 45.40625 17.390625 45.40625 27.296875 
Q 45.40625 37.203125 41.296875 42.84375 
Q 37.203125 48.484375 30.078125 48.484375 
Q 22.953125 48.484375 18.875 42.84375 
Q 14.796875 37.203125 14.796875 27.296875 
z
" id="DejaVuSans-100"/>
      <path d="M 2.984375 54.6875 
L 12.5 54.6875 
L 29.59375 8.796875 
L 46.6875 54.6875 
L 56.203125 54.6875 
L 35.6875 0 
L 23.484375 0 
z
" id="DejaVuSans-118"/>
     </defs>
     <g transform="translate(80.91875 109.710937)scale(0.1 -0.1)">
      <use xlink:href="#DejaVuSans-83"/>
      <use x="63.476562" xlink:href="#DejaVuSans-116"/>
      <use x="102.685547" xlink:href="#DejaVuSans-100"/>
      <use x="166.162109" xlink:href="#DejaVuSans-46"/>
      <use x="197.949219" xlink:href="#DejaVuSans-32"/>
      <use x="229.736328" xlink:href="#DejaVuSans-100"/>
      <use x="293.212891" xlink:href="#DejaVuSans-101"/>
      <use x="354.736328" xlink:href="#DejaVuSans-118"/>
      <use x="406.166016" xlink:href="#DejaVuSans-46"/>
     </g>
    </g>
   </g>
  </g>
 </g>
 <defs>
  <clipPath id="pa931a8e2e1">
   <rect height="217.44" width="334.8" x="43.91875" y="34.4"/>
  </clipPath>
 </defs>
</svg>
