<?xml version="1.0" encoding="utf-8" standalone="no"?>
<!DOCTYPE svg PUBLIC "-//W3C//DTD SVG 1.1//EN"
  "http://www.w3.org/Graphics/SVG/1.1/DTD/svg11.dtd">
<!-- Created with matplotlib (https://matplotlib.org/) -->
<svg height="349.366875pt" version="1.1" viewBox="0 0 343.4725 349.366875" width="343.4725pt" xmlns="http://www.w3.org/2000/svg" xmlns:xlink="http://www.w3.org/1999/xlink">
 <defs>
  <style type="text/css">
*{stroke-linecap:butt;stroke-linejoin:round;}
  </style>
 </defs>
 <g id="figure_1">
  <g id="patch_1">
   <path d="M 0 349.366875 
L 343.4725 349.366875 
L 343.4725 0 
L 0 0 
z
" style="fill:none;"/>
  </g>
  <g id="axes_1">
   <g id="patch_2">
    <path d="M 57.2725 300.196875 
L 336.2725 300.196875 
L 336.2725 28.396875 
L 57.2725 28.396875 
z
" style="fill:#ffffff;"/>
   </g>
   <g id="matplotlib.axis_1">
    <g id="xtick_1">
     <g id="line2d_1">
      <defs>
       <path d="M 0 0 
L 0 3.5 
" id="me06b0b4589" style="stroke:#000000;stroke-width:0.8;"/>
      </defs>
      <g>
       <use style="stroke:#000000;stroke-width:0.8;" x="85.1725" xlink:href="#me06b0b4589" y="300.196875"/>
      </g>
     </g>
     <g id="text_1">
      <!-- −2 -->
      <defs>
       <path d="M 10.59375 35.5 
L 73.1875 35.5 
L 73.1875 27.203125 
L 10.59375 27.203125 
z
" id="DejaVuSans-8722"/>
       <path d="M 19.1875 8.296875 
L 53.609375 8.296875 
L 53.609375 0 
L 7.328125 0 
L 7.328125 8.296875 
Q 12.9375 14.109375 22.625 23.890625 
Q 32.328125 33.6875 34.8125 36.53125 
Q 39.546875 41.84375 41.421875 45.53125 
Q 43.3125 49.21875 43.3125 52.78125 
Q 43.3125 58.59375 39.234375 62.25 
Q 35.15625 65.921875 28.609375 65.921875 
Q 23.96875 65.921875 18.8125 64.3125 
Q 13.671875 62.703125 7.8125 59.421875 
L 7.8125 69.390625 
Q 13.765625 71.78125 18.9375 73 
Q 24.125 74.21875 28.421875 74.21875 
Q 39.75 74.21875 46.484375 68.546875 
Q 53.21875 62.890625 53.21875 53.421875 
Q 53.21875 48.921875 51.53125 44.890625 
Q 49.859375 40.875 45.40625 35.40625 
Q 44.1875 33.984375 37.640625 27.21875 
Q 31.109375 20.453125 19.1875 8.296875 
z
" id="DejaVuSans-50"/>
      </defs>
      <g transform="translate(73.37875 319.354375)scale(0.16 -0.16)">
       <use xlink:href="#DejaVuSans-8722"/>
       <use x="83.789062" xlink:href="#DejaVuSans-50"/>
      </g>
     </g>
    </g>
    <g id="xtick_2">
     <g id="line2d_2">
      <g>
       <use style="stroke:#000000;stroke-width:0.8;" x="140.9725" xlink:href="#me06b0b4589" y="300.196875"/>
      </g>
     </g>
     <g id="text_2">
      <!-- −1 -->
      <defs>
       <path d="M 12.40625 8.296875 
L 28.515625 8.296875 
L 28.515625 63.921875 
L 10.984375 60.40625 
L 10.984375 69.390625 
L 28.421875 72.90625 
L 38.28125 72.90625 
L 38.28125 8.296875 
L 54.390625 8.296875 
L 54.390625 0 
L 12.40625 0 
z
" id="DejaVuSans-49"/>
      </defs>
      <g transform="translate(129.17875 319.354375)scale(0.16 -0.16)">
       <use xlink:href="#DejaVuSans-8722"/>
       <use x="83.789062" xlink:href="#DejaVuSans-49"/>
      </g>
     </g>
    </g>
    <g id="xtick_3">
     <g id="line2d_3">
      <g>
       <use style="stroke:#000000;stroke-width:0.8;" x="196.7725" xlink:href="#me06b0b4589" y="300.196875"/>
      </g>
     </g>
     <g id="text_3">
      <!-- 0 -->
      <defs>
       <path d="M 31.78125 66.40625 
Q 24.171875 66.40625 20.328125 58.90625 
Q 16.5 51.421875 16.5 36.375 
Q 16.5 21.390625 20.328125 13.890625 
Q 24.171875 6.390625 31.78125 6.390625 
Q 39.453125 6.390625 43.28125 13.890625 
Q 47.125 21.390625 47.125 36.375 
Q 47.125 51.421875 43.28125 58.90625 
Q 39.453125 66.40625 31.78125 66.40625 
z
M 31.78125 74.21875 
Q 44.046875 74.21875 50.515625 64.515625 
Q 56.984375 54.828125 56.984375 36.375 
Q 56.984375 17.96875 50.515625 8.265625 
Q 44.046875 -1.421875 31.78125 -1.421875 
Q 19.53125 -1.421875 13.0625 8.265625 
Q 6.59375 17.96875 6.59375 36.375 
Q 6.59375 54.828125 13.0625 64.515625 
Q 19.53125 74.21875 31.78125 74.21875 
z
" id="DejaVuSans-48"/>
      </defs>
      <g transform="translate(191.6825 319.354375)scale(0.16 -0.16)">
       <use xlink:href="#DejaVuSans-48"/>
      </g>
     </g>
    </g>
    <g id="xtick_4">
     <g id="line2d_4">
      <g>
       <use style="stroke:#000000;stroke-width:0.8;" x="252.5725" xlink:href="#me06b0b4589" y="300.196875"/>
      </g>
     </g>
     <g id="text_4">
      <!-- 1 -->
      <g transform="translate(247.4825 319.354375)scale(0.16 -0.16)">
       <use xlink:href="#DejaVuSans-49"/>
      </g>
     </g>
    </g>
    <g id="xtick_5">
     <g id="line2d_5">
      <g>
       <use style="stroke:#000000;stroke-width:0.8;" x="308.3725" xlink:href="#me06b0b4589" y="300.196875"/>
      </g>
     </g>
     <g id="text_5">
      <!-- 2 -->
      <g transform="translate(303.2825 319.354375)scale(0.16 -0.16)">
       <use xlink:href="#DejaVuSans-50"/>
      </g>
     </g>
    </g>
    <g id="text_6">
     <!-- $x_1$ -->
     <defs>
      <path d="M 60.015625 54.6875 
L 34.90625 27.875 
L 50.296875 0 
L 39.984375 0 
L 28.421875 21.6875 
L 8.296875 0 
L -2.59375 0 
L 24.3125 28.8125 
L 10.015625 54.6875 
L 20.3125 54.6875 
L 30.8125 34.90625 
L 49.125 54.6875 
z
" id="DejaVuSans-Oblique-120"/>
     </defs>
     <g transform="translate(188.2125 338.839375)scale(0.16 -0.16)">
      <use transform="translate(0 0.3125)" xlink:href="#DejaVuSans-Oblique-120"/>
      <use transform="translate(59.179688 -16.09375)scale(0.7)" xlink:href="#DejaVuSans-49"/>
     </g>
    </g>
   </g>
   <g id="matplotlib.axis_2">
    <g id="ytick_1">
     <g id="line2d_6">
      <defs>
       <path d="M 0 0 
L -3.5 0 
" id="maf655cf9c2" style="stroke:#000000;stroke-width:0.8;"/>
      </defs>
      <g>
       <use style="stroke:#000000;stroke-width:0.8;" x="57.2725" xlink:href="#maf655cf9c2" y="273.016875"/>
      </g>
     </g>
     <g id="text_7">
      <!-- −2 -->
      <g transform="translate(26.685 279.095625)scale(0.16 -0.16)">
       <use xlink:href="#DejaVuSans-8722"/>
       <use x="83.789062" xlink:href="#DejaVuSans-50"/>
      </g>
     </g>
    </g>
    <g id="ytick_2">
     <g id="line2d_7">
      <g>
       <use style="stroke:#000000;stroke-width:0.8;" x="57.2725" xlink:href="#maf655cf9c2" y="218.656875"/>
      </g>
     </g>
     <g id="text_8">
      <!-- −1 -->
      <g transform="translate(26.685 224.735625)scale(0.16 -0.16)">
       <use xlink:href="#DejaVuSans-8722"/>
       <use x="83.789062" xlink:href="#DejaVuSans-49"/>
      </g>
     </g>
    </g>
    <g id="ytick_3">
     <g id="line2d_8">
      <g>
       <use style="stroke:#000000;stroke-width:0.8;" x="57.2725" xlink:href="#maf655cf9c2" y="164.296875"/>
      </g>
     </g>
     <g id="text_9">
      <!-- 0 -->
      <g transform="translate(40.0925 170.375625)scale(0.16 -0.16)">
       <use xlink:href="#DejaVuSans-48"/>
      </g>
     </g>
    </g>
    <g id="ytick_4">
     <g id="line2d_9">
      <g>
       <use style="stroke:#000000;stroke-width:0.8;" x="57.2725" xlink:href="#maf655cf9c2" y="109.936875"/>
      </g>
     </g>
     <g id="text_10">
      <!-- 1 -->
      <g transform="translate(40.0925 116.015625)scale(0.16 -0.16)">
       <use xlink:href="#DejaVuSans-49"/>
      </g>
     </g>
    </g>
    <g id="ytick_5">
     <g id="line2d_10">
      <g>
       <use style="stroke:#000000;stroke-width:0.8;" x="57.2725" xlink:href="#maf655cf9c2" y="55.576875"/>
      </g>
     </g>
     <g id="text_11">
      <!-- 2 -->
      <g transform="translate(40.0925 61.655625)scale(0.16 -0.16)">
       <use xlink:href="#DejaVuSans-50"/>
      </g>
     </g>
    </g>
    <g id="text_12">
     <!-- $x_2$ -->
     <g transform="translate(19.3575 172.856875)rotate(-90)scale(0.16 -0.16)">
      <use transform="translate(0 0.3125)" xlink:href="#DejaVuSans-Oblique-120"/>
      <use transform="translate(59.179688 -16.09375)scale(0.7)" xlink:href="#DejaVuSans-50"/>
     </g>
    </g>
   </g>
   <g id="LineCollection_1">
    <path clip-path="url(#p4b19d358c4)" d="M 125.599031 225.632339 
L 131.292906 226.84878 
L 136.986788 227.270973 
L 142.680662 227.329385 
L 148.374541 227.076328 
L 154.068419 226.271787 
L 159.762297 223.964748 
L 161.958197 222.53973 
L 165.456175 222.079474 
L 171.150052 219.830284 
L 174.611976 216.992794 
L 176.843928 216.178105 
L 182.537806 211.174584 
L 188.231684 205.604988 
L 193.305263 200.351976 
L 193.925561 199.041384 
L 199.619439 199.041384 
L 200.239737 200.351976 
L 205.549866 205.898915 
L 211.408711 211.445855 
L 216.701072 216.178105 
L 218.933024 216.992794 
L 222.394948 219.830284 
L 228.088825 222.079474 
L 231.586803 222.53973 
L 233.782703 223.964748 
L 239.476581 226.271787 
L 245.170459 227.076328 
L 250.864338 227.329385 
L 256.558212 227.270973 
L 262.252094 226.84878 
L 267.945969 225.632339 
L 273.241567 222.53973 
L 273.63985 222.499389 
L 279.333725 221.539274 
L 285.502531 216.992794 
L 290.721481 214.819477 
L 294.419339 211.445855 
L 296.415356 209.918946 
L 300.512292 205.898915 
L 302.109238 203.662745 
L 305.244117 200.351976 
L 307.803113 194.495549 
L 312.012228 189.258099 
L 313.251347 183.711161 
L 313.496987 181.036662 
L 315.186689 178.164222 
L 316.944138 172.617283 
L 317.533809 167.070344 
L 317.533809 161.523406 
L 316.944138 155.976467 
L 315.186689 150.429528 
L 313.496987 147.557088 
L 313.251347 144.882589 
L 312.012228 139.335651 
L 307.803113 134.098201 
L 307.717846 133.788713 
L 305.244117 128.241774 
L 302.109238 124.931005 
L 300.512292 122.694835 
L 296.415356 118.674804 
L 294.419339 117.147895 
L 290.721481 113.774273 
L 285.502531 111.600956 
L 285.0276 111.200772 
L 279.333725 107.054476 
L 273.241567 106.05402 
L 267.945969 102.961411 
L 262.252094 101.74497 
L 256.558212 101.322777 
L 250.864338 101.264365 
L 245.170459 101.517422 
L 239.476581 102.321963 
L 233.782703 104.629002 
L 231.586803 106.05402 
L 228.088825 106.514276 
L 222.394948 108.763466 
L 218.933024 111.600956 
L 216.701072 112.415645 
L 211.007194 117.419166 
L 205.313316 122.988762 
L 200.239737 128.241774 
L 199.619439 129.552366 
L 193.925561 129.552366 
L 193.305263 128.241774 
L 187.995134 122.694835 
L 182.136289 117.147895 
L 176.843928 112.415645 
L 174.611976 111.600956 
L 171.150052 108.763466 
L 165.456175 106.514276 
L 161.958197 106.05402 
L 159.762297 104.629002 
L 154.068419 102.321963 
L 148.374541 101.517422 
L 142.680662 101.264365 
L 136.986788 101.322777 
L 131.292906 101.74497 
L 125.599031 102.961411 
L 120.303433 106.05402 
L 119.90515 106.094361 
L 114.211275 107.054476 
L 108.042469 111.600956 
L 102.823519 113.774273 
L 99.125661 117.147895 
L 97.129644 118.674804 
L 93.032708 122.694835 
L 91.435762 124.931005 
L 88.300883 128.241774 
L 85.741887 134.098201 
L 81.532772 139.335651 
L 80.293653 144.882589 
L 80.048013 147.557088 
L 78.358311 150.429528 
L 76.600862 155.976467 
L 76.011191 161.523406 
L 76.011191 167.070344 
L 76.600862 172.617283 
L 78.358311 178.164222 
L 80.048013 181.036662 
L 80.293653 183.711161 
L 81.532772 189.258099 
L 85.741887 194.495549 
L 85.827154 194.805037 
L 88.300883 200.351976 
L 91.435762 203.662745 
L 93.032708 205.898915 
L 97.129644 209.918946 
L 99.125661 211.445855 
L 102.823519 214.819477 
L 108.042469 216.992794 
L 108.5174 217.392978 
L 114.211275 221.539274 
L 120.303433 222.53973 
L 125.599031 225.632339 
L 125.599031 225.632339 
" style="fill:none;stroke:#000000;stroke-width:1.5;"/>
   </g>
   <g id="LineCollection_2">
    <path clip-path="url(#p4b19d358c4)" d="M 125.599031 209.314077 
L 131.292906 210.587797 
L 136.986788 211.029869 
L 142.680662 211.091032 
L 148.374541 210.826059 
L 154.068419 209.983635 
L 159.762297 207.567967 
L 162.15 205.898915 
L 165.456175 204.849764 
L 170.881991 200.351976 
L 171.150052 200.179491 
L 176.746252 194.805037 
L 176.843928 194.679616 
L 181.726267 189.258099 
L 182.537806 187.156669 
L 185.172025 183.711161 
L 187.297057 178.164222 
L 188.025779 172.617283 
L 188.231684 168.1555 
L 188.518217 167.070344 
L 188.518217 161.523406 
L 188.231684 160.43825 
L 188.025779 155.976467 
L 187.297057 150.429528 
L 185.172025 144.882589 
L 182.537806 141.437081 
L 181.726267 139.335651 
L 176.843928 133.914134 
L 176.746252 133.788713 
L 171.150052 128.414259 
L 170.881991 128.241774 
L 165.456175 123.743986 
L 162.15 122.694835 
L 159.762297 121.025783 
L 154.068419 118.610115 
L 148.374541 117.767691 
L 142.680662 117.502718 
L 136.986788 117.563881 
L 131.292906 118.005953 
L 125.599031 119.279673 
L 120.170028 122.694835 
L 119.90515 122.759538 
L 114.211275 125.010428 
L 110.462183 128.241774 
L 108.5174 129.685663 
L 104.361615 133.788713 
L 102.823519 136.041909 
L 99.916359 139.335651 
L 97.445531 144.882589 
L 97.129644 146.316805 
L 94.534405 150.429528 
L 92.966781 155.976467 
L 92.440803 161.523406 
L 92.440803 167.070344 
L 92.966781 172.617283 
L 94.534405 178.164222 
L 97.129644 182.276945 
L 97.445531 183.711161 
L 99.916359 189.258099 
L 102.823519 192.551841 
L 104.361615 194.805037 
L 108.5174 198.908087 
L 110.462183 200.351976 
L 114.211275 203.583322 
L 119.90515 205.834212 
L 120.170028 205.898915 
L 125.599031 209.314077 
" style="fill:none;stroke:#000000;stroke-width:1.5;"/>
    <path clip-path="url(#p4b19d358c4)" d="M 233.782703 207.567967 
L 239.476581 209.983635 
L 245.170459 210.826059 
L 250.864338 211.091032 
L 256.558212 211.029869 
L 262.252094 210.587797 
L 267.945969 209.314077 
L 273.374972 205.898915 
L 273.63985 205.834212 
L 279.333725 203.583322 
L 283.082817 200.351976 
L 285.0276 198.908087 
L 289.183385 194.805037 
L 290.721481 192.551841 
L 293.628641 189.258099 
L 296.099469 183.711161 
L 296.415356 182.276945 
L 299.010595 178.164222 
L 300.578219 172.617283 
L 301.104197 167.070344 
L 301.104197 161.523406 
L 300.578219 155.976467 
L 299.010595 150.429528 
L 296.415356 146.316805 
L 296.099469 144.882589 
L 293.628641 139.335651 
L 290.721481 136.041909 
L 289.183385 133.788713 
L 285.0276 129.685663 
L 283.082817 128.241774 
L 279.333725 125.010428 
L 273.63985 122.759538 
L 273.374972 122.694835 
L 267.945969 119.279673 
L 262.252094 118.005953 
L 256.558212 117.563881 
L 250.864338 117.502718 
L 245.170459 117.767691 
L 239.476581 118.610115 
L 233.782703 121.025783 
L 231.395 122.694835 
L 228.088825 123.743986 
L 222.663009 128.241774 
L 222.394948 128.414259 
L 216.798748 133.788713 
L 216.701072 133.914134 
L 211.818733 139.335651 
L 211.007194 141.437081 
L 208.372975 144.882589 
L 206.247943 150.429528 
L 205.519221 155.976467 
L 205.313316 160.43825 
L 205.026783 161.523406 
L 205.026783 167.070344 
L 205.313316 168.1555 
L 205.519221 172.617283 
L 206.247943 178.164222 
L 208.372975 183.711161 
L 211.007194 187.156669 
L 211.818733 189.258099 
L 216.701072 194.679616 
L 216.798748 194.805037 
L 222.394948 200.179491 
L 222.663009 200.351976 
L 228.088825 204.849764 
L 231.395 205.898915 
L 233.782703 207.567967 
" style="fill:none;stroke:#000000;stroke-width:1.5;"/>
   </g>
   <g id="LineCollection_3">
    <path clip-path="url(#p4b19d358c4)" d="M 136.986788 195.102589 
L 142.680662 195.443575 
L 145.435938 194.805037 
L 148.374541 194.557265 
L 154.068419 193.169785 
L 159.71567 189.258099 
L 159.762297 189.231511 
L 165.456175 184.074597 
L 165.794531 183.711161 
L 169.937483 178.164222 
L 171.150052 173.860626 
L 171.814935 172.617283 
L 173.337629 167.070344 
L 173.337629 161.523406 
L 171.814935 155.976467 
L 171.150052 154.733124 
L 169.937483 150.429528 
L 165.794531 144.882589 
L 165.456175 144.519153 
L 159.762297 139.362239 
L 159.71567 139.335651 
L 154.068419 135.423965 
L 148.374541 134.036485 
L 145.435938 133.788713 
L 142.680662 133.150175 
L 136.986788 133.491161 
L 136.087124 133.788713 
L 131.292906 134.428906 
L 125.599031 136.526733 
L 121.886098 139.335651 
L 119.90515 140.704729 
L 115.732129 144.882589 
L 114.211275 147.366461 
L 111.913535 150.429528 
L 109.730436 155.976467 
L 108.997949 161.523406 
L 108.997949 167.070344 
L 109.730436 172.617283 
L 111.913535 178.164222 
L 114.211275 181.227289 
L 115.732129 183.711161 
L 119.90515 187.889021 
L 121.886098 189.258099 
L 125.599031 192.067017 
L 131.292906 194.164844 
L 136.087124 194.805037 
L 136.986788 195.102589 
" style="fill:none;stroke:#000000;stroke-width:1.5;"/>
    <path clip-path="url(#p4b19d358c4)" d="M 250.864338 195.443575 
L 256.558212 195.102589 
L 257.457876 194.805037 
L 262.252094 194.164844 
L 267.945969 192.067017 
L 271.658902 189.258099 
L 273.63985 187.889021 
L 277.812871 183.711161 
L 279.333725 181.227289 
L 281.631465 178.164222 
L 283.814564 172.617283 
L 284.547051 167.070344 
L 284.547051 161.523406 
L 283.814564 155.976467 
L 281.631465 150.429528 
L 279.333725 147.366461 
L 277.812871 144.882589 
L 273.63985 140.704729 
L 271.658902 139.335651 
L 267.945969 136.526733 
L 262.252094 134.428906 
L 257.457876 133.788713 
L 256.558212 133.491161 
L 250.864338 133.150175 
L 248.109062 133.788713 
L 245.170459 134.036485 
L 239.476581 135.423965 
L 233.82933 139.335651 
L 233.782703 139.362239 
L 228.088825 144.519153 
L 227.750469 144.882589 
L 223.607517 150.429528 
L 222.394948 154.733124 
L 221.730065 155.976467 
L 220.207371 161.523406 
L 220.207371 167.070344 
L 221.730065 172.617283 
L 222.394948 173.860626 
L 223.607517 178.164222 
L 227.750469 183.711161 
L 228.088825 184.074597 
L 233.782703 189.231511 
L 233.82933 189.258099 
L 239.476581 193.169785 
L 245.170459 194.557265 
L 248.109062 194.805037 
L 250.864338 195.443575 
" style="fill:none;stroke:#000000;stroke-width:1.5;"/>
   </g>
   <g id="LineCollection_4">
    <path clip-path="url(#p4b19d358c4)" d="M 136.986788 179.738314 
L 142.680662 180.177622 
L 148.374541 178.274446 
L 148.538473 178.164222 
L 154.068419 173.450374 
L 154.739017 172.617283 
L 157.106772 167.070344 
L 157.106772 161.523406 
L 154.739017 155.976467 
L 154.068419 155.143376 
L 148.538473 150.429528 
L 148.374541 150.319304 
L 142.680662 148.416128 
L 136.986788 148.855436 
L 133.722448 150.429528 
L 131.292906 151.700018 
L 127.206652 155.976467 
L 125.599031 160.048156 
L 124.985033 161.523406 
L 124.985033 167.070344 
L 125.599031 168.545594 
L 127.206652 172.617283 
L 131.292906 176.893732 
L 133.722448 178.164222 
L 136.986788 179.738314 
" style="fill:none;stroke:#000000;stroke-width:1.5;"/>
    <path clip-path="url(#p4b19d358c4)" d="M 245.170459 178.274446 
L 250.864338 180.177622 
L 256.558212 179.738314 
L 259.822552 178.164222 
L 262.252094 176.893732 
L 266.338348 172.617283 
L 267.945969 168.545594 
L 268.559967 167.070344 
L 268.559967 161.523406 
L 267.945969 160.048156 
L 266.338348 155.976467 
L 262.252094 151.700018 
L 259.822552 150.429528 
L 256.558212 148.855436 
L 250.864338 148.416128 
L 245.170459 150.319304 
L 245.006527 150.429528 
L 239.476581 155.143376 
L 238.805983 155.976467 
L 236.438228 161.523406 
L 236.438228 167.070344 
L 238.805983 172.617283 
L 239.476581 173.450374 
L 245.006527 178.164222 
L 245.170459 178.274446 
" style="fill:none;stroke:#000000;stroke-width:1.5;"/>
   </g>
   <g id="LineCollection_5"/>
   <g id="patch_3">
    <path d="M 57.2725 300.196875 
L 57.2725 28.396875 
" style="fill:none;stroke:#000000;stroke-linecap:square;stroke-linejoin:miter;stroke-width:0.8;"/>
   </g>
   <g id="patch_4">
    <path d="M 336.2725 300.196875 
L 336.2725 28.396875 
" style="fill:none;stroke:#000000;stroke-linecap:square;stroke-linejoin:miter;stroke-width:0.8;"/>
   </g>
   <g id="patch_5">
    <path d="M 57.2725 300.196875 
L 336.2725 300.196875 
" style="fill:none;stroke:#000000;stroke-linecap:square;stroke-linejoin:miter;stroke-width:0.8;"/>
   </g>
   <g id="patch_6">
    <path d="M 57.2725 28.396875 
L 336.2725 28.396875 
" style="fill:none;stroke:#000000;stroke-linecap:square;stroke-linejoin:miter;stroke-width:0.8;"/>
   </g>
   <g id="text_13">
    <!-- MoG density -->
    <defs>
     <path d="M 9.8125 72.90625 
L 24.515625 72.90625 
L 43.109375 23.296875 
L 61.8125 72.90625 
L 76.515625 72.90625 
L 76.515625 0 
L 66.890625 0 
L 66.890625 64.015625 
L 48.09375 14.015625 
L 38.1875 14.015625 
L 19.390625 64.015625 
L 19.390625 0 
L 9.8125 0 
z
" id="DejaVuSans-77"/>
     <path d="M 30.609375 48.390625 
Q 23.390625 48.390625 19.1875 42.75 
Q 14.984375 37.109375 14.984375 27.296875 
Q 14.984375 17.484375 19.15625 11.84375 
Q 23.34375 6.203125 30.609375 6.203125 
Q 37.796875 6.203125 41.984375 11.859375 
Q 46.1875 17.53125 46.1875 27.296875 
Q 46.1875 37.015625 41.984375 42.703125 
Q 37.796875 48.390625 30.609375 48.390625 
z
M 30.609375 56 
Q 42.328125 56 49.015625 48.375 
Q 55.71875 40.765625 55.71875 27.296875 
Q 55.71875 13.875 49.015625 6.21875 
Q 42.328125 -1.421875 30.609375 -1.421875 
Q 18.84375 -1.421875 12.171875 6.21875 
Q 5.515625 13.875 5.515625 27.296875 
Q 5.515625 40.765625 12.171875 48.375 
Q 18.84375 56 30.609375 56 
z
" id="DejaVuSans-111"/>
     <path d="M 59.515625 10.40625 
L 59.515625 29.984375 
L 43.40625 29.984375 
L 43.40625 38.09375 
L 69.28125 38.09375 
L 69.28125 6.78125 
Q 63.578125 2.734375 56.6875 0.65625 
Q 49.8125 -1.421875 42 -1.421875 
Q 24.90625 -1.421875 15.25 8.5625 
Q 5.609375 18.5625 5.609375 36.375 
Q 5.609375 54.25 15.25 64.234375 
Q 24.90625 74.21875 42 74.21875 
Q 49.125 74.21875 55.546875 72.453125 
Q 61.96875 70.703125 67.390625 67.28125 
L 67.390625 56.78125 
Q 61.921875 61.421875 55.765625 63.765625 
Q 49.609375 66.109375 42.828125 66.109375 
Q 29.4375 66.109375 22.71875 58.640625 
Q 16.015625 51.171875 16.015625 36.375 
Q 16.015625 21.625 22.71875 14.15625 
Q 29.4375 6.6875 42.828125 6.6875 
Q 48.046875 6.6875 52.140625 7.59375 
Q 56.25 8.5 59.515625 10.40625 
z
" id="DejaVuSans-71"/>
     <path id="DejaVuSans-32"/>
     <path d="M 45.40625 46.390625 
L 45.40625 75.984375 
L 54.390625 75.984375 
L 54.390625 0 
L 45.40625 0 
L 45.40625 8.203125 
Q 42.578125 3.328125 38.25 0.953125 
Q 33.9375 -1.421875 27.875 -1.421875 
Q 17.96875 -1.421875 11.734375 6.484375 
Q 5.515625 14.40625 5.515625 27.296875 
Q 5.515625 40.1875 11.734375 48.09375 
Q 17.96875 56 27.875 56 
Q 33.9375 56 38.25 53.625 
Q 42.578125 51.265625 45.40625 46.390625 
z
M 14.796875 27.296875 
Q 14.796875 17.390625 18.875 11.75 
Q 22.953125 6.109375 30.078125 6.109375 
Q 37.203125 6.109375 41.296875 11.75 
Q 45.40625 17.390625 45.40625 27.296875 
Q 45.40625 37.203125 41.296875 42.84375 
Q 37.203125 48.484375 30.078125 48.484375 
Q 22.953125 48.484375 18.875 42.84375 
Q 14.796875 37.203125 14.796875 27.296875 
z
" id="DejaVuSans-100"/>
     <path d="M 56.203125 29.59375 
L 56.203125 25.203125 
L 14.890625 25.203125 
Q 15.484375 15.921875 20.484375 11.0625 
Q 25.484375 6.203125 34.421875 6.203125 
Q 39.59375 6.203125 44.453125 7.46875 
Q 49.3125 8.734375 54.109375 11.28125 
L 54.109375 2.78125 
Q 49.265625 0.734375 44.1875 -0.34375 
Q 39.109375 -1.421875 33.890625 -1.421875 
Q 20.796875 -1.421875 13.15625 6.1875 
Q 5.515625 13.8125 5.515625 26.8125 
Q 5.515625 40.234375 12.765625 48.109375 
Q 20.015625 56 32.328125 56 
Q 43.359375 56 49.78125 48.890625 
Q 56.203125 41.796875 56.203125 29.59375 
z
M 47.21875 32.234375 
Q 47.125 39.59375 43.09375 43.984375 
Q 39.0625 48.390625 32.421875 48.390625 
Q 24.90625 48.390625 20.390625 44.140625 
Q 15.875 39.890625 15.1875 32.171875 
z
" id="DejaVuSans-101"/>
     <path d="M 54.890625 33.015625 
L 54.890625 0 
L 45.90625 0 
L 45.90625 32.71875 
Q 45.90625 40.484375 42.875 44.328125 
Q 39.84375 48.1875 33.796875 48.1875 
Q 26.515625 48.1875 22.3125 43.546875 
Q 18.109375 38.921875 18.109375 30.90625 
L 18.109375 0 
L 9.078125 0 
L 9.078125 54.6875 
L 18.109375 54.6875 
L 18.109375 46.1875 
Q 21.34375 51.125 25.703125 53.5625 
Q 30.078125 56 35.796875 56 
Q 45.21875 56 50.046875 50.171875 
Q 54.890625 44.34375 54.890625 33.015625 
z
" id="DejaVuSans-110"/>
     <path d="M 44.28125 53.078125 
L 44.28125 44.578125 
Q 40.484375 46.53125 36.375 47.5 
Q 32.28125 48.484375 27.875 48.484375 
Q 21.1875 48.484375 17.84375 46.4375 
Q 14.5 44.390625 14.5 40.28125 
Q 14.5 37.15625 16.890625 35.375 
Q 19.28125 33.59375 26.515625 31.984375 
L 29.59375 31.296875 
Q 39.15625 29.25 43.1875 25.515625 
Q 47.21875 21.78125 47.21875 15.09375 
Q 47.21875 7.46875 41.1875 3.015625 
Q 35.15625 -1.421875 24.609375 -1.421875 
Q 20.21875 -1.421875 15.453125 -0.5625 
Q 10.6875 0.296875 5.421875 2 
L 5.421875 11.28125 
Q 10.40625 8.6875 15.234375 7.390625 
Q 20.0625 6.109375 24.8125 6.109375 
Q 31.15625 6.109375 34.5625 8.28125 
Q 37.984375 10.453125 37.984375 14.40625 
Q 37.984375 18.0625 35.515625 20.015625 
Q 33.0625 21.96875 24.703125 23.78125 
L 21.578125 24.515625 
Q 13.234375 26.265625 9.515625 29.90625 
Q 5.8125 33.546875 5.8125 39.890625 
Q 5.8125 47.609375 11.28125 51.796875 
Q 16.75 56 26.8125 56 
Q 31.78125 56 36.171875 55.265625 
Q 40.578125 54.546875 44.28125 53.078125 
z
" id="DejaVuSans-115"/>
     <path d="M 9.421875 54.6875 
L 18.40625 54.6875 
L 18.40625 0 
L 9.421875 0 
z
M 9.421875 75.984375 
L 18.40625 75.984375 
L 18.40625 64.59375 
L 9.421875 64.59375 
z
" id="DejaVuSans-105"/>
     <path d="M 18.3125 70.21875 
L 18.3125 54.6875 
L 36.8125 54.6875 
L 36.8125 47.703125 
L 18.3125 47.703125 
L 18.3125 18.015625 
Q 18.3125 11.328125 20.140625 9.421875 
Q 21.96875 7.515625 27.59375 7.515625 
L 36.8125 7.515625 
L 36.8125 0 
L 27.59375 0 
Q 17.1875 0 13.234375 3.875 
Q 9.28125 7.765625 9.28125 18.015625 
L 9.28125 47.703125 
L 2.6875 47.703125 
L 2.6875 54.6875 
L 9.28125 54.6875 
L 9.28125 70.21875 
z
" id="DejaVuSans-116"/>
     <path d="M 32.171875 -5.078125 
Q 28.375 -14.84375 24.75 -17.8125 
Q 21.140625 -20.796875 15.09375 -20.796875 
L 7.90625 -20.796875 
L 7.90625 -13.28125 
L 13.1875 -13.28125 
Q 16.890625 -13.28125 18.9375 -11.515625 
Q 21 -9.765625 23.484375 -3.21875 
L 25.09375 0.875 
L 2.984375 54.6875 
L 12.5 54.6875 
L 29.59375 11.921875 
L 46.6875 54.6875 
L 56.203125 54.6875 
z
" id="DejaVuSans-121"/>
    </defs>
    <g transform="translate(134.433437 22.396875)scale(0.2 -0.2)">
     <use xlink:href="#DejaVuSans-77"/>
     <use x="86.279297" xlink:href="#DejaVuSans-111"/>
     <use x="147.460938" xlink:href="#DejaVuSans-71"/>
     <use x="224.951172" xlink:href="#DejaVuSans-32"/>
     <use x="256.738281" xlink:href="#DejaVuSans-100"/>
     <use x="320.214844" xlink:href="#DejaVuSans-101"/>
     <use x="381.738281" xlink:href="#DejaVuSans-110"/>
     <use x="445.117188" xlink:href="#DejaVuSans-115"/>
     <use x="497.216797" xlink:href="#DejaVuSans-105"/>
     <use x="525" xlink:href="#DejaVuSans-116"/>
     <use x="564.208984" xlink:href="#DejaVuSans-121"/>
    </g>
   </g>
  </g>
 </g>
 <defs>
  <clipPath id="p4b19d358c4">
   <rect height="271.8" width="279" x="57.2725" y="28.396875"/>
  </clipPath>
 </defs>
</svg>
