<?xml version="1.0" encoding="utf-8" standalone="no"?>
<!DOCTYPE svg PUBLIC "-//W3C//DTD SVG 1.1//EN"
  "http://www.w3.org/Graphics/SVG/1.1/DTD/svg11.dtd">
<!-- Created with matplotlib (https://matplotlib.org/) -->
<svg height="295.006875pt" version="1.1" viewBox="0 0 509.859687 295.006875" width="509.859687pt" xmlns="http://www.w3.org/2000/svg" xmlns:xlink="http://www.w3.org/1999/xlink">
 <defs>
  <style type="text/css">
*{stroke-linecap:butt;stroke-linejoin:round;}
  </style>
 </defs>
 <g id="figure_1">
  <g id="patch_1">
   <path d="M 0 295.006875 
L 509.859687 295.006875 
L 509.859687 0 
L 0 0 
z
" style="fill:none;"/>
  </g>
  <g id="axes_1">
   <g id="patch_2">
    <path d="M 56.259687 245.836875 
L 259.168778 245.836875 
L 259.168778 28.396875 
L 56.259687 28.396875 
z
" style="fill:#ffffff;"/>
   </g>
   <g id="matplotlib.axis_1">
    <g id="xtick_1">
     <g id="line2d_1">
      <defs>
       <path d="M 0 0 
L 0 3.5 
" id="m7441eea838" style="stroke:#000000;stroke-width:0.8;"/>
      </defs>
      <g>
       <use style="stroke:#000000;stroke-width:0.8;" x="76.550597" xlink:href="#m7441eea838" y="245.836875"/>
      </g>
     </g>
     <g id="text_1">
      <!-- −2 -->
      <defs>
       <path d="M 10.59375 35.5 
L 73.1875 35.5 
L 73.1875 27.203125 
L 10.59375 27.203125 
z
" id="DejaVuSans-8722"/>
       <path d="M 19.1875 8.296875 
L 53.609375 8.296875 
L 53.609375 0 
L 7.328125 0 
L 7.328125 8.296875 
Q 12.9375 14.109375 22.625 23.890625 
Q 32.328125 33.6875 34.8125 36.53125 
Q 39.546875 41.84375 41.421875 45.53125 
Q 43.3125 49.21875 43.3125 52.78125 
Q 43.3125 58.59375 39.234375 62.25 
Q 35.15625 65.921875 28.609375 65.921875 
Q 23.96875 65.921875 18.8125 64.3125 
Q 13.671875 62.703125 7.8125 59.421875 
L 7.8125 69.390625 
Q 13.765625 71.78125 18.9375 73 
Q 24.125 74.21875 28.421875 74.21875 
Q 39.75 74.21875 46.484375 68.546875 
Q 53.21875 62.890625 53.21875 53.421875 
Q 53.21875 48.921875 51.53125 44.890625 
Q 49.859375 40.875 45.40625 35.40625 
Q 44.1875 33.984375 37.640625 27.21875 
Q 31.109375 20.453125 19.1875 8.296875 
z
" id="DejaVuSans-50"/>
      </defs>
      <g transform="translate(66.231065 263.474687)scale(0.14 -0.14)">
       <use xlink:href="#DejaVuSans-8722"/>
       <use x="83.789062" xlink:href="#DejaVuSans-50"/>
      </g>
     </g>
    </g>
    <g id="xtick_2">
     <g id="line2d_2">
      <g>
       <use style="stroke:#000000;stroke-width:0.8;" x="117.132415" xlink:href="#m7441eea838" y="245.836875"/>
      </g>
     </g>
     <g id="text_2">
      <!-- −1 -->
      <defs>
       <path d="M 12.40625 8.296875 
L 28.515625 8.296875 
L 28.515625 63.921875 
L 10.984375 60.40625 
L 10.984375 69.390625 
L 28.421875 72.90625 
L 38.28125 72.90625 
L 38.28125 8.296875 
L 54.390625 8.296875 
L 54.390625 0 
L 12.40625 0 
z
" id="DejaVuSans-49"/>
      </defs>
      <g transform="translate(106.812884 263.474687)scale(0.14 -0.14)">
       <use xlink:href="#DejaVuSans-8722"/>
       <use x="83.789062" xlink:href="#DejaVuSans-49"/>
      </g>
     </g>
    </g>
    <g id="xtick_3">
     <g id="line2d_3">
      <g>
       <use style="stroke:#000000;stroke-width:0.8;" x="157.714233" xlink:href="#m7441eea838" y="245.836875"/>
      </g>
     </g>
     <g id="text_3">
      <!-- 0 -->
      <defs>
       <path d="M 31.78125 66.40625 
Q 24.171875 66.40625 20.328125 58.90625 
Q 16.5 51.421875 16.5 36.375 
Q 16.5 21.390625 20.328125 13.890625 
Q 24.171875 6.390625 31.78125 6.390625 
Q 39.453125 6.390625 43.28125 13.890625 
Q 47.125 21.390625 47.125 36.375 
Q 47.125 51.421875 43.28125 58.90625 
Q 39.453125 66.40625 31.78125 66.40625 
z
M 31.78125 74.21875 
Q 44.046875 74.21875 50.515625 64.515625 
Q 56.984375 54.828125 56.984375 36.375 
Q 56.984375 17.96875 50.515625 8.265625 
Q 44.046875 -1.421875 31.78125 -1.421875 
Q 19.53125 -1.421875 13.0625 8.265625 
Q 6.59375 17.96875 6.59375 36.375 
Q 6.59375 54.828125 13.0625 64.515625 
Q 19.53125 74.21875 31.78125 74.21875 
z
" id="DejaVuSans-48"/>
      </defs>
      <g transform="translate(153.260483 263.474687)scale(0.14 -0.14)">
       <use xlink:href="#DejaVuSans-48"/>
      </g>
     </g>
    </g>
    <g id="xtick_4">
     <g id="line2d_4">
      <g>
       <use style="stroke:#000000;stroke-width:0.8;" x="198.296051" xlink:href="#m7441eea838" y="245.836875"/>
      </g>
     </g>
     <g id="text_4">
      <!-- 1 -->
      <g transform="translate(193.842301 263.474687)scale(0.14 -0.14)">
       <use xlink:href="#DejaVuSans-49"/>
      </g>
     </g>
    </g>
    <g id="xtick_5">
     <g id="line2d_5">
      <g>
       <use style="stroke:#000000;stroke-width:0.8;" x="238.877869" xlink:href="#m7441eea838" y="245.836875"/>
      </g>
     </g>
     <g id="text_5">
      <!-- 2 -->
      <g transform="translate(234.424119 263.474687)scale(0.14 -0.14)">
       <use xlink:href="#DejaVuSans-50"/>
      </g>
     </g>
    </g>
    <g id="text_6">
     <!-- $x_1$ -->
     <defs>
      <path d="M 60.015625 54.6875 
L 34.90625 27.875 
L 50.296875 0 
L 39.984375 0 
L 28.421875 21.6875 
L 8.296875 0 
L -2.59375 0 
L 24.3125 28.8125 
L 10.015625 54.6875 
L 20.3125 54.6875 
L 30.8125 34.90625 
L 49.125 54.6875 
z
" id="DejaVuSans-Oblique-120"/>
     </defs>
     <g transform="translate(148.084233 284.063437)scale(0.18 -0.18)">
      <use transform="translate(0 0.3125)" xlink:href="#DejaVuSans-Oblique-120"/>
      <use transform="translate(59.179688 -16.09375)scale(0.7)" xlink:href="#DejaVuSans-49"/>
     </g>
    </g>
   </g>
   <g id="matplotlib.axis_2">
    <g id="ytick_1">
     <g id="line2d_6">
      <defs>
       <path d="M 0 0 
L -3.5 0 
" id="meeda13c33c" style="stroke:#000000;stroke-width:0.8;"/>
      </defs>
      <g>
       <use style="stroke:#000000;stroke-width:0.8;" x="56.259687" xlink:href="#meeda13c33c" y="224.092875"/>
      </g>
     </g>
     <g id="text_7">
      <!-- −2 -->
      <g transform="translate(28.620625 229.411781)scale(0.14 -0.14)">
       <use xlink:href="#DejaVuSans-8722"/>
       <use x="83.789062" xlink:href="#DejaVuSans-50"/>
      </g>
     </g>
    </g>
    <g id="ytick_2">
     <g id="line2d_7">
      <g>
       <use style="stroke:#000000;stroke-width:0.8;" x="56.259687" xlink:href="#meeda13c33c" y="180.604875"/>
      </g>
     </g>
     <g id="text_8">
      <!-- −1 -->
      <g transform="translate(28.620625 185.923781)scale(0.14 -0.14)">
       <use xlink:href="#DejaVuSans-8722"/>
       <use x="83.789062" xlink:href="#DejaVuSans-49"/>
      </g>
     </g>
    </g>
    <g id="ytick_3">
     <g id="line2d_8">
      <g>
       <use style="stroke:#000000;stroke-width:0.8;" x="56.259687" xlink:href="#meeda13c33c" y="137.116875"/>
      </g>
     </g>
     <g id="text_9">
      <!-- 0 -->
      <g transform="translate(40.352187 142.435781)scale(0.14 -0.14)">
       <use xlink:href="#DejaVuSans-48"/>
      </g>
     </g>
    </g>
    <g id="ytick_4">
     <g id="line2d_9">
      <g>
       <use style="stroke:#000000;stroke-width:0.8;" x="56.259687" xlink:href="#meeda13c33c" y="93.628875"/>
      </g>
     </g>
     <g id="text_10">
      <!-- 1 -->
      <g transform="translate(40.352187 98.947781)scale(0.14 -0.14)">
       <use xlink:href="#DejaVuSans-49"/>
      </g>
     </g>
    </g>
    <g id="ytick_5">
     <g id="line2d_10">
      <g>
       <use style="stroke:#000000;stroke-width:0.8;" x="56.259687" xlink:href="#meeda13c33c" y="50.140875"/>
      </g>
     </g>
     <g id="text_11">
      <!-- 2 -->
      <g transform="translate(40.352187 55.459781)scale(0.14 -0.14)">
       <use xlink:href="#DejaVuSans-50"/>
      </g>
     </g>
    </g>
    <g id="text_12">
     <!-- $x_2$ -->
     <g transform="translate(20.877187 146.746875)rotate(-90)scale(0.18 -0.18)">
      <use transform="translate(0 0.3125)" xlink:href="#DejaVuSans-Oblique-120"/>
      <use transform="translate(59.179688 -16.09375)scale(0.7)" xlink:href="#DejaVuSans-50"/>
     </g>
    </g>
   </g>
   <g id="PathCollection_1">
    <defs>
     <path d="M 0 1.581139 
C 0.419323 1.581139 0.821528 1.41454 1.118034 1.118034 
C 1.41454 0.821528 1.581139 0.419323 1.581139 0 
C 1.581139 -0.419323 1.41454 -0.821528 1.118034 -1.118034 
C 0.821528 -1.41454 0.419323 -1.581139 0 -1.581139 
C -0.419323 -1.581139 -0.821528 -1.41454 -1.118034 -1.118034 
C -1.41454 -0.821528 -1.581139 -0.419323 -1.581139 0 
C -1.581139 0.419323 -1.41454 0.821528 -1.118034 1.118034 
C -0.821528 1.41454 -0.419323 1.581139 0 1.581139 
z
" id="m8116dff932" style="stroke:#000000;"/>
    </defs>
    <g clip-path="url(#pa75716e7a1)">
     <use style="stroke:#000000;" x="196.478997" xlink:href="#m8116dff932" y="139.658036"/>
     <use style="stroke:#000000;" x="202.285916" xlink:href="#m8116dff932" y="129.25763"/>
     <use style="stroke:#000000;" x="211.348846" xlink:href="#m8116dff932" y="119.868069"/>
     <use style="stroke:#000000;" x="206.71358" xlink:href="#m8116dff932" y="136.756981"/>
     <use style="stroke:#000000;" x="197.649196" xlink:href="#m8116dff932" y="154.382151"/>
     <use style="stroke:#000000;" x="211.266169" xlink:href="#m8116dff932" y="137.295544"/>
     <use style="stroke:#000000;" x="210.901041" xlink:href="#m8116dff932" y="140.429941"/>
     <use style="stroke:#000000;" x="216.067388" xlink:href="#m8116dff932" y="139.731364"/>
     <use style="stroke:#000000;" x="199.001484" xlink:href="#m8116dff932" y="131.992695"/>
     <use style="stroke:#000000;" x="199.205472" xlink:href="#m8116dff932" y="131.060059"/>
     <use style="stroke:#000000;" x="192.704736" xlink:href="#m8116dff932" y="156.911595"/>
     <use style="stroke:#000000;" x="199.904529" xlink:href="#m8116dff932" y="129.895291"/>
     <use style="stroke:#000000;" x="198.72448" xlink:href="#m8116dff932" y="120.847771"/>
     <use style="stroke:#000000;" x="188.640008" xlink:href="#m8116dff932" y="143.193477"/>
     <use style="stroke:#000000;" x="210.974183" xlink:href="#m8116dff932" y="128.745171"/>
     <use style="stroke:#000000;" x="192.378707" xlink:href="#m8116dff932" y="135.067759"/>
     <use style="stroke:#000000;" x="194.520723" xlink:href="#m8116dff932" y="140.794124"/>
     <use style="stroke:#000000;" x="206.582961" xlink:href="#m8116dff932" y="134.812705"/>
     <use style="stroke:#000000;" x="206.236599" xlink:href="#m8116dff932" y="139.427595"/>
     <use style="stroke:#000000;" x="188.821188" xlink:href="#m8116dff932" y="136.941415"/>
     <use style="stroke:#000000;" x="208.299799" xlink:href="#m8116dff932" y="139.739221"/>
     <use style="stroke:#000000;" x="198.641915" xlink:href="#m8116dff932" y="126.840411"/>
     <use style="stroke:#000000;" x="196.001441" xlink:href="#m8116dff932" y="129.532114"/>
     <use style="stroke:#000000;" x="200.596513" xlink:href="#m8116dff932" y="145.349546"/>
     <use style="stroke:#000000;" x="196.084989" xlink:href="#m8116dff932" y="126.290434"/>
     <use style="stroke:#000000;" x="220.228165" xlink:href="#m8116dff932" y="148.451468"/>
     <use style="stroke:#000000;" x="206.240223" xlink:href="#m8116dff932" y="129.389347"/>
     <use style="stroke:#000000;" x="181.384903" xlink:href="#m8116dff932" y="132.677719"/>
     <use style="stroke:#000000;" x="209.924502" xlink:href="#m8116dff932" y="138.590647"/>
     <use style="stroke:#000000;" x="204.938549" xlink:href="#m8116dff932" y="138.31576"/>
     <use style="stroke:#000000;" x="207.378105" xlink:href="#m8116dff932" y="135.448623"/>
     <use style="stroke:#000000;" x="203.881733" xlink:href="#m8116dff932" y="146.942183"/>
     <use style="stroke:#000000;" x="195.22761" xlink:href="#m8116dff932" y="139.125574"/>
     <use style="stroke:#000000;" x="206.018998" xlink:href="#m8116dff932" y="136.407013"/>
     <use style="stroke:#000000;" x="210.695201" xlink:href="#m8116dff932" y="136.415284"/>
     <use style="stroke:#000000;" x="206.080171" xlink:href="#m8116dff932" y="146.024249"/>
     <use style="stroke:#000000;" x="208.229095" xlink:href="#m8116dff932" y="133.455447"/>
     <use style="stroke:#000000;" x="189.937146" xlink:href="#m8116dff932" y="152.138377"/>
     <use style="stroke:#000000;" x="199.611328" xlink:href="#m8116dff932" y="142.690308"/>
     <use style="stroke:#000000;" x="194.783438" xlink:href="#m8116dff932" y="142.077416"/>
     <use style="stroke:#000000;" x="196.559338" xlink:href="#m8116dff932" y="129.628676"/>
     <use style="stroke:#000000;" x="200.71271" xlink:href="#m8116dff932" y="142.232014"/>
     <use style="stroke:#000000;" x="202.417758" xlink:href="#m8116dff932" y="155.703992"/>
     <use style="stroke:#000000;" x="212.515072" xlink:href="#m8116dff932" y="136.458343"/>
     <use style="stroke:#000000;" x="195.101403" xlink:href="#m8116dff932" y="136.46567"/>
     <use style="stroke:#000000;" x="207.795311" xlink:href="#m8116dff932" y="133.087826"/>
     <use style="stroke:#000000;" x="192.401166" xlink:href="#m8116dff932" y="137.879551"/>
     <use style="stroke:#000000;" x="193.630607" xlink:href="#m8116dff932" y="136.199626"/>
     <use style="stroke:#000000;" x="208.707774" xlink:href="#m8116dff932" y="139.993511"/>
     <use style="stroke:#000000;" x="198.868427" xlink:href="#m8116dff932" y="145.133464"/>
     <use style="stroke:#000000;" x="195.869059" xlink:href="#m8116dff932" y="121.666079"/>
     <use style="stroke:#000000;" x="194.209732" xlink:href="#m8116dff932" y="128.575057"/>
     <use style="stroke:#000000;" x="203.635502" xlink:href="#m8116dff932" y="135.919673"/>
     <use style="stroke:#000000;" x="223.992088" xlink:href="#m8116dff932" y="147.701928"/>
     <use style="stroke:#000000;" x="220.327991" xlink:href="#m8116dff932" y="141.892937"/>
     <use style="stroke:#000000;" x="190.867773" xlink:href="#m8116dff932" y="148.030032"/>
     <use style="stroke:#000000;" x="187.51668" xlink:href="#m8116dff932" y="141.423007"/>
     <use style="stroke:#000000;" x="203.832901" xlink:href="#m8116dff932" y="140.216609"/>
     <use style="stroke:#000000;" x="194.790407" xlink:href="#m8116dff932" y="135.017676"/>
     <use style="stroke:#000000;" x="190.645535" xlink:href="#m8116dff932" y="140.901287"/>
     <use style="stroke:#000000;" x="202.5377" xlink:href="#m8116dff932" y="138.17501"/>
     <use style="stroke:#000000;" x="199.595107" xlink:href="#m8116dff932" y="145.475287"/>
     <use style="stroke:#000000;" x="204.629278" xlink:href="#m8116dff932" y="146.060469"/>
     <use style="stroke:#000000;" x="201.363201" xlink:href="#m8116dff932" y="137.385372"/>
     <use style="stroke:#000000;" x="201.446927" xlink:href="#m8116dff932" y="132.125864"/>
     <use style="stroke:#000000;" x="198.415359" xlink:href="#m8116dff932" y="148.452068"/>
     <use style="stroke:#000000;" x="196.540596" xlink:href="#m8116dff932" y="139.230138"/>
     <use style="stroke:#000000;" x="185.683833" xlink:href="#m8116dff932" y="130.389622"/>
     <use style="stroke:#000000;" x="200.016836" xlink:href="#m8116dff932" y="126.125835"/>
     <use style="stroke:#000000;" x="203.321286" xlink:href="#m8116dff932" y="131.008263"/>
     <use style="stroke:#000000;" x="194.239878" xlink:href="#m8116dff932" y="134.615109"/>
     <use style="stroke:#000000;" x="204.734053" xlink:href="#m8116dff932" y="126.168192"/>
     <use style="stroke:#000000;" x="207.022798" xlink:href="#m8116dff932" y="147.768358"/>
     <use style="stroke:#000000;" x="201.589853" xlink:href="#m8116dff932" y="145.809609"/>
     <use style="stroke:#000000;" x="203.736407" xlink:href="#m8116dff932" y="140.908583"/>
     <use style="stroke:#000000;" x="193.332436" xlink:href="#m8116dff932" y="148.991764"/>
     <use style="stroke:#000000;" x="187.245777" xlink:href="#m8116dff932" y="135.759854"/>
     <use style="stroke:#000000;" x="207.10233" xlink:href="#m8116dff932" y="148.771277"/>
     <use style="stroke:#000000;" x="193.442807" xlink:href="#m8116dff932" y="165.115238"/>
     <use style="stroke:#000000;" x="194.542984" xlink:href="#m8116dff932" y="136.345557"/>
     <use style="stroke:#000000;" x="193.587494" xlink:href="#m8116dff932" y="132.393972"/>
     <use style="stroke:#000000;" x="207.664489" xlink:href="#m8116dff932" y="146.082355"/>
     <use style="stroke:#000000;" x="200.230896" xlink:href="#m8116dff932" y="137.011154"/>
     <use style="stroke:#000000;" x="201.271477" xlink:href="#m8116dff932" y="150.342328"/>
     <use style="stroke:#000000;" x="195.797932" xlink:href="#m8116dff932" y="128.356596"/>
     <use style="stroke:#000000;" x="202.92973" xlink:href="#m8116dff932" y="140.30792"/>
     <use style="stroke:#000000;" x="195.714121" xlink:href="#m8116dff932" y="140.596227"/>
     <use style="stroke:#000000;" x="179.963627" xlink:href="#m8116dff932" y="147.955193"/>
     <use style="stroke:#000000;" x="203.001169" xlink:href="#m8116dff932" y="144.337338"/>
     <use style="stroke:#000000;" x="197.625295" xlink:href="#m8116dff932" y="136.684305"/>
     <use style="stroke:#000000;" x="192.025437" xlink:href="#m8116dff932" y="150.930577"/>
     <use style="stroke:#000000;" x="198.401939" xlink:href="#m8116dff932" y="143.166276"/>
     <use style="stroke:#000000;" x="188.127796" xlink:href="#m8116dff932" y="143.207524"/>
     <use style="stroke:#000000;" x="202.365162" xlink:href="#m8116dff932" y="132.803946"/>
     <use style="stroke:#000000;" x="209.194" xlink:href="#m8116dff932" y="143.971022"/>
     <use style="stroke:#000000;" x="194.216793" xlink:href="#m8116dff932" y="143.048017"/>
     <use style="stroke:#000000;" x="208.440717" xlink:href="#m8116dff932" y="133.841599"/>
     <use style="stroke:#000000;" x="199.733273" xlink:href="#m8116dff932" y="148.262431"/>
     <use style="stroke:#000000;" x="190.601003" xlink:href="#m8116dff932" y="151.050807"/>
     <use style="stroke:#000000;" x="204.221583" xlink:href="#m8116dff932" y="151.318593"/>
    </g>
   </g>
   <g id="LineCollection_1">
    <path clip-path="url(#pa75716e7a1)" d="M 105.95171 186.185246 
L 110.09271 187.158399 
L 114.233715 187.496153 
L 118.374715 187.542883 
L 122.515717 187.340437 
L 126.656719 186.696804 
L 130.797722 184.851174 
L 132.39474 183.711159 
L 134.938724 183.342954 
L 139.079725 181.543602 
L 141.597488 179.27361 
L 143.220726 178.621859 
L 147.361728 174.619042 
L 151.50273 170.163366 
L 155.192606 165.960956 
L 155.643732 164.912482 
L 159.784734 164.912482 
L 160.23586 165.960956 
L 164.097772 170.398507 
L 168.35875 174.836059 
L 172.20774 178.621859 
L 173.830978 179.27361 
L 176.348741 181.543602 
L 180.489742 183.342954 
L 183.033726 183.711159 
L 184.630744 184.851174 
L 188.771747 186.696804 
L 192.912749 187.340437 
L 197.053751 187.542883 
L 201.194751 187.496153 
L 205.335756 187.158399 
L 209.476756 186.185246 
L 213.3281 183.711159 
L 213.61776 183.678886 
L 217.75876 182.910794 
L 222.245164 179.27361 
L 226.040765 177.534957 
L 228.730116 174.836059 
L 230.181765 173.614532 
L 233.161354 170.398507 
L 234.322769 168.609571 
L 236.602681 165.960956 
L 238.463769 161.275814 
L 241.524944 157.085854 
L 242.426122 152.648304 
L 242.604769 150.508704 
L 243.833643 148.210752 
L 245.111788 143.773202 
L 245.54064 139.335651 
L 245.54064 134.898099 
L 245.111788 130.460548 
L 243.833643 126.022998 
L 242.604769 123.725046 
L 242.426122 121.585446 
L 241.524944 117.147896 
L 238.401758 112.710346 
L 236.602681 108.272794 
L 234.322769 105.624179 
L 233.161354 103.835243 
L 230.181765 100.619218 
L 228.730116 99.397691 
L 226.040765 96.698793 
L 222.245164 94.96014 
L 221.89976 94.639993 
L 217.75876 91.322956 
L 213.3281 90.522591 
L 209.476756 88.048504 
L 205.335756 87.075351 
L 201.194751 86.737597 
L 197.053751 86.690867 
L 192.912749 86.893313 
L 188.771747 87.536946 
L 184.630744 89.382576 
L 183.033726 90.522591 
L 180.489742 90.890796 
L 176.348741 92.690148 
L 173.830978 94.96014 
L 172.20774 95.611891 
L 168.066737 99.614708 
L 163.925736 104.070384 
L 160.23586 108.272794 
L 159.784734 109.321268 
L 155.643732 109.321268 
L 155.192606 108.272794 
L 151.330694 103.835243 
L 147.069716 99.397691 
L 143.220726 95.611891 
L 141.597488 94.96014 
L 139.079725 92.690148 
L 134.938724 90.890796 
L 132.39474 90.522591 
L 130.797722 89.382576 
L 126.656719 87.536946 
L 122.515717 86.893313 
L 118.374715 86.690867 
L 114.233715 86.737597 
L 110.09271 87.075351 
L 105.95171 88.048504 
L 102.100366 90.522591 
L 101.810706 90.554864 
L 97.669706 91.322956 
L 93.183302 94.96014 
L 89.387701 96.698793 
L 86.69835 99.397691 
L 85.246701 100.619218 
L 82.267111 103.835243 
L 81.105696 105.624179 
L 78.825784 108.272794 
L 76.964697 112.957936 
L 73.903522 117.147896 
L 73.002344 121.585446 
L 72.823697 123.725046 
L 71.594823 126.022998 
L 70.316678 130.460548 
L 69.887826 134.898099 
L 69.887826 139.335651 
L 70.316678 143.773202 
L 71.594823 148.210752 
L 72.823697 150.508704 
L 73.002344 152.648304 
L 73.903522 157.085854 
L 77.026708 161.523404 
L 78.825784 165.960956 
L 81.105696 168.609571 
L 82.267111 170.398507 
L 85.246701 173.614532 
L 86.69835 174.836059 
L 89.387701 177.534957 
L 93.183302 179.27361 
L 93.528706 179.593757 
L 97.669706 182.910794 
L 102.100366 183.711159 
L 105.95171 186.185246 
L 105.95171 186.185246 
" style="fill:none;stroke:#000000;stroke-width:1.5;"/>
   </g>
   <g id="LineCollection_2">
    <path clip-path="url(#pa75716e7a1)" d="M 105.95171 173.130636 
L 110.09271 174.149613 
L 114.233715 174.50327 
L 118.374715 174.552201 
L 122.515717 174.340222 
L 126.656719 173.666283 
L 130.797722 171.733749 
L 132.534233 170.398507 
L 134.938724 169.559186 
L 138.884772 165.960956 
L 139.079725 165.822968 
L 143.149689 161.523404 
L 143.220726 161.423068 
L 146.771518 157.085854 
L 147.361728 155.40471 
L 149.277524 152.648304 
L 150.823001 148.210752 
L 151.352981 143.773202 
L 151.50273 140.203775 
L 151.711118 139.335651 
L 151.711118 134.898099 
L 151.50273 134.029975 
L 151.352981 130.460548 
L 150.823001 126.022998 
L 149.277524 121.585446 
L 147.361728 118.82904 
L 146.771518 117.147896 
L 143.220726 112.810682 
L 143.149689 112.710346 
L 139.079725 108.410782 
L 138.884772 108.272794 
L 134.938724 104.674564 
L 132.534233 103.835243 
L 130.797722 102.500001 
L 126.656719 100.567467 
L 122.515717 99.893528 
L 118.374715 99.681549 
L 114.233715 99.73048 
L 110.09271 100.084137 
L 105.95171 101.103114 
L 102.003344 103.835243 
L 101.810706 103.887006 
L 97.669706 105.687717 
L 94.943093 108.272794 
L 93.528706 109.427905 
L 90.506316 112.710346 
L 89.387701 114.512902 
L 87.273403 117.147896 
L 85.476437 121.585446 
L 85.246701 122.732819 
L 83.359255 126.022998 
L 82.219165 130.460548 
L 81.836635 134.898099 
L 81.836635 139.335651 
L 82.219165 143.773202 
L 83.359255 148.210752 
L 85.246701 151.500931 
L 85.476437 152.648304 
L 87.273403 157.085854 
L 89.387701 159.720848 
L 90.506316 161.523404 
L 93.528706 164.805845 
L 94.943093 165.960956 
L 97.669706 168.546033 
L 101.810706 170.346744 
L 102.003344 170.398507 
L 105.95171 173.130636 
" style="fill:none;stroke:#000000;stroke-width:1.5;"/>
    <path clip-path="url(#pa75716e7a1)" d="M 184.630744 171.733749 
L 188.771747 173.666283 
L 192.912749 174.340222 
L 197.053751 174.552201 
L 201.194751 174.50327 
L 205.335756 174.149613 
L 209.476756 173.130636 
L 213.425122 170.398507 
L 213.61776 170.346744 
L 217.75876 168.546033 
L 220.485373 165.960956 
L 221.89976 164.805845 
L 224.92215 161.523404 
L 226.040765 159.720848 
L 228.155063 157.085854 
L 229.952029 152.648304 
L 230.181765 151.500931 
L 232.069211 148.210752 
L 233.209301 143.773202 
L 233.591831 139.335651 
L 233.591831 134.898099 
L 233.209301 130.460548 
L 232.069211 126.022998 
L 230.181765 122.732819 
L 229.952029 121.585446 
L 228.155063 117.147896 
L 226.040765 114.512902 
L 224.92215 112.710346 
L 221.89976 109.427905 
L 220.485373 108.272794 
L 217.75876 105.687717 
L 213.61776 103.887006 
L 213.425122 103.835243 
L 209.476756 101.103114 
L 205.335756 100.084137 
L 201.194751 99.73048 
L 197.053751 99.681549 
L 192.912749 99.893528 
L 188.771747 100.567467 
L 184.630744 102.500001 
L 182.894233 103.835243 
L 180.489742 104.674564 
L 176.543694 108.272794 
L 176.348741 108.410782 
L 172.278777 112.710346 
L 172.20774 112.810682 
L 168.656948 117.147896 
L 168.066737 118.82904 
L 166.150942 121.585446 
L 164.605464 126.022998 
L 164.075484 130.460548 
L 163.925736 134.029975 
L 163.717348 134.898099 
L 163.717348 139.335651 
L 163.925736 140.203775 
L 164.075484 143.773202 
L 164.605464 148.210752 
L 166.150942 152.648304 
L 168.066737 155.40471 
L 168.656948 157.085854 
L 172.20774 161.423068 
L 172.278777 161.523404 
L 176.348741 165.822968 
L 176.543694 165.960956 
L 180.489742 169.559186 
L 182.894233 170.398507 
L 184.630744 171.733749 
" style="fill:none;stroke:#000000;stroke-width:1.5;"/>
   </g>
   <g id="LineCollection_3">
    <path clip-path="url(#pa75716e7a1)" d="M 114.233715 161.761446 
L 118.374715 162.034235 
L 120.378552 161.523404 
L 122.515717 161.325187 
L 126.656719 160.215203 
L 130.763811 157.085854 
L 130.797722 157.064584 
L 134.938724 152.939053 
L 135.184801 152.648304 
L 138.197857 148.210752 
L 139.079725 144.767876 
L 139.563276 143.773202 
L 140.67069 139.335651 
L 140.67069 134.898099 
L 139.563276 130.460548 
L 139.079725 129.465874 
L 138.197857 126.022998 
L 135.184801 121.585446 
L 134.938724 121.294697 
L 130.797722 117.169166 
L 130.763811 117.147896 
L 126.656719 114.018547 
L 122.515717 112.908563 
L 120.378552 112.710346 
L 118.374715 112.199515 
L 114.233715 112.472304 
L 113.579414 112.710346 
L 110.09271 113.2225 
L 105.95171 114.900762 
L 103.251395 117.147896 
L 101.810706 118.243158 
L 98.775781 121.585446 
L 97.669706 123.572544 
L 95.998622 126.022998 
L 94.410914 130.460548 
L 93.878196 134.898099 
L 93.878196 139.335651 
L 94.410914 143.773202 
L 95.998622 148.210752 
L 97.669706 150.661206 
L 98.775781 152.648304 
L 101.810706 155.990592 
L 103.251395 157.085854 
L 105.95171 159.332988 
L 110.09271 161.01125 
L 113.579414 161.523404 
L 114.233715 161.761446 
" style="fill:none;stroke:#000000;stroke-width:1.5;"/>
    <path clip-path="url(#pa75716e7a1)" d="M 197.053751 162.034235 
L 201.194751 161.761446 
L 201.849052 161.523404 
L 205.335756 161.01125 
L 209.476756 159.332988 
L 212.177071 157.085854 
L 213.61776 155.990592 
L 216.652685 152.648304 
L 217.75876 150.661206 
L 219.429844 148.210752 
L 221.017552 143.773202 
L 221.55027 139.335651 
L 221.55027 134.898099 
L 221.017552 130.460548 
L 219.429844 126.022998 
L 217.75876 123.572544 
L 216.652685 121.585446 
L 213.61776 118.243158 
L 212.177071 117.147896 
L 209.476756 114.900762 
L 205.335756 113.2225 
L 201.849052 112.710346 
L 201.194751 112.472304 
L 197.053751 112.199515 
L 195.049914 112.710346 
L 192.912749 112.908563 
L 188.771747 114.018547 
L 184.664655 117.147896 
L 184.630744 117.169166 
L 180.489742 121.294697 
L 180.243665 121.585446 
L 177.230609 126.022998 
L 176.348741 129.465874 
L 175.86519 130.460548 
L 174.757775 134.898099 
L 174.757775 139.335651 
L 175.86519 143.773202 
L 176.348741 144.767876 
L 177.230609 148.210752 
L 180.243665 152.648304 
L 180.489742 152.939053 
L 184.630744 157.064584 
L 184.664655 157.085854 
L 188.771747 160.215203 
L 192.912749 161.325187 
L 195.049914 161.523404 
L 197.053751 162.034235 
" style="fill:none;stroke:#000000;stroke-width:1.5;"/>
   </g>
   <g id="LineCollection_4">
    <path clip-path="url(#pa75716e7a1)" d="M 114.233715 149.470026 
L 118.374715 149.821473 
L 122.515717 148.298932 
L 122.634941 148.210752 
L 126.656719 144.439674 
L 127.144427 143.773202 
L 128.86643 139.335651 
L 128.86643 134.898099 
L 127.144427 130.460548 
L 126.656719 129.794076 
L 122.634941 126.022998 
L 122.515717 125.934818 
L 118.374715 124.412277 
L 114.233715 124.763724 
L 111.85965 126.022998 
L 110.09271 127.039389 
L 107.120889 130.460548 
L 105.95171 133.7179 
L 105.505166 134.898099 
L 105.505166 139.335651 
L 105.95171 140.51585 
L 107.120889 143.773202 
L 110.09271 147.194361 
L 111.85965 148.210752 
L 114.233715 149.470026 
" style="fill:none;stroke:#000000;stroke-width:1.5;"/>
    <path clip-path="url(#pa75716e7a1)" d="M 192.912749 148.298932 
L 197.053751 149.821473 
L 201.194751 149.470026 
L 203.568816 148.210752 
L 205.335756 147.194361 
L 208.307577 143.773202 
L 209.476756 140.51585 
L 209.9233 139.335651 
L 209.9233 134.898099 
L 209.476756 133.7179 
L 208.307577 130.460548 
L 205.335756 127.039389 
L 203.568816 126.022998 
L 201.194751 124.763724 
L 197.053751 124.412277 
L 192.912749 125.934818 
L 192.793525 126.022998 
L 188.771747 129.794076 
L 188.284039 130.460548 
L 186.562035 134.898099 
L 186.562035 139.335651 
L 188.284039 143.773202 
L 188.771747 144.439674 
L 192.793525 148.210752 
L 192.912749 148.298932 
" style="fill:none;stroke:#000000;stroke-width:1.5;"/>
   </g>
   <g id="LineCollection_5"/>
   <g id="patch_3">
    <path d="M 56.259687 245.836875 
L 56.259687 28.396875 
" style="fill:none;stroke:#000000;stroke-linecap:square;stroke-linejoin:miter;stroke-width:0.8;"/>
   </g>
   <g id="patch_4">
    <path d="M 259.168778 245.836875 
L 259.168778 28.396875 
" style="fill:none;stroke:#000000;stroke-linecap:square;stroke-linejoin:miter;stroke-width:0.8;"/>
   </g>
   <g id="patch_5">
    <path d="M 56.259687 245.836875 
L 259.168778 245.836875 
" style="fill:none;stroke:#000000;stroke-linecap:square;stroke-linejoin:miter;stroke-width:0.8;"/>
   </g>
   <g id="patch_6">
    <path d="M 56.259687 28.396875 
L 259.168778 28.396875 
" style="fill:none;stroke:#000000;stroke-linecap:square;stroke-linejoin:miter;stroke-width:0.8;"/>
   </g>
   <g id="text_13">
    <!-- Iteration 0 -->
    <defs>
     <path d="M 9.8125 72.90625 
L 19.671875 72.90625 
L 19.671875 0 
L 9.8125 0 
z
" id="DejaVuSans-73"/>
     <path d="M 18.3125 70.21875 
L 18.3125 54.6875 
L 36.8125 54.6875 
L 36.8125 47.703125 
L 18.3125 47.703125 
L 18.3125 18.015625 
Q 18.3125 11.328125 20.140625 9.421875 
Q 21.96875 7.515625 27.59375 7.515625 
L 36.8125 7.515625 
L 36.8125 0 
L 27.59375 0 
Q 17.1875 0 13.234375 3.875 
Q 9.28125 7.765625 9.28125 18.015625 
L 9.28125 47.703125 
L 2.6875 47.703125 
L 2.6875 54.6875 
L 9.28125 54.6875 
L 9.28125 70.21875 
z
" id="DejaVuSans-116"/>
     <path d="M 56.203125 29.59375 
L 56.203125 25.203125 
L 14.890625 25.203125 
Q 15.484375 15.921875 20.484375 11.0625 
Q 25.484375 6.203125 34.421875 6.203125 
Q 39.59375 6.203125 44.453125 7.46875 
Q 49.3125 8.734375 54.109375 11.28125 
L 54.109375 2.78125 
Q 49.265625 0.734375 44.1875 -0.34375 
Q 39.109375 -1.421875 33.890625 -1.421875 
Q 20.796875 -1.421875 13.15625 6.1875 
Q 5.515625 13.8125 5.515625 26.8125 
Q 5.515625 40.234375 12.765625 48.109375 
Q 20.015625 56 32.328125 56 
Q 43.359375 56 49.78125 48.890625 
Q 56.203125 41.796875 56.203125 29.59375 
z
M 47.21875 32.234375 
Q 47.125 39.59375 43.09375 43.984375 
Q 39.0625 48.390625 32.421875 48.390625 
Q 24.90625 48.390625 20.390625 44.140625 
Q 15.875 39.890625 15.1875 32.171875 
z
" id="DejaVuSans-101"/>
     <path d="M 41.109375 46.296875 
Q 39.59375 47.171875 37.8125 47.578125 
Q 36.03125 48 33.890625 48 
Q 26.265625 48 22.1875 43.046875 
Q 18.109375 38.09375 18.109375 28.8125 
L 18.109375 0 
L 9.078125 0 
L 9.078125 54.6875 
L 18.109375 54.6875 
L 18.109375 46.1875 
Q 20.953125 51.171875 25.484375 53.578125 
Q 30.03125 56 36.53125 56 
Q 37.453125 56 38.578125 55.875 
Q 39.703125 55.765625 41.0625 55.515625 
z
" id="DejaVuSans-114"/>
     <path d="M 34.28125 27.484375 
Q 23.390625 27.484375 19.1875 25 
Q 14.984375 22.515625 14.984375 16.5 
Q 14.984375 11.71875 18.140625 8.90625 
Q 21.296875 6.109375 26.703125 6.109375 
Q 34.1875 6.109375 38.703125 11.40625 
Q 43.21875 16.703125 43.21875 25.484375 
L 43.21875 27.484375 
z
M 52.203125 31.203125 
L 52.203125 0 
L 43.21875 0 
L 43.21875 8.296875 
Q 40.140625 3.328125 35.546875 0.953125 
Q 30.953125 -1.421875 24.3125 -1.421875 
Q 15.921875 -1.421875 10.953125 3.296875 
Q 6 8.015625 6 15.921875 
Q 6 25.140625 12.171875 29.828125 
Q 18.359375 34.515625 30.609375 34.515625 
L 43.21875 34.515625 
L 43.21875 35.40625 
Q 43.21875 41.609375 39.140625 45 
Q 35.0625 48.390625 27.6875 48.390625 
Q 23 48.390625 18.546875 47.265625 
Q 14.109375 46.140625 10.015625 43.890625 
L 10.015625 52.203125 
Q 14.9375 54.109375 19.578125 55.046875 
Q 24.21875 56 28.609375 56 
Q 40.484375 56 46.34375 49.84375 
Q 52.203125 43.703125 52.203125 31.203125 
z
" id="DejaVuSans-97"/>
     <path d="M 9.421875 54.6875 
L 18.40625 54.6875 
L 18.40625 0 
L 9.421875 0 
z
M 9.421875 75.984375 
L 18.40625 75.984375 
L 18.40625 64.59375 
L 9.421875 64.59375 
z
" id="DejaVuSans-105"/>
     <path d="M 30.609375 48.390625 
Q 23.390625 48.390625 19.1875 42.75 
Q 14.984375 37.109375 14.984375 27.296875 
Q 14.984375 17.484375 19.15625 11.84375 
Q 23.34375 6.203125 30.609375 6.203125 
Q 37.796875 6.203125 41.984375 11.859375 
Q 46.1875 17.53125 46.1875 27.296875 
Q 46.1875 37.015625 41.984375 42.703125 
Q 37.796875 48.390625 30.609375 48.390625 
z
M 30.609375 56 
Q 42.328125 56 49.015625 48.375 
Q 55.71875 40.765625 55.71875 27.296875 
Q 55.71875 13.875 49.015625 6.21875 
Q 42.328125 -1.421875 30.609375 -1.421875 
Q 18.84375 -1.421875 12.171875 6.21875 
Q 5.515625 13.875 5.515625 27.296875 
Q 5.515625 40.765625 12.171875 48.375 
Q 18.84375 56 30.609375 56 
z
" id="DejaVuSans-111"/>
     <path d="M 54.890625 33.015625 
L 54.890625 0 
L 45.90625 0 
L 45.90625 32.71875 
Q 45.90625 40.484375 42.875 44.328125 
Q 39.84375 48.1875 33.796875 48.1875 
Q 26.515625 48.1875 22.3125 43.546875 
Q 18.109375 38.921875 18.109375 30.90625 
L 18.109375 0 
L 9.078125 0 
L 9.078125 54.6875 
L 18.109375 54.6875 
L 18.109375 46.1875 
Q 21.34375 51.125 25.703125 53.5625 
Q 30.078125 56 35.796875 56 
Q 45.21875 56 50.046875 50.171875 
Q 54.890625 44.34375 54.890625 33.015625 
z
" id="DejaVuSans-110"/>
     <path id="DejaVuSans-32"/>
    </defs>
    <g transform="translate(105.75642 22.396875)scale(0.2 -0.2)">
     <use xlink:href="#DejaVuSans-73"/>
     <use x="29.492188" xlink:href="#DejaVuSans-116"/>
     <use x="68.701172" xlink:href="#DejaVuSans-101"/>
     <use x="130.224609" xlink:href="#DejaVuSans-114"/>
     <use x="171.337891" xlink:href="#DejaVuSans-97"/>
     <use x="232.617188" xlink:href="#DejaVuSans-116"/>
     <use x="271.826172" xlink:href="#DejaVuSans-105"/>
     <use x="299.609375" xlink:href="#DejaVuSans-111"/>
     <use x="360.791016" xlink:href="#DejaVuSans-110"/>
     <use x="424.169922" xlink:href="#DejaVuSans-32"/>
     <use x="455.957031" xlink:href="#DejaVuSans-48"/>
    </g>
   </g>
  </g>
  <g id="axes_2">
   <g id="patch_7">
    <path d="M 299.750597 245.836875 
L 502.659687 245.836875 
L 502.659687 28.396875 
L 299.750597 28.396875 
z
" style="fill:#ffffff;"/>
   </g>
   <g id="matplotlib.axis_3">
    <g id="xtick_6">
     <g id="line2d_11">
      <g>
       <use style="stroke:#000000;stroke-width:0.8;" x="320.041506" xlink:href="#m7441eea838" y="245.836875"/>
      </g>
     </g>
     <g id="text_14">
      <!-- −2 -->
      <g transform="translate(309.721974 263.474687)scale(0.14 -0.14)">
       <use xlink:href="#DejaVuSans-8722"/>
       <use x="83.789062" xlink:href="#DejaVuSans-50"/>
      </g>
     </g>
    </g>
    <g id="xtick_7">
     <g id="line2d_12">
      <g>
       <use style="stroke:#000000;stroke-width:0.8;" x="360.623324" xlink:href="#m7441eea838" y="245.836875"/>
      </g>
     </g>
     <g id="text_15">
      <!-- −1 -->
      <g transform="translate(350.303793 263.474687)scale(0.14 -0.14)">
       <use xlink:href="#DejaVuSans-8722"/>
       <use x="83.789062" xlink:href="#DejaVuSans-49"/>
      </g>
     </g>
    </g>
    <g id="xtick_8">
     <g id="line2d_13">
      <g>
       <use style="stroke:#000000;stroke-width:0.8;" x="401.205142" xlink:href="#m7441eea838" y="245.836875"/>
      </g>
     </g>
     <g id="text_16">
      <!-- 0 -->
      <g transform="translate(396.751392 263.474687)scale(0.14 -0.14)">
       <use xlink:href="#DejaVuSans-48"/>
      </g>
     </g>
    </g>
    <g id="xtick_9">
     <g id="line2d_14">
      <g>
       <use style="stroke:#000000;stroke-width:0.8;" x="441.78696" xlink:href="#m7441eea838" y="245.836875"/>
      </g>
     </g>
     <g id="text_17">
      <!-- 1 -->
      <g transform="translate(437.33321 263.474687)scale(0.14 -0.14)">
       <use xlink:href="#DejaVuSans-49"/>
      </g>
     </g>
    </g>
    <g id="xtick_10">
     <g id="line2d_15">
      <g>
       <use style="stroke:#000000;stroke-width:0.8;" x="482.368778" xlink:href="#m7441eea838" y="245.836875"/>
      </g>
     </g>
     <g id="text_18">
      <!-- 2 -->
      <g transform="translate(477.915028 263.474687)scale(0.14 -0.14)">
       <use xlink:href="#DejaVuSans-50"/>
      </g>
     </g>
    </g>
    <g id="text_19">
     <!-- $x_1$ -->
     <g transform="translate(391.575142 284.063437)scale(0.18 -0.18)">
      <use transform="translate(0 0.3125)" xlink:href="#DejaVuSans-Oblique-120"/>
      <use transform="translate(59.179688 -16.09375)scale(0.7)" xlink:href="#DejaVuSans-49"/>
     </g>
    </g>
   </g>
   <g id="matplotlib.axis_4"/>
   <g id="PathCollection_2">
    <g clip-path="url(#p441d61ca6b)">
     <use style="stroke:#000000;" x="438.135984" xlink:href="#m8116dff932" y="137.861481"/>
     <use style="stroke:#000000;" x="444.725475" xlink:href="#m8116dff932" y="126.379275"/>
     <use style="stroke:#000000;" x="453.593991" xlink:href="#m8116dff932" y="120.397329"/>
     <use style="stroke:#000000;" x="446.930691" xlink:href="#m8116dff932" y="135.039376"/>
     <use style="stroke:#000000;" x="441.617886" xlink:href="#m8116dff932" y="151.78266"/>
     <use style="stroke:#000000;" x="452.692403" xlink:href="#m8116dff932" y="135.769283"/>
     <use style="stroke:#000000;" x="451.8203" xlink:href="#m8116dff932" y="140.008315"/>
     <use style="stroke:#000000;" x="456.802727" xlink:href="#m8116dff932" y="136.51815"/>
     <use style="stroke:#000000;" x="440.764138" xlink:href="#m8116dff932" y="130.334123"/>
     <use style="stroke:#000000;" x="441.101224" xlink:href="#m8116dff932" y="129.422388"/>
     <use style="stroke:#000000;" x="436.477387" xlink:href="#m8116dff932" y="152.435207"/>
     <use style="stroke:#000000;" x="442.088946" xlink:href="#m8116dff932" y="128.077223"/>
     <use style="stroke:#000000;" x="443.300841" xlink:href="#m8116dff932" y="115.70739"/>
     <use style="stroke:#000000;" x="429.630157" xlink:href="#m8116dff932" y="141.483265"/>
     <use style="stroke:#000000;" x="458.514059" xlink:href="#m8116dff932" y="125.994678"/>
     <use style="stroke:#000000;" x="432.709708" xlink:href="#m8116dff932" y="132.436643"/>
     <use style="stroke:#000000;" x="436.148236" xlink:href="#m8116dff932" y="139.309988"/>
     <use style="stroke:#000000;" x="446.960433" xlink:href="#m8116dff932" y="132.390681"/>
     <use style="stroke:#000000;" x="446.859315" xlink:href="#m8116dff932" y="137.990877"/>
     <use style="stroke:#000000;" x="428.741567" xlink:href="#m8116dff932" y="134.981622"/>
     <use style="stroke:#000000;" x="449.33154" xlink:href="#m8116dff932" y="138.953403"/>
     <use style="stroke:#000000;" x="441.435659" xlink:href="#m8116dff932" y="124.893933"/>
     <use style="stroke:#000000;" x="436.523496" xlink:href="#m8116dff932" y="127.591301"/>
     <use style="stroke:#000000;" x="441.667471" xlink:href="#m8116dff932" y="143.575269"/>
     <use style="stroke:#000000;" x="435.982884" xlink:href="#m8116dff932" y="123.975764"/>
     <use style="stroke:#000000;" x="456.676631" xlink:href="#m8116dff932" y="149.052804"/>
     <use style="stroke:#000000;" x="448.804614" xlink:href="#m8116dff932" y="125.406882"/>
     <use style="stroke:#000000;" x="422.503259" xlink:href="#m8116dff932" y="132.085457"/>
     <use style="stroke:#000000;" x="450.897441" xlink:href="#m8116dff932" y="137.994277"/>
     <use style="stroke:#000000;" x="445.234235" xlink:href="#m8116dff932" y="136.478083"/>
     <use style="stroke:#000000;" x="447.816528" xlink:href="#m8116dff932" y="133.286865"/>
     <use style="stroke:#000000;" x="445.510483" xlink:href="#m8116dff932" y="145.466733"/>
     <use style="stroke:#000000;" x="436.901963" xlink:href="#m8116dff932" y="137.440971"/>
     <use style="stroke:#000000;" x="446.152871" xlink:href="#m8116dff932" y="134.498637"/>
     <use style="stroke:#000000;" x="452.372455" xlink:href="#m8116dff932" y="134.3628"/>
     <use style="stroke:#000000;" x="448.240748" xlink:href="#m8116dff932" y="144.458359"/>
     <use style="stroke:#000000;" x="449.938665" xlink:href="#m8116dff932" y="130.013973"/>
     <use style="stroke:#000000;" x="431.552777" xlink:href="#m8116dff932" y="150.513403"/>
     <use style="stroke:#000000;" x="440.704845" xlink:href="#m8116dff932" y="140.686659"/>
     <use style="stroke:#000000;" x="436.449256" xlink:href="#m8116dff932" y="140.584532"/>
     <use style="stroke:#000000;" x="437.610016" xlink:href="#m8116dff932" y="127.917117"/>
     <use style="stroke:#000000;" x="441.675521" xlink:href="#m8116dff932" y="140.114748"/>
     <use style="stroke:#000000;" x="448.727995" xlink:href="#m8116dff932" y="157.638912"/>
     <use style="stroke:#000000;" x="455.839656" xlink:href="#m8116dff932" y="132.721959"/>
     <use style="stroke:#000000;" x="436.6778" xlink:href="#m8116dff932" y="134.521834"/>
     <use style="stroke:#000000;" x="449.422794" xlink:href="#m8116dff932" y="129.576053"/>
     <use style="stroke:#000000;" x="433.36755" xlink:href="#m8116dff932" y="136.108693"/>
     <use style="stroke:#000000;" x="434.731032" xlink:href="#m8116dff932" y="134.109934"/>
     <use style="stroke:#000000;" x="449.825709" xlink:href="#m8116dff932" y="139.312392"/>
     <use style="stroke:#000000;" x="440.12832" xlink:href="#m8116dff932" y="143.37418"/>
     <use style="stroke:#000000;" x="435.125706" xlink:href="#m8116dff932" y="117.205103"/>
     <use style="stroke:#000000;" x="432.36135" xlink:href="#m8116dff932" y="124.899263"/>
     <use style="stroke:#000000;" x="443.97925" xlink:href="#m8116dff932" y="133.813725"/>
     <use style="stroke:#000000;" x="459.003623" xlink:href="#m8116dff932" y="145.490806"/>
     <use style="stroke:#000000;" x="460.546805" xlink:href="#m8116dff932" y="136.66274"/>
     <use style="stroke:#000000;" x="433.229938" xlink:href="#m8116dff932" y="145.720245"/>
     <use style="stroke:#000000;" x="427.618227" xlink:href="#m8116dff932" y="139.777307"/>
     <use style="stroke:#000000;" x="444.444911" xlink:href="#m8116dff932" y="138.212176"/>
     <use style="stroke:#000000;" x="436.068065" xlink:href="#m8116dff932" y="132.909494"/>
     <use style="stroke:#000000;" x="431.581714" xlink:href="#m8116dff932" y="139.476387"/>
     <use style="stroke:#000000;" x="443.11482" xlink:href="#m8116dff932" y="136.037396"/>
     <use style="stroke:#000000;" x="440.776085" xlink:href="#m8116dff932" y="143.729971"/>
     <use style="stroke:#000000;" x="446.389615" xlink:href="#m8116dff932" y="144.402753"/>
     <use style="stroke:#000000;" x="442.2139" xlink:href="#m8116dff932" y="135.243902"/>
     <use style="stroke:#000000;" x="442.888071" xlink:href="#m8116dff932" y="130.088537"/>
     <use style="stroke:#000000;" x="440.320879" xlink:href="#m8116dff932" y="146.766081"/>
     <use style="stroke:#000000;" x="438.216841" xlink:href="#m8116dff932" y="137.398066"/>
     <use style="stroke:#000000;" x="426.279056" xlink:href="#m8116dff932" y="123.696386"/>
     <use style="stroke:#000000;" x="443.549752" xlink:href="#m8116dff932" y="123.332024"/>
     <use style="stroke:#000000;" x="444.966181" xlink:href="#m8116dff932" y="128.172548"/>
     <use style="stroke:#000000;" x="435.199433" xlink:href="#m8116dff932" y="132.345793"/>
     <use style="stroke:#000000;" x="447.751247" xlink:href="#m8116dff932" y="122.004327"/>
     <use style="stroke:#000000;" x="449.470838" xlink:href="#m8116dff932" y="146.98044"/>
     <use style="stroke:#000000;" x="442.688491" xlink:href="#m8116dff932" y="144.099902"/>
     <use style="stroke:#000000;" x="444.455873" xlink:href="#m8116dff932" y="138.892227"/>
     <use style="stroke:#000000;" x="436.134172" xlink:href="#m8116dff932" y="146.462267"/>
     <use style="stroke:#000000;" x="427.198598" xlink:href="#m8116dff932" y="133.747448"/>
     <use style="stroke:#000000;" x="449.750594" xlink:href="#m8116dff932" y="148.838194"/>
     <use style="stroke:#000000;" x="437.949375" xlink:href="#m8116dff932" y="158.640885"/>
     <use style="stroke:#000000;" x="435.968632" xlink:href="#m8116dff932" y="134.363335"/>
     <use style="stroke:#000000;" x="433.362267" xlink:href="#m8116dff932" y="129.437009"/>
     <use style="stroke:#000000;" x="449.938003" xlink:href="#m8116dff932" y="144.780076"/>
     <use style="stroke:#000000;" x="441.387511" xlink:href="#m8116dff932" y="134.907944"/>
     <use style="stroke:#000000;" x="443.293869" xlink:href="#m8116dff932" y="149.402733"/>
     <use style="stroke:#000000;" x="435.750371" xlink:href="#m8116dff932" y="126.193072"/>
     <use style="stroke:#000000;" x="443.594365" xlink:href="#m8116dff932" y="138.182639"/>
     <use style="stroke:#000000;" x="437.359509" xlink:href="#m8116dff932" y="138.964272"/>
     <use style="stroke:#000000;" x="422.552323" xlink:href="#m8116dff932" y="147.413708"/>
     <use style="stroke:#000000;" x="444.114344" xlink:href="#m8116dff932" y="142.409255"/>
     <use style="stroke:#000000;" x="439.309837" xlink:href="#m8116dff932" y="134.704332"/>
     <use style="stroke:#000000;" x="434.993491" xlink:href="#m8116dff932" y="148.013444"/>
     <use style="stroke:#000000;" x="439.666269" xlink:href="#m8116dff932" y="141.317233"/>
     <use style="stroke:#000000;" x="428.996559" xlink:href="#m8116dff932" y="141.455175"/>
     <use style="stroke:#000000;" x="443.469924" xlink:href="#m8116dff932" y="130.617123"/>
     <use style="stroke:#000000;" x="450.947879" xlink:href="#m8116dff932" y="142.893099"/>
     <use style="stroke:#000000;" x="435.95678" xlink:href="#m8116dff932" y="141.540563"/>
     <use style="stroke:#000000;" x="450.074127" xlink:href="#m8116dff932" y="130.556469"/>
     <use style="stroke:#000000;" x="441.34702" xlink:href="#m8116dff932" y="146.779282"/>
     <use style="stroke:#000000;" x="432.972309" xlink:href="#m8116dff932" y="148.61798"/>
     <use style="stroke:#000000;" x="447.224994" xlink:href="#m8116dff932" y="152.032148"/>
    </g>
   </g>
   <g id="LineCollection_6">
    <path clip-path="url(#p441d61ca6b)" d="M 349.442619 186.185246 
L 353.583619 187.158399 
L 357.724624 187.496153 
L 361.865624 187.542883 
L 366.006626 187.340437 
L 370.147628 186.696804 
L 374.288631 184.851174 
L 375.885649 183.711159 
L 378.429633 183.342954 
L 382.570634 181.543602 
L 385.088397 179.27361 
L 386.711635 178.621859 
L 390.852638 174.619042 
L 394.993639 170.163366 
L 398.683515 165.960956 
L 399.134641 164.912482 
L 403.275643 164.912482 
L 403.726769 165.960956 
L 407.588681 170.398507 
L 411.849659 174.836059 
L 415.698649 178.621859 
L 417.321887 179.27361 
L 419.83965 181.543602 
L 423.980651 183.342954 
L 426.524635 183.711159 
L 428.121653 184.851174 
L 432.262656 186.696804 
L 436.403658 187.340437 
L 440.54466 187.542883 
L 444.68566 187.496153 
L 448.826665 187.158399 
L 452.967665 186.185246 
L 456.819009 183.711159 
L 457.108669 183.678886 
L 461.249669 182.910794 
L 465.736073 179.27361 
L 469.531674 177.534957 
L 472.221025 174.836059 
L 473.672674 173.614532 
L 476.652264 170.398507 
L 477.813679 168.609571 
L 480.093591 165.960956 
L 481.954678 161.275814 
L 485.015853 157.085854 
L 485.917031 152.648304 
L 486.095678 150.508704 
L 487.324552 148.210752 
L 488.602697 143.773202 
L 489.031549 139.335651 
L 489.031549 134.898099 
L 488.602697 130.460548 
L 487.324552 126.022998 
L 486.095678 123.725046 
L 485.917031 121.585446 
L 485.015853 117.147896 
L 481.892667 112.710346 
L 480.093591 108.272794 
L 477.813679 105.624179 
L 476.652264 103.835243 
L 473.672674 100.619218 
L 472.221025 99.397691 
L 469.531674 96.698793 
L 465.736073 94.96014 
L 465.390669 94.639993 
L 461.249669 91.322956 
L 456.819009 90.522591 
L 452.967665 88.048504 
L 448.826665 87.075351 
L 444.68566 86.737597 
L 440.54466 86.690867 
L 436.403658 86.893313 
L 432.262656 87.536946 
L 428.121653 89.382576 
L 426.524635 90.522591 
L 423.980651 90.890796 
L 419.83965 92.690148 
L 417.321887 94.96014 
L 415.698649 95.611891 
L 411.557647 99.614708 
L 407.416645 104.070384 
L 403.726769 108.272794 
L 403.275643 109.321268 
L 399.134641 109.321268 
L 398.683515 108.272794 
L 394.821603 103.835243 
L 390.560625 99.397691 
L 386.711635 95.611891 
L 385.088397 94.96014 
L 382.570634 92.690148 
L 378.429633 90.890796 
L 375.885649 90.522591 
L 374.288631 89.382576 
L 370.147628 87.536946 
L 366.006626 86.893313 
L 361.865624 86.690867 
L 357.724624 86.737597 
L 353.583619 87.075351 
L 349.442619 88.048504 
L 345.591275 90.522591 
L 345.301615 90.554864 
L 341.160615 91.322956 
L 336.674211 94.96014 
L 332.87861 96.698793 
L 330.189259 99.397691 
L 328.73761 100.619218 
L 325.758021 103.835243 
L 324.596606 105.624179 
L 322.316694 108.272794 
L 320.455606 112.957936 
L 317.394431 117.147896 
L 316.493253 121.585446 
L 316.314606 123.725046 
L 315.085732 126.022998 
L 313.807587 130.460548 
L 313.378735 134.898099 
L 313.378735 139.335651 
L 313.807587 143.773202 
L 315.085732 148.210752 
L 316.314606 150.508704 
L 316.493253 152.648304 
L 317.394431 157.085854 
L 320.517617 161.523404 
L 322.316694 165.960956 
L 324.596606 168.609571 
L 325.758021 170.398507 
L 328.73761 173.614532 
L 330.189259 174.836059 
L 332.87861 177.534957 
L 336.674211 179.27361 
L 337.019615 179.593757 
L 341.160615 182.910794 
L 345.591275 183.711159 
L 349.442619 186.185246 
L 349.442619 186.185246 
" style="fill:none;stroke:#000000;stroke-width:1.5;"/>
   </g>
   <g id="LineCollection_7">
    <path clip-path="url(#p441d61ca6b)" d="M 349.442619 173.130636 
L 353.583619 174.149613 
L 357.724624 174.50327 
L 361.865624 174.552201 
L 366.006626 174.340222 
L 370.147628 173.666283 
L 374.288631 171.733749 
L 376.025142 170.398507 
L 378.429633 169.559186 
L 382.375681 165.960956 
L 382.570634 165.822968 
L 386.640598 161.523404 
L 386.711635 161.423068 
L 390.262427 157.085854 
L 390.852638 155.40471 
L 392.768433 152.648304 
L 394.313911 148.210752 
L 394.843891 143.773202 
L 394.993639 140.203775 
L 395.202027 139.335651 
L 395.202027 134.898099 
L 394.993639 134.029975 
L 394.843891 130.460548 
L 394.313911 126.022998 
L 392.768433 121.585446 
L 390.852638 118.82904 
L 390.262427 117.147896 
L 386.711635 112.810682 
L 386.640598 112.710346 
L 382.570634 108.410782 
L 382.375681 108.272794 
L 378.429633 104.674564 
L 376.025142 103.835243 
L 374.288631 102.500001 
L 370.147628 100.567467 
L 366.006626 99.893528 
L 361.865624 99.681549 
L 357.724624 99.73048 
L 353.583619 100.084137 
L 349.442619 101.103114 
L 345.494253 103.835243 
L 345.301615 103.887006 
L 341.160615 105.687717 
L 338.434002 108.272794 
L 337.019615 109.427905 
L 333.997225 112.710346 
L 332.87861 114.512902 
L 330.764312 117.147896 
L 328.967346 121.585446 
L 328.73761 122.732819 
L 326.850164 126.022998 
L 325.710074 130.460548 
L 325.327544 134.898099 
L 325.327544 139.335651 
L 325.710074 143.773202 
L 326.850164 148.210752 
L 328.73761 151.500931 
L 328.967346 152.648304 
L 330.764312 157.085854 
L 332.87861 159.720848 
L 333.997225 161.523404 
L 337.019615 164.805845 
L 338.434002 165.960956 
L 341.160615 168.546033 
L 345.301615 170.346744 
L 345.494253 170.398507 
L 349.442619 173.130636 
" style="fill:none;stroke:#000000;stroke-width:1.5;"/>
    <path clip-path="url(#p441d61ca6b)" d="M 428.121653 171.733749 
L 432.262656 173.666283 
L 436.403658 174.340222 
L 440.54466 174.552201 
L 444.68566 174.50327 
L 448.826665 174.149613 
L 452.967665 173.130636 
L 456.916031 170.398507 
L 457.108669 170.346744 
L 461.249669 168.546033 
L 463.976282 165.960956 
L 465.390669 164.805845 
L 468.413059 161.523404 
L 469.531674 159.720848 
L 471.645972 157.085854 
L 473.442938 152.648304 
L 473.672674 151.500931 
L 475.56012 148.210752 
L 476.70021 143.773202 
L 477.08274 139.335651 
L 477.08274 134.898099 
L 476.70021 130.460548 
L 475.56012 126.022998 
L 473.672674 122.732819 
L 473.442938 121.585446 
L 471.645972 117.147896 
L 469.531674 114.512902 
L 468.413059 112.710346 
L 465.390669 109.427905 
L 463.976282 108.272794 
L 461.249669 105.687717 
L 457.108669 103.887006 
L 456.916031 103.835243 
L 452.967665 101.103114 
L 448.826665 100.084137 
L 444.68566 99.73048 
L 440.54466 99.681549 
L 436.403658 99.893528 
L 432.262656 100.567467 
L 428.121653 102.500001 
L 426.385142 103.835243 
L 423.980651 104.674564 
L 420.034603 108.272794 
L 419.83965 108.410782 
L 415.769686 112.710346 
L 415.698649 112.810682 
L 412.147857 117.147896 
L 411.557647 118.82904 
L 409.641851 121.585446 
L 408.096374 126.022998 
L 407.566394 130.460548 
L 407.416645 134.029975 
L 407.208257 134.898099 
L 407.208257 139.335651 
L 407.416645 140.203775 
L 407.566394 143.773202 
L 408.096374 148.210752 
L 409.641851 152.648304 
L 411.557647 155.40471 
L 412.147857 157.085854 
L 415.698649 161.423068 
L 415.769686 161.523404 
L 419.83965 165.822968 
L 420.034603 165.960956 
L 423.980651 169.559186 
L 426.385142 170.398507 
L 428.121653 171.733749 
" style="fill:none;stroke:#000000;stroke-width:1.5;"/>
   </g>
   <g id="LineCollection_8">
    <path clip-path="url(#p441d61ca6b)" d="M 357.724624 161.761446 
L 361.865624 162.034235 
L 363.869461 161.523404 
L 366.006626 161.325187 
L 370.147628 160.215203 
L 374.25472 157.085854 
L 374.288631 157.064584 
L 378.429633 152.939053 
L 378.67571 152.648304 
L 381.688766 148.210752 
L 382.570634 144.767876 
L 383.054185 143.773202 
L 384.1616 139.335651 
L 384.1616 134.898099 
L 383.054185 130.460548 
L 382.570634 129.465874 
L 381.688766 126.022998 
L 378.67571 121.585446 
L 378.429633 121.294697 
L 374.288631 117.169166 
L 374.25472 117.147896 
L 370.147628 114.018547 
L 366.006626 112.908563 
L 363.869461 112.710346 
L 361.865624 112.199515 
L 357.724624 112.472304 
L 357.070323 112.710346 
L 353.583619 113.2225 
L 349.442619 114.900762 
L 346.742304 117.147896 
L 345.301615 118.243158 
L 342.26669 121.585446 
L 341.160615 123.572544 
L 339.489531 126.022998 
L 337.901823 130.460548 
L 337.369105 134.898099 
L 337.369105 139.335651 
L 337.901823 143.773202 
L 339.489531 148.210752 
L 341.160615 150.661206 
L 342.26669 152.648304 
L 345.301615 155.990592 
L 346.742304 157.085854 
L 349.442619 159.332988 
L 353.583619 161.01125 
L 357.070323 161.523404 
L 357.724624 161.761446 
" style="fill:none;stroke:#000000;stroke-width:1.5;"/>
    <path clip-path="url(#p441d61ca6b)" d="M 440.54466 162.034235 
L 444.68566 161.761446 
L 445.339961 161.523404 
L 448.826665 161.01125 
L 452.967665 159.332988 
L 455.66798 157.085854 
L 457.108669 155.990592 
L 460.143594 152.648304 
L 461.249669 150.661206 
L 462.920753 148.210752 
L 464.508461 143.773202 
L 465.041179 139.335651 
L 465.041179 134.898099 
L 464.508461 130.460548 
L 462.920753 126.022998 
L 461.249669 123.572544 
L 460.143594 121.585446 
L 457.108669 118.243158 
L 455.66798 117.147896 
L 452.967665 114.900762 
L 448.826665 113.2225 
L 445.339961 112.710346 
L 444.68566 112.472304 
L 440.54466 112.199515 
L 438.540823 112.710346 
L 436.403658 112.908563 
L 432.262656 114.018547 
L 428.155564 117.147896 
L 428.121653 117.169166 
L 423.980651 121.294697 
L 423.734574 121.585446 
L 420.721518 126.022998 
L 419.83965 129.465874 
L 419.356099 130.460548 
L 418.248685 134.898099 
L 418.248685 139.335651 
L 419.356099 143.773202 
L 419.83965 144.767876 
L 420.721518 148.210752 
L 423.734574 152.648304 
L 423.980651 152.939053 
L 428.121653 157.064584 
L 428.155564 157.085854 
L 432.262656 160.215203 
L 436.403658 161.325187 
L 438.540823 161.523404 
L 440.54466 162.034235 
" style="fill:none;stroke:#000000;stroke-width:1.5;"/>
   </g>
   <g id="LineCollection_9">
    <path clip-path="url(#p441d61ca6b)" d="M 357.724624 149.470026 
L 361.865624 149.821473 
L 366.006626 148.298932 
L 366.12585 148.210752 
L 370.147628 144.439674 
L 370.635336 143.773202 
L 372.35734 139.335651 
L 372.35734 134.898099 
L 370.635336 130.460548 
L 370.147628 129.794076 
L 366.12585 126.022998 
L 366.006626 125.934818 
L 361.865624 124.412277 
L 357.724624 124.763724 
L 355.350559 126.022998 
L 353.583619 127.039389 
L 350.611798 130.460548 
L 349.442619 133.7179 
L 348.996075 134.898099 
L 348.996075 139.335651 
L 349.442619 140.51585 
L 350.611798 143.773202 
L 353.583619 147.194361 
L 355.350559 148.210752 
L 357.724624 149.470026 
" style="fill:none;stroke:#000000;stroke-width:1.5;"/>
    <path clip-path="url(#p441d61ca6b)" d="M 436.403658 148.298932 
L 440.54466 149.821473 
L 444.68566 149.470026 
L 447.059725 148.210752 
L 448.826665 147.194361 
L 451.798486 143.773202 
L 452.967665 140.51585 
L 453.414209 139.335651 
L 453.414209 134.898099 
L 452.967665 133.7179 
L 451.798486 130.460548 
L 448.826665 127.039389 
L 447.059725 126.022998 
L 444.68566 124.763724 
L 440.54466 124.412277 
L 436.403658 125.934818 
L 436.284434 126.022998 
L 432.262656 129.794076 
L 431.774948 130.460548 
L 430.052945 134.898099 
L 430.052945 139.335651 
L 431.774948 143.773202 
L 432.262656 144.439674 
L 436.284434 148.210752 
L 436.403658 148.298932 
" style="fill:none;stroke:#000000;stroke-width:1.5;"/>
   </g>
   <g id="LineCollection_10"/>
   <g id="patch_8">
    <path d="M 299.750597 245.836875 
L 299.750597 28.396875 
" style="fill:none;stroke:#000000;stroke-linecap:square;stroke-linejoin:miter;stroke-width:0.8;"/>
   </g>
   <g id="patch_9">
    <path d="M 502.659687 245.836875 
L 502.659687 28.396875 
" style="fill:none;stroke:#000000;stroke-linecap:square;stroke-linejoin:miter;stroke-width:0.8;"/>
   </g>
   <g id="patch_10">
    <path d="M 299.750597 245.836875 
L 502.659688 245.836875 
" style="fill:none;stroke:#000000;stroke-linecap:square;stroke-linejoin:miter;stroke-width:0.8;"/>
   </g>
   <g id="patch_11">
    <path d="M 299.750597 28.396875 
L 502.659688 28.396875 
" style="fill:none;stroke:#000000;stroke-linecap:square;stroke-linejoin:miter;stroke-width:0.8;"/>
   </g>
   <g id="text_20">
    <!-- Iteration 100 -->
    <g transform="translate(336.52233 22.396875)scale(0.2 -0.2)">
     <use xlink:href="#DejaVuSans-73"/>
     <use x="29.492188" xlink:href="#DejaVuSans-116"/>
     <use x="68.701172" xlink:href="#DejaVuSans-101"/>
     <use x="130.224609" xlink:href="#DejaVuSans-114"/>
     <use x="171.337891" xlink:href="#DejaVuSans-97"/>
     <use x="232.617188" xlink:href="#DejaVuSans-116"/>
     <use x="271.826172" xlink:href="#DejaVuSans-105"/>
     <use x="299.609375" xlink:href="#DejaVuSans-111"/>
     <use x="360.791016" xlink:href="#DejaVuSans-110"/>
     <use x="424.169922" xlink:href="#DejaVuSans-32"/>
     <use x="455.957031" xlink:href="#DejaVuSans-49"/>
     <use x="519.580078" xlink:href="#DejaVuSans-48"/>
     <use x="583.203125" xlink:href="#DejaVuSans-48"/>
    </g>
   </g>
  </g>
 </g>
 <defs>
  <clipPath id="pa75716e7a1">
   <rect height="217.44" width="202.909091" x="56.259687" y="28.396875"/>
  </clipPath>
  <clipPath id="p441d61ca6b">
   <rect height="217.44" width="202.909091" x="299.750597" y="28.396875"/>
  </clipPath>
 </defs>
</svg>
