<?xml version="1.0" encoding="utf-8" standalone="no"?>
<!DOCTYPE svg PUBLIC "-//W3C//DTD SVG 1.1//EN"
  "http://www.w3.org/Graphics/SVG/1.1/DTD/svg11.dtd">
<!-- Created with matplotlib (https://matplotlib.org/) -->
<svg height="217.706563pt" version="1.1" viewBox="0 0 488.439062 217.706563" width="488.439062pt" xmlns="http://www.w3.org/2000/svg" xmlns:xlink="http://www.w3.org/1999/xlink">
 <defs>
  <style type="text/css">
*{stroke-linecap:butt;stroke-linejoin:round;}
  </style>
 </defs>
 <g id="figure_1">
  <g id="patch_1">
   <path d="M 0 217.706563 
L 488.439062 217.706563 
L 488.439062 -0 
L 0 -0 
z
" style="fill:none;"/>
  </g>
  <g id="axes_1">
   <g id="patch_2">
    <path d="M 34.839063 189.957188 
L 481.239062 189.957188 
L 481.239062 26.877187 
L 34.839063 26.877187 
z
" style="fill:#ffffff;"/>
   </g>
   <g id="PolyCollection_1">
    <defs>
     <path d="M 34.839063 -165.42957 
L 34.839063 -101.924859 
L 39.348158 -101.907718 
L 43.85724 -101.88129 
L 48.366336 -101.841832 
L 52.875431 -101.784987 
L 57.384513 -101.70638 
L 61.893609 -101.602846 
L 66.402704 -101.474566 
L 70.911786 -101.328265 
L 75.420882 -101.181414 
L 79.929964 -101.066982 
L 84.43906 -101.037712 
L 88.948155 -101.168431 
L 93.45725 -101.554688 
L 97.966333 -102.306294 
L 102.475428 -103.535187 
L 106.98451 -105.338258 
L 111.493606 -107.77732 
L 116.002701 -110.859392 
L 120.511797 -114.521383 
L 125.020879 -118.622796 
L 129.529974 -122.948633 
L 134.039057 -127.220883 
L 138.548152 -131.112283 
L 143.057248 -134.265409 
L 147.56633 -136.438488 
L 152.075425 -137.852444 
L 156.584521 -138.959469 
L 161.093603 -139.963918 
L 165.602698 -140.896338 
L 170.111794 -141.795616 
L 174.620876 -142.779215 
L 179.129971 -143.99288 
L 183.639067 -145.518105 
L 188.148149 -147.326473 
L 192.657245 -149.298349 
L 197.16634 -151.262485 
L 201.675422 -153.004125 
L 206.184518 -154.24961 
L 210.693613 -154.67856 
L 215.202695 -153.991412 
L 219.711791 -152.013912 
L 224.220886 -148.768739 
L 228.729969 -144.459081 
L 233.239064 -139.400932 
L 237.748159 -133.965703 
L 242.257242 -128.559105 
L 246.766337 -123.630338 
L 251.275433 -119.654137 
L 255.784515 -117.037586 
L 260.293597 -116.008982 
L 264.802692 -116.565413 
L 269.311788 -118.498334 
L 273.820883 -121.476008 
L 278.329979 -125.12134 
L 282.839074 -129.035112 
L 287.348143 -132.797627 
L 291.857239 -136.003066 
L 296.366334 -138.333588 
L 300.87543 -139.634375 
L 305.384525 -139.926784 
L 309.893621 -139.348718 
L 314.402689 -138.080165 
L 318.911785 -136.305155 
L 323.42088 -134.219909 
L 327.929976 -132.047721 
L 332.439071 -130.003859 
L 336.94814 -128.224535 
L 341.457236 -126.728816 
L 345.966331 -125.458185 
L 350.475427 -124.378353 
L 354.984522 -123.536024 
L 359.493618 -122.980488 
L 364.002687 -122.571558 
L 368.511782 -121.796448 
L 373.020877 -120.188162 
L 377.529973 -117.860349 
L 382.039068 -115.124613 
L 386.548164 -112.254441 
L 391.057233 -109.47693 
L 395.566328 -106.971201 
L 400.075424 -104.860364 
L 404.584519 -103.207248 
L 409.093615 -102.017944 
L 413.60271 -101.252446 
L 418.111779 -100.839749 
L 422.620875 -100.694125 
L 427.12997 -100.729658 
L 431.639065 -100.870945 
L 436.148161 -101.059116 
L 440.657256 -101.253452 
L 445.166325 -101.429679 
L 449.675421 -101.576417 
L 454.184516 -101.691091 
L 458.693612 -101.776278 
L 463.202707 -101.836929 
L 467.711803 -101.878549 
L 472.220872 -101.906188 
L 476.729967 -101.924002 
L 481.239062 -101.935167 
L 481.239062 -165.440006 
L 481.239062 -165.440006 
L 476.729967 -165.428651 
L 472.220872 -165.41033 
L 467.711803 -165.38139 
L 463.202707 -165.336587 
L 458.693612 -165.268515 
L 454.184516 -165.166836 
L 449.675421 -165.017253 
L 445.166325 -164.800182 
L 440.657256 -164.48915 
L 436.148161 -164.049136 
L 431.639065 -163.435367 
L 427.12997 -162.593341 
L 422.620875 -161.461103 
L 418.111779 -159.974621 
L 413.60271 -158.076624 
L 409.093615 -155.728269 
L 404.584519 -152.922224 
L 400.075424 -149.694538 
L 395.566328 -146.132689 
L 391.057233 -142.377365 
L 386.548164 -138.616927 
L 382.039068 -135.075799 
L 377.529973 -132.002958 
L 373.020877 -129.67211 
L 368.511782 -128.380856 
L 364.002687 -128.226559 
L 359.493618 -128.737279 
L 354.984522 -129.41799 
L 350.475427 -130.173588 
L 345.966331 -131.120155 
L 341.457236 -132.375378 
L 336.94814 -133.952114 
L 332.439071 -135.781217 
L 327.929976 -137.781027 
L 323.42088 -139.874686 
L 318.911785 -141.948542 
L 314.402689 -143.801589 
L 309.893621 -145.155973 
L 305.384525 -145.738342 
L 300.87543 -145.365609 
L 296.366334 -143.982842 
L 291.857239 -141.648363 
L 287.348143 -138.504618 
L 282.839074 -134.78426 
L 278.329979 -130.83794 
L 273.820883 -127.126148 
L 269.311788 -124.146278 
L 264.802692 -122.317923 
L 260.293597 -121.897852 
L 255.784515 -122.974167 
L 251.275433 -125.502751 
L 246.766337 -129.331956 
L 242.257242 -134.195081 
L 237.748159 -139.683995 
L 233.239064 -145.268496 
L 228.729969 -150.401912 
L 224.220886 -154.647302 
L 219.711791 -157.749317 
L 215.202695 -159.632192 
L 210.693613 -160.342968 
L 206.184518 -160.001214 
L 201.675422 -158.799593 
L 197.16634 -157.01378 
L 192.657245 -154.968934 
L 188.148149 -152.962041 
L 183.639067 -151.18218 
L 179.129971 -149.688711 
L 174.620876 -148.457135 
L 170.111794 -147.434707 
L 165.602698 -146.551768 
L 161.093603 -145.692814 
L 156.584521 -144.703148 
L 152.075425 -143.499261 
L 147.56633 -142.268934 
L 143.057248 -141.540734 
L 138.548152 -141.682301 
L 134.039057 -142.635614 
L 129.529974 -144.228154 
L 125.020879 -146.287621 
L 120.511797 -148.639825 
L 116.002701 -151.113099 
L 111.493606 -153.5519 
L 106.98451 -155.830503 
L 102.475428 -157.86159 
L 97.966333 -159.598109 
L 93.45725 -161.028954 
L 88.948155 -162.17055 
L 84.43906 -163.056698 
L 79.929964 -163.729076 
L 75.420882 -164.229879 
L 70.911786 -164.597226 
L 66.402704 -164.863072 
L 61.893609 -165.052949 
L 57.384513 -165.186664 
L 52.875431 -165.279341 
L 48.366336 -165.34243 
L 43.85724 -165.384528 
L 39.348158 -165.41202 
L 34.839063 -165.42957 
z
" id="m2a911eee65" style="stroke:#808080;stroke-opacity:0.3;"/>
    </defs>
    <g clip-path="url(#pc7a879ad58)">
     <use style="fill:#808080;fill-opacity:0.3;stroke:#808080;stroke-opacity:0.3;" x="0" xlink:href="#m2a911eee65" y="217.706563"/>
    </g>
   </g>
   <g id="line2d_1">
    <path clip-path="url(#pc7a879ad58)" d="M 34.839063 84.029348 
L 39.348158 84.046693 
L 43.85724 84.073653 
L 48.366336 84.114432 
L 52.875431 84.174398 
L 57.384513 84.260041 
L 61.893609 84.378665 
L 66.402704 84.537743 
L 70.911786 84.743817 
L 75.420882 85.000916 
L 79.929964 85.308533 
L 84.43906 85.659357 
L 88.948155 86.037072 
L 93.45725 86.414742 
L 97.966333 86.754361 
L 102.475428 87.008174 
L 106.98451 87.122182 
L 111.493606 87.041953 
L 116.002701 86.720317 
L 120.511797 86.125959 
L 125.020879 85.251354 
L 129.529974 84.118169 
L 134.039057 82.778314 
L 138.548152 81.309271 
L 143.057248 79.803491 
L 147.56633 78.352852 
L 152.075425 77.03071 
L 156.584521 75.875254 
L 161.093603 74.878196 
L 165.602698 73.982509 
L 170.111794 73.091401 
L 174.620876 72.088387 
L 179.129971 70.865767 
L 183.639067 69.35642 
L 188.148149 67.562306 
L 192.657245 65.572921 
L 197.16634 63.56843 
L 201.675422 61.804703 
L 206.184518 60.58115 
L 210.693613 60.195798 
L 215.202695 60.894761 
L 219.711791 62.824948 
L 224.220886 65.998542 
L 228.729969 70.276066 
L 233.239064 75.371849 
L 237.748159 80.881714 
L 242.257242 86.329469 
L 246.766337 91.225416 
L 251.275433 95.128119 
L 255.784515 97.700686 
L 260.293597 98.753145 
L 264.802692 98.264894 
L 269.311788 96.384257 
L 273.820883 93.405484 
L 278.329979 89.726922 
L 282.839074 85.796876 
L 287.348143 82.05544 
L 291.857239 78.880848 
L 296.366334 76.548347 
L 300.87543 75.206571 
L 305.384525 74.874 
L 309.893621 75.454217 
L 314.402689 76.765685 
L 318.911785 78.579714 
L 323.42088 80.659265 
L 327.929976 82.792188 
L 332.439071 84.814024 
L 336.94814 86.618238 
L 341.457236 88.154466 
L 345.966331 89.417393 
L 350.475427 90.430592 
L 354.984522 91.229556 
L 359.493618 91.847679 
L 364.002687 92.307504 
L 368.511782 92.617911 
L 373.020877 92.776427 
L 377.529973 92.774909 
L 382.039068 92.606357 
L 386.548164 92.270879 
L 391.057233 91.779415 
L 395.566328 91.154617 
L 400.075424 90.429111 
L 404.584519 89.641827 
L 409.093615 88.833456 
L 413.60271 88.042027 
L 418.111779 87.299377 
L 422.620875 86.628949 
L 427.12997 86.045063 
L 431.639065 85.553407 
L 436.148161 85.152436 
L 440.657256 84.835262 
L 445.166325 84.591632 
L 449.675421 84.409727 
L 454.184516 84.277599 
L 458.693612 84.184166 
L 463.202707 84.119805 
L 467.711803 84.076593 
L 472.220872 84.048303 
L 476.729967 84.030236 
L 481.239062 84.018976 
" style="fill:none;stroke:#000000;stroke-linecap:square;stroke-width:1.5;"/>
   </g>
   <g id="line2d_2">
    <path clip-path="url(#pc7a879ad58)" d="M 34.839063 108.564943 
L 39.348153 108.575645 
L 43.857244 108.594504 
L 48.366335 108.626665 
L 52.875426 108.679671 
L 57.384517 108.763937 
L 61.893608 108.892831 
L 66.402699 109.081888 
L 70.91179 109.346598 
L 75.420881 109.698188 
L 79.929972 110.137161 
L 84.439063 110.645019 
L 88.948153 111.175586 
L 93.457244 111.648396 
L 97.966335 111.947104 
L 102.475426 111.925623 
L 106.984517 111.423373 
L 111.493608 110.288993 
L 116.002699 108.409565 
L 120.51179 105.740401 
L 125.020881 102.329306 
L 129.529972 98.329675 
L 134.039062 93.999026 
L 138.548153 89.682602 
L 143.057244 85.774705 
L 147.566335 82.602871 
L 152.075426 80.21721 
L 156.584517 78.433935 
L 161.093608 77.109045 
L 165.602699 76.161934 
L 170.11179 75.475666 
L 174.620881 74.857554 
L 179.129972 74.075414 
L 183.639063 72.932056 
L 188.148153 71.33317 
L 192.657244 69.32524 
L 197.166335 67.100937 
L 201.675426 64.975255 
L 206.184517 63.33567 
L 210.693608 62.57313 
L 215.202699 63.007136 
L 219.71179 64.822108 
L 224.220881 68.029463 
L 228.729972 72.461377 
L 233.239063 77.79299 
L 237.748153 83.583858 
L 242.257244 89.327981 
L 246.766335 94.50577 
L 251.275426 98.638669 
L 255.784517 101.348498 
L 260.293608 102.413832 
L 264.802699 101.806952 
L 269.31179 99.698106 
L 273.820881 96.425383 
L 278.329972 92.440756 
L 282.839063 88.247568 
L 287.348153 84.33827 
L 291.857244 81.133744 
L 296.366335 78.927731 
L 300.875426 77.84763 
L 305.384517 77.846471 
L 309.893608 78.733987 
L 314.402699 80.238596 
L 318.91179 82.07842 
L 323.420881 84.01772 
L 327.929972 85.894182 
L 332.439063 87.618376 
L 336.948153 89.159981 
L 341.457244 90.531866 
L 345.966335 91.769069 
L 350.475426 92.898579 
L 354.984517 93.913444 
L 359.493608 94.785412 
L 364.002699 95.548232 
L 368.51179 96.399258 
L 373.020881 97.57786 
L 377.529972 99.100087 
L 382.039062 100.819634 
L 386.548153 102.577307 
L 391.057244 104.24056 
L 395.566335 105.708255 
L 400.075426 106.913994 
L 404.584517 107.828242 
L 409.093608 108.456483 
L 413.602699 108.832688 
L 418.11179 109.009235 
L 422.620881 109.045481 
L 427.129972 108.997449 
L 431.639063 108.910586 
L 436.148153 108.816493 
L 440.657244 108.733302 
L 445.166335 108.668476 
L 449.675426 108.622531 
L 454.184517 108.592431 
L 458.693608 108.574036 
L 463.202699 108.563497 
L 467.71179 108.557825 
L 472.220881 108.554963 
L 476.729972 108.553616 
L 481.239062 108.553034 
" style="fill:none;stroke:#800080;stroke-dasharray:5.55,2.4;stroke-dashoffset:0;stroke-width:1.5;"/>
   </g>
   <g id="line2d_3">
    <path clip-path="url(#pc7a879ad58)" d="M 34.839063 81.249393 
L 39.348153 81.260123 
L 43.857244 81.279071 
L 48.366335 81.311496 
L 52.875426 81.365239 
L 57.384517 81.451448 
L 61.893608 81.585164 
L 66.402699 81.785499 
L 70.91179 82.075028 
L 75.420881 82.477989 
L 79.929972 83.016924 
L 84.439063 83.707594 
L 88.948153 84.552411 
L 93.457244 85.533177 
L 97.966335 86.60456 
L 102.475426 87.690274 
L 106.984517 88.684123 
L 111.493608 89.457674 
L 116.002699 89.875237 
L 120.51179 89.815087 
L 125.020881 89.193777 
L 129.529972 87.988538 
L 134.039062 86.251837 
L 138.548153 84.112685 
L 143.057244 81.761567 
L 147.566335 79.419585 
L 152.075426 77.296742 
L 156.584517 75.548056 
L 161.093608 74.238129 
L 165.602699 73.324005 
L 170.11179 72.662613 
L 174.620881 72.04333 
L 179.129972 71.239859 
L 183.639063 70.070298 
L 188.148153 68.45152 
L 192.657244 66.434715 
L 197.166335 64.212961 
L 201.675426 62.09801 
L 206.184517 60.470421 
L 210.693608 59.713034 
L 215.202699 60.141058 
L 219.71179 61.94222 
L 224.220881 65.13762 
L 228.729972 69.569245 
L 233.239063 74.914771 
L 237.748153 80.725727 
L 242.257244 86.482097 
L 246.766335 91.655206 
L 251.275426 95.77096 
L 255.784517 98.466379 
L 260.293608 99.533446 
L 264.802699 98.945208 
L 269.31179 96.860189 
L 273.820881 93.602924 
L 278.329972 89.621272 
L 282.839063 85.425009 
L 287.348153 81.514329 
L 291.857244 78.310063 
L 296.366335 76.098373 
L 300.875426 75.000562 
L 305.384517 74.973613 
L 309.893608 75.840237 
L 314.402699 77.340428 
L 318.91179 79.191751 
L 323.420881 81.144241 
L 327.929972 83.018166 
L 332.439063 84.71827 
L 336.948153 86.224745 
L 341.457244 87.567131 
L 345.966335 88.790977 
L 350.475426 89.927659 
L 354.984517 90.975334 
L 359.493608 91.894766 
L 364.002699 92.619038 
L 368.51179 93.072426 
L 373.020881 93.191868 
L 377.529972 92.944699 
L 382.039062 92.338284 
L 386.548153 91.419991 
L 391.057244 90.26869 
L 395.566335 88.980872 
L 400.075426 87.65523 
L 404.584517 86.379182 
L 409.093608 85.219637 
L 413.602699 84.218891 
L 418.11179 83.395203 
L 422.620881 82.746794 
L 427.129972 82.257617 
L 431.639063 81.903441 
L 436.148153 81.657113 
L 440.657244 81.492464 
L 445.166335 81.386685 
L 449.675426 81.321386 
L 454.184517 81.282683 
L 458.693608 81.26069 
L 463.202699 81.248733 
L 467.71179 81.242535 
L 472.220881 81.239489 
L 476.729972 81.238081 
L 481.239062 81.237479 
" style="fill:none;stroke:#800080;stroke-linecap:square;stroke-width:1.5;"/>
   </g>
   <g id="line2d_4">
    <path clip-path="url(#pc7a879ad58)" d="M 34.839063 53.933843 
L 39.348153 53.944602 
L 43.857244 53.963638 
L 48.366335 53.996328 
L 52.875426 54.050808 
L 57.384517 54.138959 
L 61.893608 54.277498 
L 66.402699 54.489111 
L 70.91179 54.803458 
L 75.420881 55.25779 
L 79.929972 55.896686 
L 84.439063 56.770169 
L 88.948153 57.929236 
L 93.457244 59.417958 
L 97.966335 61.262016 
L 102.475426 63.454925 
L 106.984517 65.944874 
L 111.493608 68.626356 
L 116.002699 71.340909 
L 120.51179 73.889774 
L 125.020881 76.058249 
L 129.529972 77.647401 
L 134.039062 78.504649 
L 138.548153 78.542768 
L 143.057244 77.74843 
L 147.566335 76.236298 
L 152.075426 74.376273 
L 156.584517 72.662178 
L 161.093608 71.367213 
L 165.602699 70.486076 
L 170.11179 69.849561 
L 174.620881 69.229106 
L 179.129972 68.404303 
L 183.639063 67.20854 
L 188.148153 65.56987 
L 192.657244 63.544189 
L 197.166335 61.324985 
L 201.675426 59.220765 
L 206.184517 57.605172 
L 210.693608 56.852938 
L 215.202699 57.27498 
L 219.71179 59.062332 
L 224.220881 62.245777 
L 228.729972 66.677114 
L 233.239063 72.036552 
L 237.748153 77.867597 
L 242.257244 83.636212 
L 246.766335 88.804642 
L 251.275426 92.903251 
L 255.784517 95.58426 
L 260.293608 96.65306 
L 264.802699 96.083463 
L 269.31179 94.022272 
L 273.820881 90.780465 
L 278.329972 86.801788 
L 282.839063 82.602451 
L 287.348153 78.690388 
L 291.857244 75.486383 
L 296.366335 73.269016 
L 300.875426 72.153493 
L 305.384517 72.100754 
L 309.893608 72.946487 
L 314.402699 74.44226 
L 318.91179 76.305083 
L 323.420881 78.270762 
L 327.929972 80.14215 
L 332.439063 81.818163 
L 336.948153 83.289509 
L 341.457244 84.602396 
L 345.966335 85.812886 
L 350.475426 86.956738 
L 354.984517 88.037224 
L 359.493608 89.00412 
L 364.002699 89.689843 
L 368.51179 89.745593 
L 373.020881 88.805876 
L 377.529972 86.789312 
L 382.039062 83.856934 
L 386.548153 80.262675 
L 391.057244 76.296819 
L 395.566335 72.253488 
L 400.075426 68.396466 
L 404.584517 64.930121 
L 409.093608 61.982791 
L 413.602699 59.605094 
L 418.11179 57.781172 
L 422.620881 56.448106 
L 427.129972 55.517786 
L 431.639063 54.896295 
L 436.148153 54.497733 
L 440.657244 54.251627 
L 445.166335 54.104893 
L 449.675426 54.02024 
L 454.184517 53.972935 
L 458.693608 53.947343 
L 463.202699 53.933969 
L 467.71179 53.927245 
L 472.220881 53.924014 
L 476.729972 53.922546 
L 481.239062 53.921925 
" style="fill:none;stroke:#800080;stroke-dasharray:5.55,2.4;stroke-dashoffset:0;stroke-width:1.5;"/>
   </g>
   <g id="matplotlib.axis_1">
    <g id="xtick_1">
     <g id="line2d_5">
      <defs>
       <path d="M 0 0 
L 0 3.5 
" id="mea183a3220" style="stroke:#000000;stroke-width:0.8;"/>
      </defs>
      <g>
       <use style="stroke:#000000;stroke-width:0.8;" x="90.639063" xlink:href="#mea183a3220" y="189.957188"/>
      </g>
     </g>
     <g id="text_1">
      <!-- −6 -->
      <defs>
       <path d="M 10.59375 35.5 
L 73.1875 35.5 
L 73.1875 27.203125 
L 10.59375 27.203125 
z
" id="DejaVuSans-8722"/>
       <path d="M 33.015625 40.375 
Q 26.375 40.375 22.484375 35.828125 
Q 18.609375 31.296875 18.609375 23.390625 
Q 18.609375 15.53125 22.484375 10.953125 
Q 26.375 6.390625 33.015625 6.390625 
Q 39.65625 6.390625 43.53125 10.953125 
Q 47.40625 15.53125 47.40625 23.390625 
Q 47.40625 31.296875 43.53125 35.828125 
Q 39.65625 40.375 33.015625 40.375 
z
M 52.59375 71.296875 
L 52.59375 62.3125 
Q 48.875 64.0625 45.09375 64.984375 
Q 41.3125 65.921875 37.59375 65.921875 
Q 27.828125 65.921875 22.671875 59.328125 
Q 17.53125 52.734375 16.796875 39.40625 
Q 19.671875 43.65625 24.015625 45.921875 
Q 28.375 48.1875 33.59375 48.1875 
Q 44.578125 48.1875 50.953125 41.515625 
Q 57.328125 34.859375 57.328125 23.390625 
Q 57.328125 12.15625 50.6875 5.359375 
Q 44.046875 -1.421875 33.015625 -1.421875 
Q 20.359375 -1.421875 13.671875 8.265625 
Q 6.984375 17.96875 6.984375 36.375 
Q 6.984375 53.65625 15.1875 63.9375 
Q 23.390625 74.21875 37.203125 74.21875 
Q 40.921875 74.21875 44.703125 73.484375 
Q 48.484375 72.75 52.59375 71.296875 
z
" id="DejaVuSans-54"/>
      </defs>
      <g transform="translate(80.319531 207.595)scale(0.14 -0.14)">
       <use xlink:href="#DejaVuSans-8722"/>
       <use x="83.789062" xlink:href="#DejaVuSans-54"/>
      </g>
     </g>
    </g>
    <g id="xtick_2">
     <g id="line2d_6">
      <g>
       <use style="stroke:#000000;stroke-width:0.8;" x="202.239062" xlink:href="#mea183a3220" y="189.957188"/>
      </g>
     </g>
     <g id="text_2">
      <!-- −2 -->
      <defs>
       <path d="M 19.1875 8.296875 
L 53.609375 8.296875 
L 53.609375 0 
L 7.328125 0 
L 7.328125 8.296875 
Q 12.9375 14.109375 22.625 23.890625 
Q 32.328125 33.6875 34.8125 36.53125 
Q 39.546875 41.84375 41.421875 45.53125 
Q 43.3125 49.21875 43.3125 52.78125 
Q 43.3125 58.59375 39.234375 62.25 
Q 35.15625 65.921875 28.609375 65.921875 
Q 23.96875 65.921875 18.8125 64.3125 
Q 13.671875 62.703125 7.8125 59.421875 
L 7.8125 69.390625 
Q 13.765625 71.78125 18.9375 73 
Q 24.125 74.21875 28.421875 74.21875 
Q 39.75 74.21875 46.484375 68.546875 
Q 53.21875 62.890625 53.21875 53.421875 
Q 53.21875 48.921875 51.53125 44.890625 
Q 49.859375 40.875 45.40625 35.40625 
Q 44.1875 33.984375 37.640625 27.21875 
Q 31.109375 20.453125 19.1875 8.296875 
z
" id="DejaVuSans-50"/>
      </defs>
      <g transform="translate(191.919531 207.595)scale(0.14 -0.14)">
       <use xlink:href="#DejaVuSans-8722"/>
       <use x="83.789062" xlink:href="#DejaVuSans-50"/>
      </g>
     </g>
    </g>
    <g id="xtick_3">
     <g id="line2d_7">
      <g>
       <use style="stroke:#000000;stroke-width:0.8;" x="313.839063" xlink:href="#mea183a3220" y="189.957188"/>
      </g>
     </g>
     <g id="text_3">
      <!-- 2 -->
      <g transform="translate(309.385312 207.595)scale(0.14 -0.14)">
       <use xlink:href="#DejaVuSans-50"/>
      </g>
     </g>
    </g>
    <g id="xtick_4">
     <g id="line2d_8">
      <g>
       <use style="stroke:#000000;stroke-width:0.8;" x="425.439062" xlink:href="#mea183a3220" y="189.957188"/>
      </g>
     </g>
     <g id="text_4">
      <!-- 6 -->
      <g transform="translate(420.985312 207.595)scale(0.14 -0.14)">
       <use xlink:href="#DejaVuSans-54"/>
      </g>
     </g>
    </g>
   </g>
   <g id="matplotlib.axis_2">
    <g id="ytick_1">
     <g id="line2d_9">
      <defs>
       <path d="M 0 0 
L -3.5 0 
" id="m65c969b9b6" style="stroke:#000000;stroke-width:0.8;"/>
      </defs>
      <g>
       <use style="stroke:#000000;stroke-width:0.8;" x="34.839063" xlink:href="#m65c969b9b6" y="162.777188"/>
      </g>
     </g>
     <g id="text_5">
      <!-- −6 -->
      <g transform="translate(7.2 168.096094)scale(0.14 -0.14)">
       <use xlink:href="#DejaVuSans-8722"/>
       <use x="83.789062" xlink:href="#DejaVuSans-54"/>
      </g>
     </g>
    </g>
    <g id="ytick_2">
     <g id="line2d_10">
      <g>
       <use style="stroke:#000000;stroke-width:0.8;" x="34.839063" xlink:href="#m65c969b9b6" y="122.007188"/>
      </g>
     </g>
     <g id="text_6">
      <!-- −3 -->
      <defs>
       <path d="M 40.578125 39.3125 
Q 47.65625 37.796875 51.625 33 
Q 55.609375 28.21875 55.609375 21.1875 
Q 55.609375 10.40625 48.1875 4.484375 
Q 40.765625 -1.421875 27.09375 -1.421875 
Q 22.515625 -1.421875 17.65625 -0.515625 
Q 12.796875 0.390625 7.625 2.203125 
L 7.625 11.71875 
Q 11.71875 9.328125 16.59375 8.109375 
Q 21.484375 6.890625 26.8125 6.890625 
Q 36.078125 6.890625 40.9375 10.546875 
Q 45.796875 14.203125 45.796875 21.1875 
Q 45.796875 27.640625 41.28125 31.265625 
Q 36.765625 34.90625 28.71875 34.90625 
L 20.21875 34.90625 
L 20.21875 43.015625 
L 29.109375 43.015625 
Q 36.375 43.015625 40.234375 45.921875 
Q 44.09375 48.828125 44.09375 54.296875 
Q 44.09375 59.90625 40.109375 62.90625 
Q 36.140625 65.921875 28.71875 65.921875 
Q 24.65625 65.921875 20.015625 65.03125 
Q 15.375 64.15625 9.8125 62.3125 
L 9.8125 71.09375 
Q 15.4375 72.65625 20.34375 73.4375 
Q 25.25 74.21875 29.59375 74.21875 
Q 40.828125 74.21875 47.359375 69.109375 
Q 53.90625 64.015625 53.90625 55.328125 
Q 53.90625 49.265625 50.4375 45.09375 
Q 46.96875 40.921875 40.578125 39.3125 
z
" id="DejaVuSans-51"/>
      </defs>
      <g transform="translate(7.2 127.326094)scale(0.14 -0.14)">
       <use xlink:href="#DejaVuSans-8722"/>
       <use x="83.789062" xlink:href="#DejaVuSans-51"/>
      </g>
     </g>
    </g>
    <g id="ytick_3">
     <g id="line2d_11">
      <g>
       <use style="stroke:#000000;stroke-width:0.8;" x="34.839063" xlink:href="#m65c969b9b6" y="81.237188"/>
      </g>
     </g>
     <g id="text_7">
      <!-- 0 -->
      <defs>
       <path d="M 31.78125 66.40625 
Q 24.171875 66.40625 20.328125 58.90625 
Q 16.5 51.421875 16.5 36.375 
Q 16.5 21.390625 20.328125 13.890625 
Q 24.171875 6.390625 31.78125 6.390625 
Q 39.453125 6.390625 43.28125 13.890625 
Q 47.125 21.390625 47.125 36.375 
Q 47.125 51.421875 43.28125 58.90625 
Q 39.453125 66.40625 31.78125 66.40625 
z
M 31.78125 74.21875 
Q 44.046875 74.21875 50.515625 64.515625 
Q 56.984375 54.828125 56.984375 36.375 
Q 56.984375 17.96875 50.515625 8.265625 
Q 44.046875 -1.421875 31.78125 -1.421875 
Q 19.53125 -1.421875 13.0625 8.265625 
Q 6.59375 17.96875 6.59375 36.375 
Q 6.59375 54.828125 13.0625 64.515625 
Q 19.53125 74.21875 31.78125 74.21875 
z
" id="DejaVuSans-48"/>
      </defs>
      <g transform="translate(18.931563 86.556094)scale(0.14 -0.14)">
       <use xlink:href="#DejaVuSans-48"/>
      </g>
     </g>
    </g>
    <g id="ytick_4">
     <g id="line2d_12">
      <g>
       <use style="stroke:#000000;stroke-width:0.8;" x="34.839063" xlink:href="#m65c969b9b6" y="40.467188"/>
      </g>
     </g>
     <g id="text_8">
      <!-- 3 -->
      <g transform="translate(18.931563 45.786094)scale(0.14 -0.14)">
       <use xlink:href="#DejaVuSans-51"/>
      </g>
     </g>
    </g>
   </g>
   <g id="PathCollection_1">
    <defs>
     <path d="M -3 0 
L 3 0 
M 0 3 
L 0 -3 
" id="m1fe8958df3" style="stroke:#ff0000;stroke-width:1.5;"/>
    </defs>
    <g clip-path="url(#pc7a879ad58)">
     <use style="fill:#ff0000;stroke:#ff0000;stroke-width:1.5;" x="268.934237" xlink:href="#m1fe8958df3" y="97.150549"/>
     <use style="fill:#ff0000;stroke:#ff0000;stroke-width:1.5;" x="306.069329" xlink:href="#m1fe8958df3" y="76.503695"/>
     <use style="fill:#ff0000;stroke:#ff0000;stroke-width:1.5;" x="280.975848" xlink:href="#m1fe8958df3" y="89.810659"/>
     <use style="fill:#ff0000;stroke:#ff0000;stroke-width:1.5;" x="268.056989" xlink:href="#m1fe8958df3" y="100.130537"/>
     <use style="fill:#ff0000;stroke:#ff0000;stroke-width:1.5;" x="240.998814" xlink:href="#m1fe8958df3" y="86.742906"/>
     <use style="fill:#ff0000;stroke:#ff0000;stroke-width:1.5;" x="290.602629" xlink:href="#m1fe8958df3" y="79.050137"/>
     <use style="fill:#ff0000;stroke:#ff0000;stroke-width:1.5;" x="244.108528" xlink:href="#m1fe8958df3" y="87.661292"/>
     <use style="fill:#ff0000;stroke:#ff0000;stroke-width:1.5;" x="345.482796" xlink:href="#m1fe8958df3" y="89.344116"/>
     <use style="fill:#ff0000;stroke:#ff0000;stroke-width:1.5;" x="361.528591" xlink:href="#m1fe8958df3" y="94.050452"/>
     <use style="fill:#ff0000;stroke:#ff0000;stroke-width:1.5;" x="232.02321" xlink:href="#m1fe8958df3" y="75.393943"/>
     <use style="fill:#ff0000;stroke:#ff0000;stroke-width:1.5;" x="323.152091" xlink:href="#m1fe8958df3" y="82.173196"/>
     <use style="fill:#ff0000;stroke:#ff0000;stroke-width:1.5;" x="264.488409" xlink:href="#m1fe8958df3" y="97.680252"/>
     <use style="fill:#ff0000;stroke:#ff0000;stroke-width:1.5;" x="273.226609" xlink:href="#m1fe8958df3" y="94.803565"/>
     <use style="fill:#ff0000;stroke:#ff0000;stroke-width:1.5;" x="353.032232" xlink:href="#m1fe8958df3" y="90.02297"/>
     <use style="fill:#ff0000;stroke:#ff0000;stroke-width:1.5;" x="162.294311" xlink:href="#m1fe8958df3" y="74.643384"/>
     <use style="fill:#ff0000;stroke:#ff0000;stroke-width:1.5;" x="165.886322" xlink:href="#m1fe8958df3" y="72.369534"/>
     <use style="fill:#ff0000;stroke:#ff0000;stroke-width:1.5;" x="150.951809" xlink:href="#m1fe8958df3" y="77.948636"/>
     <use style="fill:#ff0000;stroke:#ff0000;stroke-width:1.5;" x="332.279812" xlink:href="#m1fe8958df3" y="82.133238"/>
     <use style="fill:#ff0000;stroke:#ff0000;stroke-width:1.5;" x="320.123649" xlink:href="#m1fe8958df3" y="79.431809"/>
     <use style="fill:#ff0000;stroke:#ff0000;stroke-width:1.5;" x="340.625774" xlink:href="#m1fe8958df3" y="85.996597"/>
     <use style="fill:#ff0000;stroke:#ff0000;stroke-width:1.5;" x="364.866676" xlink:href="#m1fe8958df3" y="90.409392"/>
     <use style="fill:#ff0000;stroke:#ff0000;stroke-width:1.5;" x="324.811254" xlink:href="#m1fe8958df3" y="83.20912"/>
     <use style="fill:#ff0000;stroke:#ff0000;stroke-width:1.5;" x="249.441256" xlink:href="#m1fe8958df3" y="95.710897"/>
     <use style="fill:#ff0000;stroke:#ff0000;stroke-width:1.5;" x="320.653175" xlink:href="#m1fe8958df3" y="78.658959"/>
     <use style="fill:#ff0000;stroke:#ff0000;stroke-width:1.5;" x="172.837914" xlink:href="#m1fe8958df3" y="73.491105"/>
     <use style="fill:#ff0000;stroke:#ff0000;stroke-width:1.5;" x="289.269434" xlink:href="#m1fe8958df3" y="78.48204"/>
     <use style="fill:#ff0000;stroke:#ff0000;stroke-width:1.5;" x="178.435516" xlink:href="#m1fe8958df3" y="73.0961"/>
     <use style="fill:#ff0000;stroke:#ff0000;stroke-width:1.5;" x="357.289165" xlink:href="#m1fe8958df3" y="92.480886"/>
     <use style="fill:#ff0000;stroke:#ff0000;stroke-width:1.5;" x="262.915608" xlink:href="#m1fe8958df3" y="96.874008"/>
     <use style="fill:#ff0000;stroke:#ff0000;stroke-width:1.5;" x="238.991608" xlink:href="#m1fe8958df3" y="81.145618"/>
     <use style="fill:#ff0000;stroke:#ff0000;stroke-width:1.5;" x="205.487875" xlink:href="#m1fe8958df3" y="59.69552"/>
     <use style="fill:#ff0000;stroke:#ff0000;stroke-width:1.5;" x="319.248022" xlink:href="#m1fe8958df3" y="77.910782"/>
     <use style="fill:#ff0000;stroke:#ff0000;stroke-width:1.5;" x="248.251817" xlink:href="#m1fe8958df3" y="94.312236"/>
     <use style="fill:#ff0000;stroke:#ff0000;stroke-width:1.5;" x="273.31352" xlink:href="#m1fe8958df3" y="91.421707"/>
     <use style="fill:#ff0000;stroke:#ff0000;stroke-width:1.5;" x="150.632946" xlink:href="#m1fe8958df3" y="77.929384"/>
     <use style="fill:#ff0000;stroke:#ff0000;stroke-width:1.5;" x="284.295305" xlink:href="#m1fe8958df3" y="83.19582"/>
     <use style="fill:#ff0000;stroke:#ff0000;stroke-width:1.5;" x="283.058828" xlink:href="#m1fe8958df3" y="83.819542"/>
     <use style="fill:#ff0000;stroke:#ff0000;stroke-width:1.5;" x="284.138731" xlink:href="#m1fe8958df3" y="84.29813"/>
     <use style="fill:#ff0000;stroke:#ff0000;stroke-width:1.5;" x="357.083634" xlink:href="#m1fe8958df3" y="90.662993"/>
     <use style="fill:#ff0000;stroke:#ff0000;stroke-width:1.5;" x="298.621353" xlink:href="#m1fe8958df3" y="74.432554"/>
     <use style="fill:#ff0000;stroke:#ff0000;stroke-width:1.5;" x="226.681226" xlink:href="#m1fe8958df3" y="67.787609"/>
     <use style="fill:#ff0000;stroke:#ff0000;stroke-width:1.5;" x="243.984595" xlink:href="#m1fe8958df3" y="90.643864"/>
     <use style="fill:#ff0000;stroke:#ff0000;stroke-width:1.5;" x="302.150345" xlink:href="#m1fe8958df3" y="74.598693"/>
     <use style="fill:#ff0000;stroke:#ff0000;stroke-width:1.5;" x="159.881388" xlink:href="#m1fe8958df3" y="73.031109"/>
     <use style="fill:#ff0000;stroke:#ff0000;stroke-width:1.5;" x="295.261393" xlink:href="#m1fe8958df3" y="77.553485"/>
     <use style="fill:#ff0000;stroke:#ff0000;stroke-width:1.5;" x="296.125435" xlink:href="#m1fe8958df3" y="76.573618"/>
     <use style="fill:#ff0000;stroke:#ff0000;stroke-width:1.5;" x="193.39645" xlink:href="#m1fe8958df3" y="66.898639"/>
     <use style="fill:#ff0000;stroke:#ff0000;stroke-width:1.5;" x="175.215412" xlink:href="#m1fe8958df3" y="69.854136"/>
     <use style="fill:#ff0000;stroke:#ff0000;stroke-width:1.5;" x="216.84267" xlink:href="#m1fe8958df3" y="59.831612"/>
     <use style="fill:#ff0000;stroke:#ff0000;stroke-width:1.5;" x="227.619307" xlink:href="#m1fe8958df3" y="68.211317"/>
     <use style="fill:#ff0000;stroke:#ff0000;stroke-width:1.5;" x="273.706982" xlink:href="#m1fe8958df3" y="94.344443"/>
     <use style="fill:#ff0000;stroke:#ff0000;stroke-width:1.5;" x="244.33492" xlink:href="#m1fe8958df3" y="88.8956"/>
     <use style="fill:#ff0000;stroke:#ff0000;stroke-width:1.5;" x="367.044103" xlink:href="#m1fe8958df3" y="93.33954"/>
     <use style="fill:#ff0000;stroke:#ff0000;stroke-width:1.5;" x="169.215464" xlink:href="#m1fe8958df3" y="72.738657"/>
     <use style="fill:#ff0000;stroke:#ff0000;stroke-width:1.5;" x="193.060354" xlink:href="#m1fe8958df3" y="67.334413"/>
     <use style="fill:#ff0000;stroke:#ff0000;stroke-width:1.5;" x="182.443347" xlink:href="#m1fe8958df3" y="69.800173"/>
     <use style="fill:#ff0000;stroke:#ff0000;stroke-width:1.5;" x="292.212841" xlink:href="#m1fe8958df3" y="77.377341"/>
     <use style="fill:#ff0000;stroke:#ff0000;stroke-width:1.5;" x="202.973748" xlink:href="#m1fe8958df3" y="61.88919"/>
     <use style="fill:#ff0000;stroke:#ff0000;stroke-width:1.5;" x="250.519627" xlink:href="#m1fe8958df3" y="95.031409"/>
     <use style="fill:#ff0000;stroke:#ff0000;stroke-width:1.5;" x="200.994855" xlink:href="#m1fe8958df3" y="64.187824"/>
     <use style="fill:#ff0000;stroke:#ff0000;stroke-width:1.5;" x="181.921074" xlink:href="#m1fe8958df3" y="73.053774"/>
     <use style="fill:#ff0000;stroke:#ff0000;stroke-width:1.5;" x="171.074794" xlink:href="#m1fe8958df3" y="71.991456"/>
     <use style="fill:#ff0000;stroke:#ff0000;stroke-width:1.5;" x="292.931827" xlink:href="#m1fe8958df3" y="77.489383"/>
     <use style="fill:#ff0000;stroke:#ff0000;stroke-width:1.5;" x="177.281497" xlink:href="#m1fe8958df3" y="71.040581"/>
     <use style="fill:#ff0000;stroke:#ff0000;stroke-width:1.5;" x="190.316246" xlink:href="#m1fe8958df3" y="64.733357"/>
     <use style="fill:#ff0000;stroke:#ff0000;stroke-width:1.5;" x="228.738521" xlink:href="#m1fe8958df3" y="68.575441"/>
     <use style="fill:#ff0000;stroke:#ff0000;stroke-width:1.5;" x="329.684751" xlink:href="#m1fe8958df3" y="84.446854"/>
     <use style="fill:#ff0000;stroke:#ff0000;stroke-width:1.5;" x="168.112067" xlink:href="#m1fe8958df3" y="71.187792"/>
     <use style="fill:#ff0000;stroke:#ff0000;stroke-width:1.5;" x="333.468366" xlink:href="#m1fe8958df3" y="86.661138"/>
     <use style="fill:#ff0000;stroke:#ff0000;stroke-width:1.5;" x="167.888227" xlink:href="#m1fe8958df3" y="73.300436"/>
     <use style="fill:#ff0000;stroke:#ff0000;stroke-width:1.5;" x="364.384815" xlink:href="#m1fe8958df3" y="92.567583"/>
     <use style="fill:#ff0000;stroke:#ff0000;stroke-width:1.5;" x="251.042011" xlink:href="#m1fe8958df3" y="93.443469"/>
     <use style="fill:#ff0000;stroke:#ff0000;stroke-width:1.5;" x="364.452137" xlink:href="#m1fe8958df3" y="93.610054"/>
     <use style="fill:#ff0000;stroke:#ff0000;stroke-width:1.5;" x="281.440583" xlink:href="#m1fe8958df3" y="87.717356"/>
     <use style="fill:#ff0000;stroke:#ff0000;stroke-width:1.5;" x="311.442693" xlink:href="#m1fe8958df3" y="76.300137"/>
     <use style="fill:#ff0000;stroke:#ff0000;stroke-width:1.5;" x="155.185778" xlink:href="#m1fe8958df3" y="76.737345"/>
     <use style="fill:#ff0000;stroke:#ff0000;stroke-width:1.5;" x="209.561577" xlink:href="#m1fe8958df3" y="58.145034"/>
     <use style="fill:#ff0000;stroke:#ff0000;stroke-width:1.5;" x="173.266935" xlink:href="#m1fe8958df3" y="73.644724"/>
     <use style="fill:#ff0000;stroke:#ff0000;stroke-width:1.5;" x="212.537555" xlink:href="#m1fe8958df3" y="61.114854"/>
     <use style="fill:#ff0000;stroke:#ff0000;stroke-width:1.5;" x="172.939089" xlink:href="#m1fe8958df3" y="72.890614"/>
     <use style="fill:#ff0000;stroke:#ff0000;stroke-width:1.5;" x="217.412908" xlink:href="#m1fe8958df3" y="61.591399"/>
     <use style="fill:#ff0000;stroke:#ff0000;stroke-width:1.5;" x="238.902563" xlink:href="#m1fe8958df3" y="79.801641"/>
     <use style="fill:#ff0000;stroke:#ff0000;stroke-width:1.5;" x="160.756784" xlink:href="#m1fe8958df3" y="72.858961"/>
     <use style="fill:#ff0000;stroke:#ff0000;stroke-width:1.5;" x="300.99884" xlink:href="#m1fe8958df3" y="74.856625"/>
     <use style="fill:#ff0000;stroke:#ff0000;stroke-width:1.5;" x="272.904507" xlink:href="#m1fe8958df3" y="95.888015"/>
     <use style="fill:#ff0000;stroke:#ff0000;stroke-width:1.5;" x="205.673997" xlink:href="#m1fe8958df3" y="59.498863"/>
     <use style="fill:#ff0000;stroke:#ff0000;stroke-width:1.5;" x="263.228028" xlink:href="#m1fe8958df3" y="100.620824"/>
     <use style="fill:#ff0000;stroke:#ff0000;stroke-width:1.5;" x="167.406585" xlink:href="#m1fe8958df3" y="75.097719"/>
     <use style="fill:#ff0000;stroke:#ff0000;stroke-width:1.5;" x="274.99032" xlink:href="#m1fe8958df3" y="91.010632"/>
     <use style="fill:#ff0000;stroke:#ff0000;stroke-width:1.5;" x="353.857974" xlink:href="#m1fe8958df3" y="90.329273"/>
     <use style="fill:#ff0000;stroke:#ff0000;stroke-width:1.5;" x="217.543653" xlink:href="#m1fe8958df3" y="59.557888"/>
     <use style="fill:#ff0000;stroke:#ff0000;stroke-width:1.5;" x="295.405059" xlink:href="#m1fe8958df3" y="76.004132"/>
     <use style="fill:#ff0000;stroke:#ff0000;stroke-width:1.5;" x="175.856345" xlink:href="#m1fe8958df3" y="70.819404"/>
     <use style="fill:#ff0000;stroke:#ff0000;stroke-width:1.5;" x="306.323294" xlink:href="#m1fe8958df3" y="75.944713"/>
     <use style="fill:#ff0000;stroke:#ff0000;stroke-width:1.5;" x="211.034502" xlink:href="#m1fe8958df3" y="61.032001"/>
     <use style="fill:#ff0000;stroke:#ff0000;stroke-width:1.5;" x="187.327374" xlink:href="#m1fe8958df3" y="67.897865"/>
     <use style="fill:#ff0000;stroke:#ff0000;stroke-width:1.5;" x="277.34875" xlink:href="#m1fe8958df3" y="91.567766"/>
     <use style="fill:#ff0000;stroke:#ff0000;stroke-width:1.5;" x="150.927067" xlink:href="#m1fe8958df3" y="78.617132"/>
     <use style="fill:#ff0000;stroke:#ff0000;stroke-width:1.5;" x="331.458477" xlink:href="#m1fe8958df3" y="84.941674"/>
     <use style="fill:#ff0000;stroke:#ff0000;stroke-width:1.5;" x="147.487093" xlink:href="#m1fe8958df3" y="79.440695"/>
    </g>
   </g>
   <g id="PathCollection_2">
    <defs>
     <path d="M -3 0 
L 3 0 
M 0 3 
L 0 -3 
" id="m3077de459e" style="stroke:#008000;stroke-width:1.5;"/>
    </defs>
    <g clip-path="url(#pc7a879ad58)">
     <use style="fill:#008000;stroke:#008000;stroke-width:1.5;" x="150.904502" xlink:href="#m3077de459e" y="155.982188"/>
     <use style="fill:#008000;stroke:#008000;stroke-width:1.5;" x="154.222166" xlink:href="#m3077de459e" y="155.982188"/>
     <use style="fill:#008000;stroke:#008000;stroke-width:1.5;" x="182.258689" xlink:href="#m3077de459e" y="155.982188"/>
     <use style="fill:#008000;stroke:#008000;stroke-width:1.5;" x="167.126537" xlink:href="#m3077de459e" y="155.982188"/>
     <use style="fill:#008000;stroke:#008000;stroke-width:1.5;" x="160.893474" xlink:href="#m3077de459e" y="155.982188"/>
     <use style="fill:#008000;stroke:#008000;stroke-width:1.5;" x="161.465729" xlink:href="#m3077de459e" y="155.982188"/>
     <use style="fill:#008000;stroke:#008000;stroke-width:1.5;" x="151.235792" xlink:href="#m3077de459e" y="155.982188"/>
     <use style="fill:#008000;stroke:#008000;stroke-width:1.5;" x="171.160582" xlink:href="#m3077de459e" y="155.982188"/>
     <use style="fill:#008000;stroke:#008000;stroke-width:1.5;" x="176.554564" xlink:href="#m3077de459e" y="155.982188"/>
     <use style="fill:#008000;stroke:#008000;stroke-width:1.5;" x="148.502548" xlink:href="#m3077de459e" y="155.982188"/>
    </g>
   </g>
   <g id="PathCollection_3">
    <defs>
     <path d="M -3 0 
L 3 0 
M 0 3 
L 0 -3 
" id="m7f56981854" style="stroke:#0000ff;stroke-width:1.5;"/>
    </defs>
    <g clip-path="url(#pc7a879ad58)">
     <use style="fill:#0000ff;stroke:#0000ff;stroke-width:1.5;" x="188.498451" xlink:href="#m7f56981854" y="149.187188"/>
     <use style="fill:#0000ff;stroke:#0000ff;stroke-width:1.5;" x="168.547299" xlink:href="#m7f56981854" y="149.187188"/>
     <use style="fill:#0000ff;stroke:#0000ff;stroke-width:1.5;" x="363.109405" xlink:href="#m7f56981854" y="149.187188"/>
     <use style="fill:#0000ff;stroke:#0000ff;stroke-width:1.5;" x="320.593423" xlink:href="#m7f56981854" y="149.187188"/>
     <use style="fill:#0000ff;stroke:#0000ff;stroke-width:1.5;" x="271.247113" xlink:href="#m7f56981854" y="149.187188"/>
     <use style="fill:#0000ff;stroke:#0000ff;stroke-width:1.5;" x="242.529151" xlink:href="#m7f56981854" y="149.187188"/>
     <use style="fill:#0000ff;stroke:#0000ff;stroke-width:1.5;" x="214.019937" xlink:href="#m7f56981854" y="149.187188"/>
     <use style="fill:#0000ff;stroke:#0000ff;stroke-width:1.5;" x="294.0286" xlink:href="#m7f56981854" y="149.187188"/>
     <use style="fill:#0000ff;stroke:#0000ff;stroke-width:1.5;" x="343.363583" xlink:href="#m7f56981854" y="149.187188"/>
     <use style="fill:#0000ff;stroke:#0000ff;stroke-width:1.5;" x="150.742905" xlink:href="#m7f56981854" y="149.187188"/>
    </g>
   </g>
   <g id="patch_3">
    <path d="M 34.839063 189.957188 
L 34.839063 26.877188 
" style="fill:none;stroke:#000000;stroke-linecap:square;stroke-linejoin:miter;stroke-width:0.8;"/>
   </g>
   <g id="patch_4">
    <path d="M 481.239062 189.957188 
L 481.239062 26.877188 
" style="fill:none;stroke:#000000;stroke-linecap:square;stroke-linejoin:miter;stroke-width:0.8;"/>
   </g>
   <g id="patch_5">
    <path d="M 34.839063 189.957188 
L 481.239062 189.957188 
" style="fill:none;stroke:#000000;stroke-linecap:square;stroke-linejoin:miter;stroke-width:0.8;"/>
   </g>
   <g id="patch_6">
    <path d="M 34.839063 26.877187 
L 481.239062 26.877187 
" style="fill:none;stroke:#000000;stroke-linecap:square;stroke-linejoin:miter;stroke-width:0.8;"/>
   </g>
   <g id="text_9">
    <!-- VFE after 1000 optimisation steps -->
    <defs>
     <path d="M 28.609375 0 
L 0.78125 72.90625 
L 11.078125 72.90625 
L 34.1875 11.53125 
L 57.328125 72.90625 
L 67.578125 72.90625 
L 39.796875 0 
z
" id="DejaVuSans-86"/>
     <path d="M 9.8125 72.90625 
L 51.703125 72.90625 
L 51.703125 64.59375 
L 19.671875 64.59375 
L 19.671875 43.109375 
L 48.578125 43.109375 
L 48.578125 34.8125 
L 19.671875 34.8125 
L 19.671875 0 
L 9.8125 0 
z
" id="DejaVuSans-70"/>
     <path d="M 9.8125 72.90625 
L 55.90625 72.90625 
L 55.90625 64.59375 
L 19.671875 64.59375 
L 19.671875 43.015625 
L 54.390625 43.015625 
L 54.390625 34.71875 
L 19.671875 34.71875 
L 19.671875 8.296875 
L 56.78125 8.296875 
L 56.78125 0 
L 9.8125 0 
z
" id="DejaVuSans-69"/>
     <path id="DejaVuSans-32"/>
     <path d="M 34.28125 27.484375 
Q 23.390625 27.484375 19.1875 25 
Q 14.984375 22.515625 14.984375 16.5 
Q 14.984375 11.71875 18.140625 8.90625 
Q 21.296875 6.109375 26.703125 6.109375 
Q 34.1875 6.109375 38.703125 11.40625 
Q 43.21875 16.703125 43.21875 25.484375 
L 43.21875 27.484375 
z
M 52.203125 31.203125 
L 52.203125 0 
L 43.21875 0 
L 43.21875 8.296875 
Q 40.140625 3.328125 35.546875 0.953125 
Q 30.953125 -1.421875 24.3125 -1.421875 
Q 15.921875 -1.421875 10.953125 3.296875 
Q 6 8.015625 6 15.921875 
Q 6 25.140625 12.171875 29.828125 
Q 18.359375 34.515625 30.609375 34.515625 
L 43.21875 34.515625 
L 43.21875 35.40625 
Q 43.21875 41.609375 39.140625 45 
Q 35.0625 48.390625 27.6875 48.390625 
Q 23 48.390625 18.546875 47.265625 
Q 14.109375 46.140625 10.015625 43.890625 
L 10.015625 52.203125 
Q 14.9375 54.109375 19.578125 55.046875 
Q 24.21875 56 28.609375 56 
Q 40.484375 56 46.34375 49.84375 
Q 52.203125 43.703125 52.203125 31.203125 
z
" id="DejaVuSans-97"/>
     <path d="M 37.109375 75.984375 
L 37.109375 68.5 
L 28.515625 68.5 
Q 23.6875 68.5 21.796875 66.546875 
Q 19.921875 64.59375 19.921875 59.515625 
L 19.921875 54.6875 
L 34.71875 54.6875 
L 34.71875 47.703125 
L 19.921875 47.703125 
L 19.921875 0 
L 10.890625 0 
L 10.890625 47.703125 
L 2.296875 47.703125 
L 2.296875 54.6875 
L 10.890625 54.6875 
L 10.890625 58.5 
Q 10.890625 67.625 15.140625 71.796875 
Q 19.390625 75.984375 28.609375 75.984375 
z
" id="DejaVuSans-102"/>
     <path d="M 18.3125 70.21875 
L 18.3125 54.6875 
L 36.8125 54.6875 
L 36.8125 47.703125 
L 18.3125 47.703125 
L 18.3125 18.015625 
Q 18.3125 11.328125 20.140625 9.421875 
Q 21.96875 7.515625 27.59375 7.515625 
L 36.8125 7.515625 
L 36.8125 0 
L 27.59375 0 
Q 17.1875 0 13.234375 3.875 
Q 9.28125 7.765625 9.28125 18.015625 
L 9.28125 47.703125 
L 2.6875 47.703125 
L 2.6875 54.6875 
L 9.28125 54.6875 
L 9.28125 70.21875 
z
" id="DejaVuSans-116"/>
     <path d="M 56.203125 29.59375 
L 56.203125 25.203125 
L 14.890625 25.203125 
Q 15.484375 15.921875 20.484375 11.0625 
Q 25.484375 6.203125 34.421875 6.203125 
Q 39.59375 6.203125 44.453125 7.46875 
Q 49.3125 8.734375 54.109375 11.28125 
L 54.109375 2.78125 
Q 49.265625 0.734375 44.1875 -0.34375 
Q 39.109375 -1.421875 33.890625 -1.421875 
Q 20.796875 -1.421875 13.15625 6.1875 
Q 5.515625 13.8125 5.515625 26.8125 
Q 5.515625 40.234375 12.765625 48.109375 
Q 20.015625 56 32.328125 56 
Q 43.359375 56 49.78125 48.890625 
Q 56.203125 41.796875 56.203125 29.59375 
z
M 47.21875 32.234375 
Q 47.125 39.59375 43.09375 43.984375 
Q 39.0625 48.390625 32.421875 48.390625 
Q 24.90625 48.390625 20.390625 44.140625 
Q 15.875 39.890625 15.1875 32.171875 
z
" id="DejaVuSans-101"/>
     <path d="M 41.109375 46.296875 
Q 39.59375 47.171875 37.8125 47.578125 
Q 36.03125 48 33.890625 48 
Q 26.265625 48 22.1875 43.046875 
Q 18.109375 38.09375 18.109375 28.8125 
L 18.109375 0 
L 9.078125 0 
L 9.078125 54.6875 
L 18.109375 54.6875 
L 18.109375 46.1875 
Q 20.953125 51.171875 25.484375 53.578125 
Q 30.03125 56 36.53125 56 
Q 37.453125 56 38.578125 55.875 
Q 39.703125 55.765625 41.0625 55.515625 
z
" id="DejaVuSans-114"/>
     <path d="M 12.40625 8.296875 
L 28.515625 8.296875 
L 28.515625 63.921875 
L 10.984375 60.40625 
L 10.984375 69.390625 
L 28.421875 72.90625 
L 38.28125 72.90625 
L 38.28125 8.296875 
L 54.390625 8.296875 
L 54.390625 0 
L 12.40625 0 
z
" id="DejaVuSans-49"/>
     <path d="M 30.609375 48.390625 
Q 23.390625 48.390625 19.1875 42.75 
Q 14.984375 37.109375 14.984375 27.296875 
Q 14.984375 17.484375 19.15625 11.84375 
Q 23.34375 6.203125 30.609375 6.203125 
Q 37.796875 6.203125 41.984375 11.859375 
Q 46.1875 17.53125 46.1875 27.296875 
Q 46.1875 37.015625 41.984375 42.703125 
Q 37.796875 48.390625 30.609375 48.390625 
z
M 30.609375 56 
Q 42.328125 56 49.015625 48.375 
Q 55.71875 40.765625 55.71875 27.296875 
Q 55.71875 13.875 49.015625 6.21875 
Q 42.328125 -1.421875 30.609375 -1.421875 
Q 18.84375 -1.421875 12.171875 6.21875 
Q 5.515625 13.875 5.515625 27.296875 
Q 5.515625 40.765625 12.171875 48.375 
Q 18.84375 56 30.609375 56 
z
" id="DejaVuSans-111"/>
     <path d="M 18.109375 8.203125 
L 18.109375 -20.796875 
L 9.078125 -20.796875 
L 9.078125 54.6875 
L 18.109375 54.6875 
L 18.109375 46.390625 
Q 20.953125 51.265625 25.265625 53.625 
Q 29.59375 56 35.59375 56 
Q 45.5625 56 51.78125 48.09375 
Q 58.015625 40.1875 58.015625 27.296875 
Q 58.015625 14.40625 51.78125 6.484375 
Q 45.5625 -1.421875 35.59375 -1.421875 
Q 29.59375 -1.421875 25.265625 0.953125 
Q 20.953125 3.328125 18.109375 8.203125 
z
M 48.6875 27.296875 
Q 48.6875 37.203125 44.609375 42.84375 
Q 40.53125 48.484375 33.40625 48.484375 
Q 26.265625 48.484375 22.1875 42.84375 
Q 18.109375 37.203125 18.109375 27.296875 
Q 18.109375 17.390625 22.1875 11.75 
Q 26.265625 6.109375 33.40625 6.109375 
Q 40.53125 6.109375 44.609375 11.75 
Q 48.6875 17.390625 48.6875 27.296875 
z
" id="DejaVuSans-112"/>
     <path d="M 9.421875 54.6875 
L 18.40625 54.6875 
L 18.40625 0 
L 9.421875 0 
z
M 9.421875 75.984375 
L 18.40625 75.984375 
L 18.40625 64.59375 
L 9.421875 64.59375 
z
" id="DejaVuSans-105"/>
     <path d="M 52 44.1875 
Q 55.375 50.25 60.0625 53.125 
Q 64.75 56 71.09375 56 
Q 79.640625 56 84.28125 50.015625 
Q 88.921875 44.046875 88.921875 33.015625 
L 88.921875 0 
L 79.890625 0 
L 79.890625 32.71875 
Q 79.890625 40.578125 77.09375 44.375 
Q 74.3125 48.1875 68.609375 48.1875 
Q 61.625 48.1875 57.5625 43.546875 
Q 53.515625 38.921875 53.515625 30.90625 
L 53.515625 0 
L 44.484375 0 
L 44.484375 32.71875 
Q 44.484375 40.625 41.703125 44.40625 
Q 38.921875 48.1875 33.109375 48.1875 
Q 26.21875 48.1875 22.15625 43.53125 
Q 18.109375 38.875 18.109375 30.90625 
L 18.109375 0 
L 9.078125 0 
L 9.078125 54.6875 
L 18.109375 54.6875 
L 18.109375 46.1875 
Q 21.1875 51.21875 25.484375 53.609375 
Q 29.78125 56 35.6875 56 
Q 41.65625 56 45.828125 52.96875 
Q 50 49.953125 52 44.1875 
z
" id="DejaVuSans-109"/>
     <path d="M 44.28125 53.078125 
L 44.28125 44.578125 
Q 40.484375 46.53125 36.375 47.5 
Q 32.28125 48.484375 27.875 48.484375 
Q 21.1875 48.484375 17.84375 46.4375 
Q 14.5 44.390625 14.5 40.28125 
Q 14.5 37.15625 16.890625 35.375 
Q 19.28125 33.59375 26.515625 31.984375 
L 29.59375 31.296875 
Q 39.15625 29.25 43.1875 25.515625 
Q 47.21875 21.78125 47.21875 15.09375 
Q 47.21875 7.46875 41.1875 3.015625 
Q 35.15625 -1.421875 24.609375 -1.421875 
Q 20.21875 -1.421875 15.453125 -0.5625 
Q 10.6875 0.296875 5.421875 2 
L 5.421875 11.28125 
Q 10.40625 8.6875 15.234375 7.390625 
Q 20.0625 6.109375 24.8125 6.109375 
Q 31.15625 6.109375 34.5625 8.28125 
Q 37.984375 10.453125 37.984375 14.40625 
Q 37.984375 18.0625 35.515625 20.015625 
Q 33.0625 21.96875 24.703125 23.78125 
L 21.578125 24.515625 
Q 13.234375 26.265625 9.515625 29.90625 
Q 5.8125 33.546875 5.8125 39.890625 
Q 5.8125 47.609375 11.28125 51.796875 
Q 16.75 56 26.8125 56 
Q 31.78125 56 36.171875 55.265625 
Q 40.578125 54.546875 44.28125 53.078125 
z
" id="DejaVuSans-115"/>
     <path d="M 54.890625 33.015625 
L 54.890625 0 
L 45.90625 0 
L 45.90625 32.71875 
Q 45.90625 40.484375 42.875 44.328125 
Q 39.84375 48.1875 33.796875 48.1875 
Q 26.515625 48.1875 22.3125 43.546875 
Q 18.109375 38.921875 18.109375 30.90625 
L 18.109375 0 
L 9.078125 0 
L 9.078125 54.6875 
L 18.109375 54.6875 
L 18.109375 46.1875 
Q 21.34375 51.125 25.703125 53.5625 
Q 30.078125 56 35.796875 56 
Q 45.21875 56 50.046875 50.171875 
Q 54.890625 44.34375 54.890625 33.015625 
z
" id="DejaVuSans-110"/>
    </defs>
    <g transform="translate(105.265469 20.877188)scale(0.18 -0.18)">
     <use xlink:href="#DejaVuSans-86"/>
     <use x="68.408203" xlink:href="#DejaVuSans-70"/>
     <use x="125.927734" xlink:href="#DejaVuSans-69"/>
     <use x="189.111328" xlink:href="#DejaVuSans-32"/>
     <use x="220.898438" xlink:href="#DejaVuSans-97"/>
     <use x="282.177734" xlink:href="#DejaVuSans-102"/>
     <use x="315.632812" xlink:href="#DejaVuSans-116"/>
     <use x="354.841797" xlink:href="#DejaVuSans-101"/>
     <use x="416.365234" xlink:href="#DejaVuSans-114"/>
     <use x="457.478516" xlink:href="#DejaVuSans-32"/>
     <use x="489.265625" xlink:href="#DejaVuSans-49"/>
     <use x="552.888672" xlink:href="#DejaVuSans-48"/>
     <use x="616.511719" xlink:href="#DejaVuSans-48"/>
     <use x="680.134766" xlink:href="#DejaVuSans-48"/>
     <use x="743.757812" xlink:href="#DejaVuSans-32"/>
     <use x="775.544922" xlink:href="#DejaVuSans-111"/>
     <use x="836.726562" xlink:href="#DejaVuSans-112"/>
     <use x="900.203125" xlink:href="#DejaVuSans-116"/>
     <use x="939.412109" xlink:href="#DejaVuSans-105"/>
     <use x="967.195312" xlink:href="#DejaVuSans-109"/>
     <use x="1064.607422" xlink:href="#DejaVuSans-105"/>
     <use x="1092.390625" xlink:href="#DejaVuSans-115"/>
     <use x="1144.490234" xlink:href="#DejaVuSans-97"/>
     <use x="1205.769531" xlink:href="#DejaVuSans-116"/>
     <use x="1244.978516" xlink:href="#DejaVuSans-105"/>
     <use x="1272.761719" xlink:href="#DejaVuSans-111"/>
     <use x="1333.943359" xlink:href="#DejaVuSans-110"/>
     <use x="1397.322266" xlink:href="#DejaVuSans-32"/>
     <use x="1429.109375" xlink:href="#DejaVuSans-115"/>
     <use x="1481.208984" xlink:href="#DejaVuSans-116"/>
     <use x="1520.417969" xlink:href="#DejaVuSans-101"/>
     <use x="1581.941406" xlink:href="#DejaVuSans-112"/>
     <use x="1645.417969" xlink:href="#DejaVuSans-115"/>
    </g>
   </g>
   <g id="legend_1">
    <g id="patch_7">
     <path d="M 375.314062 184.957188 
L 474.239062 184.957188 
Q 476.239062 184.957188 476.239062 182.957188 
L 476.239062 125.244688 
Q 476.239062 123.244688 474.239062 123.244688 
L 375.314062 123.244688 
Q 373.314062 123.244688 373.314062 125.244688 
L 373.314062 182.957188 
Q 373.314062 184.957188 375.314062 184.957188 
z
" style="fill:#ffffff;opacity:0.8;stroke:#cccccc;stroke-linejoin:miter;"/>
    </g>
    <g id="line2d_13">
     <path d="M 377.314062 131.343125 
L 397.314062 131.343125 
" style="fill:none;stroke:#000000;stroke-linecap:square;stroke-width:1.5;"/>
    </g>
    <g id="line2d_14"/>
    <g id="text_10">
     <!-- Approx. Pred. -->
     <defs>
      <path d="M 34.1875 63.1875 
L 20.796875 26.90625 
L 47.609375 26.90625 
z
M 28.609375 72.90625 
L 39.796875 72.90625 
L 67.578125 0 
L 57.328125 0 
L 50.6875 18.703125 
L 17.828125 18.703125 
L 11.1875 0 
L 0.78125 0 
z
" id="DejaVuSans-65"/>
      <path d="M 54.890625 54.6875 
L 35.109375 28.078125 
L 55.90625 0 
L 45.3125 0 
L 29.390625 21.484375 
L 13.484375 0 
L 2.875 0 
L 24.125 28.609375 
L 4.6875 54.6875 
L 15.28125 54.6875 
L 29.78125 35.203125 
L 44.28125 54.6875 
z
" id="DejaVuSans-120"/>
      <path d="M 10.6875 12.40625 
L 21 12.40625 
L 21 0 
L 10.6875 0 
z
" id="DejaVuSans-46"/>
      <path d="M 19.671875 64.796875 
L 19.671875 37.40625 
L 32.078125 37.40625 
Q 38.96875 37.40625 42.71875 40.96875 
Q 46.484375 44.53125 46.484375 51.125 
Q 46.484375 57.671875 42.71875 61.234375 
Q 38.96875 64.796875 32.078125 64.796875 
z
M 9.8125 72.90625 
L 32.078125 72.90625 
Q 44.34375 72.90625 50.609375 67.359375 
Q 56.890625 61.8125 56.890625 51.125 
Q 56.890625 40.328125 50.609375 34.8125 
Q 44.34375 29.296875 32.078125 29.296875 
L 19.671875 29.296875 
L 19.671875 0 
L 9.8125 0 
z
" id="DejaVuSans-80"/>
      <path d="M 45.40625 46.390625 
L 45.40625 75.984375 
L 54.390625 75.984375 
L 54.390625 0 
L 45.40625 0 
L 45.40625 8.203125 
Q 42.578125 3.328125 38.25 0.953125 
Q 33.9375 -1.421875 27.875 -1.421875 
Q 17.96875 -1.421875 11.734375 6.484375 
Q 5.515625 14.40625 5.515625 27.296875 
Q 5.515625 40.1875 11.734375 48.09375 
Q 17.96875 56 27.875 56 
Q 33.9375 56 38.25 53.625 
Q 42.578125 51.265625 45.40625 46.390625 
z
M 14.796875 27.296875 
Q 14.796875 17.390625 18.875 11.75 
Q 22.953125 6.109375 30.078125 6.109375 
Q 37.203125 6.109375 41.296875 11.75 
Q 45.40625 17.390625 45.40625 27.296875 
Q 45.40625 37.203125 41.296875 42.84375 
Q 37.203125 48.484375 30.078125 48.484375 
Q 22.953125 48.484375 18.875 42.84375 
Q 14.796875 37.203125 14.796875 27.296875 
z
" id="DejaVuSans-100"/>
     </defs>
     <g transform="translate(405.314062 134.843125)scale(0.1 -0.1)">
      <use xlink:href="#DejaVuSans-65"/>
      <use x="68.408203" xlink:href="#DejaVuSans-112"/>
      <use x="131.884766" xlink:href="#DejaVuSans-112"/>
      <use x="195.361328" xlink:href="#DejaVuSans-114"/>
      <use x="234.224609" xlink:href="#DejaVuSans-111"/>
      <use x="292.28125" xlink:href="#DejaVuSans-120"/>
      <use x="351.460938" xlink:href="#DejaVuSans-46"/>
      <use x="383.248047" xlink:href="#DejaVuSans-32"/>
      <use x="415.035156" xlink:href="#DejaVuSans-80"/>
      <use x="473.587891" xlink:href="#DejaVuSans-114"/>
      <use x="512.451172" xlink:href="#DejaVuSans-101"/>
      <use x="573.974609" xlink:href="#DejaVuSans-100"/>
      <use x="637.451172" xlink:href="#DejaVuSans-46"/>
     </g>
    </g>
    <g id="line2d_15">
     <path d="M 377.314062 146.02125 
L 397.314062 146.02125 
" style="fill:none;stroke:#800080;stroke-dasharray:5.55,2.4;stroke-dashoffset:0;stroke-width:1.5;"/>
    </g>
    <g id="line2d_16"/>
    <g id="text_11">
     <!-- Exact post. -->
     <defs>
      <path d="M 48.78125 52.59375 
L 48.78125 44.1875 
Q 44.96875 46.296875 41.140625 47.34375 
Q 37.3125 48.390625 33.40625 48.390625 
Q 24.65625 48.390625 19.8125 42.84375 
Q 14.984375 37.3125 14.984375 27.296875 
Q 14.984375 17.28125 19.8125 11.734375 
Q 24.65625 6.203125 33.40625 6.203125 
Q 37.3125 6.203125 41.140625 7.25 
Q 44.96875 8.296875 48.78125 10.40625 
L 48.78125 2.09375 
Q 45.015625 0.34375 40.984375 -0.53125 
Q 36.96875 -1.421875 32.421875 -1.421875 
Q 20.0625 -1.421875 12.78125 6.34375 
Q 5.515625 14.109375 5.515625 27.296875 
Q 5.515625 40.671875 12.859375 48.328125 
Q 20.21875 56 33.015625 56 
Q 37.15625 56 41.109375 55.140625 
Q 45.0625 54.296875 48.78125 52.59375 
z
" id="DejaVuSans-99"/>
     </defs>
     <g transform="translate(405.314062 149.52125)scale(0.1 -0.1)">
      <use xlink:href="#DejaVuSans-69"/>
      <use x="63.183594" xlink:href="#DejaVuSans-120"/>
      <use x="122.363281" xlink:href="#DejaVuSans-97"/>
      <use x="183.642578" xlink:href="#DejaVuSans-99"/>
      <use x="238.623047" xlink:href="#DejaVuSans-116"/>
      <use x="277.832031" xlink:href="#DejaVuSans-32"/>
      <use x="309.619141" xlink:href="#DejaVuSans-112"/>
      <use x="373.095703" xlink:href="#DejaVuSans-111"/>
      <use x="434.277344" xlink:href="#DejaVuSans-115"/>
      <use x="486.376953" xlink:href="#DejaVuSans-116"/>
      <use x="525.585938" xlink:href="#DejaVuSans-46"/>
     </g>
    </g>
    <g id="PathCollection_4">
     <g>
      <use style="fill:#008000;stroke:#008000;stroke-width:1.5;" x="387.314062" xlink:href="#m3077de459e" y="161.574375"/>
     </g>
    </g>
    <g id="text_12">
     <!-- Init. $\bar{\mathbf{X}}$ -->
     <defs>
      <path d="M 9.8125 72.90625 
L 19.671875 72.90625 
L 19.671875 0 
L 9.8125 0 
z
" id="DejaVuSans-73"/>
      <path d="M -39.34375 74.515625 
L -10.15625 74.515625 
L -10.15625 67.28125 
L -39.34375 67.28125 
z
" id="DejaVuSans-772"/>
      <path d="M 49.8125 37.203125 
L 75.09375 0 
L 55.515625 0 
L 38.484375 24.90625 
L 21.578125 0 
L 1.90625 0 
L 27.203125 37.203125 
L 2.875 72.90625 
L 22.515625 72.90625 
L 38.484375 49.421875 
L 54.390625 72.90625 
L 74.125 72.90625 
z
" id="DejaVuSans-Bold-88"/>
     </defs>
     <g transform="translate(405.314062 164.199375)scale(0.1 -0.1)">
      <use transform="translate(0 0.359375)" xlink:href="#DejaVuSans-73"/>
      <use transform="translate(29.492188 0.359375)" xlink:href="#DejaVuSans-110"/>
      <use transform="translate(92.871094 0.359375)" xlink:href="#DejaVuSans-105"/>
      <use transform="translate(120.654297 0.359375)" xlink:href="#DejaVuSans-116"/>
      <use transform="translate(159.863281 0.359375)" xlink:href="#DejaVuSans-46"/>
      <use transform="translate(191.650391 0.359375)" xlink:href="#DejaVuSans-32"/>
      <use transform="translate(296.056152 18.484375)" xlink:href="#DejaVuSans-772"/>
      <use transform="translate(223.4375 0.359375)" xlink:href="#DejaVuSans-Bold-88"/>
     </g>
    </g>
    <g id="PathCollection_5">
     <g>
      <use style="fill:#0000ff;stroke:#0000ff;stroke-width:1.5;" x="387.314062" xlink:href="#m7f56981854" y="176.2525"/>
     </g>
    </g>
    <g id="text_13">
     <!-- Curr. $\bar{\mathbf{X}}$ -->
     <defs>
      <path d="M 64.40625 67.28125 
L 64.40625 56.890625 
Q 59.421875 61.53125 53.78125 63.8125 
Q 48.140625 66.109375 41.796875 66.109375 
Q 29.296875 66.109375 22.65625 58.46875 
Q 16.015625 50.828125 16.015625 36.375 
Q 16.015625 21.96875 22.65625 14.328125 
Q 29.296875 6.6875 41.796875 6.6875 
Q 48.140625 6.6875 53.78125 8.984375 
Q 59.421875 11.28125 64.40625 15.921875 
L 64.40625 5.609375 
Q 59.234375 2.09375 53.4375 0.328125 
Q 47.65625 -1.421875 41.21875 -1.421875 
Q 24.65625 -1.421875 15.125 8.703125 
Q 5.609375 18.84375 5.609375 36.375 
Q 5.609375 53.953125 15.125 64.078125 
Q 24.65625 74.21875 41.21875 74.21875 
Q 47.75 74.21875 53.53125 72.484375 
Q 59.328125 70.75 64.40625 67.28125 
z
" id="DejaVuSans-67"/>
      <path d="M 8.5 21.578125 
L 8.5 54.6875 
L 17.484375 54.6875 
L 17.484375 21.921875 
Q 17.484375 14.15625 20.5 10.265625 
Q 23.53125 6.390625 29.59375 6.390625 
Q 36.859375 6.390625 41.078125 11.03125 
Q 45.3125 15.671875 45.3125 23.6875 
L 45.3125 54.6875 
L 54.296875 54.6875 
L 54.296875 0 
L 45.3125 0 
L 45.3125 8.40625 
Q 42.046875 3.421875 37.71875 1 
Q 33.40625 -1.421875 27.6875 -1.421875 
Q 18.265625 -1.421875 13.375 4.4375 
Q 8.5 10.296875 8.5 21.578125 
z
M 31.109375 56 
z
" id="DejaVuSans-117"/>
     </defs>
     <g transform="translate(405.314062 178.8775)scale(0.1 -0.1)">
      <use transform="translate(0 0.359375)" xlink:href="#DejaVuSans-67"/>
      <use transform="translate(69.824219 0.359375)" xlink:href="#DejaVuSans-117"/>
      <use transform="translate(133.203125 0.359375)" xlink:href="#DejaVuSans-114"/>
      <use transform="translate(174.316406 0.359375)" xlink:href="#DejaVuSans-114"/>
      <use transform="translate(215.429688 0.359375)" xlink:href="#DejaVuSans-46"/>
      <use transform="translate(247.216797 0.359375)" xlink:href="#DejaVuSans-32"/>
      <use transform="translate(351.622559 18.484375)" xlink:href="#DejaVuSans-772"/>
      <use transform="translate(279.003906 0.359375)" xlink:href="#DejaVuSans-Bold-88"/>
     </g>
    </g>
   </g>
  </g>
 </g>
 <defs>
  <clipPath id="pc7a879ad58">
   <rect height="163.08" width="446.4" x="34.839063" y="26.877188"/>
  </clipPath>
 </defs>
</svg>
