<?xml version="1.0" encoding="utf-8" standalone="no"?>
<!DOCTYPE svg PUBLIC "-//W3C//DTD SVG 1.1//EN"
  "http://www.w3.org/Graphics/SVG/1.1/DTD/svg11.dtd">
<!-- Created with matplotlib (https://matplotlib.org/) -->
<svg height="220.745938pt" version="1.1" viewBox="0 0 604.492812 220.745938" width="604.492812pt" xmlns="http://www.w3.org/2000/svg" xmlns:xlink="http://www.w3.org/1999/xlink">
 <defs>
  <style type="text/css">
*{stroke-linecap:butt;stroke-linejoin:round;}
  </style>
 </defs>
 <g id="figure_1">
  <g id="patch_1">
   <path d="M 0 220.745938 
L 604.492812 220.745938 
L 604.492812 0 
L 0 0 
z
" style="fill:none;"/>
  </g>
  <g id="axes_1">
   <g id="patch_2">
    <path d="M 34.839063 192.996563 
L 592.839062 192.996563 
L 592.839062 29.916562 
L 34.839063 29.916562 
z
" style="fill:#ffffff;"/>
   </g>
   <g id="matplotlib.axis_1">
    <g id="xtick_1">
     <g id="line2d_1">
      <defs>
       <path d="M 0 0 
L 0 3.5 
" id="md60d194d96" style="stroke:#000000;stroke-width:0.8;"/>
      </defs>
      <g>
       <use style="stroke:#000000;stroke-width:0.8;" x="34.839063" xlink:href="#md60d194d96" y="192.996563"/>
      </g>
     </g>
     <g id="text_1">
      <!-- −8 -->
      <defs>
       <path d="M 10.59375 35.5 
L 73.1875 35.5 
L 73.1875 27.203125 
L 10.59375 27.203125 
z
" id="DejaVuSans-8722"/>
       <path d="M 31.78125 34.625 
Q 24.75 34.625 20.71875 30.859375 
Q 16.703125 27.09375 16.703125 20.515625 
Q 16.703125 13.921875 20.71875 10.15625 
Q 24.75 6.390625 31.78125 6.390625 
Q 38.8125 6.390625 42.859375 10.171875 
Q 46.921875 13.96875 46.921875 20.515625 
Q 46.921875 27.09375 42.890625 30.859375 
Q 38.875 34.625 31.78125 34.625 
z
M 21.921875 38.8125 
Q 15.578125 40.375 12.03125 44.71875 
Q 8.5 49.078125 8.5 55.328125 
Q 8.5 64.0625 14.71875 69.140625 
Q 20.953125 74.21875 31.78125 74.21875 
Q 42.671875 74.21875 48.875 69.140625 
Q 55.078125 64.0625 55.078125 55.328125 
Q 55.078125 49.078125 51.53125 44.71875 
Q 48 40.375 41.703125 38.8125 
Q 48.828125 37.15625 52.796875 32.3125 
Q 56.78125 27.484375 56.78125 20.515625 
Q 56.78125 9.90625 50.3125 4.234375 
Q 43.84375 -1.421875 31.78125 -1.421875 
Q 19.734375 -1.421875 13.25 4.234375 
Q 6.78125 9.90625 6.78125 20.515625 
Q 6.78125 27.484375 10.78125 32.3125 
Q 14.796875 37.15625 21.921875 38.8125 
z
M 18.3125 54.390625 
Q 18.3125 48.734375 21.84375 45.5625 
Q 25.390625 42.390625 31.78125 42.390625 
Q 38.140625 42.390625 41.71875 45.5625 
Q 45.3125 48.734375 45.3125 54.390625 
Q 45.3125 60.0625 41.71875 63.234375 
Q 38.140625 66.40625 31.78125 66.40625 
Q 25.390625 66.40625 21.84375 63.234375 
Q 18.3125 60.0625 18.3125 54.390625 
z
" id="DejaVuSans-56"/>
      </defs>
      <g transform="translate(24.519531 210.634375)scale(0.14 -0.14)">
       <use xlink:href="#DejaVuSans-8722"/>
       <use x="83.789062" xlink:href="#DejaVuSans-56"/>
      </g>
     </g>
    </g>
    <g id="xtick_2">
     <g id="line2d_2">
      <g>
       <use style="stroke:#000000;stroke-width:0.8;" x="174.339063" xlink:href="#md60d194d96" y="192.996563"/>
      </g>
     </g>
     <g id="text_2">
      <!-- −4 -->
      <defs>
       <path d="M 37.796875 64.3125 
L 12.890625 25.390625 
L 37.796875 25.390625 
z
M 35.203125 72.90625 
L 47.609375 72.90625 
L 47.609375 25.390625 
L 58.015625 25.390625 
L 58.015625 17.1875 
L 47.609375 17.1875 
L 47.609375 0 
L 37.796875 0 
L 37.796875 17.1875 
L 4.890625 17.1875 
L 4.890625 26.703125 
z
" id="DejaVuSans-52"/>
      </defs>
      <g transform="translate(164.019531 210.634375)scale(0.14 -0.14)">
       <use xlink:href="#DejaVuSans-8722"/>
       <use x="83.789062" xlink:href="#DejaVuSans-52"/>
      </g>
     </g>
    </g>
    <g id="xtick_3">
     <g id="line2d_3">
      <g>
       <use style="stroke:#000000;stroke-width:0.8;" x="313.839063" xlink:href="#md60d194d96" y="192.996563"/>
      </g>
     </g>
     <g id="text_3">
      <!-- 0 -->
      <defs>
       <path d="M 31.78125 66.40625 
Q 24.171875 66.40625 20.328125 58.90625 
Q 16.5 51.421875 16.5 36.375 
Q 16.5 21.390625 20.328125 13.890625 
Q 24.171875 6.390625 31.78125 6.390625 
Q 39.453125 6.390625 43.28125 13.890625 
Q 47.125 21.390625 47.125 36.375 
Q 47.125 51.421875 43.28125 58.90625 
Q 39.453125 66.40625 31.78125 66.40625 
z
M 31.78125 74.21875 
Q 44.046875 74.21875 50.515625 64.515625 
Q 56.984375 54.828125 56.984375 36.375 
Q 56.984375 17.96875 50.515625 8.265625 
Q 44.046875 -1.421875 31.78125 -1.421875 
Q 19.53125 -1.421875 13.0625 8.265625 
Q 6.59375 17.96875 6.59375 36.375 
Q 6.59375 54.828125 13.0625 64.515625 
Q 19.53125 74.21875 31.78125 74.21875 
z
" id="DejaVuSans-48"/>
      </defs>
      <g transform="translate(309.385312 210.634375)scale(0.14 -0.14)">
       <use xlink:href="#DejaVuSans-48"/>
      </g>
     </g>
    </g>
    <g id="xtick_4">
     <g id="line2d_4">
      <g>
       <use style="stroke:#000000;stroke-width:0.8;" x="453.339063" xlink:href="#md60d194d96" y="192.996563"/>
      </g>
     </g>
     <g id="text_4">
      <!-- 4 -->
      <g transform="translate(448.885312 210.634375)scale(0.14 -0.14)">
       <use xlink:href="#DejaVuSans-52"/>
      </g>
     </g>
    </g>
    <g id="xtick_5">
     <g id="line2d_5">
      <g>
       <use style="stroke:#000000;stroke-width:0.8;" x="592.839062" xlink:href="#md60d194d96" y="192.996563"/>
      </g>
     </g>
     <g id="text_5">
      <!-- 8 -->
      <g transform="translate(588.385312 210.634375)scale(0.14 -0.14)">
       <use xlink:href="#DejaVuSans-56"/>
      </g>
     </g>
    </g>
   </g>
   <g id="matplotlib.axis_2">
    <g id="ytick_1">
     <g id="line2d_6">
      <defs>
       <path d="M 0 0 
L -3.5 0 
" id="m4b25083224" style="stroke:#000000;stroke-width:0.8;"/>
      </defs>
      <g>
       <use style="stroke:#000000;stroke-width:0.8;" x="34.839063" xlink:href="#m4b25083224" y="192.996563"/>
      </g>
     </g>
     <g id="text_6">
      <!-- −8 -->
      <g transform="translate(7.2 198.315469)scale(0.14 -0.14)">
       <use xlink:href="#DejaVuSans-8722"/>
       <use x="83.789062" xlink:href="#DejaVuSans-56"/>
      </g>
     </g>
    </g>
    <g id="ytick_2">
     <g id="line2d_7">
      <g>
       <use style="stroke:#000000;stroke-width:0.8;" x="34.839063" xlink:href="#m4b25083224" y="152.226562"/>
      </g>
     </g>
     <g id="text_7">
      <!-- −4 -->
      <g transform="translate(7.2 157.545469)scale(0.14 -0.14)">
       <use xlink:href="#DejaVuSans-8722"/>
       <use x="83.789062" xlink:href="#DejaVuSans-52"/>
      </g>
     </g>
    </g>
    <g id="ytick_3">
     <g id="line2d_8">
      <g>
       <use style="stroke:#000000;stroke-width:0.8;" x="34.839063" xlink:href="#m4b25083224" y="111.456563"/>
      </g>
     </g>
     <g id="text_8">
      <!-- 0 -->
      <g transform="translate(18.931563 116.775469)scale(0.14 -0.14)">
       <use xlink:href="#DejaVuSans-48"/>
      </g>
     </g>
    </g>
    <g id="ytick_4">
     <g id="line2d_9">
      <g>
       <use style="stroke:#000000;stroke-width:0.8;" x="34.839063" xlink:href="#m4b25083224" y="70.686562"/>
      </g>
     </g>
     <g id="text_9">
      <!-- 4 -->
      <g transform="translate(18.931563 76.005469)scale(0.14 -0.14)">
       <use xlink:href="#DejaVuSans-52"/>
      </g>
     </g>
    </g>
    <g id="ytick_5">
     <g id="line2d_10">
      <g>
       <use style="stroke:#000000;stroke-width:0.8;" x="34.839063" xlink:href="#m4b25083224" y="29.916562"/>
      </g>
     </g>
     <g id="text_10">
      <!-- 8 -->
      <g transform="translate(18.931563 35.235469)scale(0.14 -0.14)">
       <use xlink:href="#DejaVuSans-56"/>
      </g>
     </g>
    </g>
   </g>
   <g id="line2d_11">
    <path clip-path="url(#p6ee28bf780)" d="M 34.839063 131.952379 
L 40.475426 131.960406 
L 46.11179 131.97455 
L 51.748153 131.998671 
L 57.384517 132.038425 
L 63.020881 132.101625 
L 68.657244 132.198295 
L 74.293608 132.340088 
L 79.929972 132.53862 
L 85.566335 132.802313 
L 91.202699 133.131543 
L 96.839063 133.512436 
L 102.475426 133.910362 
L 108.11179 134.264969 
L 113.748153 134.489 
L 119.384517 134.472889 
L 125.020881 134.096202 
L 130.657244 133.245416 
L 136.293608 131.835846 
L 141.929972 129.833972 
L 147.566335 127.275651 
L 153.202699 124.275928 
L 158.839063 121.027941 
L 164.475426 117.790624 
L 170.11179 114.8597 
L 175.748153 112.480825 
L 181.384517 110.691579 
L 187.020881 109.354123 
L 192.657244 108.360455 
L 198.293608 107.650122 
L 203.929972 107.135421 
L 209.566335 106.671837 
L 215.202699 106.085233 
L 220.839063 105.227714 
L 226.475426 104.02855 
L 232.11179 102.522602 
L 237.748153 100.854375 
L 243.384517 99.260113 
L 249.020881 98.030424 
L 254.657244 97.458519 
L 260.293608 97.784024 
L 265.929972 99.145253 
L 271.566335 101.550769 
L 277.202699 104.874704 
L 282.839063 108.873414 
L 288.475426 113.216565 
L 294.11179 117.524658 
L 299.748153 121.407999 
L 305.384517 124.507674 
L 311.020881 126.540046 
L 316.657244 127.339046 
L 322.293608 126.883886 
L 327.929972 125.302251 
L 333.566335 122.847709 
L 339.202699 119.859239 
L 344.839063 116.714348 
L 350.475426 113.782375 
L 356.11179 111.37898 
L 361.748153 109.72447 
L 367.384517 108.914395 
L 373.020881 108.913525 
L 378.657244 109.579162 
L 384.293608 110.707619 
L 389.929972 112.087487 
L 395.566335 113.541962 
L 401.202699 114.949309 
L 406.839063 116.242454 
L 412.475426 117.398658 
L 418.11179 118.427572 
L 423.748153 119.355473 
L 429.384517 120.202606 
L 435.020881 120.963755 
L 440.657244 121.617731 
L 446.293608 122.189846 
L 451.929972 122.828115 
L 457.566335 123.712067 
L 463.202699 124.853737 
L 468.839063 126.143398 
L 474.475426 127.461652 
L 480.11179 128.709092 
L 485.748153 129.809863 
L 491.384517 130.714167 
L 497.020881 131.399854 
L 502.657244 131.871034 
L 508.293608 132.153188 
L 513.929972 132.285598 
L 519.566335 132.312783 
L 525.202699 132.276759 
L 530.839063 132.211611 
L 536.475426 132.141042 
L 542.11179 132.078648 
L 547.748153 132.030029 
L 553.384517 131.99557 
L 559.020881 131.972995 
L 564.657244 131.959199 
L 570.293608 131.951294 
L 575.929972 131.947041 
L 581.566335 131.944894 
L 587.202699 131.943884 
L 592.839062 131.943447 
" style="fill:none;stroke:#800080;stroke-dasharray:5.55,2.4;stroke-dashoffset:0;stroke-width:1.5;"/>
   </g>
   <g id="line2d_12">
    <path clip-path="url(#p6ee28bf780)" d="M 34.839063 111.465717 
L 40.475426 111.473764 
L 46.11179 111.487975 
L 51.748153 111.512294 
L 57.384517 111.552601 
L 63.020881 111.617258 
L 68.657244 111.717545 
L 74.293608 111.867796 
L 79.929972 112.084943 
L 85.566335 112.387164 
L 91.202699 112.791365 
L 96.839063 113.309367 
L 102.475426 113.94298 
L 108.11179 114.678555 
L 113.748153 115.482092 
L 119.384517 116.296377 
L 125.020881 117.041764 
L 130.657244 117.621928 
L 136.293608 117.9351 
L 141.929972 117.889987 
L 147.566335 117.424005 
L 153.202699 116.520076 
L 158.839063 115.21755 
L 164.475426 113.613186 
L 170.11179 111.849847 
L 175.748153 110.093361 
L 181.384517 108.501228 
L 187.020881 107.189714 
L 192.657244 106.207268 
L 198.293608 105.521676 
L 203.929972 105.025632 
L 209.566335 104.561169 
L 215.202699 103.958566 
L 220.839063 103.081396 
L 226.475426 101.867312 
L 232.11179 100.354708 
L 237.748153 98.688393 
L 243.384517 97.102179 
L 249.020881 95.881488 
L 254.657244 95.313447 
L 260.293608 95.634465 
L 265.929972 96.985337 
L 271.566335 99.381887 
L 277.202699 102.705606 
L 282.839063 106.71475 
L 288.475426 111.072967 
L 294.11179 115.390244 
L 299.748153 119.270077 
L 305.384517 122.356892 
L 311.020881 124.378456 
L 316.657244 125.178756 
L 322.293608 124.737578 
L 327.929972 123.173813 
L 333.566335 120.730865 
L 339.202699 117.744626 
L 344.839063 114.597429 
L 350.475426 111.664419 
L 356.11179 109.261219 
L 361.748153 107.602452 
L 367.384517 106.779093 
L 373.020881 106.758881 
L 378.657244 107.40885 
L 384.293608 108.533993 
L 389.929972 109.922485 
L 395.566335 111.386853 
L 401.202699 112.792296 
L 406.839063 114.067374 
L 412.475426 115.197231 
L 418.11179 116.20402 
L 423.748153 117.121905 
L 429.384517 117.974416 
L 435.020881 118.760172 
L 440.657244 119.449747 
L 446.293608 119.99295 
L 451.929972 120.332991 
L 457.566335 120.422573 
L 463.202699 120.237196 
L 468.839063 119.782385 
L 474.475426 119.093665 
L 480.11179 118.230189 
L 485.748153 117.264326 
L 491.384517 116.270094 
L 497.020881 115.313058 
L 502.657244 114.4434 
L 508.293608 113.69284 
L 513.929972 113.075074 
L 519.566335 112.588767 
L 525.202699 112.221885 
L 530.839063 111.956252 
L 536.475426 111.771507 
L 542.11179 111.64802 
L 547.748153 111.568686 
L 553.384517 111.519711 
L 559.020881 111.490684 
L 564.657244 111.474189 
L 570.293608 111.465221 
L 575.929972 111.460573 
L 581.566335 111.458288 
L 587.202699 111.457233 
L 592.839062 111.456781 
" style="fill:none;stroke:#800080;stroke-linecap:square;stroke-width:1.5;"/>
   </g>
   <g id="line2d_13">
    <path clip-path="url(#p6ee28bf780)" d="M 34.839063 90.979054 
L 40.475426 90.987123 
L 46.11179 91.001401 
L 51.748153 91.025918 
L 57.384517 91.066778 
L 63.020881 91.132891 
L 68.657244 91.236795 
L 74.293608 91.395505 
L 79.929972 91.631265 
L 85.566335 91.972015 
L 91.202699 92.451187 
L 96.839063 93.106299 
L 102.475426 93.975599 
L 108.11179 95.092141 
L 113.748153 96.475184 
L 119.384517 98.119866 
L 125.020881 99.987327 
L 130.657244 101.998439 
L 136.293608 104.034353 
L 141.929972 105.946002 
L 147.566335 107.572358 
L 153.202699 108.764223 
L 158.839063 109.407159 
L 164.475426 109.435748 
L 170.11179 108.839994 
L 175.748153 107.705896 
L 181.384517 106.310877 
L 187.020881 105.025305 
L 192.657244 104.054081 
L 198.293608 103.393229 
L 203.929972 102.915842 
L 209.566335 102.450501 
L 215.202699 101.831899 
L 220.839063 100.935077 
L 226.475426 99.706074 
L 232.11179 98.186814 
L 237.748153 96.522411 
L 243.384517 94.944246 
L 249.020881 93.732551 
L 254.657244 93.168375 
L 260.293608 93.484907 
L 265.929972 94.825421 
L 271.566335 97.213005 
L 277.202699 100.536507 
L 282.839063 104.556086 
L 288.475426 108.929369 
L 294.11179 113.255831 
L 299.748153 117.132154 
L 305.384517 120.20611 
L 311.020881 122.216867 
L 316.657244 123.018467 
L 322.293608 122.591269 
L 327.929972 121.045376 
L 333.566335 118.61402 
L 339.202699 115.630013 
L 344.839063 112.48051 
L 350.475426 109.546463 
L 356.11179 107.143459 
L 361.748153 105.480434 
L 367.384517 104.643792 
L 373.020881 104.604238 
L 378.657244 105.238537 
L 384.293608 106.360367 
L 389.929972 107.757484 
L 395.566335 109.231744 
L 401.202699 110.635284 
L 406.839063 111.892294 
L 412.475426 112.995804 
L 418.11179 113.980469 
L 423.748153 114.888336 
L 429.384517 115.746226 
L 435.020881 116.55659 
L 440.657244 117.281762 
L 446.293608 117.796054 
L 451.929972 117.837867 
L 457.566335 117.133079 
L 463.202699 115.620656 
L 468.839063 113.421372 
L 474.475426 110.725678 
L 480.11179 107.751286 
L 485.748153 104.718788 
L 491.384517 101.826021 
L 497.020881 99.226263 
L 502.657244 97.015765 
L 508.293608 95.232492 
L 513.929972 93.864551 
L 519.566335 92.864751 
L 525.202699 92.167011 
L 530.839063 91.700893 
L 536.475426 91.401972 
L 542.11179 91.217392 
L 547.748153 91.107342 
L 553.384517 91.043852 
L 559.020881 91.008373 
L 564.657244 90.989179 
L 570.293608 90.979149 
L 575.929972 90.974106 
L 581.566335 90.971682 
L 587.202699 90.970581 
L 592.839062 90.970116 
" style="fill:none;stroke:#800080;stroke-dasharray:5.55,2.4;stroke-dashoffset:0;stroke-width:1.5;"/>
   </g>
   <g id="patch_3">
    <path d="M 34.839063 192.996563 
L 34.839063 29.916562 
" style="fill:none;stroke:#000000;stroke-linecap:square;stroke-linejoin:miter;stroke-width:0.8;"/>
   </g>
   <g id="patch_4">
    <path d="M 592.839062 192.996563 
L 592.839062 29.916562 
" style="fill:none;stroke:#000000;stroke-linecap:square;stroke-linejoin:miter;stroke-width:0.8;"/>
   </g>
   <g id="patch_5">
    <path d="M 34.839063 192.996563 
L 592.839062 192.996563 
" style="fill:none;stroke:#000000;stroke-linecap:square;stroke-linejoin:miter;stroke-width:0.8;"/>
   </g>
   <g id="patch_6">
    <path d="M 34.839063 29.916562 
L 592.839062 29.916562 
" style="fill:none;stroke:#000000;stroke-linecap:square;stroke-linejoin:miter;stroke-width:0.8;"/>
   </g>
   <g id="PathCollection_1">
    <defs>
     <path d="M -3 0 
L 3 0 
M 0 3 
L 0 -3 
" id="m379fe24fe8" style="stroke:#ff0000;stroke-width:1.5;"/>
    </defs>
    <g clip-path="url(#p6ee28bf780)">
     <use style="fill:#ff0000;stroke:#ff0000;stroke-width:1.5;" x="327.45803" xlink:href="#m379fe24fe8" y="123.391583"/>
     <use style="fill:#ff0000;stroke:#ff0000;stroke-width:1.5;" x="373.876896" xlink:href="#m379fe24fe8" y="107.906443"/>
     <use style="fill:#ff0000;stroke:#ff0000;stroke-width:1.5;" x="342.510044" xlink:href="#m379fe24fe8" y="117.886666"/>
     <use style="fill:#ff0000;stroke:#ff0000;stroke-width:1.5;" x="326.361471" xlink:href="#m379fe24fe8" y="125.626575"/>
     <use style="fill:#ff0000;stroke:#ff0000;stroke-width:1.5;" x="292.538752" xlink:href="#m379fe24fe8" y="115.585851"/>
     <use style="fill:#ff0000;stroke:#ff0000;stroke-width:1.5;" x="354.54352" xlink:href="#m379fe24fe8" y="109.816274"/>
     <use style="fill:#ff0000;stroke:#ff0000;stroke-width:1.5;" x="296.425894" xlink:href="#m379fe24fe8" y="116.274641"/>
     <use style="fill:#ff0000;stroke:#ff0000;stroke-width:1.5;" x="423.14373" xlink:href="#m379fe24fe8" y="117.536759"/>
     <use style="fill:#ff0000;stroke:#ff0000;stroke-width:1.5;" x="443.200973" xlink:href="#m379fe24fe8" y="121.066511"/>
     <use style="fill:#ff0000;stroke:#ff0000;stroke-width:1.5;" x="281.319246" xlink:href="#m379fe24fe8" y="107.074129"/>
     <use style="fill:#ff0000;stroke:#ff0000;stroke-width:1.5;" x="395.230348" xlink:href="#m379fe24fe8" y="112.158569"/>
     <use style="fill:#ff0000;stroke:#ff0000;stroke-width:1.5;" x="321.900745" xlink:href="#m379fe24fe8" y="123.788861"/>
     <use style="fill:#ff0000;stroke:#ff0000;stroke-width:1.5;" x="332.823495" xlink:href="#m379fe24fe8" y="121.631346"/>
     <use style="fill:#ff0000;stroke:#ff0000;stroke-width:1.5;" x="432.580525" xlink:href="#m379fe24fe8" y="118.045899"/>
     <use style="fill:#ff0000;stroke:#ff0000;stroke-width:1.5;" x="194.158123" xlink:href="#m379fe24fe8" y="106.51121"/>
     <use style="fill:#ff0000;stroke:#ff0000;stroke-width:1.5;" x="198.648137" xlink:href="#m379fe24fe8" y="104.805823"/>
     <use style="fill:#ff0000;stroke:#ff0000;stroke-width:1.5;" x="179.979995" xlink:href="#m379fe24fe8" y="108.990149"/>
     <use style="fill:#ff0000;stroke:#ff0000;stroke-width:1.5;" x="406.639999" xlink:href="#m379fe24fe8" y="112.1286"/>
     <use style="fill:#ff0000;stroke:#ff0000;stroke-width:1.5;" x="391.444796" xlink:href="#m379fe24fe8" y="110.102529"/>
     <use style="fill:#ff0000;stroke:#ff0000;stroke-width:1.5;" x="417.072452" xlink:href="#m379fe24fe8" y="115.02612"/>
     <use style="fill:#ff0000;stroke:#ff0000;stroke-width:1.5;" x="447.37358" xlink:href="#m379fe24fe8" y="118.335716"/>
     <use style="fill:#ff0000;stroke:#ff0000;stroke-width:1.5;" x="397.304302" xlink:href="#m379fe24fe8" y="112.935512"/>
     <use style="fill:#ff0000;stroke:#ff0000;stroke-width:1.5;" x="303.091805" xlink:href="#m379fe24fe8" y="122.311845"/>
     <use style="fill:#ff0000;stroke:#ff0000;stroke-width:1.5;" x="392.106703" xlink:href="#m379fe24fe8" y="109.522891"/>
     <use style="fill:#ff0000;stroke:#ff0000;stroke-width:1.5;" x="207.337627" xlink:href="#m379fe24fe8" y="105.647001"/>
     <use style="fill:#ff0000;stroke:#ff0000;stroke-width:1.5;" x="352.877027" xlink:href="#m379fe24fe8" y="109.390202"/>
     <use style="fill:#ff0000;stroke:#ff0000;stroke-width:1.5;" x="214.33463" xlink:href="#m379fe24fe8" y="105.350747"/>
     <use style="fill:#ff0000;stroke:#ff0000;stroke-width:1.5;" x="437.90169" xlink:href="#m379fe24fe8" y="119.889336"/>
     <use style="fill:#ff0000;stroke:#ff0000;stroke-width:1.5;" x="319.934744" xlink:href="#m379fe24fe8" y="123.184178"/>
     <use style="fill:#ff0000;stroke:#ff0000;stroke-width:1.5;" x="290.029744" xlink:href="#m379fe24fe8" y="111.387885"/>
     <use style="fill:#ff0000;stroke:#ff0000;stroke-width:1.5;" x="248.150078" xlink:href="#m379fe24fe8" y="95.300312"/>
     <use style="fill:#ff0000;stroke:#ff0000;stroke-width:1.5;" x="390.350262" xlink:href="#m379fe24fe8" y="108.961758"/>
     <use style="fill:#ff0000;stroke:#ff0000;stroke-width:1.5;" x="301.605005" xlink:href="#m379fe24fe8" y="121.262849"/>
     <use style="fill:#ff0000;stroke:#ff0000;stroke-width:1.5;" x="332.932134" xlink:href="#m379fe24fe8" y="119.094952"/>
     <use style="fill:#ff0000;stroke:#ff0000;stroke-width:1.5;" x="179.581417" xlink:href="#m379fe24fe8" y="108.97571"/>
     <use style="fill:#ff0000;stroke:#ff0000;stroke-width:1.5;" x="346.659366" xlink:href="#m379fe24fe8" y="112.925537"/>
     <use style="fill:#ff0000;stroke:#ff0000;stroke-width:1.5;" x="345.113769" xlink:href="#m379fe24fe8" y="113.393328"/>
     <use style="fill:#ff0000;stroke:#ff0000;stroke-width:1.5;" x="346.463648" xlink:href="#m379fe24fe8" y="113.75227"/>
     <use style="fill:#ff0000;stroke:#ff0000;stroke-width:1.5;" x="437.644776" xlink:href="#m379fe24fe8" y="118.525917"/>
     <use style="fill:#ff0000;stroke:#ff0000;stroke-width:1.5;" x="364.566926" xlink:href="#m379fe24fe8" y="106.353087"/>
     <use style="fill:#ff0000;stroke:#ff0000;stroke-width:1.5;" x="274.641767" xlink:href="#m379fe24fe8" y="101.369379"/>
     <use style="fill:#ff0000;stroke:#ff0000;stroke-width:1.5;" x="296.270978" xlink:href="#m379fe24fe8" y="118.51157"/>
     <use style="fill:#ff0000;stroke:#ff0000;stroke-width:1.5;" x="368.978166" xlink:href="#m379fe24fe8" y="106.477691"/>
     <use style="fill:#ff0000;stroke:#ff0000;stroke-width:1.5;" x="191.141969" xlink:href="#m379fe24fe8" y="105.302004"/>
     <use style="fill:#ff0000;stroke:#ff0000;stroke-width:1.5;" x="360.366976" xlink:href="#m379fe24fe8" y="108.693786"/>
     <use style="fill:#ff0000;stroke:#ff0000;stroke-width:1.5;" x="361.447028" xlink:href="#m379fe24fe8" y="107.958885"/>
     <use style="fill:#ff0000;stroke:#ff0000;stroke-width:1.5;" x="233.035797" xlink:href="#m379fe24fe8" y="100.702651"/>
     <use style="fill:#ff0000;stroke:#ff0000;stroke-width:1.5;" x="210.3095" xlink:href="#m379fe24fe8" y="102.919274"/>
     <use style="fill:#ff0000;stroke:#ff0000;stroke-width:1.5;" x="262.343572" xlink:href="#m379fe24fe8" y="95.402381"/>
     <use style="fill:#ff0000;stroke:#ff0000;stroke-width:1.5;" x="275.814368" xlink:href="#m379fe24fe8" y="101.687159"/>
     <use style="fill:#ff0000;stroke:#ff0000;stroke-width:1.5;" x="333.423961" xlink:href="#m379fe24fe8" y="121.287004"/>
     <use style="fill:#ff0000;stroke:#ff0000;stroke-width:1.5;" x="296.708885" xlink:href="#m379fe24fe8" y="117.200372"/>
     <use style="fill:#ff0000;stroke:#ff0000;stroke-width:1.5;" x="450.095363" xlink:href="#m379fe24fe8" y="120.533327"/>
     <use style="fill:#ff0000;stroke:#ff0000;stroke-width:1.5;" x="202.809565" xlink:href="#m379fe24fe8" y="105.082665"/>
     <use style="fill:#ff0000;stroke:#ff0000;stroke-width:1.5;" x="232.615677" xlink:href="#m379fe24fe8" y="101.029482"/>
     <use style="fill:#ff0000;stroke:#ff0000;stroke-width:1.5;" x="219.344418" xlink:href="#m379fe24fe8" y="102.878802"/>
     <use style="fill:#ff0000;stroke:#ff0000;stroke-width:1.5;" x="356.556285" xlink:href="#m379fe24fe8" y="108.561677"/>
     <use style="fill:#ff0000;stroke:#ff0000;stroke-width:1.5;" x="245.00742" xlink:href="#m379fe24fe8" y="96.945565"/>
     <use style="fill:#ff0000;stroke:#ff0000;stroke-width:1.5;" x="304.439768" xlink:href="#m379fe24fe8" y="121.802229"/>
     <use style="fill:#ff0000;stroke:#ff0000;stroke-width:1.5;" x="242.533803" xlink:href="#m379fe24fe8" y="98.66954"/>
     <use style="fill:#ff0000;stroke:#ff0000;stroke-width:1.5;" x="218.691576" xlink:href="#m379fe24fe8" y="105.319002"/>
     <use style="fill:#ff0000;stroke:#ff0000;stroke-width:1.5;" x="205.133727" xlink:href="#m379fe24fe8" y="104.522264"/>
     <use style="fill:#ff0000;stroke:#ff0000;stroke-width:1.5;" x="357.455018" xlink:href="#m379fe24fe8" y="108.645709"/>
     <use style="fill:#ff0000;stroke:#ff0000;stroke-width:1.5;" x="212.892106" xlink:href="#m379fe24fe8" y="103.809108"/>
     <use style="fill:#ff0000;stroke:#ff0000;stroke-width:1.5;" x="229.185541" xlink:href="#m379fe24fe8" y="99.07869"/>
     <use style="fill:#ff0000;stroke:#ff0000;stroke-width:1.5;" x="277.213385" xlink:href="#m379fe24fe8" y="101.960253"/>
     <use style="fill:#ff0000;stroke:#ff0000;stroke-width:1.5;" x="403.396174" xlink:href="#m379fe24fe8" y="113.863813"/>
     <use style="fill:#ff0000;stroke:#ff0000;stroke-width:1.5;" x="201.430318" xlink:href="#m379fe24fe8" y="103.919516"/>
     <use style="fill:#ff0000;stroke:#ff0000;stroke-width:1.5;" x="408.125692" xlink:href="#m379fe24fe8" y="115.524525"/>
     <use style="fill:#ff0000;stroke:#ff0000;stroke-width:1.5;" x="201.150518" xlink:href="#m379fe24fe8" y="105.503999"/>
     <use style="fill:#ff0000;stroke:#ff0000;stroke-width:1.5;" x="446.771253" xlink:href="#m379fe24fe8" y="119.954359"/>
     <use style="fill:#ff0000;stroke:#ff0000;stroke-width:1.5;" x="305.092748" xlink:href="#m379fe24fe8" y="120.611274"/>
     <use style="fill:#ff0000;stroke:#ff0000;stroke-width:1.5;" x="446.855406" xlink:href="#m379fe24fe8" y="120.736212"/>
     <use style="fill:#ff0000;stroke:#ff0000;stroke-width:1.5;" x="343.090963" xlink:href="#m379fe24fe8" y="116.316689"/>
     <use style="fill:#ff0000;stroke:#ff0000;stroke-width:1.5;" x="380.593601" xlink:href="#m379fe24fe8" y="107.753775"/>
     <use style="fill:#ff0000;stroke:#ff0000;stroke-width:1.5;" x="185.272457" xlink:href="#m379fe24fe8" y="108.08168"/>
     <use style="fill:#ff0000;stroke:#ff0000;stroke-width:1.5;" x="253.242205" xlink:href="#m379fe24fe8" y="94.137447"/>
     <use style="fill:#ff0000;stroke:#ff0000;stroke-width:1.5;" x="207.873903" xlink:href="#m379fe24fe8" y="105.762215"/>
     <use style="fill:#ff0000;stroke:#ff0000;stroke-width:1.5;" x="256.962178" xlink:href="#m379fe24fe8" y="96.364813"/>
     <use style="fill:#ff0000;stroke:#ff0000;stroke-width:1.5;" x="207.464096" xlink:href="#m379fe24fe8" y="105.196632"/>
     <use style="fill:#ff0000;stroke:#ff0000;stroke-width:1.5;" x="263.05637" xlink:href="#m379fe24fe8" y="96.722221"/>
     <use style="fill:#ff0000;stroke:#ff0000;stroke-width:1.5;" x="289.918438" xlink:href="#m379fe24fe8" y="110.379903"/>
     <use style="fill:#ff0000;stroke:#ff0000;stroke-width:1.5;" x="192.236214" xlink:href="#m379fe24fe8" y="105.172893"/>
     <use style="fill:#ff0000;stroke:#ff0000;stroke-width:1.5;" x="367.538784" xlink:href="#m379fe24fe8" y="106.671141"/>
     <use style="fill:#ff0000;stroke:#ff0000;stroke-width:1.5;" x="332.420868" xlink:href="#m379fe24fe8" y="122.444683"/>
     <use style="fill:#ff0000;stroke:#ff0000;stroke-width:1.5;" x="248.38273" xlink:href="#m379fe24fe8" y="95.152819"/>
     <use style="fill:#ff0000;stroke:#ff0000;stroke-width:1.5;" x="320.325269" xlink:href="#m379fe24fe8" y="125.99429"/>
     <use style="fill:#ff0000;stroke:#ff0000;stroke-width:1.5;" x="200.548465" xlink:href="#m379fe24fe8" y="106.851961"/>
     <use style="fill:#ff0000;stroke:#ff0000;stroke-width:1.5;" x="335.028135" xlink:href="#m379fe24fe8" y="118.786646"/>
     <use style="fill:#ff0000;stroke:#ff0000;stroke-width:1.5;" x="433.612702" xlink:href="#m379fe24fe8" y="118.275627"/>
     <use style="fill:#ff0000;stroke:#ff0000;stroke-width:1.5;" x="263.2198" xlink:href="#m379fe24fe8" y="95.197088"/>
     <use style="fill:#ff0000;stroke:#ff0000;stroke-width:1.5;" x="360.546559" xlink:href="#m379fe24fe8" y="107.531771"/>
     <use style="fill:#ff0000;stroke:#ff0000;stroke-width:1.5;" x="211.110666" xlink:href="#m379fe24fe8" y="103.643225"/>
     <use style="fill:#ff0000;stroke:#ff0000;stroke-width:1.5;" x="374.194352" xlink:href="#m379fe24fe8" y="107.487206"/>
     <use style="fill:#ff0000;stroke:#ff0000;stroke-width:1.5;" x="255.083362" xlink:href="#m379fe24fe8" y="96.302673"/>
     <use style="fill:#ff0000;stroke:#ff0000;stroke-width:1.5;" x="225.449452" xlink:href="#m379fe24fe8" y="101.452071"/>
     <use style="fill:#ff0000;stroke:#ff0000;stroke-width:1.5;" x="337.976171" xlink:href="#m379fe24fe8" y="119.204496"/>
     <use style="fill:#ff0000;stroke:#ff0000;stroke-width:1.5;" x="179.949068" xlink:href="#m379fe24fe8" y="109.491521"/>
     <use style="fill:#ff0000;stroke:#ff0000;stroke-width:1.5;" x="405.613331" xlink:href="#m379fe24fe8" y="114.234928"/>
     <use style="fill:#ff0000;stroke:#ff0000;stroke-width:1.5;" x="175.6491" xlink:href="#m379fe24fe8" y="110.109193"/>
    </g>
   </g>
   <g id="text_11">
    <!-- Synthetic data and ground truth -->
    <defs>
     <path d="M 53.515625 70.515625 
L 53.515625 60.890625 
Q 47.90625 63.578125 42.921875 64.890625 
Q 37.9375 66.21875 33.296875 66.21875 
Q 25.25 66.21875 20.875 63.09375 
Q 16.5 59.96875 16.5 54.203125 
Q 16.5 49.359375 19.40625 46.890625 
Q 22.3125 44.4375 30.421875 42.921875 
L 36.375 41.703125 
Q 47.40625 39.59375 52.65625 34.296875 
Q 57.90625 29 57.90625 20.125 
Q 57.90625 9.515625 50.796875 4.046875 
Q 43.703125 -1.421875 29.984375 -1.421875 
Q 24.8125 -1.421875 18.96875 -0.25 
Q 13.140625 0.921875 6.890625 3.21875 
L 6.890625 13.375 
Q 12.890625 10.015625 18.65625 8.296875 
Q 24.421875 6.59375 29.984375 6.59375 
Q 38.421875 6.59375 43.015625 9.90625 
Q 47.609375 13.234375 47.609375 19.390625 
Q 47.609375 24.75 44.3125 27.78125 
Q 41.015625 30.8125 33.5 32.328125 
L 27.484375 33.5 
Q 16.453125 35.6875 11.515625 40.375 
Q 6.59375 45.0625 6.59375 53.421875 
Q 6.59375 63.09375 13.40625 68.65625 
Q 20.21875 74.21875 32.171875 74.21875 
Q 37.3125 74.21875 42.625 73.28125 
Q 47.953125 72.359375 53.515625 70.515625 
z
" id="DejaVuSans-83"/>
     <path d="M 32.171875 -5.078125 
Q 28.375 -14.84375 24.75 -17.8125 
Q 21.140625 -20.796875 15.09375 -20.796875 
L 7.90625 -20.796875 
L 7.90625 -13.28125 
L 13.1875 -13.28125 
Q 16.890625 -13.28125 18.9375 -11.515625 
Q 21 -9.765625 23.484375 -3.21875 
L 25.09375 0.875 
L 2.984375 54.6875 
L 12.5 54.6875 
L 29.59375 11.921875 
L 46.6875 54.6875 
L 56.203125 54.6875 
z
" id="DejaVuSans-121"/>
     <path d="M 54.890625 33.015625 
L 54.890625 0 
L 45.90625 0 
L 45.90625 32.71875 
Q 45.90625 40.484375 42.875 44.328125 
Q 39.84375 48.1875 33.796875 48.1875 
Q 26.515625 48.1875 22.3125 43.546875 
Q 18.109375 38.921875 18.109375 30.90625 
L 18.109375 0 
L 9.078125 0 
L 9.078125 54.6875 
L 18.109375 54.6875 
L 18.109375 46.1875 
Q 21.34375 51.125 25.703125 53.5625 
Q 30.078125 56 35.796875 56 
Q 45.21875 56 50.046875 50.171875 
Q 54.890625 44.34375 54.890625 33.015625 
z
" id="DejaVuSans-110"/>
     <path d="M 18.3125 70.21875 
L 18.3125 54.6875 
L 36.8125 54.6875 
L 36.8125 47.703125 
L 18.3125 47.703125 
L 18.3125 18.015625 
Q 18.3125 11.328125 20.140625 9.421875 
Q 21.96875 7.515625 27.59375 7.515625 
L 36.8125 7.515625 
L 36.8125 0 
L 27.59375 0 
Q 17.1875 0 13.234375 3.875 
Q 9.28125 7.765625 9.28125 18.015625 
L 9.28125 47.703125 
L 2.6875 47.703125 
L 2.6875 54.6875 
L 9.28125 54.6875 
L 9.28125 70.21875 
z
" id="DejaVuSans-116"/>
     <path d="M 54.890625 33.015625 
L 54.890625 0 
L 45.90625 0 
L 45.90625 32.71875 
Q 45.90625 40.484375 42.875 44.328125 
Q 39.84375 48.1875 33.796875 48.1875 
Q 26.515625 48.1875 22.3125 43.546875 
Q 18.109375 38.921875 18.109375 30.90625 
L 18.109375 0 
L 9.078125 0 
L 9.078125 75.984375 
L 18.109375 75.984375 
L 18.109375 46.1875 
Q 21.34375 51.125 25.703125 53.5625 
Q 30.078125 56 35.796875 56 
Q 45.21875 56 50.046875 50.171875 
Q 54.890625 44.34375 54.890625 33.015625 
z
" id="DejaVuSans-104"/>
     <path d="M 56.203125 29.59375 
L 56.203125 25.203125 
L 14.890625 25.203125 
Q 15.484375 15.921875 20.484375 11.0625 
Q 25.484375 6.203125 34.421875 6.203125 
Q 39.59375 6.203125 44.453125 7.46875 
Q 49.3125 8.734375 54.109375 11.28125 
L 54.109375 2.78125 
Q 49.265625 0.734375 44.1875 -0.34375 
Q 39.109375 -1.421875 33.890625 -1.421875 
Q 20.796875 -1.421875 13.15625 6.1875 
Q 5.515625 13.8125 5.515625 26.8125 
Q 5.515625 40.234375 12.765625 48.109375 
Q 20.015625 56 32.328125 56 
Q 43.359375 56 49.78125 48.890625 
Q 56.203125 41.796875 56.203125 29.59375 
z
M 47.21875 32.234375 
Q 47.125 39.59375 43.09375 43.984375 
Q 39.0625 48.390625 32.421875 48.390625 
Q 24.90625 48.390625 20.390625 44.140625 
Q 15.875 39.890625 15.1875 32.171875 
z
" id="DejaVuSans-101"/>
     <path d="M 9.421875 54.6875 
L 18.40625 54.6875 
L 18.40625 0 
L 9.421875 0 
z
M 9.421875 75.984375 
L 18.40625 75.984375 
L 18.40625 64.59375 
L 9.421875 64.59375 
z
" id="DejaVuSans-105"/>
     <path d="M 48.78125 52.59375 
L 48.78125 44.1875 
Q 44.96875 46.296875 41.140625 47.34375 
Q 37.3125 48.390625 33.40625 48.390625 
Q 24.65625 48.390625 19.8125 42.84375 
Q 14.984375 37.3125 14.984375 27.296875 
Q 14.984375 17.28125 19.8125 11.734375 
Q 24.65625 6.203125 33.40625 6.203125 
Q 37.3125 6.203125 41.140625 7.25 
Q 44.96875 8.296875 48.78125 10.40625 
L 48.78125 2.09375 
Q 45.015625 0.34375 40.984375 -0.53125 
Q 36.96875 -1.421875 32.421875 -1.421875 
Q 20.0625 -1.421875 12.78125 6.34375 
Q 5.515625 14.109375 5.515625 27.296875 
Q 5.515625 40.671875 12.859375 48.328125 
Q 20.21875 56 33.015625 56 
Q 37.15625 56 41.109375 55.140625 
Q 45.0625 54.296875 48.78125 52.59375 
z
" id="DejaVuSans-99"/>
     <path id="DejaVuSans-32"/>
     <path d="M 45.40625 46.390625 
L 45.40625 75.984375 
L 54.390625 75.984375 
L 54.390625 0 
L 45.40625 0 
L 45.40625 8.203125 
Q 42.578125 3.328125 38.25 0.953125 
Q 33.9375 -1.421875 27.875 -1.421875 
Q 17.96875 -1.421875 11.734375 6.484375 
Q 5.515625 14.40625 5.515625 27.296875 
Q 5.515625 40.1875 11.734375 48.09375 
Q 17.96875 56 27.875 56 
Q 33.9375 56 38.25 53.625 
Q 42.578125 51.265625 45.40625 46.390625 
z
M 14.796875 27.296875 
Q 14.796875 17.390625 18.875 11.75 
Q 22.953125 6.109375 30.078125 6.109375 
Q 37.203125 6.109375 41.296875 11.75 
Q 45.40625 17.390625 45.40625 27.296875 
Q 45.40625 37.203125 41.296875 42.84375 
Q 37.203125 48.484375 30.078125 48.484375 
Q 22.953125 48.484375 18.875 42.84375 
Q 14.796875 37.203125 14.796875 27.296875 
z
" id="DejaVuSans-100"/>
     <path d="M 34.28125 27.484375 
Q 23.390625 27.484375 19.1875 25 
Q 14.984375 22.515625 14.984375 16.5 
Q 14.984375 11.71875 18.140625 8.90625 
Q 21.296875 6.109375 26.703125 6.109375 
Q 34.1875 6.109375 38.703125 11.40625 
Q 43.21875 16.703125 43.21875 25.484375 
L 43.21875 27.484375 
z
M 52.203125 31.203125 
L 52.203125 0 
L 43.21875 0 
L 43.21875 8.296875 
Q 40.140625 3.328125 35.546875 0.953125 
Q 30.953125 -1.421875 24.3125 -1.421875 
Q 15.921875 -1.421875 10.953125 3.296875 
Q 6 8.015625 6 15.921875 
Q 6 25.140625 12.171875 29.828125 
Q 18.359375 34.515625 30.609375 34.515625 
L 43.21875 34.515625 
L 43.21875 35.40625 
Q 43.21875 41.609375 39.140625 45 
Q 35.0625 48.390625 27.6875 48.390625 
Q 23 48.390625 18.546875 47.265625 
Q 14.109375 46.140625 10.015625 43.890625 
L 10.015625 52.203125 
Q 14.9375 54.109375 19.578125 55.046875 
Q 24.21875 56 28.609375 56 
Q 40.484375 56 46.34375 49.84375 
Q 52.203125 43.703125 52.203125 31.203125 
z
" id="DejaVuSans-97"/>
     <path d="M 45.40625 27.984375 
Q 45.40625 37.75 41.375 43.109375 
Q 37.359375 48.484375 30.078125 48.484375 
Q 22.859375 48.484375 18.828125 43.109375 
Q 14.796875 37.75 14.796875 27.984375 
Q 14.796875 18.265625 18.828125 12.890625 
Q 22.859375 7.515625 30.078125 7.515625 
Q 37.359375 7.515625 41.375 12.890625 
Q 45.40625 18.265625 45.40625 27.984375 
z
M 54.390625 6.78125 
Q 54.390625 -7.171875 48.1875 -13.984375 
Q 42 -20.796875 29.203125 -20.796875 
Q 24.46875 -20.796875 20.265625 -20.09375 
Q 16.0625 -19.390625 12.109375 -17.921875 
L 12.109375 -9.1875 
Q 16.0625 -11.328125 19.921875 -12.34375 
Q 23.78125 -13.375 27.78125 -13.375 
Q 36.625 -13.375 41.015625 -8.765625 
Q 45.40625 -4.15625 45.40625 5.171875 
L 45.40625 9.625 
Q 42.625 4.78125 38.28125 2.390625 
Q 33.9375 0 27.875 0 
Q 17.828125 0 11.671875 7.65625 
Q 5.515625 15.328125 5.515625 27.984375 
Q 5.515625 40.671875 11.671875 48.328125 
Q 17.828125 56 27.875 56 
Q 33.9375 56 38.28125 53.609375 
Q 42.625 51.21875 45.40625 46.390625 
L 45.40625 54.6875 
L 54.390625 54.6875 
z
" id="DejaVuSans-103"/>
     <path d="M 41.109375 46.296875 
Q 39.59375 47.171875 37.8125 47.578125 
Q 36.03125 48 33.890625 48 
Q 26.265625 48 22.1875 43.046875 
Q 18.109375 38.09375 18.109375 28.8125 
L 18.109375 0 
L 9.078125 0 
L 9.078125 54.6875 
L 18.109375 54.6875 
L 18.109375 46.1875 
Q 20.953125 51.171875 25.484375 53.578125 
Q 30.03125 56 36.53125 56 
Q 37.453125 56 38.578125 55.875 
Q 39.703125 55.765625 41.0625 55.515625 
z
" id="DejaVuSans-114"/>
     <path d="M 30.609375 48.390625 
Q 23.390625 48.390625 19.1875 42.75 
Q 14.984375 37.109375 14.984375 27.296875 
Q 14.984375 17.484375 19.15625 11.84375 
Q 23.34375 6.203125 30.609375 6.203125 
Q 37.796875 6.203125 41.984375 11.859375 
Q 46.1875 17.53125 46.1875 27.296875 
Q 46.1875 37.015625 41.984375 42.703125 
Q 37.796875 48.390625 30.609375 48.390625 
z
M 30.609375 56 
Q 42.328125 56 49.015625 48.375 
Q 55.71875 40.765625 55.71875 27.296875 
Q 55.71875 13.875 49.015625 6.21875 
Q 42.328125 -1.421875 30.609375 -1.421875 
Q 18.84375 -1.421875 12.171875 6.21875 
Q 5.515625 13.875 5.515625 27.296875 
Q 5.515625 40.765625 12.171875 48.375 
Q 18.84375 56 30.609375 56 
z
" id="DejaVuSans-111"/>
     <path d="M 8.5 21.578125 
L 8.5 54.6875 
L 17.484375 54.6875 
L 17.484375 21.921875 
Q 17.484375 14.15625 20.5 10.265625 
Q 23.53125 6.390625 29.59375 6.390625 
Q 36.859375 6.390625 41.078125 11.03125 
Q 45.3125 15.671875 45.3125 23.6875 
L 45.3125 54.6875 
L 54.296875 54.6875 
L 54.296875 0 
L 45.3125 0 
L 45.3125 8.40625 
Q 42.046875 3.421875 37.71875 1 
Q 33.40625 -1.421875 27.6875 -1.421875 
Q 18.265625 -1.421875 13.375 4.4375 
Q 8.5 10.296875 8.5 21.578125 
z
M 31.109375 56 
z
" id="DejaVuSans-117"/>
    </defs>
    <g transform="translate(136.445156 23.916562)scale(0.22 -0.22)">
     <use xlink:href="#DejaVuSans-83"/>
     <use x="63.476562" xlink:href="#DejaVuSans-121"/>
     <use x="122.65625" xlink:href="#DejaVuSans-110"/>
     <use x="186.035156" xlink:href="#DejaVuSans-116"/>
     <use x="225.244141" xlink:href="#DejaVuSans-104"/>
     <use x="288.623047" xlink:href="#DejaVuSans-101"/>
     <use x="350.146484" xlink:href="#DejaVuSans-116"/>
     <use x="389.355469" xlink:href="#DejaVuSans-105"/>
     <use x="417.138672" xlink:href="#DejaVuSans-99"/>
     <use x="472.119141" xlink:href="#DejaVuSans-32"/>
     <use x="503.90625" xlink:href="#DejaVuSans-100"/>
     <use x="567.382812" xlink:href="#DejaVuSans-97"/>
     <use x="628.662109" xlink:href="#DejaVuSans-116"/>
     <use x="667.871094" xlink:href="#DejaVuSans-97"/>
     <use x="729.150391" xlink:href="#DejaVuSans-32"/>
     <use x="760.9375" xlink:href="#DejaVuSans-97"/>
     <use x="822.216797" xlink:href="#DejaVuSans-110"/>
     <use x="885.595703" xlink:href="#DejaVuSans-100"/>
     <use x="949.072266" xlink:href="#DejaVuSans-32"/>
     <use x="980.859375" xlink:href="#DejaVuSans-103"/>
     <use x="1044.335938" xlink:href="#DejaVuSans-114"/>
     <use x="1083.199219" xlink:href="#DejaVuSans-111"/>
     <use x="1144.380859" xlink:href="#DejaVuSans-117"/>
     <use x="1207.759766" xlink:href="#DejaVuSans-110"/>
     <use x="1271.138672" xlink:href="#DejaVuSans-100"/>
     <use x="1334.615234" xlink:href="#DejaVuSans-32"/>
     <use x="1366.402344" xlink:href="#DejaVuSans-116"/>
     <use x="1405.611328" xlink:href="#DejaVuSans-114"/>
     <use x="1446.724609" xlink:href="#DejaVuSans-117"/>
     <use x="1510.103516" xlink:href="#DejaVuSans-116"/>
     <use x="1549.3125" xlink:href="#DejaVuSans-104"/>
    </g>
   </g>
   <g id="legend_1">
    <g id="patch_7">
     <path d="M 457.179063 185.996563 
L 583.039062 185.996563 
Q 585.839062 185.996563 585.839062 183.196563 
L 585.839062 143.327188 
Q 585.839062 140.527188 583.039062 140.527188 
L 457.179063 140.527188 
Q 454.379063 140.527188 454.379063 143.327188 
L 454.379063 183.196563 
Q 454.379063 185.996563 457.179063 185.996563 
z
" style="fill:#ffffff;opacity:0.8;stroke:#cccccc;stroke-linejoin:miter;"/>
    </g>
    <g id="line2d_14">
     <path d="M 459.979063 151.865 
L 487.979063 151.865 
" style="fill:none;stroke:#800080;stroke-linecap:square;stroke-width:1.5;"/>
    </g>
    <g id="line2d_15"/>
    <g id="text_12">
     <!-- Exact post. -->
     <defs>
      <path d="M 9.8125 72.90625 
L 55.90625 72.90625 
L 55.90625 64.59375 
L 19.671875 64.59375 
L 19.671875 43.015625 
L 54.390625 43.015625 
L 54.390625 34.71875 
L 19.671875 34.71875 
L 19.671875 8.296875 
L 56.78125 8.296875 
L 56.78125 0 
L 9.8125 0 
z
" id="DejaVuSans-69"/>
      <path d="M 54.890625 54.6875 
L 35.109375 28.078125 
L 55.90625 0 
L 45.3125 0 
L 29.390625 21.484375 
L 13.484375 0 
L 2.875 0 
L 24.125 28.609375 
L 4.6875 54.6875 
L 15.28125 54.6875 
L 29.78125 35.203125 
L 44.28125 54.6875 
z
" id="DejaVuSans-120"/>
      <path d="M 18.109375 8.203125 
L 18.109375 -20.796875 
L 9.078125 -20.796875 
L 9.078125 54.6875 
L 18.109375 54.6875 
L 18.109375 46.390625 
Q 20.953125 51.265625 25.265625 53.625 
Q 29.59375 56 35.59375 56 
Q 45.5625 56 51.78125 48.09375 
Q 58.015625 40.1875 58.015625 27.296875 
Q 58.015625 14.40625 51.78125 6.484375 
Q 45.5625 -1.421875 35.59375 -1.421875 
Q 29.59375 -1.421875 25.265625 0.953125 
Q 20.953125 3.328125 18.109375 8.203125 
z
M 48.6875 27.296875 
Q 48.6875 37.203125 44.609375 42.84375 
Q 40.53125 48.484375 33.40625 48.484375 
Q 26.265625 48.484375 22.1875 42.84375 
Q 18.109375 37.203125 18.109375 27.296875 
Q 18.109375 17.390625 22.1875 11.75 
Q 26.265625 6.109375 33.40625 6.109375 
Q 40.53125 6.109375 44.609375 11.75 
Q 48.6875 17.390625 48.6875 27.296875 
z
" id="DejaVuSans-112"/>
      <path d="M 44.28125 53.078125 
L 44.28125 44.578125 
Q 40.484375 46.53125 36.375 47.5 
Q 32.28125 48.484375 27.875 48.484375 
Q 21.1875 48.484375 17.84375 46.4375 
Q 14.5 44.390625 14.5 40.28125 
Q 14.5 37.15625 16.890625 35.375 
Q 19.28125 33.59375 26.515625 31.984375 
L 29.59375 31.296875 
Q 39.15625 29.25 43.1875 25.515625 
Q 47.21875 21.78125 47.21875 15.09375 
Q 47.21875 7.46875 41.1875 3.015625 
Q 35.15625 -1.421875 24.609375 -1.421875 
Q 20.21875 -1.421875 15.453125 -0.5625 
Q 10.6875 0.296875 5.421875 2 
L 5.421875 11.28125 
Q 10.40625 8.6875 15.234375 7.390625 
Q 20.0625 6.109375 24.8125 6.109375 
Q 31.15625 6.109375 34.5625 8.28125 
Q 37.984375 10.453125 37.984375 14.40625 
Q 37.984375 18.0625 35.515625 20.015625 
Q 33.0625 21.96875 24.703125 23.78125 
L 21.578125 24.515625 
Q 13.234375 26.265625 9.515625 29.90625 
Q 5.8125 33.546875 5.8125 39.890625 
Q 5.8125 47.609375 11.28125 51.796875 
Q 16.75 56 26.8125 56 
Q 31.78125 56 36.171875 55.265625 
Q 40.578125 54.546875 44.28125 53.078125 
z
" id="DejaVuSans-115"/>
      <path d="M 10.6875 12.40625 
L 21 12.40625 
L 21 0 
L 10.6875 0 
z
" id="DejaVuSans-46"/>
     </defs>
     <g transform="translate(499.179063 156.765)scale(0.14 -0.14)">
      <use xlink:href="#DejaVuSans-69"/>
      <use x="63.183594" xlink:href="#DejaVuSans-120"/>
      <use x="122.363281" xlink:href="#DejaVuSans-97"/>
      <use x="183.642578" xlink:href="#DejaVuSans-99"/>
      <use x="238.623047" xlink:href="#DejaVuSans-116"/>
      <use x="277.832031" xlink:href="#DejaVuSans-32"/>
      <use x="309.619141" xlink:href="#DejaVuSans-112"/>
      <use x="373.095703" xlink:href="#DejaVuSans-111"/>
      <use x="434.277344" xlink:href="#DejaVuSans-115"/>
      <use x="486.376953" xlink:href="#DejaVuSans-116"/>
      <use x="525.585938" xlink:href="#DejaVuSans-46"/>
     </g>
    </g>
    <g id="PathCollection_2">
     <g>
      <use style="fill:#ff0000;stroke:#ff0000;stroke-width:1.5;" x="473.979063" xlink:href="#m379fe24fe8" y="173.641563"/>
     </g>
    </g>
    <g id="text_13">
     <!-- Observed $\mathbf{y}$ -->
     <defs>
      <path d="M 39.40625 66.21875 
Q 28.65625 66.21875 22.328125 58.203125 
Q 16.015625 50.203125 16.015625 36.375 
Q 16.015625 22.609375 22.328125 14.59375 
Q 28.65625 6.59375 39.40625 6.59375 
Q 50.140625 6.59375 56.421875 14.59375 
Q 62.703125 22.609375 62.703125 36.375 
Q 62.703125 50.203125 56.421875 58.203125 
Q 50.140625 66.21875 39.40625 66.21875 
z
M 39.40625 74.21875 
Q 54.734375 74.21875 63.90625 63.9375 
Q 73.09375 53.65625 73.09375 36.375 
Q 73.09375 19.140625 63.90625 8.859375 
Q 54.734375 -1.421875 39.40625 -1.421875 
Q 24.03125 -1.421875 14.8125 8.828125 
Q 5.609375 19.09375 5.609375 36.375 
Q 5.609375 53.65625 14.8125 63.9375 
Q 24.03125 74.21875 39.40625 74.21875 
z
" id="DejaVuSans-79"/>
      <path d="M 48.6875 27.296875 
Q 48.6875 37.203125 44.609375 42.84375 
Q 40.53125 48.484375 33.40625 48.484375 
Q 26.265625 48.484375 22.1875 42.84375 
Q 18.109375 37.203125 18.109375 27.296875 
Q 18.109375 17.390625 22.1875 11.75 
Q 26.265625 6.109375 33.40625 6.109375 
Q 40.53125 6.109375 44.609375 11.75 
Q 48.6875 17.390625 48.6875 27.296875 
z
M 18.109375 46.390625 
Q 20.953125 51.265625 25.265625 53.625 
Q 29.59375 56 35.59375 56 
Q 45.5625 56 51.78125 48.09375 
Q 58.015625 40.1875 58.015625 27.296875 
Q 58.015625 14.40625 51.78125 6.484375 
Q 45.5625 -1.421875 35.59375 -1.421875 
Q 29.59375 -1.421875 25.265625 0.953125 
Q 20.953125 3.328125 18.109375 8.203125 
L 18.109375 0 
L 9.078125 0 
L 9.078125 75.984375 
L 18.109375 75.984375 
z
" id="DejaVuSans-98"/>
      <path d="M 2.984375 54.6875 
L 12.5 54.6875 
L 29.59375 8.796875 
L 46.6875 54.6875 
L 56.203125 54.6875 
L 35.6875 0 
L 23.484375 0 
z
" id="DejaVuSans-118"/>
      <path d="M 1.21875 54.6875 
L 18.703125 54.6875 
L 33.40625 17.578125 
L 45.90625 54.6875 
L 63.375 54.6875 
L 40.375 -5.171875 
Q 36.921875 -14.3125 32.296875 -17.9375 
Q 27.6875 -21.578125 20.125 -21.578125 
L 10.015625 -21.578125 
L 10.015625 -10.109375 
L 15.484375 -10.109375 
Q 19.921875 -10.109375 21.9375 -8.6875 
Q 23.96875 -7.28125 25.09375 -3.609375 
L 25.59375 -2.09375 
z
" id="DejaVuSans-Bold-121"/>
     </defs>
     <g transform="translate(499.179063 177.316563)scale(0.14 -0.14)">
      <use transform="translate(0 0.015625)" xlink:href="#DejaVuSans-79"/>
      <use transform="translate(78.710938 0.015625)" xlink:href="#DejaVuSans-98"/>
      <use transform="translate(142.1875 0.015625)" xlink:href="#DejaVuSans-115"/>
      <use transform="translate(194.287109 0.015625)" xlink:href="#DejaVuSans-101"/>
      <use transform="translate(255.810547 0.015625)" xlink:href="#DejaVuSans-114"/>
      <use transform="translate(296.923828 0.015625)" xlink:href="#DejaVuSans-118"/>
      <use transform="translate(356.103516 0.015625)" xlink:href="#DejaVuSans-101"/>
      <use transform="translate(417.626953 0.015625)" xlink:href="#DejaVuSans-100"/>
      <use transform="translate(481.103516 0.015625)" xlink:href="#DejaVuSans-32"/>
      <use transform="translate(512.890625 0.015625)" xlink:href="#DejaVuSans-Bold-121"/>
     </g>
    </g>
   </g>
  </g>
 </g>
 <defs>
  <clipPath id="p6ee28bf780">
   <rect height="163.08" width="558" x="34.839063" y="29.916562"/>
  </clipPath>
 </defs>
</svg>
