<?xml version="1.0" encoding="utf-8" standalone="no"?>
<!DOCTYPE svg PUBLIC "-//W3C//DTD SVG 1.1//EN"
  "http://www.w3.org/Graphics/SVG/1.1/DTD/svg11.dtd">
<!-- Created with matplotlib (https://matplotlib.org/) -->
<svg height="217.706563pt" version="1.1" viewBox="0 0 600.039062 217.706563" width="600.039062pt" xmlns="http://www.w3.org/2000/svg" xmlns:xlink="http://www.w3.org/1999/xlink">
 <defs>
  <style type="text/css">
*{stroke-linecap:butt;stroke-linejoin:round;}
  </style>
 </defs>
 <g id="figure_1">
  <g id="patch_1">
   <path d="M 0 217.706563 
L 600.039062 217.706563 
L 600.039062 -0 
L 0 -0 
z
" style="fill:none;"/>
  </g>
  <g id="axes_1">
   <g id="patch_2">
    <path d="M 34.839063 189.957188 
L 592.839062 189.957188 
L 592.839062 26.877187 
L 34.839063 26.877187 
z
" style="fill:#ffffff;"/>
   </g>
   <g id="PolyCollection_1">
    <defs>
     <path d="M 34.839063 -163.107829 
L 34.839063 -108.477204 
L 40.475432 -108.014718 
L 46.111785 -107.301676 
L 51.748154 -106.247614 
L 57.384523 -104.757268 
L 63.020876 -102.748154 
L 68.657245 -100.176634 
L 74.293615 -97.070164 
L 79.929967 -93.559505 
L 85.566337 -89.901239 
L 91.202689 -86.479145 
L 96.839059 -83.773957 
L 102.475428 -82.297319 
L 108.111797 -82.495009 
L 113.74815 -84.637218 
L 119.38452 -88.724712 
L 125.020872 -94.444726 
L 130.657242 -101.204248 
L 136.293611 -108.247174 
L 141.92998 -114.832034 
L 147.566333 -120.41718 
L 153.202702 -124.78722 
L 158.839055 -128.066245 
L 164.475424 -130.60267 
L 170.111794 -132.771773 
L 175.748147 -134.834729 
L 181.384516 -136.965211 
L 187.020885 -139.168333 
L 192.657238 -141.135332 
L 198.293607 -142.449527 
L 203.929977 -142.918536 
L 209.566329 -142.751287 
L 215.202699 -142.507235 
L 220.839068 -142.8678 
L 226.475421 -144.345031 
L 232.11179 -147.043732 
L 237.748159 -150.552291 
L 243.384512 -153.98245 
L 249.020882 -156.160984 
L 254.657251 -156.01214 
L 260.293604 -152.980655 
L 265.929973 -147.169074 
L 271.566342 -139.233337 
L 277.202695 -130.18533 
L 282.839064 -121.146963 
L 288.475434 -113.110461 
L 294.111786 -106.764409 
L 299.748156 -102.419172 
L 305.384525 -100.03026 
L 311.020878 -99.2911 
L 316.657231 -99.755798 
L 322.2936 -100.95504 
L 327.929969 -102.480787 
L 333.566339 -104.030951 
L 339.202708 -105.41809 
L 344.839077 -106.553568 
L 350.475413 -107.420197 
L 356.111783 -108.043812 
L 361.748152 -108.469911 
L 367.384521 -108.747706 
L 373.020891 -108.92111 
L 378.65726 -109.025014 
L 384.293596 -109.084895 
L 389.929966 -109.118138 
L 395.566335 -109.135938 
L 401.202704 -109.145139 
L 406.839074 -109.149734 
L 412.47541 -109.151954 
L 418.111779 -109.152992 
L 423.748148 -109.153461 
L 429.384518 -109.153667 
L 435.020887 -109.153754 
L 440.657256 -109.15379 
L 446.293593 -109.153804 
L 451.929962 -109.15381 
L 457.566331 -109.153812 
L 463.202701 -109.153813 
L 468.83907 -109.153813 
L 474.475439 -109.153813 
L 480.111775 -109.153813 
L 485.748145 -109.153813 
L 491.384514 -109.153813 
L 497.020883 -109.153813 
L 502.657253 -109.153813 
L 508.293622 -109.153813 
L 513.929958 -109.153813 
L 519.566328 -109.153813 
L 525.202697 -109.153813 
L 530.839066 -109.153813 
L 536.475436 -109.153813 
L 542.111805 -109.153813 
L 547.748141 -109.153813 
L 553.38451 -109.153813 
L 559.02088 -109.153813 
L 564.657249 -109.153813 
L 570.293618 -109.153813 
L 575.929988 -109.153813 
L 581.566324 -109.153813 
L 587.202693 -109.153813 
L 592.839062 -109.153813 
L 592.839062 -163.784937 
L 592.839062 -163.784937 
L 587.202693 -163.784937 
L 581.566324 -163.784937 
L 575.929988 -163.784937 
L 570.293618 -163.784937 
L 564.657249 -163.784937 
L 559.02088 -163.784937 
L 553.38451 -163.784937 
L 547.748141 -163.784937 
L 542.111805 -163.784937 
L 536.475436 -163.784937 
L 530.839066 -163.784937 
L 525.202697 -163.784937 
L 519.566328 -163.784937 
L 513.929958 -163.784937 
L 508.293622 -163.784937 
L 502.657253 -163.784937 
L 497.020883 -163.784937 
L 491.384514 -163.784937 
L 485.748145 -163.784937 
L 480.111775 -163.784937 
L 474.475439 -163.784937 
L 468.83907 -163.784937 
L 463.202701 -163.784937 
L 457.566331 -163.784936 
L 451.929962 -163.784934 
L 446.293593 -163.784928 
L 440.657256 -163.784914 
L 435.020887 -163.784878 
L 429.384518 -163.784791 
L 423.748148 -163.784585 
L 418.111779 -163.784115 
L 412.47541 -163.783078 
L 406.839074 -163.780858 
L 401.202704 -163.776262 
L 395.566335 -163.767061 
L 389.929966 -163.749258 
L 384.293596 -163.716004 
L 378.65726 -163.656083 
L 373.020891 -163.55204 
L 367.384521 -163.37819 
L 361.748152 -163.099052 
L 356.111783 -162.669158 
L 350.475413 -162.035521 
L 344.839077 -161.14415 
L 339.202708 -159.951642 
L 333.566339 -158.441893 
L 327.929969 -156.646054 
L 322.2936 -154.661736 
L 316.657231 -152.665112 
L 311.020878 -150.908161 
L 305.384525 -149.693626 
L 299.748156 -149.323836 
L 294.111786 -150.026654 
L 288.475434 -151.872241 
L 282.839064 -154.704672 
L 277.202695 -158.117616 
L 271.566342 -161.498901 
L 265.929973 -164.151833 
L 260.293604 -165.474207 
L 254.657251 -165.143676 
L 249.020882 -163.221699 
L 243.384512 -160.098602 
L 237.748159 -156.379636 
L 232.11179 -152.81309 
L 226.475421 -150.091081 
L 220.839068 -148.576625 
L 215.202699 -148.168761 
L 209.566329 -148.375641 
L 203.929977 -148.542485 
L 198.293607 -148.121292 
L 192.657238 -146.871312 
L 187.020885 -144.935811 
L 181.384516 -142.804966 
L 175.748147 -141.197104 
L 170.111794 -140.777089 
L 164.475424 -141.694454 
L 158.839055 -143.483419 
L 153.202702 -145.365505 
L 147.566333 -146.558133 
L 141.92998 -146.518745 
L 136.293611 -145.099113 
L 130.657242 -142.571555 
L 125.020872 -139.528386 
L 119.38452 -136.6986 
L 113.74815 -134.747251 
L 108.111797 -134.11882 
L 102.475428 -134.961858 
L 96.839059 -137.141041 
L 91.202689 -140.315456 
L 85.566337 -144.047391 
L 79.929967 -147.906116 
L 74.293615 -151.542163 
L 68.657245 -154.723482 
L 63.020876 -157.337213 
L 57.384523 -159.368666 
L 51.748154 -160.870062 
L 46.111785 -161.929225 
L 40.475432 -162.644462 
L 34.839063 -163.107829 
z
" id="m3ec008123b" style="stroke:#808080;stroke-opacity:0.3;"/>
    </defs>
    <g clip-path="url(#p0887149176)">
     <use style="fill:#808080;fill-opacity:0.3;stroke:#808080;stroke-opacity:0.3;" x="0" xlink:href="#m3ec008123b" y="217.706563"/>
    </g>
   </g>
   <g id="line2d_1">
    <path clip-path="url(#p0887149176)" d="M 34.839063 81.914046 
L 40.475432 82.376973 
L 46.111785 83.091112 
L 51.748154 84.147725 
L 57.384523 85.643596 
L 63.020876 87.663879 
L 68.657245 90.256504 
L 74.293615 93.400399 
L 79.929967 96.973752 
L 85.566337 100.732247 
L 91.202689 104.309262 
L 96.839059 107.249063 
L 102.475428 109.076974 
L 108.111797 109.399648 
L 113.74815 108.014328 
L 119.38452 104.994906 
L 125.020872 100.720007 
L 130.657242 95.818661 
L 136.293611 91.033419 
L 141.92998 87.031173 
L 147.566333 84.218906 
L 153.202702 82.6302 
L 158.839055 81.931731 
L 164.475424 81.558001 
L 170.111794 80.932132 
L 175.748147 79.690646 
L 181.384516 77.821474 
L 187.020885 75.65449 
L 192.657238 73.703241 
L 198.293607 72.421153 
L 203.929977 71.976052 
L 209.566329 72.143099 
L 215.202699 72.368564 
L 220.839068 71.98435 
L 226.475421 70.488507 
L 232.11179 67.778152 
L 237.748159 64.240599 
L 243.384512 60.666036 
L 249.020882 58.015221 
L 254.657251 57.128654 
L 260.293604 58.479131 
L 265.929973 62.046109 
L 271.566342 67.340443 
L 277.202695 73.555089 
L 282.839064 79.780745 
L 288.475434 85.215211 
L 294.111786 89.311031 
L 299.748156 91.835059 
L 305.384525 92.84462 
L 311.020878 92.606932 
L 316.657231 91.496107 
L 322.2936 89.898174 
L 327.929969 88.143142 
L 333.566339 86.470141 
L 339.202708 85.021697 
L 344.839077 83.857704 
L 350.475413 82.978704 
L 356.111783 82.350077 
L 361.748152 81.922081 
L 367.384521 81.643614 
L 373.020891 81.469987 
L 378.65726 81.366014 
L 384.293596 81.306113 
L 389.929966 81.272864 
L 395.566335 81.255063 
L 401.202704 81.245862 
L 406.839074 81.241266 
L 412.47541 81.239046 
L 418.111779 81.238009 
L 423.748148 81.23754 
L 429.384518 81.237334 
L 435.020887 81.237247 
L 440.657256 81.237211 
L 446.293593 81.237196 
L 451.929962 81.237191 
L 457.566331 81.237189 
L 463.202701 81.237188 
L 468.83907 81.237188 
L 474.475439 81.237188 
L 480.111775 81.237188 
L 485.748145 81.237188 
L 491.384514 81.237188 
L 497.020883 81.237188 
L 502.657253 81.237188 
L 508.293622 81.237188 
L 513.929958 81.237188 
L 519.566328 81.237188 
L 525.202697 81.237188 
L 530.839066 81.237188 
L 536.475436 81.237188 
L 542.111805 81.237188 
L 547.748141 81.237188 
L 553.38451 81.237188 
L 559.02088 81.237188 
L 564.657249 81.237188 
L 570.293618 81.237188 
L 575.929988 81.237188 
L 581.566324 81.237188 
L 587.202693 81.237188 
L 592.839062 81.237188 
" style="fill:none;stroke:#000000;stroke-linecap:square;stroke-width:1.5;"/>
   </g>
   <g id="line2d_2">
    <path clip-path="url(#p0887149176)" d="M 34.839063 108.564943 
L 40.475426 108.575645 
L 46.11179 108.594504 
L 51.748153 108.626665 
L 57.384517 108.679671 
L 63.020881 108.763937 
L 68.657244 108.892831 
L 74.293608 109.081888 
L 79.929972 109.346598 
L 85.566335 109.698188 
L 91.202699 110.137161 
L 96.839063 110.645019 
L 102.475426 111.175586 
L 108.11179 111.648396 
L 113.748153 111.947104 
L 119.384517 111.925623 
L 125.020881 111.423373 
L 130.657244 110.288993 
L 136.293608 108.409565 
L 141.929972 105.740401 
L 147.566335 102.329306 
L 153.202699 98.329675 
L 158.839063 93.999026 
L 164.475426 89.682602 
L 170.11179 85.774705 
L 175.748153 82.602871 
L 181.384517 80.21721 
L 187.020881 78.433935 
L 192.657244 77.109045 
L 198.293608 76.161934 
L 203.929972 75.475666 
L 209.566335 74.857554 
L 215.202699 74.075414 
L 220.839063 72.932056 
L 226.475426 71.33317 
L 232.11179 69.32524 
L 237.748153 67.100937 
L 243.384517 64.975255 
L 249.020881 63.33567 
L 254.657244 62.57313 
L 260.293608 63.007136 
L 265.929972 64.822108 
L 271.566335 68.029463 
L 277.202699 72.461377 
L 282.839063 77.79299 
L 288.475426 83.583858 
L 294.11179 89.327981 
L 299.748153 94.50577 
L 305.384517 98.638669 
L 311.020881 101.348498 
L 316.657244 102.413832 
L 322.293608 101.806952 
L 327.929972 99.698106 
L 333.566335 96.425383 
L 339.202699 92.440756 
L 344.839063 88.247568 
L 350.475426 84.33827 
L 356.11179 81.133744 
L 361.748153 78.927731 
L 367.384517 77.84763 
L 373.020881 77.846471 
L 378.657244 78.733987 
L 384.293608 80.238596 
L 389.929972 82.07842 
L 395.566335 84.01772 
L 401.202699 85.894182 
L 406.839063 87.618376 
L 412.475426 89.159981 
L 418.11179 90.531866 
L 423.748153 91.769069 
L 429.384517 92.898579 
L 435.020881 93.913444 
L 440.657244 94.785412 
L 446.293608 95.548232 
L 451.929972 96.399258 
L 457.566335 97.57786 
L 463.202699 99.100087 
L 468.839063 100.819634 
L 474.475426 102.577307 
L 480.11179 104.24056 
L 485.748153 105.708255 
L 491.384517 106.913994 
L 497.020881 107.828242 
L 502.657244 108.456483 
L 508.293608 108.832688 
L 513.929972 109.009235 
L 519.566335 109.045481 
L 525.202699 108.997449 
L 530.839063 108.910586 
L 536.475426 108.816493 
L 542.11179 108.733302 
L 547.748153 108.668476 
L 553.384517 108.622531 
L 559.020881 108.592431 
L 564.657244 108.574036 
L 570.293608 108.563497 
L 575.929972 108.557825 
L 581.566335 108.554963 
L 587.202699 108.553616 
L 592.839062 108.553034 
" style="fill:none;stroke:#800080;stroke-dasharray:5.55,2.4;stroke-dashoffset:0;stroke-width:1.5;"/>
   </g>
   <g id="line2d_3">
    <path clip-path="url(#p0887149176)" d="M 34.839063 81.249393 
L 40.475426 81.260123 
L 46.11179 81.279071 
L 51.748153 81.311496 
L 57.384517 81.365239 
L 63.020881 81.451448 
L 68.657244 81.585164 
L 74.293608 81.785499 
L 79.929972 82.075028 
L 85.566335 82.477989 
L 91.202699 83.016924 
L 96.839063 83.707594 
L 102.475426 84.552411 
L 108.11179 85.533177 
L 113.748153 86.60456 
L 119.384517 87.690274 
L 125.020881 88.684123 
L 130.657244 89.457674 
L 136.293608 89.875237 
L 141.929972 89.815087 
L 147.566335 89.193777 
L 153.202699 87.988538 
L 158.839063 86.251837 
L 164.475426 84.112685 
L 170.11179 81.761567 
L 175.748153 79.419585 
L 181.384517 77.296742 
L 187.020881 75.548056 
L 192.657244 74.238129 
L 198.293608 73.324005 
L 203.929972 72.662613 
L 209.566335 72.04333 
L 215.202699 71.239859 
L 220.839063 70.070298 
L 226.475426 68.45152 
L 232.11179 66.434715 
L 237.748153 64.212961 
L 243.384517 62.09801 
L 249.020881 60.470421 
L 254.657244 59.713034 
L 260.293608 60.141058 
L 265.929972 61.94222 
L 271.566335 65.13762 
L 277.202699 69.569245 
L 282.839063 74.914771 
L 288.475426 80.725727 
L 294.11179 86.482097 
L 299.748153 91.655206 
L 305.384517 95.77096 
L 311.020881 98.466379 
L 316.657244 99.533446 
L 322.293608 98.945208 
L 327.929972 96.860189 
L 333.566335 93.602924 
L 339.202699 89.621272 
L 344.839063 85.425009 
L 350.475426 81.514329 
L 356.11179 78.310063 
L 361.748153 76.098373 
L 367.384517 75.000562 
L 373.020881 74.973613 
L 378.657244 75.840237 
L 384.293608 77.340428 
L 389.929972 79.191751 
L 395.566335 81.144241 
L 401.202699 83.018166 
L 406.839063 84.71827 
L 412.475426 86.224745 
L 418.11179 87.567131 
L 423.748153 88.790977 
L 429.384517 89.927659 
L 435.020881 90.975334 
L 440.657244 91.894766 
L 446.293608 92.619038 
L 451.929972 93.072426 
L 457.566335 93.191868 
L 463.202699 92.944699 
L 468.839063 92.338284 
L 474.475426 91.419991 
L 480.11179 90.26869 
L 485.748153 88.980872 
L 491.384517 87.65523 
L 497.020881 86.379182 
L 502.657244 85.219637 
L 508.293608 84.218891 
L 513.929972 83.395203 
L 519.566335 82.746794 
L 525.202699 82.257617 
L 530.839063 81.903441 
L 536.475426 81.657113 
L 542.11179 81.492464 
L 547.748153 81.386685 
L 553.384517 81.321386 
L 559.020881 81.282683 
L 564.657244 81.26069 
L 570.293608 81.248733 
L 575.929972 81.242535 
L 581.566335 81.239489 
L 587.202699 81.238081 
L 592.839062 81.237479 
" style="fill:none;stroke:#800080;stroke-linecap:square;stroke-width:1.5;"/>
   </g>
   <g id="line2d_4">
    <path clip-path="url(#p0887149176)" d="M 34.839063 53.933843 
L 40.475426 53.944602 
L 46.11179 53.963638 
L 51.748153 53.996328 
L 57.384517 54.050808 
L 63.020881 54.138959 
L 68.657244 54.277498 
L 74.293608 54.489111 
L 79.929972 54.803458 
L 85.566335 55.25779 
L 91.202699 55.896686 
L 96.839063 56.770169 
L 102.475426 57.929236 
L 108.11179 59.417958 
L 113.748153 61.262016 
L 119.384517 63.454925 
L 125.020881 65.944874 
L 130.657244 68.626356 
L 136.293608 71.340909 
L 141.929972 73.889774 
L 147.566335 76.058249 
L 153.202699 77.647401 
L 158.839063 78.504649 
L 164.475426 78.542768 
L 170.11179 77.74843 
L 175.748153 76.236298 
L 181.384517 74.376273 
L 187.020881 72.662178 
L 192.657244 71.367213 
L 198.293608 70.486076 
L 203.929972 69.849561 
L 209.566335 69.229106 
L 215.202699 68.404303 
L 220.839063 67.20854 
L 226.475426 65.56987 
L 232.11179 63.544189 
L 237.748153 61.324985 
L 243.384517 59.220765 
L 249.020881 57.605172 
L 254.657244 56.852938 
L 260.293608 57.27498 
L 265.929972 59.062332 
L 271.566335 62.245777 
L 277.202699 66.677114 
L 282.839063 72.036552 
L 288.475426 77.867597 
L 294.11179 83.636212 
L 299.748153 88.804642 
L 305.384517 92.903251 
L 311.020881 95.58426 
L 316.657244 96.65306 
L 322.293608 96.083463 
L 327.929972 94.022272 
L 333.566335 90.780465 
L 339.202699 86.801788 
L 344.839063 82.602451 
L 350.475426 78.690388 
L 356.11179 75.486383 
L 361.748153 73.269016 
L 367.384517 72.153493 
L 373.020881 72.100754 
L 378.657244 72.946487 
L 384.293608 74.44226 
L 389.929972 76.305083 
L 395.566335 78.270762 
L 401.202699 80.14215 
L 406.839063 81.818163 
L 412.475426 83.289509 
L 418.11179 84.602396 
L 423.748153 85.812886 
L 429.384517 86.956738 
L 435.020881 88.037224 
L 440.657244 89.00412 
L 446.293608 89.689843 
L 451.929972 89.745593 
L 457.566335 88.805876 
L 463.202699 86.789312 
L 468.839063 83.856934 
L 474.475426 80.262675 
L 480.11179 76.296819 
L 485.748153 72.253488 
L 491.384517 68.396466 
L 497.020881 64.930121 
L 502.657244 61.982791 
L 508.293608 59.605094 
L 513.929972 57.781172 
L 519.566335 56.448106 
L 525.202699 55.517786 
L 530.839063 54.896295 
L 536.475426 54.497733 
L 542.11179 54.251627 
L 547.748153 54.104893 
L 553.384517 54.02024 
L 559.020881 53.972935 
L 564.657244 53.947343 
L 570.293608 53.933969 
L 575.929972 53.927245 
L 581.566335 53.924014 
L 587.202699 53.922546 
L 592.839062 53.921925 
" style="fill:none;stroke:#800080;stroke-dasharray:5.55,2.4;stroke-dashoffset:0;stroke-width:1.5;"/>
   </g>
   <g id="matplotlib.axis_1">
    <g id="xtick_1">
     <g id="line2d_5">
      <defs>
       <path d="M 0 0 
L 0 3.5 
" id="m58d8007f3e" style="stroke:#000000;stroke-width:0.8;"/>
      </defs>
      <g>
       <use style="stroke:#000000;stroke-width:0.8;" x="104.589063" xlink:href="#m58d8007f3e" y="189.957188"/>
      </g>
     </g>
     <g id="text_1">
      <!-- −6 -->
      <defs>
       <path d="M 10.59375 35.5 
L 73.1875 35.5 
L 73.1875 27.203125 
L 10.59375 27.203125 
z
" id="DejaVuSans-8722"/>
       <path d="M 33.015625 40.375 
Q 26.375 40.375 22.484375 35.828125 
Q 18.609375 31.296875 18.609375 23.390625 
Q 18.609375 15.53125 22.484375 10.953125 
Q 26.375 6.390625 33.015625 6.390625 
Q 39.65625 6.390625 43.53125 10.953125 
Q 47.40625 15.53125 47.40625 23.390625 
Q 47.40625 31.296875 43.53125 35.828125 
Q 39.65625 40.375 33.015625 40.375 
z
M 52.59375 71.296875 
L 52.59375 62.3125 
Q 48.875 64.0625 45.09375 64.984375 
Q 41.3125 65.921875 37.59375 65.921875 
Q 27.828125 65.921875 22.671875 59.328125 
Q 17.53125 52.734375 16.796875 39.40625 
Q 19.671875 43.65625 24.015625 45.921875 
Q 28.375 48.1875 33.59375 48.1875 
Q 44.578125 48.1875 50.953125 41.515625 
Q 57.328125 34.859375 57.328125 23.390625 
Q 57.328125 12.15625 50.6875 5.359375 
Q 44.046875 -1.421875 33.015625 -1.421875 
Q 20.359375 -1.421875 13.671875 8.265625 
Q 6.984375 17.96875 6.984375 36.375 
Q 6.984375 53.65625 15.1875 63.9375 
Q 23.390625 74.21875 37.203125 74.21875 
Q 40.921875 74.21875 44.703125 73.484375 
Q 48.484375 72.75 52.59375 71.296875 
z
" id="DejaVuSans-54"/>
      </defs>
      <g transform="translate(94.269531 207.595)scale(0.14 -0.14)">
       <use xlink:href="#DejaVuSans-8722"/>
       <use x="83.789062" xlink:href="#DejaVuSans-54"/>
      </g>
     </g>
    </g>
    <g id="xtick_2">
     <g id="line2d_6">
      <g>
       <use style="stroke:#000000;stroke-width:0.8;" x="244.089063" xlink:href="#m58d8007f3e" y="189.957188"/>
      </g>
     </g>
     <g id="text_2">
      <!-- −2 -->
      <defs>
       <path d="M 19.1875 8.296875 
L 53.609375 8.296875 
L 53.609375 0 
L 7.328125 0 
L 7.328125 8.296875 
Q 12.9375 14.109375 22.625 23.890625 
Q 32.328125 33.6875 34.8125 36.53125 
Q 39.546875 41.84375 41.421875 45.53125 
Q 43.3125 49.21875 43.3125 52.78125 
Q 43.3125 58.59375 39.234375 62.25 
Q 35.15625 65.921875 28.609375 65.921875 
Q 23.96875 65.921875 18.8125 64.3125 
Q 13.671875 62.703125 7.8125 59.421875 
L 7.8125 69.390625 
Q 13.765625 71.78125 18.9375 73 
Q 24.125 74.21875 28.421875 74.21875 
Q 39.75 74.21875 46.484375 68.546875 
Q 53.21875 62.890625 53.21875 53.421875 
Q 53.21875 48.921875 51.53125 44.890625 
Q 49.859375 40.875 45.40625 35.40625 
Q 44.1875 33.984375 37.640625 27.21875 
Q 31.109375 20.453125 19.1875 8.296875 
z
" id="DejaVuSans-50"/>
      </defs>
      <g transform="translate(233.769531 207.595)scale(0.14 -0.14)">
       <use xlink:href="#DejaVuSans-8722"/>
       <use x="83.789062" xlink:href="#DejaVuSans-50"/>
      </g>
     </g>
    </g>
    <g id="xtick_3">
     <g id="line2d_7">
      <g>
       <use style="stroke:#000000;stroke-width:0.8;" x="383.589063" xlink:href="#m58d8007f3e" y="189.957188"/>
      </g>
     </g>
     <g id="text_3">
      <!-- 2 -->
      <g transform="translate(379.135312 207.595)scale(0.14 -0.14)">
       <use xlink:href="#DejaVuSans-50"/>
      </g>
     </g>
    </g>
    <g id="xtick_4">
     <g id="line2d_8">
      <g>
       <use style="stroke:#000000;stroke-width:0.8;" x="523.089062" xlink:href="#m58d8007f3e" y="189.957188"/>
      </g>
     </g>
     <g id="text_4">
      <!-- 6 -->
      <g transform="translate(518.635312 207.595)scale(0.14 -0.14)">
       <use xlink:href="#DejaVuSans-54"/>
      </g>
     </g>
    </g>
   </g>
   <g id="matplotlib.axis_2">
    <g id="ytick_1">
     <g id="line2d_9">
      <defs>
       <path d="M 0 0 
L -3.5 0 
" id="maeb4640882" style="stroke:#000000;stroke-width:0.8;"/>
      </defs>
      <g>
       <use style="stroke:#000000;stroke-width:0.8;" x="34.839063" xlink:href="#maeb4640882" y="162.777188"/>
      </g>
     </g>
     <g id="text_5">
      <!-- −6 -->
      <g transform="translate(7.2 168.096094)scale(0.14 -0.14)">
       <use xlink:href="#DejaVuSans-8722"/>
       <use x="83.789062" xlink:href="#DejaVuSans-54"/>
      </g>
     </g>
    </g>
    <g id="ytick_2">
     <g id="line2d_10">
      <g>
       <use style="stroke:#000000;stroke-width:0.8;" x="34.839063" xlink:href="#maeb4640882" y="122.007188"/>
      </g>
     </g>
     <g id="text_6">
      <!-- −3 -->
      <defs>
       <path d="M 40.578125 39.3125 
Q 47.65625 37.796875 51.625 33 
Q 55.609375 28.21875 55.609375 21.1875 
Q 55.609375 10.40625 48.1875 4.484375 
Q 40.765625 -1.421875 27.09375 -1.421875 
Q 22.515625 -1.421875 17.65625 -0.515625 
Q 12.796875 0.390625 7.625 2.203125 
L 7.625 11.71875 
Q 11.71875 9.328125 16.59375 8.109375 
Q 21.484375 6.890625 26.8125 6.890625 
Q 36.078125 6.890625 40.9375 10.546875 
Q 45.796875 14.203125 45.796875 21.1875 
Q 45.796875 27.640625 41.28125 31.265625 
Q 36.765625 34.90625 28.71875 34.90625 
L 20.21875 34.90625 
L 20.21875 43.015625 
L 29.109375 43.015625 
Q 36.375 43.015625 40.234375 45.921875 
Q 44.09375 48.828125 44.09375 54.296875 
Q 44.09375 59.90625 40.109375 62.90625 
Q 36.140625 65.921875 28.71875 65.921875 
Q 24.65625 65.921875 20.015625 65.03125 
Q 15.375 64.15625 9.8125 62.3125 
L 9.8125 71.09375 
Q 15.4375 72.65625 20.34375 73.4375 
Q 25.25 74.21875 29.59375 74.21875 
Q 40.828125 74.21875 47.359375 69.109375 
Q 53.90625 64.015625 53.90625 55.328125 
Q 53.90625 49.265625 50.4375 45.09375 
Q 46.96875 40.921875 40.578125 39.3125 
z
" id="DejaVuSans-51"/>
      </defs>
      <g transform="translate(7.2 127.326094)scale(0.14 -0.14)">
       <use xlink:href="#DejaVuSans-8722"/>
       <use x="83.789062" xlink:href="#DejaVuSans-51"/>
      </g>
     </g>
    </g>
    <g id="ytick_3">
     <g id="line2d_11">
      <g>
       <use style="stroke:#000000;stroke-width:0.8;" x="34.839063" xlink:href="#maeb4640882" y="81.237188"/>
      </g>
     </g>
     <g id="text_7">
      <!-- 0 -->
      <defs>
       <path d="M 31.78125 66.40625 
Q 24.171875 66.40625 20.328125 58.90625 
Q 16.5 51.421875 16.5 36.375 
Q 16.5 21.390625 20.328125 13.890625 
Q 24.171875 6.390625 31.78125 6.390625 
Q 39.453125 6.390625 43.28125 13.890625 
Q 47.125 21.390625 47.125 36.375 
Q 47.125 51.421875 43.28125 58.90625 
Q 39.453125 66.40625 31.78125 66.40625 
z
M 31.78125 74.21875 
Q 44.046875 74.21875 50.515625 64.515625 
Q 56.984375 54.828125 56.984375 36.375 
Q 56.984375 17.96875 50.515625 8.265625 
Q 44.046875 -1.421875 31.78125 -1.421875 
Q 19.53125 -1.421875 13.0625 8.265625 
Q 6.59375 17.96875 6.59375 36.375 
Q 6.59375 54.828125 13.0625 64.515625 
Q 19.53125 74.21875 31.78125 74.21875 
z
" id="DejaVuSans-48"/>
      </defs>
      <g transform="translate(18.931563 86.556094)scale(0.14 -0.14)">
       <use xlink:href="#DejaVuSans-48"/>
      </g>
     </g>
    </g>
    <g id="ytick_4">
     <g id="line2d_12">
      <g>
       <use style="stroke:#000000;stroke-width:0.8;" x="34.839063" xlink:href="#maeb4640882" y="40.467188"/>
      </g>
     </g>
     <g id="text_8">
      <!-- 3 -->
      <g transform="translate(18.931563 45.786094)scale(0.14 -0.14)">
       <use xlink:href="#DejaVuSans-51"/>
      </g>
     </g>
    </g>
   </g>
   <g id="PathCollection_1">
    <defs>
     <path d="M -3 0 
L 3 0 
M 0 3 
L 0 -3 
" id="m27d8668c7a" style="stroke:#ff0000;stroke-width:1.5;"/>
    </defs>
    <g clip-path="url(#p0887149176)">
     <use style="fill:#ff0000;stroke:#ff0000;stroke-width:1.5;" x="327.45803" xlink:href="#m27d8668c7a" y="97.150549"/>
     <use style="fill:#ff0000;stroke:#ff0000;stroke-width:1.5;" x="373.876896" xlink:href="#m27d8668c7a" y="76.503695"/>
     <use style="fill:#ff0000;stroke:#ff0000;stroke-width:1.5;" x="342.510044" xlink:href="#m27d8668c7a" y="89.810659"/>
     <use style="fill:#ff0000;stroke:#ff0000;stroke-width:1.5;" x="326.361471" xlink:href="#m27d8668c7a" y="100.130537"/>
     <use style="fill:#ff0000;stroke:#ff0000;stroke-width:1.5;" x="292.538752" xlink:href="#m27d8668c7a" y="86.742906"/>
     <use style="fill:#ff0000;stroke:#ff0000;stroke-width:1.5;" x="354.54352" xlink:href="#m27d8668c7a" y="79.050137"/>
     <use style="fill:#ff0000;stroke:#ff0000;stroke-width:1.5;" x="296.425894" xlink:href="#m27d8668c7a" y="87.661292"/>
     <use style="fill:#ff0000;stroke:#ff0000;stroke-width:1.5;" x="423.14373" xlink:href="#m27d8668c7a" y="89.344116"/>
     <use style="fill:#ff0000;stroke:#ff0000;stroke-width:1.5;" x="443.200973" xlink:href="#m27d8668c7a" y="94.050452"/>
     <use style="fill:#ff0000;stroke:#ff0000;stroke-width:1.5;" x="281.319246" xlink:href="#m27d8668c7a" y="75.393943"/>
     <use style="fill:#ff0000;stroke:#ff0000;stroke-width:1.5;" x="395.230348" xlink:href="#m27d8668c7a" y="82.173196"/>
     <use style="fill:#ff0000;stroke:#ff0000;stroke-width:1.5;" x="321.900745" xlink:href="#m27d8668c7a" y="97.680252"/>
     <use style="fill:#ff0000;stroke:#ff0000;stroke-width:1.5;" x="332.823495" xlink:href="#m27d8668c7a" y="94.803565"/>
     <use style="fill:#ff0000;stroke:#ff0000;stroke-width:1.5;" x="432.580525" xlink:href="#m27d8668c7a" y="90.02297"/>
     <use style="fill:#ff0000;stroke:#ff0000;stroke-width:1.5;" x="194.158123" xlink:href="#m27d8668c7a" y="74.643384"/>
     <use style="fill:#ff0000;stroke:#ff0000;stroke-width:1.5;" x="198.648137" xlink:href="#m27d8668c7a" y="72.369534"/>
     <use style="fill:#ff0000;stroke:#ff0000;stroke-width:1.5;" x="179.979995" xlink:href="#m27d8668c7a" y="77.948636"/>
     <use style="fill:#ff0000;stroke:#ff0000;stroke-width:1.5;" x="406.639999" xlink:href="#m27d8668c7a" y="82.133238"/>
     <use style="fill:#ff0000;stroke:#ff0000;stroke-width:1.5;" x="391.444796" xlink:href="#m27d8668c7a" y="79.431809"/>
     <use style="fill:#ff0000;stroke:#ff0000;stroke-width:1.5;" x="417.072452" xlink:href="#m27d8668c7a" y="85.996597"/>
     <use style="fill:#ff0000;stroke:#ff0000;stroke-width:1.5;" x="447.37358" xlink:href="#m27d8668c7a" y="90.409392"/>
     <use style="fill:#ff0000;stroke:#ff0000;stroke-width:1.5;" x="397.304302" xlink:href="#m27d8668c7a" y="83.20912"/>
     <use style="fill:#ff0000;stroke:#ff0000;stroke-width:1.5;" x="303.091805" xlink:href="#m27d8668c7a" y="95.710897"/>
     <use style="fill:#ff0000;stroke:#ff0000;stroke-width:1.5;" x="392.106703" xlink:href="#m27d8668c7a" y="78.658959"/>
     <use style="fill:#ff0000;stroke:#ff0000;stroke-width:1.5;" x="207.337627" xlink:href="#m27d8668c7a" y="73.491105"/>
     <use style="fill:#ff0000;stroke:#ff0000;stroke-width:1.5;" x="352.877027" xlink:href="#m27d8668c7a" y="78.48204"/>
     <use style="fill:#ff0000;stroke:#ff0000;stroke-width:1.5;" x="214.33463" xlink:href="#m27d8668c7a" y="73.0961"/>
     <use style="fill:#ff0000;stroke:#ff0000;stroke-width:1.5;" x="437.90169" xlink:href="#m27d8668c7a" y="92.480886"/>
     <use style="fill:#ff0000;stroke:#ff0000;stroke-width:1.5;" x="319.934744" xlink:href="#m27d8668c7a" y="96.874008"/>
     <use style="fill:#ff0000;stroke:#ff0000;stroke-width:1.5;" x="290.029744" xlink:href="#m27d8668c7a" y="81.145618"/>
     <use style="fill:#ff0000;stroke:#ff0000;stroke-width:1.5;" x="248.150078" xlink:href="#m27d8668c7a" y="59.69552"/>
     <use style="fill:#ff0000;stroke:#ff0000;stroke-width:1.5;" x="390.350262" xlink:href="#m27d8668c7a" y="77.910782"/>
     <use style="fill:#ff0000;stroke:#ff0000;stroke-width:1.5;" x="301.605005" xlink:href="#m27d8668c7a" y="94.312236"/>
     <use style="fill:#ff0000;stroke:#ff0000;stroke-width:1.5;" x="332.932134" xlink:href="#m27d8668c7a" y="91.421707"/>
     <use style="fill:#ff0000;stroke:#ff0000;stroke-width:1.5;" x="179.581417" xlink:href="#m27d8668c7a" y="77.929384"/>
     <use style="fill:#ff0000;stroke:#ff0000;stroke-width:1.5;" x="346.659366" xlink:href="#m27d8668c7a" y="83.19582"/>
     <use style="fill:#ff0000;stroke:#ff0000;stroke-width:1.5;" x="345.113769" xlink:href="#m27d8668c7a" y="83.819542"/>
     <use style="fill:#ff0000;stroke:#ff0000;stroke-width:1.5;" x="346.463648" xlink:href="#m27d8668c7a" y="84.29813"/>
     <use style="fill:#ff0000;stroke:#ff0000;stroke-width:1.5;" x="437.644776" xlink:href="#m27d8668c7a" y="90.662993"/>
     <use style="fill:#ff0000;stroke:#ff0000;stroke-width:1.5;" x="364.566926" xlink:href="#m27d8668c7a" y="74.432554"/>
     <use style="fill:#ff0000;stroke:#ff0000;stroke-width:1.5;" x="274.641767" xlink:href="#m27d8668c7a" y="67.787609"/>
     <use style="fill:#ff0000;stroke:#ff0000;stroke-width:1.5;" x="296.270978" xlink:href="#m27d8668c7a" y="90.643864"/>
     <use style="fill:#ff0000;stroke:#ff0000;stroke-width:1.5;" x="368.978166" xlink:href="#m27d8668c7a" y="74.598693"/>
     <use style="fill:#ff0000;stroke:#ff0000;stroke-width:1.5;" x="191.141969" xlink:href="#m27d8668c7a" y="73.031109"/>
     <use style="fill:#ff0000;stroke:#ff0000;stroke-width:1.5;" x="360.366976" xlink:href="#m27d8668c7a" y="77.553485"/>
     <use style="fill:#ff0000;stroke:#ff0000;stroke-width:1.5;" x="361.447028" xlink:href="#m27d8668c7a" y="76.573618"/>
     <use style="fill:#ff0000;stroke:#ff0000;stroke-width:1.5;" x="233.035797" xlink:href="#m27d8668c7a" y="66.898639"/>
     <use style="fill:#ff0000;stroke:#ff0000;stroke-width:1.5;" x="210.3095" xlink:href="#m27d8668c7a" y="69.854136"/>
     <use style="fill:#ff0000;stroke:#ff0000;stroke-width:1.5;" x="262.343572" xlink:href="#m27d8668c7a" y="59.831612"/>
     <use style="fill:#ff0000;stroke:#ff0000;stroke-width:1.5;" x="275.814368" xlink:href="#m27d8668c7a" y="68.211317"/>
     <use style="fill:#ff0000;stroke:#ff0000;stroke-width:1.5;" x="333.423961" xlink:href="#m27d8668c7a" y="94.344443"/>
     <use style="fill:#ff0000;stroke:#ff0000;stroke-width:1.5;" x="296.708885" xlink:href="#m27d8668c7a" y="88.8956"/>
     <use style="fill:#ff0000;stroke:#ff0000;stroke-width:1.5;" x="450.095363" xlink:href="#m27d8668c7a" y="93.33954"/>
     <use style="fill:#ff0000;stroke:#ff0000;stroke-width:1.5;" x="202.809565" xlink:href="#m27d8668c7a" y="72.738657"/>
     <use style="fill:#ff0000;stroke:#ff0000;stroke-width:1.5;" x="232.615677" xlink:href="#m27d8668c7a" y="67.334413"/>
     <use style="fill:#ff0000;stroke:#ff0000;stroke-width:1.5;" x="219.344418" xlink:href="#m27d8668c7a" y="69.800173"/>
     <use style="fill:#ff0000;stroke:#ff0000;stroke-width:1.5;" x="356.556285" xlink:href="#m27d8668c7a" y="77.377341"/>
     <use style="fill:#ff0000;stroke:#ff0000;stroke-width:1.5;" x="245.00742" xlink:href="#m27d8668c7a" y="61.88919"/>
     <use style="fill:#ff0000;stroke:#ff0000;stroke-width:1.5;" x="304.439768" xlink:href="#m27d8668c7a" y="95.031409"/>
     <use style="fill:#ff0000;stroke:#ff0000;stroke-width:1.5;" x="242.533803" xlink:href="#m27d8668c7a" y="64.187824"/>
     <use style="fill:#ff0000;stroke:#ff0000;stroke-width:1.5;" x="218.691576" xlink:href="#m27d8668c7a" y="73.053774"/>
     <use style="fill:#ff0000;stroke:#ff0000;stroke-width:1.5;" x="205.133727" xlink:href="#m27d8668c7a" y="71.991456"/>
     <use style="fill:#ff0000;stroke:#ff0000;stroke-width:1.5;" x="357.455018" xlink:href="#m27d8668c7a" y="77.489383"/>
     <use style="fill:#ff0000;stroke:#ff0000;stroke-width:1.5;" x="212.892106" xlink:href="#m27d8668c7a" y="71.040581"/>
     <use style="fill:#ff0000;stroke:#ff0000;stroke-width:1.5;" x="229.185541" xlink:href="#m27d8668c7a" y="64.733357"/>
     <use style="fill:#ff0000;stroke:#ff0000;stroke-width:1.5;" x="277.213385" xlink:href="#m27d8668c7a" y="68.575441"/>
     <use style="fill:#ff0000;stroke:#ff0000;stroke-width:1.5;" x="403.396174" xlink:href="#m27d8668c7a" y="84.446854"/>
     <use style="fill:#ff0000;stroke:#ff0000;stroke-width:1.5;" x="201.430318" xlink:href="#m27d8668c7a" y="71.187792"/>
     <use style="fill:#ff0000;stroke:#ff0000;stroke-width:1.5;" x="408.125692" xlink:href="#m27d8668c7a" y="86.661138"/>
     <use style="fill:#ff0000;stroke:#ff0000;stroke-width:1.5;" x="201.150518" xlink:href="#m27d8668c7a" y="73.300436"/>
     <use style="fill:#ff0000;stroke:#ff0000;stroke-width:1.5;" x="446.771253" xlink:href="#m27d8668c7a" y="92.567583"/>
     <use style="fill:#ff0000;stroke:#ff0000;stroke-width:1.5;" x="305.092748" xlink:href="#m27d8668c7a" y="93.443469"/>
     <use style="fill:#ff0000;stroke:#ff0000;stroke-width:1.5;" x="446.855406" xlink:href="#m27d8668c7a" y="93.610054"/>
     <use style="fill:#ff0000;stroke:#ff0000;stroke-width:1.5;" x="343.090963" xlink:href="#m27d8668c7a" y="87.717356"/>
     <use style="fill:#ff0000;stroke:#ff0000;stroke-width:1.5;" x="380.593601" xlink:href="#m27d8668c7a" y="76.300137"/>
     <use style="fill:#ff0000;stroke:#ff0000;stroke-width:1.5;" x="185.272457" xlink:href="#m27d8668c7a" y="76.737345"/>
     <use style="fill:#ff0000;stroke:#ff0000;stroke-width:1.5;" x="253.242205" xlink:href="#m27d8668c7a" y="58.145034"/>
     <use style="fill:#ff0000;stroke:#ff0000;stroke-width:1.5;" x="207.873903" xlink:href="#m27d8668c7a" y="73.644724"/>
     <use style="fill:#ff0000;stroke:#ff0000;stroke-width:1.5;" x="256.962178" xlink:href="#m27d8668c7a" y="61.114854"/>
     <use style="fill:#ff0000;stroke:#ff0000;stroke-width:1.5;" x="207.464096" xlink:href="#m27d8668c7a" y="72.890614"/>
     <use style="fill:#ff0000;stroke:#ff0000;stroke-width:1.5;" x="263.05637" xlink:href="#m27d8668c7a" y="61.591399"/>
     <use style="fill:#ff0000;stroke:#ff0000;stroke-width:1.5;" x="289.918438" xlink:href="#m27d8668c7a" y="79.801641"/>
     <use style="fill:#ff0000;stroke:#ff0000;stroke-width:1.5;" x="192.236214" xlink:href="#m27d8668c7a" y="72.858961"/>
     <use style="fill:#ff0000;stroke:#ff0000;stroke-width:1.5;" x="367.538784" xlink:href="#m27d8668c7a" y="74.856625"/>
     <use style="fill:#ff0000;stroke:#ff0000;stroke-width:1.5;" x="332.420868" xlink:href="#m27d8668c7a" y="95.888015"/>
     <use style="fill:#ff0000;stroke:#ff0000;stroke-width:1.5;" x="248.38273" xlink:href="#m27d8668c7a" y="59.498863"/>
     <use style="fill:#ff0000;stroke:#ff0000;stroke-width:1.5;" x="320.325269" xlink:href="#m27d8668c7a" y="100.620824"/>
     <use style="fill:#ff0000;stroke:#ff0000;stroke-width:1.5;" x="200.548465" xlink:href="#m27d8668c7a" y="75.097719"/>
     <use style="fill:#ff0000;stroke:#ff0000;stroke-width:1.5;" x="335.028135" xlink:href="#m27d8668c7a" y="91.010632"/>
     <use style="fill:#ff0000;stroke:#ff0000;stroke-width:1.5;" x="433.612702" xlink:href="#m27d8668c7a" y="90.329273"/>
     <use style="fill:#ff0000;stroke:#ff0000;stroke-width:1.5;" x="263.2198" xlink:href="#m27d8668c7a" y="59.557888"/>
     <use style="fill:#ff0000;stroke:#ff0000;stroke-width:1.5;" x="360.546559" xlink:href="#m27d8668c7a" y="76.004132"/>
     <use style="fill:#ff0000;stroke:#ff0000;stroke-width:1.5;" x="211.110666" xlink:href="#m27d8668c7a" y="70.819404"/>
     <use style="fill:#ff0000;stroke:#ff0000;stroke-width:1.5;" x="374.194352" xlink:href="#m27d8668c7a" y="75.944713"/>
     <use style="fill:#ff0000;stroke:#ff0000;stroke-width:1.5;" x="255.083362" xlink:href="#m27d8668c7a" y="61.032001"/>
     <use style="fill:#ff0000;stroke:#ff0000;stroke-width:1.5;" x="225.449452" xlink:href="#m27d8668c7a" y="67.897865"/>
     <use style="fill:#ff0000;stroke:#ff0000;stroke-width:1.5;" x="337.976171" xlink:href="#m27d8668c7a" y="91.567766"/>
     <use style="fill:#ff0000;stroke:#ff0000;stroke-width:1.5;" x="179.949068" xlink:href="#m27d8668c7a" y="78.617132"/>
     <use style="fill:#ff0000;stroke:#ff0000;stroke-width:1.5;" x="405.613331" xlink:href="#m27d8668c7a" y="84.941674"/>
     <use style="fill:#ff0000;stroke:#ff0000;stroke-width:1.5;" x="175.6491" xlink:href="#m27d8668c7a" y="79.440695"/>
    </g>
   </g>
   <g id="PathCollection_2">
    <defs>
     <path d="M -3 0 
L 3 0 
M 0 3 
L 0 -3 
" id="m095b6b9bab" style="stroke:#008000;stroke-width:1.5;"/>
    </defs>
    <g clip-path="url(#p0887149176)">
     <use style="fill:#008000;stroke:#008000;stroke-width:1.5;" x="179.920862" xlink:href="#m095b6b9bab" y="155.982188"/>
     <use style="fill:#008000;stroke:#008000;stroke-width:1.5;" x="184.067942" xlink:href="#m095b6b9bab" y="155.982188"/>
     <use style="fill:#008000;stroke:#008000;stroke-width:1.5;" x="219.113596" xlink:href="#m095b6b9bab" y="155.982188"/>
     <use style="fill:#008000;stroke:#008000;stroke-width:1.5;" x="200.198406" xlink:href="#m095b6b9bab" y="155.982188"/>
     <use style="fill:#008000;stroke:#008000;stroke-width:1.5;" x="192.407077" xlink:href="#m095b6b9bab" y="155.982188"/>
     <use style="fill:#008000;stroke:#008000;stroke-width:1.5;" x="193.122395" xlink:href="#m095b6b9bab" y="155.982188"/>
     <use style="fill:#008000;stroke:#008000;stroke-width:1.5;" x="180.334974" xlink:href="#m095b6b9bab" y="155.982188"/>
     <use style="fill:#008000;stroke:#008000;stroke-width:1.5;" x="205.240962" xlink:href="#m095b6b9bab" y="155.982188"/>
     <use style="fill:#008000;stroke:#008000;stroke-width:1.5;" x="211.983439" xlink:href="#m095b6b9bab" y="155.982188"/>
     <use style="fill:#008000;stroke:#008000;stroke-width:1.5;" x="176.91842" xlink:href="#m095b6b9bab" y="155.982188"/>
    </g>
   </g>
   <g id="PathCollection_3">
    <defs>
     <path d="M -3 0 
L 3 0 
M 0 3 
L 0 -3 
" id="m585d32d790" style="stroke:#0000ff;stroke-width:1.5;"/>
    </defs>
    <g clip-path="url(#p0887149176)">
     <use style="fill:#0000ff;stroke:#0000ff;stroke-width:1.5;" x="179.920862" xlink:href="#m585d32d790" y="149.187188"/>
     <use style="fill:#0000ff;stroke:#0000ff;stroke-width:1.5;" x="184.067942" xlink:href="#m585d32d790" y="149.187188"/>
     <use style="fill:#0000ff;stroke:#0000ff;stroke-width:1.5;" x="219.113596" xlink:href="#m585d32d790" y="149.187188"/>
     <use style="fill:#0000ff;stroke:#0000ff;stroke-width:1.5;" x="200.198406" xlink:href="#m585d32d790" y="149.187188"/>
     <use style="fill:#0000ff;stroke:#0000ff;stroke-width:1.5;" x="192.407077" xlink:href="#m585d32d790" y="149.187188"/>
     <use style="fill:#0000ff;stroke:#0000ff;stroke-width:1.5;" x="193.122395" xlink:href="#m585d32d790" y="149.187188"/>
     <use style="fill:#0000ff;stroke:#0000ff;stroke-width:1.5;" x="180.334974" xlink:href="#m585d32d790" y="149.187188"/>
     <use style="fill:#0000ff;stroke:#0000ff;stroke-width:1.5;" x="205.240962" xlink:href="#m585d32d790" y="149.187188"/>
     <use style="fill:#0000ff;stroke:#0000ff;stroke-width:1.5;" x="211.983439" xlink:href="#m585d32d790" y="149.187188"/>
     <use style="fill:#0000ff;stroke:#0000ff;stroke-width:1.5;" x="176.91842" xlink:href="#m585d32d790" y="149.187188"/>
    </g>
   </g>
   <g id="patch_3">
    <path d="M 34.839063 189.957188 
L 34.839063 26.877188 
" style="fill:none;stroke:#000000;stroke-linecap:square;stroke-linejoin:miter;stroke-width:0.8;"/>
   </g>
   <g id="patch_4">
    <path d="M 592.839062 189.957188 
L 592.839062 26.877188 
" style="fill:none;stroke:#000000;stroke-linecap:square;stroke-linejoin:miter;stroke-width:0.8;"/>
   </g>
   <g id="patch_5">
    <path d="M 34.839063 189.957188 
L 592.839062 189.957188 
" style="fill:none;stroke:#000000;stroke-linecap:square;stroke-linejoin:miter;stroke-width:0.8;"/>
   </g>
   <g id="patch_6">
    <path d="M 34.839063 26.877187 
L 592.839062 26.877187 
" style="fill:none;stroke:#000000;stroke-linecap:square;stroke-linejoin:miter;stroke-width:0.8;"/>
   </g>
   <g id="text_9">
    <!-- VFE after 0 optimisation steps -->
    <defs>
     <path d="M 28.609375 0 
L 0.78125 72.90625 
L 11.078125 72.90625 
L 34.1875 11.53125 
L 57.328125 72.90625 
L 67.578125 72.90625 
L 39.796875 0 
z
" id="DejaVuSans-86"/>
     <path d="M 9.8125 72.90625 
L 51.703125 72.90625 
L 51.703125 64.59375 
L 19.671875 64.59375 
L 19.671875 43.109375 
L 48.578125 43.109375 
L 48.578125 34.8125 
L 19.671875 34.8125 
L 19.671875 0 
L 9.8125 0 
z
" id="DejaVuSans-70"/>
     <path d="M 9.8125 72.90625 
L 55.90625 72.90625 
L 55.90625 64.59375 
L 19.671875 64.59375 
L 19.671875 43.015625 
L 54.390625 43.015625 
L 54.390625 34.71875 
L 19.671875 34.71875 
L 19.671875 8.296875 
L 56.78125 8.296875 
L 56.78125 0 
L 9.8125 0 
z
" id="DejaVuSans-69"/>
     <path id="DejaVuSans-32"/>
     <path d="M 34.28125 27.484375 
Q 23.390625 27.484375 19.1875 25 
Q 14.984375 22.515625 14.984375 16.5 
Q 14.984375 11.71875 18.140625 8.90625 
Q 21.296875 6.109375 26.703125 6.109375 
Q 34.1875 6.109375 38.703125 11.40625 
Q 43.21875 16.703125 43.21875 25.484375 
L 43.21875 27.484375 
z
M 52.203125 31.203125 
L 52.203125 0 
L 43.21875 0 
L 43.21875 8.296875 
Q 40.140625 3.328125 35.546875 0.953125 
Q 30.953125 -1.421875 24.3125 -1.421875 
Q 15.921875 -1.421875 10.953125 3.296875 
Q 6 8.015625 6 15.921875 
Q 6 25.140625 12.171875 29.828125 
Q 18.359375 34.515625 30.609375 34.515625 
L 43.21875 34.515625 
L 43.21875 35.40625 
Q 43.21875 41.609375 39.140625 45 
Q 35.0625 48.390625 27.6875 48.390625 
Q 23 48.390625 18.546875 47.265625 
Q 14.109375 46.140625 10.015625 43.890625 
L 10.015625 52.203125 
Q 14.9375 54.109375 19.578125 55.046875 
Q 24.21875 56 28.609375 56 
Q 40.484375 56 46.34375 49.84375 
Q 52.203125 43.703125 52.203125 31.203125 
z
" id="DejaVuSans-97"/>
     <path d="M 37.109375 75.984375 
L 37.109375 68.5 
L 28.515625 68.5 
Q 23.6875 68.5 21.796875 66.546875 
Q 19.921875 64.59375 19.921875 59.515625 
L 19.921875 54.6875 
L 34.71875 54.6875 
L 34.71875 47.703125 
L 19.921875 47.703125 
L 19.921875 0 
L 10.890625 0 
L 10.890625 47.703125 
L 2.296875 47.703125 
L 2.296875 54.6875 
L 10.890625 54.6875 
L 10.890625 58.5 
Q 10.890625 67.625 15.140625 71.796875 
Q 19.390625 75.984375 28.609375 75.984375 
z
" id="DejaVuSans-102"/>
     <path d="M 18.3125 70.21875 
L 18.3125 54.6875 
L 36.8125 54.6875 
L 36.8125 47.703125 
L 18.3125 47.703125 
L 18.3125 18.015625 
Q 18.3125 11.328125 20.140625 9.421875 
Q 21.96875 7.515625 27.59375 7.515625 
L 36.8125 7.515625 
L 36.8125 0 
L 27.59375 0 
Q 17.1875 0 13.234375 3.875 
Q 9.28125 7.765625 9.28125 18.015625 
L 9.28125 47.703125 
L 2.6875 47.703125 
L 2.6875 54.6875 
L 9.28125 54.6875 
L 9.28125 70.21875 
z
" id="DejaVuSans-116"/>
     <path d="M 56.203125 29.59375 
L 56.203125 25.203125 
L 14.890625 25.203125 
Q 15.484375 15.921875 20.484375 11.0625 
Q 25.484375 6.203125 34.421875 6.203125 
Q 39.59375 6.203125 44.453125 7.46875 
Q 49.3125 8.734375 54.109375 11.28125 
L 54.109375 2.78125 
Q 49.265625 0.734375 44.1875 -0.34375 
Q 39.109375 -1.421875 33.890625 -1.421875 
Q 20.796875 -1.421875 13.15625 6.1875 
Q 5.515625 13.8125 5.515625 26.8125 
Q 5.515625 40.234375 12.765625 48.109375 
Q 20.015625 56 32.328125 56 
Q 43.359375 56 49.78125 48.890625 
Q 56.203125 41.796875 56.203125 29.59375 
z
M 47.21875 32.234375 
Q 47.125 39.59375 43.09375 43.984375 
Q 39.0625 48.390625 32.421875 48.390625 
Q 24.90625 48.390625 20.390625 44.140625 
Q 15.875 39.890625 15.1875 32.171875 
z
" id="DejaVuSans-101"/>
     <path d="M 41.109375 46.296875 
Q 39.59375 47.171875 37.8125 47.578125 
Q 36.03125 48 33.890625 48 
Q 26.265625 48 22.1875 43.046875 
Q 18.109375 38.09375 18.109375 28.8125 
L 18.109375 0 
L 9.078125 0 
L 9.078125 54.6875 
L 18.109375 54.6875 
L 18.109375 46.1875 
Q 20.953125 51.171875 25.484375 53.578125 
Q 30.03125 56 36.53125 56 
Q 37.453125 56 38.578125 55.875 
Q 39.703125 55.765625 41.0625 55.515625 
z
" id="DejaVuSans-114"/>
     <path d="M 30.609375 48.390625 
Q 23.390625 48.390625 19.1875 42.75 
Q 14.984375 37.109375 14.984375 27.296875 
Q 14.984375 17.484375 19.15625 11.84375 
Q 23.34375 6.203125 30.609375 6.203125 
Q 37.796875 6.203125 41.984375 11.859375 
Q 46.1875 17.53125 46.1875 27.296875 
Q 46.1875 37.015625 41.984375 42.703125 
Q 37.796875 48.390625 30.609375 48.390625 
z
M 30.609375 56 
Q 42.328125 56 49.015625 48.375 
Q 55.71875 40.765625 55.71875 27.296875 
Q 55.71875 13.875 49.015625 6.21875 
Q 42.328125 -1.421875 30.609375 -1.421875 
Q 18.84375 -1.421875 12.171875 6.21875 
Q 5.515625 13.875 5.515625 27.296875 
Q 5.515625 40.765625 12.171875 48.375 
Q 18.84375 56 30.609375 56 
z
" id="DejaVuSans-111"/>
     <path d="M 18.109375 8.203125 
L 18.109375 -20.796875 
L 9.078125 -20.796875 
L 9.078125 54.6875 
L 18.109375 54.6875 
L 18.109375 46.390625 
Q 20.953125 51.265625 25.265625 53.625 
Q 29.59375 56 35.59375 56 
Q 45.5625 56 51.78125 48.09375 
Q 58.015625 40.1875 58.015625 27.296875 
Q 58.015625 14.40625 51.78125 6.484375 
Q 45.5625 -1.421875 35.59375 -1.421875 
Q 29.59375 -1.421875 25.265625 0.953125 
Q 20.953125 3.328125 18.109375 8.203125 
z
M 48.6875 27.296875 
Q 48.6875 37.203125 44.609375 42.84375 
Q 40.53125 48.484375 33.40625 48.484375 
Q 26.265625 48.484375 22.1875 42.84375 
Q 18.109375 37.203125 18.109375 27.296875 
Q 18.109375 17.390625 22.1875 11.75 
Q 26.265625 6.109375 33.40625 6.109375 
Q 40.53125 6.109375 44.609375 11.75 
Q 48.6875 17.390625 48.6875 27.296875 
z
" id="DejaVuSans-112"/>
     <path d="M 9.421875 54.6875 
L 18.40625 54.6875 
L 18.40625 0 
L 9.421875 0 
z
M 9.421875 75.984375 
L 18.40625 75.984375 
L 18.40625 64.59375 
L 9.421875 64.59375 
z
" id="DejaVuSans-105"/>
     <path d="M 52 44.1875 
Q 55.375 50.25 60.0625 53.125 
Q 64.75 56 71.09375 56 
Q 79.640625 56 84.28125 50.015625 
Q 88.921875 44.046875 88.921875 33.015625 
L 88.921875 0 
L 79.890625 0 
L 79.890625 32.71875 
Q 79.890625 40.578125 77.09375 44.375 
Q 74.3125 48.1875 68.609375 48.1875 
Q 61.625 48.1875 57.5625 43.546875 
Q 53.515625 38.921875 53.515625 30.90625 
L 53.515625 0 
L 44.484375 0 
L 44.484375 32.71875 
Q 44.484375 40.625 41.703125 44.40625 
Q 38.921875 48.1875 33.109375 48.1875 
Q 26.21875 48.1875 22.15625 43.53125 
Q 18.109375 38.875 18.109375 30.90625 
L 18.109375 0 
L 9.078125 0 
L 9.078125 54.6875 
L 18.109375 54.6875 
L 18.109375 46.1875 
Q 21.1875 51.21875 25.484375 53.609375 
Q 29.78125 56 35.6875 56 
Q 41.65625 56 45.828125 52.96875 
Q 50 49.953125 52 44.1875 
z
" id="DejaVuSans-109"/>
     <path d="M 44.28125 53.078125 
L 44.28125 44.578125 
Q 40.484375 46.53125 36.375 47.5 
Q 32.28125 48.484375 27.875 48.484375 
Q 21.1875 48.484375 17.84375 46.4375 
Q 14.5 44.390625 14.5 40.28125 
Q 14.5 37.15625 16.890625 35.375 
Q 19.28125 33.59375 26.515625 31.984375 
L 29.59375 31.296875 
Q 39.15625 29.25 43.1875 25.515625 
Q 47.21875 21.78125 47.21875 15.09375 
Q 47.21875 7.46875 41.1875 3.015625 
Q 35.15625 -1.421875 24.609375 -1.421875 
Q 20.21875 -1.421875 15.453125 -0.5625 
Q 10.6875 0.296875 5.421875 2 
L 5.421875 11.28125 
Q 10.40625 8.6875 15.234375 7.390625 
Q 20.0625 6.109375 24.8125 6.109375 
Q 31.15625 6.109375 34.5625 8.28125 
Q 37.984375 10.453125 37.984375 14.40625 
Q 37.984375 18.0625 35.515625 20.015625 
Q 33.0625 21.96875 24.703125 23.78125 
L 21.578125 24.515625 
Q 13.234375 26.265625 9.515625 29.90625 
Q 5.8125 33.546875 5.8125 39.890625 
Q 5.8125 47.609375 11.28125 51.796875 
Q 16.75 56 26.8125 56 
Q 31.78125 56 36.171875 55.265625 
Q 40.578125 54.546875 44.28125 53.078125 
z
" id="DejaVuSans-115"/>
     <path d="M 54.890625 33.015625 
L 54.890625 0 
L 45.90625 0 
L 45.90625 32.71875 
Q 45.90625 40.484375 42.875 44.328125 
Q 39.84375 48.1875 33.796875 48.1875 
Q 26.515625 48.1875 22.3125 43.546875 
Q 18.109375 38.921875 18.109375 30.90625 
L 18.109375 0 
L 9.078125 0 
L 9.078125 54.6875 
L 18.109375 54.6875 
L 18.109375 46.1875 
Q 21.34375 51.125 25.703125 53.5625 
Q 30.078125 56 35.796875 56 
Q 45.21875 56 50.046875 50.171875 
Q 54.890625 44.34375 54.890625 33.015625 
z
" id="DejaVuSans-110"/>
    </defs>
    <g transform="translate(178.244219 20.877188)scale(0.18 -0.18)">
     <use xlink:href="#DejaVuSans-86"/>
     <use x="68.408203" xlink:href="#DejaVuSans-70"/>
     <use x="125.927734" xlink:href="#DejaVuSans-69"/>
     <use x="189.111328" xlink:href="#DejaVuSans-32"/>
     <use x="220.898438" xlink:href="#DejaVuSans-97"/>
     <use x="282.177734" xlink:href="#DejaVuSans-102"/>
     <use x="315.632812" xlink:href="#DejaVuSans-116"/>
     <use x="354.841797" xlink:href="#DejaVuSans-101"/>
     <use x="416.365234" xlink:href="#DejaVuSans-114"/>
     <use x="457.478516" xlink:href="#DejaVuSans-32"/>
     <use x="489.265625" xlink:href="#DejaVuSans-48"/>
     <use x="552.888672" xlink:href="#DejaVuSans-32"/>
     <use x="584.675781" xlink:href="#DejaVuSans-111"/>
     <use x="645.857422" xlink:href="#DejaVuSans-112"/>
     <use x="709.333984" xlink:href="#DejaVuSans-116"/>
     <use x="748.542969" xlink:href="#DejaVuSans-105"/>
     <use x="776.326172" xlink:href="#DejaVuSans-109"/>
     <use x="873.738281" xlink:href="#DejaVuSans-105"/>
     <use x="901.521484" xlink:href="#DejaVuSans-115"/>
     <use x="953.621094" xlink:href="#DejaVuSans-97"/>
     <use x="1014.900391" xlink:href="#DejaVuSans-116"/>
     <use x="1054.109375" xlink:href="#DejaVuSans-105"/>
     <use x="1081.892578" xlink:href="#DejaVuSans-111"/>
     <use x="1143.074219" xlink:href="#DejaVuSans-110"/>
     <use x="1206.453125" xlink:href="#DejaVuSans-32"/>
     <use x="1238.240234" xlink:href="#DejaVuSans-115"/>
     <use x="1290.339844" xlink:href="#DejaVuSans-116"/>
     <use x="1329.548828" xlink:href="#DejaVuSans-101"/>
     <use x="1391.072266" xlink:href="#DejaVuSans-112"/>
     <use x="1454.548828" xlink:href="#DejaVuSans-115"/>
    </g>
   </g>
   <g id="legend_1">
    <g id="patch_7">
     <path d="M 488.240625 184.957188 
L 585.839063 184.957188 
Q 587.839063 184.957188 587.839063 182.957188 
L 587.839063 125.244688 
Q 587.839063 123.244688 585.839063 123.244688 
L 488.240625 123.244688 
Q 486.240625 123.244688 486.240625 125.244688 
L 486.240625 182.957188 
Q 486.240625 184.957188 488.240625 184.957188 
z
" style="fill:#ffffff;opacity:0.8;stroke:#cccccc;stroke-linejoin:miter;"/>
    </g>
    <g id="line2d_13">
     <path d="M 490.240625 131.343125 
L 510.240625 131.343125 
" style="fill:none;stroke:#000000;stroke-linecap:square;stroke-width:1.5;"/>
    </g>
    <g id="line2d_14"/>
    <g id="text_10">
     <!-- Approx. Post. -->
     <defs>
      <path d="M 34.1875 63.1875 
L 20.796875 26.90625 
L 47.609375 26.90625 
z
M 28.609375 72.90625 
L 39.796875 72.90625 
L 67.578125 0 
L 57.328125 0 
L 50.6875 18.703125 
L 17.828125 18.703125 
L 11.1875 0 
L 0.78125 0 
z
" id="DejaVuSans-65"/>
      <path d="M 54.890625 54.6875 
L 35.109375 28.078125 
L 55.90625 0 
L 45.3125 0 
L 29.390625 21.484375 
L 13.484375 0 
L 2.875 0 
L 24.125 28.609375 
L 4.6875 54.6875 
L 15.28125 54.6875 
L 29.78125 35.203125 
L 44.28125 54.6875 
z
" id="DejaVuSans-120"/>
      <path d="M 10.6875 12.40625 
L 21 12.40625 
L 21 0 
L 10.6875 0 
z
" id="DejaVuSans-46"/>
      <path d="M 19.671875 64.796875 
L 19.671875 37.40625 
L 32.078125 37.40625 
Q 38.96875 37.40625 42.71875 40.96875 
Q 46.484375 44.53125 46.484375 51.125 
Q 46.484375 57.671875 42.71875 61.234375 
Q 38.96875 64.796875 32.078125 64.796875 
z
M 9.8125 72.90625 
L 32.078125 72.90625 
Q 44.34375 72.90625 50.609375 67.359375 
Q 56.890625 61.8125 56.890625 51.125 
Q 56.890625 40.328125 50.609375 34.8125 
Q 44.34375 29.296875 32.078125 29.296875 
L 19.671875 29.296875 
L 19.671875 0 
L 9.8125 0 
z
" id="DejaVuSans-80"/>
     </defs>
     <g transform="translate(518.240625 134.843125)scale(0.1 -0.1)">
      <use xlink:href="#DejaVuSans-65"/>
      <use x="68.408203" xlink:href="#DejaVuSans-112"/>
      <use x="131.884766" xlink:href="#DejaVuSans-112"/>
      <use x="195.361328" xlink:href="#DejaVuSans-114"/>
      <use x="234.224609" xlink:href="#DejaVuSans-111"/>
      <use x="292.28125" xlink:href="#DejaVuSans-120"/>
      <use x="351.460938" xlink:href="#DejaVuSans-46"/>
      <use x="383.248047" xlink:href="#DejaVuSans-32"/>
      <use x="415.035156" xlink:href="#DejaVuSans-80"/>
      <use x="471.712891" xlink:href="#DejaVuSans-111"/>
      <use x="532.894531" xlink:href="#DejaVuSans-115"/>
      <use x="584.994141" xlink:href="#DejaVuSans-116"/>
      <use x="624.203125" xlink:href="#DejaVuSans-46"/>
     </g>
    </g>
    <g id="line2d_15">
     <path d="M 490.240625 146.02125 
L 510.240625 146.02125 
" style="fill:none;stroke:#800080;stroke-dasharray:5.55,2.4;stroke-dashoffset:0;stroke-width:1.5;"/>
    </g>
    <g id="line2d_16"/>
    <g id="text_11">
     <!-- Exact Post. -->
     <defs>
      <path d="M 48.78125 52.59375 
L 48.78125 44.1875 
Q 44.96875 46.296875 41.140625 47.34375 
Q 37.3125 48.390625 33.40625 48.390625 
Q 24.65625 48.390625 19.8125 42.84375 
Q 14.984375 37.3125 14.984375 27.296875 
Q 14.984375 17.28125 19.8125 11.734375 
Q 24.65625 6.203125 33.40625 6.203125 
Q 37.3125 6.203125 41.140625 7.25 
Q 44.96875 8.296875 48.78125 10.40625 
L 48.78125 2.09375 
Q 45.015625 0.34375 40.984375 -0.53125 
Q 36.96875 -1.421875 32.421875 -1.421875 
Q 20.0625 -1.421875 12.78125 6.34375 
Q 5.515625 14.109375 5.515625 27.296875 
Q 5.515625 40.671875 12.859375 48.328125 
Q 20.21875 56 33.015625 56 
Q 37.15625 56 41.109375 55.140625 
Q 45.0625 54.296875 48.78125 52.59375 
z
" id="DejaVuSans-99"/>
     </defs>
     <g transform="translate(518.240625 149.52125)scale(0.1 -0.1)">
      <use xlink:href="#DejaVuSans-69"/>
      <use x="63.183594" xlink:href="#DejaVuSans-120"/>
      <use x="122.363281" xlink:href="#DejaVuSans-97"/>
      <use x="183.642578" xlink:href="#DejaVuSans-99"/>
      <use x="238.623047" xlink:href="#DejaVuSans-116"/>
      <use x="277.832031" xlink:href="#DejaVuSans-32"/>
      <use x="309.619141" xlink:href="#DejaVuSans-80"/>
      <use x="366.296875" xlink:href="#DejaVuSans-111"/>
      <use x="427.478516" xlink:href="#DejaVuSans-115"/>
      <use x="479.578125" xlink:href="#DejaVuSans-116"/>
      <use x="518.787109" xlink:href="#DejaVuSans-46"/>
     </g>
    </g>
    <g id="PathCollection_4">
     <g>
      <use style="fill:#008000;stroke:#008000;stroke-width:1.5;" x="500.240625" xlink:href="#m095b6b9bab" y="161.574375"/>
     </g>
    </g>
    <g id="text_12">
     <!-- Init. $\bar{\mathbf{X}}$ -->
     <defs>
      <path d="M 9.8125 72.90625 
L 19.671875 72.90625 
L 19.671875 0 
L 9.8125 0 
z
" id="DejaVuSans-73"/>
      <path d="M -39.34375 74.515625 
L -10.15625 74.515625 
L -10.15625 67.28125 
L -39.34375 67.28125 
z
" id="DejaVuSans-772"/>
      <path d="M 49.8125 37.203125 
L 75.09375 0 
L 55.515625 0 
L 38.484375 24.90625 
L 21.578125 0 
L 1.90625 0 
L 27.203125 37.203125 
L 2.875 72.90625 
L 22.515625 72.90625 
L 38.484375 49.421875 
L 54.390625 72.90625 
L 74.125 72.90625 
z
" id="DejaVuSans-Bold-88"/>
     </defs>
     <g transform="translate(518.240625 164.199375)scale(0.1 -0.1)">
      <use transform="translate(0 0.359375)" xlink:href="#DejaVuSans-73"/>
      <use transform="translate(29.492188 0.359375)" xlink:href="#DejaVuSans-110"/>
      <use transform="translate(92.871094 0.359375)" xlink:href="#DejaVuSans-105"/>
      <use transform="translate(120.654297 0.359375)" xlink:href="#DejaVuSans-116"/>
      <use transform="translate(159.863281 0.359375)" xlink:href="#DejaVuSans-46"/>
      <use transform="translate(191.650391 0.359375)" xlink:href="#DejaVuSans-32"/>
      <use transform="translate(296.056152 18.484375)" xlink:href="#DejaVuSans-772"/>
      <use transform="translate(223.4375 0.359375)" xlink:href="#DejaVuSans-Bold-88"/>
     </g>
    </g>
    <g id="PathCollection_5">
     <g>
      <use style="fill:#0000ff;stroke:#0000ff;stroke-width:1.5;" x="500.240625" xlink:href="#m585d32d790" y="176.2525"/>
     </g>
    </g>
    <g id="text_13">
     <!-- Curr. $\bar{\mathbf{X}}$ -->
     <defs>
      <path d="M 64.40625 67.28125 
L 64.40625 56.890625 
Q 59.421875 61.53125 53.78125 63.8125 
Q 48.140625 66.109375 41.796875 66.109375 
Q 29.296875 66.109375 22.65625 58.46875 
Q 16.015625 50.828125 16.015625 36.375 
Q 16.015625 21.96875 22.65625 14.328125 
Q 29.296875 6.6875 41.796875 6.6875 
Q 48.140625 6.6875 53.78125 8.984375 
Q 59.421875 11.28125 64.40625 15.921875 
L 64.40625 5.609375 
Q 59.234375 2.09375 53.4375 0.328125 
Q 47.65625 -1.421875 41.21875 -1.421875 
Q 24.65625 -1.421875 15.125 8.703125 
Q 5.609375 18.84375 5.609375 36.375 
Q 5.609375 53.953125 15.125 64.078125 
Q 24.65625 74.21875 41.21875 74.21875 
Q 47.75 74.21875 53.53125 72.484375 
Q 59.328125 70.75 64.40625 67.28125 
z
" id="DejaVuSans-67"/>
      <path d="M 8.5 21.578125 
L 8.5 54.6875 
L 17.484375 54.6875 
L 17.484375 21.921875 
Q 17.484375 14.15625 20.5 10.265625 
Q 23.53125 6.390625 29.59375 6.390625 
Q 36.859375 6.390625 41.078125 11.03125 
Q 45.3125 15.671875 45.3125 23.6875 
L 45.3125 54.6875 
L 54.296875 54.6875 
L 54.296875 0 
L 45.3125 0 
L 45.3125 8.40625 
Q 42.046875 3.421875 37.71875 1 
Q 33.40625 -1.421875 27.6875 -1.421875 
Q 18.265625 -1.421875 13.375 4.4375 
Q 8.5 10.296875 8.5 21.578125 
z
M 31.109375 56 
z
" id="DejaVuSans-117"/>
     </defs>
     <g transform="translate(518.240625 178.8775)scale(0.1 -0.1)">
      <use transform="translate(0 0.359375)" xlink:href="#DejaVuSans-67"/>
      <use transform="translate(69.824219 0.359375)" xlink:href="#DejaVuSans-117"/>
      <use transform="translate(133.203125 0.359375)" xlink:href="#DejaVuSans-114"/>
      <use transform="translate(174.316406 0.359375)" xlink:href="#DejaVuSans-114"/>
      <use transform="translate(215.429688 0.359375)" xlink:href="#DejaVuSans-46"/>
      <use transform="translate(247.216797 0.359375)" xlink:href="#DejaVuSans-32"/>
      <use transform="translate(351.622559 18.484375)" xlink:href="#DejaVuSans-772"/>
      <use transform="translate(279.003906 0.359375)" xlink:href="#DejaVuSans-Bold-88"/>
     </g>
    </g>
   </g>
  </g>
 </g>
 <defs>
  <clipPath id="p0887149176">
   <rect height="163.08" width="558" x="34.839063" y="26.877188"/>
  </clipPath>
 </defs>
</svg>
