<?xml version="1.0" encoding="utf-8" standalone="no"?>
<!DOCTYPE svg PUBLIC "-//W3C//DTD SVG 1.1//EN"
  "http://www.w3.org/Graphics/SVG/1.1/DTD/svg11.dtd">
<!-- Created with matplotlib (https://matplotlib.org/) -->
<svg height="280.64pt" version="1.1" viewBox="0 0 749.18 280.64" width="749.18pt" xmlns="http://www.w3.org/2000/svg" xmlns:xlink="http://www.w3.org/1999/xlink">
 <defs>
  <style type="text/css">
*{stroke-linecap:butt;stroke-linejoin:round;}
  </style>
 </defs>
 <g id="figure_1">
  <g id="patch_1">
   <path d="M 0 280.64 
L 749.18 280.64 
L 749.18 0 
L 0 0 
z
" style="fill:none;"/>
  </g>
  <g id="axes_1">
   <g id="patch_2">
    <path d="M 61.13 224.64 
L 730.73 224.64 
L 730.73 7.2 
L 61.13 7.2 
z
" style="fill:#ffffff;"/>
   </g>
   <g id="line2d_1">
    <path clip-path="url(#p70f01efd21)" d="M 61.13 71.020696 
L 64.486378 71.565711 
L 67.842788 72.262617 
L 72.877356 73.592075 
L 77.911955 75.262402 
L 82.946554 77.255762 
L 87.981121 79.552426 
L 93.01572 82.123018 
L 98.050288 84.924381 
L 104.763076 88.946671 
L 113.154053 94.279459 
L 136.648796 109.423189 
L 145.039774 114.523299 
L 155.10894 120.367193 
L 188.67285 139.554719 
L 198.742032 145.75595 
L 223.914964 161.49235 
L 230.627736 165.318509 
L 235.66232 167.958434 
L 240.696919 170.35492 
L 245.731502 172.475572 
L 250.766085 174.287147 
L 255.800668 175.767615 
L 259.157063 176.561807 
L 262.513457 177.200299 
L 265.869851 177.678258 
L 269.226229 177.999518 
L 272.582623 178.161847 
L 277.617206 178.115677 
L 280.973601 177.900656 
L 286.008184 177.304145 
L 291.042783 176.39823 
L 296.077366 175.205176 
L 301.111949 173.74409 
L 306.146533 172.036937 
L 311.181116 170.104194 
L 316.215715 167.96889 
L 322.928487 164.847729 
L 329.641276 161.466738 
L 338.032253 156.959079 
L 353.136019 148.503016 
L 361.526996 143.90767 
L 368.239752 140.440613 
L 373.274352 138.028977 
L 378.308951 135.818298 
L 383.343518 133.843509 
L 388.378117 132.125769 
L 393.412684 130.690724 
L 398.447284 129.536885 
L 403.481883 128.669744 
L 408.51645 128.070613 
L 413.551049 127.712655 
L 418.585617 127.563022 
L 425.298405 127.608042 
L 437.045792 127.981939 
L 445.43677 128.146545 
L 450.471337 128.083211 
L 455.505936 127.841722 
L 460.540503 127.386547 
L 465.575103 126.697931 
L 470.609702 125.762432 
L 475.644269 124.580967 
L 480.678868 123.169447 
L 485.713435 121.551875 
L 492.426224 119.127717 
L 500.817201 115.811388 
L 519.277345 108.366618 
L 525.990133 105.924245 
L 532.702921 103.740893 
L 537.737521 102.305617 
L 542.772088 101.055023 
L 547.806687 100.002671 
L 552.841254 99.141001 
L 557.875854 98.468967 
L 562.910453 97.975744 
L 569.623209 97.574024 
L 576.335997 97.432853 
L 584.726975 97.556492 
L 593.117952 97.918824 
L 609.899939 98.961296 
L 623.325451 99.68618 
L 635.072839 100.044222 
L 648.498415 100.183732 
L 660.245803 100.338893 
L 666.958559 100.60174 
L 673.671316 101.09274 
L 678.705947 101.662891 
L 683.740514 102.436735 
L 688.775081 103.440733 
L 693.809712 104.687668 
L 698.84428 106.180937 
L 703.878847 107.916486 
L 708.913414 109.875039 
L 715.626234 112.78243 
L 724.01718 116.754504 
L 730.73 120.046691 
L 730.73 120.046691 
" style="fill:none;stroke:#000000;stroke-linecap:square;stroke-width:1.5;"/>
   </g>
   <g id="matplotlib.axis_1">
    <g id="xtick_1">
     <g id="line2d_2">
      <defs>
       <path d="M 0 0 
L 0 3.5 
" id="m4ee5593952" style="stroke:#000000;stroke-width:0.8;"/>
      </defs>
      <g>
       <use style="stroke:#000000;stroke-width:0.8;" x="61.13" xlink:href="#m4ee5593952" y="224.64"/>
      </g>
     </g>
     <g id="text_1">
      <!-- −5.0 -->
      <defs>
       <path d="M 62.09375 22 
L 6.40625 22 
L 6.40625 28.59375 
L 62.09375 28.59375 
z
" id="STIXGeneral-Regular-8722"/>
       <path d="M 43.796875 68.09375 
L 40.203125 59.59375 
Q 39.59375 58.296875 37.5 58.296875 
L 18.09375 58.296875 
L 14.09375 49.796875 
Q 25.09375 47.703125 30 45.25 
Q 34.90625 42.796875 39.09375 37 
Q 42.59375 32.203125 42.59375 24.296875 
Q 42.59375 17.09375 40.25 12.1875 
Q 37.90625 7.296875 32.796875 3.5 
Q 26 -1.40625 15.796875 -1.40625 
Q 10.09375 -1.40625 6.59375 0.296875 
Q 3.09375 2 3.09375 4.796875 
Q 3.09375 8.59375 7.59375 8.59375 
Q 11.203125 8.59375 15 5.5 
Q 18.90625 2.296875 22.09375 2.296875 
Q 27.296875 2.296875 31.4375 7.5 
Q 35.59375 12.703125 35.59375 19.203125 
Q 35.59375 28.796875 28.90625 34.203125 
Q 20.203125 41.203125 7.59375 41.203125 
Q 6.40625 41.203125 6.40625 42 
L 6.5 42.5 
L 17.40625 66.203125 
L 38.09375 66.203125 
Q 39.796875 66.203125 40.75 66.703125 
Q 41.703125 67.203125 42.90625 68.796875 
z
" id="STIXGeneral-Regular-53"/>
       <path d="M 18.09375 4.296875 
Q 18.09375 2.09375 16.4375 0.5 
Q 14.796875 -1.09375 12.5 -1.09375 
Q 10.203125 -1.09375 8.59375 0.5 
Q 7 2.09375 7 4.390625 
Q 7 6.703125 8.640625 8.34375 
Q 10.296875 10 12.59375 10 
Q 14.796875 10 16.4375 8.296875 
Q 18.09375 6.59375 18.09375 4.296875 
z
" id="STIXGeneral-Regular-46"/>
       <path d="M 47.59375 33 
Q 47.59375 26.296875 46.296875 20.34375 
Q 45 14.40625 42.453125 9.40625 
Q 39.90625 4.40625 35.40625 1.5 
Q 30.90625 -1.40625 25 -1.40625 
Q 18.90625 -1.40625 14.296875 1.6875 
Q 9.703125 4.796875 7.203125 10 
Q 4.703125 15.203125 3.546875 21.09375 
Q 2.40625 27 2.40625 33.59375 
Q 2.40625 42.90625 4.703125 50.34375 
Q 7 57.796875 12.34375 62.6875 
Q 17.703125 67.59375 25.40625 67.59375 
Q 35.203125 67.59375 41.390625 58 
Q 47.59375 48.40625 47.59375 33 
z
M 38 32.5 
Q 38 48.296875 34.640625 56.640625 
Q 31.296875 65 24.796875 65 
Q 18.59375 65 15.296875 56.59375 
Q 12 48.203125 12 32.90625 
Q 12 17.5 15.296875 9.34375 
Q 18.59375 1.203125 25 1.203125 
Q 31.296875 1.203125 34.640625 9.34375 
Q 38 17.5 38 32.5 
z
" id="STIXGeneral-Regular-48"/>
      </defs>
      <g transform="translate(43.715 243.933437)scale(0.18 -0.18)">
       <use xlink:href="#STIXGeneral-Regular-8722"/>
       <use x="68.499985" xlink:href="#STIXGeneral-Regular-53"/>
       <use x="118.499969" xlink:href="#STIXGeneral-Regular-46"/>
       <use x="143.499954" xlink:href="#STIXGeneral-Regular-48"/>
      </g>
     </g>
    </g>
    <g id="xtick_2">
     <g id="line2d_3">
      <g>
       <use style="stroke:#000000;stroke-width:0.8;" x="228.53" xlink:href="#m4ee5593952" y="224.64"/>
      </g>
     </g>
     <g id="text_2">
      <!-- −2.5 -->
      <defs>
       <path d="M 47.40625 13.703125 
L 42 0 
L 2.90625 0 
L 2.90625 1.203125 
L 20.703125 20.09375 
Q 27.703125 27.40625 30.703125 33.5 
Q 33.703125 39.59375 33.703125 46.09375 
Q 33.703125 52.796875 30 56.5 
Q 26.296875 60.203125 19.796875 60.203125 
Q 14.40625 60.203125 11.25 57.390625 
Q 8.09375 54.59375 5.09375 47.203125 
L 3 47.703125 
Q 4.703125 57 9.84375 62.296875 
Q 15 67.59375 23.796875 67.59375 
Q 32.09375 67.59375 37.1875 62.59375 
Q 42.296875 57.59375 42.296875 50 
Q 42.296875 38.703125 29.5 25.203125 
L 13 7.59375 
L 36.40625 7.59375 
Q 39.703125 7.59375 41.640625 8.890625 
Q 43.59375 10.203125 46 14.296875 
z
" id="STIXGeneral-Regular-50"/>
      </defs>
      <g transform="translate(211.115 243.933437)scale(0.18 -0.18)">
       <use xlink:href="#STIXGeneral-Regular-8722"/>
       <use x="68.499985" xlink:href="#STIXGeneral-Regular-50"/>
       <use x="118.499969" xlink:href="#STIXGeneral-Regular-46"/>
       <use x="143.499954" xlink:href="#STIXGeneral-Regular-53"/>
      </g>
     </g>
    </g>
    <g id="xtick_3">
     <g id="line2d_4">
      <g>
       <use style="stroke:#000000;stroke-width:0.8;" x="395.93" xlink:href="#m4ee5593952" y="224.64"/>
      </g>
     </g>
     <g id="text_3">
      <!-- 0.0 -->
      <g transform="translate(384.68 243.933437)scale(0.18 -0.18)">
       <use xlink:href="#STIXGeneral-Regular-48"/>
       <use x="49.999985" xlink:href="#STIXGeneral-Regular-46"/>
       <use x="74.999969" xlink:href="#STIXGeneral-Regular-48"/>
      </g>
     </g>
    </g>
    <g id="xtick_4">
     <g id="line2d_5">
      <g>
       <use style="stroke:#000000;stroke-width:0.8;" x="563.33" xlink:href="#m4ee5593952" y="224.64"/>
      </g>
     </g>
     <g id="text_4">
      <!-- 2.5 -->
      <g transform="translate(552.08 243.933437)scale(0.18 -0.18)">
       <use xlink:href="#STIXGeneral-Regular-50"/>
       <use x="49.999985" xlink:href="#STIXGeneral-Regular-46"/>
       <use x="74.999969" xlink:href="#STIXGeneral-Regular-53"/>
      </g>
     </g>
    </g>
    <g id="xtick_5">
     <g id="line2d_6">
      <g>
       <use style="stroke:#000000;stroke-width:0.8;" x="730.73" xlink:href="#m4ee5593952" y="224.64"/>
      </g>
     </g>
     <g id="text_5">
      <!-- 5.0 -->
      <g transform="translate(719.48 243.933437)scale(0.18 -0.18)">
       <use xlink:href="#STIXGeneral-Regular-53"/>
       <use x="49.999985" xlink:href="#STIXGeneral-Regular-46"/>
       <use x="74.999969" xlink:href="#STIXGeneral-Regular-48"/>
      </g>
     </g>
    </g>
    <g id="text_6">
     <!-- $x$ -->
     <defs>
      <path d="M 24.296875 35.5 
L 25.5 29.796875 
Q 30.796875 37.90625 34.046875 41 
Q 37.296875 44.09375 40.59375 44.09375 
Q 42.40625 44.09375 43.546875 43.046875 
Q 44.703125 42 44.703125 40.390625 
Q 44.703125 38.796875 43.75 37.796875 
Q 42.796875 36.796875 41.296875 36.796875 
Q 40.40625 36.796875 38.90625 37.640625 
Q 37.40625 38.5 36.09375 38.5 
Q 33.203125 38.5 26.296875 26.40625 
Q 26.296875 25.09375 27.09375 21.90625 
L 30.296875 8.5 
Q 31.296875 4.40625 33.296875 4.40625 
Q 34.90625 4.40625 38 8.40625 
Q 38.296875 8.796875 38.6875 9.34375 
Q 39.09375 9.90625 39.390625 10.34375 
Q 39.703125 10.796875 40.09375 11.203125 
L 41.59375 10.296875 
Q 37.296875 3.59375 34.796875 1.25 
Q 32.296875 -1.09375 29.40625 -1.09375 
Q 27 -1.09375 25.703125 0.40625 
Q 24.40625 1.90625 23.5 5.703125 
L 20.59375 17.59375 
L 11.796875 5.703125 
Q 8.703125 1.5 6.75 0.203125 
Q 4.796875 -1.09375 2.296875 -1.09375 
Q 0 -1.09375 -1.34375 0 
Q -2.703125 1.09375 -2.703125 3.09375 
Q -2.703125 4.59375 -1.75 5.640625 
Q -0.796875 6.703125 0.703125 6.703125 
Q 1.90625 6.703125 3.90625 5.59375 
Q 5.40625 4.703125 6.5 4.703125 
Q 8.203125 4.703125 11.59375 9.59375 
L 19.796875 21.203125 
L 17 33.59375 
Q 16 38 15.140625 39.203125 
Q 14.296875 40.40625 12.40625 40.40625 
Q 11.203125 40.40625 8.5 39.703125 
L 6.703125 39.203125 
L 6.40625 40.796875 
L 7.5 41.203125 
Q 15.5 44.09375 19.203125 44.09375 
Q 21.09375 44.09375 22.1875 42.296875 
Q 23.296875 40.5 24.296875 35.5 
z
" id="STIXGeneral-Italic-120"/>
     </defs>
     <g transform="translate(390.53 268.23125)scale(0.24 -0.24)">
      <use transform="translate(0 0.90625)" xlink:href="#STIXGeneral-Italic-120"/>
     </g>
    </g>
   </g>
   <g id="matplotlib.axis_2">
    <g id="ytick_1">
     <g id="line2d_7">
      <defs>
       <path d="M 0 0 
L -3.5 0 
" id="m5975829cdf" style="stroke:#000000;stroke-width:0.8;"/>
      </defs>
      <g>
       <use style="stroke:#000000;stroke-width:0.8;" x="61.13" xlink:href="#m5975829cdf" y="209.108571"/>
      </g>
     </g>
     <g id="text_7">
      <!-- −3 -->
      <defs>
       <path d="M 6.09375 51 
L 4.5 51.40625 
Q 6.796875 58.90625 11.6875 63.25 
Q 16.59375 67.59375 24.09375 67.59375 
Q 31.09375 67.59375 35.390625 63.796875 
Q 39.703125 60 39.703125 53.90625 
Q 39.703125 45.703125 30.40625 40.09375 
Q 35.90625 37.703125 38.703125 34.796875 
Q 43.09375 29.90625 43.09375 21.90625 
Q 43.09375 13.90625 38.5 7.90625 
Q 35.09375 3.296875 28.75 0.9375 
Q 22.40625 -1.40625 15.296875 -1.40625 
Q 4.09375 -1.40625 4.09375 4.296875 
Q 4.09375 5.90625 5.296875 6.90625 
Q 6.5 7.90625 8.203125 7.90625 
Q 10.703125 7.90625 14.296875 5.296875 
Q 18.703125 2.203125 22.90625 2.203125 
Q 28.40625 2.203125 32.15625 6.640625 
Q 35.90625 11.09375 35.90625 17.5 
Q 35.90625 29 25.5 32 
Q 22.40625 33 15.296875 33 
L 15.296875 34.40625 
Q 20.90625 36.296875 23.703125 38 
Q 31.796875 42.59375 31.796875 51.40625 
Q 31.796875 56.40625 28.9375 59 
Q 26.09375 61.59375 21 61.59375 
Q 12 61.59375 6.09375 51 
z
" id="STIXGeneral-Regular-51"/>
      </defs>
      <g transform="translate(32.8 215.25529)scale(0.18 -0.18)">
       <use xlink:href="#STIXGeneral-Regular-8722"/>
       <use x="68.499985" xlink:href="#STIXGeneral-Regular-51"/>
      </g>
     </g>
    </g>
    <g id="ytick_2">
     <g id="line2d_8">
      <g>
       <use style="stroke:#000000;stroke-width:0.8;" x="61.13" xlink:href="#m5975829cdf" y="115.92"/>
      </g>
     </g>
     <g id="text_8">
      <!-- 0 -->
      <g transform="translate(45.13 122.066719)scale(0.18 -0.18)">
       <use xlink:href="#STIXGeneral-Regular-48"/>
      </g>
     </g>
    </g>
    <g id="ytick_3">
     <g id="line2d_9">
      <g>
       <use style="stroke:#000000;stroke-width:0.8;" x="61.13" xlink:href="#m5975829cdf" y="22.731429"/>
      </g>
     </g>
     <g id="text_9">
      <!-- 3 -->
      <g transform="translate(45.13 28.878147)scale(0.18 -0.18)">
       <use xlink:href="#STIXGeneral-Regular-51"/>
      </g>
     </g>
    </g>
    <g id="text_10">
     <!-- $y$ -->
     <defs>
      <path d="M 24.296875 18.59375 
L 26.40625 7.59375 
Q 33.09375 18.59375 35.84375 24.34375 
Q 38.59375 30.09375 38.59375 33.296875 
Q 38.59375 34.90625 36 36.5 
Q 33.40625 38.203125 33.40625 40.40625 
Q 33.40625 42 34.546875 43.046875 
Q 35.703125 44.09375 37.40625 44.09375 
Q 39.59375 44.09375 41.09375 42.5 
Q 42.59375 40.90625 42.59375 38.59375 
Q 42.59375 29.90625 29.5 8.09375 
Q 21.703125 -4.796875 14.34375 -12.6875 
Q 7 -20.59375 2.703125 -20.59375 
Q 0.40625 -20.59375 -1 -19.390625 
Q -2.40625 -18.203125 -2.40625 -16.296875 
Q -2.40625 -14.59375 -1.25 -13.4375 
Q -0.09375 -12.296875 1.5 -12.296875 
Q 3.40625 -12.296875 4.90625 -13.6875 
Q 6.40625 -15.09375 7.59375 -15.09375 
Q 9.40625 -15.09375 12.40625 -11.796875 
Q 13.703125 -10.5 16.25 -7.140625 
Q 18.796875 -3.796875 19.5 -2.703125 
Q 20.5 -0.703125 20.5 0.796875 
Q 20.5 3.796875 17.390625 16.34375 
Q 14.296875 28.90625 12.296875 34 
Q 10.90625 37.703125 9.25 39.046875 
Q 7.59375 40.40625 4.59375 40.40625 
Q 3 40.40625 1.5 40 
L 1.5 41.703125 
Q 3.703125 42.09375 4.703125 42.296875 
Q 8.796875 43.09375 15.40625 44.09375 
L 15.796875 44.09375 
Q 16.90625 44.09375 19.953125 34.796875 
Q 23 25.5 24.296875 18.59375 
z
" id="STIXGeneral-Italic-121"/>
     </defs>
     <g transform="translate(23.59125 121.32)rotate(-90)scale(0.24 -0.24)">
      <use transform="translate(0 0.90625)" xlink:href="#STIXGeneral-Italic-121"/>
     </g>
    </g>
   </g>
   <g id="PathCollection_1">
    <defs>
     <path d="M -5 0 
L 5 0 
M 0 5 
L 0 -5 
" id="m20adb3098d" style="stroke:#d62728;stroke-width:3;"/>
    </defs>
    <g clip-path="url(#p70f01efd21)">
     <use style="fill:#d62728;stroke:#d62728;stroke-width:3;" x="282.651806" xlink:href="#m20adb3098d" y="178.158784"/>
     <use style="fill:#d62728;stroke:#d62728;stroke-width:3;" x="579.692407" xlink:href="#m20adb3098d" y="92.623517"/>
     <use style="fill:#d62728;stroke:#d62728;stroke-width:3;" x="633.39465" xlink:href="#m20adb3098d" y="105.690783"/>
     <use style="fill:#d62728;stroke:#d62728;stroke-width:3;" x="390.056306" xlink:href="#m20adb3098d" y="118.677543"/>
     <use style="fill:#d62728;stroke:#d62728;stroke-width:3;" x="473.96608" xlink:href="#m20adb3098d" y="127.350066"/>
     <use style="fill:#d62728;stroke:#d62728;stroke-width:3;" x="161.821728" xlink:href="#m20adb3098d" y="126.475704"/>
     <use style="fill:#d62728;stroke:#d62728;stroke-width:3;" x="321.250298" xlink:href="#m20adb3098d" y="157.84134"/>
     <use style="fill:#d62728;stroke:#d62728;stroke-width:3;" x="499.139012" xlink:href="#m20adb3098d" y="67.058364"/>
     <use style="fill:#d62728;stroke:#d62728;stroke-width:3;" x="297.755555" xlink:href="#m20adb3098d" y="174.837662"/>
     <use style="fill:#d62728;stroke:#d62728;stroke-width:3;" x="420.263838" xlink:href="#m20adb3098d" y="104.446661"/>
     <use style="fill:#d62728;stroke:#d62728;stroke-width:3;" x="123.22322" xlink:href="#m20adb3098d" y="98.29375"/>
     <use style="fill:#d62728;stroke:#d62728;stroke-width:3;" x="286.008184" xlink:href="#m20adb3098d" y="174.137686"/>
     <use style="fill:#d62728;stroke:#d62728;stroke-width:3;" x="250.766085" xlink:href="#m20adb3098d" y="180.154008"/>
     <use style="fill:#d62728;stroke:#d62728;stroke-width:3;" x="645.142037" xlink:href="#m20adb3098d" y="100.608307"/>
     <use style="fill:#d62728;stroke:#d62728;stroke-width:3;" x="81.268333" xlink:href="#m20adb3098d" y="65.558841"/>
     <use style="fill:#d62728;stroke:#d62728;stroke-width:3;" x="160.143539" xlink:href="#m20adb3098d" y="128.336024"/>
     <use style="fill:#d62728;stroke:#d62728;stroke-width:3;" x="552.841254" xlink:href="#m20adb3098d" y="103.527546"/>
     <use style="fill:#d62728;stroke:#d62728;stroke-width:3;" x="296.077366" xlink:href="#m20adb3098d" y="172.023938"/>
     <use style="fill:#d62728;stroke:#d62728;stroke-width:3;" x="406.838261" xlink:href="#m20adb3098d" y="119.347607"/>
     <use style="fill:#d62728;stroke:#d62728;stroke-width:3;" x="395.090905" xlink:href="#m20adb3098d" y="120.427442"/>
    </g>
   </g>
   <g id="patch_3">
    <path d="M 61.13 224.64 
L 61.13 7.2 
" style="fill:none;stroke:#000000;stroke-linecap:square;stroke-linejoin:miter;stroke-width:0.8;"/>
   </g>
   <g id="patch_4">
    <path d="M 730.73 224.64 
L 730.73 7.2 
" style="fill:none;stroke:#000000;stroke-linecap:square;stroke-linejoin:miter;stroke-width:0.8;"/>
   </g>
   <g id="patch_5">
    <path d="M 61.13 224.64 
L 730.73 224.64 
" style="fill:none;stroke:#000000;stroke-linecap:square;stroke-linejoin:miter;stroke-width:0.8;"/>
   </g>
   <g id="patch_6">
    <path d="M 61.13 7.2 
L 730.73 7.2 
" style="fill:none;stroke:#000000;stroke-linecap:square;stroke-linejoin:miter;stroke-width:0.8;"/>
   </g>
  </g>
 </g>
 <defs>
  <clipPath id="p70f01efd21">
   <rect height="217.44" width="669.6" x="61.13" y="7.2"/>
  </clipPath>
 </defs>
</svg>
