<?xml version="1.0" encoding="utf-8" standalone="no"?>
<!DOCTYPE svg PUBLIC "-//W3C//DTD SVG 1.1//EN"
  "http://www.w3.org/Graphics/SVG/1.1/DTD/svg11.dtd">
<!-- Created with matplotlib (https://matplotlib.org/) -->
<svg height="280.64pt" version="1.1" viewBox="0 0 750.35 280.64" width="750.35pt" xmlns="http://www.w3.org/2000/svg" xmlns:xlink="http://www.w3.org/1999/xlink">
 <defs>
  <style type="text/css">
*{stroke-linecap:butt;stroke-linejoin:round;}
  </style>
 </defs>
 <g id="figure_1">
  <g id="patch_1">
   <path d="M 0 280.64 
L 750.35 280.64 
L 750.35 0 
L 0 0 
z
" style="fill:none;"/>
  </g>
  <g id="axes_1">
   <g id="patch_2">
    <path d="M 62.3 224.64 
L 731.9 224.64 
L 731.9 7.2 
L 62.3 7.2 
z
" style="fill:#ffffff;"/>
   </g>
   <g id="line2d_1">
    <path clip-path="url(#pca1b0c501b)" d="M 62.3 28.813955 
L 69.012788 29.208335 
L 74.047356 29.679324 
L 79.081955 30.341459 
L 84.116554 31.248625 
L 87.472932 32.025975 
L 90.82931 32.972973 
L 94.18572 34.123692 
L 97.542099 35.518177 
L 100.898509 37.202079 
L 104.254887 39.228992 
L 107.611265 41.655318 
L 110.967675 44.543165 
L 114.324053 47.955264 
L 117.680463 51.952295 
L 121.036842 56.579116 
L 124.39322 61.874278 
L 127.74963 67.849271 
L 131.106008 74.487668 
L 134.462402 81.736136 
L 137.818796 89.509269 
L 142.853379 101.900511 
L 156.27894 135.648314 
L 159.635334 143.4742 
L 162.991728 150.836257 
L 166.348107 157.671846 
L 169.704517 163.943423 
L 173.060895 169.63792 
L 176.417289 174.756439 
L 179.773683 179.315308 
L 183.130061 183.343216 
L 186.486471 186.870494 
L 189.84285 189.939387 
L 193.199244 192.58613 
L 196.555638 194.854108 
L 199.912032 196.784038 
L 203.26841 198.414887 
L 206.624804 199.784105 
L 209.981198 200.926792 
L 213.337593 201.875353 
L 218.372176 202.997158 
L 223.406759 203.83131 
L 228.441342 204.447227 
L 235.15413 205.021724 
L 243.545108 205.47172 
L 253.614274 205.772355 
L 267.039851 205.948115 
L 285.499995 205.951604 
L 302.281949 205.732352 
L 314.029321 205.368079 
L 322.420298 204.915922 
L 329.133071 204.36971 
L 335.845843 203.581873 
L 340.880442 202.77268 
L 345.915041 201.717989 
L 350.949609 200.355263 
L 354.306019 199.242785 
L 357.662397 197.94417 
L 361.018775 196.441779 
L 364.375185 194.721476 
L 367.731563 192.776542 
L 371.087973 190.607687 
L 374.444352 188.225573 
L 379.478951 184.306348 
L 386.191707 178.654994 
L 394.582684 171.560958 
L 397.939095 168.92449 
L 401.295473 166.497796 
L 404.651883 164.32747 
L 408.008261 162.457459 
L 411.364639 160.904487 
L 414.721049 159.680047 
L 418.077427 158.785244 
L 421.433838 158.196072 
L 424.790216 157.888565 
L 428.146594 157.822174 
L 431.503004 157.947256 
L 436.537571 158.392241 
L 448.284959 159.670209 
L 451.641337 159.857603 
L 454.997747 159.877854 
L 458.354125 159.691397 
L 461.710503 159.254806 
L 465.066913 158.531096 
L 468.423292 157.489545 
L 471.779702 156.093719 
L 475.13608 154.313783 
L 478.492458 152.132337 
L 481.848868 149.523838 
L 485.205246 146.478892 
L 488.561656 142.995195 
L 491.918035 139.075605 
L 495.274413 134.748011 
L 498.630823 130.052091 
L 501.987201 125.0513 
L 507.0218 117.121751 
L 518.769156 98.233417 
L 523.803755 90.696987 
L 527.160133 86.037402 
L 530.516543 81.71937 
L 533.872921 77.768153 
L 537.2293 74.197635 
L 540.58571 71.007032 
L 543.942088 68.182933 
L 547.298498 65.715342 
L 550.654876 63.571738 
L 554.011254 61.734594 
L 557.367664 60.177077 
L 560.724043 58.878544 
L 564.080453 57.812791 
L 567.436831 56.958104 
L 570.793209 56.295743 
L 574.149619 55.808162 
L 579.184186 55.370622 
L 584.218786 55.23472 
L 589.253385 55.360149 
L 594.287952 55.700511 
L 601.00074 56.415868 
L 609.391686 57.590399 
L 626.173641 60.050677 
L 632.886461 60.814824 
L 639.599217 61.36321 
L 646.312037 61.701411 
L 658.059361 61.991285 
L 664.772181 62.220502 
L 669.806748 62.568983 
L 674.841316 63.173189 
L 678.197758 63.767684 
L 681.554136 64.556109 
L 684.910514 65.571856 
L 688.266892 66.853897 
L 691.62327 68.438579 
L 694.979712 70.364568 
L 698.336091 72.671113 
L 701.692469 75.399534 
L 705.048847 78.584109 
L 708.405225 82.249765 
L 711.761667 86.419495 
L 715.118045 91.0908 
L 718.474423 96.249609 
L 721.830802 101.852135 
L 725.18718 107.834166 
L 730.221811 117.297732 
L 731.9 120.523545 
L 731.9 120.523545 
" style="fill:none;stroke:#000000;stroke-linecap:square;stroke-width:1.5;"/>
   </g>
   <g id="matplotlib.axis_1">
    <g id="xtick_1">
     <g id="line2d_2">
      <defs>
       <path d="M 0 0 
L 0 3.5 
" id="m8330843594" style="stroke:#000000;stroke-width:0.8;"/>
      </defs>
      <g>
       <use style="stroke:#000000;stroke-width:0.8;" x="62.3" xlink:href="#m8330843594" y="224.64"/>
      </g>
     </g>
     <g id="text_1">
      <!-- −5.0 -->
      <defs>
       <path d="M 62.09375 22 
L 6.40625 22 
L 6.40625 28.59375 
L 62.09375 28.59375 
z
" id="STIXGeneral-Regular-8722"/>
       <path d="M 43.796875 68.09375 
L 40.203125 59.59375 
Q 39.59375 58.296875 37.5 58.296875 
L 18.09375 58.296875 
L 14.09375 49.796875 
Q 25.09375 47.703125 30 45.25 
Q 34.90625 42.796875 39.09375 37 
Q 42.59375 32.203125 42.59375 24.296875 
Q 42.59375 17.09375 40.25 12.1875 
Q 37.90625 7.296875 32.796875 3.5 
Q 26 -1.40625 15.796875 -1.40625 
Q 10.09375 -1.40625 6.59375 0.296875 
Q 3.09375 2 3.09375 4.796875 
Q 3.09375 8.59375 7.59375 8.59375 
Q 11.203125 8.59375 15 5.5 
Q 18.90625 2.296875 22.09375 2.296875 
Q 27.296875 2.296875 31.4375 7.5 
Q 35.59375 12.703125 35.59375 19.203125 
Q 35.59375 28.796875 28.90625 34.203125 
Q 20.203125 41.203125 7.59375 41.203125 
Q 6.40625 41.203125 6.40625 42 
L 6.5 42.5 
L 17.40625 66.203125 
L 38.09375 66.203125 
Q 39.796875 66.203125 40.75 66.703125 
Q 41.703125 67.203125 42.90625 68.796875 
z
" id="STIXGeneral-Regular-53"/>
       <path d="M 18.09375 4.296875 
Q 18.09375 2.09375 16.4375 0.5 
Q 14.796875 -1.09375 12.5 -1.09375 
Q 10.203125 -1.09375 8.59375 0.5 
Q 7 2.09375 7 4.390625 
Q 7 6.703125 8.640625 8.34375 
Q 10.296875 10 12.59375 10 
Q 14.796875 10 16.4375 8.296875 
Q 18.09375 6.59375 18.09375 4.296875 
z
" id="STIXGeneral-Regular-46"/>
       <path d="M 47.59375 33 
Q 47.59375 26.296875 46.296875 20.34375 
Q 45 14.40625 42.453125 9.40625 
Q 39.90625 4.40625 35.40625 1.5 
Q 30.90625 -1.40625 25 -1.40625 
Q 18.90625 -1.40625 14.296875 1.6875 
Q 9.703125 4.796875 7.203125 10 
Q 4.703125 15.203125 3.546875 21.09375 
Q 2.40625 27 2.40625 33.59375 
Q 2.40625 42.90625 4.703125 50.34375 
Q 7 57.796875 12.34375 62.6875 
Q 17.703125 67.59375 25.40625 67.59375 
Q 35.203125 67.59375 41.390625 58 
Q 47.59375 48.40625 47.59375 33 
z
M 38 32.5 
Q 38 48.296875 34.640625 56.640625 
Q 31.296875 65 24.796875 65 
Q 18.59375 65 15.296875 56.59375 
Q 12 48.203125 12 32.90625 
Q 12 17.5 15.296875 9.34375 
Q 18.59375 1.203125 25 1.203125 
Q 31.296875 1.203125 34.640625 9.34375 
Q 38 17.5 38 32.5 
z
" id="STIXGeneral-Regular-48"/>
      </defs>
      <g transform="translate(44.885 243.933437)scale(0.18 -0.18)">
       <use xlink:href="#STIXGeneral-Regular-8722"/>
       <use x="68.499985" xlink:href="#STIXGeneral-Regular-53"/>
       <use x="118.499969" xlink:href="#STIXGeneral-Regular-46"/>
       <use x="143.499954" xlink:href="#STIXGeneral-Regular-48"/>
      </g>
     </g>
    </g>
    <g id="xtick_2">
     <g id="line2d_3">
      <g>
       <use style="stroke:#000000;stroke-width:0.8;" x="229.7" xlink:href="#m8330843594" y="224.64"/>
      </g>
     </g>
     <g id="text_2">
      <!-- −2.5 -->
      <defs>
       <path d="M 47.40625 13.703125 
L 42 0 
L 2.90625 0 
L 2.90625 1.203125 
L 20.703125 20.09375 
Q 27.703125 27.40625 30.703125 33.5 
Q 33.703125 39.59375 33.703125 46.09375 
Q 33.703125 52.796875 30 56.5 
Q 26.296875 60.203125 19.796875 60.203125 
Q 14.40625 60.203125 11.25 57.390625 
Q 8.09375 54.59375 5.09375 47.203125 
L 3 47.703125 
Q 4.703125 57 9.84375 62.296875 
Q 15 67.59375 23.796875 67.59375 
Q 32.09375 67.59375 37.1875 62.59375 
Q 42.296875 57.59375 42.296875 50 
Q 42.296875 38.703125 29.5 25.203125 
L 13 7.59375 
L 36.40625 7.59375 
Q 39.703125 7.59375 41.640625 8.890625 
Q 43.59375 10.203125 46 14.296875 
z
" id="STIXGeneral-Regular-50"/>
      </defs>
      <g transform="translate(212.285 243.933437)scale(0.18 -0.18)">
       <use xlink:href="#STIXGeneral-Regular-8722"/>
       <use x="68.499985" xlink:href="#STIXGeneral-Regular-50"/>
       <use x="118.499969" xlink:href="#STIXGeneral-Regular-46"/>
       <use x="143.499954" xlink:href="#STIXGeneral-Regular-53"/>
      </g>
     </g>
    </g>
    <g id="xtick_3">
     <g id="line2d_4">
      <g>
       <use style="stroke:#000000;stroke-width:0.8;" x="397.1" xlink:href="#m8330843594" y="224.64"/>
      </g>
     </g>
     <g id="text_3">
      <!-- 0.0 -->
      <g transform="translate(385.85 243.933437)scale(0.18 -0.18)">
       <use xlink:href="#STIXGeneral-Regular-48"/>
       <use x="49.999985" xlink:href="#STIXGeneral-Regular-46"/>
       <use x="74.999969" xlink:href="#STIXGeneral-Regular-48"/>
      </g>
     </g>
    </g>
    <g id="xtick_4">
     <g id="line2d_5">
      <g>
       <use style="stroke:#000000;stroke-width:0.8;" x="564.5" xlink:href="#m8330843594" y="224.64"/>
      </g>
     </g>
     <g id="text_4">
      <!-- 2.5 -->
      <g transform="translate(553.25 243.933437)scale(0.18 -0.18)">
       <use xlink:href="#STIXGeneral-Regular-50"/>
       <use x="49.999985" xlink:href="#STIXGeneral-Regular-46"/>
       <use x="74.999969" xlink:href="#STIXGeneral-Regular-53"/>
      </g>
     </g>
    </g>
    <g id="xtick_5">
     <g id="line2d_6">
      <g>
       <use style="stroke:#000000;stroke-width:0.8;" x="731.9" xlink:href="#m8330843594" y="224.64"/>
      </g>
     </g>
     <g id="text_5">
      <!-- 5.0 -->
      <g transform="translate(720.65 243.933437)scale(0.18 -0.18)">
       <use xlink:href="#STIXGeneral-Regular-53"/>
       <use x="49.999985" xlink:href="#STIXGeneral-Regular-46"/>
       <use x="74.999969" xlink:href="#STIXGeneral-Regular-48"/>
      </g>
     </g>
    </g>
    <g id="text_6">
     <!-- $x$ -->
     <defs>
      <path d="M 24.296875 35.5 
L 25.5 29.796875 
Q 30.796875 37.90625 34.046875 41 
Q 37.296875 44.09375 40.59375 44.09375 
Q 42.40625 44.09375 43.546875 43.046875 
Q 44.703125 42 44.703125 40.390625 
Q 44.703125 38.796875 43.75 37.796875 
Q 42.796875 36.796875 41.296875 36.796875 
Q 40.40625 36.796875 38.90625 37.640625 
Q 37.40625 38.5 36.09375 38.5 
Q 33.203125 38.5 26.296875 26.40625 
Q 26.296875 25.09375 27.09375 21.90625 
L 30.296875 8.5 
Q 31.296875 4.40625 33.296875 4.40625 
Q 34.90625 4.40625 38 8.40625 
Q 38.296875 8.796875 38.6875 9.34375 
Q 39.09375 9.90625 39.390625 10.34375 
Q 39.703125 10.796875 40.09375 11.203125 
L 41.59375 10.296875 
Q 37.296875 3.59375 34.796875 1.25 
Q 32.296875 -1.09375 29.40625 -1.09375 
Q 27 -1.09375 25.703125 0.40625 
Q 24.40625 1.90625 23.5 5.703125 
L 20.59375 17.59375 
L 11.796875 5.703125 
Q 8.703125 1.5 6.75 0.203125 
Q 4.796875 -1.09375 2.296875 -1.09375 
Q 0 -1.09375 -1.34375 0 
Q -2.703125 1.09375 -2.703125 3.09375 
Q -2.703125 4.59375 -1.75 5.640625 
Q -0.796875 6.703125 0.703125 6.703125 
Q 1.90625 6.703125 3.90625 5.59375 
Q 5.40625 4.703125 6.5 4.703125 
Q 8.203125 4.703125 11.59375 9.59375 
L 19.796875 21.203125 
L 17 33.59375 
Q 16 38 15.140625 39.203125 
Q 14.296875 40.40625 12.40625 40.40625 
Q 11.203125 40.40625 8.5 39.703125 
L 6.703125 39.203125 
L 6.40625 40.796875 
L 7.5 41.203125 
Q 15.5 44.09375 19.203125 44.09375 
Q 21.09375 44.09375 22.1875 42.296875 
Q 23.296875 40.5 24.296875 35.5 
z
" id="STIXGeneral-Italic-120"/>
     </defs>
     <g transform="translate(391.7 268.23125)scale(0.24 -0.24)">
      <use transform="translate(0 0.90625)" xlink:href="#STIXGeneral-Italic-120"/>
     </g>
    </g>
   </g>
   <g id="matplotlib.axis_2">
    <g id="ytick_1">
     <g id="line2d_7">
      <defs>
       <path d="M 0 0 
L -3.5 0 
" id="mb7daa20af8" style="stroke:#000000;stroke-width:0.8;"/>
      </defs>
      <g>
       <use style="stroke:#000000;stroke-width:0.8;" x="62.3" xlink:href="#mb7daa20af8" y="206.52"/>
      </g>
     </g>
     <g id="text_7">
      <!-- 0.0 -->
      <g transform="translate(32.8 212.666719)scale(0.18 -0.18)">
       <use xlink:href="#STIXGeneral-Regular-48"/>
       <use x="49.999985" xlink:href="#STIXGeneral-Regular-46"/>
       <use x="74.999969" xlink:href="#STIXGeneral-Regular-48"/>
      </g>
     </g>
    </g>
    <g id="ytick_2">
     <g id="line2d_8">
      <g>
       <use style="stroke:#000000;stroke-width:0.8;" x="62.3" xlink:href="#mb7daa20af8" y="115.92"/>
      </g>
     </g>
     <g id="text_8">
      <!-- 0.5 -->
      <g transform="translate(32.8 122.066719)scale(0.18 -0.18)">
       <use xlink:href="#STIXGeneral-Regular-48"/>
       <use x="49.999985" xlink:href="#STIXGeneral-Regular-46"/>
       <use x="74.999969" xlink:href="#STIXGeneral-Regular-53"/>
      </g>
     </g>
    </g>
    <g id="ytick_3">
     <g id="line2d_9">
      <g>
       <use style="stroke:#000000;stroke-width:0.8;" x="62.3" xlink:href="#mb7daa20af8" y="25.32"/>
      </g>
     </g>
     <g id="text_9">
      <!-- 1.0 -->
      <defs>
       <path d="M 39.40625 0 
L 11.796875 0 
L 11.796875 1.5 
Q 17.296875 1.796875 19.296875 3.546875 
Q 21.296875 5.296875 21.296875 9.5 
L 21.296875 54.40625 
Q 21.296875 59.296875 18.296875 59.296875 
Q 16.90625 59.296875 13.796875 58.09375 
L 11.09375 57.09375 
L 11.09375 58.5 
L 29 67.59375 
L 29.90625 67.296875 
L 29.90625 7.59375 
Q 29.90625 4.296875 31.90625 2.890625 
Q 33.90625 1.5 39.40625 1.5 
z
" id="STIXGeneral-Regular-49"/>
      </defs>
      <g transform="translate(32.8 31.466719)scale(0.18 -0.18)">
       <use xlink:href="#STIXGeneral-Regular-49"/>
       <use x="49.999985" xlink:href="#STIXGeneral-Regular-46"/>
       <use x="74.999969" xlink:href="#STIXGeneral-Regular-48"/>
      </g>
     </g>
    </g>
    <g id="text_10">
     <!-- $p(x)$ -->
     <defs>
      <path d="M 21.5 42.796875 
L 18.59375 32.796875 
Q 26.09375 44.09375 35.703125 44.09375 
Q 41.203125 44.09375 44.203125 40.796875 
Q 47.203125 37.5 47.203125 31.59375 
Q 47.203125 19.296875 37.84375 9.09375 
Q 28.5 -1.09375 17.5 -1.09375 
Q 13.90625 -1.09375 10.59375 0.59375 
Q 6.59375 -15.90625 6.59375 -16 
Q 6.59375 -17.59375 7.9375 -18.25 
Q 9.296875 -18.90625 12.796875 -18.90625 
L 12.796875 -20.5 
L -7.5 -20.5 
L -7.5 -18.90625 
Q -4.296875 -18.796875 -2.9375 -17.5 
Q -1.59375 -16.203125 -0.703125 -12.59375 
L 10.796875 30.59375 
Q 12.40625 36.40625 12.40625 37.703125 
Q 12.40625 40.40625 8 40.40625 
L 5.796875 40.40625 
L 5.59375 41.90625 
L 21.203125 44.09375 
Q 21.703125 44.09375 21.703125 43.703125 
Q 21.59375 43.203125 21.5 42.796875 
z
M 38.203125 31.296875 
Q 38.203125 35.703125 36.75 37.75 
Q 35.296875 39.796875 32 39.796875 
Q 28.09375 39.796875 24.1875 36.390625 
Q 20.296875 33 18.5 28.40625 
Q 16.296875 22.703125 14.140625 14.890625 
Q 12 7.09375 12 4.59375 
Q 12 2.90625 13.34375 1.84375 
Q 14.703125 0.796875 16.796875 0.796875 
Q 24.59375 0.796875 31.296875 10.296875 
Q 38.203125 19.90625 38.203125 31.296875 
z
" id="STIXGeneral-Italic-112"/>
      <path d="M 30.40625 -16.09375 
L 29.203125 -17.703125 
Q 17.59375 -11.09375 11.1875 0.5 
Q 4.796875 12.09375 4.796875 25.203125 
Q 4.796875 52.90625 29.5 67.59375 
L 30.40625 66 
Q 20.203125 57.296875 16.796875 48.84375 
Q 13.40625 40.40625 13.40625 25.5 
Q 13.40625 10.703125 16.90625 1.5 
Q 20.40625 -7.703125 30.40625 -16.09375 
z
" id="STIXGeneral-Regular-40"/>
      <path d="M 2.90625 66 
L 4.09375 67.59375 
Q 15.5 60.796875 22 49.1875 
Q 28.5 37.59375 28.5 24.703125 
Q 28.5 -2.59375 3.796875 -17.703125 
L 2.90625 -16.09375 
Q 13.203125 -7.59375 16.546875 0.84375 
Q 19.90625 9.296875 19.90625 24.40625 
Q 19.90625 39.59375 16.546875 48.75 
Q 13.203125 57.90625 2.90625 66 
z
" id="STIXGeneral-Regular-41"/>
     </defs>
     <g transform="translate(23.59125 135.36)rotate(-90)scale(0.24 -0.24)">
      <use transform="translate(0 0.40625)" xlink:href="#STIXGeneral-Italic-112"/>
      <use transform="translate(50.399994 0.40625)" xlink:href="#STIXGeneral-Regular-40"/>
      <use transform="translate(83.699982 0.40625)" xlink:href="#STIXGeneral-Italic-120"/>
      <use transform="translate(128.099976 0.40625)" xlink:href="#STIXGeneral-Regular-41"/>
     </g>
    </g>
   </g>
   <g id="PathCollection_1">
    <path clip-path="url(#pca1b0c501b)" d="M 278.821806 206.52 
L 288.821806 206.52 
M 283.821806 211.52 
L 283.821806 201.52 
" style="fill:#a50026;stroke:#a50026;stroke-width:3;"/>
    <path clip-path="url(#pca1b0c501b)" d="M 575.862407 206.52 
L 585.862407 206.52 
M 580.862407 211.52 
L 580.862407 201.52 
" style="fill:#006837;stroke:#006837;stroke-width:3;"/>
    <path clip-path="url(#pca1b0c501b)" d="M 629.56465 206.52 
L 639.56465 206.52 
M 634.56465 211.52 
L 634.56465 201.52 
" style="fill:#006837;stroke:#006837;stroke-width:3;"/>
    <path clip-path="url(#pca1b0c501b)" d="M 386.226306 206.52 
L 396.226306 206.52 
M 391.226306 211.52 
L 391.226306 201.52 
" style="fill:#a50026;stroke:#a50026;stroke-width:3;"/>
    <path clip-path="url(#pca1b0c501b)" d="M 470.13608 206.52 
L 480.13608 206.52 
M 475.13608 211.52 
L 475.13608 201.52 
" style="fill:#a50026;stroke:#a50026;stroke-width:3;"/>
    <path clip-path="url(#pca1b0c501b)" d="M 157.991728 206.52 
L 167.991728 206.52 
M 162.991728 211.52 
L 162.991728 201.52 
" style="fill:#a50026;stroke:#a50026;stroke-width:3;"/>
    <path clip-path="url(#pca1b0c501b)" d="M 317.420298 206.52 
L 327.420298 206.52 
M 322.420298 211.52 
L 322.420298 201.52 
" style="fill:#a50026;stroke:#a50026;stroke-width:3;"/>
    <path clip-path="url(#pca1b0c501b)" d="M 495.309012 206.52 
L 505.309012 206.52 
M 500.309012 211.52 
L 500.309012 201.52 
" style="fill:#a50026;stroke:#a50026;stroke-width:3;"/>
    <path clip-path="url(#pca1b0c501b)" d="M 293.925555 206.52 
L 303.925555 206.52 
M 298.925555 211.52 
L 298.925555 201.52 
" style="fill:#a50026;stroke:#a50026;stroke-width:3;"/>
    <path clip-path="url(#pca1b0c501b)" d="M 416.433838 206.52 
L 426.433838 206.52 
M 421.433838 211.52 
L 421.433838 201.52 
" style="fill:#a50026;stroke:#a50026;stroke-width:3;"/>
    <path clip-path="url(#pca1b0c501b)" d="M 119.39322 206.52 
L 129.39322 206.52 
M 124.39322 211.52 
L 124.39322 201.52 
" style="fill:#006837;stroke:#006837;stroke-width:3;"/>
    <path clip-path="url(#pca1b0c501b)" d="M 282.178184 206.52 
L 292.178184 206.52 
M 287.178184 211.52 
L 287.178184 201.52 
" style="fill:#a50026;stroke:#a50026;stroke-width:3;"/>
    <path clip-path="url(#pca1b0c501b)" d="M 246.936085 206.52 
L 256.936085 206.52 
M 251.936085 211.52 
L 251.936085 201.52 
" style="fill:#a50026;stroke:#a50026;stroke-width:3;"/>
    <path clip-path="url(#pca1b0c501b)" d="M 641.312037 206.52 
L 651.312037 206.52 
M 646.312037 211.52 
L 646.312037 201.52 
" style="fill:#006837;stroke:#006837;stroke-width:3;"/>
    <path clip-path="url(#pca1b0c501b)" d="M 77.438333 206.52 
L 87.438333 206.52 
M 82.438333 211.52 
L 82.438333 201.52 
" style="fill:#006837;stroke:#006837;stroke-width:3;"/>
    <path clip-path="url(#pca1b0c501b)" d="M 156.313539 206.52 
L 166.313539 206.52 
M 161.313539 211.52 
L 161.313539 201.52 
" style="fill:#006837;stroke:#006837;stroke-width:3;"/>
    <path clip-path="url(#pca1b0c501b)" d="M 549.011254 206.52 
L 559.011254 206.52 
M 554.011254 211.52 
L 554.011254 201.52 
" style="fill:#006837;stroke:#006837;stroke-width:3;"/>
    <path clip-path="url(#pca1b0c501b)" d="M 292.247366 206.52 
L 302.247366 206.52 
M 297.247366 211.52 
L 297.247366 201.52 
" style="fill:#a50026;stroke:#a50026;stroke-width:3;"/>
    <path clip-path="url(#pca1b0c501b)" d="M 403.008261 206.52 
L 413.008261 206.52 
M 408.008261 211.52 
L 408.008261 201.52 
" style="fill:#a50026;stroke:#a50026;stroke-width:3;"/>
    <path clip-path="url(#pca1b0c501b)" d="M 391.260905 206.52 
L 401.260905 206.52 
M 396.260905 211.52 
L 396.260905 201.52 
" style="fill:#a50026;stroke:#a50026;stroke-width:3;"/>
    <path clip-path="url(#pca1b0c501b)" d="M 352.662397 206.52 
L 362.662397 206.52 
M 357.662397 211.52 
L 357.662397 201.52 
" style="fill:#a50026;stroke:#a50026;stroke-width:3;"/>
    <path clip-path="url(#pca1b0c501b)" d="M 507.056368 206.52 
L 517.056368 206.52 
M 512.056368 211.52 
L 512.056368 201.52 
" style="fill:#006837;stroke:#006837;stroke-width:3;"/>
    <path clip-path="url(#pca1b0c501b)" d="M 265.396229 206.52 
L 275.396229 206.52 
M 270.396229 211.52 
L 270.396229 201.52 
" style="fill:#a50026;stroke:#a50026;stroke-width:3;"/>
    <path clip-path="url(#pca1b0c501b)" d="M 634.599217 206.52 
L 644.599217 206.52 
M 639.599217 211.52 
L 639.599217 201.52 
" style="fill:#a50026;stroke:#a50026;stroke-width:3;"/>
    <path clip-path="url(#pca1b0c501b)" d="M 350.984208 206.52 
L 360.984208 206.52 
M 355.984208 211.52 
L 355.984208 201.52 
" style="fill:#a50026;stroke:#a50026;stroke-width:3;"/>
    <path clip-path="url(#pca1b0c501b)" d="M 582.575164 206.52 
L 592.575164 206.52 
M 587.575164 211.52 
L 587.575164 201.52 
" style="fill:#006837;stroke:#006837;stroke-width:3;"/>
    <path clip-path="url(#pca1b0c501b)" d="M 188.199244 206.52 
L 198.199244 206.52 
M 193.199244 211.52 
L 193.199244 201.52 
" style="fill:#a50026;stroke:#a50026;stroke-width:3;"/>
    <path clip-path="url(#pca1b0c501b)" d="M 82.472932 206.52 
L 92.472932 206.52 
M 87.472932 211.52 
L 87.472932 201.52 
" style="fill:#006837;stroke:#006837;stroke-width:3;"/>
    <path clip-path="url(#pca1b0c501b)" d="M 537.263899 206.52 
L 547.263899 206.52 
M 542.263899 211.52 
L 542.263899 201.52 
" style="fill:#a50026;stroke:#a50026;stroke-width:3;"/>
    <path clip-path="url(#pca1b0c501b)" d="M 228.475941 206.52 
L 238.475941 206.52 
M 233.475941 211.52 
L 233.475941 201.52 
" style="fill:#a50026;stroke:#a50026;stroke-width:3;"/>
    <path clip-path="url(#pca1b0c501b)" d="M 342.59323 206.52 
L 352.59323 206.52 
M 347.59323 211.52 
L 347.59323 201.52 
" style="fill:#a50026;stroke:#a50026;stroke-width:3;"/>
    <path clip-path="url(#pca1b0c501b)" d="M 565.793209 206.52 
L 575.793209 206.52 
M 570.793209 211.52 
L 570.793209 201.52 
" style="fill:#006837;stroke:#006837;stroke-width:3;"/>
    <path clip-path="url(#pca1b0c501b)" d="M 617.817262 206.52 
L 627.817262 206.52 
M 622.817262 211.52 
L 622.817262 201.52 
" style="fill:#006837;stroke:#006837;stroke-width:3;"/>
    <path clip-path="url(#pca1b0c501b)" d="M 434.893981 206.52 
L 444.893981 206.52 
M 439.893981 211.52 
L 439.893981 201.52 
" style="fill:#a50026;stroke:#a50026;stroke-width:3;"/>
    <path clip-path="url(#pca1b0c501b)" d="M 166.382706 206.52 
L 176.382706 206.52 
M 171.382706 211.52 
L 171.382706 201.52 
" style="fill:#006837;stroke:#006837;stroke-width:3;"/>
    <path clip-path="url(#pca1b0c501b)" d="M 184.84285 206.52 
L 194.84285 206.52 
M 189.84285 211.52 
L 189.84285 201.52 
" style="fill:#a50026;stroke:#a50026;stroke-width:3;"/>
    <path clip-path="url(#pca1b0c501b)" d="M 208.337593 206.52 
L 218.337593 206.52 
M 213.337593 211.52 
L 213.337593 201.52 
" style="fill:#a50026;stroke:#a50026;stroke-width:3;"/>
    <path clip-path="url(#pca1b0c501b)" d="M 347.627798 206.52 
L 357.627798 206.52 
M 352.627798 211.52 
L 352.627798 201.52 
" style="fill:#a50026;stroke:#a50026;stroke-width:3;"/>
    <path clip-path="url(#pca1b0c501b)" d="M 357.696996 206.52 
L 367.696996 206.52 
M 362.696996 211.52 
L 362.696996 201.52 
" style="fill:#006837;stroke:#006837;stroke-width:3;"/>
    <path clip-path="url(#pca1b0c501b)" d="M 726.9 206.52 
L 736.9 206.52 
M 731.9 211.52 
L 731.9 201.52 
" style="fill:#006837;stroke:#006837;stroke-width:3;"/>
    <path clip-path="url(#pca1b0c501b)" d="M 225.119547 206.52 
L 235.119547 206.52 
M 230.119547 211.52 
L 230.119547 201.52 
" style="fill:#a50026;stroke:#a50026;stroke-width:3;"/>
    <path clip-path="url(#pca1b0c501b)" d="M 597.678929 206.52 
L 607.678929 206.52 
M 602.678929 211.52 
L 602.678929 201.52 
" style="fill:#006837;stroke:#006837;stroke-width:3;"/>
    <path clip-path="url(#pca1b0c501b)" d="M 67.369166 206.52 
L 77.369166 206.52 
M 72.369166 211.52 
L 72.369166 201.52 
" style="fill:#006837;stroke:#006837;stroke-width:3;"/>
    <path clip-path="url(#pca1b0c501b)" d="M 58.978189 206.52 
L 68.978189 206.52 
M 63.978189 211.52 
L 63.978189 201.52 
" style="fill:#006837;stroke:#006837;stroke-width:3;"/>
    <path clip-path="url(#pca1b0c501b)" d="M 555.724043 206.52 
L 565.724043 206.52 
M 560.724043 211.52 
L 560.724043 201.52 
" style="fill:#006837;stroke:#006837;stroke-width:3;"/>
    <path clip-path="url(#pca1b0c501b)" d="M 147.922562 206.52 
L 157.922562 206.52 
M 152.922562 211.52 
L 152.922562 201.52 
" style="fill:#a50026;stroke:#a50026;stroke-width:3;"/>
    <path clip-path="url(#pca1b0c501b)" d="M 684.945081 206.52 
L 694.945081 206.52 
M 689.945081 211.52 
L 689.945081 201.52 
" style="fill:#006837;stroke:#006837;stroke-width:3;"/>
    <path clip-path="url(#pca1b0c501b)" d="M 485.239846 206.52 
L 495.239846 206.52 
M 490.239846 211.52 
L 490.239846 201.52 
" style="fill:#a50026;stroke:#a50026;stroke-width:3;"/>
    <path clip-path="url(#pca1b0c501b)" d="M 322.454881 206.52 
L 332.454881 206.52 
M 327.454881 211.52 
L 327.454881 201.52 
" style="fill:#a50026;stroke:#a50026;stroke-width:3;"/>
    <path clip-path="url(#pca1b0c501b)" d="M 448.319526 206.52 
L 458.319526 206.52 
M 453.319526 211.52 
L 453.319526 201.52 
" style="fill:#a50026;stroke:#a50026;stroke-width:3;"/>
   </g>
   <g id="patch_3">
    <path d="M 62.3 224.64 
L 62.3 7.2 
" style="fill:none;stroke:#000000;stroke-linecap:square;stroke-linejoin:miter;stroke-width:0.8;"/>
   </g>
   <g id="patch_4">
    <path d="M 731.9 224.64 
L 731.9 7.2 
" style="fill:none;stroke:#000000;stroke-linecap:square;stroke-linejoin:miter;stroke-width:0.8;"/>
   </g>
   <g id="patch_5">
    <path d="M 62.3 224.64 
L 731.9 224.64 
" style="fill:none;stroke:#000000;stroke-linecap:square;stroke-linejoin:miter;stroke-width:0.8;"/>
   </g>
   <g id="patch_6">
    <path d="M 62.3 7.2 
L 731.9 7.2 
" style="fill:none;stroke:#000000;stroke-linecap:square;stroke-linejoin:miter;stroke-width:0.8;"/>
   </g>
  </g>
 </g>
 <defs>
  <clipPath id="pca1b0c501b">
   <rect height="217.44" width="669.6" x="62.3" y="7.2"/>
  </clipPath>
 </defs>
</svg>
