<?xml version="1.0" encoding="utf-8" standalone="no"?>
<!DOCTYPE svg PUBLIC "-//W3C//DTD SVG 1.1//EN"
  "http://www.w3.org/Graphics/SVG/1.1/DTD/svg11.dtd">
<!-- Created with matplotlib (https://matplotlib.org/) -->
<svg height="272.066562pt" version="1.1" viewBox="0 0 376.839062 272.066562" width="376.839062pt" xmlns="http://www.w3.org/2000/svg" xmlns:xlink="http://www.w3.org/1999/xlink">
 <defs>
  <style type="text/css">
*{stroke-linecap:butt;stroke-linejoin:round;}
  </style>
 </defs>
 <g id="figure_1">
  <g id="patch_1">
   <path d="M 0 272.066562 
L 376.839062 272.066562 
L 376.839062 0 
L 0 0 
z
" style="fill:none;"/>
  </g>
  <g id="axes_1">
   <g id="patch_2">
    <path d="M 34.839063 244.317187 
L 369.639063 244.317187 
L 369.639063 26.877187 
L 34.839063 26.877187 
z
" style="fill:#ffffff;"/>
   </g>
   <g id="PolyCollection_1">
    <defs>
     <path d="M 34.839063 -190.90796 
L 34.839063 -154.48722 
L 38.220884 -154.475459 
L 41.602696 -154.45337 
L 44.984517 -154.413248 
L 48.366339 -154.342823 
L 51.748151 -154.223503 
L 55.129972 -154.028632 
L 58.511794 -153.722371 
L 61.893605 -153.260177 
L 65.275427 -152.592127 
L 68.657239 -151.670431 
L 72.03906 -150.461876 
L 75.420882 -148.964895 
L 78.802703 -147.229044 
L 82.184515 -145.372692 
L 85.566337 -143.593049 
L 88.948148 -142.162151 
L 92.32997 -141.403386 
L 95.711792 -141.646643 
L 99.093613 -143.165215 
L 102.475425 -146.104345 
L 105.857246 -150.417254 
L 109.239058 -155.827309 
L 112.62088 -161.833585 
L 116.002701 -167.773879 
L 119.384513 -172.972738 
L 122.766335 -176.970964 
L 126.148156 -179.621026 
L 129.529968 -181.00706 
L 132.911789 -181.443668 
L 136.293611 -181.475939 
L 139.675423 -181.769026 
L 143.057244 -182.917488 
L 146.439066 -185.254684 
L 149.820877 -188.733146 
L 153.202699 -192.911413 
L 156.584521 -197.043128 
L 159.966332 -200.231748 
L 163.348154 -201.598531 
L 166.729976 -200.457682 
L 170.111787 -196.55141 
L 173.493609 -190.179452 
L 176.87543 -182.069463 
L 180.257242 -173.168198 
L 183.639064 -164.447824 
L 187.020885 -156.739528 
L 190.402697 -150.617383 
L 193.784518 -146.349626 
L 197.16634 -143.915953 
L 200.548152 -143.073569 
L 203.929963 -143.447687 
L 207.311785 -144.622168 
L 210.693607 -146.212262 
L 214.075428 -147.910401 
L 217.45725 -149.504402 
L 220.839071 -150.873608 
L 224.220873 -151.97139 
L 227.602695 -152.802368 
L 230.984516 -153.400548 
L 234.366338 -153.812068 
L 237.748159 -154.083584 
L 241.129981 -154.255842 
L 244.511783 -154.361134 
L 247.893604 -154.423238 
L 251.275426 -154.458626 
L 254.657248 -154.478126 
L 258.039069 -154.488526 
L 261.420871 -154.493898 
L 264.802692 -154.496587 
L 268.184514 -154.497891 
L 271.566336 -154.498505 
L 274.948157 -154.498785 
L 278.329979 -154.49891 
L 281.711781 -154.498963 
L 285.093602 -154.498986 
L 288.475424 -154.498995 
L 291.857245 -154.498998 
L 295.239067 -154.499 
L 298.620889 -154.499 
L 302.00269 -154.499 
L 305.384512 -154.499 
L 308.766333 -154.499 
L 312.148155 -154.499 
L 315.529977 -154.499 
L 318.911798 -154.499 
L 322.2936 -154.499 
L 325.675422 -154.499 
L 329.057243 -154.499 
L 332.439065 -154.499 
L 335.820886 -154.499 
L 339.202708 -154.499 
L 342.58451 -154.499 
L 345.966331 -154.499 
L 349.348153 -154.499 
L 352.729974 -154.499 
L 356.111796 -154.499 
L 359.493618 -154.499 
L 362.875419 -154.499 
L 366.257241 -154.499 
L 369.639063 -154.499 
L 369.639063 -190.91975 
L 369.639063 -190.91975 
L 366.257241 -190.91975 
L 362.875419 -190.91975 
L 359.493618 -190.91975 
L 356.111796 -190.91975 
L 352.729974 -190.91975 
L 349.348153 -190.91975 
L 345.966331 -190.91975 
L 342.58451 -190.91975 
L 339.202708 -190.91975 
L 335.820886 -190.91975 
L 332.439065 -190.91975 
L 329.057243 -190.91975 
L 325.675422 -190.91975 
L 322.2936 -190.91975 
L 318.911798 -190.91975 
L 315.529977 -190.91975 
L 312.148155 -190.91975 
L 308.766333 -190.91975 
L 305.384512 -190.91975 
L 302.00269 -190.91975 
L 298.620889 -190.919749 
L 295.239067 -190.919749 
L 291.857245 -190.919747 
L 288.475424 -190.919744 
L 285.093602 -190.919735 
L 281.711781 -190.919712 
L 278.329979 -190.919659 
L 274.948157 -190.919535 
L 271.566336 -190.919254 
L 268.184514 -190.91864 
L 264.802692 -190.917336 
L 261.420871 -190.914647 
L 258.039069 -190.909275 
L 254.657248 -190.898874 
L 251.275426 -190.879369 
L 247.893604 -190.843964 
L 244.511783 -190.781805 
L 241.129981 -190.676338 
L 237.748159 -190.503557 
L 234.366338 -190.230577 
L 230.984516 -189.815208 
L 227.602695 -189.207514 
L 224.220873 -188.354465 
L 220.839071 -187.208666 
L 217.45725 -185.741547 
L 214.075428 -183.960503 
L 210.693607 -181.927674 
L 207.311785 -179.776461 
L 203.929963 -177.719956 
L 200.548152 -176.044586 
L 197.16634 -175.083024 
L 193.784518 -175.164012 
L 190.402697 -176.542877 
L 187.020885 -179.324626 
L 183.639064 -183.398929 
L 180.257242 -188.409541 
L 176.87543 -193.777945 
L 173.493609 -198.789952 
L 170.111787 -202.735189 
L 166.729976 -205.059326 
L 163.348154 -205.452498 
L 159.966332 -203.880383 
L 156.584521 -200.679268 
L 153.202699 -196.554347 
L 149.820877 -192.369711 
L 146.439066 -188.884014 
L 143.057244 -186.546049 
L 139.675423 -185.399155 
L 136.293611 -185.106688 
L 132.911789 -185.076633 
L 129.529968 -184.64229 
L 126.148156 -183.258084 
L 122.766335 -180.681972 
L 119.384513 -177.102182 
L 116.002701 -173.078745 
L 112.62088 -169.258378 
L 109.239058 -166.18983 
L 105.857246 -164.280169 
L 102.475425 -163.743634 
L 99.093613 -164.575054 
L 95.711792 -166.575232 
L 92.32997 -169.415391 
L 88.948148 -172.71636 
L 85.566337 -176.120334 
L 82.184515 -179.340962 
L 78.802703 -182.18667 
L 75.420882 -184.560409 
L 72.03906 -186.443209 
L 68.657239 -187.870515 
L 65.275427 -188.90843 
L 61.893605 -189.634342 
L 58.511794 -190.123543 
L 55.129972 -190.441627 
L 51.748151 -190.641357 
L 48.366339 -190.762552 
L 44.984517 -190.833659 
L 41.602696 -190.874013 
L 38.220884 -190.896177 
L 34.839063 -190.90796 
z
" id="m93729c443e" style="stroke:#808080;stroke-opacity:0.3;"/>
    </defs>
    <g clip-path="url(#p093903e88e)">
     <use style="fill:#808080;fill-opacity:0.3;stroke:#808080;stroke-opacity:0.3;" x="0" xlink:href="#m93729c443e" y="272.066562"/>
    </g>
   </g>
   <g id="PathCollection_1">
    <defs>
     <path d="M -3 3 
L 3 -3 
M -3 -3 
L 3 3 
" id="m13b72e3902" style="stroke:#ff0000;stroke-width:1.5;"/>
    </defs>
    <g clip-path="url(#p093903e88e)">
     <use style="fill:#ff0000;stroke:#ff0000;stroke-width:1.5;" x="210.410443" xlink:href="#m13b72e3902" y="120.575003"/>
     <use style="fill:#ff0000;stroke:#ff0000;stroke-width:1.5;" x="238.261762" xlink:href="#m13b72e3902" y="93.045864"/>
     <use style="fill:#ff0000;stroke:#ff0000;stroke-width:1.5;" x="219.441652" xlink:href="#m13b72e3902" y="110.788482"/>
     <use style="fill:#ff0000;stroke:#ff0000;stroke-width:1.5;" x="209.752507" xlink:href="#m13b72e3902" y="124.548321"/>
     <use style="fill:#ff0000;stroke:#ff0000;stroke-width:1.5;" x="189.458876" xlink:href="#m13b72e3902" y="106.698146"/>
     <use style="fill:#ff0000;stroke:#ff0000;stroke-width:1.5;" x="226.661737" xlink:href="#m13b72e3902" y="96.44112"/>
     <use style="fill:#ff0000;stroke:#ff0000;stroke-width:1.5;" x="191.791162" xlink:href="#m13b72e3902" y="107.92266"/>
     <use style="fill:#ff0000;stroke:#ff0000;stroke-width:1.5;" x="267.821863" xlink:href="#m13b72e3902" y="110.166426"/>
     <use style="fill:#ff0000;stroke:#ff0000;stroke-width:1.5;" x="279.856209" xlink:href="#m13b72e3902" y="116.44154"/>
     <use style="fill:#ff0000;stroke:#ff0000;stroke-width:1.5;" x="182.727173" xlink:href="#m13b72e3902" y="91.566194"/>
     <use style="fill:#ff0000;stroke:#ff0000;stroke-width:1.5;" x="251.073834" xlink:href="#m13b72e3902" y="100.605199"/>
     <use style="fill:#ff0000;stroke:#ff0000;stroke-width:1.5;" x="207.076072" xlink:href="#m13b72e3902" y="121.281274"/>
     <use style="fill:#ff0000;stroke:#ff0000;stroke-width:1.5;" x="213.629722" xlink:href="#m13b72e3902" y="117.445691"/>
     <use style="fill:#ff0000;stroke:#ff0000;stroke-width:1.5;" x="273.48394" xlink:href="#m13b72e3902" y="111.071564"/>
     <use style="fill:#ff0000;stroke:#ff0000;stroke-width:1.5;" x="130.430499" xlink:href="#m13b72e3902" y="90.56545"/>
     <use style="fill:#ff0000;stroke:#ff0000;stroke-width:1.5;" x="133.124507" xlink:href="#m13b72e3902" y="87.53365"/>
     <use style="fill:#ff0000;stroke:#ff0000;stroke-width:1.5;" x="121.923622" xlink:href="#m13b72e3902" y="94.972452"/>
     <use style="fill:#ff0000;stroke:#ff0000;stroke-width:1.5;" x="257.919625" xlink:href="#m13b72e3902" y="100.551921"/>
     <use style="fill:#ff0000;stroke:#ff0000;stroke-width:1.5;" x="248.802503" xlink:href="#m13b72e3902" y="96.950016"/>
     <use style="fill:#ff0000;stroke:#ff0000;stroke-width:1.5;" x="264.179096" xlink:href="#m13b72e3902" y="105.703067"/>
     <use style="fill:#ff0000;stroke:#ff0000;stroke-width:1.5;" x="282.359773" xlink:href="#m13b72e3902" y="111.586793"/>
     <use style="fill:#ff0000;stroke:#ff0000;stroke-width:1.5;" x="252.318206" xlink:href="#m13b72e3902" y="101.986431"/>
     <use style="fill:#ff0000;stroke:#ff0000;stroke-width:1.5;" x="195.790708" xlink:href="#m13b72e3902" y="118.655467"/>
     <use style="fill:#ff0000;stroke:#ff0000;stroke-width:1.5;" x="249.199647" xlink:href="#m13b72e3902" y="95.91955"/>
     <use style="fill:#ff0000;stroke:#ff0000;stroke-width:1.5;" x="138.338201" xlink:href="#m13b72e3902" y="89.029078"/>
     <use style="fill:#ff0000;stroke:#ff0000;stroke-width:1.5;" x="225.661841" xlink:href="#m13b72e3902" y="95.683657"/>
     <use style="fill:#ff0000;stroke:#ff0000;stroke-width:1.5;" x="142.536403" xlink:href="#m13b72e3902" y="88.502404"/>
     <use style="fill:#ff0000;stroke:#ff0000;stroke-width:1.5;" x="276.676639" xlink:href="#m13b72e3902" y="114.348785"/>
     <use style="fill:#ff0000;stroke:#ff0000;stroke-width:1.5;" x="205.896472" xlink:href="#m13b72e3902" y="120.206281"/>
     <use style="fill:#ff0000;stroke:#ff0000;stroke-width:1.5;" x="187.953471" xlink:href="#m13b72e3902" y="99.235095"/>
     <use style="fill:#ff0000;stroke:#ff0000;stroke-width:1.5;" x="162.825672" xlink:href="#m13b72e3902" y="70.634964"/>
     <use style="fill:#ff0000;stroke:#ff0000;stroke-width:1.5;" x="248.145782" xlink:href="#m13b72e3902" y="94.92198"/>
     <use style="fill:#ff0000;stroke:#ff0000;stroke-width:1.5;" x="194.898628" xlink:href="#m13b72e3902" y="116.790585"/>
     <use style="fill:#ff0000;stroke:#ff0000;stroke-width:1.5;" x="213.694906" xlink:href="#m13b72e3902" y="112.936547"/>
     <use style="fill:#ff0000;stroke:#ff0000;stroke-width:1.5;" x="121.684475" xlink:href="#m13b72e3902" y="94.946783"/>
     <use style="fill:#ff0000;stroke:#ff0000;stroke-width:1.5;" x="221.931245" xlink:href="#m13b72e3902" y="101.968697"/>
     <use style="fill:#ff0000;stroke:#ff0000;stroke-width:1.5;" x="221.003886" xlink:href="#m13b72e3902" y="102.800326"/>
     <use style="fill:#ff0000;stroke:#ff0000;stroke-width:1.5;" x="221.813814" xlink:href="#m13b72e3902" y="103.438445"/>
     <use style="fill:#ff0000;stroke:#ff0000;stroke-width:1.5;" x="276.522491" xlink:href="#m13b72e3902" y="111.924928"/>
     <use style="fill:#ff0000;stroke:#ff0000;stroke-width:1.5;" x="232.675781" xlink:href="#m13b72e3902" y="90.284342"/>
     <use style="fill:#ff0000;stroke:#ff0000;stroke-width:1.5;" x="178.720685" xlink:href="#m13b72e3902" y="81.424416"/>
     <use style="fill:#ff0000;stroke:#ff0000;stroke-width:1.5;" x="191.698212" xlink:href="#m13b72e3902" y="111.899423"/>
     <use style="fill:#ff0000;stroke:#ff0000;stroke-width:1.5;" x="235.322525" xlink:href="#m13b72e3902" y="90.505861"/>
     <use style="fill:#ff0000;stroke:#ff0000;stroke-width:1.5;" x="128.620806" xlink:href="#m13b72e3902" y="88.415749"/>
     <use style="fill:#ff0000;stroke:#ff0000;stroke-width:1.5;" x="230.155811" xlink:href="#m13b72e3902" y="94.445584"/>
     <use style="fill:#ff0000;stroke:#ff0000;stroke-width:1.5;" x="230.803842" xlink:href="#m13b72e3902" y="93.139095"/>
     <use style="fill:#ff0000;stroke:#ff0000;stroke-width:1.5;" x="153.757103" xlink:href="#m13b72e3902" y="80.239123"/>
     <use style="fill:#ff0000;stroke:#ff0000;stroke-width:1.5;" x="140.121325" xlink:href="#m13b72e3902" y="84.179785"/>
     <use style="fill:#ff0000;stroke:#ff0000;stroke-width:1.5;" x="171.341768" xlink:href="#m13b72e3902" y="70.816421"/>
     <use style="fill:#ff0000;stroke:#ff0000;stroke-width:1.5;" x="179.424246" xlink:href="#m13b72e3902" y="81.98936"/>
     <use style="fill:#ff0000;stroke:#ff0000;stroke-width:1.5;" x="213.990002" xlink:href="#m13b72e3902" y="116.833528"/>
     <use style="fill:#ff0000;stroke:#ff0000;stroke-width:1.5;" x="191.960956" xlink:href="#m13b72e3902" y="109.568405"/>
     <use style="fill:#ff0000;stroke:#ff0000;stroke-width:1.5;" x="283.992843" xlink:href="#m13b72e3902" y="115.493657"/>
     <use style="fill:#ff0000;stroke:#ff0000;stroke-width:1.5;" x="135.621364" xlink:href="#m13b72e3902" y="88.025814"/>
     <use style="fill:#ff0000;stroke:#ff0000;stroke-width:1.5;" x="153.505031" xlink:href="#m13b72e3902" y="80.820155"/>
     <use style="fill:#ff0000;stroke:#ff0000;stroke-width:1.5;" x="145.542276" xlink:href="#m13b72e3902" y="84.107835"/>
     <use style="fill:#ff0000;stroke:#ff0000;stroke-width:1.5;" x="227.869396" xlink:href="#m13b72e3902" y="94.210725"/>
     <use style="fill:#ff0000;stroke:#ff0000;stroke-width:1.5;" x="160.940077" xlink:href="#m13b72e3902" y="73.559858"/>
     <use style="fill:#ff0000;stroke:#ff0000;stroke-width:1.5;" x="196.599486" xlink:href="#m13b72e3902" y="117.749483"/>
     <use style="fill:#ff0000;stroke:#ff0000;stroke-width:1.5;" x="159.455907" xlink:href="#m13b72e3902" y="76.624703"/>
     <use style="fill:#ff0000;stroke:#ff0000;stroke-width:1.5;" x="145.150571" xlink:href="#m13b72e3902" y="88.44597"/>
     <use style="fill:#ff0000;stroke:#ff0000;stroke-width:1.5;" x="137.015861" xlink:href="#m13b72e3902" y="87.029546"/>
     <use style="fill:#ff0000;stroke:#ff0000;stroke-width:1.5;" x="228.408636" xlink:href="#m13b72e3902" y="94.360115"/>
     <use style="fill:#ff0000;stroke:#ff0000;stroke-width:1.5;" x="141.670889" xlink:href="#m13b72e3902" y="85.761712"/>
     <use style="fill:#ff0000;stroke:#ff0000;stroke-width:1.5;" x="151.44695" xlink:href="#m13b72e3902" y="77.35208"/>
     <use style="fill:#ff0000;stroke:#ff0000;stroke-width:1.5;" x="180.263656" xlink:href="#m13b72e3902" y="82.474859"/>
     <use style="fill:#ff0000;stroke:#ff0000;stroke-width:1.5;" x="255.973329" xlink:href="#m13b72e3902" y="103.636743"/>
     <use style="fill:#ff0000;stroke:#ff0000;stroke-width:1.5;" x="134.793816" xlink:href="#m13b72e3902" y="85.957994"/>
     <use style="fill:#ff0000;stroke:#ff0000;stroke-width:1.5;" x="258.81104" xlink:href="#m13b72e3902" y="106.589121"/>
     <use style="fill:#ff0000;stroke:#ff0000;stroke-width:1.5;" x="134.625936" xlink:href="#m13b72e3902" y="88.774853"/>
     <use style="fill:#ff0000;stroke:#ff0000;stroke-width:1.5;" x="281.998377" xlink:href="#m13b72e3902" y="114.464381"/>
     <use style="fill:#ff0000;stroke:#ff0000;stroke-width:1.5;" x="196.991274" xlink:href="#m13b72e3902" y="115.63223"/>
     <use style="fill:#ff0000;stroke:#ff0000;stroke-width:1.5;" x="282.048869" xlink:href="#m13b72e3902" y="115.854343"/>
     <use style="fill:#ff0000;stroke:#ff0000;stroke-width:1.5;" x="219.790203" xlink:href="#m13b72e3902" y="107.997412"/>
     <use style="fill:#ff0000;stroke:#ff0000;stroke-width:1.5;" x="242.291786" xlink:href="#m13b72e3902" y="92.774454"/>
     <use style="fill:#ff0000;stroke:#ff0000;stroke-width:1.5;" x="125.099099" xlink:href="#m13b72e3902" y="93.357397"/>
     <use style="fill:#ff0000;stroke:#ff0000;stroke-width:1.5;" x="165.880948" xlink:href="#m13b72e3902" y="68.56765"/>
     <use style="fill:#ff0000;stroke:#ff0000;stroke-width:1.5;" x="138.659967" xlink:href="#m13b72e3902" y="89.233902"/>
     <use style="fill:#ff0000;stroke:#ff0000;stroke-width:1.5;" x="168.112932" xlink:href="#m13b72e3902" y="72.52741"/>
     <use style="fill:#ff0000;stroke:#ff0000;stroke-width:1.5;" x="138.414083" xlink:href="#m13b72e3902" y="88.228422"/>
     <use style="fill:#ff0000;stroke:#ff0000;stroke-width:1.5;" x="171.769447" xlink:href="#m13b72e3902" y="73.162803"/>
     <use style="fill:#ff0000;stroke:#ff0000;stroke-width:1.5;" x="187.886688" xlink:href="#m13b72e3902" y="97.443126"/>
     <use style="fill:#ff0000;stroke:#ff0000;stroke-width:1.5;" x="129.277353" xlink:href="#m13b72e3902" y="88.186219"/>
     <use style="fill:#ff0000;stroke:#ff0000;stroke-width:1.5;" x="234.458895" xlink:href="#m13b72e3902" y="90.849771"/>
     <use style="fill:#ff0000;stroke:#ff0000;stroke-width:1.5;" x="213.388146" xlink:href="#m13b72e3902" y="118.891624"/>
     <use style="fill:#ff0000;stroke:#ff0000;stroke-width:1.5;" x="162.965263" xlink:href="#m13b72e3902" y="70.372755"/>
     <use style="fill:#ff0000;stroke:#ff0000;stroke-width:1.5;" x="206.130787" xlink:href="#m13b72e3902" y="125.202036"/>
     <use style="fill:#ff0000;stroke:#ff0000;stroke-width:1.5;" x="134.264704" xlink:href="#m13b72e3902" y="91.17123"/>
     <use style="fill:#ff0000;stroke:#ff0000;stroke-width:1.5;" x="214.952506" xlink:href="#m13b72e3902" y="112.388447"/>
     <use style="fill:#ff0000;stroke:#ff0000;stroke-width:1.5;" x="274.103246" xlink:href="#m13b72e3902" y="111.479968"/>
     <use style="fill:#ff0000;stroke:#ff0000;stroke-width:1.5;" x="171.867505" xlink:href="#m13b72e3902" y="70.451455"/>
     <use style="fill:#ff0000;stroke:#ff0000;stroke-width:1.5;" x="230.26356" xlink:href="#m13b72e3902" y="92.37978"/>
     <use style="fill:#ff0000;stroke:#ff0000;stroke-width:1.5;" x="140.602025" xlink:href="#m13b72e3902" y="85.466809"/>
     <use style="fill:#ff0000;stroke:#ff0000;stroke-width:1.5;" x="238.452236" xlink:href="#m13b72e3902" y="92.300554"/>
     <use style="fill:#ff0000;stroke:#ff0000;stroke-width:1.5;" x="166.985642" xlink:href="#m13b72e3902" y="72.416939"/>
     <use style="fill:#ff0000;stroke:#ff0000;stroke-width:1.5;" x="149.205296" xlink:href="#m13b72e3902" y="81.571425"/>
     <use style="fill:#ff0000;stroke:#ff0000;stroke-width:1.5;" x="216.721328" xlink:href="#m13b72e3902" y="113.131292"/>
     <use style="fill:#ff0000;stroke:#ff0000;stroke-width:1.5;" x="121.905066" xlink:href="#m13b72e3902" y="95.86378"/>
     <use style="fill:#ff0000;stroke:#ff0000;stroke-width:1.5;" x="257.303623" xlink:href="#m13b72e3902" y="104.296503"/>
     <use style="fill:#ff0000;stroke:#ff0000;stroke-width:1.5;" x="119.325085" xlink:href="#m13b72e3902" y="96.961865"/>
    </g>
   </g>
   <g id="PathCollection_2">
    <defs>
     <path d="M -3 0 
L 3 0 
M 0 3 
L 0 -3 
" id="m921e49e419" style="stroke:#0000ff;stroke-width:1.5;"/>
    </defs>
    <g clip-path="url(#p093903e88e)">
     <use style="fill:#0000ff;stroke:#0000ff;stroke-width:1.5;" x="125.449789" xlink:href="#m921e49e419" y="189.957187"/>
     <use style="fill:#0000ff;stroke:#0000ff;stroke-width:1.5;" x="156.266054" xlink:href="#m921e49e419" y="189.957187"/>
     <use style="fill:#0000ff;stroke:#0000ff;stroke-width:1.5;" x="144.945332" xlink:href="#m921e49e419" y="189.957187"/>
     <use style="fill:#0000ff;stroke:#0000ff;stroke-width:1.5;" x="136.724817" xlink:href="#m921e49e419" y="189.957187"/>
     <use style="fill:#0000ff;stroke:#0000ff;stroke-width:1.5;" x="130.75671" xlink:href="#m921e49e419" y="189.957187"/>
     <use style="fill:#0000ff;stroke:#0000ff;stroke-width:1.5;" x="145.427774" xlink:href="#m921e49e419" y="189.957187"/>
     <use style="fill:#0000ff;stroke:#0000ff;stroke-width:1.5;" x="159.375685" xlink:href="#m921e49e419" y="189.957187"/>
     <use style="fill:#0000ff;stroke:#0000ff;stroke-width:1.5;" x="136.747976" xlink:href="#m921e49e419" y="189.957187"/>
     <use style="fill:#0000ff;stroke:#0000ff;stroke-width:1.5;" x="146.164327" xlink:href="#m921e49e419" y="189.957187"/>
     <use style="fill:#0000ff;stroke:#0000ff;stroke-width:1.5;" x="143.853953" xlink:href="#m921e49e419" y="189.957187"/>
    </g>
   </g>
   <g id="PathCollection_3">
    <defs>
     <path d="M -3 0 
L 3 0 
M 0 3 
L 0 -3 
" id="m7ec0bb3540" style="stroke:#008000;stroke-width:1.5;"/>
    </defs>
    <g clip-path="url(#p093903e88e)">
     <use style="fill:#008000;stroke:#008000;stroke-width:1.5;" x="125.449789" xlink:href="#m7ec0bb3540" y="199.017187"/>
     <use style="fill:#008000;stroke:#008000;stroke-width:1.5;" x="156.266054" xlink:href="#m7ec0bb3540" y="199.017187"/>
     <use style="fill:#008000;stroke:#008000;stroke-width:1.5;" x="144.945332" xlink:href="#m7ec0bb3540" y="199.017187"/>
     <use style="fill:#008000;stroke:#008000;stroke-width:1.5;" x="136.724817" xlink:href="#m7ec0bb3540" y="199.017187"/>
     <use style="fill:#008000;stroke:#008000;stroke-width:1.5;" x="130.75671" xlink:href="#m7ec0bb3540" y="199.017187"/>
     <use style="fill:#008000;stroke:#008000;stroke-width:1.5;" x="145.427774" xlink:href="#m7ec0bb3540" y="199.017187"/>
     <use style="fill:#008000;stroke:#008000;stroke-width:1.5;" x="159.375685" xlink:href="#m7ec0bb3540" y="199.017187"/>
     <use style="fill:#008000;stroke:#008000;stroke-width:1.5;" x="136.747976" xlink:href="#m7ec0bb3540" y="199.017187"/>
     <use style="fill:#008000;stroke:#008000;stroke-width:1.5;" x="146.164327" xlink:href="#m7ec0bb3540" y="199.017187"/>
     <use style="fill:#008000;stroke:#008000;stroke-width:1.5;" x="143.853953" xlink:href="#m7ec0bb3540" y="199.017187"/>
    </g>
   </g>
   <g id="matplotlib.axis_1">
    <g id="xtick_1">
     <g id="line2d_1">
      <defs>
       <path d="M 0 0 
L 0 3.5 
" id="m84714d8db3" style="stroke:#000000;stroke-width:0.8;"/>
      </defs>
      <g>
       <use style="stroke:#000000;stroke-width:0.8;" x="76.689063" xlink:href="#m84714d8db3" y="244.317187"/>
      </g>
     </g>
     <g id="text_1">
      <!-- −6 -->
      <defs>
       <path d="M 10.59375 35.5 
L 73.1875 35.5 
L 73.1875 27.203125 
L 10.59375 27.203125 
z
" id="DejaVuSans-8722"/>
       <path d="M 33.015625 40.375 
Q 26.375 40.375 22.484375 35.828125 
Q 18.609375 31.296875 18.609375 23.390625 
Q 18.609375 15.53125 22.484375 10.953125 
Q 26.375 6.390625 33.015625 6.390625 
Q 39.65625 6.390625 43.53125 10.953125 
Q 47.40625 15.53125 47.40625 23.390625 
Q 47.40625 31.296875 43.53125 35.828125 
Q 39.65625 40.375 33.015625 40.375 
z
M 52.59375 71.296875 
L 52.59375 62.3125 
Q 48.875 64.0625 45.09375 64.984375 
Q 41.3125 65.921875 37.59375 65.921875 
Q 27.828125 65.921875 22.671875 59.328125 
Q 17.53125 52.734375 16.796875 39.40625 
Q 19.671875 43.65625 24.015625 45.921875 
Q 28.375 48.1875 33.59375 48.1875 
Q 44.578125 48.1875 50.953125 41.515625 
Q 57.328125 34.859375 57.328125 23.390625 
Q 57.328125 12.15625 50.6875 5.359375 
Q 44.046875 -1.421875 33.015625 -1.421875 
Q 20.359375 -1.421875 13.671875 8.265625 
Q 6.984375 17.96875 6.984375 36.375 
Q 6.984375 53.65625 15.1875 63.9375 
Q 23.390625 74.21875 37.203125 74.21875 
Q 40.921875 74.21875 44.703125 73.484375 
Q 48.484375 72.75 52.59375 71.296875 
z
" id="DejaVuSans-54"/>
      </defs>
      <g transform="translate(66.369531 261.955)scale(0.14 -0.14)">
       <use xlink:href="#DejaVuSans-8722"/>
       <use x="83.789062" xlink:href="#DejaVuSans-54"/>
      </g>
     </g>
    </g>
    <g id="xtick_2">
     <g id="line2d_2">
      <g>
       <use style="stroke:#000000;stroke-width:0.8;" x="160.389063" xlink:href="#m84714d8db3" y="244.317187"/>
      </g>
     </g>
     <g id="text_2">
      <!-- −2 -->
      <defs>
       <path d="M 19.1875 8.296875 
L 53.609375 8.296875 
L 53.609375 0 
L 7.328125 0 
L 7.328125 8.296875 
Q 12.9375 14.109375 22.625 23.890625 
Q 32.328125 33.6875 34.8125 36.53125 
Q 39.546875 41.84375 41.421875 45.53125 
Q 43.3125 49.21875 43.3125 52.78125 
Q 43.3125 58.59375 39.234375 62.25 
Q 35.15625 65.921875 28.609375 65.921875 
Q 23.96875 65.921875 18.8125 64.3125 
Q 13.671875 62.703125 7.8125 59.421875 
L 7.8125 69.390625 
Q 13.765625 71.78125 18.9375 73 
Q 24.125 74.21875 28.421875 74.21875 
Q 39.75 74.21875 46.484375 68.546875 
Q 53.21875 62.890625 53.21875 53.421875 
Q 53.21875 48.921875 51.53125 44.890625 
Q 49.859375 40.875 45.40625 35.40625 
Q 44.1875 33.984375 37.640625 27.21875 
Q 31.109375 20.453125 19.1875 8.296875 
z
" id="DejaVuSans-50"/>
      </defs>
      <g transform="translate(150.069531 261.955)scale(0.14 -0.14)">
       <use xlink:href="#DejaVuSans-8722"/>
       <use x="83.789062" xlink:href="#DejaVuSans-50"/>
      </g>
     </g>
    </g>
    <g id="xtick_3">
     <g id="line2d_3">
      <g>
       <use style="stroke:#000000;stroke-width:0.8;" x="244.089063" xlink:href="#m84714d8db3" y="244.317187"/>
      </g>
     </g>
     <g id="text_3">
      <!-- 2 -->
      <g transform="translate(239.635312 261.955)scale(0.14 -0.14)">
       <use xlink:href="#DejaVuSans-50"/>
      </g>
     </g>
    </g>
    <g id="xtick_4">
     <g id="line2d_4">
      <g>
       <use style="stroke:#000000;stroke-width:0.8;" x="327.789062" xlink:href="#m84714d8db3" y="244.317187"/>
      </g>
     </g>
     <g id="text_4">
      <!-- 6 -->
      <g transform="translate(323.335312 261.955)scale(0.14 -0.14)">
       <use xlink:href="#DejaVuSans-54"/>
      </g>
     </g>
    </g>
   </g>
   <g id="matplotlib.axis_2">
    <g id="ytick_1">
     <g id="line2d_5">
      <defs>
       <path d="M 0 0 
L -3.5 0 
" id="m58b2e91d37" style="stroke:#000000;stroke-width:0.8;"/>
      </defs>
      <g>
       <use style="stroke:#000000;stroke-width:0.8;" x="34.839063" xlink:href="#m58b2e91d37" y="208.077187"/>
      </g>
     </g>
     <g id="text_5">
      <!-- −6 -->
      <g transform="translate(7.2 213.396094)scale(0.14 -0.14)">
       <use xlink:href="#DejaVuSans-8722"/>
       <use x="83.789062" xlink:href="#DejaVuSans-54"/>
      </g>
     </g>
    </g>
    <g id="ytick_2">
     <g id="line2d_6">
      <g>
       <use style="stroke:#000000;stroke-width:0.8;" x="34.839063" xlink:href="#m58b2e91d37" y="153.717187"/>
      </g>
     </g>
     <g id="text_6">
      <!-- −3 -->
      <defs>
       <path d="M 40.578125 39.3125 
Q 47.65625 37.796875 51.625 33 
Q 55.609375 28.21875 55.609375 21.1875 
Q 55.609375 10.40625 48.1875 4.484375 
Q 40.765625 -1.421875 27.09375 -1.421875 
Q 22.515625 -1.421875 17.65625 -0.515625 
Q 12.796875 0.390625 7.625 2.203125 
L 7.625 11.71875 
Q 11.71875 9.328125 16.59375 8.109375 
Q 21.484375 6.890625 26.8125 6.890625 
Q 36.078125 6.890625 40.9375 10.546875 
Q 45.796875 14.203125 45.796875 21.1875 
Q 45.796875 27.640625 41.28125 31.265625 
Q 36.765625 34.90625 28.71875 34.90625 
L 20.21875 34.90625 
L 20.21875 43.015625 
L 29.109375 43.015625 
Q 36.375 43.015625 40.234375 45.921875 
Q 44.09375 48.828125 44.09375 54.296875 
Q 44.09375 59.90625 40.109375 62.90625 
Q 36.140625 65.921875 28.71875 65.921875 
Q 24.65625 65.921875 20.015625 65.03125 
Q 15.375 64.15625 9.8125 62.3125 
L 9.8125 71.09375 
Q 15.4375 72.65625 20.34375 73.4375 
Q 25.25 74.21875 29.59375 74.21875 
Q 40.828125 74.21875 47.359375 69.109375 
Q 53.90625 64.015625 53.90625 55.328125 
Q 53.90625 49.265625 50.4375 45.09375 
Q 46.96875 40.921875 40.578125 39.3125 
z
" id="DejaVuSans-51"/>
      </defs>
      <g transform="translate(7.2 159.036094)scale(0.14 -0.14)">
       <use xlink:href="#DejaVuSans-8722"/>
       <use x="83.789062" xlink:href="#DejaVuSans-51"/>
      </g>
     </g>
    </g>
    <g id="ytick_3">
     <g id="line2d_7">
      <g>
       <use style="stroke:#000000;stroke-width:0.8;" x="34.839063" xlink:href="#m58b2e91d37" y="99.357187"/>
      </g>
     </g>
     <g id="text_7">
      <!-- 0 -->
      <defs>
       <path d="M 31.78125 66.40625 
Q 24.171875 66.40625 20.328125 58.90625 
Q 16.5 51.421875 16.5 36.375 
Q 16.5 21.390625 20.328125 13.890625 
Q 24.171875 6.390625 31.78125 6.390625 
Q 39.453125 6.390625 43.28125 13.890625 
Q 47.125 21.390625 47.125 36.375 
Q 47.125 51.421875 43.28125 58.90625 
Q 39.453125 66.40625 31.78125 66.40625 
z
M 31.78125 74.21875 
Q 44.046875 74.21875 50.515625 64.515625 
Q 56.984375 54.828125 56.984375 36.375 
Q 56.984375 17.96875 50.515625 8.265625 
Q 44.046875 -1.421875 31.78125 -1.421875 
Q 19.53125 -1.421875 13.0625 8.265625 
Q 6.59375 17.96875 6.59375 36.375 
Q 6.59375 54.828125 13.0625 64.515625 
Q 19.53125 74.21875 31.78125 74.21875 
z
" id="DejaVuSans-48"/>
      </defs>
      <g transform="translate(18.931563 104.676094)scale(0.14 -0.14)">
       <use xlink:href="#DejaVuSans-48"/>
      </g>
     </g>
    </g>
    <g id="ytick_4">
     <g id="line2d_8">
      <g>
       <use style="stroke:#000000;stroke-width:0.8;" x="34.839063" xlink:href="#m58b2e91d37" y="44.997187"/>
      </g>
     </g>
     <g id="text_8">
      <!-- 3 -->
      <g transform="translate(18.931563 50.316094)scale(0.14 -0.14)">
       <use xlink:href="#DejaVuSans-51"/>
      </g>
     </g>
    </g>
   </g>
   <g id="line2d_9">
    <path clip-path="url(#p093903e88e)" d="M 34.839063 99.368972 
L 38.220884 99.380745 
L 41.602696 99.402871 
L 44.984517 99.443109 
L 48.366339 99.513875 
L 51.748151 99.634133 
L 55.129972 99.831433 
L 58.511794 100.143605 
L 61.893605 100.619303 
L 65.275427 101.316284 
L 68.657239 102.29609 
L 72.03906 103.61402 
L 75.420882 105.30391 
L 78.802703 107.358706 
L 82.184515 109.709735 
L 85.566337 112.209871 
L 88.948148 114.627307 
L 92.32997 116.657174 
L 95.711792 117.955625 
L 99.093613 118.196428 
L 102.475425 117.142573 
L 105.857246 114.717851 
L 109.239058 111.057993 
L 112.62088 106.520581 
L 116.002701 101.64025 
L 119.384513 97.029103 
L 122.766335 93.240095 
L 126.148156 90.627008 
L 129.529968 89.241887 
L 132.911789 88.806412 
L 136.293611 88.775249 
L 139.675423 88.482472 
L 143.057244 87.334794 
L 146.439066 84.997213 
L 149.820877 81.515134 
L 153.202699 77.333683 
L 156.584521 73.205364 
L 159.966332 70.010497 
L 163.348154 68.541048 
L 166.729976 69.308059 
L 170.111787 72.423263 
L 173.493609 77.581861 
L 176.87543 84.142859 
L 180.257242 91.277693 
L 183.639064 98.143186 
L 187.020885 104.034486 
L 190.402697 108.486432 
L 193.784518 111.309743 
L 197.16634 112.567074 
L 200.548152 112.507485 
L 203.929963 111.482741 
L 207.311785 109.867248 
L 210.693607 107.996594 
L 214.075428 106.13111 
L 217.45725 104.443588 
L 220.839071 103.025426 
L 224.220873 101.903635 
L 227.602695 101.061621 
L 230.984516 100.458684 
L 234.366338 100.04524 
L 237.748159 99.772992 
L 241.129981 99.600472 
L 244.511783 99.495093 
L 247.893604 99.432961 
L 251.275426 99.397565 
L 254.657248 99.378062 
L 258.039069 99.367662 
L 261.420871 99.36229 
L 264.802692 99.359601 
L 268.184514 99.358297 
L 271.566336 99.357683 
L 274.948157 99.357402 
L 278.329979 99.357278 
L 281.711781 99.357225 
L 285.093602 99.357202 
L 288.475424 99.357193 
L 291.857245 99.35719 
L 295.239067 99.357188 
L 298.620889 99.357188 
L 302.00269 99.357188 
L 305.384512 99.357188 
L 308.766333 99.357188 
L 312.148155 99.357188 
L 315.529977 99.357188 
L 318.911798 99.357188 
L 322.2936 99.357188 
L 325.675422 99.357188 
L 329.057243 99.357188 
L 332.439065 99.357188 
L 335.820886 99.357188 
L 339.202708 99.357188 
L 342.58451 99.357188 
L 345.966331 99.357187 
L 349.348153 99.357187 
L 352.729974 99.357187 
L 356.111796 99.357187 
L 359.493618 99.357187 
L 362.875419 99.357187 
L 366.257241 99.357187 
L 369.639063 99.357187 
" style="fill:none;stroke:#000000;stroke-linecap:square;stroke-width:1.5;"/>
   </g>
   <g id="patch_3">
    <path d="M 34.839063 244.317187 
L 34.839063 26.877187 
" style="fill:none;stroke:#000000;stroke-linecap:square;stroke-linejoin:miter;stroke-width:0.8;"/>
   </g>
   <g id="patch_4">
    <path d="M 369.639063 244.317187 
L 369.639063 26.877187 
" style="fill:none;stroke:#000000;stroke-linecap:square;stroke-linejoin:miter;stroke-width:0.8;"/>
   </g>
   <g id="patch_5">
    <path d="M 34.839063 244.317187 
L 369.639063 244.317187 
" style="fill:none;stroke:#000000;stroke-linecap:square;stroke-linejoin:miter;stroke-width:0.8;"/>
   </g>
   <g id="patch_6">
    <path d="M 34.839063 26.877187 
L 369.639063 26.877187 
" style="fill:none;stroke:#000000;stroke-linecap:square;stroke-linejoin:miter;stroke-width:0.8;"/>
   </g>
   <g id="text_9">
    <!-- VFE after 0 optimisation steps -->
    <defs>
     <path d="M 28.609375 0 
L 0.78125 72.90625 
L 11.078125 72.90625 
L 34.1875 11.53125 
L 57.328125 72.90625 
L 67.578125 72.90625 
L 39.796875 0 
z
" id="DejaVuSans-86"/>
     <path d="M 9.8125 72.90625 
L 51.703125 72.90625 
L 51.703125 64.59375 
L 19.671875 64.59375 
L 19.671875 43.109375 
L 48.578125 43.109375 
L 48.578125 34.8125 
L 19.671875 34.8125 
L 19.671875 0 
L 9.8125 0 
z
" id="DejaVuSans-70"/>
     <path d="M 9.8125 72.90625 
L 55.90625 72.90625 
L 55.90625 64.59375 
L 19.671875 64.59375 
L 19.671875 43.015625 
L 54.390625 43.015625 
L 54.390625 34.71875 
L 19.671875 34.71875 
L 19.671875 8.296875 
L 56.78125 8.296875 
L 56.78125 0 
L 9.8125 0 
z
" id="DejaVuSans-69"/>
     <path id="DejaVuSans-32"/>
     <path d="M 34.28125 27.484375 
Q 23.390625 27.484375 19.1875 25 
Q 14.984375 22.515625 14.984375 16.5 
Q 14.984375 11.71875 18.140625 8.90625 
Q 21.296875 6.109375 26.703125 6.109375 
Q 34.1875 6.109375 38.703125 11.40625 
Q 43.21875 16.703125 43.21875 25.484375 
L 43.21875 27.484375 
z
M 52.203125 31.203125 
L 52.203125 0 
L 43.21875 0 
L 43.21875 8.296875 
Q 40.140625 3.328125 35.546875 0.953125 
Q 30.953125 -1.421875 24.3125 -1.421875 
Q 15.921875 -1.421875 10.953125 3.296875 
Q 6 8.015625 6 15.921875 
Q 6 25.140625 12.171875 29.828125 
Q 18.359375 34.515625 30.609375 34.515625 
L 43.21875 34.515625 
L 43.21875 35.40625 
Q 43.21875 41.609375 39.140625 45 
Q 35.0625 48.390625 27.6875 48.390625 
Q 23 48.390625 18.546875 47.265625 
Q 14.109375 46.140625 10.015625 43.890625 
L 10.015625 52.203125 
Q 14.9375 54.109375 19.578125 55.046875 
Q 24.21875 56 28.609375 56 
Q 40.484375 56 46.34375 49.84375 
Q 52.203125 43.703125 52.203125 31.203125 
z
" id="DejaVuSans-97"/>
     <path d="M 37.109375 75.984375 
L 37.109375 68.5 
L 28.515625 68.5 
Q 23.6875 68.5 21.796875 66.546875 
Q 19.921875 64.59375 19.921875 59.515625 
L 19.921875 54.6875 
L 34.71875 54.6875 
L 34.71875 47.703125 
L 19.921875 47.703125 
L 19.921875 0 
L 10.890625 0 
L 10.890625 47.703125 
L 2.296875 47.703125 
L 2.296875 54.6875 
L 10.890625 54.6875 
L 10.890625 58.5 
Q 10.890625 67.625 15.140625 71.796875 
Q 19.390625 75.984375 28.609375 75.984375 
z
" id="DejaVuSans-102"/>
     <path d="M 18.3125 70.21875 
L 18.3125 54.6875 
L 36.8125 54.6875 
L 36.8125 47.703125 
L 18.3125 47.703125 
L 18.3125 18.015625 
Q 18.3125 11.328125 20.140625 9.421875 
Q 21.96875 7.515625 27.59375 7.515625 
L 36.8125 7.515625 
L 36.8125 0 
L 27.59375 0 
Q 17.1875 0 13.234375 3.875 
Q 9.28125 7.765625 9.28125 18.015625 
L 9.28125 47.703125 
L 2.6875 47.703125 
L 2.6875 54.6875 
L 9.28125 54.6875 
L 9.28125 70.21875 
z
" id="DejaVuSans-116"/>
     <path d="M 56.203125 29.59375 
L 56.203125 25.203125 
L 14.890625 25.203125 
Q 15.484375 15.921875 20.484375 11.0625 
Q 25.484375 6.203125 34.421875 6.203125 
Q 39.59375 6.203125 44.453125 7.46875 
Q 49.3125 8.734375 54.109375 11.28125 
L 54.109375 2.78125 
Q 49.265625 0.734375 44.1875 -0.34375 
Q 39.109375 -1.421875 33.890625 -1.421875 
Q 20.796875 -1.421875 13.15625 6.1875 
Q 5.515625 13.8125 5.515625 26.8125 
Q 5.515625 40.234375 12.765625 48.109375 
Q 20.015625 56 32.328125 56 
Q 43.359375 56 49.78125 48.890625 
Q 56.203125 41.796875 56.203125 29.59375 
z
M 47.21875 32.234375 
Q 47.125 39.59375 43.09375 43.984375 
Q 39.0625 48.390625 32.421875 48.390625 
Q 24.90625 48.390625 20.390625 44.140625 
Q 15.875 39.890625 15.1875 32.171875 
z
" id="DejaVuSans-101"/>
     <path d="M 41.109375 46.296875 
Q 39.59375 47.171875 37.8125 47.578125 
Q 36.03125 48 33.890625 48 
Q 26.265625 48 22.1875 43.046875 
Q 18.109375 38.09375 18.109375 28.8125 
L 18.109375 0 
L 9.078125 0 
L 9.078125 54.6875 
L 18.109375 54.6875 
L 18.109375 46.1875 
Q 20.953125 51.171875 25.484375 53.578125 
Q 30.03125 56 36.53125 56 
Q 37.453125 56 38.578125 55.875 
Q 39.703125 55.765625 41.0625 55.515625 
z
" id="DejaVuSans-114"/>
     <path d="M 30.609375 48.390625 
Q 23.390625 48.390625 19.1875 42.75 
Q 14.984375 37.109375 14.984375 27.296875 
Q 14.984375 17.484375 19.15625 11.84375 
Q 23.34375 6.203125 30.609375 6.203125 
Q 37.796875 6.203125 41.984375 11.859375 
Q 46.1875 17.53125 46.1875 27.296875 
Q 46.1875 37.015625 41.984375 42.703125 
Q 37.796875 48.390625 30.609375 48.390625 
z
M 30.609375 56 
Q 42.328125 56 49.015625 48.375 
Q 55.71875 40.765625 55.71875 27.296875 
Q 55.71875 13.875 49.015625 6.21875 
Q 42.328125 -1.421875 30.609375 -1.421875 
Q 18.84375 -1.421875 12.171875 6.21875 
Q 5.515625 13.875 5.515625 27.296875 
Q 5.515625 40.765625 12.171875 48.375 
Q 18.84375 56 30.609375 56 
z
" id="DejaVuSans-111"/>
     <path d="M 18.109375 8.203125 
L 18.109375 -20.796875 
L 9.078125 -20.796875 
L 9.078125 54.6875 
L 18.109375 54.6875 
L 18.109375 46.390625 
Q 20.953125 51.265625 25.265625 53.625 
Q 29.59375 56 35.59375 56 
Q 45.5625 56 51.78125 48.09375 
Q 58.015625 40.1875 58.015625 27.296875 
Q 58.015625 14.40625 51.78125 6.484375 
Q 45.5625 -1.421875 35.59375 -1.421875 
Q 29.59375 -1.421875 25.265625 0.953125 
Q 20.953125 3.328125 18.109375 8.203125 
z
M 48.6875 27.296875 
Q 48.6875 37.203125 44.609375 42.84375 
Q 40.53125 48.484375 33.40625 48.484375 
Q 26.265625 48.484375 22.1875 42.84375 
Q 18.109375 37.203125 18.109375 27.296875 
Q 18.109375 17.390625 22.1875 11.75 
Q 26.265625 6.109375 33.40625 6.109375 
Q 40.53125 6.109375 44.609375 11.75 
Q 48.6875 17.390625 48.6875 27.296875 
z
" id="DejaVuSans-112"/>
     <path d="M 9.421875 54.6875 
L 18.40625 54.6875 
L 18.40625 0 
L 9.421875 0 
z
M 9.421875 75.984375 
L 18.40625 75.984375 
L 18.40625 64.59375 
L 9.421875 64.59375 
z
" id="DejaVuSans-105"/>
     <path d="M 52 44.1875 
Q 55.375 50.25 60.0625 53.125 
Q 64.75 56 71.09375 56 
Q 79.640625 56 84.28125 50.015625 
Q 88.921875 44.046875 88.921875 33.015625 
L 88.921875 0 
L 79.890625 0 
L 79.890625 32.71875 
Q 79.890625 40.578125 77.09375 44.375 
Q 74.3125 48.1875 68.609375 48.1875 
Q 61.625 48.1875 57.5625 43.546875 
Q 53.515625 38.921875 53.515625 30.90625 
L 53.515625 0 
L 44.484375 0 
L 44.484375 32.71875 
Q 44.484375 40.625 41.703125 44.40625 
Q 38.921875 48.1875 33.109375 48.1875 
Q 26.21875 48.1875 22.15625 43.53125 
Q 18.109375 38.875 18.109375 30.90625 
L 18.109375 0 
L 9.078125 0 
L 9.078125 54.6875 
L 18.109375 54.6875 
L 18.109375 46.1875 
Q 21.1875 51.21875 25.484375 53.609375 
Q 29.78125 56 35.6875 56 
Q 41.65625 56 45.828125 52.96875 
Q 50 49.953125 52 44.1875 
z
" id="DejaVuSans-109"/>
     <path d="M 44.28125 53.078125 
L 44.28125 44.578125 
Q 40.484375 46.53125 36.375 47.5 
Q 32.28125 48.484375 27.875 48.484375 
Q 21.1875 48.484375 17.84375 46.4375 
Q 14.5 44.390625 14.5 40.28125 
Q 14.5 37.15625 16.890625 35.375 
Q 19.28125 33.59375 26.515625 31.984375 
L 29.59375 31.296875 
Q 39.15625 29.25 43.1875 25.515625 
Q 47.21875 21.78125 47.21875 15.09375 
Q 47.21875 7.46875 41.1875 3.015625 
Q 35.15625 -1.421875 24.609375 -1.421875 
Q 20.21875 -1.421875 15.453125 -0.5625 
Q 10.6875 0.296875 5.421875 2 
L 5.421875 11.28125 
Q 10.40625 8.6875 15.234375 7.390625 
Q 20.0625 6.109375 24.8125 6.109375 
Q 31.15625 6.109375 34.5625 8.28125 
Q 37.984375 10.453125 37.984375 14.40625 
Q 37.984375 18.0625 35.515625 20.015625 
Q 33.0625 21.96875 24.703125 23.78125 
L 21.578125 24.515625 
Q 13.234375 26.265625 9.515625 29.90625 
Q 5.8125 33.546875 5.8125 39.890625 
Q 5.8125 47.609375 11.28125 51.796875 
Q 16.75 56 26.8125 56 
Q 31.78125 56 36.171875 55.265625 
Q 40.578125 54.546875 44.28125 53.078125 
z
" id="DejaVuSans-115"/>
     <path d="M 54.890625 33.015625 
L 54.890625 0 
L 45.90625 0 
L 45.90625 32.71875 
Q 45.90625 40.484375 42.875 44.328125 
Q 39.84375 48.1875 33.796875 48.1875 
Q 26.515625 48.1875 22.3125 43.546875 
Q 18.109375 38.921875 18.109375 30.90625 
L 18.109375 0 
L 9.078125 0 
L 9.078125 54.6875 
L 18.109375 54.6875 
L 18.109375 46.1875 
Q 21.34375 51.125 25.703125 53.5625 
Q 30.078125 56 35.796875 56 
Q 45.21875 56 50.046875 50.171875 
Q 54.890625 44.34375 54.890625 33.015625 
z
" id="DejaVuSans-110"/>
    </defs>
    <g transform="translate(66.644219 20.877187)scale(0.18 -0.18)">
     <use xlink:href="#DejaVuSans-86"/>
     <use x="68.408203" xlink:href="#DejaVuSans-70"/>
     <use x="125.927734" xlink:href="#DejaVuSans-69"/>
     <use x="189.111328" xlink:href="#DejaVuSans-32"/>
     <use x="220.898438" xlink:href="#DejaVuSans-97"/>
     <use x="282.177734" xlink:href="#DejaVuSans-102"/>
     <use x="315.632812" xlink:href="#DejaVuSans-116"/>
     <use x="354.841797" xlink:href="#DejaVuSans-101"/>
     <use x="416.365234" xlink:href="#DejaVuSans-114"/>
     <use x="457.478516" xlink:href="#DejaVuSans-32"/>
     <use x="489.265625" xlink:href="#DejaVuSans-48"/>
     <use x="552.888672" xlink:href="#DejaVuSans-32"/>
     <use x="584.675781" xlink:href="#DejaVuSans-111"/>
     <use x="645.857422" xlink:href="#DejaVuSans-112"/>
     <use x="709.333984" xlink:href="#DejaVuSans-116"/>
     <use x="748.542969" xlink:href="#DejaVuSans-105"/>
     <use x="776.326172" xlink:href="#DejaVuSans-109"/>
     <use x="873.738281" xlink:href="#DejaVuSans-105"/>
     <use x="901.521484" xlink:href="#DejaVuSans-115"/>
     <use x="953.621094" xlink:href="#DejaVuSans-97"/>
     <use x="1014.900391" xlink:href="#DejaVuSans-116"/>
     <use x="1054.109375" xlink:href="#DejaVuSans-105"/>
     <use x="1081.892578" xlink:href="#DejaVuSans-111"/>
     <use x="1143.074219" xlink:href="#DejaVuSans-110"/>
     <use x="1206.453125" xlink:href="#DejaVuSans-32"/>
     <use x="1238.240234" xlink:href="#DejaVuSans-115"/>
     <use x="1290.339844" xlink:href="#DejaVuSans-116"/>
     <use x="1329.548828" xlink:href="#DejaVuSans-101"/>
     <use x="1391.072266" xlink:href="#DejaVuSans-112"/>
     <use x="1454.548828" xlink:href="#DejaVuSans-115"/>
    </g>
   </g>
   <g id="legend_1">
    <g id="patch_7">
     <path d="M 280.639063 239.317187 
L 362.639063 239.317187 
Q 364.639063 239.317187 364.639063 237.317187 
L 364.639063 176.560937 
Q 364.639063 174.560937 362.639063 174.560937 
L 280.639063 174.560937 
Q 278.639063 174.560937 278.639063 176.560937 
L 278.639063 237.317187 
Q 278.639063 239.317187 280.639063 239.317187 
z
" style="fill:#ffffff;opacity:0.8;stroke:#cccccc;stroke-linejoin:miter;"/>
    </g>
    <g id="line2d_10">
     <path d="M 282.639063 184.160937 
L 302.639063 184.160937 
" style="fill:none;stroke:#000000;stroke-linecap:square;stroke-width:1.5;"/>
    </g>
    <g id="line2d_11"/>
    <g id="text_10">
     <!-- $y^*$ mean -->
     <defs>
      <path d="M 24.8125 -5.078125 
Q 18.5625 -15.578125 14.625 -18.1875 
Q 10.6875 -20.796875 4.59375 -20.796875 
L -2.484375 -20.796875 
L -0.984375 -13.28125 
L 4.203125 -13.28125 
Q 7.953125 -13.28125 10.59375 -11.234375 
Q 13.234375 -9.1875 16.5 -3.21875 
L 19.28125 2 
L 7.171875 54.6875 
L 16.703125 54.6875 
L 25.78125 12.796875 
L 50.875 54.6875 
L 60.296875 54.6875 
z
" id="DejaVuSans-Oblique-121"/>
      <path d="M 47.015625 60.890625 
L 29.5 51.421875 
L 47.015625 41.890625 
L 44.1875 37.109375 
L 27.78125 47.015625 
L 27.78125 28.609375 
L 22.21875 28.609375 
L 22.21875 47.015625 
L 5.8125 37.109375 
L 2.984375 41.890625 
L 20.515625 51.421875 
L 2.984375 60.890625 
L 5.8125 65.71875 
L 22.21875 55.8125 
L 22.21875 74.21875 
L 27.78125 74.21875 
L 27.78125 55.8125 
L 44.1875 65.71875 
z
" id="DejaVuSans-42"/>
     </defs>
     <g transform="translate(310.639063 187.660937)scale(0.1 -0.1)">
      <use transform="translate(0 0.765625)" xlink:href="#DejaVuSans-Oblique-121"/>
      <use transform="translate(77.283529 39.046875)scale(0.7)" xlink:href="#DejaVuSans-42"/>
      <use transform="translate(128.655599 0.765625)" xlink:href="#DejaVuSans-32"/>
      <use transform="translate(160.442708 0.765625)" xlink:href="#DejaVuSans-109"/>
      <use transform="translate(257.854818 0.765625)" xlink:href="#DejaVuSans-101"/>
      <use transform="translate(319.378255 0.765625)" xlink:href="#DejaVuSans-97"/>
      <use transform="translate(380.657552 0.765625)" xlink:href="#DejaVuSans-110"/>
     </g>
    </g>
    <g id="patch_8">
     <path d="M 282.639063 203.860937 
L 302.639063 203.860937 
L 302.639063 196.860937 
L 282.639063 196.860937 
z
" style="fill:#808080;opacity:0.3;stroke:#808080;stroke-linejoin:miter;"/>
    </g>
    <g id="text_11">
     <!-- $y^*$ stddev -->
     <defs>
      <path d="M 45.40625 46.390625 
L 45.40625 75.984375 
L 54.390625 75.984375 
L 54.390625 0 
L 45.40625 0 
L 45.40625 8.203125 
Q 42.578125 3.328125 38.25 0.953125 
Q 33.9375 -1.421875 27.875 -1.421875 
Q 17.96875 -1.421875 11.734375 6.484375 
Q 5.515625 14.40625 5.515625 27.296875 
Q 5.515625 40.1875 11.734375 48.09375 
Q 17.96875 56 27.875 56 
Q 33.9375 56 38.25 53.625 
Q 42.578125 51.265625 45.40625 46.390625 
z
M 14.796875 27.296875 
Q 14.796875 17.390625 18.875 11.75 
Q 22.953125 6.109375 30.078125 6.109375 
Q 37.203125 6.109375 41.296875 11.75 
Q 45.40625 17.390625 45.40625 27.296875 
Q 45.40625 37.203125 41.296875 42.84375 
Q 37.203125 48.484375 30.078125 48.484375 
Q 22.953125 48.484375 18.875 42.84375 
Q 14.796875 37.203125 14.796875 27.296875 
z
" id="DejaVuSans-100"/>
      <path d="M 2.984375 54.6875 
L 12.5 54.6875 
L 29.59375 8.796875 
L 46.6875 54.6875 
L 56.203125 54.6875 
L 35.6875 0 
L 23.484375 0 
z
" id="DejaVuSans-118"/>
     </defs>
     <g transform="translate(310.639063 203.860937)scale(0.1 -0.1)">
      <use transform="translate(0 0.765625)" xlink:href="#DejaVuSans-Oblique-121"/>
      <use transform="translate(77.283529 39.046875)scale(0.7)" xlink:href="#DejaVuSans-42"/>
      <use transform="translate(128.655599 0.765625)" xlink:href="#DejaVuSans-32"/>
      <use transform="translate(160.442708 0.765625)" xlink:href="#DejaVuSans-115"/>
      <use transform="translate(212.542318 0.765625)" xlink:href="#DejaVuSans-116"/>
      <use transform="translate(251.751302 0.765625)" xlink:href="#DejaVuSans-100"/>
      <use transform="translate(315.227865 0.765625)" xlink:href="#DejaVuSans-100"/>
      <use transform="translate(378.704427 0.765625)" xlink:href="#DejaVuSans-101"/>
      <use transform="translate(440.227865 0.765625)" xlink:href="#DejaVuSans-118"/>
     </g>
    </g>
    <g id="PathCollection_4">
     <g>
      <use style="fill:#0000ff;stroke:#0000ff;stroke-width:1.5;" x="292.639063" xlink:href="#m921e49e419" y="215.934375"/>
     </g>
    </g>
    <g id="text_12">
     <!-- Current $\bar{\mathbf{X}}$ -->
     <defs>
      <path d="M 64.40625 67.28125 
L 64.40625 56.890625 
Q 59.421875 61.53125 53.78125 63.8125 
Q 48.140625 66.109375 41.796875 66.109375 
Q 29.296875 66.109375 22.65625 58.46875 
Q 16.015625 50.828125 16.015625 36.375 
Q 16.015625 21.96875 22.65625 14.328125 
Q 29.296875 6.6875 41.796875 6.6875 
Q 48.140625 6.6875 53.78125 8.984375 
Q 59.421875 11.28125 64.40625 15.921875 
L 64.40625 5.609375 
Q 59.234375 2.09375 53.4375 0.328125 
Q 47.65625 -1.421875 41.21875 -1.421875 
Q 24.65625 -1.421875 15.125 8.703125 
Q 5.609375 18.84375 5.609375 36.375 
Q 5.609375 53.953125 15.125 64.078125 
Q 24.65625 74.21875 41.21875 74.21875 
Q 47.75 74.21875 53.53125 72.484375 
Q 59.328125 70.75 64.40625 67.28125 
z
" id="DejaVuSans-67"/>
      <path d="M 8.5 21.578125 
L 8.5 54.6875 
L 17.484375 54.6875 
L 17.484375 21.921875 
Q 17.484375 14.15625 20.5 10.265625 
Q 23.53125 6.390625 29.59375 6.390625 
Q 36.859375 6.390625 41.078125 11.03125 
Q 45.3125 15.671875 45.3125 23.6875 
L 45.3125 54.6875 
L 54.296875 54.6875 
L 54.296875 0 
L 45.3125 0 
L 45.3125 8.40625 
Q 42.046875 3.421875 37.71875 1 
Q 33.40625 -1.421875 27.6875 -1.421875 
Q 18.265625 -1.421875 13.375 4.4375 
Q 8.5 10.296875 8.5 21.578125 
z
M 31.109375 56 
z
" id="DejaVuSans-117"/>
      <path d="M -39.34375 74.515625 
L -10.15625 74.515625 
L -10.15625 67.28125 
L -39.34375 67.28125 
z
" id="DejaVuSans-772"/>
      <path d="M 49.8125 37.203125 
L 75.09375 0 
L 55.515625 0 
L 38.484375 24.90625 
L 21.578125 0 
L 1.90625 0 
L 27.203125 37.203125 
L 2.875 72.90625 
L 22.515625 72.90625 
L 38.484375 49.421875 
L 54.390625 72.90625 
L 74.125 72.90625 
z
" id="DejaVuSans-Bold-88"/>
     </defs>
     <g transform="translate(310.639063 218.559375)scale(0.1 -0.1)">
      <use transform="translate(0 0.359375)" xlink:href="#DejaVuSans-67"/>
      <use transform="translate(69.824219 0.359375)" xlink:href="#DejaVuSans-117"/>
      <use transform="translate(133.203125 0.359375)" xlink:href="#DejaVuSans-114"/>
      <use transform="translate(174.316406 0.359375)" xlink:href="#DejaVuSans-114"/>
      <use transform="translate(215.429688 0.359375)" xlink:href="#DejaVuSans-101"/>
      <use transform="translate(276.953125 0.359375)" xlink:href="#DejaVuSans-110"/>
      <use transform="translate(340.332031 0.359375)" xlink:href="#DejaVuSans-116"/>
      <use transform="translate(379.541016 0.359375)" xlink:href="#DejaVuSans-32"/>
      <use transform="translate(483.946777 18.484375)" xlink:href="#DejaVuSans-772"/>
      <use transform="translate(411.328125 0.359375)" xlink:href="#DejaVuSans-Bold-88"/>
     </g>
    </g>
    <g id="PathCollection_5">
     <g>
      <use style="fill:#008000;stroke:#008000;stroke-width:1.5;" x="292.639063" xlink:href="#m7ec0bb3540" y="230.6125"/>
     </g>
    </g>
    <g id="text_13">
     <!-- Init. $\bar{\mathbf{X}}$ -->
     <defs>
      <path d="M 9.8125 72.90625 
L 19.671875 72.90625 
L 19.671875 0 
L 9.8125 0 
z
" id="DejaVuSans-73"/>
      <path d="M 10.6875 12.40625 
L 21 12.40625 
L 21 0 
L 10.6875 0 
z
" id="DejaVuSans-46"/>
     </defs>
     <g transform="translate(310.639063 233.2375)scale(0.1 -0.1)">
      <use transform="translate(0 0.359375)" xlink:href="#DejaVuSans-73"/>
      <use transform="translate(29.492188 0.359375)" xlink:href="#DejaVuSans-110"/>
      <use transform="translate(92.871094 0.359375)" xlink:href="#DejaVuSans-105"/>
      <use transform="translate(120.654297 0.359375)" xlink:href="#DejaVuSans-116"/>
      <use transform="translate(159.863281 0.359375)" xlink:href="#DejaVuSans-46"/>
      <use transform="translate(191.650391 0.359375)" xlink:href="#DejaVuSans-32"/>
      <use transform="translate(296.056152 18.484375)" xlink:href="#DejaVuSans-772"/>
      <use transform="translate(223.4375 0.359375)" xlink:href="#DejaVuSans-Bold-88"/>
     </g>
    </g>
   </g>
  </g>
 </g>
 <defs>
  <clipPath id="p093903e88e">
   <rect height="217.44" width="334.8" x="34.839063" y="26.877187"/>
  </clipPath>
 </defs>
</svg>
