<?xml version="1.0" encoding="utf-8" standalone="no"?>
<!DOCTYPE svg PUBLIC "-//W3C//DTD SVG 1.1//EN"
  "http://www.w3.org/Graphics/SVG/1.1/DTD/svg11.dtd">
<!-- Created with matplotlib (https://matplotlib.org/) -->
<svg height="329.465937pt" version="1.1" viewBox="0 0 492.892812 329.465937" width="492.892812pt" xmlns="http://www.w3.org/2000/svg" xmlns:xlink="http://www.w3.org/1999/xlink">
 <defs>
  <style type="text/css">
*{stroke-linecap:butt;stroke-linejoin:round;}
  </style>
 </defs>
 <g id="figure_1">
  <g id="patch_1">
   <path d="M 0 329.465937 
L 492.892812 329.465937 
L 492.892812 0 
L 0 0 
z
" style="fill:none;"/>
  </g>
  <g id="axes_1">
   <g id="patch_2">
    <path d="M 34.839063 301.716563 
L 481.239062 301.716563 
L 481.239062 29.916562 
L 34.839063 29.916562 
z
" style="fill:#ffffff;"/>
   </g>
   <g id="PolyCollection_1">
    <defs>
     <path d="M 34.839063 -170.919296 
L 34.839063 -162.604765 
L 39.348153 -165.743138 
L 43.857244 -168.559591 
L 48.366335 -171.063982 
L 52.875426 -173.270029 
L 57.384517 -175.189364 
L 61.893608 -176.833958 
L 66.402699 -178.221438 
L 70.91179 -179.379643 
L 75.420881 -180.349118 
L 79.929972 -181.183323 
L 84.439063 -181.946676 
L 88.948153 -182.710786 
L 93.457244 -183.549396 
L 97.966335 -184.532725 
L 102.475426 -185.721873 
L 106.984517 -187.163823 
L 111.493608 -188.887391 
L 116.002699 -190.900312 
L 120.51179 -193.18751 
L 125.020881 -195.710607 
L 129.529972 -198.408625 
L 134.039062 -201.199869 
L 138.548153 -203.984916 
L 143.057244 -206.650611 
L 147.566335 -209.074905 
L 152.075426 -211.132321 
L 156.584517 -212.699768 
L 161.093608 -213.662392 
L 165.602699 -213.919156 
L 170.11179 -213.387823 
L 174.620881 -212.009094 
L 179.129972 -209.749684 
L 183.639063 -206.604246 
L 188.148153 -202.596076 
L 192.657244 -197.776659 
L 197.166335 -192.22413 
L 201.675426 -186.04082 
L 206.184517 -179.350018 
L 210.693608 -172.292183 
L 215.202699 -165.020756 
L 219.71179 -157.697748 
L 224.220881 -150.489213 
L 228.729972 -143.560675 
L 233.239063 -137.072506 
L 237.748153 -131.175282 
L 242.257244 -126.005176 
L 246.766335 -121.679513 
L 251.275426 -118.292704 
L 255.784517 -115.912814 
L 260.293608 -114.578976 
L 264.802699 -114.299869 
L 269.31179 -115.053348 
L 273.820881 -116.787293 
L 278.329972 -119.421614 
L 282.839063 -122.851316 
L 287.348153 -126.950404 
L 291.857244 -131.576427 
L 296.366335 -136.575427 
L 300.875426 -141.787123 
L 305.384517 -147.050202 
L 309.893608 -152.207617 
L 314.402699 -157.111787 
L 318.91179 -161.629521 
L 323.420881 -165.646498 
L 327.929972 -169.071044 
L 332.439063 -171.836985 
L 336.948153 -173.905333 
L 341.457244 -175.264635 
L 345.966335 -175.92988 
L 350.475426 -175.940015 
L 354.984517 -175.354209 
L 359.493608 -174.247196 
L 364.002699 -172.704041 
L 368.51179 -170.814773 
L 373.020881 -168.669254 
L 377.529972 -166.35266 
L 382.039062 -163.941846 
L 386.548153 -161.502773 
L 391.057244 -159.089047 
L 395.566335 -156.741504 
L 400.075426 -154.488623 
L 404.584517 -152.347549 
L 409.093608 -150.32549 
L 413.602699 -148.421385 
L 418.11179 -146.627806 
L 422.620881 -144.933096 
L 427.129972 -143.323736 
L 431.639063 -141.78683 
L 436.148153 -140.312513 
L 440.657244 -138.895966 
L 445.166335 -137.538603 
L 449.675426 -136.247994 
L 454.184517 -135.036084 
L 458.693608 -133.915456 
L 463.202699 -132.893694 
L 467.71179 -131.966798 
L 472.220881 -131.114613 
L 476.729972 -130.303668 
L 481.239062 -129.500624 
L 481.239062 -138.306581 
L 481.239062 -138.306581 
L 476.729972 -138.239374 
L 472.220881 -138.566982 
L 467.71179 -139.215577 
L 463.202699 -140.105468 
L 458.693608 -141.16786 
L 454.184517 -142.351211 
L 449.675426 -143.620118 
L 445.166335 -144.951851 
L 440.657244 -146.333222 
L 436.148153 -147.758488 
L 431.639063 -149.22815 
L 427.129972 -150.74824 
L 422.620881 -152.329653 
L 418.11179 -153.987081 
L 413.602699 -155.73731 
L 409.093608 -157.596788 
L 404.584517 -159.578589 
L 400.075426 -161.689085 
L 395.566335 -163.92472 
L 391.057244 -166.269345 
L 386.548153 -168.692488 
L 382.039062 -171.148803 
L 377.529972 -173.578733 
L 373.020881 -175.910307 
L 368.51179 -178.061883 
L 364.002699 -179.945642 
L 359.493608 -181.471606 
L 354.984517 -182.552001 
L 350.475426 -183.105733 
L 345.966335 -183.062803 
L 341.457244 -182.368445 
L 336.948153 -180.986845 
L 332.439063 -178.904282 
L 327.929972 -176.131527 
L 323.420881 -172.705365 
L 318.91179 -168.689055 
L 314.402699 -164.171593 
L 309.893608 -159.265698 
L 305.384517 -154.104535 
L 300.875426 -148.837266 
L 296.366335 -143.623666 
L 291.857244 -138.628084 
L 287.348153 -134.01314 
L 282.839063 -129.93354 
L 278.329972 -126.530417 
L 273.820881 -123.926467 
L 269.31179 -122.222063 
L 264.802699 -121.492395 
L 260.293608 -121.785564 
L 255.784517 -123.121539 
L 251.275426 -125.491876 
L 246.766335 -128.860095 
L 242.257244 -133.162685 
L 237.748153 -138.310703 
L 233.239063 -144.192 
L 228.729972 -150.674134 
L 224.220881 -157.608009 
L 219.71179 -164.83225 
L 215.202699 -172.178195 
L 210.693608 -179.475333 
L 206.184517 -186.556912 
L 201.675426 -193.265438 
L 197.166335 -199.457808 
L 192.657244 -205.009859 
L 188.148153 -209.820171 
L 183.639063 -213.812979 
L 179.129972 -216.940105 
L 174.620881 -219.181844 
L 170.11179 -220.546772 
L 165.602699 -221.070493 
L 161.093608 -220.813376 
L 156.584517 -219.85738 
L 152.075426 -218.302072 
L 147.566335 -216.259992 
L 143.057244 -213.851532 
L 138.548153 -211.199532 
L 134.039062 -208.423805 
L 129.529972 -205.635871 
L 125.020881 -202.934159 
L 120.51179 -200.399954 
L 116.002699 -198.09435 
L 111.493608 -196.056394 
L 106.984517 -194.302538 
L 102.475426 -192.827396 
L 97.966335 -191.605669 
L 93.457244 -190.595014 
L 88.948153 -189.739542 
L 84.439063 -188.973654 
L 79.929972 -188.22602 
L 75.420881 -187.423659 
L 70.91179 -186.496214 
L 66.402699 -185.380573 
L 61.893608 -184.025903 
L 57.384517 -182.399097 
L 52.875426 -180.490504 
L 48.366335 -178.319636 
L 43.857244 -175.939558 
L 39.348153 -173.436476 
L 34.839063 -170.919296 
z
" id="m490f4f9d6b" style="stroke:#808080;stroke-opacity:0.2;"/>
    </defs>
    <g clip-path="url(#pa86b4167b5)">
     <use style="fill:#808080;fill-opacity:0.2;stroke:#808080;stroke-opacity:0.2;" x="0" xlink:href="#m490f4f9d6b" y="329.465937"/>
    </g>
   </g>
   <g id="matplotlib.axis_1">
    <g id="xtick_1">
     <g id="line2d_1">
      <defs>
       <path d="M 0 0 
L 0 3.5 
" id="md73213a125" style="stroke:#000000;stroke-width:0.8;"/>
      </defs>
      <g>
       <use style="stroke:#000000;stroke-width:0.8;" x="34.839063" xlink:href="#md73213a125" y="301.716563"/>
      </g>
     </g>
     <g id="text_1">
      <!-- −4 -->
      <defs>
       <path d="M 10.59375 35.5 
L 73.1875 35.5 
L 73.1875 27.203125 
L 10.59375 27.203125 
z
" id="DejaVuSans-8722"/>
       <path d="M 37.796875 64.3125 
L 12.890625 25.390625 
L 37.796875 25.390625 
z
M 35.203125 72.90625 
L 47.609375 72.90625 
L 47.609375 25.390625 
L 58.015625 25.390625 
L 58.015625 17.1875 
L 47.609375 17.1875 
L 47.609375 0 
L 37.796875 0 
L 37.796875 17.1875 
L 4.890625 17.1875 
L 4.890625 26.703125 
z
" id="DejaVuSans-52"/>
      </defs>
      <g transform="translate(24.519531 319.354375)scale(0.14 -0.14)">
       <use xlink:href="#DejaVuSans-8722"/>
       <use x="83.789062" xlink:href="#DejaVuSans-52"/>
      </g>
     </g>
    </g>
    <g id="xtick_2">
     <g id="line2d_2">
      <g>
       <use style="stroke:#000000;stroke-width:0.8;" x="146.439063" xlink:href="#md73213a125" y="301.716563"/>
      </g>
     </g>
     <g id="text_2">
      <!-- −2 -->
      <defs>
       <path d="M 19.1875 8.296875 
L 53.609375 8.296875 
L 53.609375 0 
L 7.328125 0 
L 7.328125 8.296875 
Q 12.9375 14.109375 22.625 23.890625 
Q 32.328125 33.6875 34.8125 36.53125 
Q 39.546875 41.84375 41.421875 45.53125 
Q 43.3125 49.21875 43.3125 52.78125 
Q 43.3125 58.59375 39.234375 62.25 
Q 35.15625 65.921875 28.609375 65.921875 
Q 23.96875 65.921875 18.8125 64.3125 
Q 13.671875 62.703125 7.8125 59.421875 
L 7.8125 69.390625 
Q 13.765625 71.78125 18.9375 73 
Q 24.125 74.21875 28.421875 74.21875 
Q 39.75 74.21875 46.484375 68.546875 
Q 53.21875 62.890625 53.21875 53.421875 
Q 53.21875 48.921875 51.53125 44.890625 
Q 49.859375 40.875 45.40625 35.40625 
Q 44.1875 33.984375 37.640625 27.21875 
Q 31.109375 20.453125 19.1875 8.296875 
z
" id="DejaVuSans-50"/>
      </defs>
      <g transform="translate(136.119531 319.354375)scale(0.14 -0.14)">
       <use xlink:href="#DejaVuSans-8722"/>
       <use x="83.789062" xlink:href="#DejaVuSans-50"/>
      </g>
     </g>
    </g>
    <g id="xtick_3">
     <g id="line2d_3">
      <g>
       <use style="stroke:#000000;stroke-width:0.8;" x="258.039062" xlink:href="#md73213a125" y="301.716563"/>
      </g>
     </g>
     <g id="text_3">
      <!-- 0 -->
      <defs>
       <path d="M 31.78125 66.40625 
Q 24.171875 66.40625 20.328125 58.90625 
Q 16.5 51.421875 16.5 36.375 
Q 16.5 21.390625 20.328125 13.890625 
Q 24.171875 6.390625 31.78125 6.390625 
Q 39.453125 6.390625 43.28125 13.890625 
Q 47.125 21.390625 47.125 36.375 
Q 47.125 51.421875 43.28125 58.90625 
Q 39.453125 66.40625 31.78125 66.40625 
z
M 31.78125 74.21875 
Q 44.046875 74.21875 50.515625 64.515625 
Q 56.984375 54.828125 56.984375 36.375 
Q 56.984375 17.96875 50.515625 8.265625 
Q 44.046875 -1.421875 31.78125 -1.421875 
Q 19.53125 -1.421875 13.0625 8.265625 
Q 6.59375 17.96875 6.59375 36.375 
Q 6.59375 54.828125 13.0625 64.515625 
Q 19.53125 74.21875 31.78125 74.21875 
z
" id="DejaVuSans-48"/>
      </defs>
      <g transform="translate(253.585312 319.354375)scale(0.14 -0.14)">
       <use xlink:href="#DejaVuSans-48"/>
      </g>
     </g>
    </g>
    <g id="xtick_4">
     <g id="line2d_4">
      <g>
       <use style="stroke:#000000;stroke-width:0.8;" x="369.639063" xlink:href="#md73213a125" y="301.716563"/>
      </g>
     </g>
     <g id="text_4">
      <!-- 2 -->
      <g transform="translate(365.185313 319.354375)scale(0.14 -0.14)">
       <use xlink:href="#DejaVuSans-50"/>
      </g>
     </g>
    </g>
    <g id="xtick_5">
     <g id="line2d_5">
      <g>
       <use style="stroke:#000000;stroke-width:0.8;" x="481.239062" xlink:href="#md73213a125" y="301.716563"/>
      </g>
     </g>
     <g id="text_5">
      <!-- 4 -->
      <g transform="translate(476.785312 319.354375)scale(0.14 -0.14)">
       <use xlink:href="#DejaVuSans-52"/>
      </g>
     </g>
    </g>
   </g>
   <g id="matplotlib.axis_2">
    <g id="ytick_1">
     <g id="line2d_6">
      <defs>
       <path d="M 0 0 
L -3.5 0 
" id="m2ab9b0d9c8" style="stroke:#000000;stroke-width:0.8;"/>
      </defs>
      <g>
       <use style="stroke:#000000;stroke-width:0.8;" x="34.839063" xlink:href="#m2ab9b0d9c8" y="301.716563"/>
      </g>
     </g>
     <g id="text_6">
      <!-- −4 -->
      <g transform="translate(7.2 307.035469)scale(0.14 -0.14)">
       <use xlink:href="#DejaVuSans-8722"/>
       <use x="83.789062" xlink:href="#DejaVuSans-52"/>
      </g>
     </g>
    </g>
    <g id="ytick_2">
     <g id="line2d_7">
      <g>
       <use style="stroke:#000000;stroke-width:0.8;" x="34.839063" xlink:href="#m2ab9b0d9c8" y="233.766562"/>
      </g>
     </g>
     <g id="text_7">
      <!-- −2 -->
      <g transform="translate(7.2 239.085469)scale(0.14 -0.14)">
       <use xlink:href="#DejaVuSans-8722"/>
       <use x="83.789062" xlink:href="#DejaVuSans-50"/>
      </g>
     </g>
    </g>
    <g id="ytick_3">
     <g id="line2d_8">
      <g>
       <use style="stroke:#000000;stroke-width:0.8;" x="34.839063" xlink:href="#m2ab9b0d9c8" y="165.816562"/>
      </g>
     </g>
     <g id="text_8">
      <!-- 0 -->
      <g transform="translate(18.931563 171.135469)scale(0.14 -0.14)">
       <use xlink:href="#DejaVuSans-48"/>
      </g>
     </g>
    </g>
    <g id="ytick_4">
     <g id="line2d_9">
      <g>
       <use style="stroke:#000000;stroke-width:0.8;" x="34.839063" xlink:href="#m2ab9b0d9c8" y="97.866562"/>
      </g>
     </g>
     <g id="text_9">
      <!-- 2 -->
      <g transform="translate(18.931563 103.185469)scale(0.14 -0.14)">
       <use xlink:href="#DejaVuSans-50"/>
      </g>
     </g>
    </g>
    <g id="ytick_5">
     <g id="line2d_10">
      <g>
       <use style="stroke:#000000;stroke-width:0.8;" x="34.839063" xlink:href="#m2ab9b0d9c8" y="29.916562"/>
      </g>
     </g>
     <g id="text_10">
      <!-- 4 -->
      <g transform="translate(18.931563 35.235469)scale(0.14 -0.14)">
       <use xlink:href="#DejaVuSans-52"/>
      </g>
     </g>
    </g>
   </g>
   <g id="line2d_11">
    <path clip-path="url(#pa86b4167b5)" d="M 34.839063 162.703907 
L 39.348153 159.87613 
L 43.857244 157.216363 
L 48.366335 154.774129 
L 52.875426 152.585671 
L 57.384517 150.671707 
L 61.893608 149.036007 
L 66.402699 147.664932 
L 70.91179 146.528009 
L 75.420881 145.579549 
L 79.929972 144.761266 
L 84.439063 144.005773 
L 88.948153 143.240773 
L 93.457244 142.393732 
L 97.966335 141.39674 
L 102.475426 140.191303 
L 106.984517 138.732757 
L 111.493608 136.994045 
L 116.002699 134.968607 
L 120.51179 132.672206 
L 125.020881 130.143555 
L 129.529972 127.44369 
L 134.039062 124.654101 
L 138.548153 121.873713 
L 143.057244 119.214866 
L 147.566335 116.798489 
L 152.075426 114.748741 
L 156.584517 113.187363 
L 161.093608 112.228054 
L 165.602699 111.971113 
L 170.11179 112.49864 
L 174.620881 113.870468 
L 179.129972 116.121043 
L 183.639063 119.257325 
L 188.148153 123.257814 
L 192.657244 128.072679 
L 197.166335 133.624968 
L 201.675426 139.812809 
L 206.184517 146.512473 
L 210.693608 153.582179 
L 215.202699 160.866462 
L 219.71179 168.200938 
L 224.220881 175.417326 
L 228.729972 182.348533 
L 233.239063 188.833685 
L 237.748153 194.722945 
L 242.257244 199.882007 
L 246.766335 204.196134 
L 251.275426 207.573648 
L 255.784517 209.948761 
L 260.293608 211.283667 
L 264.802699 211.569805 
L 269.31179 210.828232 
L 273.820881 209.109058 
L 278.329972 206.489922 
L 282.839063 203.073509 
L 287.348153 198.984166 
L 291.857244 194.363682 
L 296.366335 189.366391 
L 300.875426 184.153743 
L 305.384517 178.888569 
L 309.893608 173.72928 
L 314.402699 168.824248 
L 318.91179 164.306649 
L 323.420881 160.290006 
L 327.929972 156.864652 
L 332.439063 154.095304 
L 336.948153 152.019848 
L 341.457244 150.649398 
L 345.966335 149.969596 
L 350.475426 149.943064 
L 354.984517 150.512833 
L 359.493608 151.606537 
L 364.002699 153.141096 
L 368.51179 155.027609 
L 373.020881 157.176157 
L 377.529972 159.500241 
L 382.039062 161.920613 
L 386.548153 164.368307 
L 391.057244 166.786741 
L 395.566335 169.132825 
L 400.075426 171.377083 
L 404.584517 173.502868 
L 409.093608 175.504799 
L 413.602699 177.38659 
L 418.11179 179.158494 
L 422.620881 180.834563 
L 427.129972 182.429949 
L 431.639063 183.958448 
L 436.148153 185.430437 
L 440.657244 186.851344 
L 445.166335 188.220711 
L 449.675426 189.531882 
L 454.184517 190.77229 
L 458.693608 191.92428 
L 463.202699 192.966357 
L 467.71179 193.87475 
L 472.220881 194.62514 
L 476.729972 195.194417 
L 481.239062 195.562335 
" style="fill:none;stroke:#000000;stroke-linecap:square;stroke-width:1.5;"/>
   </g>
   <g id="patch_3">
    <path d="M 34.839063 301.716563 
L 34.839063 29.916562 
" style="fill:none;stroke:#000000;stroke-linecap:square;stroke-linejoin:miter;stroke-width:0.8;"/>
   </g>
   <g id="patch_4">
    <path d="M 481.239062 301.716563 
L 481.239062 29.916562 
" style="fill:none;stroke:#000000;stroke-linecap:square;stroke-linejoin:miter;stroke-width:0.8;"/>
   </g>
   <g id="patch_5">
    <path d="M 34.839063 301.716563 
L 481.239062 301.716563 
" style="fill:none;stroke:#000000;stroke-linecap:square;stroke-linejoin:miter;stroke-width:0.8;"/>
   </g>
   <g id="patch_6">
    <path d="M 34.839063 29.916562 
L 481.239062 29.916562 
" style="fill:none;stroke:#000000;stroke-linecap:square;stroke-linejoin:miter;stroke-width:0.8;"/>
   </g>
   <g id="PathCollection_1">
    <defs>
     <path d="M -3 3 
L 3 -3 
M -3 -3 
L 3 3 
" id="md7fcf0e241" style="stroke:#ff0000;stroke-width:1.5;"/>
    </defs>
    <g clip-path="url(#pa86b4167b5)">
     <use style="fill:#ff0000;stroke:#ff0000;stroke-width:1.5;" x="279.829411" xlink:href="#md7fcf0e241" y="205.599966"/>
     <use style="fill:#ff0000;stroke:#ff0000;stroke-width:1.5;" x="354.099596" xlink:href="#md7fcf0e241" y="153.982832"/>
     <use style="fill:#ff0000;stroke:#ff0000;stroke-width:1.5;" x="303.912634" xlink:href="#md7fcf0e241" y="187.25024"/>
     <use style="fill:#ff0000;stroke:#ff0000;stroke-width:1.5;" x="278.074915" xlink:href="#md7fcf0e241" y="213.049937"/>
     <use style="fill:#ff0000;stroke:#ff0000;stroke-width:1.5;" x="223.958565" xlink:href="#md7fcf0e241" y="179.580859"/>
     <use style="fill:#ff0000;stroke:#ff0000;stroke-width:1.5;" x="323.166195" xlink:href="#md7fcf0e241" y="160.348935"/>
     <use style="fill:#ff0000;stroke:#ff0000;stroke-width:1.5;" x="230.177994" xlink:href="#md7fcf0e241" y="181.876823"/>
     <use style="fill:#ff0000;stroke:#ff0000;stroke-width:1.5;" x="432.92653" xlink:href="#md7fcf0e241" y="186.083884"/>
     <use style="fill:#ff0000;stroke:#ff0000;stroke-width:1.5;" x="465.018119" xlink:href="#md7fcf0e241" y="197.849723"/>
     <use style="fill:#ff0000;stroke:#ff0000;stroke-width:1.5;" x="206.007357" xlink:href="#md7fcf0e241" y="151.208451"/>
     <use style="fill:#ff0000;stroke:#ff0000;stroke-width:1.5;" x="388.26512" xlink:href="#md7fcf0e241" y="168.156584"/>
     <use style="fill:#ff0000;stroke:#ff0000;stroke-width:1.5;" x="270.937755" xlink:href="#md7fcf0e241" y="206.924225"/>
     <use style="fill:#ff0000;stroke:#ff0000;stroke-width:1.5;" x="288.414155" xlink:href="#md7fcf0e241" y="199.732506"/>
     <use style="fill:#ff0000;stroke:#ff0000;stroke-width:1.5;" x="448.025402" xlink:href="#md7fcf0e241" y="187.781019"/>
     <use style="fill:#ff0000;stroke:#ff0000;stroke-width:1.5;" x="66.549559" xlink:href="#md7fcf0e241" y="149.332054"/>
     <use style="fill:#ff0000;stroke:#ff0000;stroke-width:1.5;" x="73.733582" xlink:href="#md7fcf0e241" y="143.64743"/>
     <use style="fill:#ff0000;stroke:#ff0000;stroke-width:1.5;" x="43.864555" xlink:href="#md7fcf0e241" y="157.595183"/>
     <use style="fill:#ff0000;stroke:#ff0000;stroke-width:1.5;" x="406.520562" xlink:href="#md7fcf0e241" y="168.056688"/>
     <use style="fill:#ff0000;stroke:#ff0000;stroke-width:1.5;" x="382.208236" xlink:href="#md7fcf0e241" y="161.303116"/>
     <use style="fill:#ff0000;stroke:#ff0000;stroke-width:1.5;" x="423.212485" xlink:href="#md7fcf0e241" y="177.715087"/>
     <use style="fill:#ff0000;stroke:#ff0000;stroke-width:1.5;" x="471.69429" xlink:href="#md7fcf0e241" y="188.747074"/>
     <use style="fill:#ff0000;stroke:#ff0000;stroke-width:1.5;" x="391.583446" xlink:href="#md7fcf0e241" y="170.746393"/>
     <use style="fill:#ff0000;stroke:#ff0000;stroke-width:1.5;" x="240.84345" xlink:href="#md7fcf0e241" y="202.000836"/>
     <use style="fill:#ff0000;stroke:#ff0000;stroke-width:1.5;" x="383.267287" xlink:href="#md7fcf0e241" y="159.370992"/>
     <use style="fill:#ff0000;stroke:#ff0000;stroke-width:1.5;" x="87.636766" xlink:href="#md7fcf0e241" y="146.451356"/>
     <use style="fill:#ff0000;stroke:#ff0000;stroke-width:1.5;" x="320.499806" xlink:href="#md7fcf0e241" y="158.928693"/>
     <use style="fill:#ff0000;stroke:#ff0000;stroke-width:1.5;" x="98.83197" xlink:href="#md7fcf0e241" y="145.463843"/>
     <use style="fill:#ff0000;stroke:#ff0000;stroke-width:1.5;" x="456.539267" xlink:href="#md7fcf0e241" y="193.925808"/>
     <use style="fill:#ff0000;stroke:#ff0000;stroke-width:1.5;" x="267.792153" xlink:href="#md7fcf0e241" y="204.908614"/>
     <use style="fill:#ff0000;stroke:#ff0000;stroke-width:1.5;" x="219.944153" xlink:href="#md7fcf0e241" y="165.587639"/>
     <use style="fill:#ff0000;stroke:#ff0000;stroke-width:1.5;" x="152.936688" xlink:href="#md7fcf0e241" y="111.962393"/>
     <use style="fill:#ff0000;stroke:#ff0000;stroke-width:1.5;" x="380.456981" xlink:href="#md7fcf0e241" y="157.500549"/>
     <use style="fill:#ff0000;stroke:#ff0000;stroke-width:1.5;" x="238.464571" xlink:href="#md7fcf0e241" y="198.504183"/>
     <use style="fill:#ff0000;stroke:#ff0000;stroke-width:1.5;" x="288.587977" xlink:href="#md7fcf0e241" y="191.277862"/>
     <use style="fill:#ff0000;stroke:#ff0000;stroke-width:1.5;" x="43.226829" xlink:href="#md7fcf0e241" y="157.547054"/>
     <use style="fill:#ff0000;stroke:#ff0000;stroke-width:1.5;" x="310.551548" xlink:href="#md7fcf0e241" y="170.713143"/>
     <use style="fill:#ff0000;stroke:#ff0000;stroke-width:1.5;" x="308.078593" xlink:href="#md7fcf0e241" y="172.272448"/>
     <use style="fill:#ff0000;stroke:#ff0000;stroke-width:1.5;" x="310.238399" xlink:href="#md7fcf0e241" y="173.46892"/>
     <use style="fill:#ff0000;stroke:#ff0000;stroke-width:1.5;" x="456.128205" xlink:href="#md7fcf0e241" y="189.381076"/>
     <use style="fill:#ff0000;stroke:#ff0000;stroke-width:1.5;" x="339.203644" xlink:href="#md7fcf0e241" y="148.804978"/>
     <use style="fill:#ff0000;stroke:#ff0000;stroke-width:1.5;" x="195.323389" xlink:href="#md7fcf0e241" y="132.192616"/>
     <use style="fill:#ff0000;stroke:#ff0000;stroke-width:1.5;" x="229.930127" xlink:href="#md7fcf0e241" y="189.333253"/>
     <use style="fill:#ff0000;stroke:#ff0000;stroke-width:1.5;" x="346.261628" xlink:href="#md7fcf0e241" y="149.220325"/>
     <use style="fill:#ff0000;stroke:#ff0000;stroke-width:1.5;" x="61.723713" xlink:href="#md7fcf0e241" y="145.301366"/>
     <use style="fill:#ff0000;stroke:#ff0000;stroke-width:1.5;" x="332.483724" xlink:href="#md7fcf0e241" y="156.607306"/>
     <use style="fill:#ff0000;stroke:#ff0000;stroke-width:1.5;" x="334.211807" xlink:href="#md7fcf0e241" y="154.157638"/>
     <use style="fill:#ff0000;stroke:#ff0000;stroke-width:1.5;" x="128.753838" xlink:href="#md7fcf0e241" y="129.970191"/>
     <use style="fill:#ff0000;stroke:#ff0000;stroke-width:1.5;" x="92.391762" xlink:href="#md7fcf0e241" y="137.358933"/>
     <use style="fill:#ff0000;stroke:#ff0000;stroke-width:1.5;" x="175.646278" xlink:href="#md7fcf0e241" y="112.302625"/>
     <use style="fill:#ff0000;stroke:#ff0000;stroke-width:1.5;" x="197.199551" xlink:href="#md7fcf0e241" y="133.251886"/>
     <use style="fill:#ff0000;stroke:#ff0000;stroke-width:1.5;" x="289.374901" xlink:href="#md7fcf0e241" y="198.584702"/>
     <use style="fill:#ff0000;stroke:#ff0000;stroke-width:1.5;" x="230.630778" xlink:href="#md7fcf0e241" y="184.962595"/>
     <use style="fill:#ff0000;stroke:#ff0000;stroke-width:1.5;" x="476.049144" xlink:href="#md7fcf0e241" y="196.072443"/>
     <use style="fill:#ff0000;stroke:#ff0000;stroke-width:1.5;" x="80.391866" xlink:href="#md7fcf0e241" y="144.570237"/>
     <use style="fill:#ff0000;stroke:#ff0000;stroke-width:1.5;" x="128.081646" xlink:href="#md7fcf0e241" y="131.059627"/>
     <use style="fill:#ff0000;stroke:#ff0000;stroke-width:1.5;" x="106.847631" xlink:href="#md7fcf0e241" y="137.224027"/>
     <use style="fill:#ff0000;stroke:#ff0000;stroke-width:1.5;" x="326.386619" xlink:href="#md7fcf0e241" y="156.166945"/>
     <use style="fill:#ff0000;stroke:#ff0000;stroke-width:1.5;" x="147.908434" xlink:href="#md7fcf0e241" y="117.446569"/>
     <use style="fill:#ff0000;stroke:#ff0000;stroke-width:1.5;" x="243.000192" xlink:href="#md7fcf0e241" y="200.302116"/>
     <use style="fill:#ff0000;stroke:#ff0000;stroke-width:1.5;" x="143.950647" xlink:href="#md7fcf0e241" y="123.193154"/>
     <use style="fill:#ff0000;stroke:#ff0000;stroke-width:1.5;" x="105.803085" xlink:href="#md7fcf0e241" y="145.358029"/>
     <use style="fill:#ff0000;stroke:#ff0000;stroke-width:1.5;" x="84.110526" xlink:href="#md7fcf0e241" y="142.702234"/>
     <use style="fill:#ff0000;stroke:#ff0000;stroke-width:1.5;" x="327.824591" xlink:href="#md7fcf0e241" y="156.447052"/>
     <use style="fill:#ff0000;stroke:#ff0000;stroke-width:1.5;" x="96.523932" xlink:href="#md7fcf0e241" y="140.325047"/>
     <use style="fill:#ff0000;stroke:#ff0000;stroke-width:1.5;" x="122.593429" xlink:href="#md7fcf0e241" y="124.556986"/>
     <use style="fill:#ff0000;stroke:#ff0000;stroke-width:1.5;" x="199.437979" xlink:href="#md7fcf0e241" y="134.162196"/>
     <use style="fill:#ff0000;stroke:#ff0000;stroke-width:1.5;" x="401.33044" xlink:href="#md7fcf0e241" y="173.84073"/>
     <use style="fill:#ff0000;stroke:#ff0000;stroke-width:1.5;" x="78.185072" xlink:href="#md7fcf0e241" y="140.693074"/>
     <use style="fill:#ff0000;stroke:#ff0000;stroke-width:1.5;" x="408.897669" xlink:href="#md7fcf0e241" y="179.376438"/>
     <use style="fill:#ff0000;stroke:#ff0000;stroke-width:1.5;" x="77.737392" xlink:href="#md7fcf0e241" y="145.974685"/>
     <use style="fill:#ff0000;stroke:#ff0000;stroke-width:1.5;" x="470.730568" xlink:href="#md7fcf0e241" y="194.14255"/>
     <use style="fill:#ff0000;stroke:#ff0000;stroke-width:1.5;" x="244.044959" xlink:href="#md7fcf0e241" y="196.332266"/>
     <use style="fill:#ff0000;stroke:#ff0000;stroke-width:1.5;" x="470.865212" xlink:href="#md7fcf0e241" y="196.748729"/>
     <use style="fill:#ff0000;stroke:#ff0000;stroke-width:1.5;" x="304.842103" xlink:href="#md7fcf0e241" y="182.016984"/>
     <use style="fill:#ff0000;stroke:#ff0000;stroke-width:1.5;" x="364.846324" xlink:href="#md7fcf0e241" y="153.473937"/>
     <use style="fill:#ff0000;stroke:#ff0000;stroke-width:1.5;" x="52.332493" xlink:href="#md7fcf0e241" y="154.566955"/>
     <use style="fill:#ff0000;stroke:#ff0000;stroke-width:1.5;" x="161.084091" xlink:href="#md7fcf0e241" y="108.086179"/>
     <use style="fill:#ff0000;stroke:#ff0000;stroke-width:1.5;" x="88.494807" xlink:href="#md7fcf0e241" y="146.835403"/>
     <use style="fill:#ff0000;stroke:#ff0000;stroke-width:1.5;" x="167.036047" xlink:href="#md7fcf0e241" y="115.51073"/>
     <use style="fill:#ff0000;stroke:#ff0000;stroke-width:1.5;" x="87.839116" xlink:href="#md7fcf0e241" y="144.950128"/>
     <use style="fill:#ff0000;stroke:#ff0000;stroke-width:1.5;" x="176.786754" xlink:href="#md7fcf0e241" y="116.702092"/>
     <use style="fill:#ff0000;stroke:#ff0000;stroke-width:1.5;" x="219.766063" xlink:href="#md7fcf0e241" y="162.227697"/>
     <use style="fill:#ff0000;stroke:#ff0000;stroke-width:1.5;" x="63.474505" xlink:href="#md7fcf0e241" y="144.870996"/>
     <use style="fill:#ff0000;stroke:#ff0000;stroke-width:1.5;" x="343.958617" xlink:href="#md7fcf0e241" y="149.865156"/>
     <use style="fill:#ff0000;stroke:#ff0000;stroke-width:1.5;" x="287.769952" xlink:href="#md7fcf0e241" y="202.443632"/>
     <use style="fill:#ff0000;stroke:#ff0000;stroke-width:1.5;" x="153.308931" xlink:href="#md7fcf0e241" y="111.470751"/>
     <use style="fill:#ff0000;stroke:#ff0000;stroke-width:1.5;" x="268.416994" xlink:href="#md7fcf0e241" y="214.275653"/>
     <use style="fill:#ff0000;stroke:#ff0000;stroke-width:1.5;" x="76.774107" xlink:href="#md7fcf0e241" y="150.467892"/>
     <use style="fill:#ff0000;stroke:#ff0000;stroke-width:1.5;" x="291.941578" xlink:href="#md7fcf0e241" y="190.250175"/>
     <use style="fill:#ff0000;stroke:#ff0000;stroke-width:1.5;" x="449.676885" xlink:href="#md7fcf0e241" y="188.546776"/>
     <use style="fill:#ff0000;stroke:#ff0000;stroke-width:1.5;" x="177.048243" xlink:href="#md7fcf0e241" y="111.618314"/>
     <use style="fill:#ff0000;stroke:#ff0000;stroke-width:1.5;" x="332.771056" xlink:href="#md7fcf0e241" y="152.733924"/>
     <use style="fill:#ff0000;stroke:#ff0000;stroke-width:1.5;" x="93.673628" xlink:href="#md7fcf0e241" y="139.772103"/>
     <use style="fill:#ff0000;stroke:#ff0000;stroke-width:1.5;" x="354.607526" xlink:href="#md7fcf0e241" y="152.585376"/>
     <use style="fill:#ff0000;stroke:#ff0000;stroke-width:1.5;" x="164.029942" xlink:href="#md7fcf0e241" y="115.303596"/>
     <use style="fill:#ff0000;stroke:#ff0000;stroke-width:1.5;" x="116.615686" xlink:href="#md7fcf0e241" y="132.468257"/>
     <use style="fill:#ff0000;stroke:#ff0000;stroke-width:1.5;" x="296.658437" xlink:href="#md7fcf0e241" y="191.643009"/>
     <use style="fill:#ff0000;stroke:#ff0000;stroke-width:1.5;" x="43.815071" xlink:href="#md7fcf0e241" y="159.266424"/>
     <use style="fill:#ff0000;stroke:#ff0000;stroke-width:1.5;" x="404.877892" xlink:href="#md7fcf0e241" y="175.077779"/>
     <use style="fill:#ff0000;stroke:#ff0000;stroke-width:1.5;" x="36.935123" xlink:href="#md7fcf0e241" y="161.325332"/>
    </g>
   </g>
   <g id="text_11">
    <!-- Data sampled from GP -->
    <defs>
     <path d="M 19.671875 64.796875 
L 19.671875 8.109375 
L 31.59375 8.109375 
Q 46.6875 8.109375 53.6875 14.9375 
Q 60.6875 21.78125 60.6875 36.53125 
Q 60.6875 51.171875 53.6875 57.984375 
Q 46.6875 64.796875 31.59375 64.796875 
z
M 9.8125 72.90625 
L 30.078125 72.90625 
Q 51.265625 72.90625 61.171875 64.09375 
Q 71.09375 55.28125 71.09375 36.53125 
Q 71.09375 17.671875 61.125 8.828125 
Q 51.171875 0 30.078125 0 
L 9.8125 0 
z
" id="DejaVuSans-68"/>
     <path d="M 34.28125 27.484375 
Q 23.390625 27.484375 19.1875 25 
Q 14.984375 22.515625 14.984375 16.5 
Q 14.984375 11.71875 18.140625 8.90625 
Q 21.296875 6.109375 26.703125 6.109375 
Q 34.1875 6.109375 38.703125 11.40625 
Q 43.21875 16.703125 43.21875 25.484375 
L 43.21875 27.484375 
z
M 52.203125 31.203125 
L 52.203125 0 
L 43.21875 0 
L 43.21875 8.296875 
Q 40.140625 3.328125 35.546875 0.953125 
Q 30.953125 -1.421875 24.3125 -1.421875 
Q 15.921875 -1.421875 10.953125 3.296875 
Q 6 8.015625 6 15.921875 
Q 6 25.140625 12.171875 29.828125 
Q 18.359375 34.515625 30.609375 34.515625 
L 43.21875 34.515625 
L 43.21875 35.40625 
Q 43.21875 41.609375 39.140625 45 
Q 35.0625 48.390625 27.6875 48.390625 
Q 23 48.390625 18.546875 47.265625 
Q 14.109375 46.140625 10.015625 43.890625 
L 10.015625 52.203125 
Q 14.9375 54.109375 19.578125 55.046875 
Q 24.21875 56 28.609375 56 
Q 40.484375 56 46.34375 49.84375 
Q 52.203125 43.703125 52.203125 31.203125 
z
" id="DejaVuSans-97"/>
     <path d="M 18.3125 70.21875 
L 18.3125 54.6875 
L 36.8125 54.6875 
L 36.8125 47.703125 
L 18.3125 47.703125 
L 18.3125 18.015625 
Q 18.3125 11.328125 20.140625 9.421875 
Q 21.96875 7.515625 27.59375 7.515625 
L 36.8125 7.515625 
L 36.8125 0 
L 27.59375 0 
Q 17.1875 0 13.234375 3.875 
Q 9.28125 7.765625 9.28125 18.015625 
L 9.28125 47.703125 
L 2.6875 47.703125 
L 2.6875 54.6875 
L 9.28125 54.6875 
L 9.28125 70.21875 
z
" id="DejaVuSans-116"/>
     <path id="DejaVuSans-32"/>
     <path d="M 44.28125 53.078125 
L 44.28125 44.578125 
Q 40.484375 46.53125 36.375 47.5 
Q 32.28125 48.484375 27.875 48.484375 
Q 21.1875 48.484375 17.84375 46.4375 
Q 14.5 44.390625 14.5 40.28125 
Q 14.5 37.15625 16.890625 35.375 
Q 19.28125 33.59375 26.515625 31.984375 
L 29.59375 31.296875 
Q 39.15625 29.25 43.1875 25.515625 
Q 47.21875 21.78125 47.21875 15.09375 
Q 47.21875 7.46875 41.1875 3.015625 
Q 35.15625 -1.421875 24.609375 -1.421875 
Q 20.21875 -1.421875 15.453125 -0.5625 
Q 10.6875 0.296875 5.421875 2 
L 5.421875 11.28125 
Q 10.40625 8.6875 15.234375 7.390625 
Q 20.0625 6.109375 24.8125 6.109375 
Q 31.15625 6.109375 34.5625 8.28125 
Q 37.984375 10.453125 37.984375 14.40625 
Q 37.984375 18.0625 35.515625 20.015625 
Q 33.0625 21.96875 24.703125 23.78125 
L 21.578125 24.515625 
Q 13.234375 26.265625 9.515625 29.90625 
Q 5.8125 33.546875 5.8125 39.890625 
Q 5.8125 47.609375 11.28125 51.796875 
Q 16.75 56 26.8125 56 
Q 31.78125 56 36.171875 55.265625 
Q 40.578125 54.546875 44.28125 53.078125 
z
" id="DejaVuSans-115"/>
     <path d="M 52 44.1875 
Q 55.375 50.25 60.0625 53.125 
Q 64.75 56 71.09375 56 
Q 79.640625 56 84.28125 50.015625 
Q 88.921875 44.046875 88.921875 33.015625 
L 88.921875 0 
L 79.890625 0 
L 79.890625 32.71875 
Q 79.890625 40.578125 77.09375 44.375 
Q 74.3125 48.1875 68.609375 48.1875 
Q 61.625 48.1875 57.5625 43.546875 
Q 53.515625 38.921875 53.515625 30.90625 
L 53.515625 0 
L 44.484375 0 
L 44.484375 32.71875 
Q 44.484375 40.625 41.703125 44.40625 
Q 38.921875 48.1875 33.109375 48.1875 
Q 26.21875 48.1875 22.15625 43.53125 
Q 18.109375 38.875 18.109375 30.90625 
L 18.109375 0 
L 9.078125 0 
L 9.078125 54.6875 
L 18.109375 54.6875 
L 18.109375 46.1875 
Q 21.1875 51.21875 25.484375 53.609375 
Q 29.78125 56 35.6875 56 
Q 41.65625 56 45.828125 52.96875 
Q 50 49.953125 52 44.1875 
z
" id="DejaVuSans-109"/>
     <path d="M 18.109375 8.203125 
L 18.109375 -20.796875 
L 9.078125 -20.796875 
L 9.078125 54.6875 
L 18.109375 54.6875 
L 18.109375 46.390625 
Q 20.953125 51.265625 25.265625 53.625 
Q 29.59375 56 35.59375 56 
Q 45.5625 56 51.78125 48.09375 
Q 58.015625 40.1875 58.015625 27.296875 
Q 58.015625 14.40625 51.78125 6.484375 
Q 45.5625 -1.421875 35.59375 -1.421875 
Q 29.59375 -1.421875 25.265625 0.953125 
Q 20.953125 3.328125 18.109375 8.203125 
z
M 48.6875 27.296875 
Q 48.6875 37.203125 44.609375 42.84375 
Q 40.53125 48.484375 33.40625 48.484375 
Q 26.265625 48.484375 22.1875 42.84375 
Q 18.109375 37.203125 18.109375 27.296875 
Q 18.109375 17.390625 22.1875 11.75 
Q 26.265625 6.109375 33.40625 6.109375 
Q 40.53125 6.109375 44.609375 11.75 
Q 48.6875 17.390625 48.6875 27.296875 
z
" id="DejaVuSans-112"/>
     <path d="M 9.421875 75.984375 
L 18.40625 75.984375 
L 18.40625 0 
L 9.421875 0 
z
" id="DejaVuSans-108"/>
     <path d="M 56.203125 29.59375 
L 56.203125 25.203125 
L 14.890625 25.203125 
Q 15.484375 15.921875 20.484375 11.0625 
Q 25.484375 6.203125 34.421875 6.203125 
Q 39.59375 6.203125 44.453125 7.46875 
Q 49.3125 8.734375 54.109375 11.28125 
L 54.109375 2.78125 
Q 49.265625 0.734375 44.1875 -0.34375 
Q 39.109375 -1.421875 33.890625 -1.421875 
Q 20.796875 -1.421875 13.15625 6.1875 
Q 5.515625 13.8125 5.515625 26.8125 
Q 5.515625 40.234375 12.765625 48.109375 
Q 20.015625 56 32.328125 56 
Q 43.359375 56 49.78125 48.890625 
Q 56.203125 41.796875 56.203125 29.59375 
z
M 47.21875 32.234375 
Q 47.125 39.59375 43.09375 43.984375 
Q 39.0625 48.390625 32.421875 48.390625 
Q 24.90625 48.390625 20.390625 44.140625 
Q 15.875 39.890625 15.1875 32.171875 
z
" id="DejaVuSans-101"/>
     <path d="M 45.40625 46.390625 
L 45.40625 75.984375 
L 54.390625 75.984375 
L 54.390625 0 
L 45.40625 0 
L 45.40625 8.203125 
Q 42.578125 3.328125 38.25 0.953125 
Q 33.9375 -1.421875 27.875 -1.421875 
Q 17.96875 -1.421875 11.734375 6.484375 
Q 5.515625 14.40625 5.515625 27.296875 
Q 5.515625 40.1875 11.734375 48.09375 
Q 17.96875 56 27.875 56 
Q 33.9375 56 38.25 53.625 
Q 42.578125 51.265625 45.40625 46.390625 
z
M 14.796875 27.296875 
Q 14.796875 17.390625 18.875 11.75 
Q 22.953125 6.109375 30.078125 6.109375 
Q 37.203125 6.109375 41.296875 11.75 
Q 45.40625 17.390625 45.40625 27.296875 
Q 45.40625 37.203125 41.296875 42.84375 
Q 37.203125 48.484375 30.078125 48.484375 
Q 22.953125 48.484375 18.875 42.84375 
Q 14.796875 37.203125 14.796875 27.296875 
z
" id="DejaVuSans-100"/>
     <path d="M 37.109375 75.984375 
L 37.109375 68.5 
L 28.515625 68.5 
Q 23.6875 68.5 21.796875 66.546875 
Q 19.921875 64.59375 19.921875 59.515625 
L 19.921875 54.6875 
L 34.71875 54.6875 
L 34.71875 47.703125 
L 19.921875 47.703125 
L 19.921875 0 
L 10.890625 0 
L 10.890625 47.703125 
L 2.296875 47.703125 
L 2.296875 54.6875 
L 10.890625 54.6875 
L 10.890625 58.5 
Q 10.890625 67.625 15.140625 71.796875 
Q 19.390625 75.984375 28.609375 75.984375 
z
" id="DejaVuSans-102"/>
     <path d="M 41.109375 46.296875 
Q 39.59375 47.171875 37.8125 47.578125 
Q 36.03125 48 33.890625 48 
Q 26.265625 48 22.1875 43.046875 
Q 18.109375 38.09375 18.109375 28.8125 
L 18.109375 0 
L 9.078125 0 
L 9.078125 54.6875 
L 18.109375 54.6875 
L 18.109375 46.1875 
Q 20.953125 51.171875 25.484375 53.578125 
Q 30.03125 56 36.53125 56 
Q 37.453125 56 38.578125 55.875 
Q 39.703125 55.765625 41.0625 55.515625 
z
" id="DejaVuSans-114"/>
     <path d="M 30.609375 48.390625 
Q 23.390625 48.390625 19.1875 42.75 
Q 14.984375 37.109375 14.984375 27.296875 
Q 14.984375 17.484375 19.15625 11.84375 
Q 23.34375 6.203125 30.609375 6.203125 
Q 37.796875 6.203125 41.984375 11.859375 
Q 46.1875 17.53125 46.1875 27.296875 
Q 46.1875 37.015625 41.984375 42.703125 
Q 37.796875 48.390625 30.609375 48.390625 
z
M 30.609375 56 
Q 42.328125 56 49.015625 48.375 
Q 55.71875 40.765625 55.71875 27.296875 
Q 55.71875 13.875 49.015625 6.21875 
Q 42.328125 -1.421875 30.609375 -1.421875 
Q 18.84375 -1.421875 12.171875 6.21875 
Q 5.515625 13.875 5.515625 27.296875 
Q 5.515625 40.765625 12.171875 48.375 
Q 18.84375 56 30.609375 56 
z
" id="DejaVuSans-111"/>
     <path d="M 59.515625 10.40625 
L 59.515625 29.984375 
L 43.40625 29.984375 
L 43.40625 38.09375 
L 69.28125 38.09375 
L 69.28125 6.78125 
Q 63.578125 2.734375 56.6875 0.65625 
Q 49.8125 -1.421875 42 -1.421875 
Q 24.90625 -1.421875 15.25 8.5625 
Q 5.609375 18.5625 5.609375 36.375 
Q 5.609375 54.25 15.25 64.234375 
Q 24.90625 74.21875 42 74.21875 
Q 49.125 74.21875 55.546875 72.453125 
Q 61.96875 70.703125 67.390625 67.28125 
L 67.390625 56.78125 
Q 61.921875 61.421875 55.765625 63.765625 
Q 49.609375 66.109375 42.828125 66.109375 
Q 29.4375 66.109375 22.71875 58.640625 
Q 16.015625 51.171875 16.015625 36.375 
Q 16.015625 21.625 22.71875 14.15625 
Q 29.4375 6.6875 42.828125 6.6875 
Q 48.046875 6.6875 52.140625 7.59375 
Q 56.25 8.5 59.515625 10.40625 
z
" id="DejaVuSans-71"/>
     <path d="M 19.671875 64.796875 
L 19.671875 37.40625 
L 32.078125 37.40625 
Q 38.96875 37.40625 42.71875 40.96875 
Q 46.484375 44.53125 46.484375 51.125 
Q 46.484375 57.671875 42.71875 61.234375 
Q 38.96875 64.796875 32.078125 64.796875 
z
M 9.8125 72.90625 
L 32.078125 72.90625 
Q 44.34375 72.90625 50.609375 67.359375 
Q 56.890625 61.8125 56.890625 51.125 
Q 56.890625 40.328125 50.609375 34.8125 
Q 44.34375 29.296875 32.078125 29.296875 
L 19.671875 29.296875 
L 19.671875 0 
L 9.8125 0 
z
" id="DejaVuSans-80"/>
    </defs>
    <g transform="translate(133.562031 23.916562)scale(0.22 -0.22)">
     <use xlink:href="#DejaVuSans-68"/>
     <use x="77.001953" xlink:href="#DejaVuSans-97"/>
     <use x="138.28125" xlink:href="#DejaVuSans-116"/>
     <use x="177.490234" xlink:href="#DejaVuSans-97"/>
     <use x="238.769531" xlink:href="#DejaVuSans-32"/>
     <use x="270.556641" xlink:href="#DejaVuSans-115"/>
     <use x="322.65625" xlink:href="#DejaVuSans-97"/>
     <use x="383.935547" xlink:href="#DejaVuSans-109"/>
     <use x="481.347656" xlink:href="#DejaVuSans-112"/>
     <use x="544.824219" xlink:href="#DejaVuSans-108"/>
     <use x="572.607422" xlink:href="#DejaVuSans-101"/>
     <use x="634.130859" xlink:href="#DejaVuSans-100"/>
     <use x="697.607422" xlink:href="#DejaVuSans-32"/>
     <use x="729.394531" xlink:href="#DejaVuSans-102"/>
     <use x="764.599609" xlink:href="#DejaVuSans-114"/>
     <use x="803.462891" xlink:href="#DejaVuSans-111"/>
     <use x="864.644531" xlink:href="#DejaVuSans-109"/>
     <use x="962.056641" xlink:href="#DejaVuSans-32"/>
     <use x="993.84375" xlink:href="#DejaVuSans-71"/>
     <use x="1071.333984" xlink:href="#DejaVuSans-80"/>
    </g>
   </g>
   <g id="legend_1">
    <g id="patch_7">
     <path d="M 300.009062 294.716563 
L 471.439062 294.716563 
Q 474.239062 294.716563 474.239062 291.916562 
L 474.239062 231.5 
Q 474.239062 228.7 471.439062 228.7 
L 300.009062 228.7 
Q 297.209062 228.7 297.209062 231.5 
L 297.209062 291.916562 
Q 297.209062 294.716563 300.009062 294.716563 
z
" style="fill:#ffffff;opacity:0.8;stroke:#cccccc;stroke-linejoin:miter;"/>
    </g>
    <g id="line2d_12">
     <path d="M 302.809062 240.037813 
L 330.809062 240.037813 
" style="fill:none;stroke:#000000;stroke-linecap:square;stroke-width:1.5;"/>
    </g>
    <g id="line2d_13"/>
    <g id="text_12">
     <!-- Pred. post. mean -->
     <defs>
      <path d="M 10.6875 12.40625 
L 21 12.40625 
L 21 0 
L 10.6875 0 
z
" id="DejaVuSans-46"/>
      <path d="M 54.890625 33.015625 
L 54.890625 0 
L 45.90625 0 
L 45.90625 32.71875 
Q 45.90625 40.484375 42.875 44.328125 
Q 39.84375 48.1875 33.796875 48.1875 
Q 26.515625 48.1875 22.3125 43.546875 
Q 18.109375 38.921875 18.109375 30.90625 
L 18.109375 0 
L 9.078125 0 
L 9.078125 54.6875 
L 18.109375 54.6875 
L 18.109375 46.1875 
Q 21.34375 51.125 25.703125 53.5625 
Q 30.078125 56 35.796875 56 
Q 45.21875 56 50.046875 50.171875 
Q 54.890625 44.34375 54.890625 33.015625 
z
" id="DejaVuSans-110"/>
     </defs>
     <g transform="translate(342.009062 244.937813)scale(0.14 -0.14)">
      <use xlink:href="#DejaVuSans-80"/>
      <use x="58.552734" xlink:href="#DejaVuSans-114"/>
      <use x="97.416016" xlink:href="#DejaVuSans-101"/>
      <use x="158.939453" xlink:href="#DejaVuSans-100"/>
      <use x="222.416016" xlink:href="#DejaVuSans-46"/>
      <use x="254.203125" xlink:href="#DejaVuSans-32"/>
      <use x="285.990234" xlink:href="#DejaVuSans-112"/>
      <use x="349.466797" xlink:href="#DejaVuSans-111"/>
      <use x="410.648438" xlink:href="#DejaVuSans-115"/>
      <use x="462.748047" xlink:href="#DejaVuSans-116"/>
      <use x="501.957031" xlink:href="#DejaVuSans-46"/>
      <use x="533.744141" xlink:href="#DejaVuSans-32"/>
      <use x="565.53125" xlink:href="#DejaVuSans-109"/>
      <use x="662.943359" xlink:href="#DejaVuSans-101"/>
      <use x="724.466797" xlink:href="#DejaVuSans-97"/>
      <use x="785.746094" xlink:href="#DejaVuSans-110"/>
     </g>
    </g>
    <g id="patch_8">
     <path d="M 302.809062 265.487188 
L 330.809062 265.487188 
L 330.809062 255.687187 
L 302.809062 255.687187 
z
" style="fill:#808080;opacity:0.2;stroke:#808080;stroke-linejoin:miter;"/>
    </g>
    <g id="text_13">
     <!-- Pred. post. stddev -->
     <defs>
      <path d="M 2.984375 54.6875 
L 12.5 54.6875 
L 29.59375 8.796875 
L 46.6875 54.6875 
L 56.203125 54.6875 
L 35.6875 0 
L 23.484375 0 
z
" id="DejaVuSans-118"/>
     </defs>
     <g transform="translate(342.009062 265.487188)scale(0.14 -0.14)">
      <use xlink:href="#DejaVuSans-80"/>
      <use x="58.552734" xlink:href="#DejaVuSans-114"/>
      <use x="97.416016" xlink:href="#DejaVuSans-101"/>
      <use x="158.939453" xlink:href="#DejaVuSans-100"/>
      <use x="222.416016" xlink:href="#DejaVuSans-46"/>
      <use x="254.203125" xlink:href="#DejaVuSans-32"/>
      <use x="285.990234" xlink:href="#DejaVuSans-112"/>
      <use x="349.466797" xlink:href="#DejaVuSans-111"/>
      <use x="410.648438" xlink:href="#DejaVuSans-115"/>
      <use x="462.748047" xlink:href="#DejaVuSans-116"/>
      <use x="501.957031" xlink:href="#DejaVuSans-46"/>
      <use x="533.744141" xlink:href="#DejaVuSans-32"/>
      <use x="565.53125" xlink:href="#DejaVuSans-115"/>
      <use x="617.630859" xlink:href="#DejaVuSans-116"/>
      <use x="656.839844" xlink:href="#DejaVuSans-100"/>
      <use x="720.316406" xlink:href="#DejaVuSans-100"/>
      <use x="783.792969" xlink:href="#DejaVuSans-101"/>
      <use x="845.316406" xlink:href="#DejaVuSans-118"/>
     </g>
    </g>
    <g id="PathCollection_2">
     <g>
      <use style="fill:#ff0000;stroke:#ff0000;stroke-width:1.5;" x="316.809062" xlink:href="#md7fcf0e241" y="282.361562"/>
     </g>
    </g>
    <g id="text_14">
     <!-- $\mathbf{y}$ -->
     <defs>
      <path d="M 1.21875 54.6875 
L 18.703125 54.6875 
L 33.40625 17.578125 
L 45.90625 54.6875 
L 63.375 54.6875 
L 40.375 -5.171875 
Q 36.921875 -14.3125 32.296875 -17.9375 
Q 27.6875 -21.578125 20.125 -21.578125 
L 10.015625 -21.578125 
L 10.015625 -10.109375 
L 15.484375 -10.109375 
Q 19.921875 -10.109375 21.9375 -8.6875 
Q 23.96875 -7.28125 25.09375 -3.609375 
L 25.59375 -2.09375 
z
" id="DejaVuSans-Bold-121"/>
     </defs>
     <g transform="translate(342.009062 286.036563)scale(0.14 -0.14)">
      <use transform="translate(0 0.3125)" xlink:href="#DejaVuSans-Bold-121"/>
     </g>
    </g>
   </g>
  </g>
 </g>
 <defs>
  <clipPath id="pa86b4167b5">
   <rect height="271.8" width="446.4" x="34.839063" y="29.916562"/>
  </clipPath>
 </defs>
</svg>
